<svg width="54" height="60" viewBox="0 0 54 60" fill="none" xmlns="http://www.w3.org/2000/svg">
<g clip-path="url(#clip0_983_7053)">
<path d="M10.251 60H2.1945C1.45245 60 0.816406 59.364 0.816406 58.6219V43.3569C0.816406 41.3428 2.08849 39.4346 3.99662 38.5866L16.7175 33.7102C17.3535 33.4982 18.2016 33.8163 18.4136 34.4523C18.6256 35.0883 18.3076 35.9364 17.6715 36.1484L4.95068 41.0247C4.10263 41.3428 3.46658 42.1908 3.46658 43.1449V57.3498H10.251C10.9931 57.3498 11.6291 57.9859 11.6291 58.7279C11.5231 59.47 10.8871 60 10.251 60Z" fill="#F6F8FA"/>
<path d="M51.8054 60H43.7488C43.0068 60 42.3708 59.3639 42.3708 58.6219C42.3708 57.8798 43.0068 57.3498 43.7488 57.3498H50.5333V42.5088C50.5333 41.5548 49.8973 40.6007 48.9432 40.2827L36.7524 36.2544C36.0103 36.0424 35.6923 35.3003 35.9043 34.5583C36.1163 33.8162 36.8584 33.4982 37.6004 33.7102L49.7912 37.7385C51.8054 38.3745 53.1835 40.2827 53.1835 42.5088V58.7279C53.1835 59.4699 52.5474 60 51.8054 60Z" fill="#F6F8FA"/>
<path d="M43.7494 60H10.2511C9.50909 60 8.87305 59.364 8.87305 58.6219V46.6431C8.87305 45.9011 9.50909 45.265 10.2511 45.265C10.9932 45.265 11.6292 45.9011 11.6292 46.6431V57.3498H42.4773V46.6431C42.4773 45.9011 43.1133 45.265 43.8554 45.265C44.5974 45.265 45.3395 45.9011 45.3395 46.6431V58.7279C45.1275 59.47 44.4914 60 43.7494 60Z" fill="#F6F8FA"/>
<path d="M39.0843 11.7668C38.4483 11.7668 37.9182 11.3428 37.8122 10.8127C36.6461 5.9364 32.1938 2.65018 27.3175 2.65018C22.3352 2.65018 18.0949 5.9364 16.9288 10.8127C16.7168 11.5548 16.0808 11.9788 15.3387 11.7668C14.5967 11.5548 14.1726 10.9187 14.3847 10.1767C15.8688 4.13428 21.1691 0 27.3175 0C33.5719 0 38.8723 4.13428 40.3564 10.1767C40.5684 10.9187 40.1444 11.5548 39.4023 11.7668C39.2963 11.7668 39.1903 11.7668 39.0843 11.7668Z" fill="#F6F8FA"/>
<path d="M27.2112 32.4382C24.349 32.4382 21.4868 31.0601 19.2607 28.5159C16.9285 25.8657 15.6565 22.5795 14.9144 20.3534C14.8084 19.6113 15.1264 18.8693 15.8685 18.6572C16.6105 18.4452 17.3526 18.8693 17.5646 19.5053C19.0487 24.3816 22.4409 29.682 27.3172 29.682C32.2996 29.682 35.5858 24.2756 37.1759 19.3993C37.3879 18.6572 38.13 18.3392 38.872 18.5512C39.6141 18.7632 39.9321 19.5053 39.7201 20.2473C38.978 22.4735 37.7059 25.8657 35.3738 28.4099C32.9356 30.9541 30.1794 32.4382 27.2112 32.4382Z" fill="#F6F8FA"/>
<path d="M40.145 21.2014H14.3853C12.6892 21.2014 11.2051 19.8234 11.2051 18.0212V12.2969C11.2051 10.6007 12.5832 9.11664 14.3853 9.11664H40.251C41.9471 9.11664 43.4312 10.4947 43.4312 12.2969V18.0212C43.4312 19.7173 41.9471 21.2014 40.145 21.2014ZM14.3853 11.7668C14.0673 11.7668 13.8553 11.9788 13.8553 12.2969V18.0212C13.8553 18.3393 14.0673 18.5513 14.3853 18.5513H40.251C40.569 18.5513 40.781 18.3393 40.781 18.0212V12.2969C40.781 11.9788 40.569 11.7668 40.251 11.7668H14.3853Z" fill="#F6F8FA"/>
<path d="M30.6034 48.0212C30.1794 48.0212 29.8614 47.8092 29.5434 47.4912L25.9391 43.1449C25.5151 42.7209 25.5151 41.9788 25.9391 41.5548L33.1476 31.8021C33.3596 31.4841 33.6776 31.2721 34.1017 31.2721C34.5257 31.2721 34.8437 31.3781 35.1617 31.5901L37.9179 34.0283C38.3419 34.4523 38.4479 35.0883 38.2359 35.6184L31.7695 47.2792C31.5575 47.7032 31.1335 47.9152 30.7094 47.9152L30.6034 48.0212ZM28.6953 42.2968L30.3914 44.311L35.3737 35.3004L34.5257 34.4523L28.6953 42.2968Z" fill="#F6F8FA"/>
<path d="M23.077 48.0212C22.971 48.0212 22.971 48.0212 22.865 48.0212C22.4409 47.9152 22.0169 47.7032 21.8049 47.2792L15.7625 35.6184C15.4445 35.0883 15.6565 34.4523 16.0805 34.0283L18.8367 31.5901C19.1547 31.3781 19.4727 31.2721 19.8968 31.2721C20.3208 31.2721 20.6388 31.4841 20.8508 31.8021L27.9533 41.5548C28.2713 42.0848 28.2713 42.7209 27.8473 43.2509L24.1371 47.5972C23.819 47.8092 23.501 48.0212 23.077 48.0212ZM18.8367 35.3004L23.501 44.311L25.4091 42.1908L19.7908 34.4523L18.8367 35.3004Z" fill="#F6F8FA"/>
</g>
<defs>
<clipPath id="clip0_983_7053">
<rect width="52.3675" height="60" fill="white" transform="translate(0.816406)"/>
</clipPath>
</defs>
</svg>
