<svg width="75" height="67" viewBox="0 0 75 67" fill="none" xmlns="http://www.w3.org/2000/svg">
<path d="M35.9305 43.8987C36.8735 43.8987 37.6227 44.648 37.6227 45.578C37.6227 46.5081 36.8606 47.2573 35.9305 47.2573C35.0004 47.2573 34.2383 46.5081 34.2383 45.578C34.2383 44.648 35.0004 43.8987 35.9305 43.8987Z" fill="white"/>
<path d="M69.5151 0.366196H5.4822C2.47238 0.366196 -0.0078125 2.82055 -0.0078125 5.79162V48.1616C-0.0078125 51.1326 2.47238 53.587 5.4822 53.587H28.6048V55.6538L13.3103 60.175C12.6515 60.4334 12.1348 60.9501 12.1348 61.7251V64.9545C12.1348 65.8588 12.9228 66.6338 13.8399 66.6338H61.2736C62.1908 66.6338 62.9658 65.8588 62.9658 64.9545V61.7251C62.9658 60.9501 62.4491 60.4334 61.7903 60.175L46.6379 55.6538V53.587H69.5022C72.512 53.587 74.9922 51.1326 74.9922 48.1616V5.79162C74.9922 2.82055 72.512 0.366196 69.5022 0.366196H69.5151ZM59.5814 63.2752H15.4159V62.8877L30.31 58.4957H44.5582L59.4522 62.8877V63.2752H59.5814ZM43.2406 55.2663H31.7438V53.587H43.2406V55.2663ZM69.5151 50.3576H5.35302C4.17751 50.3576 3.13118 49.3242 3.13118 48.1616V42.3486H12.4061C13.3232 42.3486 14.0983 41.5736 14.0983 40.6693C14.0983 39.7651 13.3103 38.99 12.4061 38.99H3.13118V5.79162C3.13118 4.62903 4.17751 3.59561 5.35302 3.59561H69.5151C70.6906 3.59561 71.7369 4.62903 71.7369 5.79162V39.1192H19.4591C18.542 39.1192 17.7669 39.8943 17.7669 40.7985C17.7669 41.7027 18.5549 42.4778 19.4591 42.4778H71.724V48.2907C71.724 49.4533 70.8069 50.3576 69.5022 50.3576H69.5151Z" fill="white"/>
</svg>
