<svg width="26" height="24" viewBox="0 0 26 24" fill="none" xmlns="http://www.w3.org/2000/svg">
<g clip-path="url(#clip0_2515_151955)">
<path d="M19.9173 9.20653L19.8371 9.13041C19.8236 9.11757 19.8079 9.10706 19.7832 9.09473L19.7611 9.08368L19.7451 9.06476C19.3696 8.61998 18.7595 8.40406 18.1731 8.55701L19.9173 9.20653ZM19.9173 9.20653L19.9997 9.1328M19.9173 9.20653L19.9997 9.1328M19.9997 9.1328C20.1787 8.97269 20.3953 8.85387 20.6347 8.79009C21.4549 8.57359 22.3003 9.06539 22.5169 9.88541L22.517 9.88567L22.5174 9.88731L22.5191 9.89384L22.5258 9.91953L22.5518 10.019L22.6491 10.3906C22.732 10.7076 22.8487 11.153 22.9834 11.6667C23.2528 12.6941 23.5946 13.9948 23.8838 15.0882C24.4286 17.1499 24.4457 18.5612 24.3145 19.4558C24.2488 19.9032 24.1462 20.2208 24.0544 20.426C24.0084 20.5288 23.9657 20.6019 23.9328 20.6485C23.9171 20.6707 23.9048 20.6853 23.8966 20.6937L23.8949 20.6942L23.8358 20.7098L23.6112 20.7691L22.8043 20.9822L20.3112 21.6407C18.468 22.1276 16.5422 22.6363 16.2121 22.7237C16.1581 22.7379 16.0863 22.7343 15.9923 22.702C15.8984 22.6698 15.7897 22.6115 15.6674 22.5266C15.4226 22.3567 15.1386 22.0914 14.8299 21.7568C14.2132 21.0886 13.514 20.1615 12.8541 19.2193C12.1949 18.278 11.5775 17.3251 11.1247 16.6074C10.8984 16.2485 10.7133 15.9486 10.5849 15.7385C10.5206 15.6334 10.4706 15.5508 10.4366 15.4945L10.3979 15.4302L10.3881 15.4138L10.3856 15.4097L10.385 15.4086L10.3848 15.4084L10.2817 15.4698L10.3848 15.4083L10.3811 15.4022L10.3767 15.3965C9.83116 14.6897 9.47951 14.1027 9.36348 13.6099C9.30609 13.3661 9.30748 13.1499 9.36818 12.9547C9.42878 12.7598 9.55136 12.5768 9.75112 12.4039L9.7513 12.4037C10.0676 12.1288 10.4581 12.18 10.8529 12.3697C11.2092 12.5409 11.5345 12.8096 11.7486 12.9865C11.7683 13.0028 11.7871 13.0183 11.8048 13.0328L11.8049 13.0329L11.824 13.0552L11.896 13.1394L12.151 13.4383L12.9215 14.3425L13.6906 15.2454L13.9439 15.5428L14.0148 15.6261L14.0335 15.648L14.0383 15.6537L14.0395 15.6551L14.0398 15.6555L14.0399 15.6555L14.1313 15.5778L14.0399 15.6556L14.2469 15.5455L11.6557 6.2738C11.6556 6.27356 11.6555 6.27331 11.6555 6.27307C11.4909 5.65146 11.8618 5.01287 12.4856 4.84834L12.4858 4.84829C13.1077 4.68321 13.7467 5.05417 13.9113 5.67827L13.9113 5.67835L14.754 8.86495L14.8083 9.07008L14.9561 8.91789C15.1467 8.72173 15.3922 8.5773 15.6686 8.50311C16.2589 8.34647 16.8716 8.55923 17.2452 9.00722L17.3339 9.11366M19.9997 9.1328L17.3339 9.11366M17.3339 9.11366L17.4266 9.01059M17.3339 9.11366L17.4266 9.01059M17.4266 9.01059C17.6235 8.79152 17.8815 8.63321 18.173 8.55702L17.4266 9.01059ZM23.8888 20.7009C23.8888 20.7009 23.8894 20.7004 23.8905 20.6996C23.8894 20.7006 23.8889 20.7009 23.8888 20.7009Z" fill="white" stroke="#111111" stroke-width="0.24"/>
<path d="M14.8008 8.54376L16.0433 13.2532" stroke="#111111" stroke-linecap="round" stroke-linejoin="round"/>
<path d="M20.6039 8.67412C20.3459 8.74282 20.1125 8.87083 19.9197 9.04337C19.895 9.0199 19.8684 9.00311 19.8368 8.98735C19.4331 8.50915 18.7763 8.27565 18.1427 8.44091C17.8285 8.52302 17.55 8.69382 17.3373 8.93037C16.9349 8.44772 16.2746 8.21807 15.6376 8.38717C15.3408 8.46684 15.076 8.62223 14.87 8.83427L14.0273 5.64767C13.8458 4.95944 13.141 4.55019 12.455 4.7323C11.7668 4.91381 11.3576 5.6186 11.5397 6.30459L14.1313 15.5778C14.1313 15.5778 11.8963 12.9533 11.8886 12.9464C11.4776 12.6098 10.415 11.6678 9.67258 12.3132C8.8184 13.0526 9.18795 14.0527 10.2817 15.4698C10.2817 15.4698 14.8923 23.1954 16.2429 22.8397C16.9029 22.6649 23.9457 20.8049 23.9457 20.8049C24.0776 20.7689 25.0958 19.2054 23.9999 15.0575C23.4214 12.8711 22.6329 9.85477 22.6329 9.85477C22.3994 8.97054 21.4881 8.44058 20.6039 8.67412Z" stroke="#111111" stroke-linecap="round" stroke-linejoin="round"/>
<path d="M17.3633 8.96417L18.3365 12.6481" stroke="#111111" stroke-linecap="round" stroke-linejoin="round"/>
<path d="M19.918 9.05841L20.7196 12.0879" stroke="#111111" stroke-linecap="round" stroke-linejoin="round"/>
<path d="M5.14062 5.92432L1.42148 10.3899" stroke="#114493" stroke-linecap="round" stroke-linejoin="round"/>
<path d="M4.89957 9.82487L1.42551 10.3902L1.51562 7.00659" stroke="#114493" stroke-linecap="round" stroke-linejoin="round"/>
<path d="M5.23253 5.8268L8.94922 1.36414" stroke="#114493" stroke-linecap="round" stroke-linejoin="round"/>
<path d="M5.47497 1.92915L8.94903 1.36379L8.85891 4.74743" stroke="#114493" stroke-linecap="round" stroke-linejoin="round"/>
</g>
<defs>
<clipPath id="clip0_2515_151955">
<rect width="25" height="23" fill="white" transform="translate(0.5 0.943481)"/>
</clipPath>
</defs>
</svg>
