<svg width="48" height="48" viewBox="0 0 48 48" fill="none" xmlns="http://www.w3.org/2000/svg">
<g clip-path="url(#clip0_2493_38664)">
<path d="M9.0297 10.1234H1.0297C0.475247 10.1234 0 9.64891 0 9.09537C0 8.54183 0.475247 8.06736 1.0297 8.06736H8.07921V1.02947C8.07921 0.475929 8.55445 0.00146484 9.10891 0.00146484C9.66337 0.00146484 10.1386 0.475929 10.1386 1.02947V9.01629C9.9802 9.64891 9.50495 10.1234 9.0297 10.1234Z" fill="#114493"/>
<path d="M32.9505 48.0015H1.0297C0.475247 48.0015 0 47.5271 0 46.9735V9.1745C0 8.93726 0.0792079 8.70003 0.316832 8.4628L8.31683 0.475978C8.47525 0.317823 8.79208 0.159668 9.0297 0.159668H32.9505C33.5049 0.159668 33.9802 0.634133 33.9802 1.18767V9.1745C33.9802 9.72804 33.5049 10.2025 32.9505 10.2025C32.396 10.2025 31.9208 9.72804 31.9208 9.1745V2.1366H9.42574L1.9802 9.56988V46.0246H32.9505C33.5049 46.0246 33.9802 46.499 33.9802 47.0526C33.901 47.527 33.4257 48.0015 32.9505 48.0015Z" fill="#114493"/>
<path d="M13.9401 20.0871H7.92033C7.36587 20.0871 6.89062 19.6127 6.89062 19.0591V13.0492C6.89062 12.4957 7.36587 12.0212 7.92033 12.0212H13.9401C14.4946 12.0212 14.9698 12.4957 14.9698 13.0492V19.0591C15.049 19.6127 14.4946 20.0871 13.9401 20.0871ZM9.02924 18.1102H12.9896V14.1563H9.02924V18.1102Z" fill="#114493"/>
<path d="M13.9401 32.0278H7.92033C7.36587 32.0278 6.89062 31.5533 6.89062 30.9998V24.9899C6.89062 24.4364 7.36587 23.9619 7.92033 23.9619H13.9401C14.4946 23.9619 14.9698 24.4364 14.9698 24.9899V30.9998C15.049 31.5533 14.4946 32.0278 13.9401 32.0278ZM9.02924 30.0509H12.9896V26.097H9.02924V30.0509Z" fill="#114493"/>
<path d="M13.9401 44.0476H7.92033C7.36587 44.0476 6.89062 43.5731 6.89062 43.0196V37.0097C6.89062 36.4562 7.36587 35.9817 7.92033 35.9817H13.9401C14.4946 35.9817 14.9698 36.4562 14.9698 37.0097V43.0196C15.049 43.494 14.4946 44.0476 13.9401 44.0476ZM9.02924 41.9916H12.9896V38.0377H9.02924V41.9916Z" fill="#114493"/>
<path d="M28.9904 15.1844H19.0102C18.4557 15.1844 17.9805 14.71 17.9805 14.1564C17.9805 13.6029 18.4557 13.1284 19.0102 13.1284H28.9904C29.5448 13.1284 30.0201 13.6029 30.0201 14.1564C29.9409 14.71 29.4656 15.1844 28.9904 15.1844Z" fill="#114493"/>
<path d="M25.9816 19.1383H18.932C18.3776 19.1383 17.9023 18.6638 17.9023 18.1103C17.9023 17.5567 18.3776 17.0823 18.932 17.0823H25.9816C26.536 17.0823 27.0113 17.5567 27.0113 18.1103C27.0113 18.6638 26.536 19.1383 25.9816 19.1383Z" fill="#114493"/>
<path d="M28.9904 27.1251H19.0102C18.4557 27.1251 17.9805 26.6506 17.9805 26.0971C17.9805 25.5436 18.4557 25.0691 19.0102 25.0691H28.9904C29.5448 25.0691 30.0201 25.5436 30.0201 26.0971C30.0201 26.6506 29.4656 27.1251 28.9904 27.1251Z" fill="#114493"/>
<path d="M25.9816 31.079H18.932C18.3776 31.079 17.9023 30.6045 17.9023 30.051C17.9023 29.4974 18.3776 29.0229 18.932 29.0229H25.9816C26.536 29.0229 27.0113 29.4974 27.0113 30.051C27.0113 30.6045 26.536 31.079 25.9816 31.079Z" fill="#114493"/>
<path d="M28.9904 39.0658H19.0102C18.4557 39.0658 17.9805 38.5913 17.9805 38.0378C17.9805 37.4842 18.4557 37.0098 19.0102 37.0098H28.9904C29.5448 37.0098 30.0201 37.4842 30.0201 38.0378C29.9409 38.5913 29.4656 39.0658 28.9904 39.0658Z" fill="#114493"/>
<path d="M25.9816 43.0196H18.932C18.3776 43.0196 17.9023 42.5452 17.9023 41.9916C17.9023 41.4381 18.3776 40.9636 18.932 40.9636H25.9816C26.536 40.9636 27.0113 41.4381 27.0113 41.9916C27.0113 42.5452 26.536 43.0196 25.9816 43.0196Z" fill="#114493"/>
<path d="M42.9315 45.0756C42.6147 45.0756 42.377 44.9175 42.1394 44.6802L38.179 39.6193C38.0206 39.4611 37.9414 39.2239 37.9414 38.9867V13.1283C37.9414 12.5748 38.4167 12.1003 38.9711 12.1003H46.9711C47.5256 12.1003 48.0008 12.5748 48.0008 13.1283V39.0657C48.0008 39.303 47.9216 39.5402 47.7632 39.6984L43.8028 44.7593C43.486 44.9175 43.1691 45.0756 42.9315 45.0756ZM39.9216 38.6704L42.9315 42.387L45.9414 38.6704V14.0773H39.9216V38.6704Z" fill="#114493"/>
<path d="M46.9711 19.1383H38.9711C38.4167 19.1383 37.9414 18.6638 37.9414 18.1103C37.9414 17.5567 38.4167 17.0823 38.9711 17.0823H46.9711C47.5256 17.0823 48.0008 17.5567 48.0008 18.1103C47.9216 18.6638 47.4464 19.1383 46.9711 19.1383Z" fill="#114493"/>
<path d="M46.9711 40.0148H38.9711C38.4167 40.0148 37.9414 39.5403 37.9414 38.9867C37.9414 38.4332 38.4167 37.9587 38.9711 37.9587H46.9711C47.5256 37.9587 48.0008 38.4332 48.0008 38.9867C47.9216 39.5403 47.4464 40.0148 46.9711 40.0148Z" fill="#114493"/>
</g>
<defs>
<clipPath id="clip0_2493_38664">
<rect width="48" height="48" fill="white" transform="translate(0 0.00146484)"/>
</clipPath>
</defs>
</svg>
