<svg width="143" height="110" viewBox="0 0 143 110" fill="none" xmlns="http://www.w3.org/2000/svg">
<g clip-path="url(#clip0_2418_105700)">
<path d="M117.673 96.5927H15.0293V26.5613C15.0293 22.0691 18.6574 18.4524 23.1351 18.4524H109.567C114.045 18.4524 117.673 22.0922 117.673 26.5613V96.5927Z" fill="white"/>
<path fill-rule="evenodd" clip-rule="evenodd" d="M23.1357 19.5956C19.2886 19.5956 16.1731 22.7013 16.1731 26.5613V95.4495H116.53V26.5613C116.53 22.7222 113.413 19.5956 109.568 19.5956H23.1357ZM13.8867 26.5613C13.8867 21.437 18.0274 17.3092 23.1357 17.3092H109.568C114.678 17.3092 118.817 21.4622 118.817 26.5613V96.5927C118.817 97.2241 118.305 97.7359 117.673 97.7359H15.0299C14.3985 97.7359 13.8867 97.2241 13.8867 96.5927V26.5613Z" fill="#111111"/>
<path d="M111.129 29.9707H21.5742V96.5927H111.129V29.9707Z" fill="#D7DBE8"/>
<path d="M63.1819 44.3225C63.1819 40.1759 65.8227 36.6743 69.4967 35.3612C68.5093 35.0157 67.453 34.8083 66.3508 34.8083C61.1153 34.8083 56.8672 39.0701 56.8672 44.3225C56.8672 49.5748 61.1153 53.8366 66.3508 53.8366C67.453 53.8366 68.5093 53.6293 69.4967 53.2837C65.8227 51.9937 63.1819 48.4691 63.1819 44.3225Z" fill="white"/>
<path d="M75.8112 44.3225C75.8112 40.1759 73.1704 36.6743 69.4964 35.3612C65.8224 36.6743 63.1816 40.1759 63.1816 44.3225C63.1816 48.4691 65.8224 51.9706 69.4964 53.2837C73.1704 51.9937 75.8112 48.4691 75.8112 44.3225Z" fill="#6099FF"/>
<path d="M64.261 59.1812H57.9462C51.1263 59.1812 45.6152 64.7099 45.6152 71.5518V95.2335H51.907V71.5518C51.93 64.733 57.4411 59.1812 64.261 59.1812Z" fill="white"/>
<path d="M74.7332 59.1812H64.2392C57.4193 59.1812 51.9082 64.7099 51.9082 71.5518V95.2335H87.0642V71.5518C87.0871 64.733 81.5531 59.1812 74.7332 59.1812Z" fill="#6099FF"/>
<path fill-rule="evenodd" clip-rule="evenodd" d="M55.7014 44.3225C55.7014 38.4422 60.4579 33.6652 66.3282 33.6652C72.1986 33.6652 76.955 38.4422 76.955 44.3225C76.955 50.2009 72.2233 54.9798 66.3282 54.9798C60.4579 54.9798 55.7014 50.2027 55.7014 44.3225ZM66.3282 35.9515C61.7276 35.9515 57.9878 39.698 57.9878 44.3225C57.9878 48.9469 61.7276 52.6934 66.3282 52.6934C70.9501 52.6934 74.6687 48.9487 74.6687 44.3225C74.6687 39.698 70.9289 35.9515 66.3282 35.9515ZM57.9468 60.3243C51.7833 60.3243 46.759 65.3392 46.759 71.5518V95.2335C46.759 95.8648 46.2472 96.3766 45.6158 96.3766C44.9845 96.3766 44.4727 95.8648 44.4727 95.2335V71.5518C44.4727 64.0806 50.5164 58.0379 57.9468 58.0379H74.7326C82.1874 58.0379 88.2068 64.082 88.2068 71.5518V95.2335C88.2068 95.8648 87.695 96.3766 87.0636 96.3766C86.4322 96.3766 85.9204 95.8648 85.9204 95.2335V71.5518C85.9204 65.3378 80.9177 60.3243 74.7326 60.3243H57.9468Z" fill="#111111"/>
<path d="M116.294 108.848H16.3834C11.7678 108.848 8.00195 105.093 8.00195 100.463V94.4042H124.653V100.463C124.676 105.093 120.933 108.848 116.294 108.848Z" fill="white"/>
<path fill-rule="evenodd" clip-rule="evenodd" d="M6.85938 94.4042C6.85938 93.7728 7.37119 93.261 8.00255 93.261H124.653C125.285 93.261 125.797 93.7728 125.797 94.4042V100.461C125.821 105.725 121.564 109.991 116.295 109.991H16.384C11.1377 109.991 6.85938 105.725 6.85938 100.463V94.4042ZM9.14573 95.5473V100.463C9.14573 104.461 12.3992 107.705 16.384 107.705H116.295C120.302 107.705 123.53 104.463 123.51 100.468L123.51 100.463V95.5473H9.14573Z" fill="#111111"/>
<path d="M48.3715 1.15186H6.55635C3.64008 1.15186 1.25195 3.54767 1.25195 6.47332V24.7414C1.25195 27.6901 3.64008 30.0629 6.55635 30.0629H38.7042L49.0834 40.4754V29.9937C51.6782 29.6482 53.6759 27.4367 53.6759 24.7414V6.47332C53.6759 3.54767 51.3108 1.15186 48.3715 1.15186Z" fill="white"/>
<path fill-rule="evenodd" clip-rule="evenodd" d="M0.109375 6.47331C0.109375 2.91976 3.00586 0.00866699 6.55695 0.00866699H48.3721C51.9494 0.00866699 54.8197 2.92299 54.8197 6.47331V24.7414C54.8197 27.665 52.8849 30.1206 50.2271 30.9142V40.4754C50.2271 40.9381 49.9482 41.3552 49.5206 41.5319C49.093 41.7086 48.601 41.6102 48.2743 41.2825L38.2302 31.206H6.55695C3.00908 31.206 0.109375 28.3212 0.109375 24.7414V6.47331ZM6.55695 2.29502C4.2755 2.29502 2.39573 4.17555 2.39573 6.47331V24.7414C2.39573 27.0589 4.27228 28.9197 6.55695 28.9197H38.7048C39.0086 28.9197 39.3 29.0406 39.5144 29.2558L47.9408 37.7092V29.9937C47.9408 29.4207 48.365 28.9362 48.9331 28.8606C50.9681 28.5895 52.5333 26.8553 52.5333 24.7414V6.47331C52.5333 4.17232 50.6733 2.29502 48.3721 2.29502H6.55695Z" fill="#111111"/>
<path d="M49.0826 5.75916H5.84375V25.4785H49.0826V5.75916Z" fill="#6099FF"/>
<path d="M101.805 30.8H137.328C139.831 30.8 141.852 32.8273 141.852 35.3383V50.865C141.852 53.376 139.831 55.4032 137.328 55.4032H110.003L101.185 64.2493V55.3341C98.9805 55.0346 97.2812 53.1456 97.2812 50.865V35.3383C97.2813 32.8273 99.302 30.8 101.805 30.8Z" fill="white"/>
<path fill-rule="evenodd" clip-rule="evenodd" d="M101.806 31.9432C99.9374 31.9432 98.425 33.4552 98.425 35.3383V50.865C98.425 52.5647 99.6927 53.9776 101.339 54.2013C101.906 54.2783 102.329 54.7622 102.329 55.3341V61.4831L109.194 54.5961C109.408 54.3809 109.699 54.26 110.003 54.26H137.329C139.197 54.26 140.709 52.7481 140.709 50.865V35.3383C140.709 33.4552 139.197 31.9432 137.329 31.9432H101.806ZM96.1387 35.3383C96.1387 32.1994 98.6678 29.6569 101.806 29.6569H137.329C140.467 29.6569 142.996 32.1994 142.996 35.3383V50.865C142.996 54.0039 140.467 56.5464 137.329 56.5464H110.478L101.995 65.0563C101.669 65.384 101.177 65.4825 100.749 65.3058C100.321 65.129 100.042 64.712 100.042 64.2493V56.2404C97.7768 55.5013 96.1387 53.374 96.1387 50.865V35.3383Z" fill="#111111"/>
<path fill-rule="evenodd" clip-rule="evenodd" d="M10.2129 9.62926C10.2129 8.9979 10.7247 8.48608 11.3561 8.48608H28.5781C29.2095 8.48608 29.7213 8.9979 29.7213 9.62926C29.7213 10.2606 29.2095 10.7724 28.5781 10.7724H11.3561C10.7247 10.7724 10.2129 10.2606 10.2129 9.62926ZM10.2129 15.2963C10.2129 14.6649 10.7247 14.1531 11.3561 14.1531H39.3247C39.9561 14.1531 40.4679 14.6649 40.4679 15.2963C40.4679 15.9276 39.9561 16.4395 39.3247 16.4395H11.3561C10.7247 16.4395 10.2129 15.9276 10.2129 15.2963ZM10.2129 20.9633C10.2129 20.3319 10.7247 19.8201 11.3561 19.8201H28.5781C29.2095 19.8201 29.7213 20.3319 29.7213 20.9633C29.7213 21.5947 29.2095 22.1065 28.5781 22.1065H11.3561C10.7247 22.1065 10.2129 21.5947 10.2129 20.9633Z" fill="#111111"/>
<path fill-rule="evenodd" clip-rule="evenodd" d="M104.543 37.3885C104.543 36.7572 105.055 36.2454 105.686 36.2454H122.908C123.54 36.2454 124.051 36.7572 124.051 37.3885C124.051 38.0199 123.54 38.5317 122.908 38.5317H105.686C105.055 38.5317 104.543 38.0199 104.543 37.3885ZM104.543 43.0556C104.543 42.4242 105.055 41.9124 105.686 41.9124H133.655C134.286 41.9124 134.798 42.4242 134.798 43.0556C134.798 43.6869 134.286 44.1987 133.655 44.1987H105.686C105.055 44.1987 104.543 43.6869 104.543 43.0556ZM104.543 48.7226C104.543 48.0912 105.055 47.5794 105.686 47.5794H122.908C123.54 47.5794 124.051 48.0912 124.051 48.7226C124.051 49.3539 123.54 49.8657 122.908 49.8657H105.686C105.055 49.8657 104.543 49.3539 104.543 48.7226Z" fill="#111111"/>
</g>
<defs>
<clipPath id="clip0_2418_105700">
<rect width="142.897" height="110" fill="white" transform="translate(0.103516)"/>
</clipPath>
</defs>
</svg>
