<svg width="50" height="48" viewBox="0 0 50 48" fill="none" xmlns="http://www.w3.org/2000/svg">
<g clip-path="url(#clip0_2493_38819)">
<path d="M48.0089 39.9882H26.9841C26.4287 39.9882 25.9527 39.5122 25.9527 38.9568C25.9527 38.4015 26.4287 37.9254 26.9841 37.9254H46.9775V1.98494H2.94441V38.0048H20.9543C21.5097 38.0048 21.9857 38.4808 21.9857 39.0362C21.9857 39.5915 21.5097 40.0676 20.9543 40.0676H1.99234C1.43697 40.0676 0.960938 39.5915 0.960938 39.0362V1.03287C0.960938 0.477498 1.43697 0.00146484 1.99234 0.00146484H48.0089C48.5642 0.00146484 49.0403 0.477498 49.0403 1.03287V39.0362C48.9609 39.5122 48.4849 39.9882 48.0089 39.9882Z" fill="#114493"/>
<path d="M26.983 48.0016C26.4277 48.0016 25.9516 47.5255 25.9516 46.9702V39.909H21.9847V46.9702C21.9847 47.5255 21.5087 48.0016 20.9533 48.0016C20.3979 48.0016 19.9219 47.5255 19.9219 46.9702V38.9569C19.9219 38.4016 20.3979 37.9255 20.9533 37.9255H27.0624C27.6177 37.9255 28.0938 38.4016 28.0938 38.9569V46.9702C28.0144 47.5255 27.5384 48.0016 26.983 48.0016Z" fill="#114493"/>
<path d="M29.9999 48.0015H18.0197C17.4643 48.0015 16.9883 47.5255 16.9883 46.9701C16.9883 46.4148 17.4643 45.9387 18.0197 45.9387H29.9999C30.5552 45.9387 31.0313 46.4148 31.0313 46.9701C30.9519 47.5255 30.4759 48.0015 29.9999 48.0015Z" fill="#114493"/>
<path d="M47.6915 33.9586H1.99234C1.43697 33.9586 0.960938 33.4825 0.960938 32.9272C0.960938 32.3718 1.43697 31.8958 1.99234 31.8958H47.6915C48.2469 31.8958 48.7229 32.3718 48.7229 32.9272C48.7229 33.4825 48.2469 33.9586 47.6915 33.9586Z" fill="#114493"/>
<path d="M32.9355 29.0394H16.9884C16.4331 29.0394 15.957 28.5634 15.957 28.008V6.03116C15.957 5.47579 16.4331 4.99976 16.9884 4.99976H28.9686C29.286 4.99976 29.6033 5.15843 29.762 5.47579L33.7289 11.5055C33.8083 11.6642 33.8876 11.8229 33.8876 12.0609V28.0874C33.9669 28.5634 33.4909 29.0394 32.9355 29.0394ZM18.0198 27.056H31.9835V12.2989L28.4926 6.98323H18.0198V27.056Z" fill="#114493"/>
<path d="M32.9358 13.013H28.9689C28.4135 13.013 27.9375 12.5369 27.9375 11.9816V6.03116C27.9375 5.47579 28.4135 4.99976 28.9689 4.99976C29.5243 4.99976 30.0003 5.47579 30.0003 6.03116V11.1088H33.0152C33.5706 11.1088 34.0466 11.5849 34.0466 12.1403C33.9673 12.5369 33.4912 13.013 32.9358 13.013Z" fill="#114493"/>
<path d="M28.0144 17.0594H20.9533C20.3979 17.0594 19.9219 16.5834 19.9219 16.028C19.9219 15.4726 20.3979 14.9966 20.9533 14.9966H28.0144C28.5698 14.9966 29.0458 15.4726 29.0458 16.028C28.9665 16.5834 28.4905 17.0594 28.0144 17.0594Z" fill="#114493"/>
<path d="M28.0144 21.0262H20.9533C20.3979 21.0262 19.9219 20.5502 19.9219 19.9948C19.9219 19.4394 20.3979 18.9634 20.9533 18.9634H28.0144C28.5698 18.9634 29.0458 19.4394 29.0458 19.9948C28.9665 20.5502 28.4905 21.0262 28.0144 21.0262Z" fill="#114493"/>
<path d="M28.0144 25.0726H20.9533C20.3979 25.0726 19.9219 24.5965 19.9219 24.0412C19.9219 23.4858 20.3979 23.0098 20.9533 23.0098H28.0144C28.5698 23.0098 29.0458 23.4858 29.0458 24.0412C28.9665 24.5965 28.4905 25.0726 28.0144 25.0726Z" fill="#114493"/>
</g>
<defs>
<clipPath id="clip0_2493_38819">
<rect width="48.0793" height="48" fill="white" transform="translate(0.960938 0.00146484)"/>
</clipPath>
</defs>
</svg>
