<svg width="65" height="66" viewBox="0 0 65 66" fill="none" xmlns="http://www.w3.org/2000/svg">
<g clip-path="url(#clip0_922_73349)">
<path d="M63.633 0.5H23.0343C22.2981 0.5 21.667 1.13725 21.667 1.88072C21.667 2.62418 22.2981 3.26144 23.0343 3.26144H62.3709V42.5588H23.0343C22.2981 42.5588 21.667 43.1961 21.667 43.9395C21.667 44.683 22.2981 45.3203 23.0343 45.3203H63.633C64.3693 45.3203 65.0003 44.683 65.0003 43.9395V1.88072C65.0003 1.13725 64.3693 0.5 63.633 0.5Z" fill="#0E419C"/>
<path d="M13.4631 42.4526V35.6553C13.4631 34.9118 12.8321 34.2745 12.0958 34.2745C11.3596 34.2745 10.7285 34.9118 10.7285 35.6553V42.4526C10.7285 43.1961 11.3596 43.8334 12.0958 43.8334C12.8321 43.8334 13.4631 43.1961 13.4631 42.4526Z" fill="#0E419C"/>
<path d="M23.034 31.6193C23.7702 31.6193 24.4013 30.982 24.4013 30.2386V26.2026H36.6019C37.3382 26.2026 37.9693 25.5654 37.9693 24.8219V19.4052C37.9693 18.6618 37.3382 18.0245 36.6019 18.0245H21.1408C19.9838 16.75 18.6165 15.6879 17.0388 15.0507C18.932 13.5637 20.1942 11.2271 20.1942 8.57189C20.1942 4.11111 16.6181 0.5 12.0955 0.5C7.67799 0.5 3.99676 4.11111 3.99676 8.57189C3.99676 11.2271 5.2589 13.5637 7.1521 15.0507C2.94498 16.9624 0 21.2108 0 26.2026V30.3448C0 31.0882 0.631068 31.7255 1.36731 31.7255H5.2589V42.5588C5.2589 43.3023 5.88997 43.9395 6.62621 43.9395C7.36246 43.9395 7.99353 43.3023 7.99353 42.5588V26.2026C7.99353 25.4592 7.36246 24.8219 6.62621 24.8219C5.88997 24.8219 5.2589 25.4592 5.2589 26.2026V28.8578H2.62945V26.2026C2.62945 20.9984 6.83657 16.75 12.0955 16.75C14.9353 16.75 17.7751 18.0245 19.5631 20.2549C19.7735 20.5735 20.1942 20.7859 20.6149 20.7859H35.1295V23.4412H22.8236C21.9822 23.4412 21.3511 24.1846 21.4563 24.9281C21.4563 25.3529 21.5615 25.7778 21.5615 26.0964V28.7516H18.932V26.0964C18.932 25.3529 18.301 24.7157 17.5647 24.7157C16.8285 24.7157 16.1974 25.3529 16.1974 26.0964V42.3464C16.1974 43.0899 16.8285 43.7271 17.5647 43.7271C18.301 43.7271 18.932 43.0899 18.932 42.3464V31.6193H23.034ZM6.73139 8.6781C6.73139 5.70425 9.15049 3.26144 12.2006 3.26144C15.1456 3.26144 17.6699 5.70425 17.6699 8.6781C17.6699 11.652 15.2508 14.0948 12.2006 14.0948C9.15049 14.0948 6.73139 11.652 6.73139 8.6781Z" fill="#0E419C"/>
<path d="M25.6631 38.4167C25.6631 39.1601 26.2942 39.7974 27.0304 39.7974H55.5336C56.2699 39.7974 56.9009 39.1601 56.9009 38.4167C56.9009 37.6732 56.2699 37.0359 55.5336 37.0359H27.0304C26.2942 37.0359 25.6631 37.6732 25.6631 38.4167Z" fill="#0E419C"/>
<path d="M31.0279 7.29736H28.3984V9.95259H31.0279V7.29736Z" fill="#0E419C"/>
<path d="M40.4937 7.29736H37.8643V9.95259H40.4937V7.29736Z" fill="#0E419C"/>
<path d="M49.9595 7.29736H47.3301V9.95259H49.9595V7.29736Z" fill="#0E419C"/>
<path d="M11.9903 55.6226C12.9369 54.6667 13.4628 53.3922 13.4628 51.9053C13.4628 48.9314 11.0437 46.4886 7.99353 46.4886C5.04854 46.4886 2.52427 48.9314 2.52427 51.9053C2.52427 53.3922 3.05016 54.6667 3.99676 55.6226C1.57767 57.0033 0 59.6585 0 62.7386V64.1193C0 64.8628 0.631068 65.5 1.36731 65.5H14.8301C15.5663 65.5 16.1974 64.8628 16.1974 64.1193V62.7386C16.1974 59.7647 14.5146 57.1095 11.9903 55.6226ZM5.36408 51.9053C5.36408 50.4183 6.52104 49.25 7.99353 49.25C9.46602 49.25 10.623 50.4183 10.623 51.9053C10.623 53.3922 9.46602 54.5605 7.99353 54.5605C6.62621 54.6667 5.36408 53.3922 5.36408 51.9053ZM2.62945 62.7386C2.62945 59.7647 5.04854 57.3219 8.09871 57.3219C11.0437 57.3219 13.568 59.7647 13.568 62.7386H2.62945Z" fill="#0E419C"/>
<path d="M36.3921 55.6226C37.3387 54.6667 37.8645 53.3922 37.8645 51.9053C37.8645 48.9314 35.4455 46.4886 32.3953 46.4886C29.4503 46.4886 26.926 48.9314 26.926 51.9053C26.926 53.3922 27.4519 54.6667 28.3985 55.6226C25.8743 57.0033 24.1914 59.6585 24.1914 62.7386V64.1193C24.1914 64.8628 24.8225 65.5 25.5587 65.5H39.0215C39.7577 65.5 40.3888 64.8628 40.3888 64.1193V62.7386C40.494 59.7647 38.8111 57.1095 36.3921 55.6226ZM29.7658 51.9053C29.7658 50.4183 30.9228 49.25 32.3953 49.25C33.8678 49.25 35.0247 50.4183 35.0247 51.9053C35.0247 53.3922 33.8678 54.5605 32.3953 54.5605C30.9228 54.5605 29.7658 53.3922 29.7658 51.9053ZM27.0312 62.7386C27.0312 59.7647 29.4503 57.3219 32.5005 57.3219C35.4455 57.3219 37.9697 59.7647 37.9697 62.7386H27.0312Z" fill="#0E419C"/>
<path d="M60.7927 55.6226C61.7393 54.6667 62.2652 53.3922 62.2652 51.9053C62.2652 48.9314 59.8461 46.4886 56.796 46.4886C53.7458 46.4886 51.3267 48.9314 51.3267 51.9053C51.3267 53.3922 51.8526 54.6667 52.7992 55.6226C50.2749 57.0033 48.6973 59.6585 48.6973 62.7386V64.1193C48.6973 64.8628 49.3283 65.5 50.0646 65.5H63.5274C64.2636 65.5 64.8947 64.8628 64.8947 64.1193V62.7386C64.9999 59.7647 63.317 57.1095 60.7927 55.6226ZM54.1665 51.9053C54.1665 50.4183 55.3235 49.25 56.796 49.25C58.2685 49.25 59.4254 50.4183 59.4254 51.9053C59.4254 53.3922 58.2685 54.5605 56.796 54.5605C55.3235 54.6667 54.1665 53.3922 54.1665 51.9053ZM51.4319 62.7386C51.4319 59.7647 53.851 57.3219 56.9011 57.3219C59.9513 57.3219 62.3704 59.7647 62.3704 62.7386H51.4319Z" fill="#0E419C"/>
</g>
<defs>
<clipPath id="clip0_922_73349">
<rect width="65" height="65" fill="white" transform="translate(0 0.5)"/>
</clipPath>
</defs>
</svg>
