<svg width="50" height="48" viewBox="0 0 50 48" fill="none" xmlns="http://www.w3.org/2000/svg">
<g clip-path="url(#clip0_2493_38736)">
<path d="M45.0733 48.0015H4.84854C2.70639 48.0015 0.960938 46.256 0.960938 44.1139V3.88907C0.960938 1.74692 2.70639 0.00146484 4.84854 0.00146484H45.0733C47.2155 0.00146484 48.9609 1.74692 48.9609 3.88907C48.9609 4.44444 48.4849 4.92047 47.9295 4.92047C47.3742 4.92047 46.8981 4.44444 46.8981 3.88907C46.8981 2.85766 46.0254 1.98494 44.994 1.98494H4.84854C3.81714 1.98494 2.94441 2.85766 2.94441 3.88907V7.93535H48.0089C48.5642 7.93535 49.0403 8.41138 49.0403 8.96675V44.1139C48.9609 46.256 47.2155 48.0015 45.0733 48.0015ZM2.94441 9.99816V44.0345C2.94441 45.0659 3.81714 45.9387 4.84854 45.9387H45.0733C46.1047 45.9387 46.9775 45.0659 46.9775 44.0345V9.99816H2.94441Z" fill="#114493"/>
<path d="M10.0074 6.03119H6.04043C5.40572 6.03119 4.92969 5.55516 4.92969 4.99979C4.92969 4.44442 5.40572 3.96838 5.96109 3.96838H9.92803C10.4834 3.96838 10.9594 4.44442 10.9594 4.99979C10.9594 5.55516 10.4834 6.03119 10.0074 6.03119Z" fill="#114493"/>
<path d="M18.0179 6.03119H14.0509C13.4956 6.03119 13.0195 5.55516 13.0195 4.99979C13.0195 4.44442 13.4956 3.96838 14.0509 3.96838H18.0179C18.5733 3.96838 19.0493 4.44442 19.0493 4.99979C19.0493 5.55516 18.4939 6.03119 18.0179 6.03119Z" fill="#114493"/>
<path d="M43.9632 6.03119H39.9962C39.4409 6.03119 38.9648 5.55516 38.9648 4.99979C38.9648 4.44442 39.4409 3.96838 39.9962 3.96838H43.9632C44.5186 3.96838 44.9946 4.44442 44.9946 4.99979C44.9946 5.55516 44.4392 6.03119 43.9632 6.03119Z" fill="#114493"/>
<path d="M8.02359 20.9469C7.46822 20.9469 6.99219 20.4709 6.99219 19.9155C6.99219 16.6626 9.61037 13.9651 12.9426 13.9651C13.498 13.9651 13.974 14.4411 13.974 14.9965C13.974 15.5519 13.498 16.0279 12.9426 16.0279C10.8005 16.0279 9.055 17.7734 9.055 19.9155C8.97566 20.4709 8.49963 20.9469 8.02359 20.9469Z" fill="#114493"/>
<path d="M41.9778 20.9469C41.4224 20.9469 40.9464 20.4709 40.9464 19.9155C40.9464 17.7734 39.2009 16.0279 37.0587 16.0279C36.5034 16.0279 36.0273 15.5519 36.0273 14.9965C36.0273 14.4411 36.5034 13.9651 37.0587 13.9651C40.3116 13.9651 43.0092 16.5833 43.0092 19.9155C42.9298 20.4709 42.4538 20.9469 41.9778 20.9469Z" fill="#114493"/>
<path d="M12.8606 41.9718C9.60768 41.9718 6.91016 39.3536 6.91016 36.0214C6.91016 35.466 7.38619 34.99 7.94156 34.99C8.49693 34.99 8.97297 35.466 8.97297 36.0214C8.97297 38.1635 10.7184 39.909 12.8606 39.909C13.4159 39.909 13.892 40.385 13.892 40.9404C13.892 41.4958 13.4159 41.9718 12.8606 41.9718Z" fill="#114493"/>
<path d="M37.0587 41.9718C36.5034 41.9718 36.0273 41.4958 36.0273 40.9404C36.0273 40.385 36.5034 39.909 37.0587 39.909C39.2009 39.909 40.9464 38.1635 40.9464 36.0214C40.9464 35.466 41.4224 34.99 41.9778 34.99C42.5331 34.99 43.0092 35.466 43.0092 36.0214C42.9298 39.3536 40.3116 41.9718 37.0587 41.9718Z" fill="#114493"/>
<path d="M24.9228 31.5782C24.7641 31.5782 24.5261 31.4989 24.3674 31.4196L13.3393 24.1997C13.022 24.041 12.8633 23.7237 12.8633 23.4063C12.8633 23.089 13.022 22.7716 13.3393 22.6129L24.3674 15.3931C24.6848 15.1551 25.1608 15.1551 25.4782 15.3931L36.5063 22.6129C36.8236 22.7716 36.9823 23.089 36.9823 23.4063C36.9823 23.7237 36.8236 24.041 36.5063 24.1997L25.5575 31.4196C25.2401 31.4989 25.0815 31.5782 24.9228 31.5782ZM15.7195 23.327L24.8434 29.3567L34.1261 23.327L24.9228 17.2972L15.7195 23.327Z" fill="#114493"/>
<path d="M24.8425 39.9881C24.6838 39.9881 24.5251 39.9881 24.4458 39.9088L16.0358 36.0212C15.7185 35.8625 15.4805 35.5452 15.4805 35.1485V25.3105C15.4805 24.7551 15.9565 24.2791 16.5119 24.2791C17.0672 24.2791 17.5433 24.7551 17.5433 25.3105V34.4344L25.0011 37.846L32.5383 33.7997V30.5468C32.5383 29.9914 33.0144 29.5154 33.5697 29.5154C34.1251 29.5154 34.6011 29.9914 34.6011 30.5468V34.4344C34.6011 34.8311 34.3631 35.1485 34.0458 35.3072L25.3978 39.9088C25.1598 39.9881 25.0011 39.9881 24.8425 39.9881Z" fill="#114493"/>
<path d="M24.84 36.1008C24.2846 36.1008 23.8086 35.6247 23.8086 35.0694V30.6264C23.8086 30.071 24.2846 29.595 24.84 29.595C25.3954 29.595 25.8714 30.071 25.8714 30.6264V35.0694C25.8714 35.6247 25.4747 36.1008 24.84 36.1008Z" fill="#114493"/>
<path d="M26.9053 25.0726H22.383C21.8276 25.0726 21.3516 24.5965 21.3516 24.0412C21.3516 23.4858 21.8276 23.0098 22.383 23.0098H26.9053C27.4607 23.0098 27.9367 23.4858 27.9367 24.0412C27.8573 24.5965 27.4607 25.0726 26.9053 25.0726Z" fill="#114493"/>
</g>
<defs>
<clipPath id="clip0_2493_38736">
<rect width="48.0793" height="48" fill="white" transform="translate(0.960938 0.00146484)"/>
</clipPath>
</defs>
</svg>
