<svg width="163" height="110" viewBox="0 0 163 110" fill="none" xmlns="http://www.w3.org/2000/svg">
<g clip-path="url(#clip0_2418_105770)">
<path d="M28.75 81.9418L36.3993 95.3805L28.75 108.798H66.0891V81.9418H28.75Z" fill="#D7DBE8"/>
<path fill-rule="evenodd" clip-rule="evenodd" d="M27.6289 81.29C27.861 80.8907 28.2881 80.645 28.75 80.645H66.0891C66.8053 80.645 67.3859 81.2256 67.3859 81.9419V108.798C67.3859 109.514 66.8053 110.095 66.0891 110.095H28.75C28.2879 110.095 27.8608 109.849 27.6286 109.449C27.3965 109.05 27.3945 108.557 27.6234 108.156L34.9068 95.3801L27.6229 82.5834C27.3944 82.182 27.3967 81.6893 27.6289 81.29ZM30.9803 83.2387L37.5264 94.7391C37.7529 95.1371 37.7527 95.625 37.5259 96.0229L30.9821 107.501H64.7922V83.2387H30.9803Z" fill="#111111"/>
<path d="M148.976 108.798L141.326 95.3805L148.976 81.9418H111.637V108.798H148.976Z" fill="#D7DBE8"/>
<path fill-rule="evenodd" clip-rule="evenodd" d="M110.34 81.9419C110.34 81.2256 110.92 80.645 111.637 80.645H148.976C149.438 80.645 149.865 80.8907 150.097 81.29C150.329 81.6893 150.331 82.182 150.103 82.5834L142.819 95.3801L150.102 108.156C150.331 108.557 150.329 109.05 150.097 109.449C149.865 109.849 149.438 110.095 148.976 110.095H111.637C110.92 110.095 110.34 109.514 110.34 108.798V81.9419ZM112.934 83.2387V107.501H146.744L140.2 96.0229C139.973 95.625 139.973 95.1371 140.199 94.7391L146.745 83.2387H112.934Z" fill="#111111"/>
<path d="M126.915 24.2155H50.7891V76.7252H126.915V24.2155Z" fill="white"/>
<path fill-rule="evenodd" clip-rule="evenodd" d="M49.4922 24.2154C49.4922 23.4992 50.0728 22.9186 50.789 22.9186H126.915C127.631 22.9186 128.212 23.4992 128.212 24.2154V76.7252C128.212 77.4414 127.631 78.022 126.915 78.022H50.789C50.0728 78.022 49.4922 77.4414 49.4922 76.7252V24.2154ZM52.0859 25.5123V75.4283H125.618V25.5123H52.0859Z" fill="#111111"/>
<path d="M44.2617 1.07336V27.1994C44.2576 29.3844 45.0144 31.5036 46.4036 33.1974C47.7929 34.8913 49.7292 36.0556 51.884 36.4928C54.0388 36.9301 56.2795 36.6134 58.2261 35.5965C60.1727 34.5795 61.7053 32.9249 62.5639 30.9133C63.2976 32.6183 64.5191 34.0717 66.0767 35.0932C67.6344 36.1146 69.4597 36.6591 71.3261 36.6591C73.1925 36.6591 75.0178 36.1146 76.5755 35.0932C78.1331 34.0717 79.3546 32.6183 80.0883 30.9133C80.8262 32.6168 82.0504 34.0682 83.6095 35.0879C85.1687 36.1077 86.9945 36.6511 88.8612 36.6511C90.7279 36.6511 92.5537 36.1077 94.1129 35.0879C95.6721 34.0682 96.8963 32.6168 97.6342 30.9133C98.3678 32.6183 99.5893 34.0717 101.147 35.0932C102.705 36.1146 104.53 36.6591 106.396 36.6591C108.263 36.6591 110.088 36.1146 111.646 35.0932C113.203 34.0717 114.425 32.6183 115.158 30.9133C116.017 32.9249 117.55 34.5795 119.496 35.5965C121.443 36.6134 123.684 36.9301 125.838 36.4928C127.993 36.0556 129.93 34.8913 131.319 33.1974C132.708 31.5036 133.465 29.3844 133.461 27.1994V1.07336H44.2617Z" fill="white"/>
<path d="M44.2617 1.07336V27.1994C44.2576 29.3844 45.0144 31.5036 46.4036 33.1974C47.7929 34.8913 49.7292 36.0556 51.884 36.4928C54.0388 36.9301 56.2795 36.6134 58.2261 35.5965C60.1727 34.5795 61.7053 32.9249 62.5639 30.9133C63.2976 32.6183 64.5191 34.0717 66.0767 35.0932C67.6344 36.1146 69.4597 36.6591 71.3261 36.6591C73.1925 36.6591 75.0178 36.1146 76.5755 35.0932C78.1331 34.0717 79.3546 32.6183 80.0883 30.9133C80.8262 32.6168 82.0504 34.0682 83.6095 35.0879C85.1687 36.1077 86.9945 36.6511 88.8612 36.6511C90.7279 36.6511 92.5537 36.1077 94.1129 35.0879C95.6721 34.0682 96.8963 32.6168 97.6342 30.9133C98.3678 32.6183 99.5893 34.0717 101.147 35.0932C102.705 36.1146 104.53 36.6591 106.396 36.6591C108.263 36.6591 110.088 36.1146 111.646 35.0932C113.203 34.0717 114.425 32.6183 115.158 30.9133C116.017 32.9249 117.55 34.5795 119.496 35.5965C121.443 36.6134 123.684 36.9301 125.838 36.4928C127.993 36.0556 129.93 34.8913 131.319 33.1974C132.708 31.5036 133.465 29.3844 133.461 27.1994V1.07336H44.2617Z" stroke="#111111" stroke-width="2" stroke-linecap="round" stroke-linejoin="round"/>
<path d="M44.2617 7.68542V27.1995C44.2576 29.3845 45.0144 31.5036 46.4036 33.1975C47.7929 34.8913 49.7292 36.0556 51.884 36.4929C54.0388 36.9301 56.2795 36.6134 58.2261 35.5965C60.1727 34.5795 61.7053 32.925 62.5639 30.9134C63.2976 32.6183 64.5191 34.0717 66.0767 35.0932C67.6344 36.1146 69.4597 36.6591 71.3261 36.6591C73.1925 36.6591 75.0178 36.1146 76.5755 35.0932C78.1331 34.0717 79.3546 32.6183 80.0883 30.9134C80.8262 32.6169 82.0504 34.0682 83.6095 35.088C85.1687 36.1077 86.9945 36.6512 88.8612 36.6512C90.7279 36.6512 92.5537 36.1077 94.1129 35.088C95.6721 34.0682 96.8963 32.6169 97.6342 30.9134C98.3678 32.6183 99.5893 34.0717 101.147 35.0932C102.705 36.1146 104.53 36.6591 106.396 36.6591C108.263 36.6591 110.088 36.1146 111.646 35.0932C113.203 34.0717 114.425 32.6183 115.158 30.9134C116.017 32.925 117.55 34.5795 119.496 35.5965C121.443 36.6134 123.684 36.9301 125.838 36.4929C127.993 36.0556 129.929 34.8913 131.319 33.1975C132.708 31.5036 133.465 29.3845 133.461 27.1995V7.68542" fill="#6099FF"/>
<path d="M44.2617 7.68542V27.1995C44.2576 29.3845 45.0144 31.5036 46.4036 33.1975C47.7929 34.8913 49.7292 36.0556 51.884 36.4929C54.0388 36.9301 56.2795 36.6134 58.2261 35.5965C60.1727 34.5795 61.7053 32.925 62.5639 30.9134C63.2976 32.6183 64.5191 34.0717 66.0767 35.0932C67.6344 36.1146 69.4597 36.6591 71.3261 36.6591C73.1925 36.6591 75.0178 36.1146 76.5755 35.0932C78.1331 34.0717 79.3546 32.6183 80.0883 30.9134C80.8262 32.6169 82.0504 34.0682 83.6095 35.088C85.1687 36.1077 86.9945 36.6512 88.8612 36.6512C90.7279 36.6512 92.5537 36.1077 94.1129 35.088C95.6721 34.0682 96.8963 32.6169 97.6342 30.9134C98.3678 32.6183 99.5893 34.0717 101.147 35.0932C102.705 36.1146 104.53 36.6591 106.396 36.6591C108.263 36.6591 110.088 36.1146 111.646 35.0932C113.203 34.0717 114.425 32.6183 115.158 30.9134C116.017 32.925 117.55 34.5795 119.496 35.5965C121.443 36.6134 123.684 36.9301 125.838 36.4929C127.993 36.0556 129.93 34.8913 131.319 33.1975C132.708 31.5036 133.465 29.3845 133.461 27.1995V7.68542" stroke="#111111" stroke-width="2" stroke-linecap="round" stroke-linejoin="round"/>
<path d="M132.123 68.0952H45.582V94.9512H132.123V68.0952Z" fill="#D7DBE8"/>
<path fill-rule="evenodd" clip-rule="evenodd" d="M44.2852 68.0952C44.2852 67.379 44.8658 66.7983 45.582 66.7983H132.123C132.839 66.7983 133.42 67.379 133.42 68.0952V94.9512C133.42 95.6674 132.839 96.248 132.123 96.248H45.582C44.8658 96.248 44.2852 95.6674 44.2852 94.9512V68.0952ZM46.8788 69.392V93.6543H130.826V69.392H46.8788Z" fill="#111111"/>
<path d="M44.2812 94.9513L64.7875 108.798V94.9513H44.2812Z" fill="#111111"/>
<path fill-rule="evenodd" clip-rule="evenodd" d="M44.342 94.5717C44.5088 94.0266 45.012 93.6543 45.5821 93.6543H66.0884C66.8046 93.6543 67.3852 94.2349 67.3852 94.9511V108.798C67.3852 109.277 67.1205 109.718 66.6969 109.943C66.2733 110.168 65.7601 110.141 65.3626 109.873L44.8564 96.0259C44.3839 95.7069 44.1752 95.1168 44.342 94.5717ZM49.8201 96.248L64.7915 106.357V96.248H49.8201Z" fill="#111111"/>
<path d="M132.143 94.9512L111.637 108.798V94.9512H132.143Z" fill="#111111"/>
<path fill-rule="evenodd" clip-rule="evenodd" d="M110.34 94.9511C110.34 94.2349 110.92 93.6543 111.637 93.6543H132.143C132.713 93.6543 133.216 94.0266 133.383 94.5717C133.55 95.1168 133.341 95.7069 132.869 96.0259L112.362 109.873C111.965 110.141 111.452 110.168 111.028 109.943C110.605 109.718 110.34 109.277 110.34 108.798V94.9511ZM112.934 96.248V106.357L127.905 96.248H112.934Z" fill="#111111"/>
<path fill-rule="evenodd" clip-rule="evenodd" d="M62.5664 13.0435C63.2826 13.0435 63.8632 13.6241 63.8632 14.3403V30.9133C63.8632 31.6295 63.2826 32.2101 62.5664 32.2101C61.8501 32.2101 61.2695 31.6295 61.2695 30.9133V14.3403C61.2695 13.6241 61.8501 13.0435 62.5664 13.0435ZM80.0907 13.0435C80.8069 13.0435 81.3875 13.6241 81.3875 14.3403V30.9133C81.3875 31.6295 80.8069 32.2101 80.0907 32.2101C79.3745 32.2101 78.7938 31.6295 78.7938 30.9133V14.3403C78.7938 13.6241 79.3745 13.0435 80.0907 13.0435ZM97.6366 13.0435C98.3528 13.0435 98.9334 13.6241 98.9334 14.3403V30.9133C98.9334 31.6295 98.3528 32.2101 97.6366 32.2101C96.9204 32.2101 96.3398 31.6295 96.3398 30.9133V14.3403C96.3398 13.6241 96.9204 13.0435 97.6366 13.0435ZM115.161 13.0435C115.877 13.0435 116.458 13.6241 116.458 14.3403V30.9133C116.458 31.6295 115.877 32.2101 115.161 32.2101C114.445 32.2101 113.864 31.6295 113.864 30.9133V14.3403C113.864 13.6241 114.445 13.0435 115.161 13.0435Z" fill="#111111"/>
<path d="M33.8696 34.3482C34.0293 33.5827 34.0077 32.7907 33.8065 32.0349C33.6054 31.2791 33.2301 30.5801 32.7105 29.993C32.1908 29.4059 31.5409 28.9469 30.8121 28.6521C30.0832 28.3573 29.2954 28.2348 28.5108 28.2943C27.4866 28.2901 26.4797 28.5569 25.5937 29.0672C24.7357 27.5457 23.4792 26.2834 21.9575 25.4141C20.4357 24.5447 18.7055 24.1009 16.9504 24.1296C14.4946 24.06 12.1106 24.9573 10.3177 26.6259C8.52473 28.2946 7.46809 30.5995 7.37789 33.0387C7.34382 33.4745 7.34382 33.9123 7.37789 34.3482C5.96078 34.5071 4.64846 35.167 3.6805 36.2075C2.71254 37.248 2.15351 38.5996 2.10547 40.0156C2.13334 40.8024 2.31704 41.5759 2.64605 42.292C2.97507 43.0081 3.44295 43.6528 4.02294 44.1891C4.60292 44.7255 5.28364 45.143 6.02616 45.4177C6.76868 45.6925 7.55843 45.8191 8.35026 45.7904H32.6596C33.4514 45.8191 34.2411 45.6925 34.9837 45.4177C35.7262 45.143 36.4069 44.7255 36.9869 44.1891C37.5669 43.6528 38.0348 43.0081 38.3638 42.292C38.6928 41.5759 38.8765 40.8024 38.9044 40.0156C38.8692 38.6338 38.3453 37.3085 37.4246 36.2721C36.504 35.2357 35.2454 34.5546 33.8696 34.3482Z" fill="white"/>
<path fill-rule="evenodd" clip-rule="evenodd" d="M16.958 22.8325C18.9357 22.8053 20.8848 23.3078 22.6007 24.288C23.9757 25.0734 25.1603 26.1425 26.0774 27.4187C26.8401 27.1435 27.6476 27 28.4646 26.9974C29.4311 26.932 30.4002 27.0866 31.2983 27.4498C32.2125 27.8196 33.0285 28.3957 33.6815 29.1334C34.3345 29.8711 34.8065 30.7501 35.0597 31.7013C35.2038 32.2427 35.2747 32.7988 35.272 33.3551C36.4689 33.7528 37.5481 34.4584 38.3941 35.4108C39.5175 36.6753 40.1578 38.2938 40.2008 39.9826C40.2014 40.0089 40.2013 40.0352 40.2004 40.0615C40.1664 41.0198 39.9427 41.9617 39.5422 42.8334C39.1417 43.7051 38.5724 44.4892 37.8673 45.1412C37.1623 45.7932 36.3352 46.3003 35.4337 46.6339C34.5399 46.9647 33.5899 47.1186 32.6372 47.0872H8.37259C7.41985 47.1186 6.4699 46.9647 5.57606 46.6339C4.67452 46.3003 3.84748 45.7932 3.14243 45.1412C2.43736 44.4892 1.86809 43.7051 1.4676 42.8334C1.0671 41.9617 0.843356 41.0198 0.809407 40.0615C0.808346 40.0316 0.808323 40.0016 0.80934 39.9716C0.868021 38.2422 1.55081 36.5928 2.73097 35.3242C3.63876 34.3484 4.79413 33.648 6.06391 33.2888C6.06843 33.1805 6.07476 33.0723 6.08291 32.9642C6.19251 30.1903 7.39724 27.5723 9.43412 25.6766C11.4701 23.7817 14.1733 22.7611 16.958 22.8325ZM16.9136 25.4259C14.7971 25.3659 12.744 26.1394 11.2012 27.5752C9.65865 29.0108 8.75127 30.992 8.67381 33.0866C8.67316 33.1043 8.67214 33.122 8.67075 33.1397C8.64195 33.5083 8.64195 33.8785 8.67075 34.2471C8.72524 34.9442 8.21725 35.559 7.52237 35.6369C6.41227 35.7614 5.38591 36.2782 4.62997 37.0908C3.88448 37.8922 3.45083 38.9284 3.40328 40.0147C3.43034 40.6144 3.57319 41.2037 3.82444 41.7506C4.08198 42.3111 4.44847 42.8163 4.90338 43.237C5.3583 43.6576 5.8927 43.9855 6.47619 44.2014C7.0597 44.4174 7.68059 44.517 8.30325 44.4944C8.3189 44.4938 8.33456 44.4936 8.35023 44.4936H32.6595C32.6752 44.4936 32.6909 44.4938 32.7065 44.4944C33.3292 44.517 33.9501 44.4174 34.5336 44.2014C35.1171 43.9855 35.6515 43.6576 36.1064 43.237C36.5613 42.8163 36.9278 42.3111 37.1853 41.7506C37.4373 41.202 37.5803 40.6108 37.6067 40.0092C37.5705 38.9486 37.1643 37.9317 36.4551 37.1333C35.7369 36.3249 34.7537 35.7922 33.6772 35.6307C33.3244 35.5777 33.0091 35.3819 32.8053 35.0891C32.6015 34.7963 32.5272 34.4326 32.6001 34.0834C32.7184 33.5159 32.7024 32.9288 32.5533 32.3684C32.4041 31.808 32.1257 31.289 31.7394 30.8525C31.353 30.4161 30.8692 30.0741 30.3258 29.8543C29.7823 29.6345 29.1945 29.543 28.6088 29.5874C28.5744 29.59 28.5399 29.5913 28.5054 29.5911C27.7098 29.5879 26.9282 29.7951 26.2408 30.1909C25.941 30.3636 25.5846 30.4093 25.2509 30.3179C24.9173 30.2265 24.6339 30.0055 24.464 29.7041C23.7215 28.3873 22.6333 27.2937 21.3142 26.5401C19.9949 25.7865 18.4943 25.4013 16.9715 25.4263C16.9522 25.4266 16.9329 25.4265 16.9136 25.4259Z" fill="#111111"/>
<path d="M159.651 18.5051C159.672 18.2837 159.672 18.0609 159.651 17.8396C159.634 17.3837 159.527 16.9356 159.335 16.5212C159.143 16.1067 158.871 15.7341 158.533 15.4248C158.196 15.1154 157.8 14.8755 157.369 14.7189C156.938 14.5623 156.479 14.492 156.021 14.5121C155.345 14.5121 154.682 14.6899 154.098 15.0273C153.531 14.0437 152.713 13.226 151.727 12.6568C150.74 12.0877 149.62 11.7872 148.479 11.7857C147.666 11.7395 146.852 11.8545 146.084 12.1241C145.316 12.3936 144.61 12.8124 144.007 13.3558C143.403 13.8993 142.915 14.5567 142.57 15.2897C142.225 16.0226 142.03 16.8164 141.997 17.6249C141.974 17.9035 141.974 18.1835 141.997 18.4622C141.048 18.5553 140.166 18.9876 139.514 19.6786C138.862 20.3697 138.485 21.2724 138.453 22.219C138.473 22.7378 138.595 23.2478 138.813 23.7196C139.031 24.1915 139.34 24.616 139.724 24.9689C140.107 25.3218 140.557 25.5962 141.047 25.7764C141.537 25.9565 142.058 26.0389 142.58 26.0187H158.851C159.901 26.0479 160.92 25.6657 161.688 24.9547C162.456 24.2437 162.912 23.2611 162.957 22.219C162.926 21.308 162.573 20.4368 161.961 19.7579C161.349 19.079 160.516 18.6355 159.608 18.5051" fill="#111111"/>
<path d="M111.277 77.4584C111.277 77.2561 111.355 77.1044 111.511 77.0032C111.666 76.8943 111.869 76.8398 112.118 76.8398H114.872C115.362 76.8398 115.825 76.8904 116.261 76.9916C116.705 77.0849 117.094 77.2406 117.428 77.4584C117.763 77.6763 118.027 77.9603 118.222 78.3105C118.416 78.6606 118.514 79.0847 118.514 79.5827V79.6527C118.514 80.1507 118.42 80.5747 118.234 80.9249C118.047 81.275 117.794 81.5591 117.475 81.7769C117.156 81.9948 116.779 82.1543 116.343 82.2555C115.915 82.3566 115.456 82.4072 114.966 82.4072H113.308V84.7882C113.308 84.9438 113.281 85.0761 113.227 85.185C113.172 85.3017 113.098 85.3951 113.005 85.4651C112.911 85.543 112.802 85.5974 112.678 85.6285C112.561 85.6674 112.441 85.6869 112.316 85.6869C112.184 85.6869 112.055 85.6674 111.931 85.6285C111.806 85.5974 111.694 85.543 111.592 85.4651C111.499 85.3951 111.421 85.3017 111.359 85.185C111.305 85.0761 111.277 84.9438 111.277 84.7882V77.4584ZM113.308 78.2754V81.0766H114.966C115.44 81.0766 115.814 80.9677 116.086 80.7498C116.358 80.532 116.495 80.1935 116.495 79.7344V79.571C116.495 79.1197 116.331 78.7929 116.004 78.5906C115.685 78.3805 115.281 78.2754 114.79 78.2754H113.308Z" fill="#111111"/>
<path d="M102.273 77.7035C102.273 77.4079 102.378 77.19 102.589 77.0499C102.799 76.9099 103.036 76.8398 103.301 76.8398C103.425 76.8398 103.546 76.8593 103.662 76.8982C103.787 76.9293 103.896 76.9799 103.989 77.0499C104.083 77.12 104.156 77.2094 104.211 77.3184C104.265 77.4273 104.293 77.5557 104.293 77.7035V82.9791C104.293 83.4382 104.44 83.7728 104.736 83.9829C105.04 84.1929 105.448 84.298 105.962 84.298C106.46 84.298 106.849 84.1929 107.129 83.9829C107.417 83.7728 107.561 83.4382 107.561 82.9791V77.7035C107.561 77.4079 107.666 77.19 107.876 77.0499C108.086 76.9099 108.323 76.8398 108.588 76.8398C108.712 76.8398 108.833 76.8593 108.95 76.8982C109.066 76.9293 109.171 76.9799 109.265 77.0499C109.358 77.12 109.432 77.2094 109.486 77.3184C109.549 77.4273 109.58 77.5557 109.58 77.7035V82.9791C109.58 83.4849 109.483 83.9128 109.288 84.263C109.101 84.6131 108.845 84.8971 108.518 85.115C108.191 85.3406 107.806 85.5002 107.362 85.5935C106.927 85.6947 106.46 85.7453 105.962 85.7453C105.448 85.7453 104.966 85.6947 104.514 85.5935C104.063 85.5002 103.67 85.3406 103.336 85.115C103.009 84.8971 102.748 84.6131 102.554 84.263C102.367 83.9128 102.273 83.4849 102.273 82.9791V77.7035Z" fill="#111111"/>
<path d="M91.0472 78.2638C90.7204 78.2638 90.4909 78.1937 90.3586 78.0537C90.2263 77.9058 90.1602 77.7347 90.1602 77.5401C90.1602 77.4545 90.1718 77.3728 90.1952 77.295C90.2263 77.2094 90.273 77.1355 90.3352 77.0733C90.4053 77.0032 90.4947 76.9488 90.6037 76.9099C90.7204 76.8632 90.8682 76.8398 91.0472 76.8398H96.9297C97.2565 76.8398 97.486 76.9138 97.6183 77.0616C97.7506 77.2017 97.8167 77.3728 97.8167 77.5752C97.8167 77.6607 97.8011 77.7463 97.77 77.8319C97.7467 77.9097 97.7 77.9798 97.63 78.042C97.5677 78.1043 97.4782 78.1587 97.3615 78.2054C97.2526 78.2443 97.1086 78.2638 96.9297 78.2638H95.0155V84.7882C95.0155 84.9438 94.9844 85.0761 94.9222 85.185C94.8677 85.3017 94.7938 85.3951 94.7004 85.4651C94.607 85.543 94.4981 85.5974 94.3736 85.6285C94.2569 85.6674 94.1363 85.6869 94.0118 85.6869C93.8795 85.6869 93.7511 85.6674 93.6266 85.6285C93.5099 85.5974 93.401 85.543 93.2998 85.4651C93.2064 85.3951 93.1286 85.3017 93.0664 85.185C93.0119 85.0761 92.9847 84.9438 92.9847 84.7882V78.2638H91.0472Z" fill="#111111"/>
<path d="M85.5075 82.022V84.7882C85.5075 84.9438 85.4764 85.0761 85.4141 85.185C85.3519 85.3017 85.2741 85.3951 85.1807 85.4651C85.0873 85.543 84.9823 85.5974 84.8656 85.6285C84.7489 85.6674 84.6321 85.6869 84.5154 85.6869C84.3987 85.6869 84.2781 85.6674 84.1536 85.6285C84.0369 85.5974 83.928 85.543 83.8268 85.4651C83.7334 85.3951 83.6556 85.3017 83.5934 85.185C83.5311 85.0761 83.5 84.9438 83.5 84.7882V77.5051C83.5 77.2795 83.5622 77.1122 83.6867 77.0032C83.819 76.8943 83.9863 76.8398 84.1886 76.8398H86.8031C87.2544 76.8398 87.6823 76.8787 88.0869 76.9566C88.4993 77.0344 88.8611 77.1705 89.1724 77.3651C89.4836 77.5596 89.7287 77.8164 89.9077 78.1354C90.0944 78.4544 90.1878 78.859 90.1878 79.3492C90.1878 79.676 90.1411 79.9717 90.0478 80.2363C89.9544 80.5008 89.826 80.7343 89.6626 80.9366C89.4992 81.1389 89.3086 81.314 89.0907 81.4618C88.8728 81.6096 88.6433 81.7225 88.4021 81.8003L89.9194 84.2863C90.0672 84.512 90.1256 84.7454 90.0944 84.9866C90.0633 85.2278 89.9233 85.4185 89.6743 85.5585C89.5342 85.6363 89.3941 85.6791 89.2541 85.6869C89.1218 85.7025 88.9973 85.6908 88.8806 85.6519C88.7717 85.613 88.6705 85.5546 88.5771 85.4768C88.4838 85.399 88.406 85.3095 88.3437 85.2084L86.4412 82.022H85.5075ZM85.5075 78.2754V80.6214H86.7564C87.1921 80.6214 87.5423 80.5358 87.8068 80.3647C88.0714 80.1935 88.2036 79.89 88.2036 79.4543C88.2036 79.0108 88.0714 78.7034 87.8068 78.5322C87.55 78.361 87.1999 78.2754 86.7564 78.2754H85.5075Z" fill="#111111"/>
<path d="M75.5092 85.6402C75.3613 85.5935 75.2407 85.5312 75.1474 85.4534C75.054 85.3756 74.984 85.2861 74.9373 85.185C74.8984 85.0838 74.8789 84.9827 74.8789 84.8815C74.8789 84.7804 74.8945 84.6831 74.9256 84.5897L77.4583 77.4351C77.5128 77.2794 77.6256 77.1316 77.7968 76.9915C77.9758 76.8437 78.2403 76.7698 78.5905 76.7698C78.9406 76.7698 79.2052 76.8437 79.3841 76.9915C79.5631 77.1316 79.6798 77.2794 79.7343 77.4351L82.267 84.6131C82.3604 84.8854 82.3565 85.1033 82.2553 85.2667C82.1542 85.4301 81.9791 85.5468 81.7301 85.6168C81.4344 85.7024 81.1855 85.6946 80.9831 85.5935C80.7886 85.4923 80.6524 85.325 80.5746 85.0916L80.0377 83.4926H77.2132L76.653 85.15C76.5907 85.3367 76.4546 85.4807 76.2445 85.5818C76.0344 85.683 75.7893 85.7024 75.5092 85.6402ZM78.6255 79.2908L77.6801 82.0803H79.5592L78.6255 79.2908Z" fill="#111111"/>
<path d="M69.3363 78.2638C69.0095 78.2638 68.7799 78.1937 68.6476 78.0537C68.5154 77.9058 68.4492 77.7347 68.4492 77.5401C68.4492 77.4545 68.4609 77.3728 68.4842 77.295C68.5154 77.2094 68.562 77.1355 68.6243 77.0733C68.6943 77.0032 68.7838 76.9488 68.8927 76.9099C69.0095 76.8632 69.1573 76.8398 69.3363 76.8398H75.2187C75.5455 76.8398 75.7751 76.9138 75.9074 77.0616C76.0396 77.2017 76.1058 77.3728 76.1058 77.5752C76.1058 77.6607 76.0902 77.7463 76.0591 77.8319C76.0357 77.9097 75.9891 77.9798 75.919 78.042C75.8568 78.1043 75.7673 78.1587 75.6506 78.2054C75.5416 78.2443 75.3977 78.2638 75.2187 78.2638H73.3046V84.7882C73.3046 84.9438 73.2735 85.0761 73.2112 85.185C73.1568 85.3017 73.0828 85.3951 72.9895 85.4651C72.8961 85.543 72.7872 85.5974 72.6627 85.6285C72.5459 85.6674 72.4253 85.6869 72.3008 85.6869C72.1686 85.6869 72.0402 85.6674 71.9157 85.6285C71.799 85.5974 71.69 85.543 71.5889 85.4651C71.4955 85.3951 71.4177 85.3017 71.3554 85.185C71.301 85.0761 71.2737 84.9438 71.2737 84.7882V78.2638H69.3363Z" fill="#111111"/>
<path d="M64.1447 84.2979C64.3781 84.2979 64.596 84.2785 64.7983 84.2396C65.0084 84.2007 65.1874 84.1384 65.3352 84.0528C65.483 83.9672 65.5997 83.8583 65.6853 83.726C65.7709 83.5937 65.8137 83.4381 65.8137 83.2591C65.8137 83.0568 65.7631 82.8818 65.662 82.7339C65.5686 82.5861 65.4402 82.4577 65.2768 82.3488C65.1134 82.232 64.9267 82.1309 64.7166 82.0453C64.5065 81.9597 64.2886 81.878 64.063 81.8002C63.7128 81.6757 63.351 81.5434 62.9775 81.4034C62.6118 81.2555 62.2772 81.0843 61.9738 80.8898C61.6781 80.6875 61.433 80.4502 61.2385 80.1778C61.0517 79.9055 60.9583 79.5787 60.9583 79.1974C60.9583 78.7306 61.0712 78.3454 61.2968 78.0419C61.5225 77.7307 61.8104 77.4856 62.1605 77.3066C62.5107 77.1199 62.9036 76.9876 63.3393 76.9098C63.7751 76.832 64.203 76.7931 64.6232 76.7931C64.8333 76.7931 65.0667 76.8048 65.3235 76.8281C65.5803 76.8437 65.8293 76.8748 66.0705 76.9215C66.3195 76.9682 66.549 77.0265 66.7591 77.0966C66.977 77.1666 67.1443 77.2522 67.261 77.3533C67.3544 77.4311 67.4166 77.5245 67.4477 77.6334C67.4867 77.7346 67.5061 77.828 67.5061 77.9136C67.4983 78.1003 67.4516 78.2481 67.366 78.3571C67.2805 78.4582 67.1754 78.5283 67.0509 78.5672C66.9342 78.6061 66.8019 78.6216 66.6541 78.6139C66.514 78.6061 66.3856 78.5788 66.2689 78.5322C65.981 78.4388 65.7087 78.361 65.4519 78.2987C65.1951 78.2365 64.9189 78.2054 64.6232 78.2054C64.1486 78.2054 63.7556 78.2754 63.4444 78.4154C63.1409 78.5477 62.9892 78.7695 62.9892 79.0807C62.9892 79.2597 63.0398 79.4153 63.1409 79.5476C63.2421 79.6799 63.3744 79.8005 63.5378 79.9094C63.709 80.0106 63.9035 80.1039 64.1213 80.1895C64.347 80.2751 64.5804 80.3568 64.8216 80.4346L65.4636 80.6564C65.7593 80.7653 66.0472 80.8898 66.3273 81.0299C66.6152 81.1699 66.8681 81.3372 67.0859 81.5318C67.3116 81.7263 67.4905 81.9519 67.6228 82.2087C67.7629 82.4655 67.8329 82.765 67.8329 83.1074C67.8329 83.5587 67.7434 83.9517 67.5645 84.2862C67.3855 84.6208 67.1326 84.8971 66.8058 85.1149C66.4868 85.3328 66.1055 85.4923 65.662 85.5935C65.2185 85.7024 64.7322 85.7569 64.203 85.7569C63.4249 85.7569 62.7674 85.6635 62.2305 85.4767C61.6937 85.29 61.3007 85.0721 61.0517 84.8231C60.9739 84.7609 60.9156 84.687 60.8766 84.6014C60.8377 84.5158 60.8144 84.4302 60.8066 84.3446C60.7911 84.2045 60.8066 84.08 60.8533 83.9711C60.9 83.8622 60.9622 83.7727 61.04 83.7027C61.1256 83.6326 61.219 83.5821 61.3202 83.5509C61.4213 83.512 61.5264 83.4926 61.6353 83.4926C61.752 83.4926 61.8687 83.512 61.9854 83.5509C62.1099 83.5898 62.215 83.6443 62.3006 83.7143C62.4251 83.7999 62.5457 83.8777 62.6624 83.9478C62.7791 84.0178 62.9075 84.08 63.0476 84.1345C63.1876 84.1812 63.3471 84.2201 63.5261 84.2512C63.7051 84.2824 63.9113 84.2979 64.1447 84.2979Z" fill="#111111"/>
</g>
<defs>
<clipPath id="clip0_2418_105770">
<rect width="162.105" height="110" fill="white" transform="translate(0.894531)"/>
</clipPath>
</defs>
</svg>
