<svg width="76" height="76" viewBox="0 0 76 76" fill="none" xmlns="http://www.w3.org/2000/svg">
<g clip-path="url(#clip0_2481_142514)">
<path d="M41.8557 14.6083C34.158 6.98821 21.7721 6.98821 14.2037 14.6083C6.63523 22.0993 6.63523 34.4981 14.2037 41.9891C21.9013 49.6092 34.2872 49.6092 41.8557 41.9891C49.5533 34.4981 49.5533 22.2284 41.8557 14.6083ZM39.6342 39.7934C33.2411 46.122 22.9345 46.122 16.5414 39.7934C10.1482 33.4649 10.1482 23.2617 16.5414 16.9331C22.9345 10.6045 33.2411 10.6045 39.6342 16.9331C45.8982 23.2617 45.8982 33.4649 39.6342 39.7934Z" fill="white"/>
<path d="M37.8134 18.7413C37.1547 18.0955 36.1215 18.0955 35.4628 18.7413C34.8041 19.387 34.8041 20.4203 35.4628 21.066C39.6345 25.199 39.6345 31.7859 35.4628 35.7896C34.8041 36.4354 34.8041 37.4687 35.4628 38.1144C36.1085 38.7602 37.1547 38.7602 37.8134 38.1144C43.1604 32.6899 43.1604 24.0366 37.8134 18.7413Z" fill="white"/>
<path d="M73.8091 68.724H70.2831C72.7629 65.4952 72.6337 60.9748 69.6374 58.0042L52.6794 41.2141C58.4138 30.6235 56.4636 17.5789 47.7199 8.92552C42.502 3.75934 35.5922 0.917938 28.153 0.917938C13.1581 0.917938 0.630134 12.671 0.50098 28.1695C0.371825 43.7972 13.029 55.8086 28.153 55.8086C32.7121 55.8086 37.155 54.7754 41.0684 52.5797L57.3677 68.724H41.1976C40.2806 68.724 39.5056 69.499 39.5056 70.403C39.5056 71.3071 40.2935 72.0821 41.1976 72.0821H73.8091C74.7261 72.0821 75.501 71.3071 75.501 70.403C75.501 69.499 74.7131 68.724 73.8091 68.724ZM67.2868 67.1742C65.3365 69.1115 62.3272 69.1115 60.377 67.1742L51.1166 58.0042L58.0264 51.159L67.2868 60.329C69.1078 62.2663 69.1078 65.2369 67.2868 67.1742ZM47.7199 54.6462L54.6296 47.801L55.8049 48.9634L48.8952 55.8086L47.7199 54.6462ZM40.5518 49.2217C36.7676 51.4173 32.4667 52.5797 28.1659 52.5797C14.863 52.5797 3.63943 41.9891 3.76859 28.1695C3.89774 14.35 15.1084 4.1468 28.153 4.1468C34.6753 4.1468 40.8101 6.72989 45.4984 11.2503C53.4543 19.1287 54.8879 31.1401 49.2826 40.6975C48.8952 41.3433 49.0243 42.1182 49.5409 42.6348L52.4082 45.4762L45.4984 52.3214L42.502 49.48C41.9854 48.9634 41.0684 48.8343 40.5389 49.2217H40.5518Z" fill="white"/>
</g>
<defs>
<clipPath id="clip0_2481_142514">
<rect width="75" height="75" fill="white" transform="translate(0.5 0.5)"/>
</clipPath>
</defs>
</svg>
