<svg width="74" height="60" viewBox="0 0 74 60" fill="none" xmlns="http://www.w3.org/2000/svg">
<path d="M72.2632 2.96733C72.2014 4.079 72.1396 5.19066 72.0161 6.24056C70.2869 22.2979 60.0349 35.4526 46.3243 41.6903C42.0012 43.6666 37.3693 44.9635 32.4903 45.3958C31.9345 42.4932 30.761 39.714 28.7847 37.2436C26.9937 34.9585 24.7086 33.2293 22.2383 32.0559C23.844 27.3004 26.2526 22.9773 29.2171 19.1482C38.3574 7.47575 53.1796 0.620485 68.9899 2.4115C70.1016 2.53502 71.2133 2.7203 72.2632 2.96733Z" stroke="white" stroke-width="3" stroke-miterlimit="10" stroke-linecap="round" stroke-linejoin="round"/>
<path d="M47.6208 42.0608C46.6327 46.2605 44.2858 50.1513 40.7038 52.9922C37.9246 55.2155 34.7131 56.5742 31.4399 57.0683C32.8604 53.6098 33.2309 49.7807 32.5516 46.0752C31.9957 42.9255 30.637 39.8993 28.5372 37.2436C26.5609 34.7733 24.0906 32.8587 21.3732 31.6235C17.7911 29.956 13.715 29.462 9.82422 30.0796C11.0594 26.9916 13.0975 24.2124 15.8766 21.9891C19.7674 18.9012 24.4611 17.4807 29.0313 17.666C34.5896 17.8513 40.0244 20.4451 43.7917 25.1388C47.7443 30.0178 48.9795 36.3172 47.6208 42.0608Z" stroke="white" stroke-width="3" stroke-miterlimit="10" stroke-linecap="round" stroke-linejoin="round"/>
<path d="M49.5977 4.57306C54.2913 4.75834 58.8615 6.85815 62.0112 10.8107C65.3462 15.0103 66.3961 20.2599 65.2227 25.0771" stroke="white" stroke-width="3" stroke-miterlimit="10" stroke-linecap="round" stroke-linejoin="round"/>
<path d="M56.5151 18.5306C56.5151 20.6304 54.7858 22.2979 52.7478 22.2979C50.648 22.2979 48.9805 20.5687 48.9805 18.5306C48.9805 16.4926 50.7097 14.7633 52.7478 14.7633C54.8476 14.7633 56.5151 16.4308 56.5151 18.5306Z" stroke="white" stroke-width="3" stroke-miterlimit="10" stroke-linecap="round" stroke-linejoin="round"/>
<path d="M12.604 37.4907L4.01953 44.1606" stroke="white" stroke-width="3" stroke-miterlimit="10" stroke-linecap="round" stroke-linejoin="round"/>
<path d="M23.0426 51.5099L15.1992 57.8711" stroke="white" stroke-width="3" stroke-miterlimit="10" stroke-linecap="round" stroke-linejoin="round"/>
<path d="M21.8678 40.9492L1.73438 56.883" stroke="white" stroke-width="3" stroke-miterlimit="10" stroke-linecap="round" stroke-linejoin="round"/>
</svg>
