<svg width="50" height="48" viewBox="0 0 50 48" fill="none" xmlns="http://www.w3.org/2000/svg">
<g clip-path="url(#clip0_2493_38702)">
<path d="M23.9689 38.0049C23.4135 38.0049 22.9375 37.5288 22.9375 36.9734V33.0065C22.9375 32.4511 23.4135 31.9751 23.9689 31.9751C24.5243 31.9751 25.0003 32.4511 25.0003 33.0065V36.9734C24.921 37.5288 24.4449 38.0049 23.9689 38.0049Z" fill="#114493"/>
<path d="M18.0188 38.0048C17.4634 38.0048 16.9874 37.5287 16.9874 36.9734V34.0378C8.10143 33.4825 0.960938 26.1039 0.960938 17.0593C0.960938 7.69733 8.57747 0.00146484 18.0188 0.00146484C22.6998 0.00146484 27.1428 1.9056 30.3163 5.31717C30.713 5.71386 30.713 6.34857 30.3163 6.74527C29.9196 7.14196 29.2849 7.14196 28.8882 6.74527C26.032 3.73039 22.1444 2.06427 18.0188 2.06427C9.68821 2.06427 2.94441 8.80808 2.94441 17.1387C2.94441 25.4692 9.68821 32.213 18.0188 32.213C18.5742 32.213 19.0502 32.6891 19.0502 33.2444V37.2114C18.9709 37.5287 18.4948 38.0048 18.0188 38.0048Z" fill="#114493"/>
<path d="M8.97281 15.076C8.41744 15.076 7.94141 14.5999 7.94141 14.0446C7.94141 11.347 10.9563 6.9834 15.0026 6.9834C15.5579 6.9834 16.034 7.45943 16.034 8.0148C16.034 8.57018 15.5579 9.04621 15.0026 9.04621C12.3844 9.04621 9.92488 12.1404 9.92488 14.1239C10.0042 14.5206 9.52818 15.076 8.97281 15.076Z" fill="#114493"/>
<path d="M24.9196 44.0345H22.9362C22.3808 44.0345 21.9048 43.5584 21.9048 43.0031C21.9048 42.4477 22.3808 41.9716 22.9362 41.9716H23.9676V38.0047H17.9378V41.9716H18.8899C19.4452 41.9716 19.9213 42.4477 19.9213 43.0031C19.9213 43.5584 19.4452 44.0345 18.8899 44.0345H16.9064C16.351 44.0345 15.875 43.5584 15.875 43.0031V36.9733C15.875 36.4179 16.351 35.9419 16.9064 35.9419H24.9196C25.475 35.9419 25.951 36.4179 25.951 36.9733V43.0031C26.0304 43.4791 25.5543 44.0345 24.9196 44.0345Z" fill="#114493"/>
<path d="M22.9358 48.0014H18.9689C18.4135 48.0014 17.9375 47.5254 17.9375 46.97V43.0031C17.9375 42.4477 18.4135 41.9717 18.9689 41.9717H22.9358C23.4912 41.9717 23.9673 42.4477 23.9673 43.0031V46.97C23.9673 47.5254 23.4912 48.0014 22.9358 48.0014ZM20.0003 46.018H21.9838V44.0345H20.0003V46.018Z" fill="#114493"/>
<path d="M48.009 29.9915H20.0024C19.8437 29.9915 19.6851 29.9121 19.5264 29.8328L14.4487 26.8179C14.1313 26.6593 13.9727 26.3419 13.9727 25.9452C13.9727 25.5485 14.1313 25.3105 14.4487 25.0725L19.5264 22.0576C19.6851 21.9783 19.8437 21.8989 20.0024 21.8989H48.009C48.5644 21.8989 49.0404 22.375 49.0404 22.9303V28.9601C48.9611 29.5155 48.4851 29.9915 48.009 29.9915ZM20.2404 28.008H46.9776V24.0411H20.2404L16.9082 26.0245L20.2404 28.008Z" fill="#114493"/>
<path d="M41.9806 29.9915C41.4253 29.9915 40.9492 29.5155 40.9492 28.9601V22.9303C40.9492 22.375 41.4253 21.8989 41.9806 21.8989C42.536 21.8989 43.012 22.375 43.012 22.9303V28.9601C42.9327 29.5155 42.4567 29.9915 41.9806 29.9915Z" fill="#114493"/>
<path d="M41.424 19.9948H24.4455C23.8901 19.9948 23.4141 19.5187 23.4141 18.9633C23.4141 18.408 23.8901 17.9319 24.4455 17.9319H41.5033C41.9 17.9319 42.2967 17.7733 42.5347 17.5352C42.8521 17.2179 42.9314 16.9005 42.9314 16.5038C42.9314 15.7105 42.2967 14.9964 41.424 14.9964C40.8686 14.9964 40.3926 14.5204 40.3926 13.965C40.3926 13.4096 40.8686 12.9336 41.424 12.9336C43.3281 12.9336 44.9149 14.5204 44.9149 16.4245C44.9149 17.3766 44.5182 18.2493 43.8835 18.884C43.2488 19.5981 42.376 19.9948 41.424 19.9948Z" fill="#114493"/>
<path d="M36.9812 16.0279H26.9845C26.4292 16.0279 25.9531 15.5519 25.9531 14.9965C25.9531 14.4411 26.4292 13.9651 26.9845 13.9651H36.9812C37.5366 13.9651 38.0126 14.4411 38.0126 14.9965C38.0126 15.5519 37.5366 16.0279 36.9812 16.0279Z" fill="#114493"/>
<path d="M34.9166 11.9815H28.8869C28.3315 11.9815 27.8555 11.5055 27.8555 10.9501C27.8555 10.3947 28.3315 9.9187 28.8869 9.9187H34.9166C35.472 9.9187 35.948 10.3947 35.948 10.9501C36.0274 11.5055 35.5513 11.9815 34.9166 11.9815Z" fill="#114493"/>
</g>
<defs>
<clipPath id="clip0_2493_38702">
<rect width="48.0793" height="48" fill="white" transform="translate(0.960938 0.00146484)"/>
</clipPath>
</defs>
</svg>
