<svg width="54" height="75" viewBox="0 0 54 75" fill="none" xmlns="http://www.w3.org/2000/svg">
<path d="M36.1861 18.9656C36.1861 14.2323 32.2943 10.4031 27.4837 10.4031C22.673 10.4031 18.7812 14.2323 18.7812 18.9656C18.7812 24.3372 24.1865 29.23 24.1865 29.23H31.1592C31.0511 29.23 36.1861 23.7521 36.1861 18.9656Z" stroke="white" stroke-width="3" stroke-miterlimit="10" stroke-linecap="round" stroke-linejoin="round"/>
<path d="M14.7383 32.3147L17.4409 29.6024" stroke="white" stroke-width="3" stroke-miterlimit="10" stroke-linecap="round" stroke-linejoin="round"/>
<path d="M9.34766 19.8699H13.2394" stroke="white" stroke-width="3" stroke-miterlimit="10" stroke-linecap="round" stroke-linejoin="round"/>
<path d="M14.4062 7.31854L17.217 10.0309" stroke="white" stroke-width="3" stroke-miterlimit="10" stroke-linecap="round" stroke-linejoin="round"/>
<path d="M27.0742 2L27.1283 5.82921" stroke="white" stroke-width="3" stroke-miterlimit="10" stroke-linecap="round" stroke-linejoin="round"/>
<path d="M39.8432 6.99951L37.1406 9.76505" stroke="white" stroke-width="3" stroke-miterlimit="10" stroke-linecap="round" stroke-linejoin="round"/>
<path d="M45.2199 19.4443L41.3281 19.4975" stroke="white" stroke-width="3" stroke-miterlimit="10" stroke-linecap="round" stroke-linejoin="round"/>
<path d="M40.1545 31.9955L37.3438 29.3363" stroke="white" stroke-width="3" stroke-miterlimit="10" stroke-linecap="round" stroke-linejoin="round"/>
<path d="M26.9464 54.7048C30.2003 54.7048 32.8381 52.1094 32.8381 48.9078C32.8381 45.7062 30.2003 43.1108 26.9464 43.1108C23.6925 43.1108 21.0547 45.7062 21.0547 48.9078C21.0547 52.1094 23.6925 54.7048 26.9464 54.7048Z" stroke="white" stroke-width="3" stroke-miterlimit="10" stroke-linecap="round" stroke-linejoin="round"/>
<path d="M35.4849 73H18.2422V62.8951C18.2422 59.0127 21.4313 55.9281 25.323 55.9281H28.35C32.2958 55.9281 35.4308 59.0659 35.4308 62.8951V73H35.4849Z" stroke="white" stroke-width="3" stroke-miterlimit="10" stroke-linecap="round" stroke-linejoin="round"/>
<path d="M10.419 50.1312C13.6729 50.1312 16.3107 47.5358 16.3107 44.3342C16.3107 41.1326 13.6729 38.5372 10.419 38.5372C7.16515 38.5372 4.52734 41.1326 4.52734 44.3342C4.52734 47.5358 7.16515 50.1312 10.419 50.1312Z" stroke="white" stroke-width="3" stroke-miterlimit="10" stroke-linecap="round" stroke-linejoin="round"/>
<path d="M12.0304 68.373H1.65234V59.7573C1.65234 55.0771 5.49006 51.2479 10.3007 51.2479C12.679 51.2479 14.787 52.152 16.3546 53.6944" stroke="white" stroke-width="3" stroke-miterlimit="10" stroke-linecap="round" stroke-linejoin="round"/>
<path d="M43.6573 50.1312C46.9112 50.1312 49.549 47.5358 49.549 44.3342C49.549 41.1326 46.9112 38.5372 43.6573 38.5372C40.4034 38.5372 37.7656 41.1326 37.7656 44.3342C37.7656 47.5358 40.4034 50.1312 43.6573 50.1312Z" stroke="white" stroke-width="3" stroke-miterlimit="10" stroke-linecap="round" stroke-linejoin="round"/>
<path d="M41.9687 68.373H52.3468V59.7573C52.3468 55.0771 48.509 51.2479 43.6984 51.2479C41.3201 51.2479 39.212 52.152 37.6445 53.6944" stroke="white" stroke-width="3" stroke-miterlimit="10" stroke-linecap="round" stroke-linejoin="round"/>
<path d="M31.5968 29.0172V34.0165H23.543V29.2299" stroke="white" stroke-width="3" stroke-miterlimit="10" stroke-linecap="round" stroke-linejoin="round"/>
</svg>
