<svg width="76" height="76" viewBox="0 0 76 76" fill="none" xmlns="http://www.w3.org/2000/svg">
<g clip-path="url(#clip0_2481_142544)">
<path d="M71.1552 66.5334H26.0395C23.8287 66.5334 21.875 64.7339 21.875 62.4203V35.9422C21.875 35.0424 22.6591 34.2712 23.5717 34.2712H49.8313C50.3583 34.2712 50.7439 33.8856 50.7439 33.3715V31.0578C50.7439 30.1581 51.528 29.3869 52.4406 29.3869H65.0498C67.2606 29.3869 69.2143 31.1864 69.2143 33.5V54.0656C69.2143 54.3226 69.3429 54.4512 69.4714 54.7082L74.2786 59.464C75.4483 60.6208 75.8339 62.4203 75.1912 63.9627C74.2786 65.5051 72.8519 66.5334 71.1552 66.5334ZM25.1269 37.6131V62.4203C25.1269 62.9344 25.5125 63.3201 26.0395 63.3201H71.1552C71.6693 63.3201 71.9393 62.9344 71.9393 62.8059C72.0678 62.6774 72.0678 62.2918 71.8107 61.9062L67.0035 57.1504C66.2195 56.3792 65.8339 55.3509 65.8339 54.3226V33.7571C65.8339 33.2429 65.4483 32.8573 64.9213 32.8573H53.8673V33.6285C53.8673 35.8136 52.0421 37.7416 49.7028 37.7416H25.1269V37.6131Z" fill="white"/>
<path d="M49.7044 37.6131H4.58874C2.89209 37.6131 1.46535 36.5848 0.822677 35.0424C0.16715 33.5 0.565608 31.8291 1.73527 30.5437L6.54247 25.7879C6.67101 25.6594 6.79954 25.4023 6.79954 25.1452V4.57969C6.79954 2.3946 8.62473 0.466583 10.9641 0.466583H49.8458C52.0566 0.466583 54.0103 2.26607 54.0103 4.57969V33.3715C53.8818 35.6851 52.0566 37.6131 49.7173 37.6131H49.7044ZM10.8227 3.80849C10.3085 3.80849 9.91008 4.19409 9.91008 4.70823V25.2738C9.91008 26.3021 9.52448 27.3303 8.74042 28.1015L3.93322 32.8573C3.54761 33.2429 3.67615 33.6285 3.80468 33.7571C3.93322 33.8856 4.06175 34.2712 4.58874 34.2712H49.7044C50.2186 34.2712 50.617 33.8856 50.617 33.3715V4.70823C50.617 4.19409 50.2314 3.80849 49.7044 3.80849H10.8227Z" fill="white"/>
<path d="M29.8067 26.3021C28.8941 26.3021 28.11 25.5309 28.11 24.6311V20.0039C28.11 19.1041 28.8941 18.3329 29.8067 18.3329C32.146 18.3329 33.9712 16.5334 33.9712 14.2198C33.9712 11.9062 32.146 10.1067 29.8067 10.1067C27.4674 10.1067 25.6422 11.9062 25.6422 14.2198C25.6422 15.1195 24.8581 15.8908 23.9584 15.8908C23.0586 15.8908 22.2617 15.1195 22.2617 14.2198C22.2617 10.1067 25.6422 6.89333 29.6782 6.89333C33.7142 6.89333 37.0946 10.2352 37.0946 14.2198C37.0946 17.6902 34.6268 20.6465 31.2463 21.4177V24.6311C31.3748 25.5309 30.5908 26.3021 29.8196 26.3021H29.8067Z" fill="white"/>
<path d="M29.806 31.1864C28.8934 31.1864 28.1094 30.4152 28.1094 29.5154V29.3869C28.1094 28.4871 28.8934 27.7159 29.806 27.7159C30.7186 27.7159 31.5027 28.4871 31.5027 29.3869V29.5154C31.3742 30.4152 30.5901 31.1864 29.806 31.1864Z" fill="white"/>
<path d="M50.875 56.8933H24.8724C23.9598 56.8933 23.1758 56.1221 23.1758 55.2224C23.1758 54.3226 23.9598 53.5514 24.8724 53.5514H50.875C51.7876 53.5514 52.5717 54.3226 52.5717 55.2224C52.5717 56.1221 51.7876 56.8933 50.875 56.8933Z" fill="white"/>
<path d="M39.5646 44.0399H34.6289V48.9242H39.5646V44.0399Z" fill="white"/>
<path d="M47.7521 44.0399H42.8164V48.9242H47.7521V44.0399Z" fill="white"/>
<path d="M55.8107 44.0399H50.875V48.9242H55.8107V44.0399Z" fill="white"/>
</g>
<defs>
<clipPath id="clip0_2481_142544">
<rect width="75" height="75" fill="white" transform="translate(0.5 0.5)"/>
</clipPath>
</defs>
</svg>
