<svg width="44" height="47" viewBox="0 0 44 47" fill="none" xmlns="http://www.w3.org/2000/svg">
<g clip-path="url(#clip0_966_18560)">
<path d="M24.6805 39.0291C23.9494 39.8462 23.0017 40.282 21.9728 40.282C20.971 40.282 19.9963 39.8462 19.2652 39.0291C18.9674 38.6751 18.4258 38.6479 18.1009 38.9747C17.7489 39.2743 17.7219 39.819 18.0468 40.1458C19.1027 41.3169 20.4836 41.9705 21.9728 41.9705C23.462 41.9705 24.87 41.3169 25.8989 40.1458C26.1967 39.7917 26.1697 39.2743 25.8448 38.9747C25.5198 38.6751 25.0054 38.7023 24.6805 39.0291Z" fill="#114493"/>
<path d="M43.3903 11.1949C43.6881 11.0588 43.8777 10.7592 43.8777 10.4324C43.8777 10.1055 43.6881 9.80595 43.3903 9.66977L22.3249 0.11027C22.1083 0.0013294 21.8646 0.0013294 21.648 0.11027L0.582589 9.66977C0.284749 9.80595 0.0952148 10.1055 0.0952148 10.4324C0.0952148 10.7592 0.284749 11.0588 0.582589 11.1949L10.8174 15.8249V19.8284C6.51231 23.9137 5.18557 29.9871 5.3751 34.1541C5.56464 38.1849 8.27227 39.9279 12.1442 39.4649C14.0937 43.4685 17.8844 46.0286 21.9729 46.0286C26.0614 46.0286 29.8792 43.4685 31.8016 39.4922C35.7548 39.9552 38.3812 38.1576 38.5707 34.1813C38.7602 30.0144 37.4335 23.9409 33.1284 19.8557V15.8794L39.6267 12.9107V18.3578C38.4353 18.7118 37.5418 19.8284 37.5418 21.163C37.5418 22.7698 38.8415 24.1044 40.466 24.1044C42.0636 24.1044 43.3903 22.7971 43.3903 21.163C43.3903 19.8284 42.4968 18.739 41.3054 18.3578V12.1482L43.3903 11.1949ZM22 44.34C18.6154 44.34 15.5829 42.3791 13.85 39.1381H13.8771C14.2561 39.0292 14.4998 38.6751 14.4728 38.2666L13.6063 27.0457C17.9656 28.353 20.7545 25.7385 22 24.1588C23.2455 25.7385 26.0614 28.353 30.3936 27.0457L29.5272 38.2666C29.5001 38.6751 29.7438 39.0292 30.1229 39.1381C30.1229 39.1381 30.1229 39.1381 30.15 39.1381C28.4171 42.3791 25.3574 44.34 22 44.34ZM36.9461 34.0724C36.7837 37.4495 34.5363 38.321 31.233 37.6946L32.1536 25.8746C32.1807 25.575 32.0453 25.3027 31.8016 25.112C31.5579 24.9486 31.2601 24.9214 30.9893 25.0303C25.547 27.4815 22.8393 22.4702 22.731 22.2796C22.5957 22.0072 22.2978 21.8438 22 21.8438C21.7021 21.8438 21.4043 22.0072 21.2689 22.2796C21.1606 22.4975 18.453 27.4815 13.0106 25.0576C12.7399 24.9486 12.442 24.9759 12.1983 25.1393C11.9547 25.3027 11.8193 25.6023 11.8463 25.9019L12.7669 37.7219C9.46363 38.3483 7.21629 37.504 7.05384 34.0996C6.8643 30.1778 8.16397 24.3495 12.3879 20.7H31.6121C35.836 24.3222 37.1357 30.1505 36.9461 34.0724ZM12.4691 18.9842V13.5099C18.6154 11.1405 25.3304 11.1405 31.5038 13.5099V18.9842H12.4691ZM33.1825 14.0274V12.9107C33.1825 12.5567 32.9659 12.2571 32.6681 12.1482C25.7907 9.34295 18.2364 9.34295 11.359 12.1482C11.0341 12.2571 10.8174 12.5839 10.8174 12.938V13.9729L2.93823 10.4324L22 1.77161L41.0346 10.4324L33.1825 14.0274ZM41.7386 21.163C41.7386 21.8438 41.17 22.4158 40.4931 22.4158C39.8162 22.4158 39.2476 21.8438 39.2476 21.163C39.2476 20.4821 39.8162 19.9102 40.4931 19.9102C41.17 19.9102 41.7386 20.4549 41.7386 21.163Z" fill="#114493"/>
</g>
<defs>
<clipPath id="clip0_966_18560">
<rect width="43.8095" height="46" fill="white" transform="translate(0.0952148 0.0285645)"/>
</clipPath>
</defs>
</svg>
