<svg width="62" height="60" viewBox="0 0 62 60" fill="none" xmlns="http://www.w3.org/2000/svg">
<g clip-path="url(#clip0_983_6972)">
<path d="M38.9125 60C37.7105 60 36.5085 59.399 35.8073 58.3973L28.7956 48.4808C26.1913 44.7746 25.1896 39.8664 26.0911 34.8581C24.8891 35.0584 23.7873 35.1586 22.5853 35.1586C18.8791 35.1586 15.3733 34.1569 12.5686 32.1536L2.65206 25.1419C1.55022 24.4407 0.949219 23.2387 0.949219 22.0367C0.949219 21.1352 1.24972 20.3339 1.75055 19.6327C2.45172 18.7312 3.55356 18.1302 4.75556 18.1302C5.5569 18.1302 6.35823 18.3305 6.95924 18.8314L15.4734 24.8414C16.8758 25.8431 18.3783 26.5442 20.1813 26.9449C22.5853 27.5459 25.2898 27.5459 27.9943 27.0451C28.5953 24.2404 28.4951 21.3356 27.794 18.8314C27.3933 17.3289 26.6921 15.9265 25.7906 14.7245L19.7806 6.21035C19.2798 5.50918 19.0794 4.80801 19.0794 4.00668C19.0794 2.80467 19.5803 1.70284 20.5819 1.00167C21.2831 0.300501 22.0844 0 23.0861 0C24.2881 0 25.4901 0.601002 26.1913 1.60267L33.203 11.5192C35.8073 15.2254 36.809 20.1336 35.9075 25.1419C37.1095 24.9416 38.2113 24.8414 39.4133 24.8414C43.1195 24.8414 46.6253 25.8431 49.43 27.8464L59.3465 34.8581C60.3482 35.5593 60.9492 36.7613 60.9492 37.9633C60.9492 38.8648 60.6487 39.6661 60.1479 40.3673C59.4467 41.2688 58.3449 41.8698 57.1429 41.8698C56.3415 41.8698 55.5402 41.6694 54.9392 41.1686L46.425 35.1586C45.0227 34.1569 43.42 33.4558 41.617 33.0551C39.3132 32.4541 36.6087 32.4541 34.0043 33.0551C33.5035 35.5593 33.5035 38.2638 34.0043 40.6678C34.405 42.4708 35.1061 44.0735 36.1078 45.576L42.1178 53.99C42.6187 54.591 42.819 55.3923 42.819 56.1937C42.819 57.3957 42.3182 58.4975 41.3165 59.1987C40.7155 59.6995 39.814 60 38.9125 60ZM27.6938 31.9533C27.9943 31.9533 28.2948 32.0534 28.5953 32.3539C28.8958 32.6544 28.996 33.0551 28.8958 33.5559L28.6955 34.2571C27.5936 38.9649 28.395 43.5726 30.799 46.9783L37.8107 56.8948C38.011 57.2955 38.5118 57.4958 38.9125 57.4958C39.1128 57.4958 39.4133 57.4958 39.7138 57.1953C40.0143 56.8948 40.2147 56.5943 40.2147 56.1937C40.2147 55.8932 40.1145 55.6928 40.0143 55.3923L34.0043 46.8781C32.8023 45.1753 32.001 43.2721 31.5001 41.1686C30.799 38.3639 30.799 35.0584 31.6003 32.0534L31.7005 31.7529C31.8006 31.2521 32.2013 30.9516 32.602 30.8514L32.9025 30.7513C36.0076 30.0501 39.213 30.0501 42.0177 30.6511C44.021 31.1519 45.9242 31.9533 47.7272 33.1553L56.2414 39.1653C56.4417 39.3656 56.7422 39.3656 57.0427 39.3656C57.4434 39.3656 57.844 39.1653 58.0444 38.8648C58.2447 38.6644 58.3449 38.3639 58.3449 38.0634C58.3449 37.6628 58.1445 37.2621 57.7439 36.9616L47.8273 29.9499C45.4233 28.2471 42.4183 27.3456 39.213 27.3456C37.8107 27.3456 36.4083 27.5459 35.1061 27.8464L34.5051 27.9466C34.1045 28.0467 33.6036 27.9466 33.3031 27.6461C33.0026 27.3456 32.9025 26.9449 33.0026 26.4441L33.203 25.7429C34.3048 21.0351 33.5035 16.4274 31.0995 13.0217L24.0878 3.10518C23.8874 2.70451 23.3866 2.50417 22.9859 2.50417C22.7856 2.50417 22.4851 2.50417 22.1846 2.80467C21.8841 3.10518 21.6838 3.40568 21.6838 3.80634C21.6838 4.10684 21.7839 4.30718 21.8841 4.60768L27.8941 13.1219C28.8958 14.6244 29.6971 16.227 30.198 18.1302C31.0995 21.1352 31.0995 24.6411 30.2981 28.0467L30.198 28.3472C30.0978 28.8481 29.6971 29.1486 29.2965 29.2487L28.996 29.3489C25.7906 30.0501 22.4851 30.0501 19.5803 29.3489C17.5769 28.8481 15.7739 28.0467 14.0711 26.8447L13.8708 26.6444L5.5569 20.8347C5.35656 20.6344 5.05606 20.6344 4.75556 20.6344C4.35489 20.6344 3.95423 20.8347 3.75389 21.1352C3.55356 21.3356 3.45339 21.6361 3.45339 21.9366C3.45339 22.3372 3.65373 22.7379 4.05439 23.0384L13.9709 30.0501C16.3749 31.7529 19.3799 32.6544 22.5853 32.6544C23.9876 32.6544 25.39 32.4541 26.6921 32.1536L27.3933 31.9533C27.4935 31.9533 27.5936 31.9533 27.6938 31.9533Z" fill="#F6F8FA"/>
<path d="M11.0662 23.2387C10.7657 23.2387 10.4652 23.1386 10.1647 22.8381C9.66385 22.3372 9.66385 21.5359 10.1647 21.0351L22.6856 8.41402C23.1864 7.91318 23.9877 7.91318 24.4886 8.41402C24.9894 8.91485 24.9894 9.71619 24.4886 10.217L11.9677 22.8381C11.6672 23.1386 11.3667 23.2387 11.0662 23.2387Z" fill="#F6F8FA"/>
<path d="M14.6717 26.7446C14.3712 26.7446 14.0707 26.6444 13.7702 26.3439C13.2693 25.8431 13.2693 25.0417 13.7702 24.5409L25.3895 13.0217C25.8904 12.5208 26.6917 12.5208 27.1925 13.0217C27.6934 13.5225 27.6934 14.3239 27.1925 14.8247L15.5732 26.4441C15.3728 26.6444 14.9722 26.7446 14.6717 26.7446Z" fill="#F6F8FA"/>
<path d="M19.9803 28.5476C19.6798 28.5476 19.3793 28.4474 19.0788 28.1469C18.5779 27.6461 18.5779 26.8447 19.0788 26.3439L27.9936 17.429C28.4944 16.9282 29.2958 16.9282 29.7966 17.429C30.2974 17.9299 30.2974 18.7312 29.7966 19.232L29.6964 19.3322L20.7816 28.2471C20.6814 28.4474 20.2808 28.5476 19.9803 28.5476Z" fill="#F6F8FA"/>
<path d="M38.8123 50.985C38.5118 50.985 38.2113 50.8848 37.9108 50.5843C37.4099 50.0835 37.4099 49.2822 37.9108 48.7813L50.4317 36.2605C50.9325 35.7596 51.7338 35.7596 52.2347 36.2605C52.7355 36.7613 52.7355 37.5626 52.2347 38.0635L39.7138 50.5843C39.4133 50.8848 39.1128 50.985 38.8123 50.985Z" fill="#F6F8FA"/>
<path d="M35.2068 47.379C34.9063 47.379 34.6058 47.2788 34.3053 46.9783C33.8045 46.4775 33.8045 45.6761 34.3053 45.1753L45.9247 33.5559C46.4255 33.0551 47.2269 33.0551 47.7277 33.5559C48.2285 34.0568 48.2285 34.8581 47.7277 35.3589L36.1083 46.9783C35.908 47.1786 35.6075 47.379 35.2068 47.379Z" fill="#F6F8FA"/>
<path d="M33.5037 42.0701C33.2032 42.0701 32.9027 41.97 32.6022 41.6695C32.1014 41.1686 32.1014 40.3673 32.6022 39.8665L40.7157 31.7529C41.2165 31.2521 42.0179 31.2521 42.5187 31.7529C43.0196 32.2538 43.0196 33.0551 42.5187 33.5559L34.4052 41.6695C34.1047 41.8698 33.8042 42.0701 33.5037 42.0701Z" fill="#F6F8FA"/>
<path d="M12.4685 46.9783C10.3649 46.9783 8.66211 45.2754 8.66211 43.1719C8.66211 41.0684 10.3649 39.3656 12.4685 39.3656C14.572 39.3656 16.2748 41.0684 16.2748 43.1719C16.2748 45.2754 14.572 46.9783 12.4685 46.9783ZM12.4685 41.9699C11.7673 41.9699 11.1663 42.5709 11.1663 43.2721C11.1663 43.9733 11.7673 44.5743 12.4685 44.5743C13.1696 44.5743 13.7706 43.9733 13.7706 43.2721C13.7706 42.5709 13.0695 41.9699 12.4685 41.9699Z" fill="#F6F8FA"/>
<path d="M51.1325 54.591C49.4297 54.591 48.0273 53.1886 48.0273 51.4858C48.0273 49.783 49.4297 48.3806 51.1325 48.3806C52.8354 48.3806 54.2377 49.783 54.2377 51.4858C54.2377 53.0885 52.8354 54.591 51.1325 54.591ZM51.1325 50.7846C50.832 50.7846 50.5315 51.0851 50.5315 51.3856C50.5315 51.6861 50.832 51.9866 51.1325 51.9866C51.433 51.9866 51.7335 51.7863 51.7335 51.3856C51.7335 51.0851 51.433 50.7846 51.1325 50.7846Z" fill="#F6F8FA"/>
<path d="M23.2868 53.2888C21.584 53.2888 20.1816 51.8865 20.1816 50.1837C20.1816 48.4808 21.584 47.0785 23.2868 47.0785C24.9897 47.0785 26.392 48.4808 26.392 50.1837C26.392 51.8865 24.9897 53.2888 23.2868 53.2888ZM23.2868 49.5827C22.9863 49.5827 22.6858 49.8832 22.6858 50.1837C22.6858 50.4842 22.9863 50.7847 23.2868 50.7847C23.5873 50.7847 23.8878 50.4842 23.8878 50.1837C23.8878 49.783 23.5873 49.5827 23.2868 49.5827Z" fill="#F6F8FA"/>
<path d="M51.7335 24.2404C48.9288 24.2404 46.625 22.0367 46.625 19.1319C46.625 16.3272 48.8287 14.0234 51.7335 14.0234C54.5382 14.0234 56.842 16.227 56.842 19.1319C56.7419 21.9366 54.5382 24.2404 51.7335 24.2404ZM51.7335 16.6277C50.3312 16.6277 49.2293 17.7296 49.2293 19.1319C49.2293 20.5342 50.3312 21.6361 51.7335 21.6361C53.1359 21.6361 54.2377 20.5342 54.2377 19.1319C54.2377 17.7296 53.1359 16.6277 51.7335 16.6277Z" fill="#F6F8FA"/>
</g>
<defs>
<clipPath id="clip0_983_6972">
<rect width="60.1002" height="60" fill="white" transform="translate(0.949219)"/>
</clipPath>
</defs>
</svg>
