<svg width="129" height="120" viewBox="0 0 129 120" fill="none" xmlns="http://www.w3.org/2000/svg">
<g clip-path="url(#clip0_2577_60892)">
<path d="M81.3856 82.2837C85.6237 76.2812 87.9523 69.0174 87.5564 61.2098C86.6948 43.7026 71.8847 29.2836 53.3022 27.6742C34.091 29.3705 19.048 44.4637 19.048 62.8626V62.9061C19.048 65.3854 18.0933 67.7995 16.3701 69.6916L9.15132 77.6296C7.73085 79.1737 8.91845 81.566 11.1074 81.566H16.4399V95.7893C16.4399 101.183 21.1205 105.554 26.8955 105.554H30.598H37.7702V118.973H73.6778V106.837C73.6778 98.1163 76.2626 89.5476 81.3856 82.2837Z" fill="white"/>
<path fill-rule="evenodd" clip-rule="evenodd" d="M10.6822 62.8836C10.6822 42.0048 29.5764 25.2217 52.2765 26.6943C71.8039 27.9446 87.4462 42.9371 88.3312 61.1658C88.7371 69.1729 86.3482 76.6268 82 82.7854C76.9888 89.8908 74.4536 98.2828 74.4536 106.815V118.95C74.4536 119.456 74.0127 119.866 73.4689 119.866C72.925 119.866 72.4841 119.456 72.4841 118.95V106.815C72.4841 97.9483 75.1185 89.2027 80.3533 81.7804L80.3536 81.78C84.4814 75.9337 86.7496 68.86 86.3639 61.2521L86.3638 61.2503C85.5246 43.9435 70.6624 29.7077 52.1408 28.522L52.1399 28.5219C30.5962 27.1241 12.6516 43.0501 12.6516 62.8836V62.9271C12.6516 65.6238 11.6138 68.2472 9.74078 70.3041M9.74031 70.3046L2.52201 78.2422L2.51838 78.2461C1.64745 79.1929 2.374 80.6709 3.72625 80.6709H9.05883C9.60268 80.6709 10.0436 81.081 10.0436 81.587V95.8102C10.0436 100.701 14.2869 104.659 19.5144 104.659H30.3891C30.933 104.659 31.3738 105.069 31.3738 105.575V118.994C31.3738 119.5 30.933 119.91 30.3891 119.91C29.8453 119.91 29.4044 119.5 29.4044 118.994V106.491H19.5144C13.1918 106.491 8.07409 101.706 8.07409 95.8102V82.503H3.72625C0.701687 82.503 -0.94688 79.1987 1.02004 77.0571C1.0207 77.0564 1.02136 77.0557 1.02202 77.055L8.23716 69.1209L8.23762 69.1204C9.81066 67.3931 10.6822 65.1887 10.6822 62.9271V62.8836" fill="#111111"/>
<path d="M26.5472 68.6035C26.5472 70.6695 25.4295 72.3441 24.0556 72.3441C22.6817 72.3441 21.564 70.6695 21.564 68.6035C21.564 66.5374 22.6817 64.8628 24.0556 64.8628C25.4295 64.8628 26.5472 66.5374 26.5472 68.6035Z" fill="#111111"/>
<path fill-rule="evenodd" clip-rule="evenodd" d="M23.1319 66.4411C22.7918 66.9513 22.5491 67.7136 22.5491 68.6035C22.5491 69.4934 22.7918 70.2556 23.1319 70.7659C23.4815 71.2904 23.8354 71.4281 24.056 71.4281C24.2765 71.4281 24.6304 71.2904 24.9801 70.7659C25.3202 70.2556 25.5629 69.4934 25.5629 68.6035C25.5629 67.7136 25.3202 66.9513 24.9801 66.4411C24.6304 65.9165 24.2765 65.7788 24.056 65.7788C23.8354 65.7788 23.4815 65.9165 23.1319 66.4411ZM21.458 65.4757C22.0107 64.6464 22.9026 63.9468 24.056 63.9468C25.2093 63.9468 26.1012 64.6464 26.6539 65.4757C27.2162 66.3192 27.5323 67.4273 27.5323 68.6035C27.5323 69.7796 27.2162 70.8877 26.6539 71.7313C26.1012 72.5606 25.2093 73.2602 24.056 73.2602C22.9026 73.2602 22.0107 72.5606 21.458 71.7313C20.8958 70.8877 20.5796 69.7796 20.5796 68.6035C20.5796 67.4273 20.8958 66.3192 21.458 65.4757Z" fill="#111111"/>
<path fill-rule="evenodd" clip-rule="evenodd" d="M119.88 3.50686C118.387 2.04434 115.916 1.98071 114.359 3.36535L114.358 3.36696L107.966 9.02329L119.235 20.1308L125.62 14.4811C125.62 14.4809 125.62 14.4806 125.62 14.4803C127.188 13.085 127.257 10.7707 125.772 9.31443L125.77 9.31275L119.88 3.50769C119.88 3.50741 119.88 3.50714 119.88 3.50686ZM112.999 2.04041C115.354 -0.0535598 119.076 0.0567621 121.309 2.24684L121.311 2.24852L127.201 8.05358C127.201 8.05386 127.201 8.05414 127.202 8.05441C129.441 10.2516 129.324 13.7211 126.981 15.8053L126.979 15.8069L119.876 22.0921C119.687 22.26 119.433 22.3507 119.171 22.3441C118.909 22.3375 118.661 22.2343 118.482 22.0571L105.86 9.61722C105.488 9.25033 105.505 8.67252 105.898 8.3248L112.998 2.0412C112.999 2.04094 112.999 2.04067 112.999 2.04041Z" fill="#111111"/>
<path d="M64.7072 71.9494L117.474 25.2345L102.408 10.3805L49.6177 57.0737" fill="#6099FF"/>
<path fill-rule="evenodd" clip-rule="evenodd" d="M102.423 9.87079C102.569 9.87448 102.708 9.93206 102.808 10.0308L117.874 24.8848C118.081 25.0893 118.072 25.4113 117.853 25.6052L65.0863 72.3201C64.8667 72.5146 64.5192 72.5066 64.3102 72.3023C64.1012 72.098 64.1098 71.7747 64.3294 71.5803L116.7 25.2159L102.387 11.1046L49.9966 57.4446C49.7769 57.6389 49.4294 57.6308 49.2205 57.4264C49.0116 57.222 49.0203 56.8987 49.24 56.7044L102.03 10.0112C102.136 9.91764 102.277 9.86711 102.423 9.87079Z" fill="#3C3C3B"/>
<path d="M49.6181 57.073L41.561 78.3209L64.7077 71.9487" fill="white"/>
<path fill-rule="evenodd" clip-rule="evenodd" d="M49.1004 56.903L50.1358 57.2427L42.4365 77.5471L64.5519 71.4588L64.8634 72.4382L40.6855 79.0943L49.1004 56.903Z" fill="#3C3C3B"/>
<path d="M45.4964 67.9902L41.561 78.3206L52.8316 75.2106" fill="#111111"/>
<path fill-rule="evenodd" clip-rule="evenodd" d="M44.9796 67.8202L46.0146 68.1614L42.4393 77.5463L52.6762 74.7215L52.9884 75.7007L40.6841 79.096L44.9796 67.8202Z" fill="#111111"/>
<path fill-rule="evenodd" clip-rule="evenodd" d="M102.433 9.46481C102.695 9.47142 102.943 9.57471 103.122 9.75186L118.189 24.6058C118.561 24.9727 118.544 25.5503 118.151 25.898L65.3845 72.613C65.2715 72.713 65.1346 72.7866 64.985 72.8278L41.8384 79.2C41.4836 79.2977 41.0999 79.2021 40.845 78.9525C40.5902 78.7029 40.5072 78.3415 40.6303 78.0169L48.6874 56.769C48.7391 56.6326 48.8248 56.5095 48.9375 56.4099L101.728 9.71667C101.917 9.54884 102.171 9.45821 102.433 9.46481ZM50.466 57.5859L43.1294 76.934L64.1986 71.1337L116.083 25.1997L102.368 11.678L50.466 57.5859Z" fill="#111111"/>
<path d="M106.46 3.88878L98.9888 10.5004L117.183 28.4343L124.655 21.8228L106.46 3.88878Z" fill="white"/>
<path fill-rule="evenodd" clip-rule="evenodd" d="M98.276 11.1308C97.9027 10.7629 97.9195 10.1819 98.3136 9.83323L105.785 3.22164C106.179 2.87295 106.801 2.88854 107.174 3.25648L125.369 21.1905C125.742 21.5584 125.725 22.1393 125.331 22.488L117.86 29.0996C117.466 29.4483 116.844 29.4327 116.471 29.0648L98.276 11.1308ZM100.379 10.5343L117.222 27.1358L123.266 21.787L106.423 5.18541L100.379 10.5343Z" fill="#111111"/>
<path fill-rule="evenodd" clip-rule="evenodd" d="M108.527 19.0591C108.9 19.4271 108.882 20.0069 108.486 20.354L58.3039 64.3721C57.9082 64.7192 57.285 64.7022 56.9118 64.3341C56.5387 63.9661 56.557 63.3863 56.9527 63.0392L107.135 19.0211C107.53 18.674 108.154 18.691 108.527 19.0591Z" fill="#111111"/>
<path fill-rule="evenodd" clip-rule="evenodd" d="M49.5086 56.0062C49.8966 55.6517 50.52 55.6569 50.9011 56.0178L65.7811 70.1106C66.1622 70.4715 66.1566 71.0515 65.7686 71.406C65.3806 71.7605 64.7571 71.7553 64.376 71.3943L49.4961 57.3016C49.115 56.9406 49.1206 56.3607 49.5086 56.0062Z" fill="#111111"/>
<path d="M91.6186 79.1329H66.9619V119.438H100.059V86.4136L91.6186 79.1329Z" fill="white"/>
<path fill-rule="evenodd" clip-rule="evenodd" d="M65.8789 79.1332C65.8789 78.5767 66.3639 78.1256 66.9621 78.1256H91.6188C91.8919 78.1256 92.155 78.2216 92.3553 78.3944L100.796 85.675C101.017 85.8657 101.143 86.1335 101.143 86.4139V119.439C101.143 119.995 100.658 120.446 100.059 120.446H66.9621C66.3639 120.446 65.8789 119.995 65.8789 119.439V79.1332ZM68.0453 80.1409V118.431H98.9762V86.8537L91.1939 80.1409H68.0453Z" fill="#111111"/>
<path d="M91.6187 86.4136H100.059L91.6187 79.1329V86.4136Z" fill="#D6D9E6"/>
<path fill-rule="evenodd" clip-rule="evenodd" d="M91.1855 78.2098C91.5803 78.0495 92.0396 78.122 92.3554 78.3944L100.796 85.6751C101.123 85.9569 101.231 86.3961 101.068 86.7819C100.905 87.1678 100.505 87.4216 100.059 87.4216H91.6189C91.0206 87.4216 90.5356 86.9704 90.5356 86.4139V79.1333C90.5356 78.7326 90.7908 78.37 91.1855 78.2098ZM92.7021 81.4418V85.4063H97.2982L92.7021 81.4418Z" fill="#111111"/>
<path fill-rule="evenodd" clip-rule="evenodd" d="M96.6316 94.4146H88.4468V92.3993H96.6316V94.4146Z" fill="#111111"/>
<path fill-rule="evenodd" clip-rule="evenodd" d="M96.6316 104.455H88.4468V102.44H96.6316V104.455Z" fill="#111111"/>
<path fill-rule="evenodd" clip-rule="evenodd" d="M95.6086 114.354H71.0542V112.339H95.6086V114.354Z" fill="#111111"/>
<path d="M84.9171 93.3601H71.668V108.255H84.9171V93.3601Z" fill="#6099FF"/>
<path fill-rule="evenodd" clip-rule="evenodd" d="M70.585 93.3604C70.585 92.8039 71.0699 92.3528 71.6682 92.3528H84.9173C85.5155 92.3528 86.0005 92.8039 86.0005 93.3604V108.255C86.0005 108.811 85.5155 109.262 84.9173 109.262H71.6682C71.0699 109.262 70.585 108.811 70.585 108.255V93.3604ZM72.7514 94.3681V107.247H83.8341V94.3681H72.7514Z" fill="#111111"/>
<path fill-rule="evenodd" clip-rule="evenodd" d="M81.8484 87.4226H71.0547V85.4073H81.8484V87.4226Z" fill="#111111"/>
<path d="M26.7417 24.1071V19.1572L30.487 18.6241C30.8176 17.3256 31.3704 16.085 32.1243 14.9497L29.9139 12.1321L33.6592 8.62903L36.7087 10.7042C37.9337 10.0113 39.2659 9.49767 40.6586 9.18114L41.2317 5.71619H46.4505L47.044 9.18114C48.4315 9.49425 49.7575 10.0082 50.9735 10.7042L54.023 8.62903L57.7887 12.1321L55.5579 14.9497C56.3027 16.0893 56.8549 17.3285 57.1952 18.6241L60.92 19.1572V24.1071L57.1952 24.6402C56.8549 25.9357 56.3027 27.175 55.5579 28.3145L57.7887 31.1512L54.0844 34.7114L51.0349 32.6362C49.8276 33.3478 48.4987 33.8628 47.1054 34.1593L46.4505 37.5481H41.2112L40.6382 34.0831C39.2397 33.7831 37.9047 33.2684 36.6882 32.5601L33.6388 34.7114L29.8935 31.2274L32.1243 28.3145C31.3775 27.1781 30.8317 25.9375 30.5075 24.6402L26.7417 24.1071Z" fill="#9099B6"/>
<path fill-rule="evenodd" clip-rule="evenodd" d="M40.0396 5.545C40.1301 4.99816 40.6359 4.59448 41.2307 4.59448H46.4495C47.0418 4.59448 47.5463 4.99492 47.6395 5.53906L48.1106 8.2891C49.0756 8.55965 50.0085 8.92098 50.8947 9.36748L53.3105 7.72357C53.7901 7.39719 54.4539 7.44477 54.874 7.83565L58.6398 11.3387C59.061 11.7305 59.1113 12.3499 58.758 12.7961L56.9922 15.0265C57.4701 15.855 57.8581 16.7258 58.1503 17.626L61.1023 18.0485C61.6901 18.1326 62.1241 18.6031 62.1241 19.1564V24.1064C62.1241 24.6596 61.6901 25.1302 61.1023 25.2143L58.1503 25.6368C57.8578 26.5378 57.4694 27.4094 56.9908 28.2386L58.7603 30.4886C59.1068 30.9292 59.0617 31.5379 58.6536 31.9301L54.9492 35.4903C54.5308 35.8924 53.8575 35.9458 53.3719 35.6154L50.9634 33.9764C50.0729 34.4337 49.1307 34.798 48.1541 35.0626L47.6355 37.7457C47.5323 38.2797 47.0328 38.6683 46.4495 38.6683H41.2102C40.6154 38.6683 40.1096 38.2646 40.0192 37.7178L39.5664 34.98C38.597 34.7155 37.6608 34.3551 36.7741 33.9049L34.3659 35.6038C33.8862 35.9423 33.2114 35.8994 32.7857 35.5033L29.0404 32.0193C28.6242 31.6322 28.5695 31.0221 28.911 30.5762L30.6939 28.2482C30.2136 27.4173 29.8277 26.5421 29.5426 25.6369L26.5594 25.2146C25.9707 25.1312 25.5356 24.6603 25.5356 24.1064V19.1564C25.5356 18.6028 25.9701 18.1321 26.5584 18.0483L29.5253 17.6261C29.8141 16.7221 30.2034 15.8486 30.687 15.0197L28.9395 12.7921C28.5903 12.3469 28.6407 11.7316 29.0585 11.3408L32.8038 7.83781C33.2237 7.44505 33.8891 7.39651 34.3697 7.72357L36.7885 9.36958C37.6799 8.92439 38.6169 8.56309 39.5855 8.29104L40.0396 5.545ZM42.2645 6.83642L41.8486 9.35086C41.7745 9.79914 41.4173 10.1617 40.9436 10.2693C39.6708 10.5586 38.4533 11.0281 37.3337 11.6613C36.9173 11.8968 36.3895 11.8758 35.9962 11.6082L33.7824 10.1017L31.4926 12.2434L33.0967 14.2882C33.3855 14.6563 33.4059 15.1504 33.1485 15.5381C32.4624 16.5712 31.9594 17.7001 31.6586 18.8817C31.5454 19.3262 31.1536 19.6623 30.6682 19.7314L27.9457 20.1189V23.1431L30.6877 23.5312C31.1753 23.6002 31.5685 23.9387 31.6802 24.3856C31.9752 25.5662 32.4719 26.695 33.1514 27.7292C33.4033 28.1124 33.3849 28.5984 33.1047 28.9642L31.4655 31.1046L33.7468 33.2268L35.959 31.6662C36.3579 31.3848 36.9022 31.3621 37.3266 31.6091C38.4296 32.2514 39.6399 32.7181 40.9079 32.9901C41.3886 33.0932 41.7532 33.4584 41.8282 33.9119L42.244 36.4264H45.4418L45.9184 33.9602C46.0039 33.518 46.3649 33.166 46.8357 33.0658C48.0956 32.7977 49.2972 32.332 50.389 31.6885C50.8075 31.4419 51.3456 31.4587 51.7454 31.7307L53.9476 33.2293L56.2154 31.0498L54.5843 28.9756C54.2966 28.6098 54.2741 28.1188 54.5272 27.7314C55.2079 26.69 55.7126 25.5574 56.0236 24.3734C56.1393 23.9328 56.5291 23.6005 57.011 23.5315L59.714 23.1447V20.1181L57.011 19.7313C56.5291 19.6623 56.1393 19.33 56.0236 18.8894C55.7126 17.7054 55.2079 16.5728 54.5272 15.5313C54.2734 15.1429 54.2968 14.6503 54.5866 14.2842L56.2031 12.2425L53.9 10.1002L51.684 11.6082C51.2888 11.8771 50.758 11.8969 50.341 11.6582C49.2325 11.0237 48.0238 10.5552 46.7589 10.2698C46.2867 10.1632 45.9295 9.8032 45.853 9.3568L45.4213 6.83642H42.2645Z" fill="#111111"/>
<path d="M35.7656 21.6313C35.7656 20.1251 36.2458 18.6528 37.1453 17.4005C38.0448 16.1481 39.3234 15.1721 40.8192 14.5957C42.3151 14.0193 43.9611 13.8685 45.5492 14.1623C47.1372 14.4562 48.5958 15.1814 49.7407 16.2465C50.8856 17.3115 51.6653 18.6684 51.9812 20.1456C52.2971 21.6228 52.1349 23.154 51.5153 24.5455C50.8957 25.937 49.8464 27.1264 48.5002 27.9632C47.1539 28.7999 45.5712 29.2466 43.9521 29.2466C41.7809 29.2466 39.6986 28.4442 38.1634 27.0161C36.6281 25.588 35.7656 23.651 35.7656 21.6313Z" fill="white"/>
</g>
<defs>
<clipPath id="clip0_2577_60892">
<rect width="129" height="120" fill="white"/>
</clipPath>
</defs>
</svg>
