<svg width="52" height="31" viewBox="0 0 52 31" fill="none" xmlns="http://www.w3.org/2000/svg">
<g clip-path="url(#clip0_966_18536)">
<path d="M45.943 16.9865C47.5861 15.8214 48.6815 13.9121 48.6815 11.7438C48.6815 8.21627 45.8463 5.36837 42.3345 5.36837C38.8228 5.36837 35.9876 8.21627 35.9876 11.7438C35.9876 13.9121 37.083 15.8214 38.7261 16.9865C37.6629 17.4072 36.6641 18.0545 35.8265 18.8312C34.3444 16.5658 32.3147 15.0124 29.995 14.171C32.1536 12.8117 33.6034 10.4169 33.6034 7.66611C33.5712 3.45899 30.1561 0.0285645 25.9677 0.0285645C21.7794 0.0285645 18.3321 3.45899 18.3321 7.69847C18.3321 10.4493 19.7819 12.8441 21.9405 14.2033C19.6208 15.0447 17.591 16.5981 16.109 18.8635C15.2391 18.0545 14.2726 17.4396 13.2094 17.0189C14.8525 15.8538 15.9479 13.9444 15.9479 11.7761C15.9479 8.24863 13.1127 5.40073 9.60095 5.40073C6.08917 5.40073 3.25398 8.24863 3.25398 11.7761C3.25398 13.9444 4.3494 15.8538 5.99252 17.0189C1.99748 18.6046 -1.19211 22.7794 0.451008 29.3166C0.547663 29.7373 0.93428 30.0286 1.35311 30.0286C11.9851 30.0286 40.1115 30.0286 50.5824 30.0286C51.4522 30.0286 51.5167 29.1871 51.71 28.3457C52.9021 23.5561 50.3246 18.7664 45.943 16.9865ZM37.824 11.7761C37.824 9.28423 39.8537 7.24539 42.3023 7.24539C44.7509 7.24539 46.8128 9.28423 46.8128 11.7761C46.8128 14.268 44.7831 16.3069 42.3023 16.3069C39.8215 16.3069 37.824 14.268 37.824 11.7761ZM20.1685 7.69847C20.1685 4.49458 22.7459 1.90559 25.9355 1.90559C29.1251 1.90559 31.7026 4.49458 31.7026 7.69847C31.7026 10.9024 29.1251 13.4913 25.9355 13.4913C22.7459 13.4913 20.1685 10.87 20.1685 7.69847ZM25.9677 15.336C31.8959 15.336 37.2763 20.6758 35.4399 28.1515H16.4634C14.6592 20.8053 19.9752 15.336 25.9677 15.336ZM5.09041 11.7761C5.09041 9.28423 7.12015 7.24539 9.60095 7.24539C12.0817 7.24539 14.1115 9.28423 14.1115 11.7761C14.1115 14.268 12.0817 16.3069 9.60095 16.3069C7.12015 16.3069 5.09041 14.268 5.09041 11.7761ZM9.60095 18.1515C11.7273 18.1515 13.7249 19.0253 15.2069 20.5464C14.1759 22.8765 13.9182 25.4978 14.5625 28.1839H2.06191C0.676535 22.5528 4.80045 18.1515 9.60095 18.1515ZM49.8413 28.1839H37.3407C37.3407 28.1515 37.3407 28.1515 37.3407 28.1515C37.9529 25.692 37.7918 23.0383 36.6964 20.5464C38.1784 19.0253 40.1759 18.1515 42.3023 18.1515C47.135 18.1515 51.2267 22.5852 49.8413 28.1839Z" fill="#114493"/>
</g>
<defs>
<clipPath id="clip0_966_18536">
<rect width="52" height="30" fill="white" transform="translate(0 0.0285645)"/>
</clipPath>
</defs>
</svg>
