<svg width="180" height="116" viewBox="0 0 180 116" fill="none" xmlns="http://www.w3.org/2000/svg">
<path d="M114.843 72.4609H114.848C115.196 72.4609 115.477 72.74 115.48 73.0875L115.693 100.949L127.938 109.136C131.358 111.422 135.454 112.188 139.469 111.295C143.471 110.404 146.844 107.983 148.971 104.481L167.903 62.0887C167.913 62.0642 167.926 62.0422 167.94 62.0201C168.3 61.4254 168.389 60.7303 168.193 60.0622C167.997 59.3965 167.543 58.8605 166.919 58.5521L166.635 58.4126C166.598 58.393 166.561 58.3735 166.529 58.349C164.69 59.0465 162.75 59.4014 160.814 59.4014C158.989 59.4014 157.169 59.0881 155.442 58.4542C154.242 58.0137 153.052 57.4336 151.905 56.7312C147.871 54.2569 145.059 50.9332 143.863 47.3282C142.878 47.1152 141.857 47.5239 141.296 48.3854L125.023 78.8488C124.908 79.0617 124.69 79.1841 124.465 79.1841C124.364 79.1841 124.261 79.1596 124.168 79.1106C123.86 78.9467 123.745 78.5624 123.909 78.254L131.309 64.3991L125.609 59.2668C121.109 55.2163 116.009 51.9416 110.448 49.5358C104.89 47.1299 99.0111 45.6541 92.9728 45.145L81.3838 44.171C78.1895 46.1216 74.0962 46.8191 69.5302 46.1876C66.5245 45.7716 64.2464 44.9223 63.6046 44.6653C62.6958 44.8244 58.4188 45.588 53.0174 46.7775C47.7949 47.9253 41.2741 50.2161 36.2695 52.6097H47.9149C48.1795 52.6097 48.4171 52.7762 48.5077 53.0234L48.9732 54.2887H65.53C65.819 54.2887 66.0713 54.4845 66.1424 54.7635L69.1235 66.3741C69.6747 66.2053 70.167 66.0535 70.5688 65.9287C71.8622 65.5273 73.2413 65.9752 74.0007 67.0472C75.0368 68.5083 74.4588 70.2485 74.0203 71.1589C74.6278 71.5187 75.5121 72.1966 75.9971 73.3053C76.4454 74.3259 76.465 75.4786 76.0583 76.7391C76.6707 77.1013 77.6334 77.8282 78.1135 79.0323C78.5202 80.0529 78.5006 81.1885 78.0548 82.4122C78.5667 82.6986 79.2526 83.2272 79.5858 84.1255C80.6758 87.0624 78.0229 90.2196 75.7889 91.5216C75.5537 91.6587 75.3038 91.7933 75.0393 91.9279L80.4333 114.342C80.4774 114.53 80.4333 114.728 80.3157 114.88C80.301 114.897 80.2863 114.914 80.2716 114.929H114.532L114.213 73.0997C114.211 72.7497 114.492 72.4658 114.84 72.4634L114.843 72.4609Z" fill="#6099FF"/>
<path d="M51.529 68.8412L12.5755 83.9737C12.2497 84.101 11.8823 83.9395 11.7573 83.614C11.63 83.2885 11.7916 82.9213 12.1174 82.7965L22.7683 78.6604C21.7443 74.2354 20.7522 70.0967 19.8875 66.5602L5.07728 85.1975C1.53026 89.6591 0.376503 95.5869 1.98589 101.052C3.38706 105.807 6.60828 109.633 11.0543 111.826C15.5028 114.019 20.4999 114.246 25.1297 112.464L63.9999 97.5057L51.5265 68.8436L51.529 68.8412Z" fill="#6099FF"/>
<path d="M64.255 94.9163L65.4259 97.6036C65.4945 97.7627 65.497 97.9414 65.4284 98.1004C65.3622 98.2595 65.2324 98.3844 65.0732 98.4455L31.6484 111.307L32.3907 113.85H79.0187L73.8721 92.4664C70.9816 93.7122 67.0966 94.7181 64.2526 94.9139L64.255 94.9163Z" fill="black"/>
<path d="M32.0867 57.0911L31.5183 55.5492H18.4375C19.1234 58.2169 21.4432 67.3238 23.9589 78.1954L51.6369 67.4438C51.9529 67.3214 52.3105 67.4707 52.4477 67.7815L53.7876 70.8628C54.0742 70.4737 54.378 70.087 54.7038 69.7003C56.9059 67.0987 61.6631 63.6037 65.3522 63.9782C66.1067 64.054 66.7876 64.2939 67.3829 64.6806L65.0386 55.5492H49.4371L49.8438 56.6554C49.9148 56.8488 49.8879 57.0666 49.7679 57.2355C49.6503 57.4044 49.4567 57.5047 49.2485 57.5047H32.6795C32.4149 57.5047 32.1773 57.3383 32.0867 57.0911Z" fill="black"/>
<path d="M63.146 68.1364C64.628 67.7203 66.2766 67.2333 67.7268 66.7952C67.1193 65.8578 66.2986 65.3438 65.2257 65.2362C63.4498 65.055 61.4386 66.0096 60.0644 66.8417C58.4207 67.8354 56.7771 69.2108 55.6723 70.5178C55.1946 71.0807 54.7708 71.6387 54.3789 72.2163L63.7192 93.6804C67.0776 93.5604 72.332 92.0724 75.1564 90.4252C76.9544 89.3753 79.2301 86.7859 78.4045 84.5587C78.0689 83.6581 77.0671 83.3375 77.0573 83.335C76.8833 83.2812 76.7388 83.1539 76.6629 82.9875C76.5894 82.821 76.5894 82.6301 76.6629 82.4637C77.1822 81.3428 77.2777 80.3491 76.9446 79.5023C76.4326 78.2027 75.051 77.63 75.0388 77.6227C74.882 77.559 74.7571 77.4367 74.6934 77.2825C74.6273 77.1283 74.6273 76.9521 74.691 76.7979C75.1588 75.6574 75.2103 74.6539 74.8453 73.8169C74.2917 72.5442 72.9419 72.018 72.9272 72.0131C72.746 71.9446 72.6064 71.7978 72.5476 71.6142C72.4888 71.4306 72.5157 71.23 72.6235 71.0709C72.6357 71.0537 73.9095 69.0982 72.9689 67.7717C72.5329 67.1598 71.7025 66.8955 70.9455 67.1305C69.2969 67.6444 66.1345 68.6136 63.4889 69.3552C63.1509 69.4507 62.8031 69.2524 62.71 68.9171C62.6145 68.5818 62.8129 68.2318 63.1485 68.1388L63.146 68.1364Z" fill="white"/>
<path d="M33.6218 53.8682H32.25L33.122 56.2397H48.3414L47.4693 53.8682H33.6267H33.6218Z" fill="white"/>
<path d="M62.4738 30.2036C62.3709 30.2036 62.2656 30.2012 62.1627 30.1938C59.4388 30.0225 57.3615 27.6705 57.533 24.9489C57.7044 22.2274 60.0585 20.1519 62.7824 20.3233C63.1915 20.3477 63.5908 20.4261 63.9754 20.546L64.0048 18.8108C64.0073 18.637 64.0832 18.4706 64.213 18.3531C64.3428 18.2356 64.5143 18.1769 64.6882 18.1916C64.7274 18.194 68.6688 18.4975 72.887 17.5601C78.4084 16.334 81.7742 13.676 82.8936 9.65977C82.9402 9.4909 83.0553 9.34896 83.2096 9.26819C83.3639 9.18742 83.5452 9.17518 83.7118 9.23147C83.8833 9.29021 87.445 10.5849 89.4683 15.1445C90.066 11.5247 89.5002 8.66365 87.7781 6.61759C86.7419 5.38653 84.6867 3.78835 80.787 3.15935C78.4157 2.77755 76.4953 2.94156 76.4757 2.94156C76.3948 2.9489 76.3116 2.94153 76.2332 2.91461C73.5019 2.07024 70.4227 1.97236 67.0839 2.62828C63.1646 3.39677 59.6837 4.94356 57.021 7.09731C54.0398 9.50559 52.1463 12.5796 51.3918 16.2287C50.5173 20.4603 51.3183 25.1007 53.6504 29.298C55.8305 33.2262 59.135 36.4421 62.9907 38.4074C62.9319 34.7656 62.8461 31.557 62.8045 30.1914C62.6967 30.1987 62.5889 30.2036 62.4787 30.2036H62.4738Z" fill="black"/>
<path d="M75.0495 40.0864C85.0806 38.4564 90.9669 34.4597 89.3184 19.5964C89.2449 18.9282 89.1346 18.2601 88.995 17.6066C87.8069 13.2135 85.1002 11.3412 83.89 10.7024C82.4595 14.7676 78.7582 17.5601 73.129 18.8034C69.7339 19.5523 66.591 19.5401 65.256 19.4912L65.2217 21.503C65.2168 21.848 64.9326 22.1246 64.5897 22.1246C64.5872 22.1246 64.5823 22.1246 64.5799 22.1246C64.477 22.1246 64.3815 22.0977 64.2982 22.0536C64.2688 22.0438 64.2369 22.0316 64.21 22.0145C63.7421 21.7648 63.2375 21.6204 62.7035 21.5886C60.6777 21.4613 58.9238 23.0057 58.7964 25.0322C58.669 27.0587 60.2147 28.8086 62.243 28.9358C62.5908 28.9579 62.9386 28.931 63.2742 28.8551C63.2816 28.8551 63.289 28.8551 63.2963 28.8526C63.3086 28.8526 63.3208 28.8477 63.333 28.8453C63.3453 28.8453 63.3575 28.8453 63.3698 28.8428C63.3771 28.8428 63.3845 28.8428 63.3918 28.8428C63.3918 28.8428 63.3943 28.8428 63.3967 28.8428C63.409 28.8428 63.4212 28.8428 63.4335 28.8428C63.4433 28.8428 63.4531 28.8428 63.4629 28.8428C63.4678 28.8428 63.4751 28.8428 63.48 28.8428C63.6858 28.8649 63.8622 28.9848 63.9626 29.1561C63.9626 29.1561 63.9626 29.1561 63.9626 29.1586C63.9724 29.1757 63.9822 29.1928 63.9895 29.2099V29.2148C63.9969 29.232 64.0042 29.2491 64.0091 29.2687C64.0091 29.2711 64.0091 29.2736 64.0116 29.2785C64.0165 29.2956 64.0214 29.3127 64.0263 29.3299C64.0263 29.3299 64.0263 29.3299 64.0263 29.3323C64.0263 29.3372 64.0263 29.3421 64.0287 29.3494C64.0312 29.3641 64.0336 29.3764 64.0361 29.3911C64.0361 29.4033 64.0361 29.4155 64.0385 29.4253C64.0385 29.4327 64.0385 29.44 64.0385 29.4498C64.0385 29.4498 64.0385 29.4547 64.0385 29.4596C64.0483 29.7729 64.2737 37.0001 64.2982 43.5764C66.1354 44.2642 74.246 46.9319 80.5782 43.1726L80.4998 40.1011C78.9713 40.6077 77.232 41.014 75.2479 41.337C75.2136 41.3419 75.1793 41.3444 75.145 41.3444C74.8413 41.3444 74.5718 41.1241 74.5203 40.8133C74.464 40.4682 74.6992 40.1427 75.0446 40.0888L75.0495 40.0864ZM64.5627 25.6244C64.4549 25.8521 64.2271 25.9867 63.9895 25.9867C63.8989 25.9867 63.8058 25.9671 63.7176 25.9255C62.5051 25.3503 61.1676 25.4091 61.1554 25.4091C60.8075 25.4262 60.5087 25.157 60.4915 24.8095C60.4744 24.4619 60.7414 24.1658 61.0892 24.1462C61.1554 24.1437 62.75 24.0679 64.259 24.7825C64.575 24.9318 64.7097 25.3087 64.5603 25.6244H64.5627ZM84.9017 20.6684C85.6685 20.6268 86.3249 21.2117 86.369 21.9802C86.4107 22.7462 85.8252 23.4022 85.0561 23.4462C84.2893 23.4878 83.6328 22.9029 83.5888 22.1344C83.5471 21.3683 84.1326 20.7124 84.9017 20.6684ZM79.6277 25.1203C80.0907 24.6846 81.2592 24.0948 82.3762 24.993C82.6481 25.2133 82.6922 25.6098 82.4717 25.8814C82.2513 26.1531 81.8544 26.1972 81.5825 25.9769C81.0853 25.5755 80.6223 25.9279 80.4925 26.0429C80.37 26.158 80.2157 26.2143 80.0613 26.2143C79.8923 26.2143 79.7257 26.1482 79.6008 26.016C79.3607 25.7615 79.3754 25.3601 79.6277 25.1203ZM77.0091 27.1639C77.0851 27.2324 78.7263 28.7156 81.1686 27.5188C81.4821 27.3646 81.8618 27.4943 82.0161 27.8076C82.1704 28.1208 82.0406 28.5002 81.7271 28.6544C80.8281 29.0949 80.0074 29.2564 79.2872 29.2564C77.3962 29.2564 76.2057 28.1453 76.1371 28.0817C75.8848 27.8394 75.875 27.4404 76.1175 27.1884C76.3575 26.9363 76.7568 26.9265 77.0091 27.1663V27.1639ZM73.6654 22.3375C73.6238 21.5715 74.2092 20.9156 74.9784 20.8715C75.7451 20.8299 76.4016 21.4149 76.4457 22.1834C76.4874 22.9494 75.9019 23.6053 75.1327 23.6494C74.366 23.691 73.7095 23.106 73.6654 22.3375Z" fill="white"/>
<path d="M178.407 48.4807C177.837 47.509 176.573 47.1664 175.59 47.7171C175.568 47.7293 175.544 47.7416 175.519 47.7513L169.608 50.1498C169.285 50.282 168.915 50.1254 168.783 49.8023C168.651 49.4792 168.807 49.1097 169.131 48.9775L175.007 46.5913C175.189 46.4934 175.375 46.415 175.566 46.3514L177.673 45.184C178.204 44.8462 178.569 44.298 178.677 43.6788C178.785 43.0522 178.618 42.4086 178.224 41.9117C177.57 41.0894 176.411 40.8349 175.473 41.3072C175.456 41.317 175.436 41.3244 175.419 41.3317L165.89 45.0543C165.564 45.1815 165.197 45.02 165.069 44.6945C164.942 44.369 165.104 44.0019 165.429 43.8746L174.931 40.1643C175.262 40.0003 175.612 39.895 175.965 39.8436C175.995 39.7947 176.029 39.7482 176.073 39.709C176.803 39.0311 176.918 37.9077 176.345 37.0927C175.774 36.2851 174.716 36.0134 173.829 36.4466C173.814 36.4539 173.8 36.4613 173.783 36.4662L163.012 40.7051C162.686 40.8324 162.318 40.6733 162.191 40.3478C162.064 40.0223 162.223 39.6552 162.549 39.5279L169.939 36.6204C170.346 35.9914 170.351 35.1788 169.954 34.545C169.425 33.703 168.354 33.402 167.465 33.8425C167.446 33.8523 167.423 33.8621 167.404 33.8695L152.111 39.5059C152.111 39.5059 152.109 39.5059 152.106 39.5059C152.089 39.5108 152.072 39.5181 152.055 39.523C152.04 39.5279 152.025 39.5304 152.011 39.5328C152.006 39.5328 152.001 39.5328 151.996 39.5353C151.964 39.5402 151.932 39.5426 151.9 39.5426C151.898 39.5426 151.895 39.5426 151.891 39.5426C151.886 39.5426 151.886 39.5426 151.881 39.5426C151.851 39.5426 151.824 39.5426 151.795 39.5353C151.795 39.5353 151.79 39.5353 151.788 39.5353C151.761 39.5304 151.734 39.5255 151.709 39.5181C151.704 39.5181 151.699 39.5157 151.695 39.5132C151.668 39.5035 151.641 39.4937 151.616 39.4814C151.611 39.4814 151.609 39.4765 151.604 39.4741C151.582 39.4618 151.56 39.4496 151.538 39.4374C151.533 39.4349 151.53 39.4325 151.526 39.43C151.504 39.4154 151.481 39.3982 151.462 39.3787C151.457 39.3738 151.452 39.3688 151.447 39.3664C151.428 39.3493 151.41 39.3297 151.393 39.3077C151.393 39.3077 151.388 39.3028 151.388 39.3003C151.371 39.2783 151.354 39.2538 151.339 39.2293C151.337 39.2244 151.335 39.2196 151.33 39.2122C151.315 39.1853 151.303 39.1584 151.293 39.1315C151.288 39.1192 151.286 39.1094 151.283 39.0972C151.283 39.0898 151.278 39.0825 151.276 39.0751C151.276 39.0751 151.276 39.0752 151.276 39.0703C151.222 38.872 149.701 33.3971 146.842 32.3741C145.534 31.9066 144.142 32.2615 143.3 33.2772C142.56 34.1705 142.92 35.4529 143.268 36.6938C143.356 37.0095 143.439 37.3057 143.503 37.592C144.091 40.2597 144.299 41.3635 144.515 44.2148C144.576 45.0102 144.725 45.8032 144.958 46.5815C144.968 46.6084 144.975 46.6353 144.983 46.6622C146.031 50.0862 148.694 53.2703 152.572 55.6492C153.647 56.3076 154.759 56.8509 155.883 57.2621C159.678 58.6522 163.957 58.3659 167.627 56.4765L177.861 51.2022C178.719 50.5659 178.959 49.4009 178.415 48.4758L178.407 48.4807ZM166.5 50.6834C166.387 50.9012 166.167 51.026 165.937 51.026C165.839 51.026 165.741 51.004 165.647 50.955C165.572 50.9159 160.288 48.2653 155.658 49.8463C155.327 49.9589 154.967 49.7827 154.855 49.4523C154.742 49.1219 154.918 48.7621 155.249 48.6496C160.405 46.8899 165.99 49.7093 166.226 49.8317C166.537 49.9908 166.659 50.3725 166.5 50.6834Z" fill="white"/>
<path d="M74.0793 25.3575C74.1479 27.0145 72.8594 28.4144 71.2011 28.4829C69.5427 28.5515 68.1415 27.2641 68.0729 25.6072C68.0043 23.9503 69.2928 22.5503 70.9512 22.4818C72.6096 22.4133 74.0108 23.7006 74.0793 25.3575Z" fill="#FFD0D2"/>
<path d="M64.2644 24.7824C62.7554 24.0678 61.1607 24.1412 61.0946 24.1461C60.7467 24.1632 60.4797 24.4618 60.4969 24.8093C60.514 25.1569 60.8129 25.4261 61.1607 25.4089C61.173 25.4089 62.5129 25.3502 63.723 25.9254C63.8112 25.967 63.9018 25.9865 63.9949 25.9865C64.2325 25.9865 64.4579 25.8519 64.5681 25.6243C64.7175 25.3086 64.5828 24.9317 64.2668 24.7824H64.2644Z" fill="black"/>
<path d="M76.1369 28.0791C76.2055 28.1428 77.396 29.2539 79.2871 29.2539C80.0073 29.2539 80.8279 29.0924 81.7269 28.6518C82.0405 28.4976 82.1703 28.1183 82.016 27.805C81.8616 27.4917 81.4819 27.362 81.1684 27.5162C78.7286 28.713 77.0849 27.2323 77.009 27.1613C76.7567 26.9215 76.3574 26.9313 76.1173 27.1833C75.8748 27.4354 75.8846 27.8368 76.1369 28.0767V28.0791Z" fill="black"/>
<path d="M80.0626 26.2163C80.2169 26.2163 80.3712 26.1599 80.4937 26.0449C80.6235 25.9274 81.0865 25.5775 81.5838 25.9789C81.8557 26.1991 82.255 26.1551 82.473 25.8834C82.6934 25.6117 82.6494 25.2128 82.3775 24.995C81.2629 24.0968 80.092 24.6866 79.629 25.1223C79.3742 25.3621 79.362 25.7635 79.6021 26.018C79.727 26.1502 79.896 26.2163 80.0626 26.2163Z" fill="black"/>
<path d="M75.1335 23.6495C75.9002 23.6079 76.4881 22.9519 76.4464 22.1834C76.4048 21.4174 75.7483 20.83 74.9791 20.8716C74.2124 20.9132 73.6245 21.5691 73.6661 22.3376C73.7078 23.1037 74.3643 23.6911 75.1335 23.6495Z" fill="black"/>
<path d="M85.0592 23.4459C85.826 23.4043 86.4139 22.7484 86.3722 21.9799C86.3306 21.2138 85.6741 20.6264 84.9049 20.668C84.1357 20.7096 83.5503 21.3656 83.5919 22.1341C83.6336 22.9001 84.2901 23.4875 85.0592 23.4459Z" fill="black"/>
<path d="M178.331 46.2657C179.173 45.7371 179.754 44.8731 179.923 43.8942C180.092 42.9152 179.832 41.9044 179.212 41.1285C178.759 40.5583 178.149 40.1618 177.486 39.9636C178.154 38.8769 178.14 37.4549 177.375 36.3683C176.452 35.0564 174.737 34.6135 173.292 35.3036L171.474 36.0183C171.575 35.2865 171.425 34.5253 171.019 33.8792C170.149 32.4964 168.398 31.9947 166.928 32.6996L152.296 38.0937C151.76 36.4368 150.138 32.2174 147.262 31.1895C145.447 30.5409 143.507 31.0451 142.319 32.4768C141.156 33.8792 141.668 35.7075 142.042 37.0413C142.126 37.3375 142.204 37.6189 142.26 37.871C142.834 40.4751 143.037 41.5495 143.248 44.3176C143.292 44.8854 143.375 45.4507 143.497 46.0088C142.202 45.9525 140.942 46.5815 140.212 47.7244C140.203 47.7391 140.195 47.7513 140.188 47.766L131.918 63.2461L126.451 58.3243C121.848 54.1808 116.633 50.8327 110.947 48.373C105.262 45.9133 99.2503 44.4032 93.0749 43.8819L81.841 42.9372L81.7578 39.643C84.1927 38.6713 86.0274 37.3938 87.4335 35.727C90.3754 32.2394 91.4018 26.9187 90.5739 19.454C90.5004 18.7883 90.3926 18.1226 90.2554 17.4716C91.5586 12.4715 91.0491 8.54575 88.7391 5.80217C84.9226 1.2695 77.5763 1.59501 76.4813 1.67088C73.5761 0.797144 70.3304 0.701686 66.8299 1.38697C62.7097 2.19707 59.0378 3.82953 56.2134 6.11299C52.9995 8.70973 50.9565 12.0285 50.1408 15.9713C49.2051 20.4991 50.0551 25.4478 52.5316 29.9095C54.9224 34.2145 58.5944 37.7144 62.8738 39.7653C62.9155 39.7849 62.9571 39.7996 62.9987 39.8094C63.0134 41.0208 63.0257 42.2568 63.0306 43.4732C61.6417 43.7204 57.6513 44.4522 52.735 45.5339C46.5056 46.9045 38.7869 49.7362 33.4591 52.5997H31.3353C31.1295 52.5997 30.9335 52.7001 30.816 52.8689C30.6984 53.0378 30.669 53.2556 30.74 53.449L31.0462 54.2787H17.6126C17.4167 54.2787 17.2329 54.3692 17.1129 54.5234C16.9929 54.6776 16.9512 54.8807 17.0002 55.0692C17.0174 55.1328 18.0315 59.034 19.4988 64.996L4.07861 84.3993C0.276834 89.1841 -0.962654 95.5376 0.764311 101.397C2.24387 106.419 5.78843 110.631 10.4868 112.949C13.098 114.236 15.9567 114.885 18.8203 114.885C21.1106 114.885 23.4059 114.469 25.5787 113.634L30.4559 111.757L31.301 114.652C31.3304 114.755 31.3843 114.843 31.4553 114.916C31.5704 115.036 31.7346 115.107 31.9085 115.107H79.8152C79.9867 115.107 80.1508 115.039 80.2684 114.916C80.2831 114.902 80.2978 114.885 80.3125 114.868C80.4325 114.716 80.4766 114.518 80.4301 114.329L75.0361 91.9154C75.3006 91.7808 75.5505 91.6462 75.7856 91.5092C78.0197 90.2047 80.6726 87.0499 79.5825 84.113C79.2494 83.2148 78.5635 82.6861 78.0515 82.3998C78.4974 81.1736 78.5194 80.0404 78.1103 79.0199C77.6302 77.8157 76.6675 77.0864 76.0551 76.7266C76.4617 75.4662 76.4421 74.3134 75.9939 73.2928C75.5064 72.1841 74.6245 71.5062 74.017 71.1464C74.4555 70.236 75.0336 68.4959 73.9974 67.0347C73.2381 65.9652 71.8589 65.5149 70.5655 65.9162C70.1638 66.0411 69.6715 66.1928 69.1203 66.3617L66.1391 54.751C66.0681 54.472 65.8158 54.2762 65.5267 54.2762H48.9699L48.5045 53.0109C48.4139 52.7612 48.1762 52.5973 47.9117 52.5973H36.2663C41.2708 50.2037 47.7917 47.9153 53.0142 46.765C58.4131 45.578 62.6926 44.8119 63.6014 44.6529C64.2431 44.9098 66.5237 45.7591 69.5269 46.1752C74.0954 46.8066 78.1887 46.1091 81.3805 44.1585L92.9696 45.1325C99.0054 45.6416 104.884 47.1174 110.445 49.5233C116.003 51.9291 121.106 55.2038 125.606 59.2543L131.306 64.3866L123.906 78.2416C123.741 78.5499 123.857 78.9317 124.165 79.0982C124.261 79.1496 124.361 79.1716 124.462 79.1716C124.687 79.1716 124.907 79.0492 125.02 78.8363L141.293 48.373C141.854 47.5115 142.875 47.1028 143.86 47.3157C145.058 50.9208 147.867 54.242 151.902 56.7188C153.048 57.4212 154.239 58.0012 155.439 58.4417C157.166 59.0756 158.986 59.3889 160.811 59.3889C162.746 59.3889 164.686 59.034 166.526 58.3365C166.558 58.361 166.592 58.383 166.631 58.4002L166.916 58.5396C167.54 58.8456 167.991 59.3816 168.189 60.0497C168.385 60.7154 168.295 61.4105 167.937 62.0077C167.925 62.0297 167.913 62.0517 167.9 62.0762L148.967 104.468C146.841 107.971 143.468 110.391 139.465 111.282C135.448 112.175 131.355 111.409 127.935 109.123L115.69 100.937L115.476 73.075C115.474 72.7275 115.19 72.4485 114.844 72.4485H114.84C114.489 72.4509 114.21 72.7373 114.212 73.0848L114.531 114.914H115.797L115.702 102.466L127.232 110.173C129.932 111.977 133.018 112.91 136.178 112.91C137.361 112.91 138.554 112.78 139.742 112.516C144.1 111.546 147.767 108.908 150.072 105.088C150.084 105.066 150.097 105.044 150.109 105.019L169.042 62.6244C169.561 61.7409 169.693 60.6763 169.404 59.6924C169.167 58.8848 168.657 58.1823 167.976 57.7026C168.05 57.6659 168.126 57.6292 168.199 57.5925L178.478 52.2962C178.505 52.2815 178.532 52.2669 178.556 52.2497C179.979 51.2365 180.386 49.3348 179.502 47.8296C179.134 47.2031 178.585 46.7381 177.958 46.4664L178.304 46.2755C178.304 46.2755 178.323 46.2657 178.333 46.2584L178.331 46.2657ZM25.1304 112.462C20.5007 114.243 15.5035 114.016 11.0551 111.823C6.6066 109.63 3.38538 105.802 1.98666 101.049C0.377272 95.5842 1.53103 89.6564 5.07805 85.1947L19.8883 66.5575C20.753 70.094 21.7451 74.2302 22.769 78.6576L12.1182 82.7938C11.7924 82.9211 11.6307 83.2858 11.7581 83.6113C11.8855 83.9368 12.2505 84.0983 12.5763 83.971L51.5297 68.8385L64.0031 97.5005L25.1329 112.459L25.1304 112.462ZM79.0191 113.852H32.391L31.6488 111.309L65.0736 98.4477C65.2352 98.3865 65.3626 98.2616 65.4287 98.1026C65.4949 97.9435 65.4949 97.7648 65.4263 97.6057L64.2554 94.9184C67.0969 94.7202 70.9844 93.7167 73.8749 92.471L79.0216 113.854L79.0191 113.852ZM62.7072 68.9168C62.8003 69.2521 63.1506 69.4504 63.4862 69.3549C66.1318 68.6133 69.2942 67.6441 70.9428 67.1302C71.6997 66.8952 72.5326 67.1595 72.9662 67.7714C73.9068 69.0979 72.633 71.051 72.6208 71.0706C72.513 71.2297 72.486 71.4303 72.5448 71.6139C72.6036 71.7975 72.7432 71.9443 72.9245 72.0128C72.9392 72.0177 74.2889 72.5439 74.8426 73.8166C75.2076 74.6561 75.1537 75.6595 74.6882 76.7976C74.6245 76.9542 74.627 77.128 74.6907 77.2822C74.7568 77.4364 74.8817 77.5612 75.0361 77.6224C75.0508 77.6272 76.4299 78.2 76.9418 79.502C77.275 80.3464 77.1795 81.3425 76.6601 82.4634C76.5842 82.6298 76.5842 82.8207 76.6601 82.9872C76.7336 83.1536 76.8782 83.2809 77.0545 83.3347C77.0643 83.3372 78.0662 83.6578 78.4018 84.5584C79.2273 86.7831 76.9516 89.375 75.1536 90.4249C72.3292 92.0745 67.0749 93.5601 63.7165 93.68L54.3762 72.216C54.7706 71.6359 55.1919 71.0804 55.6696 70.5174C56.7768 69.2105 58.418 67.8375 60.0617 66.8414C61.4359 66.0093 63.4495 65.0547 65.223 65.2358C66.2959 65.346 67.1165 65.8575 67.724 66.7949C66.2739 67.233 64.6277 67.7225 63.1433 68.1361C62.8077 68.2315 62.6093 68.5791 62.7048 68.9144L62.7072 68.9168ZM49.2492 57.5044C49.4549 57.5044 49.6509 57.404 49.7685 57.2352C49.8861 57.0663 49.9155 56.8485 49.8444 56.6551L49.4378 55.5489H65.0393L67.3835 64.6803C66.7883 64.2936 66.1073 64.0537 65.3528 63.9779C61.6637 63.6034 56.9066 67.0984 54.7044 69.7C54.3762 70.0867 54.0749 70.4709 53.7883 70.8625L52.4483 67.7812C52.3136 67.4704 51.956 67.3211 51.6375 67.4434L23.9595 78.1951C21.4438 67.3235 19.124 58.219 18.4381 55.5489H31.519L32.0873 57.0908C32.1779 57.3404 32.4156 57.5044 32.6801 57.5044H49.2492ZM47.4683 53.8675L48.3404 56.239H33.121L32.249 53.8675H33.6207H33.6256H47.4683ZM53.6437 29.3001C51.3142 25.1027 50.5107 20.4623 51.3852 16.2307C52.1397 12.5816 54.0332 9.51005 57.0144 7.09932C59.6796 4.94557 63.158 3.40123 67.0773 2.63029C70.4161 1.97437 73.4953 2.06981 76.2266 2.91662C76.3049 2.9411 76.3883 2.94846 76.4691 2.94357C76.4887 2.94357 78.4092 2.77956 80.7804 3.16137C84.6826 3.79036 86.7353 5.38854 87.7715 6.6196C89.4936 8.66566 90.0594 11.5292 89.4617 15.1465C87.4384 10.5894 83.8767 9.29467 83.7052 9.23348C83.5411 9.17475 83.3574 9.18944 83.203 9.2702C83.0487 9.35097 82.9336 9.49291 82.887 9.66179C81.7676 13.678 78.4018 16.336 72.8804 17.5621C68.6622 18.4971 64.7208 18.196 64.6816 18.1936C64.5077 18.1789 64.3338 18.2376 64.2064 18.3551C64.0766 18.4726 64.0006 18.639 63.9982 18.8128L63.9688 20.548C63.5842 20.4256 63.1874 20.3498 62.7758 20.3253C60.0519 20.154 57.6978 22.2318 57.5263 24.951C57.3549 27.6725 59.4346 30.0245 62.1561 30.1958C62.2614 30.2032 62.3643 30.2056 62.4672 30.2056C62.5701 30.2056 62.6852 30.2007 62.793 30.1934C62.8322 31.5615 62.9204 34.7676 62.9791 38.4094C59.1235 36.4441 55.819 33.2282 53.6388 29.3001H53.6437ZM74.5266 40.8128C74.578 41.1237 74.845 41.3439 75.1512 41.3439C75.1855 41.3439 75.2198 41.3415 75.2541 41.3366C77.2382 41.0135 78.9775 40.6072 80.506 40.1006L80.5844 43.1722C74.2522 46.9339 66.144 44.2637 64.3044 43.576C64.2799 36.9997 64.0545 29.7724 64.0447 29.4592C64.0447 29.4543 64.0447 29.4518 64.0447 29.4494C64.0447 29.442 64.0447 29.4347 64.0447 29.4249C64.0447 29.4126 64.0447 29.4004 64.0423 29.3906C64.0423 29.3759 64.0374 29.3612 64.0349 29.349C64.0349 29.3441 64.0349 29.3392 64.0325 29.3319C64.0325 29.3319 64.0325 29.3319 64.0325 29.3294C64.0276 29.3123 64.0227 29.2952 64.0178 29.278C64.0178 29.2756 64.0178 29.2731 64.0153 29.2682C64.0104 29.2511 64.0031 29.2315 63.9957 29.2144V29.2095C63.9884 29.1924 63.9786 29.1753 63.9688 29.1581C63.9688 29.1581 63.9688 29.1581 63.9688 29.1557C63.8708 28.9844 63.692 28.8644 63.4862 28.8424C63.4813 28.8424 63.474 28.8424 63.4691 28.8424C63.4593 28.8424 63.4495 28.8424 63.4397 28.8424C63.4274 28.8424 63.4152 28.8424 63.4029 28.8424C63.4029 28.8424 63.4005 28.8424 63.398 28.8424C63.3907 28.8424 63.3833 28.8424 63.376 28.8424C63.3637 28.8424 63.3515 28.8424 63.3392 28.8448C63.327 28.8448 63.3148 28.8497 63.3025 28.8522C63.2952 28.8522 63.2878 28.8522 63.2804 28.8546C62.9449 28.9305 62.597 28.9574 62.2492 28.9354C60.2234 28.8081 58.6752 27.0582 58.8026 25.0317C58.93 23.0053 60.6814 21.4609 62.7097 21.5882C63.2437 21.6224 63.7508 21.7644 64.2162 22.014C64.2456 22.0287 64.275 22.041 64.3044 22.0532C64.3901 22.0972 64.4857 22.1242 64.5861 22.1242C64.5885 22.1242 64.5934 22.1242 64.5959 22.1242C64.9413 22.1242 65.223 21.8476 65.2279 21.5025L65.2622 19.4907C66.5997 19.5421 69.7425 19.5519 73.1352 18.803C78.7619 17.5621 82.4657 14.7672 83.8963 10.702C85.1064 11.3407 87.8131 13.213 89.0012 17.6062C89.1408 18.2596 89.2511 18.9278 89.3246 19.5959C90.9731 34.4617 85.0892 38.4559 75.0557 40.0859C74.7103 40.1422 74.4776 40.4677 74.5315 40.8104L74.5266 40.8128ZM177.674 45.1864L175.568 46.3539C175.376 46.415 175.19 46.4958 175.009 46.5937L169.132 48.98C168.809 49.1121 168.652 49.4792 168.785 49.8047C168.917 50.1278 169.284 50.2844 169.61 50.1523L175.521 47.7538C175.545 47.744 175.57 47.7318 175.592 47.7195C176.574 47.1688 177.838 47.5115 178.409 48.4831C178.953 49.4082 178.713 50.5732 177.855 51.2096L167.621 56.4838C163.952 58.3732 159.672 58.6596 155.878 57.2694C154.756 56.8583 153.641 56.3149 152.566 55.6566C148.688 53.2776 146.028 50.0935 144.977 46.6696C144.97 46.6426 144.962 46.6157 144.952 46.5888C144.72 45.8105 144.57 45.0175 144.509 44.2221C144.291 41.3708 144.083 40.2695 143.497 37.5993C143.434 37.313 143.35 37.0144 143.262 36.7011C142.914 35.4603 142.554 34.1778 143.294 33.2845C144.137 32.2688 145.528 31.9139 146.836 32.3814C149.695 33.4044 151.216 38.8793 151.27 39.0776C151.27 39.0776 151.27 39.08 151.27 39.0825C151.27 39.0898 151.275 39.0972 151.277 39.1045C151.28 39.1168 151.285 39.1265 151.287 39.1388C151.297 39.1681 151.312 39.1926 151.324 39.2196C151.326 39.2244 151.329 39.2293 151.334 39.2367C151.348 39.2611 151.363 39.2856 151.383 39.3077C151.383 39.3077 151.388 39.3126 151.388 39.315C151.405 39.3346 151.422 39.3542 151.441 39.3737C151.446 39.3786 151.451 39.3835 151.456 39.386C151.476 39.4055 151.498 39.4227 151.52 39.4374C151.525 39.4398 151.527 39.4422 151.532 39.4447C151.554 39.4594 151.574 39.4716 151.598 39.4814C151.603 39.4814 151.606 39.4863 151.61 39.4888C151.635 39.501 151.662 39.5108 151.689 39.5206C151.694 39.5206 151.699 39.523 151.704 39.5255C151.73 39.5328 151.755 39.5402 151.782 39.5426C151.782 39.5426 151.787 39.5426 151.789 39.5426C151.816 39.5475 151.846 39.5475 151.875 39.5499C151.877 39.5499 151.88 39.5499 151.885 39.5499C151.89 39.5499 151.89 39.5499 151.895 39.5499C151.926 39.5499 151.958 39.5475 151.99 39.5426C151.995 39.5426 152 39.5426 152.005 39.5401C152.02 39.5377 152.034 39.5353 152.049 39.5304C152.066 39.5255 152.083 39.5206 152.1 39.5132C152.1 39.5132 152.103 39.5132 152.105 39.5132L167.398 33.8768C167.42 33.8694 167.44 33.8596 167.459 33.8498C168.351 33.4093 169.421 33.7103 169.948 34.5523C170.345 35.1837 170.34 35.9987 169.933 36.6277L162.543 39.5353C162.217 39.6625 162.058 40.0297 162.185 40.3552C162.313 40.6807 162.68 40.8398 163.006 40.7125L173.777 36.4735C173.792 36.4686 173.809 36.4613 173.823 36.4539C174.713 36.0207 175.771 36.2924 176.339 37.1001C176.915 37.9151 176.797 39.0409 176.067 39.7164C176.023 39.758 175.989 39.802 175.959 39.851C175.607 39.9024 175.259 40.0076 174.926 40.1716L165.424 43.8819C165.098 44.0092 164.939 44.3763 165.064 44.7018C165.191 45.0273 165.558 45.1864 165.884 45.0616L175.413 41.339C175.433 41.3317 175.45 41.3243 175.467 41.3145C176.408 40.8422 177.564 41.0967 178.218 41.9191C178.612 42.4159 178.779 43.0596 178.671 43.6861C178.566 44.3078 178.198 44.8536 177.667 45.1913L177.674 45.1864Z" fill="black"/>
<path d="M166.229 49.8324C165.994 49.7125 160.409 46.8906 155.253 48.6503C154.922 48.7629 154.746 49.1226 154.858 49.453C154.971 49.7834 155.331 49.9597 155.662 49.8471C160.291 48.266 165.575 50.9166 165.651 50.9558C165.744 51.0023 165.842 51.0268 165.94 51.0268C166.17 51.0268 166.391 50.9019 166.504 50.6841C166.663 50.3733 166.54 49.9915 166.229 49.8324Z" fill="black"/>
</svg>
