<svg width="76" height="76" viewBox="0 0 76 76" fill="none" xmlns="http://www.w3.org/2000/svg">
<g clip-path="url(#clip0_2481_142567)">
<path d="M54.5175 16.9063H47.5877C45.894 16.9063 44.446 16.2552 43.2695 15.0833C42.093 13.9115 41.4336 12.349 41.4336 10.7865V2.32292C41.4336 1.41146 42.2222 0.760422 42.998 0.760422C43.9159 0.760422 44.5624 1.54167 44.5624 2.45313V10.9167C44.5624 11.6979 44.8209 12.349 45.351 13C45.8811 13.5208 46.6568 13.7813 47.4455 13.7813H54.3753C55.2933 13.7813 56.069 14.5625 56.069 15.474C56.069 16.3854 55.4096 16.9063 54.5046 16.9063H54.5175Z" fill="white"/>
<path d="M25.8634 57.6615H8.73274C7.81479 57.6615 7.03906 56.8802 7.03906 55.9688C7.03906 55.0573 7.82772 54.276 8.73274 54.276H25.8634C26.7814 54.276 27.5571 55.0573 27.5571 55.9688C27.4278 56.8802 26.7684 57.6615 25.8634 57.6615Z" fill="white"/>
<path d="M25.7931 14.6927H8.66242C7.74448 14.6927 6.96875 13.9115 6.96875 13C6.96875 12.0885 7.75741 11.3073 8.66242 11.3073H25.7931C26.711 11.3073 27.4868 12.0885 27.4868 13C27.3575 13.9115 26.6981 14.6927 25.7931 14.6927Z" fill="white"/>
<path d="M25.7931 32.9219H8.66242C7.74448 32.9219 6.96875 32.1406 6.96875 31.2292C6.96875 30.3177 7.75741 29.5365 8.66242 29.5365H25.7931C26.711 29.5365 27.4868 30.3177 27.4868 31.2292C27.3575 32.1406 26.6981 32.9219 25.7931 32.9219Z" fill="white"/>
<path d="M17.6317 49.4583H8.73664C7.8187 49.4583 7.04297 48.6771 7.04297 47.7656C7.04297 46.8542 7.83163 46.0729 8.73664 46.0729H17.6317C18.5496 46.0729 19.3253 46.8542 19.3253 47.7656C19.3253 48.6771 18.5367 49.4583 17.6317 49.4583Z" fill="white"/>
<path d="M17.5574 40.7344H8.66242C7.74448 40.7344 6.96875 39.9531 6.96875 39.0417C6.96875 38.1302 7.75741 37.349 8.66242 37.349H17.5574C18.4754 37.349 19.2511 38.1302 19.2511 39.0417C19.2511 39.9531 18.4625 40.7344 17.5574 40.7344Z" fill="white"/>
<path d="M41.4297 65.474H8.73274C7.81479 65.474 7.03906 64.6927 7.03906 63.7813C7.03906 62.8698 7.82772 62.0885 8.73274 62.0885H41.4297C42.3476 62.0885 43.1363 62.8698 43.1363 63.7813C43.1363 64.6927 42.3476 65.474 41.4297 65.474Z" fill="white"/>
<path d="M41.3594 23.8073H8.66242C7.74448 23.8073 6.96875 23.026 6.96875 22.1146C6.96875 21.2031 7.75741 20.4219 8.66242 20.4219H41.3594C42.2773 20.4219 43.066 21.2031 43.066 22.1146C43.066 23.026 42.2773 23.8073 41.3594 23.8073Z" fill="white"/>
<path d="M70.8569 67.2969C69.6804 67.2969 68.5039 66.9062 67.586 65.9948L58.0445 56.4896C57.6566 56.099 57.5273 55.7083 57.5273 55.1875C57.5273 54.6667 57.7859 54.276 58.316 54.0156C59.8804 53.1042 61.1991 51.6719 62.1041 50.2396C62.3627 49.849 62.7635 49.5885 63.2807 49.4583C63.7978 49.4583 64.1986 49.5885 64.5865 49.9792L74.1279 59.4844C75.9638 61.3073 75.9638 64.1719 74.1279 65.9948C73.21 66.9062 72.0335 67.2969 70.8569 67.2969ZM61.5741 55.4479L69.8097 63.651C70.3269 64.1719 71.2448 64.1719 71.7749 63.651C72.0335 63.3906 72.1628 63 72.1628 62.6094C72.1628 62.2187 72.0335 61.8281 71.7749 61.5677L63.5392 53.3646C63.0092 54.276 62.3627 54.9271 61.5741 55.4479Z" fill="white"/>
<path d="M50.069 75.5H6.64118C3.24091 75.5 0.5 72.7656 0.5 69.3802V6.61979C0.5 3.23437 3.24091 0.5 6.64118 0.5H43.1263C43.5141 0.5 43.9149 0.630208 44.3028 1.02083L55.6801 12.349C55.9387 12.6094 56.1973 13.1302 56.1973 13.5208V28.8854C56.1973 29.4062 55.9387 29.7969 55.5379 30.1875C55.1371 30.5781 54.62 30.5781 54.1028 30.4479C53.1849 30.1875 52.1377 30.0573 51.0904 30.0573C43.902 30.0573 38.1487 35.9167 38.1487 42.9479C38.1487 49.9792 44.0313 55.8385 51.0904 55.8385C52.1377 55.8385 53.0556 55.7083 54.1028 55.4479C54.62 55.3177 55.1501 55.4479 55.5379 55.7083C55.9258 55.9688 56.1973 56.4896 56.1973 57.0104V69.1198C56.1973 72.6354 53.3142 75.5 50.0561 75.5H50.069ZM6.64118 3.88542C5.0768 3.88542 3.75806 5.1875 3.75806 6.75V69.3802C3.75806 70.9427 5.06387 72.2448 6.64118 72.2448H49.9268C51.4912 72.2448 52.81 70.9427 52.81 69.3802V59.224C52.2799 59.224 51.6334 59.3542 51.1033 59.3542C42.079 59.3542 34.8906 52.0625 34.8906 43.2083C34.8906 34.3542 42.2083 27.0625 51.1033 27.0625C51.6205 27.0625 52.2799 27.0625 52.81 27.1927V14.4323L42.3505 4.01563H6.64118V3.88542Z" fill="white"/>
<path d="M51.1151 59.224C42.0908 59.224 34.9023 51.9323 34.9023 43.0781C34.9023 34.224 42.22 26.9323 51.1151 26.9323C52.4209 26.9323 53.5974 27.0625 54.9032 27.3229C58.4328 28.1042 61.5745 30.1875 63.7982 32.9219C66.1513 35.7865 67.3278 39.4323 67.3278 43.0781C67.3278 46.2031 66.4098 49.3281 64.7162 51.9323C63.4104 53.8854 61.833 55.4479 60.0101 56.6198C58.4457 57.6615 56.7391 58.3125 54.9032 58.8333C53.7267 59.0938 52.4209 59.224 51.1151 59.224ZM51.1151 30.1875C43.9267 30.1875 38.1733 36.0469 38.1733 43.0781C38.1733 50.1094 44.0559 55.9688 51.1151 55.9688C52.1623 55.9688 53.0802 55.8385 54.1275 55.5781C55.5626 55.1875 56.9977 54.6667 58.1871 53.8854C59.7515 52.974 61.0702 51.5417 61.9753 50.1094C63.4104 48.026 64.0697 45.5521 64.0697 43.0781C64.0697 37.0885 60.0101 31.8802 53.9982 30.4479C53.2095 30.3177 52.1623 30.1875 51.1151 30.1875Z" fill="white"/>
<path d="M51.1173 52.7135C45.7518 52.7135 41.4336 48.4167 41.4336 43.0781C41.4336 37.7396 45.7518 33.4427 51.1173 33.4427C51.9059 33.4427 52.5524 33.5729 53.341 33.7031C57.7885 34.7448 60.8009 38.651 60.8009 43.0781C60.8009 44.901 60.2838 46.8542 59.2366 48.4167C58.4479 49.5885 57.5429 50.5 56.3664 51.2812C55.4484 51.9323 54.4012 52.3229 53.354 52.5833C52.6946 52.7135 51.9189 52.7135 51.1302 52.7135H51.1173ZM51.1173 36.6979C47.5877 36.6979 44.7046 39.5625 44.7046 43.0781C44.7046 46.5937 47.5877 49.4583 51.1173 49.4583C51.6344 49.4583 52.1645 49.4583 52.5524 49.3281C53.341 49.1979 53.9875 48.8073 54.6468 48.4167C55.4355 47.8958 56.0819 47.2448 56.4827 46.5937C57.1421 45.5521 57.53 44.3802 57.53 43.0781C57.53 40.0833 55.4355 37.4792 52.5653 36.8281C52.1774 36.6979 51.6473 36.6979 51.1302 36.6979H51.1173Z" fill="white"/>
</g>
<defs>
<clipPath id="clip0_2481_142567">
<rect width="75" height="75" fill="white" transform="translate(0.5 0.5)"/>
</clipPath>
</defs>
</svg>
