<svg width="48" height="36" viewBox="0 0 48 36" fill="none" xmlns="http://www.w3.org/2000/svg">
<g clip-path="url(#clip0_966_18564)">
<path d="M46.754 3.67155H42.8489V1.47451C42.8489 0.955766 42.4184 0.528564 41.8957 0.528564H29.6885C27.2593 0.528564 25.1684 1.81017 24 3.73257C22.8623 1.81017 20.7406 0.528564 18.3422 0.528564H6.13498C5.61226 0.528564 5.18177 0.955766 5.18177 1.47451V3.67155H1.27669C0.753968 3.67155 0.323486 4.09875 0.323486 4.61749V34.5826C0.323486 35.1014 0.753968 35.5286 1.27669 35.5286H46.754C47.2767 35.5286 47.7072 35.1014 47.7072 34.5826V4.61749C47.6764 4.09875 47.2767 3.67155 46.754 3.67155ZM24.9532 7.08916C24.9532 4.49543 27.0748 2.38994 29.6885 2.38994H40.9425V28.8154H24.9532V7.08916ZM7.08819 2.38994H18.3422C20.9558 2.38994 23.0775 4.49543 23.0775 7.08916V28.8154H7.08819V2.38994ZM45.8008 33.6367H2.19915V5.56344H5.18177V29.7613C5.18177 30.2801 5.61226 30.7073 6.13498 30.7073H41.8957C42.4184 30.7073 42.8489 30.2801 42.8489 29.7613V5.56344H45.8315V33.6367H45.8008Z" fill="#114493"/>
<path d="M37.2525 8.46228H28.6429C28.1202 8.46228 27.6897 8.85897 27.6897 9.37771C27.6897 9.89646 28.1202 10.3237 28.6429 10.3237H37.2525C37.7753 10.3237 38.2057 9.89646 38.2057 9.37771C38.2057 8.85897 37.7753 8.46228 37.2525 8.46228Z" fill="#114493"/>
<path d="M37.2525 14.5347H28.6429C28.1202 14.5347 27.6897 14.9619 27.6897 15.4806C27.6897 15.9994 28.1202 16.4266 28.6429 16.4266H37.2525C37.7753 16.4266 38.2057 15.9994 38.2057 15.4806C38.2057 14.9619 37.7753 14.5347 37.2525 14.5347Z" fill="#114493"/>
<path d="M37.2525 20.6071H28.6429C28.1202 20.6071 27.6897 21.0343 27.6897 21.553C27.6897 22.0717 28.1202 22.4989 28.6429 22.4989H37.2525C37.7753 22.4989 38.2057 22.0717 38.2057 21.553C38.2057 21.0343 37.7753 20.6071 37.2525 20.6071Z" fill="#114493"/>
<path d="M19.3875 8.46228H10.7779C10.2552 8.46228 9.82471 8.88948 9.82471 9.40823C9.82471 9.92697 10.2552 10.3542 10.7779 10.3542H19.3875C19.9103 10.3542 20.3407 9.92697 20.3407 9.40823C20.3407 8.88948 19.9103 8.46228 19.3875 8.46228Z" fill="#114493"/>
<path d="M19.3875 14.5347H10.7779C10.2552 14.5347 9.82471 14.9619 9.82471 15.4806C9.82471 15.9994 10.2552 16.4266 10.7779 16.4266H19.3875C19.9103 16.4266 20.3407 15.9994 20.3407 15.4806C20.31 14.9619 19.9103 14.5347 19.3875 14.5347Z" fill="#114493"/>
<path d="M19.3875 20.6071H10.7779C10.2552 20.6071 9.82471 21.0343 9.82471 21.553C9.82471 22.0717 10.2552 22.4989 10.7779 22.4989H19.3875C19.9103 22.4989 20.3407 22.0717 20.3407 21.553C20.31 21.0343 19.9103 20.6071 19.3875 20.6071Z" fill="#114493"/>
</g>
<defs>
<clipPath id="clip0_966_18564">
<rect width="47.3529" height="35" fill="white" transform="translate(0.323486 0.528564)"/>
</clipPath>
</defs>
</svg>
