<svg width="70" height="68" viewBox="0 0 70 68" fill="none" xmlns="http://www.w3.org/2000/svg">
<g clip-path="url(#clip0_983_7207)">
<path d="M57.6972 60.1426H4.31314C2.20588 60.1426 0.5 58.4276 0.5 56.3091C0.5 55.3002 0.901384 54.3923 1.60381 53.5852C2.30623 52.8791 3.30969 52.4755 4.31314 52.4755C5.01557 52.4755 5.61764 53.0808 5.61764 53.787C5.61764 54.4932 5.01557 55.0985 4.31314 55.0985C4.01211 55.0985 3.71107 55.1994 3.41003 55.502C3.20934 55.7038 3.00865 56.1073 3.00865 56.41C3.00865 57.1161 3.61072 57.7214 4.31314 57.7214H57.6972C57.9982 57.7214 58.2992 57.6205 58.6003 57.3179C58.801 57.1161 59.0017 56.7126 59.0017 56.41C59.0017 55.7038 58.3996 55.0985 57.6972 55.0985C56.9947 55.0985 56.3927 54.4932 56.3927 53.787C56.3927 53.0808 56.9947 52.4755 57.6972 52.4755C59.8044 52.4755 61.5103 54.1905 61.5103 56.3091C61.5103 57.3179 61.1089 58.2258 60.4065 59.0329C59.6037 59.7391 58.7006 60.1426 57.6972 60.1426Z" fill="#F6F8FA"/>
<path d="M57.6949 54.9976H4.31086C3.90947 54.9976 3.50809 54.7958 3.3074 54.3923C3.1067 54.0897 3.00636 53.5853 3.20705 53.1817L9.62919 37.8475C9.82988 38.3431 10.2313 38.0405 10.8333 38.0405H12.1378C12.8403 38.0405 13.4423 38.6458 13.4423 38.352C13.4423 39.0581 12.5392 39.6634 11.9371 39.6634H11.5358L6.31777 52.4755H55.8887L50.47 39.7643H50.0686C49.3662 39.7643 48.7641 39.159 48.7641 38.4528C48.7641 37.7467 49.3662 38.1414 50.0686 38.1414H51.2727C51.7745 38.1414 52.2762 37.444 52.4769 37.9484L58.899 53.2826C59.0997 53.6861 58.9994 54.0897 58.7987 54.4932C58.4976 54.7958 58.0963 54.9976 57.6949 54.9976Z" fill="#F6F8FA"/>
<path d="M50.0696 39.6634H11.9381C9.83088 39.6634 8.125 37.9484 8.125 35.8299C8.125 34.8211 8.52638 33.9131 9.2288 33.106C9.93123 32.3999 10.9347 31.9963 11.9381 31.9963H49.9692C52.0765 31.9963 53.7824 33.7113 53.7824 35.8299C53.7824 36.8387 53.381 37.7467 52.6786 38.5537C51.9762 39.2599 51.0731 39.6634 50.0696 39.6634ZM11.9381 34.6193C11.6371 34.6193 11.3361 34.7202 11.035 35.0228C10.8343 35.2246 10.6336 35.5272 10.6336 35.9308C10.6336 36.6369 11.2357 37.2422 11.9381 37.2422H49.9692C50.2703 37.2422 50.5713 37.1414 50.8724 36.8387C51.0731 36.6369 51.2737 36.2334 51.2737 35.9308C51.2737 35.2246 50.6717 34.6193 49.9692 34.6193H11.9381Z" fill="#F6F8FA"/>
<path d="M43.6505 30.7857C43.4498 30.7857 43.1488 30.6848 42.9481 30.584C42.346 30.1804 42.2457 29.3734 42.6471 28.8689L50.2734 17.3683C50.6748 16.763 51.4775 16.6621 51.9792 17.0657C52.5813 17.4692 52.6817 18.2763 52.2803 18.7807L44.654 30.2813C44.4533 30.584 44.0519 30.7857 43.6505 30.7857Z" fill="#F6F8FA"/>
<path d="M18.2612 30.7858C17.8599 30.7858 17.4585 30.584 17.2578 30.1805L9.63149 18.6799C9.23011 18.0746 9.4308 17.2675 9.93253 16.9649C10.5346 16.5613 11.3374 16.7631 11.6384 17.2675L19.2647 28.7681C19.6661 29.3734 19.4654 30.1805 18.9637 30.4831C18.763 30.6849 18.4619 30.7858 18.2612 30.7858Z" fill="#F6F8FA"/>
<path d="M48.7658 11.618C48.5651 11.618 48.264 11.5171 48.0634 11.4163C47.4613 11.0127 47.3609 10.2057 47.7623 9.70125L50.271 5.8677C50.6723 5.16152 51.4751 5.06064 51.9768 5.46417C52.5789 5.8677 52.6793 6.67476 52.2779 7.17918L49.7692 11.1136C49.5685 11.4163 49.1672 11.618 48.7658 11.618Z" fill="#F6F8FA"/>
<path d="M13.1436 11.618C12.7422 11.618 12.3408 11.4163 12.1401 11.0127L9.63149 7.28007C9.23011 6.67478 9.4308 5.76683 9.93253 5.46418C10.4343 5.16154 11.3374 5.26242 11.6384 5.76683L14.1471 9.60038C14.5484 10.2057 14.3478 11.0127 13.846 11.3154C13.7457 11.5171 13.3443 11.618 13.1436 11.618Z" fill="#F6F8FA"/>
<path d="M38.5329 49.8526H23.3807C22.6782 49.8526 22.0762 49.2473 22.0762 48.5411C22.0762 47.8349 22.6782 47.2296 23.3807 47.2296H38.6332C39.3357 47.2296 39.9377 47.8349 39.9377 48.5411C39.9377 49.2473 39.2353 49.8526 38.5329 49.8526Z" fill="#F6F8FA"/>
<path d="M33.5139 44.8084H28.3963C27.6939 44.8084 27.0918 44.2031 27.0918 43.497C27.0918 42.7908 27.6939 42.1855 28.3963 42.1855H33.5139C34.2164 42.1855 34.8184 42.7908 34.8184 43.497C34.8184 44.2031 34.2164 44.8084 33.5139 44.8084Z" fill="#F6F8FA"/>
<path d="M30.9039 26.8513C30.4021 26.8513 29.9004 26.5487 29.6997 25.9434C29.499 25.2372 29.8001 24.531 30.5025 24.3293L42.3433 20.3948V5.66597C42.3433 4.95979 42.9454 4.35449 43.6478 4.35449C44.3502 4.35449 44.9523 4.95979 44.9523 5.66597V21.3028C44.9523 21.8072 44.6513 22.3116 44.0492 22.5134L31.4056 26.7505C31.3052 26.7505 31.0042 26.8513 30.9039 26.8513Z" fill="#F6F8FA"/>
<path d="M30.9032 26.8513C30.8028 26.8513 30.6021 26.8513 30.5018 26.7505L17.8582 22.5134C17.3565 22.3116 16.9551 21.9081 16.9551 21.3028V5.66597C16.9551 4.95979 17.5572 4.35449 18.2596 4.35449C18.962 4.35449 19.5641 4.95979 19.5641 5.66597V20.294L29.699 23.6231V9.90304C29.699 9.19686 30.3011 8.59157 31.0035 8.59157C31.7059 8.59157 32.308 9.19686 32.308 9.90304V25.5399C32.308 25.9434 32.1073 26.3469 31.8063 26.5487C31.5052 26.7505 31.3045 26.8513 30.9032 26.8513Z" fill="#F6F8FA"/>
<path d="M30.9032 11.2145C30.8028 11.2145 30.6021 11.2145 30.5018 11.1136L17.8582 6.87656C17.3565 6.6748 16.9551 6.27127 16.9551 5.66597C16.9551 5.06067 17.2561 4.65714 17.8582 4.45538L30.5018 0.218301C30.8028 0.117418 31.0035 0.117418 31.3045 0.218301L43.9481 4.45538C44.4499 4.65714 44.8512 5.06067 44.8512 5.66597C44.8512 6.27127 44.5502 6.6748 43.9481 6.87656L31.4049 11.1136C31.3045 11.2145 31.0035 11.2145 30.9032 11.2145ZM22.2734 5.66597L30.9032 8.49068L39.5329 5.66597L30.9032 2.74037L22.2734 5.66597Z" fill="#F6F8FA"/>
</g>
<defs>
<clipPath id="clip0_983_7207">
<rect width="69" height="68" fill="white" transform="translate(0.5)"/>
</clipPath>
</defs>
</svg>
