<svg width="50" height="48" viewBox="0 0 50 48" fill="none" xmlns="http://www.w3.org/2000/svg">
<path d="M40.519 27.0036C40.519 29.2019 38.7594 31.025 36.5198 31.025C34.3337 31.025 32.5207 29.2556 32.5207 27.0036C32.5207 25.7167 33.1073 24.5908 34.067 23.8401H25.0023V32.4727C24.3092 31.7756 23.296 31.2931 22.2296 31.2931C20.0434 31.2931 18.2305 33.0625 18.2305 35.3144C18.2305 37.5664 19.9901 39.3358 22.2296 39.3358C23.296 39.3358 24.3092 38.9069 25.0023 38.1562V47.0032H42.012C45.3179 47.0032 48.0374 44.2687 48.0374 40.9444V23.8937H38.9727C39.9324 24.5908 40.519 25.7167 40.519 27.0036Z" stroke="#114493" stroke-width="2" stroke-miterlimit="10" stroke-linecap="round" stroke-linejoin="round"/>
<path d="M9.48322 20.9983C9.48322 18.8 11.2428 16.977 13.4824 16.977C15.7219 16.977 17.4815 18.7464 17.4815 20.9983C17.4815 22.2852 16.8949 23.4112 15.9352 24.1618H24.9999V15.5293C25.693 16.2263 26.7062 16.7089 27.7726 16.7089C29.9588 16.7089 31.7717 14.9395 31.7717 12.6875C31.7717 10.4355 30.0121 8.66611 27.7726 8.66611C26.7062 8.66611 25.693 9.09506 24.9999 9.84572V0.998688H7.99021C4.68426 0.998688 1.96484 3.73322 1.96484 7.05756V24.1618H11.0296C10.1231 23.4112 9.48322 22.2852 9.48322 20.9983Z" stroke="#114493" stroke-width="2" stroke-miterlimit="10" stroke-linecap="round" stroke-linejoin="round"/>
<path d="M21.8539 39.4431C19.6677 39.4431 17.8547 37.6736 17.8547 35.4217C17.8547 33.2233 19.6144 31.4003 21.8539 31.4003C23.1336 31.4003 24.2534 31.9901 24.9999 32.9552V23.8401H16.4151C17.1082 23.1431 17.5881 22.1243 17.5881 21.052C17.5881 18.8536 15.8285 17.0306 13.589 17.0306C11.4028 17.0306 9.58986 18.8 9.58986 21.052C9.58986 22.1243 10.0164 23.1431 10.7629 23.8401H1.96484V40.9444C1.96484 44.2687 4.68426 47.0032 7.99021 47.0032H24.9999V37.8881C24.2534 38.8533 23.1336 39.4431 21.8539 39.4431Z" stroke="#114493" stroke-width="2" stroke-miterlimit="10" stroke-linecap="round" stroke-linejoin="round"/>
<path d="M47.9688 24.2154L48.0221 22.875" stroke="#114493" stroke-width="2" stroke-linecap="round" stroke-linejoin="round"/>
<path d="M48.031 17.0306V7.11118C48.031 3.78684 45.3649 1.05231 42.0056 1.05231L29.2617 0.998688" stroke="#114493" stroke-width="2" stroke-linecap="round" stroke-linejoin="round" stroke-dasharray="5.47 5.47"/>
<path d="M26.376 0.998688H25.043" stroke="#114493" stroke-width="2" stroke-linecap="round" stroke-linejoin="round"/>
</svg>
