<svg width="125" height="119" viewBox="0 0 125 119" fill="none" xmlns="http://www.w3.org/2000/svg">
<g clip-path="url(#clip0_2418_105654)">
<path d="M101.797 41.0062C101.388 44.3998 99.5451 52.2801 91.5378 56.2886C91.5378 56.2886 94.0173 49.8431 92.2657 44.3087C89.4222 44.9008 86.3967 45.2197 83.2575 45.2197C65.9691 45.2197 51.9336 35.4718 51.9336 23.4463C51.9336 11.4208 65.9691 1.67285 83.2575 1.67285C100.546 1.67285 114.581 11.4208 114.581 23.4463C114.581 30.6661 109.554 37.0433 101.797 41.0062Z" fill="#6099FF"/>
<path fill-rule="evenodd" clip-rule="evenodd" d="M61.6831 8.87119C56.1966 12.6838 52.9336 17.8529 52.9336 23.4463C52.9336 29.0397 56.1966 34.2087 61.6831 38.0213C67.1657 41.8314 74.7919 44.2197 83.2575 44.2197C86.3293 44.2197 89.2865 43.9076 92.0618 43.3297C92.5642 43.225 93.0643 43.5177 93.2191 44.0069C94.1642 46.993 93.9572 50.1705 93.5438 52.5455C93.4433 53.1228 93.3296 53.6582 93.2149 54.1385C98.9856 50.146 100.448 43.8356 100.804 40.8864C100.844 40.556 101.046 40.2671 101.342 40.1157C108.9 36.2546 113.581 30.1597 113.581 23.4463C113.581 17.8529 110.318 12.6838 104.832 8.87119C99.3493 5.06114 91.7231 2.67285 83.2575 2.67285C74.7919 2.67285 67.1657 5.06113 61.6831 8.87119ZM90.6048 55.9287L90.6086 55.9187L90.6259 55.8718C90.6416 55.8288 90.6653 55.7628 90.6953 55.6754C90.7555 55.5005 90.8411 55.2408 90.9392 54.9104C91.1357 54.2486 91.3809 53.3084 91.5734 52.2025C91.9186 50.2194 92.0811 47.7772 91.5467 45.4693C88.9072 45.9588 86.1275 46.2197 83.2575 46.2197C74.4347 46.2197 66.3989 43.734 60.5417 39.6637C54.6883 35.596 50.9336 29.8784 50.9336 23.4463C50.9336 17.0142 54.6883 11.2965 60.5417 7.22882C66.3989 3.15853 74.4347 0.672852 83.2575 0.672852C92.0804 0.672852 100.116 3.15853 105.973 7.22882C111.827 11.2965 115.581 17.0142 115.581 23.4463C115.581 31.0203 110.418 37.5689 102.72 41.6533C102.171 45.4065 100.05 53.1458 91.9854 57.1828C91.6163 57.3676 91.1715 57.3066 90.8657 57.0291C90.5601 56.7518 90.4563 56.3152 90.6043 55.93L90.6048 55.9287Z" fill="#111111"/>
<path d="M75.8418 19.0734H27.4114C24.4769 19.0734 22.0884 21.4648 22.0884 24.4028V52.7356C22.0884 55.6737 24.4769 58.0651 27.4114 58.0651H31.3013C32.1657 61.7547 34.7135 67.2436 42.2203 69.1112C42.2203 69.1112 40.6507 66.1959 40.8099 58.0651H75.8645C78.799 58.0651 81.1876 55.6737 81.1876 52.7356V24.4028C81.1648 21.4648 78.7763 19.0734 75.8418 19.0734Z" fill="white"/>
<path fill-rule="evenodd" clip-rule="evenodd" d="M21.0884 24.4028C21.0884 20.9137 23.9235 18.0734 27.4114 18.0734H75.8418C79.3312 18.0734 82.1606 20.9135 82.1875 24.3951L82.1876 24.4028L82.1876 52.7356C82.1876 56.2248 79.3525 59.0651 75.8645 59.0651H41.7988C41.7899 62.5277 42.1087 64.9074 42.4334 66.4285C42.6106 67.2587 42.7896 67.8333 42.918 68.1888C42.9823 68.3666 42.9775 68.3816 43.0101 68.4547C43.0264 68.4913 43.0944 68.6236 43.1004 68.6358L43.1041 68.6433L43.1027 68.6408L43.1018 68.6391M43.1013 68.6382C43.0101 68.4547 43.1037 68.6425 43.1048 68.6447C43.2879 68.9918 43.2511 69.4143 43.0101 69.7246C42.7673 70.0372 42.363 70.1772 41.9789 70.0816C34.4878 68.2179 31.6129 62.9315 30.5264 59.0651H27.4114C23.9235 59.0651 21.0884 56.2248 21.0884 52.7356V24.4028M40.6486 67.5809C40.5917 67.3567 40.5342 67.112 40.4774 66.846C40.0869 65.0162 39.7292 62.1772 39.8101 58.0455C39.8208 57.5009 40.2653 57.0651 40.8099 57.0651H75.8645C78.2456 57.0651 80.1876 55.1225 80.1876 52.7356V24.4073C80.1673 22.0144 78.2203 20.0734 75.8418 20.0734H27.4114C25.0303 20.0734 23.0884 22.0159 23.0884 24.4028V52.7356C23.0884 55.1225 25.0303 57.0651 27.4114 57.0651H31.3013C31.7657 57.0651 32.169 57.3848 32.2749 57.837C33.0155 60.998 35.0316 65.4789 40.6486 67.5809Z" fill="#111111"/>
<path d="M22.2476 74.3496C22.2476 71.2749 24.2039 68.6785 26.9337 67.6991C26.2057 67.4486 25.4096 67.2892 24.5906 67.2892C20.7007 67.2892 17.5615 70.455 17.5615 74.3268C17.5615 78.2214 20.7235 81.3872 24.5906 81.3872C25.4096 81.3872 26.2057 81.2278 26.9337 80.9773C24.2039 80.0207 22.2476 77.4243 22.2476 74.3496Z" fill="white"/>
<path d="M31.6425 74.3497C31.6425 71.275 29.6862 68.6786 26.9337 67.6992C24.2039 68.6558 22.2249 71.275 22.2249 74.3497C22.2249 77.4244 24.1812 80.0208 26.9337 81.0001C29.6862 80.0208 31.6425 77.4244 31.6425 74.3497Z" fill="#D7DBE8"/>
<path d="M23.0437 85.373H18.3576C13.3076 85.373 9.19019 89.4726 9.19019 94.5516V112.112H13.8763V94.5516C13.8763 89.4726 17.9709 85.373 23.0437 85.373Z" fill="white"/>
<path d="M30.8462 85.373H23.0436C17.9936 85.373 13.8762 89.4726 13.8762 94.5516V112.112H39.9909V94.5516C39.9909 89.4726 35.8962 85.373 30.8462 85.373Z" fill="#D7DBE8"/>
<path fill-rule="evenodd" clip-rule="evenodd" d="M16.5614 74.3497C16.5614 69.9288 20.1451 66.312 24.5905 66.312C29.0297 66.312 32.6424 69.8997 32.6424 74.3497C32.6424 78.7975 29.009 82.4101 24.5905 82.4101C20.1679 82.4101 16.5614 78.7933 16.5614 74.3497ZM24.5905 68.312C21.2562 68.312 18.5614 71.0268 18.5614 74.3497C18.5614 77.6952 21.2789 80.4101 24.5905 80.4101C27.9064 80.4101 30.6424 77.691 30.6424 74.3497C30.6424 71.0104 27.9312 68.312 24.5905 68.312ZM18.3576 86.373C13.8399 86.373 10.1902 90.0449 10.1902 94.5516V112.111C10.1902 112.664 9.74247 113.111 9.19019 113.111C8.6379 113.111 8.19019 112.664 8.19019 112.111V94.5516C8.19019 88.9459 12.7298 84.373 18.3576 84.373H30.8235C36.4253 84.373 40.9909 88.9199 40.9909 94.5516V112.111C40.9909 112.664 40.5432 113.111 39.9909 113.111C39.4386 113.111 38.9909 112.664 38.9909 112.111V94.5516C38.9909 90.0254 35.3217 86.373 30.8235 86.373H18.3576Z" fill="#111111"/>
<path d="M53.1391 114.526H27.5022L34.2811 93.7089H59.918L53.1391 114.526Z" fill="white"/>
<path fill-rule="evenodd" clip-rule="evenodd" d="M33.3302 93.3992C33.4643 92.9875 33.8481 92.7089 34.2811 92.7089H59.918C60.2383 92.7089 60.5391 92.8622 60.7272 93.1213C60.9154 93.3805 60.968 93.714 60.8689 94.0185L54.09 114.835C53.9559 115.247 53.5721 115.526 53.1391 115.526H27.5022C27.182 115.526 26.8811 115.372 26.693 115.113C26.5049 114.854 26.4522 114.521 26.5514 114.216L33.3302 93.3992ZM35.0071 94.7089L28.8795 113.526H52.4131L58.5407 94.7089H35.0071Z" fill="#111111"/>
<path d="M98.0437 74.3496C98.0437 71.2749 100 68.6785 102.73 67.6991C102.002 67.4486 101.206 67.2892 100.387 67.2892C96.4969 67.2892 93.3577 70.455 93.3577 74.3268C93.3577 78.2214 96.5196 81.3872 100.387 81.3872C101.206 81.3872 102.002 81.2278 102.73 80.9773C100 80.0207 98.0437 77.4243 98.0437 74.3496Z" fill="white"/>
<path d="M107.439 74.3497C107.439 71.275 105.482 68.6786 102.73 67.6992C100 68.6558 98.021 71.275 98.021 74.3497C98.021 77.4244 99.9773 80.0208 102.73 81.0001C105.482 80.0208 107.439 77.4244 107.439 74.3497Z" fill="#6099FF"/>
<path d="M98.8398 85.373H94.1538C89.1037 85.373 84.9863 89.4726 84.9863 94.5516V112.112H89.6724V94.5516C89.6724 89.4726 93.7898 85.373 98.8398 85.373Z" fill="white"/>
<path d="M106.642 85.373H98.8398C93.7897 85.373 89.6724 89.4726 89.6724 94.5516V112.112H115.787V94.5516C115.787 89.4726 111.692 85.373 106.642 85.373Z" fill="#6099FF"/>
<path fill-rule="evenodd" clip-rule="evenodd" d="M92.3576 74.3497C92.3576 69.9288 95.9413 66.312 100.387 66.312C104.826 66.312 108.439 69.8997 108.439 74.3497C108.439 78.7975 104.805 82.4101 100.387 82.4101C95.964 82.4101 92.3576 78.7933 92.3576 74.3497ZM100.387 68.312C97.0523 68.312 94.3576 71.0268 94.3576 74.3497C94.3576 77.6952 97.0751 80.4101 100.387 80.4101C103.703 80.4101 106.439 77.691 106.439 74.3497C106.439 71.0104 103.727 68.312 100.387 68.312ZM94.1538 86.373C89.636 86.373 85.9863 90.0449 85.9863 94.5516V112.111C85.9863 112.664 85.5386 113.111 84.9863 113.111C84.434 113.111 83.9863 112.664 83.9863 112.111V94.5516C83.9863 88.9459 88.5259 84.373 94.1538 84.373H106.62C112.221 84.373 116.787 88.9199 116.787 94.5516V112.111C116.787 112.664 116.339 113.111 115.787 113.111C115.235 113.111 114.787 112.664 114.787 112.111V94.5516C114.787 90.0254 111.118 86.373 106.62 86.373H94.1538Z" fill="#111111"/>
<path d="M71.8607 114.526H97.4976L90.7187 93.7089H65.0818L71.8607 114.526Z" fill="white"/>
<path fill-rule="evenodd" clip-rule="evenodd" d="M64.2726 93.1213C64.4607 92.8622 64.7616 92.7089 65.0818 92.7089H90.7187C91.1517 92.7089 91.5355 92.9875 91.6696 93.3992L98.4485 114.216C98.5476 114.521 98.495 114.854 98.3068 115.113C98.1187 115.372 97.8178 115.526 97.4976 115.526H71.8607C71.4277 115.526 71.0439 115.247 70.9098 114.835L64.1309 94.0185C64.0318 93.714 64.0844 93.3805 64.2726 93.1213ZM66.4591 94.7089L72.5867 113.526H96.1203L89.9927 94.7089H66.4591Z" fill="#111111"/>
<path d="M78.0938 111.679H46.9063H1.13745V117.304H46.9063H78.0938H123.863V111.679H78.0938Z" fill="white"/>
<path fill-rule="evenodd" clip-rule="evenodd" d="M0.137451 111.679C0.137451 111.126 0.585166 110.679 1.13745 110.679H123.863C124.415 110.679 124.863 111.126 124.863 111.679V117.304C124.863 117.857 124.415 118.304 123.863 118.304H1.13745C0.585166 118.304 0.137451 117.857 0.137451 117.304V111.679ZM2.13745 112.679V116.304H122.863V112.679H2.13745Z" fill="#111111"/>
</g>
<defs>
<clipPath id="clip0_2418_105654">
<rect width="125" height="117.886" fill="white" transform="translate(0 0.556885)"/>
</clipPath>
</defs>
</svg>
