<svg width="52" height="41" viewBox="0 0 52 41" fill="none" xmlns="http://www.w3.org/2000/svg">
<path d="M51.7213 13.6732L37.9393 0.269551C37.5986 -0.0617742 37.0102 -0.0617742 36.6695 0.269551L31.3115 5.48039C30.9709 5.81172 30.9709 6.35389 31.3115 6.71533L32.3336 7.70931H22.9185C22.6707 7.70931 22.4539 7.79967 22.299 7.95027L21.4938 8.76353L20.3479 7.64907L20.6886 7.31774C21.0292 6.98642 21.0292 6.44425 20.6886 6.0828L15.3306 0.871961C14.9899 0.540635 14.4325 0.540635 14.0608 0.871961L0.247819 14.3057C-0.0928602 14.637 -0.0928602 15.1792 0.247819 15.5406L5.60577 20.7515C5.94645 21.0828 6.50392 21.0828 6.87557 20.7515L7.09237 20.5406L9.75586 23.131L8.20732 24.637C6.93752 25.872 6.93752 27.9202 8.20732 29.1551C8.82674 29.7575 9.66295 30.1189 10.654 30.0888C10.623 30.9322 10.9328 31.8057 11.6141 32.4683C12.2335 33.0708 13.0697 33.4322 14.0608 33.4021C14.0298 34.2455 14.3395 35.1189 15.0209 35.7816C15.6403 36.384 16.4765 36.7455 17.4676 36.7153C17.4366 37.5587 17.7463 38.4322 18.4277 39.0948C19.6975 40.3298 21.8035 40.3298 23.0733 39.0948L24.6219 37.5888L25.1793 38.131C26.4801 39.3961 28.5551 39.3961 29.8559 38.131C30.5373 37.4683 30.847 36.625 30.816 35.7515C31.7451 35.7816 32.6123 35.4202 33.2627 34.8177C33.9131 34.1852 34.2538 33.3117 34.2228 32.4382C35.09 32.4683 35.9881 32.1671 36.6695 31.5045C37.3509 30.8418 37.6606 29.9985 37.6296 29.125C38.4658 29.1551 39.3949 28.8539 40.0763 28.1912C41.3461 26.9563 41.3461 24.9081 40.0763 23.643L39.6427 23.2214L43.9786 19.0045L45.1555 20.1491C45.4962 20.4804 46.0537 20.4804 46.4253 20.1491L51.7213 14.9081C52.093 14.5768 52.093 14.0346 51.7213 13.6732ZM2.13704 14.9081L14.6802 2.70931L18.7993 6.71533L6.47295 18.7033L6.25616 18.9141L2.13704 14.9081ZM9.50809 27.9503C8.91965 27.378 8.91965 26.4443 9.50809 25.872L11.6451 23.7936C12.2335 23.2214 13.1936 23.2214 13.7821 23.7936C14.3705 24.3659 14.3705 25.2997 13.7821 25.872L11.6451 27.9503C11.0566 28.4924 10.0656 28.4924 9.50809 27.9503ZM12.8839 31.2334C12.2955 30.6611 12.2955 29.7274 12.8839 29.1551L15.0209 27.0768C15.6093 26.5045 16.5694 26.5045 17.1579 27.0768C17.7463 27.6491 17.7463 28.5828 17.1579 29.1551L15.0209 31.2334C14.4634 31.8057 13.4724 31.8057 12.8839 31.2334ZM16.2907 34.5467C15.7023 33.9744 15.7023 33.0406 16.2907 32.4683L18.4277 30.39C19.0161 29.8177 19.9762 29.8177 20.5647 30.39C20.8434 30.6611 20.9983 31.0226 20.9983 31.4443C20.9983 31.8358 20.8434 32.1973 20.5647 32.4985L18.4277 34.5768C17.8702 35.0888 16.8482 35.0888 16.2907 34.5467ZM21.8345 37.8599C21.277 38.4021 20.255 38.4021 19.6975 37.8599C19.109 37.2876 19.109 36.3539 19.6975 35.7816L21.8345 33.7033C22.1132 33.4322 22.4849 33.2816 22.9185 33.2816C23.3211 33.2816 23.6927 33.4322 24.0024 33.7033C24.5909 34.2756 24.5909 35.2093 24.0024 35.7816L21.8345 37.8599ZM38.7755 26.9563C38.1871 27.5286 37.227 27.5286 36.6385 26.9563L36.6076 26.9262L29.1126 19.6671C28.7719 19.3358 28.2145 19.3358 27.8428 19.6671C27.5021 19.9985 27.5021 20.5406 27.8428 20.9021L35.3378 28.1912C35.3378 28.1912 35.3687 28.1912 35.3687 28.2214C35.9262 28.7936 35.9262 29.7274 35.3378 30.2696C34.7493 30.8418 33.7892 30.8418 33.2008 30.2696L25.7368 22.9804C25.3961 22.6491 24.8386 22.6491 24.467 22.9804C24.1263 23.3117 24.1263 23.8539 24.467 24.2153L31.9619 31.5045C32.5504 32.0768 32.5504 33.0105 31.9619 33.5828C31.3735 34.1551 30.4134 34.1551 29.825 33.5828L22.33 26.2936C21.9893 25.9322 21.4319 25.9322 21.0602 26.2936C20.7195 26.625 20.7195 27.1671 21.0602 27.5286L28.5551 34.8177C29.1436 35.39 29.1436 36.3238 28.5551 36.8961C27.9667 37.4683 27.0066 37.4683 26.4182 36.8961L25.7678 36.2635C26.4182 35.0587 26.2633 33.5226 25.2103 32.4985C24.5289 31.8358 23.6308 31.5346 22.7636 31.5647C22.7946 30.7214 22.4849 29.8479 21.8035 29.1852C21.1222 28.5226 20.224 28.2214 19.3568 28.2515C19.3878 27.4081 19.0781 26.5346 18.3967 25.872C17.7154 25.2093 16.8172 24.9081 15.95 24.9382C15.981 24.0949 15.6713 23.2214 14.9899 22.5587C13.9369 21.5346 12.3574 21.3539 11.1186 22.0165L8.3312 19.3057L19.0781 8.85389L20.224 9.96835L16.6314 13.4623C15.1758 14.878 15.1758 17.1973 16.6314 18.643C18.087 20.0587 20.4718 20.0587 21.9584 18.643L25.6439 15.0587L27.3783 16.7455C27.5641 16.9262 27.7809 17.0165 28.0286 16.9864L30.5373 16.8961L38.7445 24.878C39.364 25.4503 39.364 26.384 38.7755 26.9563ZM38.3419 21.9864L33.0149 16.8057L34.9042 16.7455C35.3997 16.7153 35.7713 16.3238 35.7713 15.8418C35.7404 15.3599 35.3687 14.9985 34.8422 14.9985L28.4003 15.2093L26.3252 13.1912C25.9846 12.8599 25.4271 12.8599 25.0554 13.1912L20.7195 17.4081C19.9453 18.1611 18.7064 18.1611 17.9322 17.4081C17.1579 16.6551 17.1579 15.4503 17.9322 14.6973L23.3211 9.4563H34.1299L42.6778 17.7696L38.3419 21.9864ZM45.7439 18.2816L33.2008 6.0828L37.3199 2.07678L49.8631 14.2756L45.7439 18.2816Z" fill="#114493"/>
</svg>
