<svg width="76" height="76" viewBox="0 0 76 76" fill="none" xmlns="http://www.w3.org/2000/svg">
<g clip-path="url(#clip0_2481_142597)">
<path d="M64.0585 7.23865H32.4312V4.11933H68.8635V50.9216C68.8635 51.8005 69.6288 52.5432 70.507 52.5432C71.3851 52.5432 72.1504 51.8005 72.1504 50.9216V2.62155C72.1504 1.7427 71.3851 1 70.507 1H30.9132C30.0225 1 29.3952 1.7427 29.3952 2.62155V7.36244H12.0698C11.179 7.36244 10.4263 8.10513 10.4263 8.98399V63.5227H7.26482C3.60152 63.5227 0.816406 66.2707 0.816406 69.7613C0.816406 73.252 3.72697 76 7.39028 76H55.9667C61.3989 75.8762 65.5766 71.878 65.5766 66.642V8.86021C65.702 7.98135 64.9493 7.23865 64.0585 7.23865ZM3.97789 69.6376C3.97789 67.8922 5.37044 66.5182 7.26482 66.5182H50.5219C49.2548 68.5111 49.2548 70.8878 50.5219 72.7569H7.51573C5.62135 72.7569 3.97789 71.3829 3.97789 69.6376ZM62.5405 66.5182C62.5405 70.0089 59.7554 72.6331 55.9667 72.7569C54.1977 72.6331 52.8052 71.2591 52.8052 69.6376C52.8052 68.016 54.4486 66.642 56.2176 66.5182C57.1083 66.5182 57.7356 65.7632 57.7356 64.8967C57.7356 64.0302 56.9828 63.3989 56.2176 63.3989H13.5878V10.358H62.5405V66.5182Z" fill="white"/>
<path d="M26.9958 13.4773C21.3001 13.4773 16.7461 17.9706 16.7461 23.5904C16.7461 29.2101 21.3001 33.7034 26.9958 33.7034C32.6915 33.7034 37.2455 29.2101 37.2455 23.5904C37.2455 17.9706 32.566 13.4773 26.9958 13.4773ZM32.3151 18.9733L28.5138 20.9662V16.7204C30.0318 17.0918 31.2989 17.8468 32.3151 18.9609V18.9733ZM25.3523 16.7204V21.9564H20.0456C20.5474 19.456 22.7052 17.3393 25.3523 16.7204ZM26.9958 30.7079C23.5834 30.7079 20.7983 28.3312 20.0456 25.2119H27.3847C27.5102 25.2119 27.6356 25.0881 27.7611 25.0881L33.8331 21.845C35.1002 26.2146 31.5498 30.7079 26.9958 30.7079Z" fill="white"/>
<path d="M40.413 21.3375C41.3037 21.3375 42.0565 20.5948 42.0565 19.716C42.0565 18.8371 41.3037 18.0944 40.413 18.0944C39.5223 18.0944 38.7695 18.8371 38.7695 19.716C38.7695 20.5948 39.5223 21.3375 40.413 21.3375Z" fill="white"/>
<path d="M40.413 25.9546C41.3037 25.9546 42.0565 25.2119 42.0565 24.3331C42.0565 23.4542 41.3037 22.8353 40.413 22.8353C39.5223 22.8353 38.7695 23.5904 38.7695 24.4568C38.7695 25.3233 39.5223 25.9546 40.413 25.9546Z" fill="white"/>
<path d="M40.413 30.7079C41.3037 30.7079 42.0565 29.9652 42.0565 29.2101C42.0565 28.3312 41.3037 27.5885 40.413 27.5885C39.5223 27.5885 38.7695 28.3312 38.7695 29.2101C38.7695 29.9528 39.5223 30.7079 40.413 30.7079Z" fill="white"/>
<path d="M45.0927 21.3375H49.8976C50.7884 21.3375 51.5411 20.5948 51.5411 19.716C51.5411 18.8371 50.7884 18.0944 49.8976 18.0944H45.0927C44.202 18.0944 43.4492 18.8371 43.4492 19.716C43.5747 20.5948 44.202 21.3375 45.0927 21.3375Z" fill="white"/>
<path d="M45.0927 25.9546H56.2206C57.1113 25.9546 57.8641 25.2119 57.8641 24.3331C57.8641 23.4542 57.1113 22.8353 56.2206 22.8353H45.0927C44.202 22.8353 43.4492 23.5904 43.4492 24.4568C43.4492 25.3233 44.202 25.9546 45.0927 25.9546Z" fill="white"/>
<path d="M45.0927 30.7079H56.2206C57.1113 30.7079 57.8641 29.9652 57.8641 29.2101C57.8641 28.3312 57.1113 27.5885 56.2206 27.5885H45.0927C44.202 27.5885 43.4492 28.3312 43.4492 29.2101C43.5747 29.9528 44.202 30.7079 45.0927 30.7079Z" fill="white"/>
<path d="M37.25 57.1603V41.5636C37.25 40.6848 36.4972 39.9421 35.6065 39.9421H30.8016C29.9108 39.9421 29.2835 40.6972 29.2835 41.5636V57.1603H27.6401V49.4238C27.6401 48.545 26.8748 47.8023 25.9966 47.8023H21.3171C20.4264 47.8023 19.6737 48.5574 19.6737 49.4238V57.1603H18.0302C17.1395 57.1603 16.3867 57.9153 16.3867 58.7818C16.3867 59.6483 17.152 60.4034 18.0302 60.4034H57.624C58.5147 60.4034 59.2674 59.6607 59.2674 58.7818C59.2674 57.903 58.5147 57.1603 57.624 57.1603H55.9805V40.0659C55.9805 39.187 55.2152 38.4443 54.337 38.4443H49.6575C48.7668 38.4443 48.0141 39.187 48.0141 40.0659V57.1603H46.3706V46.3045C46.3706 45.4257 45.6179 44.683 44.7271 44.683H40.0476C39.1569 44.683 38.4042 45.4257 38.4042 46.3045V57.1603H37.2625H37.25ZM22.948 57.1603V50.9216H24.5915V57.1603H22.948ZM32.445 57.1603V43.1852H34.0885V57.1603H32.445ZM51.4139 41.5636H52.9319V57.1603H51.4139V41.5636ZM41.9295 47.8023H43.4475V57.1603H41.9295V47.8023Z" fill="white"/>
</g>
<defs>
<clipPath id="clip0_2481_142597">
<rect width="75" height="75" fill="white" transform="translate(0.5 0.5)"/>
</clipPath>
</defs>
</svg>
