<svg width="62" height="60" viewBox="0 0 62 60" fill="none" xmlns="http://www.w3.org/2000/svg">
<g clip-path="url(#clip0_983_7093)">
<path d="M42.6124 30.18H39.6348V33.18H42.6124V30.18Z" fill="#F6F8FA"/>
<path d="M42.6124 25.62H39.6348V28.62H42.6124V25.62Z" fill="#F6F8FA"/>
<path d="M20.1007 30.18H17.123V33.18H20.1007V30.18Z" fill="#F6F8FA"/>
<path d="M20.1007 25.62H17.123V28.62H20.1007V25.62Z" fill="#F6F8FA"/>
<path d="M49.2843 54.4201H10.4555C7.4778 54.4201 4.97656 52.0201 4.97656 48.9001V9.90007C4.97656 6.90007 7.3587 4.38007 10.4555 4.38007H49.4034C52.381 4.38007 54.8823 6.78007 54.8823 9.90007V49.1401C54.6441 52.0201 52.2619 54.4201 49.2843 54.4201ZM10.4555 7.50007C9.1453 7.50007 8.07334 8.58007 8.07334 9.90007V49.1401C8.07334 50.4601 9.1453 51.5401 10.4555 51.5401H49.4034C50.7135 51.5401 51.7855 50.4601 51.7855 49.1401V9.90007C51.7855 8.58007 50.7135 7.50007 49.4034 7.50007H10.4555Z" fill="#F6F8FA"/>
<path d="M43.2076 48.42H16.5277C13.431 48.42 11.0488 45.9 11.0488 42.9V16.02C11.0488 12.9 13.431 10.5 16.5277 10.5H43.4459C46.4235 10.5 48.9248 12.9 48.9248 16.02V43.14C48.6865 45.9 46.1853 48.42 43.2076 48.42ZM16.5277 13.5C15.2176 13.5 14.1456 14.58 14.1456 15.9V43.02C14.1456 44.34 15.2176 45.42 16.5277 45.42H43.4459C44.756 45.42 45.828 44.34 45.828 43.02V16.02C45.828 14.7 44.756 13.62 43.4459 13.62H16.5277V13.5Z" fill="#F6F8FA"/>
<path d="M14.0269 7.50001C13.1932 7.50001 12.4785 6.78001 12.4785 5.94001V1.26001C12.4785 0.420012 13.1932 -0.299988 14.0269 -0.299988C14.8606 -0.299988 15.5753 0.420012 15.5753 1.26001V5.82001C15.4562 6.78001 14.7415 7.50001 14.0269 7.50001Z" fill="#F6F8FA"/>
<path d="M18.5542 7.50001C17.7205 7.50001 17.0059 6.78001 17.0059 5.94001V1.26001C17.0059 0.420012 17.7205 -0.299988 18.5542 -0.299988C19.388 -0.299988 20.1026 0.420012 20.1026 1.26001V5.82001C20.1026 6.78001 19.388 7.50001 18.5542 7.50001Z" fill="#F6F8FA"/>
<path d="M23.0796 7.50001C22.2459 7.50001 21.5312 6.78001 21.5312 5.94001V1.26001C21.5312 0.420012 22.2459 -0.299988 23.0796 -0.299988C23.9134 -0.299988 24.628 0.420012 24.628 1.26001V5.82001C24.5089 6.78001 23.7943 7.50001 23.0796 7.50001Z" fill="#F6F8FA"/>
<path d="M27.605 7.50001C26.7713 7.50001 26.0566 6.78001 26.0566 5.94001V1.26001C26.0566 0.420012 26.7713 -0.299988 27.605 -0.299988C28.4388 -0.299988 29.1534 0.420012 29.1534 1.26001V5.82001C29.1534 6.78001 28.4388 7.50001 27.605 7.50001Z" fill="#F6F8FA"/>
<path d="M32.1324 7.50001C31.2986 7.50001 30.584 6.78001 30.584 5.94001V1.26001C30.584 0.420012 31.2986 -0.299988 32.1324 -0.299988C32.9661 -0.299988 33.6808 0.420012 33.6808 1.26001V5.82001C33.5617 6.78001 32.847 7.50001 32.1324 7.50001Z" fill="#F6F8FA"/>
<path d="M36.5386 7.50001C35.7049 7.50001 34.9902 6.78001 34.9902 5.94001V1.26001C34.9902 0.420012 35.7049 -0.299988 36.5386 -0.299988C37.3724 -0.299988 38.087 0.420012 38.087 1.26001V5.82001C38.2061 6.78001 37.4915 7.50001 36.5386 7.50001Z" fill="#F6F8FA"/>
<path d="M41.1832 7.50001C40.3494 7.50001 39.6348 6.78001 39.6348 5.94001V1.26001C39.6348 0.420012 40.3494 -0.299988 41.1832 -0.299988C42.0169 -0.299988 42.7315 0.420012 42.7315 1.26001V5.82001C42.6124 6.78001 41.8978 7.50001 41.1832 7.50001Z" fill="#F6F8FA"/>
<path d="M45.5894 7.50001C44.7557 7.50001 44.041 6.78001 44.041 5.94001V1.26001C44.041 0.420012 44.7557 -0.299988 45.5894 -0.299988C46.4231 -0.299988 47.1378 0.420012 47.1378 1.26001V5.82001C47.2569 6.78001 46.4231 7.50001 45.5894 7.50001Z" fill="#F6F8FA"/>
<path d="M14.0269 59.1C13.1932 59.1 12.4785 58.5093 12.4785 57.8203V54.0797C12.4785 53.3906 13.1932 52.8 14.0269 52.8C14.8606 52.8 15.5753 53.3906 15.5753 54.0797V57.8203C15.4562 58.5093 14.7415 59.1 14.0269 59.1Z" fill="#F6F8FA"/>
<path d="M18.5542 59.1C17.7205 59.1 17.0059 58.5093 17.0059 57.8203V54.0797C17.0059 53.3906 17.7205 52.8 18.5542 52.8C19.388 52.8 20.1026 53.3906 20.1026 54.0797V57.8203C20.1026 58.5093 19.388 59.1 18.5542 59.1Z" fill="#F6F8FA"/>
<path d="M23.0796 59.1C22.2459 59.1 21.5312 58.5093 21.5312 57.8203V54.0797C21.5312 53.3906 22.2459 52.8 23.0796 52.8C23.9134 52.8 24.628 53.3906 24.628 54.0797V57.8203C24.5089 58.5093 23.7943 59.1 23.0796 59.1Z" fill="#F6F8FA"/>
<path d="M27.605 59.1C26.7713 59.1 26.0566 58.5093 26.0566 57.8203V54.0797C26.0566 53.3906 26.7713 52.8 27.605 52.8C28.4388 52.8 29.1534 53.3906 29.1534 54.0797V57.8203C29.1534 58.5093 28.4388 59.1 27.605 59.1Z" fill="#F6F8FA"/>
<path d="M32.1324 59.1C31.2986 59.1 30.584 58.5093 30.584 57.8203V54.0797C30.584 53.3906 31.2986 52.8 32.1324 52.8C32.9661 52.8 33.6808 53.3906 33.6808 54.0797V57.8203C33.5617 58.5093 32.847 59.1 32.1324 59.1Z" fill="#F6F8FA"/>
<path d="M36.5386 59.1C35.7049 59.1 34.9902 58.5093 34.9902 57.8203V54.0797C34.9902 53.3906 35.7049 52.8 36.5386 52.8C37.3724 52.8 38.087 53.3906 38.087 54.0797V57.8203C38.2061 58.5093 37.4915 59.1 36.5386 59.1Z" fill="#F6F8FA"/>
<path d="M41.1832 59.1C40.3494 59.1 39.6348 58.5093 39.6348 57.8203V54.0797C39.6348 53.3906 40.3494 52.8 41.1832 52.8C42.0169 52.8 42.7315 53.3906 42.7315 54.0797V57.8203C42.6124 58.5093 41.8978 59.1 41.1832 59.1Z" fill="#F6F8FA"/>
<path d="M45.5894 59.1C44.7557 59.1 44.041 58.5093 44.041 57.8203V54.0797C44.041 53.3906 44.7557 52.8 45.5894 52.8C46.4231 52.8 47.1378 53.3906 47.1378 54.0797V57.8203C47.2569 58.5093 46.4231 59.1 45.5894 59.1Z" fill="#F6F8FA"/>
<path d="M6.52363 13.5H1.87847C1.04472 13.5 0.330078 12.78 0.330078 11.94C0.330078 11.1 1.04472 10.38 1.87847 10.38H6.40452C7.23827 10.38 7.95291 11.1 7.95291 11.94C8.07201 12.78 7.35737 13.5 6.52363 13.5Z" fill="#F6F8FA"/>
<path d="M6.52363 18.06H1.87847C1.04472 18.06 0.330078 17.34 0.330078 16.5C0.330078 15.66 1.04472 14.94 1.87847 14.94H6.40452C7.23827 14.94 7.95291 15.66 7.95291 16.5C7.95291 17.34 7.35737 18.06 6.52363 18.06Z" fill="#F6F8FA"/>
<path d="M6.52363 22.62H1.87847C1.04472 22.62 0.330078 21.9 0.330078 21.06C0.330078 20.22 1.04472 19.5 1.87847 19.5H6.40452C7.23827 19.5 7.95291 20.22 7.95291 21.06C8.07201 21.9 7.35737 22.62 6.52363 22.62Z" fill="#F6F8FA"/>
<path d="M6.52363 27.18H1.87847C1.04472 27.18 0.330078 26.46 0.330078 25.62C0.330078 24.78 1.04472 24.06 1.87847 24.06H6.40452C7.23827 24.06 7.95291 24.78 7.95291 25.62C8.07201 26.46 7.35737 27.18 6.52363 27.18Z" fill="#F6F8FA"/>
<path d="M6.52363 31.74H1.87847C1.04472 31.74 0.330078 31.02 0.330078 30.18C0.330078 29.34 1.04472 28.62 1.87847 28.62H6.40452C7.23827 28.62 7.95291 29.34 7.95291 30.18C7.95291 31.02 7.35737 31.74 6.52363 31.74Z" fill="#F6F8FA"/>
<path d="M6.52363 36.18H1.87847C1.04472 36.18 0.330078 35.46 0.330078 34.62C0.330078 33.78 1.04472 33.06 1.87847 33.06H6.40452C7.23827 33.06 7.95291 33.78 7.95291 34.62C7.95291 35.46 7.35737 36.18 6.52363 36.18Z" fill="#F6F8FA"/>
<path d="M6.52363 40.86H1.87847C1.04472 40.86 0.330078 40.14 0.330078 39.3C0.330078 38.46 1.04472 37.74 1.87847 37.74H6.40452C7.23827 37.74 7.95291 38.46 7.95291 39.3C7.95291 40.14 7.35737 40.86 6.52363 40.86Z" fill="#F6F8FA"/>
<path d="M6.52363 45.3H1.87847C1.04472 45.3 0.330078 44.58 0.330078 43.74C0.330078 42.9 1.04472 42.18 1.87847 42.18H6.40452C7.23827 42.18 7.95291 42.9 7.95291 43.74C7.95291 44.58 7.35737 45.3 6.52363 45.3Z" fill="#F6F8FA"/>
<path d="M58.9299 13.5001H54.4039C53.5701 13.5001 52.8555 12.7801 52.8555 11.9401C52.8555 11.1001 53.5701 10.3801 54.4039 10.3801H58.9299C59.7637 10.3801 60.4783 11.1001 60.4783 11.9401C60.4783 12.7801 59.7637 13.5001 58.9299 13.5001Z" fill="#F6F8FA"/>
<path d="M58.9299 18.06H54.4039C53.5701 18.06 52.8555 17.34 52.8555 16.5C52.8555 15.66 53.5701 14.94 54.4039 14.94H58.9299C59.7637 14.94 60.4783 15.66 60.4783 16.5C60.4783 17.34 59.7637 18.06 58.9299 18.06Z" fill="#F6F8FA"/>
<path d="M58.9299 22.62H54.4039C53.5701 22.62 52.8555 21.9 52.8555 21.06C52.8555 20.22 53.5701 19.5 54.4039 19.5H58.9299C59.7637 19.5 60.4783 20.22 60.4783 21.06C60.4783 21.9 59.7637 22.62 58.9299 22.62Z" fill="#F6F8FA"/>
<path d="M58.9299 27.18H54.4039C53.5701 27.18 52.8555 26.46 52.8555 25.62C52.8555 24.78 53.5701 24.06 54.4039 24.06H58.9299C59.7637 24.06 60.4783 24.78 60.4783 25.62C60.4783 26.46 59.7637 27.18 58.9299 27.18Z" fill="#F6F8FA"/>
<path d="M58.9299 31.74H54.4039C53.5701 31.74 52.8555 31.02 52.8555 30.18C52.8555 29.34 53.5701 28.62 54.4039 28.62H58.9299C59.7637 28.62 60.4783 29.34 60.4783 30.18C60.4783 31.02 59.7637 31.74 58.9299 31.74Z" fill="#F6F8FA"/>
<path d="M58.9299 36.18H54.4039C53.5701 36.18 52.8555 35.46 52.8555 34.62C52.8555 33.78 53.5701 33.06 54.4039 33.06H58.9299C59.7637 33.06 60.4783 33.78 60.4783 34.62C60.4783 35.46 59.7637 36.18 58.9299 36.18Z" fill="#F6F8FA"/>
<path d="M58.9299 40.86H54.4039C53.5701 40.86 52.8555 40.1401 52.8555 39.3001C52.8555 38.4601 53.5701 37.7401 54.4039 37.7401H58.9299C59.7637 37.7401 60.4783 38.4601 60.4783 39.3001C60.4783 40.1401 59.7637 40.86 58.9299 40.86Z" fill="#F6F8FA"/>
<path d="M58.9299 45.3001H54.4039C53.5701 45.3001 52.8555 44.5801 52.8555 43.7401C52.8555 42.9001 53.5701 42.1801 54.4039 42.1801H58.9299C59.7637 42.1801 60.4783 42.9001 60.4783 43.7401C60.4783 44.5801 59.7637 45.3001 58.9299 45.3001Z" fill="#F6F8FA"/>
<path d="M39.6366 22.62H20.1031C19.2693 22.62 18.5547 21.9 18.5547 21.06C18.5547 20.22 19.2693 19.5 20.1031 19.5H39.7557C40.5894 19.5 41.3041 20.22 41.3041 21.06C41.3041 21.9 40.4703 22.62 39.6366 22.62Z" fill="#F6F8FA"/>
<path d="M36.5386 25.6201C35.7049 25.6201 34.9902 24.9001 34.9902 24.0601V17.9401C34.9902 17.1001 35.7049 16.3801 36.5386 16.3801C37.3724 16.3801 38.087 17.1001 38.087 17.9401V24.0601C38.2061 24.9001 37.4915 25.6201 36.5386 25.6201Z" fill="#F6F8FA"/>
<path d="M32.1324 25.6201C31.2986 25.6201 30.584 24.9001 30.584 24.0601V17.9401C30.584 17.1001 31.2986 16.3801 32.1324 16.3801C32.9661 16.3801 33.6808 17.1001 33.6808 17.9401V24.0601C33.5617 24.9001 32.847 25.6201 32.1324 25.6201Z" fill="#F6F8FA"/>
<path d="M27.605 25.6201C26.7713 25.6201 26.0566 24.9001 26.0566 24.0601V17.9401C26.0566 17.1001 26.7713 16.3801 27.605 16.3801C28.4388 16.3801 29.1534 17.1001 29.1534 17.9401V24.0601C29.1534 24.9001 28.4388 25.6201 27.605 25.6201Z" fill="#F6F8FA"/>
<path d="M23.0796 25.6201C22.2459 25.6201 21.5312 24.9001 21.5312 24.0601V17.9401C21.5312 17.1001 22.2459 16.3801 23.0796 16.3801C23.9134 16.3801 24.5089 17.1001 24.5089 17.9401V24.0601C24.5089 24.9001 23.7943 25.6201 23.0796 25.6201Z" fill="#F6F8FA"/>
<path d="M39.6366 39.3001H20.1031C19.2693 39.3001 18.5547 38.5801 18.5547 37.7401C18.5547 36.9001 19.2693 36.1801 20.1031 36.1801H39.7557C40.5894 36.1801 41.3041 36.9001 41.3041 37.7401C41.3041 38.5801 40.4703 39.3001 39.6366 39.3001Z" fill="#F6F8FA"/>
<path d="M36.5386 42.3C35.7049 42.3 34.9902 41.58 34.9902 40.74V34.62C34.9902 33.78 35.7049 33.06 36.5386 33.06C37.3724 33.06 38.087 33.78 38.087 34.62V40.74C38.2061 41.58 37.4915 42.3 36.5386 42.3Z" fill="#F6F8FA"/>
<path d="M32.1324 42.3C31.2986 42.3 30.584 41.58 30.584 40.74V34.62C30.584 33.78 31.2986 33.06 32.1324 33.06C32.9661 33.06 33.6808 33.78 33.6808 34.62V40.74C33.5617 41.58 32.847 42.3 32.1324 42.3Z" fill="#F6F8FA"/>
<path d="M27.605 42.3C26.7713 42.3 26.0566 41.58 26.0566 40.74V34.62C26.0566 33.78 26.7713 33.06 27.605 33.06C28.4388 33.06 29.1534 33.78 29.1534 34.62V40.74C29.1534 41.58 28.4388 42.3 27.605 42.3Z" fill="#F6F8FA"/>
<path d="M23.0796 42.3C22.2459 42.3 21.5312 41.58 21.5312 40.74V34.62C21.5312 33.78 22.2459 33.06 23.0796 33.06C23.9134 33.06 24.628 33.78 24.628 34.62V40.74C24.5089 41.58 23.7943 42.3 23.0796 42.3Z" fill="#F6F8FA"/>
</g>
<defs>
<clipPath id="clip0_983_7093">
<rect width="61.9355" height="60" fill="white" transform="translate(0.0332031)"/>
</clipPath>
</defs>
</svg>
