<svg width="40" height="45" viewBox="0 0 40 45" fill="none" xmlns="http://www.w3.org/2000/svg">
<g clip-path="url(#clip0_966_18538)">
<path d="M36.6522 14.4109C36.4193 11.1756 34.0321 8.67562 31.0626 8.14621L31.8196 9.85209C31.9651 10.1756 31.9069 10.5286 31.674 10.7933C31.4411 11.058 31.0918 11.1168 30.7715 10.9992L24.0466 8.46974C23.6099 8.29327 23.4062 7.82268 23.5517 7.38151L26.0554 0.587388C26.2009 0.263859 26.492 0.0285645 26.8123 0.0285645C27.1907 0.0285645 27.4527 0.205035 27.5983 0.528564L28.821 3.26386C32.5765 2.05798 36.7686 3.88151 38.4571 7.58739C39.5051 9.91092 39.4178 12.5286 38.1951 14.7639C37.8166 15.4697 36.7104 15.2344 36.6522 14.4109ZM29.8399 6.32268C33.1296 6.32268 36.099 8.20503 37.5255 11.205C37.5837 10.205 37.38 9.20503 36.9724 8.26386C35.575 5.14621 31.8778 3.73445 28.7628 5.08739C28.3552 5.26386 27.8603 5.08739 27.6565 4.67562L26.9287 3.08739L25.444 7.17562L29.4906 8.70503L28.9666 7.55798C28.7046 6.99915 29.1121 6.38151 29.7235 6.35209C29.7526 6.32268 29.7817 6.32268 29.8399 6.32268Z" fill="#114493"/>
<path d="M11.5868 43.5286L10.3641 40.7933C6.60864 41.9992 2.4165 40.1756 0.728004 36.4697C-0.320031 34.1462 -0.232695 31.5286 0.990013 29.2933C1.39758 28.558 2.50384 28.7933 2.56207 29.6462C2.62029 30.4697 2.82407 31.2639 3.14431 31.9992C4.07589 34.058 5.96818 35.4992 8.12247 35.9109L7.36556 34.205C7.22 33.8815 7.27822 33.5286 7.51112 33.2639C7.74402 32.9992 8.09336 32.9403 8.41359 33.058L15.1385 35.5874C15.5752 35.7639 15.779 36.2345 15.6334 36.6756L13.1298 43.4697C12.8677 44.1756 11.907 44.205 11.5868 43.5286ZM10.8008 38.8815C11.121 38.8815 11.4121 39.058 11.5577 39.3815L12.2855 40.9697L13.7993 36.8815L9.75275 35.3521L10.2768 36.4992C10.3932 36.7639 10.3641 37.058 10.2185 37.2933C10.073 37.5286 9.81097 37.6756 9.51985 37.6756C9.46163 37.6756 9.43252 37.6756 9.37429 37.6756C6.08463 37.6756 3.1152 35.7933 1.6887 32.7933C1.63048 33.7933 1.83426 34.7933 2.24183 35.7345C3.63921 38.8521 7.33645 40.2639 10.4514 38.9109C10.5679 38.9109 10.6843 38.8815 10.8008 38.8815Z" fill="#114493"/>
<path d="M35.5169 28.205C36.4776 27.058 37.0598 25.5874 37.0598 23.9698V20.705C37.0598 11.8815 22.9987 11.8815 22.9987 20.705V23.9698C22.9987 25.5874 23.5809 27.058 24.5416 28.205C21.9215 29.0874 20.0583 31.5874 20.0583 34.4992V38.9992C20.0583 39.4698 20.4368 39.8521 20.9026 39.8521H39.185C39.6508 39.8521 40.0292 39.4698 40.0292 38.9992V34.4992C40.0001 31.558 38.137 29.0874 35.5169 28.205ZM35.3713 20.6462C34.0613 19.9109 32.955 18.2639 32.5765 17.558C32.2854 16.9992 31.4703 16.9403 31.1209 17.5286C29.6653 20.0286 26.2592 20.7345 24.6581 20.9109C24.6581 13.9109 35.3131 14.2639 35.3713 20.6462ZM24.6581 22.6168C26.2301 22.4698 29.6653 21.8521 31.7905 19.4698C32.5183 20.4992 33.7993 21.9698 35.3713 22.4992V23.9698C35.3713 30.558 24.6581 30.5286 24.6581 23.9698V22.6168ZM38.3116 38.1462H21.6886V34.4698C21.6886 31.9403 23.5809 29.8227 26.0554 29.558C28.3553 30.9992 31.7905 30.8815 33.8866 29.5874C33.8866 29.5874 33.9157 29.5874 33.9157 29.558C36.3902 29.8227 38.2825 31.9403 38.2825 34.4698V38.1462H38.3116Z" fill="#114493"/>
<path d="M16.4192 15.9991C17.3799 14.8521 17.9622 13.3815 17.9622 11.7638V8.52854C17.9622 -0.294994 3.90101 -0.294994 3.90101 8.52854V11.7932C3.90101 13.4109 4.48326 14.8815 5.44395 16.0285C2.82387 16.9109 0.960693 19.4109 0.960693 22.3227V26.7932C0.960693 27.2638 1.33915 27.6462 1.80494 27.6462H20.0873C20.5531 27.6462 20.9316 27.2638 20.9316 26.7932V22.2932C20.9025 19.3815 19.0393 16.8815 16.4192 15.9991ZM5.5604 8.52854C5.5604 1.96971 16.2154 1.96971 16.2736 8.46971C14.9636 7.73442 13.8573 6.08736 13.4789 5.38148C13.3333 5.11677 13.0713 4.9403 12.7511 4.9403C12.46 4.9403 12.1688 5.08736 12.0233 5.35207C10.5677 7.85207 7.16157 8.55795 5.5604 8.73442V8.52854ZM5.5604 10.4403C7.13245 10.2932 10.5677 9.67559 12.6929 7.29324C13.4207 8.32265 14.7016 9.79324 16.2736 10.3227V11.7932C16.2736 18.3815 5.5604 18.3521 5.5604 11.7932V10.4403ZM19.2431 25.9403H2.62008V22.2932C2.62008 19.7344 4.51237 17.6462 6.98689 17.3815C6.98689 17.3815 6.98689 17.3815 7.01601 17.3815C9.31586 18.7932 12.722 18.6756 14.8472 17.3815C14.8472 17.3815 14.8763 17.3815 14.8763 17.3521C17.3508 17.6168 19.2431 19.7344 19.2431 22.2638V25.9403Z" fill="#114493"/>
</g>
<defs>
<clipPath id="clip0_966_18538">
<rect width="40" height="44" fill="white" transform="translate(0 0.0285645)"/>
</clipPath>
</defs>
</svg>
