<svg width="76" height="76" viewBox="0 0 76 76" fill="none" xmlns="http://www.w3.org/2000/svg">
<g clip-path="url(#clip0_2481_142554)">
<path d="M5.80331 76C5.53688 76 5.27045 76 5.13723 75.8668C4.59105 75.6003 4.19141 75.0675 4.19141 74.4014V31.9059C4.19141 31.2398 4.59105 30.7069 5.13723 30.4405C5.67009 30.1741 6.4827 30.3073 6.88235 30.7069L33.4321 51.8881C33.8317 52.1545 34.1115 52.6874 34.1115 53.2202C34.1115 53.7531 33.845 54.1527 33.4321 54.5524L6.88235 75.6003C6.4827 75.8668 6.20295 76 5.80331 76ZM7.42853 35.3694V70.8046L29.6621 53.087L7.42853 35.3694Z" fill="white"/>
<path d="M70.2261 76C69.8265 76 69.4135 75.8668 69.1471 75.6004L42.5974 54.4192C42.1977 54.1528 41.918 53.6199 41.918 53.087C41.918 52.5542 42.1844 52.1545 42.5974 51.7549L69.1471 30.5737C69.6933 30.1741 70.3594 30.0409 70.9055 30.3073C71.4384 30.5737 71.8514 31.1066 71.8514 31.7726V74.2682C71.8514 74.9343 71.4517 75.4671 70.9055 75.7336C70.7723 76 70.5059 76 70.2261 76ZM46.3673 53.087L68.6009 70.8046V35.3694L46.3673 53.087Z" fill="white"/>
<path d="M70.2248 76H5.8021C5.13603 76 4.45663 75.6003 4.1902 74.9343C3.92377 74.2682 4.1902 73.4689 4.73639 73.0693L36.9478 47.2256C37.6271 46.6927 38.4264 46.6927 39.1058 47.2256L44.7675 51.7549L71.3172 72.9361C71.8501 73.3357 72.1298 74.135 71.8501 74.8011C71.5836 75.6004 70.9042 76 70.2382 76H70.2248ZM10.5312 72.6696H65.509L38.0135 50.6892L10.5312 72.6696Z" fill="white"/>
<path d="M43.6767 54.8188C43.2771 54.8188 42.8641 54.6856 42.5977 54.4192L38.0151 50.6892L33.4325 54.4192C32.7531 54.952 31.9538 54.952 31.2744 54.4192L4.73799 33.1048C4.33835 32.8384 4.05859 32.3055 4.05859 31.7726C4.05859 31.2398 4.32502 30.8401 4.73799 30.4405L17.4067 20.3162C17.9396 19.9165 18.619 19.7833 19.1652 20.0497C19.698 20.3162 20.111 20.849 20.111 21.5151V40.9645L32.2335 50.6892L36.8161 46.9592C37.4955 46.4263 38.2948 46.4263 38.9742 46.9592L43.5568 50.6892L55.4129 41.2309V21.3819C55.4129 20.7158 55.8126 20.183 56.3588 19.9165C56.9049 19.6501 57.7042 19.7833 58.1172 20.183L71.1856 30.5737C71.5852 30.8401 71.865 31.373 71.865 31.9059C71.865 32.4387 71.5986 32.8384 71.1856 33.238L44.7691 54.4192C44.5026 54.6856 44.0897 54.8188 43.69 54.8188H43.6767ZM58.9032 24.9787V38.833L67.5222 31.9059L58.9032 24.9787ZM8.50797 31.9059L16.8605 38.5666V25.2451L8.50797 31.9059Z" fill="white"/>
<path d="M57.2925 42.6963C56.3467 42.6963 55.5341 41.897 55.5341 40.9645V13.389L46.3689 4.33037H22.1238C21.0447 4.33037 20.0989 5.26288 20.0989 6.3286V40.9645C20.0989 41.897 19.2863 42.6963 18.3405 42.6963C17.3946 42.6963 16.582 41.897 16.582 40.9645V6.3286C16.582 3.39787 19.0065 1 21.9772 1H46.9017C47.3014 1 47.7144 1.13321 48.114 1.53286L58.225 11.524C58.4914 11.7904 58.7579 12.3233 58.7579 12.7229V41.0977C58.8911 41.897 58.0785 42.6963 57.2792 42.6963H57.2925Z" fill="white"/>
<path d="M57.2913 14.4547H47.1803C46.2345 14.4547 45.4219 13.6554 45.4219 12.7229V2.73179C45.4219 1.79929 46.2345 1 47.1803 1C48.1261 1 48.9254 1.79929 48.9254 2.73179V11.1243H57.4112C58.357 11.1243 59.1697 11.9236 59.1697 12.8561C58.9032 13.6554 58.0906 14.4547 57.278 14.4547H57.2913Z" fill="white"/>
<path d="M37.0677 27.7762H25.2116C24.2657 27.7762 23.4531 26.9769 23.4531 26.0444C23.4531 25.1119 24.2657 24.3126 25.2116 24.3126H37.0677C38.0135 24.3126 38.8128 25.1119 38.8128 26.0444C38.6796 26.9769 37.867 27.7762 37.0677 27.7762Z" fill="white"/>
<path d="M50.549 34.4369H25.2116C24.2657 34.4369 23.4531 33.6377 23.4531 32.7052C23.4531 31.7726 24.2657 30.9734 25.2116 30.9734H50.549C51.4949 30.9734 52.3075 31.7726 52.3075 32.7052C52.1743 33.6377 51.3617 34.4369 50.549 34.4369Z" fill="white"/>
<path d="M50.549 41.0977H25.2116C24.2657 41.0977 23.4531 40.2984 23.4531 39.3659C23.4531 38.4334 24.2657 37.6341 25.2116 37.6341H50.549C51.4949 37.6341 52.3075 38.4334 52.3075 39.3659C52.1743 40.2984 51.3617 41.0977 50.549 41.0977Z" fill="white"/>
<path d="M29.8855 20.2391C29.355 20.3691 28.7741 20.2371 28.3885 19.783L23.942 15.7977C23.2342 15.1482 23.2394 14.0497 23.7912 13.503C24.4536 12.7921 25.5651 12.7941 26.1118 13.3459L29.4837 16.3601L38.1681 8.19738C38.8622 7.61584 39.9737 7.61782 40.552 8.29904C41.1304 8.98026 41.1253 10.0788 40.4311 10.6603L30.5007 19.9512C30.3714 19.9829 30.1443 20.1757 29.8726 20.2423L29.8855 20.2391Z" fill="white"/>
</g>
<defs>
<clipPath id="clip0_2481_142554">
<rect width="75" height="75" fill="white" transform="translate(0.5 0.5)"/>
</clipPath>
</defs>
</svg>
