<svg width="172" height="115" viewBox="0 0 172 115" fill="none" xmlns="http://www.w3.org/2000/svg">
<g clip-path="url(#clip0_2481_139802)">
<path d="M84.506 112.011C81.7229 110.15 79.3568 107.73 77.5579 104.907C75.759 102.083 74.5665 98.9162 74.056 95.6073L73.2773 88.7495H40.2443L39.4656 95.6073C38.9551 98.9162 37.7626 102.083 35.9637 104.907C34.1648 107.73 31.7988 110.15 29.0156 112.011L27.3828 113.191H86.1137L84.506 112.011Z" fill="white"/>
<path d="M74.0553 95.6074L73.2766 88.7496H40.2436L39.4648 95.6074" fill="#D6D9E6"/>
<path fill-rule="evenodd" clip-rule="evenodd" d="M39.0528 88.6143C39.1216 88.0089 39.6338 87.5515 40.2431 87.5515H73.2761C73.8854 87.5515 74.3976 88.0089 74.4664 88.6143L75.2423 95.448C75.7295 98.5844 76.8615 101.586 78.567 104.263C80.2767 106.947 82.5255 109.246 85.1707 111.015C85.1853 111.025 85.1997 111.035 85.2138 111.045L86.8215 112.226C87.2389 112.532 87.4121 113.072 87.2508 113.564C87.0895 114.056 86.6303 114.389 86.1125 114.389H27.3816C26.8621 114.389 26.4019 114.054 26.2419 113.56C26.0819 113.066 26.2587 112.525 26.6797 112.221L28.3125 111.04C28.3243 111.031 28.3363 111.023 28.3485 111.015C30.9937 109.246 33.2424 106.947 34.9522 104.263C36.6577 101.586 37.7897 98.5844 38.2769 95.4479L39.0528 88.6143ZM41.3127 89.9473L40.6546 95.7424C40.6528 95.7583 40.6507 95.7741 40.6483 95.7899C40.1125 99.2628 38.8609 102.587 36.9728 105.55C35.396 108.025 33.404 110.204 31.0885 111.993H82.4307C80.1152 110.204 78.1232 108.025 76.5464 105.55C74.6583 102.587 73.4067 99.2628 72.8709 95.7899C72.8685 95.7741 72.8663 95.7583 72.8645 95.7424L72.2065 89.9473H41.3127Z" fill="#111111"/>
<path fill-rule="evenodd" clip-rule="evenodd" d="M17.8438 113.191C17.8438 112.53 18.3801 111.993 19.0417 111.993H170.19C170.851 111.993 171.387 112.53 171.387 113.191C171.387 113.853 170.851 114.389 170.19 114.389H19.0417C18.3801 114.389 17.8438 113.853 17.8438 113.191Z" fill="#111111"/>
<path d="M104.678 90.4326H8.84464C6.84595 90.4326 4.92913 89.6386 3.51585 88.2253C2.10257 86.812 1.30859 84.8952 1.30859 82.8965V13.6403C1.30859 11.6416 2.10257 9.72479 3.51585 8.3115C4.92913 6.89822 6.84595 6.10425 8.84464 6.10425H104.678C106.677 6.10425 108.593 6.89822 110.007 8.3115C111.42 9.72479 112.214 11.6416 112.214 13.6403V82.8965C112.214 84.8952 111.42 86.812 110.007 88.2253C108.593 89.6386 106.677 90.4326 104.678 90.4326Z" fill="white"/>
<mask id="mask0_2481_139802" style="mask-type:luminance" maskUnits="userSpaceOnUse" x="1" y="6" width="112" height="85">
<path d="M104.679 6.00378H8.8709C4.65336 6.00378 1.23438 9.42277 1.23438 13.6403V82.7961C1.23438 87.0136 4.65336 90.4326 8.8709 90.4326H104.679C108.897 90.4326 112.316 87.0136 112.316 82.7961V13.6403C112.316 9.42277 108.897 6.00378 104.679 6.00378Z" fill="white"/>
</mask>
<g mask="url(#mask0_2481_139802)">
<path d="M113.472 6.48108H0.0546875V73.9538H113.472V6.48108Z" fill="#D7DBE8"/>
</g>
<path fill-rule="evenodd" clip-rule="evenodd" d="M8.8696 7.20162C5.31365 7.20162 2.43099 10.0843 2.43099 13.6402V82.796C2.43099 86.3519 5.31365 89.2346 8.8696 89.2346H104.678C108.234 89.2346 111.116 86.3519 111.116 82.796V13.6402C111.116 10.0843 108.234 7.20162 104.678 7.20162H8.8696ZM0.0351562 13.6402C0.0351562 8.7611 3.99047 4.80579 8.8696 4.80579H104.678C109.557 4.80579 113.512 8.7611 113.512 13.6402V82.796C113.512 87.6751 109.557 91.6304 104.678 91.6304H8.8696C3.99047 91.6304 0.0351562 87.6751 0.0351562 82.796V13.6402Z" fill="#111111"/>
<path d="M100.334 29.9935H40.8242V66.9955H100.334V29.9935Z" fill="#6099FF"/>
<path d="M36.5783 25.7733H72.701V19.6942H13.1914V56.6962H36.5783V25.7733Z" fill="#7C88A7"/>
<path d="M130.124 52.7523C130.161 50.5328 130.897 48.3814 132.227 46.6044C133.558 44.8274 135.415 43.5154 137.534 42.855C136.342 42.4619 135.096 42.2585 133.841 42.2521C132.423 42.212 131.01 42.4518 129.684 42.9579C128.358 43.4639 127.145 44.2263 126.114 45.2014C125.083 46.1766 124.254 47.3454 123.675 48.641C123.096 49.9366 122.777 51.3337 122.738 52.7523C122.817 55.6197 124.031 58.3385 126.112 60.3119C128.194 62.2853 130.974 63.352 133.841 63.2777C135.09 63.312 136.336 63.1509 137.534 62.8004C135.392 62.1287 133.52 60.793 132.188 58.9866C130.856 57.1802 130.133 54.9968 130.124 52.7523Z" fill="white"/>
<path d="M144.945 52.7523C144.9 50.5169 144.145 48.3537 142.791 46.5748C141.436 44.7959 139.552 43.4933 137.409 42.855C135.266 43.4813 133.383 44.7857 132.044 46.5724C130.704 48.3591 129.98 50.5319 129.98 52.7649C129.98 54.9978 130.704 57.1706 132.044 58.9574C133.383 60.7441 135.266 62.0484 137.409 62.6748C139.554 62.0316 141.439 60.7244 142.793 58.9412C144.148 57.158 144.901 54.991 144.945 52.7523Z" fill="#D6D9E6"/>
<path d="M131.38 69.3064H123.995C120.281 69.2048 116.677 70.5769 113.971 73.1231C111.264 75.6693 109.675 79.1828 109.551 82.8964V109.197H116.936V82.8964C117.041 79.1673 118.621 75.6321 121.328 73.0657C124.036 70.4994 127.651 69.1114 131.38 69.206" fill="white"/>
<path d="M143.665 69.3065H131.382C127.669 69.2115 124.069 70.5858 121.364 73.1306C118.66 75.6754 117.069 79.1851 116.938 82.8965V109.197H158.135V82.8965C158.029 79.1629 156.446 75.6238 153.733 73.0567C151.02 70.4897 147.399 69.1047 143.665 69.206" fill="#D6D9E6"/>
<path fill-rule="evenodd" clip-rule="evenodd" d="M125.422 44.4958C127.706 42.361 130.715 41.1735 133.841 41.1735C136.966 41.1735 139.976 42.361 142.259 44.4958C144.542 46.6306 145.929 49.5531 146.139 52.6719C146.143 52.7254 146.143 52.7792 146.139 52.8327C145.929 55.9515 144.542 58.874 142.259 61.0088C139.976 63.1436 136.966 64.3311 133.841 64.3311C130.715 64.3311 127.706 63.1436 125.422 61.0088C123.139 58.874 121.752 55.9515 121.542 52.8327C121.539 52.7792 121.539 52.7254 121.542 52.6719C121.752 49.5531 123.139 46.6306 125.422 44.4958ZM133.841 43.5693C131.322 43.5693 128.898 44.526 127.059 46.2459C125.239 47.9474 124.126 50.27 123.939 52.7523C124.126 55.2346 125.239 57.5573 127.059 59.2587C128.898 60.9786 131.322 61.9353 133.841 61.9353C136.359 61.9353 138.783 60.9786 140.623 59.2587C142.442 57.5573 143.555 55.2346 143.743 52.7523C143.555 50.27 142.442 47.9474 140.623 46.2459C138.783 44.526 136.359 43.5693 133.841 43.5693ZM152.899 73.9438C150.418 71.5999 147.108 70.3358 143.695 70.4286C143.684 70.4289 143.673 70.429 143.663 70.429H123.994C123.983 70.429 123.973 70.4289 123.963 70.4286C120.555 70.342 117.251 71.6089 114.774 73.9522C112.301 76.2914 110.854 79.5132 110.747 82.9148V109.172C110.747 109.834 110.211 110.37 109.549 110.37C108.888 110.37 108.352 109.834 108.352 109.172V82.8965C108.352 82.8845 108.352 82.8725 108.352 82.8606C108.473 78.8193 110.19 74.9905 113.127 72.2118C116.06 69.4367 119.972 67.9347 124.009 68.0332H143.647C147.687 67.9277 151.606 69.4264 154.544 72.202C157.487 74.9815 159.208 78.8145 159.329 82.8606C159.33 82.8726 159.33 82.8845 159.33 82.8965V109.172C159.33 109.834 158.793 110.37 158.132 110.37C157.47 110.37 156.934 109.834 156.934 109.172V82.9149C156.827 79.5092 155.377 76.2838 152.899 73.9438Z" fill="#111111"/>
<path d="M98.7737 112.789H139.217L128.541 81.7158H88.0977L98.7737 112.789Z" fill="white"/>
<path fill-rule="evenodd" clip-rule="evenodd" d="M87.1253 81.0199C87.3501 80.7049 87.7133 80.5179 88.1003 80.5179H128.544C129.055 80.5179 129.51 80.8428 129.677 81.3266L140.353 112.4C140.478 112.766 140.42 113.17 140.195 113.485C139.97 113.8 139.607 113.987 139.22 113.987H98.7763C98.2648 113.987 97.8096 113.663 97.6434 113.179L86.9674 82.1051C86.8416 81.7391 86.9004 81.3349 87.1253 81.0199ZM89.7785 82.9138L99.6314 111.592H137.542L127.689 82.9138H89.7785Z" fill="#111111"/>
<path fill-rule="evenodd" clip-rule="evenodd" d="M126.057 0.298316C126.614 0.0528112 127.217 -0.0739746 127.826 -0.0739746C128.435 -0.0739746 129.037 0.0528127 129.595 0.298316C130.152 0.543821 130.652 0.902667 131.063 1.35202C131.474 1.80137 131.787 2.33138 131.983 2.90834C132.166 3.45163 132.242 4.02535 132.205 4.59701C132.242 5.16867 132.166 5.74239 131.983 6.28568C131.787 6.86264 131.474 7.39265 131.063 7.842C130.652 8.29136 130.152 8.6502 129.595 8.89571C129.037 9.14121 128.435 9.268 127.826 9.268C127.217 9.268 126.614 9.14121 126.057 8.89571C125.499 8.6502 124.999 8.29136 124.588 7.842C124.177 7.39265 123.864 6.86264 123.669 6.28568C123.485 5.74239 123.41 5.16867 123.447 4.59701C123.41 4.02535 123.485 3.45163 123.669 2.90834C123.864 2.33138 124.177 1.80137 124.588 1.35202C124.999 0.902667 125.499 0.543821 126.057 0.298316ZM127.826 2.32186C127.549 2.32186 127.276 2.37942 127.023 2.49089C126.77 2.60235 126.542 2.76528 126.356 2.96929C126.169 3.17331 126.027 3.41395 125.938 3.6759C125.85 3.93786 125.817 4.21539 125.841 4.49082C125.847 4.56147 125.847 4.63255 125.841 4.7032C125.817 4.97863 125.85 5.25616 125.938 5.51812C126.027 5.78007 126.169 6.02071 126.356 6.22473C126.542 6.42874 126.77 6.59167 127.023 6.70313C127.276 6.8146 127.549 6.87216 127.826 6.87216C128.102 6.87216 128.376 6.8146 128.629 6.70313C128.882 6.59167 129.109 6.42874 129.296 6.22473C129.482 6.02071 129.624 5.78007 129.713 5.51812C129.802 5.25616 129.835 4.97863 129.81 4.7032C129.804 4.63255 129.804 4.56147 129.81 4.49082C129.835 4.21539 129.802 3.93786 129.713 3.6759C129.624 3.41395 129.482 3.17331 129.296 2.96929C129.109 2.76528 128.882 2.60235 128.629 2.49089C128.376 2.37942 128.102 2.32186 127.826 2.32186ZM141.328 18.8982C141.989 18.8982 142.526 19.4345 142.526 20.0961V24.2237H146.452C147.114 24.2237 147.65 24.76 147.65 25.4216C147.65 26.0832 147.114 26.6195 146.452 26.6195H142.526V30.7722C142.526 31.4338 141.989 31.9701 141.328 31.9701C140.666 31.9701 140.13 31.4338 140.13 30.7722V26.6195H136.027C135.366 26.6195 134.829 26.0832 134.829 25.4216C134.829 24.76 135.366 24.2237 136.027 24.2237H140.13V20.0961C140.13 19.4345 140.666 18.8982 141.328 18.8982Z" fill="#6099FF"/>
<path d="M82.9807 79.3354C82.6766 79.7737 82.3636 80.2522 82.0416 80.771C81.7285 81.2897 81.4289 81.7638 81.1426 82.1931C81.0174 82.3631 80.8832 82.4794 80.7401 82.542C80.597 82.5956 80.4405 82.6225 80.2706 82.6225C80.1274 82.6225 79.9754 82.5912 79.8144 82.5285C79.6534 82.4659 79.5237 82.3497 79.4253 82.1797L77.6141 79.2683V84.8362C77.6141 85.2029 77.4933 85.4668 77.2518 85.6278C77.0192 85.7888 76.7554 85.8693 76.4602 85.8693C76.3082 85.8693 76.1606 85.8469 76.0175 85.8022C75.8833 85.7664 75.7626 85.7038 75.6552 85.6144C75.5479 85.5339 75.4584 85.4265 75.3869 85.2924C75.3243 85.1672 75.293 85.0151 75.293 84.8362V76.7057C75.293 76.3748 75.4092 76.1243 75.6418 75.9544C75.8833 75.7844 76.1561 75.6995 76.4602 75.6995C76.6481 75.6995 76.818 75.7129 76.9701 75.7397C77.1221 75.7576 77.2607 75.8023 77.386 75.8739C77.5112 75.9365 77.6319 76.0259 77.7482 76.1422C77.8645 76.2585 77.9808 76.4061 78.0971 76.585L80.2706 79.9928L82.5246 76.585C82.7482 76.254 82.9718 76.0259 83.1954 75.9007C83.4279 75.7665 83.741 75.6995 84.1346 75.6995C84.4566 75.6995 84.7294 75.7844 84.953 75.9544C85.1766 76.1243 85.2884 76.3748 85.2884 76.7057V84.8362C85.2884 85.0151 85.2526 85.1672 85.1811 85.2924C85.1184 85.4265 85.0335 85.5339 84.9261 85.6144C84.8188 85.7038 84.6936 85.7664 84.5505 85.8022C84.4163 85.8469 84.2777 85.8693 84.1346 85.8693C83.9914 85.8693 83.8483 85.8469 83.7052 85.8022C83.5711 85.7664 83.4503 85.7038 83.343 85.6144C83.2356 85.5339 83.1462 85.4265 83.0746 85.2924C83.012 85.1672 82.9807 85.0151 82.9807 84.8362V79.3354Z" fill="#111111"/>
<path d="M69.2791 85.9364C68.6887 85.9364 68.1431 85.8782 67.6422 85.762C67.1503 85.6546 66.721 85.4713 66.3542 85.2119C65.9965 84.9614 65.7147 84.635 65.509 84.2325C65.3033 83.83 65.1959 83.338 65.187 82.7566C65.1691 82.1126 65.1602 81.4731 65.1602 80.838C65.1602 80.194 65.1691 79.5366 65.187 78.8658C65.1959 78.2934 65.3033 77.8059 65.509 77.4034C65.7237 77.0009 66.0099 76.6744 66.3677 76.424C66.7344 76.1646 67.1637 75.9812 67.6557 75.8739C68.1565 75.7576 68.6977 75.6995 69.2791 75.6995C69.8426 75.6995 70.3658 75.7621 70.8488 75.8873C71.3318 76.0036 71.7522 76.1914 72.11 76.4508C72.4767 76.7012 72.7674 77.0277 72.9821 77.4302C73.2057 77.8238 73.3309 78.3023 73.3577 78.8658C73.3846 79.5098 73.3935 80.1672 73.3846 80.838C73.3846 81.5089 73.3756 82.1484 73.3577 82.7566C73.3488 83.3201 73.237 83.8031 73.0223 84.2056C72.8077 84.6081 72.517 84.9346 72.1502 85.185C71.7835 85.4444 71.3542 85.6323 70.8622 85.7485C70.3703 85.8738 69.8426 85.9364 69.2791 85.9364ZM71.1306 78.8658C71.1127 78.347 70.9383 77.9669 70.6073 77.7254C70.2764 77.4749 69.8336 77.3497 69.2791 77.3497C68.6977 77.3497 68.246 77.4749 67.924 77.7254C67.6109 77.9758 67.4455 78.3604 67.4276 78.8792C67.4007 80.1762 67.4007 81.4686 67.4276 82.7566C67.4455 83.2844 67.6109 83.669 67.924 83.9105C68.246 84.152 68.6977 84.2727 69.2791 84.2727C69.8247 84.2727 70.2585 84.1475 70.5805 83.897C70.9114 83.6377 71.0948 83.253 71.1306 82.7432C71.1753 82.1082 71.1887 81.4731 71.1708 80.838C71.1619 80.203 71.1485 79.5456 71.1306 78.8658Z" fill="#111111"/>
<path d="M59.1351 75.6995C59.7075 75.6995 60.2442 75.7576 60.7451 75.8739C61.246 75.9812 61.6798 76.1646 62.0465 76.424C62.4221 76.6744 62.7128 77.0009 62.9186 77.4034C63.1332 77.8059 63.2406 78.2934 63.2406 78.8658V82.6895C63.2406 83.2709 63.1332 83.7629 62.9186 84.1654C62.7128 84.5679 62.4221 84.8944 62.0465 85.1448C61.6798 85.4042 61.246 85.5875 60.7451 85.6949C60.2442 85.8112 59.7075 85.8693 59.1351 85.8693H56.3981C56.0582 85.8693 55.7988 85.7799 55.6199 85.601C55.441 85.431 55.3516 85.1985 55.3516 84.9033V76.6118C55.3516 76.3614 55.45 76.1467 55.6467 75.9678C55.8435 75.7889 56.0984 75.6995 56.4115 75.6995H59.1351ZM57.6726 84.1922H59.1351C59.7075 84.1922 60.1458 84.0715 60.4499 83.83C60.763 83.5885 60.9195 83.2083 60.9195 82.6895V78.8658C60.9195 78.347 60.763 77.9669 60.4499 77.7254C60.1458 77.4749 59.7075 77.3497 59.1351 77.3497H57.6726V84.1922Z" fill="#111111"/>
<path d="M49.4532 84.2721C49.7216 84.2721 49.972 84.2497 50.2046 84.205C50.4461 84.1603 50.6518 84.0887 50.8218 83.9903C50.9917 83.8919 51.1259 83.7667 51.2243 83.6146C51.3226 83.4626 51.3718 83.2837 51.3718 83.078C51.3718 82.8454 51.3137 82.6442 51.1974 82.4742C51.0901 82.3043 50.9425 82.1567 50.7547 82.0315C50.5668 81.8973 50.3522 81.781 50.1107 81.6826C49.8692 81.5843 49.6187 81.4903 49.3593 81.4009C48.9568 81.2578 48.5409 81.1057 48.1116 80.9447C47.6912 80.7748 47.3066 80.578 46.9577 80.3544C46.6179 80.1218 46.3361 79.849 46.1125 79.536C45.8978 79.2229 45.7905 78.8473 45.7905 78.409C45.7905 77.8723 45.9202 77.4296 46.1796 77.0807C46.439 76.7229 46.7699 76.4412 47.1724 76.2355C47.5749 76.0208 48.0266 75.8688 48.5275 75.7793C49.0284 75.6899 49.5203 75.6451 50.0033 75.6451C50.2448 75.6451 50.5132 75.6586 50.8083 75.6854C51.1035 75.7033 51.3897 75.7391 51.667 75.7927C51.9532 75.8464 52.2171 75.9135 52.4586 75.994C52.709 76.0745 52.9013 76.1729 53.0355 76.2891C53.1428 76.3786 53.2144 76.4859 53.2502 76.6111C53.2949 76.7274 53.3173 76.8348 53.3173 76.9331C53.3083 77.1478 53.2546 77.3178 53.1562 77.443C53.0579 77.5593 52.9371 77.6398 52.794 77.6845C52.6598 77.7292 52.5078 77.7471 52.3378 77.7381C52.1768 77.7292 52.0292 77.6979 51.8951 77.6442C51.5641 77.5369 51.2511 77.4474 50.9559 77.3759C50.6608 77.3043 50.3432 77.2686 50.0033 77.2686C49.4577 77.2686 49.006 77.3491 48.6482 77.5101C48.2994 77.6621 48.125 77.917 48.125 78.2748C48.125 78.4805 48.1831 78.6594 48.2994 78.8115C48.4157 78.9635 48.5678 79.1022 48.7556 79.2274C48.9524 79.3437 49.176 79.451 49.4264 79.5494C49.6858 79.6478 49.9541 79.7417 50.2314 79.8311L50.9693 80.0861C51.3092 80.2113 51.6402 80.3544 51.9622 80.5154C52.2931 80.6764 52.5838 80.8687 52.8342 81.0923C53.0936 81.3159 53.2994 81.5753 53.4514 81.8705C53.6124 82.1656 53.6929 82.51 53.6929 82.9036C53.6929 83.4223 53.5901 83.874 53.3843 84.2586C53.1786 84.6433 52.8879 84.9608 52.5123 85.2112C52.1455 85.4617 51.7072 85.645 51.1974 85.7613C50.6876 85.8865 50.1286 85.9491 49.5203 85.9491C48.6259 85.9491 47.8701 85.8418 47.2529 85.6271C46.6358 85.4125 46.1841 85.162 45.8978 84.8758C45.8084 84.8043 45.7413 84.7193 45.6966 84.6209C45.6519 84.5225 45.625 84.4241 45.6161 84.3257C45.5982 84.1647 45.6161 84.0216 45.6697 83.8964C45.7234 83.7712 45.795 83.6683 45.8844 83.5878C45.9828 83.5073 46.0901 83.4492 46.2064 83.4134C46.3227 83.3687 46.4434 83.3463 46.5687 83.3463C46.7028 83.3463 46.837 83.3687 46.9712 83.4134C47.1143 83.4581 47.235 83.5207 47.3334 83.6012C47.4765 83.6996 47.6152 83.7891 47.7493 83.8696C47.8835 83.9501 48.0311 84.0216 48.1921 84.0842C48.3531 84.1379 48.5364 84.1826 48.7422 84.2184C48.9479 84.2542 49.1849 84.2721 49.4532 84.2721Z" fill="#111111"/>
<path d="M41.8438 76.6923C41.8438 76.3524 41.9645 76.102 42.206 75.941C42.4564 75.78 42.7337 75.6995 43.0378 75.6995C43.1809 75.6995 43.3196 75.7218 43.4538 75.7665C43.5969 75.8023 43.7221 75.8605 43.8294 75.941C43.9368 76.0215 44.0217 76.1243 44.0843 76.2495C44.1469 76.3748 44.1783 76.5224 44.1783 76.6923V84.8362C44.1783 85.0151 44.1469 85.1672 44.0843 85.2924C44.0217 85.4265 43.9368 85.5339 43.8294 85.6144C43.7221 85.7038 43.5969 85.7664 43.4538 85.8022C43.3196 85.8469 43.1809 85.8693 43.0378 85.8693C42.8858 85.8693 42.7382 85.8469 42.5951 85.8022C42.452 85.7664 42.3223 85.7038 42.206 85.6144C42.0987 85.5339 42.0092 85.4265 41.9377 85.2924C41.8751 85.1672 41.8438 85.0151 41.8438 84.8362V76.6923Z" fill="#111111"/>
<path d="M38.1234 84.9964C38.0339 85.2557 37.8774 85.4749 37.6538 85.6538C37.4302 85.8416 37.0858 85.9355 36.6207 85.9355C36.1824 85.9355 35.8515 85.8505 35.6279 85.6806C35.4043 85.5107 35.2478 85.2915 35.1583 85.0232L33.602 80.0054L32.0591 85.0232C31.9786 85.2915 31.822 85.5107 31.5895 85.6806C31.3659 85.8505 31.0304 85.9355 30.5832 85.9355C30.3417 85.9355 30.136 85.9087 29.9661 85.855C29.7961 85.8103 29.653 85.7432 29.5367 85.6538C29.4204 85.5733 29.3265 85.4749 29.255 85.3586C29.1834 85.2513 29.1253 85.1305 29.0806 84.9964L26.7461 76.9866C26.7103 76.8703 26.6969 76.7496 26.7058 76.6244C26.7148 76.4902 26.7461 76.365 26.7997 76.2487C26.8623 76.1324 26.9518 76.0295 27.0681 75.9401C27.1843 75.8507 27.3319 75.788 27.5108 75.7523C27.8418 75.6807 28.1324 75.6897 28.3829 75.7791C28.6423 75.8596 28.8212 76.0564 28.9196 76.3694L30.5832 83.0375L32.5018 76.3158C32.5376 76.1905 32.6449 76.0609 32.8238 75.9267C33.0116 75.7836 33.2889 75.712 33.6556 75.712C33.9866 75.712 34.237 75.7836 34.407 75.9267C34.5769 76.0698 34.6798 76.204 34.7156 76.3292L36.6073 83.0375L38.2844 76.3829C38.3828 76.0609 38.5661 75.8551 38.8345 75.7657C39.1118 75.6673 39.4293 75.6673 39.7871 75.7657C39.9659 75.8104 40.1091 75.882 40.2164 75.9804C40.3237 76.0698 40.4042 76.1727 40.4579 76.2889C40.5116 76.3963 40.5384 76.5125 40.5384 76.6378C40.5384 76.763 40.5205 76.8793 40.4847 76.9866L38.1234 84.9964Z" fill="#111111"/>
</g>
<defs>
<clipPath id="clip0_2481_139802">
<rect width="171.947" height="115" fill="white" transform="translate(0.0507812)"/>
</clipPath>
</defs>
</svg>
