<svg width="82" height="78" viewBox="0 0 82 78" fill="none" xmlns="http://www.w3.org/2000/svg">
<path d="M35.2742 45.2116C36.5475 45.2116 37.5797 44.1816 37.5797 42.911C37.5797 41.6404 36.5475 40.6104 35.2742 40.6104C34.0009 40.6104 32.9688 41.6404 32.9688 42.911C32.9688 44.1816 34.0009 45.2116 35.2742 45.2116Z" stroke="white" stroke-width="3" stroke-miterlimit="10" stroke-linecap="round" stroke-linejoin="round"/>
<path d="M44.9628 35.352C46.6096 37.4554 47.5976 40.0847 47.5976 42.9111C47.5976 49.6815 42.1304 55.1372 35.3457 55.1372C28.561 55.1372 23.0938 49.6815 23.0938 42.9111C23.0938 36.1407 28.561 30.685 35.3457 30.685C36.8607 30.685 38.3099 30.9479 39.6932 31.4738" stroke="white" stroke-width="3" stroke-miterlimit="10" stroke-linecap="round" stroke-linejoin="round"/>
<path d="M52.9966 28.2528C56.2901 32.2624 58.3321 37.3238 58.3321 42.911C58.3321 55.5973 48.0563 65.9172 35.2774 65.9172C22.4985 65.9172 12.2227 55.663 12.2227 42.911C12.2227 30.159 22.4985 19.9048 35.2774 19.9048C39.8883 19.9048 44.104 21.2195 47.7269 23.5201" stroke="white" stroke-width="3" stroke-miterlimit="10" stroke-linecap="round" stroke-linejoin="round"/>
<path d="M60.9627 21.1538C65.9689 27.0039 68.9331 34.6288 68.9331 42.911C68.9331 61.4474 53.8487 76.5 35.2732 76.5C16.6977 76.5 1.61328 61.4474 1.61328 42.911C1.61328 24.3746 16.6977 9.32202 35.2732 9.32202C43.3094 9.32202 50.7528 12.1485 56.5494 16.8812" stroke="white" stroke-width="3" stroke-miterlimit="10" stroke-linecap="round" stroke-linejoin="round"/>
<path d="M71.9732 10.2422L36.0078 42.6481" stroke="white" stroke-width="3" stroke-miterlimit="10" stroke-linecap="round" stroke-linejoin="round"/>
<path d="M71.9577 10.2423L71.4308 1.5L63.3945 8.99343L63.9874 17.7358L72.3529 18.5903L80.3892 11.0969L71.9577 10.2423Z" stroke="white" stroke-width="3" stroke-miterlimit="10" stroke-linecap="round" stroke-linejoin="round"/>
</svg>
