<svg width="125" height="124" viewBox="0 0 125 124" fill="none" xmlns="http://www.w3.org/2000/svg">
<g clip-path="url(#clip0_2418_105599)">
<path d="M39.1895 107.321H31.6895V122.364H39.1895V107.321Z" fill="white"/>
<path d="M16.8915 96.3827V80.4374H11.306C9.03118 80.4374 7.79244 77.7535 9.27892 76.0169L16.8465 67.1083C18.6483 64.9883 19.6393 62.2819 19.6393 59.4852V59.4401C19.6393 38.8037 35.36 21.8661 55.4726 19.9716C55.1573 19.9491 54.8645 19.904 54.5492 19.8814C31.396 18.3252 12.1168 36.6386 12.1168 59.4627V59.5078C12.1168 62.3044 11.1258 64.9883 9.32397 67.1309L1.7564 76.0395C0.269916 77.7761 1.50866 80.4599 3.80595 80.4599H9.39154V96.4052C9.39154 102.45 14.2789 107.344 20.315 107.344H27.815C21.7789 107.321 16.8915 102.427 16.8915 96.3827Z" fill="white"/>
<path d="M84.8195 81.2494C89.2339 74.5285 91.6888 66.3641 91.2834 57.6134C90.3825 37.9919 74.9096 21.7985 55.4501 19.9943C35.36 21.8888 19.6168 38.8489 19.6168 59.4628V59.5079C19.6168 62.3045 18.6258 64.9884 16.824 67.1084L9.2564 76.017C7.76992 77.7536 9.00865 80.4375 11.306 80.4375H16.8915V96.3827C16.8915 102.427 21.7789 107.321 27.815 107.321H31.6888H39.1888V122.364H76.7564V108.765C76.7564 98.9989 79.4591 89.3912 84.8195 81.2494Z" fill="#6099FF"/>
<path fill-rule="evenodd" clip-rule="evenodd" d="M11.1174 59.4627C11.1174 36.065 30.8819 17.2644 54.5968 18.9289C74.9929 20.3401 91.3362 37.1251 92.283 57.567C92.6984 66.5348 90.2051 74.9071 85.655 81.7997C85.6549 81.7999 85.6547 81.8 85.6546 81.8002L84.8201 81.2493L85.6553 81.7992C85.6552 81.7994 85.6551 81.7995 85.655 81.7997C80.409 89.768 77.757 99.182 77.757 108.764V122.364C77.757 122.916 77.3093 123.364 76.757 123.364C76.2047 123.364 75.757 122.916 75.757 122.364V108.764C75.757 98.8159 78.5103 89.0146 83.9848 80.6994L83.9855 80.6984C88.3091 74.1492 90.6805 66.193 90.2851 57.6596C89.3851 38.2272 73.8368 22.2647 54.4583 20.9241L54.4573 20.9241C31.9112 19.3412 13.1174 37.2123 13.1174 59.4627V59.5078C13.1174 62.5421 12.0418 65.4553 10.0867 67.7557L9.32459 67.1083L10.0866 67.7559L2.51916 76.6643L2.51672 76.6672C1.58988 77.75 2.3567 79.4374 3.80657 79.4374H9.39216C9.94444 79.4374 10.3922 79.8851 10.3922 80.4374V96.3827C10.3922 101.876 14.8331 106.321 20.3156 106.321H31.6895C32.2417 106.321 32.6895 106.769 32.6895 107.321V122.364C32.6895 122.916 32.2417 123.364 31.6895 123.364C31.1372 123.364 30.6895 122.916 30.6895 122.364V108.321H31.6895V107.321H30.6895V108.321H20.3156C13.726 108.321 8.39216 102.978 8.39216 96.3827V81.4374H9.39216V80.4374H8.39216V81.4374H3.80657C0.662467 81.4374 -1.04814 77.7585 0.996111 75.368L0.994882 75.3695L1.75702 76.0169L0.997324 75.3666L8.56245 66.4609L8.56261 66.4607C10.2111 64.5211 11.1174 62.0667 11.1174 59.5078V59.4627Z" fill="#111111"/>
<path d="M95.8549 91.6916H87.972C85.7423 91.6916 83.918 89.8873 83.918 87.6319V82.4897H99.909V87.6319C99.909 89.8873 98.0846 91.6916 95.8549 91.6916Z" fill="#111111"/>
<path d="M95.8549 91.6916H87.972C85.7423 91.6916 83.918 89.8873 83.918 87.6319V82.4897H99.909V87.6319C99.909 89.8873 98.0846 91.6916 95.8549 91.6916Z" stroke="#111111" stroke-width="1.299" stroke-miterlimit="10" stroke-linecap="round" stroke-linejoin="round"/>
<path d="M85.5181 75.6336V71.7318C85.5181 66.0709 83.3334 60.5679 79.2794 56.621C73.1307 50.6443 69.347 42.2319 69.5497 32.9173C69.8875 17.2878 81.6443 4.29704 96.7118 1.99659C95.0001 1.7485 93.2434 1.61318 91.4415 1.63573C74.3695 1.88382 60.3379 15.8218 59.9551 32.9173C59.7524 42.2319 63.5136 50.6443 69.6848 56.621C73.7388 60.5679 75.9235 66.0709 75.9235 71.7318V75.6336C75.9235 81.317 80.5181 85.8954 86.1713 85.8954H95.7659C90.1127 85.8954 85.5181 81.2945 85.5181 75.6336Z" fill="white"/>
<path d="M107.883 75.6336V71.6867C107.883 65.8905 110.293 60.4326 114.415 56.3504C120.248 50.5542 123.874 42.5251 123.874 33.6391C123.874 17.6036 112.095 4.34217 96.7344 2.01917C81.6669 4.31962 69.9101 17.2878 69.5723 32.9399C69.3696 42.2545 73.1308 50.6669 79.302 56.6436C83.3786 60.5904 85.5407 66.0935 85.5407 71.7544V75.6561C85.5407 81.3396 90.1353 85.9179 95.7885 85.9179H97.6353C103.288 85.8954 107.883 81.2945 107.883 75.6336Z" fill="#E1E3EE"/>
<path fill-rule="evenodd" clip-rule="evenodd" d="M91.4266 0.635818C109.846 0.379961 124.873 15.2658 124.873 33.639C124.873 42.803 121.132 51.0839 115.119 57.0595C111.194 60.9677 108.882 66.1755 108.882 71.6867V75.6335C108.882 81.844 103.865 86.8953 97.6342 86.8953H86.1928C79.9875 86.8953 74.945 81.8694 74.945 75.6335V71.7318C74.945 66.3214 72.8786 61.0842 69.0107 57.3394C62.6479 51.1772 58.7678 42.4997 58.9768 32.8956C59.3488 15.2625 73.816 0.891732 91.4266 0.635818ZM122.873 33.639C122.873 16.3779 108.755 2.39531 91.4544 2.63563C74.9214 2.87622 61.3253 16.381 60.9763 32.9384C60.7799 41.9634 64.4225 50.1116 70.402 55.9027C74.6872 60.0515 76.945 65.8204 76.945 71.7318V75.6335C76.945 80.7646 81.0918 84.8953 86.1928 84.8953H97.6342C102.755 84.8953 106.882 80.7449 106.882 75.6335V71.6867C106.882 65.6057 109.434 59.8979 113.708 55.6418L113.709 55.641C119.361 50.0241 122.873 42.2471 122.873 33.639Z" fill="#111111"/>
<path d="M87.6579 71.7092L107.906 71.6866V75.6335C107.906 81.2944 103.311 85.8953 97.6579 85.8953H86.2165C80.5408 85.8953 75.9688 81.2944 75.9688 75.6335V71.7318H81.2841" fill="white"/>
<path fill-rule="evenodd" clip-rule="evenodd" d="M108.612 70.9791C108.8 71.1667 108.906 71.4212 108.906 71.6866V75.6335C108.906 81.8454 103.865 86.8953 97.6579 86.8953H86.2165C79.9858 86.8953 74.9688 81.844 74.9688 75.6335V71.7318C74.9688 71.1795 75.4165 70.7318 75.9688 70.7318H81.2841C81.8364 70.7318 82.2841 71.1795 82.2841 71.7318C82.2841 72.284 81.8364 72.7318 81.2841 72.7318H76.9688V75.6335C76.9688 80.7449 81.0958 84.8953 86.2165 84.8953H97.6579C102.758 84.8953 106.906 80.7434 106.906 75.6335V72.6878L87.659 72.7092C87.1068 72.7098 86.6586 72.2626 86.6579 71.7103C86.6573 71.158 87.1045 70.7098 87.6568 70.7092L107.905 70.6866C108.17 70.6864 108.425 70.7916 108.612 70.9791Z" fill="#111111"/>
<path fill-rule="evenodd" clip-rule="evenodd" d="M114.136 33.6391C114.136 21.159 103.959 11.0784 91.4557 11.2511C90.9034 11.2587 90.4496 10.8172 90.4419 10.265C90.4343 9.71277 90.8758 9.25891 91.428 9.25128C105.051 9.06313 116.136 20.0474 116.136 33.6391C116.136 34.1914 115.688 34.6391 115.136 34.6391C114.583 34.6391 114.136 34.1914 114.136 33.6391ZM77.4238 32.9625C77.4238 29.5218 80.2154 26.7526 83.6265 26.7526C87.0476 26.7526 89.8025 29.5527 89.8292 32.9546L89.8293 32.9625H89.8292V37.1723H94.0004V32.9625C94.0004 29.5218 96.792 26.7526 100.203 26.7526C103.642 26.7526 106.406 29.55 106.406 32.9625C106.406 36.3749 103.642 39.1723 100.203 39.1723H96.0004V70.5816C96.0004 71.1339 95.5527 71.5816 95.0004 71.5816C94.4481 71.5816 94.0004 71.1339 94.0004 70.5816V39.1723H89.8067V70.6042C89.8067 71.1565 89.359 71.6042 88.8067 71.6042C88.2544 71.6042 87.8067 71.1565 87.8067 70.6042V39.1723H83.6265C80.1873 39.1723 77.4238 36.3749 77.4238 32.9625ZM87.8292 37.1723H83.6265C81.3 37.1723 79.4238 35.2786 79.4238 32.9625C79.4238 30.6295 81.3169 28.7526 83.6265 28.7526C85.925 28.7526 87.809 30.6418 87.8292 32.9667V37.1723ZM96.0004 37.1723H100.203C102.53 37.1723 104.406 35.2786 104.406 32.9625C104.406 30.6464 102.53 28.7526 100.203 28.7526C97.8935 28.7526 96.0004 30.6295 96.0004 32.9625V37.1723ZM74.9238 76.5357C74.9238 75.9834 75.3715 75.5357 75.9238 75.5357H101.329C101.882 75.5357 102.329 75.9834 102.329 76.5357C102.329 77.088 101.882 77.5357 101.329 77.5357H75.9238C75.3715 77.5357 74.9238 77.088 74.9238 76.5357ZM82.1536 80.7983C82.1536 80.246 82.6013 79.7983 83.1536 79.7983H106.329C106.882 79.7983 107.329 80.246 107.329 80.7983C107.329 81.3506 106.882 81.7983 106.329 81.7983H83.1536C82.6013 81.7983 82.1536 81.3506 82.1536 80.7983Z" fill="#111111"/>
<path d="M28.806 65.9131C28.806 68.4842 27.4997 70.5816 25.9006 70.5816C24.3015 70.5816 22.9727 68.4842 22.9727 65.9131C22.9727 63.342 24.279 61.2445 25.8781 61.2445C27.4772 61.2445 28.806 63.3194 28.806 65.9131Z" fill="#111111"/>
<path fill-rule="evenodd" clip-rule="evenodd" d="M21.6391 86.8896C22.0118 87.2972 21.9835 87.9297 21.5759 88.3024C20.6483 89.1505 19.4425 89.7076 18.2266 90.0819C17.0022 90.4588 15.7029 90.6698 14.5307 90.7866C13.3551 90.9037 12.2841 90.9283 11.5078 90.924C11.1189 90.9218 10.802 90.9123 10.5805 90.9033C10.4697 90.8987 10.3827 90.8943 10.3223 90.8909L10.2521 90.8868L10.2327 90.8855L10.227 90.8852L10.2251 90.885C10.2249 90.885 10.224 90.885 10.2925 89.8947L10.224 90.885C9.67304 90.8469 9.25729 90.3693 9.29539 89.8183C9.33349 89.2675 9.8108 88.8518 10.3616 88.8897C10.3616 88.8897 10.3616 88.8897 10.3616 88.8897L10.3643 88.8899L10.3771 88.8907L10.4337 88.894C10.4847 88.8969 10.5618 88.9008 10.6622 88.9049C10.863 88.9131 11.1563 88.922 11.5191 88.924C12.2462 88.9281 13.2444 88.9048 14.3324 88.7964C15.4236 88.6877 16.5822 88.4955 17.6382 88.1704C18.7027 87.8427 19.5999 87.3991 20.2263 86.8263C20.6339 86.4536 21.2665 86.482 21.6391 86.8896ZM10.3616 88.8897C10.3616 88.8897 10.3616 88.8897 10.3616 88.8897V88.8897Z" fill="#111111"/>
</g>
<defs>
<clipPath id="clip0_2418_105599">
<rect width="125" height="122.984" fill="white" transform="translate(0 0.508057)"/>
</clipPath>
</defs>
</svg>
