<svg width="50" height="48" viewBox="0 0 50 48" fill="none" xmlns="http://www.w3.org/2000/svg">
<g clip-path="url(#clip0_2493_38779)">
<path d="M48.0089 48.0014H1.99234C1.43697 48.0014 0.960938 47.5254 0.960938 46.97V9.04605C0.960938 8.49067 1.43697 8.01464 1.99234 8.01464H6.99069C7.54606 8.01464 8.02209 8.49067 8.02209 9.04605C8.02209 9.60142 7.54606 10.0775 6.99069 10.0775H3.02375V46.0973H46.9775V9.99811H43.0105C42.4552 9.99811 41.9791 9.52208 41.9791 8.96671C41.9791 8.41134 42.4552 7.9353 43.0105 7.9353H48.0882C48.6436 7.9353 49.1196 8.41134 49.1196 8.96671V46.97C48.9609 47.5254 48.4849 48.0014 48.0089 48.0014Z" fill="#114493"/>
<path d="M40.8688 39.9882H9.05394C7.38782 39.9882 6.03906 38.6395 6.03906 36.9734V3.01634C6.03906 1.35023 7.38782 0.00146484 9.05394 0.00146484H40.8688C42.5349 0.00146484 43.8837 1.35023 43.8837 3.01634V36.8147C43.963 38.6395 42.5349 39.9882 40.8688 39.9882ZM9.05394 1.98494C8.49857 1.98494 8.02253 2.46097 8.02253 3.01634V36.8147C8.02253 37.3701 8.49857 37.8461 9.05394 37.8461H40.8688C41.4242 37.8461 41.9002 37.3701 41.9002 36.8147V3.01634C41.9002 2.46097 41.4242 1.98494 40.8688 1.98494H9.05394Z" fill="#114493"/>
<path d="M24.922 39.8296C24.3667 39.8296 23.8906 39.3535 23.8906 38.7982V1.03287C23.8906 0.477498 24.3667 0.00146484 24.922 0.00146484C25.4774 0.00146484 25.9534 0.477498 25.9534 1.03287V38.7982C26.0328 39.3535 25.5567 39.8296 24.922 39.8296Z" fill="#114493"/>
<path d="M20.9539 11.9816H10.9572C10.4018 11.9816 9.92578 11.5056 9.92578 10.9502V4.99979C9.92578 4.44442 10.4018 3.96838 10.9572 3.96838H20.9539C21.5093 3.96838 21.9853 4.44442 21.9853 4.99979V11.0295C21.9853 11.5056 21.5093 11.9816 20.9539 11.9816ZM11.9886 9.99814H20.0018V6.03119H11.9886V9.99814Z" fill="#114493"/>
<path d="M20.9539 16.0279H10.9572C10.4018 16.0279 9.92578 15.5519 9.92578 14.9965C9.92578 14.4411 10.4018 13.9651 10.9572 13.9651H20.9539C21.5093 13.9651 21.9853 14.4411 21.9853 14.9965C21.9853 15.5519 21.5093 16.0279 20.9539 16.0279Z" fill="#114493"/>
<path d="M20.9539 19.9949H10.9572C10.4018 19.9949 9.92578 19.5189 9.92578 18.9635C9.92578 18.4082 10.4018 17.9321 10.9572 17.9321H20.9539C21.5093 17.9321 21.9853 18.4082 21.9853 18.9635C21.9853 19.5189 21.5093 19.9949 20.9539 19.9949Z" fill="#114493"/>
<path d="M20.9539 23.9617H10.9572C10.4018 23.9617 9.92578 23.4857 9.92578 22.9303C9.92578 22.375 10.4018 21.8989 10.9572 21.8989H20.9539C21.5093 21.8989 21.9853 22.375 21.9853 22.9303C21.9853 23.4857 21.5093 23.9617 20.9539 23.9617Z" fill="#114493"/>
<path d="M20.9539 28.0081H10.9572C10.4018 28.0081 9.92578 27.5321 9.92578 26.9767C9.92578 26.4214 10.4018 26.0247 10.9572 26.0247H20.9539C21.5093 26.0247 21.9853 26.5007 21.9853 27.0561C21.9853 27.6114 21.5093 28.0081 20.9539 28.0081Z" fill="#114493"/>
<path d="M20.9539 31.9749H10.9572C10.4018 31.9749 9.92578 31.4989 9.92578 30.9435C9.92578 30.3881 10.4018 29.9915 10.9572 29.9915H20.9539C21.5093 29.9915 21.9853 30.4675 21.9853 31.0229C21.9853 31.5782 21.5093 31.9749 20.9539 31.9749Z" fill="#114493"/>
<path d="M20.9539 36.0213H10.9572C10.4018 36.0213 9.92578 35.5453 9.92578 34.9899C9.92578 34.4345 10.4018 34.0378 10.9572 34.0378H20.9539C21.5093 34.0378 21.9853 34.5139 21.9853 35.0692C21.9853 35.6246 21.5093 36.0213 20.9539 36.0213Z" fill="#114493"/>
<path d="M38.9656 17.0594H28.9689C28.4135 17.0594 27.9375 16.5834 27.9375 16.028C27.9375 15.4726 28.4135 14.9966 28.9689 14.9966H38.9656C39.521 14.9966 39.997 15.4726 39.997 16.028C39.997 16.5834 39.521 17.0594 38.9656 17.0594Z" fill="#114493"/>
<path d="M38.9656 13.013H28.9689C28.4135 13.013 27.9375 12.537 27.9375 11.9816C27.9375 11.4262 28.4135 10.9502 28.9689 10.9502H38.9656C39.521 10.9502 39.997 11.4262 39.997 11.9816C39.997 12.537 39.521 13.013 38.9656 13.013Z" fill="#114493"/>
<path d="M38.9656 9.04621H28.9689C28.4135 9.04621 27.9375 8.57018 27.9375 8.0148C27.9375 7.45943 28.4135 6.9834 28.9689 6.9834H38.9656C39.521 6.9834 39.997 7.45943 39.997 8.0148C39.997 8.57018 39.521 9.04621 38.9656 9.04621Z" fill="#114493"/>
<path d="M38.9656 21.0262H28.9689C28.4135 21.0262 27.9375 20.5502 27.9375 19.9948C27.9375 19.4394 28.4135 18.9634 28.9689 18.9634H38.9656C39.521 18.9634 39.997 19.4394 39.997 19.9948C39.997 20.5502 39.521 21.0262 38.9656 21.0262Z" fill="#114493"/>
<path d="M38.9656 25.0726H28.9689C28.4135 25.0726 27.9375 24.5965 27.9375 24.0412C27.9375 23.4858 28.4135 23.0098 28.9689 23.0098H38.9656C39.521 23.0098 39.997 23.4858 39.997 24.0412C39.997 24.5965 39.521 25.0726 38.9656 25.0726Z" fill="#114493"/>
<path d="M38.9656 29.0394H28.9689C28.4135 29.0394 27.9375 28.5633 27.9375 28.008C27.9375 27.4526 28.4135 26.9766 28.9689 26.9766H38.9656C39.521 26.9766 39.997 27.4526 39.997 28.008C39.997 28.5633 39.521 29.0394 38.9656 29.0394Z" fill="#114493"/>
<path d="M38.9656 33.0064H28.9689C28.4135 33.0064 27.9375 32.5304 27.9375 31.975C27.9375 31.4196 28.4135 30.9436 28.9689 30.9436H38.9656C39.521 30.9436 39.997 31.4196 39.997 31.975C39.997 32.5304 39.521 33.0064 38.9656 33.0064Z" fill="#114493"/>
</g>
<defs>
<clipPath id="clip0_2493_38779">
<rect width="48.0793" height="48" fill="white" transform="translate(0.960938 0.00146484)"/>
</clipPath>
</defs>
</svg>
