<svg width="68" height="60" viewBox="0 0 68 60" fill="none" xmlns="http://www.w3.org/2000/svg">
<g clip-path="url(#clip0_983_7252)">
<path d="M33.4698 41.3881C35.6368 41.3881 37.4153 43.0761 37.4452 45.2777C37.4602 47.3766 35.7116 49.1967 33.4698 49.1967C31.2579 49.1967 29.4943 47.4207 29.4943 45.2924C29.4943 43.1201 31.2728 41.3881 33.4698 41.3881ZM33.4698 46.7895C34.3515 46.7895 35.0091 46.0703 34.9942 45.2924C34.9792 44.4851 34.3366 43.7953 33.4698 43.7953C32.6328 43.7953 31.9453 44.4558 31.9453 45.2924C31.9304 46.1144 32.6029 46.7895 33.4698 46.7895Z" fill="#F6F8FA"/>
<path d="M2.30817 14.381C2.30817 12.3995 3.95215 10.7703 5.96977 10.7703V9.59605C5.96977 7.61455 7.61376 6 9.63138 6C11.649 6 13.293 7.61455 13.293 9.59605V10.7703C15.3106 10.7849 16.9546 12.3701 16.9546 14.381C16.9546 16.3625 15.3106 17.9917 13.293 17.9917V21.1034H14.5185C15.191 21.1034 15.744 21.6465 15.744 22.307V24.5967H18.1801C18.1801 21.9547 20.3771 19.7971 23.0672 19.7971H43.8412C46.5314 19.7971 48.7284 21.9547 48.7284 24.5967H51.1794V22.307C51.1794 21.6465 51.7324 21.1034 52.4049 21.1034H53.6304V17.9917C51.6128 17.977 49.9688 16.3625 49.9688 14.381C49.9688 12.3995 51.6128 10.7703 53.6304 10.7703V9.59605C53.6155 7.61455 55.2595 6 57.292 6C59.3096 6 60.9536 7.61455 60.9536 9.59605V10.7703C62.9563 10.7849 64.6152 12.3848 64.6152 14.381C64.6152 16.3625 62.9712 17.9917 60.9536 17.9917V21.1034H62.1791C62.8517 21.1034 63.4047 21.6465 63.4047 22.307V31.9062C63.4047 35.2087 60.6697 37.9094 57.292 37.9094C54.3478 37.9094 51.8669 35.8399 51.3139 33.1098H48.7433V39.7442L60.58 51.3543C60.8042 51.5744 60.9387 51.8827 60.9387 52.2056V58.8106C60.9387 59.4711 60.3857 60.0141 59.7132 60.0141H54.826C54.1535 60.0141 53.6005 59.4711 53.6005 58.8106V55.0971L44.7379 46.129C44.454 46.1877 44.1551 46.2024 43.8562 46.2024H42.2869C41.8236 50.5763 38.0574 53.9963 33.4841 53.9963C28.9108 53.9963 25.1297 50.5763 24.6813 46.2024H23.1121C22.8132 46.2024 22.5142 46.173 22.2303 46.129L13.3677 55.0971V58.8106C13.3677 59.4711 12.8147 60.0141 12.1422 60.0141H7.22518C6.55264 60.0141 5.99966 59.4711 5.99966 58.8106V52.2056C5.99966 51.8827 6.13417 51.5891 6.35835 51.3543L18.195 39.7442V33.1098H15.6245C15.0715 35.8105 12.6354 37.9094 9.63138 37.9094C6.26868 37.9094 3.51874 35.2234 3.51874 31.9062V22.307C3.51874 21.6465 4.07172 21.1034 4.74426 21.1034H5.96977V17.9917C3.95215 17.9917 2.30817 16.3772 2.30817 14.381ZM8.42081 21.1034H10.8569V17.9917H8.42081V21.1034ZM9.63138 8.39247C8.95884 8.39247 8.40586 8.93555 8.40586 9.59605V10.7703H10.8419V9.59605C10.8569 8.93555 10.3189 8.39247 9.63138 8.39247ZM14.5185 14.381C14.5185 13.7058 13.9655 13.1627 13.278 13.1627H5.96977C5.28229 13.1627 4.72931 13.7058 4.72931 14.381C4.72931 15.0562 5.28229 15.5993 5.96977 15.5993H13.278C13.9655 15.5993 14.5185 15.0562 14.5185 14.381ZM58.5026 17.9917H56.0665V21.1034H58.5026V17.9917ZM57.292 8.39247C56.6195 8.39247 56.0665 8.93555 56.0665 9.59605V10.7703H58.5026V9.59605C58.5026 8.93555 57.9646 8.39247 57.292 8.39247ZM62.1791 14.381C62.1791 13.7058 61.6262 13.1627 60.9387 13.1627H53.6304C52.9429 13.1627 52.39 13.7058 52.39 14.381C52.39 15.0562 52.9429 15.5993 53.6304 15.5993H60.9387C61.6112 15.5993 62.1791 15.0562 62.1791 14.381ZM57.292 35.5023C59.3096 35.5023 60.9536 33.8877 60.9536 31.9062V23.5106C59.0705 23.5106 54.9904 23.5106 53.6304 23.5106C53.6304 25.4921 53.6304 29.9394 53.6304 31.9062C53.6155 33.8877 55.2595 35.5023 57.292 35.5023ZM55.6929 53.7614C55.9171 53.9816 56.0366 54.2898 56.0366 54.598V57.5923H58.4727V52.6899L48.4892 42.8852C48.2053 43.7071 47.7121 44.441 47.0545 45.0135L55.6929 53.7614ZM33.4692 51.5891C36.9664 51.5891 39.8658 48.815 39.8807 45.2924C39.8957 41.8284 37.0411 38.9956 33.4692 38.9956C29.9122 38.9956 27.0576 41.799 27.0576 45.2924C27.0427 48.771 29.9271 51.5891 33.4692 51.5891ZM8.4507 57.5923H10.8868V54.598C10.8868 54.2898 11.0063 53.9816 11.2305 53.7614L19.8689 45.0281C19.2113 44.4557 18.7032 43.7218 18.4342 42.8999L8.4507 52.7046V57.5923ZM19.4056 30.7027C20.0782 30.7027 20.6311 31.2457 20.6311 31.9062V41.3881C20.6311 42.7237 21.7371 43.7805 23.0672 43.7805H24.7262C25.4435 39.6561 29.0752 36.5884 33.4542 36.5884C37.8332 36.5884 41.45 39.6708 42.1823 43.7805H43.8412C45.1863 43.7805 46.2773 42.7091 46.2773 41.3881V31.9062C46.2773 31.2457 46.8303 30.7027 47.5028 30.7027H51.1794V26.9892H47.5178C46.8452 26.9892 46.2923 26.4461 46.2923 25.7856V24.582C46.2923 23.261 45.2013 22.1896 43.8562 22.1896H23.0822C21.7371 22.1896 20.6461 23.261 20.6461 24.582V25.7856C20.6461 26.4461 20.0931 26.9892 19.4206 26.9892H15.744V30.7027H19.4056ZM5.96977 31.9062C5.96977 33.8877 7.61376 35.5023 9.63138 35.5023C11.6639 35.5023 13.293 33.8877 13.293 31.9062C13.293 29.9394 13.293 25.4774 13.293 23.5106C10.543 23.5106 8.39091 23.5106 5.96977 23.5106V31.9062Z" fill="#F6F8FA"/>
</g>
<defs>
<clipPath id="clip0_983_7252">
<rect width="68" height="60" fill="white" transform="matrix(-1 0 0 1 68 0)"/>
</clipPath>
</defs>
</svg>
