<svg width="125" height="126" viewBox="0 0 125 126" fill="none" xmlns="http://www.w3.org/2000/svg">
<g clip-path="url(#clip0_2418_105568)">
<path d="M115.528 85.8343C115.528 77.6579 108.921 71.034 100.765 71.034C99.2418 71.034 97.7706 71.2669 96.3769 71.7068C96.3769 71.655 96.3769 71.6291 96.3769 71.6033C96.3769 63.4269 89.7694 56.803 81.6133 56.803C79.2387 56.803 76.9932 57.3723 75.0058 58.3814C71.9602 54.8883 67.495 52.689 62.4877 52.689C57.5063 52.689 53.0153 54.8883 49.9697 58.3814C47.9823 57.3723 45.7368 56.803 43.3622 56.803C35.2061 56.803 28.5986 63.4269 28.5986 71.6033C28.5986 71.655 28.5986 71.6809 28.5986 71.7068C27.2049 71.2669 25.7337 71.034 24.2108 71.034C16.0547 71.034 9.44727 77.6579 9.44727 85.8343C9.44727 91.1644 12.2864 95.8477 16.4935 98.4352C13.4995 101.152 11.6153 105.033 11.6153 109.406C11.6153 117.582 18.2228 124.206 26.3789 124.206H98.5449C106.701 124.206 113.309 117.582 113.309 109.406C113.309 105.059 111.424 101.152 108.43 98.4352C112.689 95.8218 115.528 91.1644 115.528 85.8343Z" fill="white"/>
<path fill-rule="evenodd" clip-rule="evenodd" d="M49.7303 57.1594C52.9394 53.7861 57.4802 51.689 62.4877 51.689C67.5204 51.689 72.0391 53.7866 75.2453 57.1594C77.193 56.2879 79.349 55.803 81.6133 55.803C89.9246 55.803 96.7266 62.2431 97.3329 70.4138C98.4418 70.164 99.5894 70.034 100.765 70.034C109.475 70.034 116.528 77.108 116.528 85.8343C116.528 91.0778 113.956 95.7072 110.006 98.5826C112.67 101.414 114.309 105.218 114.309 109.406C114.309 118.132 107.256 125.206 98.5449 125.206H26.3789C17.6682 125.206 10.6153 118.132 10.6153 109.406C10.6153 105.193 12.2547 101.408 14.9187 98.5805C11.0129 95.7196 8.44727 91.0703 8.44727 85.8343C8.44727 77.108 15.5001 70.034 24.2108 70.034C25.3861 70.034 26.5337 70.164 27.6426 70.4138C28.2489 62.2431 35.0509 55.803 43.3622 55.803C45.6265 55.803 47.7826 56.2879 49.7303 57.1594ZM62.4877 53.689C57.8063 53.689 53.5865 55.7549 50.7234 59.0386C50.4224 59.3838 49.9253 59.4804 49.5169 59.273C47.666 58.3332 45.5752 57.803 43.3622 57.803C35.7607 57.803 29.5986 63.9768 29.5986 71.6033V71.7068C29.5986 72.0254 29.4468 72.3249 29.1898 72.5133C28.9328 72.7017 28.6015 72.7563 28.2977 72.6604C27.0006 72.2511 25.6309 72.034 24.2108 72.034C16.6094 72.034 10.4473 78.2079 10.4473 85.8343C10.4473 90.8022 13.0933 95.17 17.0174 97.5834C17.2853 97.7482 17.4601 98.0294 17.4892 98.3426C17.5184 98.6557 17.3984 98.9644 17.1655 99.1757C14.3691 101.713 12.6153 105.33 12.6153 109.406C12.6153 117.032 18.7774 123.206 26.3789 123.206H98.5449C106.146 123.206 112.309 117.032 112.309 109.406C112.309 105.355 110.554 101.713 107.758 99.1757C107.525 98.9643 107.405 98.6554 107.435 98.3421C107.464 98.0287 107.639 97.7475 107.907 97.5829C111.886 95.1415 114.528 90.7983 114.528 85.8343C114.528 78.2079 108.366 72.034 100.765 72.034C99.3446 72.034 97.9749 72.2511 96.6778 72.6604C96.374 72.7563 96.0426 72.7017 95.7857 72.5133C95.5287 72.3249 95.3769 72.0254 95.3769 71.7068V71.6033C95.3769 63.9768 89.2148 57.803 81.6133 57.803C79.4002 57.803 77.3094 58.3332 75.4585 59.273C75.0501 59.4804 74.5531 59.3838 74.2521 59.0386C71.3885 55.7542 67.1942 53.689 62.4877 53.689Z" fill="#111111"/>
<path fill-rule="evenodd" clip-rule="evenodd" d="M53.1504 86.3C53.1504 85.7478 53.5981 85.3 54.1504 85.3H70.8498C71.402 85.3 71.8498 85.7478 71.8498 86.3V91.682C71.8498 94.5905 69.4904 96.9254 66.6168 96.9254H58.3833C55.4799 96.9254 53.1504 94.5865 53.1504 91.682V86.3ZM55.1504 87.3V91.682C55.1504 93.4866 56.5892 94.9254 58.3833 94.9254H66.6168C68.3891 94.9254 69.8498 93.4826 69.8498 91.682V87.3H55.1504Z" fill="#111111"/>
<path d="M55.8286 79.1328V75.0704C55.8286 69.1452 53.5573 63.401 49.2985 59.2611C42.8717 53.0253 38.9227 44.228 39.155 34.4991C39.5164 18.1464 51.7763 4.58815 67.5207 2.18181C65.714 1.92307 63.8814 1.76782 61.9973 1.79369C44.1623 2.05244 29.5277 16.6198 29.1406 34.4991C28.9341 44.228 32.8573 53.0253 39.2841 59.2611C43.5428 63.3751 45.8141 69.1452 45.8141 75.0704V79.1328C45.8141 85.058 50.6149 89.8707 56.5255 89.8707H66.5399C60.6293 89.8707 55.8286 85.058 55.8286 79.1328Z" fill="white"/>
<path d="M79.1863 79.1328V74.9929C79.1863 68.9382 81.7157 63.22 86.0002 58.9507C92.0915 52.896 95.8598 44.4868 95.8598 35.2237C95.8598 18.457 83.574 4.58821 67.5199 2.15601C51.7756 4.56234 39.5156 18.1206 39.1543 34.4733C38.9478 44.2022 42.871 52.9995 49.3236 59.2353C53.5823 63.3493 55.8536 69.1194 55.8536 75.0446V79.1069C55.8536 85.0322 60.6544 89.8449 66.5649 89.8449H68.5007C74.3855 89.8708 79.1863 85.0581 79.1863 79.1328Z" fill="#6099FF"/>
<path fill-rule="evenodd" clip-rule="evenodd" d="M61.9824 0.81975C81.2051 0.526765 96.8606 16.0655 96.8606 35.2496C96.8606 44.7891 92.9788 53.4499 86.7075 59.7101L86.7047 59.7129C82.5985 63.7798 80.187 69.2465 80.187 75.0188V79.1587C80.187 85.6339 74.9409 90.8966 68.4757 90.8966H56.5255C50.0603 90.8966 44.8141 85.6339 44.8141 79.1587V75.0964C44.8141 69.4246 42.6147 63.919 38.5877 60.0047C31.9692 53.5829 27.9282 44.521 28.1408 34.5039L28.1408 34.5034C28.5396 16.0885 43.607 1.08653 61.9824 0.81975ZM94.8606 35.2496C94.8606 17.1744 80.1115 2.54347 62.0125 2.81952L62.0118 2.81953C44.7174 3.07044 30.5161 17.2029 30.1404 34.5463M30.1403 34.5467C29.9401 43.9871 33.7455 52.5197 39.9804 58.5693L39.9811 58.5699C44.4195 62.8838 46.8141 68.9179 46.8141 75.0964V79.1587C46.8141 84.534 51.1695 88.8966 56.5255 88.8966H68.4757C73.8317 88.8966 78.187 84.534 78.187 79.1587V75.0188C78.187 68.6824 80.8339 62.7132 85.2958 58.2934C91.2063 52.3927 94.8606 44.2355 94.8606 35.2496" fill="#111111"/>
<path fill-rule="evenodd" clip-rule="evenodd" d="M79.894 74.3111C80.0818 74.4987 80.1874 74.7532 80.1874 75.0187V79.1586C80.1874 85.6338 74.9412 90.8965 68.476 90.8965H56.5258C50.0606 90.8965 44.8145 85.6338 44.8145 79.1586V75.0963C44.8145 74.544 45.2622 74.0963 45.8145 74.0963H51.3895C51.9418 74.0963 52.3895 74.544 52.3895 75.0963C52.3895 75.6486 51.9418 76.0963 51.3895 76.0963H46.8145V79.1586C46.8145 84.5339 51.1698 88.8965 56.5258 88.8965H68.476C73.832 88.8965 78.1874 84.5339 78.1874 79.1586V76.0199L58.0498 76.0446C57.4975 76.0452 57.0493 75.5981 57.0486 75.0458C57.0479 74.4935 57.4951 74.0452 58.0474 74.0446L79.1861 74.0187C79.4516 74.0184 79.7062 74.1236 79.894 74.3111Z" fill="#111111"/>
<path fill-rule="evenodd" clip-rule="evenodd" d="M85.7498 35.2495C85.7498 22.1681 75.0789 11.5995 62.0128 11.7979C61.4606 11.8063 61.0061 11.3654 60.9977 10.8132C60.9893 10.261 61.4302 9.80654 61.9824 9.79815C76.1722 9.58262 87.7498 21.0591 87.7498 35.2495C87.7498 35.8018 87.3021 36.2495 86.7498 36.2495C86.1976 36.2495 85.7498 35.8018 85.7498 35.2495ZM47.4213 34.525C47.4213 30.9736 50.2929 28.0914 53.8415 28.0914C57.3902 28.0914 60.2617 30.9736 60.2617 34.525V38.9845H64.7401V34.5509C64.7401 30.9995 67.6117 28.1172 71.1603 28.1172C74.709 28.1172 77.5805 30.9995 77.5805 34.5509C77.5805 38.1023 74.709 40.9845 71.1603 40.9845H66.7401V73.8802C66.7401 74.4325 66.2924 74.8802 65.7401 74.8802C65.1878 74.8802 64.7401 74.4325 64.7401 73.8802V40.9845H60.2617V73.8802C60.2617 74.4325 59.814 74.8802 59.2617 74.8802C58.7094 74.8802 58.2617 74.4325 58.2617 73.8802V40.9587H53.8415C50.2929 40.9587 47.4213 38.0764 47.4213 34.525ZM58.2617 38.9587H53.8415C51.4021 38.9587 49.4213 36.9765 49.4213 34.525C49.4213 32.0735 51.4021 30.0914 53.8415 30.0914C56.2809 30.0914 58.2617 32.0735 58.2617 34.525V38.9587ZM66.7401 38.9845H71.1603C73.5997 38.9845 75.5805 37.0024 75.5805 34.5509C75.5805 32.0994 73.5997 30.1172 71.1603 30.1172C68.7209 30.1172 66.7401 32.0994 66.7401 34.5509V38.9845ZM96.3651 70.7068C96.9174 70.7002 97.3704 71.1425 97.3771 71.6947L96.3771 71.7067C97.3771 71.6947 97.3771 71.6959 97.3771 71.6959L97.3771 71.6973L97.3771 71.7009L97.3772 71.7109L97.3772 71.7426C97.377 71.7688 97.3766 71.8052 97.3756 71.851C97.3735 71.9427 97.3688 72.0725 97.3586 72.236C97.3383 72.5627 97.2961 73.0251 97.2082 73.5861C97.0329 74.7059 96.674 76.2326 95.9364 77.8631C95.4593 78.9178 94.8249 80.0118 93.9853 81.064C94.1139 81.1829 94.2129 81.3371 94.2655 81.5173L94.2659 81.5185L94.2667 81.5213L94.267 81.5223L92.5455 82.6197C92.2853 82.9057 92.8402 82.3447 92.5455 82.6197C90.8374 84.2134 88.533 85.5912 85.4315 86.4128C84.8976 86.5542 84.3502 86.2361 84.2087 85.7022C84.0673 85.1683 84.3855 84.6209 84.9193 84.4795C90.2496 83.0675 92.8337 79.8694 94.1142 77.0387C94.7607 75.6095 95.0777 74.2642 95.2323 73.2768C95.3094 72.7842 95.3456 72.3842 95.3625 72.112C95.3709 71.976 95.3745 71.8722 95.3761 71.8051C95.3769 71.7716 95.3771 71.7473 95.3772 71.7327L95.3772 71.7182L95.3772 71.7167C95.3717 71.1654 95.8136 70.7135 96.3651 70.7068ZM92.5455 82.6197C92.5864 82.7159 92.6342 82.8226 92.6896 82.9378C92.9232 83.4238 93.2965 84.0711 93.8607 84.7269C95.0052 86.0574 96.9122 87.3905 99.9003 87.5062C100.452 87.5276 100.917 87.0976 100.938 86.5457C100.96 85.9938 100.53 85.5291 99.9777 85.5077C97.623 85.4165 96.2134 84.3951 95.3769 83.4226C94.9506 82.9271 94.6674 82.4359 94.4921 82.0712C94.4048 81.8897 94.3455 81.7421 94.3094 81.6445C94.3021 81.6248 94.2957 81.6071 94.2903 81.5917C94.2824 81.5691 94.2764 81.5513 94.2723 81.5387L94.267 81.5223M44.8145 80.0901C44.8145 79.5378 45.2622 79.0901 45.8145 79.0901H72.3218C72.8741 79.0901 73.3218 79.5378 73.3218 80.0901C73.3218 80.6424 72.8741 81.0901 72.3218 81.0901H45.8145C45.2622 81.0901 44.8145 80.6424 44.8145 80.0901ZM52.3511 84.5405C52.3511 83.9882 52.7988 83.5405 53.3511 83.5405H77.5613C78.1136 83.5405 78.5613 83.9882 78.5613 84.5405C78.5613 85.0928 78.1136 85.5405 77.5613 85.5405H53.3511C52.7988 85.5405 52.3511 85.0928 52.3511 84.5405ZM35.4883 95.523C35.8391 95.9495 35.7777 96.5797 35.3512 96.9305C32.5866 99.2043 29.6628 100.291 26.9593 100.712C26.964 100.724 26.9689 100.736 26.9739 100.749C27.0439 100.928 27.137 101.182 27.2347 101.497C27.4293 102.125 27.647 103.007 27.7337 104.02C27.9068 106.042 27.5602 108.696 25.3381 110.804C24.9375 111.184 24.3045 111.168 23.9244 110.767C23.5443 110.366 23.561 109.733 23.9617 109.353C25.5854 107.813 25.884 105.861 25.741 104.19C25.6696 103.356 25.4888 102.619 25.3245 102.09C25.2428 101.826 25.1662 101.618 25.1116 101.478C25.0843 101.408 25.0625 101.356 25.0485 101.323C25.0447 101.314 25.0414 101.307 25.0388 101.301C25.0366 101.296 25.0348 101.292 25.0335 101.289L25.0317 101.285L25.0311 101.284C24.9763 101.163 24.9469 101.037 24.9412 100.913C24.0543 100.953 23.2052 100.93 22.4097 100.865C20.5695 100.714 19.0049 100.338 17.8982 100C17.344 99.8306 16.9022 99.6699 16.5952 99.5498C16.4417 99.4898 16.3216 99.4398 16.2379 99.4038C16.1961 99.3859 16.1633 99.3714 16.1399 99.361L16.1119 99.3483L16.1033 99.3444L16.1004 99.343L16.0992 99.3425C16.0992 99.3425 16.0984 99.3421 16.4804 98.5196L16.0992 99.3425C15.5984 99.1098 15.38 98.5148 15.6127 98.0139C15.8452 97.5132 16.4395 97.2957 16.9402 97.5279M16.9402 97.5279L16.9416 97.5285L16.9564 97.5352C16.9708 97.5417 16.9944 97.5521 17.0268 97.566C17.0916 97.5938 17.1915 97.6355 17.3239 97.6873C17.5886 97.7909 17.9822 97.9344 18.4826 98.0872C19.4852 98.3936 20.9065 98.7345 22.5733 98.8713C25.9028 99.1446 30.1686 98.6035 34.0808 95.3859C34.5073 95.035 35.1375 95.0964 35.4883 95.523" fill="#111111"/>
<path fill-rule="evenodd" clip-rule="evenodd" d="M87.8121 95.5201C88.1646 95.0949 88.795 95.0359 89.2202 95.3883C93.888 99.2571 98.5674 99.7835 102.087 99.3603C103.857 99.1475 105.338 98.6932 106.373 98.2928C106.89 98.093 107.293 97.9076 107.564 97.7746C107.699 97.7081 107.8 97.6547 107.866 97.6194C107.898 97.6017 107.922 97.5885 107.936 97.5804L107.951 97.5722L107.951 97.572C107.951 97.5719 107.952 97.5717 107.952 97.5716M107.952 97.5716C108.429 97.2933 109.041 97.4538 109.319 97.9302C109.598 98.4069 109.438 99.0195 108.961 99.2983L108.488 98.4902C108.961 99.2983 108.961 99.2986 108.96 99.2989L108.959 99.2996L108.956 99.3014L108.947 99.3067L108.918 99.3232C108.893 99.3368 108.86 99.3556 108.816 99.379C108.73 99.4256 108.606 99.4905 108.447 99.5687C108.13 99.725 107.672 99.9348 107.094 100.158C105.94 100.605 104.296 101.109 102.326 101.346C98.3675 101.822 93.1099 101.21 87.9439 96.9282C87.5187 96.5757 87.4597 95.9453 87.8121 95.5201" fill="#111111"/>
<path fill-rule="evenodd" clip-rule="evenodd" d="M4.64435 15.3735C4.84684 14.8597 5.42752 14.6073 5.94135 14.8098L17.1689 19.2343C17.6827 19.4368 17.9351 20.0175 17.7326 20.5313C17.5301 21.0451 16.9494 21.2975 16.4356 21.095L5.20807 16.6705C4.69425 16.468 4.44186 15.8873 4.64435 15.3735ZM120.329 15.3735C120.532 15.8873 120.279 16.468 119.765 16.6705L108.538 21.095C108.024 21.2975 107.443 21.0451 107.241 20.5313C107.038 20.0175 107.291 19.4368 107.805 19.2343L119.032 14.8098C119.546 14.6073 120.127 14.8597 120.329 15.3735ZM0.341882 37.3584C0.348994 36.8062 0.802438 36.3642 1.35468 36.3714L13.4082 36.5266C13.9604 36.5337 14.4023 36.9872 14.3952 37.5394C14.3881 38.0916 13.9346 38.5335 13.3824 38.5264L1.32892 38.3712C0.776681 38.3641 0.334769 37.9106 0.341882 37.3584ZM110.604 38.8591C110.611 38.3069 111.065 37.865 111.617 37.8721L123.67 38.0273C124.223 38.0344 124.665 38.4879 124.657 39.0401C124.65 39.5924 124.197 40.0343 123.645 40.0272L111.591 39.8719C111.039 39.8648 110.597 39.4114 110.604 38.8591ZM17.7326 55.8931C17.9351 56.4069 17.6827 56.9876 17.1689 57.1901L5.94135 61.6146C5.42752 61.8171 4.84684 61.5647 4.64435 61.0509C4.44186 60.5371 4.69425 59.9564 5.20807 59.7539L16.4356 55.3293C16.9494 55.1268 17.5301 55.3792 17.7326 55.8931ZM107.241 55.8931C107.443 55.3792 108.024 55.1268 108.538 55.3293L119.765 59.7539C120.279 59.9564 120.532 60.5371 120.329 61.0509C120.127 61.5647 119.546 61.8171 119.032 61.6146L107.805 57.1901C107.291 56.9876 107.038 56.4069 107.241 55.8931Z" fill="#111111"/>
</g>
<defs>
<clipPath id="clip0_2418_105568">
<rect width="125" height="125" fill="white" transform="translate(0 0.5)"/>
</clipPath>
</defs>
</svg>
