<svg width="125" height="106" viewBox="0 0 125 106" fill="none" xmlns="http://www.w3.org/2000/svg">
<g clip-path="url(#clip0_2418_105579)">
<path d="M89.2117 63.7432V36.0122C89.2117 32.6326 86.4812 29.902 83.1016 29.902H88.8536C92.2332 29.902 94.9637 32.6326 94.9637 36.0122V63.7432C94.9637 67.1228 92.2332 69.8534 88.8536 69.8534H83.1016C86.4812 69.8534 89.2117 67.1228 89.2117 63.7432Z" fill="white"/>
<path d="M35.6992 63.7432V36.0122C35.6992 32.6326 38.4297 29.902 41.8093 29.902H83.0806C86.4602 29.902 89.1907 32.6326 89.1907 36.0122V63.7432C89.1907 67.1228 86.4602 69.8534 83.0806 69.8534H82.0734H76.3214V74.5983L71.5766 69.8534H65.8246H41.8093C38.4521 69.8534 35.6992 67.1228 35.6992 63.7432Z" fill="#D6D9E7"/>
<path fill-rule="evenodd" clip-rule="evenodd" d="M41.8093 30.902C38.982 30.902 36.6992 33.1848 36.6992 36.0122V63.7432C36.6992 66.5706 38.982 68.8534 41.8093 68.8534H71.599C71.8642 68.8534 72.1185 68.9588 72.3061 69.1463L81.0958 77.9362V69.8534C81.0958 69.3011 81.5435 68.8534 82.0958 68.8534H88.855C91.6823 68.8534 93.9651 66.5706 93.9651 63.7432V36.0122C93.9651 33.1848 91.6823 30.902 88.855 30.902H41.8093ZM34.6992 36.0122C34.6992 32.0803 37.8774 28.902 41.8093 28.902H88.855C92.7869 28.902 95.9651 32.0803 95.9651 36.0122V63.7432C95.9651 67.6751 92.7869 70.8534 88.855 70.8534H83.0958V80.3505C83.0958 80.7549 82.8522 81.1196 82.4785 81.2743C82.1048 81.4291 81.6747 81.3436 81.3887 81.0576L71.1847 70.8534H41.8093C37.8774 70.8534 34.6992 67.6751 34.6992 63.7432V36.0122Z" fill="#111111"/>
<path d="M19.8516 34.9604V7.22936C19.8516 3.84971 22.5822 1.11914 25.9617 1.11914H20.2097C16.8301 1.11914 14.0996 3.84971 14.0996 7.22936V34.9604C14.0996 38.34 16.8301 41.0706 20.2097 41.0706H25.9617C22.5822 41.0706 19.8516 38.34 19.8516 34.9604Z" fill="white"/>
<path d="M73.3431 34.9604V7.22936C73.3431 3.84971 70.6125 1.11914 67.2329 1.11914H25.9617C22.5821 1.11914 19.8516 3.84971 19.8516 7.22936V34.9604C19.8516 38.34 22.5821 41.0706 25.9617 41.0706H26.9688H32.7209V45.8155L37.4657 41.0706H43.2177H67.2329C70.6125 41.0706 73.3431 38.34 73.3431 34.9604Z" fill="#6099FF"/>
<path fill-rule="evenodd" clip-rule="evenodd" d="M13.0996 7.22936C13.0996 3.29745 16.2778 0.119141 20.2097 0.119141H67.233C71.1662 0.119141 74.3395 3.29727 74.3655 7.22274L74.3655 7.22936L74.3655 34.9604C74.3655 38.8923 71.1873 42.0706 67.2554 42.0706H37.88L27.676 52.2747C27.39 52.5607 26.9599 52.6463 26.5862 52.4915C26.2125 52.3367 25.9689 51.9721 25.9689 51.5676V42.0706H20.2097C16.2778 42.0706 13.0996 38.8923 13.0996 34.9604V7.22936ZM20.2097 2.11914C17.3824 2.11914 15.0996 4.40198 15.0996 7.22936V34.9604C15.0996 37.7877 17.3824 40.0706 20.2097 40.0706H26.9689C27.5212 40.0706 27.9689 40.5183 27.9689 41.0706V49.1534L36.7587 40.3635C36.9462 40.1759 37.2006 40.0706 37.4658 40.0706H67.2554C70.0827 40.0706 72.3655 37.7877 72.3655 34.9604V7.23268C72.345 4.40039 70.0579 2.11914 67.233 2.11914H20.2097Z" fill="#111111"/>
<path d="M33.9522 21.1955C33.9522 20.054 33.0345 19.1364 31.8931 19.1364C30.7516 19.1364 29.834 20.054 29.834 21.1955C29.834 22.3369 30.7516 23.2546 31.8931 23.2546C33.0345 23.2546 33.9522 22.3369 33.9522 21.1955Z" fill="#111111"/>
<path d="M45.7705 21.1955C45.7705 20.054 44.8529 19.1364 43.7114 19.1364C42.57 19.1364 41.6523 20.054 41.6523 21.1955C41.6523 22.3369 42.57 23.2546 43.7114 23.2546C44.8529 23.2546 45.7705 22.3369 45.7705 21.1955Z" fill="#111111"/>
<path d="M57.6104 21.1955C57.6104 20.054 56.6927 19.1364 55.5513 19.1364C54.4098 19.1364 53.4922 20.054 53.4922 21.1955C53.4922 22.3369 54.4098 23.2546 55.5513 23.2546C56.6927 23.2546 57.6104 22.3369 57.6104 21.1955Z" fill="#111111"/>
<path d="M14.8829 68.1749C14.8829 64.9295 16.9644 62.199 19.8516 61.1694C19.0682 60.9008 18.2401 60.7441 17.3896 60.7441C13.2938 60.7441 9.95898 64.079 9.95898 68.1749C9.95898 72.2931 13.2938 75.6056 17.3896 75.6056C18.2625 75.6056 19.0906 75.449 19.8516 75.1804C16.9644 74.1508 14.8829 71.3979 14.8829 68.1749Z" fill="white"/>
<path d="M24.8201 68.1748C24.8201 64.9294 22.7387 62.1989 19.8515 61.1693C16.9643 62.1989 14.8828 64.9294 14.8828 68.1748C14.8828 71.4202 16.9643 74.1507 19.8515 75.1803C22.7387 74.1507 24.8201 71.3978 24.8201 68.1748Z" fill="white"/>
<path d="M15.7342 79.791H10.7879C5.43875 79.791 1.11914 84.1331 1.11914 89.4599V104.881H6.06543V89.4599C6.06543 84.1107 10.385 79.791 15.7342 79.791Z" fill="white"/>
<path d="M23.9696 79.791H15.7332C10.3841 79.791 6.06445 84.1331 6.06445 89.4599V104.881H33.6383V89.4599C33.6383 84.1107 29.3187 79.791 23.9696 79.791Z" fill="white"/>
<path fill-rule="evenodd" clip-rule="evenodd" d="M8.95979 68.1749C8.95979 63.5268 12.7423 59.7441 17.3904 59.7441C22.0385 59.7441 25.821 63.5268 25.821 68.1749C25.821 72.823 22.0385 76.6056 17.3904 76.6056C12.7443 76.6056 8.95979 72.8474 8.95979 68.1749ZM17.3904 61.7441C13.8469 61.7441 10.9598 64.6313 10.9598 68.1749C10.9598 71.7389 13.8449 74.6056 17.3904 74.6056C20.9339 74.6056 23.821 71.7185 23.821 68.1749C23.821 64.6313 20.9339 61.7441 17.3904 61.7441ZM10.7879 80.791C5.99105 80.791 2.11914 84.663 2.11914 89.4599V104.881C2.11914 105.433 1.67143 105.881 1.11914 105.881C0.566856 105.881 0.119141 105.433 0.119141 104.881V89.4599C0.119141 83.5584 4.88645 78.791 10.7879 78.791H23.9705C29.8735 78.791 34.6393 83.5823 34.6393 89.4599V104.881C34.6393 105.433 34.1916 105.881 33.6393 105.881C33.087 105.881 32.6393 105.433 32.6393 104.881V89.4599C32.6393 84.6838 28.7659 80.791 23.9705 80.791H10.7879Z" fill="#111111"/>
<path d="M105.125 68.1749C105.125 64.9295 107.207 62.199 110.094 61.1694C109.31 60.9008 108.482 60.7441 107.632 60.7441C103.536 60.7441 100.201 64.079 100.201 68.1749C100.201 72.2931 103.536 75.6056 107.632 75.6056C108.505 75.6056 109.333 75.449 110.094 75.1804C107.207 74.1508 105.125 71.3979 105.125 68.1749Z" fill="white"/>
<path d="M115.062 68.1748C115.062 64.9294 112.981 62.1989 110.094 61.1693C107.206 62.1989 105.125 64.9294 105.125 68.1748C105.125 71.4202 107.206 74.1507 110.094 75.1803C112.981 74.1507 115.062 71.3978 115.062 68.1748Z" fill="white"/>
<path d="M105.976 79.791H101.03C95.6809 79.791 91.3613 84.1331 91.3613 89.4599V104.881H96.3076V89.4599C96.3076 84.1107 100.627 79.791 105.976 79.791Z" fill="white"/>
<path d="M114.212 79.791H105.975C100.626 79.791 96.3066 84.1331 96.3066 89.4599V104.881H123.88V89.4599C123.88 84.1107 119.561 79.791 114.212 79.791Z" fill="white"/>
<path fill-rule="evenodd" clip-rule="evenodd" d="M99.202 68.1749C99.202 63.5268 102.984 59.7441 107.633 59.7441C112.281 59.7441 116.063 63.5268 116.063 68.1749C116.063 72.823 112.281 76.6056 107.633 76.6056C102.986 76.6056 99.202 72.8474 99.202 68.1749ZM107.633 61.7441C104.089 61.7441 101.202 64.6313 101.202 68.1749C101.202 71.7389 104.087 74.6056 107.633 74.6056C111.176 74.6056 114.063 71.7185 114.063 68.1749C114.063 64.6313 111.176 61.7441 107.633 61.7441ZM101.03 80.791C96.2332 80.791 92.3613 84.663 92.3613 89.4599V104.881C92.3613 105.433 91.9136 105.881 91.3613 105.881C90.809 105.881 90.3613 105.433 90.3613 104.881V89.4599C90.3613 83.5584 95.1286 78.791 101.03 78.791H114.213C120.116 78.791 124.881 83.5823 124.881 89.4599V104.881C124.881 105.433 124.434 105.881 123.881 105.881C123.329 105.881 122.881 105.433 122.881 104.881V89.4599C122.881 84.6838 119.008 80.791 114.213 80.791H101.03Z" fill="#111111"/>
</g>
<defs>
<clipPath id="clip0_2418_105579">
<rect width="125" height="106" fill="white"/>
</clipPath>
</defs>
</svg>
