<svg width="64" height="64" viewBox="0 0 64 64" fill="none" xmlns="http://www.w3.org/2000/svg">
<path d="M51.9572 35.8621C51.9572 38.6897 49.6939 41.0345 46.8134 41.0345C44.0015 41.0345 41.6696 38.7587 41.6696 35.8621C41.6696 34.2069 42.424 32.7587 43.6585 31.7932H31.9992V42.8966C31.1076 42.0001 29.8045 41.3794 28.4329 41.3794C25.6209 41.3794 23.2891 43.6552 23.2891 46.5518C23.2891 49.4483 25.5523 51.7242 28.4329 51.7242C29.8045 51.7242 31.1076 51.1725 31.9992 50.2069V61.5863H53.8776C58.1298 61.5863 61.6276 58.069 61.6276 53.7932V31.8621H49.9683C51.2028 32.7587 51.9572 34.2069 51.9572 35.8621Z" stroke="white" stroke-width="3" stroke-miterlimit="10" stroke-linecap="round" stroke-linejoin="round"/>
<path d="M12.0414 28.138C12.0414 25.3104 14.3047 22.9655 17.1853 22.9655C20.0658 22.9655 22.3291 25.2414 22.3291 28.138C22.3291 29.7931 21.5746 31.2414 20.3401 32.2069H31.9994V21.1035C32.891 22 34.1941 22.6207 35.5658 22.6207C38.3777 22.6207 40.7096 20.3449 40.7096 17.4483C40.7096 14.5517 38.4463 12.2759 35.5658 12.2759C34.1941 12.2759 32.891 12.8276 31.9994 13.7931V2.41382H10.1211C5.86888 2.41382 2.37109 5.93106 2.37109 10.2069V32.2069H14.0304C12.8645 31.2414 12.0414 29.7931 12.0414 28.138Z" stroke="white" stroke-width="3" stroke-miterlimit="10" stroke-linecap="round" stroke-linejoin="round"/>
<path d="M27.953 51.8621C25.141 51.8621 22.8091 49.5862 22.8091 46.6897C22.8091 43.8621 25.0724 41.5172 27.953 41.5172C29.599 41.5172 31.0392 42.2759 31.9994 43.5172V31.7931H20.9574C21.849 30.8966 22.4662 29.5862 22.4662 28.2069C22.4662 25.3793 20.203 23.0345 17.3224 23.0345C14.5105 23.0345 12.1786 25.3103 12.1786 28.2069C12.1786 29.5862 12.7273 30.8966 13.6875 31.7931H2.37109V53.7931C2.37109 58.069 5.86888 61.5862 10.1211 61.5862H31.9994V49.8621C31.0392 51.1035 29.599 51.8621 27.953 51.8621Z" stroke="white" stroke-width="3" stroke-miterlimit="10" stroke-linecap="round" stroke-linejoin="round"/>
<path d="M61.5586 32.2759L61.6272 30.5518" stroke="white" stroke-width="3" stroke-linecap="round" stroke-linejoin="round"/>
<path d="M61.626 23.0345V10.2759C61.626 6.00003 58.1968 2.48278 53.876 2.48278L37.4844 2.41382" stroke="white" stroke-width="3" stroke-linecap="round" stroke-linejoin="round" stroke-dasharray="5.47 5.47"/>
<path d="M33.781 2.41382H32.0664" stroke="white" stroke-width="3" stroke-linecap="round" stroke-linejoin="round"/>
</svg>
