<svg width="52" height="42" viewBox="0 0 52 42" fill="none" xmlns="http://www.w3.org/2000/svg">
<path d="M50.9989 1.83481C50.9551 2.62298 50.9113 3.41115 50.8238 4.15554C49.5977 15.5402 42.329 24.8669 32.6083 29.2894C29.5432 30.6906 26.2591 31.6101 22.7999 31.9166C22.4058 29.8586 21.5739 27.8882 20.1727 26.1367C18.9029 24.5166 17.2827 23.2906 15.5312 22.4586C16.6697 19.087 18.3774 16.0219 20.4792 13.3071C26.9597 5.03128 37.4686 0.170898 48.6782 1.44073C49.4663 1.5283 50.2545 1.65966 50.9989 1.83481Z" stroke="#114493" stroke-width="2" stroke-miterlimit="10" stroke-linecap="round" stroke-linejoin="round"/>
<path d="M33.5282 29.5521C32.8277 32.5296 31.1637 35.2882 28.6241 37.3024C26.6537 38.8788 24.3767 39.8421 22.056 40.1924C23.0631 37.7403 23.3258 35.0255 22.8442 32.3983C22.4501 30.1651 21.4868 28.0196 19.998 26.1367C18.5968 24.3852 16.8453 23.0278 14.9187 22.1521C12.379 20.9698 9.48906 20.6195 6.73047 21.0574C7.60621 18.868 9.05119 16.8976 11.0216 15.3213C13.7802 13.1319 17.108 12.1248 20.3483 12.2562C24.2891 12.3875 28.1424 14.2266 30.8134 17.5544C33.6158 21.0136 34.4916 25.4799 33.5282 29.5521Z" stroke="#114493" stroke-width="2" stroke-miterlimit="10" stroke-linecap="round" stroke-linejoin="round"/>
<path d="M34.9297 2.9733C38.2575 3.10466 41.4978 4.59342 43.7309 7.39581C46.0954 10.3733 46.8398 14.0952 46.0079 17.5107" stroke="#114493" stroke-width="2" stroke-miterlimit="10" stroke-linecap="round" stroke-linejoin="round"/>
<path d="M39.8342 12.8692C39.8342 14.358 38.6082 15.5402 37.1632 15.5402C35.6744 15.5402 34.4922 14.3142 34.4922 12.8692C34.4922 11.4242 35.7182 10.1982 37.1632 10.1982C38.652 10.1982 39.8342 11.3804 39.8342 12.8692Z" stroke="#114493" stroke-width="2" stroke-miterlimit="10" stroke-linecap="round" stroke-linejoin="round"/>
<path d="M8.70361 26.3119L2.61719 31.0409" stroke="#114493" stroke-width="2" stroke-miterlimit="10" stroke-linecap="round" stroke-linejoin="round"/>
<path d="M16.1039 36.2516L10.543 40.7616" stroke="#114493" stroke-width="2" stroke-miterlimit="10" stroke-linecap="round" stroke-linejoin="round"/>
<path d="M15.2707 28.7639L0.996094 40.061" stroke="#114493" stroke-width="2" stroke-miterlimit="10" stroke-linecap="round" stroke-linejoin="round"/>
</svg>
