<svg width="38" height="41" viewBox="0 0 38 41" fill="none" xmlns="http://www.w3.org/2000/svg">
<rect width="38" height="41" fill="#2F2F2F"/>
<g id="20240123_PC_&#236;&#157;&#184;&#235;&#160;&#165;&#236;&#150;&#145;&#236;&#132;&#177;_&#236;&#186;&#161;&#236;&#138;&#164;&#237;&#134;&#164;&#235;&#148;&#148;&#236;&#158;&#144;&#236;&#157;&#184;">
<rect width="1920" height="3338.01" transform="translate(-640 -2604)" fill="white"/>
<g id="Contente Area">
<g id="Frame 1000005595">
<g id="Frame 1000005597">
<g id="Frame 1000005574">
<g id="Frame 1000005470">
<g id="Group 1000002366">
<g id="Frame 1000005632">
<g id="Frame 1000005626">
<g id="Frame 1000002367">
<rect x="-16" y="-14.9714" width="70" height="70" rx="35" fill="#F6F8FA"/>
<g id="Frame" clip-path="url(#clip0_503_57396)">
<g id="Group">
<g id="Group_2">
<path id="Vector" d="M31.2767 5.17853H28.0188V0.877138C28.0188 0.40896 27.6337 0.0285645 27.1598 0.0285645H9.89249C9.4186 0.0285645 9.03357 0.40896 9.03357 0.877138V11.5282C9.03357 11.9964 9.4186 12.3768 9.89249 12.3768H11.1661V14.9518C11.1661 15.6248 11.9658 16.0344 12.4989 15.654L17.2082 12.3768H19.1037V12.4353C19.1037 13.7813 20.1996 14.864 21.562 14.864H27.3375L30.8029 17.2926C31.3656 17.673 32.1357 17.2926 32.1357 16.5904V14.7177C33.0538 14.3665 33.7351 13.4887 33.7351 12.4353V7.6072C33.7351 6.29045 32.6392 5.17853 31.2767 5.17853ZM16.9416 10.6796C16.7639 10.6796 16.5862 10.7381 16.4381 10.8259L12.8543 13.3131V11.4989C12.8543 11.0308 12.4693 10.6504 11.9954 10.6504H10.7218V1.72571H26.3009V10.7089H16.9416V10.6796ZM32.0172 12.4353C32.0172 12.845 31.6914 13.1668 31.2767 13.1668C30.8029 13.1668 30.4178 13.5472 30.4178 14.0154V14.9518L28.078 13.3131C27.9299 13.2253 27.7522 13.1668 27.5745 13.1668H21.5324C21.1177 13.1668 20.7919 12.845 20.7919 12.4353V12.3768H27.1302C27.6041 12.3768 27.9891 11.9964 27.9891 11.5282V6.87568H31.2767C31.6914 6.87568 32.0172 7.19755 32.0172 7.6072V12.4353Z" fill="#114493"/>
<path id="Vector_2" d="M23.6945 3.45215H13.3282C12.8543 3.45215 12.4692 3.83254 12.4692 4.30072C12.4692 4.7689 12.8543 5.1493 13.3282 5.1493H23.6945C24.1684 5.1493 24.5534 4.7689 24.5534 4.30072C24.5534 3.83254 24.1684 3.45215 23.6945 3.45215Z" fill="#114493"/>
<path id="Vector_3" d="M22.0063 7.08051H15.0164C14.5425 7.08051 14.1575 7.4609 14.1575 7.92908C14.1575 8.39726 14.5425 8.77765 15.0164 8.77765H22.0063C22.4802 8.77765 22.8652 8.39726 22.8652 7.92908C22.8652 7.4609 22.4802 7.08051 22.0063 7.08051Z" fill="#114493"/>
</g>
<path id="Vector_4" d="M33.9424 29.6701C34.8605 28.5874 35.3936 27.1829 35.3936 25.6613V23.7008C35.3936 20.248 32.5503 17.4097 29.0257 17.4097C25.5308 17.4097 22.6579 20.2187 22.6579 23.7008V25.6613C22.6579 27.1829 23.2206 28.5874 24.1091 29.6701C21.7397 30.4309 20.0219 32.6547 20.0219 35.259V39.18C20.0219 39.6481 20.4069 40.0285 20.8808 40.0285H37.1411C37.615 40.0285 38 39.6481 38 39.18V35.259C38 32.6547 36.3118 30.4309 33.9424 29.6701ZM33.6166 22.9985C32.5799 22.3255 31.6914 21.0381 31.3952 20.4821C31.0694 19.8969 30.2401 19.8969 29.9143 20.4528C28.6703 22.5304 25.827 23.1449 24.4053 23.3204C24.583 20.9795 26.5971 19.1068 29.0257 19.1068C31.3656 19.1068 33.2908 20.804 33.6166 22.9985ZM24.3757 25.0468C25.7974 24.9005 28.7296 24.3446 30.5955 22.3841C31.2471 23.2619 32.343 24.4616 33.7054 24.9298V25.6906C33.7054 28.2363 31.6025 30.2846 29.0554 30.2846C26.6563 30.2553 24.3757 28.6167 24.3757 25.0468ZM36.3118 38.3314H21.7397V35.259C21.7397 33.0059 23.5464 31.1917 25.7974 31.0746C27.8114 32.2451 30.2401 32.2451 32.2541 31.0746C34.5051 31.1624 36.3118 33.0059 36.3118 35.259V38.3314Z" fill="#114493"/>
<path id="Vector_5" d="M13.8909 29.6701C14.809 28.5874 15.3422 27.1829 15.3422 25.6613V23.7008C15.3422 20.248 12.4988 17.4097 8.97428 17.4097C5.44973 17.4097 2.63601 20.248 2.63601 23.7008V25.6613C2.63601 27.1829 3.19875 28.5874 4.0873 29.6701C1.71785 30.4309 0 32.6547 0 35.259V39.18C0 39.6481 0.385035 40.0285 0.858924 40.0285H17.1193C17.5931 40.0285 17.9782 39.6481 17.9782 39.18V35.259C17.9782 32.6547 16.2603 30.4309 13.8909 29.6701ZM13.5947 22.9985C12.5581 22.3255 11.6695 21.0381 11.3733 20.4821C11.0475 19.8969 10.2182 19.8969 9.89244 20.4528C8.64848 22.5304 5.80514 23.1449 4.38348 23.3204C4.5908 20.9503 6.57521 19.1068 9.03351 19.1068C11.3141 19.1068 13.2393 20.804 13.5947 22.9985ZM4.32424 25.0468C5.74591 24.9005 8.6781 24.3446 10.544 22.3841C11.1956 23.2619 12.2915 24.4616 13.6539 24.9298V25.6906C13.6539 28.2363 11.5511 30.2846 9.0039 30.2846C6.63445 30.2553 4.32424 28.6167 4.32424 25.0468ZM16.2603 38.3314H1.71785V35.259C1.71785 33.0059 3.52455 31.1917 5.77553 31.0746C7.78956 32.2451 10.2182 32.2451 12.2323 31.0746C14.4832 31.1624 16.2899 33.0059 16.2899 35.259V38.3314H16.2603Z" fill="#114493"/>
</g>
</g>
</g>
</g>
</g>
</g>
</g>
</g>
</g>
</g>
</g>
</g>
<defs>
<clipPath id="clip0_503_57396">
<rect width="38" height="40" fill="white" transform="translate(0 0.0285645)"/>
</clipPath>
</defs>
</svg>
