<svg width="137" height="110" viewBox="0 0 137 110" fill="none" xmlns="http://www.w3.org/2000/svg">
<g clip-path="url(#clip0_2418_105718)">
<path fill-rule="evenodd" clip-rule="evenodd" d="M96.4606 1.28902C96.4606 0.686882 96.9487 0.198753 97.5509 0.198753H109.652C109.656 0.198753 109.66 0.198771 109.663 0.198807C109.946 0.196 110.23 0.302813 110.446 0.519151C110.714 0.787704 110.813 1.16098 110.743 1.50676V13.3755C110.743 13.9776 110.254 14.4658 109.652 14.4658C109.05 14.4658 108.562 13.9776 108.562 13.3755V3.9378L53.1915 59.1554C52.7655 59.5802 52.076 59.5797 51.6506 59.1543L38.0693 45.5691L2.77627 80.7757C2.34997 81.201 1.65966 81.2001 1.2344 80.7738C0.80915 80.3475 0.809996 79.6572 1.23629 79.2319L37.3003 43.2561C37.7263 42.8312 38.416 42.8317 38.8414 43.2572L52.4228 56.8425L107.037 2.37928H97.5509C96.9487 2.37928 96.4606 1.89116 96.4606 1.28902Z" fill="#6099FF"/>
<path d="M63.7136 12.8083C73.4341 12.721 82.4118 16.0153 89.4892 21.6004C81.8658 12.3283 70.2667 6.43777 57.3352 6.56867C34.6614 6.78684 16.4437 25.3311 16.684 47.9768C16.8151 60.9142 22.9313 72.368 32.3678 79.8075C26.6447 72.8261 23.1716 63.9467 23.0624 54.2382C22.8221 31.5707 41.0398 13.0264 63.7136 12.8083Z" fill="white"/>
<path d="M98.7948 47.1696C98.7074 37.4612 95.2124 28.5599 89.4893 21.6004C82.3901 16.0153 73.4342 12.721 63.7137 12.8301C41.0399 13.0482 22.8441 31.5925 23.0625 54.2382C23.1499 63.9467 26.6449 72.8479 32.3679 79.8075C39.4672 85.3926 48.4231 88.6869 58.1654 88.5996C80.8174 88.3596 99.0132 69.8154 98.7948 47.1696Z" fill="#6099FF"/>
<path fill-rule="evenodd" clip-rule="evenodd" d="M57.3975 5.47782C80.6387 5.29317 99.6613 23.9335 99.8853 47.1591C100.106 70.0665 81.9738 88.8844 59.176 89.646C58.8303 89.6718 58.4825 89.6864 58.1325 89.6898C57.7732 89.6933 57.4159 89.6848 57.0606 89.6646C34.2862 89.3047 15.8152 70.8721 15.5942 47.9879C15.3483 24.7847 33.9755 5.77933 57.1841 5.48004C57.2238 5.47937 57.2635 5.47884 57.3033 5.47846C57.3347 5.47815 57.3661 5.47794 57.3975 5.47782ZM46.9911 9.11535C30.3215 13.7484 18.0702 28.8907 17.7777 46.8758L32.0623 46.7353C32.1272 35.6807 34.7811 25.6214 39.1245 18.2025C41.3234 14.4466 43.9845 11.3261 46.9911 9.11535ZM32.0831 48.9158L17.7998 49.0562C18.4555 67.0128 30.9705 81.8926 47.6992 86.2181C44.6695 84.0682 41.9641 81.014 39.7036 77.3225C35.2112 69.9863 32.3588 59.9744 32.0831 48.9158ZM68.4719 86.0352C85.1441 81.4072 97.3914 66.2621 97.7008 48.2707L83.3746 48.4115C83.323 59.4748 80.6682 69.5424 76.3193 76.9661C74.1249 80.7119 71.4702 83.8256 68.4719 86.0352ZM83.3522 46.2311C83.0733 35.181 80.2218 25.1773 75.7322 17.8458C73.4535 14.1245 70.7225 11.0507 67.6631 8.89823C84.4505 13.1844 97.0225 28.0918 97.6797 46.0903L83.3522 46.2311ZM81.1715 46.2526L58.8192 46.4723L58.437 7.693C64.2687 8.10737 69.7226 12.2074 73.8727 18.9845C78.1268 25.9317 80.8959 35.536 81.1715 46.2526ZM56.2566 7.71057C50.4178 8.22024 45.0311 12.4296 41.0063 19.3042C36.8906 26.3341 34.3112 35.9926 34.243 46.7139L56.6388 46.4937L56.2566 7.71057ZM56.6603 48.6742L34.2638 48.8943C34.5362 59.6195 37.3062 69.232 41.5632 76.1838C45.7236 82.9779 51.1945 87.0815 57.0427 87.4783L56.6603 48.6742ZM58.8407 48.6527L81.194 48.433C81.139 59.1626 78.5589 68.8292 74.4379 75.8639C70.4207 82.7211 65.0459 86.9269 59.2231 87.4538L58.8407 48.6527Z" fill="#111111"/>
<path d="M20.3546 66.0193C20.3109 62.5722 22.4953 59.6488 25.5534 58.5361C24.7233 58.2525 23.8496 58.0998 22.9103 58.0998C18.5416 58.1434 15.0466 61.7214 15.0902 66.0629C15.1339 70.4263 18.7163 73.9169 23.0851 73.8733C24.0025 73.8733 24.8981 73.6988 25.7063 73.3933C22.6263 72.368 20.3983 69.4663 20.3546 66.0193Z" fill="white"/>
<path d="M30.9047 65.9102C30.861 62.4632 28.6329 59.5833 25.553 58.5143C22.4948 59.627 20.3105 62.5722 20.3542 65.9975C20.3978 69.4445 22.6259 72.3243 25.7059 73.3933C28.764 72.3025 30.9484 69.3572 30.9047 65.9102Z" fill="#EBEDF4"/>
<path d="M21.3817 78.3457L16.1174 78.3894C10.438 78.433 5.87264 83.08 5.91633 88.7741L6.11292 108.453L11.3773 108.409L11.2025 88.7305C11.137 83.0582 15.7023 78.4112 21.3817 78.3457Z" fill="white"/>
<path d="M30.1404 78.2585L21.3811 78.3458C15.7017 78.4112 11.1363 83.0363 11.2019 88.7305L11.3985 108.409L40.7346 108.126L40.538 88.4469C40.4725 82.7746 35.8198 78.2148 30.1404 78.2585Z" fill="#EBEDF4"/>
<path fill-rule="evenodd" clip-rule="evenodd" d="M22.8984 57.0096C27.865 56.96 31.9445 60.9296 31.9943 65.8993C32.044 70.863 28.0669 74.9373 23.0703 74.9636C18.1248 75.0117 14.0487 71.0407 13.999 66.0739M29.8139 65.9211C29.7762 62.1641 26.6911 59.1524 22.9201 59.19C19.1532 59.2276 16.1418 62.3128 16.1794 66.052C16.217 69.8109 19.3042 72.8207 23.0512 72.7831L23.0567 72.7831C26.8401 72.7643 29.8515 69.6832 29.8139 65.9211ZM22.8984 57.0096C17.9278 57.0592 13.9493 61.13 13.999 66.0739L22.8984 57.0096ZM39.4251 88.4366C39.366 83.3655 35.2059 79.2902 30.1303 79.3487L30.1279 79.3487L16.1284 79.4796L16.1272 79.4796C11.0466 79.5388 6.96832 83.6956 7.02685 88.7616L7.02687 88.7633L7.22346 108.442C7.22948 109.044 6.74625 109.537 6.14414 109.543C5.54204 109.549 5.04906 109.066 5.04304 108.464L4.84646 88.7867C4.7744 82.5088 9.82598 77.3715 16.1033 77.2992L16.1057 77.2992L30.1051 77.1683L30.1065 77.1683C36.3887 77.0966 41.533 82.1398 41.6055 88.4125L41.8021 108.093C41.8081 108.695 41.3249 109.188 40.7228 109.194C40.1207 109.2 39.6277 108.717 39.6217 108.115L39.4251 88.4366Z" fill="#111111"/>
<path d="M89.1847 65.343C89.141 61.8959 91.3254 58.9725 94.3835 57.8598C93.5534 57.5762 92.6797 57.4235 91.7404 57.4235C87.3716 57.4671 83.8766 61.0233 83.9203 65.3866C83.964 69.7499 87.5464 73.2406 91.9151 73.197C92.8326 73.197 93.7282 73.0225 94.5364 72.717C91.4564 71.6916 89.2065 68.79 89.1847 65.343Z" fill="white"/>
<path d="M99.7348 65.2557C99.6911 61.8087 97.463 58.9288 94.3831 57.8598C91.3249 58.9725 89.1405 61.9177 89.1842 65.343C89.2279 68.79 91.456 71.6698 94.536 72.7388C97.5941 71.6262 99.7566 68.6809 99.7348 65.2557Z" fill="#EBEDF4"/>
<path d="M99.7348 65.2557C99.6911 61.8087 97.463 58.9288 94.3831 57.8598C91.3249 58.9725 89.1405 61.9177 89.1842 65.343C89.2279 68.79 91.456 71.6698 94.536 72.7388C97.5941 71.6262 99.7566 68.6809 99.7348 65.2557Z" stroke="#EBEDF4" stroke-miterlimit="10"/>
<path d="M54.7804 65.692C54.7367 62.245 56.9211 59.3215 59.9792 58.2089C59.1491 57.9253 58.2754 57.7726 57.3361 57.7726C52.9673 57.8162 49.4723 61.3941 49.516 65.7357C49.5597 70.099 53.1421 73.5897 57.5108 73.5461C58.4283 73.5461 59.3239 73.3715 60.1321 73.0661C57.0303 72.0189 54.8022 69.1173 54.7804 65.692Z" fill="white"/>
<path d="M65.3305 65.583C65.2868 62.1359 63.0587 59.2561 59.9788 58.1871C56.9206 59.2997 54.7363 62.245 54.7799 65.6702C54.8236 69.1173 57.0517 71.9971 60.1317 73.0661C63.1898 71.9534 65.3523 69.03 65.3305 65.583Z" fill="#D7DBE8"/>
<path d="M55.784 78.0185L50.5197 78.0621C44.8403 78.1058 40.275 82.7527 40.3187 88.4469L40.5153 108.126L45.7796 108.082L45.583 88.4033C45.5393 82.7091 50.1047 78.0621 55.784 78.0185Z" fill="white"/>
<path d="M64.5447 77.9312L55.7854 78.0185C50.106 78.0839 45.5406 82.7091 45.6062 88.4033L45.8028 108.082L75.1389 107.798L74.9423 88.1196C74.8768 82.4255 70.2241 77.8876 64.5447 77.9312Z" fill="#D7DBE8"/>
<path fill-rule="evenodd" clip-rule="evenodd" d="M57.3245 56.6823C62.2911 56.6327 66.3707 60.6023 66.4204 65.572C66.4701 70.5378 62.4692 74.61 57.4964 74.6363C52.5509 74.6844 48.4749 70.7134 48.4251 65.7466C48.3754 60.8027 52.3539 56.732 57.3245 56.6823ZM64.24 65.5939C64.2024 61.8369 61.1172 58.8251 57.3463 58.8628C53.5794 58.9004 50.5679 61.9856 50.6055 65.7247C50.6432 69.4837 53.7303 72.4935 57.4774 72.4558L57.4829 72.4558C61.2464 72.437 64.2776 69.3539 64.24 65.5939ZM73.8294 88.1094C73.7703 83.0382 69.6101 78.9629 64.5346 79.0214L64.5322 79.0214L50.5327 79.1523L50.5315 79.1523C45.4509 79.2115 41.3726 83.3684 41.4311 88.4343L41.4312 88.436L41.6278 108.115C41.6338 108.717 41.1505 109.21 40.5484 109.216C39.9463 109.222 39.4534 108.739 39.4473 108.136L39.2508 88.4595C39.1787 82.1815 44.2303 77.0443 50.5076 76.9719L64.5094 76.841C70.7922 76.7686 75.9373 81.8121 76.0098 88.0852L76.2064 107.766C76.2124 108.368 75.7292 108.861 75.1271 108.867C74.525 108.873 74.032 108.39 74.026 107.787L73.8294 88.1094Z" fill="#111111"/>
<path d="M90.2997 78.0212L85.0353 78.0649C79.356 78.1085 74.7906 82.7555 74.8343 88.4496L75.0309 108.128L80.2952 108.085L80.0986 88.406C80.055 82.7118 84.6203 78.0649 90.2997 78.0212Z" fill="white"/>
<path d="M99.0584 77.9343L90.299 78.0216C84.6197 78.087 80.0543 82.7122 80.1198 88.4064L80.3164 108.085L109.653 107.801L109.456 88.1227C109.39 82.4286 104.738 77.8907 99.0584 77.9343Z" fill="#D7DBE8"/>
<path fill-rule="evenodd" clip-rule="evenodd" d="M91.8382 56.6961C96.8048 56.6465 100.884 60.6161 100.934 65.5858C100.984 70.5515 96.9828 74.6237 92.0101 74.65C87.0646 74.6982 82.9885 70.7271 82.9388 65.7603C82.8891 60.8164 86.8676 56.7457 91.8382 56.6961ZM98.7537 65.6076C98.7161 61.8506 95.6309 58.8389 91.86 58.8765C88.0931 58.9141 85.0816 61.9993 85.1192 65.7384C85.1569 69.4974 88.244 72.5072 91.991 72.4696L91.9965 72.4696C95.7601 72.4508 98.7913 69.3677 98.7537 65.6076ZM108.343 88.1231C108.284 83.052 104.124 78.9767 99.0482 79.0352L99.0459 79.0352L85.0464 79.1661L85.0451 79.1661C79.9646 79.2253 75.8863 83.3821 75.9448 88.448L75.9448 88.4497L76.1414 108.128C76.1474 108.731 75.6642 109.224 75.0621 109.23C74.46 109.236 73.967 108.752 73.961 108.15L73.7644 88.4732C73.6924 82.1953 78.7439 77.058 85.0213 76.9857L99.0231 76.8548C105.306 76.7824 110.451 81.8259 110.523 88.099L110.72 107.779C110.726 108.381 110.243 108.874 109.641 108.88C109.039 108.887 108.546 108.403 108.54 107.801L108.343 88.1231Z" fill="#111111"/>
</g>
<defs>
<clipPath id="clip0_2418_105718">
<rect width="136.283" height="110" fill="white" transform="translate(0.716797 0.00183105)"/>
</clipPath>
</defs>
</svg>
