<svg width="125" height="126" viewBox="0 0 125 126" fill="none" xmlns="http://www.w3.org/2000/svg">
<g clip-path="url(#clip0_2418_105547)">
<path d="M82.6493 79.9397C86.9531 73.387 89.3179 65.4573 88.9159 56.934C88.0409 37.822 73.0012 22.0812 54.1306 20.3243C34.6215 22.1762 19.3453 38.6529 19.3453 58.7384V58.7859C19.3453 61.4924 18.3758 64.1278 16.6259 66.1933L9.29517 74.859C7.85268 76.5447 9.05869 79.1563 11.2815 79.1563H16.6968V94.6833C16.6968 100.571 21.4499 105.343 27.3145 105.343H31.0744H38.3578V119.992H74.822V106.744C74.822 97.2237 77.4469 87.8694 82.6493 79.9397Z" fill="white"/>
<path fill-rule="evenodd" clip-rule="evenodd" d="M10.8477 58.7622C10.8477 35.9694 30.0348 17.6479 53.0868 19.2555C72.9171 20.6204 88.8018 36.9873 89.7005 56.8869C90.1128 65.628 87.6868 73.7652 83.2712 80.4883C78.1822 88.245 75.6078 97.4063 75.6078 106.72V119.968C75.6078 120.521 75.1601 120.968 74.6078 120.968C74.0555 120.968 73.6078 120.521 73.6078 119.968V106.72C73.6078 97.0411 76.283 87.4939 81.5989 79.3912L81.5992 79.3908C85.7911 73.0086 88.0944 65.2864 87.7027 56.9812L87.7026 56.9791C86.8504 38.0859 71.7578 22.5451 52.9491 21.2508L52.9481 21.2507C31.0704 19.7247 12.8477 37.1106 12.8477 58.7622V58.8096C12.8477 61.7535 11.7938 64.6175 9.89167 66.8629M9.8912 66.8635L2.56099 75.5286L2.5573 75.5329C1.67287 76.5665 2.41068 78.18 3.7839 78.18H9.19915C9.75143 78.18 10.1991 78.6277 10.1991 79.18V94.7071C10.1991 100.046 14.5083 104.367 19.8168 104.367H30.8601C31.4124 104.367 31.8601 104.815 31.8601 105.367V120.016C31.8601 120.568 31.4124 121.016 30.8601 121.016C30.3079 121.016 29.8601 120.568 29.8601 120.016V106.367H19.8168C13.3962 106.367 8.19915 101.144 8.19915 94.7071V80.18H3.7839C0.71244 80.18 -0.961685 76.5728 1.03573 74.2349C1.0364 74.2342 1.03707 74.2334 1.03774 74.2326L8.36474 65.5712L8.36521 65.5706C9.96264 63.6851 10.8477 61.2786 10.8477 58.8096V58.7622" fill="#111111"/>
<path fill-rule="evenodd" clip-rule="evenodd" d="M115.736 3.9414C114.22 2.34481 111.711 2.27535 110.13 3.78692L110.128 3.78868L103.637 9.9635L115.082 22.0892L121.565 15.9216C121.565 15.9213 121.565 15.9211 121.566 15.9208C123.158 14.3975 123.228 11.8711 121.72 10.2813L121.718 10.2795L115.737 3.9423C115.736 3.942 115.736 3.9417 115.736 3.9414ZM108.749 2.34052C111.14 0.0546063 114.92 0.175041 117.188 2.56587L117.19 2.56771L123.171 8.90491C123.171 8.90521 123.171 8.90551 123.171 8.90581C125.446 11.3044 125.326 15.0919 122.947 17.3672L122.945 17.3689L115.733 24.2303C115.54 24.4135 115.282 24.5125 115.017 24.5054C114.751 24.4982 114.499 24.3855 114.316 24.1921L101.499 10.6119C101.121 10.2114 101.138 9.58058 101.537 9.20098L108.748 2.34139C108.748 2.3411 108.749 2.34081 108.749 2.34052Z" fill="#111111"/>
<path d="M59.7102 78.6577L113.295 27.6605L97.9953 11.4449L44.3867 62.4184" fill="#6099FF"/>
<path d="M59.7102 78.6577L113.295 27.6605L97.9953 11.4449L44.3867 62.4184" stroke="#3C3C3B" stroke-width="1.115" stroke-miterlimit="10" stroke-linecap="round" stroke-linejoin="round"/>
<path d="M44.3851 62.4183L36.2031 85.614L59.7086 78.6576" fill="white"/>
<path d="M44.3851 62.4183L36.2031 85.614L59.7086 78.6576" stroke="#3C3C3B" stroke-width="1.115" stroke-miterlimit="10"/>
<path d="M40.1995 74.3367L36.2031 85.614L47.6484 82.2189" fill="#111111"/>
<path d="M40.1995 74.3367L36.2031 85.614L47.6485 82.2189" stroke="#111111" stroke-width="1.115" stroke-miterlimit="10"/>
<path fill-rule="evenodd" clip-rule="evenodd" d="M98.0208 10.4453C98.2866 10.4525 98.5386 10.5653 98.7211 10.7587L114.021 26.9742C114.399 27.3747 114.382 28.0053 113.983 28.3849L60.398 79.382C60.2833 79.4912 60.1443 79.5716 59.9924 79.6166L36.4869 86.5729C36.1266 86.6795 35.7369 86.5751 35.4781 86.3027C35.2193 86.0302 35.1351 85.6357 35.2601 85.2813L43.4421 62.0857C43.4946 61.9368 43.5816 61.8025 43.6961 61.6937L97.3047 10.7203C97.4973 10.537 97.7551 10.4381 98.0208 10.4453ZM45.2483 62.9775L37.7979 84.0992L59.1938 77.7672L111.883 27.6226L97.9553 12.8614L45.2483 62.9775Z" fill="#111111"/>
<path d="M102.111 4.35754L94.5234 11.5752L113 31.1531L120.587 23.9355L102.111 4.35754Z" fill="white"/>
<path fill-rule="evenodd" clip-rule="evenodd" d="M93.7996 12.2645C93.4206 11.8628 93.4377 11.2286 93.8378 10.848L101.425 3.63034C101.825 3.24968 102.457 3.26671 102.836 3.66836L121.313 23.2463C121.692 23.6479 121.675 24.2821 121.274 24.6628L113.687 31.8804C113.287 32.2611 112.655 32.2441 112.276 31.8424L93.7996 12.2645ZM95.9351 11.6133L113.039 29.7367L119.177 23.8975L102.073 5.77411L95.9351 11.6133Z" fill="#111111"/>
<path fill-rule="evenodd" clip-rule="evenodd" d="M104.207 20.9203C104.586 21.3221 104.567 21.955 104.166 22.3339L53.2056 70.3871C52.8038 70.7659 52.1709 70.7474 51.792 70.3456C51.4131 69.9437 51.4317 69.3108 51.8335 68.9319L102.794 20.8788C103.195 20.4999 103.828 20.5185 104.207 20.9203Z" fill="#111111"/>
<path d="M26.959 65.0062C26.959 67.2616 25.8239 69.0897 24.4287 69.0897C23.0335 69.0897 21.8984 67.2616 21.8984 65.0062C21.8984 62.7507 23.0335 60.9226 24.4287 60.9226C25.8239 60.9226 26.959 62.7507 26.959 65.0062Z" fill="#111111"/>
<path fill-rule="evenodd" clip-rule="evenodd" d="M23.4903 62.6455C23.1449 63.2026 22.8984 64.0347 22.8984 65.0062C22.8984 65.9777 23.1449 66.8098 23.4903 67.3668C23.8453 67.9394 24.2048 68.0897 24.4287 68.0897C24.6527 68.0897 25.0121 67.9394 25.3671 67.3668C25.7125 66.8098 25.959 65.9777 25.959 65.0062C25.959 64.0347 25.7125 63.2026 25.3671 62.6455C25.0121 62.0729 24.6527 61.9226 24.4287 61.9226C24.2048 61.9226 23.8453 62.0729 23.4903 62.6455ZM21.7905 61.5916C22.3518 60.6864 23.2575 59.9226 24.4287 59.9226C25.6 59.9226 26.5056 60.6864 27.0669 61.5916C27.6379 62.5125 27.959 63.7222 27.959 65.0062C27.959 66.2901 27.6379 67.4998 27.0669 68.4207C26.5056 69.326 25.6 70.0897 24.4287 70.0897C23.2575 70.0897 22.3518 69.326 21.7905 68.4207C21.2195 67.4998 20.8984 66.2901 20.8984 65.0062C20.8984 63.7222 21.2195 62.5125 21.7905 61.5916Z" fill="#111111"/>
<path d="M106.651 102.732C106.769 102.114 106.84 101.473 106.84 100.809C106.84 95.5379 102.583 91.2882 97.3572 91.2882C95.4891 91.2882 93.7628 91.8342 92.273 92.7602C89.5299 87.2284 83.8546 83.4297 77.2806 83.4297C68.0345 83.4297 60.5383 90.9558 60.5383 100.239C60.5383 101.07 60.6092 101.853 60.7274 102.66C55.4541 103.396 51.3867 107.955 51.3867 113.439C51.3867 119.47 56.2344 124.337 62.2409 124.337H104.522C110.529 124.337 115.377 119.446 115.377 113.439C115.424 108.121 111.664 103.705 106.651 102.732Z" fill="#6099FF"/>
<path fill-rule="evenodd" clip-rule="evenodd" d="M59.5383 100.239C59.5383 90.4073 67.4784 82.4297 77.2806 82.4297C83.8783 82.4297 89.6184 86.0393 92.6764 91.3919C94.0897 90.6913 95.6699 90.2882 97.3572 90.2882C103.138 90.2882 107.84 94.9878 107.84 100.809C107.84 101.206 107.817 101.593 107.776 101.971C112.778 103.374 116.423 107.972 116.377 113.444C116.374 119.995 111.085 125.337 104.522 125.337H62.2409C55.6784 125.337 50.3867 120.018 50.3867 113.439C50.3867 107.792 54.3354 103.044 59.6195 101.847C59.5676 101.322 59.5383 100.791 59.5383 100.239ZM77.2806 84.4297C68.5905 84.4297 61.5383 91.5043 61.5383 100.239C61.5383 101.011 61.604 101.745 61.7169 102.516C61.7555 102.779 61.6873 103.047 61.5275 103.26C61.3677 103.473 61.1295 103.614 60.8657 103.651C56.0823 104.318 52.3867 108.458 52.3867 113.439C52.3867 118.921 56.7905 123.337 62.2409 123.337H104.522C109.971 123.337 114.377 118.899 114.377 113.439V113.43H114.377C114.419 108.603 111.009 104.597 106.46 103.713C105.919 103.608 105.565 103.085 105.668 102.544C105.777 101.979 105.84 101.402 105.84 100.809C105.84 96.0881 102.029 92.2882 97.3572 92.2882C95.6893 92.2882 94.1442 92.7746 92.8009 93.6095C92.5615 93.7583 92.2705 93.7991 91.9994 93.722C91.7283 93.6449 91.5023 93.4569 91.3771 93.2044C88.7953 87.9978 83.4579 84.4297 77.2806 84.4297Z" fill="#111111"/>
<path d="M42.5657 20.2056C42.6367 19.8257 42.684 19.4221 42.684 19.0185C42.684 15.7896 40.0828 13.178 36.8667 13.178C35.7316 13.178 34.6675 13.5104 33.7689 14.0802C32.09 10.7089 28.6138 8.3822 24.5937 8.3822C18.9184 8.3822 14.3308 12.9881 14.3308 18.6861C14.3308 19.1847 14.3781 19.6832 14.449 20.1581C11.233 20.6092 8.75 23.387 8.75 26.7583C8.75 30.4382 11.7296 33.4297 15.3949 33.4297H41.2888C44.9541 33.4297 47.9337 30.4382 47.9337 26.7583C47.9337 23.5057 45.6162 20.7991 42.5657 20.2056Z" fill="white"/>
<path fill-rule="evenodd" clip-rule="evenodd" d="M13.3308 18.6861C13.3308 12.4396 18.3623 7.3822 24.5937 7.3822C28.6442 7.3822 32.1877 9.5329 34.1668 12.7403C34.9956 12.3796 35.9095 12.178 36.8667 12.178C40.6388 12.178 43.684 15.2411 43.684 19.0185C43.684 19.1677 43.6786 19.3156 43.6687 19.4614C46.7217 20.4638 48.9337 23.3518 48.9337 26.7583C48.9337 30.9868 45.5102 34.4297 41.2888 34.4297H15.3949C11.1735 34.4297 7.75 30.9868 7.75 26.7583C7.75 23.2253 10.1244 20.2541 13.3553 19.3652C13.3396 19.1419 13.3308 18.9149 13.3308 18.6861ZM24.5937 9.3822C19.4744 9.3822 15.3308 13.5366 15.3308 18.6861C15.3308 19.1231 15.3724 19.5708 15.438 20.0103C15.4775 20.2742 15.4098 20.5428 15.2502 20.7565C15.0905 20.9703 14.8521 21.1113 14.5879 21.1484C11.8627 21.5306 9.75 23.8885 9.75 26.7583C9.75 29.8897 12.2856 32.4297 15.3949 32.4297H41.2888C44.3981 32.4297 46.9337 29.8897 46.9337 26.7583C46.9337 23.9903 44.9613 21.6904 42.3748 21.1872C41.8355 21.0822 41.4819 20.562 41.5827 20.022C41.6453 19.6868 41.684 19.3462 41.684 19.0185C41.684 16.3381 39.5267 14.178 36.8667 14.178C35.9293 14.178 35.0498 14.4521 34.3044 14.9247C34.0653 15.0763 33.7732 15.1195 33.5004 15.0435C33.2277 14.9675 33 14.7794 32.8738 14.526C31.3562 11.4788 28.2175 9.3822 24.5937 9.3822Z" fill="#111111"/>
<path fill-rule="evenodd" clip-rule="evenodd" d="M44.2758 61.2539C44.6699 60.8669 45.303 60.8725 45.69 61.2666L60.8007 76.6512C61.1877 77.0452 61.182 77.6783 60.788 78.0653C60.3939 78.4523 59.7608 78.4466 59.3738 78.0526L44.2631 62.668C43.8761 62.274 43.8818 61.6409 44.2758 61.2539Z" fill="#111111"/>
</g>
<defs>
<clipPath id="clip0_2418_105547">
<rect width="125" height="125" fill="white" transform="translate(0 0.5)"/>
</clipPath>
</defs>
</svg>
