<svg width="136" height="110" viewBox="0 0 136 110" fill="none" xmlns="http://www.w3.org/2000/svg">
<g clip-path="url(#clip0_2418_105675)">
<path d="M35.8457 71.2359H106.441V22.817C106.441 19.7224 103.945 17.2056 100.877 17.2056H41.4098C38.3414 17.2056 35.8457 19.7224 35.8457 22.817V71.2359Z" fill="white"/>
<path fill-rule="evenodd" clip-rule="evenodd" d="M34.7617 22.817C34.7617 19.1317 37.7347 16.1202 41.4112 16.1202H100.878C104.554 16.1202 107.527 19.1317 107.527 22.817V71.236C107.527 71.8354 107.041 72.3213 106.442 72.3213H35.8471C35.2476 72.3213 34.7617 71.8354 34.7617 71.236V22.817ZM41.4112 18.2909C38.9508 18.2909 36.9324 20.3132 36.9324 22.817V70.1506H105.357V22.817C105.357 20.3132 103.338 18.2909 100.878 18.2909H41.4112Z" fill="#111111"/>
<path d="M101.941 25.1688H40.3262V71.236H101.941V25.1688Z" fill="#D7DBE8"/>
<path d="M73.3221 35.0919C73.3221 32.2243 71.5014 29.8106 68.9648 28.9028C69.6399 28.6553 70.3763 28.5315 71.1332 28.5315C74.7335 28.5315 77.6588 31.4816 77.6588 35.1125C77.6588 38.7434 74.7335 41.6935 71.1332 41.6935C70.3763 41.6935 69.6399 41.5491 68.9648 41.3222C71.5014 40.3938 73.3221 37.9595 73.3221 35.0919Z" fill="white"/>
<path d="M64.6289 35.0919C64.6289 32.2243 66.4495 29.8106 68.9861 28.9028C71.5227 29.8106 73.3433 32.2243 73.3433 35.0919C73.3433 37.9595 71.5227 40.3938 68.9861 41.2809C66.4291 40.3938 64.6289 37.9595 64.6289 35.0919Z" fill="#EBEDF4"/>
<path d="M72.5859 45.3657H76.9227C81.6072 45.3657 85.4121 49.2029 85.4121 53.9272V70.3076H81.0753V53.9272C81.0549 49.2029 77.2704 45.3657 72.5859 45.3657Z" fill="white"/>
<path d="M65.3644 45.3657H72.5855C77.27 45.3657 81.0749 49.2029 81.0749 53.9272V70.3076H56.875V53.9272C56.875 49.2029 60.6799 45.3657 65.3644 45.3657Z" fill="#EBEDF4"/>
<path fill-rule="evenodd" clip-rule="evenodd" d="M71.1539 29.5962C68.1616 29.5962 65.7136 32.0517 65.7136 35.0919C65.7136 38.1321 68.1616 40.5876 71.1539 40.5876C74.1461 40.5876 76.5941 38.1321 76.5941 35.0919C76.5941 32.0517 74.1461 29.5962 71.1539 29.5962ZM63.543 35.0919C63.543 30.8702 66.9455 27.4255 71.1539 27.4255C75.3622 27.4255 78.7648 30.8702 78.7648 35.0919C78.7648 39.3135 75.3622 42.7582 71.1539 42.7582C66.9455 42.7582 63.543 39.3135 63.543 35.0919ZM55.7695 53.9272C55.7695 48.6122 60.0517 44.2804 65.3443 44.2804H76.9021C82.1947 44.2804 86.4768 48.6122 86.4768 53.9272V70.3076C86.4768 70.907 85.9909 71.3929 85.3915 71.3929C84.7921 71.3929 84.3062 70.907 84.3062 70.3076V53.9272C84.3062 49.7937 80.9786 46.451 76.9021 46.451H65.3443C61.2678 46.451 57.9402 49.7937 57.9402 53.9272V70.3076C57.9402 70.907 57.4543 71.3929 56.8549 71.3929C56.2555 71.3929 55.7695 70.907 55.7695 70.3076V53.9272Z" fill="#111111"/>
<path d="M36.7658 79.7356H105.499C108.67 79.7356 111.268 77.1362 111.268 73.9385V69.73H31.0176V73.9179C31.0176 77.1362 33.5951 79.7356 36.7658 79.7356Z" fill="white"/>
<path fill-rule="evenodd" clip-rule="evenodd" d="M29.9336 69.7299C29.9336 69.1305 30.4195 68.6445 31.0189 68.6445H111.269C111.869 68.6445 112.355 69.1305 112.355 69.7299V73.9384C112.355 77.7319 109.274 80.8208 105.501 80.8208H36.7672C32.9859 80.8208 29.9336 77.7243 29.9336 73.9178V69.7299ZM32.1043 70.8152V73.9178C32.1043 76.5479 34.207 78.6502 36.7672 78.6502H105.501C108.068 78.6502 110.184 76.5403 110.184 73.9384V70.8152H32.1043Z" fill="#111111"/>
<path fill-rule="evenodd" clip-rule="evenodd" d="M48.6199 4.76519C48.962 4.27294 49.6383 4.15117 50.1305 4.49321L84.6119 28.4524L109.617 9.77564C109.861 9.59342 110.17 9.52207 110.47 9.57899C110.769 9.63592 111.03 9.81588 111.19 10.075L131.585 43.1038C131.9 43.6139 131.742 44.2826 131.232 44.5975C130.722 44.9125 130.053 44.7543 129.738 44.2443L109.966 12.2243L85.2843 30.6595C84.9101 30.939 84.399 30.9478 84.0155 30.6813L48.8919 6.27579C48.3997 5.93376 48.2779 5.25744 48.6199 4.76519Z" fill="#111111"/>
<path d="M126.406 43.674C126.406 41.3015 128.309 39.3623 130.682 39.3623C133.034 39.3623 134.957 41.2809 134.957 43.674C134.957 46.0465 133.055 47.9857 130.682 47.9857C128.309 47.9857 126.406 46.0465 126.406 43.674Z" fill="#6099FF"/>
<path fill-rule="evenodd" clip-rule="evenodd" d="M130.681 40.4476C128.92 40.4476 127.491 41.8889 127.491 43.674C127.491 45.4591 128.92 46.9004 130.681 46.9004C132.443 46.9004 133.871 45.4591 133.871 43.674C133.871 41.875 132.429 40.4476 130.681 40.4476ZM125.32 43.674C125.32 40.7142 127.697 38.277 130.681 38.277C133.638 38.277 136.042 40.6868 136.042 43.674C136.042 46.6338 133.665 49.0711 130.681 49.0711C127.697 49.0711 125.32 46.6338 125.32 43.674Z" fill="#111111"/>
<path d="M105.99 10.6452C105.99 8.27273 107.893 6.3335 110.266 6.3335C112.618 6.3335 114.541 8.2521 114.541 10.6452C114.541 13.0177 112.639 14.9569 110.266 14.9569C107.893 14.9569 105.99 13.0383 105.99 10.6452Z" fill="#6099FF"/>
<path fill-rule="evenodd" clip-rule="evenodd" d="M110.267 7.41884C108.505 7.41884 107.077 8.86008 107.077 10.6452C107.077 12.4476 108.502 13.8716 110.267 13.8716C112.028 13.8716 113.457 12.4303 113.457 10.6452C113.457 8.84624 112.015 7.41884 110.267 7.41884ZM104.906 10.6452C104.906 7.6854 107.283 5.24817 110.267 5.24817C113.224 5.24817 115.628 7.65797 115.628 10.6452C115.628 13.605 113.251 16.0422 110.267 16.0422C107.286 16.0422 104.906 13.629 104.906 10.6452Z" fill="#111111"/>
<path d="M80.3594 29.79C80.3594 27.4175 82.2618 25.4783 84.6348 25.4783C86.9872 25.4783 88.9101 27.3969 88.9101 29.79C88.9101 32.1624 87.0077 34.1017 84.6348 34.1017C82.2823 34.1017 80.3594 32.1831 80.3594 29.79Z" fill="#6099FF"/>
<path fill-rule="evenodd" clip-rule="evenodd" d="M84.6342 26.5636C82.8726 26.5636 81.4441 28.0049 81.4441 29.79C81.4441 31.5889 82.8864 33.0164 84.6342 33.0164C86.3957 33.0164 87.8242 31.5751 87.8242 29.79C87.8242 27.991 86.382 26.5636 84.6342 26.5636ZM79.2734 29.79C79.2734 26.8302 81.6498 24.3929 84.6342 24.3929C87.5913 24.3929 89.9949 26.8027 89.9949 29.79C89.9949 32.7498 87.6185 35.187 84.6342 35.187C81.677 35.187 79.2734 32.7772 79.2734 29.79Z" fill="#111111"/>
<path d="M45.2363 5.38446C45.2363 3.01199 47.1388 1.07275 49.5117 1.07275C51.8642 1.07275 53.7871 2.99136 53.7871 5.38446C53.7871 7.75692 51.8847 9.69616 49.5117 9.69616C47.1592 9.69616 45.2363 7.75692 45.2363 5.38446Z" fill="#6099FF"/>
<path d="M45.2363 5.38446C45.2363 3.01199 47.1388 1.07275 49.5117 1.07275C51.8642 1.07275 53.7871 2.99136 53.7871 5.38446C53.7871 7.75692 51.8847 9.69616 49.5117 9.69616C47.1592 9.69616 45.2363 7.75692 45.2363 5.38446Z" stroke="#111111" stroke-width="2" stroke-miterlimit="10" stroke-linecap="round" stroke-linejoin="round"/>
<path d="M40.1222 84.7694C32.3283 89.3493 21.5682 87.4306 13.7539 84.8931L26.1505 68.9873V43.2821H46.791V68.9873L55.894 80.664C51.0459 80.6846 45.4613 81.6336 40.1222 84.7694Z" fill="white"/>
<path d="M2.64627 99.1486L13.7541 84.8931C21.5889 87.41 32.3285 89.3492 40.1223 84.7693C45.4615 81.6336 51.046 80.6846 55.8942 80.6846L70.275 99.1486C73.364 103.13 70.5614 108.948 65.5496 108.948H7.37169C2.35988 108.969 -0.442642 103.13 2.64627 99.1486Z" fill="#6099FF"/>
<path fill-rule="evenodd" clip-rule="evenodd" d="M25.0436 43.2821C25.0436 42.6827 25.5295 42.1968 26.1289 42.1968H46.7694C47.3688 42.1968 47.8547 42.6827 47.8547 43.2821V68.6146L71.1097 98.4818L71.1108 98.4833C74.7402 103.162 71.463 110.033 65.5279 110.033H7.37279C1.42837 110.056 -1.83748 103.156 1.78744 98.4833L1.78862 98.4818L25.0436 68.6146V43.2821ZM27.2142 44.3674V68.9873C27.2142 69.2288 27.1337 69.4635 26.9853 69.6541L3.50251 99.8139C0.950035 103.104 3.28805 107.879 7.36593 107.863L7.3704 107.863L65.5279 107.863C69.616 107.863 71.9438 103.1 69.3964 99.8147C69.3962 99.8144 69.396 99.8141 69.3958 99.8139L45.913 69.6541C45.7646 69.4635 45.684 69.2288 45.684 68.9873V44.3674H27.2142Z" fill="#111111"/>
<path d="M25.6176 45.5926H47.3218C49.3674 45.5926 51.0449 43.9216 51.0449 41.8379C51.0449 39.7749 49.3879 38.0833 47.3218 38.0833H25.6176C23.572 38.0833 21.8945 39.7543 21.8945 41.8379C21.8945 43.9216 23.5515 45.5926 25.6176 45.5926Z" fill="white"/>
<path fill-rule="evenodd" clip-rule="evenodd" d="M20.8105 41.838C20.8105 39.1597 22.9691 36.9979 25.6189 36.9979H47.3232C50.0012 36.9979 52.1315 39.1881 52.1315 41.838C52.1315 44.5162 49.973 46.678 47.3232 46.678H25.6189C22.9448 46.678 20.8105 44.5123 20.8105 41.838ZM25.6189 39.1686C24.1775 39.1686 22.9812 40.3489 22.9812 41.838C22.9812 43.3309 24.1609 44.5073 25.6189 44.5073H47.3232C48.7646 44.5073 49.9609 43.327 49.9609 41.838C49.9609 40.3618 48.7773 39.1686 47.3232 39.1686H25.6189Z" fill="#111111"/>
</g>
<defs>
<clipPath id="clip0_2418_105675">
<rect width="135.667" height="110" fill="white" transform="translate(0.333984)"/>
</clipPath>
</defs>
</svg>
