<svg width="54" height="42" viewBox="0 0 54 42" fill="none" xmlns="http://www.w3.org/2000/svg">
<g clip-path="url(#clip0_2493_38433)">
<path d="M52.948 4.16636H48.4948V1.59018C48.4948 0.981912 48.0039 0.480988 47.4078 0.480988H33.487C30.7169 0.480988 28.3325 1.98376 27 4.23792C25.7026 1.98376 23.2831 0.480988 20.548 0.480988H6.62727C6.03117 0.480988 5.54026 0.981912 5.54026 1.59018V4.16636H1.08701C0.490909 4.16636 0 4.66728 0 5.27555V40.4118C0 41.0201 0.490909 41.521 1.08701 41.521H52.948C53.5441 41.521 54.0351 41.0201 54.0351 40.4118V5.27555C54 4.66728 53.5441 4.16636 52.948 4.16636ZM28.087 8.17375C28.087 5.13243 30.5065 2.66359 33.487 2.66359H46.3208V33.6493H28.087V8.17375ZM7.71428 2.66359H20.548C23.5286 2.66359 25.948 5.13243 25.948 8.17375V33.6493H7.71428V2.66359ZM51.861 39.3026H2.13896V6.38474H5.54026V34.7585C5.54026 35.3668 6.03117 35.8677 6.62727 35.8677H47.4078C48.0039 35.8677 48.4948 35.3668 48.4948 34.7585V6.38474H51.8961V39.3026H51.861Z" fill="#114493"/>
<path d="M42.1161 9.78387H32.298C31.7018 9.78387 31.2109 10.249 31.2109 10.8573C31.2109 11.4655 31.7018 11.9665 32.298 11.9665H42.1161C42.7122 11.9665 43.2031 11.4655 43.2031 10.8573C43.2031 10.249 42.7122 9.78387 42.1161 9.78387Z" fill="#114493"/>
<path d="M42.1161 16.9041H32.298C31.7018 16.9041 31.2109 17.4051 31.2109 18.0133C31.2109 18.6216 31.7018 19.1225 32.298 19.1225H42.1161C42.7122 19.1225 43.2031 18.6216 43.2031 18.0133C43.2031 17.4051 42.7122 16.9041 42.1161 16.9041Z" fill="#114493"/>
<path d="M42.1161 24.0244H32.298C31.7018 24.0244 31.2109 24.5254 31.2109 25.1336C31.2109 25.7419 31.7018 26.2428 32.298 26.2428H42.1161C42.7122 26.2428 43.2031 25.7419 43.2031 25.1336C43.2031 24.5254 42.7122 24.0244 42.1161 24.0244Z" fill="#114493"/>
<path d="M21.7411 9.78387H11.923C11.3268 9.78387 10.8359 10.2848 10.8359 10.8931C10.8359 11.5013 11.3268 12.0023 11.923 12.0023H21.7411C22.3372 12.0023 22.8281 11.5013 22.8281 10.8931C22.8281 10.2848 22.3372 9.78387 21.7411 9.78387Z" fill="#114493"/>
<path d="M21.7411 16.9041H11.923C11.3268 16.9041 10.8359 17.4051 10.8359 18.0133C10.8359 18.6216 11.3268 19.1225 11.923 19.1225H21.7411C22.3372 19.1225 22.8281 18.6216 22.8281 18.0133C22.7931 17.4051 22.3372 16.9041 21.7411 16.9041Z" fill="#114493"/>
<path d="M21.7411 24.0244H11.923C11.3268 24.0244 10.8359 24.5254 10.8359 25.1336C10.8359 25.7419 11.3268 26.2428 11.923 26.2428H21.7411C22.3372 26.2428 22.8281 25.7419 22.8281 25.1336C22.7931 24.5254 22.3372 24.0244 21.7411 24.0244Z" fill="#114493"/>
</g>
<defs>
<clipPath id="clip0_2493_38433">
<rect width="54" height="41.04" fill="white" transform="translate(0 0.480988)"/>
</clipPath>
</defs>
</svg>
