<svg width="164" height="125" viewBox="0 0 164 125" fill="none" xmlns="http://www.w3.org/2000/svg">
<g clip-path="url(#clip0_3239_49762)">
<path fill-rule="evenodd" clip-rule="evenodd" d="M156.015 31.722C156.735 31.722 157.319 32.3019 157.319 33.0171V37.4551H161.753C162.474 37.4551 163.057 38.035 163.057 38.7502C163.057 39.4655 162.474 40.0453 161.753 40.0453H157.319V44.4833C157.319 45.1986 156.735 45.7784 156.015 45.7784C155.295 45.7784 154.711 45.1986 154.711 44.4833V40.0453H150.277C149.556 40.0453 148.972 39.4655 148.972 38.7502C148.972 38.035 149.556 37.4551 150.277 37.4551H154.711V33.0171C154.711 32.3019 155.295 31.722 156.015 31.722ZM145.161 78.669C145.881 78.669 146.465 79.2488 146.465 79.9641V84.4021H150.899C151.619 84.4021 152.203 84.9819 152.203 85.6972C152.203 86.4124 151.619 86.9923 150.899 86.9923H146.465V91.4303C146.465 92.1455 145.881 92.7254 145.161 92.7254C144.44 92.7254 143.856 92.1455 143.856 91.4303V86.9923H139.423C138.702 86.9923 138.118 86.4124 138.118 85.6972C138.118 84.9819 138.702 84.4021 139.423 84.4021H143.856V79.9641C143.856 79.2488 144.44 78.669 145.161 78.669Z" fill="#6099FF"/>
<path d="M158.089 56.9857C158.089 55.8344 157.144 54.9135 155.992 54.9135C154.839 54.9135 153.895 55.8344 153.895 56.9857C153.895 58.1369 154.839 59.0809 155.992 59.0809C157.144 59.0809 158.089 58.1369 158.089 56.9857Z" fill="#6099FF"/>
<path d="M109.003 98.1074L114.372 101.837L117.23 98.9823L112.99 96.0352C111.699 96.795 110.363 97.4627 109.003 98.1074Z" fill="white"/>
<path d="M77.7765 11.1209L79.574 1.15125H72.6145L70.8169 11.1209C68.0746 11.8346 65.4475 12.8016 62.9355 13.9759L65.9084 16.0481C69.5956 13.9068 73.5593 12.226 77.7765 11.1209Z" fill="white"/>
<path d="M65.9318 96.0352L62.959 98.1074C65.4709 99.2816 68.098 100.249 70.8404 100.962L72.6379 110.932H79.5975L77.8 100.962C73.5597 99.8802 69.596 98.1995 65.9318 96.0352Z" fill="white"/>
<path d="M89.4603 25.3269C88.285 25.3269 87.1327 25.396 85.9805 25.5341C101.328 27.261 113.243 40.2698 113.243 56.0646C113.243 71.8594 101.305 84.8683 85.9805 86.5721C87.1097 86.7102 88.285 86.7793 89.4603 86.7793C106.444 86.7793 120.202 73.0337 120.202 56.0646C120.202 39.0725 106.444 25.3269 89.4603 25.3269Z" fill="white"/>
<path d="M49.4312 79.5496C47.265 75.8887 45.6058 71.9055 44.4996 67.715L34.5211 65.9191V46.1871L44.4996 44.3912C45.5827 40.1777 47.265 36.1945 49.4312 32.5336L43.6239 24.1987L54.7316 13.1009L50.6296 10.2458L36.6643 24.1987L42.4716 32.5336C40.3054 36.1945 38.6462 40.1777 37.54 44.3912L27.5615 46.1871V65.9191L37.54 67.715C38.6231 71.9285 40.3054 75.9117 42.4716 79.5496L36.6643 87.8845L50.6296 101.837L54.7316 98.9823L43.6239 87.8845L49.4312 79.5496Z" fill="white"/>
<path d="M117.23 13.1009L114.372 10.2458L109.003 13.9988C110.363 14.6435 111.699 15.3112 112.99 16.071L117.23 13.1009Z" fill="white"/>
<path d="M85.3818 86.7563C84.3218 86.7563 83.3078 86.6873 82.2708 86.5491C81.2568 86.6873 80.2197 86.7563 79.1827 86.7563C64.0421 86.7563 51.7592 73.0107 51.7592 56.0417C51.7592 39.0726 64.0421 25.327 79.1827 25.327C80.2428 25.327 81.2568 25.396 82.2708 25.5342C83.2847 25.396 84.3218 25.327 85.3818 25.327C100.522 25.327 112.805 39.0726 112.805 56.0417C112.805 73.0107 100.522 86.7563 85.3818 86.7563ZM122.53 79.5497C124.697 75.8888 126.356 71.9055 127.462 67.7151L137.441 65.9192V46.1872L127.462 44.3913C126.379 40.1778 124.697 36.1945 122.53 32.5336L128.338 24.1988L117.23 13.101L112.99 16.0481C111.699 15.2883 110.363 14.6206 109.003 13.9759L106.03 16.0481C102.366 13.8838 98.3792 12.226 94.185 11.1209L92.3645 1.15125H79.5745L77.777 11.1439C73.5597 12.226 69.573 13.9068 65.9318 16.0711L62.959 13.9989C61.5994 14.6436 60.2628 15.3113 58.9722 16.0711L54.732 13.124L43.6243 24.2218L49.4316 32.5567C47.2654 36.2176 45.6061 40.2008 44.5 44.4143L34.5215 46.2102V65.9422L44.5 67.7381C45.5831 71.9516 47.2654 75.9348 49.4316 79.5727L43.6243 87.9076L54.732 99.0054L58.9722 96.0582C60.2628 96.818 61.5994 97.4857 62.959 98.1304L65.9318 96.0582C69.596 98.2225 73.5597 99.8803 77.777 100.985L79.5745 110.978H92.3645L94.162 100.985C98.3792 99.9033 102.366 98.2225 106.007 96.0582L108.98 98.1304C110.34 97.4857 111.676 96.818 112.967 96.0582L117.207 99.0054L128.315 87.9076L122.53 79.5497Z" fill="#6099FF"/>
<path fill-rule="evenodd" clip-rule="evenodd" d="M71.3308 0.923067C71.4421 0.305663 71.9831 -0.143799 72.6148 -0.143799H92.3643C92.996 -0.143799 93.537 0.305663 93.6483 0.923068L95.3006 10.0872C99.0593 11.1406 102.636 12.6257 105.965 14.5119L113.624 9.18523C114.144 8.82372 114.85 8.88611 115.298 9.33306L129.263 23.2859C129.706 23.7287 129.768 24.4223 129.41 24.9356L124.072 32.597C125.963 35.923 127.469 39.4996 128.51 43.2638L137.673 44.9129C138.294 45.0246 138.745 45.561 138.745 46.1872V65.9192C138.745 66.5453 138.294 67.0818 137.673 67.1935L128.505 68.8435C127.45 72.5832 125.962 76.1573 124.072 79.4861L129.41 87.1478C129.768 87.6611 129.706 88.3547 129.263 88.7975L115.298 102.75C114.85 103.197 114.144 103.26 113.624 102.898L105.966 97.5716C102.64 99.4578 99.0639 100.961 95.3002 102L93.6484 111.183C93.5373 111.8 92.9962 112.25 92.3643 112.25H72.6148C71.9829 112.25 71.4418 111.8 71.3307 111.183L69.6782 101.996C65.9196 100.943 62.3435 99.4577 59.0138 97.5715L51.3551 102.898C50.8353 103.26 50.1289 103.197 49.6816 102.75L35.7163 88.7975C35.2732 88.3547 35.2112 87.6611 35.5688 87.1478L40.9056 79.4882C39.0147 76.1795 37.5093 72.6048 36.4687 68.8426L27.3061 67.1935C26.6856 67.0818 26.2344 66.5453 26.2344 65.9192V46.1872C26.2344 45.561 26.6856 45.0246 27.3061 44.9129L36.4727 43.2631C37.5278 39.504 39.0161 35.9273 40.9071 32.5972L35.5688 24.9356C35.2112 24.4223 35.2732 23.7287 35.7163 23.2859L49.6816 9.33306C50.1289 8.88611 50.8353 8.82372 51.3551 9.18523L59.0135 14.5118C62.3392 12.6255 65.9154 11.1226 69.6793 10.0832L71.3308 0.923067ZM73.7063 2.44637L72.1012 11.3491C72.0113 11.8474 71.6373 12.2481 71.1436 12.3748C67.0505 13.4251 63.1779 15.0572 59.6159 17.1612C59.1749 17.4217 58.621 17.4012 58.2007 17.1089L50.7579 11.9323L38.3313 24.3477L43.5215 31.7969C43.8104 32.2115 43.8307 32.755 43.5735 33.1897C41.4693 36.7456 39.8558 40.6178 38.7794 44.718C38.6513 45.2059 38.2496 45.5757 37.7499 45.6656L28.8431 47.2686V64.8378L37.7499 66.4408C38.2519 66.5312 38.6549 66.9039 38.781 67.3948C39.8329 71.4866 41.4669 75.3561 43.5716 78.8906C43.8307 79.3257 43.8112 79.8708 43.5215 80.2865L38.3313 87.7356L50.7579 100.151L58.2007 94.9745C58.621 94.6822 59.1749 94.6617 59.6159 94.9222C63.1741 97.0239 67.0482 98.6353 71.1501 99.7103C71.6409 99.8389 72.012 100.239 72.1013 100.735L73.7068 109.66H91.2723L92.8778 100.735C92.9675 100.236 93.3416 99.8353 93.8355 99.7086C97.9286 98.6583 101.801 97.0262 105.363 94.9222C105.804 94.6617 106.358 94.6822 106.778 94.9745L114.221 100.151L126.648 87.7356L121.458 80.2865C121.169 79.8718 121.148 79.3284 121.406 78.8937C123.51 75.3375 125.124 71.4648 126.2 67.3868C126.329 66.8996 126.73 66.5306 127.229 66.4408L136.136 64.8378V47.2686L127.229 45.6656C126.727 45.5752 126.324 45.2025 126.198 44.7116C125.146 40.62 123.512 36.7494 121.406 33.1897C121.148 32.755 121.169 32.2115 121.458 31.7969L126.648 24.3477L114.221 11.9323L106.778 17.1089C106.358 17.4012 105.804 17.4217 105.363 17.1612C101.805 15.0595 97.9309 13.448 93.829 12.3731C93.3383 12.2445 92.9673 11.8451 92.8779 11.3491L91.2728 2.44637H73.7063ZM82.5011 26.6221C66.2449 26.6221 53.0634 39.7803 53.0634 56.0417C53.0634 72.3031 66.2449 85.4613 82.5011 85.4613C98.7572 85.4613 111.939 72.3031 111.939 56.0417C111.939 39.7803 98.7572 26.6221 82.5011 26.6221ZM50.4547 56.0417C50.4547 38.365 64.7889 24.0319 82.5011 24.0319C100.213 24.0319 114.547 38.365 114.547 56.0417C114.547 73.7184 100.213 88.0514 82.5011 88.0514C64.7889 88.0514 50.4547 73.7184 50.4547 56.0417Z" fill="#111111"/>
<path d="M19.8653 24.1527C19.8653 19.755 22.6768 16.0251 26.6175 14.6436C25.5574 14.2752 24.4282 14.068 23.2529 14.068C17.676 14.068 13.1592 18.5808 13.1592 24.1527C13.1592 29.7247 17.676 34.2375 23.2529 34.2375C24.4282 34.2375 25.5574 34.0302 26.6175 33.6618C22.6998 32.2804 19.8653 28.5504 19.8653 24.1527Z" fill="white"/>
<path d="M33.3462 24.1527C33.3462 19.755 30.5347 16.025 26.594 14.6436C22.6763 16.025 19.8418 19.755 19.8418 24.1527C19.8418 28.5503 22.6533 32.2803 26.594 33.6618C30.5347 32.2803 33.3462 28.5503 33.3462 24.1527Z" fill="#D7DBE8"/>
<path d="M21.0171 39.9244H14.311C7.05187 39.9244 1.15234 45.8187 1.15234 53.0714V78.2142H7.88149V53.0714C7.88149 45.8187 13.758 39.9244 21.0171 39.9244Z" fill="white"/>
<path d="M32.1943 39.9244H21.0175C13.7583 39.9244 7.88184 45.8187 7.88184 53.0714V78.2142H45.353V53.0714C45.353 45.8187 39.4765 39.9244 32.1943 39.9244Z" fill="#D7DBE8"/>
<path fill-rule="evenodd" clip-rule="evenodd" d="M11.8541 24.1526C11.8541 17.8731 16.9472 12.7728 23.2522 12.7728C29.5571 12.7728 34.6502 17.8731 34.6502 24.1526C34.6502 30.4322 29.5571 35.5324 23.2522 35.5324C16.9472 35.5324 11.8541 30.4322 11.8541 24.1526ZM23.2522 15.363C18.4033 15.363 14.4628 19.2883 14.4628 24.1526C14.4628 29.0169 18.4033 32.9423 23.2522 32.9423C28.101 32.9423 32.0415 29.0169 32.0415 24.1526C32.0415 19.2883 28.101 15.363 23.2522 15.363ZM14.3107 41.2195C7.77956 41.2195 2.45635 46.5263 2.45635 53.0714V78.2142C2.45635 78.9294 1.87238 79.5092 1.152 79.5092C0.431633 79.5092 -0.152344 78.9294 -0.152344 78.2142V53.0714C-0.152344 45.1111 6.3235 38.6293 14.3107 38.6293H32.2167C40.2024 38.6293 46.6797 45.0866 46.6797 53.0714V78.2142C46.6797 78.9294 46.0958 79.5092 45.3754 79.5092C44.655 79.5092 44.071 78.9294 44.071 78.2142V53.0714C44.071 46.5048 38.7493 41.2195 32.2167 41.2195H14.3107Z" fill="#111111"/>
<path d="M34.9128 75.9808H11.6143V123.849H34.9128V75.9808Z" fill="#D7DBE8"/>
<path fill-rule="evenodd" clip-rule="evenodd" d="M11.6149 52.283C12.3353 52.283 12.9192 52.8628 12.9192 53.578V123.849C12.9192 124.564 12.3353 125.144 11.6149 125.144C10.8945 125.144 10.3105 124.564 10.3105 123.849V53.578C10.3105 52.8628 10.8945 52.283 11.6149 52.283ZM34.8904 52.283C35.6107 52.283 36.1947 52.8628 36.1947 53.578V123.849C36.1947 124.564 35.6107 125.144 34.8904 125.144C34.17 125.144 33.586 124.564 33.586 123.849V53.578C33.586 52.8628 34.17 52.283 34.8904 52.283ZM23.2526 88.4314C23.973 88.4314 24.557 89.0112 24.557 89.7265V123.849C24.557 124.564 23.973 125.144 23.2526 125.144C22.5323 125.144 21.9483 124.564 21.9483 123.849V89.7265C21.9483 89.0112 22.5323 88.4314 23.2526 88.4314Z" fill="#111111"/>
<path d="M96.7663 54.3378C96.7663 62.028 90.5211 68.2676 82.8241 68.2676C75.127 68.2676 68.8818 62.028 68.8818 54.3378C68.8818 46.6476 75.127 40.408 82.8241 40.408C90.5211 40.408 96.7663 46.6476 96.7663 54.3378Z" fill="#111111"/>
</g>
<defs>
<clipPath id="clip0_3239_49762">
<rect width="163.043" height="125" fill="white"/>
</clipPath>
</defs>
</svg>
