<svg width="187" height="36" viewBox="0 0 187 36" fill="none" xmlns="http://www.w3.org/2000/svg">
<g clip-path="url(#clip0_2521_53199)">
<path d="M75.5126 0.000976562C84.0625 0.000976562 90.9625 6.97598 90.9625 15.601V30.676C90.9625 34.351 87.9625 36.226 85.4875 36.226C82.9375 36.226 80.0125 34.351 80.0125 30.676V15.601C80.0125 13.126 77.9875 11.101 75.5875 11.101C73.1125 11.101 71.1625 13.126 71.1625 15.601V20.626C71.1625 29.251 64.2625 36.226 55.7126 36.226C47.1626 36.226 40.2626 29.251 40.2626 20.626V15.601C40.2626 13.126 38.2376 11.101 35.8376 11.101C33.3626 11.101 31.4126 13.126 31.4126 15.601V30.676C31.4126 34.351 28.4126 36.226 25.9376 36.226C23.3876 36.226 20.4626 34.351 20.4626 30.676V15.601C20.4626 13.126 18.4376 11.101 16.0376 11.101C13.6376 11.101 11.6126 13.126 11.6126 15.601V30.676C11.6126 34.351 8.61256 36.226 6.13756 36.226C3.58756 36.226 0.662556 34.351 0.662556 30.676V15.601C0.512557 6.97598 7.41256 0.000976562 15.8876 0.000976562C19.7126 0.000976562 23.1626 1.35098 25.8626 3.67598C28.5626 1.42598 32.0126 0.000976562 35.7626 0.000976562C44.3126 0.000976562 51.2126 6.97598 51.2126 15.601V20.626C51.2126 23.101 53.2376 25.126 55.6376 25.126C58.1126 25.126 60.0626 23.101 60.0626 20.626V15.601C60.1376 6.97598 67.0376 0.000976562 75.5126 0.000976562Z" fill="#008194"/>
<path d="M102.135 22.2759H101.01V28.5009C101.01 30.6009 100.56 32.0259 99.0602 32.0259C97.5602 32.0259 97.1102 30.6009 97.1102 28.5009V22.3509H95.9102V28.7259C95.9102 31.8009 97.0352 33.4509 99.0602 33.4509C101.01 33.4509 102.21 31.8009 102.21 28.7259V22.2759H102.135Z" fill="black"/>
<path d="M104.234 33.1509H105.359V24.2259L109.034 33.1509H110.459V22.2759H109.334V31.0509L105.734 22.2759H104.234V33.1509Z" fill="black"/>
<path d="M114.137 22.2759H113.012V33.1509H114.137V22.2759Z" fill="black"/>
<path d="M117.957 23.5509H119.157C119.832 23.5509 120.657 23.8509 120.657 25.2009C120.657 26.7759 119.682 26.9259 118.632 26.9259H118.032V23.5509H117.957ZM117.957 28.2009H118.707C119.682 28.2009 120.807 28.4259 120.807 30.1509C120.807 31.6509 119.907 31.9509 118.857 31.9509H117.957V28.2009ZM116.832 33.2259H119.007C120.657 33.2259 122.082 32.6259 122.082 30.3009C122.082 28.8009 121.332 27.8259 120.207 27.6759C121.182 27.3009 121.857 26.5509 121.857 25.0509C121.857 23.0259 120.732 22.2759 119.007 22.2759H116.832V33.2259Z" fill="black"/>
<path d="M123.957 33.1509H128.457V31.8009H125.082V28.2009H128.157V26.8509H125.082V23.7009H128.457V22.2759H123.957V33.1509Z" fill="black"/>
<path d="M131.309 23.6259H132.434C133.484 23.6259 134.009 24.2259 134.009 25.2009C134.009 26.2509 133.334 26.9259 132.284 26.9259H131.309V23.6259ZM130.184 33.1509H131.309V28.2759H131.984C132.584 28.2759 132.959 28.2759 133.334 29.3259L134.534 33.0759H135.809L134.309 28.7259C134.084 28.0509 133.859 27.8259 133.559 27.6009C134.459 27.3759 135.209 26.4759 135.209 25.1259C135.209 22.5009 133.709 22.2009 132.059 22.2009H130.109V33.1509H130.184Z" fill="black"/>
<path d="M138.584 33.1509H139.784V23.6259H142.259V22.2759H136.109V23.6259H138.584V33.1509Z" fill="black"/>
<path d="M147.361 22.501C146.836 22.201 146.161 22.126 145.636 22.126C144.211 22.126 143.086 23.176 143.086 25.126C143.086 28.501 146.536 27.826 146.536 30.301C146.536 31.576 145.636 32.101 144.961 32.101C144.361 32.101 143.686 31.801 143.311 31.576L143.161 32.926C143.686 33.151 144.211 33.376 144.811 33.376C146.386 33.376 147.736 32.476 147.736 30.151C147.736 26.551 144.286 27.076 144.286 24.976C144.286 23.851 145.036 23.551 145.711 23.551C146.311 23.551 146.611 23.701 147.211 24.001L147.361 22.501Z" fill="black"/>
<path d="M150.66 22.2759H149.535V33.1509H150.66V22.2759Z" fill="black"/>
<path d="M154.562 33.1509H155.687V23.6259H158.162V22.2759H152.012V23.6259H154.562V33.1509Z" fill="black"/>
<path d="M163.562 29.1759H160.412L161.987 23.7759L163.562 29.1759ZM158.012 33.1509H159.212L160.037 30.3759H163.937L164.762 33.1509H166.037L162.662 22.2759H161.462L158.012 33.1509Z" fill="black"/>
<path d="M168.132 33.1509H169.257V23.6259H171.732V22.2759H165.582V23.6259H168.132V33.1509Z" fill="black"/>
<path d="M173.16 33.1509H177.66V31.8009H174.285V28.2009H177.36V26.8509H174.285V23.6259H177.66V22.2759H173.16V33.1509Z" fill="black"/>
<path d="M184.335 29.1759H181.11L182.685 23.7759L184.335 29.1759ZM178.785 33.1509H179.985L180.81 30.3759H184.71L185.535 33.1509H186.81L183.435 22.2759H182.235L178.785 33.1509Z" fill="black"/>
<path d="M96.2109 16.501H98.0109V7.50096L100.561 16.501H102.361L104.911 7.50096V16.501H106.711V5.55096H103.711L101.461 13.876L99.2109 5.55096H96.2109V16.501Z" fill="black"/>
<path d="M110.61 11.0259C110.61 9.07593 111.36 7.12593 113.235 7.12593C115.11 7.12593 115.86 9.07593 115.86 11.0259C115.86 12.9759 115.11 15.0009 113.235 15.0009C111.36 15.0009 110.61 12.9759 110.61 11.0259ZM108.66 11.0259C108.66 14.4009 110.235 16.7259 113.235 16.7259C116.235 16.7259 117.81 14.3259 117.81 11.0259C117.81 7.72593 116.16 5.40093 113.235 5.40093C110.31 5.32593 108.66 7.65093 108.66 11.0259Z" fill="black"/>
<path d="M119.762 16.501H121.562V8.32596L125.162 16.501H127.487V5.55096H125.687V13.726L122.087 5.55096H119.762V16.501Z" fill="black"/>
<path d="M132.059 7.27596H133.109C134.684 7.27596 136.184 8.62596 136.184 11.026C136.184 13.426 134.684 14.776 133.109 14.776H132.059V7.27596ZM130.109 16.501H132.659C135.509 16.501 138.059 15.376 138.059 11.026C138.059 6.67596 135.509 5.55096 132.659 5.55096H130.109V16.501Z" fill="black"/>
<path d="M140.234 16.5009H142.109V11.9259H142.709C143.534 11.9259 143.759 12.2259 143.984 13.0509L145.109 16.5009H147.209L145.709 12.2259C145.484 11.7759 145.259 11.1759 144.734 11.1009C145.934 10.8759 146.684 9.82594 146.684 8.55094C146.684 5.47594 144.284 5.55094 142.259 5.55094H140.234V16.5009ZM142.109 7.27594H142.709C143.684 7.27594 144.734 7.35094 144.734 8.70094C144.734 10.0509 143.684 10.2009 142.709 10.2009H142.109V7.27594Z" fill="black"/>
<path d="M148.109 16.501H150.059L150.884 13.951H154.709L155.534 16.501H157.634L153.959 5.55096H151.859L148.109 16.501ZM154.109 12.301H151.409L152.759 7.80096L154.109 12.301Z" fill="black"/>
<path d="M165.809 5.85094C164.984 5.55094 164.159 5.40094 163.034 5.40094C159.809 5.40094 157.859 7.50094 157.859 11.2509C157.859 14.9259 159.959 16.7259 163.034 16.7259C164.009 16.7259 165.059 16.5009 166.109 16.1259V10.2009H162.284V11.9259H164.309V14.7759C164.009 14.8509 163.559 14.9259 163.034 14.9259C161.009 14.9259 159.809 13.2759 159.809 11.0259C159.809 8.77594 161.009 7.05094 163.184 7.05094C163.934 7.05094 164.909 7.27594 165.584 7.65094L165.809 5.85094Z" fill="black"/>
<path d="M169.934 11.0259C169.934 9.07593 170.684 7.12593 172.559 7.12593C174.434 7.12593 175.184 9.07593 175.184 11.0259C175.184 12.9759 174.434 15.0009 172.559 15.0009C170.609 15.0009 169.934 12.9759 169.934 11.0259ZM167.984 11.0259C167.984 14.4009 169.559 16.7259 172.559 16.7259C175.559 16.7259 177.134 14.3259 177.134 11.0259C177.134 7.72593 175.484 5.40093 172.559 5.40093C169.559 5.32593 167.984 7.65093 167.984 11.0259Z" fill="black"/>
<path d="M178.934 16.501H180.734V8.32596L184.334 16.501H186.659V5.55096H184.859V13.726L181.259 5.55096H178.934V16.501Z" fill="black"/>
</g>
<defs>
<clipPath id="clip0_2521_53199">
<rect width="186" height="36" fill="white" transform="translate(0.660156 0.000976562)"/>
</clipPath>
</defs>
</svg>
