<svg width="92" height="70" viewBox="0 0 92 70" fill="none" xmlns="http://www.w3.org/2000/svg">
<path d="M46.2093 64.3544L20.6211 49.825V51.7661L46.2093 70.0014L71.7976 51.7661V49.825L46.2093 64.3544Z" fill="#06131D"/>
<path d="M46.2093 33.8838C31.5034 33.8838 20.6211 36.7073 20.6211 36.7073V47.7073L39.5623 57.472L41.7388 52.9426H50.6799L52.8564 57.472L71.7976 47.7073V36.7073C71.7976 36.7073 60.9152 33.8838 46.2093 33.8838Z" fill="#06131D"/>
<path d="M20.6211 0.00146484V12.9426H23.7388V3.06028H30.8564L35.3858 12.9426H57.0917L61.5623 3.06028H68.6799V12.9426H71.7976V0.00146484H20.6211Z" fill="#06131D"/>
<path d="M30.1521 40.7073C30.1521 40.7073 30.4462 40.5897 30.4462 40.0014C30.4462 39.4132 30.1521 39.1191 29.6227 39.1779C29.0933 39.2367 28.2109 39.3544 28.2109 39.3544V42.6485C28.2109 42.6485 29.505 42.472 29.7403 42.4132C29.9756 42.3544 30.5051 42.0603 30.5051 41.5309C30.5051 41.0603 30.505 40.8838 30.1521 40.7073ZM28.7403 39.825C28.7403 39.825 29.1521 39.7662 29.3874 39.7073C29.5639 39.7073 29.7992 39.7662 29.7992 40.0014C29.7992 40.2367 29.7403 40.472 29.4462 40.5309C29.1521 40.5897 28.7403 40.6485 28.7403 40.6485V39.825ZM29.4462 41.9426C29.1521 42.0014 28.7403 42.0014 28.7403 42.0014V41.1779C28.7403 41.1779 29.2109 41.1191 29.4462 41.1191C29.6815 41.1191 29.858 41.1191 29.858 41.4132C29.858 41.6485 29.7992 41.9426 29.4462 41.9426Z" fill="white"/>
<path d="M33.2119 42.0602L33.8589 42.0014L32.8001 38.825L32.0354 38.9426L30.9766 42.3544L31.6236 42.2955L31.8589 41.472L32.9766 41.3544L33.2119 42.0602ZM32.0354 40.8838L32.4472 39.5896L32.8589 40.7661L32.0354 40.8838Z" fill="white"/>
<path d="M36.3852 38.5897V39.0603C36.3852 39.0603 35.7969 39.0015 35.444 39.0015C35.091 39.0015 34.8557 39.2368 34.9146 39.4721C34.9146 39.6485 35.0322 39.825 35.5028 39.8838C35.9734 39.9427 36.5616 40.0015 36.5616 40.7074C36.5616 41.4132 36.2087 41.7074 35.6204 41.825C34.9734 41.9427 34.3263 41.7662 34.3263 41.7662V41.2956C34.3263 41.2956 35.1498 41.4132 35.6204 41.2956C36.0322 41.1779 36.0322 40.7074 35.7969 40.5309C35.5616 40.4132 34.9146 40.4721 34.5616 40.1191C34.1499 39.825 34.2675 39.1191 34.5028 38.825C34.7381 38.6485 35.2087 38.4133 36.3852 38.5897Z" fill="white"/>
<path d="M39.446 38.8249V38.2955L37.2695 38.4132V41.7073L39.446 41.5896V41.0602L37.8578 41.1191V40.2955L39.2107 40.1779L39.3872 39.6485L37.8578 39.7661V38.9426L39.446 38.8249Z" fill="white"/>
<path d="M42.2109 39.7662C42.2109 39.7662 42.5051 39.6486 42.5051 39.0603C42.4462 38.5309 42.2109 38.2368 41.5639 38.2368C40.9168 38.2368 40.2109 38.2956 40.2109 38.2956V41.5897C40.2109 41.5897 41.3874 41.5309 41.7404 41.5309C42.0933 41.5309 42.5639 41.2368 42.5639 40.7662C42.5639 40.178 42.5639 39.9427 42.2109 39.7662ZM40.7992 38.7662C40.7992 38.7662 41.1521 38.7662 41.4462 38.7662C41.7404 38.7662 41.858 38.9427 41.858 39.2368C41.858 39.5309 41.6227 39.6486 41.3874 39.6486C41.1521 39.6486 40.7992 39.6486 40.7992 39.6486V38.7662ZM41.505 40.9427H40.7992V40.0603C40.7992 40.0603 41.3286 40.0603 41.5639 40.0603C41.7992 40.0603 41.9168 40.178 41.9168 40.4133C41.9168 40.7074 41.858 40.9427 41.505 40.9427Z" fill="white"/>
<path d="M45.2707 41.4133H45.9177L44.8589 38.178H44.0354L42.9766 41.4721H43.6236L43.8589 40.6486H44.9766L45.2707 41.4133ZM44.0942 40.1191L44.506 38.8839L44.9177 40.0603L44.0942 40.1191Z" fill="white"/>
<path d="M46.3867 38.1191V41.3544L48.3279 41.4133L48.5632 40.8839L47.0338 40.825V38.1191H46.3867Z" fill="white"/>
<path d="M49.0938 38.178V41.4133L50.9761 41.4721L51.2114 40.9427L49.682 40.8839V38.178H49.0938Z" fill="white"/>
<path d="M53.8582 40.5898C53.7406 40.2368 53.6818 39.0603 54.27 38.9427C54.6818 38.825 55.2112 39.0015 55.4465 39.1192V38.5898C53.5053 37.8839 53.1523 38.9427 53.1523 39.825C53.1523 40.7074 53.4465 41.4721 54.0935 41.6486C54.7994 41.825 55.3876 41.5897 55.3876 41.5897V41.1192C54.2112 41.3545 53.917 40.8839 53.8582 40.5898Z" fill="white"/>
<path d="M56.0352 38.472V41.7662L57.9763 41.9426L58.1528 41.4132L56.6822 41.2956V38.5309L56.0352 38.472Z" fill="white"/>
<path d="M60.5618 38.9427V41.0603C60.5618 41.2368 60.6206 41.6486 60.0912 41.6486C59.5618 41.6486 59.3265 41.2956 59.3265 41.0603V38.7662L58.7383 38.7074V40.8839C58.7383 41.9427 59.3265 42.1192 60.2089 42.178C61.0912 42.2368 61.2089 41.5898 61.2089 41.2368V38.9427H60.5618Z" fill="white"/>
<path d="M63.9763 40.8838C63.9763 40.8838 64.2704 40.825 64.2704 40.2956C64.2704 39.7662 64.0351 39.3544 63.3881 39.2368C62.741 39.1191 62.0352 39.0603 62.0352 39.0603V42.3544C62.0352 42.3544 63.094 42.4721 63.3293 42.5309C63.5646 42.5897 64.3881 42.6485 64.3881 41.9427C64.3293 41.1779 64.1528 41.0015 63.9763 40.8838ZM62.5646 39.7074C62.5646 39.7074 62.9763 39.7662 63.2704 39.825C63.5646 39.8838 63.6234 40.0015 63.6234 40.2956C63.6234 40.5897 63.3881 40.6485 63.1528 40.5897C62.9175 40.5897 62.5646 40.5309 62.5646 40.5309V39.7074ZM63.2704 42.0015C63.0351 42.0015 62.5646 41.8838 62.5646 41.8838V41.0603C62.5646 41.0603 63.0351 41.1191 63.2704 41.1191C63.5057 41.1779 63.6822 41.2956 63.741 41.6485C63.6822 42.0015 63.5057 42.0015 63.2704 42.0015Z" fill="white"/>
<path d="M17.8571 16.3544H0.445312L3.32766 20.1779L9.15119 19.8838V35.9426C10.7982 35.472 12.5041 35.0603 14.21 34.7073V19.6485L17.8571 19.5308V16.3544Z" fill="#D71718"/>
<path d="M25.4449 16.3544H18.5625C18.5625 16.3544 20.4449 16.7073 20.4449 19.0603V33.2956C22.1507 33.0014 23.7978 32.7073 25.4449 32.472V16.3544Z" fill="#D71718"/>
<path d="M36.0322 23.2367V25.9426L37.9733 25.825V28.5897C36.091 28.6485 34.7381 28.7661 34.2086 28.825C33.6792 28.8838 33.6792 28.5897 33.6792 28.2955V19.472C33.6792 19.2367 33.7381 19.0602 34.091 19.0014C34.4439 19.0014 36.9145 18.9426 37.3263 18.9426C37.7969 18.9426 37.8557 19.0602 37.8557 19.2955V20.8838L42.9145 20.825V18.5897C42.9145 16.7661 40.9733 16.2955 39.7381 16.2955H26.7969C26.7969 16.2955 28.6792 16.7661 28.6792 18.825V29.7073C28.6792 30.6485 29.4439 31.8249 31.5616 31.6485C36.7381 31.1779 39.8557 31.0014 42.9145 30.9426V23.0602C39.2087 23.1191 36.0322 23.2367 36.0322 23.2367Z" fill="#D71718"/>
<path d="M50.1521 28.472V25.1191L56.2109 25.2367V22.5309L50.1521 22.4132V19.0014L56.7992 19.0603V16.4132H43.2109C44.9168 16.825 45.2698 17.8838 45.2698 18.5897V31.0014C50.4462 31.0014 56.9756 31.4132 56.9756 31.4132V28.7661C53.0345 28.4132 50.1521 28.472 50.1521 28.472Z" fill="#D71718"/>
<path d="M71.6801 27.1191C72.7978 27.0603 73.5625 26.1779 73.5625 25.0603V19.2955C73.5625 16.7661 71.386 16.3544 69.4448 16.3544H57.5625C57.5625 16.3544 59.5625 16.7661 59.5625 18.5308V31.6485C59.5625 31.6485 61.6801 31.825 64.5625 32.2367V26.5309C64.5625 26.5309 65.6802 26.6485 67.0331 26.7661L69.386 32.9426C71.0919 33.2367 72.7978 33.5308 74.386 33.9426L71.6801 27.1191ZM68.5625 23.5308C68.5625 24.0014 68.3272 24.0603 67.9743 24.0603C67.5625 24.0603 64.5625 23.825 64.5625 23.825V19.2367C64.5625 19.2367 67.5037 19.2956 68.0331 19.3544C68.5625 19.3544 68.6213 19.6485 68.6213 19.9426V23.5308H68.5625Z" fill="#D71718"/>
<path d="M80.5037 28.825L75.6213 28.0602V31.0014C75.6213 31.7661 75.9743 34.1191 79.0919 34.9426C82.2096 35.7661 84.9743 36.5897 85.5625 36.7073C86.1508 36.8838 87.0919 36.9426 87.739 36.5896C88.3861 36.2367 88.7978 35.472 88.7978 34.0014V28.1779C88.7978 26.9426 88.739 26.1191 86.7978 25.1779C84.8566 24.2955 81.386 22.7073 81.0331 22.5308C80.6802 22.3544 80.386 22.1779 80.386 21.5308V20.2367C80.386 19.9426 80.5037 19.7073 80.9743 19.7073C81.4449 19.7073 89.0331 20.0603 89.0331 20.0603L91.9743 16.2955H73.5625C73.5625 16.2955 74.2096 16.5308 74.739 17.0014C75.2096 17.472 75.5625 18.0602 75.5625 18.825V21.6485C75.5625 22.1779 75.386 23.5308 77.7978 24.5897C80.1507 25.6485 82.8566 26.825 83.3272 27.0602C83.7978 27.2955 83.9743 27.4132 83.9743 28.1779V32.0602C83.9743 32.4132 83.9743 32.6485 83.386 32.5308C82.7978 32.4132 81.2684 32.1191 81.0331 32.0014C80.7978 31.9426 80.5625 31.825 80.5625 31.1779C80.5037 30.472 80.5037 28.825 80.5037 28.825Z" fill="#D71718"/>
<path d="M47.8555 9.64851C47.8555 9.70733 47.8555 9.70734 47.9143 9.70734H47.9731L54.3849 5.53086C54.5025 5.47204 54.6202 5.41321 54.7378 5.41321H56.1496C56.3849 5.41321 56.5025 5.53086 56.5025 5.76615V8.47204C56.5025 8.82498 56.4437 9.00146 56.1496 9.17793L54.4437 10.1779H54.3849C54.3849 10.1779 54.3261 10.1779 54.3261 10.1191V7.00145C54.3261 6.94263 54.326 6.94262 54.2672 6.94262H54.2084L49.5025 10.0015C49.3849 10.0603 49.2672 10.1191 49.1496 10.1191H46.0319C45.7966 10.1191 45.679 10.0015 45.679 9.76616V5.88381C45.679 5.82498 45.679 5.82498 45.6202 5.82498C45.6202 5.82498 45.6202 5.82498 45.5614 5.82498L42.4437 7.70734C42.3849 7.70734 42.3849 7.70733 42.3849 7.76615C42.3849 7.76615 42.3849 7.76615 42.4437 7.82498L44.679 10.0603C44.7378 10.0603 44.7378 10.1191 44.7378 10.1191L44.679 10.1779H42.679C42.5025 10.1779 42.3849 10.1779 42.3261 10.0603L40.9731 8.70733C40.9731 8.70733 40.9731 8.70733 40.9143 8.70733C40.9143 8.70733 40.9143 8.70733 40.8555 8.70733L38.6202 10.0603C38.5025 10.1191 38.3849 10.1779 38.2672 10.1779H36.2084C35.9731 10.1779 35.8555 10.0603 35.8555 9.82497V7.17791C35.8555 6.8838 35.9143 6.64851 36.2084 6.47204L37.9143 5.41321H37.9731L38.0319 5.47204V9.00145C38.0319 9.06027 38.0319 9.06027 38.0908 9.06027H38.1496L43.9731 5.58969C44.0908 5.53087 44.2084 5.47204 44.3261 5.47204H47.4437C47.679 5.47204 47.7966 5.58969 47.7966 5.82498V9.64851H47.8555Z" fill="white"/>
</svg>
