<svg width="78" height="70" viewBox="0 0 78 70" fill="none" xmlns="http://www.w3.org/2000/svg">
<path d="M69.9943 40.4796L77.4773 27.9738H65.1253C66.1504 24.3861 67.6367 20.9521 69.6356 17.9795C58.6674 17.6207 46.9817 15.0068 38.8324 6.80627C30.6832 15.0068 18.9974 17.6207 8.02924 17.9795C10.0281 20.9521 11.4632 24.3349 12.5395 27.9738H0.1875L7.67047 40.4796L2.64765 50.3202H14.2309C13.9746 52.8316 13.5646 55.1893 13.0008 57.3419C13.0008 57.3419 27.9667 60.1096 38.8324 70.0015C49.6981 60.1096 64.664 57.3419 64.664 57.3419C64.1515 55.1893 63.7415 52.8316 63.4339 50.3202H75.0172L69.9943 40.4796Z" fill="#EBEBEC"/>
<path d="M67.0727 40.4796L71.993 30.9465H60.1023C60.7686 27.2563 61.7937 23.8736 63.3312 21.1059C55.6433 21.0034 43.9575 17.6719 38.8322 12.1366C33.7069 17.6719 22.0212 21.0547 14.3332 21.1059C15.8708 23.8736 16.8959 27.2563 17.5621 30.9465H5.72266L10.643 40.4796L6.33769 48.4751H18.2284C17.9722 51.0378 17.6134 53.4467 17.1521 55.4455C17.1521 55.4455 27.9153 57.8544 38.8835 67.49C49.8517 57.8544 60.6148 55.4455 60.6148 55.4455C60.1536 53.4467 59.7435 51.0378 59.5385 48.4751H71.4293L67.0727 40.4796Z" fill="black"/>
<path d="M38.8329 55.9581C34.6814 55.9581 31.0937 58.4183 29.4023 61.9548L38.8329 68.2589L48.2635 61.9548C46.6234 58.4183 43.0357 55.9581 38.8329 55.9581Z" fill="#EBEBEC"/>
<path d="M22.8433 45.9124L18.1793 40.5821L22.177 36.1743H19.2556L16.0779 39.6083V33.0991H12.2852C13.0027 33.7142 13.6177 34.483 13.6177 35.5593V45.8612H16.0779V41.7097L19.7169 45.8612H22.8433V45.9124Z" fill="white"/>
<path d="M54.7224 36.1743V45.9637H52.2623V38.6857C52.2623 37.6094 51.6472 36.7894 50.9297 36.2256H54.7224V36.1743Z" fill="white"/>
<path d="M65.0744 43.8623L66.2533 45.9124H56.5664L61.538 38.2244H56.9252V36.1743H66.0482L60.6667 43.8623H65.0744Z" fill="white"/>
<path d="M27.504 43.0935V38.2245H29.2466L30.4254 36.1743H27.504V33.1504L25.0439 34.5342V36.1743H23.25V38.2245H25.0439V43.2473C25.0439 44.7336 26.2227 45.9124 27.709 45.9124H29.6566V43.8623H28.2216C27.8628 43.8623 27.504 43.5035 27.504 43.0935Z" fill="white"/>
<path d="M47.1873 36.1744L44.7272 41.2997L41.9082 35.9181L39.0893 41.2997L36.6291 36.1744H32.7852C33.6565 36.6869 34.6303 37.5069 35.2453 38.6858C35.8603 39.9158 38.9355 46.1687 38.9355 46.1687L41.9082 40.5309L44.8809 46.1687L49.8525 36.1744H47.1873Z" fill="white"/>
<path d="M56.004 25.3087C53.1338 23.8736 51.9037 22.541 51.9037 22.541C48.4698 2.14224 23.9195 -2.88057 13.0026 1.4247C19.973 3.16731 26.2259 5.72997 30.4287 10.3428C24.5858 8.85641 16.5903 8.54889 11.875 9.98398C17.7691 10.7528 26.5847 14.7505 31.9663 22.336C36.1178 28.2301 38.4242 30.7415 43.0369 33.2529C45.9584 32.1254 48.4698 29.3577 49.2898 27.3076C51.6475 27.4613 54.6202 26.4363 56.004 25.3087Z" fill="#EBEBEC"/>
<path d="M54.4658 25.36C43.1389 23.0536 42.4213 11.1628 23.8164 11.1628C34.2208 16.9032 34.3233 26.7951 43.1389 31.8179C43.1389 31.8179 44.1127 30.7928 45.0865 28.4864L46.7266 28.8964C47.0341 26.8463 46.6753 24.7962 46.6753 24.7962C47.8542 25.2575 51.2369 26.385 54.4658 25.36Z" fill="#E60012"/>
<path d="M33.6575 11.214C40.7304 13.4179 46.1633 17.1081 49.4435 20.3883C46.7783 7.0625 30.2235 -1.24053 16.1289 1.32213C16.1289 1.32213 27.0971 2.85973 33.6575 11.214Z" fill="black"/>
<path d="M41.1386 25.0524C40.9336 23.3098 39.7035 21.3622 37.9609 19.9271C39.8573 20.5934 41.4462 20.2859 42.215 19.1071C42.42 20.8497 43.65 22.7973 45.3927 24.2324C43.4963 23.5661 41.9074 23.8736 41.1386 25.0524Z" fill="white"/>
<path d="M49.8527 48.7826C49.3401 48.7826 48.8789 48.9876 48.6226 49.3464L48.4688 48.8851H47.1875C47.4438 49.0901 47.7 49.3976 47.7 49.8077V52.5753H48.6226V50.3202C48.7251 49.9614 49.1864 49.5514 49.5964 49.5514C50.1089 49.5514 50.3139 50.0127 50.3139 50.5252V52.5241H51.2365V50.4227C51.2878 49.2439 50.5702 48.7826 49.8527 48.7826Z" fill="#EBEBEC"/>
<path d="M33.6572 50.8327C33.6572 51.4478 33.401 51.8578 32.8372 51.8578C32.2734 51.8578 32.0171 51.4478 32.0171 50.8327V48.8339H30.582C30.8383 49.0901 31.0946 49.3464 31.0946 49.7564V50.9865C31.0946 52.2678 32.2221 52.6266 32.8372 52.6266C33.4522 52.6266 34.5798 52.2678 34.5798 50.9865V48.8339H33.6572V50.8327Z" fill="#EBEBEC"/>
<path d="M40.7805 48.834L39.8579 50.8328L38.7816 48.7314L37.7053 50.8328L36.7827 48.834H35.3477C35.6552 49.039 36.0652 49.3465 36.2702 49.8078C36.4752 50.269 37.654 52.7292 37.654 52.7292L38.7816 50.4741L39.9092 52.7292L41.8056 48.8852H40.7805V48.834Z" fill="#EBEBEC"/>
<path d="M44.4173 48.7314C43.2897 48.7314 42.3672 49.5515 42.3672 50.6791C42.3672 51.8066 43.2897 52.6267 44.4173 52.6267C45.5449 52.6267 46.4674 51.8066 46.4674 50.6791C46.5187 49.5515 45.5961 48.7314 44.4173 48.7314ZM44.4173 51.9091C43.8023 51.9091 43.341 51.3966 43.341 50.6791C43.341 49.9615 43.8023 49.449 44.4173 49.449C45.0324 49.449 45.4936 49.9615 45.4936 50.6791C45.4936 51.3966 45.0324 51.9091 44.4173 51.9091Z" fill="#EBEBEC"/>
<path d="M27.9678 51.909C27.404 51.909 26.8914 51.499 26.8402 51.2427L26.3789 52.2166C26.6864 52.4728 27.2502 52.6778 28.019 52.6778C29.1466 52.6778 29.8129 52.1653 29.8129 51.499C29.8129 50.9352 29.4541 50.5765 28.5315 50.3714C27.8652 50.2177 27.5065 50.1152 27.5065 49.9102C27.5065 49.6539 27.814 49.5001 28.2753 49.5001C28.634 49.5001 28.9416 49.6026 29.2491 49.8077L29.6079 49.1414C29.4028 48.9364 28.6853 48.7826 28.2753 48.7826C27.199 48.7826 26.5327 49.3464 26.5327 49.9614C26.5327 50.4227 26.8402 50.7815 27.814 51.0377C28.429 51.1915 28.7878 51.294 28.7878 51.5503C28.7878 51.8065 28.4803 51.909 27.9678 51.909Z" fill="#EBEBEC"/>
<path d="M44.0101 62.006C43.8564 61.8522 43.7539 61.4934 43.8564 61.1859C43.7026 61.3397 43.4976 61.4422 43.2926 61.4422C43.1388 61.4422 42.3188 61.4422 42.3188 61.4422C42.165 61.4422 42.0625 61.5447 42.0625 61.6984C42.0625 61.8522 42.165 61.9547 42.3188 61.9547C42.3188 61.9547 43.0876 61.9547 43.1901 61.9547C43.3438 61.9547 43.4976 61.8522 43.6001 61.7497L43.6514 61.5959C43.6001 61.6984 43.6001 61.801 43.5488 61.8522C43.4976 62.1085 43.5488 62.211 43.7539 62.3647C43.9589 62.5185 44.2664 62.7748 44.2664 62.7748C44.3689 62.8773 44.5227 62.826 44.5739 62.7748C44.6764 62.6723 44.6252 62.5185 44.5739 62.416C44.5739 62.4672 44.1126 62.0572 44.0101 62.006Z" fill="#E60012"/>
<path d="M44.6229 60.6222C44.4692 60.4684 44.4692 60.0584 44.5717 59.7509C44.4179 59.9046 44.1617 59.9559 44.0079 59.9559C43.8541 59.9559 43.0341 59.8534 43.0341 59.8534C42.8803 59.8534 42.7778 59.9559 42.7266 60.0584C42.7266 60.2121 42.8291 60.3146 42.9316 60.3659C42.9316 60.3659 43.7004 60.4684 43.8029 60.4684C43.9566 60.4684 44.1617 60.4171 44.2642 60.3146L44.3154 60.2121C44.2642 60.3146 44.2129 60.3659 44.1617 60.4684C44.0591 60.6734 44.1104 60.8272 44.2642 61.0322C44.4179 61.2372 44.7254 61.4935 44.7254 61.4935C44.8279 61.596 44.9817 61.596 45.0842 61.4935C45.1867 61.391 45.1867 61.2372 45.0842 61.1347C45.1355 61.1347 44.6742 60.6734 44.6229 60.6222Z" fill="#E60012"/>
<path d="M42.779 65.6962C42.7277 65.9012 42.5227 66.0549 42.369 66.1062C42.2665 66.1574 41.4464 66.4137 41.4464 66.4137C41.2927 66.465 41.2414 66.6187 41.2927 66.7212C41.3439 66.875 41.4977 66.9262 41.6002 66.875C41.6002 66.875 42.3177 66.6187 42.4202 66.6187C42.574 66.5675 42.7277 66.4137 42.7277 66.3112L42.779 65.6962Z" fill="#E60012"/>
<path d="M45.8036 59.9045C45.8036 59.9045 45.4449 59.392 45.3424 59.2895C45.1886 59.0845 45.2398 58.7257 45.3936 58.4182C45.2398 58.572 44.9836 58.6232 44.8298 58.572C44.6761 58.5207 43.856 58.3157 43.856 58.3157C43.7022 58.2644 43.5997 58.367 43.5485 58.5207C43.4972 58.6745 43.5997 58.777 43.7535 58.8282C43.7535 58.8282 44.471 59.0332 44.6248 59.0332C44.7786 59.0845 44.9836 59.0332 45.0861 58.9307L45.1886 58.8282C45.1373 58.9307 45.0861 58.982 45.0348 59.0845C44.9323 59.2895 44.9323 59.4433 45.0861 59.6483C45.2398 59.8533 45.4449 60.1608 45.4449 60.1608C45.4961 60.2633 45.6499 60.3146 45.7524 60.2121C45.8549 60.1608 45.8549 60.0071 45.8036 59.9045Z" fill="#E60012"/>
<path d="M43.9577 65.2861C43.9577 65.2861 43.3939 64.9786 43.2914 64.9274C43.0864 64.8249 42.9326 64.4661 42.9839 64.1586C42.8813 64.3636 42.6763 64.5173 42.5226 64.5173C42.3688 64.5686 41.5488 64.7224 41.5488 64.7224C41.395 64.7736 41.3438 64.8761 41.3438 65.0299C41.395 65.1836 41.4975 65.2349 41.6513 65.2349C41.6513 65.2349 42.3688 65.0811 42.5226 65.0299C42.6763 64.9786 42.8301 64.8761 42.8813 64.7224V64.5686C42.8813 64.6711 42.8813 64.7736 42.8301 64.8761C42.8301 65.1324 42.9326 65.2349 43.1376 65.3374C43.3426 65.4399 43.7014 65.6449 43.7014 65.6449C43.8039 65.6962 43.9577 65.6449 44.0089 65.5424C44.1114 65.4912 44.0602 65.3374 43.9577 65.2861Z" fill="#E60012"/>
<path d="M43.6004 63.441C43.3954 63.2873 43.2929 62.9285 43.3442 62.621C43.2417 62.826 42.9854 62.9285 42.8316 62.9285C42.6779 62.9285 41.8578 63.031 41.8578 63.031C41.7041 63.031 41.6016 63.1848 41.6016 63.2873C41.6016 63.441 41.7553 63.5435 41.8578 63.5435C41.8578 63.5435 42.6266 63.4923 42.7291 63.441C42.8829 63.441 43.0367 63.3385 43.1392 63.1848L43.1904 63.031C43.1904 63.1335 43.1392 63.236 43.1392 63.3385C43.0879 63.5435 43.1904 63.6973 43.3954 63.851C43.6004 64.0048 43.908 64.2098 43.908 64.2098C44.0105 64.2611 44.1642 64.2611 44.2155 64.1586C44.2667 64.0561 44.2667 63.9023 44.1642 63.851C44.1642 63.851 43.7029 63.5435 43.6004 63.441Z" fill="#E60012"/>
<path d="M33.6542 62.006C33.808 61.8522 33.9105 61.4934 33.808 61.1859C33.9617 61.3397 34.1667 61.4422 34.3205 61.4422C34.4743 61.4422 35.2943 61.4422 35.2943 61.4422C35.4481 61.4422 35.5506 61.5447 35.5506 61.6984C35.5506 61.8522 35.4481 61.9547 35.2943 61.9547C35.2943 61.9547 34.5255 61.9547 34.423 61.9547C34.2693 61.9547 34.1155 61.8522 34.013 61.7497V61.5959C34.0642 61.6984 34.0642 61.801 34.1155 61.8522C34.1667 62.1085 34.1155 62.211 33.9105 62.3647C33.7055 62.5185 33.398 62.7748 33.398 62.7748C33.2954 62.8773 33.1417 62.826 33.0904 62.7748C32.9879 62.6723 33.0392 62.5185 33.0904 62.416C33.1417 62.4672 33.603 62.0572 33.6542 62.006Z" fill="#E60012"/>
<path d="M33.0928 60.6222C33.2466 60.4684 33.2466 60.0584 33.1441 59.7509C33.2979 59.9046 33.5541 59.9559 33.7079 59.9559C33.8616 59.9559 34.6817 59.8534 34.6817 59.8534C34.8355 59.8534 34.938 59.9559 34.9892 60.0584C34.9892 60.2121 34.8867 60.3146 34.7842 60.3659C34.7842 60.3659 34.0154 60.4684 33.9129 60.4684C33.7591 60.4684 33.5541 60.4171 33.4516 60.3146L33.4004 60.2121C33.4516 60.3146 33.5029 60.3659 33.5541 60.4684C33.6566 60.6734 33.6054 60.8272 33.4516 61.0322C33.2979 61.2372 32.9903 61.4935 32.9903 61.4935C32.8878 61.596 32.7341 61.596 32.6316 61.4935C32.5291 61.391 32.5291 61.2372 32.6316 61.1347C32.5803 61.1347 32.9903 60.6734 33.0928 60.6222Z" fill="#E60012"/>
<path d="M34.8867 65.6962C34.938 65.9012 35.143 66.0549 35.2967 66.1062C35.3993 66.1574 36.2193 66.4137 36.2193 66.4137C36.3731 66.465 36.4243 66.6187 36.3731 66.7212C36.3218 66.875 36.1681 66.9262 36.0655 66.875C36.0655 66.875 35.348 66.6187 35.2455 66.6187C35.0917 66.5675 34.938 66.4137 34.938 66.3112L34.8867 65.6962Z" fill="#E60012"/>
<path d="M31.9113 59.9045C31.9113 59.9045 32.2701 59.392 32.3726 59.2895C32.5264 59.0845 32.4751 58.7257 32.3214 58.4182C32.4751 58.572 32.7314 58.6232 32.8852 58.572C33.0389 58.5207 33.859 58.3157 33.859 58.3157C34.0127 58.2644 34.1152 58.367 34.1665 58.5207C34.2177 58.6745 34.1152 58.777 33.9615 58.8282C33.9615 58.8282 33.2439 59.0332 33.0902 59.0332C32.9364 59.0845 32.7314 59.0332 32.6289 58.9307L32.5264 58.8282C32.5776 58.9307 32.6289 58.982 32.6801 59.0845C32.7826 59.2895 32.7826 59.4433 32.6289 59.6483C32.4751 59.8533 32.2701 60.1608 32.2701 60.1608C32.2189 60.2633 32.0651 60.3146 31.9626 60.2121C31.8601 60.1608 31.8088 60.0071 31.9113 59.9045Z" fill="#E60012"/>
<path d="M33.7087 65.2861C33.7087 65.2861 34.2725 64.9786 34.375 64.9274C34.58 64.8249 34.7338 64.4661 34.6825 64.1586C34.785 64.3636 34.99 64.5173 35.1438 64.5173C35.2975 64.5686 36.1176 64.7224 36.1176 64.7224C36.2713 64.7736 36.3226 64.8761 36.3226 65.0299C36.2713 65.1836 36.1688 65.2349 36.0151 65.2349C36.0151 65.2349 35.2975 65.0811 35.1438 65.0299C34.99 64.9786 34.8363 64.8761 34.785 64.7224V64.5686C34.785 64.6711 34.785 64.7736 34.8363 64.8761C34.8363 65.1324 34.7338 65.2349 34.5287 65.3374C34.3237 65.4399 33.965 65.6449 33.965 65.6449C33.8624 65.6962 33.7087 65.6449 33.6574 65.5424C33.5549 65.4912 33.6062 65.3374 33.7087 65.2861Z" fill="#E60012"/>
<path d="M34.1179 63.441C34.3229 63.2873 34.4254 62.9285 34.3742 62.621C34.4767 62.826 34.733 62.9285 34.8867 62.9285C35.0405 62.9285 35.8605 63.031 35.8605 63.031C36.0143 63.031 36.1168 63.1848 36.0655 63.2873C36.0655 63.441 35.9118 63.5435 35.8093 63.5435C35.8093 63.5435 35.0405 63.4923 34.938 63.441C34.7842 63.441 34.6305 63.3385 34.528 63.1848L34.4767 63.031C34.4767 63.1335 34.528 63.236 34.528 63.3385C34.528 63.5435 34.4767 63.6973 34.2717 63.851C34.0667 64.0048 33.7592 64.2098 33.7592 64.2098C33.6566 64.2611 33.5029 64.2611 33.4516 64.1586C33.4004 64.0561 33.4004 63.9023 33.5029 63.851C33.5029 63.851 34.0154 63.5435 34.1179 63.441Z" fill="#E60012"/>
</svg>
