<svg width="94" height="70" viewBox="0 0 94 70" fill="none" xmlns="http://www.w3.org/2000/svg">
<path d="M86.2105 38.8764C86.2105 36.4777 84.9804 34.448 83.3197 33.7099C82.6432 14.8275 66.8975 -0.24159 47.8306 0.00443499C28.5176 0.25046 13.018 16.1806 13.264 35.4936C13.264 36.4162 13.3255 37.4003 13.387 38.3229C11.9724 39.184 10.9883 41.0907 10.9883 43.2434C10.9883 46.2572 12.895 48.7175 15.2322 48.7175C15.4782 48.7175 15.7243 48.6559 15.9703 48.5944C21.3829 61.3262 34.0532 70.1832 48.6917 69.9986C64.6218 69.7526 77.9072 58.9275 81.9666 44.3505C84.3653 44.289 86.2105 41.8902 86.2105 38.8764ZM13.8176 35.4936C13.5716 16.4881 28.8251 0.804014 47.8306 0.557988C66.467 0.311963 81.9666 15.012 82.7662 33.5254C82.5202 33.4639 82.2741 33.4024 82.0281 33.4024C81.167 15.3195 66.1595 1.05003 47.8921 1.29605C29.2557 1.54208 14.3711 16.8572 14.6172 35.4936C14.6172 36.2932 14.6787 37.0928 14.7402 37.8308C14.4941 37.8923 14.2481 37.9538 14.0021 38.0769C13.8791 37.1543 13.8176 36.3547 13.8176 35.4936ZM48.7532 69.5066C34.3607 69.6911 21.8749 60.9572 16.5239 48.4714C16.7699 48.3484 16.9544 48.2254 17.2004 48.1024C22.367 60.3422 34.6067 68.8915 48.7532 68.707C64.0682 68.5225 76.8616 58.1279 80.798 44.166C81.044 44.2275 81.29 44.3505 81.5361 44.3505C77.4766 58.6815 64.3758 69.2606 48.7532 69.5066Z" fill="#B3B1B1"/>
<path d="M25.6878 28.4203C29.3167 15.9961 42.3561 8.86134 54.7803 12.4902C67.2046 16.1191 74.3394 29.1584 70.7105 41.5827C67.0816 54.007 54.0423 61.1417 41.618 57.5129C29.1937 53.884 22.059 40.9061 25.6878 28.4203Z" fill="white"/>
<path d="M60.8058 19.1328L61.4824 16.7341L62.0975 16.4266L59.6987 15.1964C59.4527 15.0734 59.3297 15.1349 59.2682 15.258L59.2067 15.381C59.1452 15.504 59.2067 15.6885 59.3912 15.8115L61.2364 16.7956L60.6213 17.1031L60.1293 18.9483C60.0677 19.1329 60.1293 19.3174 60.3138 19.3789L60.4368 19.4404C60.5598 19.4404 60.7443 19.3789 60.8058 19.1328Z" fill="#B3B1B1"/>
<path d="M58.3469 19.9939L59.208 17.6567L59.8846 17.4107L57.6089 15.996C57.4244 15.873 57.2398 15.9345 57.1783 16.0575L57.1168 16.1805C57.0553 16.3035 57.1168 16.4881 57.3013 16.6111L59.085 17.7182L58.47 17.9642L57.8549 19.7479C57.7934 19.9324 57.8549 20.1169 57.9779 20.1784L58.1009 20.2399C58.1009 20.3015 58.2854 20.2399 58.3469 19.9939Z" fill="#B3B1B1"/>
<path d="M55.8871 20.6706L56.8712 18.3949L57.5478 18.2103L55.3335 16.6112C55.149 16.4882 54.9645 16.4882 54.903 16.6112L54.8415 16.7342C54.78 16.8572 54.78 17.0417 54.9645 17.1647L56.6867 18.3949L56.0101 18.5794L55.272 20.3016C55.2105 20.4861 55.272 20.6706 55.395 20.7321L55.518 20.7936C55.5795 20.9166 55.7641 20.8551 55.8871 20.6706Z" fill="#B3B1B1"/>
<path d="M53.3637 21.1011L54.5323 18.9483L55.2089 18.8253L53.1177 17.1031C52.9332 16.9186 52.7487 16.9801 52.6871 17.1031L52.5641 17.2262C52.5026 17.3492 52.5026 17.5337 52.6871 17.6567L54.2863 19.0099L53.6097 19.1329L52.7486 20.7935C52.6256 20.978 52.6871 21.1626 52.8101 21.2241L52.9332 21.2856C53.0562 21.4086 53.2407 21.3471 53.3637 21.1011Z" fill="#B3B1B1"/>
<path d="M50.7798 21.4086L52.0715 19.3174L52.748 19.2559L50.7798 17.3492C50.5953 17.1647 50.4108 17.2262 50.3493 17.2877L50.2263 17.4107C50.1648 17.5337 50.1648 17.7183 50.2878 17.8413L51.8254 19.3174L51.1489 19.3789L50.1648 20.9781C50.0418 21.1626 50.1033 21.3471 50.1648 21.4701L50.2878 21.5317C50.4723 21.6547 50.6568 21.5932 50.7798 21.4086Z" fill="#B3B1B1"/>
<path d="M48.2581 21.5316L49.6727 19.5634L50.3493 19.5019L48.5041 17.4722C48.3196 17.2877 48.1351 17.2877 48.0736 17.4107L47.9506 17.5337C47.8276 17.6567 47.8276 17.8412 48.0121 17.9642L49.4267 19.5634L48.7501 19.6249L47.643 21.1626C47.52 21.3471 47.52 21.5316 47.643 21.6546L47.7661 21.7776C47.8891 21.7161 48.0736 21.7161 48.2581 21.5316Z" fill="#B3B1B1"/>
<path d="M45.676 21.4701L47.2752 19.6249H47.9517L46.291 17.4722C46.168 17.2877 45.922 17.2877 45.8605 17.3492L45.7375 17.4722C45.6145 17.5337 45.6145 17.7797 45.7375 17.9027L47.0291 19.5634H46.3526L45.1839 20.978C45.0609 21.1626 45.0609 21.3471 45.1224 21.4086L45.2455 21.5316C45.307 21.6546 45.4915 21.6546 45.676 21.4701Z" fill="#B3B1B1"/>
<path d="M43.0933 21.1626L44.8154 19.3789L45.492 19.4404L43.9544 17.1647C43.8313 16.9802 43.6468 16.9186 43.5238 17.0417L43.4008 17.1647C43.2778 17.2262 43.2778 17.4722 43.4008 17.6567L44.5694 19.4404L43.8928 19.3789L42.6012 20.732C42.4782 20.9166 42.4167 21.1011 42.5397 21.2241L42.6627 21.3471C42.7857 21.3471 42.9703 21.3471 43.0933 21.1626Z" fill="#B3B1B1"/>
<path d="M40.5698 20.732L42.3535 19.1329L43.0301 19.2559L41.6769 16.9186C41.5539 16.6726 41.3694 16.6726 41.2464 16.7341L41.1234 16.7956C41.0004 16.8571 41.0004 17.0416 41.0619 17.2877L42.1075 19.1329L41.4309 19.0099L40.0778 20.24C39.8932 20.363 39.8932 20.609 39.9548 20.6705L40.0778 20.7935C40.2008 20.855 40.3853 20.9165 40.5698 20.732Z" fill="#B3B1B1"/>
<path d="M38.1099 20.1169L40.0166 18.6408L40.6931 18.8253L39.463 16.365C39.34 16.119 39.1555 16.119 39.094 16.119L38.971 16.1805C38.8479 16.242 38.7864 16.4266 38.9095 16.6111L39.832 18.5178L39.1555 18.3333L37.6793 19.5019C37.4948 19.6249 37.4948 19.8094 37.5563 19.9324L37.6793 20.0554C37.6793 20.2399 37.8638 20.2399 38.1099 20.1169Z" fill="#B3B1B1"/>
<path d="M35.6508 19.3175L37.6805 17.9643L38.3571 18.1489L37.3115 15.6271C37.25 15.3811 37.0655 15.3196 36.9425 15.3811L36.8195 15.4426C36.6964 15.5041 36.6349 15.6886 36.6964 15.8731L37.496 17.8413L36.8195 17.6568L35.2818 18.7024C35.0973 18.8254 35.0358 19.0099 35.0973 19.1329L35.1588 19.256C35.2818 19.379 35.4663 19.4405 35.6508 19.3175Z" fill="#B3B1B1"/>
<path d="M33.2505 18.3333L35.3417 17.1031L36.0183 17.3492L35.1572 14.7659C35.0957 14.5199 34.9112 14.4584 34.7881 14.5199L34.6651 14.5814C34.5421 14.6429 34.4806 14.8274 34.5421 15.0119L35.2187 17.0416L34.6036 16.7956L33.0045 17.7182C32.8199 17.8412 32.7584 18.0257 32.8199 18.1488L32.8814 18.2718C32.8814 18.3948 33.066 18.4563 33.2505 18.3333Z" fill="#B3B1B1"/>
<path d="M34.2976 51.4237L33.9286 53.6994L33.375 54.0684L35.7737 54.868C36.0198 54.9296 36.1428 54.868 36.2043 54.745L36.2658 54.622C36.3273 54.499 36.2043 54.3145 36.0198 54.253L34.1746 53.5764L34.7281 53.2074L34.9742 51.4852C34.9742 51.3007 34.9127 51.1161 34.7896 51.1161H34.6666C34.4821 51.0546 34.2976 51.1776 34.2976 51.4237Z" fill="#B3B1B1"/>
<path d="M36.5134 50.3166L36.0213 52.5923L35.4062 52.8998L37.7435 53.8839C37.928 54.0069 38.1125 53.8839 38.174 53.7609L38.2355 53.6379C38.297 53.5149 38.2355 53.3304 37.9895 53.2689L36.1443 52.4693L36.7594 52.1618L37.1284 50.4396C37.1899 50.2551 37.0669 50.0705 36.9439 50.0705L36.8209 50.009C36.6979 50.009 36.5134 50.0705 36.5134 50.3166Z" fill="#B3B1B1"/>
<path d="M38.7252 49.394L38.0487 51.6082L37.4336 51.8542L39.7093 53.0228C39.8939 53.1459 40.0784 53.0843 40.1399 52.9613L40.2014 52.8383C40.2629 52.7153 40.2014 52.5308 40.0169 52.4693L38.2332 51.5467L38.8482 51.3006L39.3403 49.64C39.4018 49.4555 39.3403 49.2709 39.2173 49.2094L39.0943 49.1479C38.9713 49.0864 38.7867 49.1479 38.7252 49.394Z" fill="#B3B1B1"/>
<path d="M41.0631 48.5944L40.2635 50.7472L39.6484 50.9932L41.8012 52.2848C41.9857 52.4078 42.1702 52.3463 42.2317 52.2233L42.2932 52.1003C42.3547 51.9773 42.2932 51.7927 42.1087 51.7312L40.448 50.6856L41.0631 50.5011L41.6781 48.8404C41.7396 48.6559 41.6782 48.4714 41.5551 48.4099L41.4321 48.3484C41.3091 48.3484 41.1861 48.4099 41.0631 48.5944Z" fill="#B3B1B1"/>
<path d="M43.4624 48.0409L42.4783 50.1321L41.8633 50.3166L43.9545 51.7928C44.139 51.9158 44.3235 51.9158 44.385 51.7928L44.4465 51.6698C44.508 51.5468 44.5081 51.3622 44.3235 51.2392L42.7244 50.0706L43.3394 49.8861L44.0775 48.2869C44.139 48.1024 44.139 47.9179 44.016 47.8564L43.893 47.7949C43.7085 47.7334 43.524 47.7949 43.4624 48.0409Z" fill="#B3B1B1"/>
<path d="M45.8618 47.5488L44.7547 49.5785L44.0781 49.7015L46.0463 51.3006C46.2308 51.4237 46.4154 51.4237 46.4769 51.3006L46.5999 51.1777C46.6614 51.0546 46.6614 50.8701 46.4769 50.7471L44.9392 49.517L45.5543 49.394L46.4154 47.8563C46.5384 47.6718 46.4769 47.4873 46.3538 47.4257L46.2308 47.3643C46.1693 47.3643 45.9848 47.3643 45.8618 47.5488Z" fill="#B3B1B1"/>
<path d="M48.3208 47.3028L47.0906 49.2095L46.4141 49.271L48.2593 50.9932C48.4438 51.1777 48.6283 51.1162 48.6898 51.0547L48.8128 50.9317C48.8743 50.8087 48.8743 50.6241 48.7513 50.5011L47.3367 49.148L47.9517 49.0865L48.9358 47.6103C49.0588 47.4258 48.9973 47.2413 48.9358 47.1798L48.8128 47.1183C48.6283 47.1183 48.4438 47.1183 48.3208 47.3028Z" fill="#B3B1B1"/>
<path d="M50.7826 47.2413L49.368 49.0865L48.6914 49.148L50.4136 50.9931C50.5981 51.1777 50.7211 51.1777 50.8441 51.0547L50.9671 50.9316C51.0901 50.8701 51.0901 50.6856 50.9056 50.5011L49.5525 49.025L50.2291 48.9634L51.2747 47.5488C51.3977 47.3643 51.3977 47.1798 51.2747 47.1182L51.1517 47.0568C51.0902 46.9953 50.9056 47.0567 50.7826 47.2413Z" fill="#B3B1B1"/>
<path d="M53.2416 47.3028L51.7039 49.025H51.0273L52.6265 50.9932C52.7495 51.1777 52.934 51.1777 53.057 51.1162L53.1801 50.9932C53.3031 50.9317 53.3031 50.7472 53.1801 50.5627L51.9499 49.025H52.6265L53.7951 47.6719C53.9181 47.5488 53.9181 47.3028 53.8566 47.2413L53.7336 47.1183C53.5491 47.1183 53.3646 47.1183 53.2416 47.3028Z" fill="#B3B1B1"/>
<path d="M55.639 47.5489L54.0399 49.148L53.3633 49.0865L54.8394 51.1778C54.9625 51.3623 55.147 51.3623 55.27 51.3007L55.393 51.2393C55.516 51.1777 55.516 50.9932 55.393 50.8087L54.2859 49.148L54.9624 49.2096L56.1926 47.9794C56.3156 47.8564 56.3156 47.6719 56.2541 47.5489L56.1311 47.4259C56.0081 47.4259 55.8235 47.3644 55.639 47.5489Z" fill="#B3B1B1"/>
<path d="M58.1019 47.9793L56.3797 49.4555L55.7031 49.3325L56.9948 51.5467C57.1178 51.7312 57.3023 51.7927 57.3638 51.7312L57.4868 51.6697C57.6098 51.6082 57.6098 51.4237 57.5483 51.2392L56.5642 49.517L57.2408 49.64L58.5939 48.4714C58.7784 48.3484 58.7784 48.1639 58.7169 48.0408L58.5939 47.9178C58.4094 47.8563 58.2249 47.7948 58.1019 47.9793Z" fill="#B3B1B1"/>
<path d="M60.4358 48.5329L58.5906 49.886L57.9141 49.7015L59.0827 51.9773C59.2057 52.1618 59.3287 52.2233 59.4517 52.1618L59.5747 52.1003C59.6977 52.0388 59.7592 51.8543 59.6362 51.6697L58.7751 49.886L59.3902 50.0091L60.8048 48.9634C60.9894 48.8404 60.9894 48.6559 60.9279 48.5329L60.8048 48.4099C60.8048 48.4714 60.6203 48.4099 60.4358 48.5329Z" fill="#B3B1B1"/>
<path d="M62.7757 49.3325L60.869 50.5626L60.2539 50.3781L61.238 52.7153C61.2995 52.9614 61.484 52.9613 61.6071 52.9613L61.7301 52.8999C61.8531 52.8383 61.9146 52.6538 61.8531 52.4693L61.115 50.6241L61.7301 50.8086L63.2062 49.8245C63.3907 49.7015 63.4522 49.517 63.3907 49.4555L63.3292 49.3325C63.1447 49.2095 62.9602 49.2095 62.7757 49.3325Z" fill="#B3B1B1"/>
<path d="M65.051 50.2551L63.0213 51.3622L62.4062 51.1162L63.2058 53.5149C63.2673 53.761 63.4519 53.8224 63.5749 53.7609L63.6979 53.6994C63.8209 53.6379 63.8824 53.5149 63.8209 53.2689L63.2058 51.3622L63.8209 51.6082L65.3585 50.7471C65.5431 50.6241 65.6046 50.5011 65.5431 50.3781L65.4816 50.2551C65.4201 50.1936 65.2355 50.1321 65.051 50.2551Z" fill="#B3B1B1"/>
<path d="M32.1452 19.3174C29.7465 19.7479 27.7168 21.7776 27.5938 23.9303C27.5938 23.9918 27.5938 24.1149 27.5938 24.1764C27.5938 25.1605 27.9628 26.0215 28.7009 26.6366C29.562 27.4362 30.8536 27.7437 32.2067 27.4977C34.6055 27.0672 36.6352 25.0374 36.7582 22.8847C36.8197 21.8391 36.4507 20.855 35.7126 20.1784C34.79 19.4404 33.4984 19.0713 32.1452 19.3174Z" fill="#8A8A8D"/>
<path d="M8.89519 25.4065L7.84958 29.5274C7.84958 29.5274 8.64917 29.2814 9.26423 29.1584C8.52615 32.2952 4.89728 48.6559 4.89728 48.7174C4.71276 49.3325 3.91317 49.763 3.1751 50.009L2.56003 50.1935L0.714844 56.4057L3.05209 55.4216C10.6174 52.2848 21.9345 49.271 22.0575 49.2095L22.6726 49.0249L25.3174 41.7672L22.4881 42.4438C22.1191 42.5053 21.873 42.6898 21.6885 42.8743C21.3195 43.3049 20.2124 44.4734 19.1052 44.8425C19.0437 44.8425 14.1847 46.1956 14.1232 46.1956C14.1232 46.0726 19.7818 21.4701 19.7818 21.4701L8.89519 25.4065Z" fill="#8A8A8D"/>
<path d="M26.1791 29.2815L25.1335 33.2794C25.1335 33.2794 25.7485 33.0949 26.3021 32.9719C25.6255 35.4936 24.2109 41.0907 24.2109 41.0907C24.0263 41.7673 23.9648 42.4439 23.9648 43.0589C23.9648 44.4121 24.3339 45.5807 25.1335 46.4418C25.8715 47.2413 27.2247 48.1024 29.7464 47.7334C31.7146 47.4874 33.4983 46.5033 35.0975 44.9656L36.2046 43.92L32.8218 41.8903L32.1452 42.5053C32.0837 42.5669 32.0222 42.5669 32.0222 42.6284C32.0222 42.5054 32.0837 42.3208 32.1452 42.1363L35.5895 27.9284L36.0816 25.7756L26.1791 29.2815Z" fill="#8A8A8D"/>
<path d="M48.0758 22.0852C42.3557 22.7618 38.0503 26.2061 36.8202 31.0036L35.098 37.8923C34.4829 40.1065 34.7289 41.8287 35.7745 43.0588C37.0047 44.4735 39.1574 44.9655 42.1712 44.5965C47.8913 43.8584 52.1967 40.7216 53.3039 36.4162L55.2105 28.7894C55.7641 26.5751 55.4566 24.853 54.411 23.6228C53.1808 22.2082 51.0281 21.7161 48.0758 22.0852ZM47.3377 26.6982C47.4608 26.6982 47.6453 26.6982 47.7683 26.6982C47.0917 29.4044 44.7545 38.9379 44.7545 38.9379C44.6315 39.3685 43.9549 39.799 43.1553 39.8605C43.0938 39.8605 43.0938 39.8605 43.0323 39.8605C43.2168 39.2454 46.1691 27.3132 46.1691 27.2517C46.2921 27.0672 46.8457 26.7597 47.3377 26.6982Z" fill="#8A8A8D"/>
<path d="M71.6328 17.1647C70.4642 17.3492 69.0496 17.8412 67.8194 18.4563C67.9425 18.0257 68.0655 17.5952 68.0655 17.5952L58.0399 21.2856L57.0558 25.2835C57.0558 25.2835 57.6709 25.099 58.2245 24.9145C57.4864 27.9898 54.2266 41.2751 54.2266 41.2751L62.6529 39.1839L66.0973 25.0375C66.2818 24.1764 66.7123 23.6843 67.4504 23.3768C67.1429 24.5454 65.4207 31.9262 65.4207 31.9262L65.2977 32.3567C64.8672 34.0789 64.2521 36.4776 65.5437 37.8923C66.2818 38.6919 67.3889 38.9994 68.8651 38.8149C71.4483 38.4458 73.7856 37.0927 75.6923 34.7555L76.5534 33.7099C76.5534 33.7099 73.6626 31.8647 73.4165 31.7416C74.0316 29.0969 75.6308 22.4542 75.6308 22.4542C75.8153 21.7776 75.8768 21.2241 75.8768 20.6705C75.8768 19.6249 75.5693 18.7638 75.0157 18.1488C74.2161 17.2877 72.986 16.9801 71.6328 17.1647Z" fill="#8A8A8D"/>
<path d="M7.17465 60.9572L6.62109 59.4196L8.40477 58.62C17.8767 54.5606 30.9776 50.0091 44.3245 46.1342C58.0404 42.1363 70.1571 39.3685 77.6609 38.5689L79.0141 38.4459L78.9525 42.2593L78.0299 42.4438C71.5718 43.674 48.6299 48.9635 25.7496 64.4016L25.1345 64.8321L24.4579 64.4016C19.4759 61.3263 12.5872 60.8957 8.89683 60.8957C8.34327 60.8957 7.17465 60.9572 7.17465 60.9572Z" fill="#8A8A8D"/>
<path d="M84.116 14.9504C79.257 15.996 76.5507 19.4404 76.6737 24.4839C76.7352 27.4977 78.5804 29.958 80.4256 32.3567C81.9632 34.3864 83.4394 36.3546 83.5009 38.3228C83.5624 41.9517 81.9632 42.4438 81.4712 42.5668C80.5486 42.7513 79.8105 42.1977 79.626 41.9517C81.2252 41.2136 82.8858 39.7375 82.8858 37.6463C82.8858 37.5232 82.8858 37.4002 82.8858 37.2157C82.7628 35.8626 82.0863 35.1245 81.5942 34.7555C80.4256 33.8944 79.0724 34.1404 78.7034 34.2019C75.8741 34.817 74.0289 37.5848 74.5825 40.5986C75.4436 45.4576 79.995 46.9337 83.8084 46.2572C86.5762 45.7651 88.9135 44.3504 90.3896 42.3207C91.8043 40.291 92.2963 37.7078 91.8042 34.94C91.2507 32.0492 89.713 29.7734 88.2369 27.5592C86.6992 25.2835 85.2231 23.1308 85.1001 20.486C85.0386 19.6864 85.2846 19.0098 85.5306 18.7638C85.6536 18.6408 85.7151 18.6408 85.7766 18.6408C85.8381 18.6408 86.0842 18.6408 86.3302 19.0098C86.8222 19.7479 86.8838 21.3471 86.5147 22.5157L86.3917 22.8847L87.1298 24.9145L93.957 21.7161L93.834 20.855C93.5879 18.8253 92.6038 17.0416 91.0047 15.873C89.0365 14.8889 86.6377 14.4584 84.116 14.9504Z" fill="#8A8A8D"/>
<path d="M32.2665 20.1785C30.2368 20.5475 28.5146 22.2697 28.4531 23.9919C28.4531 24.0534 28.4531 24.1149 28.4531 24.1764C28.4531 24.9144 28.7607 25.5295 29.2527 26.0216C29.9293 26.6366 30.9749 26.8827 32.0205 26.6981C34.0502 26.3291 35.7724 24.6684 35.8954 22.8847C35.9569 22.0852 35.6494 21.4086 35.0958 20.855C34.4192 20.24 33.3736 19.9939 32.2665 20.1785Z" fill="white"/>
<path d="M9.63459 26.0831L9.01953 28.3588C9.01953 28.3588 10.0036 28.1128 10.3727 27.9898C10.1266 29.0354 5.69819 48.9635 5.69819 48.9635C5.39066 50.1321 3.97602 50.6857 3.42246 50.8702L3.23794 50.9317L2.00781 54.9911L2.68438 54.7451C10.3112 51.6082 21.6283 48.5329 21.7513 48.5329L21.9359 48.4714L23.8426 43.1204L22.8585 43.3664C22.4279 43.4894 22.2434 43.4894 22.1819 43.6124C21.9359 43.9199 20.6442 45.3346 19.2296 45.8267L14.1861 47.2413C13.694 47.3643 13.325 47.3643 13.1405 47.1798C13.0174 47.0568 13.0174 46.7493 13.079 46.2572L18.43 22.9463L9.63459 26.0831Z" fill="white"/>
<path d="M26.8568 29.8965L26.3033 32.1108C26.3033 32.1108 27.1644 31.8647 27.4719 31.8032C27.2259 32.7873 25.0116 41.2752 25.0116 41.2752C24.8886 41.8903 24.7656 42.4438 24.7656 42.9974C24.7656 44.166 25.0732 45.0886 25.6882 45.7652C26.2418 46.3802 27.4104 47.1183 29.5016 46.8108C31.2853 46.5647 32.8845 45.7036 34.3606 44.2275L34.6681 43.92L32.8229 42.8129L32.6384 42.9974C32.2694 43.3664 31.8389 43.6125 31.4698 43.674C31.2853 43.674 31.2238 43.6124 31.2238 43.6124C31.0393 43.4279 30.9778 42.8744 31.2238 41.8288L34.8527 27.0057L26.8568 29.8965Z" fill="white"/>
<path d="M48.1365 22.9463C42.7854 23.6229 38.726 26.7597 37.6189 31.1882L35.8967 38.0769C35.3432 39.9836 35.5277 41.4597 36.3888 42.4438C37.4344 43.6124 39.3411 44.043 42.0474 43.674C47.4599 42.9974 51.3963 40.1066 52.4419 36.1087L54.3486 28.4819C54.8407 26.5752 54.5947 25.099 53.7336 24.1149C52.7495 23.0078 50.8428 22.5773 48.1365 22.9463ZM45.3687 27.0057C45.4917 26.3907 46.5988 25.9601 47.2139 25.8371C47.7674 25.7756 48.567 25.8371 48.7515 26.0831V26.1447L45.5532 39.1225C45.3687 39.9221 44.3846 40.5986 43.216 40.6601C42.8469 40.6601 42.4779 40.5371 42.2934 40.2911C42.2319 40.1681 42.1704 40.1066 42.1704 39.9836V39.9221C42.1089 39.9221 45.3687 27.0057 45.3687 27.0057Z" fill="white"/>
<path d="M71.7552 18.0258C70.0945 18.2718 67.9418 19.1944 66.4657 20.24C66.5272 19.9325 66.7732 18.9484 66.7732 18.9484L58.7159 21.9622L58.2238 24.0534C58.2238 24.0534 59.0849 23.8074 59.3924 23.6844C59.1464 24.73 55.3945 40.1066 55.3945 40.1066L61.9757 38.5074L65.2971 24.853C65.6046 23.6229 66.2812 22.8848 67.4498 22.4543C67.8803 22.3312 68.2494 22.3927 68.3724 22.5157C68.4339 22.5773 68.4954 22.6388 68.4339 22.8848L66.2197 32.1107L66.0966 32.5413C65.6661 34.0789 65.174 36.1702 66.1581 37.3388C66.6502 37.8923 67.5113 38.1384 68.6799 37.9538C71.0787 37.6463 73.1699 36.3547 74.9535 34.2019L75.1996 33.8944L73.2929 32.6643L73.1083 32.9103C72.6778 33.5254 72.1858 33.7714 72.0012 33.7714C72.0012 33.7714 72.0012 33.7099 72.0012 33.6484C72.0012 33.5869 72.0012 33.5254 72.0628 33.4639L74.769 22.2082C74.892 21.5931 75.015 21.1011 75.015 20.6091C75.015 19.8095 74.769 19.1329 74.3385 18.6409C73.7849 18.0873 72.8008 17.8413 71.7552 18.0258Z" fill="white"/>
<path d="M77.843 39.43C70.4007 40.2296 58.284 42.9974 44.6296 46.9338C31.3442 50.8087 18.2434 55.3602 8.77139 59.4196L8.40234 59.5426L8.52535 60.0346H8.8944C12.6463 60.0346 19.781 60.4652 24.9476 63.6635L25.1321 63.7866L25.3166 63.6635C48.32 48.1639 71.3848 42.8129 77.9045 41.5827L78.1505 41.5213L78.212 39.3685L77.843 39.43Z" fill="white"/>
<path d="M84.3018 15.8116C79.8118 16.7342 77.413 19.8095 77.5361 24.484C77.5976 27.2518 79.3812 29.589 81.1034 31.8647C82.7641 34.0175 84.3018 36.1087 84.3633 38.3229C84.4248 41.2137 83.5022 42.8744 81.657 43.3664C80.9804 43.5509 80.0578 43.3664 79.3813 42.8744C78.8892 42.5669 78.5817 42.0748 78.3971 41.5827C79.9348 41.0907 82.026 39.7375 82.026 37.7078C82.026 37.5848 82.026 37.5233 82.026 37.4003C81.9645 36.6007 81.5955 35.9242 81.0419 35.5551C80.3653 35.0631 79.4428 35.0016 78.8277 35.1246C76.3674 35.6166 74.8913 37.9539 75.3833 40.5371C76.1214 44.8426 80.1808 46.1342 83.6252 45.5191C86.2085 45.0886 88.2997 43.797 89.6528 41.9518C90.9444 40.1066 91.375 37.7693 90.8829 35.1861C90.3909 32.4798 88.9147 30.2656 87.4386 28.1128C85.8394 25.7141 84.3018 23.4384 84.1787 20.6091C84.1172 19.625 84.4248 18.7639 84.9168 18.2718C85.1628 18.0258 85.4704 17.9028 85.7779 17.9643C86.27 18.0258 86.639 18.2718 86.9465 18.7024C87.6231 19.6865 87.6846 21.5317 87.1925 23.0078L87.1311 23.1308L87.4386 23.9919L92.8511 21.4702V21.2241C92.6666 19.4405 91.744 17.9028 90.3294 16.8572C88.7302 15.6886 86.5775 15.3195 84.3018 15.8116Z" fill="white"/>
<path d="M35.5268 22.8232C35.4038 24.4224 33.8046 26.0216 31.9594 26.3291C30.1142 26.6366 28.6381 25.6525 28.7611 24.0534C28.8841 22.4542 30.4833 20.855 32.3284 20.5475C34.2351 20.1785 35.6498 21.2241 35.5268 22.8232Z" fill="#005BAC"/>
<path d="M22.4896 43.7355L23.2891 43.5509L21.6285 48.1639C21.6285 48.1639 10.2498 51.1777 2.5 54.4376L3.4841 51.2392C4.5297 50.9317 5.63682 50.1936 5.94435 49.148L10.7418 27.6208L9.45021 27.9899L9.88076 26.3907L17.9996 23.4999L12.7716 46.1957C12.464 47.3643 13.0176 47.8564 14.2477 47.5489L19.2912 46.1342C21.0134 45.5807 22.4896 43.7355 22.4896 43.7355Z" fill="#005BAC"/>
<path d="M32.9459 43.3048C32.5153 43.7354 32.0848 43.9814 31.5927 44.0429C30.7316 44.1659 30.6701 43.0588 30.9161 41.7672L34.3605 27.5592L27.1028 30.1425L26.7337 31.6186L27.9023 31.3111L25.2576 41.3366C24.581 44.2274 25.5036 47.0567 29.44 46.5031C31.2237 46.2571 32.8228 45.3345 34.1145 44.0429L32.9459 43.3048Z" fill="#005BAC"/>
<path d="M43.2144 41.0291C42.4763 41.0906 41.6767 40.5986 41.7998 39.8605L45.0596 26.8827C45.2441 26.1446 46.4742 25.5911 47.2123 25.468C47.8889 25.4065 49.3035 25.468 49.119 26.2061L45.9207 39.1839C45.6132 40.2911 44.4445 40.9061 43.2144 41.0291ZM54.101 28.4819C55.1466 24.1149 52.5634 22.7003 48.1964 23.2538C43.2144 23.8689 39.0935 26.7597 37.9249 31.2496L36.2027 38.1384C35.0341 42.4438 37.6788 43.9199 41.9843 43.3664C46.9663 42.6898 51.0872 40.1065 52.0713 36.0471L54.101 28.4819Z" fill="#005BAC"/>
<path d="M59.0235 22.2081L58.716 23.5613L59.8846 23.1922L55.8867 39.6759L61.7298 38.2613L64.9897 24.8529C65.2972 23.3768 66.2198 22.6387 67.3269 22.2081C68.188 21.9006 68.9876 22.2697 68.7415 23.0077L66.5273 32.2337C66.0353 34.2634 64.6821 38.1998 68.6185 37.7077C71.5708 37.2772 73.539 35.4935 74.7077 34.0789L73.416 33.2178C72.924 33.8944 72.3089 34.3249 71.9399 34.2019C71.6938 34.1404 71.6939 33.7713 71.7554 33.4638L74.4616 22.2696C75.3227 18.8868 73.416 18.1487 71.8169 18.3948C69.7871 18.7023 67.1424 19.9939 65.9123 21.1625L66.3428 19.5634L59.0235 22.2081Z" fill="#005BAC"/>
<path d="M83.8698 20.6705C83.8083 19.0098 84.5463 17.5952 85.838 17.6567C87.8062 17.7797 88.2982 20.978 87.5601 23.1308L87.6832 23.5613L92.5422 21.2856C92.1116 17.5952 88.6673 15.1964 84.3618 16.119C79.7488 17.1031 77.7806 20.363 77.8421 24.4839C77.9652 29.6504 84.5463 33.5868 84.6693 38.3228C84.7309 41.8902 83.3162 43.3049 81.717 43.6739C80.3024 44.0429 78.2112 43.1203 77.9651 41.3366C79.6258 40.9061 81.9016 39.4915 81.6555 37.4617C81.471 35.3705 79.6258 35.309 78.8877 35.4935C76.858 35.9241 75.4434 37.7693 75.6279 40.045C58.9597 42.3822 27.4684 51.7927 8.83203 59.727C14.0601 59.6655 20.4567 60.5266 25.0697 63.4174C43.5831 50.9316 63.2651 44.3505 75.997 41.6442C77.1656 44.7195 80.4254 45.7651 83.5622 45.2115C88.2982 44.412 91.558 40.6601 90.5739 35.2475C89.5283 29.6504 84.0543 26.2061 83.8698 20.6705Z" fill="#005BAC"/>
<path d="M32.207 15.012C31.0384 15.9346 30.2388 15.381 29.6853 14.5814L30.6694 13.8433C31.0384 14.2739 31.2844 14.6429 31.838 14.2124C32.1455 13.9663 32.1455 13.6588 31.8995 13.3513C31.2844 12.5517 29.3162 13.9664 28.2706 12.6132C27.7171 11.8751 27.5941 11.0756 28.7627 10.153C29.6853 9.41489 30.4848 9.47638 31.1614 10.522L30.2388 11.2601C29.9928 10.891 29.6238 10.5835 29.2547 10.891C28.9472 11.1371 28.8857 11.4446 29.1317 11.7521C29.8083 12.6132 31.6535 11.0756 32.7606 12.4902C33.7447 13.5973 32.9451 14.4584 32.207 15.012Z" fill="#005BAC"/>
<path d="M34.4821 13.2283L33.375 7.32365L34.7896 6.58557L38.7876 11.0755L37.6189 11.6291L36.7578 10.645L35.2817 11.3831L35.5277 12.6747L34.4821 13.2283ZM34.4821 8.00023L35.0972 10.4605L36.1428 9.96842L34.4821 8.00023Z" fill="#005BAC"/>
<path d="M39.5856 10.7066L38.3555 5.048L40.2622 4.61746L41.9843 8.30785V8.24634L42.1074 4.24842L43.891 3.81787L45.1827 9.47646L44.0141 9.72248L43.03 5.35553L42.9069 9.9685L41.7998 10.2145L39.7701 6.09361L40.7542 10.4606L39.5856 10.7066Z" fill="#005BAC"/>
<path d="M48.1357 9.5379C46.6595 9.5379 46.352 8.67681 46.4135 7.6312H47.6437C47.6437 8.18476 47.6437 8.6768 48.3202 8.6768C48.7508 8.6768 48.9353 8.43079 48.9353 8.00024C48.9353 6.95463 46.5365 6.89312 46.5365 5.17095C46.5365 4.24835 46.9671 3.57178 48.4432 3.57178C49.6119 3.57178 50.2269 4.12533 50.1039 5.29395H48.9353C48.9353 4.8634 48.8738 4.43286 48.3817 4.43286C48.0127 4.43286 47.7667 4.61738 47.7667 5.04793C47.7667 6.15504 50.1654 6.09354 50.1654 7.87722C50.1654 9.35337 49.0583 9.5379 48.1357 9.5379Z" fill="#005BAC"/>
<path d="M56.4385 4.67885L55.6389 8.67676C55.4544 9.53785 54.7778 10.3374 53.3631 10.0299C52.0715 9.78388 51.5795 8.9843 51.764 7.87718L52.5636 3.87927L53.7322 4.12529L52.9326 8.0617C52.8096 8.73827 53.0556 9.10732 53.4862 9.16882C53.9782 9.29183 54.2858 8.98429 54.4088 8.36923L55.2083 4.43283L56.4385 4.67885Z" fill="#005BAC"/>
<path d="M56.625 10.7681L58.9622 5.47852L60.4384 6.15509L60.2539 10.4605L61.853 6.77015L62.8986 7.2622L60.5614 12.5517L59.0853 11.8752L59.3928 7.38522L57.6706 11.2601L56.625 10.7681Z" fill="#005BAC"/>
<path d="M66.2787 11.5676C66.5862 11.1371 66.8322 10.7066 66.2787 10.3375C65.6636 9.90697 65.0485 10.7066 64.4335 11.6291C63.3879 13.1053 63.3264 13.4743 63.8799 13.8434C64.0644 13.9664 64.2489 14.0279 64.4335 14.0894L65.1715 13.0438L64.618 12.6747L65.11 11.9367L66.6477 13.0438L64.9255 15.4425C64.618 15.3195 63.8799 14.9505 63.5109 14.643C61.8502 13.4743 62.1577 12.6132 63.4494 10.8296C64.3105 9.66094 65.2331 8.49232 66.8322 9.66094C67.8163 10.3375 68.0008 11.3216 67.2012 12.2442L66.2787 11.5676Z" fill="#005BAC"/>
<path d="M37.4961 64.0941L38.7877 59.9731L40.3254 60.4652C41.002 60.6497 41.4325 61.0187 41.1865 61.8798C41.0635 62.3719 40.6944 62.6179 40.2024 62.5564C40.7559 62.8639 40.8174 63.2945 40.6329 63.848C40.3254 64.8936 39.4028 64.6476 39.0338 64.5246L37.4961 64.0941ZM38.5417 63.725L39.0338 63.848C39.2183 63.9095 39.6488 64.0326 39.8333 63.479C39.9563 63.11 39.8948 62.8639 39.4643 62.7409L38.9722 62.5564L38.5417 63.725ZM39.1568 61.9414L39.7103 62.1259C39.8948 62.1874 40.2024 62.1258 40.3254 61.7568C40.4484 61.4493 40.2639 61.1418 40.0179 61.0803L39.4643 60.8957L39.1568 61.9414Z" fill="#005BAC"/>
<path d="M40.8789 65.1396L42.8471 61.0802L44.0157 61.2647L44.3848 65.6932L43.4622 65.5087L43.4007 64.5245L42.1705 64.2785L41.74 65.2011L40.8789 65.1396ZM43.2161 62.0028L42.4781 63.7865L43.3392 63.9095L43.2161 62.0028Z" fill="#005BAC"/>
<path d="M46.229 65.9393C45.1219 65.8778 44.9374 65.2012 45.0604 64.4631L45.983 64.5246C45.983 64.9551 45.983 65.2627 46.4751 65.3242C46.7826 65.3242 46.9671 65.1397 46.9671 64.8321C47.0286 64.0325 45.1834 63.9095 45.2449 62.6179C45.3064 61.9413 45.614 61.4493 46.7211 61.5108C47.5822 61.5723 48.0127 62.0029 47.8897 62.864L47.0286 62.8024C47.0286 62.4949 47.0286 62.1259 46.6596 62.1259C46.352 62.1259 46.1675 62.2489 46.1675 62.5564C46.106 63.356 47.9512 63.4175 47.8897 64.7706C47.7052 65.9393 46.9056 66.0008 46.229 65.9393Z" fill="#005BAC"/>
<path d="M48.6288 65.9392L48.3828 61.6338L50.72 61.5107L50.7816 62.1873L49.3054 62.2488L49.3669 63.2944L50.72 63.2329L50.7816 63.9095L49.4284 63.971L49.4899 65.2626L50.9661 65.1396L51.0276 65.8162L48.6288 65.9392Z" fill="#005BAC"/>
<path d="M51.8279 65.7547L51.0898 61.5108L52.689 61.2647C53.3656 61.1417 53.9806 61.2647 54.1037 62.1873C54.1652 62.6794 53.9806 63.0484 53.5501 63.2329C54.1652 63.2329 54.4112 63.602 54.5342 64.1555C54.7187 65.2626 53.7961 65.4472 53.4271 65.5087L51.8279 65.7547ZM52.32 63.0484L52.935 62.9254C53.1196 62.8639 53.3656 62.7409 53.3041 62.3103C53.2426 62.0028 52.9965 61.8183 52.689 61.8798L52.1354 62.0028L52.32 63.0484ZM52.6275 64.9551L53.1195 64.8936C53.3041 64.8321 53.7346 64.7706 53.6116 64.217C53.5501 63.848 53.3656 63.6635 52.935 63.725L52.443 63.7865L52.6275 64.9551Z" fill="#005BAC"/>
<path d="M55.334 65.1396L55.2109 60.6497L56.3181 60.2806L58.7168 64.094L57.7942 64.34L57.3022 63.479L56.1335 63.848L56.195 64.8321L55.334 65.1396ZM56.0105 61.2647L56.1335 63.1714L56.9331 62.9254L56.0105 61.2647Z" fill="#005BAC"/>
<path d="M59.3286 63.848L57.668 59.8501L58.4676 59.4811L59.8822 62.8024L61.1738 62.3104L61.4199 62.9254L59.3286 63.848Z" fill="#005BAC"/>
<path d="M62.0365 62.6178L59.9453 58.866L60.7449 58.4354L62.4671 61.5722L63.6357 60.9572L64.0047 61.5722L62.0365 62.6178Z" fill="#005BAC"/>
<path d="M64.4951 58.6815C63.8186 57.7589 63.142 56.8978 64.3106 56.0367C65.0487 55.4831 65.6638 55.6677 66.1558 56.4058L65.4792 56.9593C65.1102 56.5287 64.9257 56.4058 64.6797 56.5903C64.2491 56.8978 64.4951 57.3283 65.1717 58.1894C65.8483 59.0505 66.2173 59.4195 66.5864 59.112C66.8939 58.866 66.5864 58.4354 66.4018 58.1894L67.0784 57.6359C67.755 58.5585 67.632 59.112 66.9554 59.6656C65.8483 60.4652 65.1717 59.5426 64.4951 58.6815Z" fill="#005BAC"/>
<path d="M68.6193 58.1279L65.6055 54.991L66.282 54.376L68.7423 56.9593L69.7264 56.0367L70.2184 56.5902L68.6193 58.1279Z" fill="#005BAC"/>
<path d="M69.2348 51.1162L71.5721 53.0844C72.0641 53.515 72.3716 54.1915 71.6336 55.0526C71.0185 55.7907 70.2804 55.8522 69.6654 55.2986L67.3281 53.3305L67.8817 52.6539L70.1574 54.5606C70.588 54.9296 70.8955 54.8681 71.08 54.6221C71.326 54.3145 71.2645 54.007 70.8955 53.6995L68.6198 51.7928L69.2348 51.1162Z" fill="#005BAC"/>
<path d="M73.1093 53.0845L69.4805 50.7472L70.3416 49.3941C70.7106 48.8405 71.2026 48.4715 71.9407 48.9635C72.3713 49.2096 72.5558 49.6401 72.3713 50.0706C72.8018 49.5786 73.2324 49.6401 73.7244 50.0091C74.647 50.6242 74.1549 51.4238 73.9704 51.7313L73.1093 53.0845ZM71.4487 50.9317L71.7562 50.4397C71.8792 50.2552 71.8792 49.9476 71.5717 49.7631C71.3257 49.5786 71.0181 49.6401 70.8336 49.8861L70.5261 50.3782L71.4487 50.9317ZM73.0478 51.9774L73.2939 51.5468C73.4169 51.3623 73.6014 50.9932 73.1093 50.6857C72.8018 50.5012 72.4943 50.5012 72.2483 50.8702L71.9407 51.3008L73.0478 51.9774Z" fill="#005BAC"/>
</svg>
