<svg width="78" height="78" viewBox="0 0 78 78" fill="none" xmlns="http://www.w3.org/2000/svg">
<g clip-path="url(#clip0_2521_55336)" filter="url(#filter0_d_2521_55336)">
<path d="M4.44922 35.0014C4.44922 54.0653 19.9386 69.5546 39.0024 69.5546C58.0662 69.5546 73.5556 54.0653 73.5556 35.0014C73.5556 15.9376 58.0662 0.448242 39.0024 0.448242C19.9386 0.448242 4.44922 15.9376 4.44922 35.0014ZM5.1939 35.0014C5.1939 16.3844 20.3854 1.19292 39.0024 1.19292C57.6194 1.19292 72.8109 16.3099 72.8109 35.0014C72.8109 53.6185 57.6194 68.7355 39.0024 68.7355C20.3854 68.8099 5.1939 53.6185 5.1939 35.0014Z" fill="#7D7D7D"/>
<path d="M6.3125 35.0014C6.3125 53.0227 20.9827 67.6929 39.004 67.6929C57.0253 67.6929 71.6955 53.0227 71.6955 35.0014C71.6955 16.9801 57.0253 2.30994 39.004 2.30994C20.9827 2.30994 6.3125 16.9801 6.3125 35.0014ZM6.61037 35.0014C6.61037 17.1291 21.1316 2.60781 39.004 2.60781C56.8763 2.60781 71.3976 17.1291 71.3976 35.0014C71.3976 52.8738 56.8763 67.395 39.004 67.395C21.1316 67.395 6.61037 52.8738 6.61037 35.0014Z" fill="#7D7D7D"/>
<path d="M59.7788 53.9908C60.0022 54.2142 60.1511 54.5865 59.8533 54.9589C59.6299 55.2567 59.1831 55.3312 58.8852 55.0333C58.5873 54.7354 58.5128 54.3631 58.8107 54.0652C59.1086 53.6929 59.5554 53.8418 59.7788 53.9908Z" fill="#7D7D7D"/>
<path d="M18.7476 53.7673C18.971 53.9907 19.1199 54.3631 18.822 54.7354C18.5986 55.0333 18.1518 55.1078 17.8539 54.8099C17.5561 54.512 17.4816 54.1397 17.7795 53.8418C18.0773 53.4695 18.5241 53.5439 18.7476 53.7673Z" fill="#7D7D7D"/>
<path d="M15.4694 51.6077C14.7247 52.129 14.5757 52.2035 14.4268 52.278C14.2779 52.4269 14.2034 52.5014 14.2779 52.6503C14.2779 52.7248 14.3523 52.7992 14.3523 52.7992V52.8737C14.3523 52.8737 14.2779 52.8737 14.2779 52.7992C14.1289 52.5758 13.98 52.278 13.98 52.278C13.98 52.2035 13.7566 51.9801 13.6821 51.8311C13.6821 51.7567 13.6076 51.7567 13.6821 51.7567H13.7566L13.8311 51.8311C13.9055 51.9801 14.0545 51.9056 14.2034 51.8311C14.3523 51.7567 14.5013 51.6822 15.2459 51.1609L15.5438 50.9375C15.3949 50.9375 13.9055 50.6397 13.6076 50.5652C13.3842 50.4907 13.1608 50.4907 13.0864 50.5652C13.0119 50.6397 12.9374 50.7141 12.9374 50.7141V50.7886H12.863C12.7885 50.7141 12.714 50.5652 12.6396 50.4163C12.6396 50.4163 12.4162 50.1184 12.3417 49.9694C12.3417 49.895 12.2672 49.895 12.3417 49.895H12.4162C12.4906 49.9694 12.5651 50.0439 12.6396 50.1184C12.863 50.2673 13.0119 50.2673 13.3842 50.3418C13.6076 50.4163 14.9481 50.7141 15.1715 50.7141C15.2459 50.4907 15.6183 48.778 15.6928 48.4801C15.7672 47.8099 15.8417 47.6609 15.7672 47.4375C15.7672 47.2886 15.6183 47.1397 15.6183 47.0652V46.9907C15.6183 46.9907 15.6928 46.9907 15.6928 47.0652L15.8417 47.2886C15.9162 47.4375 15.9906 47.512 16.0651 47.6609C16.214 47.9588 16.214 48.1077 16.1396 48.4056C16.1396 48.7035 15.6928 50.4907 15.5438 50.9375L15.9906 50.6397C16.4374 50.3418 16.8098 50.1184 17.0332 49.895C17.1821 49.8205 17.2566 49.6716 17.1821 49.5226C17.1821 49.4482 17.1076 49.3737 17.1076 49.2992V49.2248C17.1076 49.2248 17.1821 49.2248 17.1821 49.2992C17.3311 49.5226 17.48 49.8205 17.5545 49.895C17.5545 49.9694 17.7779 50.1929 17.8523 50.3418C17.8523 50.4163 17.9268 50.4163 17.8523 50.4163C17.8523 50.4163 17.8523 50.4163 17.7779 50.4163C17.7779 50.3418 17.7034 50.3418 17.6289 50.2673C17.5545 50.1929 17.4055 50.1929 17.2566 50.2673C17.0332 50.3418 16.6608 50.6397 16.214 50.9375L15.4694 51.6077Z" fill="#7D7D7D"/>
<path d="M13.1584 47.1397C11.9669 47.5865 11.1478 47.2142 10.7754 46.3205C10.4031 45.5014 10.7754 44.3844 12.1159 43.8631C13.6797 43.2674 14.3499 44.0865 14.5733 44.6078C14.8712 45.5759 14.4244 46.6184 13.1584 47.1397ZM13.5308 47.5865C14.4988 47.2142 15.3925 46.0971 14.7967 44.6822C14.2754 43.4163 12.935 42.9695 11.7435 43.4163C10.4776 43.9376 10.1052 45.1291 10.6265 46.3205C11.1478 47.8099 12.6371 47.8844 13.5308 47.5865Z" fill="#7D7D7D"/>
<path d="M11.1474 41.5547C9.88141 41.7781 9.13673 41.1823 8.98779 40.2142C8.83886 39.3206 9.4346 38.3525 10.775 38.1291C12.4133 37.8313 12.9346 38.7994 13.0091 39.3206C13.2325 40.3632 12.4878 41.3313 11.1474 41.5547ZM11.4452 42.0759C12.4878 41.927 13.5303 41.0334 13.3069 39.4696C13.0835 38.1291 11.8176 37.3845 10.5516 37.6079C9.2112 37.8313 8.61545 38.9483 8.83886 40.2142C9.06226 41.8525 10.5516 42.2249 11.4452 42.0759Z" fill="#7D7D7D"/>
<path d="M10.1075 35.7461C9.21393 35.7461 9.06499 35.7461 8.84159 35.7461C8.61819 35.7461 8.54372 35.8206 8.54372 35.9695C8.54372 36.044 8.54372 36.1184 8.54372 36.1929V36.2674C8.54372 36.2674 8.46925 36.2674 8.46925 36.1929C8.46925 35.9695 8.46925 35.5972 8.46925 35.5227C8.46925 35.4482 8.46925 35.1504 8.46925 34.927C8.46925 34.8525 8.46925 34.8525 8.54372 34.8525C8.54372 34.8525 8.54372 34.8525 8.54372 34.927C8.54372 35.0014 8.54372 35.0014 8.54372 35.0759C8.54372 35.2248 8.69265 35.2993 8.84159 35.2993C8.99053 35.2993 9.21393 35.2993 10.1075 35.2993H10.4799C10.4054 35.2248 9.2884 34.1823 9.06499 33.9589C8.91606 33.8099 8.76712 33.661 8.61819 33.661C8.54372 33.661 8.54372 33.661 8.46925 33.7355C8.46925 33.7355 8.46925 33.8099 8.39478 33.8099C8.39478 33.8099 8.32031 33.8099 8.32031 33.7355C8.32031 33.5865 8.32031 33.4376 8.32031 33.2887C8.32031 33.2887 8.32031 32.8418 8.32031 32.7674C8.32031 32.6929 8.32031 32.6929 8.39478 32.6929C8.39478 32.6929 8.46925 32.6929 8.46925 32.7674C8.46925 32.8418 8.46925 32.9908 8.54372 33.0653C8.61819 33.2887 8.76712 33.4376 9.06499 33.661C9.21393 33.8099 10.182 34.8525 10.331 34.927C10.4799 34.778 11.7458 33.5865 11.9692 33.3631C12.4161 32.9163 12.4905 32.7674 12.6395 32.544C12.7139 32.395 12.7139 32.2461 12.7139 32.1716C12.7139 32.0972 12.7139 32.0972 12.7139 32.0972C12.7139 32.0972 12.7884 32.0972 12.7884 32.2461V32.544C12.7884 32.6929 12.7884 32.8419 12.7884 32.9163C12.7884 33.2142 12.6395 33.3631 12.4161 33.5865C12.1927 33.8099 10.8522 35.0759 10.5544 35.2993H11.1501C11.6714 35.2993 12.1927 35.2993 12.4161 35.2993C12.565 35.2993 12.7139 35.2248 12.7139 35.0759C12.7139 35.0014 12.7139 34.927 12.7139 34.8525V34.778C12.7139 34.778 12.7884 34.778 12.7884 34.8525C12.7884 35.1504 12.7884 35.4482 12.7884 35.5227C12.7884 35.5972 12.7884 35.895 12.7884 36.044C12.7884 36.1184 12.7884 36.1184 12.7139 36.1184C12.7139 36.1184 12.7139 36.1184 12.7139 36.044C12.7139 35.9695 12.7139 35.895 12.7139 35.895C12.7139 35.7461 12.565 35.7461 12.4161 35.7461C12.1927 35.7461 11.7458 35.7461 11.1501 35.6716L10.1075 35.7461Z" fill="#7D7D7D"/>
<path d="M13.3121 26.2887C13.5355 26.2887 13.8334 26.3632 13.9823 26.1397C14.0568 25.9908 14.1312 25.8419 14.1312 25.7674C14.1312 25.7674 14.1312 25.6929 14.2057 25.6929C14.2057 25.6929 14.2802 25.7674 14.2057 25.8419C14.2057 25.9908 13.9823 26.5866 13.9823 26.7355C13.9078 26.8844 13.9078 26.8844 13.9078 26.8844C13.9078 26.8844 13.9078 26.8844 13.9078 26.81C13.9078 26.81 13.8334 26.7355 13.6844 26.7355L10.7057 26.2887L13.3121 28.3738C13.5355 28.5227 13.61 28.5972 13.5355 28.5972C13.5355 28.6717 13.461 28.6717 13.2376 28.6717C12.9397 28.7461 11.8227 28.9695 11.7483 29.044C11.5993 29.044 10.11 29.3419 9.96102 29.4163L12.4929 30.2355C12.5674 30.2355 12.7163 30.31 12.7908 30.31C12.8653 30.31 12.9397 30.31 13.0142 30.2355C13.0887 30.161 13.0887 30.0866 13.0887 30.0121C13.0887 30.0121 13.0887 29.9376 13.1631 29.9376C13.2376 29.9376 13.2376 30.0121 13.1631 30.0866C13.0887 30.31 13.0142 30.5334 13.0142 30.6078C13.0142 30.6823 12.9397 30.9057 12.9397 31.0546C12.9397 31.1291 12.9397 31.1291 12.8653 31.1291C12.8653 31.1291 12.8653 31.1291 12.8653 31.0546C12.8653 30.9802 12.8653 30.9802 12.8653 30.9057C12.8653 30.6823 12.6419 30.6078 12.4185 30.5334L8.844 29.2674C8.76953 29.2674 8.76953 29.1929 8.76953 29.1929C8.76953 29.1929 8.76953 29.1185 8.844 29.1185L12.7908 28.2249L9.66315 25.6929C9.58868 25.6929 9.58868 25.6185 9.58868 25.6185C9.58868 25.544 9.66315 25.544 9.73762 25.6185L13.3121 26.2887Z" fill="#7D7D7D"/>
<path d="M13.6103 23.3099C14.1316 23.5333 14.5039 23.6823 14.8018 23.7567C14.9507 23.8312 15.0997 23.8312 15.1741 23.6823C15.2486 23.6078 15.2486 23.5333 15.3231 23.4589C15.3231 23.4589 15.3231 23.4589 15.3975 23.4589V23.5333C15.2486 23.8312 15.0997 24.1291 15.0997 24.2035C15.0997 24.2035 14.9507 24.5759 14.8762 24.7248C14.8762 24.7993 14.8018 24.7993 14.8018 24.7993C14.8018 24.7993 14.8018 24.7993 14.8018 24.7248C14.8018 24.6503 14.8762 24.5759 14.8762 24.5759C14.8762 24.4269 14.8018 24.3525 14.6528 24.278C14.4294 24.1291 14.0571 23.9801 13.5358 23.7567L12.6422 23.3099C11.8231 22.9376 11.6741 22.8631 11.5252 22.7886C11.3762 22.7142 11.2273 22.7142 11.1528 22.8631C11.0784 22.9376 11.0784 23.012 11.0784 23.012C11.0784 23.012 11.0784 23.0865 11.0039 23.012V22.9376C11.0784 22.7886 11.2273 22.4163 11.2273 22.4163C11.2273 22.4163 11.3762 22.044 11.4507 21.895C11.4507 21.8206 11.5252 21.8206 11.5252 21.8206C11.5252 21.8206 11.5252 21.8206 11.5252 21.895C11.5252 21.895 11.5252 21.9695 11.4507 22.044C11.4507 22.1929 11.4507 22.2674 11.6741 22.3418C11.8231 22.4163 11.972 22.4908 12.7911 22.8631L13.6103 23.3099Z" fill="#7D7D7D"/>
<path d="M15.6943 21.1504C16.0667 21.3738 16.2156 21.4483 16.3645 21.2993C16.439 21.2249 16.5135 21.1504 16.5879 21.0759C16.5879 21.0759 16.5879 21.0759 16.6624 21.0759C16.6624 21.0759 16.6624 21.1504 16.6624 21.2249C16.5135 21.5227 16.3645 21.6717 16.2901 21.7461C16.2901 21.8206 16.1411 21.9695 15.9922 22.1929C15.9922 22.2674 15.9177 22.2674 15.9177 22.2674C15.9177 22.2674 15.9177 22.2674 15.9177 22.1929C15.9177 22.1185 15.9922 22.044 15.9922 21.9695C16.0667 21.8206 15.9177 21.7461 15.4709 21.4483L12.7156 19.5866C12.4922 19.4376 12.4922 19.4376 12.4922 19.3632C12.4922 19.2887 12.6411 19.2887 12.7901 19.2887C12.939 19.2887 14.205 19.0653 15.4709 18.8419C16.2901 18.6929 17.2581 18.544 17.4815 18.544L15.0241 16.9802C14.7262 16.7568 14.5773 16.7568 14.4284 16.8312C14.3539 16.9057 14.2794 16.9802 14.2794 17.0547H14.205C14.205 17.0547 14.205 16.9802 14.205 16.9057C14.3539 16.6823 14.5028 16.4589 14.5773 16.3844C14.5773 16.31 14.7262 16.161 14.8007 15.9376C14.8007 15.8632 14.8752 15.8632 14.8752 15.8632V15.9376C14.8752 15.9376 14.8007 16.0121 14.8007 16.0866C14.7262 16.2355 14.8007 16.3844 15.0986 16.5334L17.9284 18.3951C18.2262 18.6185 18.2262 18.6185 18.2262 18.6929C18.2262 18.7674 18.0773 18.7674 17.705 18.8419C17.6305 18.8419 16.439 19.0653 15.5454 19.2142C14.5773 19.3632 13.6092 19.5121 13.3113 19.5121L15.6943 21.1504Z" fill="#7D7D7D"/>
<path d="M19.493 13.4801C18.8973 12.8098 18.8228 12.6609 18.6739 12.512C18.5249 12.363 18.4505 12.2886 18.3015 12.4375C18.2271 12.4375 18.1526 12.512 18.1526 12.512H18.0781C18.0781 12.512 18.0781 12.4375 18.1526 12.4375C18.376 12.2886 18.6739 12.0652 18.6739 12.0652C18.7483 12.0652 18.9717 11.7673 19.1207 11.6928C19.1951 11.6184 19.1951 11.6184 19.1951 11.6928V11.7673L19.1207 11.8418C19.0462 11.9907 19.0462 12.0652 19.1951 12.2141C19.2696 12.363 19.4186 12.512 19.9398 13.1822L20.4611 13.7779C20.9824 14.4481 21.3547 14.5971 21.7271 14.5971C22.0994 14.5971 22.3228 14.5226 22.6207 14.2992C22.9185 14.0758 23.0675 13.7035 23.0675 13.4056C23.0675 12.9588 22.8441 12.5864 22.4717 12.0652L21.876 11.5439C21.2803 10.8737 21.2058 10.7247 21.0568 10.5758C20.9079 10.4269 20.8334 10.3524 20.6845 10.5013C20.61 10.5013 20.5356 10.5758 20.5356 10.5758H20.4611C20.4611 10.5758 20.4611 10.5013 20.5356 10.5013C20.759 10.3524 20.9824 10.129 21.0568 10.129C21.0568 10.129 21.2803 9.90559 21.4292 9.83112C21.5037 9.75665 21.5037 9.75665 21.5037 9.83112V9.90559L21.4292 9.98006C21.3547 10.129 21.3547 10.2035 21.5037 10.3524C21.5781 10.5013 21.7271 10.6503 22.2483 11.3205L22.6207 11.7673C22.993 12.2886 23.3654 12.8098 23.2909 13.4056C23.2164 13.9269 22.9185 14.2992 22.6207 14.4481C22.4717 14.5971 22.0249 14.8949 21.4292 14.8949C21.0568 14.8949 20.61 14.6715 20.0888 14.0013L19.493 13.4801Z" fill="#7D7D7D"/>
<path d="M25.3728 11.4695C25.5962 11.9163 25.7451 11.9907 25.894 11.9907C25.9685 11.9907 26.1174 11.9163 26.1919 11.9163H26.2664C26.2664 11.9163 26.2664 11.9907 26.1919 11.9907C25.894 12.1397 25.6706 12.2141 25.6706 12.2886C25.5962 12.2886 25.4472 12.4376 25.1494 12.5865C25.0749 12.5865 25.0749 12.5865 25.0749 12.5865V12.512C25.1494 12.512 25.2238 12.4375 25.2983 12.3631C25.3728 12.2886 25.3728 12.0652 25.1494 11.6184L23.66 8.63968C23.5855 8.41627 23.5111 8.34181 23.5855 8.34181C23.66 8.34181 23.7345 8.41627 23.8834 8.41627C24.0323 8.49074 25.2238 8.93755 26.4153 9.38436C27.2345 9.68223 28.0536 9.9801 28.3515 10.129L26.9366 7.52266C26.7877 7.22478 26.6387 7.07585 26.4898 7.15032C26.4153 7.15032 26.2664 7.22478 26.1919 7.22478H26.1174C26.1174 7.22478 26.1174 7.15032 26.1919 7.15032C26.4153 7.00138 26.7132 6.92691 26.7132 6.92691C26.7877 6.92691 26.9366 6.77798 27.16 6.70351C27.2345 6.70351 27.2345 6.62904 27.3089 6.70351C27.3089 6.70351 27.3089 6.77798 27.2345 6.77798C27.2345 6.77798 27.16 6.77798 27.0855 6.85244C26.9366 7.00138 26.9366 7.07585 27.16 7.37372L28.6494 10.4269C28.7983 10.7993 28.7983 10.7993 28.7983 10.7993C28.7238 10.7993 28.6494 10.7993 28.277 10.6503C28.2026 10.6503 27.0855 10.278 26.1919 9.90563C25.2983 9.53329 24.3302 9.23542 24.1068 9.08649L25.3728 11.4695Z" fill="#7D7D7D"/>
<path d="M30.9589 8.19294C31.1078 8.71421 31.2567 9.16102 31.3312 9.38443C31.4057 9.53336 31.4801 9.6823 31.6291 9.60783C31.7035 9.60783 31.8525 9.53336 31.8525 9.53336H31.9269C31.9269 9.53336 31.9269 9.60783 31.8525 9.60783C31.5546 9.6823 31.1823 9.75677 31.1823 9.83123C31.1823 9.83123 30.8099 9.98017 30.661 9.98017C30.5865 9.98017 30.5865 9.98017 30.5865 9.98017C30.5865 9.98017 30.5865 9.98017 30.5865 9.9057C30.661 9.9057 30.7355 9.83123 30.7355 9.83123C30.8099 9.75677 30.8099 9.60783 30.8099 9.45889C30.7355 9.23549 30.661 8.78868 30.4376 8.2674L30.1397 7.29932C29.8418 6.4057 29.8418 6.25677 29.7674 6.10783C29.6929 5.95889 29.6184 5.80996 29.4695 5.88443C29.395 5.88443 29.3206 5.88443 29.3206 5.88443H29.2461C29.2461 5.88443 29.2461 5.80996 29.3206 5.80996C29.4695 5.73549 29.8418 5.66102 29.9163 5.66102C29.9163 5.66102 30.2886 5.51208 30.4376 5.51208C30.5121 5.51208 30.512 5.51208 30.512 5.51208V5.58655C30.4376 5.58655 30.4376 5.58655 30.3631 5.66102C30.2142 5.73549 30.2142 5.80996 30.2886 6.03336C30.3631 6.1823 30.3631 6.33123 30.661 7.22485L30.9589 8.19294Z" fill="#7D7D7D"/>
<path d="M35.0563 8.26737C35.2798 7.44822 35.7266 5.36311 35.801 4.9163C35.801 4.84183 35.801 4.76737 35.801 4.6929C35.801 4.61843 35.801 4.61843 35.7266 4.54396C35.6521 4.54396 35.5776 4.54396 35.5032 4.54396H35.4287C35.4287 4.54396 35.4287 4.46949 35.5776 4.46949C35.801 4.46949 36.0989 4.39503 36.1734 4.39503C36.1734 4.39503 36.4712 4.32056 36.6202 4.32056C36.6946 4.32056 36.6946 4.32056 36.6946 4.32056C36.6946 4.32056 36.6946 4.39503 36.6202 4.39503C36.5457 4.39503 36.4712 4.39503 36.3223 4.46949C36.2478 4.54396 36.1734 4.61843 36.0989 5.06524C36.0244 5.21417 35.8755 5.95886 35.7266 6.70354C35.5032 7.59715 35.3542 8.26737 35.2798 8.56524C35.2053 8.93758 35.1308 9.01205 35.1308 9.01205C35.0563 9.01205 35.0563 8.93758 34.9074 8.71417L32.9712 5.43758C32.8223 5.13971 32.6734 5.06524 32.5244 5.06524C32.45 5.06524 32.3755 5.06524 32.301 5.06524H32.2266C32.2266 5.06524 32.301 4.99077 32.3755 4.99077C32.6734 4.9163 32.9712 4.9163 33.0457 4.9163C33.1202 4.9163 33.3436 4.84183 33.567 4.84183C33.6415 4.84183 33.7159 4.84183 33.7159 4.84183C33.7159 4.84183 33.7159 4.9163 33.6415 4.9163C33.567 4.9163 33.4925 4.9163 33.4181 4.99077C33.3436 5.06524 33.3436 5.06524 33.3436 5.13971C33.3436 5.21417 33.4181 5.36311 33.567 5.58651L35.0563 8.26737Z" fill="#7D7D7D"/>
<path d="M38.7051 5.95886C38.7051 5.06524 38.7051 4.9163 38.7051 4.6929C38.7051 4.46949 38.6307 4.39503 38.4817 4.39503C38.4072 4.39503 38.3328 4.39503 38.2583 4.39503H38.1838C38.1838 4.39503 38.1838 4.32056 38.2583 4.32056C38.4817 4.32056 38.8541 4.32056 38.9285 4.32056C39.003 4.32056 40.12 4.32056 40.2689 4.32056C40.3434 4.32056 40.4924 4.32056 40.4924 4.32056H40.5668C40.5668 4.32056 40.5668 4.32056 40.5668 4.39503C40.5668 4.46949 40.5668 4.46949 40.4924 4.6929C40.4924 4.76737 40.4924 4.99077 40.4924 5.06524C40.4924 5.06524 40.4924 5.13971 40.4179 5.13971C40.4179 5.13971 40.3434 5.13971 40.3434 5.06524C40.3434 4.99077 40.3434 4.9163 40.3434 4.84183C40.2689 4.76737 40.2689 4.6929 39.9711 4.61843C39.8966 4.61843 39.2264 4.61843 39.1519 4.61843C39.1519 4.61843 39.1519 4.61843 39.1519 4.6929V6.25673C39.1519 6.3312 39.1519 6.3312 39.1519 6.3312C39.2264 6.3312 39.9711 6.3312 40.0455 6.3312C40.1945 6.3312 40.2689 6.3312 40.3434 6.25673C40.4179 6.18226 40.4179 6.18226 40.4179 6.18226C40.4179 6.18226 40.4179 6.18226 40.4179 6.25673C40.4179 6.25673 40.4179 6.40566 40.3434 6.5546C40.3434 6.70354 40.3434 6.85247 40.3434 6.92694C40.3434 7.00141 40.3434 7.00141 40.2689 7.00141C40.2689 7.00141 40.1945 7.00141 40.1945 6.92694C40.1945 6.85247 40.1945 6.778 40.1945 6.70354C40.1945 6.62907 40.12 6.5546 39.8966 6.48013C39.7477 6.48013 39.1519 6.40566 39.0775 6.40566C39.0775 6.40566 39.003 6.40566 39.003 6.48013V7.00141C39.003 7.22481 39.003 7.89503 39.003 7.96949C39.003 8.34183 39.0775 8.4163 39.6732 8.49077C39.8221 8.49077 40.0455 8.49077 40.1945 8.4163C40.3434 8.34183 40.4179 8.26737 40.4924 7.96949C40.4924 7.89503 40.4924 7.89503 40.5668 7.89503V7.96949C40.5668 8.04396 40.4924 8.4163 40.4924 8.56524C40.4179 8.71417 40.4179 8.71417 40.1945 8.71417C39.3009 8.71417 38.9285 8.63971 38.7796 8.63971C38.7796 8.63971 38.4072 8.63971 38.1838 8.63971C38.1094 8.63971 38.1094 8.63971 38.1094 8.56524C38.1094 8.56524 38.1094 8.56524 38.1838 8.56524C38.2583 8.56524 38.3328 8.56524 38.3328 8.56524C38.4817 8.56524 38.4817 8.4163 38.4817 8.26737C38.4817 8.04396 38.5562 7.59715 38.5562 7.00141L38.7051 5.95886Z" fill="#7D7D7D"/>
<path d="M43.767 4.99075C43.8414 4.91629 43.8414 4.99075 43.767 4.99075C43.9159 4.91629 44.0648 4.91629 44.2138 4.99075C44.8095 5.13969 45.1074 5.5865 44.9584 6.33118C44.884 6.77799 44.6606 7.07586 44.4372 7.15033C44.2882 7.2248 44.1393 7.2248 43.9904 7.15033C43.767 7.07586 43.4691 7.00139 43.3946 6.92692V6.85246L43.767 4.99075ZM42.8733 7.29926C42.7989 7.82054 42.7244 8.26735 42.6499 8.49075C42.5755 8.63969 42.5755 8.78863 42.4265 8.78863C42.3521 8.78863 42.2776 8.78863 42.2776 8.78863H42.2031C42.2031 8.78863 42.2031 8.86309 42.2776 8.86309C42.4265 8.86309 42.7989 8.93756 42.7989 8.93756C42.7989 8.93756 43.1712 9.01203 43.4691 9.0865C43.5435 9.0865 43.5435 9.0865 43.5435 9.0865C43.5435 9.0865 43.5435 9.0865 43.4691 9.01203C43.3946 9.01203 43.3201 8.93756 43.2457 8.93756C43.0967 8.86309 43.0967 8.78863 43.0967 8.56522C43.0967 8.34182 43.1712 7.89501 43.3201 7.29926V7.15033C43.3201 7.15033 43.3201 7.07586 43.3946 7.07586L44.0648 7.2248C44.0648 7.2248 44.1393 7.2248 44.1393 7.29926C44.2138 7.4482 44.4372 7.89501 44.5861 8.26735C44.8095 8.78863 44.9584 9.0865 45.1818 9.23543C45.3308 9.3099 45.4797 9.38437 45.7776 9.45884L46.1499 9.53331C46.2244 9.53331 46.2989 9.53331 46.2989 9.53331C46.2989 9.53331 46.2989 9.45884 46.2244 9.45884C46.2244 9.45884 46.0755 9.45884 46.001 9.38437C45.8521 9.3099 45.6287 9.23543 45.4052 8.86309C45.1074 8.41629 44.884 7.89501 44.5116 7.2248C45.1074 6.85246 45.3308 6.48012 45.4052 6.03331C45.4797 5.66097 45.2563 5.28863 45.1818 5.21416C44.9584 4.91629 44.5116 4.84182 44.2138 4.76735C44.0648 4.76735 43.618 4.69288 43.5435 4.69288C43.5435 4.69288 43.1712 4.61841 42.8733 4.54395C42.7989 4.54395 42.7989 4.54395 42.7989 4.54395C42.7989 4.54395 42.7989 4.61841 42.8733 4.61841C42.9478 4.61841 43.0223 4.61841 43.0967 4.69288C43.2457 4.76735 43.3201 4.84182 43.2457 5.06522C43.2457 5.21416 43.1712 5.43756 43.0223 6.25671L42.8733 7.29926Z" fill="#7D7D7D"/>
<path d="M46.8957 9.83121C46.8212 9.75674 46.8212 9.75674 46.8957 9.6078C46.9702 9.30993 47.1191 9.161 47.1191 9.01206C47.1191 8.93759 47.1936 8.93759 47.1936 8.93759C47.1936 8.93759 47.1936 8.93759 47.1936 9.01206C47.1936 9.08653 47.1191 9.161 47.1191 9.23546C47.0446 9.68227 47.3425 9.98015 47.7148 10.0546C48.2361 10.278 48.6085 9.98014 48.7574 9.6078C48.9063 9.23546 48.8319 8.93759 48.4595 8.41631L48.3106 8.11844C47.9382 7.44823 47.9382 7.07589 48.0872 6.70355C48.3106 6.1078 48.9063 5.8844 49.5765 6.10781C49.7999 6.18227 49.9489 6.25674 50.0978 6.33121C50.1723 6.40568 50.2468 6.40568 50.2468 6.40568C50.3212 6.40568 50.3212 6.40568 50.3212 6.48015C50.3212 6.48015 50.2468 6.70355 50.0978 7.07589C50.0978 7.15036 50.0234 7.22483 50.0234 7.15036V7.07589C50.0234 7.00142 50.0978 6.85249 50.0234 6.77802C50.0234 6.70355 49.9489 6.40568 49.4276 6.25674C49.0553 6.1078 48.6829 6.25674 48.534 6.62908C48.3851 6.92695 48.534 7.15036 48.8319 7.7461L48.9063 7.89504C49.3531 8.63972 49.4276 9.01206 49.2042 9.45887C49.1297 9.68227 48.9063 10.0546 48.3851 10.2035C48.0872 10.278 47.7893 10.278 47.4914 10.1291C47.3425 10.1291 47.0446 10.0546 46.8957 9.83121Z" fill="#7D7D7D"/>
<path d="M51.8839 10.2036C51.6605 10.7248 51.4371 11.0972 51.3626 11.3206C51.2881 11.4695 51.2881 11.6185 51.4371 11.6929C51.5115 11.7674 51.586 11.8419 51.6605 11.8419C51.6605 11.8419 51.6605 11.8419 51.6605 11.9163H51.586C51.2881 11.7674 50.9903 11.6185 50.9903 11.544C50.9903 11.544 50.6179 11.3951 50.469 11.3206C50.3945 11.3206 50.3945 11.2461 50.3945 11.2461C50.3945 11.2461 50.3945 11.2461 50.469 11.2461C50.5435 11.2461 50.6179 11.3206 50.6179 11.3206C50.7669 11.3206 50.8413 11.2461 50.9158 11.0972C51.0647 10.8738 51.2881 10.5014 51.5116 9.98016L51.9584 9.08654C52.4052 8.26739 52.4796 8.11846 52.5541 7.96952C52.6286 7.82058 52.6286 7.67165 52.5541 7.59718C52.4796 7.52271 52.4052 7.52271 52.4052 7.52271C52.4052 7.52271 52.4052 7.52271 52.4052 7.44824H52.4796C52.6286 7.52271 53.0009 7.74611 53.0009 7.74611C53.0009 7.74611 53.3733 7.89505 53.5222 7.96952C53.5967 7.96952 53.5967 8.04399 53.5967 8.04399C53.5967 8.04399 53.5967 8.04399 53.5222 8.04399C53.5222 8.04399 53.4477 8.04399 53.3733 7.96952C53.2243 7.89505 53.1499 7.96952 53.0009 8.19292C52.9264 8.34186 52.852 8.4908 52.4052 9.30994L51.8839 10.2036Z" fill="#7D7D7D"/>
<path d="M55.3102 12.363C55.0123 12.8098 54.7144 13.1822 54.64 13.4056C54.5655 13.5545 54.491 13.7035 54.64 13.7779C54.7144 13.8524 54.7889 13.9269 54.8634 13.9269V14.0013H54.7889C54.5655 13.8524 54.2676 13.629 54.1932 13.5545C54.1932 13.5545 53.8953 13.3311 53.7463 13.2567C53.6719 13.2567 53.6719 13.1822 53.6719 13.1822C53.6719 13.1822 53.6719 13.1822 53.7463 13.1822C53.8208 13.1822 53.8208 13.2567 53.8953 13.2567C53.9697 13.3311 54.1187 13.1822 54.1932 13.1077C54.3421 12.9588 54.64 12.5864 54.9378 12.1396L56.3527 10.129L55.6825 9.60772C55.3846 9.38431 55.2357 9.38431 55.0868 9.38431C55.0123 9.45878 54.9378 9.45878 54.9378 9.45878C54.8634 9.45878 54.8634 9.45878 54.8634 9.45878C54.8634 9.45878 54.8634 9.45878 54.8634 9.38431C54.8634 9.30985 55.3102 9.01197 55.3102 8.93751L55.3846 8.86304C55.3846 8.86304 55.4591 8.93751 55.5336 9.08644C55.6825 9.16091 55.8314 9.30985 55.9059 9.38431L57.6932 10.6503C57.991 10.8737 58.14 10.8737 58.2144 10.9481V11.0226C58.14 11.1715 57.8421 11.4694 57.8421 11.5439C57.8421 11.6184 57.7676 11.6184 57.7676 11.6184V11.5439V11.4694C57.8421 11.3205 57.8421 11.0971 57.3953 10.7992L56.7995 10.3524L55.3102 12.363Z" fill="#7D7D7D"/>
<path d="M58.3611 15.1929C58.5845 14.9695 58.659 14.8205 58.7335 14.6716C58.8079 14.5971 59.1058 13.1077 59.1803 12.8099C59.2547 12.5865 59.2547 12.3631 59.1803 12.2141C59.1803 12.1397 59.1058 11.9907 59.1058 11.9907V11.9163H59.1803C59.2547 11.9907 59.5526 12.2886 59.5526 12.3631C59.5526 12.3631 59.776 12.512 59.925 12.6609C59.9994 12.7354 59.9994 12.7354 59.925 12.7354H59.8505C59.776 12.7354 59.776 12.7354 59.7016 12.7354C59.6271 12.8099 59.6271 12.8843 59.6271 12.9588C59.5526 13.1078 59.1058 14.8205 59.1058 14.9694C59.3292 14.895 60.7441 14.5226 60.9675 14.4482C61.1164 14.4482 61.1909 14.3737 61.2654 14.2992C61.3398 14.2248 61.3398 14.1503 61.3398 14.1503C61.3398 14.0758 61.2654 14.0758 61.3398 14.0758C61.3398 14.0758 61.4143 14.0758 61.4143 14.1503C61.4888 14.2248 61.6377 14.3737 61.6377 14.4482C61.6377 14.4482 61.9356 14.746 62.0101 14.8205C62.0101 14.8205 62.0845 14.895 62.0101 14.895H61.9356C61.8611 14.8205 61.7867 14.8205 61.7122 14.746C61.5633 14.746 61.4888 14.746 61.2654 14.746C60.9675 14.746 59.4037 15.1184 59.1803 15.2673C58.9569 15.3418 58.8824 15.4907 58.7335 15.6397L58.3611 15.9375C58.2867 16.012 58.1377 16.1609 57.9888 16.3843C57.9143 16.5333 57.8398 16.6077 57.9143 16.7567C57.9888 16.8312 58.0632 16.9056 58.0632 16.9801V17.0546H57.9888C57.7654 16.8312 57.542 16.5333 57.4675 16.5333C57.4675 16.5333 57.1696 16.2354 57.0207 16.1609C56.9462 16.0865 56.9462 16.0865 57.0207 16.0865C57.0207 16.0865 57.0207 16.0865 57.0952 16.0865C57.0952 16.0865 57.1696 16.1609 57.2441 16.1609C57.3186 16.2354 57.4675 16.1609 57.6164 16.0865C57.7654 15.9375 57.9888 15.7886 58.0632 15.7141L58.3611 15.1929Z" fill="#7D7D7D"/>
<path d="M60.8945 20.4802C60.8945 20.4057 60.8945 20.4057 60.969 20.3312C61.1179 20.2568 61.2669 20.1823 61.3413 20.1078C61.4158 20.1078 61.4158 20.1078 61.4158 20.1078C61.4158 20.1078 61.4158 20.1078 61.4158 20.1823C61.4158 20.1823 61.3413 20.2568 61.2669 20.2568C61.0435 20.4802 61.1179 20.778 61.1924 21.0014C61.4158 21.3738 61.7881 21.3738 62.0116 21.2249C62.235 21.0759 62.3094 20.8525 62.3839 20.4057V20.1823C62.4584 19.5866 62.6073 19.3631 62.9052 19.2142C63.2775 18.9908 63.7243 19.1397 64.0222 19.5866C64.0967 19.7355 64.1711 19.81 64.1711 19.9589C64.1711 20.0334 64.2456 20.0334 64.2456 20.1078V20.1823C64.2456 20.1823 64.0967 20.2568 63.8733 20.4057C63.7988 20.4057 63.7988 20.4802 63.7988 20.4057C63.7988 20.4057 63.7988 20.4057 63.7988 20.3312C63.8733 20.3312 63.9477 20.2568 63.9477 20.1823C63.9477 20.1078 64.0967 19.9589 63.8733 19.5866C63.7243 19.3631 63.4264 19.2142 63.203 19.4376C62.9796 19.5866 62.9052 19.7355 62.9052 20.2568V20.4057C62.8307 21.0014 62.6818 21.2993 62.3839 21.4483C62.235 21.5227 61.9371 21.6717 61.6392 21.5227C61.4158 21.4483 61.2669 21.2993 61.1924 21.0759C60.969 20.8525 60.8945 20.7036 60.8945 20.4802Z" fill="#7D7D7D"/>
<path d="M63.6493 23.0865C63.2769 23.2355 62.9791 23.3844 62.8301 23.5333C62.7557 23.6078 62.6812 23.6823 62.6812 23.7567C62.6812 23.8312 62.7557 23.9057 62.7557 23.9057C62.7557 23.9057 62.7557 23.9057 62.7557 23.9801C62.7557 23.9801 62.6812 23.9801 62.6812 23.9057C62.6067 23.6823 62.4578 23.4589 62.4578 23.4589C62.4578 23.4589 62.3088 23.2355 62.2344 23.0865C62.2344 23.0121 62.2344 23.0121 62.2344 23.0121L62.3088 23.0865C62.3833 23.161 62.4578 23.161 62.5322 23.0865C62.6812 23.0121 62.9791 22.8631 63.3514 22.7142L64.0216 22.4163C64.6174 22.1184 64.6918 22.044 64.8408 22.044C64.9897 21.9695 64.9897 21.895 64.9897 21.8206C64.9897 21.7461 64.9897 21.7461 64.9152 21.6716C64.9152 21.6716 64.9152 21.6716 64.9152 21.5972C64.9152 21.5972 64.9897 21.5972 64.9897 21.6716C65.0642 21.8206 65.1386 22.044 65.1386 22.044C65.1386 22.044 65.2876 22.2674 65.362 22.4163C65.362 22.4908 65.362 22.4908 65.362 22.4908C65.362 22.4908 65.362 22.4163 65.2876 22.4163C65.2131 22.3418 65.1386 22.3418 64.9897 22.4163C64.8408 22.4908 64.7663 22.4908 64.1705 22.7887L63.6493 23.0865Z" fill="#7D7D7D"/>
<path d="M63.9476 25.3206C63.6497 25.4695 63.5007 25.544 63.5752 25.6184C63.5752 25.6929 63.5752 25.7674 63.6497 25.8419C63.6497 25.8419 63.6497 25.8418 63.6497 25.9163C63.6497 25.9163 63.5752 25.9163 63.5752 25.8419C63.5007 25.6184 63.4263 25.4695 63.4263 25.395C63.4263 25.395 63.3518 25.1716 63.2773 25.0227C63.2773 24.9482 63.2773 24.9482 63.2773 24.9482C63.2773 24.9482 63.3518 25.0227 63.3518 25.0972C63.4263 25.1716 63.5008 25.1716 63.8731 25.0227L66.1816 24.278C66.3305 24.2036 66.405 24.2036 66.405 24.278L66.3305 24.427C66.2561 24.5014 65.8093 25.3206 65.3625 26.1397C65.0646 26.661 64.7667 27.2567 64.6178 27.4057L66.6284 26.661C66.8518 26.5865 66.9263 26.5121 66.9263 26.3631C66.9263 26.2887 66.9263 26.2142 66.8518 26.1397C66.8518 26.1397 66.8518 26.1397 66.8518 26.0653C66.8518 26.0653 66.9263 26.0653 66.9263 26.1397C67.0007 26.2887 67.0007 26.5121 67.0752 26.5865C67.0752 26.661 67.1497 26.7355 67.2242 26.8844C67.2242 26.9589 67.2242 26.9589 67.2242 26.9589C67.2242 26.9589 67.2242 26.9589 67.1497 26.9589C67.1497 26.9589 67.1497 26.8844 67.0752 26.8844C67.0007 26.7355 66.9263 26.8099 66.7029 26.8844L64.3944 27.6291C64.0965 27.7036 64.0965 27.7036 64.0965 27.7036C64.0965 27.7036 64.0965 27.6291 64.2454 27.3312C64.2454 27.2567 64.6922 26.5121 64.9901 25.9163C65.3625 25.3206 65.6603 24.6504 65.8093 24.5014L63.9476 25.3206Z" fill="#7D7D7D"/>
<path d="M64.9893 29.5652C65.2872 29.1184 65.734 28.895 66.1063 28.895C66.4042 28.8206 66.851 28.895 67.2978 29.1929C67.5957 29.4163 67.8191 29.7142 67.968 30.3844C67.968 30.5333 68.0425 30.7567 68.0425 30.9801C68.0425 31.1291 68.0425 31.278 68.0425 31.4269C68.0425 31.5014 68.0425 31.5014 68.0425 31.5014C68.0425 31.5014 67.968 31.5014 67.8191 31.5014C67.6701 31.5014 67.4467 31.5759 67.3723 31.5759C67.2978 31.5759 67.2978 31.5759 67.2978 31.5759C67.2978 31.5759 67.2978 31.5759 67.3723 31.5014C67.5212 31.5014 67.6701 31.3525 67.7446 31.278C67.8191 31.1291 67.8935 30.7567 67.8191 30.3844C67.7446 29.8631 67.5212 29.6397 67.3723 29.4908C66.9999 29.2674 66.6276 29.1929 66.2552 29.2674C65.4361 29.4163 64.8403 30.0865 64.9893 30.9801C65.0637 31.278 65.1382 31.5014 65.2872 31.6503C65.3616 31.7248 65.585 31.7248 65.6595 31.7248C65.734 31.7248 65.734 31.7248 65.734 31.7248C65.734 31.7248 65.734 31.7248 65.6595 31.7993C65.6595 31.7993 65.2872 31.7993 65.1382 31.7993C65.0637 31.7993 65.0637 31.7993 64.9893 31.7248C64.9148 31.5759 64.8403 31.278 64.7659 30.9801C64.6169 30.3844 64.6914 29.9376 64.9893 29.5652Z" fill="#7D7D7D"/>
<path d="M67.0031 33.3631C67.6733 33.3631 67.7478 33.3631 67.8967 33.2886C68.0456 33.2886 68.1201 33.2141 68.1201 33.0652C68.1201 33.0652 68.1201 32.9907 68.1201 32.9163C68.1201 32.9163 68.1201 32.9163 68.1201 32.9907C68.1201 33.2141 68.1201 33.4375 68.1201 33.4375C68.1201 33.4375 68.1201 34.3312 68.1201 34.4056C68.1201 34.4801 68.1201 34.5546 68.1201 34.5546C68.1201 34.5546 68.1201 34.5546 68.1201 34.629C68.1201 34.629 68.1201 34.629 68.0456 34.629C68.0456 34.629 67.9712 34.629 67.8222 34.629C67.7478 34.629 67.5988 34.629 67.5244 34.629H67.4499C67.4499 34.629 67.4499 34.629 67.5244 34.629C67.5244 34.629 67.5988 34.629 67.6733 34.629C67.7478 34.629 67.8222 34.5546 67.8222 34.3312C67.8222 34.2567 67.8222 33.8099 67.8222 33.7354C67.8222 33.7354 67.8222 33.7354 67.7478 33.7354L66.6307 33.8099H66.5563C66.5563 33.8843 66.5563 34.4056 66.5563 34.4801C66.5563 34.5546 66.5563 34.629 66.6307 34.7035L66.7052 34.778C66.7052 34.778 66.6307 34.778 66.4818 34.778C66.4073 34.778 66.2584 34.778 66.1839 34.778H66.1095C66.1095 34.778 66.1095 34.778 66.1839 34.778C66.2584 34.778 66.2584 34.778 66.3329 34.778C66.4073 34.778 66.4818 34.7035 66.4818 34.5546C66.4818 34.4056 66.4818 34.0333 66.4818 33.9588H66.1095C65.9605 33.9588 65.5137 33.9588 65.3648 33.9588C65.0669 33.9588 64.9924 34.0333 65.0669 34.4801C65.0669 34.5546 65.0669 34.778 65.1414 34.8524C65.2158 34.9269 65.2903 35.0014 65.4392 35.0014C65.4392 35.0014 65.1414 35.0014 65.0669 34.9269C64.9924 34.9269 64.9924 34.8524 64.918 34.7035C64.918 34.1077 64.918 33.8099 64.918 33.6609C64.918 33.6609 64.918 33.5865 64.918 33.512C64.918 33.4375 64.918 33.3631 64.918 33.2886C64.918 33.2141 64.918 33.2141 64.918 33.2141C64.918 33.2886 64.918 33.2886 64.918 33.3631C64.918 33.4375 65.0669 33.4375 65.1414 33.512C65.2903 33.512 65.6626 33.512 66.035 33.512L67.0031 33.3631Z" fill="#7D7D7D"/>
<path d="M66.4047 39.5439C65.8089 39.4695 65.3621 39.395 65.0642 39.395C64.9153 39.395 64.7664 39.395 64.6919 39.5439C64.6919 39.6184 64.6174 39.8418 64.6174 39.9163C64.6174 39.9163 64.6174 39.9907 64.543 39.9907C64.543 39.9907 64.543 39.9907 64.543 39.9163C64.6174 39.4695 64.6919 39.0971 64.6919 39.0971C64.6919 39.0971 64.7664 38.5758 64.8408 38.2035C64.8408 38.129 64.8408 38.129 64.9153 38.129C64.9153 38.129 64.9898 38.129 64.9898 38.2035C64.9898 38.278 64.9153 38.5758 64.9898 38.6503C64.9898 38.8737 65.0642 38.8737 65.2132 38.9482C65.4366 39.0226 65.9579 39.0971 66.5536 39.1716L67.5217 39.3205C67.8196 39.395 68.043 39.395 68.4153 39.4695C68.5642 39.4695 68.5642 39.4695 68.6387 39.395C68.6387 39.3205 68.4898 38.8737 68.4898 38.7248V38.6503C68.4898 38.6503 68.4898 38.6503 68.5642 38.6503C68.5642 38.6503 68.6387 38.6503 68.6387 38.7248C68.6387 38.7992 69.16 39.9163 69.2345 39.9163C69.2345 39.9907 69.3089 39.9907 69.3089 40.0652C69.3089 40.1397 69.2345 40.1397 69.16 40.1397C69.0855 40.1397 68.5642 39.9907 67.6706 39.8418L66.4047 39.5439Z" fill="#7D7D7D"/>
<path d="M66.3317 44.5333C64.7679 44.0865 64.1721 42.5226 64.0977 41.778C64.0977 41.7035 64.0977 41.7035 64.0977 41.7035C64.0977 41.7035 64.0977 41.7035 64.1721 41.7035L64.2466 41.778C64.3955 42.5226 65.0657 43.6397 66.3317 44.0865C67.2998 44.3843 67.8955 44.0865 68.0445 43.6397C68.1934 43.1184 67.8955 42.746 67.4487 42.5971C66.5551 42.2992 66.1083 42.9694 66.1083 43.1184C66.0338 43.3418 66.0338 43.4907 66.1083 43.5652C66.1083 43.6397 66.1083 43.6397 66.1083 43.6397C66.1083 43.6397 66.1083 43.6397 66.0338 43.6397C66.0338 43.6397 66.0338 43.6397 65.9594 43.6397C65.8104 43.4163 65.8104 43.1184 65.8849 42.895C66.1083 42.0758 66.853 41.9269 67.2998 42.0758C68.0445 42.2992 68.4168 43.0439 68.1934 43.7886C67.97 44.4588 67.1508 44.7567 66.3317 44.5333Z" fill="#7D7D7D"/>
<path d="M63.7992 47.1397L64.4694 45.6503C64.5439 45.7992 65.512 47.8099 65.5864 47.9588L63.7992 47.1397ZM65.2886 48.3312C65.5864 48.4801 65.9588 48.7035 66.0332 48.7035C66.1077 48.7035 66.1077 48.7035 66.1822 48.7035C66.1822 48.7035 66.1822 48.629 66.1077 48.5546C65.9588 48.2567 64.5439 45.3524 64.5439 45.278L64.4694 45.2035C64.3949 45.2035 64.3949 45.2035 64.3205 45.278L63.5013 46.9907C63.3524 46.9163 62.9056 46.6929 62.6822 46.6184C62.5332 46.5439 62.4588 46.4694 62.5332 46.246C62.5332 46.1716 62.6077 46.0226 62.6077 46.0226V45.9482C62.6077 45.9482 62.5332 45.9482 62.5332 46.0226C62.3843 46.3205 62.3098 46.6184 62.2354 46.6184C62.2354 46.6184 62.012 46.9907 61.9375 47.2886C61.9375 47.3631 61.9375 47.3631 61.9375 47.3631H62.012C62.012 47.2886 62.0864 47.2141 62.1609 47.1397C62.3098 46.9907 62.3843 46.9907 62.5332 47.0652C62.7566 47.1397 63.2035 47.3631 63.3524 47.4375L63.129 47.8843C63.129 47.9588 63.129 47.9588 63.129 48.0333C63.2035 48.1077 63.2779 48.1822 63.2779 48.1822H63.3524C63.3524 48.1822 63.3524 48.1078 63.4269 47.9588L63.6503 47.5865L65.2886 48.3312Z" fill="#7D7D7D"/>
<path d="M62.3833 51.012C62.4578 50.863 62.5322 50.7886 62.5322 50.6396V50.5652C62.5322 50.5652 62.5322 50.5652 62.6067 50.5652V50.6396C62.6067 50.7886 62.6067 51.012 62.3833 51.3098C61.9365 51.9801 61.1918 51.9056 60.745 51.6077C60.3727 51.3843 60.1493 51.012 60.0748 50.6396C60.0003 50.2673 60.0748 49.9694 60.2982 49.5971C60.745 48.9269 61.5642 48.8524 62.4578 49.4481C63.3514 50.1184 63.8727 51.4588 63.6493 52.7247C63.6493 52.7992 63.6493 52.7992 63.6493 52.8737H63.5748C63.5003 52.8737 63.5748 52.7992 63.5748 52.7247C63.6493 51.9056 63.3514 50.7141 62.2344 49.895C61.7131 49.5226 60.8939 49.2992 60.5216 49.895C60.2237 50.2673 60.3727 50.7886 60.8939 51.1609C61.5642 51.5332 62.1599 51.3098 62.3833 51.012Z" fill="#7D7D7D"/>
<path d="M33.2663 59.9482L31.628 64.7142L28.3514 63.6716L28.7982 62.2568L27.9046 61.9589L27.2344 63.9695L32.2982 65.6823L34.1599 60.2461L33.2663 59.9482Z" fill="#7D7D7D"/>
<path d="M32.2227 59.6504L28.4249 58.3844L27.5312 61.0652L31.3291 62.3312L32.2227 59.6504ZM30.5844 61.3631L28.6483 60.6929L29.1695 59.2035L31.1057 59.8738L30.5844 61.3631Z" fill="#7D7D7D"/>
<path d="M55.085 55.2568L57.6914 59.1292L58.2127 58.7568L58.585 59.2781L53.2233 62.7781L52.851 62.2568L53.7446 61.6611L52.4042 59.576L53.1489 59.0547L54.5638 61.1398L55.3829 60.6185L54.0425 58.5334L54.7872 58.0122L56.1276 60.0973L56.8723 59.6505L54.7127 56.2994L51.0637 58.6824L50.6914 58.1611L55.085 55.2568Z" fill="#7D7D7D"/>
<path d="M40.7872 60.4695V62.1078H40.1915V60.4695H39.2979V63.6716H36.3936V61.1397H38.4043V60.4695H35.5V64.3418H39.2979V66.278H40.1915V62.778H40.7872V66.278H41.6809V60.4695H40.7872Z" fill="#7D7D7D"/>
<path d="M25.076 58.8312L25.8207 57.7142L22.0973 55.1078L22.4697 54.5865L27.0122 57.7142L25.8952 59.3525L26.342 59.7248L25.9697 60.2461L23.5867 58.5334L22.9909 59.278L25.076 60.7674L23.8101 62.5546L22.9909 62.0334L23.8846 60.6929L19.8633 57.9376L20.2356 57.4163L22.2463 58.7568L22.7675 58.0121L20.5335 56.4483L20.9058 55.927L25.076 58.8312Z" fill="#7D7D7D"/>
<path d="M47.8628 59.1291L48.9798 62.5546L44.5117 63.895L44.7351 64.4908L49.1287 63.1503L49.65 64.6397L50.5436 64.3418L48.9798 59.5014L49.7245 59.278L49.5011 58.6078L47.8628 59.1291Z" fill="#7D7D7D"/>
<path d="M43.7679 62.1077C43.9913 62.9269 45.0338 63.2992 46.0019 63.0014C46.97 62.7035 47.5657 61.8099 47.3423 60.9907C47.2679 60.6184 46.97 60.395 46.5977 60.1716L47.1934 59.9482L46.97 59.3524L45.4806 59.7992L45.3317 59.278L44.4381 59.5758L44.587 60.0971L43.0977 60.5439L43.3211 61.1397L43.9168 60.9907C43.6934 61.3631 43.6934 61.7354 43.7679 62.1077ZM45.3317 60.6928C45.853 60.5439 46.3743 60.7673 46.5232 61.2886C46.6721 61.7354 46.3743 62.2567 45.9274 62.4801C45.4062 62.629 44.8849 62.4056 44.736 61.8843C44.5125 61.3631 44.8104 60.8418 45.3317 60.6928Z" fill="#7D7D7D"/>
<path d="M60.5961 24.4269C56.5003 15.9376 47.6386 10.278 37.7344 10.8737C33.9365 11.0971 30.362 12.1397 27.2344 13.9269C31.2557 13.6291 33.0429 11.9908 34.1599 11.7674C35.2025 11.544 35.4259 12.3631 40.2663 12.3631C45.1067 12.3631 46.9684 14.1503 46.9684 14.1503C46.9684 14.1503 48.9791 16.6078 52.5535 17.3525C56.128 18.0971 57.0216 21.3737 57.245 21.8206C57.3939 22.2674 57.9152 24.5759 60.5961 24.4269Z" fill="#9FD9F6"/>
<path d="M54.9361 39.9908C55.5318 39.4695 56.202 38.9482 57.0212 38.7248C59.702 37.6823 61.1914 35.2993 62.0105 33.2142C62.1595 32.9163 62.2339 32.6184 62.3084 32.395C62.3829 32.2461 62.3829 32.0227 62.4573 31.8738C62.5318 31.5759 62.6063 31.278 62.6063 31.1291C62.6063 31.0546 62.6063 31.0546 62.6063 30.9801C62.3829 29.5653 62.0105 28.1504 61.5637 26.8844C61.7126 28.2993 60.7446 33.7355 57.319 35.3738C55.3084 36.3418 54.4892 38.278 54.6382 40.2142C54.7871 40.1397 54.8616 40.0652 54.9361 39.9908Z" fill="#8EC43E"/>
<path d="M21.4272 42.2248C18.8953 39.7673 19.2676 37.2354 19.2676 37.2354C19.3421 36.0439 20.4591 35.5226 18.5229 30.7567C16.6612 26.3631 18.6719 24.5758 18.6719 24.5758C18.6719 24.5758 20.2357 23.2354 19.64 21.2248C19.5655 21.0758 19.5655 20.9269 19.491 20.778C17.1825 24.0545 15.6187 27.8524 15.1719 32.0226C15.2463 32.246 16.8102 39.1716 21.4272 42.2248Z" fill="#DCDDDD"/>
<path d="M30.8107 57.4163C30.8107 57.4163 35.2788 58.161 38.2575 55.1823C37.1405 55.3312 36.0234 55.4057 34.8319 55.4057C23.4383 55.1823 14.8745 44.6078 15.1724 32.0227C15.0979 32.4695 15.0234 33.661 15.0234 34.778C15.0234 45.7993 22.0234 54.2887 30.8107 57.4163Z" fill="#00A672"/>
<path d="M49.7249 49.5226C48.4589 49.6715 47.3419 49.3737 47.3419 49.3737C46.2994 49.0013 45.3313 48.8524 44.5866 48.9269C43.3951 50.1183 43.2462 51.6077 43.2462 51.6077C43.1717 51.9056 43.1717 52.2035 43.0972 52.4269C45.0334 52.0545 46.8206 51.4588 48.4589 50.3418L48.5334 50.4162C46.7462 51.98 44.7355 53.246 42.5015 54.0652C40.4164 58.1609 35.576 58.4588 35.0547 58.4588C36.3951 58.6822 37.7355 58.7566 39.076 58.7566C50.3951 58.7566 58.2887 51.1609 61.193 44.012C56.8738 50.3418 52.3313 50.2673 49.7249 49.5226Z" fill="#F39939"/>
<path d="M48.3835 50.4163L48.309 50.3418C46.7452 51.3844 44.8835 52.0546 42.9473 52.4269C42.7984 53.0227 42.575 53.6184 42.3516 54.1397C44.5856 53.2461 46.5962 51.9801 48.3835 50.4163Z" fill="white"/>
<path d="M39.895 52.7993C38.5546 52.8738 37.0652 52.8738 35.9482 52.7993C29.8418 52.3525 26.9376 46.544 26.9376 46.544C25.6716 44.5333 24.0333 43.9376 24.0333 43.9376C22.8418 43.4163 22.0227 42.8206 21.4269 42.2248C16.8099 39.1716 15.2461 32.2461 15.1716 32.0227C14.8737 44.6078 23.4376 55.1823 34.9056 55.4057C36.0971 55.4057 37.2142 55.3312 38.3312 55.1823C38.9269 54.5865 39.4482 53.7674 39.895 52.7993Z" fill="#FDD23E"/>
<path d="M47.4935 48.5545C43.7701 46.0971 40.568 47.9588 40.568 47.9588C33.419 52.0545 30.3659 46.1715 30.3659 46.1715C28.951 43.7886 25.8978 43.6396 25.2276 43.6396C24.1105 43.5652 22.5467 43.0439 21.4297 42.2247C22.0254 42.8205 22.919 43.4162 24.0361 43.9375C24.0361 43.9375 25.6744 44.5332 26.9403 46.5439C26.9403 46.5439 27.1637 46.9907 27.685 47.6609C28.8765 49.3737 31.6318 52.4269 35.951 52.7247C36.6212 52.7992 37.4403 52.7992 38.2595 52.7992C38.8552 52.7992 39.3765 52.7992 39.9722 52.7247C40.0467 52.5013 40.1956 52.2779 40.2701 51.9801C40.2701 51.9801 41.0893 48.8524 44.5893 48.8524C45.3339 48.8524 46.302 49.0013 47.3446 49.2992C47.3446 49.2992 48.4616 49.5971 49.7276 49.4481C48.3871 49.1503 47.4935 48.5545 47.4935 48.5545Z" fill="#8EC43E"/>
<path d="M42.4293 54.1396C41.0888 54.6609 39.7484 55.0333 38.3335 55.2567C35.3548 58.2354 30.8867 57.4907 30.8867 57.4907C31.0357 57.5652 31.1846 57.6397 31.408 57.6397C32.5995 58.012 33.791 58.3099 35.0569 58.5333C35.5037 58.5333 40.3442 58.2354 42.4293 54.1396Z" fill="#004EA2"/>
<path d="M40.1924 52.0545C40.1179 52.2779 39.969 52.5758 39.8945 52.7992C40.9371 52.7248 41.9796 52.6503 43.0222 52.4269C43.0967 52.129 43.1711 51.9056 43.1711 51.6077C43.1711 51.6077 43.3201 50.1184 44.5116 48.9269C41.0116 49.0013 40.1924 52.0545 40.1924 52.0545Z" fill="#004EA2"/>
<path d="M43.0238 52.427C42.0557 52.6504 41.0131 52.7249 39.8961 52.7993C39.4493 53.7674 38.8536 54.5866 38.2578 55.1823C39.6727 54.9589 41.0876 54.5866 42.3536 54.0653C42.6514 53.6185 42.8748 53.0227 43.0238 52.427Z" fill="#00A672"/>
<path d="M29.8398 33.2886H29.9888C30.4356 33.2886 30.8079 33.2142 30.8079 32.6184V26.661C30.8079 26.0652 30.3611 25.9907 29.9888 25.9907H29.8398V25.6184C30.2867 25.6184 30.9569 25.6929 31.5526 25.6929C32.1484 25.6929 32.893 25.6184 33.4143 25.6184V25.9907H33.2654C32.893 25.9907 32.2973 25.9907 32.2973 26.661V32.6184C32.2973 33.2886 32.893 33.2886 33.2654 33.2886H33.4143V33.661C32.9675 33.661 32.2228 33.5865 31.5526 33.5865C30.9569 33.5865 30.2867 33.661 29.8398 33.661V33.2886ZM34.5313 25.6929C35.0526 25.6929 35.4994 25.7673 36.0207 25.7673C36.542 25.7673 37.0632 25.6929 37.5845 25.6929V26.0652H37.4356C36.6909 26.0652 36.0207 26.5865 35.5739 27.1078L33.7867 29.0439L36.7654 32.6929C36.9888 33.0652 37.3611 33.2886 37.8079 33.2886V33.661C37.4356 33.661 36.9888 33.661 36.6164 33.661C36.2441 33.661 35.8718 33.661 35.4994 33.661C35.4249 33.4376 35.0526 32.9907 34.9037 32.8418L32.4462 29.7886L34.8292 27.1078C34.9781 26.9588 35.3505 26.5865 35.3505 26.3631C35.3505 26.1397 34.8292 26.1397 34.6803 26.1397H34.5313V25.6929Z" fill="#004EA2"/>
<path d="M43.839 31.6503L46.5943 25.6929C46.9667 25.6929 47.339 25.7673 47.7858 25.7673C48.1582 25.7673 48.605 25.6929 48.9773 25.6929V26.0652H48.9028C48.5305 26.0652 47.8603 26.0652 47.8603 26.5865C47.8603 26.8844 47.8603 27.2567 47.9348 27.4801L48.3816 32.6929C48.456 33.2886 48.6794 33.2886 49.4241 33.3631V33.7354C48.9028 33.7354 48.3071 33.661 47.7858 33.661C47.1901 33.661 46.5199 33.661 45.9241 33.7354V33.3631C46.5199 33.3631 46.8922 33.3631 46.8922 32.8418C46.8922 32.6929 46.8922 32.6184 46.8922 32.3205L46.5943 27.5546L43.4667 33.8099H43.1688L40.4135 27.5546L40.0411 32.5439C40.0411 32.9163 40.1156 33.0652 40.2645 33.2141C40.4135 33.2886 40.7114 33.3631 41.0092 33.3631H41.1582V33.7354C40.6369 33.7354 40.1156 33.661 39.5943 33.661C39.1475 33.661 38.7007 33.661 38.2539 33.7354V33.3631H38.4028C39.2965 33.3631 39.3709 32.9163 39.4454 32.0971L39.8177 28.9695C39.8922 28.1503 39.9667 27.4056 39.9667 26.9588C39.9667 26.2886 39.4454 26.1397 38.9986 26.1397H38.8497V25.7673C39.2965 25.7673 39.8177 25.8418 40.2645 25.8418C40.6369 25.8418 40.9348 25.7673 41.3071 25.7673L43.839 31.6503Z" fill="#004EA2"/>
<path d="M50.3941 26.8099C50.3941 25.9907 49.9473 25.9907 49.5005 25.9907H49.3516V25.6184C49.8728 25.6184 50.4686 25.6929 51.2133 25.6929C51.8835 25.6929 52.4792 25.6184 52.926 25.6184V25.9907H52.7771C52.3303 25.9907 51.8835 25.9907 51.8835 26.8099V30.7567C51.8835 32.1716 52.4048 33.2142 54.043 33.2142C55.5324 33.2142 56.2026 32.2461 56.2026 30.7567V26.8099C56.2026 25.9907 55.7558 25.9907 55.3835 25.9907H55.1601V25.6184C55.6069 25.6184 56.1282 25.6929 56.575 25.6929C57.0218 25.6929 57.4686 25.6184 57.9154 25.6184V25.9907H57.692C57.3941 25.9907 56.9473 25.9907 56.9473 26.8099V30.4588C56.9473 32.9907 55.5324 33.7354 53.8196 33.7354C51.5856 33.7354 50.3941 32.9163 50.3941 30.9056V26.8099Z" fill="#004EA2"/>
<path d="M52.2587 46.5439C51.8864 48.1822 50.7694 49.1503 49.7268 49.5226C49.7268 49.5226 49.7268 49.5226 49.6523 49.5226C50.8438 49.2992 54.8651 48.4056 54.7906 43.5652C54.7906 43.5652 54.7906 42.2992 54.6417 40.2141C52.7055 42.2247 52.7055 44.9056 52.2587 46.5439Z" fill="#004EA2"/>
<path d="M62.684 30.9801C62.684 31.2035 62.6095 31.5014 62.4606 31.8737C62.3861 32.0227 62.3861 32.1716 62.3117 32.395C62.2372 32.6184 62.0883 32.9163 62.0138 33.2141C61.1202 35.2248 59.7053 37.6822 57.0244 38.7248C56.1308 39.0227 55.3861 39.6184 54.7159 40.2141C54.8649 42.2993 54.8649 43.5652 54.8649 43.5652C54.9393 48.3312 51.067 49.2993 49.801 49.5227C49.801 49.5227 49.801 49.5227 49.7266 49.5227H49.801C52.4074 50.2673 56.95 50.1929 61.1202 44.012C62.3117 41.1822 62.9819 38.0546 62.9819 34.778C62.9819 33.512 62.8329 32.2461 62.684 30.9801Z" fill="#00A672"/>
</g>
<defs>
<filter id="filter0_d_2521_55336" x="0" y="0.00146484" width="78" height="78" filterUnits="userSpaceOnUse" color-interpolation-filters="sRGB">
<feFlood flood-opacity="0" result="BackgroundImageFix"/>
<feColorMatrix in="SourceAlpha" type="matrix" values="0 0 0 0 0 0 0 0 0 0 0 0 0 0 0 0 0 0 127 0" result="hardAlpha"/>
<feOffset dy="4"/>
<feGaussianBlur stdDeviation="2"/>
<feComposite in2="hardAlpha" operator="out"/>
<feColorMatrix type="matrix" values="0 0 0 0 0 0 0 0 0 0 0 0 0 0 0 0 0 0 0.25 0"/>
<feBlend mode="normal" in2="BackgroundImageFix" result="effect1_dropShadow_2521_55336"/>
<feBlend mode="normal" in="SourceGraphic" in2="effect1_dropShadow_2521_55336" result="shape"/>
</filter>
<clipPath id="clip0_2521_55336">
<rect width="70" height="70" fill="white" transform="translate(4 0.00146484)"/>
</clipPath>
</defs>
</svg>
