<svg width="95" height="70" viewBox="0 0 95 70" fill="none" xmlns="http://www.w3.org/2000/svg">
<path d="M60.1208 34.7856L56.852 22.8208C60.8609 22.4508 64.3146 21.8957 66.8432 21.2173C69.1869 20.5389 72.8256 19.4288 72.0855 16.7151C70.9754 12.8913 63.1428 10.7327 57.9005 9.74594C56.297 6.60056 52.5349 4.44197 48.2794 4.1336H48.2177L47.6626 2.28338L47.6009 2.03669C47.971 1.85166 48.2177 1.48162 48.2177 1.11158C48.2177 0.55651 47.7243 0.0631104 47.1692 0.0631104C46.6142 0.0631104 46.1208 0.55651 46.1208 1.11158C46.1208 1.54329 46.3675 1.91334 46.7375 2.03669L46.6758 2.28338L46.1208 4.19528C46.1208 4.19528 45.9974 4.19528 45.9358 4.19528C41.7419 4.56532 38.1031 6.72391 36.5613 9.80761C31.319 10.8561 23.4864 13.0147 22.3763 16.7768C21.6362 19.4288 25.2133 20.6006 27.6186 21.279C30.1472 21.9574 33.4776 22.5125 37.4247 22.8825L33.3542 34.8473H60.1208V34.7856Z" fill="#C3172D"/>
<path d="M63.448 18.812C63.633 18.997 63.6946 19.2437 63.6946 19.4904C63.633 19.8604 63.3246 20.2922 62.4612 20.7856C64.3731 20.4772 66.285 19.9838 66.5933 19.182C66.655 19.0587 66.655 18.9353 66.5933 18.812C66.5317 18.5653 66.1616 18.3186 65.6065 18.0719C65.4215 18.0102 65.2365 17.9486 65.0515 17.8869C63.7563 17.4552 61.7828 17.0851 59.5625 17.0234C60.8577 17.3935 62.3378 17.9485 63.1396 18.5653C63.2629 18.5653 63.3863 18.6886 63.448 18.812Z" fill="#C3172D"/>
<path d="M33.5994 19.6138C33.106 19.4904 32.6126 19.3054 32.1192 19.1204C31.9342 19.0587 31.6875 18.997 31.5025 18.9353C30.269 18.5036 28.9738 18.0719 27.9254 17.6402C26.9386 17.2085 26.1985 16.8384 25.8285 16.4684C25.3967 16.5917 25.0267 16.7151 24.7183 16.9001C24.595 16.9618 24.4716 17.0234 24.3483 17.0851C23.7932 17.3935 23.6082 18.0102 24.1633 18.5653C25.1501 19.4287 27.247 19.9838 28.0487 20.2305C29.9606 20.7856 32.3659 21.2173 35.2029 21.5257C33.8461 20.9706 33.3527 20.2922 33.5994 19.6138Z" fill="#D57360"/>
<path d="M70.6667 17.3318C70.605 17.2085 70.5433 17.1468 70.42 17.0852C69.9883 16.8385 69.4332 16.5918 68.6931 16.4067C68.1997 16.9001 67.0279 17.4552 65.6711 18.0103C66.2262 18.257 66.5345 18.5037 66.6579 18.7504C66.7195 18.8737 66.7195 18.9971 66.6579 19.1204C66.3495 19.9222 64.4376 20.4155 62.5257 20.7239C63.3275 20.2922 63.6975 19.8605 63.7592 19.4288C63.7592 19.1821 63.6975 18.997 63.5125 18.7504C62.7724 18.997 62.094 19.2437 61.3539 19.4288C61.1689 19.4904 60.9839 19.5521 60.7988 19.6138C61.0455 20.2922 60.5521 20.9706 59.1953 21.464C62.1557 21.1556 64.6843 20.6622 66.6579 20.1072C67.398 19.9222 69.1248 19.4288 70.235 18.6887C70.9134 18.257 70.9134 17.7636 70.6667 17.3318Z" fill="#D57360"/>
<path d="M60.6133 19.3055C61.6001 18.9971 62.4018 18.7504 63.2036 18.5037C62.4018 17.8253 60.9217 17.3319 59.6265 16.9618C61.9084 17.0235 63.882 17.3936 65.1155 17.8253C67.0274 17.0852 67.8908 16.5918 68.2609 16.2834C66.4106 15.79 63.8203 15.3583 60.675 14.9883C60.3666 15.2967 58.8864 16.4685 57.4062 17.5786C59.0098 18.072 60.1199 18.6887 60.6133 19.3055Z" fill="#D57360"/>
<path d="M47.4141 14.4332V16.4685H47.6608C48.4008 16.4685 50.1277 16.4685 51.9779 16.6535L53.0881 14.5566C51.2995 14.4332 49.3876 14.4332 47.4141 14.4332Z" fill="#D57360"/>
<path d="M53.5203 14.5565L52.4102 16.7151C52.8419 16.7768 53.2736 16.8385 53.7053 16.8385C54.6304 16.9618 55.3705 17.0852 56.0489 17.2702C56.3573 17.3319 56.604 17.3935 56.8507 17.4552C58.2692 16.4067 59.5643 15.42 60.0577 14.9266C58.1458 14.7415 55.9256 14.6182 53.5203 14.5565Z" fill="#D57360"/>
<path d="M42.1706 16.0367L42.294 16.2217L42.5407 16.6534C43.034 16.5917 43.5274 16.5917 44.0208 16.5301C45.0693 16.4684 46.1177 16.4067 46.9195 16.4067H47.1045V14.4331C47.1045 14.4331 47.1045 14.4331 47.1045 14.3715C45.131 14.3715 43.2807 14.4331 41.4922 14.4948L42.1706 16.0367Z" fill="#D57360"/>
<path d="M66.3492 14.8648C63.7588 13.4463 59.8117 12.5212 59.8117 12.5212L61.1069 13.3847C59.195 13.3847 56.543 13.693 56.543 13.693C56.543 13.693 62.7721 14.1248 66.3492 14.8648Z" fill="#D57360"/>
<path d="M35.5128 16.4068C34.7111 15.79 34.0326 15.2349 33.8476 15.0499C30.7023 15.3583 28.1119 15.79 26.2617 16.3451C26.5701 16.5918 27.2485 16.9618 28.482 17.5169C29.2837 17.8253 30.3322 18.257 31.7507 18.6887C32.3058 18.8737 32.9842 19.0587 33.6626 19.3054C33.7243 19.3054 33.7859 19.3054 33.7859 19.3671C33.7859 19.3671 33.7859 19.3671 33.7859 19.3054C34.2793 18.6887 35.3895 18.1336 36.993 17.6402C36.7463 17.4552 36.5613 17.2702 36.3146 17.1468C36.0679 16.8385 35.7595 16.5918 35.5128 16.4068Z" fill="#D57360"/>
<path d="M41.7407 16.0367L40.939 14.4949C38.5337 14.6182 36.3134 14.7416 34.3398 14.9266C34.6482 15.235 35.3266 15.7283 36.0667 16.2834C36.3134 16.4684 36.6218 16.7151 36.9302 16.9002C37.1152 17.0852 37.3619 17.2085 37.5469 17.3935C38.7804 17.0852 40.3222 16.8385 42.0491 16.6535L41.8641 16.2217L41.7407 16.0367Z" fill="#D57360"/>
<path d="M63.1401 18.5037C62.4 18.7504 61.5365 18.9971 60.5498 19.3055C60.0564 18.6887 59.0079 18.072 57.3427 17.5786C58.8229 16.4685 60.3031 15.2967 60.6114 14.9883C60.4264 14.9883 60.2414 14.9266 60.1181 14.9266C59.563 15.3583 58.2678 16.4068 56.911 17.4553C56.6643 17.3936 56.3559 17.3319 56.1092 17.2702C55.4308 17.0852 54.6291 16.9619 53.7656 16.8385C53.3339 16.7768 52.9022 16.7152 52.4705 16.7152L53.5806 14.5566C53.4573 14.5566 53.2722 14.5566 53.1489 14.5566L52.0388 16.6535C50.1885 16.4685 48.4617 16.4685 47.7216 16.4685H47.4132V14.4949C47.4132 14.4949 47.4132 14.4949 47.4132 14.4332H47.3515H47.1665C47.1048 14.4332 47.1048 14.4332 47.0432 14.4332C47.0432 14.4332 47.0432 14.4332 47.0432 14.4949V16.4685H46.8581C46.0564 16.4685 45.0079 16.5301 43.9595 16.5918C43.4661 16.5918 42.9727 16.6535 42.4793 16.7152L42.2326 16.2834L42.1092 16.0984L41.3075 14.5566C41.1841 14.5566 40.9991 14.5566 40.8758 14.5566L41.6775 16.0984L41.8009 16.3451L41.9859 16.7768C40.259 16.9619 38.7172 17.2086 37.4837 17.5169C37.237 17.3319 37.052 17.2086 36.8669 17.0235C36.5586 16.7768 36.3119 16.5918 36.0035 16.4068C35.2634 15.7901 34.585 15.2967 34.2766 15.05C34.0916 15.05 33.9066 15.1116 33.7216 15.1116C33.9066 15.2967 34.585 15.8517 35.3868 16.4685C35.6951 16.7152 35.9418 16.9002 36.2502 17.1469C36.4969 17.3319 36.6819 17.5169 36.9286 17.6403C35.2634 18.1337 34.215 18.6887 33.7216 19.3055C33.7216 19.3055 33.7216 19.3055 33.7216 19.3671C33.6599 19.3671 33.5982 19.3672 33.5982 19.3055C32.9198 19.1205 32.2414 18.8738 31.6863 18.6887C30.2678 18.257 29.2194 17.8253 28.4176 17.5169C27.1841 17.0235 26.5057 16.5918 26.1974 16.3451C26.0123 16.4068 25.889 16.4068 25.7656 16.4685C26.1357 16.8385 26.9374 17.2702 27.8625 17.6403C28.911 18.072 30.1445 18.5654 31.4396 18.9354C31.6863 18.9971 31.8714 19.0588 32.0564 19.1205C32.5498 19.3055 33.0432 19.4288 33.5366 19.6139C33.2899 20.2923 33.7832 20.909 35.0784 21.4641C36.0035 21.5874 36.9903 21.6491 37.9771 21.7724L38.2238 21.2174C36.867 20.9707 35.3868 20.6006 34.9551 20.0456C34.8317 19.9222 34.77 19.7989 34.77 19.6139V19.5522C34.77 19.4288 34.8317 19.3672 34.8934 19.2438C35.2634 18.8121 36.3119 18.3804 37.6687 18.072C37.8537 18.0103 37.9771 18.0103 38.1621 17.9486C39.3956 17.7019 40.8758 17.4553 42.2943 17.2702C42.4176 17.2702 42.6026 17.2086 42.726 17.2086C44.2678 17.0235 45.6863 16.9619 46.7965 16.9619H46.9815H47.1048H47.2899H47.4132H47.6599C48.77 16.9619 50.1885 17.0235 51.6687 17.1469C51.7921 17.1469 51.9771 17.1469 52.1004 17.2086C53.5806 17.3319 55.0608 17.5786 56.2326 17.887C56.4176 17.9487 56.541 18.0103 56.726 18.0103C57.6511 18.3187 58.3295 18.7504 58.5145 19.3055C58.5762 19.4288 58.5762 19.5522 58.5762 19.6755C58.5762 19.7372 58.5762 19.7372 58.5762 19.7989C58.5145 19.9222 58.4529 20.0456 58.3295 20.1689C57.8978 20.6006 57.096 20.8473 56.2326 21.094L56.4793 21.6491V21.7108H56.541C57.4661 21.6491 58.3295 21.5257 59.1929 21.4641C60.5498 20.909 61.0432 20.2306 60.7965 19.6139C60.9815 19.5522 61.1665 19.4905 61.3515 19.4288C62.0299 19.2438 62.77 18.9971 63.5101 18.7504C63.3868 18.6887 63.2634 18.5654 63.1401 18.5037Z" fill="#C3172D"/>
<path d="M65.1133 17.7635C65.2983 17.8252 65.4833 17.8869 65.6683 17.9485C67.0868 17.3935 68.197 16.8384 68.6904 16.345C68.567 16.2834 68.382 16.2834 68.2586 16.2217C67.8886 16.5917 67.0252 17.0851 65.1133 17.7635Z" fill="#C3172D"/>
<mask id="mask0_2541_57213" style="mask-type:luminance" maskUnits="userSpaceOnUse" x="26" y="16" width="19" height="5">
<path d="M44.3287 16.0367H26.875V20.6623H44.3287V16.0367Z" fill="white"/>
</mask>
<g mask="url(#mask0_2541_57213)">
<path d="M33.5365 20.6623C31.9947 20.1689 31.3779 19.6138 31.4396 19.1204C31.4396 19.0588 31.4396 18.9971 31.5013 18.9354C31.563 18.8121 31.6246 18.6887 31.748 18.627C32.3647 18.072 34.0299 17.5169 36.3735 17.0852C36.5586 17.0235 36.7436 17.0235 36.9286 16.9619C38.3471 16.7152 40.0123 16.4685 41.8625 16.2834C41.9859 16.2834 42.1709 16.2834 42.2942 16.2218C42.9726 16.1601 43.6511 16.0984 44.3295 16.0367C43.6511 16.0367 42.911 16.0367 42.1709 16.0367C42.0475 16.0367 41.8625 16.0367 41.7392 16.0367C39.9506 16.0984 37.9771 16.1601 36.0652 16.2834C35.8801 16.2834 35.6951 16.3451 35.4484 16.3451C32.6114 16.5918 30.0211 16.9619 28.4176 17.3936C28.2326 17.4552 28.0475 17.5169 27.8625 17.5786C27.3074 17.8253 26.9374 18.0103 26.8141 18.3187V18.3804C26.5674 19.7989 31.2546 20.4156 33.5365 20.6623Z" fill="white"/>
</g>
<path d="M47.6629 1.97503C48.033 1.79001 48.2797 1.41997 48.2797 1.04992C48.2797 0.494855 47.7863 0.00146484 47.2312 0.00146484C46.6762 0.00146484 46.1828 0.494855 46.1828 1.04992C46.1828 1.48164 46.4295 1.85168 46.7995 1.97503L46.1211 4.07194C46.5528 4.01027 46.9229 4.01028 47.2929 4.01028C47.6013 4.01028 47.9096 4.01027 48.2797 4.07194L47.6629 1.97503Z" fill="#CDA772"/>
<path d="M47.7212 2.22167L47.6595 1.97498C47.5361 2.03665 47.3511 2.09832 47.2278 2.09832C47.0428 2.09832 46.9194 2.03665 46.7961 1.97498L46.7344 2.22167C46.8577 2.28334 47.0428 2.34502 47.2278 2.34502C47.4128 2.34502 47.5978 2.28334 47.7212 2.22167Z" fill="#AB6C22"/>
<path d="M46.861 0.371512C46.7376 0.309838 46.6143 0.433191 46.4909 0.618213C46.3676 0.803235 46.3676 0.988255 46.4909 1.04993C46.5526 1.1116 46.6143 1.04993 46.676 0.988252C46.7376 0.926578 46.7993 0.864911 46.7993 0.803237C46.9843 0.618215 46.9843 0.433186 46.861 0.371512Z" fill="white"/>
<path d="M42.6029 6.16882C42.2329 6.29217 41.8012 6.53886 41.2461 7.649C41.8012 6.66221 42.2329 6.35385 42.6029 6.16882Z" fill="#FCD789"/>
<path d="M42.2969 9.37587C43.6537 9.31419 45.1956 9.25252 46.7374 9.25252C46.9224 9.25252 47.1074 9.25252 47.2925 9.25252C47.6008 9.0675 47.7242 8.8208 47.4775 8.51243C48.4026 8.63578 49.9445 8.88248 50.1295 8.01904C50.3145 7.03226 48.7726 5.79878 47.4158 5.42873C47.3541 5.42873 47.2925 5.36706 47.1691 5.36706C46.6757 5.30538 46.1823 5.30538 45.689 5.36706C45.6273 5.36706 45.5656 5.36706 45.5656 5.36706C45.1956 5.42873 44.8872 5.49041 44.5788 5.55208C44.3938 5.67543 42.8519 6.60054 42.2969 9.37587Z" fill="#FCD789"/>
<path d="M50.1908 8.01905C50.0058 8.88249 48.4639 8.63579 47.5388 8.51244C47.7855 8.82081 47.6622 9.06751 47.3538 9.25253C49.5124 9.25253 51.486 9.37587 53.1512 9.49922C52.9045 7.95737 50.6225 5.86046 47.7239 5.42874C47.6005 5.42874 47.4155 5.36707 47.2305 5.36707C47.2921 5.36707 47.3538 5.42874 47.4772 5.42874C48.834 5.79879 50.4375 7.03227 50.1908 8.01905Z" fill="#F6B100"/>
<path d="M41.2453 6.78562C40.1352 7.40236 39.1484 8.20412 38.4083 9.1909C38.2849 9.37592 38.0999 9.56095 37.9766 9.80764C38.2849 9.74597 38.5933 9.74597 38.9017 9.6843C39.3951 9.62262 39.8885 9.56095 40.3819 9.56095C40.4435 9.37593 40.5052 9.25258 40.5669 9.12923H40.6285C40.9986 9.12923 41.307 8.82086 41.307 8.45082C41.307 8.26579 41.1836 8.08077 41.0603 7.95742C41.1219 7.83407 41.1836 7.7724 41.2453 7.64905C41.8004 6.53892 42.2937 6.3539 42.6021 6.16888C42.7255 6.1072 42.7871 6.04553 42.9105 6.04553C42.2937 6.23055 41.7387 6.47725 41.2453 6.78562Z" fill="#F6B100"/>
<path d="M41.2473 7.64904C41.3706 7.83406 41.679 8.26578 41.679 8.4508C41.679 8.82085 41.1856 9.37591 40.8156 9.37591C40.8156 9.37591 40.7539 9.43758 40.7539 9.49926C41.2473 9.43758 41.8024 9.43759 42.3574 9.37591C42.9125 6.66225 44.4543 5.67547 44.6394 5.55212C44.0226 5.67547 43.4676 5.8605 42.9125 6.04552C42.8508 6.10719 42.7275 6.16886 42.6041 6.16886C42.2341 6.35389 41.8024 6.66225 41.2473 7.64904Z" fill="white"/>
<path d="M40.752 9.31427C41.1221 9.31427 41.6155 8.7592 41.6155 8.38916C41.6155 8.20414 41.3071 7.77242 41.1837 7.64907C41.1837 7.64907 41.1837 7.64908 41.1837 7.5874C41.1221 7.71075 41.0604 7.77242 40.9987 7.89577C41.1221 8.01912 41.2454 8.20414 41.2454 8.38916C41.2454 8.7592 40.937 9.06757 40.567 9.06757H40.5053C40.5053 9.12925 40.382 9.31427 40.3203 9.49929C40.382 9.49929 40.5053 9.49929 40.567 9.49929C40.752 9.43762 40.752 9.31427 40.752 9.31427Z" fill="white"/>
<path d="M42.9138 6.04553C42.7905 6.10721 42.7288 6.16888 42.6055 6.16888C42.7288 6.1072 42.8522 6.10721 42.9138 6.04553Z" fill="white"/>
<path d="M29.2839 14.8032C29.0372 14.8649 28.8522 14.8649 28.6055 14.9266C28.8522 14.8649 29.0989 14.8649 29.2839 14.8032Z" fill="#E393A7"/>
<path d="M40.1972 13.1381C40.2589 12.953 40.6906 12.8297 40.8756 12.8297L39.1487 12.398C40.8139 12.5213 42.5408 12.583 44.206 12.4597C44.576 12.4597 46.7963 12.2746 46.4263 11.5345C46.0562 10.8561 43.5893 10.1777 36.2501 11.0411C35.5716 11.1645 34.9549 11.2878 34.3998 11.4729C32.7963 11.9663 30.8844 12.7063 29.7126 13.8782C29.4042 14.1865 29.0342 14.5566 29.3426 14.8649C29.9593 14.7416 30.6377 14.6799 31.3161 14.5566C33.7831 14.2482 36.7434 14.0015 40.0122 13.8165C40.3205 13.8165 40.5672 13.7548 40.8756 13.7548C41.4307 13.6931 41.4307 13.6931 40.8756 13.7548C40.5056 13.5698 40.1355 13.4464 40.1972 13.1381Z" fill="#E393A7"/>
<path d="M30.332 12.5829C30.4554 12.5213 30.5787 12.5213 30.7021 12.4596C30.5787 12.4596 30.4554 12.5213 30.332 12.5829Z" fill="#D54C79"/>
<path d="M45.1333 10.0543C41.9263 10.116 39.3976 10.4244 37.7324 10.6711C37.6091 10.6711 37.4857 10.7327 37.3624 10.7327C37.239 10.7327 37.054 10.7944 36.9923 10.7944C36.9307 10.7944 36.9307 10.7944 36.869 10.7944H36.8073C36.5606 10.8561 36.3756 10.8561 36.1289 10.9178C43.4681 10.0543 45.9351 10.7327 46.3051 11.4111C46.6752 12.1512 44.4549 12.3363 44.0849 12.3363C42.4197 12.4596 40.6928 12.3979 39.0276 12.2746L40.7545 12.7063C40.5694 12.7063 40.1377 12.8296 40.076 13.0147C40.0144 13.2614 40.3844 13.4464 40.6928 13.5697C41.2479 13.5081 41.8029 13.4464 42.2963 13.3847C42.6047 13.323 42.9131 13.323 43.2214 13.2614C43.5298 13.1997 43.7765 13.1997 44.0232 13.138C44.1465 13.138 44.2699 13.0763 44.3932 13.0763C44.6399 13.0147 44.8866 13.0147 45.0716 12.953C45.195 12.953 45.2567 12.8913 45.38 12.8913C45.565 12.8296 45.7501 12.8296 45.9351 12.768C45.9968 12.768 46.1201 12.7063 46.1818 12.7063C46.5518 12.5829 46.8602 12.5213 47.0452 12.4596C47.5386 12.2129 47.4769 12.0279 46.9835 11.9045C48.5871 11.8429 50.3139 11.7195 51.3007 11.4728C51.3624 11.4728 51.4857 11.4111 51.5474 11.4111C51.8558 11.2878 52.0408 11.1644 52.1025 11.0411C52.1025 10.9794 52.1025 10.9178 52.1025 10.9178V10.8561C52.1025 10.7944 52.1025 10.7944 52.0408 10.7327C51.9791 10.6711 51.9175 10.6094 51.7941 10.5477C51.6708 10.486 51.5474 10.4244 51.4241 10.4244H51.3624C51.3007 10.4244 51.239 10.4244 51.1774 10.3627C51.1157 10.3627 51.054 10.3627 50.9923 10.301C50.869 10.301 50.684 10.2393 50.5606 10.2393C50.499 10.2393 50.4373 10.2393 50.3756 10.2393H50.3139C50.1906 10.2393 50.1289 10.2393 50.0056 10.1777C50.0056 10.1777 50.0056 10.1777 49.9439 10.1777C49.8822 10.1777 49.8205 10.1777 49.7589 10.1777C49.7589 10.1777 49.7589 10.1777 49.6972 10.1777C49.6355 10.1777 49.5738 10.1777 49.5122 10.1777C49.4505 10.1777 49.4505 10.1777 49.3888 10.1777C49.3272 10.1777 49.2655 10.1777 49.2655 10.1777C49.0188 10.1777 48.8338 10.1777 48.5871 10.1777C47.2919 10.116 46.1201 10.0543 45.1333 10.0543Z" fill="#D54C79"/>
<path d="M31.1924 12.2746C31.0074 12.3362 29.6506 12.7063 28.7871 13.138C27.677 13.5697 26.7519 14.0631 26.0735 14.4948C25.7034 14.7415 25.3334 14.9882 25.0867 15.1732C24.9633 15.2349 24.9017 15.2966 24.84 15.4199C24.47 15.7283 24.2233 16.0367 24.0382 16.3451L23.9766 16.4067C24.1616 16.2834 24.4083 16.16 24.655 16.0367C24.84 15.975 25.025 15.8517 25.2717 15.79C25.3951 15.7283 25.4567 15.7283 25.5801 15.6666C25.6418 15.6666 25.7651 15.605 25.8268 15.605C25.8885 15.605 25.9501 15.5433 26.0118 15.5433C26.0735 15.5433 26.1968 15.4816 26.2585 15.4816C26.4435 15.4199 26.6902 15.3583 26.8752 15.2966C26.8752 15.2966 27.8004 15.0499 28.2937 14.9882C28.4171 14.9882 28.5404 14.9265 28.6021 14.9265C28.7871 14.8649 29.0338 14.8649 29.2805 14.8032C28.9105 14.4948 29.3422 14.1248 29.6506 13.8164C30.8841 12.6446 32.7343 11.9045 34.3378 11.4111C33.166 11.7195 32.1175 12.0279 31.1924 12.2746Z" fill="#D54C79"/>
<path d="M59.6258 19.6138C59.6258 19.4904 59.5641 19.4287 59.5025 19.3054C59.1324 18.8737 58.084 18.4419 56.7271 18.1336C56.5421 18.0719 56.4188 18.0719 56.2337 18.0102C55.0003 17.7635 53.5201 17.5168 52.1016 17.3318C51.9782 17.3318 51.7932 17.2701 51.6699 17.2701C50.1897 17.0851 48.7712 17.0234 47.7227 17.0234H47.5994H47.476H47.3527H47.2293H47.106H46.9826H46.7976C45.7492 17.0234 44.3307 17.0851 42.8505 17.2701C42.7271 17.2701 42.5421 17.2701 42.4188 17.3318C41.0003 17.5168 39.5818 17.7019 38.2866 18.0102C38.1016 18.0719 37.9166 18.0719 37.7932 18.1336C36.4364 18.4419 35.3879 18.8737 35.0179 19.3054C34.9562 19.4287 34.8945 19.4904 34.8945 19.6138V19.6754C34.8945 19.7988 34.9562 19.9838 35.0796 20.1071C35.5729 20.6622 36.9915 21.0323 38.3483 21.279L38.595 20.7239L38.6567 20.5389C38.4716 20.1071 38.7183 19.7988 39.2117 19.4904C39.2734 19.4287 39.3351 19.4287 39.3967 19.3671C39.5201 19.3054 39.6434 19.2437 39.8285 19.182C40.6302 18.8737 41.7404 18.6886 42.9738 18.5653C43.0972 18.5653 43.2822 18.5653 43.4055 18.5036C43.8373 18.4419 44.269 18.4419 44.7624 18.3803C44.8241 18.3803 44.824 18.3803 44.8857 18.3803C45.6258 18.3186 46.3659 18.3186 47.106 18.3186C47.1677 18.3186 47.2293 18.3186 47.291 18.3186C47.3527 18.3186 47.4144 18.3186 47.476 18.3186C48.2161 18.3186 48.9562 18.3186 49.6963 18.3803C49.758 18.3803 49.758 18.3803 49.8196 18.3803C50.2514 18.3803 50.7448 18.4419 51.1765 18.5036C51.2998 18.5036 51.4848 18.5036 51.6082 18.5653C52.8417 18.6886 53.9518 18.9353 54.7536 19.182C54.9386 19.2437 55.0619 19.3054 55.1853 19.3671C55.247 19.4287 55.3086 19.4287 55.3703 19.4904C55.9254 19.7988 56.1721 20.1688 55.9254 20.5389L55.987 20.7239L56.2337 21.279C57.5906 21.0323 59.0708 20.6622 59.5025 20.1071C59.6258 19.9221 59.6875 19.7988 59.6258 19.6138Z" fill="#F6B100"/>
<path d="M25.1484 65.3759L25.5185 64.7592L25.7035 64.8825L26.8136 63.094L26.6286 62.9706L26.9987 62.3539L28.6639 63.4023C28.8489 63.5257 28.9722 63.8341 28.7872 64.0191L28.3555 64.7592C28.2321 64.9442 28.0471 65.0059 27.9238 64.9442C28.0471 65.0675 28.0471 65.3142 27.9238 65.4376L27.4921 66.1777C27.3687 66.3627 27.0603 66.486 26.8753 66.301L25.1484 65.3759ZM26.937 65.6843L27.307 65.0675L26.6903 64.6975L26.3202 65.3142L26.937 65.6843ZM27.6771 64.4508L28.0471 63.8341L27.4304 63.464L27.0603 64.0808L27.6771 64.4508Z" fill="#C3172D"/>
<path d="M28.7266 67.2879L28.9733 66.6094L29.1583 66.6711L30.2684 64.8209L30.0834 64.7592L30.3301 64.0808L32.057 64.6359L31.8103 65.3143L31.6252 65.2526L31.3785 67.4112L31.5636 67.4729L31.3169 68.1513L30.5151 67.9046L30.6385 67.2262L29.8984 66.9795L29.5283 67.5962L28.7266 67.2879ZM30.7001 66.4861L30.8852 65.0676H30.8235L30.1451 66.3011L30.7001 66.4861Z" fill="#C3172D"/>
<path d="M32.7346 68.0279L32.858 67.5346H33.6597L33.5981 67.9663L34.1531 68.0896L34.2765 67.5346L33.3513 66.8561C33.228 66.7328 33.1047 66.5478 33.1663 66.3627L33.3513 65.4993C33.413 65.2526 33.6597 65.0676 33.9064 65.1293L35.0782 65.376C35.3249 65.4376 35.4483 65.6843 35.4483 65.931L35.3249 66.4244H34.5232L34.5848 65.9927L34.0298 65.8694L33.9064 66.3627L34.8315 67.0412C34.9549 67.1645 35.0782 67.3495 35.0165 67.5346L34.8315 68.5213C34.7699 68.768 34.5232 68.9531 34.2765 68.8914L33.1047 68.6447C32.858 68.5213 32.6729 68.2746 32.7346 68.0279Z" fill="#C3172D"/>
<path d="M36.0664 69.1381L36.1898 68.4597H36.3748L36.6831 66.4244L36.4364 66.3627L36.5598 65.6843L38.7184 65.9927L38.595 66.7945L37.8549 66.6711V66.5478L37.4232 66.4861L37.3616 67.2262L38.1016 67.2878L37.8549 67.9663L37.2382 67.9046L37.1149 68.583L37.5466 68.6447V68.5213L38.3483 68.6447L38.225 69.4464L36.0664 69.1381Z" fill="#C3172D"/>
<path d="M39.582 69.6315L39.6437 68.9531H39.8287L40.0137 66.8561H39.8287L39.8904 66.1777L41.864 66.3627C42.1107 66.3627 42.2957 66.6094 42.2957 66.8561L42.234 67.7196C42.234 67.9046 42.1107 68.0896 41.9256 68.0896C42.1107 68.1513 42.1723 68.3363 42.1723 68.5213L42.1107 69.3848C42.1107 69.6315 41.864 69.8165 41.6173 69.8165L39.582 69.6315ZM41.3089 69.0147L41.3706 68.3363L40.6922 68.2746L40.6305 68.9531L41.3089 69.0147ZM41.4323 67.6579L41.4939 66.9795L40.8155 66.9178L40.7538 67.5962L41.4323 67.6579Z" fill="#C3172D"/>
<path d="M43.2812 69.8781V69.1996H43.4663L43.9597 67.1027H43.7747V66.4243L45.6249 66.486V67.1644H45.4398L45.8099 69.2613H45.9949V69.9397H45.1315L45.0081 69.2613H44.2064L44.083 69.9397L43.2812 69.8781ZM44.9465 68.5212L44.7614 67.1027H44.6998L44.3914 68.5212H44.9465Z" fill="#C3172D"/>
<path d="M47.1671 70.0014V69.2613H47.3522V67.1644H47.1671L47.1055 66.486L48.3389 66.4243V67.1644H48.0923L48.1539 69.2613H48.524V69.0763H49.3257V69.9397L47.1671 70.0014Z" fill="#C3172D"/>
<path d="M50.685 69.8781V69.1997H50.87L50.7467 67.1028H50.5617L50.5 66.4243L51.6718 66.3627L51.7335 67.0411H51.5485L51.6101 69.138H52.0419V68.953H52.7819L52.8436 69.8164L50.685 69.8781Z" fill="#C3172D"/>
<path d="M56.6047 68.953L56.2346 66.3627C56.1729 66.116 56.358 65.8693 56.6047 65.8693L57.8381 65.6843C58.0848 65.6226 58.3315 65.8077 58.3315 66.0544L58.4549 66.7328L57.7148 67.0411L57.6531 66.4244L57.0364 66.4861L57.3448 68.583L57.9615 68.5213L57.8998 67.9046L58.6399 67.5962L58.7632 68.6447C58.8249 68.8914 58.6399 69.1381 58.3932 69.1381L57.1597 69.3231C56.8513 69.3848 56.6047 69.1997 56.6047 68.953Z" fill="#C3172D"/>
<path d="M60.1815 68.8914L60.0581 68.2129L60.2432 68.1513L59.8115 66.116H59.6264L59.4414 65.4376L60.6132 65.1909L60.7366 65.8693L60.5515 65.931L60.9833 67.9662L61.415 67.9046L61.3533 67.7196L62.0934 67.5962L62.2784 68.398L60.1815 68.8914Z" fill="#C3172D"/>
<path d="M63.8202 67.5345L63.0801 65.3143L62.8951 65.3759L62.6484 64.6975L63.7586 64.3275L64.0053 65.0059L63.8202 65.0676L64.4987 67.0411L65.1154 66.8561L64.437 64.8825L64.2519 64.9442L64.0053 64.2658L65.1154 63.8958L65.3621 64.5742L65.1771 64.6358L65.9172 66.8561C65.9788 67.1028 65.8555 67.3495 65.6088 67.4112L64.3753 67.8429C64.1903 67.9046 63.9436 67.7812 63.8202 67.5345Z" fill="#C3172D"/>
<path d="M67.9509 66.4244L67.5809 65.8693L67.7659 65.746L66.5941 64.0191L66.4091 64.1425L66.0391 63.5874L67.7042 62.4773C67.8893 62.3539 68.1976 62.4156 68.321 62.6006L68.8144 63.3407C68.9377 63.5257 68.9377 63.7107 68.8144 63.8341C68.9994 63.7724 69.1844 63.8958 69.3078 64.0191L69.8012 64.7592C69.9245 64.9442 69.8628 65.2526 69.6778 65.3759L67.9509 66.4244ZM68.136 63.7724L67.7659 63.2173L67.2109 63.5874L67.5809 64.1425L68.136 63.7724ZM68.9377 64.8825L68.5677 64.3275L68.0126 64.6975L68.3827 65.2526L68.9377 64.8825Z" fill="#C3172D"/>
<path d="M55.9235 20.4772C56.6019 18.997 51.9147 18.257 47.2891 18.257C47.2891 18.257 47.2891 18.257 47.2274 18.257C47.2274 18.257 47.2274 18.257 47.1658 18.257C42.4785 18.257 37.853 18.997 38.5314 20.4772C38.5314 20.4772 23.668 53.7195 23.668 55.5081C23.668 60.5653 34.0909 64.6358 46.9191 64.6358C59.7473 64.6358 70.7869 60.5653 70.7869 55.5081C70.8486 54.0896 55.9235 20.4772 55.9235 20.4772Z" fill="#C3172D"/>
<path d="M43.1582 31.6402C43.1582 30.2834 42.2947 29.79 40.7529 29.3583C39.4577 29.0499 39.1494 28.8649 39.1494 28.3715C39.1494 28.0014 39.4577 27.6931 40.1361 27.6931C40.7529 27.6931 41.4313 28.0014 42.1097 28.4331L42.9731 27.1997C42.2331 26.5829 41.3079 26.2129 40.1978 26.2129C38.656 26.2129 37.5458 27.138 37.5458 28.4948C37.5458 29.975 38.5326 30.4067 40.0128 30.7768C41.2463 31.0851 41.493 31.3318 41.493 31.7636C41.493 32.1953 41.0613 32.5036 40.3828 32.5036C39.5194 32.5036 38.841 32.1336 38.1626 31.5785L37.1758 32.7503C38.1009 33.5521 39.211 33.9838 40.3828 33.9838C41.9864 33.9838 43.1582 33.1204 43.1582 31.6402Z" fill="white"/>
<path d="M44.0232 28.4949C44.0232 30.0368 45.01 30.4068 46.4902 30.8385C47.7237 31.1469 48.032 31.3936 48.032 31.8253C48.032 32.257 47.6003 32.5654 46.9219 32.5654C46.0585 32.5654 45.38 32.1953 44.7016 31.6403L43.7148 32.8121C44.64 33.6138 45.7501 34.0456 46.9219 34.0456C48.5254 34.0456 49.6972 33.1821 49.6972 31.702C49.6972 30.4068 48.8338 29.8517 47.2919 29.42C45.9968 29.1116 45.6884 28.9266 45.6884 28.4332C45.6884 28.0632 45.9968 27.7548 46.6752 27.7548C47.2919 27.7548 47.9704 28.0632 48.6488 28.4949L49.5122 27.2614C48.7721 26.6447 47.847 26.2746 46.7369 26.2746C45.1333 26.213 44.0232 27.1381 44.0232 28.4949Z" fill="white"/>
<path d="M57.4059 32.627V29.4199H54.2605V30.9001H55.8023V31.9486C55.3706 32.2569 54.8155 32.4419 54.2605 32.4419C53.027 32.4419 51.9785 31.3318 51.9785 30.0983C51.9785 28.8649 52.9653 27.8164 54.2605 27.8164C54.8772 27.8164 55.4323 28.0631 55.864 28.4948L56.9741 27.3847C56.2957 26.7063 55.3089 26.2745 54.2605 26.2745C52.1019 26.2745 50.375 28.0014 50.375 30.16C50.375 32.3186 52.1019 34.0455 54.2605 34.0455C55.494 33.9838 56.6658 33.4287 57.4059 32.627Z" fill="white"/>
<path d="M94.1633 39.9046C94.1633 38.116 92.7448 36.6975 90.9563 36.6975H83.6787C82.2602 36.6975 81.0267 37.6226 80.595 38.9794C80.0399 37.6226 78.6831 36.6975 77.2029 36.6975H18.9827C16.5157 36.6975 14.4805 38.7328 14.4805 41.1997V45.3935L9.4232 47.7372V40.0896L7.20294 36.6975H0.480469V56.9266L2.76241 59.6402H90.2778L93.2999 55.9398C93.8549 55.3847 94.225 54.583 94.225 53.7195V39.9046H94.1633Z" fill="#C3172D"/>
<path d="M1.65234 55.6314V37.9927H5.7845V51.8077H9.3616V49.1557L13.5554 47.2438V55.6314H1.65234Z" fill="white"/>
<path d="M36.0652 55.6314V42.8649C36.0652 42.2482 35.5718 41.7548 34.955 41.7548H33.1665V55.6314H28.9727V37.9927H37.792C38.1621 37.9927 38.9022 38.116 39.5189 38.7328C40.074 39.2878 40.1356 39.9662 40.1356 40.3363V55.6314H36.0652Z" fill="white"/>
<path d="M55.6797 55.6314V37.9927H66.1026V41.8165H59.8735V44.9002H64.8075V48.7856L59.8735 48.724V51.8077H66.1026V55.6314H55.6797Z" fill="white"/>
<path d="M51.1163 37.9927H42.2969V55.6314H51.1163C52.4114 55.6314 53.4599 54.583 53.4599 53.2878V40.3363C53.5215 39.0411 52.4731 37.9927 51.1163 37.9927ZM46.4907 51.8077V41.8165H48.2176C48.896 41.8165 49.3277 42.3099 49.3277 42.9266V50.8209C49.3277 51.4376 48.8343 51.8693 48.2176 51.8693H46.4907V51.8077Z" fill="white"/>
<path d="M79.4247 40.3363C79.4247 39.0411 78.3763 37.9927 77.0811 37.9927H68.2617V55.6314H72.4556V51.2526L73.8741 50.4508L75.3542 51.2526V55.6314H79.4864V49.5874L77.4512 48.2922L79.4864 46.9971V40.3363H79.4247ZM75.3542 45.5169L72.4556 47.0588V46.8121V41.8165H74.2441C74.9225 41.8165 75.3542 42.3099 75.3542 42.9266V45.5169Z" fill="white"/>
<path d="M92.7459 45.2085V39.9046C92.7459 38.8561 91.8824 37.9927 90.834 37.9927H83.5564C82.508 37.9927 81.6445 38.8561 81.6445 39.9046V46.6887L88.6137 49.7107V51.0676C88.6137 51.6226 88.1203 51.8077 87.9353 51.8077H86.4551C86.2701 51.8077 85.7767 51.6226 85.7767 51.0676V50.2658L81.6445 48.5389V53.6579C81.6445 54.7063 82.508 55.5698 83.5564 55.5698H90.834C91.8824 55.5698 92.7459 54.7063 92.7459 53.6579V47.0588L85.7767 44.0367V42.4949C85.7767 42.0015 86.2084 41.8165 86.4551 41.8165H87.9969C88.2436 41.8165 88.6137 41.8781 88.6137 42.4332V43.3583L92.7459 45.2085Z" fill="white"/>
<path d="M18.9219 37.9927C17.1333 37.9927 15.7148 39.4112 15.7148 41.1997V55.6314H19.9087V52.3011L22.7457 50.7592V51.0059V55.6931H26.8778V38.0544H18.9219V37.9927ZM22.684 46.5037L19.847 48.0455V47.7989V44.1601V42.9266C19.847 42.3099 20.3404 41.8165 20.9571 41.8165H22.0056H22.684V46.5037Z" fill="white"/>
</svg>
