<svg width="70" height="70" viewBox="0 0 70 70" fill="none" xmlns="http://www.w3.org/2000/svg">
<path d="M8.25608 29.7067C8.0766 30.6938 7.44839 31.322 6.55096 31.1426C5.65353 30.9631 5.29456 30.0656 5.47405 29.1682C5.47405 28.9887 5.56379 28.8092 5.65353 28.6297C5.56379 29.2579 5.83302 30.0656 6.55096 30.2451C7.26891 30.3349 7.62788 29.9759 7.71762 29.3477C7.71762 29.1682 7.80737 28.9887 7.80737 28.8092L4.30739 28.0913C3.85867 28.0015 3.58944 27.9118 3.23047 28.2708L3.4997 26.7451C3.58944 27.1938 4.1279 27.1938 4.48687 27.2836L7.35865 27.822C7.71762 27.9118 8.25608 28.0015 8.52531 27.7323L8.25608 29.7067Z" fill="#004EA2"/>
<path d="M3.05008 34.9117C2.60136 34.5527 2.42188 33.9245 2.42188 33.3861C2.42188 32.8476 2.60136 32.3092 3.05008 32.0399C3.49879 31.681 4.03725 31.681 4.57571 31.681L6.6398 31.7707C6.99877 31.7707 7.53723 31.8604 7.71672 31.5015L7.62698 32.9374C7.44749 32.5784 6.90903 32.5784 6.55006 32.5784L4.48597 32.4886C3.40905 32.4886 2.96033 32.8476 2.96033 33.6553C2.96033 34.104 3.13982 34.5527 3.49879 34.822C3.76802 35.0015 3.94751 35.0015 4.30648 35.0015L6.6398 35.0912C6.99877 35.0912 7.53723 35.181 7.71672 34.822L7.62698 36.2579C7.44749 35.8989 6.90903 35.8989 6.55006 35.8989L3.58854 35.8092C3.22956 35.8092 2.6911 35.7194 2.51162 36.1681V35.0015L3.05008 34.9117Z" fill="#004EA2"/>
<path d="M7.17892 39.6682C7.44815 39.3092 7.53789 38.8605 7.53789 38.4118C7.44815 37.9631 7.26866 37.4246 6.7302 37.5144C5.65328 37.6041 6.01226 40.2964 4.57637 40.4759C3.76868 40.5656 2.87125 39.8477 2.69176 38.5913C2.60202 38.1426 2.60202 37.6938 2.7815 37.2451L3.76868 36.8862C3.40971 37.4246 3.23022 38.0528 3.31996 38.681C3.40971 39.1297 3.76868 39.758 4.30714 39.6682C5.4738 39.4887 4.8456 36.7964 6.55071 36.6169C7.53789 36.5272 8.07635 37.4246 8.16609 38.4118C8.25583 38.7708 8.25583 39.2195 8.16609 39.5785L7.17892 39.6682Z" fill="#004EA2"/>
<path d="M6.37128 43.5271L5.92256 42.0913L8.0764 42.181L6.37128 43.5271ZM5.92256 43.8861L4.93539 44.6041C4.48667 44.963 4.39693 45.0528 4.1277 44.6938L4.57641 46.2195C4.66616 45.7707 5.02513 45.5015 5.47384 45.2323L8.88408 42.54L8.52511 41.3733C8.52511 41.7323 8.16614 41.7323 7.89691 41.6425L4.30718 41.2836C3.85847 41.2836 3.40975 41.1938 3.05078 40.8348L3.40975 42.181C3.40975 41.822 3.67898 41.7323 4.1277 41.822L5.29436 41.9118L5.92256 43.8861Z" fill="#004EA2"/>
<path d="M6.01021 46.9374C5.65124 47.1169 5.29226 47.2964 5.29226 47.7451L4.66406 46.4887C5.02303 46.7579 5.38201 46.5785 5.74098 46.399L8.52302 45.0528C8.88199 44.8733 9.24096 44.6938 9.24096 44.2451L9.77942 45.2323C9.68968 45.322 9.68967 45.322 9.68967 45.4118L9.59993 45.5913L7.62558 49.7195L10.3179 48.4631C10.6768 48.2836 11.0358 48.1041 11.0358 47.6554L11.664 48.9118C11.3051 48.6426 11.0358 48.822 10.5871 49.0015L6.63841 50.8861C6.54867 50.3477 6.72815 49.9887 6.90764 49.4502L8.79224 45.5913L6.01021 46.9374Z" fill="#004EA2"/>
<path d="M10.4086 54.4758C10.0497 54.745 9.87019 54.9245 9.95993 55.463L9.0625 54.4758C9.51122 54.6553 9.78045 54.3861 10.0497 54.1168L12.383 52.0527C12.742 51.7835 12.9215 51.5143 12.8317 51.0656L13.6394 51.8732C13.5497 51.963 13.5497 52.0527 13.5497 52.0527V52.2322L12.742 56.7194L14.9855 54.745C15.3445 54.4758 15.524 54.2963 15.4343 53.7579L16.3317 54.745C15.883 54.5655 15.6137 54.8348 15.3445 55.104L12.1138 58.0655C11.8445 57.5271 11.9343 57.1681 12.024 56.6297L12.742 52.4117L10.4086 54.4758Z" fill="#004EA2"/>
<path d="M16.8703 58.7835L15.6139 57.7964L17.4087 56.7194L16.8703 58.7835ZM16.6908 59.4117L16.3318 60.5784C16.1523 61.1169 16.1523 61.2066 15.7934 61.1169L17.0498 62.104C16.8703 61.6553 16.96 61.2066 17.1395 60.7579L18.3062 56.6297L17.319 55.9117C17.4985 56.2707 17.2292 56.3605 16.96 56.5399L13.9087 58.3348C13.46 58.6041 13.1011 58.8733 12.6523 58.7835L13.819 59.681C13.6395 59.322 13.819 59.2323 14.178 58.963L15.1652 58.3348L16.6908 59.4117Z" fill="#004EA2"/>
<path d="M19.385 62.2836C19.1158 62.6426 19.026 62.9118 19.2055 63.3605L17.8594 62.5528C18.3081 62.6426 18.4876 62.1041 18.6671 61.8349L20.4619 58.8733L19.8337 58.5144C19.5645 58.3349 19.2055 58.2451 18.8465 58.3349L19.5645 57.7067C19.6542 57.7964 19.744 57.7964 19.8337 57.8861L20.0132 57.9759L22.526 59.4118C22.6158 59.5015 22.7952 59.5015 22.885 59.5015L22.2568 60.1297C22.3465 59.8605 22.0773 59.681 21.8081 59.5015L21.1799 59.2323L19.385 62.2836Z" fill="#004EA2"/>
<path d="M23.0643 60.758C23.2438 60.399 23.513 59.9503 23.154 59.681L24.5002 60.3092C24.0515 60.3092 23.872 60.8477 23.7822 61.1169L22.6156 63.8092C22.4361 64.1682 22.1669 64.6169 22.5258 64.8862L21.1797 64.258C21.6284 64.258 21.8079 63.7195 21.8976 63.4503L23.0643 60.758Z" fill="#004EA2"/>
<path d="M27.4605 61.6553C28.6272 62.0143 29.0759 63.2707 28.7169 64.3476C28.4477 65.4245 27.4605 66.0527 26.2939 65.7835C25.1272 65.4245 24.6785 64.1681 24.9477 63.0912C25.3067 61.9245 26.2041 61.2963 27.4605 61.6553ZM27.64 61.1168C26.0246 60.6681 24.499 61.4758 24.0503 62.9117C23.6016 64.4373 24.5887 65.8732 26.1144 66.2322C27.64 66.6809 29.1656 65.8732 29.6143 64.3476C29.9733 63.0014 29.1656 61.5655 27.64 61.1168Z" fill="#004EA2"/>
<path d="M30.87 66.0528C30.87 66.5015 30.7802 66.7707 31.229 67.0399L29.8828 66.9502C30.3315 66.7707 30.3315 66.4117 30.3315 65.963L30.6008 62.9117C30.6008 62.463 30.6905 62.1938 30.2418 61.9246L31.4084 62.0143C31.4084 62.104 31.4982 62.1041 31.4982 62.1938L31.5879 62.3733L34.1905 66.1425L34.37 63.181C34.37 62.7323 34.4597 62.463 34.011 62.1938L35.3571 62.2835C34.9084 62.463 34.9084 62.822 34.9084 63.2707L34.5495 67.5784C34.011 67.3092 33.7418 67.0399 33.4725 66.5912L31.0495 63.0015L30.87 66.0528Z" fill="#004EA2"/>
<path d="M38.68 64.6168L37.1543 64.7963L37.6928 62.7322L38.68 64.6168ZM38.9492 65.1553L39.4877 66.2322C39.7569 66.7707 39.8466 66.8604 39.4877 67.0399L41.103 66.8604C40.6543 66.6809 40.4748 66.2322 40.2056 65.8732L38.1415 62.104L36.8851 62.1938C37.2441 62.2835 37.1543 62.6425 37.0646 62.9117L36.0774 66.2322C35.9877 66.6809 35.8979 67.1296 35.4492 67.3989L36.8851 67.2194C36.5261 67.1296 36.5261 66.8604 36.6159 66.4117L36.8851 65.245L38.9492 65.1553Z" fill="#004EA2"/>
<path d="M43.6136 65.6041C44.152 65.5143 44.511 65.2451 44.87 64.7964L44.7802 65.8733L41.6392 66.681C41.9982 66.4118 41.8187 65.8733 41.729 65.6041L41.011 62.7323C40.9213 62.3733 40.8315 61.8348 40.3828 61.7451L41.8187 61.3861C41.4597 61.6553 41.6392 62.1938 41.729 62.5528L42.6264 65.7835L43.6136 65.6041Z" fill="#004EA2"/>
<path d="M51.3337 62.2835C51.244 62.822 50.7952 63.2707 50.2568 63.5399C49.8081 63.8092 49.2696 63.8989 48.7312 63.7194C48.1927 63.5399 47.9235 63.0912 47.6542 62.5527L46.6671 60.7579C46.4876 60.4886 46.3081 59.9502 45.8594 59.9502L47.2055 59.2322C46.9363 59.5912 47.2055 60.0399 47.385 60.3091L48.3722 62.104C48.9106 63.0015 49.4491 63.1809 50.167 62.822C50.526 62.6425 50.885 62.2835 50.885 61.8348C50.885 61.5656 50.7952 61.3861 50.7055 61.1168L49.5388 59.0527C49.3594 58.7835 49.0901 58.2451 48.7312 58.2451L50.0773 57.5271C49.8081 57.8861 50.0773 58.3348 50.2568 58.604L51.6927 61.2066C51.8722 61.4758 52.0516 62.0143 52.5004 62.0143L51.5132 62.5527L51.3337 62.2835Z" fill="#004EA2"/>
<path d="M53.9337 59.9503C54.2029 60.3092 54.3824 60.4887 54.9208 60.4887L53.8439 61.3862C54.0234 60.9374 53.8439 60.6682 53.485 60.399L51.5106 57.9759C51.2414 57.6169 51.0619 57.4374 50.5234 57.5272L51.4209 56.8092C51.5106 56.899 51.5106 56.899 51.6004 56.899L51.7798 56.9887L56.267 57.8862L54.3824 55.6426C54.1132 55.2836 53.9337 55.1041 53.3952 55.1041L54.4721 54.2067C54.2926 54.6554 54.4721 54.9246 54.8311 55.1938L57.6131 58.5144C57.0747 58.6938 56.7157 58.6938 56.1773 58.6041L51.9593 57.7067L53.9337 59.9503Z" fill="#004EA2"/>
<path d="M55.9988 53.9374C55.7296 53.6682 55.3706 53.3092 54.9219 53.4887L55.9091 52.4117C55.7296 52.7707 56.268 53.1297 56.4475 53.3989L58.6911 55.3733C58.9603 55.6425 59.3193 56.0015 59.6783 55.822L58.6911 56.8989C58.8706 56.5399 58.4219 56.181 58.1526 55.9117L55.9988 53.9374Z" fill="#004EA2"/>
<path d="M59.2309 50.0784C58.8719 49.6297 58.5129 49.0015 58.0642 49.2708L58.6924 48.2836L61.9231 53.04C61.2949 53.3092 61.1155 53.399 60.4873 53.2195L57.3462 52.4118C56.8975 52.322 56.4488 52.1425 56.0898 52.2323L56.718 51.3349L56.8078 51.4246C56.9873 51.5143 57.3462 51.6041 57.5257 51.6938L61.0257 52.5913L59.2309 50.0784Z" fill="#004EA2"/>
<path d="M63.3581 49.0912L63.8966 48.2835C64.1658 47.8348 64.2556 47.2963 64.0761 46.7579L64.8838 47.4758L63.4479 50.3476C63.5376 49.8989 62.9094 49.7194 62.6402 49.5399L59.9479 48.2835C59.5889 48.104 59.1402 47.8348 58.7812 48.104L59.8582 45.8604C59.9479 45.7707 59.9479 45.5912 59.9479 45.5015L60.7556 45.8604C60.3966 45.9502 60.2171 46.2194 60.0377 46.5784C59.9479 46.8476 59.7684 47.0271 59.7684 47.2963L61.1146 47.9245L61.5633 47.1168C61.653 47.0271 61.653 46.9374 61.653 46.7579L62.371 47.1168C62.1017 47.1168 62.012 47.3861 61.8325 47.6553L61.5633 48.1938L63.3581 49.0912Z" fill="#004EA2"/>
<path d="M60.933 43.0784C61.292 42.0913 61.9202 41.7323 62.6381 41.9118C63.2663 42.0913 63.6253 42.899 63.5355 43.5272L65.2407 42.899C65.6894 42.7195 66.2278 42.3605 66.6765 42.0015L66.4073 42.7195C66.3176 43.0784 66.1381 43.3477 65.7791 43.4374L64.3432 43.9759L63.0868 44.3349C63.1766 43.7066 63.1766 42.899 62.4586 42.7195C61.9202 42.54 61.4714 42.899 61.292 43.4374C61.2022 43.6169 61.2022 43.7964 61.2022 43.9759L64.5227 45.0528C64.8817 45.1425 65.4201 45.4118 65.6894 45.0528L65.2407 46.4887C65.2407 46.04 64.7022 45.9502 64.3432 45.8605L61.5612 44.9631C61.2022 44.8733 60.6638 44.6041 60.3945 44.9631L60.933 43.0784Z" fill="#004EA2"/>
<path d="M62.9977 38.0528C62.6387 38.3221 62.3694 38.7708 62.2797 39.2195C62.19 39.6682 62.2797 40.2067 62.8182 40.2964C63.8951 40.4759 64.2541 37.8733 65.6899 38.0528C66.4976 38.1426 67.1258 39.1297 66.9463 40.3862C66.8566 40.8349 66.6771 41.2836 66.4976 41.7323L65.5105 41.8221C65.9592 41.4631 66.3181 40.8349 66.4079 40.2964C66.4976 39.8477 66.3181 39.1297 65.7797 39.04C64.613 38.8605 64.3438 41.5528 62.7284 41.2836C61.7412 41.1041 61.5618 40.1169 61.7412 39.1297C61.831 38.7708 61.9207 38.3221 62.1002 38.0528H62.9977Z" fill="#004EA2"/>
<path d="M63.1785 36.7963C62.8195 36.7963 62.281 36.7066 62.1016 37.0655L62.1913 35.6296C62.281 35.9886 62.9092 35.9886 63.2682 35.9886L66.2297 36.1681C66.5887 36.1681 67.1272 36.2578 67.3067 35.8989L67.2169 37.3348C67.1272 36.9758 66.499 36.9758 66.14 36.9758L63.1785 36.7963Z" fill="#004EA2"/>
<path d="M66.2294 32.7579C66.6782 32.7579 66.9474 32.7579 67.2166 32.3092L67.3064 33.8348C67.1269 33.4758 66.5884 33.5656 66.2294 33.5656L62.7295 33.7451V34.463C62.7295 34.822 62.8192 35.181 63.0884 35.3604L62.1013 35.181C62.1013 35.0912 62.1013 35.0015 62.1013 34.9117V34.7322L61.9218 31.8604C61.9218 31.7707 61.9218 31.5912 61.832 31.5015L62.8192 31.681C62.55 31.7707 62.55 32.1297 62.55 32.3989V33.1169L66.2294 32.7579Z" fill="#004EA2"/>
<path d="M65.5107 28.0913C65.9594 28.0015 66.2286 27.9118 66.4081 27.5528L66.6774 29.0785C66.4081 28.7195 65.9594 28.899 65.6004 28.9887L64.4338 29.2579L62.6389 30.9631C62.3697 31.2323 62.1005 31.4118 62.0107 31.8605L61.8312 31.1426C61.7415 30.8733 61.8312 30.6938 61.921 30.5144L63.7158 28.899L62.1005 28.2708C61.921 28.181 61.4723 28.0913 61.3825 28.54L61.1133 27.1938L64.344 28.4503L65.5107 28.0913Z" fill="#004EA2"/>
<path d="M8.2562 22.6169C8.2562 22.9758 7.98697 23.2451 7.53826 23.2451C7.17929 23.2451 6.82031 22.9758 6.82031 22.6169C6.82031 22.2579 7.08954 21.8989 7.53826 21.8989C7.98697 21.8989 8.2562 22.1682 8.2562 22.6169Z" fill="#004EA2"/>
<path d="M63.0882 22.6169C63.0882 22.9758 62.819 23.2451 62.3703 23.2451C62.0113 23.2451 61.6523 22.9758 61.6523 22.6169C61.6523 22.2579 61.9216 21.8989 62.3703 21.8989C62.7293 21.8989 63.0882 22.1682 63.0882 22.6169Z" fill="#004EA2"/>
<path d="M36.9745 3.41177H36.3463V1.79639H35.5386V5.92459C35.2694 6.19382 34.8207 6.19382 34.8207 6.19382H32.5771C32.5771 6.19382 32.4874 6.19382 32.4874 6.10408V2.87331H34.9104V2.2451H31.6797V6.10408C31.6797 6.46305 31.9489 6.82203 32.3976 6.82203H34.731C34.731 6.82203 35.0899 6.82203 35.4489 6.64254V8.88613H36.2566V4.03998H36.8848V8.88613H37.6925V1.79639H36.8848V3.41177H36.9745Z" fill="#004EA2"/>
<path d="M11.1284 18.4886L13.1925 16.2451L14.9874 17.8604L15.5258 17.2322L13.731 15.6168L15.7053 13.463L15.2566 13.0143L10.6797 18.0399L11.1284 18.4886Z" fill="#004EA2"/>
<path d="M10.2321 16.5143C10.5013 16.7835 10.95 16.7835 11.2192 16.4246L13.732 13.6425C14.0013 13.3733 14.0013 12.9246 13.6423 12.6553L11.668 10.8605L11.1295 11.4887L11.9372 12.2066L9.51412 14.8989L8.70643 14.181L8.16797 14.8092L10.2321 16.5143ZM12.4756 12.6553L13.1936 13.2836V13.3733L10.8603 15.9759H10.7705L10.0526 15.3477L12.4756 12.6553Z" fill="#004EA2"/>
<path d="M23.7843 3.77075L22.9766 4.03998L25.1304 8.70665L25.8483 8.43742L24.6817 5.74511L25.5791 5.29639L25.3996 4.75793L24.4125 5.20665L23.7843 3.77075Z" fill="#004EA2"/>
<path d="M22.6155 11.1297L21.8078 9.42456L21.0898 9.78353L21.8975 11.4887C22.077 11.8476 22.436 12.0271 22.795 11.8476L26.6539 10.1425L26.3847 9.60405L22.6155 11.1297Z" fill="#004EA2"/>
<path d="M20.8224 5.92459L20.5532 5.29639L19.8352 5.65536L20.1045 6.28357C20.9122 8.16818 19.2968 9.33485 19.207 9.42459L19.925 9.69382C20.2839 9.33485 21.0916 8.6169 21.0916 7.53998C21.8993 8.16818 22.9762 8.07844 23.5147 8.07844L23.7839 7.36049C23.6044 7.36049 21.6301 7.80921 20.8224 5.92459Z" fill="#004EA2"/>
<path d="M58.3339 15.1682L57.7954 14.6297L55.8211 16.5143L55.1929 15.7964L57.1672 13.9118L56.6288 13.3733L54.6544 15.2579L53.4878 14.0015L53.0391 14.4502L57.5262 19.2066L57.9749 18.8477L56.3596 17.0528L58.3339 15.1682Z" fill="#004EA2"/>
<path d="M58.9631 15.8861C58.1554 16.6938 57.4375 16.8733 57.4375 16.8733L57.976 17.4118C57.976 17.4118 58.6042 17.1425 59.5016 16.4246L61.5657 14.54L57.976 10.7708L57.5272 11.2195L60.5785 14.4502L58.9631 15.8861Z" fill="#004EA2"/>
<path d="M51.1534 8.07832L51.3329 7.53985L50.4355 7.09114L51.0637 5.65524L50.3457 5.29626L48.6406 9.15524L49.3586 9.51421L50.1663 7.71934L51.1534 8.07832Z" fill="#004EA2"/>
<path d="M49.2679 9.78344L44.6013 7.80908L44.332 8.34754L48.2807 10.0527L47.473 11.8475L48.191 12.1168L49.2679 9.78344Z" fill="#004EA2"/>
<path d="M49.4479 5.65527L47.5633 4.84757L47.9223 4.12963L47.2043 3.77065L46.8453 4.4886L44.9607 3.68091L44.7812 4.39886L45.6787 4.75783C45.3197 4.93732 45.0505 5.20655 44.9607 5.47578C44.6018 6.28347 45.0505 7.27065 45.9479 7.71937C46.8453 8.07834 47.9223 7.80911 48.2812 6.91168C48.4607 6.5527 48.4607 6.19373 48.371 5.83475L49.2684 6.28347L49.4479 5.65527ZM46.2171 7.09116C45.6787 6.91168 45.4992 6.28347 45.6787 5.83475C45.8582 5.29629 46.4864 5.11681 47.0248 5.29629C47.5633 5.47578 47.7428 6.10399 47.5633 6.64245C47.2941 7.09116 46.7556 7.3604 46.2171 7.09116Z" fill="#004EA2"/>
<path d="M70 35.0015C70 54.3861 54.295 70.0015 35.0002 70.0015C15.6157 70.0015 0.000382708 54.2963 0.000382708 35.0015C-0.0893604 15.7066 15.6157 0.00146484 34.9104 0.00146484C54.295 0.00146484 70 15.7066 70 35.0015ZM34.9104 0.450183C15.8849 0.450183 0.359355 15.9758 0.359355 35.0015C0.359355 54.1168 15.7952 69.5527 34.9104 69.5527C54.0257 69.5527 69.4615 54.1168 69.4615 35.0015C69.5513 15.9758 54.0257 0.450183 34.9104 0.450183Z" fill="#004EA2"/>
<path d="M60.3063 35.0014C60.3063 49.0014 48.9089 60.3989 34.909 60.3989C20.9091 60.3989 9.51172 49.0014 9.51172 35.0014C9.51172 21.0014 20.9091 9.604 34.909 9.604C48.9987 9.69375 60.3063 21.0014 60.3063 35.0014ZM34.909 10.1425C21.1783 10.1425 9.96043 21.2707 9.96043 35.0912C9.96043 48.8219 21.0886 60.0399 34.909 60.0399C48.6397 60.0399 59.8576 48.9117 59.8576 35.0912C59.8576 21.2707 48.7295 10.1425 34.909 10.1425Z" fill="#004EA2"/>
<path d="M50.7946 48.8219H39.0382C35.3588 48.8219 34.9101 51.245 34.9101 51.245C34.1921 48.5527 30.6921 48.8219 30.6921 48.8219H19.1153V31.9501H30.2434C33.9229 32.0399 34.9101 34.9117 34.9101 34.9117C36.0767 31.9501 39.9357 31.9501 39.9357 31.9501H50.7946V48.8219ZM39.2177 30.245C35.987 30.3347 34.9998 32.2194 34.9998 32.2194C34.0126 30.245 30.8716 30.245 30.8716 30.245H17.4102V50.527H30.5126C32.3075 50.527 32.9357 51.3347 33.1152 51.9629H36.7049C37.3331 50.4373 39.128 50.527 39.128 50.527H52.41V30.245H39.2177Z" fill="#009A53"/>
<path d="M28.0883 39.6681H23.2422V44.604H29.9729V41.3732H31.678V44.604H38.4088V41.3732H40.1139V44.604H46.8446V42.8988H41.9985V41.3732H46.8446V36.2578H40.1139V39.6681H38.4088V36.2578H36.6139V39.6681H33.5626V36.2578H31.7678V39.6681H30.0627V36.2578H23.2422V37.9629H28.0883V39.6681ZM28.0883 42.8988H25.037V41.3732H28.0883V42.8988ZM36.4344 42.8988H33.3832V41.3732H36.4344V42.8988ZM41.819 37.9629H44.8703V39.6681H41.819V37.9629Z" fill="#009A53"/>
<path d="M33.9219 20.8219L35.5373 20.2834H33.9219V20.8219Z" fill="#004EA2"/>
<path d="M30.423 23.1553C31.0512 22.5271 31.6794 22.6168 31.6794 22.886C31.6794 23.1553 31.4102 23.5143 31.4102 23.5143H27.5512L25.4871 20.463C24.9487 19.6553 24.3205 19.386 23.1538 19.386C22.0769 19.386 19.9231 19.386 17.5 19.386V28.5399C20.9102 28.5399 29.4358 28.5399 30.423 28.5399C34.1922 28.5399 34.9999 30.1553 34.9999 30.1553C35.8076 28.8989 37.3332 28.5399 39.6665 28.5399C40.8332 28.5399 49.1793 28.5399 52.4998 28.5399V19.386C49.987 19.386 47.9229 19.386 46.7563 19.386C45.6793 19.386 44.9614 19.745 44.4229 20.463L42.2691 23.5143C42.2691 23.5143 40.564 23.5143 39.0383 23.5143V20.8219L41.1922 18.6681H38.9486L39.4871 18.1296H34.9102C34.0127 18.1296 33.2948 18.4886 33.0256 19.0271H31.4102C29.9743 19.0271 29.4358 19.8348 29.7051 20.9117L30.423 23.1553ZM50.7947 26.8348C44.6922 26.8348 44.5127 26.8348 40.0255 26.8348C37.1537 26.8348 35.8076 27.0143 34.9102 28.0014C33.923 27.0143 33.205 26.8348 30.3333 26.8348C27.9102 26.8348 21.1795 26.8348 19.1154 26.8348V21.0912H22.6154C22.9743 21.0912 23.2436 21.1809 23.423 21.2707C23.6025 21.3604 23.782 21.5399 23.9615 21.8091C24.2307 22.1681 26.2948 25.2194 26.2948 25.2194H32.3076C32.3076 25.2194 32.8461 24.0527 33.205 23.245C33.564 22.4373 33.4743 21.8989 32.6666 21.8091C32.0384 21.7194 31.6794 21.8989 31.5897 22.1681L31.3204 21.2707C31.141 20.8219 31.2307 20.463 31.9486 20.463H33.923C33.923 20.463 33.923 19.8348 34.9999 19.8348H38.2307L37.3332 20.6425V25.2194H43.5255C43.5255 25.2194 45.4998 22.1681 45.7691 21.8091C45.9486 21.5399 46.2178 21.3604 46.3075 21.2707C46.487 21.1809 46.7563 21.0912 47.1152 21.0912H50.7049V26.8348H50.7947Z" fill="#004EA2"/>
<path d="M32.2188 46.3989C32.488 46.3092 32.6675 46.1297 32.7572 45.9502V47.3861C32.7572 47.5656 32.7572 47.6553 32.847 47.7451H32.3085C32.488 47.6553 32.488 47.5656 32.488 47.3861V46.3989H32.2188Z" fill="#009A53"/>
<path d="M33.5622 47.6553C34.0109 47.5656 34.3699 47.2066 34.3699 46.7579C34.3699 46.4887 34.1904 46.2194 33.9212 46.2194C33.7417 46.2194 33.5622 46.3989 33.5622 46.5784C33.5622 46.8476 33.7417 47.0271 33.9212 47.0271C34.0109 47.0271 34.1007 47.0271 34.1904 46.9374L34.0109 47.1169C33.9212 47.1169 33.8314 47.1169 33.8314 47.1169C33.5622 47.1169 33.293 46.8476 33.293 46.5784C33.293 46.2194 33.5622 45.9502 33.9212 45.9502C34.3699 45.9502 34.5494 46.3092 34.5494 46.6681C34.5494 46.9374 34.3699 47.2066 34.1904 47.3861C33.9212 47.5656 33.6519 47.6553 33.3827 47.7451L33.5622 47.6553Z" fill="#009A53"/>
<path d="M35.6279 47.2066C35.3587 47.2066 35.1792 47.2066 35.0894 47.2066L35.6279 46.3091V47.2066ZM35.6279 47.3861C35.6279 47.5656 35.6279 47.6553 35.5382 47.745H36.0766C35.9869 47.6553 35.9869 47.5656 35.9869 47.4758V47.3861H36.1664L36.2561 47.1168C36.1664 47.2066 36.0766 47.2066 35.8971 47.2066V46.0399H35.5382L34.7305 47.3861H35.6279Z" fill="#009A53"/>
<path d="M37.4248 46.2194C37.2453 46.2194 37.0658 46.3989 36.8863 46.4886C36.7966 46.6681 36.7068 46.8476 36.7068 47.1168C36.7068 47.3861 36.8863 47.6553 37.1555 47.6553C37.4248 47.6553 37.5145 47.4758 37.5145 47.2963C37.5145 47.0271 37.4248 46.8476 37.1555 46.8476C37.0658 46.8476 36.9761 46.8476 36.8863 46.9374L37.0658 46.7579C37.1555 46.7579 37.2453 46.6681 37.335 46.6681C37.694 46.6681 37.8735 46.8476 37.8735 47.2066C37.8735 47.5656 37.6043 47.8348 37.2453 47.8348C36.7966 47.8348 36.5273 47.4758 36.5273 47.1168C36.5273 46.4886 37.1555 46.1297 37.694 46.0399L37.4248 46.2194Z" fill="#009A53"/>
</svg>
