<svg width="70" height="70" viewBox="0 0 70 70" fill="none" xmlns="http://www.w3.org/2000/svg">
<g clip-path="url(#clip0_2521_55342)">
<path d="M57.3433 55.1881C57.3433 55.1881 56.7624 55.769 56.7209 55.852C56.8038 55.935 58.0902 57.1383 58.0902 57.1383L57.3848 57.8852C57.3848 57.8852 56.0985 56.6819 56.0155 56.5989C55.9325 56.6819 55.3931 57.2213 55.3516 57.3043C55.4346 57.3873 56.7209 58.5906 56.7209 58.5906C56.7209 58.5906 55.8495 59.5035 55.7665 59.5865C55.8495 59.6694 56.3474 60.1259 56.3889 60.1674C56.4719 60.0844 60.9947 55.3541 61.0777 55.2711C60.9947 55.1881 60.4968 54.7317 60.4553 54.6902C60.3723 54.7732 58.7955 56.4329 58.7955 56.4329C58.7955 56.4329 57.5092 55.2296 57.4263 55.1466C57.3848 55.1881 57.3433 55.1881 57.3433 55.1881Z" fill="#76777A"/>
<path d="M59.2527 54.4828C59.1697 54.3998 56.5556 51.9101 56.4726 51.8271C56.4311 51.8686 56.4311 51.8686 56.4311 51.8686C56.4311 51.8686 52.4892 55.9765 52.4062 56.0595C52.4892 56.1425 52.9872 56.5989 53.0287 56.6404C53.1116 56.5574 56.3896 53.1135 56.3896 53.1135C56.3896 53.1135 58.4643 55.1052 58.5473 55.1466L59.2527 54.4828Z" fill="#76777A"/>
<path d="M11.1611 56.5575C10.4557 57.2214 10.4972 58.3417 11.2026 59.1301C11.908 59.877 13.0698 60.0015 13.7337 59.3376C14.4391 58.6737 14.3976 57.5533 13.6922 56.7649C12.9868 56.0181 11.825 55.8936 11.1611 56.5575ZM11.7835 57.2214C12.157 56.8894 12.7379 56.9309 13.1528 57.3459C13.5262 57.7608 13.5262 58.3417 13.1943 58.7152C12.8209 59.0471 12.2399 59.0056 11.825 58.5907C11.4101 58.1757 11.4101 57.5533 11.7835 57.2214Z" fill="#76777A"/>
<path d="M17.426 55.8106C17.426 55.8106 16.8866 55.2297 16.8036 55.1467C16.7206 55.2297 16.0152 55.8936 16.0152 55.8936C16.0152 55.8936 15.3098 55.1467 15.2683 55.0637C15.1853 55.1467 14.7289 55.5616 14.6459 55.6446C14.7289 55.7276 15.3928 56.4745 15.3928 56.4745C15.3928 56.4745 14.4385 57.3874 14.3555 57.4289C14.4385 57.5119 14.9364 58.0513 15.0194 58.1343C15.1024 58.0513 17.3845 55.9351 17.4675 55.8521L17.426 55.8106Z" fill="#76777A"/>
<path d="M14.5646 52.6985C14.5646 52.6985 11.0791 52.823 10.9961 52.8645C10.9961 52.9474 11.0376 53.7358 11.0791 53.8188C11.1621 53.8188 13.6517 53.6528 13.6517 53.6528C13.6517 53.6528 13.3612 55.9765 13.3197 56.0595C13.4027 56.0595 14.1496 56.184 14.2741 56.184C14.2741 56.0595 14.6475 52.823 14.689 52.6985C14.5646 52.6985 14.5646 52.6985 14.5646 52.6985Z" fill="#76777A"/>
<path d="M42.9887 67.3874L43.943 67.2214L42.8642 61.0388C42.8227 61.0388 42.7812 61.0388 42.7812 61.0388C42.7812 61.0388 41.9928 61.1633 41.9098 61.2048C41.9098 61.3293 42.2418 63.1135 42.2418 63.1135L41.7023 63.1965C41.7023 63.1965 41.4119 61.4123 41.3704 61.2878L40.416 61.4538L41.0799 65.3957C40.3331 65.5201 38.0924 65.8936 38.0924 65.8936L37.553 62.8645C37.553 62.8645 39.6692 62.4911 39.7521 62.4911L39.6277 61.7027L36.5156 62.2421C36.7231 63.3625 37.304 66.8064 37.304 66.8894L41.2044 66.2255L41.4534 67.6363L42.4077 67.4704C42.4077 67.3459 41.8268 64.0264 41.8268 64.0264L42.3662 63.9434C42.4077 63.9019 42.9887 67.2629 42.9887 67.3874Z" fill="#76777A"/>
<path d="M23.8586 62.6156C23.8586 62.6156 23.7341 62.5741 23.5682 62.4496L24.73 60.2504C24.6885 60.2504 24.6885 60.209 24.6885 60.209C24.6885 60.209 19.7922 57.5948 19.6678 57.5533L19.2528 58.3002C19.3358 58.3417 23.4437 60.5409 23.4437 60.5409C23.4437 60.5409 22.9873 61.4123 22.6968 61.9932L18.091 59.545L17.6761 60.2919C17.759 60.3334 19.4603 61.2463 19.4603 61.2463C19.4603 61.2463 18.9624 62.1592 18.9209 62.2421L19.7922 62.6986C19.8337 62.6156 20.3317 61.7027 20.3317 61.7027L21.0785 62.1177C21.0785 62.1177 20.5806 63.0305 20.5391 63.1135L21.4105 63.5699C21.452 63.487 21.9499 62.5741 21.9499 62.5741C21.9499 62.5741 23.3607 63.321 23.4437 63.3625L23.8586 62.6156ZM18.6719 61.4953L17.842 61.0388L16.8047 63.0305L21.9499 65.7691L22.3649 65.0222C22.2819 64.9807 18.0495 62.7401 18.0495 62.7401C18.0495 62.7401 18.6304 61.5782 18.6719 61.4953Z" fill="#76777A"/>
<path d="M27.923 65.3126C27.8815 65.3126 27.8815 65.3126 27.8815 65.3126C27.8815 65.3126 27.0932 65.1466 26.9687 65.1466L26.6367 67.3458L32.4458 68.2587L32.5703 67.4288C32.4458 67.4288 27.7156 66.6819 27.7156 66.6819C27.7156 66.6819 27.923 65.3956 27.923 65.3126ZM33.2342 63.1549C33.2342 63.1549 33.4002 62.1591 33.4002 62.0761C33.3587 62.0761 33.3587 62.0761 33.3587 62.0761C33.3587 62.0761 32.5703 61.9516 32.4873 61.9516L32.0724 64.5242L31.118 64.3583L31.4915 61.9101C31.45 61.9101 31.45 61.9101 31.45 61.9101C31.45 61.9101 27.5911 61.2877 27.4666 61.2877L27.3421 62.1176C27.4666 62.1176 30.4127 62.6155 30.4127 62.6155C30.4127 62.6155 30.2467 63.7359 30.1637 64.2338C29.6243 64.1508 29.2093 64.0678 29.2093 64.0678C29.2093 64.0678 29.3338 63.2794 29.3338 63.1549C29.2923 63.1549 29.2923 63.1549 29.2923 63.1549C29.2923 63.1549 28.5039 63.0305 28.3795 63.0305C28.3795 63.1134 28.255 63.9433 28.255 63.9433C28.255 63.9433 26.8857 63.7359 26.8027 63.6944L26.6782 64.5242L31.9894 65.3541L31.8234 66.35L32.7778 66.5159C32.7778 66.3915 33.1512 64.0263 33.1512 64.0263C33.1512 64.0263 34.0226 64.1508 34.1056 64.1923L34.2301 63.3624C34.1056 63.2794 33.2342 63.1549 33.2342 63.1549Z" fill="#76777A"/>
<path d="M50.4134 57.3043C50.4134 57.3043 49.708 57.6778 49.625 57.7192C49.6665 57.8022 51.3677 60.8728 51.4092 60.9558C51.4922 60.9143 52.1561 60.5408 52.2391 60.4993C52.1976 60.4163 51.3677 58.9226 51.3677 58.9226C51.3677 58.9226 52.1146 58.5076 52.1976 58.4661C52.1561 58.3831 51.8242 57.8022 51.7827 57.7192C51.6997 57.7607 50.9528 58.1757 50.9528 58.1757C50.9528 58.1757 50.4964 57.3043 50.4134 57.2213C50.4134 57.3043 50.4134 57.3043 50.4134 57.3043Z" fill="#76777A"/>
<path d="M52.4055 60.9143C52.4055 60.9143 47.3432 63.7359 47.2188 63.7774C47.2602 63.8604 47.5922 64.4413 47.6337 64.5243C47.7167 64.4828 52.032 62.0761 52.032 62.0761C52.032 62.0761 52.6129 63.1135 52.6544 63.1965C52.7374 63.155 53.4013 62.7815 53.4843 62.74C53.4428 62.657 52.4885 60.9558 52.447 60.8728C52.4055 60.9143 52.4055 60.9143 52.4055 60.9143Z" fill="#76777A"/>
<path d="M48.7974 58.3002L47.2621 59.1715L46.9717 58.6736L46.1418 59.13L46.4322 59.628L44.8555 60.4993L45.2289 61.2047L45.8098 60.8728C45.7683 61.2047 45.8513 61.5367 46.0173 61.8686C46.5152 62.74 47.677 63.0305 48.5899 62.5325C49.5028 62.0346 49.8762 60.8728 49.3783 60.0014C49.2123 59.711 48.9634 59.462 48.6729 59.296L49.2123 59.0056L48.7974 58.3002ZM48.175 61.7027C47.7185 61.9516 47.1791 61.8271 46.9302 61.3707C46.6812 60.9558 46.8472 60.4164 47.3036 60.1674C47.76 59.9184 48.2995 60.0429 48.5484 60.4993C48.7974 60.9143 48.6314 61.4537 48.175 61.7027Z" fill="#76777A"/>
<path d="M67.5915 37.5118L66.8446 37.0554C67.5915 36.7234 67.633 35.9351 67.633 35.9351C67.6745 35.3541 67.3011 34.8977 66.8031 34.8977C66.1392 34.8977 65.8903 35.4786 65.5998 36.184C65.3094 36.9309 64.8114 37.7193 63.8571 37.7608C62.7367 37.8438 61.9484 36.8064 61.9898 35.4371C62.0313 34.1093 62.9857 33.4454 62.9857 33.4454L63.8571 33.8189C63.8571 33.8189 62.6537 34.2338 62.5708 35.6861C62.5293 36.35 63.0272 36.8479 63.6496 36.8064C64.3135 36.8064 64.5625 36.2255 64.8529 35.5616C65.1434 34.8147 65.5168 33.9434 66.5957 33.9434C67.633 33.9434 68.2969 34.7732 68.2139 36.0595C68.2139 36.101 68.1724 36.9309 67.5915 37.5118Z" fill="#76777A"/>
<path d="M4.56466 46.9724L5.39454 47.0554C4.85512 47.7193 5.18707 48.3832 5.18707 48.3832C5.43603 48.9226 5.93396 49.1716 6.39039 48.9226C7.0128 48.6322 6.9713 47.9683 6.88832 47.2214C6.84682 46.433 6.92981 45.5201 7.75968 45.0637C8.75554 44.4828 9.87587 45.0637 10.4568 46.35C10.9962 47.5948 10.4568 48.5907 10.4568 48.5907L9.50242 48.6322C9.50242 48.6322 10.4153 47.7608 9.83437 46.3915C9.58541 45.8106 8.92151 45.5616 8.38209 45.8521C7.75968 46.1425 7.80118 46.7649 7.84267 47.5118C7.88417 48.3417 7.96715 49.2546 6.9713 49.711C6.01695 50.1674 5.10408 49.711 4.60616 48.5077C4.64765 48.5077 4.27421 47.7608 4.56466 46.9724Z" fill="#76777A"/>
<path d="M3.65186 25.6447L3.61037 25.7276C3.48589 25.8521 2.86348 26.4745 2.61452 27.7608C2.19958 29.7525 3.11244 31.2048 4.93817 31.5783C6.80539 31.9517 8.13319 31.0388 8.54813 29.0886C8.71411 28.3417 8.7556 27.5534 8.63112 26.765V26.682L6.39045 26.2256L6.18298 27.1384L8.0917 27.5119C8.21618 27.9683 8.17469 28.4247 8.0917 28.7152C7.80124 30.209 6.7224 30.8314 5.10415 30.4994C3.61037 30.1675 2.82199 29.2131 3.11245 27.8438C3.23693 27.1384 3.69336 26.4745 4.27427 26.1426L4.31576 26.1011L3.65186 25.6447Z" fill="#76777A"/>
<path d="M9.37575 13.902L8.83633 14.6489L10.1641 17.4289L7.09359 17.1385L6.42969 18.0928L10.4546 18.3418C10.4961 18.3833 12.4463 19.7526 12.4463 19.7526L12.9857 19.0057C12.9857 19.0057 10.9525 17.5949 10.911 17.5534L9.37575 13.902Z" fill="#76777A"/>
<path d="M64.2323 50.7069L64.6057 49.877L62.7385 47.3874L65.809 47.0969L66.2655 46.0181L62.2821 46.5575C62.2406 46.516 60.0414 45.5616 60.0414 45.5616L59.668 46.433C59.668 46.433 61.9501 47.4289 61.9916 47.4289L64.2323 50.7069Z" fill="#76777A"/>
<path d="M7.51143 22.0761L6.26661 18.4247L5.85168 19.2961L7.0135 22.6985C6.84753 22.6156 4.73134 21.5782 4.73134 21.5782L4.31641 22.4081L9.58612 24.9807L10.0011 24.1508L7.42844 22.906L11.0384 22.0346L11.5778 20.9558L7.51143 22.0761Z" fill="#76777A"/>
<path d="M25.1029 6.30861L26.8456 2.86462L25.9328 3.15508L24.3145 6.3916C24.273 6.22562 23.5261 3.94346 23.5261 3.94346L22.6133 4.23392L24.439 9.83558L25.3104 9.54512L24.439 6.84803L27.5925 8.79823L28.7129 8.42479L25.1029 6.30861Z" fill="#76777A"/>
<path d="M30.0013 8.13428L30.6652 8.09279L31.7856 3.44549L33.6943 7.76084L34.4827 7.71935L35.852 1.66125L35.0636 1.74424L33.9433 6.51603L31.993 2.0347L31.4536 2.11769L30.3748 6.84798L28.5076 2.40814L27.5117 2.49113L30.0013 8.13428Z" fill="#76777A"/>
<path d="M39.0865 2.07616L38.6716 2.03467L35.4766 7.63633L36.2649 7.71932L37.4683 5.60313L39.2525 5.8106L39.8749 8.13425L40.9537 8.25873L39.0865 2.07616ZM38.6301 3.36247C38.7131 3.69442 39.045 5.02222 39.0865 5.27118L37.6757 5.10521L38.6301 3.36247Z" fill="#76777A"/>
<path d="M62.106 16.0744L57.2617 19.3549L57.7968 20.1451L62.6411 16.8646L62.106 16.0744Z" fill="#76777A"/>
<path d="M61.9207 38.8161L61.7695 39.7584L67.5464 40.6852L67.6976 39.7428L61.9207 38.8161Z" fill="#76777A"/>
<path d="M53.3181 11.4123C52.4882 12.6156 51.6169 12.8231 50.704 12.1592C49.6667 11.4538 49.6252 10.7484 50.4965 9.4621L52.3637 6.765L51.5754 6.22559L49.6667 9.00567C49.2517 9.58658 48.8783 10.292 49.0442 10.9974C49.2102 11.6198 49.5837 12.1177 50.2891 12.6156C51.5754 13.487 52.8202 13.2795 53.733 11.9517L55.7247 9.08866L55.1853 8.71521L53.3181 11.4123Z" fill="#76777A"/>
<path d="M15.3942 12.4496C16.39 13.487 16.4315 14.3584 15.6432 15.1467C14.7303 16.0181 14.0249 15.9351 12.9461 14.8148L10.6639 12.4911L10 13.155L12.3651 15.5617C12.8631 16.0596 13.4855 16.5575 14.1909 16.5575C14.8133 16.516 15.3942 16.2256 16.0166 15.6447C17.1369 14.5243 17.1784 13.321 16.0166 12.1592L13.5685 9.66956L13.112 10.126L15.3942 12.4496Z" fill="#76777A"/>
<path d="M5.60075 40.1259C7.01154 39.794 7.79992 40.2089 8.04888 41.3292C8.33934 42.5741 7.88291 43.1135 6.38913 43.4454L3.19411 44.1923L3.40158 45.1052L6.67959 44.3168C7.38498 44.1508 8.13187 43.9019 8.46382 43.238C8.75428 42.6985 8.83727 42.0346 8.67129 41.2048C8.29785 39.6695 7.21901 39.0056 5.68374 39.379L2.28125 40.2089L2.44723 40.8728L5.60075 40.1259Z" fill="#76777A"/>
<path d="M59.0859 22.3252L59.3349 22.7816L65.6835 22.2837L65.31 21.5368L60.2893 22.0347L63.6088 18.2588L63.1108 17.3044L59.0859 22.3252Z" fill="#76777A"/>
<path d="M61.3699 25.9351C61.5359 25.8936 63.2371 25.3542 63.4031 25.2712L64.0255 27.2214L64.6064 27.0554L63.984 25.1052C64.15 25.0637 65.6852 24.5658 65.8512 24.5243L66.5151 26.6405L67.013 26.4745L66.0587 23.4869L60.457 25.2712L61.4114 28.3417L62.0753 28.1342L61.3699 25.9351Z" fill="#76777A"/>
<path d="M67.4682 41.7442L67.0117 41.6198L66.5138 43.3625C66.3063 43.321 61.3271 41.9102 61.3271 41.9102L61.0781 42.8231L66.2648 44.2754L65.8084 45.9766L66.2648 46.1011L67.4682 41.7442Z" fill="#76777A"/>
<path d="M61.6602 29.2131L61.7846 30.1259L64.6062 29.7525L62.1166 32.6156L62.2411 33.6114L64.7307 30.7483C64.8967 31.7027 65.6851 32.4496 66.5149 32.3666C67.4693 32.2421 67.8842 31.5782 67.7182 30.2919L67.4693 28.4662L61.6602 29.2131ZM65.1456 29.6695C65.3116 29.628 66.9299 29.4205 67.0958 29.4205L67.2203 30.2919C67.3033 31.0388 66.9299 31.3708 66.3904 31.4537C65.851 31.4952 65.3946 31.2878 65.2701 30.4579L65.1456 29.6695Z" fill="#76777A"/>
<path d="M19.5038 5.64465L18.9229 6.0181L21.1636 9.54507C19.0889 9.00565 15.5204 8.17577 15.5204 8.17577L15.1055 8.42474L18.259 13.404L18.8399 13.0305C18.8399 13.0305 17.5121 10.9559 16.4748 9.3376L22.3254 10.8314L22.6573 10.6239L19.5038 5.64465Z" fill="#76777A"/>
<path d="M1.86719 32.9891V33.653L6.05806 33.6115C4.52279 35.1053 1.95017 37.7609 1.95017 37.7609V38.2173L7.8008 38.0928V37.4289C7.8008 37.4289 5.35266 37.4704 3.40246 37.5119L7.71781 33.2796V32.8646L1.86719 32.9891Z" fill="#76777A"/>
<path d="M47.9261 4.44137L47.3037 4.2339L45.9759 8.17581C45.1045 6.2256 43.4447 2.94759 43.4447 2.94759L42.9883 2.78162L41.1211 8.34178L41.7435 8.54925C41.7435 8.54925 42.5319 6.2256 43.1543 4.39987L45.6854 9.87705L46.0589 10.0015L47.9261 4.44137Z" fill="#76777A"/>
<path d="M60.9556 14.3583L60.4992 13.8604L57.4286 16.7235C57.5946 14.6073 57.7191 10.9143 57.7191 10.9143L57.3871 10.5824L53.1133 14.5243L53.5697 15.0222C53.5697 15.0222 55.3539 13.3625 56.8062 12.0347L56.3913 18.0513L56.6817 18.3417L60.9556 14.3583Z" fill="#76777A"/>
<path d="M37.094 27.6362C37.094 22.823 40.953 18.964 45.7247 18.9225C46.8866 18.9225 47.9654 19.13 49.0027 19.5449C41.3264 12.491 29.4177 12.6985 21.9488 20.1259C14.7704 27.3873 14.3969 38.8395 20.8285 46.5159C22.4882 44.3167 24.7704 41.8271 27.5505 39.8354C29.7496 38.3001 32.7787 36.7649 35.1853 36.5159C37.509 36.3084 40.9115 36.5159 42.9861 37.5117C41.3679 35.852 39.6252 33.9848 38.7953 32.8644C37.7579 31.4122 37.094 29.6279 37.094 27.6362Z" fill="url(#paint0_linear_2521_55342)"/>
<path d="M36.4707 33.9848L27.3006 16.3915C25.5994 17.2214 24.0226 18.3002 22.5703 19.628L36.4292 33.9848H36.4707Z" fill="url(#paint1_linear_2521_55342)"/>
<path d="M36.5528 34.0264L37.7562 14.5658C36.1794 14.3998 34.5611 14.4413 32.9844 14.6903L36.5528 34.0264Z" fill="url(#paint2_linear_2521_55342)"/>
<path d="M36.4306 33.9849L17.551 27.0139C16.9286 28.6737 16.5136 30.4164 16.3477 32.2006L36.4721 34.0264L36.4306 33.9849Z" fill="url(#paint3_linear_2521_55342)"/>
<path d="M16.4727 36.8063C16.6801 38.1756 17.0121 39.5034 17.51 40.7897L36.4312 34.0677L16.4727 36.8063Z" fill="url(#paint4_linear_2521_55342)"/>
<path d="M20.455 51.2877C19.8741 50.7898 18.9198 49.8769 18.0484 48.7566C14.065 44.2753 9.50068 32.574 17.0525 21.9101C20.1646 17.5118 24.6459 14.5657 29.1272 13.3624C39.5007 10.5408 47.509 15.4371 51.1604 19.4205C51.5754 19.8769 51.4924 20.4163 51.2019 20.6653C50.7455 21.0388 50.3306 20.8313 49.4177 20.5823C48.0069 20.1674 46.7621 20.0844 45.4343 20.2504C42.3638 20.6238 39.7496 23.4869 40.1231 27.4288C40.455 31.0388 43.2351 33.6529 45.2268 35.3541C52.1148 41.4122 49.8326 47.8852 49.2517 49.296C47.343 54.1508 42.4882 57.5533 36.1812 57.5533C33.5671 57.5533 29.7911 56.8894 25.9737 54.4827C25.8077 54.3997 25.6833 54.2338 25.8492 53.9018C26.1397 53.1549 27.343 51.0388 27.8824 50.4163C29.7911 52.6155 32.9862 54.6487 36.5131 54.7732C41.3679 54.9392 44.4799 52.3251 45.6003 49.0056C46.8866 45.2711 45.5173 41.4537 41.8658 38.0097C38.7538 35.0636 35.9322 32.3251 35.7662 27.5948C35.6003 21.5782 40.87 17.9682 45.7248 18.2172C45.8907 18.2172 38.9613 13.2794 30.1646 16.2255C25.8077 17.6778 23.2351 20.2504 21.9903 21.7027C21.8243 21.9101 21.9073 22.1176 21.9903 22.2006C22.1148 22.408 25.1438 26.5989 25.1438 26.5989L19.7082 25.3541C19.7082 25.3541 19.5007 25.3126 19.3762 25.4786C17.675 28.4661 15.1438 37.0554 20.8285 44.8562C20.8285 44.8562 25.6418 37.2213 35.2268 36.5574C35.8492 36.5159 35.7662 36.7234 35.3513 36.8894C26.8036 40.0429 23.4426 46.35 21.2434 51.1632C21.1189 51.4537 20.7455 51.5367 20.455 51.2877Z" fill="#003B71"/>
<path d="M29.2934 45.3541C29.2934 45.3541 29.8328 45.1051 29.9988 45.0222V48.7151H30.6627V44.3583L30.5382 44.2753H30.4967C29.9988 44.5242 29.5009 44.7317 29.0859 44.9392L29.2934 45.3541Z" fill="#76777A"/>
<path d="M32.8625 46.5574C33.4019 46.5574 33.6509 46.8479 33.6924 47.4288C33.6924 48.0097 33.319 48.3832 32.7795 48.3832C32.3646 48.3832 32.0741 48.0927 31.9911 48.0097L31.9082 47.9267L31.7422 48.5077L31.7837 48.5491C32.0326 48.6736 32.3231 48.7566 32.738 48.7566C33.6924 48.7566 34.3978 48.1757 34.3978 47.3873C34.3978 46.6404 33.8169 46.433 33.4849 46.3915C33.8584 46.2255 34.1903 45.8935 34.1903 45.3541C34.1903 44.7317 33.6924 44.3583 32.9455 44.3583C32.2816 44.3583 31.9497 44.7732 31.9497 44.7732L32.2401 45.2711L32.2816 45.1467C32.3646 44.9392 32.6136 44.6902 32.904 44.6902C33.1945 44.6902 33.4849 44.8562 33.4849 45.3956C33.4849 45.8106 33.3604 46.267 32.8625 46.267L32.5306 46.2255V46.6404C32.5306 46.5989 32.6965 46.5574 32.8625 46.5574Z" fill="#76777A"/>
<path d="M35.3105 47.8437L35.4765 48.5491C35.4765 48.5491 35.7669 48.7151 36.1404 48.7151C37.2607 48.7151 38.0491 47.6778 38.0491 46.1425C38.0491 44.4827 37.0118 44.2753 36.5968 44.2753C35.7254 44.2753 35.1445 44.8562 35.1445 45.6861C35.1445 46.4744 35.6425 46.9724 36.4308 46.9724C36.8458 46.9724 37.1362 46.8064 37.3852 46.5159C37.3437 47.4703 36.9703 48.3002 36.2234 48.3002C35.5595 48.3417 35.3105 47.8437 35.3105 47.8437ZM36.5138 46.6404C36.0574 46.6404 35.8084 46.35 35.8084 45.6861C35.8084 45.0637 36.0989 44.6072 36.5553 44.6072C37.0118 44.6072 37.3022 44.9807 37.3022 45.5201C37.3437 46.101 37.0532 46.6404 36.5138 46.6404Z" fill="#76777A"/>
<path d="M40.7036 46.184C41.077 46.018 41.326 45.6861 41.326 45.2711C41.326 44.8147 40.9941 44.2753 40.0812 44.2753C39.3758 44.2753 38.8364 44.7317 38.8364 45.3126C38.8364 45.769 39.1268 46.0595 39.4588 46.184C38.9194 46.3915 38.6289 46.8064 38.6289 47.3873C38.6289 48.1342 39.2098 48.6736 40.0812 48.6736C40.9111 48.6736 41.5335 48.0512 41.5335 47.2628C41.5335 46.5159 40.9941 46.267 40.7036 46.184ZM39.5003 45.3541C39.5003 45.1881 39.5418 44.6072 40.0812 44.6072C40.6206 44.6072 40.7036 45.1051 40.7036 45.3541C40.7036 45.5201 40.6621 46.101 40.0812 46.101C39.5418 46.101 39.5003 45.5201 39.5003 45.3541ZM40.0812 48.3832C39.6248 48.3832 39.2928 48.0097 39.2928 47.3873C39.2928 46.8064 39.5833 46.3915 40.0812 46.3915C40.5376 46.3915 40.8696 46.7649 40.8696 47.3458C40.8696 48.0097 40.5376 48.3832 40.0812 48.3832Z" fill="#76777A"/>
</g>
<defs>
<linearGradient id="paint0_linear_2521_55342" x1="39.4472" y1="35.302" x2="23.4101" y2="26.2579" gradientUnits="userSpaceOnUse">
<stop stop-color="white"/>
<stop offset="0.2" stop-color="#E7EB8E"/>
<stop offset="0.76" stop-color="#AACC03"/>
<stop offset="1" stop-color="#8DC21F"/>
</linearGradient>
<linearGradient id="paint1_linear_2521_55342" x1="38.1035" y1="29.3411" x2="23.1472" y2="19.366" gradientUnits="userSpaceOnUse">
<stop stop-color="#E5EA90"/>
<stop offset="0.0157213" stop-color="#E1E889"/>
<stop offset="0.087527" stop-color="#D3E06E"/>
<stop offset="0.1513" stop-color="#CADC5E"/>
<stop offset="0.2" stop-color="#C7DA58"/>
<stop offset="0.4" stop-color="#A1C710"/>
<stop offset="0.7426" stop-color="#7CB923"/>
<stop offset="1" stop-color="#65B12F"/>
</linearGradient>
<linearGradient id="paint2_linear_2521_55342" x1="40.1347" y1="26.2937" x2="25.1801" y2="16.3197" gradientUnits="userSpaceOnUse">
<stop stop-color="#E5EA90"/>
<stop offset="0.0157213" stop-color="#E1E889"/>
<stop offset="0.087527" stop-color="#D3E06E"/>
<stop offset="0.1513" stop-color="#CADC5E"/>
<stop offset="0.2" stop-color="#C7DA58"/>
<stop offset="0.4" stop-color="#A1C710"/>
<stop offset="0.7426" stop-color="#7CB923"/>
<stop offset="1" stop-color="#65B12F"/>
</linearGradient>
<linearGradient id="paint3_linear_2521_55342" x1="32.7729" y1="37.3332" x2="17.8171" y2="27.3585" gradientUnits="userSpaceOnUse">
<stop stop-color="#E5EA90"/>
<stop offset="0.0157213" stop-color="#E1E889"/>
<stop offset="0.087527" stop-color="#D3E06E"/>
<stop offset="0.1513" stop-color="#CADC5E"/>
<stop offset="0.2" stop-color="#C7DA58"/>
<stop offset="0.4" stop-color="#A1C710"/>
<stop offset="0.7426" stop-color="#7CB923"/>
<stop offset="1" stop-color="#65B12F"/>
</linearGradient>
<linearGradient id="paint4_linear_2521_55342" x1="30.9363" y1="40.088" x2="15.9814" y2="30.1139" gradientUnits="userSpaceOnUse">
<stop stop-color="#E5EA90"/>
<stop offset="0.0157213" stop-color="#E1E889"/>
<stop offset="0.087527" stop-color="#D3E06E"/>
<stop offset="0.1513" stop-color="#CADC5E"/>
<stop offset="0.2" stop-color="#C7DA58"/>
<stop offset="0.4" stop-color="#A1C710"/>
<stop offset="0.7426" stop-color="#7CB923"/>
<stop offset="1" stop-color="#65B12F"/>
</linearGradient>
<clipPath id="clip0_2521_55342">
<rect width="70" height="70" fill="white" transform="translate(0 0.00146484)"/>
</clipPath>
</defs>
</svg>
