<svg width="96" height="70" viewBox="0 0 96 70" fill="none" xmlns="http://www.w3.org/2000/svg">
<path d="M83.9258 35.0015C83.9258 54.3029 68.2916 70.0015 48.9258 70.0015C29.6243 70.0015 13.9258 54.3673 13.9258 35.0015C13.9258 15.7 29.56 0.00146484 48.9258 0.00146484C68.2916 0.00146484 83.9258 15.7 83.9258 35.0015Z" fill="white"/>
<path d="M49.1843 1.35254C30.6549 1.35254 15.6641 16.3434 15.6641 34.8728C15.6641 53.4022 30.6549 68.393 49.1843 68.393C67.7137 68.393 82.7045 53.4022 82.7045 34.8728C82.7045 16.3434 67.7137 1.35254 49.1843 1.35254ZM49.1843 59.3856C35.6733 59.3856 24.6714 48.3838 24.6714 34.8728C24.6714 21.3617 35.6733 10.3599 49.1843 10.3599C62.6953 10.3599 73.6971 21.3617 73.6971 34.8728C73.6971 48.3838 62.6953 59.3856 49.1843 59.3856Z" fill="#032755"/>
<mask id="mask0_2541_57214" style="mask-type:luminance" maskUnits="userSpaceOnUse" x="25" y="11" width="48" height="48">
<path d="M25.7656 34.8728C25.7656 47.8048 36.2528 58.292 49.1847 58.292C62.1167 58.292 72.6039 47.8048 72.6039 34.8728C72.6039 21.9409 62.1167 11.4537 49.1847 11.4537C36.2528 11.4537 25.7656 21.9409 25.7656 34.8728Z" fill="white"/>
</mask>
<g mask="url(#mask0_2541_57214)">
<path d="M72.5395 11.4537H25.7656V58.2276H72.5395V11.4537Z" fill="url(#paint0_radial_2541_57214)"/>
</g>
<mask id="mask1_2541_57214" style="mask-type:luminance" maskUnits="userSpaceOnUse" x="24" y="10" width="50" height="50">
<path d="M47.6406 11.5823C48.1553 11.5823 48.7344 11.518 49.1847 11.518C49.3778 11.518 49.5708 11.518 49.7638 11.518C49.7638 11.5823 49.6994 11.6466 49.6994 11.6466C49.5708 11.904 48.67 13.0621 48.67 13.0621L49.2491 13.5768C49.2491 13.5768 49.7638 12.8691 50.0211 12.483C50.2142 12.2257 50.2142 12.0327 50.2142 12.0327C50.2142 12.0327 50.4072 12.097 50.7289 12.097C50.9862 12.097 52.08 11.9683 52.08 11.9683L51.9513 11.5823C63.5322 12.9977 72.6039 22.9058 72.6039 34.8727C72.6039 45.9389 64.9476 55.2036 54.6535 57.6485H54.5891C54.5891 57.3911 54.5891 57.1981 54.5891 57.1981L53.8814 57.1338V57.7771C53.4954 57.8415 53.045 57.9058 52.659 57.9702C52.659 57.9702 52.659 57.9702 52.5947 57.9702H52.5303C52.5303 57.7128 52.466 56.5547 52.466 56.5547L51.8226 56.4904C51.8226 56.4904 51.8226 57.3268 51.8226 57.7771C51.8226 57.9702 51.8869 58.0345 51.8869 58.0345C51.8869 58.0345 51.8226 58.0345 51.6939 58.1632C50.9862 58.2275 50.3428 58.2918 49.6351 58.2918C49.8281 58.1632 49.8925 58.0988 50.0855 57.9702C50.2141 57.8415 50.4715 57.7771 50.4715 57.7771C50.4715 57.7771 50.4072 57.5841 50.4072 57.3911C50.4072 57.1338 50.4072 55.847 50.4072 55.847L49.7638 55.7827C49.7638 55.7827 49.7638 56.6191 49.7638 57.0694C49.7638 57.2624 49.8281 57.4555 49.8281 57.4555C49.8281 57.4555 49.6351 57.4554 49.5064 57.6485C49.3134 57.8415 48.8631 58.1632 48.67 58.2918C36.0597 57.9702 25.9586 47.6117 25.9586 34.9371C25.9586 22.6485 35.4807 12.5474 47.5763 11.6466V11.7753L47.6406 11.5823ZM24.6719 34.8727C24.6719 48.3838 35.6737 59.3856 49.1847 59.3856C62.6958 59.3856 73.6976 48.3838 73.6976 34.8727C73.6976 21.3617 62.6958 10.3599 49.1847 10.3599C35.6737 10.3599 24.6719 21.3617 24.6719 34.8727Z" fill="white"/>
</mask>
<g mask="url(#mask1_2541_57214)">
<path d="M51.6953 -14.0243L98.0832 37.3819L46.6769 83.7698L0.289062 32.3636L51.6953 -14.0243Z" fill="url(#paint1_linear_2541_57214)"/>
</g>
<mask id="mask2_2541_57214" style="mask-type:luminance" maskUnits="userSpaceOnUse" x="39" y="51" width="3" height="4">
<path d="M40.8217 53.0805C40.8217 53.2735 40.8217 53.4665 40.8217 53.4665C40.8217 53.4665 40.6287 53.4665 40.4357 53.5952C40.1783 53.7882 39.4062 54.3029 39.4062 54.3029L39.7923 54.8176C39.7923 54.8176 40.5 54.2386 41.0147 53.9812C41.2077 53.9169 41.4007 53.8525 41.4007 53.8525C41.4007 53.8525 41.4007 53.6595 41.4007 53.4665C41.4007 53.2091 41.5294 51.9224 41.5294 51.9224L40.886 51.7937C40.886 51.7937 40.8217 52.6301 40.8217 53.0805Z" fill="white"/>
</mask>
<g mask="url(#mask2_2541_57214)">
<path d="M40.5655 50.7L43.0747 53.4665L40.3725 55.9114L37.8633 53.1448L40.5655 50.7Z" fill="url(#paint2_linear_2541_57214)"/>
</g>
<mask id="mask3_2541_57214" style="mask-type:luminance" maskUnits="userSpaceOnUse" x="37" y="50" width="3" height="4">
<path d="M38.6985 51.6007C38.6985 51.7937 38.6985 51.9868 38.6985 51.9868C38.6985 51.9868 38.5055 51.9868 38.3125 52.1154C38.0551 52.2441 37.2188 52.7588 37.2188 52.7588L37.6048 53.3379C37.6048 53.3379 38.3768 52.8232 38.8915 52.5658C39.0846 52.5015 39.2776 52.4371 39.2776 52.4371C39.2776 52.4371 39.2776 52.2441 39.2776 52.0511C39.3419 51.7938 39.5349 50.507 39.5349 50.507L38.8915 50.314C38.8915 50.3783 38.7629 51.1504 38.6985 51.6007Z" fill="white"/>
</mask>
<g mask="url(#mask3_2541_57214)">
<path d="M38.5048 49.2202L41.014 51.9868L38.2475 54.4316L35.7383 51.6651L38.5048 49.2202Z" fill="url(#paint3_linear_2541_57214)"/>
</g>
<mask id="mask4_2541_57214" style="mask-type:luminance" maskUnits="userSpaceOnUse" x="35" y="48" width="3" height="4">
<path d="M36.7024 49.9279C36.6381 50.1209 36.7024 50.3139 36.7024 50.3139C36.7024 50.3139 36.5094 50.3139 36.3164 50.3783C36.0591 50.5069 35.2227 50.9573 35.2227 50.9573L35.5443 51.5363C35.5443 51.5363 36.3164 51.0216 36.8311 50.8286C37.0241 50.7643 37.2171 50.7643 37.2171 50.7643C37.2171 50.7643 37.2171 50.5713 37.2171 50.3783C37.2815 50.1209 37.5388 48.8341 37.5388 48.8341L36.8954 48.6411C36.8954 48.6411 36.7668 49.4775 36.7024 49.9279Z" fill="white"/>
</mask>
<g mask="url(#mask4_2541_57214)">
<path d="M36.5087 47.483L39.0179 50.2496L36.2514 52.7588L33.7422 49.9922L36.5087 47.483Z" fill="url(#paint4_linear_2541_57214)"/>
</g>
<mask id="mask5_2541_57214" style="mask-type:luminance" maskUnits="userSpaceOnUse" x="41" y="53" width="3" height="4">
<path d="M43.0092 54.303C43.0092 54.496 43.0092 54.689 43.0092 54.689C43.0092 54.689 42.8162 54.689 42.6232 54.8177C42.4301 55.0107 41.5938 55.5898 41.5938 55.5898L41.9798 56.1045C41.9798 56.1045 42.6875 55.5254 43.2022 55.2037C43.3952 55.0751 43.5882 55.075 43.5882 55.075C43.5882 55.075 43.5239 54.882 43.5882 54.689C43.5882 54.4317 43.7169 53.1449 43.7169 53.1449L43.0735 53.0162C43.0735 53.0806 43.0092 53.917 43.0092 54.303Z" fill="white"/>
</mask>
<g mask="url(#mask5_2541_57214)">
<path d="M42.7511 52.0511L45.2603 54.7533L42.5581 57.1339L40.1133 54.4316L42.7511 52.0511Z" fill="url(#paint5_linear_2541_57214)"/>
</g>
<mask id="mask6_2541_57214" style="mask-type:luminance" maskUnits="userSpaceOnUse" x="43" y="54" width="3" height="4">
<path d="M45.1969 55.3967C45.1969 55.5897 45.2613 55.7827 45.2613 55.7827C45.2613 55.7827 45.0682 55.7827 44.8752 55.9114C44.6822 56.1044 43.9102 56.7478 43.9102 56.7478L44.3605 57.2625C44.3605 57.2625 45.0682 56.6191 45.5186 56.2974C45.6473 56.1688 45.9046 56.1688 45.9046 56.1688C45.9046 56.1688 45.8403 55.9758 45.8403 55.7827C45.8403 55.5254 45.8403 54.2386 45.8403 54.2386L45.1969 54.1743C45.2613 54.1099 45.1969 54.9463 45.1969 55.3967Z" fill="white"/>
</mask>
<g mask="url(#mask6_2541_57214)">
<path d="M45.0051 53.1449L47.4499 55.8471L44.812 58.2276L42.3672 55.5254L45.0051 53.1449Z" fill="url(#paint6_linear_2541_57214)"/>
</g>
<mask id="mask7_2541_57214" style="mask-type:luminance" maskUnits="userSpaceOnUse" x="46" y="55" width="3" height="4">
<path d="M47.3826 56.3618C47.3826 56.5548 47.4469 56.7478 47.4469 56.7478C47.4469 56.7478 47.2539 56.7478 47.1252 56.9408C46.9322 57.1338 46.1602 57.7772 46.1602 57.7772L46.6105 58.2919C46.6105 58.2919 47.2539 57.6486 47.7686 57.3269C47.8973 57.1982 48.1546 57.1339 48.1546 57.1339C48.1546 57.1339 48.0903 56.9408 48.0903 56.7478C48.0903 56.4905 48.0903 55.2037 48.0903 55.2037L47.4469 55.1394C47.3826 55.075 47.3826 55.9114 47.3826 56.3618Z" fill="white"/>
</mask>
<g mask="url(#mask7_2541_57214)">
<path d="M47.2551 54.11L49.6356 56.8122L47.062 59.1927L44.6172 56.4905L47.2551 54.11Z" fill="url(#paint7_linear_2541_57214)"/>
</g>
<mask id="mask8_2541_57214" style="mask-type:luminance" maskUnits="userSpaceOnUse" x="55" y="23" width="5" height="3">
<path d="M56.9065 23.6779C56.7135 23.8709 55.9414 24.7073 55.9414 24.7073L56.3274 25.3507C56.3274 25.3507 56.9708 24.836 57.2282 24.5143C57.3568 24.3213 57.4855 24.1926 57.4855 24.1926C57.4855 24.1926 57.6785 24.3213 57.9359 24.3213C58.1932 24.3213 59.3513 24.3213 59.3513 24.3213V23.5492C59.3513 23.5492 58.3219 23.5492 57.7429 23.4849C57.5499 23.4849 57.0352 23.2919 57.0352 23.2919C57.0352 23.2919 57.0352 23.5492 56.9065 23.6779Z" fill="white"/>
</mask>
<g mask="url(#mask8_2541_57214)">
<path d="M57.8718 21.619L60.381 24.4499L57.4858 27.0234L54.9766 24.2569L57.8718 21.619Z" fill="url(#paint8_linear_2541_57214)"/>
</g>
<mask id="mask9_2541_57214" style="mask-type:luminance" maskUnits="userSpaceOnUse" x="54" y="20" width="5" height="4">
<path d="M55.5547 21.4261C55.3617 21.6191 54.4609 22.5842 54.4609 22.5842L54.9756 23.1632C54.9756 23.1632 55.619 22.4555 55.8764 22.1338C56.0694 21.9408 56.1337 21.6834 56.1337 21.6834C56.1337 21.6834 56.3267 21.8121 56.6484 21.8121C56.9058 21.8121 58.0639 21.8121 58.0639 21.8121L57.9995 21.1044C57.9995 21.1044 57.0988 21.1044 56.5198 21.0401C56.1981 21.0401 55.8764 20.9114 55.8764 20.9114C55.8764 20.9114 55.619 21.2974 55.5547 21.4261Z" fill="white"/>
</mask>
<g mask="url(#mask9_2541_57214)">
<path d="M56.3929 19.1743L59.0951 22.1982L56.0069 24.9648L53.3047 21.9409L56.3929 19.1743Z" fill="url(#paint9_linear_2541_57214)"/>
</g>
<mask id="mask10_2541_57214" style="mask-type:luminance" maskUnits="userSpaceOnUse" x="53" y="18" width="4" height="3">
<path d="M54.1367 18.9169C53.9437 19.11 53.043 20.075 53.043 20.075L53.5577 20.6541C53.5577 20.6541 54.2011 19.9463 54.4584 19.6246C54.6514 19.4316 54.7158 19.1743 54.7158 19.1743C54.7158 19.1743 54.9088 19.303 55.2305 19.303C55.4878 19.303 56.6459 19.303 56.6459 19.303L56.5816 18.5952C56.5816 18.5952 55.6808 18.5952 55.1018 18.5309C54.7801 18.5309 54.4584 18.4022 54.4584 18.4022C54.4584 18.4022 54.2654 18.8526 54.1367 18.9169Z" fill="white"/>
</mask>
<g mask="url(#mask10_2541_57214)">
<path d="M55.0375 16.7294L57.7397 19.6889L54.6514 22.4555L51.9492 19.4959L55.0375 16.7294Z" fill="url(#paint10_linear_2541_57214)"/>
</g>
<mask id="mask11_2541_57214" style="mask-type:luminance" maskUnits="userSpaceOnUse" x="51" y="15" width="5" height="4">
<path d="M52.7227 16.4078C52.5296 16.6008 51.6289 17.5659 51.6289 17.5659L52.1436 18.1449C52.1436 18.1449 52.787 17.4372 53.0443 17.1155C53.2374 16.9225 53.3017 16.6651 53.3017 16.6651C53.3017 16.6651 53.4947 16.7938 53.8164 16.7938C54.0738 16.7938 55.2318 16.7938 55.2318 16.7938L55.1675 16.0861C55.1675 16.0861 54.2668 16.0861 53.6877 16.0218C53.366 16.0218 53.0443 15.8931 53.0443 15.8931C53.0443 15.8931 52.8513 16.2791 52.7227 16.4078Z" fill="white"/>
</mask>
<g mask="url(#mask11_2541_57214)">
<path d="M53.6234 14.2202L56.3256 17.1798L53.2374 19.9463L50.5352 16.9868L53.6234 14.2202Z" fill="url(#paint11_linear_2541_57214)"/>
</g>
<mask id="mask12_2541_57214" style="mask-type:luminance" maskUnits="userSpaceOnUse" x="50" y="13" width="4" height="3">
<path d="M51.1779 14.1559C51.0492 14.4133 50.1484 15.314 50.1484 15.314L50.7275 15.8931C50.7275 15.8931 51.3065 15.2497 51.5639 14.928C51.7569 14.735 51.7569 14.4776 51.7569 14.4776C51.7569 14.4776 51.9499 14.6063 52.2716 14.542C52.529 14.542 53.687 14.4776 53.687 14.4776L53.5584 13.7699C53.5584 13.7699 52.6576 13.7699 52.0786 13.7699C51.7569 13.7699 51.4352 13.7056 51.4352 13.7056C51.4352 13.7056 51.3065 13.9629 51.1779 14.1559Z" fill="white"/>
</mask>
<g mask="url(#mask12_2541_57214)">
<path d="M52.0786 11.9041L54.7808 14.8636L51.7569 17.5658L49.0547 14.6063L52.0786 11.9041Z" fill="url(#paint12_linear_2541_57214)"/>
</g>
<path d="M48.542 3.6687H46.9336V4.1834H48.542V8.10803H49.8288V4.1834H51.4373V3.6687H49.8288H48.542Z" fill="white"/>
<path d="M54.2665 4.05483L52.6581 3.79749L52.5938 4.31218L54.2022 4.56953L53.4945 8.42983L54.7813 8.62285L55.4246 4.76256L57.0331 5.01991L57.1618 4.56953L55.5533 4.24784L54.2665 4.05483Z" fill="white"/>
<path d="M59.8652 6.04924L62.0527 6.88563L62.2457 6.43526L59.8009 5.47018L59.0931 5.21283C58.8358 5.08416 58.5784 5.21283 58.4498 5.47018L57.2273 8.62277C57.163 8.88012 57.2917 9.13748 57.549 9.26615L58.2567 9.5235L60.7016 10.4886L60.8946 10.0382L58.7715 9.20181C58.6428 9.13747 58.5784 8.94446 58.5784 8.81578L59.0288 7.6577L61.4737 8.62277L61.731 8.10805L59.2862 7.14298L59.6722 6.17791C59.5435 6.11357 59.7365 5.98491 59.8652 6.04924Z" fill="white"/>
<path d="M39.0848 9.45913C38.8918 9.52347 38.7631 9.45914 38.6988 9.26613L37.4763 5.92053L36.2539 6.37091L37.412 9.52348L37.605 10.0382C37.7337 10.2955 37.991 10.4242 38.2484 10.2955L38.9561 10.0382L41.1436 9.20179L40.9506 8.68707L39.0848 9.45913Z" fill="white"/>
<path d="M43.3952 4.0548C41.9798 4.31216 41.079 5.53458 41.2721 6.88568C41.4651 8.23678 42.8162 9.13752 44.1673 8.88017C45.5827 8.62282 46.4834 7.4004 46.2904 6.04929C46.0974 4.69819 44.8107 3.86179 43.3952 4.0548ZM44.1673 8.36545C43.4596 8.49413 42.7518 7.72209 42.6232 6.69268C42.4301 5.66326 42.8805 4.69818 43.5882 4.5695C44.2959 4.44083 45.0037 5.21289 45.1323 6.2423C45.261 7.33605 44.8107 8.23678 44.1673 8.36545Z" fill="white"/>
<path d="M66.4286 60.6724C65.3992 61.3158 64.7558 61.2514 64.3054 60.5437L64.2411 60.4794C64.0481 60.1577 63.9837 59.7717 64.1124 59.45C63.7264 59.45 63.5334 59.3213 63.276 58.9353L63.2117 58.8709C62.7613 58.2275 62.9543 57.5198 63.9194 56.9408L63.9837 56.8765C64.9488 56.2974 65.5922 56.3617 65.9782 57.0695L66.0425 57.1338C66.2356 57.4555 66.2999 57.7128 66.1712 58.0345C66.5573 58.0345 66.8146 58.2919 67.0076 58.6136L67.072 58.6779C67.5867 59.3856 67.3937 60.0934 66.4286 60.6724ZM65.1418 57.7128C65.0131 57.5198 64.8201 57.4555 64.4984 57.6485L64.3698 57.7128C64.0481 57.9059 64.1124 58.1632 64.2411 58.3562L64.3054 58.4849C64.4341 58.6779 64.6914 58.7422 64.8845 58.5492L65.0775 58.4206C65.3348 58.2919 65.3348 58.0345 65.2061 57.8415L65.1418 57.7128ZM66.1712 59.257C66.0425 59.0639 65.7852 58.9353 65.5278 59.1283L65.3992 59.1926C65.1418 59.3856 65.0775 59.7073 65.2061 59.9003L65.2705 59.9647C65.3992 60.222 65.6565 60.222 65.9139 60.0934L66.0425 60.029C66.2999 59.836 66.3642 59.5143 66.1712 59.257Z" fill="white"/>
<path d="M69.32 55.7183L69.1269 56.1687C68.8696 56.6834 68.6122 57.1981 68.8696 57.4555L69.0626 57.6485L70.4137 56.426C70.478 56.3617 70.5424 56.3617 70.6067 56.426L71.0571 56.8121C71.1214 56.8764 71.1214 56.9407 71.0571 57.0051L69.0626 58.8066C68.9983 58.8709 68.9339 58.8709 68.8696 58.8066L68.4192 58.3562C67.9689 57.8415 67.7758 57.3911 67.9045 56.8764L68.3549 55.9757C68.6122 55.461 68.4192 55.2679 68.2905 55.1393C68.1619 55.0106 68.0332 55.0106 67.6472 55.3323C67.3255 55.5896 67.1325 55.9113 66.8108 56.1687C66.7464 56.233 66.6821 56.233 66.6178 56.1687L66.2317 55.7827C66.1674 55.7183 66.2317 55.654 66.2317 55.5896C66.4891 55.268 66.8751 54.9463 67.2611 54.5602C67.9689 53.8525 68.5479 54.0455 68.9983 54.5602C69.3843 54.9463 69.4486 55.2679 69.32 55.7183Z" fill="white"/>
<path d="M62.6939 62.8599C62.1792 63.1173 61.6645 63.3746 61.3428 63.439C61.2141 63.439 61.2141 63.439 61.1498 63.3746L60.9567 62.9886C60.8924 62.9243 60.9567 62.8599 61.0211 62.7956C61.2784 62.6669 61.7288 62.4739 62.0505 62.3452C62.6295 62.0879 62.6295 61.7019 62.2435 61.0585C62.1792 61.1228 61.8575 61.4445 61.6645 61.5088C60.7637 61.9592 60.1203 62.0235 59.67 61.2515L59.5413 60.9941C59.0909 60.1577 59.477 59.5787 60.5064 59.064C61.4714 58.5493 62.0505 58.7423 62.5652 59.7074L63.2086 60.9298C63.7233 61.8949 63.5303 62.4096 62.6939 62.8599ZM61.5358 60.0291C61.2784 59.45 61.0211 59.5787 60.6994 59.7074C60.442 59.836 60.249 60.029 60.5064 60.4794L60.5707 60.6081C60.7637 60.9941 61.0854 60.8011 61.4071 60.6724C61.5358 60.6081 61.6645 60.4794 61.7288 60.4151L61.5358 60.0291Z" fill="white"/>
<path d="M59.5418 64.1467L58.7698 64.4684C58.7054 64.4684 58.6411 64.4684 58.6411 64.404L57.483 61.1871L57.097 61.4445L57.0326 61.5088C56.9683 61.5088 56.9683 61.5088 56.9683 61.4445L56.7109 60.8654C56.7109 60.8011 56.7109 60.8011 56.7753 60.7368L58.062 60.0291C58.1264 60.0291 58.1907 60.0291 58.1907 60.0934L59.6705 64.018C59.6062 64.0823 59.6062 64.1467 59.5418 64.1467Z" fill="white"/>
<path d="M49.185 61.9591L50.0214 61.8948C50.0857 61.8948 50.15 61.8948 50.2144 61.9591C50.2787 61.9591 50.2787 62.0235 50.3431 62.0878L52.1445 64.7257L52.0159 61.7661L53.1739 61.7018L53.367 65.369C53.367 65.4334 53.367 65.4977 53.3026 65.5621C53.2383 65.6264 53.1739 65.6264 53.0453 65.6264L52.3375 65.6907C52.2732 65.6907 52.2089 65.6907 52.1445 65.6264C52.0802 65.6264 52.0802 65.5621 52.0159 65.4977L50.0214 62.7312L50.2144 65.7551L49.0563 65.8194L48.8633 62.1521C48.8633 62.0878 48.8633 62.0235 48.9276 61.9591C48.992 62.0235 49.0563 62.0235 49.185 61.9591Z" fill="white"/>
<path d="M32.329 56.0401L34.1305 57.3269C34.5165 57.5842 34.6452 57.7773 34.7739 58.0989C34.9026 58.3563 34.8382 58.6136 34.7096 58.9353C34.5809 59.1927 34.3235 59.3214 34.1305 59.3857C33.9375 59.45 33.6801 59.3214 33.5515 59.257C33.8088 59.3857 33.9375 59.6431 33.9375 59.9004C34.0018 60.1578 33.9375 60.4795 33.8088 60.6725C33.5515 61.0585 33.2941 61.1228 32.9724 61.1228C32.5864 61.1228 32.329 60.9942 31.8787 60.6081L30.2059 59.45C30.0129 59.257 29.9485 59.257 29.9485 59.1284C29.8842 58.9997 29.9485 58.871 30.0129 58.7423L31.8143 56.1688C31.8787 56.1045 31.943 56.0401 32.0073 56.0401C32.136 55.9114 32.2647 55.9758 32.329 56.0401ZM31.75 58.1633L31.0423 59.1284C30.9779 59.1927 30.9779 59.1927 30.9779 59.257C30.9779 59.3214 31.0423 59.3214 31.1066 59.3857L31.75 59.8361C32.0073 60.0291 32.329 60.1578 32.5221 60.1578C32.7151 60.0934 32.8437 60.0291 32.9724 59.8361C33.1011 59.643 33.1011 59.3857 32.9724 59.1927C32.9081 59.1283 32.7151 58.9353 32.4577 58.7423C32.2004 58.485 31.75 58.1633 31.75 58.1633ZM32.7151 56.8765L32.0717 57.8416L32.7151 58.2919C32.9081 58.485 33.1654 58.6136 33.3584 58.6136C33.5515 58.6136 33.7445 58.485 33.8088 58.2919C34.0018 57.9059 33.7445 57.5842 33.4871 57.3912C33.2298 57.1982 32.7151 56.8765 32.7151 56.8765Z" fill="white"/>
<path d="M35.7363 62.0878C35.8007 62.2165 35.9937 62.4095 36.1867 62.4738C36.3797 62.5382 36.6371 62.6025 36.7657 62.6025C36.8944 62.6025 37.2161 62.4095 37.3448 62.2165L38.5672 59.643L39.5966 60.0933L38.5029 62.5382C38.3099 62.9885 37.7308 63.2459 37.3448 63.3102C36.9588 63.3102 36.5727 63.3102 35.9937 62.9886C35.4146 62.7312 35.2216 62.4738 34.9643 62.1521C34.7069 61.8305 34.5782 61.2514 34.8356 60.7367L35.865 58.4205L36.8944 58.9352L35.8007 61.3158C35.672 61.5731 35.672 61.8948 35.7363 62.0878Z" fill="white"/>
<path d="M42.8145 62.1522C42.8145 62.1522 42.8145 61.8305 42.6859 61.7018C42.6215 61.5731 42.3642 61.3801 42.1068 61.3158C41.8495 61.2514 41.5921 61.1871 41.2704 61.2514C41.0774 61.3158 40.8844 61.4445 40.8844 61.6375C40.8201 61.8948 41.5278 62.2165 41.9781 62.4095C42.6215 62.6025 43.0076 63.0529 43.2649 63.3103C43.4579 63.5676 43.4579 63.9536 43.3936 64.2753C43.3292 64.5327 43.2006 64.6614 43.0076 64.79C42.8789 64.9187 42.6859 64.983 42.4285 65.0474C42.1712 65.0474 41.9781 65.1117 41.7208 65.1117C41.4634 65.1117 41.2061 65.0474 40.9487 64.983C40.5627 64.8544 40.1767 64.7257 39.9193 64.4683C39.662 64.2753 39.4046 64.018 39.2759 63.7606C39.1473 63.4389 39.2759 63.0529 39.2759 63.0529L40.3054 63.3746C40.3054 63.3746 40.1767 63.825 40.4984 64.1467C40.6914 64.3397 40.9487 64.4683 41.1417 64.5327C41.4634 64.6614 41.9138 64.6614 42.0425 64.597C42.1712 64.5327 42.2998 64.4684 42.2998 64.2753C42.2998 64.1467 42.2998 64.018 42.2355 63.8893C42.1712 63.7606 41.6565 63.3746 41.3991 63.3103C40.7557 63.1172 40.241 62.7955 40.048 62.4739C39.7906 62.1522 39.7906 61.7661 39.855 61.4444C39.9193 61.1227 40.3054 60.8011 40.7557 60.7367C41.2061 60.6081 41.7208 60.7367 42.3642 60.9297C42.9432 61.1228 43.3292 61.3801 43.5866 61.6375C43.9726 62.0235 43.9083 62.5382 43.9083 62.5382L42.8145 62.1522Z" fill="white"/>
<path d="M46.2246 61.7661H46.7393C46.8036 61.7661 46.868 61.7661 46.9323 61.8305C46.9966 61.8305 46.9966 61.8948 46.9966 61.9591L48.4121 65.6907C48.4764 65.8194 48.4121 65.8838 48.2191 65.8838L47.3827 65.8194C47.3183 65.8194 47.254 65.7551 47.1896 65.7551C47.1253 65.6908 47.1253 65.6907 47.1253 65.6264L46.9323 64.983L44.8735 64.79L44.5518 65.3047C44.5518 65.3691 44.4874 65.3691 44.4874 65.3691L44.4231 65.4334C44.3588 65.4334 44.2944 65.4334 44.2301 65.4334H43.8441C43.651 65.4334 43.5867 65.3691 43.7154 65.2404L45.9672 61.8948C45.9672 61.8305 46.0316 61.7661 46.0959 61.7661C46.0959 61.7661 46.1602 61.7661 46.2246 61.7661ZM46.0959 62.8599L45.1952 64.2753L46.8036 64.404L46.2889 62.8599H46.0959Z" fill="white"/>
<path d="M95.1215 28.246C94.6068 26.8949 93.1914 25.6725 91.5186 25.1578C90.6822 24.9004 89.5241 24.7717 88.3017 24.7717C86.6289 24.7717 85.0848 25.0291 83.8624 25.4794C83.7337 25.5438 83.5406 25.6081 83.412 25.6725C82.9616 25.8012 82.6399 25.8655 82.3826 25.9942L82.0609 24.9647L82.4469 23.3563H82.3826V23.292H82.2539L81.2245 22.8416L80.7098 21.6192L81.1601 19.9464L81.4818 18.8526H80.3237H77.8789H77.4285L77.1712 19.1743C77.1712 19.2386 74.276 23.0346 70.3513 24.064L69.901 24.1927L69.7723 24.6431L69.3219 26.3802C68.2282 25.2864 66.6197 24.7074 64.7539 24.7074C64.6252 24.7074 64.4322 24.7074 64.3035 24.7074C63.5958 24.7717 63.0168 24.8361 62.5664 24.9004L62.6307 24.7074H61.537H55.6179H54.9745H54.7815H53.6877C53.6877 24.7074 50.7282 24.7074 49.9561 24.7074C49.1197 24.7074 48.4763 24.9647 48.0903 25.2221C47.5756 24.9647 46.6749 24.7074 45.4524 24.7074H45.3881C43.3936 24.7074 40.6271 25.1578 38.6969 27.0879L36.7024 27.7313C36.8954 27.0236 37.0885 26.3802 37.2171 25.8655L37.5388 24.7717H36.9598C37.8605 23.9997 38.5039 22.9703 38.6969 21.9408C38.9543 20.7828 38.6969 19.689 37.9892 18.917C37.3458 18.1449 36.3164 17.6945 35.2227 17.6945C34.0646 17.6945 32.9708 18.1449 32.0057 18.917C31.7484 19.11 31.5554 19.3673 31.298 19.6247V19.5603L29.7539 21.8122C29.6896 21.2975 29.4966 20.7184 29.0462 20.075C28.2098 18.8526 26.7943 18.0162 24.7999 17.5659C23.5131 17.2442 22.162 17.1155 20.8109 17.1155C17.1436 17.1155 13.605 18.1449 10.7741 20.0107C8.58663 21.4905 6.72082 23.292 5.36971 25.2864C3.88994 27.4739 3.11788 29.7258 2.9892 31.9776C2.86052 34.3581 3.31089 36.3526 4.27596 37.9611C5.24104 39.5695 6.78516 40.7919 8.7153 41.4997C10.9671 42.3361 13.8624 42.4647 15.4065 42.4647C15.6638 42.4647 15.9212 42.4647 16.1785 42.4647L16.5646 43.9445C15.6638 44.0732 14.8274 44.1375 14.0554 44.2662C8.13626 45.0383 4.53332 45.746 4.53332 45.746L0.222656 46.5824L4.53332 47.4188C9.16567 48.3195 12.5756 50.3783 14.5701 51.9225C16.7576 53.5953 17.8513 55.075 17.8513 55.075L18.2374 55.5897L18.8164 55.3967C18.8164 55.3967 22.0333 54.2386 26.9874 53.0162C31.5554 51.8581 38.5039 50.3784 46.0315 49.7993C51.4359 49.3489 58.5774 49.2846 64.8182 49.2202C71.8311 49.1559 80.3237 48.8342 83.3476 48.5769C86.5002 48.2552 88.8164 47.0971 91.0682 44.7809C93.4487 42.3361 93.5131 39.5052 93.5131 39.4409V37.575C94.0278 36.417 94.0921 35.1945 93.7061 34.2295C93.3201 33.2 92.4837 32.428 91.2612 31.7846H94.6068H95.3789L95.4432 31.0125C95.3146 30.6265 95.4432 29.1467 95.1215 28.246Z" fill="white"/>
<path d="M33.6787 24.9004C34.5794 24.9004 35.5445 24.5787 36.3165 23.871C37.925 22.5199 38.311 20.4611 37.2816 19.1743C36.7669 18.5952 35.9949 18.2736 35.1585 18.2736C34.2577 18.2736 33.2926 18.5952 32.5206 19.303C30.9121 20.6541 30.5261 22.7129 31.5555 23.9997C32.0702 24.5787 32.8423 24.9004 33.6787 24.9004Z" fill="#DC0826"/>
<path d="M8.97316 40.4702C10.7103 41.1136 13.0908 41.3709 15.3426 41.3709C17.7232 41.3709 19.9107 41.1136 20.9401 40.6632C20.9401 40.6632 21.7765 41.6926 23.3206 41.6926C23.4493 41.6926 23.5779 41.6926 23.7066 41.6926C23.7066 41.6926 25.5724 33.7147 26.6662 32.1062C27.7599 30.4334 28.6607 29.404 28.6607 29.404C28.6607 29.404 28.146 29.404 27.4382 29.404C25.7011 29.404 22.4198 29.4684 20.554 29.9187C17.8518 30.5621 15.986 31.3342 15.021 32.0419C14.0559 32.6853 11.6754 34.6798 11.6754 34.6798C11.6754 34.6798 15.793 33.8434 17.4658 33.7147C17.5945 33.7147 17.7875 33.7147 17.9162 33.7147C18.8812 33.7147 19.782 33.8434 19.8463 33.972C19.9107 34.1007 19.589 37.382 17.0798 37.6393C16.6937 37.7036 16.3077 37.7036 15.9217 37.7036C13.8629 37.7036 12.3187 36.9959 11.5467 35.2588C10.5173 33.0713 11.032 29.404 12.7048 27.0235C14.3776 24.5786 16.0504 23.0345 18.3665 22.1338C19.4603 21.7478 20.2967 21.5548 20.9401 21.5548C21.7121 21.5548 22.2268 21.8121 22.4842 22.3268C22.9346 23.2919 22.2912 24.5787 21.8408 25.029C21.3261 25.4794 19.8463 26.9592 19.8463 26.9592C19.8463 26.9592 21.9695 26.7662 24.157 26.4445C26.6018 26.0584 28.6607 24.643 28.8537 22.3268C28.918 21.5548 28.725 19.1099 24.543 18.1448C23.3206 17.8875 22.0338 17.6945 20.7471 17.6945C17.4015 17.6945 13.9915 18.5952 11.225 20.461C7.10735 23.2276 4.01912 27.3452 3.76176 31.7845C3.50441 36.2239 5.37022 39.1834 8.97316 40.4702Z" fill="#DC0826"/>
<path d="M88.494 30.6265H94.4131C94.4131 30.6265 94.5418 29.0823 94.2844 28.3103C93.8984 27.2809 92.7403 26.1871 91.2606 25.7368C90.5528 25.5437 89.5234 25.4151 88.301 25.4151C86.9499 25.4151 85.4058 25.6081 84.1833 26.0584C81.8672 26.9592 79.8083 28.632 79.551 30.6908C79.2936 32.814 80.1944 33.779 80.1944 33.779C80.1944 33.779 78.5216 34.8085 78.1355 35.6449C77.8139 36.5456 77.5565 37.5107 76.7844 37.961C76.5271 38.0897 76.2697 38.2184 76.0767 38.2184C75.6907 38.2184 75.4977 37.8324 75.8194 36.5456C76.2697 34.6154 78.3286 27.0879 78.3286 27.0879H80.3874L81.2238 23.9353H79.1006L80.323 19.5603H77.8782C77.8782 19.5603 74.8543 23.6136 70.608 24.7717L69.9646 27.1522H72.4095C72.4095 27.1522 70.3506 34.5511 69.8359 36.5456C69.3212 38.4757 68.6135 38.4757 68.0988 38.4757C67.5841 38.4757 67.6484 37.575 67.9058 36.6099C68.1631 35.5805 68.9352 32.7496 69.3212 31.3985C69.7072 30.0474 69.9003 28.246 68.8708 27.0879C67.9701 26.0585 66.4903 25.4151 64.7532 25.4151C64.6245 25.4151 64.4958 25.4151 64.3028 25.4151C62.3727 25.5437 61.2789 26.0584 61.2789 26.0584L61.4076 25.4794H55.4885C55.4885 25.4794 53.0436 34.6154 52.6576 36.2239C52.2716 37.768 51.6282 38.3471 50.9848 38.3471H50.9205C50.2128 38.2827 50.3414 37.575 50.5988 36.5456C50.9205 35.5162 53.5583 25.4794 53.5583 25.4794C53.5583 25.4794 50.5988 25.4794 49.8267 25.4794C48.6043 25.4794 48.0253 26.1228 48.0253 26.1228C48.0253 26.1228 47.1889 25.4794 45.3231 25.4794C45.3231 25.4794 45.3231 25.4794 45.2587 25.4794C43.1999 25.4794 40.755 25.9941 39.1466 27.6026C37.6668 29.0824 36.7017 30.9482 36.0583 33.7147C35.3506 36.8029 34.9003 38.0254 33.6778 38.4114C33.6135 38.4114 33.5492 38.4757 33.4848 38.4757C32.9058 38.4757 33.1631 37.382 33.4205 36.0309C33.6135 35.1301 36.2514 25.4794 36.2514 25.4794H32.3911C31.233 25.4794 30.1392 26.0585 29.7532 27.7312C29.4315 29.018 28.0804 34.2294 27.5014 36.4812C26.7293 39.4408 27.9517 41.4996 31.7477 41.6926C31.8764 41.6926 31.9407 41.6926 32.0694 41.6926C34.9646 41.6926 36.5731 39.9555 36.5731 39.9555C36.5731 39.9555 37.4738 41.4353 40.6264 41.6283C40.8194 41.6283 41.0767 41.6283 41.2697 41.6283C44.1006 41.6283 45.4517 40.4702 45.4517 40.4702C45.4517 40.4702 46.2881 41.4353 48.2183 41.6283C48.54 41.6926 48.926 41.6926 49.1833 41.6926C50.5344 41.6926 51.3708 41.371 51.3708 41.371L51.3065 41.6926H57.29C57.29 41.6926 59.5418 33.2 59.8635 31.7846C60.1852 30.3691 61.1503 28.9537 62.3727 28.825C62.63 28.825 62.8874 28.7607 63.1447 28.7607C63.8525 28.7607 64.1098 29.0823 63.6594 30.8838C63.0804 33.1357 62.63 34.8728 62.1153 36.7386C61.6006 38.6044 61.858 41.0493 65.0749 41.6283C65.6539 41.757 66.1043 41.757 66.619 41.757C69.3856 41.757 70.994 40.3415 70.994 40.3415C70.994 40.3415 71.9591 41.6283 74.5969 41.6926C74.7256 41.6926 74.8543 41.6926 74.9186 41.6926C77.6852 41.6926 79.0363 40.5989 79.0363 40.5989C79.0363 40.5989 80.0657 41.4996 82.5106 41.6283C83.0896 41.6283 83.6686 41.6926 84.312 41.6926C86.3708 41.6926 88.5583 41.4353 90.1668 40.2129C92.29 38.6687 93.5124 36.0309 92.869 34.3581C92.2256 32.6853 90.1668 31.9776 88.88 31.6559C87.6576 31.3342 86.0492 31.1412 85.7918 30.3048C85.4701 29.5327 86.3065 28.9537 86.8856 28.7607C87.0786 28.6963 87.4003 28.632 87.722 28.632C88.301 28.632 88.88 28.7607 88.8157 29.2754C88.6227 29.9831 88.494 30.6265 88.494 30.6265ZM46.4168 29.9187C46.4168 30.1761 46.3525 30.4335 46.2881 30.6908C45.7734 32.4923 45.1944 34.7441 44.8727 36.0309C44.8083 36.3526 44.6797 36.6099 44.551 36.8673C44.165 37.575 43.7146 38.0254 43.0069 38.154C42.8782 38.154 42.6852 38.2184 42.5565 38.2184C42.4278 38.2184 42.3635 38.2184 42.2348 38.2184C41.0767 38.0897 41.4628 36.0309 41.7201 35.0015C41.9131 33.9721 42.3635 32.4279 42.8139 31.1412C43.0712 30.3691 43.4572 29.5327 44.2293 29.018C44.6153 28.7607 45.0657 28.5677 45.4517 28.5677H45.5161C46.0308 28.5677 46.4811 28.9537 46.4168 29.9187ZM86.7569 36.8673C86.7569 36.9316 86.7569 36.9316 86.7569 36.8673C86.8212 37.5107 86.2422 38.2827 84.8911 38.2827C84.7624 38.2827 84.6337 38.2827 84.505 38.2827C82.8966 38.0897 82.2532 37.768 81.8672 37.1246C81.4811 36.4812 81.9315 35.3875 82.6392 35.1301C82.6392 35.1301 84.1833 35.6449 85.0197 35.9022C85.8561 36.1596 86.5639 36.2882 86.7569 36.8673Z" fill="#DC0826"/>
<path d="M83.4763 43.1724C81.6749 43.2368 79.037 43.2368 75.9487 43.2368C65.2043 43.2368 48.798 42.9794 41.1418 42.9794C39.7907 42.9794 38.6969 42.9794 37.9892 42.9794C18.7521 43.4941 4.59766 46.325 4.59766 46.325C13.991 48.1265 18.4304 54.303 18.4304 54.303C18.4304 54.303 31.1693 49.7993 45.8385 48.6412C50.8568 48.2552 57.2263 48.1265 64.6896 48.0622C72.1528 47.9978 80.3237 47.6761 83.1546 47.4188C85.9855 47.0971 88.1087 46.132 90.3605 43.8802C92.548 41.6283 92.548 39.1191 92.548 39.1191C91.2613 40.5989 87.4009 43.0438 83.4763 43.1724Z" fill="#DC0826"/>
<path d="M33.6787 24.9004C34.5794 24.9004 35.5445 24.5787 36.3165 23.871C37.925 22.5199 38.311 20.4611 37.2816 19.1743C36.7669 18.5952 35.9949 18.2736 35.1585 18.2736C34.2577 18.2736 33.2926 18.5952 32.5206 19.303C30.9121 20.6541 30.5261 22.7129 31.5555 23.9997C32.0702 24.5787 32.8423 24.9004 33.6787 24.9004ZM31.8772 21.8122C32.0059 21.1044 32.4563 20.461 33.0353 19.9463C33.6787 19.4316 34.4507 19.1099 35.1585 19.1099C35.7375 19.1099 36.2522 19.303 36.6382 19.689C36.9599 20.075 37.0886 20.6541 36.9599 21.2974C36.8313 22.0052 36.3809 22.6485 35.8018 23.1632C35.1585 23.678 34.3864 23.9997 33.6787 23.9997C33.0996 23.9997 32.5849 23.8066 32.1989 23.4206C31.8772 23.0346 31.7485 22.4555 31.8772 21.8122Z" fill="#032856"/>
<path d="M8.97178 40.4702C10.7089 41.1136 13.0894 41.3709 15.3413 41.3709C17.7218 41.3709 19.9093 41.1136 20.9387 40.6632C20.9387 40.6632 21.7751 41.6926 23.3192 41.6926C23.4479 41.6926 23.5766 41.6926 23.7052 41.6926C23.7052 41.6926 25.571 33.7147 26.6648 32.1062C27.7585 30.4334 28.6593 29.404 28.6593 29.404C28.6593 29.404 28.1446 29.404 27.4369 29.404C25.6997 29.404 22.4185 29.4684 20.5527 29.9187C17.8505 30.5621 15.9846 31.3342 15.0196 32.0419C14.0545 32.6853 11.674 34.6798 11.674 34.6798C11.674 34.6798 15.7916 33.8434 17.4644 33.7147C17.5931 33.7147 17.7861 33.7147 17.9148 33.7147C18.8799 33.7147 19.7806 33.8434 19.8449 33.972C19.9093 34.1007 19.5876 37.382 17.0784 37.6393C16.6924 37.7036 16.3063 37.7036 15.9203 37.7036C13.8615 37.7036 12.3174 36.9959 11.5453 35.2588C10.5159 33.0713 11.0306 29.404 12.7034 27.0235C14.3762 24.5786 16.049 23.0345 18.3652 22.1338C19.4589 21.7478 20.2953 21.5548 20.9387 21.5548C21.7108 21.5548 22.2255 21.8121 22.4828 22.3268C22.9332 23.2919 22.2898 24.5787 21.8394 25.029C21.3247 25.4794 19.8449 26.9592 19.8449 26.9592C19.8449 26.9592 21.9681 26.7662 24.2199 26.4445C26.6648 26.0584 28.7236 24.643 28.9166 22.3268C28.981 21.5548 28.788 19.1099 24.606 18.1448C23.3835 17.8875 22.0968 17.6945 20.81 17.6945C17.4644 17.6945 14.0545 18.5952 11.288 20.461C7.10597 23.2276 4.08208 27.3452 3.82472 31.7845C3.50303 36.2239 5.36884 39.1834 8.97178 40.4702ZM4.66112 31.8489C4.7898 29.8544 5.49752 27.9243 6.78428 25.9941C8.00671 24.1926 9.74384 22.5198 11.7383 21.1687C14.2475 19.4959 17.4644 18.5309 20.81 18.5309C22.0324 18.5309 23.2549 18.6595 24.413 18.9169C25.9571 19.3029 27.0508 19.882 27.6299 20.7184C28.0802 21.3617 28.0802 22.0051 28.0802 22.1981C28.0159 23.0345 27.6299 23.8066 26.8578 24.3856C26.1501 24.9647 25.185 25.3507 24.0913 25.5437C23.4479 25.6081 22.8688 25.7367 22.2898 25.8011C22.3541 25.7367 22.4185 25.6724 22.4828 25.6081C23.2549 24.9004 23.9626 23.2275 23.3192 21.8764C23.1262 21.4261 22.4828 20.5897 21.003 20.5897C20.231 20.5897 19.2659 20.7827 18.1078 21.2331C15.7916 22.1338 13.9258 23.6779 11.9957 26.4445C10.1299 29.1467 9.61516 33.1356 10.7733 35.5805C11.7383 37.5106 13.4755 38.4757 15.9846 38.4757C16.3707 38.4757 16.821 38.4757 17.2071 38.4114C18.4938 38.2827 19.5233 37.5106 20.1666 36.2239C20.4883 35.5805 21.003 34.0364 20.617 33.4573C20.424 33.0713 19.9736 32.9426 19.3946 32.8783C18.9442 32.8139 18.4295 32.8139 17.9791 32.8139C17.7861 32.8139 17.6574 32.8139 17.4644 32.8139C16.821 32.8139 15.856 33.007 14.8909 33.1356C15.1483 32.9426 15.3413 32.814 15.5343 32.6853C16.5637 31.9776 18.4938 31.2698 20.7457 30.6908C22.3541 30.3048 25.1207 30.2404 26.9221 30.1761C26.6648 30.5621 26.3431 31.0125 25.9571 31.5272C24.992 33.007 23.5122 38.7331 23.0619 40.7276C22.1611 40.5989 21.6464 40.0842 21.5821 40.0198L21.196 39.5051L20.617 39.7625C19.8449 40.0842 17.9148 40.4059 15.3413 40.4059C12.8964 40.4059 10.7733 40.0842 9.29347 39.5695C7.68502 38.9904 6.46259 38.0253 5.69053 36.7386C4.85414 35.5805 4.53244 33.8434 4.66112 31.8489Z" fill="#032856"/>
<path d="M88.494 30.6265H94.4131C94.4131 30.6265 94.5418 29.0823 94.2844 28.3103C93.8984 27.2809 92.7403 26.1871 91.2606 25.7368C90.5528 25.5437 89.5234 25.4151 88.301 25.4151C86.9499 25.4151 85.4058 25.6081 84.1833 26.0584C81.8672 26.9592 79.8083 28.632 79.551 30.6908C79.2936 32.814 80.1944 33.779 80.1944 33.779C80.1944 33.779 78.5216 34.8085 78.1355 35.6449C77.8139 36.5456 77.5565 37.5107 76.7844 37.961C76.5271 38.0897 76.2697 38.2184 76.0767 38.2184C75.6907 38.2184 75.4977 37.8324 75.8194 36.5456C76.2697 34.6154 78.3286 27.0879 78.3286 27.0879H80.3874L81.2238 23.9353H79.1006L80.323 19.5603H77.8782C77.8782 19.5603 74.8543 23.6136 70.608 24.7717L69.9646 27.1522H72.4095C72.4095 27.1522 70.3506 34.5511 69.8359 36.5456C69.3212 38.4757 68.6135 38.4757 68.0988 38.4757C67.5841 38.4757 67.6484 37.575 67.9058 36.6099C68.1631 35.5805 68.9352 32.7496 69.3212 31.3985C69.7072 30.0474 69.9003 28.246 68.8708 27.0879C67.9701 26.0585 66.4903 25.4151 64.7532 25.4151C64.6245 25.4151 64.4958 25.4151 64.3028 25.4151C62.3727 25.5437 61.2789 26.0584 61.2789 26.0584L61.4076 25.4794H55.4885C55.4885 25.4794 53.0436 34.6154 52.6576 36.2239C52.2716 37.768 51.6282 38.3471 50.9848 38.3471H50.9205C50.2128 38.2827 50.3414 37.575 50.5988 36.5456C50.9205 35.5162 53.5583 25.4794 53.5583 25.4794C53.5583 25.4794 50.5988 25.4794 49.8267 25.4794C48.6043 25.4794 48.0253 26.1228 48.0253 26.1228C48.0253 26.1228 47.1889 25.4794 45.3231 25.4794C45.3231 25.4794 45.3231 25.4794 45.2587 25.4794C43.1999 25.4794 40.755 25.9941 39.1466 27.6026C37.6668 29.0824 36.7017 30.9482 36.0583 33.7147C35.3506 36.8029 34.9003 38.0254 33.6778 38.4114C33.6135 38.4114 33.5492 38.4757 33.4848 38.4757C32.9058 38.4757 33.1631 37.382 33.4205 36.0309C33.6135 35.1301 36.2514 25.4794 36.2514 25.4794H32.3911C31.233 25.4794 30.1392 26.0585 29.7532 27.7312C29.4315 29.018 28.0804 34.2294 27.5014 36.4812C26.7293 39.4408 27.9517 41.4996 31.7477 41.6926C31.8764 41.6926 31.9407 41.6926 32.0694 41.6926C34.9646 41.6926 36.5731 39.9555 36.5731 39.9555C36.5731 39.9555 37.4738 41.4353 40.6264 41.6283C40.8194 41.6283 41.0767 41.6283 41.2697 41.6283C44.1006 41.6283 45.4517 40.4702 45.4517 40.4702C45.4517 40.4702 46.2881 41.4353 48.2183 41.6283C48.54 41.6926 48.926 41.6926 49.1833 41.6926C50.5344 41.6926 51.3708 41.371 51.3708 41.371L51.3065 41.6926H57.29C57.29 41.6926 59.5418 33.2 59.8635 31.7846C60.1852 30.3691 61.1503 28.9537 62.3727 28.825C62.63 28.825 62.8874 28.7607 63.1447 28.7607C63.8525 28.7607 64.1098 29.0823 63.6594 30.8838C63.0804 33.1357 62.63 34.8728 62.1153 36.7386C61.6006 38.6044 61.858 41.0493 65.0749 41.6283C65.6539 41.757 66.1043 41.757 66.619 41.757C69.3856 41.757 70.994 40.3415 70.994 40.3415C70.994 40.3415 71.9591 41.6283 74.5969 41.6926C74.7256 41.6926 74.8543 41.6926 74.9186 41.6926C77.6852 41.6926 79.0363 40.5989 79.0363 40.5989C79.0363 40.5989 80.0657 41.4996 82.5106 41.6283C83.0896 41.6283 83.6686 41.6926 84.312 41.6926C86.3708 41.6926 88.5583 41.4353 90.1668 40.2129C92.29 38.6687 93.5124 36.0309 92.869 34.3581C92.2256 32.6853 90.1668 31.9776 88.88 31.6559C87.6576 31.3342 86.0492 31.1412 85.7918 30.3048C85.4701 29.5327 86.3065 28.9537 86.8856 28.7607C87.0786 28.6963 87.4003 28.632 87.722 28.632C88.301 28.632 88.88 28.7607 88.8157 29.2754C88.6227 29.9831 88.494 30.6265 88.494 30.6265ZM87.5933 27.7312C87.2072 27.7312 86.8212 27.7956 86.5639 27.8599C86.0492 27.9886 85.3414 28.3746 84.9554 29.0824C84.6981 29.5327 84.698 30.0474 84.8911 30.5621C85.2771 31.6559 86.6282 31.9776 87.9793 32.2993C88.1723 32.3636 88.4297 32.4279 88.6227 32.4279C90.4885 32.8783 91.6466 33.6504 92.0326 34.5511C92.2256 35.1301 92.1613 35.9665 91.7753 36.8029C91.3249 37.768 90.5528 38.6687 89.6521 39.3765C88.4297 40.2772 86.7569 40.6632 84.312 40.6632C83.7973 40.6632 83.2183 40.6632 82.5749 40.5989C80.5804 40.4702 79.6797 39.8268 79.6153 39.7625L79.1006 39.2478L78.5216 39.7625C78.4572 39.8268 77.2992 40.6632 74.983 40.6632C74.8543 40.6632 74.79 40.6632 74.6613 40.6632C72.6025 40.5989 71.8304 39.7625 71.7661 39.6338L71.2514 38.8618L70.5436 39.5052C70.4793 39.5695 69.0639 40.7276 66.7477 40.7276C66.2973 40.7276 65.847 40.6632 65.3322 40.5989C64.3672 40.4059 63.6594 40.0199 63.2734 39.4408C62.6944 38.5401 62.8874 37.382 63.0804 36.8029C63.2091 36.3526 63.3378 35.9022 63.4664 35.4518C63.8525 34.1007 64.2385 32.6853 64.6889 30.9482C65.0106 29.7257 65.0749 28.8893 64.6245 28.3103C64.2385 27.7956 63.5308 27.7956 63.3378 27.7956C63.0804 27.7956 62.8231 27.7956 62.5657 27.8599H62.5014C60.6999 28.0529 59.6061 29.9188 59.2201 31.4629C58.9628 32.621 57.3543 38.7331 56.8396 40.7276H52.7219L52.9793 39.8268L51.3065 40.4702C51.2422 40.4702 50.5344 40.7276 49.4407 40.7276C49.119 40.7276 48.8617 40.7276 48.54 40.6632C47.0602 40.5346 46.4168 39.8912 46.2881 39.8268L45.7734 39.1835L45.13 39.7625C45.0657 39.8268 43.9076 40.7276 41.5271 40.7276C41.3341 40.7276 41.1411 40.7276 40.9481 40.7276C38.4389 40.5989 37.6668 39.5695 37.5381 39.4408L36.9591 38.4114L36.1227 39.3121C36.0584 39.3765 34.7072 40.7919 32.2624 40.7919C32.1981 40.7919 32.0694 40.7919 32.005 40.7919C30.3966 40.7276 29.3672 40.3415 28.7881 39.5695C28.2734 38.9261 28.2091 37.8967 28.5308 36.6743C28.7238 36.0309 28.9168 35.1301 29.1742 34.1651C29.8175 31.6559 30.5896 28.825 30.7826 27.9243C31.04 26.8949 31.619 26.3801 32.5841 26.3801H35.3506C34.6429 28.9537 32.9701 35.1301 32.8414 35.8379C32.5197 37.2533 32.3267 38.2184 32.8414 38.8618C33.0345 39.1191 33.4205 39.3121 33.7422 39.3121C33.8709 39.3121 34.0639 39.3121 34.1925 39.2478C35.9297 38.6687 36.4444 36.8673 37.1521 33.9077C37.7311 31.3342 38.5675 29.6614 39.983 28.246C40.6264 27.6026 41.4628 27.0879 42.5565 26.7662C43.4572 26.5088 44.4223 26.3802 45.5161 26.3158H45.5804C46.9958 26.3158 47.7036 26.7662 47.7679 26.8305L48.4113 27.4096L48.926 26.7018C48.9903 26.6375 49.3764 26.3158 50.0841 26.3158C50.5344 26.3158 51.7569 26.3158 52.7219 26.3158C52.0142 28.9537 50.2771 35.4518 50.0197 36.2882C49.7624 37.1246 49.5694 38.0254 50.0197 38.6044C50.2128 38.8618 50.5344 39.1191 51.0492 39.1835C51.1135 39.1835 51.1778 39.1835 51.1778 39.1835C51.9499 39.1835 53.0436 38.6687 53.687 36.4169C54.0087 35.0658 55.8102 28.439 56.3892 26.3158H60.5069L60.1208 27.6669L61.858 26.8305C61.9223 26.8305 62.8874 26.3802 64.5602 26.2515C64.6889 26.2515 64.8175 26.2515 64.9462 26.2515C66.426 26.2515 67.7128 26.7018 68.4205 27.6026C69.2569 28.632 68.8065 30.5621 68.6778 31.1412C68.2918 32.4923 67.5197 35.3232 67.2624 36.3526C66.9407 37.575 66.9407 38.3471 67.3267 38.8618C67.5841 39.1835 67.9058 39.3121 68.2918 39.3121C69.2569 39.3121 70.2863 38.9904 70.8653 36.7386C71.38 34.8085 73.4389 27.4739 73.4389 27.3452L73.7606 26.2515H72.6025H71.2514L71.4444 25.4794C74.983 24.3213 77.6208 21.4904 78.4572 20.461H79.358L78.4572 23.7423L78.1355 24.836H79.2936H80.2587L79.8727 26.3158H78.4572H77.8139L77.6208 26.9592C77.5565 27.2809 75.562 34.5511 75.1117 36.4812C74.8543 37.6393 74.8543 38.2827 75.2403 38.7331C75.4977 39.0548 75.8194 39.1835 76.2054 39.1835C76.5271 39.1835 76.9131 39.0548 77.3635 38.7974C78.2642 38.2827 78.5859 37.3176 78.9076 36.4812C78.9719 36.3526 79.0363 36.1595 79.1006 36.0309C79.2293 35.7092 80.0657 35.0015 80.7734 34.5511L81.6742 33.9721L80.9021 33.2C80.9021 33.2 80.2587 32.4279 80.4517 30.8195C80.5804 30.0474 80.9664 29.2754 81.7385 28.5677C82.4462 27.8599 83.4113 27.2809 84.5694 26.8949C85.5988 26.5088 86.9499 26.3158 88.4297 26.3158C89.4591 26.3158 90.4885 26.4445 91.1319 26.6375C92.483 27.0235 93.3837 27.9886 93.6411 28.6963C93.7054 28.9537 93.7697 29.4041 93.7697 29.8544H89.6521C89.6521 29.7257 89.7164 29.5971 89.7164 29.404C89.7808 29.018 89.6521 28.632 89.3947 28.3746C88.88 27.9243 88.3653 27.7312 87.5933 27.7312Z" fill="#032856"/>
<path d="M45.4525 27.6669C44.8735 27.6669 44.2301 27.8599 43.7154 28.2459C42.7503 28.8893 42.2356 29.9831 41.9782 30.8195C41.5279 32.1062 41.0775 33.7147 40.8845 34.8084C40.6271 36.0952 40.3698 37.575 41.0132 38.4757C41.2705 38.8617 41.6566 39.0547 42.1713 39.1191C42.2999 39.1191 42.4286 39.1191 42.5573 39.1191C42.6216 39.1191 42.686 39.1191 42.7503 39.1191H42.8146C42.879 39.1191 42.9433 39.1191 42.9433 39.1191C42.9433 39.1191 42.9433 39.1191 43.0077 39.1191C43.072 39.1191 43.1363 39.1191 43.2007 39.1191C43.265 39.1191 43.3293 39.1191 43.3937 39.0547C43.8441 38.9261 44.2944 38.733 44.6804 38.347C44.7448 38.2827 44.7448 38.2827 44.8091 38.2184L44.8735 38.154L44.9378 38.0897C45.4525 37.4463 45.6455 36.7386 45.7742 36.3525C45.9029 35.8378 46.0959 35.1301 46.3532 34.3581C46.4176 34.165 46.4819 33.972 46.4819 33.779C46.6749 33.0069 46.868 32.2349 47.061 31.5272C47.1253 31.3341 47.1253 31.2055 47.1896 31.0125C47.5113 29.8544 47.447 29.018 46.9966 28.3746C46.5463 27.9242 46.0316 27.6669 45.4525 27.6669ZM44.8091 36.0952C44.7448 36.4169 44.6161 36.6742 44.4874 36.9316C44.1014 37.7036 43.651 38.0897 42.9433 38.2184C42.8146 38.2184 42.6216 38.2827 42.493 38.2827C42.3643 38.2827 42.2999 38.2827 42.1713 38.2827C41.0132 38.154 41.4635 36.0952 41.6566 35.0658C41.8496 34.0364 42.2999 32.4922 42.7503 31.2055C43.0077 30.4334 43.3937 29.597 44.1657 29.0823C44.5518 28.825 45.0021 28.6319 45.3882 28.6319H45.4525C46.0316 28.6319 46.4819 29.018 46.4176 30.0474C46.4176 30.3047 46.3532 30.5621 46.2889 30.8195C45.7099 32.5566 45.1952 34.8084 44.8091 36.0952Z" fill="#032856"/>
<path d="M83.0267 34.358C82.9624 34.358 82.9624 34.358 82.9624 34.358L82.705 34.2937L82.4477 34.4224C82.2547 34.4867 82.0616 34.6154 81.933 34.7441C81.5469 35.0014 81.2896 35.4518 81.0966 35.9022C80.9036 36.5455 80.9036 37.1889 81.2252 37.7036C81.6756 38.4113 82.319 38.7974 83.3484 39.0547C83.6701 39.1191 84.0561 39.1834 84.5065 39.2477C84.6995 39.2477 84.8282 39.2477 84.9569 39.2477C85.1499 39.2477 85.3429 39.2477 85.4716 39.1834C86.2436 39.0547 86.8227 38.733 87.273 38.2183C87.5304 37.8966 87.6591 37.5106 87.6591 37.1246C87.6591 36.9959 87.6591 36.8672 87.5947 36.7385C87.4017 35.9665 86.887 35.5805 86.2436 35.3874C85.9863 35.3231 85.7933 35.2588 85.5359 35.1944C85.4716 35.1944 85.3429 35.1301 85.2786 35.1301C85.2142 35.1301 85.2142 35.1301 85.1499 35.0657C84.4422 34.8084 83.2841 34.4224 83.0267 34.358ZM86.7583 36.8672C86.7583 36.9316 86.7583 36.9316 86.7583 36.8672C86.8227 37.5106 86.2436 38.2827 84.8925 38.2827C84.7638 38.2827 84.6352 38.2827 84.5065 38.2827C82.898 38.0896 82.2547 37.768 81.8686 37.1246C81.4826 36.4812 81.933 35.3874 82.6407 35.1301C82.6407 35.1301 84.1848 35.6448 85.0212 35.9022C85.8576 36.1595 86.5653 36.2882 86.7583 36.8672Z" fill="#032856"/>
<path d="M83.4763 43.1724C81.6749 43.2368 79.037 43.2368 75.9487 43.2368C65.2043 43.2368 48.798 42.9794 41.1418 42.9794C39.7907 42.9794 38.6969 42.9794 37.9892 42.9794C18.8164 43.4941 4.59766 46.325 4.59766 46.325C13.991 48.1265 18.4304 54.303 18.4304 54.303C18.4304 54.303 31.1693 49.7993 45.8385 48.6412C50.8568 48.2552 57.2263 48.1265 64.6896 48.0622C72.1528 47.9978 80.3237 47.6761 83.1546 47.4188C85.9855 47.0971 88.1087 46.132 90.3605 43.8802C92.548 41.6283 92.548 39.1191 92.548 39.1191C91.2613 40.5989 87.4009 43.0438 83.4763 43.1724ZM89.7171 43.2368C87.5296 45.2956 85.5995 46.2607 83.026 46.518C80.3881 46.7754 72.3458 47.1614 64.6896 47.1614C58.3844 47.2258 51.2429 47.2901 45.7741 47.7405C38.1179 48.3195 31.0407 49.8636 26.4083 51.0217C22.6124 51.9868 19.8458 52.8875 18.6877 53.2736C18.173 52.6302 17.1436 51.5364 15.5352 50.314C13.991 49.0916 11.6105 47.6118 8.58663 46.518C10.0664 46.2607 11.9966 46.0033 14.2484 45.746C19.6528 45.0382 28.1454 44.2019 38.0535 43.8802C38.7613 43.8802 39.7907 43.8802 41.2061 43.8802C44.6804 43.8802 50.0848 43.9445 55.8109 44.0088C62.5664 44.0732 70.1583 44.1375 76.0131 44.1375C79.3587 44.1375 81.8679 44.1375 83.605 44.0732C86.3072 44.0088 89.4598 42.9151 91.3899 40.9849C91.0039 41.564 90.2962 42.6577 89.7171 43.2368Z" fill="#032856"/>
<defs>
<radialGradient id="paint0_radial_2541_57214" cx="0" cy="0" r="1" gradientUnits="userSpaceOnUse" gradientTransform="translate(41.9515 28.9154) scale(32.4694 32.4694)">
<stop stop-color="white"/>
<stop offset="0.2814" stop-color="#FDFDFD"/>
<stop offset="0.5315" stop-color="#F3F3F4"/>
<stop offset="0.7688" stop-color="#E4E3E4"/>
<stop offset="0.9983" stop-color="#CECDCD"/>
<stop offset="1" stop-color="#CDCCCD"/>
</radialGradient>
<linearGradient id="paint1_linear_2541_57214" x1="32.5923" y1="16.4935" x2="64.5516" y2="51.9079" gradientUnits="userSpaceOnUse">
<stop stop-color="#E6E6E6"/>
<stop offset="1" stop-color="#999999"/>
</linearGradient>
<linearGradient id="paint2_linear_2541_57214" x1="18.7402" y1="29.2295" x2="50.6428" y2="64.5811" gradientUnits="userSpaceOnUse">
<stop stop-color="#E6E6E6"/>
<stop offset="1" stop-color="#999999"/>
</linearGradient>
<linearGradient id="paint3_linear_2541_57214" x1="18.2557" y1="29.5439" x2="50.2196" y2="64.9634" gradientUnits="userSpaceOnUse">
<stop stop-color="#E6E6E6"/>
<stop offset="1" stop-color="#999999"/>
</linearGradient>
<linearGradient id="paint4_linear_2541_57214" x1="17.9653" y1="29.7345" x2="49.9535" y2="65.181" gradientUnits="userSpaceOnUse">
<stop stop-color="#E6E6E6"/>
<stop offset="1" stop-color="#999999"/>
</linearGradient>
<linearGradient id="paint5_linear_2541_57214" x1="19.2702" y1="28.6595" x2="51.1803" y2="64.0194" gradientUnits="userSpaceOnUse">
<stop stop-color="#E6E6E6"/>
<stop offset="1" stop-color="#999999"/>
</linearGradient>
<linearGradient id="paint6_linear_2541_57214" x1="19.9674" y1="28.0154" x2="51.9005" y2="63.4009" gradientUnits="userSpaceOnUse">
<stop stop-color="#E6E6E6"/>
<stop offset="1" stop-color="#999999"/>
</linearGradient>
<linearGradient id="paint7_linear_2541_57214" x1="20.6796" y1="27.3189" x2="52.6574" y2="62.7538" gradientUnits="userSpaceOnUse">
<stop stop-color="#E6E6E6"/>
<stop offset="1" stop-color="#999999"/>
</linearGradient>
<linearGradient id="paint8_linear_2541_57214" x1="42.5856" y1="7.61297" x2="74.5078" y2="42.9863" gradientUnits="userSpaceOnUse">
<stop stop-color="#E6E6E6"/>
<stop offset="1" stop-color="#999999"/>
</linearGradient>
<linearGradient id="paint9_linear_2541_57214" x1="42.8998" y1="7.33586" x2="74.7737" y2="42.6557" gradientUnits="userSpaceOnUse">
<stop stop-color="#E6E6E6"/>
<stop offset="1" stop-color="#999999"/>
</linearGradient>
<linearGradient id="paint10_linear_2541_57214" x1="43.3628" y1="6.87486" x2="75.4105" y2="42.3872" gradientUnits="userSpaceOnUse">
<stop stop-color="#E6E6E6"/>
<stop offset="1" stop-color="#999999"/>
</linearGradient>
<linearGradient id="paint11_linear_2541_57214" x1="43.8931" y1="6.52625" x2="75.7566" y2="41.8345" gradientUnits="userSpaceOnUse">
<stop stop-color="#E6E6E6"/>
<stop offset="1" stop-color="#999999"/>
</linearGradient>
<linearGradient id="paint12_linear_2541_57214" x1="44.1171" y1="6.09901" x2="76.1397" y2="41.5835" gradientUnits="userSpaceOnUse">
<stop stop-color="#E6E6E6"/>
<stop offset="1" stop-color="#999999"/>
</linearGradient>
</defs>
</svg>
