<svg width="70" height="70" viewBox="0 0 70 70" fill="none" xmlns="http://www.w3.org/2000/svg">
<g clip-path="url(#clip0_2521_55347)">
<path d="M3.1802 41.8512L3.13601 41.4534L6.36202 39.7299L2.78247 39.1113L2.73828 38.7135L7.95293 36.062L8.12969 37.0784L4.99207 38.6251L8.43904 39.1996L8.48323 39.6416L5.3898 41.2767L8.83677 41.7628L9.01353 42.7792L3.1802 41.8512Z" fill="#004386"/>
<path d="M8.34912 44.4143C8.74685 44.5027 9.05619 44.7678 9.18877 45.1655C9.5423 46.0494 9.10038 46.7123 7.9072 47.1984C7.28851 47.4193 6.8024 47.5077 6.36048 47.3751C5.96276 47.2426 5.65341 46.9774 5.47665 46.5355C5.34407 46.1378 5.38826 45.7842 5.60922 45.4749C5.87437 45.1655 6.2721 44.8562 6.89079 44.6352C7.46528 44.4143 7.95139 44.3259 8.34912 44.4143ZM4.76957 44.9888C4.41604 45.5633 4.41604 46.1819 4.68119 46.8448C4.99053 47.5961 5.43245 48.0822 6.09533 48.3032C6.75821 48.5241 7.46528 48.4799 8.30493 48.1706C9.14457 47.8612 9.67488 47.4193 9.98422 46.8448C10.2936 46.2703 10.2936 45.6075 10.0284 44.9004C9.76326 44.2375 9.32134 43.7956 8.65846 43.5746C7.99558 43.3537 7.28851 43.3979 6.58144 43.7072C5.6976 43.9724 5.12311 44.4143 4.76957 44.9888Z" fill="#004386"/>
<path d="M8.26109 53.6504L9.8078 49.5405L6.93533 51.3524L6.44922 50.5569L11.1336 47.6403L11.3987 48.038L9.94038 51.9711L12.7687 50.2034L13.2548 50.9988L8.52624 53.9155L8.26109 53.6504Z" fill="#004386"/>
<path d="M11.6669 57.716L12.3739 55.0203L11.3575 55.1087L10.2527 56.1251L9.58984 55.4181L13.6997 51.7059L14.3626 52.413L12.3739 54.1807L15.5999 53.8271L16.3512 54.6668L13.3903 54.9761L12.4623 58.5557L11.6669 57.716Z" fill="#004386"/>
<path d="M16.8353 62.1353L16.526 61.8701L17.6308 58.379L14.6257 60.456L14.3164 60.235L16.2167 54.7111L17.0121 55.3297L15.8631 58.5999L18.7356 56.6113L19.0891 56.8765L17.9843 60.1909L20.8126 58.158L21.6081 58.7767L16.8353 62.1353Z" fill="#004386"/>
<path d="M22.2253 62.9307L21.0321 62.3563L22.5346 60.8095L22.2253 62.9307ZM22.9766 65.3613L23.4185 59.3954L23.0208 59.2186L18.6016 63.2843L19.5738 63.7704L20.4134 62.9307L22.0927 63.7704L21.9601 64.9636L22.9766 65.3613Z" fill="#004386"/>
<path d="M27.6188 66.8196L26.0279 62.7539L25.0999 66.0241L24.1719 65.759L25.6744 60.4559L26.1163 60.5885L27.7072 64.4774L28.6353 61.2956L29.5633 61.5607L28.0166 66.9079L27.6188 66.8196Z" fill="#004386"/>
<path d="M34.3358 62.5771L33.8497 63.3284C33.7613 63.1958 33.5845 63.1074 33.3636 62.9748C33.1426 62.8423 32.9216 62.7981 32.7449 62.7539C32.2146 62.7097 31.7727 62.8423 31.4191 63.1958C31.0656 63.5493 30.8888 63.9912 30.8004 64.6099C30.7562 65.1844 30.8446 65.6705 31.1098 66.0683C31.3749 66.466 31.7727 66.6428 32.303 66.7311C32.6565 66.7753 32.9658 66.687 33.1868 66.5102L33.2752 65.4496L32.5239 65.3612L32.6123 64.5216L34.3358 64.6983L34.1148 67.1731C33.8497 67.3498 33.5403 67.4382 33.1868 67.5266C32.7891 67.615 32.4355 67.615 32.082 67.5708C31.2865 67.4824 30.7121 67.1731 30.2701 66.5986C29.8724 66.0241 29.6956 65.317 29.784 64.4774C29.8724 63.6377 30.1817 62.9748 30.7562 62.4887C31.3307 62.0026 31.9936 61.8258 32.8775 61.9142C33.452 61.9584 33.9823 62.1794 34.3358 62.5771Z" fill="#004386"/>
<path d="M37.3398 62.0469L38.3121 61.8702L38.9308 65.5381C38.9749 65.8474 39.1075 66.0684 39.3285 66.201C39.5494 66.3335 39.8146 66.4219 40.1239 66.3335C40.4775 66.2893 40.7426 66.1568 40.8752 65.9358C41.052 65.7148 41.0962 65.4497 41.052 65.1403L40.4333 61.4724L41.4055 61.2957L42.0242 65.0078C42.1126 65.5823 41.98 66.0242 41.6707 66.4219C41.3613 66.8196 40.8752 67.0406 40.2565 67.129C39.6378 67.2174 39.1075 67.1732 38.7098 66.908C38.3121 66.6429 38.0911 66.2452 37.9585 65.6707L37.3398 62.0469Z" fill="#004386"/>
<path d="M47.462 65.1845L43.794 62.7981L44.943 65.98L44.0592 66.2893L42.2031 61.1189L42.645 60.9421L46.2246 63.1959L45.1198 60.0582L46.0036 59.7489L47.9039 65.0077L47.462 65.1845Z" fill="#004386"/>
<path d="M49.2728 64.2564L46.7539 59.3511L47.6377 58.9092L50.1567 63.8145L49.2728 64.2564Z" fill="#004386"/>
<path d="M53.294 61.9585L52.8521 62.2678L48.0352 58.8208L48.919 58.2021L52.0566 60.5885L51.0844 56.7438L51.9682 56.1693L53.294 61.9585Z" fill="#004386"/>
<path d="M53.4703 55.86L54.3541 56.788L55.6357 55.5948L56.2102 56.2135L54.9286 57.4067L56.0334 58.5999L57.8453 56.9206L58.4198 57.5393L55.9008 59.9257L52.1445 55.9042L54.6635 53.5178L55.238 54.1365L53.4703 55.86Z" fill="#004386"/>
<path d="M56.6068 52.5014C56.8719 52.1478 57.0929 51.9269 57.3138 51.8385C57.5348 51.7501 57.7558 51.7943 57.9325 51.9269C58.1977 52.1478 58.3303 52.3246 58.2861 52.5456C58.2419 52.7665 58.1093 53.0317 57.8883 53.341C57.8441 53.4294 57.7558 53.5178 57.6232 53.6504L56.43 52.7223C56.4742 52.6781 56.5184 52.5897 56.6068 52.5014ZM62.0866 53.0759L59.1257 52.8549C59.2141 52.5456 59.2141 52.2362 59.1257 51.9269C59.0373 51.6175 58.8606 51.3524 58.5954 51.1756C57.7558 50.5127 56.8719 50.7337 56.0323 51.8385C55.8997 52.0153 55.7229 52.2804 55.502 52.5456C55.281 52.8549 55.1484 53.0317 55.1484 53.0759L59.4792 56.4344L60.0979 55.639L58.2861 54.2248C58.4628 54.0039 58.5954 53.8713 58.6838 53.7387L61.3795 53.9597L62.0866 53.0759Z" fill="#004386"/>
<path d="M62.1776 52.2804L61.6032 51.5292C62.0009 51.3082 62.3102 51.0431 62.487 50.7337C62.7521 50.2476 62.708 49.8941 62.3986 49.6731C62.2218 49.5847 62.0451 49.5405 61.8241 49.5847C61.6032 49.6289 61.2938 49.7615 60.8961 50.0267C60.4984 50.2918 60.2332 50.4686 60.0122 50.5128C59.8355 50.557 59.6145 50.6011 59.4378 50.557C59.2168 50.5128 59.04 50.4686 58.8191 50.336C58.4655 50.115 58.2004 49.8057 58.112 49.408C58.0236 49.0102 58.112 48.5683 58.333 48.1706C58.6423 47.5961 58.9516 47.2868 59.3052 47.11L59.8797 47.7729C59.4819 47.9496 59.2168 48.2148 59.04 48.5241C58.9075 48.7009 58.9074 48.9219 58.9516 49.0544C58.9958 49.2312 59.0842 49.3638 59.261 49.4522C59.5261 49.5847 60.0122 49.4522 60.6309 49.0102C60.9845 48.7893 61.2496 48.6125 61.4706 48.5683C61.6915 48.4799 61.9125 48.4799 62.1335 48.5241C62.3544 48.5683 62.5754 48.6125 62.7963 48.7451C63.1941 48.966 63.415 49.2754 63.5034 49.7615C63.5918 50.2034 63.4592 50.6895 63.1941 51.2198C62.9731 51.7059 62.6196 52.0153 62.1776 52.2804Z" fill="#004386"/>
<path d="M64.5625 48.3031L59.4805 46.1377L59.8782 45.2539L64.9603 47.4193L64.5625 48.3031Z" fill="#004386"/>
<path d="M61.7354 42.514L66.1988 43.7956L65.9337 44.7236L61.4703 43.4421L60.9842 45.1214L60.1445 44.9004L61.4261 40.5254L62.2657 40.7464L61.7354 42.514Z" fill="#004386"/>
<path d="M64.9624 38.2274L67.2162 38.4926L67.0836 39.4648L64.8298 39.1996L61.3828 40.658L61.5154 39.6416L63.9901 38.6251L61.8247 37.0784L61.9573 36.062L64.9624 38.2274Z" fill="#004386"/>
<path d="M34.9987 59.7932C21.3434 59.7932 10.207 48.701 10.207 35.0015C10.207 21.302 21.2992 10.2098 34.9987 10.2098C48.654 10.2098 59.7904 21.302 59.7904 35.0015C59.7904 48.701 48.654 59.7932 34.9987 59.7932ZM34.9987 11.0053C21.7853 11.0053 11.0025 21.7881 11.0025 35.0015C11.0025 48.2149 21.7853 58.9977 34.9987 58.9977C48.2121 58.9977 58.9949 48.2149 58.9949 35.0015C58.9949 21.7881 48.2563 11.0053 34.9987 11.0053Z" fill="#004386"/>
<path d="M35 70.0015C15.6881 70.0015 0 54.3133 0 35.0015C0 15.6896 15.6881 0.00146484 35 0.00146484C54.3119 0.00146484 70 15.6896 70 35.0015C70 54.3133 54.3119 70.0015 35 70.0015ZM35 0.355C15.9091 0.355 0.353535 15.9106 0.353535 35.0015C0.353535 54.0924 15.9091 69.6479 35 69.6479C54.0909 69.6479 69.6465 54.0924 69.6465 35.0015C69.6465 15.9106 54.1351 0.355 35 0.355Z" fill="#004386"/>
<path d="M50.2917 42.956V19.0482H19.7109V42.956L19.7551 43.6631C19.9761 45.1656 21.1251 49.2313 26.3839 52.3247C26.3839 52.3247 27.0468 52.8108 31.7311 54.9321C31.7311 54.9321 32.8359 55.2856 34.913 57.0091C36.8132 55.374 37.3435 55.1972 38.0948 54.7995C40.0392 53.8273 43.5304 52.3247 43.5304 52.3247C48.966 49.5848 49.9382 45.1656 50.1592 43.6631L50.2917 42.956Z" fill="#004386"/>
<path d="M34.9531 20.5065V55.1087C36.0579 54.2249 36.6324 53.9156 37.2953 53.6062L37.4721 53.5178C39.3281 52.5898 42.5099 51.2199 42.9519 51.0431C47.0617 48.9661 48.3875 45.8284 48.7852 43.5305C48.7852 43.3979 48.8294 43.0002 48.8294 42.9118C48.8294 42.8234 48.8294 23.1138 48.8294 20.5507C47.5036 20.5065 41.2284 20.5065 34.9531 20.5065Z" fill="#004386"/>
<path d="M21.2109 20.5065C21.2109 23.1138 21.2109 42.8234 21.2109 42.9118C21.2109 43.0002 21.2551 43.3979 21.2551 43.4863C21.4761 44.9004 22.5367 48.3474 27.1768 51.0431L27.221 51.0873C27.221 51.0873 27.2652 51.0873 27.2652 51.1315C27.3094 51.1757 28.1933 51.706 32.3031 53.562C32.6125 53.6946 33.4963 54.0481 34.9104 55.1087V20.5065C28.6794 20.5065 22.4925 20.5065 21.2109 20.5065Z" fill="#D0121B"/>
<path d="M34.9114 55.3297L34.823 55.2855C33.4089 54.2691 32.5692 53.8714 32.2599 53.783C28.1501 51.9269 27.2662 51.3966 27.1778 51.3082L27.0895 51.2641C22.3609 48.48 21.3445 44.9888 21.0793 43.5747C21.0793 43.4863 21.0793 43.3095 21.0352 43.1327V42.956V20.4181H48.9203V43.1327C48.9203 43.2653 48.8761 43.4863 48.8761 43.5747C48.4783 45.8726 47.1526 49.0545 42.9985 51.2199C42.9544 51.2199 39.5074 52.7224 37.5187 53.6946L37.342 53.783C36.7233 54.0923 36.1046 54.4017 34.9998 55.2855L34.9114 55.3297ZM21.3445 20.6832V42.956V43.1327C21.3445 43.2653 21.3445 43.4863 21.3887 43.5305C21.6097 44.8562 22.6261 48.3032 27.2662 50.9989L27.3988 51.0873C27.443 51.0873 28.2826 51.6618 32.4367 53.5178C32.746 53.6062 33.5857 54.004 34.9556 55.0204C36.0162 54.1807 36.6349 53.8714 37.2536 53.562L37.4304 53.4736C39.419 52.5014 42.866 50.9989 42.9102 50.9989C46.9758 48.9219 48.2574 45.8284 48.6551 43.5747C48.6551 43.5305 48.6551 43.3095 48.6993 43.1769V43.0002V20.6832H21.3445Z" fill="white"/>
<path d="M7.51093 28.7262C7.51093 29.6542 6.75967 30.4055 5.83164 30.4055C4.90361 30.4055 4.15234 29.6542 4.15234 28.7262C4.15234 27.7981 4.90361 27.0469 5.83164 27.0469C6.75967 27.0469 7.51093 27.7981 7.51093 28.7262Z" fill="#004386"/>
<path d="M65.757 28.7262C65.757 29.6542 65.0058 30.4055 64.0777 30.4055C63.1497 30.4055 62.3984 29.6542 62.3984 28.7262C62.3984 27.7981 63.1497 27.0469 64.0777 27.0469C65.0058 27.0469 65.757 27.7981 65.757 28.7262Z" fill="#004386"/>
<path d="M8.30806 17.3689C9.28029 18.0318 7.86614 20.0204 6.89392 19.3575C6.01008 18.6947 7.38003 16.706 8.30806 17.3689ZM8.92675 16.5293C8.17549 15.999 7.24746 16.5293 6.67296 17.3689C6.31943 17.1037 5.9217 17.6341 6.31943 17.8992C5.83332 18.6947 5.52397 19.6227 6.31943 20.2414C7.91034 21.3462 10.4293 17.6341 8.92675 16.5293ZM12.6389 16.7944L9.05933 14.2755C8.92675 14.1871 8.79417 14.1871 8.6616 14.3197L7.99872 15.2477C7.77776 15.3803 7.86614 15.8222 8.1313 15.7338L8.52902 15.2919L10.5619 16.706C10.5177 16.927 10.4293 17.1037 10.2967 17.2805L7.33584 21.4787C7.11488 21.7881 7.51261 22.1416 7.77776 21.7881L9.01513 20.0204L9.89897 20.6391L10.2083 20.1972C10.3851 19.932 10.3851 19.7111 10.1641 19.5785L9.58963 19.1808L10.6944 17.5899C10.827 17.3689 10.9154 17.1921 10.9596 17.0154L11.5341 17.4131L10.7386 18.5179C10.5177 18.8272 10.9596 19.1366 11.1805 18.8272L11.976 17.7224L12.8156 18.3411L13.1692 17.8108C13.3901 17.5015 13.2134 17.1921 12.6389 16.7944ZM14.7601 18.0318C15.0252 17.6782 14.4949 17.4131 14.274 17.7224L11.6225 21.4787L10.4293 20.6391C10.2967 20.5507 10.2083 20.5949 10.1199 20.7275L9.36867 21.7881C9.1919 22.0532 9.50125 22.23 9.7222 22.0532L9.98736 21.7439L11.048 22.4952C11.2689 22.6719 11.5341 22.5835 11.7108 22.3626L14.7601 18.0318Z" fill="#004386"/>
<path d="M23.2022 10.2539C23.8209 11.2704 21.8323 12.4193 21.2578 11.4029C20.5949 10.3423 22.5393 9.14914 23.2022 10.2539ZM23.5558 6.32086C23.9093 6.0999 23.6441 5.61379 23.2906 5.83475L22.3184 6.40924L21.3904 4.86253C21.302 4.72995 21.2136 4.68576 21.0368 4.72995L20.0204 5.30445C19.7552 5.34864 19.6669 5.74637 19.9762 5.79056L20.5065 5.52541L21.8323 7.735C21.6555 7.95596 21.3903 8.17692 20.9042 8.48626L19.4901 9.32591L18.9598 8.39788C18.8714 8.2653 18.783 8.2653 18.6505 8.35369L17.5898 8.97238C17.4131 9.10495 17.5457 9.32591 17.7666 9.23753L18.1201 9.06076L18.5621 9.85621L17.1921 10.6959C16.7944 10.9168 17.1037 11.4471 17.5015 11.182L21.2136 8.97238C21.5671 8.75142 21.8323 8.53046 22.1416 8.26531L22.451 8.8398L22.9813 8.53046C23.2464 8.35369 23.3348 8.13273 23.158 7.86758L22.5393 6.85116L23.5558 6.32086ZM20.8159 7.51404L20.0204 6.18828C19.8878 5.92313 19.6669 5.87894 19.3575 6.05571L16.1757 7.95596C15.778 8.17692 16.1315 8.66303 16.485 8.44207L19.1808 6.85116L20.153 8.48626L20.6391 8.17692C20.86 8.04434 20.9484 7.77919 20.8159 7.51404ZM24.1744 9.72364C23.7325 8.92818 22.5835 8.97238 21.7881 9.32591C21.6113 8.97238 20.9484 9.41429 21.2136 9.67945C20.3739 10.2981 19.8436 11.3145 20.2856 12.0216C21.302 13.6567 25.1467 11.4913 24.1744 9.72364Z" fill="#004386"/>
<path d="M37.5201 9.4586H36.9898V5.0394H36.0617V8.04445C36.0617 8.61895 35.885 8.92829 35.5756 8.92829H35.0453V6.54193C34.736 6.6745 34.4266 6.76289 34.1173 6.76289H31.9519C31.5983 6.76289 31.4216 6.63031 31.4216 6.32097V2.874L31.0238 2.82981C30.8471 2.74142 30.7587 2.43208 31.068 2.43208H33.9405C34.3382 2.43208 34.3824 3.00657 33.9405 3.00657H32.438V6.1442H34.1173C34.515 6.1442 34.8244 6.05582 35.0453 5.92324V2.43208H34.4708C34.2499 2.25531 34.515 1.94597 34.8244 2.03435H35.8408C35.9733 2.07854 36.0617 2.16693 36.0617 2.3437V4.46491H36.9456V2.47627L36.2827 2.43208C36.0175 2.2995 36.3269 1.94597 36.592 2.03435H37.6968C37.8736 2.07854 37.962 2.16693 37.962 2.3437V8.61895C38.0504 9.14925 37.8736 9.4586 37.5201 9.4586Z" fill="#004386"/>
<path d="M49.2312 7.73501C48.6567 8.75143 46.9774 7.77921 47.5519 6.76279C48.1706 5.74638 49.8499 6.7186 49.2312 7.73501ZM53.2085 9.85623C53.562 10.0772 53.8714 9.59107 53.4736 9.37012L52.5014 8.79562L53.2085 7.60244C53.2969 7.46986 53.2527 7.38148 53.1643 7.2489L52.1479 6.63022C51.9711 6.40926 51.5734 6.54183 51.706 6.80698L52.1921 7.16052L50.336 10.3423L50.8663 10.6517C51.1756 10.8284 51.3966 10.7843 51.5292 10.5191L52.2363 9.28173L53.2085 9.85623ZM51.0873 7.60244C51.4408 7.8234 51.7501 7.33729 51.3524 7.11633L49.8499 6.23249L50.2034 5.65799C50.2918 5.52542 50.2476 5.43703 50.115 5.34865L49.0102 4.68577C48.8335 4.59739 48.6567 4.81835 48.8335 4.99511L49.1428 5.26027L48.9219 5.65799L47.331 4.72996C46.9332 4.509 46.7123 4.99511 47.0658 5.21607L47.9496 5.74638C47.331 5.70219 46.889 5.87895 46.6681 6.32087C45.7842 7.86759 49.3638 9.9888 50.2918 8.44209C50.557 7.95597 50.5128 7.60244 50.2034 7.07214L51.0873 7.60244ZM50.0709 13.0822L50.9105 11.6239C51.0431 11.4029 50.9547 11.1378 50.6895 10.961L46.3145 8.44209C45.9168 8.22113 45.6517 8.75143 46.0052 8.97239L49.8499 11.182L48.6567 13.2148L49.187 13.5242C49.5405 13.6567 49.8057 13.5242 50.0709 13.0822Z" fill="#004386"/>
<path d="M60.0561 20.6833L59.6584 20.1972L62.4867 17.9876L59.6142 14.3197C59.3049 13.922 59.8352 13.5684 60.1003 13.922L63.3705 18.076C63.5473 18.297 63.5473 18.6063 63.3264 18.7389L61.0284 20.5507C60.5865 20.9043 60.2329 20.9485 60.0561 20.6833ZM55.195 17.148C54.9299 16.7944 55.3718 16.4409 55.637 16.7944L56.5208 17.8992L58.0233 16.7061L57.7582 16.2199C57.6698 16.0432 57.8907 15.778 58.0675 15.999L58.9514 17.1038C59.0397 17.2364 59.0397 17.3689 58.9514 17.4573L57.2721 18.7831L57.8907 19.5785L59.4375 18.3853L59.1723 17.9876C59.0839 17.7667 59.3491 17.5457 59.4817 17.7667L60.3213 18.8273C60.4097 18.9598 60.4097 19.0924 60.2771 19.1808L58.5536 20.5066L59.8352 22.0975C60.1445 22.4952 59.6584 22.8045 59.3933 22.451L55.195 17.148Z" fill="#004386"/>
<path d="M28.5463 34.5153C28.9882 34.5153 29.386 34.7804 29.4301 35.3549C29.5185 36.1946 28.2812 36.99 28.2812 36.99C26.9112 37.9622 26.1157 39.1554 26.1157 39.1554C26.1157 39.1554 23.3758 43.1327 26.9554 46.4471C26.9554 46.4471 28.944 48.3473 32.3468 47.5077C32.3468 47.5077 36.545 46.4913 36.0589 41.4534C36.0589 41.4534 35.7496 38.8461 33.3632 38.2274C33.3632 38.2274 30.4466 37.3877 29.4743 39.9951C29.4743 39.9951 29.0324 41.0557 29.4301 41.8511C29.6953 42.6908 30.4907 43.2211 31.4188 43.1327C32.4352 43.0443 33.1865 42.1605 33.1423 41.1441C33.3632 41.3208 33.7168 41.7185 33.4958 42.5582C33.4958 42.5582 33.1423 44.4584 30.8885 44.5468C28.0602 44.6352 27.9276 41.8953 27.9276 41.8953C27.6625 39.288 30.0488 37.5645 30.0488 37.5645C32.0375 36.1946 32.0375 34.692 32.0375 34.692C32.0375 34.692 32.17 32.836 30.0488 32.7918C30.0488 32.7918 33.2306 32.3941 33.0097 30.0519C33.0097 30.0519 32.7445 30.9357 31.0211 31.1567C31.0211 31.1567 28.8556 31.3776 29.165 33.0127C29.165 33.0127 27.6625 33.4547 27.088 34.9572C27.088 34.913 27.8834 34.4269 28.5463 34.5153Z" fill="white"/>
<path d="M33.3207 40.3487C33.1881 39.73 32.7904 37.4762 32.7904 37.4762C32.4369 34.9572 33.1439 33.1454 33.1439 33.1454C33.7626 31.5103 35.0442 30.1403 35.0442 30.1403C35.6629 29.4333 37.1212 28.2843 37.1212 28.2843C40.0821 25.7211 37.8283 22.4509 37.8283 22.4509C41.452 25.8095 39.2866 29.3007 39.2866 29.3007C38.6679 30.5822 37.6073 31.4219 37.6073 31.4219C35.1326 33.7199 35.6629 36.9459 35.6629 36.9459L36.1048 41.4976L33.3207 40.3487Z" fill="white"/>
<path d="M34.2031 47.331C40.2574 46.6681 39.1526 41.4534 39.1526 41.4534C38.9759 39.8183 38.7107 36.4156 38.7107 36.4156C38.5781 33.8966 41.0529 33.1012 41.0529 33.1012C41.5832 32.8802 41.9809 32.836 42.5996 32.7034C43.395 32.4825 43.7486 32.3057 43.7486 32.3057C47.1072 30.7148 47.063 27.0469 47.063 27.0469C46.0024 30.0077 41.2738 30.6706 41.2738 30.6706C35.8382 31.8196 36.4127 36.6807 36.4127 36.6807L36.8546 41.4976C36.8546 41.4976 37.4733 45.2098 34.2031 47.331Z" fill="white"/>
<path d="M42.0718 41.6302C42.4253 46.0052 37.7852 46.7565 37.7852 46.7565C40.4367 45.1214 39.9948 41.7628 39.9948 41.7628L39.5528 36.5924C39.5528 36.5924 39.1109 34.0734 42.5579 33.5431C42.5579 33.5431 45.6513 32.9244 46.4468 30.8474C46.4468 30.8474 46.5793 34.3828 43.7069 35.0456C43.7069 35.0456 41.5857 35.6201 41.7624 37.3878L42.0718 41.6302Z" fill="white"/>
</g>
<defs>
<clipPath id="clip0_2521_55347">
<rect width="70" height="70" fill="white" transform="translate(0 0.00146484)"/>
</clipPath>
</defs>
</svg>
