<svg width="70" height="70" viewBox="0 0 70 70" fill="none" xmlns="http://www.w3.org/2000/svg">
<g clip-path="url(#clip0_2521_55333)">
<path d="M68.5271 35.0015C68.5271 53.5411 53.5395 68.5287 34.9999 68.5287C16.4603 68.5287 1.47266 53.5411 1.47266 35.0015C1.47266 16.4619 16.4603 1.47424 34.9999 1.47424C53.5395 1.47424 68.5271 16.5485 68.5271 35.0015Z" fill="#98002D"/>
<path d="M59.519 35.0015C59.519 48.5163 48.5166 59.5188 35.0017 59.5188C21.4869 59.5188 10.4844 48.5163 10.4844 35.0015C10.4844 21.4866 21.4869 10.4841 35.0017 10.4841C48.5166 10.4841 59.519 21.4866 59.519 35.0015Z" fill="white"/>
<path d="M69.2203 35.0015C69.2203 53.8876 53.8861 69.2218 35 69.2218C16.1139 69.2218 0.779703 53.8876 0.779703 35.0015C0.779703 16.1153 16.1139 0.781168 35 0.781168C53.8861 0.781168 69.2203 16.1153 69.2203 35.0015ZM35 0.00146484C15.6807 0.00146484 0 15.6822 0 35.0015C0 54.3208 15.6807 70.0015 35 70.0015C54.3193 70.0015 70 54.3208 70 35.0015C70 15.6822 54.3193 0.00146484 35 0.00146484Z" fill="#98002D"/>
<path d="M26.5096 39.4198L27.5492 16.8084L28.5888 43.4915L29.4551 13.7762L30.668 45.9173L31.7076 12.65L32.9205 47.0435L33.9601 12.2168L34.9997 47.3034L35.9527 12.2168L37.0789 47.0435L38.1185 12.65L39.2447 45.9173L40.371 13.7762L41.4106 43.4915L42.4502 16.8084L43.6631 39.4198L44.3561 25.9049H52.7596V38.2935C52.7596 45.4841 48.6012 49.9891 48.6012 49.9891C42.97 56.9198 34.9997 56.4866 34.9997 56.4866C26.8561 56.5732 22.1779 50.7688 22.1779 50.7688C17.0665 45.3109 17.3264 38.2935 17.3264 38.2935V25.9049H25.7299L26.5096 39.4198Z" fill="#98002D"/>
<path d="M5.97583 35.1747C5.71593 34.9148 4.76296 33.8752 4.50306 33.7019C4.24315 33.5286 4.15652 33.3554 3.98325 33.3554C3.89662 33.3554 3.89662 33.3554 3.80999 33.442C3.80999 33.5286 3.80999 33.5286 3.72335 33.5286C3.63672 33.5286 3.63672 33.5286 3.63672 33.442C3.63672 33.2687 3.63672 32.9222 3.63672 32.7489C3.63672 32.5757 3.63672 32.1425 3.63672 31.9692C3.63672 31.8826 3.63672 31.8826 3.72335 31.8826C3.80999 31.8826 3.80999 31.8826 3.80999 31.9692C3.80999 32.0559 3.80999 32.2291 3.89662 32.4024C3.98325 32.5757 4.06989 32.8356 4.41642 33.1821C4.58969 33.3554 5.62929 34.4816 5.88919 34.6549C6.23573 34.395 7.7085 33.0955 7.9684 32.8356C8.2283 32.5757 8.57484 32.2291 8.74811 31.8826C8.83474 31.7093 8.83474 31.5361 8.83474 31.4494C8.83474 31.3628 8.83474 31.3628 8.92137 31.3628C9.00801 31.3628 9.00801 31.3628 9.00801 31.5361V32.1425C9.00801 32.3158 9.00801 32.489 9.00801 32.5757C9.00801 32.9222 8.83474 33.0955 8.57484 33.442C8.31494 33.7019 6.75553 35.088 6.49563 35.1747L6.409 35.2613H7.01543C7.62187 35.2613 8.14167 35.2613 8.4882 35.2613C8.66147 35.2613 8.83474 35.1747 8.83474 35.0014C8.83474 34.9148 8.83474 34.7415 8.83474 34.6549C8.83474 34.5682 8.83474 34.5682 8.92137 34.5682C9.00801 34.5682 9.00801 34.6549 9.00801 34.6549C9.00801 35.0014 9.00801 35.4346 9.00801 35.6078C9.00801 35.7811 9.00801 36.2143 9.00801 36.4742C9.00801 36.5608 9.00801 36.6474 8.92137 36.6474C8.92137 36.6474 8.83474 36.6474 8.83474 36.5608C8.83474 36.4742 8.83474 36.3875 8.83474 36.3009C8.83474 36.1276 8.66147 36.1276 8.4882 36.1276C8.2283 36.1276 7.7085 36.041 7.01543 36.041H5.80256C4.76296 36.041 4.58969 36.041 4.32979 36.041C4.06989 36.041 3.98325 36.1276 3.89662 36.3009C3.89662 36.3875 3.89662 36.4742 3.89662 36.5608C3.89662 36.6474 3.89662 36.6474 3.80999 36.6474C3.72335 36.6474 3.72335 36.5608 3.72335 36.4742C3.72335 36.1276 3.72335 35.6945 3.72335 35.5212C3.72335 35.3479 3.72335 34.9148 3.72335 34.7415C3.72335 34.6549 3.72335 34.5682 3.80999 34.5682C3.89662 34.5682 3.89662 34.5682 3.89662 34.6549C3.89662 34.7415 3.89662 34.7415 3.89662 34.8281C3.89662 35.0014 4.06989 35.088 4.24315 35.088C4.41642 35.088 4.67632 35.088 5.71593 35.088L5.97583 35.1747Z" fill="white"/>
<path d="M7.62313 29.5435C7.27659 29.4569 7.10332 29.5435 6.93006 29.5435C6.84342 29.5435 5.19738 30.15 4.76422 30.3232C4.50431 30.4099 4.24441 30.5831 4.15778 30.6698C4.07115 30.7564 4.07115 30.843 3.98451 30.9297C3.98451 31.0163 3.98451 31.0163 3.89788 31.0163C3.89788 31.0163 3.81125 30.9297 3.89788 30.843C3.89788 30.7564 4.07115 30.2366 4.07115 29.9767C4.07115 29.8034 4.15778 29.5435 4.24441 29.2836C4.24441 29.197 4.24441 29.197 4.33105 29.197C4.33105 29.197 4.33105 29.2836 4.33105 29.3703C4.33105 29.4569 4.41768 29.4569 4.41768 29.4569C4.50431 29.4569 4.59095 29.4569 4.67758 29.4569C4.93748 29.4569 6.75679 28.8505 6.93006 28.7638C6.75679 28.6772 5.45728 27.5509 5.28402 27.3777C5.11075 27.291 5.02412 27.2044 4.93748 27.2044C4.85085 27.2044 4.76422 27.2044 4.76422 27.291C4.76422 27.3777 4.67758 27.3777 4.67758 27.3777C4.59095 27.3777 4.59095 27.291 4.67758 27.291C4.76422 27.0311 4.76422 26.8579 4.85085 26.6846C4.85085 26.5113 4.93748 26.0782 5.02412 25.9915C5.02412 25.9049 5.02412 25.9049 5.11075 25.9049C5.19738 25.9049 5.19738 25.9915 5.11075 26.0782C5.11075 26.1648 5.11075 26.2514 5.11075 26.4247C5.11075 26.598 5.19738 26.6846 5.37065 26.8579C5.63055 27.1178 6.93006 28.4173 7.18996 28.5906C7.36323 28.5906 7.62313 28.6772 7.79639 28.6772L8.3162 28.7638C8.40283 28.7638 8.66273 28.8505 9.00926 28.8505C9.18253 28.8505 9.3558 28.8505 9.44243 28.6772C9.44243 28.5905 9.52907 28.4173 9.52907 28.3307C9.52907 28.244 9.52907 28.244 9.6157 28.244C9.70233 28.244 9.70233 28.3306 9.6157 28.4173C9.52907 28.8505 9.44243 29.2836 9.3558 29.4569C9.3558 29.6302 9.26917 30.0633 9.18253 30.3232C9.18253 30.4099 9.18253 30.4965 9.0959 30.4965C9.0959 30.4965 9.00926 30.4099 9.0959 30.4099C9.0959 30.3232 9.0959 30.2366 9.0959 30.15C9.0959 29.9767 8.92263 29.8901 8.74936 29.8901C8.48946 29.8034 8.22956 29.7168 8.05629 29.7168L7.62313 29.5435Z" fill="white"/>
<path d="M7.36297 25.0386C6.41 24.6055 6.23673 24.5188 6.06347 24.4322C5.8902 24.3456 5.71693 24.3456 5.6303 24.5188C5.6303 24.6055 5.54366 24.6921 5.54366 24.7787C5.54366 24.8654 5.45703 24.8654 5.45703 24.8654C5.45703 24.8654 5.45703 24.7787 5.45703 24.6921C5.6303 24.3456 5.80357 23.999 5.8902 23.8258C5.97683 23.6525 6.1501 23.306 6.23673 23.0461C6.23673 22.9594 6.32337 22.8728 6.32337 22.9594V23.0461C6.32337 23.1327 6.32337 23.1327 6.23673 23.2193C6.23673 23.3926 6.23673 23.4792 6.49664 23.5659C6.6699 23.6525 6.84317 23.7391 7.79614 24.1723L8.66248 24.5188C9.52881 24.952 10.0486 24.8654 10.3952 24.6921C10.7417 24.5188 10.915 24.2589 11.0016 23.999C11.0882 23.7391 11.1749 23.3926 11.0016 22.9594C10.8283 22.4396 10.2219 22.1797 9.61545 21.9198L8.83574 21.5733C7.88277 21.1401 7.70951 21.0535 7.53624 20.9669C7.27634 20.8802 7.1897 20.8802 7.10307 21.0535L7.01644 21.2268C6.84317 21.6599 6.84317 21.6599 6.75654 21.6599C6.75654 21.6599 6.75654 21.5733 6.75654 21.4867C6.9298 21.1401 7.10307 20.7936 7.10307 20.7936C7.10307 20.7069 7.27634 20.3604 7.36297 20.1005C7.44961 19.9272 7.44961 19.9272 7.53624 19.9272C7.62287 19.9272 7.53624 20.0139 7.53624 20.1005C7.53624 20.1871 7.53624 20.1871 7.44961 20.2738C7.44961 20.447 7.4496 20.5337 7.70951 20.6203C7.88277 20.7069 8.05604 20.7936 9.00901 21.2268L9.70208 21.4867C10.3951 21.8332 11.0882 22.1797 11.3481 22.8728C11.5214 23.4792 11.4348 23.999 11.2615 24.3456C11.0882 24.6921 10.8283 25.2985 10.2219 25.5584C9.78871 25.7317 9.26891 25.8183 8.31594 25.3852L7.36297 25.0386Z" fill="white"/>
<path d="M12.4752 19.8405C12.9084 20.1871 13.0817 20.1871 13.255 20.1004C13.3416 20.0138 13.4282 19.9271 13.5149 19.8405C13.6015 19.7539 13.6015 19.7539 13.6015 19.7539C13.6015 19.7539 13.6015 19.8405 13.6015 19.9271C13.3416 20.2737 13.1683 20.447 13.0817 20.6202C13.0817 20.7069 12.9084 20.9668 12.6485 21.2267C12.5619 21.3133 12.5619 21.3133 12.4752 21.3133V21.2267C12.5619 21.14 12.5619 21.0534 12.6485 20.9668C12.7351 20.7935 12.5619 20.6202 12.1287 20.2737L8.92327 17.7613C8.83663 17.6747 8.75 17.588 8.75 17.588C8.83663 17.5014 8.92327 17.5014 9.09653 17.5014C9.18317 17.5014 10.7426 17.3281 12.1287 17.1549C12.7351 17.0682 14.1213 16.895 14.2946 16.895L11.7822 15.0757C11.4356 14.8158 11.349 14.8158 11.1757 14.9024C11.0891 14.989 11.0025 15.0757 10.9158 15.1623C10.8292 15.2489 10.8292 15.2489 10.8292 15.2489C10.8292 15.2489 10.8292 15.1623 10.9158 15.0757C11.0891 14.8158 11.349 14.5559 11.4356 14.4692C11.5223 14.3826 11.6089 14.2093 11.7822 13.9494C11.8688 13.8628 11.8688 13.8628 11.9554 13.8628C11.9554 13.8628 11.9554 13.9494 11.9554 14.0361C11.9554 14.1227 11.8688 14.1227 11.8688 14.2093C11.7822 14.3826 11.8688 14.5559 12.2153 14.7291L15.5941 17.4148C15.6807 17.5014 15.7673 17.588 15.6807 17.588C15.5941 17.6747 15.5074 17.6747 15.4208 17.6747C14.8144 17.7613 13.6015 17.9346 12.6485 18.0212C11.5223 18.1078 10.396 18.1945 10.2228 18.1945L12.4752 19.8405Z" fill="white"/>
<path d="M20.1856 12.8232C20.2723 12.9965 20.2723 12.9965 20.2723 13.0831C20.099 13.5163 19.5792 14.0361 19.146 14.3826C17.8465 15.4222 16.2005 15.7687 14.9876 14.296C14.2946 13.4296 14.2946 12.4767 14.5545 11.7836C14.8144 11.0905 15.2475 10.6573 15.6807 10.3108C16.0272 10.0509 16.547 9.70437 16.7203 9.61774C16.8069 9.53111 17.0668 9.44447 17.1535 9.35784C17.2401 9.27121 17.2401 9.35784 17.2401 9.35784C17.3267 9.44447 17.4134 9.61774 17.9332 10.2242C18.0198 10.3108 18.0198 10.3108 17.9332 10.3974H17.8465C17.7599 10.3108 17.5866 10.1375 17.3267 10.1375C17.0668 10.1375 16.3738 10.2242 15.854 10.6573C15.5941 10.9172 15.1609 11.2638 15.0743 11.7836C14.9876 12.3034 15.0743 12.8232 15.5941 13.5163C16.547 14.6425 17.9332 14.9024 19.0594 14.0361C19.2327 13.9494 19.4059 13.7762 19.4926 13.6029C19.5792 13.5163 19.4926 13.4296 19.4059 13.343L18.9728 12.8232C18.7995 12.5633 18.6262 12.39 18.453 12.2168C18.2797 12.0435 18.1931 11.9568 18.0198 12.1301C17.9332 12.1301 17.8465 12.2168 17.7599 12.3034C17.6733 12.3034 17.6733 12.39 17.6733 12.3034C17.6733 12.3034 17.6733 12.2168 17.7599 12.1301C18.0198 11.8702 18.3663 11.6969 18.5396 11.5237C18.7129 11.3504 18.9728 11.1771 19.146 11.0039C19.2327 10.9172 19.2327 10.9172 19.3193 11.0039V11.0905C19.3193 11.0905 19.2327 11.1771 19.146 11.1771C19.0594 11.3504 19.0594 11.437 19.146 11.6103C19.2327 11.7836 19.4059 11.9569 19.6658 12.2168L20.1856 12.8232Z" fill="white"/>
<path d="M20.7892 9.35784C20.2694 8.40487 20.1827 8.31823 20.0961 8.05833C19.9228 7.88506 19.8362 7.79843 19.6629 7.88507C19.5763 7.88507 19.4897 7.9717 19.403 7.9717C19.3164 7.9717 19.3164 7.9717 19.3164 7.9717C19.3164 7.9717 19.3164 7.88507 19.403 7.88507C19.6629 7.79843 20.0095 7.53853 20.1827 7.4519C20.356 7.36526 20.7025 7.192 20.8758 7.01873C20.9624 7.01873 21.0491 6.93209 21.0491 7.01873C21.0491 7.10536 21.0491 7.10536 20.9624 7.10536C20.8758 7.10536 20.8758 7.192 20.7892 7.192C20.6159 7.27863 20.6159 7.4519 20.7892 7.62516C20.8758 7.79843 20.9624 7.9717 21.4822 8.92467L22.0887 9.96427C22.4352 10.5707 22.6951 11.0039 22.7818 11.2638C22.8684 11.437 22.955 11.5237 23.2149 11.437C23.3016 11.437 23.4748 11.3504 23.5615 11.2638C23.6481 11.2638 23.6481 11.2638 23.6481 11.2638C23.6481 11.3504 23.6481 11.3504 23.5615 11.3504C23.1283 11.5237 22.7818 11.7836 22.6085 11.8702C22.4352 11.9568 22.0887 12.1301 21.8288 12.3034C21.7422 12.3034 21.7421 12.39 21.6555 12.3034C21.6555 12.3034 21.6555 12.2167 21.7421 12.2167C21.8288 12.1301 21.9154 12.1301 21.9154 12.0435C22.002 11.9568 22.002 11.8702 21.9154 11.6103C21.8288 11.3504 21.5689 10.8306 21.2223 10.3108L20.7892 9.35784Z" fill="white"/>
<path d="M25.2936 8.5782C25.5535 9.3579 25.7268 9.8777 25.9001 9.8777C26.0733 9.96434 26.2466 9.8777 26.7664 9.70444C27.1129 9.6178 27.3728 9.44454 27.4595 9.27127C27.5461 9.18463 27.5461 8.92473 27.4595 8.8381C27.4595 8.75147 27.4595 8.75147 27.4595 8.75147C27.4595 8.75147 27.5461 8.75147 27.5461 8.8381C27.5461 8.92473 27.7194 9.44454 27.7194 9.6178C27.7194 9.79107 27.7194 9.79107 27.3728 9.96434C26.9397 10.1376 26.5931 10.2242 26.2466 10.3109C25.9867 10.3975 25.7268 10.4841 25.4669 10.5708C25.3803 10.5708 25.2936 10.6574 25.1204 10.744C24.9471 10.8307 24.7738 10.8307 24.6872 10.9173C24.6006 10.9173 24.5139 10.9173 24.5139 10.9173C24.5139 10.9173 24.5139 10.8307 24.6006 10.8307C24.6872 10.8307 24.7738 10.744 24.8605 10.744C24.9471 10.6574 24.9471 10.4841 24.9471 10.3109C24.8605 10.051 24.6872 9.53117 24.5139 8.92473L24.0808 7.7985C23.7342 6.84553 23.6476 6.67226 23.561 6.41236C23.4743 6.23909 23.3877 6.15246 23.1278 6.15246C23.0412 6.15246 22.9545 6.15246 22.8679 6.23909C22.7813 6.23909 22.7812 6.23909 22.7812 6.23909C22.7812 6.23909 22.7813 6.15246 22.8679 6.15246C23.1278 6.06582 23.561 5.89256 23.7342 5.89256C23.9075 5.80592 24.3407 5.63265 24.6006 5.54602C24.6872 5.54602 24.7738 5.54602 24.7738 5.54602C24.7738 5.63265 24.7738 5.63265 24.6872 5.63265C24.6006 5.63265 24.5139 5.71929 24.4273 5.71929C24.254 5.80592 24.254 5.97919 24.3407 6.15246C24.4273 6.32572 24.4273 6.49899 24.8605 7.53859L25.2936 8.5782Z" fill="white"/>
<path d="M30.9281 5.89254C30.8415 4.85294 30.8415 4.67967 30.8415 4.41977C30.8415 4.15987 30.7549 4.07323 30.495 4.07323C30.4083 4.07323 30.3217 4.07323 30.2351 4.07323C30.1484 4.07323 30.1484 4.07323 30.1484 3.9866C30.1484 3.89997 30.1484 3.89997 30.3217 3.89997C30.6682 3.89997 31.1014 3.89997 31.2747 3.81333C31.4479 3.81333 31.8811 3.7267 32.141 3.7267C32.2276 3.7267 32.3143 3.7267 32.3143 3.81333C32.3143 3.89997 32.3143 3.89997 32.2276 3.89997C32.141 3.89997 32.141 3.89997 32.0544 3.89997C31.8811 3.9866 31.7945 4.07323 31.7945 4.33313C31.7945 4.59303 31.7945 4.7663 31.8811 5.80591L31.9677 6.75888C32.0544 7.71185 32.2276 8.14501 32.5742 8.40492C32.9207 8.66482 33.1806 8.66482 33.4405 8.57818C33.7004 8.57818 34.1336 8.40491 34.3935 8.14501C34.74 7.71185 34.74 7.10541 34.6534 6.41234L34.5668 5.546C34.4801 4.5064 34.4801 4.33313 34.4801 4.07323C34.4801 3.81333 34.3935 3.7267 34.1336 3.7267C34.047 3.7267 33.9603 3.7267 33.8737 3.7267C33.7871 3.7267 33.7871 3.7267 33.7871 3.64006C33.7871 3.55343 33.7871 3.55343 33.9603 3.55343C34.3069 3.55343 34.74 3.55343 34.74 3.55343C34.8267 3.55343 35.2598 3.4668 35.5197 3.4668C35.6064 3.4668 35.693 3.4668 35.693 3.55343C35.693 3.64006 35.693 3.64006 35.6064 3.64006C35.5197 3.64006 35.5197 3.64006 35.4331 3.64006C35.2598 3.7267 35.1732 3.81333 35.1732 4.07323C35.1732 4.33313 35.1732 4.5064 35.2598 5.546L35.3465 6.23907C35.4331 7.01878 35.3465 7.79848 34.8267 8.31828C34.3935 8.75145 33.8737 8.83808 33.4405 8.92472C33.094 8.92472 32.4009 9.01135 31.8811 8.57818C31.5346 8.31828 31.188 7.79848 31.188 6.84551L30.9281 5.89254Z" fill="white"/>
<path d="M37.9447 7.97179C37.8581 8.49159 37.9447 8.66485 38.0314 8.75149C38.118 8.83812 38.2913 8.83812 38.3779 8.83812C38.4645 8.83812 38.4645 8.83812 38.4645 8.92476C38.4645 9.01139 38.3779 9.01139 38.2913 8.92476C37.8581 8.83812 37.5982 8.75149 37.4249 8.75149C37.3383 8.75149 37.0784 8.75149 36.7319 8.66485C36.6452 8.66485 36.5586 8.66485 36.5586 8.57822C36.5586 8.57822 36.6452 8.49159 36.6452 8.57822C36.7319 8.57822 36.8185 8.57822 36.9918 8.57822C37.2517 8.57822 37.2517 8.40495 37.3383 7.79852L38.118 3.9C38.118 3.72674 38.2046 3.6401 38.2046 3.72674C38.2913 3.72674 38.2913 3.81337 38.3779 3.98664C38.4645 4.07327 39.2442 5.37278 40.1106 6.49901C40.4571 7.01882 41.2368 8.14505 41.3234 8.23169L41.8432 5.19951C41.9299 4.76634 41.8432 4.67971 41.7566 4.59307C41.67 4.50644 41.4967 4.50644 41.4101 4.50644C41.3234 4.50644 41.3234 4.50644 41.3234 4.4198C41.3234 4.33317 41.4101 4.33317 41.4967 4.4198C41.8432 4.50644 42.1898 4.59307 42.2764 4.59307C42.363 4.59307 42.6229 4.59307 42.9695 4.67971C43.0561 4.67971 43.1428 4.67971 43.1428 4.76634C43.1428 4.76634 43.0561 4.85297 42.9695 4.76634C42.8828 4.76634 42.8829 4.76634 42.7962 4.76634C42.623 4.76634 42.5363 4.93961 42.4497 5.28614L41.5833 9.44456C41.5833 9.61782 41.4967 9.61783 41.4967 9.61783C41.4101 9.61783 41.3234 9.53119 41.3234 9.44456C40.9769 9.01139 40.2838 7.97179 39.6774 7.10545C39.071 6.23911 38.4645 5.28614 38.3779 5.11287L37.9447 7.97179Z" fill="white"/>
<path d="M44.8751 7.36526C45.2217 6.41228 45.3083 6.23902 45.3949 5.97912C45.4816 5.71922 45.3949 5.63258 45.3083 5.54595C45.2217 5.45931 45.135 5.45931 45.0484 5.45931C44.9618 5.45931 44.9618 5.37268 44.9618 5.37268C44.9618 5.37268 45.0484 5.37268 45.135 5.37268C45.3949 5.45931 45.7415 5.63258 45.9147 5.71922C46.088 5.80585 46.4345 5.89248 46.6944 5.97912C46.7811 5.97912 46.8677 6.06575 46.7811 6.06575C46.8677 6.06575 46.8677 6.06575 46.7811 6.06575C46.6944 6.06575 46.6944 6.06575 46.6078 5.97912C46.4345 5.97912 46.3479 6.06575 46.2613 6.23902C46.1746 6.41228 46.088 6.58555 45.7415 7.62516L45.3083 8.75139C45.0484 9.35783 44.8751 9.87763 44.7885 10.1375C44.7019 10.3108 44.7885 10.4841 44.9618 10.5707C45.0484 10.6573 45.2217 10.6573 45.3083 10.744C45.3949 10.744 45.3949 10.8306 45.3949 10.8306C45.3949 10.9172 45.3083 10.9172 45.2217 10.8306C44.7885 10.6573 44.4419 10.4841 44.2687 10.4841C44.0954 10.3974 43.7489 10.3108 43.489 10.2242C43.4023 10.2242 43.4023 10.1375 43.4023 10.1375H43.489C43.5756 10.1375 43.6622 10.2242 43.7489 10.2242C43.9221 10.2242 43.9221 10.1375 44.0954 9.96426C44.182 9.70436 44.4419 9.18456 44.6152 8.57813L44.8751 7.36526Z" fill="white"/>
<path d="M48.4246 7.36525C48.5113 6.93208 48.4246 6.84545 48.2514 6.67218C48.1647 6.58555 48.0781 6.58555 47.9915 6.49892C47.9048 6.49892 47.9048 6.41228 47.9915 6.41228C47.9915 6.32565 48.0781 6.41228 48.1647 6.41228C48.5113 6.58555 48.7712 6.75882 49.0311 6.93208C49.2043 7.01872 49.4642 7.19199 49.8108 7.36525C49.8974 7.36525 49.8974 7.45189 49.8974 7.53852H49.8108C49.7241 7.45189 49.6375 7.45189 49.5509 7.45189C49.4642 7.45189 49.4642 7.45189 49.3776 7.53852C49.3776 7.62515 49.291 7.79842 49.291 8.05832L48.7712 11.2638C49.3776 10.744 51.1969 9.27119 51.6301 9.01129C51.7167 8.92466 51.8033 8.83803 51.8033 8.83803C51.8033 8.75139 51.8033 8.75139 51.8033 8.66476C51.7167 8.57812 51.6301 8.57812 51.5434 8.49149C51.4568 8.49149 51.4568 8.40486 51.4568 8.40486C51.4568 8.31822 51.5434 8.40486 51.6301 8.40486C51.89 8.57812 52.1499 8.75139 52.2365 8.75139C52.3231 8.83803 52.583 8.92466 52.8429 9.01129C52.9296 9.01129 52.9296 9.09793 52.9296 9.09793H52.8429C52.7563 9.09793 52.6697 9.01129 52.4964 9.01129C52.4098 9.01129 52.2365 9.09793 51.89 9.35783C51.3702 9.791 51.0236 10.0509 50.2439 10.5707C49.3776 11.2638 48.7712 11.6969 48.4246 11.9568C48.0781 12.2167 47.9915 12.3034 47.9048 12.2167C47.8182 12.1301 47.8182 12.0435 47.9048 11.6969L48.4246 7.36525Z" fill="white"/>
<path d="M53.104 11.7836C53.7971 11.0039 53.8837 10.8307 53.9704 10.6574C54.1436 10.4841 54.1436 10.3975 53.9704 10.1376C53.9704 10.051 53.8837 10.051 53.7971 9.96432C53.7105 9.87769 53.7105 9.87769 53.7105 9.87769C53.7105 9.87769 53.7971 9.87769 53.8837 9.96432C54.057 10.051 54.1436 10.2242 54.3169 10.3109C54.4902 10.3975 54.5768 10.5708 54.6634 10.5708C54.8367 10.744 55.8763 11.6104 55.9629 11.6104C56.0496 11.697 56.1362 11.7836 56.2228 11.7836C56.2228 11.7836 56.3095 11.7836 56.3095 11.8703V11.9569C56.3095 11.9569 56.2228 12.0435 55.9629 12.3034C55.8763 12.3901 55.703 12.5633 55.6164 12.65C55.6164 12.65 55.5298 12.7366 55.5298 12.65V12.5633C55.5298 12.5633 55.6164 12.4767 55.6164 12.3901C55.6164 12.3034 55.6164 12.1302 55.4431 11.8703C55.3565 11.7836 54.8367 11.3505 54.7501 11.2638H54.6634L53.7105 12.4767V12.5633C53.7971 12.65 54.4035 13.1698 54.5768 13.2564C54.7501 13.343 54.8367 13.4297 54.9233 13.343C55.01 13.343 55.01 13.343 55.0966 13.343C55.0966 13.343 55.0966 13.343 55.0966 13.4297C55.0966 13.4297 55.01 13.5163 54.7501 13.7762C54.6634 13.8628 54.4902 14.0361 54.4035 14.1227C54.4035 14.1227 54.3169 14.2094 54.2303 14.2094V14.1227C54.2303 14.0361 54.3169 14.0361 54.4035 13.9495C54.4902 13.8628 54.4902 13.6896 54.3169 13.5163C54.2303 13.4297 53.7105 12.9965 53.6238 12.9099H53.5372L53.1907 13.343C53.0174 13.5163 52.6709 14.0361 52.4976 14.1227C52.2377 14.4693 52.2377 14.6425 52.7575 15.0757C52.9308 15.1623 53.104 15.3356 53.2773 15.4222C53.4506 15.5089 53.6238 15.4222 53.7971 15.249C53.8837 15.1623 53.8837 15.1623 53.8837 15.249V15.3356C53.7971 15.4222 53.4506 15.7688 53.3639 15.8554C53.1907 15.942 53.1907 15.942 52.9308 15.7688C52.4976 15.4222 52.2377 15.1623 52.0644 14.9891C51.8912 14.8158 51.7179 14.6425 51.5446 14.5559C51.458 14.4693 51.3714 14.3826 51.2847 14.296C51.1981 14.2094 51.0248 14.1227 50.9382 14.0361C50.8516 13.9495 50.8516 13.9495 50.8516 13.8628H50.9382C51.0248 13.9495 51.1115 13.9495 51.1115 14.0361C51.1981 14.1227 51.3714 14.0361 51.5446 13.8628C51.7179 13.6896 52.0644 13.2564 52.4976 12.7366L53.104 11.7836Z" fill="white"/>
<path d="M56.8287 15.2489C57.6084 14.5559 57.7817 14.4692 57.955 14.296C58.1283 14.1227 58.2149 14.0361 58.0416 13.8628C58.0416 13.7762 57.955 13.6895 57.8684 13.6895C57.7817 13.6029 57.7817 13.6029 57.8684 13.6029C57.8684 13.6029 57.955 13.6029 58.0416 13.6895C58.3015 13.9494 58.5614 14.296 58.648 14.3826C58.8213 14.5559 59.1679 14.9024 59.2545 15.0757C59.5144 15.4222 59.7743 15.7687 59.8609 16.2019C59.8609 16.4618 59.7743 16.895 59.4278 17.1549C59.0812 17.5014 58.5614 17.5881 57.6951 17.4148C57.5218 18.3678 57.3485 19.1475 57.2619 19.6673C57.1753 20.1871 57.3485 20.447 57.4352 20.5336C57.4352 20.6202 57.5218 20.6202 57.5218 20.7069V20.7935C57.5218 20.7935 57.4352 20.7935 57.3485 20.7069L56.9154 20.1871C56.6555 19.9272 56.5688 19.7539 56.5688 19.5806C56.4822 19.2341 56.5688 18.8876 56.7421 18.1945C56.8287 17.7613 57.002 17.2415 57.002 17.0683C57.002 16.9816 57.002 16.9816 57.002 16.9816L56.6555 16.5484H56.5688L56.4822 16.6351C55.9624 17.0683 55.6159 17.4148 55.356 17.5881C55.1827 17.7613 55.0961 17.848 55.2693 18.0212C55.356 18.1079 55.4426 18.1945 55.4426 18.2811V18.3678C55.4426 18.3678 55.356 18.3678 55.2693 18.2811C55.0094 17.9346 54.7495 17.5881 54.6629 17.5014C54.5763 17.4148 54.3164 17.0683 54.1431 16.895C54.0565 16.8084 54.0565 16.8083 54.1431 16.7217C54.1431 16.7217 54.2297 16.7217 54.2297 16.8084C54.3164 16.895 54.3164 16.9816 54.403 16.9816C54.4896 17.0683 54.6629 16.9816 54.8362 16.895C55.0961 16.7217 55.5292 16.3752 55.9624 16.0286L56.8287 15.2489ZM56.9154 16.2019C56.8287 16.2885 56.8287 16.2885 56.8287 16.2885C56.9154 16.4618 57.002 16.6351 57.0886 16.7217C57.2619 16.895 57.3485 16.9816 57.5218 16.9816C57.7817 17.0683 58.1282 16.9816 58.5614 16.6351C59.3411 16.0286 59.0812 15.3356 58.8213 15.0757C58.7347 14.989 58.648 14.8158 58.5614 14.8158H58.4748L56.9154 16.2019Z" fill="white"/>
<path d="M57.4375 21.0535C57.4375 20.9669 57.4375 20.8802 57.6108 20.7936C57.9573 20.6203 58.3038 20.4471 58.3905 20.3604C58.4771 20.3604 58.5637 20.2738 58.5637 20.3604C58.5637 20.4471 58.5637 20.4471 58.4771 20.4471C58.3905 20.5337 58.3038 20.6203 58.2172 20.707C57.8707 21.0535 57.8707 21.4867 58.1306 21.9198C58.3905 22.4396 58.9103 22.5263 59.2568 22.353C59.5167 22.1797 59.7766 21.9198 59.8632 21.2268L59.9499 20.7936C60.1231 19.8406 60.383 19.4074 60.8162 19.1475C61.5093 18.801 62.2024 19.0609 62.7222 19.8406C62.9821 20.1872 62.9821 20.5337 63.0687 20.707C63.0687 20.7936 63.0687 20.7936 63.0687 20.7936C62.9821 20.7936 62.8088 20.8802 62.3756 21.1401C62.2023 21.2268 62.2024 21.2268 62.2024 21.1401C62.2024 21.1401 62.2024 21.0535 62.289 21.0535C62.3756 21.0535 62.5489 20.8802 62.5489 20.707C62.6355 20.5337 62.7221 20.2738 62.4622 19.9273C62.2023 19.4941 61.7692 19.4074 61.4226 19.5807C61.1627 19.754 60.9895 20.0139 60.9028 20.707V20.9669C60.7296 22.0065 60.4697 22.4396 59.9499 22.7862C59.6033 22.9594 59.0835 23.0461 58.5637 22.7862C58.2172 22.6129 57.9573 22.2664 57.784 22.0065C57.6108 21.6599 57.4375 21.3134 57.4375 21.0535Z" fill="white"/>
<path d="M62.3727 23.9123C63.3257 23.5658 63.499 23.4792 63.6722 23.3925C63.8455 23.3059 63.9321 23.2193 63.9321 23.046C63.9321 22.9594 63.9321 22.8727 63.8455 22.7861C63.8455 22.6995 63.8455 22.6995 63.8455 22.6995C63.8455 22.6995 63.9321 22.6995 63.9321 22.8727C64.0188 23.1326 64.192 23.4792 64.2787 23.7391C64.3653 23.9123 64.5386 24.2589 64.6252 24.5188C64.6252 24.6054 64.6252 24.692 64.6252 24.692C64.5386 24.692 64.5386 24.692 64.5386 24.6054C64.5386 24.5188 64.4519 24.5188 64.4519 24.4321C64.3653 24.2589 64.192 24.2589 64.0188 24.3455C63.8455 24.4321 63.6722 24.5188 62.7193 24.8653L61.5064 25.1252C60.8999 25.3851 60.3801 25.5584 60.1202 25.7316C59.947 25.8183 59.8603 25.9049 59.947 26.0782C59.947 26.1648 60.0336 26.3381 60.0336 26.4247C60.0336 26.5113 60.0336 26.5113 60.0336 26.5113C59.947 26.5113 59.947 26.5113 59.947 26.4247C59.7737 25.9915 59.6871 25.5584 59.6004 25.4717C59.5138 25.2985 59.3405 24.9519 59.2539 24.692C59.2539 24.6054 59.2539 24.5188 59.2539 24.5188C59.2539 24.5188 59.3405 24.5188 59.3405 24.6054C59.3405 24.692 59.4272 24.7787 59.4272 24.7787C59.5138 24.8653 59.6004 24.8653 59.7737 24.8653C60.0336 24.7787 60.5534 24.6054 61.1598 24.3455L62.3727 23.9123Z" fill="white"/>
<path d="M65.3207 27.9841L65.0608 27.0311C64.9741 26.6846 64.8875 26.5113 64.7142 26.4247C64.6276 26.4247 64.541 26.3381 64.4543 26.3381C64.3677 26.3381 64.3677 26.3381 64.3677 26.2514C64.3677 26.1648 64.3677 26.1648 64.4543 26.1648C64.541 26.1648 65.234 26.1648 65.234 26.1648C65.3207 26.1648 65.4073 26.1648 65.4073 26.2514C65.4073 26.3381 65.4073 26.4247 65.4073 26.5113C65.4073 26.6846 65.4939 26.9445 65.4939 27.2044L66.1004 29.8034C66.187 29.9767 66.187 30.1499 66.2736 30.2366C66.2736 30.3232 66.3603 30.4098 66.3603 30.4098C66.3603 30.4965 66.3603 30.4965 66.2736 30.4965C66.1004 30.4965 65.6672 30.5831 65.4939 30.6697C65.4073 30.6697 65.4073 30.6697 65.4073 30.6697C65.4073 30.5831 65.4073 30.5831 65.4939 30.5831H65.5806C65.7538 30.4965 65.9271 30.3232 65.7538 29.7168L65.5806 28.8504L62.8949 29.4569C62.2885 29.6301 61.7687 29.7168 61.5088 29.8034C61.3355 29.89 61.1622 29.9767 61.2489 30.1499C61.2489 30.2366 61.2489 30.4098 61.3355 30.4965C61.3355 30.5831 61.3355 30.5831 61.3355 30.5831C61.2489 30.5831 61.2489 30.5831 61.2489 30.4965C61.1622 30.0633 61.0756 29.6301 61.0756 29.4569C61.0756 29.2836 60.9023 28.8504 60.9023 28.5905C60.9023 28.5039 60.9023 28.4173 60.9023 28.4173C60.9023 28.4173 60.989 28.4173 60.989 28.5039C60.989 28.5905 61.0756 28.6772 61.0756 28.7638C61.1622 28.8504 61.2489 28.9371 61.5088 28.8504C61.7687 28.8504 62.2885 28.6772 62.8949 28.5905L65.3207 27.9841Z" fill="white"/>
<path d="M63.1545 33.7886C63.5011 33.7886 63.6743 33.7019 63.8476 33.6153C63.9342 33.5287 65.407 32.5757 65.7536 32.3158C66.0135 32.1425 66.1867 31.9693 66.2734 31.796C66.2734 31.7094 66.36 31.6227 66.36 31.5361C66.36 31.4495 66.36 31.4495 66.4466 31.4495L66.5333 31.5361C66.5333 31.6227 66.5333 32.1425 66.5333 32.4024C66.5333 32.5757 66.5333 32.8356 66.6199 33.0955C66.6199 33.1821 66.6199 33.1821 66.5333 33.1821C66.5333 33.1821 66.4466 33.0955 66.4466 33.0089C66.4466 32.9222 66.36 32.9222 66.36 32.9222C66.2734 32.9222 66.1867 32.9222 66.1001 33.0089C65.9268 33.0955 64.2808 34.1351 64.1075 34.2217C64.2808 34.3084 65.8402 35.0881 66.0135 35.1747C66.1867 35.2613 66.2734 35.2613 66.36 35.2613C66.4466 35.2613 66.5333 35.2613 66.5333 35.0881C66.5333 35.0014 66.5333 35.0014 66.6199 35.0014C66.7065 35.0014 66.7065 35.0014 66.7065 35.0881C66.7065 35.348 66.7065 35.5212 66.7065 35.6945C66.7065 35.8678 66.7065 36.3009 66.7932 36.3876C66.7932 36.4742 66.7932 36.4742 66.7065 36.4742C66.6199 36.4742 66.6199 36.3876 66.6199 36.3876C66.6199 36.3009 66.6199 36.2143 66.5333 36.1277C66.4466 35.9544 66.36 35.9544 66.1867 35.7811C65.9268 35.6079 64.2808 34.6549 63.9343 34.5683C63.6744 34.4816 63.5011 34.4816 63.2412 34.4816H62.7214C62.6347 34.4816 62.2882 34.4816 62.0283 34.5683C61.855 34.5683 61.6818 34.6549 61.6818 34.8282C61.6818 34.9148 61.6818 35.0881 61.6818 35.1747C61.6818 35.2613 61.6818 35.2613 61.5951 35.2613C61.5085 35.2613 61.5085 35.1747 61.5085 35.0881C61.5085 34.6549 61.5085 34.2217 61.5085 34.0485C61.5085 33.8752 61.5085 33.442 61.4219 33.1821C61.4219 33.0955 61.4219 33.0089 61.5085 33.0089C61.5085 33.0089 61.5951 33.0089 61.5951 33.0955C61.5951 33.1821 61.5951 33.2688 61.5951 33.3554C61.5951 33.5287 61.7684 33.5287 61.9417 33.5287C62.2016 33.5287 62.5481 33.5287 62.6347 33.5287L63.1545 33.7886Z" fill="white"/>
<path d="M10.6573 46.2638C10.8306 46.5237 11.1771 46.9569 11.3504 47.39C11.6969 47.9965 11.8702 48.5163 11.7835 48.9494C11.7835 49.296 11.6103 49.6425 11.1771 49.8158C10.7439 50.0757 10.2241 49.9024 9.70432 49.4692C9.87759 49.989 9.79096 50.7687 9.18452 51.1153C8.83799 51.2885 8.40482 51.2885 8.05828 51.2019C7.62512 51.0286 7.10531 50.5088 6.67215 49.7291C6.41224 49.296 6.23898 48.9494 6.15234 48.6895L10.6573 46.2638ZM7.01868 49.0361C7.10531 49.2093 7.19195 49.3826 7.27858 49.5559C7.62512 50.2489 8.23155 50.6821 8.83799 50.3356C9.44442 49.989 9.35779 49.296 9.01125 48.6029L8.75135 48.0831L7.01868 49.0361ZM9.18452 47.9098L9.53106 48.5163C9.87759 49.2093 10.3974 49.3826 10.8306 49.2093C11.3504 48.9494 11.3504 48.343 11.0038 47.7366C10.8306 47.4767 10.7439 47.3034 10.6573 47.2168L9.18452 47.9098Z" fill="white"/>
<path d="M12.4785 53.8875L11.179 52.1549L9.70618 53.2811L11.179 55.2737L10.7458 55.6202L8.83984 53.1078L12.9116 49.989L14.7309 52.4148L14.2978 52.7613L12.9116 50.942L11.6121 51.895L12.9116 53.6276L12.4785 53.8875Z" fill="white"/>
<path d="M12.5625 57.4396L14.0353 55.8802L14.815 52.5015L15.4214 53.1079L14.9882 54.6673C14.9016 55.1005 14.815 55.447 14.6417 55.7935C14.9882 55.7069 15.3348 55.5336 15.7679 55.447L17.3274 55.0138L17.9338 55.6203L14.5551 56.4L12.9957 57.9594L12.5625 57.4396Z" fill="white"/>
<path d="M20.4473 60.3851C19.4077 61.8578 17.9349 61.9445 16.722 61.0781C15.5092 60.2118 15.2493 58.739 16.1156 57.5262C17.0686 56.2267 18.5413 55.9668 19.8408 56.8331C21.1404 57.6994 21.3136 59.1722 20.4473 60.3851ZM16.8087 57.9593C16.2022 58.8257 16.2022 60.0385 17.1552 60.7316C18.1082 61.4247 19.2344 60.9915 19.8408 60.0385C20.4473 59.1722 20.5339 57.9593 19.4943 57.2663C18.5413 56.5732 17.5017 57.0064 16.8087 57.9593Z" fill="white"/>
<path d="M20.1875 63.1573L22.2667 58.4791L22.9598 58.8257L23.5662 61.9445C23.7395 62.6375 23.8261 63.244 23.8261 63.8504C23.9994 63.1573 24.2593 62.6375 24.6058 61.8578L25.4722 59.8653L26.0786 60.1252L23.9994 64.8034L23.3063 64.5435L22.8731 61.5113C22.6999 60.8182 22.6132 60.1252 22.6132 59.5187C22.3533 60.1252 22.1801 60.7316 21.8335 61.5113L20.9672 63.5039L20.1875 63.1573Z" fill="white"/>
<path d="M26.8567 60.5583C27.2899 60.5583 27.8097 60.645 28.4161 60.8182C29.4557 61.0781 30.1488 61.4247 30.4953 61.9445C30.9285 62.4643 31.0151 63.0707 30.8419 63.9371C30.6686 64.7168 30.2354 65.3232 29.629 65.6697C29.0225 66.0163 28.0696 66.1029 27.03 65.843C26.5102 65.7564 26.077 65.5831 25.7305 65.4965L26.8567 60.5583ZM26.5968 65.0633C26.7701 65.1499 27.03 65.2366 27.2899 65.2366C28.8493 65.5831 29.8022 64.9767 30.1488 63.6772C30.4087 62.4643 29.8889 61.5979 28.3295 61.2514C27.9829 61.1648 27.6364 61.1648 27.4631 61.1648L26.5968 65.0633Z" fill="white"/>
<path d="M34.6545 62.2044H32.9219V61.6846H37.0803V62.2044H35.3476V66.7093H34.5679L34.6545 62.2044Z" fill="white"/>
<path d="M38.0336 61.5113L38.3801 63.5905L41.0658 63.1573L40.7193 61.0781L41.4123 60.9915L42.192 66.0162L41.5856 66.1028L41.2391 63.7637L38.5534 64.1969L38.8999 66.536L38.1202 66.7093L37.2539 61.6845L38.0336 61.5113Z" fill="white"/>
<path d="M45.916 62.291L43.8367 62.9841L44.4432 64.7168L46.7823 63.9371L46.9556 64.4569L43.9234 65.4965L42.2773 60.645L45.2229 59.692L45.3962 60.2118L43.2303 60.9915L43.7501 62.5509L45.8293 61.8579L45.916 62.291Z" fill="white"/>
<path d="M47.5625 58.5658L48.1689 58.2192L50.508 62.1178L52.5873 60.9049L52.8472 61.3381L50.1615 62.9841L47.5625 58.5658Z" fill="white"/>
<path d="M51.3753 56.0533L54.4074 60.1251L53.8876 60.6449L50.8555 56.5732L51.3753 56.0533Z" fill="white"/>
<path d="M57.6121 54.2341C57.0923 53.8009 56.3992 53.1945 55.966 52.7613C56.2259 53.2811 56.5725 53.9742 56.8324 54.6673L57.872 57.093L57.4388 57.5262L55.0997 56.4866C54.4066 56.14 53.8002 55.8801 53.1938 55.5336C53.6269 55.9668 54.2334 56.6598 54.7532 57.1796L56.2259 58.8257L55.7061 59.3455L52.4141 55.447L53.1071 54.7539L55.5329 55.7935C56.1393 56.0534 56.6591 56.3133 57.1789 56.5732C56.919 56.14 56.6591 55.5336 56.3992 54.9272L55.3596 52.5014L56.0527 51.8083L59.9512 55.1871L59.4314 55.7069L57.6121 54.2341Z" fill="white"/>
<path d="M57.0074 50.2489L61.1658 53.2811L60.7326 53.8875L56.5742 50.8553L57.0074 50.2489Z" fill="white"/>
<path d="M58.6518 48.6895L57.7854 50.1623L57.2656 49.9024L59.3448 46.2638L59.8646 46.5237L58.9983 47.9965L62.9834 50.2489L62.6369 50.8554L58.6518 48.6895Z" fill="white"/>
<path d="M6.58439 42.1054C6.15122 42.1054 5.80469 41.7589 5.80469 41.3257C5.80469 40.8926 6.15122 40.546 6.58439 40.546C7.01756 40.546 7.36409 40.8926 7.36409 41.3257C7.45073 41.7589 7.10419 42.1054 6.58439 42.1054Z" fill="white"/>
<path d="M63.5024 42.1054C63.0692 42.1054 62.7227 41.7589 62.7227 41.3257C62.7227 40.8926 63.0692 40.546 63.5024 40.546C63.9355 40.546 64.2821 40.8926 64.2821 41.3257C64.3687 41.7589 63.9355 42.1054 63.5024 42.1054Z" fill="white"/>
<path d="M33.3554 52.2416C32.9222 52.1549 32.1425 51.3752 32.1425 51.3752C31.8826 51.202 30.6697 49.9891 30.4098 49.6426C30.6697 49.3827 31.6227 48.5163 31.796 48.3431C32.4891 47.7366 32.749 47.7366 32.8356 47.7366V47.65H31.1895V47.7366C31.2762 47.7366 31.4494 47.8233 31.4494 47.9099V47.9965C31.4494 48.0832 31.2762 48.1698 31.1895 48.3431C31.1029 48.4297 30.6697 48.8629 30.3232 49.1228C30.1499 49.296 29.9767 49.4693 29.89 49.5559V49.0361C29.89 49.0361 29.89 48.2564 29.89 48.0832C29.89 47.9965 29.89 47.9099 29.9767 47.9099C30.0633 47.8233 30.2366 47.7366 30.3232 47.65V47.5634H28.5039V47.65C28.6772 47.65 28.8504 47.7366 28.8504 47.9099C28.8504 47.9965 28.8504 47.9965 28.9371 48.0832C28.9371 48.3431 28.9371 48.7762 28.9371 49.296V50.3356C28.9371 50.8554 28.9371 51.3752 28.9371 51.5485C28.9371 51.6351 28.9371 51.7218 28.8504 51.7218C28.7638 51.8084 28.5905 51.895 28.5039 51.9817V52.0683H30.3232V51.9817C30.1499 51.9817 29.9767 51.895 29.9767 51.7218C29.9767 51.6351 29.9767 51.6351 29.89 51.5485C29.89 51.3752 29.89 50.5955 29.89 50.5955V49.8158C30.0633 49.9891 31.3628 51.3752 31.7093 51.5485C31.9693 51.8084 32.2292 51.9817 32.5757 51.9817H33.6153V51.895C33.442 52.2416 33.442 52.2416 33.3554 52.2416Z" fill="white"/>
<path d="M39.7654 47.7367C39.9387 47.8233 40.112 47.9099 40.112 47.9966C40.112 48.0832 40.112 48.0832 40.1986 48.1698C40.1986 48.3431 40.1986 49.2094 40.1986 49.3827V50.249C40.1986 50.8555 40.1986 51.3753 39.8521 51.6352C39.5055 51.8951 39.159 51.9817 38.9857 51.9817C38.7258 51.9817 38.4659 51.9817 38.206 51.7218C37.9461 51.4619 37.6862 51.202 37.6862 50.3357V49.4693V49.1228C37.6862 49.1228 37.6862 48.3431 37.6862 48.1698C37.6862 48.0832 37.6862 47.9966 37.7729 47.9966C37.8595 47.9099 38.0328 47.8233 38.1194 47.7367V47.65H36.3867V47.7367C36.56 47.7367 36.7333 47.8233 36.7333 47.9966C36.7333 48.0832 36.7333 48.0832 36.8199 48.1698C36.8199 48.4297 36.8199 48.8629 36.8199 49.3827V49.4693V50.249C36.8199 51.0287 36.9932 51.5485 37.4263 51.8951C37.9461 52.3282 38.6392 52.3282 38.8991 52.3282C39.2456 52.3282 39.7654 52.2416 40.2852 51.8951C40.8917 51.4619 40.8917 50.7688 40.8917 50.0758V49.1228C40.8917 49.1228 40.8917 48.3431 40.8917 48.1698C40.8917 48.0832 40.8917 47.9966 40.9783 47.9966C41.0649 47.9099 41.2382 47.8233 41.3248 47.7367V47.65H39.7654V47.7367Z" fill="white"/>
<path d="M35.0893 49.2093C35.0893 49.2093 35.0893 48.4296 35.0893 48.2564C35.0893 48.1697 35.0893 48.0831 35.1759 48.0831C35.2625 47.9965 35.4358 47.9098 35.5224 47.8232V47.7366H33.7031V47.8232C33.8764 47.8232 34.0497 47.9098 34.0497 48.0831C34.0497 48.1697 34.0497 48.1697 34.1363 48.2564C34.1363 48.5163 34.1363 49.1227 34.1363 49.1227V50.5089C34.1363 51.0287 34.1363 51.5485 34.1363 51.7217C34.1363 51.8084 34.1363 51.895 34.0497 51.895C33.963 51.9816 33.7898 52.0683 33.7031 52.1549V52.2415H35.5224V52.1549C35.3492 52.1549 35.1759 52.0683 35.1759 51.895C35.1759 51.8084 35.1759 51.8084 35.0893 51.7217C35.0893 51.5485 35.0893 50.7688 35.0893 50.7688V49.2093Z" fill="white"/>
</g>
<defs>
<clipPath id="clip0_2521_55333">
<rect width="70" height="70" fill="white" transform="translate(0 0.00146484)"/>
</clipPath>
</defs>
</svg>
