<svg width="70" height="71" viewBox="0 0 70 71" fill="none" xmlns="http://www.w3.org/2000/svg">
<path d="M59.8261 0.892578V38.0213C59.8261 38.0213 60.1179 51.3876 50.9754 59.2094C50.9754 59.2094 43.4864 65.447 35.122 69.4074H35.0247C26.3686 65.6451 19.2686 59.2094 19.2686 59.2094C10.1261 51.4866 10.3206 38.0213 10.3206 38.0213V0.892578H59.8261Z" fill="#D7C9B1"/>
<path d="M59.8261 0.00146484H9.44531V38.0213C9.44531 38.6153 9.44531 51.9817 18.7823 59.9025C19.0741 60.1005 25.9796 66.3381 34.733 70.1995L34.9275 70.2985H35.4138L35.6083 70.1995C43.9727 66.2391 51.559 60.0015 51.6563 59.9025C60.9932 51.9817 60.7987 38.6153 60.7987 38.0213V0.00146484H59.8261ZM58.9508 1.78364C58.9508 3.46681 58.9508 38.0213 58.9508 38.0213C58.9508 38.0213 58.9508 38.0213 58.9508 38.1203C58.9508 39.2094 58.7563 51.3876 50.3919 58.5163C50.2946 58.6153 43.0974 64.5559 35.0248 68.4173C26.7576 64.7539 19.9494 58.6153 19.8522 58.5163C11.2933 51.2886 11.196 38.5163 11.196 38.1203C11.196 38.1203 11.196 3.66483 11.196 1.88265C12.9467 1.78364 57.2974 1.78364 58.9508 1.78364Z" fill="#7C0019"/>
<path d="M59.6312 20.8926H10.3203V0.892578H59.6312V20.8926Z" fill="#7C0019"/>
<path d="M11.293 1.98169V2.27872H58.9505V1.98169H11.293Z" fill="#D7C9B1"/>
<path d="M11.293 12.2788V12.6748H58.9505V12.2788H11.293Z" fill="#D7C9B1"/>
<path d="M11.1953 18.5164V18.9124H58.8528V18.5164H11.1953Z" fill="#D7C9B1"/>
<path d="M31.0344 62.2786H31.7152C31.8124 62.2786 31.8124 62.1796 31.8124 62.1796C31.5207 60.9915 31.7152 60.0014 31.7152 59.8034C31.7152 59.8034 31.7152 59.7043 31.6179 59.7043H30.9371C30.8398 59.7043 30.8398 59.8034 30.8398 59.8034C31.1316 60.6944 31.0344 61.8826 31.0344 62.2786C31.0344 62.1796 30.9371 62.2786 31.0344 62.2786Z" fill="#7C0019"/>
<path d="M33.4692 59.6055C32.3993 59.7045 32.4966 60.9916 32.4966 60.9916C32.5938 62.0807 33.6637 62.3777 33.6637 62.3777C33.3719 63.2688 32.4966 63.4669 32.4966 63.4669C32.3021 63.5659 32.3993 63.5659 32.3993 63.5659C32.6911 63.6649 32.9829 63.4669 32.9829 63.4669C34.539 62.7738 34.539 61.0906 34.539 61.0906C34.7336 59.5065 33.4692 59.6055 33.4692 59.6055ZM33.8582 61.8827C33.3719 61.8827 33.2747 61.0906 33.2747 61.0906C33.1774 60.1995 33.4692 60.1995 33.4692 60.1995C33.8582 60.1005 33.9555 60.7936 33.9555 60.7936C34.15 61.6847 33.8582 61.8827 33.8582 61.8827Z" fill="#7C0019"/>
<path d="M37.3589 60.5956C37.3589 60.5956 37.2616 59.6055 36.289 59.6055C36.289 59.6055 35.3164 59.6055 35.3164 60.8926C35.3164 60.8926 35.3164 62.2787 36.4835 62.2787C36.4835 62.2787 37.6507 62.1797 37.3589 60.5956ZM36.4835 61.7837C35.9972 61.9817 35.9972 60.9916 35.9972 60.9916C35.9972 60.1005 36.289 60.0015 36.289 60.0015C36.678 59.9025 36.7753 60.5956 36.7753 60.5956C36.8726 61.5857 36.4835 61.7837 36.4835 61.7837Z" fill="#7C0019"/>
<path d="M37.6522 62.5756C38.6248 62.7736 38.9166 62.0806 38.9166 62.0806C39.2084 61.0905 37.944 60.9915 37.944 60.9915L38.1385 59.7043C38.1385 59.7043 39.4029 59.8033 39.7919 59.6053C39.7919 59.6053 39.8892 59.5063 39.7919 59.7043C39.7919 59.7043 39.6947 60.1004 39.3056 60.1994L38.7221 60.2984L38.6248 60.5954C38.6248 60.5954 39.6947 60.5954 39.6947 61.7835C39.6947 61.7835 39.6947 62.6746 38.6248 62.9717C38.6248 62.9717 38.1385 63.0707 37.5549 62.8726C37.5549 62.8726 37.4577 62.8726 37.5549 62.7736C37.5549 62.6746 37.5549 62.5756 37.6522 62.5756Z" fill="#7C0019"/>
<path d="M33.9557 37.8233C34.053 37.7243 34.1503 37.8233 34.2475 37.8233C34.3448 37.8233 34.3448 38.0213 34.3448 38.1203C34.3448 38.2193 34.5393 38.3183 34.5393 38.4174C34.6366 39.0114 34.5393 39.8035 34.2475 40.1995C34.1503 40.2985 34.053 40.3976 33.9557 40.3976C33.8585 40.3976 33.7612 40.1995 33.7612 40.1995C33.5667 40.0015 33.7612 39.4075 33.7612 39.1104C33.7612 38.8134 33.5667 38.2193 33.664 37.9223C33.7612 37.9223 33.9557 37.8233 33.9557 37.8233Z" fill="#7C0019"/>
<path d="M25.981 38.4172C26.0782 38.4172 26.37 38.4172 26.37 38.4172L26.5645 38.3182C26.759 38.2192 27.0508 38.2192 27.2453 38.2192C27.3426 38.2192 27.7316 38.4172 27.8289 38.4172C28.0234 38.4172 28.8015 38.5162 29.7741 38.6152C29.7741 38.6152 30.2604 38.5162 30.1631 38.4172C30.2604 38.5162 30.1631 38.3182 29.9686 38.3182L29.8714 38.2192C29.8714 38.2192 29.6768 38.1202 29.9686 38.0212C29.8714 38.0212 30.1631 38.0212 30.2604 37.9222C30.3577 37.8232 30.1631 37.6251 30.1631 37.6251C29.7741 37.5261 29.2878 37.7241 28.607 37.7241C28.3152 37.7241 27.8289 37.5261 27.4399 37.6251C26.9536 37.7241 26.2727 38.0212 25.8837 38.2192C25.8837 38.2192 25.7864 38.5162 25.981 38.4172Z" fill="#7C0019"/>
<path d="M31.3307 34.853C31.7197 34.853 31.817 35.2491 31.817 35.2491C31.7197 35.5461 30.9416 35.6451 30.8444 35.8431C30.2608 36.5362 30.5526 37.2293 29.1909 37.3283C29.1909 37.3283 28.8992 37.2293 28.9964 37.1303C29.0937 37.0312 29.3855 36.9322 29.4827 36.9322C29.6772 36.8332 29.6772 36.5362 29.7745 36.4372L29.969 36.3382C30.3581 35.8431 30.3581 35.3481 31.0389 35.051C31.0389 34.952 31.2334 34.952 31.3307 34.853Z" fill="#7C0019"/>
<path d="M35.4115 32.9718C35.606 32.8728 35.7032 32.9718 35.8005 33.0708C35.8978 33.0708 36.2868 34.2589 36.3841 34.358C36.4813 34.754 36.4813 35.7441 36.3841 36.0411C36.1895 36.4372 35.8005 36.8332 35.8978 37.5263C35.8978 38.0213 36.0923 38.3183 36.2868 38.7144C36.2868 38.8134 36.4813 39.2094 36.4813 39.2094C36.5786 39.6055 36.2868 40.1995 36.2868 40.4966C36.1895 41.2886 36.4813 42.0807 36.3841 42.8728C36.2868 43.1698 36.1895 43.3679 35.995 43.5659L35.8005 43.6649C35.8005 43.7639 35.7032 43.7639 35.606 43.8629L35.7032 44.0609C35.606 44.0609 35.5087 44.1599 35.5087 44.1599C35.1197 44.2589 35.1197 44.0609 35.1197 44.0609C34.7306 43.0708 35.3142 41.8827 35.0224 40.8926C34.9252 40.6946 34.7306 40.3976 34.6334 40.1995C34.5361 39.3084 35.3142 38.8134 35.3142 38.2193C35.3142 37.8233 34.7306 37.2292 34.6334 36.8332C34.4388 36.3381 34.3416 35.4471 34.6334 34.754C34.7306 34.655 34.8279 34.358 34.9252 34.1599C35.0224 33.7639 35.2169 33.4669 35.2169 33.1698C35.2169 33.0708 35.3142 32.9718 35.3142 32.8728C35.3142 33.0708 35.4115 32.9718 35.4115 32.9718Z" fill="#7C0019"/>
<path d="M45.8216 30.8925C46.4051 30.7935 46.6969 31.0905 46.4051 31.5856L46.3079 31.6846C46.3079 31.6846 46.1133 31.8826 46.1133 31.9816C45.8216 32.1796 45.5298 32.2786 45.3353 32.5757C45.238 32.6747 45.238 32.8727 45.1407 32.9717C44.9462 33.0707 44.4599 33.3678 44.2654 33.3678C43.5846 33.4668 42.612 32.7737 42.5147 32.3777C42.4175 31.9816 42.5147 31.6846 42.7092 31.5856C42.9038 31.4866 43.5846 31.4866 43.7791 31.4866C44.3627 31.4866 44.6544 31.4866 45.0435 31.2885C45.1407 31.1895 45.4325 30.8925 45.8216 30.8925Z" fill="#7C0019"/>
<path d="M42.8017 30.5956C42.8017 30.5956 43.0935 30.6946 43.3853 30.6946C43.5798 30.5956 43.9689 30.4966 44.1634 30.3975C44.2606 30.3975 44.4552 30.3975 44.5524 30.3975C44.8442 30.2985 45.4278 29.7045 44.7469 29.6055C44.4552 29.6055 43.6771 29.9025 43.4826 29.9025C43.288 30.0015 43.0935 30.0015 42.899 30.1005C42.8017 30.1005 42.6072 30.3975 42.6072 30.2985C42.6072 30.3975 42.4127 30.4966 42.8017 30.5956Z" fill="#7C0019"/>
<path d="M37.653 31.7836C37.4584 31.7836 37.4584 31.3875 36.8749 31.4865C36.4858 31.5855 36.3886 32.0806 35.9023 32.0806H35.7078C35.5132 31.9816 35.3187 32.0806 35.1242 31.9816C34.1516 31.4865 35.805 29.2093 36.3886 29.3083L36.6804 29.4073C36.8749 29.5063 36.8749 30.1994 36.9721 30.3974C37.0694 30.5954 37.2639 30.5954 37.4584 30.6944C37.653 30.7935 37.9447 31.2885 37.9447 31.4865C38.042 31.4865 38.1393 31.8826 37.653 31.7836Z" fill="#7C0019"/>
<path d="M33.6625 31.9817C33.2735 32.1797 32.4954 32.4767 32.3009 32.8728C32.2036 33.0708 32.2036 33.2688 32.1064 33.4668L32.0091 33.5658C31.6201 33.5658 31.3283 33.5658 30.9393 33.6648C30.6475 33.7638 30.2584 34.0609 29.9667 34.0609C29.3831 34.1599 28.8968 33.8628 28.4105 33.9619C28.1187 33.9619 28.0214 34.2589 27.8269 34.3579C27.6324 34.4569 27.6324 34.4569 27.4379 34.5559L27.3406 34.6549C27.3406 34.7539 27.2434 34.8529 27.2434 34.952C27.1461 35.15 27.0488 35.348 27.0488 35.546C27.0488 35.744 26.9516 36.2391 26.8543 36.4371C26.8543 36.5361 26.5625 36.7341 26.5625 36.8331C26.5625 36.9322 26.4653 36.9322 26.5625 37.0312C26.4653 36.9322 26.4653 37.1302 26.9516 37.1302C27.4379 37.1302 28.605 36.8331 28.605 36.8331L29.1886 36.5361C29.2858 36.4371 29.6749 36.1401 29.7721 36.0411C30.1612 35.546 31.231 33.6648 32.1064 34.1599L32.3009 34.2589C32.4954 34.5559 32.2036 35.546 32.1064 35.843L31.9119 36.0411C31.7173 36.1401 31.6201 36.4371 31.6201 36.6351C31.6201 36.9322 31.6201 37.2292 31.7173 37.3282C31.7173 37.7242 31.8146 38.1203 31.6201 38.5163C31.6201 38.6153 31.4256 38.7143 31.5228 39.0114C31.5228 39.3084 31.9119 39.5064 32.0091 39.7044C32.0091 39.8034 32.1064 39.8034 32.0091 40.0015C31.9119 40.1005 31.6201 40.2985 31.5228 40.3975C31.4256 40.4965 31.5228 40.6945 31.6201 40.7935C31.8146 40.9916 32.0091 40.9916 32.2036 41.2886C32.4954 41.5856 32.3982 41.8827 32.9817 41.9817C33.468 41.9817 34.0516 42.0807 33.7598 41.4866L33.6625 41.2886C33.468 40.8926 33.2735 40.4965 33.1762 40.1005C33.079 39.5064 33.5653 39.3084 33.3708 38.8133C33.1762 38.5163 32.5927 38.5163 32.4954 38.0213C32.4954 37.7242 32.6899 37.2292 32.7872 37.0312C32.8845 36.7341 32.7872 36.5361 32.8845 36.2391C32.9817 36.0411 33.2735 35.8431 33.2735 35.546C33.3708 35.051 32.9817 34.853 33.1762 34.3579C33.2735 34.0609 33.6625 34.1599 33.7598 33.9619C33.9543 33.6648 33.8571 33.3678 33.9543 32.9718L34.0516 32.6747L34.1488 32.1797C33.8571 31.8827 33.6625 31.9817 33.6625 31.9817ZM29.3831 35.546C28.994 35.645 28.994 34.8529 28.1187 35.15L27.8269 35.447C27.7297 35.645 27.7297 36.3381 27.6324 36.3381C27.6324 36.3381 27.2434 36.4371 27.3406 35.9421C27.4379 35.249 27.5351 35.051 27.9242 34.7539C27.9242 34.7539 28.1187 34.6549 28.216 34.5559C28.605 34.4569 29.3831 34.6549 29.5776 34.853C29.6749 35.15 29.3831 35.546 29.3831 35.546Z" fill="#7C0019"/>
<path d="M53.795 30.1996C53.6977 29.9026 52.8224 29.9026 52.5306 29.4075C52.4333 29.2095 52.5306 29.1105 52.5306 29.0115C52.6279 28.6154 53.4059 28.8134 53.6005 28.5164C53.6977 28.4174 53.6977 27.9224 53.6977 27.9224C53.2114 27.3283 52.1416 27.6253 51.3635 27.3283C50.9744 27.1303 50.5854 26.8332 50.1964 26.7342C49.7101 26.5362 49.321 26.5362 48.8347 26.3382C48.7375 26.3382 48.5429 26.1402 48.4457 26.0412C47.9594 25.8431 47.4731 25.7441 46.9868 25.5461C46.8895 25.5461 46.7922 25.4471 46.695 25.4471C46.5005 25.3481 46.4032 25.3481 46.2087 25.2491C45.4306 24.9521 44.3607 24.655 43.1936 24.754C42.7073 24.754 42.0265 24.655 41.2484 24.9521C40.9566 25.0511 40.5676 25.2491 40.2758 25.3481C40.0813 25.4471 39.8868 25.4471 39.7895 25.5461C39.595 25.6451 39.4005 25.7441 39.0114 25.8431C38.1361 26.0412 36.8717 25.8431 35.9964 25.9422C35.2183 26.0412 34.732 26.6352 34.0512 26.8332C33.8566 26.9323 33.7594 26.8332 33.5649 26.9323C33.4676 26.9323 33.1758 27.0313 33.0786 27.1303C32.7868 27.2293 32.5923 27.3283 32.3005 27.4273C32.106 27.5263 32.0087 27.6253 31.8142 27.7243C31.6197 27.8233 31.6197 27.8233 31.4251 28.0214L31.2306 28.1204C31.2306 28.1204 30.9388 28.4174 30.8416 28.4174C30.7443 28.5164 30.5498 28.7144 30.4525 28.9125C30.1608 29.3085 29.5772 29.8035 29.1881 30.1006C28.9936 30.1996 28.8964 30.1996 28.7991 30.2986C28.6046 30.3976 28.5073 30.5956 28.3128 30.6946C27.9238 30.9917 27.632 31.0907 27.2429 31.2887L26.9512 31.4867C26.6594 31.6847 26.6594 31.7837 26.2703 31.9818C26.0758 32.1798 25.9786 32.3778 25.784 32.5758C25.6868 32.6748 25.4923 32.9719 25.395 33.1699C25.006 33.7639 24.8114 34.754 24.5197 35.4471C24.4224 35.6451 23.7416 36.7342 23.5471 36.8332L23.4498 36.9323C23.3525 37.0313 23.3525 37.0313 23.2553 37.1303C23.0608 37.3283 22.8662 37.4273 22.6717 37.6253C22.5745 37.8233 22.4772 38.0214 22.3799 38.2194C22.1854 38.5164 21.8936 38.9125 21.6991 39.2095C21.6019 39.3085 21.6019 39.5065 21.5046 39.6055C21.4073 39.7045 21.3101 40.1006 21.3101 40.1006C21.1156 40.4966 20.8238 40.5956 20.3375 41.2887C19.7539 41.2887 17.906 40.8927 16.6416 40.1996C16.9334 40.4966 18.3923 41.4867 20.0457 41.6847C19.9484 41.8827 19.9484 41.9818 19.7539 42.0808C19.0731 42.2788 17.906 41.8828 16.3498 41.2887C16.4471 41.4867 17.8087 42.3778 19.8512 42.4768C19.5594 42.8729 16.7388 42.7738 14.5991 42.1798C14.3073 42.5758 17.1279 43.1699 18.684 43.1699C18.3923 43.2689 17.7114 43.4669 17.3224 43.6649C16.6416 43.5659 15.669 43.4669 15.4745 43.3679C15.4745 43.4669 16.2525 43.6649 16.8361 43.8629C16.2525 44.061 15.4745 44.16 15.1827 44.259C15.3772 44.358 16.3498 44.16 17.2251 43.962C18.0032 44.16 19.2676 44.259 19.9484 44.259C19.7539 44.358 19.1703 44.754 18.5868 45.0511C17.3224 45.1501 15.8635 45.2491 15.5717 45.3481C15.7662 45.3481 16.9334 45.3481 18.1005 45.3481C17.3224 45.8431 16.5443 46.2392 16.1553 46.4372C16.7388 46.3382 17.7114 45.9422 18.7813 45.3481C19.8512 45.3481 20.8238 45.2491 21.2128 45.0511C21.1156 45.3481 20.2402 46.8332 19.4621 47.1303C19.7539 47.0313 20.8238 46.7342 21.5046 45.1501C21.6991 45.2491 21.9909 45.3481 22.2827 45.3481C22.4772 45.6451 22.8662 46.2392 23.6443 46.3382C23.8388 46.8332 25.2005 49.1105 27.2429 48.2194C26.6594 47.9224 26.2703 47.5263 26.0758 46.6352C26.9512 46.5362 29.2854 47.9224 30.0635 50.6946C29.4799 50.4966 28.7991 50.1996 28.7018 49.9026C28.5073 50.5956 28.4101 51.3877 29.869 52.8729C29.869 53.1699 29.869 53.5659 29.9662 53.863C30.1608 54.16 30.4525 54.259 30.7443 54.556C30.7443 54.9521 30.7443 55.5461 31.8142 55.8431C32.2032 56.1402 33.3703 56.4372 33.4676 56.6352C33.8566 56.7342 34.3429 56.7342 34.732 56.7342C34.732 56.7342 35.2183 56.6352 35.4128 56.4372C35.7046 56.4372 35.9964 56.4372 37.5525 54.754C37.8443 54.358 37.5525 52.1798 37.6498 51.6847C37.8443 51.2887 37.8443 50.9917 38.0388 50.4966C38.0388 50.4966 38.2334 50.0016 38.6224 49.8035H38.7197C39.595 49.6055 40.7621 50.3976 41.3457 50.6946C41.5402 50.7936 41.6375 50.6946 41.832 50.7936C41.9292 50.7936 42.0265 50.9917 42.1238 51.0907C42.3183 51.1897 42.5128 51.1897 42.7073 51.2887C42.9991 51.4867 43.6799 52.3778 44.2635 52.2788C44.458 52.2788 44.5553 51.7837 44.7498 51.6847C45.0416 51.4867 45.3333 51.4867 45.6251 51.3877C45.9169 51.1897 45.8196 50.8927 45.8196 50.5956L45.9169 50.3976C46.0142 50.3976 46.3059 50.3976 46.5005 50.2986L46.5977 50.1996C46.695 50.1006 46.5977 49.9026 46.5977 49.8035C46.5977 49.7045 46.3059 49.6055 46.2087 49.5065C46.0142 49.3085 45.6251 49.0115 45.5279 48.7144C45.4306 48.6154 45.5279 48.5164 45.4306 48.4174C45.3333 48.3184 45.1388 48.1204 45.0416 47.9224C44.7498 47.3283 44.847 46.0412 44.7498 45.8431C44.6525 45.6451 44.5553 45.6451 44.458 45.5461C44.2635 45.1501 44.5553 44.061 44.5553 43.5659C44.5553 43.1699 44.2635 43.4669 44.2635 43.4669C43.9717 44.16 43.9717 44.556 43.9717 45.5461C43.9717 45.6451 43.8744 46.2392 43.8744 46.3382C43.8744 46.7342 44.069 47.3283 43.9717 47.7243C43.9717 47.8233 43.6799 48.1204 43.1936 48.1204C42.9991 48.1204 42.3183 47.9224 42.1238 47.8233L41.9292 47.6253C41.5402 47.3283 41.4429 47.6253 41.4429 47.7243C41.4429 47.9224 41.5402 47.9224 41.5402 48.0214C41.5402 48.1204 41.7347 48.4174 41.7347 48.4174C41.7347 48.4174 41.6375 48.8134 40.9566 48.4174C40.4703 48.1204 39.8868 47.2293 39.8868 47.0313C39.7895 46.7342 39.8868 46.4372 39.984 46.3382C40.2758 46.1402 40.5676 46.4372 40.8594 46.5362C40.9566 46.5362 41.0539 46.7342 41.1512 46.7342C41.3457 46.7342 41.5402 46.7342 41.5402 46.7342C42.5128 46.6352 43.5827 47.0313 43.7772 46.3382C43.8744 45.9422 43.4854 45.6451 43.3881 45.4471C43.2909 45.2491 43.3881 45.2491 43.2909 44.9521L43.1936 44.754C43.0964 44.556 43.1936 44.457 43.0964 44.259C42.9991 44.061 42.7073 43.863 42.6101 43.7639C42.4155 43.4669 42.4155 43.1699 42.221 42.9719C41.9292 42.6748 40.4703 42.2788 40.3731 41.9818C40.0813 41.4867 40.4703 40.4966 40.2758 39.9026C40.1786 39.5065 40.0813 39.3085 39.8868 39.1105C39.7895 39.0115 39.7895 38.9125 39.7895 38.7144C39.8868 38.5164 39.984 38.5164 39.984 38.0214C39.984 37.7243 39.984 37.4273 39.984 37.1303L40.0813 36.6352C40.1786 35.8431 40.0813 35.0511 39.8868 34.556C39.7895 34.259 39.595 34.061 39.4977 33.7639C39.4005 33.5659 39.4977 33.4669 39.4005 33.2689C39.3032 33.0709 39.1087 32.9719 39.0114 32.7738C38.8169 32.4768 38.9142 32.0808 38.6224 31.8828C38.4279 31.7837 38.3306 31.8828 38.3306 31.8828C38.2334 32.0808 38.2334 32.3778 38.4279 32.6748C38.5251 32.7738 38.7197 32.9719 38.7197 33.1699C38.8169 33.4669 38.7197 33.7639 38.7197 33.962L38.8169 34.259C38.9142 34.9521 38.5251 35.8431 38.3306 36.2392C38.1361 36.5362 37.5525 36.8332 37.5525 37.2293C37.5525 37.4273 37.6498 37.4273 37.6498 37.5263C37.747 37.6253 38.0388 37.8233 38.0388 37.9224C38.0388 38.0214 38.1361 38.0214 38.1361 38.1204V38.3184C38.1361 38.8134 37.5525 38.9125 37.8443 39.5065C37.9416 39.7045 38.2334 39.7045 38.3306 39.8035C38.6224 40.0016 39.206 40.5956 39.3032 40.9917C39.3032 41.1897 39.3032 42.2788 39.206 42.3778C39.1087 42.6748 38.3306 42.7738 38.4279 43.3679C38.5251 44.061 40.1786 43.8629 40.6649 44.16C40.8594 44.358 40.9566 44.655 40.9566 44.9521C40.9566 45.1501 40.8594 45.1501 40.7621 45.2491C40.5676 45.3481 40.4703 45.2491 40.2758 45.3481C39.6923 45.4471 38.8169 45.7441 38.6224 46.1402C38.3306 46.6352 38.7197 47.3283 38.5251 47.9224C38.4279 48.4174 38.0388 49.1105 37.747 49.5065C37.5525 49.8035 37.358 50.0016 37.2607 50.3976C36.6772 51.4867 36.8717 52.4768 36.7744 53.3679C36.7744 53.3679 36.7744 53.8629 36.4827 54.16C36.0936 54.556 34.8292 55.7441 33.9539 55.7441C33.6621 55.7441 33.4676 55.6451 33.0786 55.3481C32.884 55.3481 32.3005 55.1501 32.0087 54.8531C31.9114 54.655 30.9388 53.6649 31.5224 53.3679C32.106 53.0709 33.0786 53.6649 33.4676 53.962C33.6621 53.962 34.9265 54.061 36.2881 52.1798C36.1909 51.1897 36.1909 50.0016 36.0936 49.8035C35.9964 49.3085 35.2183 48.5164 35.0238 48.0214C34.9265 47.6253 34.732 46.8332 34.8292 46.3382C34.732 45.7441 34.4402 45.6451 34.2457 45.1501C34.2457 45.0511 34.1484 44.9521 34.1484 44.853C34.1484 44.655 34.0512 44.556 33.9539 44.358C33.7594 43.962 33.4676 43.8629 33.2731 43.5659C33.0786 43.1699 33.0786 42.7738 32.7868 42.4768C32.5923 42.3778 32.3005 42.3778 32.106 42.1798C31.9114 42.0808 31.7169 41.8828 31.6197 41.7837C31.4251 41.6847 31.3279 41.6847 31.1334 41.5857C31.0361 41.4867 30.8416 41.4867 30.7443 41.3877C30.6471 41.2887 30.5498 41.3877 30.4525 41.2887C30.1608 41.0907 30.3553 40.8927 30.258 40.4966L30.1608 40.3976C30.0635 40.3976 29.869 40.1996 29.7717 40.2986C29.5772 40.4966 29.4799 40.3976 29.3827 40.6946C29.2854 40.8927 29.1881 41.4867 28.9936 41.6847C28.8964 41.7837 28.7018 41.9818 28.5073 42.1798C28.3128 42.2788 28.2155 42.2788 28.2155 42.2788L27.7292 42.3778L27.4375 42.7738C27.4375 42.7738 27.1457 42.7738 27.0484 42.7738C27.0484 42.8729 26.6594 43.1699 26.5621 43.1699C26.1731 43.4669 25.8813 43.2689 25.8813 43.1699C25.8813 43.0709 25.6868 42.8729 25.9786 42.7738C26.9512 42.4768 28.1183 41.1897 28.2155 40.8927C28.1183 41.0907 26.0758 42.1798 25.6868 42.3778C26.0758 41.3877 28.6046 40.0016 28.7018 39.8035C28.021 39.9026 25.9786 41.1897 25.5895 41.7837C25.2005 42.3778 24.8114 42.1798 24.4224 42.1798C24.0334 42.1798 24.0334 42.5758 24.0334 42.8729C24.0334 43.0709 23.8388 43.6649 24.0334 43.6649C24.3251 43.8629 25.006 42.9719 25.2005 43.4669C25.2977 44.061 23.9361 43.962 23.9361 44.457C23.8388 44.655 25.2005 44.754 25.4923 45.0511C25.1032 45.3481 24.0334 45.4471 23.6443 45.5461C23.4498 45.5461 23.2553 45.5461 23.158 45.5461C22.9635 45.5461 22.769 45.3481 22.5745 45.0511C22.1854 44.358 22.8662 43.8629 22.8662 43.6649C22.8662 43.4669 22.769 43.5659 22.769 43.2689C22.769 42.9719 23.0608 42.8729 23.158 42.8729C23.2553 42.7738 23.158 42.6748 23.158 42.4768C23.3525 41.7837 24.4224 41.0907 24.1306 40.8927C23.8388 40.7936 23.3525 41.2887 23.158 41.5857C22.4772 42.5758 21.6019 42.2788 21.3101 42.2788C20.6292 42.2788 20.8238 41.5857 21.2128 41.6847C21.6991 41.5857 21.6991 40.8927 22.0882 40.8927C22.1854 41.3877 21.6019 41.4867 21.8936 41.5857C22.2827 41.6847 22.2827 41.2887 22.3799 40.9917C22.4772 40.7936 22.9635 40.2986 22.9635 40.1996C22.769 40.1006 22.4772 40.3976 22.2827 40.5956C21.8936 39.5065 22.9635 38.7144 22.9635 38.4174C23.3525 37.8233 25.2977 37.1303 25.2977 36.3382H25.395C25.395 36.3382 25.395 36.3382 25.4923 36.4372C25.4923 36.5362 25.4923 36.5362 25.4923 36.6352C25.4923 36.7342 25.4923 36.7342 25.4923 36.7342V36.6352C25.4923 36.7342 25.4923 36.8332 25.4923 36.8332V36.6352C25.4923 36.7342 25.5895 36.7342 25.5895 36.7342C25.5895 36.7342 25.784 36.7342 25.8813 36.5362C25.8813 36.5362 25.9786 36.4372 25.9786 36.3382C26.1731 36.2392 26.1731 36.1402 26.3676 35.9422C26.6594 35.4471 26.0758 34.754 26.2703 34.061C26.3676 33.6649 26.7566 33.0709 26.7566 33.0709C26.8539 32.7738 26.6594 32.7738 26.6594 32.7738C26.3676 32.7738 26.2703 32.9719 26.2703 32.9719C25.9786 33.2689 25.8813 33.4669 25.5895 33.863C25.5895 33.863 25.395 34.061 25.2977 33.7639C25.2005 33.3679 25.6868 32.4768 25.784 32.3778C26.0758 32.1798 26.3676 32.0808 26.6594 31.9818C26.8539 31.8828 27.0484 31.5857 27.2429 31.5857C27.3402 31.5857 27.4375 31.5857 27.5347 31.5857C27.5347 31.5857 27.632 31.6847 27.632 31.9818C27.632 31.9818 27.5347 32.3778 27.5347 32.4768C27.5347 32.5758 27.5347 32.6748 27.7292 32.6748C28.2155 32.6748 29.2854 32.5758 29.5772 32.3778C29.6745 32.3778 29.6744 32.2788 29.7717 32.1798C29.869 32.0808 29.869 31.8828 29.7717 31.8828L29.5772 31.7837C29.7717 31.7837 28.7018 31.7837 28.7991 31.6847C28.6046 31.6847 29.0909 31.1897 28.9936 30.8927C28.9936 30.7936 28.7991 30.6946 28.7018 30.5956C28.7018 30.4966 28.6046 30.3976 28.7018 30.3976L28.8964 30.2986C28.9936 30.2986 28.9936 30.1996 29.0909 30.1996C29.3827 30.0016 30.0635 30.1006 30.258 30.1996C30.258 30.1996 30.7443 30.2986 30.8416 30.6946C30.8416 30.7936 30.9388 30.8927 30.9388 30.9917C31.1334 31.2887 31.7169 31.3877 32.106 30.9917C32.2032 30.8927 32.3005 30.7936 32.3005 30.6946C32.5923 29.9026 32.106 29.3085 31.5224 29.1105C31.2306 29.0115 30.8416 29.0115 30.5498 28.9125C30.3553 28.8134 30.4525 28.6154 30.5498 28.6154L30.6471 28.5164C30.7443 28.3184 31.1334 28.1204 31.3279 28.1204C31.7169 28.0214 32.0087 27.8233 32.495 28.0214C32.5923 28.0214 32.7868 28.2194 32.7868 28.2194C33.1758 28.3184 33.2731 28.3184 33.6621 28.1204C33.7594 28.0214 33.7594 28.0214 33.7594 28.0214C33.8566 27.6253 33.6621 27.4273 33.6621 27.4273C33.5649 26.9323 34.9265 27.5263 35.121 27.2293C35.3155 26.9323 35.2183 26.4372 35.4128 26.2392L35.6073 26.1402C35.8991 26.0412 36.0936 26.2392 36.2881 26.2392L36.4827 26.3382C36.8717 26.5362 37.2607 26.6352 37.5525 26.9323C37.747 27.1303 37.6498 27.5263 37.8443 27.7243C37.9416 27.8233 38.0388 27.9224 38.1361 28.0214C38.2334 28.1204 38.3306 28.1204 38.4279 28.2194C38.5251 28.3184 38.6224 28.3184 38.7197 28.4174C38.8169 28.4174 39.0114 28.6154 39.1087 28.7144C39.4977 28.9125 39.984 28.8134 40.4703 28.8134C40.7621 28.8134 40.8594 28.9125 41.1512 28.9125C41.2484 28.9125 41.2484 28.6154 41.1512 28.5164C40.9566 28.3184 40.8594 28.3184 40.5676 28.2194C40.4703 28.1204 40.3731 27.9224 40.2758 27.9224C39.984 27.7243 39.4977 27.7243 39.3032 27.4273C39.3032 27.4273 39.206 27.3283 39.206 27.2293L39.1087 27.1303C38.7197 26.3382 38.6224 25.9422 39.0114 25.7441C39.206 25.6451 39.6923 25.7441 39.984 25.6451C40.0813 25.6451 40.1786 25.4471 40.1786 25.4471C40.6649 25.1501 41.7347 24.853 42.221 25.1501C42.4155 25.2491 42.221 25.6451 42.3183 25.8431C42.3183 25.9422 42.5128 26.0412 42.6101 26.0412C43.7772 26.3382 44.847 26.3382 45.7224 26.7342C46.2087 26.9323 46.5977 27.3283 47.084 27.7243C47.4731 28.1204 46.9868 28.5164 47.3758 28.6154C47.084 28.6154 46.8895 28.7144 46.7923 28.5164L46.695 28.3184C46.4032 28.0214 46.0142 27.6253 45.6251 27.4273C45.4306 27.3283 45.3333 27.4273 45.0416 27.3283L45.1388 27.7243C44.847 27.6253 44.847 27.6253 44.5553 27.6253C44.458 27.6253 44.1662 27.4273 43.9717 27.4273C43.3881 27.3283 43.0964 27.5263 42.6101 27.4273C42.4155 27.3283 42.0265 26.9323 41.832 26.8332C41.6375 26.7342 41.3457 26.6352 41.1512 26.5362C41.0539 26.5362 40.9566 26.5362 40.9566 26.5362C40.7621 26.6352 40.8594 26.7342 40.9566 26.8332C40.9566 26.9323 41.0539 27.0313 41.0539 27.0313C41.2484 27.1303 41.6375 27.1303 41.7347 27.3283C42.0265 27.9224 41.6375 28.1204 41.5402 28.3184C41.5402 28.4174 41.4429 28.5164 41.5402 28.6154C41.6375 28.7144 41.7347 28.8134 41.832 28.8134C42.1238 28.9125 42.3183 28.9125 42.6101 29.0115C42.8046 29.1105 42.9991 29.4075 43.1936 29.5065C43.6799 29.6055 43.8744 29.2095 44.1662 29.2095C44.5553 29.1105 44.7498 29.3085 45.2361 29.2095C45.4306 29.2095 45.4306 29.0115 45.5279 28.9125C45.8196 28.8134 46.0142 28.7144 46.2087 28.8134C46.2087 28.8134 46.4032 28.9125 46.1114 29.0115C46.0142 29.1105 45.8196 29.1105 45.7224 29.2095C45.6251 29.3085 45.5279 29.4075 45.5279 29.4075C45.5279 29.5065 45.4306 29.6055 45.4306 29.6055C45.4306 29.7045 45.5279 29.7045 45.5279 29.7045C46.0142 29.9026 46.5005 29.6055 46.8895 29.5065C47.1813 29.5065 47.9594 29.5065 48.2512 29.7045C48.2512 29.7045 48.4457 29.7045 48.3484 30.1996C48.2512 30.3976 47.8621 30.5956 47.7649 30.7936C47.6676 30.8927 47.5703 31.0907 47.4731 31.2887C47.3758 31.4867 47.2785 31.4867 47.1813 31.6847L47.084 31.7837C46.9868 31.9818 46.3059 32.5758 46.2087 32.7738C46.1114 32.8729 46.1114 32.9719 46.0142 33.1699C45.9169 33.3679 45.8196 33.3679 45.7224 33.4669C45.5279 33.7639 45.1388 34.358 44.847 34.457C44.7498 34.556 44.5553 34.457 44.2635 34.457C44.1662 34.457 43.9717 34.16 43.8744 34.16C43.3881 33.962 42.9018 33.962 42.5128 33.7639C42.3183 33.6649 42.1238 33.2689 41.9292 33.0709C41.832 32.9719 41.7347 32.6748 41.6375 32.6748C41.4429 32.5758 40.8594 32.6748 40.6649 32.8729C40.4703 33.2689 41.0539 34.358 41.0539 34.8531C41.0539 35.2491 40.9566 35.4471 41.0539 35.7441C41.1512 35.9422 41.3457 35.9422 41.4429 36.0412C41.832 36.6352 41.4429 37.4273 41.5402 38.2194C41.5402 38.4174 41.7347 38.7144 41.6375 39.1105C41.5402 39.6055 40.8594 40.1006 41.1512 40.8927C41.1512 40.8927 41.2484 40.9917 41.3457 40.9917C41.4429 41.0907 41.6375 40.9917 41.7347 40.9917C41.9292 40.8927 42.1238 40.4966 42.4155 40.2986L42.5128 40.1996L42.6101 40.1006C42.7073 40.0016 42.7073 40.0016 42.8046 39.9026C42.9018 39.7045 42.9018 39.5065 42.9018 39.1105C42.9991 38.8134 43.1936 38.4174 43.1936 38.1204C43.2909 37.3283 42.7073 35.6451 43.0964 35.4471C43.2909 35.3481 43.3881 35.1501 43.6799 35.1501C43.7772 35.1501 44.1662 35.2491 44.3607 35.2491C44.1662 35.7441 44.9443 37.1303 44.847 37.8233C44.6525 39.6055 43.4854 40.6946 42.5128 41.5857C42.4155 41.6847 42.5128 41.7837 42.6101 41.8828C42.8046 42.0808 43.2909 41.9818 43.5827 41.9818C43.9717 41.8828 44.069 41.7837 44.3607 41.6847C44.458 41.6847 44.5553 41.6847 44.6525 41.6847C44.9443 41.5857 45.1388 41.1897 45.3333 40.9917C45.3333 40.9917 45.6251 40.5956 45.7224 41.0907C45.7224 41.4867 45.6251 41.9818 45.7224 42.4768C45.8196 42.9719 46.695 44.556 47.1813 44.556C48.2512 44.754 47.1813 43.2689 47.084 43.1699C46.8895 42.7738 46.695 41.9818 46.7923 41.3877C46.7923 41.1897 46.9868 40.7936 46.9868 40.5956C46.9868 40.4966 46.9868 40.2986 46.9868 40.1996C47.084 40.0016 47.6676 40.0016 47.7649 39.7045C47.7649 39.6055 47.7649 39.5065 47.7649 39.4075C47.7649 39.2095 47.8621 38.9125 48.0566 38.8134C48.1539 38.7144 48.2512 38.6154 48.3484 38.8134C48.4457 38.9125 48.4457 39.2095 48.6402 39.5065L48.8347 39.7045C49.0292 39.8035 49.321 39.7045 49.2238 39.7045C49.4183 39.6055 49.4183 39.4075 49.5155 39.4075L49.6128 39.3085C50.0991 38.8134 49.0292 38.3184 49.0292 37.9224C49.0292 37.4273 49.1265 36.8332 48.932 36.2392C48.932 36.1402 48.6402 35.9422 48.6402 35.7441C48.5429 35.4471 48.7375 35.0511 48.7375 34.8531C48.8347 34.457 48.6402 33.7639 48.8347 33.5659C48.932 33.4669 49.0292 33.3679 49.321 33.4669C49.5155 33.4669 49.6128 33.7639 49.7101 33.863C50.0991 34.259 50.6827 34.457 51.3635 34.358C51.4607 34.358 51.558 34.259 51.558 34.16C51.558 34.061 51.558 33.8629 51.558 33.7639C51.2662 33.3679 50.2936 33.1699 50.1964 32.9719C50.1964 32.8729 50.0018 32.6748 50.1964 32.5758C50.2936 32.6748 51.0717 32.6748 51.2662 32.5758C51.558 32.4768 51.6553 32.1798 51.8498 32.0808C52.1416 31.8828 52.6279 32.0808 52.8224 31.7837C52.9196 31.5857 52.8224 31.2887 52.9196 31.0907C53.0169 30.8927 53.4059 30.7936 53.6977 30.5956C53.795 30.4966 53.795 30.2986 53.795 30.1996ZM27.0484 46.0412C26.9512 45.9422 27.0484 45.6451 27.2429 45.4471C27.7292 45.2491 27.8265 45.4471 27.9238 45.6451C28.3128 46.3382 28.8964 47.2293 29.2854 47.5263C28.9936 47.6253 27.632 47.1303 27.0484 46.0412ZM30.7443 52.8729C30.5498 52.8729 28.9936 51.5857 29.2854 50.7936C29.7717 51.0907 30.7443 51.7837 30.8416 51.7837C30.9388 51.8828 31.0361 52.7738 30.7443 52.8729ZM32.3977 52.8729C32.2032 52.6748 30.7443 51.1897 31.1334 50.3976C31.5224 50.7936 32.5923 51.7837 32.9813 51.8828C33.1758 52.2788 33.1758 53.0709 32.3977 52.8729ZM32.5923 47.0313C32.884 47.4273 33.1758 47.6253 33.1758 48.4174C33.1758 48.6154 33.1758 48.6154 33.3703 48.6154C33.5649 48.6154 33.4676 47.6253 33.8566 47.7243C34.2457 47.8233 33.9539 48.3184 34.1484 48.9125C34.2457 49.1105 34.6347 49.9026 34.5375 51.2887C34.5375 51.6847 33.8566 52.0808 33.4676 51.7837C33.1758 51.5857 33.1758 51.3877 32.9813 49.9026C32.884 49.1105 31.9114 48.8134 31.5224 48.4174C31.1334 48.1204 31.3279 47.9224 31.2306 47.3283C30.9388 46.4372 30.0635 46.1402 30.3553 45.5461C30.4525 45.4471 30.5498 45.2491 30.8416 45.3481C30.9388 45.8431 31.9114 46.2392 32.5923 47.0313ZM25.784 44.358C25.6868 44.358 25.6868 44.358 25.784 44.358C25.8813 44.358 26.2703 44.061 26.4649 44.061C26.9512 43.8629 27.1457 44.16 27.5347 43.8629C27.632 43.7639 27.7292 43.6649 27.8265 43.5659C27.9238 43.4669 28.021 43.4669 28.1183 43.4669C28.3128 43.2689 28.7991 42.7738 29.0909 42.7738C29.2854 42.7738 29.2854 42.7738 29.3827 42.7738C29.3827 42.7738 29.4799 42.7738 29.4799 42.9719C29.3827 43.4669 30.5498 42.9719 31.3279 43.1699C31.8142 43.2689 32.3005 43.4669 32.2032 43.7639L32.0087 43.8629C31.6197 44.16 31.3279 43.863 31.2306 43.7639C30.9388 43.7639 30.7443 43.863 30.3553 43.7639L29.9662 43.6649C29.7717 43.6649 29.3827 43.7639 29.1881 43.7639C28.7991 43.7639 28.7018 43.6649 28.3128 43.6649C28.1183 43.6649 27.9238 43.863 27.8265 43.962C27.7292 43.962 27.632 44.061 27.5347 44.061C27.4375 44.061 27.3402 44.16 27.2429 44.259C26.9512 44.457 26.7566 44.457 26.3676 44.556L25.9786 44.655C25.4923 44.754 25.5895 44.457 25.784 44.358ZM24.5197 46.2392C25.006 46.1402 25.2005 46.2392 25.4923 46.8332C25.6868 47.2293 26.0758 47.6253 26.1731 47.9224C25.5895 48.0214 24.6169 47.1303 24.3251 46.7342C24.2279 46.5362 24.4224 46.3382 24.5197 46.2392ZM17.906 43.7639C18.5868 43.5659 19.1703 43.3679 19.4621 43.1699C19.5594 43.1699 19.6566 43.1699 19.7539 43.1699C19.7539 43.3679 19.8512 43.5659 19.9484 43.7639C19.9484 43.7639 19.9484 43.8629 20.0457 43.8629C19.5594 43.8629 18.7813 43.7639 17.906 43.7639ZM19.3649 44.9521C19.7539 44.754 20.0457 44.457 20.3375 44.259C20.532 44.457 20.6292 44.556 20.8238 44.754C20.6292 44.754 20.0457 44.8531 19.3649 44.9521Z" fill="#7C0019"/>
<path d="M20.2407 10.6946C19.9489 10.4966 19.7544 10.2986 19.2681 9.80354C19.2681 9.80354 17.0311 7.32829 16.7393 6.93225C16.7393 6.83325 19.1708 3.76394 19.1708 3.76394L19.3653 3.56592H19.1708H18.1009L15.3777 7.13027V3.56592H15.2804H14.1133V10.9917H15.3777V7.22928L18.2955 10.4966C18.49 10.7936 18.9763 10.9917 19.5599 10.9917H20.6297L20.2407 10.6946Z" fill="#D7C9B1"/>
<path d="M26.1713 3.36792C25.1014 3.36792 24.1288 3.76396 23.3507 4.45703C22.5726 5.24911 22.1836 6.1402 22.1836 7.22931C22.1836 8.31841 22.5726 9.30851 23.3507 10.0016C24.1288 10.6947 25.0041 11.0907 26.074 11.0907C27.1439 11.0907 28.1165 10.6947 28.7973 10.0016C29.5754 9.2095 29.9644 8.31841 29.9644 7.1303C29.9644 6.1402 29.5754 5.24911 28.8945 4.45703C28.2137 3.76396 27.2411 3.36792 26.1713 3.36792ZM26.074 10.1996C25.2959 10.1996 24.7124 9.90257 24.2261 9.2095C23.7398 8.61544 23.5452 7.92237 23.5452 7.1303C23.5452 6.33822 23.7398 5.64515 24.2261 5.1501C24.7124 4.65505 25.2959 4.35802 26.074 4.35802C26.8521 4.35802 27.4356 4.65505 27.9219 5.34812C28.4082 5.94218 28.6028 6.63525 28.6028 7.52634C28.6028 8.31841 28.4082 9.01148 27.9219 9.50653C27.5329 9.90257 26.8521 10.1996 26.074 10.1996Z" fill="#D7C9B1"/>
<path d="M43.78 7.4273C43.9745 7.4273 46.1143 7.4273 46.1143 7.4273V6.43721C46.1143 6.43721 43.9745 6.43721 43.78 6.43721C43.78 6.3382 43.78 4.65503 43.78 4.55602C44.2663 4.55602 46.6006 4.55602 46.6978 4.55602H46.7951V3.56592H42.5156V3.66493V10.9917H47.0869L47.2814 9.90255C47.2814 9.90255 43.9745 9.90255 43.8773 9.90255C43.78 9.80354 43.78 7.62532 43.78 7.4273Z" fill="#D7C9B1"/>
<path d="M53.897 3.56592H52.7299L49.7148 10.9917H50.882C50.882 10.9917 51.8546 8.4174 51.8546 8.31839C51.9518 8.31839 54.3833 8.31839 54.4806 8.31839C54.4806 8.4174 55.4532 10.9917 55.4532 10.9917H56.8148L53.897 3.56592ZM54.0916 7.32829C53.897 7.32829 52.4381 7.32829 52.2436 7.32829C52.3409 7.13027 53.0217 5.24909 53.2162 4.85305C53.3135 5.15008 54.0916 7.13027 54.0916 7.32829Z" fill="#D7C9B1"/>
<path d="M38.1333 9.30836C38.1333 9.30836 36.9662 7.7242 36.5772 7.42717C36.869 7.32816 37.258 7.13014 37.647 6.7341C38.0361 6.33806 38.2306 5.94202 38.2306 5.44697C38.2306 4.95192 38.0361 4.45687 37.647 4.15984C37.258 3.7638 36.6744 3.66479 35.8963 3.66479H33.5621H33.4648V11.0905H34.7292V10.8925C34.7292 10.5955 34.7292 10.2985 34.7292 9.40737C34.7292 9.40737 34.7292 4.65489 34.7292 4.55588C35.8963 4.55588 36.3826 4.65489 36.5772 4.85291C36.869 5.05093 36.9662 5.24895 36.9662 5.64499C36.9662 6.43707 36.3826 6.93212 35.1183 7.13014H35.021L37.5498 10.4965C37.8416 10.8925 38.3279 11.0905 38.9114 11.0905H39.9813L39.7868 10.8925C39.1059 10.4965 38.5224 9.90242 38.1333 9.30836Z" fill="#D7C9B1"/>
<path d="M33.5636 15.8431C33.6609 15.8431 34.6335 15.8431 34.6335 15.8431V15.3481H33.5636C33.5636 15.249 33.5636 14.457 33.5636 14.457C33.7582 14.457 34.9253 14.457 34.9253 14.457V13.9619H32.8828V17.4273H35.0225L35.1198 16.9322C35.1198 16.9322 33.5636 16.9322 33.4664 16.9322C33.5636 16.9322 33.5636 15.8431 33.5636 15.8431Z" fill="#D7C9B1"/>
<path d="M16.9338 13.9619H16.5448V16.1401C16.5448 16.8332 16.3503 17.1302 15.5722 17.1302H15.4749C14.9886 17.1302 14.6968 16.8332 14.6968 16.1401V13.9619H14.1133V16.1401C14.1133 16.4372 14.1133 16.5362 14.1133 16.7342C14.1133 16.9322 14.2105 17.1302 14.3078 17.2292C14.5023 17.5263 14.8914 17.6253 15.2804 17.6253H15.6694C16.0585 17.6253 16.4475 17.5263 16.642 17.2292C16.7393 17.1302 16.8366 16.9322 16.8366 16.7342C16.8366 16.6352 16.8366 16.4372 16.8366 16.1401L16.9338 13.9619Z" fill="#D7C9B1"/>
<path d="M22.1889 13.9619C22.1889 13.9619 22.1889 16.3382 22.1889 16.5362C22.0917 16.3382 20.1465 13.9619 20.1465 13.9619H19.6602V17.5263H20.1465C20.1465 17.5263 20.1465 15.051 20.1465 14.853C20.2437 15.051 22.1889 17.5263 22.1889 17.5263H22.6752V13.9619H22.1889Z" fill="#D7C9B1"/>
<path d="M25.1992 13.9619V17.5263H25.7828V13.9619H25.1992Z" fill="#D7C9B1"/>
<path d="M46.8906 13.9619V14.754V16.7342V17.5263H47.5714V16.7342V14.754V14.0609V13.9619H47.4742H46.8906Z" fill="#D7C9B1"/>
<path d="M30.4502 13.9619C30.4502 13.9619 29.4776 16.5362 29.4776 16.7342C29.3804 16.5362 28.505 13.9619 28.505 13.9619H27.8242L29.0886 17.5263H29.6722L31.0338 13.9619H30.9365H30.4502Z" fill="#D7C9B1"/>
<path d="M43.9729 15.7441L43.4866 15.5461L43.0976 15.3481C42.8058 15.15 42.6113 15.051 42.6113 14.853C42.6113 14.655 42.7086 14.556 42.8058 14.556C42.9031 14.457 43.0976 14.457 43.2921 14.457C43.5839 14.457 43.8757 14.556 44.0702 14.655H44.1675V14.0609C43.8757 13.9619 43.6812 13.9619 43.3894 13.9619C43.0003 13.9619 42.7086 14.0609 42.514 14.1599C42.2223 14.358 42.125 14.556 42.125 14.853C42.125 15.15 42.3195 15.4471 42.6113 15.6451L42.8058 15.7441L43.4866 16.0411C43.7784 16.2391 43.9729 16.3382 43.9729 16.5362C43.9729 16.7342 43.8757 16.8332 43.7784 16.9322C43.6812 17.0312 43.4866 17.0312 43.2921 17.0312C42.9031 17.0312 42.6113 16.9322 42.2223 16.7342H42.125L42.2223 17.3283C42.514 17.4273 42.8058 17.5263 43.1949 17.5263C43.5839 17.5263 43.9729 17.4273 44.2647 17.2292C44.5565 17.0312 44.6538 16.7342 44.6538 16.4372C44.4592 16.1401 44.362 15.9421 43.9729 15.7441Z" fill="#D7C9B1"/>
<path d="M49.8047 13.9619V14.457C49.8047 14.457 50.68 14.457 50.7773 14.457C50.7773 14.556 50.7773 17.5263 50.7773 17.5263H51.3608C51.3608 17.5263 51.3608 14.556 51.3608 14.457C51.4581 14.457 52.3335 14.457 52.3335 14.457V13.9619H49.8047Z" fill="#D7C9B1"/>
<path d="M56.3213 13.9619C56.3213 13.9619 55.446 15.3481 55.3487 15.4471C55.2515 15.3481 54.3761 13.9619 54.3761 13.9619H53.6953L54.9597 15.9421V17.5263H55.5433C55.5433 17.5263 55.5433 16.0411 55.5433 15.9421L56.8076 13.9619H56.3213Z" fill="#D7C9B1"/>
<path d="M39.6909 16.7341C39.6909 16.7341 39.1073 16.041 39.0101 15.843C39.1073 15.843 39.3019 15.744 39.4964 15.5459C39.6909 15.3479 39.7882 15.1499 39.7882 14.9519C39.7882 14.6549 39.6909 14.4568 39.4964 14.3578C39.3019 14.1598 39.0101 14.0608 38.7183 14.0608H37.6484V17.6251H38.232V17.5261C38.232 17.4271 38.232 17.2291 38.232 16.8331V14.5558C38.8156 14.5558 39.0101 14.6549 39.1073 14.6549C39.2046 14.7539 39.3019 14.8529 39.3019 15.0509C39.3019 15.4469 39.0101 15.6449 38.4265 15.744H38.3293L39.4964 17.3281C39.5936 17.5261 39.8854 17.6251 40.0799 17.6251H40.5662L40.469 17.5261C40.1772 17.2291 39.8854 17.0311 39.6909 16.7341Z" fill="#D7C9B1"/>
</svg>
