<svg width="71" height="70" viewBox="0 0 71 70" fill="none" xmlns="http://www.w3.org/2000/svg">
<path d="M35.7039 58.5855C23.0228 58.5855 12.8054 48.4534 12.8054 36.0053C12.8054 27.6824 17.5155 19.7938 24.9793 16.0304C20.6315 11.9052 18.1677 7.201 21.2112 6.98388H37.5155C40.3416 6.98388 39.7619 9.15506 40.9938 9.73404H47.2257L46.6459 10.8196H48.1677C45.7764 12.4842 44.6894 15.3067 45.3416 15.5238C51.3561 17.5503 56.501 24.1362 58.0952 31.0116H70.4141C67.8778 15.3791 53.3851 2.85864 35.9213 2.85864C16.5735 2.85864 0.414062 18.0569 0.414062 36.0053C0.414062 53.9537 16.0662 68.5729 35.4141 68.5729C53.8199 68.5729 68.2402 54.3155 70.2691 38.7554H58.0952C58.1677 46.644 48.1677 58.5855 35.7039 58.5855Z" fill="#004887"/>
<path d="M25.3414 15.4514H35.0516C35.3414 15.4514 35.6313 15.2343 35.6313 14.8724C35.6313 14.5829 35.4139 14.2935 35.0516 14.2935H25.3414C25.0516 14.2935 24.7617 14.5106 24.7617 14.8724C24.8342 15.2343 25.0516 15.4514 25.3414 15.4514Z" fill="#004887"/>
<path d="M23.3141 13.2804H35.1981C35.488 13.2804 35.7779 13.0633 35.7779 12.7014C35.7779 12.4119 35.5605 12.1224 35.1981 12.1224H23.3141C23.0242 12.1224 22.7344 12.3396 22.7344 12.7014C22.7344 13.0633 23.0242 13.2804 23.3141 13.2804Z" fill="#004887"/>
<path d="M22.1539 9.87878C21.8641 9.87878 21.5742 10.1683 21.5742 10.4578C21.5742 10.7473 21.7916 11.0367 22.1539 11.0367H35.1974C35.4873 11.0367 35.7771 10.8196 35.7771 10.4578C35.7771 10.1683 35.5597 9.87878 35.1974 9.87878H22.1539Z" fill="#004887"/>
<path d="M17.5885 26.0179L30.1247 17.5503H35.4145C35.7044 17.5503 35.9943 17.3332 35.9943 16.9713C35.9943 16.6095 35.7769 16.3923 35.4145 16.3923H29.4001L16.7914 24.9323C16.2841 25.656 16.574 26.235 17.5885 26.0179Z" fill="#004887"/>
<path d="M43.2411 12.846C43.2411 12.5565 43.0237 12.3394 42.7338 12.3394C42.444 12.3394 42.2266 12.5565 42.2266 12.846C42.2266 13.1355 42.444 13.3526 42.7338 13.3526C43.0237 13.2802 43.2411 13.0631 43.2411 12.846Z" fill="#004887"/>
<path d="M48.6746 40.5648V44.3282C48.6746 44.3282 48.6746 45.4861 49.7615 45.7756C50.8485 46.0651 51.4282 45.1243 51.4282 45.1243L56.3557 35.933C56.5007 35.6435 56.4282 35.354 56.1384 35.2092C55.8485 35.0645 55.5587 35.2092 55.3413 35.4987L50.6311 44.6177C50.6311 44.6177 50.3413 44.9072 50.1239 44.8348C49.834 44.7624 49.834 44.4005 49.834 44.4005L49.2543 33.5447L51.2833 36.3672C51.2833 36.3672 52.2253 37.4528 53.2398 37.0909C54.1818 36.7291 54.0369 35.5711 54.0369 35.5711L53.3123 25.2942C53.2398 24.9323 53.0949 24.7876 52.7326 24.7876C52.3702 24.7876 52.2253 25.1494 52.2253 25.4389L53.0224 35.7158C53.0224 35.7158 53.0224 36.0053 52.805 36.0777C52.5152 36.1501 52.2253 35.933 52.2253 35.933L48.1673 29.9984C48.1673 29.9984 46.863 27.972 46.1384 27.1035C45.8485 26.7416 45.5586 26.3074 45.0514 26.5969C44.5442 26.8864 44.7615 27.4654 45.1239 27.8996C46.9355 30.1432 48.0949 32.9657 48.0949 36.0777C48.0949 43.1702 42.3702 48.96 35.1963 48.96C28.0949 48.96 22.2978 43.2426 22.2978 36.0777C22.2978 34.3408 22.95 31.2287 23.8195 29.5642L28.2398 21.8203C28.3847 21.4584 28.9644 21.5308 29.0369 21.8203C29.3268 22.9059 30.2688 23.6296 31.5731 23.6296H41.0659C43.3123 23.6296 44.0369 22.4717 44.0369 20.59V14.9449C44.1094 13.787 45.1239 12.629 46.2833 11.471C45.776 11.3987 45.3413 11.2539 44.834 11.1815C45.0514 11.1815 45.2688 10.9644 45.2688 10.7473C45.2688 10.4578 45.0514 10.2407 44.7615 10.2407C44.4717 10.2407 44.2543 10.4578 44.2543 10.7473C44.2543 10.892 44.3268 11.0368 44.4717 11.1815C44.1094 11.1092 43.7471 11.0368 43.3847 10.9644C43.6021 10.892 43.7471 10.7473 43.7471 10.5302C43.7471 10.2407 43.5297 10.0236 43.2398 10.0236C42.95 10.0236 42.7326 10.2407 42.7326 10.5302C42.7326 10.7473 42.805 10.892 43.0224 10.9644C42.6601 10.9644 42.3702 10.9644 42.0079 11.0368C42.0804 10.9644 42.1529 10.8197 42.1529 10.6749C42.1529 10.3854 41.9355 10.1683 41.6456 10.1683C41.3558 10.1683 41.1384 10.3854 41.1384 10.6749C41.1384 10.892 41.2833 11.1092 41.5007 11.1092C41.4282 11.1092 41.3558 11.1092 41.3558 11.1815C39.9065 12.1224 39.3268 13.8593 38.9644 15.3791L39.0369 9.66172C39.0369 8.6485 38.1673 7.78003 37.1529 7.78003H37.0804H20.8485C20.5587 7.78003 20.2688 7.99715 20.2688 8.35901C20.2688 8.6485 20.4862 8.93799 20.8485 8.93799H37.0804C37.5152 8.93799 37.95 9.22748 37.95 9.66172V16.2476C37.95 16.8266 38.3847 17.2608 38.9644 17.2608C39.4717 17.2608 39.834 16.899 39.9789 16.2476C39.9789 16.2476 41.1384 12.4119 41.9355 12.05C42.95 11.6158 44.6891 12.4842 44.6891 12.4842C44.6891 12.4842 43.0224 13.6422 42.805 15.162V20.7347C42.805 22.1098 42.1529 22.6888 40.9934 22.6888H31.7905C30.2688 22.6164 30.0514 20.9518 30.0514 20.9518C29.834 20.0834 28.5297 19.7939 27.805 20.59L23.0949 28.9852C22.5152 29.926 22.1529 31.7353 22.1529 31.7353L21.863 27.7549C21.863 27.7549 21.7905 26.5969 20.7036 26.3074C19.6891 26.0903 18.9644 27.0311 18.9644 27.0311L14.1818 36.2224C14.0369 36.5119 14.1094 36.8014 14.3992 36.9462C14.6891 37.0909 15.0514 37.0185 15.2688 36.7291L19.9065 27.6101C19.9065 27.6101 20.0514 27.2482 20.3413 27.2482C20.6311 27.2482 20.7036 27.6825 20.7036 27.6825L21.7905 38.6831L19.6166 35.4263C19.6166 35.4263 19.1094 34.5579 18.1673 34.7026C17.0804 34.9197 17.1529 36.0777 17.1529 36.0777L17.2978 46.7165C17.3702 47.0783 17.5152 47.2231 17.8775 47.2231C18.2398 47.2231 18.3847 46.9336 18.3847 46.5717L18.1673 36.2224C18.1673 36.2224 18.0949 35.7882 18.3123 35.7158C18.5297 35.6435 18.7471 36.0053 18.7471 36.0053L25.0514 45.7033L21.1384 43.9663C21.1384 43.9663 20.0514 43.3873 19.3992 44.0387C18.6021 44.7624 19.2543 45.7033 19.2543 45.7033L24.9789 54.4603C25.1963 54.7498 25.4137 54.8222 25.7036 54.6051C25.9934 54.388 25.9934 54.0985 25.8485 53.7366L20.1239 45.1966C20.1239 45.1966 19.9789 44.9795 20.1239 44.7624C20.3413 44.5453 20.6311 44.7624 20.6311 44.7624L31.5007 49.6837L27.1529 50.0456C27.1529 50.0456 25.9934 49.9732 25.7036 51.0588C25.4137 52.072 26.3558 52.5786 26.3558 52.5786L35.6311 57.3552C35.921 57.5 36.2108 57.4276 36.3558 57.1381C36.5007 56.8486 36.3558 56.5591 36.0659 56.342L26.863 51.7825C26.863 51.7825 26.5731 51.6378 26.6456 51.4207C26.7181 51.1312 27.0804 51.1312 27.0804 51.1312L37.95 49.9009L34.6166 51.9273C34.6166 51.9273 33.5297 52.4339 33.8195 53.5195C34.0369 54.5327 35.1239 54.5327 35.1239 54.5327L45.5586 54.3156C45.921 54.3156 46.1384 54.0985 46.0659 53.7366C46.0659 53.3747 45.776 53.23 45.4137 53.1576L35.1963 53.5919C35.1963 53.5919 34.9065 53.5919 34.834 53.3747C34.7615 53.0853 35.1239 52.9405 35.1239 52.9405L44.9789 46.427L43.1673 50.3351C43.1673 50.3351 42.5876 51.3483 43.3847 52.072C44.1818 52.7958 45.0514 52.2168 45.0514 52.2168L53.6021 46.2099C53.892 45.9927 53.9644 45.7033 53.7471 45.4861C53.5297 45.1966 53.1673 45.1966 52.8775 45.4138L44.5442 51.3483C44.5442 51.3483 44.3268 51.4931 44.1094 51.3483C43.892 51.1312 44.1094 50.8417 44.1094 50.8417L48.6746 40.5648Z" fill="#004887"/>
<path d="M36.5742 30.5773V32.0971H42.3713C42.2264 31.5905 42.0815 31.0839 41.9365 30.5773H36.5742Z" fill="#004887"/>
<path d="M35.7031 24.5704V30.0707H41.7901C40.4857 26.8864 38.2394 24.7152 35.7031 24.5704Z" fill="#004887"/>
<path d="M42.3717 39.841C42.5891 38.7554 42.8064 37.5974 42.8064 36.4395H37.8789C38.9659 37.8869 40.5601 39.1172 42.3717 39.841Z" fill="#004887"/>
<path d="M37.1562 24.498C39.3302 25.2218 41.1418 27.2482 42.2287 30.1431H45.707C43.8229 27.1035 40.7794 24.9323 37.1562 24.498Z" fill="#004887"/>
<path d="M32.8824 36.4395H28.0273C28.0273 37.5974 28.1723 38.7554 28.4621 39.841C30.2013 39.0449 31.7955 37.8869 32.8824 36.4395Z" fill="#004887"/>
<path d="M45.9179 30.5773H42.3672C42.8744 32.1695 43.2368 33.9788 43.2368 35.9328H47.2947C47.2223 33.9788 46.7875 32.1695 45.9179 30.5773Z" fill="#004887"/>
<path d="M34.1868 33.8341H28.2447C28.0998 34.5578 28.0273 35.2092 28.0273 35.9329H33.2447C33.752 35.1368 34.0418 34.7749 34.1868 33.8341Z" fill="#004887"/>
<path d="M42.5905 33.8341H36.6484C36.7934 34.7749 37.0108 35.1368 37.5905 35.9329H42.8803C42.8079 34.9921 42.7354 34.5578 42.5905 33.8341Z" fill="#004887"/>
<path d="M34.2541 30.5774H28.8918C28.7469 31.084 28.602 31.5906 28.457 32.0972H34.2541V30.5774Z" fill="#004887"/>
<path d="M35.7031 41.7951H41.8625C39.3263 40.999 37.1524 38.9726 35.7031 36.8014V41.7951Z" fill="#004887"/>
<path d="M35.1221 24.5704C32.5859 24.7152 30.267 26.8864 29.0352 30.0707H35.1221V24.5704Z" fill="#004887"/>
<path d="M35.7031 47.4401C38.1669 47.2953 40.4133 45.3413 41.6452 42.3016H35.7031V47.4401Z" fill="#004887"/>
<path d="M33.6757 24.498C30.0525 25.0047 26.9366 27.1035 25.125 30.1431H28.6757C29.7627 27.2482 31.5743 25.1494 33.6757 24.498Z" fill="#004887"/>
<path d="M45.414 42.3016H42.0082C40.8488 45.0518 39.0372 47.0059 36.8633 47.6572C40.4865 47.223 43.6024 45.1965 45.414 42.3016Z" fill="#004887"/>
<path d="M47.2266 36.4395H43.1686C43.1686 37.6698 42.9512 38.9001 42.7338 39.9857C42.8063 40.0581 43.0237 40.0581 43.0961 40.1305L42.2266 41.8674H45.7048C46.6469 40.2028 47.1541 38.3935 47.2266 36.4395Z" fill="#004887"/>
<path d="M35.1282 36.8014C33.7514 39.0449 31.505 40.9266 28.9688 41.7951H35.1282V36.8014Z" fill="#004887"/>
<path d="M28.6055 41.7951L27.591 40.0582C27.7359 39.9858 27.9533 39.9858 28.0982 39.9134C27.8084 38.8279 27.6634 37.5975 27.6634 36.3672H23.6055C23.6779 38.3212 24.1852 40.1306 25.1272 41.7951H28.6055Z" fill="#004887"/>
<path d="M35.1217 42.3016H29.1797C30.4116 45.3413 32.6579 47.2953 35.1217 47.4401V42.3016Z" fill="#004887"/>
<path d="M23.5273 35.9328H27.5853C27.5853 33.9788 27.8752 32.1695 28.4549 30.5773H24.9042C24.0346 32.1695 23.5998 33.9788 23.5273 35.9328Z" fill="#004887"/>
<path d="M33.8906 47.6572C31.7167 47.0782 29.9051 45.0518 28.7456 42.3016H25.3398C27.2239 45.1965 30.3398 47.223 33.8906 47.6572Z" fill="#004887"/>
</svg>
