<svg width="113" height="30" viewBox="0 0 113 30" fill="none" xmlns="http://www.w3.org/2000/svg">
<g clip-path="url(#clip0_2521_53341)">
<path d="M16.3876 25.442C10.6476 25.442 6.02285 20.8164 6.02285 15.1336C6.02285 11.3341 8.15484 7.73274 11.5332 6.01468C9.56524 4.13142 8.45004 1.98384 9.82763 1.88472H17.2076C18.4868 1.88472 18.2244 2.87591 18.782 3.14023H21.6028L21.3404 3.63583H22.0292C20.9468 4.39574 20.4548 5.68428 20.75 5.7834C23.4724 6.70851 25.8012 9.71512 26.5228 12.8539H32.0988C30.9508 5.71732 24.3908 0.00146484 16.486 0.00146484C7.72844 0.00146484 0.414062 6.93979 0.414062 15.1336C0.414062 23.3275 7.49884 30.0015 16.2564 30.0015C24.5876 30.0015 31.1148 23.4927 32.0332 16.3891H26.5228C26.5556 19.9904 22.0292 25.442 16.3876 25.442Z" fill="#004887"/>
<path d="M11.696 5.75031H16.0912C16.2224 5.75031 16.3536 5.6512 16.3536 5.486C16.3536 5.35384 16.2552 5.22168 16.0912 5.22168H11.696C11.5648 5.22168 11.4336 5.3208 11.4336 5.486C11.4664 5.6512 11.5648 5.75031 11.696 5.75031Z" fill="#004887"/>
<path d="M10.778 4.7591H16.1572C16.2884 4.7591 16.4196 4.65998 16.4196 4.49479C16.4196 4.36263 16.3212 4.23047 16.1572 4.23047H10.778C10.6468 4.23047 10.5156 4.32959 10.5156 4.49479C10.5156 4.65998 10.6468 4.7591 10.778 4.7591Z" fill="#004887"/>
<path d="M10.2546 3.2063C10.1234 3.2063 9.99219 3.33846 9.99219 3.47062C9.99219 3.60277 10.0906 3.73493 10.2546 3.73493H16.1586C16.2898 3.73493 16.421 3.63581 16.421 3.47062C16.421 3.33846 16.3226 3.2063 16.1586 3.2063H10.2546Z" fill="#004887"/>
<path d="M8.1863 10.5742L13.8607 6.70857H16.2551C16.3863 6.70857 16.5175 6.60945 16.5175 6.44425C16.5175 6.27905 16.4191 6.17993 16.2551 6.17993H13.5327L7.82551 10.0786C7.59591 10.409 7.72711 10.6733 8.1863 10.5742Z" fill="#004887"/>
<path d="M19.799 4.56087C19.799 4.42871 19.7006 4.32959 19.5694 4.32959C19.4382 4.32959 19.3398 4.42871 19.3398 4.56087C19.3398 4.69303 19.4382 4.79214 19.5694 4.79214C19.7006 4.75911 19.799 4.65999 19.799 4.56087Z" fill="#004887"/>
<path d="M22.2588 17.215V18.9331C22.2588 18.9331 22.2588 19.4617 22.7508 19.5939C23.2428 19.726 23.5052 19.2965 23.5052 19.2965L25.7356 15.1005C25.8012 14.9683 25.7684 14.8362 25.6372 14.7701C25.506 14.704 25.3748 14.7701 25.2764 14.9022L23.1444 19.0652C23.1444 19.0652 23.0132 19.1974 22.9148 19.1643C22.7836 19.1313 22.7836 18.9661 22.7836 18.9661L22.5212 14.0102L23.4396 15.2987C23.4396 15.2987 23.866 15.7943 24.3252 15.6291C24.7516 15.4639 24.686 14.9353 24.686 14.9353L24.358 10.2436C24.3252 10.0784 24.2596 10.0124 24.0956 10.0124C23.9316 10.0124 23.866 10.1776 23.866 10.3097L24.2268 15.0014C24.2268 15.0014 24.2268 15.1335 24.1284 15.1665C23.9972 15.1996 23.866 15.1005 23.866 15.1005L22.0292 12.3912C22.0292 12.3912 21.4388 11.4661 21.1108 11.0696C20.9796 10.9044 20.8484 10.7062 20.6188 10.8384C20.3892 10.9705 20.4876 11.2348 20.6516 11.4331C21.4716 12.4573 21.9964 13.7458 21.9964 15.1665C21.9964 18.4044 19.4052 21.0476 16.1581 21.0476C12.9437 21.0476 10.3197 18.4375 10.3197 15.1665C10.3197 14.3736 10.6149 12.9529 11.0085 12.193L13.0093 8.65774C13.0749 8.49254 13.3373 8.52558 13.3701 8.65774C13.5013 9.15333 13.9277 9.48373 14.5181 9.48373H18.8148C19.8316 9.48373 20.1596 8.9551 20.1596 8.09606V5.51897C20.1924 4.99034 20.6516 4.4617 21.1764 3.93307C20.9468 3.90003 20.75 3.83395 20.5204 3.80091C20.6188 3.80091 20.7172 3.70179 20.7172 3.60267C20.7172 3.47051 20.6188 3.37139 20.4876 3.37139C20.3564 3.37139 20.258 3.47051 20.258 3.60267C20.258 3.66875 20.2908 3.73483 20.3564 3.80091C20.1924 3.76787 20.0284 3.73483 19.8644 3.70179C19.9628 3.66875 20.0284 3.60267 20.0284 3.50355C20.0284 3.37139 19.93 3.27228 19.7988 3.27228C19.6676 3.27228 19.5692 3.37139 19.5692 3.50355C19.5692 3.60267 19.602 3.66875 19.7004 3.70179C19.5364 3.70179 19.4052 3.70179 19.2412 3.73483C19.274 3.70179 19.3068 3.63571 19.3068 3.56963C19.3068 3.43747 19.2084 3.33836 19.0772 3.33836C18.946 3.33836 18.8476 3.43747 18.8476 3.56963C18.8476 3.66875 18.9132 3.76787 19.0116 3.76787C18.9788 3.76787 18.946 3.76787 18.946 3.80091C18.29 4.23043 18.0276 5.02338 17.8636 5.71721L17.8964 3.10708C17.8964 2.64452 17.5028 2.24805 17.0437 2.24805H17.0108H9.66367C9.53247 2.24805 9.40127 2.34717 9.40127 2.51236C9.40127 2.64452 9.49967 2.77668 9.66367 2.77668H17.0108C17.2076 2.77668 17.4044 2.90884 17.4044 3.10708V6.11369C17.4044 6.378 17.6012 6.57624 17.8636 6.57624C18.0932 6.57624 18.2572 6.41104 18.3228 6.11369C18.3228 6.11369 18.8476 4.36258 19.2084 4.19739C19.6676 3.99915 20.4548 4.39562 20.4548 4.39562C20.4548 4.39562 19.7004 4.92426 19.602 5.61809V8.16214C19.602 8.7899 19.3068 9.05421 18.782 9.05421H14.6165C13.9277 9.02117 13.8293 8.26126 13.8293 8.26126C13.7309 7.86479 13.1405 7.73263 12.8125 8.09606L10.6805 11.9287C10.4181 12.3582 10.2541 13.1842 10.2541 13.1842L10.1229 11.367C10.1229 11.367 10.0901 10.8384 9.59807 10.7062C9.13887 10.6071 8.81087 11.0366 8.81087 11.0366L6.64608 15.2326C6.58048 15.3648 6.61328 15.4969 6.74448 15.563C6.87568 15.6291 7.03968 15.5961 7.13808 15.4639L9.23727 11.3009C9.23727 11.3009 9.30287 11.1357 9.43407 11.1357C9.56527 11.1357 9.59807 11.334 9.59807 11.334L10.0901 16.356L9.10607 14.8692C9.10607 14.8692 8.87647 14.4727 8.45008 14.5388C7.95808 14.6379 7.99088 15.1665 7.99088 15.1665L8.05648 20.0234C8.08928 20.1886 8.15488 20.2547 8.31888 20.2547C8.48288 20.2547 8.54848 20.1225 8.54848 19.9573L8.45008 15.2326C8.45008 15.2326 8.41728 15.0344 8.51568 15.0014C8.61408 14.9683 8.71247 15.1335 8.71247 15.1335L11.5661 19.5608L9.79487 18.7679C9.79487 18.7679 9.30287 18.5036 9.00767 18.8009C8.64688 19.1313 8.94207 19.5608 8.94207 19.5608L11.5333 23.5586C11.6317 23.6908 11.7301 23.7238 11.8613 23.6247C11.9925 23.5256 11.9925 23.3934 11.9269 23.2282L9.33567 19.3295C9.33567 19.3295 9.27007 19.2304 9.33567 19.1313C9.43407 19.0322 9.56527 19.1313 9.56527 19.1313L14.4853 21.378L12.5173 21.5432C12.5173 21.5432 11.9925 21.5102 11.8613 22.0058C11.7301 22.4683 12.1565 22.6996 12.1565 22.6996L16.3549 24.8802C16.4861 24.9463 16.6173 24.9132 16.6829 24.7811C16.7485 24.6489 16.6829 24.5168 16.5517 24.4177L12.3861 22.3362C12.3861 22.3362 12.2549 22.2701 12.2877 22.171C12.3205 22.0388 12.4845 22.0388 12.4845 22.0388L17.4044 21.4771L15.8957 22.4022C15.8957 22.4022 15.4037 22.6335 15.5349 23.1291C15.6333 23.5917 16.1253 23.5917 16.1253 23.5917L20.8484 23.4925C21.0124 23.4925 21.1108 23.3934 21.078 23.2282C21.078 23.063 20.9468 22.9969 20.7828 22.9639L16.1581 23.1621C16.1581 23.1621 16.0269 23.1621 15.9941 23.063C15.9613 22.9309 16.1253 22.8648 16.1253 22.8648L20.586 19.8912L19.766 21.6754C19.766 21.6754 19.5036 22.1379 19.8644 22.4683C20.2252 22.7987 20.6188 22.5344 20.6188 22.5344L24.4892 19.7921C24.6204 19.693 24.6532 19.5608 24.5548 19.4617C24.4564 19.3295 24.2924 19.3295 24.1612 19.4287L20.3892 22.1379C20.3892 22.1379 20.2908 22.204 20.1924 22.1379C20.094 22.0388 20.1924 21.9066 20.1924 21.9066L22.2588 17.215Z" fill="#004887"/>
<path d="M16.7812 12.6558V13.3496H19.4052C19.3396 13.1183 19.274 12.887 19.2084 12.6558H16.7812Z" fill="#004887"/>
<path d="M16.3867 9.91333V12.4243H19.1419C18.5515 10.9706 17.5347 9.97941 16.3867 9.91333Z" fill="#004887"/>
<path d="M19.4047 16.8847C19.5031 16.3891 19.6015 15.8604 19.6015 15.3318H17.3711C17.8631 15.9926 18.5847 16.5543 19.4047 16.8847Z" fill="#004887"/>
<path d="M17.043 9.88037C18.027 10.2108 18.847 11.1359 19.339 12.4575H20.9134C20.0606 11.0698 18.683 10.0786 17.043 9.88037Z" fill="#004887"/>
<path d="M15.1077 15.3318H12.9102C12.9102 15.8604 12.9758 16.3891 13.107 16.8847C13.8942 16.5212 14.6158 15.9926 15.1077 15.3318Z" fill="#004887"/>
<path d="M21.0134 12.6558H19.4062C19.6358 13.3826 19.7998 14.2086 19.7998 15.1007H21.6366C21.6038 14.2086 21.407 13.3826 21.0134 12.6558Z" fill="#004887"/>
<path d="M15.6981 14.1423H13.0086C12.943 14.4727 12.9102 14.7701 12.9102 15.1005H15.2717C15.5013 14.737 15.6325 14.5718 15.6981 14.1423Z" fill="#004887"/>
<path d="M19.5021 14.1423H16.8125C16.8781 14.5718 16.9765 14.737 17.2389 15.1005H19.6333C19.6005 14.671 19.5677 14.4727 19.5021 14.1423Z" fill="#004887"/>
<path d="M15.7334 12.6558H13.3062C13.2406 12.887 13.175 13.1183 13.1094 13.3496H15.7334V12.6558Z" fill="#004887"/>
<path d="M16.3867 17.7768H19.1747C18.0267 17.4134 17.0427 16.4883 16.3867 15.4971V17.7768Z" fill="#004887"/>
<path d="M16.1263 9.91333C14.9783 9.97941 13.9287 10.9706 13.3711 12.4243H16.1263V9.91333Z" fill="#004887"/>
<path d="M16.3867 20.3539C17.5019 20.2878 18.5187 19.3957 19.0763 18.0081H16.3867V20.3539Z" fill="#004887"/>
<path d="M15.468 9.88037C13.8281 10.1116 12.4177 11.0698 11.5977 12.4575H13.2049C13.6969 11.1359 14.5168 10.1777 15.468 9.88037Z" fill="#004887"/>
<path d="M20.7845 18.0081H19.2429C18.7181 19.2636 17.8981 20.1556 16.9141 20.453C18.5541 20.2548 19.9645 19.3296 20.7845 18.0081Z" fill="#004887"/>
<path d="M21.603 15.3318H19.7662C19.7662 15.8935 19.6678 16.4551 19.5694 16.9507C19.6022 16.9838 19.7006 16.9838 19.7334 17.0168L19.3398 17.8098H20.9142C21.3406 17.0498 21.5702 16.2239 21.603 15.3318Z" fill="#004887"/>
<path d="M16.1239 15.4971C15.5007 16.5213 14.4839 17.3803 13.3359 17.7768H16.1239V15.4971Z" fill="#004887"/>
<path d="M13.1733 17.7768L12.7142 16.9839C12.7798 16.9508 12.8782 16.9508 12.9437 16.9178C12.8126 16.4222 12.7469 15.8605 12.7469 15.2988H10.9102C10.943 16.1909 11.1726 17.0169 11.599 17.7768H13.1733Z" fill="#004887"/>
<path d="M16.1271 18.0081H13.4375C13.9951 19.3957 15.0119 20.2878 16.1271 20.3539V18.0081Z" fill="#004887"/>
<path d="M10.8789 15.1007H12.7157C12.7157 14.2086 12.8469 13.3826 13.1093 12.6558H11.5021C11.1085 13.3826 10.9117 14.2086 10.8789 15.1007Z" fill="#004887"/>
<path d="M15.5657 20.453C14.5817 20.1887 13.7617 19.2636 13.2369 18.0081H11.6953C12.5481 19.3296 13.9585 20.2548 15.5657 20.453Z" fill="#004887"/>
<path d="M40.7903 25.8055H41.1511H41.3151L41.2167 25.9707C41.0527 26.2019 40.8559 26.4332 40.5607 26.5654C40.2655 26.6975 39.9703 26.7966 39.6423 26.7966C39.1503 26.7966 38.7239 26.6645 38.3959 26.3671C38.0351 26.0698 37.8711 25.7063 37.8711 25.2768C37.8711 24.8473 38.0351 24.4839 38.3959 24.2196C38.7239 23.9222 39.1503 23.79 39.6423 23.79C40.0359 23.79 40.4295 23.8892 40.7575 24.1204C40.9871 24.2526 41.1183 24.4178 41.2167 24.583L41.2823 24.7482H41.1183H40.7575H40.7247L40.6919 24.7152C40.5607 24.583 40.4295 24.4839 40.2327 24.3848C40.0359 24.3187 39.8391 24.2526 39.6423 24.2526C39.2815 24.2526 38.9863 24.3517 38.7239 24.583C38.4943 24.7812 38.3631 25.0125 38.3631 25.3099C38.3631 25.5742 38.4943 25.8385 38.7239 26.0367C38.9863 26.235 39.2815 26.3671 39.6423 26.3671C39.8719 26.3671 40.0687 26.3341 40.2327 26.235C40.3967 26.1689 40.5607 26.0367 40.6919 25.9046L40.7247 25.8715H40.7903V25.8055Z" fill="#004887"/>
<path d="M40.7895 25.9046H41.1503C41.0191 26.1359 40.7895 26.3341 40.5271 26.4663C40.2647 26.5984 39.9695 26.6645 39.6415 26.6645C39.1823 26.6645 38.7887 26.5323 38.4607 26.268C38.1327 26.0037 37.9688 25.6733 37.9688 25.2768C37.9688 24.8803 38.1327 24.55 38.4607 24.2856C38.7887 24.0213 39.1823 23.8892 39.6415 23.8892C40.0351 23.8892 40.3959 23.9883 40.7239 24.1865C40.9207 24.3187 41.0519 24.4508 41.1503 24.616H40.7895C40.6583 24.4508 40.4943 24.3517 40.2975 24.2526C40.1007 24.1535 39.9039 24.1204 39.6743 24.1204C39.3135 24.1204 38.9855 24.2196 38.7231 24.4508C38.4607 24.6821 38.3295 24.9464 38.3295 25.2438C38.3295 25.5411 38.4607 25.8385 38.7231 26.0367C38.9855 26.268 39.3135 26.3671 39.6743 26.3671C39.9039 26.3671 40.1007 26.3341 40.2975 26.235C40.4943 26.2019 40.6583 26.0698 40.7895 25.9046Z" fill="#004887"/>
<path d="M43.9045 23.9224V26.6316V26.7307H43.8061H43.4781H43.3797V26.6316V25.3431L43.4781 25.4422H41.8053L41.9037 25.3431V26.6316V26.7307H41.8053H41.4773H41.3789V26.6316V23.9224V23.8232H41.4773H41.8053H41.9037V23.9224V25.1118L41.8053 25.0127H43.4781L43.3797 25.1118V23.9224V23.8232H43.4781H43.8061H43.9045V23.9224Z" fill="#004887"/>
<path d="M43.8093 23.9224V26.6316H43.4813V25.3431H41.8085V26.6316H41.4805V23.9224H41.8085V25.1118H43.4813V23.9224H43.8093Z" fill="#004887"/>
<path d="M45.9078 23.8561L47.2854 26.5654L47.351 26.7306H47.187H46.8262H46.7606L46.7278 26.6645L46.2686 25.7394L46.3342 25.8055H44.8254L44.891 25.7394L44.4318 26.6645L44.399 26.7306H44.3334H43.9726H43.8086L43.8742 26.5654L45.2518 23.8561L45.2846 23.79H45.3502H45.711H45.7766L45.9078 23.8561ZM45.0222 25.3759H46.2686L46.203 25.5411L45.5798 24.3187H45.7438L45.1206 25.5411L45.0222 25.3759Z" fill="#004887"/>
<path d="M45.6432 24.2197L46.2664 25.4422H45.02L45.6432 24.2197ZM45.4792 23.9224L44.1016 26.6316H44.4624L44.9216 25.7065H46.4304L46.8896 26.6316H47.2504L45.8728 23.9224H45.4792Z" fill="#004887"/>
<path d="M50.138 23.9224V26.6316V26.7307H50.0724H49.7444H49.6788V26.6977L47.7436 24.3188L47.9076 24.2528V26.6316V26.7307H47.8092H47.4812H47.3828V26.6316V23.9224V23.8232H47.4812H47.9404H47.9732L48.006 23.8563L49.81 26.103L49.646 26.1691V23.9224V23.8232H49.7444H50.0724H50.138V23.9224Z" fill="#004887"/>
<path d="M50.074 23.9224V26.6316H49.746L47.8436 24.2528V26.6316H47.5156V23.9224H47.942L49.746 26.1691V23.9224H50.074Z" fill="#004887"/>
<path d="M51.6456 25.2769H53.8432H53.9416V25.376C53.9416 25.7725 53.7448 26.1029 53.384 26.3672C53.0232 26.6315 52.5968 26.7637 52.1376 26.7637C51.6456 26.7637 51.2192 26.6315 50.8584 26.3342C50.4976 26.0368 50.3008 25.6734 50.3008 25.2439C50.3008 24.8143 50.4976 24.4509 50.8256 24.1866C51.1864 23.8892 51.6128 23.7571 52.1048 23.7571C52.5968 23.7571 53.056 23.9223 53.4168 24.2196C53.5152 24.2857 53.5808 24.3518 53.6136 24.3848C53.6464 24.4179 53.6792 24.484 53.712 24.5831L53.7776 24.7152H53.6464H53.2856H53.22L53.1872 24.6822C53.0888 24.55 52.9576 24.4179 52.7608 24.3518C52.564 24.2527 52.3344 24.2196 52.1048 24.2196C51.744 24.2196 51.416 24.3188 51.1864 24.55C50.924 24.7483 50.8256 24.9795 50.8256 25.2769C50.8256 25.5743 50.9568 25.8055 51.1864 26.0038C51.4488 26.202 51.744 26.3342 52.1376 26.3342C52.4328 26.3342 52.6952 26.2681 52.9248 26.1359C53.1544 26.0038 53.2856 25.8386 53.3512 25.6403L53.4496 25.7725H51.6456H51.5472V25.6734V25.4091V25.3099H51.6456V25.2769Z" fill="#004887"/>
<path d="M51.6464 25.3759H53.844C53.844 25.7394 53.68 26.0367 53.3192 26.3011C52.9912 26.5654 52.5648 26.6645 52.1056 26.6645C51.6464 26.6645 51.22 26.5323 50.892 26.268C50.564 26.0037 50.3672 25.6733 50.3672 25.2768C50.3672 24.8803 50.5312 24.55 50.8592 24.2856C51.1872 24.0213 51.6136 23.8892 52.0728 23.8892C52.5648 23.8892 52.9584 24.0213 53.3192 24.3187C53.4176 24.3848 53.4504 24.4508 53.4832 24.4839C53.516 24.5169 53.5488 24.583 53.5816 24.6491H53.2208C53.1224 24.4839 52.9584 24.3848 52.7616 24.2856C52.5648 24.1865 52.3352 24.1535 52.0728 24.1535C51.6792 24.1535 51.3512 24.2526 51.0888 24.4839C50.8264 24.7152 50.6952 24.9795 50.6952 25.3099C50.6952 25.6072 50.8264 25.9046 51.1216 26.1028C51.384 26.3341 51.712 26.4332 52.1056 26.4332C52.4008 26.4332 52.696 26.3671 52.9584 26.2019C53.2208 26.0367 53.352 25.8715 53.4176 25.6403H51.6136V25.3759H51.6464Z" fill="#004887"/>
<path d="M57.6493 23.8232H57.9773H58.1085L58.0757 23.9554L57.1573 26.6647L57.1245 26.7307H57.0589H56.6325H56.5669L56.5341 26.6647L55.8453 24.451H56.0093L55.3205 26.6647L55.2877 26.7307H55.2221H54.7957H54.7301L54.6973 26.6647L53.7789 23.9554L53.7461 23.8232H53.8773H54.2381H54.2709L54.3037 23.8893L55.0909 26.2351H54.9269L55.6813 23.8893L55.7141 23.8232H55.7797H56.0749H56.1405L56.1733 23.8893L56.9605 26.2351H56.7637L57.5509 23.8893L57.5837 23.8232H57.6493Z" fill="#004887"/>
<path d="M57.6509 23.9224H57.9789L57.0605 26.6316H56.6341L55.9453 24.418L55.2237 26.6316H54.7973L53.8789 23.9224H54.2397L55.0269 26.2682L55.7813 23.9224H56.0765L56.8309 26.2682L57.6509 23.9224Z" fill="#004887"/>
<path d="M61.5541 25.2768C61.5541 25.7063 61.3573 26.0698 61.0293 26.3671C60.6685 26.6645 60.2421 26.7966 59.7829 26.7966C59.2909 26.7966 58.8645 26.6645 58.5365 26.3671C58.1757 26.0698 58.0117 25.7063 58.0117 25.3099C58.0117 24.8803 58.1757 24.5169 58.5365 24.2196C58.8973 23.9222 59.2909 23.79 59.7829 23.79C60.2749 23.79 60.7013 23.9222 61.0621 24.2196C61.3573 24.4839 61.5541 24.8473 61.5541 25.2768ZM61.0293 25.2768C61.0293 25.0125 60.8981 24.7812 60.6685 24.55C60.4061 24.3517 60.1109 24.2196 59.7501 24.2196C59.3893 24.2196 59.0941 24.3187 58.8317 24.55C58.5693 24.7482 58.4709 24.9795 58.4709 25.2768C58.4709 25.5742 58.6021 25.8055 58.8317 26.0037C59.0941 26.2019 59.3893 26.3011 59.7501 26.3011C60.1109 26.3011 60.4061 26.2019 60.6685 25.9707C60.8981 25.8055 61.0293 25.5411 61.0293 25.2768Z" fill="#004887"/>
<path d="M60.7326 26.0698C60.4702 26.3011 60.1422 26.4002 59.7486 26.4002C59.355 26.4002 59.027 26.3011 58.7646 26.0698C58.5022 25.8385 58.371 25.5742 58.371 25.2768C58.371 24.9795 58.5022 24.6821 58.7646 24.4839C59.027 24.2526 59.355 24.1535 59.7486 24.1535C60.1094 24.1535 60.4374 24.2526 60.7326 24.4839C60.995 24.7151 61.1262 24.9795 61.1262 25.2768C61.1262 25.5742 60.995 25.8715 60.7326 26.0698ZM60.9622 24.2856C60.6342 24.0213 60.2078 23.8892 59.7486 23.8892C59.2894 23.8892 58.863 24.0213 58.535 24.3187C58.207 24.583 58.043 24.9134 58.043 25.3099C58.043 25.7063 58.207 26.0037 58.535 26.3011C58.863 26.5654 59.2566 26.6975 59.7486 26.6975C60.2406 26.6975 60.6342 26.5654 60.9622 26.3011C61.2902 26.0367 61.4542 25.7063 61.4542 25.3099C61.4542 24.8803 61.2902 24.55 60.9622 24.2856Z" fill="#004887"/>
<path d="M64.4388 23.9224V26.6316V26.7307H64.3732H64.0452H63.9796V26.6977L62.0444 24.3188L62.2084 24.2528V26.6316V26.7307H62.11H61.782H61.6836V26.6316V23.9224V23.8232H61.782H62.2412H62.274L62.3068 23.8563L64.1108 26.103L63.9468 26.1691V23.9224V23.8232H64.0452H64.3732H64.4388V23.9224Z" fill="#004887"/>
<path d="M64.3748 23.9224V26.6316H64.0468L62.1444 24.2528V26.6316H61.8164V23.9224H62.2428L64.0468 26.1691V23.9224H64.3748Z" fill="#004887"/>
<path d="M69.9153 24.0544V26.7967V26.8959H69.8169H69.5217H69.4561L69.4233 26.8628L67.521 24.484L67.685 24.4179V26.7967V26.8959H67.5866H67.2586H67.1602V26.7967V24.0544V23.9553H67.2586H67.7178H67.7506L67.7834 23.9884L69.5873 26.2351L69.4233 26.3011V24.0544V23.9553H69.4889H69.8169H69.9153V24.0544Z" fill="#004887"/>
<path d="M69.8201 24.0544V26.7637H69.4921L67.5897 24.3848V26.7637H67.2617V24.0544H67.6881L69.4921 26.3011V24.0544H69.8201Z" fill="#004887"/>
<path d="M72.0156 24.0214L73.3932 26.7307L73.4588 26.8959H73.2948H72.934H72.9012L72.8684 26.8298L72.4092 25.9047L72.4748 25.9707H70.966L71.0316 25.9047L70.5724 26.8298L70.5396 26.8959H70.474H70.1132H69.9492L70.0148 26.7307L71.3924 24.0214L71.4252 23.9553H71.4908H71.8516H71.9172L72.0156 24.0214ZM71.13 25.5082H72.3764L72.3108 25.6734L71.6876 24.4509H71.8516L71.2284 25.6734L71.13 25.5082Z" fill="#004887"/>
<path d="M71.7541 24.3848L72.3773 25.6073H71.1309L71.7541 24.3848ZM71.5573 24.0544L70.1797 26.7637H70.5405L70.9997 25.8386H72.5085L72.9677 26.7637H73.3285L71.9509 24.0544H71.5573Z" fill="#004887"/>
<path d="M75.032 24.0544V24.3188V24.4179H74.9336H74.212L74.3104 24.3188V26.7967V26.8959H74.212H73.884H73.7856V26.7967V24.3188L73.884 24.4179H73.1297H73.0312V24.3188V24.0544V23.9553H73.1297H74.9336H75.032V24.0544Z" fill="#004887"/>
<path d="M74.9368 24.0544V24.3188H74.2152V26.7967H73.8872V24.3188H73.1328V24.0544H74.9368Z" fill="#004887"/>
<path d="M75.8529 24.0544V26.7967V26.8959H75.7545H75.4265H75.3281V26.7967V24.0544V23.9553H75.4265H75.7545H75.8529V24.0544Z" fill="#004887"/>
<path d="M75.7538 24.0544V26.7637H75.4258V24.0544H75.7538Z" fill="#004887"/>
<path d="M79.6596 25.4091C79.6596 25.8387 79.4628 26.2021 79.1348 26.4995C78.774 26.7968 78.3476 26.929 77.8884 26.929C77.3964 26.929 76.97 26.7968 76.642 26.4995C76.2812 26.2021 76.1172 25.8387 76.1172 25.4422C76.1172 25.0127 76.2812 24.6492 76.642 24.3519C77.0028 24.0545 77.3964 23.9224 77.8884 23.9224C78.3804 23.9224 78.8068 24.0545 79.1676 24.3519C79.4956 24.6492 79.6596 25.0127 79.6596 25.4091ZM79.1676 25.4091C79.1676 25.1448 79.0364 24.9136 78.8068 24.6823C78.5444 24.484 78.2492 24.3519 77.8884 24.3519C77.5276 24.3519 77.2324 24.451 76.97 24.6823C76.7076 24.8805 76.6092 25.1118 76.6092 25.4091C76.6092 25.7065 76.7404 25.9378 76.97 26.136C77.2324 26.3343 77.5276 26.4334 77.8884 26.4334C78.2492 26.4334 78.5444 26.3343 78.8068 26.103C79.0364 25.9378 79.1676 25.7065 79.1676 25.4091Z" fill="#004887"/>
<path d="M78.838 26.2351C78.5756 26.4664 78.2476 26.5655 77.854 26.5655C77.4604 26.5655 77.1324 26.4664 76.87 26.2351C76.6076 26.0039 76.5092 25.7395 76.5092 25.4422C76.5092 25.1448 76.6404 24.8475 76.9028 24.6492C77.1652 24.418 77.4932 24.3188 77.8868 24.3188C78.2476 24.3188 78.5756 24.418 78.8708 24.6492C79.1332 24.8805 79.2644 25.1448 79.2644 25.4422C79.2644 25.7395 79.1004 26.0039 78.838 26.2351ZM79.0676 24.418C78.7396 24.1536 78.3132 24.0215 77.854 24.0215C77.3948 24.0215 76.9684 24.1536 76.6404 24.451C76.3124 24.7153 76.1484 25.0457 76.1484 25.4422C76.1484 25.8387 76.3124 26.136 76.6404 26.4334C76.9684 26.6977 77.362 26.8299 77.854 26.8299C78.3132 26.8299 78.7396 26.6977 79.0676 26.4003C79.3956 26.136 79.5596 25.8056 79.5596 25.4092C79.5924 25.0457 79.3956 24.7153 79.0676 24.418Z" fill="#004887"/>
<path d="M82.6419 24.0544V26.7967V26.8959H82.5763H82.2483H82.1827V26.8628L80.2475 24.484L80.4115 24.4179V26.7967V26.8959H80.3131H79.9851H79.8867V26.7967V24.0544V23.9553H79.9851H80.4443H80.4771L80.5099 23.9884L82.3139 26.2351L82.1499 26.3011V24.0544V23.9553H82.2483H82.5763H82.6419V24.0544Z" fill="#004887"/>
<path d="M82.5779 24.0544V26.7637H82.2499L80.3475 24.3848V26.7637H80.0195V24.0544H80.4459L82.2499 26.3011V24.0544H82.5779Z" fill="#004887"/>
<path d="M84.743 24.0214L86.1206 26.7307L86.1862 26.8959H86.0222H85.6942H85.6286L85.5958 26.8298L85.1366 25.9047L85.2022 25.9707H83.7262L83.7918 25.9047L83.3326 26.8298L83.2998 26.8959H83.2342H82.8734H82.7422L82.8078 26.7307L84.1854 24.0214L84.2182 23.9553H84.2838H84.6446H84.7102L84.743 24.0214ZM83.8574 25.5082H85.1038L85.0382 25.6734L84.415 24.4509H84.579L83.9558 25.6734L83.8574 25.5082Z" fill="#004887"/>
<path d="M84.4791 24.3848L85.1023 25.6073H83.8559L84.4791 24.3848ZM84.3151 24.0544L82.9375 26.7637H83.2983L83.7575 25.8386H85.2663L85.7255 26.7637H86.0863L84.7087 24.0544H84.3151Z" fill="#004887"/>
<path d="M88.1532 26.5324V26.7967V26.8959H88.0548H86.4148H86.3164V26.7967V24.0544V23.9553H86.4148H86.7428H86.8084V24.0544V26.5324L86.7428 26.4333H88.0548H88.1532V26.5324Z" fill="#004887"/>
<path d="M88.0556 26.5323V26.7967H86.3828V24.0874H86.7108V26.5654H88.0556V26.5323Z" fill="#004887"/>
<path d="M92.3186 25.8055V25.8386C92.3186 26.169 92.2202 26.4333 91.9906 26.6315C91.761 26.8298 91.4986 26.9289 91.1378 26.9289C90.8098 26.9289 90.5146 26.8298 90.285 26.6315C90.0554 26.4333 89.957 26.169 89.957 25.8386V25.7725V24.0544V23.9553H90.0554H90.3834H90.4818V24.0544V25.7395V25.7725C90.4818 25.9707 90.5474 26.1359 90.6458 26.2681C90.777 26.4003 90.941 26.4663 91.1378 26.4663C91.3346 26.4663 91.4986 26.4003 91.6298 26.3011C91.761 26.169 91.8266 26.0368 91.8266 25.8386V25.8055V24.0875V23.9884H91.925H92.253H92.3514V24.0875V25.8055H92.3186Z" fill="#004887"/>
<path d="M92.2195 25.8055V25.8386C92.2195 26.1359 92.1211 26.3672 91.9243 26.5324C91.7275 26.7307 91.4651 26.7967 91.1371 26.7967C90.8091 26.7967 90.5467 26.6976 90.3499 26.5324C90.1531 26.3342 90.0547 26.1029 90.0547 25.8055V25.7725V24.0544H90.3827V25.7395V25.7725C90.3827 26.0038 90.4483 26.202 90.5795 26.3342C90.7107 26.4663 90.9075 26.5324 91.1371 26.5324C91.3667 26.5324 91.5635 26.4663 91.6947 26.3342C91.8259 26.202 91.8915 26.0038 91.8915 25.8055V25.7725V24.0544H92.2195V25.8055Z" fill="#004887"/>
<path d="M95.3685 24.0544V26.7967V26.8959H95.2701H94.9421H94.9093L94.8765 26.8628L92.9741 24.484L93.1381 24.4179V26.7967V26.8959H93.0397H92.7117H92.6133V26.7967V24.0544V23.9553H92.7117H93.1381H93.2037L93.2365 23.9884L95.0077 26.2351L94.8437 26.3011V24.0544V23.9553H94.9421H95.2701H95.3685V24.0544Z" fill="#004887"/>
<path d="M95.2693 24.0544V26.7637H94.9413L93.0389 24.3848V26.7637H92.7109V24.0544H93.1373L94.9413 26.3011V24.0544H95.2693Z" fill="#004887"/>
<path d="M96.2553 24.0544V26.7967V26.8959H96.1569H95.8289H95.7305V26.7967V24.0544V23.9553H95.8289H96.1569H96.2553V24.0544Z" fill="#004887"/>
<path d="M96.1561 24.0544V26.7637H95.8281V24.0544H96.1561Z" fill="#004887"/>
<path d="M99.0091 23.9553H99.3699H99.5339L99.4683 24.1205L98.1235 26.8298L98.0907 26.8959H98.0251H97.7299H97.6643L97.6315 26.8298L96.3195 24.1205L96.2539 23.9553H96.3851H96.7459H96.8115L96.8443 24.0214L97.9595 26.4003H97.7955L98.9435 24.0214L98.9763 23.9553H99.0091Z" fill="#004887"/>
<path d="M99.0107 24.0544H99.3715L98.0267 26.7637H97.7315L96.3867 24.0544H96.7475L97.8627 26.4333L99.0107 24.0544Z" fill="#004887"/>
<path d="M101.405 26.5324V26.7967V26.8959H101.307H99.5359H99.4375V26.7967V24.0544V23.9553H99.5359H101.307H101.405V24.0544V24.3188V24.4179H101.307H99.8639L99.9623 24.3188V25.2769L99.8639 25.1778H101.241H101.34V25.2769V25.5412V25.6403H101.241H99.8639L99.9623 25.5412V26.5324L99.8639 26.4333H101.307H101.405V26.5324Z" fill="#004887"/>
<path d="M101.306 26.5323V26.7967H99.5352V24.0874H101.306V24.3517H99.8632V25.3099H101.241V25.5411H99.8632V26.5323H101.306Z" fill="#004887"/>
<path d="M104.16 24.9464C104.16 25.2107 104.062 25.442 103.865 25.6072C103.668 25.7724 103.406 25.8715 103.11 25.8715L103.176 25.7063L104.094 26.7306L104.258 26.8958H104.029H103.602H103.57L103.537 26.8627L102.454 25.6403L102.29 25.4751H102.52H102.618H102.717C102.914 25.4751 103.045 25.4751 103.11 25.442C103.176 25.442 103.274 25.409 103.34 25.3759C103.438 25.3429 103.504 25.2768 103.57 25.1777C103.635 25.1116 103.635 25.0125 103.635 24.9464C103.635 24.8473 103.602 24.7482 103.537 24.6491C103.471 24.55 103.34 24.4839 103.242 24.4508C103.176 24.4178 103.078 24.4178 102.979 24.4178C102.881 24.4178 102.75 24.4178 102.52 24.4178H102.192L102.29 24.3187V26.7967V26.8958H102.192H101.864H101.766V26.7967V24.0874V23.9883H101.864H102.914C103.012 23.9883 103.143 23.9883 103.274 24.0213C103.406 24.0544 103.537 24.0874 103.602 24.1204C103.766 24.1865 103.898 24.3187 103.996 24.4508C104.094 24.583 104.16 24.7482 104.16 24.9464Z" fill="#004887"/>
<path d="M104.063 24.9464C104.063 25.1777 103.965 25.3759 103.801 25.5411C103.604 25.7063 103.407 25.7724 103.112 25.7724L104.03 26.7967H103.604L102.522 25.5742H102.62H102.718C102.915 25.5742 103.046 25.5742 103.145 25.5411C103.243 25.5411 103.309 25.5081 103.407 25.4751C103.506 25.409 103.604 25.3429 103.67 25.2438C103.735 25.1447 103.768 25.0456 103.768 24.9464C103.768 24.8143 103.735 24.7152 103.637 24.583C103.538 24.4839 103.44 24.4178 103.276 24.3517C103.178 24.3187 103.112 24.3187 103.014 24.3187C102.915 24.3187 102.751 24.3187 102.554 24.3187H102.226V26.7967H101.898V24.0874H102.948C103.046 24.0874 103.145 24.0874 103.309 24.1204C103.44 24.1535 103.538 24.1865 103.604 24.2196C103.768 24.2856 103.899 24.3848 103.965 24.5169C104.03 24.6491 104.063 24.7812 104.063 24.9464Z" fill="#004887"/>
<path d="M106.489 26.0368C106.489 26.3011 106.391 26.4994 106.161 26.6646C105.964 26.8298 105.702 26.9289 105.407 26.9289C105.111 26.9289 104.882 26.8298 104.652 26.6976C104.423 26.5324 104.324 26.3342 104.324 26.0699V26.0368V25.9377H104.423H104.783H104.882V26.0368C104.882 26.169 104.947 26.2681 105.046 26.3342C105.144 26.4333 105.275 26.4663 105.439 26.4663C105.603 26.4663 105.735 26.4333 105.833 26.3342C105.931 26.2351 105.997 26.169 105.997 26.0368C105.997 25.9707 105.964 25.8716 105.899 25.8055C105.833 25.7395 105.735 25.6734 105.636 25.6403L105.079 25.5082C104.882 25.4751 104.751 25.376 104.619 25.2439C104.488 25.1117 104.423 24.9465 104.423 24.7813C104.423 24.55 104.521 24.3518 104.718 24.1866C104.915 24.0214 105.144 23.9553 105.407 23.9553C105.669 23.9553 105.931 24.0214 106.095 24.1866C106.292 24.3518 106.391 24.55 106.391 24.7813V24.8804H106.292H105.964H105.866V24.7813C105.866 24.6822 105.833 24.5831 105.735 24.517C105.636 24.4509 105.505 24.4179 105.374 24.4179C105.243 24.4179 105.144 24.4509 105.046 24.517C104.947 24.5831 104.915 24.6822 104.915 24.7813C104.915 24.8474 104.947 24.9135 104.98 24.9465C105.046 25.0126 105.111 25.0456 105.21 25.0787L105.767 25.2108C105.964 25.2769 106.128 25.376 106.259 25.5082C106.423 25.6734 106.489 25.8386 106.489 26.0368Z" fill="#004887"/>
<path d="M106.423 26.0367C106.423 26.268 106.324 26.4332 106.127 26.5984C105.931 26.7636 105.701 26.8297 105.406 26.8297C105.143 26.8297 104.914 26.7636 104.717 26.5984C104.52 26.4332 104.422 26.268 104.422 26.0698V26.0367H104.783C104.783 26.2019 104.848 26.3341 104.979 26.4332C105.111 26.5323 105.275 26.5984 105.439 26.5984C105.603 26.5984 105.767 26.5323 105.898 26.4332C106.029 26.3341 106.095 26.2019 106.095 26.0698C106.095 25.9707 106.062 25.8715 105.963 25.7724C105.898 25.6733 105.799 25.6072 105.668 25.5742L105.111 25.442C104.947 25.409 104.815 25.3099 104.684 25.2108C104.586 25.0786 104.52 24.9464 104.52 24.8143C104.52 24.616 104.619 24.4178 104.783 24.2856C104.947 24.1535 105.176 24.0874 105.439 24.0874C105.701 24.0874 105.898 24.1535 106.095 24.2856C106.259 24.4178 106.357 24.616 106.357 24.8143H106.029C106.029 24.6821 105.963 24.55 105.865 24.4839C105.734 24.3848 105.603 24.3517 105.439 24.3517C105.275 24.3517 105.143 24.3848 105.045 24.4839C104.947 24.583 104.881 24.6821 104.881 24.8143C104.881 24.9134 104.914 24.9795 104.979 25.0786C105.045 25.1447 105.143 25.2108 105.242 25.2438L105.799 25.3759C105.996 25.409 106.127 25.5081 106.259 25.6403C106.357 25.7063 106.423 25.8715 106.423 26.0367Z" fill="#004887"/>
<path d="M107.31 24.0544V26.7967V26.8959H107.212H106.884H106.785V26.7967V24.0544V23.9553H106.884H107.212H107.31V24.0544Z" fill="#004887"/>
<path d="M107.211 24.0544V26.7637H106.883V24.0544H107.211Z" fill="#004887"/>
<path d="M109.605 24.0544V24.3188V24.4179H109.539H108.785L108.883 24.3188V26.7967V26.8959H108.785H108.457H108.358V26.7967V24.3188L108.457 24.4179H107.735H107.637V24.3188V24.0544V23.9553H107.735H109.539H109.605V24.0544Z" fill="#004887"/>
<path d="M109.538 24.0544V24.3188H108.817V26.7967H108.489V24.3188H107.734V24.0544H109.538Z" fill="#004887"/>
<path d="M111.933 23.9553H112.261H112.458L112.36 24.1205L111.245 25.9377V25.8716V26.7967V26.8959H111.146H110.818H110.72V26.7967V25.8716L110.753 25.9377L109.637 24.1205L109.539 23.9553H109.703H110.064H110.097L110.129 24.0214L111.081 25.5412H110.917L111.835 24.0214L111.868 23.9553H111.933Z" fill="#004887"/>
<path d="M111.932 24.0544H112.293L111.178 25.8716V26.7637H110.85V25.8716L109.734 24.0544H110.095L111.014 25.5743L111.932 24.0544Z" fill="#004887"/>
<path d="M58.0756 20.0895V16.9177H55.6484V21.7415H67.4892V20.0895H58.0756Z" fill="#004887"/>
<path d="M97.4684 15.4971H86.3164V17.2151H95.0412V21.7416H97.4684V15.4971Z" fill="#004887"/>
<path d="M90.4484 6.9728V5.91553H87.9884V6.9728H84.3477V8.65782H93.9252V6.9728H90.4484Z" fill="#004887"/>
<path d="M64.3757 12.2922H53.9453V13.9773H57.7501V16.257H60.2757L60.2429 13.9773H64.3757V12.2922Z" fill="#004887"/>
<path d="M45.1543 11.0697C44.3015 10.3759 44.0719 9.71509 44.0063 8.62478H47.5487V6.9728H44.0063V5.91553H41.5791V6.9728H38.0367V8.62478H41.5791C41.5135 9.74813 41.2511 10.475 40.5295 11.1358C39.8079 11.7966 39.1519 12.0279 38.0039 12.0279V13.8781C39.1847 13.845 39.8735 13.6798 40.7919 13.2834C41.6447 12.9199 42.3663 12.2591 42.7599 11.6644C43.1863 12.2261 43.8751 12.8869 44.7607 13.2503C45.7447 13.6468 46.4991 13.845 47.6799 13.8781V12.0279C46.3351 11.9618 45.8759 11.6314 45.1543 11.0697Z" fill="#004887"/>
<path d="M72.2467 15.7282V8.62472H75.4283V6.9397H69.7539V17.3802C69.7539 17.3802 76.2483 17.5124 77.1667 16.6534V15.1005C76.1171 15.6622 74.2147 15.7282 72.2467 15.7282Z" fill="#004887"/>
<path d="M111.443 6.9397H100.324V8.65776H108.983V20.0234H111.443V6.9397Z" fill="#004887"/>
<path d="M51.252 18.4045C51.252 20.552 48.792 22.2701 45.7745 22.2701C42.7569 22.2701 40.2969 20.519 40.2969 18.4045C40.2969 16.2899 42.7569 14.5388 45.7745 14.5388C48.792 14.5388 51.252 16.2569 51.252 18.4045ZM45.7417 16.356C44.1345 16.356 42.6913 17.1489 42.6913 18.3714C42.6913 19.5939 44.1345 20.4529 45.7417 20.4529C47.3489 20.4529 48.792 19.5939 48.792 18.3714C48.792 17.1489 47.3489 16.356 45.7417 16.356Z" fill="#004887"/>
<path d="M63.7839 9.45077C63.7839 11.4001 61.6847 12.986 59.1263 12.986C56.5351 12.986 54.4688 11.4001 54.4688 9.45077C54.4688 7.50143 56.5679 5.91553 59.1263 5.91553C61.7175 5.91553 63.7839 7.50143 63.7839 9.45077ZM59.1263 7.69967C57.8471 7.69967 56.7975 8.49262 56.7975 9.45077C56.7975 10.4089 57.8471 11.2019 59.1263 11.2019C60.4055 11.2019 61.4551 10.4089 61.4551 9.45077C61.4223 8.49262 60.4055 7.69967 59.1263 7.69967Z" fill="#004887"/>
<path d="M93.5646 11.0697C93.5646 12.986 91.5966 14.5389 89.2022 14.5389C86.775 14.5389 84.8398 12.986 84.8398 11.0697C84.8398 9.15345 86.8078 7.60059 89.2022 7.60059C91.5966 7.60059 93.5646 9.15345 93.5646 11.0697ZM89.2022 9.45081C88.087 9.45081 87.1686 10.1777 87.1686 11.0697C87.1686 11.9618 88.087 12.6887 89.2022 12.6887C90.3174 12.6887 91.2358 11.9618 91.2358 11.0697C91.203 10.1777 90.3174 9.45081 89.2022 9.45081Z" fill="#004887"/>
<path d="M52.9941 9.78117H51.2229V6.31201H49.3862H47.9102V6.9728C47.9102 6.9728 48.6318 6.84065 48.763 7.76576V18.4376H51.2229L51.1901 11.4992H52.9613V9.78117H52.9941Z" fill="#004887"/>
<path d="M65.1292 6.31201H64.2764V6.9728C64.2764 6.9728 64.998 6.84065 65.1292 7.76576V14.7041H61.8164V16.3891H65.1292V21.7415H67.5564V6.31201H65.1292Z" fill="#004887"/>
<path d="M80.4116 6.31201V11.2349H79.362V6.31201H76.9348H76.082V6.9728C76.082 6.9728 76.8036 6.84065 76.9348 7.76576V21.7415H79.362V12.9199H80.4116V21.7415H82.8388V6.31201H80.4116Z" fill="#004887"/>
<path d="M97.5026 9.78117V6.31201H95.0755H94.2227V6.9728C94.2227 6.9728 94.9443 6.84065 95.0755 7.73272V16.4221H97.5026V11.4662H98.913V9.78117H97.5026Z" fill="#004887"/>
<path d="M107.604 19.1975V12.1931H105.144V19.1975H104.193V12.1931H101.733V19.1975H99.6992V20.8825H112.557V19.1975H107.604Z" fill="#004887"/>
</g>
<defs>
<clipPath id="clip0_2521_53341">
<rect width="112.143" height="30" fill="white" transform="translate(0.414062 0.00146484)"/>
</clipPath>
</defs>
</svg>
