<svg width="103" height="70" viewBox="0 0 103 70" fill="none" xmlns="http://www.w3.org/2000/svg">
<path d="M54.0242 11.1609C47.43 11.1609 41.4698 13.8239 37.1582 18.1355C32.8466 22.4471 30.1836 28.4073 30.1836 35.0015C30.1836 41.5957 32.8466 47.5558 37.1582 51.8674C41.4698 56.179 47.43 58.842 54.0242 58.842C60.6184 58.842 66.5785 56.179 70.8901 51.8674C75.2017 47.5558 77.8648 41.5957 77.8648 35.0015C77.8648 28.4073 75.2017 22.4471 70.8901 18.1355C66.5785 13.8239 60.6184 11.1609 54.0242 11.1609Z" fill="white"/>
<path d="M102.593 22.3837C102.466 22.3837 89.5946 23.7786 89.5946 23.7786C88.8337 23.842 88.1363 24.0323 87.4388 24.3493C82.937 10.2098 69.6852 0.00146484 54.0239 0.00146484C38.2359 0.00146484 24.8573 10.4634 20.4823 24.7931C16.2975 25.237 9.95692 25.871 9.95692 25.871C3.36271 26.5685 1.46054 31.7044 0.953296 34.6844C0.509455 37.2841 0.699671 39.0594 0.763076 39.5667C0.763076 39.6301 0.826486 39.7569 0.826486 39.7569C0.889892 39.7569 1.0167 39.7569 1.14352 39.5667C1.27033 39.3765 3.74315 36.333 4.12359 35.9525C4.50402 35.5721 6.08916 33.6699 9.13264 33.3529L19.0873 32.275C19.0239 33.1627 18.9605 34.0504 18.9605 34.9381C18.9605 35.5721 18.9605 36.2062 19.0239 36.7768C18.6435 40.1373 18.1997 44.1953 18.1997 44.1953C17.946 45.717 16.9316 46.7315 15.0294 47.0486C15.0294 47.0486 16.6779 32.8457 16.6779 32.7823C16.6779 32.7823 16.6779 32.7189 16.6145 32.7189C16.5511 32.7189 14.2685 33.0993 14.2685 33.0993C10.6544 33.8601 7.5475 37.2841 7.10366 40.9616L6.27938 47.8728C4.06018 48.1265 2.66525 47.8728 1.77757 47.8094C1.46054 47.8094 1.20692 47.746 0.953296 47.746C0.826484 47.746 0.76308 47.8094 0.826486 47.9363C1.20692 48.5069 2.09459 50.092 3.2359 51.2968C4.75764 52.9453 7.04025 53.7696 9.83011 53.7696L16.8047 53.1355C19.658 52.8185 21.7504 52.3112 23.2721 51.6772C29.2323 62.583 40.7721 70.0015 54.0874 70.0015C69.9388 70.0015 83.3174 59.4761 87.6924 45.0196C90.9895 44.6391 93.716 44.3855 93.716 44.3855C100.12 43.6881 100.374 40.708 100.5 39.0594C100.5 38.9326 100.817 36.2696 100.881 35.5087C101.008 33.5431 99.5493 31.7678 97.4569 31.3239C96.6326 31.1337 93.1453 30.5631 90.9261 30.1192C90.9895 30.0558 91.0529 30.0558 91.0529 30.0558L97.3301 29.4218C99.4859 29.1681 101.198 27.583 101.959 25.0468L102.783 22.3837C102.72 22.4471 102.72 22.3837 102.593 22.3837ZM54.0239 58.842C47.4297 58.842 41.4696 56.179 37.158 51.8674C36.841 51.5504 36.5239 51.2333 36.2703 50.9163C36.2703 50.9163 36.2703 50.8529 36.3337 50.8529C36.524 49.1409 38.9334 29.4852 38.9334 29.4218C38.9334 29.3583 38.87 29.3583 38.87 29.3583C38.8066 29.3583 37.5384 29.612 36.3971 29.8022C35.7631 29.929 35.0656 30.1826 34.4316 30.4997C33.9877 29.9924 33.8609 28.9779 33.8609 28.9779L32.5294 29.1681L32.3392 29.6754L33.4171 29.5486C33.4171 29.5486 33.4805 30.246 33.8609 30.8167C32.4026 31.7044 31.071 32.9725 30.2468 34.4942C30.3736 28.0902 33.0366 22.3837 37.2214 18.1355C41.533 13.8239 47.4932 11.1609 54.0874 11.1609C60.6816 11.1609 66.6417 13.8239 70.9533 18.1355C73.0457 20.2279 74.6942 22.6373 75.8989 25.3638C72.2214 25.7442 68.1 26.1881 68.1 26.1881C67.5294 26.2515 67.0221 26.3783 66.4515 26.5685L66.5149 26.4417C66.0077 26.2515 64.7395 26.6319 64.7395 26.6319C64.7395 26.6319 64.0421 25.554 63.5982 25.4906L63.408 25.9978C64.0421 26.3149 64.4859 27.3294 64.4859 27.3294C64.4859 27.3294 64.8029 27.2025 65.2468 27.0757C64.7395 27.3294 64.2323 27.6464 63.7884 27.9634C63.5348 27.6464 63.1544 27.3294 62.9642 27.3294L62.7739 27.8366C62.9642 27.9 63.1544 28.0902 63.3446 28.2805C61.5692 29.8022 60.3011 31.958 60.0475 34.2406C60.0475 34.2406 58.3989 48.0631 58.3355 48.1265C58.3355 48.2533 58.3355 48.3167 58.4624 48.3167C58.5258 48.3167 59.8573 48.1899 61.6961 47.9996V48.1899C62.3935 48.3801 63.1544 49.2678 63.1544 49.2678C63.1544 49.2678 64.2957 48.3801 64.9298 48.3167L64.9931 47.8094C64.4225 47.746 63.2812 48.5703 63.2812 48.5703C63.2812 48.5703 62.8373 48.1899 62.4569 47.9363C66.3881 47.4924 71.9044 46.9218 71.9044 46.9218C73.1725 46.7949 74.4406 46.3511 75.5185 45.6536C74.3772 47.9362 72.8555 50.0286 71.0801 51.8674C66.5783 56.179 60.6182 58.842 54.0239 58.842ZM71.841 32.3384L70.9533 39.4399C70.8899 39.8837 70.6997 40.391 70.3826 40.5178L68.0366 40.7714L68.9243 33.6699C68.9877 33.2261 69.1145 32.7189 69.495 32.592L71.841 32.3384ZM91.7504 37.0304L91.687 37.3475C91.687 37.4743 90.4823 37.7279 88.9605 38.0449C89.0239 37.6011 89.0239 37.0938 89.0873 36.65C90.6091 36.8402 91.7504 37.0304 91.7504 37.0304Z" fill="#C7B284"/>
<path d="M59.6659 57.3837C59.6659 57.3837 59.1587 56.6862 58.8417 56.6228L58.7148 57.0032C59.1587 57.3203 59.4757 57.8909 59.4757 57.8909C59.4757 57.8909 60.4902 57.6373 60.934 57.7641L61.0609 57.3837C60.6804 57.1935 59.6659 57.3837 59.6659 57.3837Z" fill="#C7B284"/>
<path d="M60.2997 56.2424C60.2997 56.2424 59.7924 55.4815 59.412 55.4181L59.2852 55.7985C59.729 56.1156 60.046 56.6862 60.046 56.6862C60.046 56.6862 61.1873 56.4326 61.6946 56.5594L61.8848 56.179C61.441 56.0522 60.2997 56.2424 60.2997 56.2424Z" fill="#C7B284"/>
<path d="M60.9361 54.9743C60.9361 54.9743 60.1752 54.0232 59.7948 54.0232L59.668 54.5305C60.2386 54.8475 60.6825 55.6717 60.6825 55.6717C60.6825 55.6717 61.9506 55.2279 62.4578 55.3547L62.5846 54.8475C62.2042 54.5939 60.9361 54.9743 60.9361 54.9743Z" fill="#C7B284"/>
<path d="M61.6341 53.7062C61.6341 53.7062 60.7464 52.6283 60.3026 52.6283L60.1758 53.1355C60.8098 53.3892 61.3805 54.3402 61.3805 54.3402C61.3805 54.3402 62.6486 53.5794 63.2827 53.6428L63.4095 53.1355C62.9022 52.9453 61.6341 53.7062 61.6341 53.7062Z" fill="#C7B284"/>
<path d="M62.2044 51.9942C62.2044 51.9942 61.2533 50.9797 60.8095 50.9797L60.7461 51.487C61.3802 51.7406 62.0142 52.6917 62.0142 52.6917C62.0142 52.6917 63.2823 51.8674 63.853 51.9308L63.9798 51.4236C63.4725 51.2334 62.2044 51.9942 62.2044 51.9942Z" fill="#C7B284"/>
<path d="M62.7093 50.4091C62.7093 50.4091 61.6948 49.3946 61.2509 49.4581L61.1875 49.9653C61.8216 50.1555 62.519 51.1066 62.519 51.1066C62.519 51.1066 63.7237 50.2823 64.3578 50.2823L64.4212 49.7751C63.914 49.6483 62.7093 50.4091 62.7093 50.4091Z" fill="#C7B284"/>
<path d="M65.2471 25.4272C65.2471 25.4272 66.5152 24.9834 67.1492 25.1102L67.3395 24.6663C66.8322 24.4127 65.5641 24.7297 65.5641 24.7297C65.5641 24.7297 64.93 23.6518 64.5496 23.525L64.3594 24.0323C64.8666 24.4127 65.2471 25.4272 65.2471 25.4272Z" fill="#C7B284"/>
<path d="M66.1338 23.7153C66.1338 23.7153 67.4019 23.525 68.0359 23.5884L68.2896 23.0812C67.7823 22.891 66.4508 23.0812 66.4508 23.0812C66.4508 23.0812 65.8801 22.0033 65.4363 22.0033L65.2461 22.5106C65.8167 22.8276 66.1338 23.7153 66.1338 23.7153Z" fill="#C7B284"/>
<path d="M67.1473 22.0666C67.1473 22.0666 68.1618 22.0032 68.7325 22.1301L69.0495 21.6228C68.5422 21.4326 67.4643 21.4326 67.4643 21.4326C67.4643 21.4326 66.7669 20.6083 66.3864 20.4181L66.1328 20.8619C66.7669 21.179 67.1473 22.0666 67.1473 22.0666Z" fill="#C7B284"/>
<path d="M68.1016 20.5449C68.1016 20.5449 69.0527 20.4181 69.6234 20.6083L70.0038 20.0377C69.4966 19.7841 68.4821 19.9109 68.4821 19.9109C68.4821 19.9109 67.9114 18.9598 67.531 18.8964L67.2773 19.3402C67.848 19.6572 68.1016 20.5449 68.1016 20.5449Z" fill="#C7B284"/>
<path d="M69.0508 19.0866C69.0508 19.0866 69.9385 19.15 70.4458 19.3402L70.7628 18.8963C70.319 18.5793 69.3679 18.5793 69.3679 18.5793C69.3679 18.5793 68.8606 17.6916 68.4802 17.5648L68.2266 17.9453C68.7972 18.3257 69.0508 19.0866 69.0508 19.0866Z" fill="#C7B284"/>
<path d="M43.4995 17.8185L43.9434 17.4381C43.563 17.2478 43.1825 15.9797 43.1825 15.9797C43.1825 15.9797 42.3582 15.9797 41.9144 15.8529L41.3438 16.2333L42.6753 16.3601C42.7387 16.4235 43.0557 17.5649 43.4995 17.8185Z" fill="#C7B284"/>
<path d="M45.0203 16.7405L45.4641 16.3601C45.0203 16.1065 44.7032 14.9652 44.7032 14.9652C44.7032 14.9652 43.8156 14.9018 43.4985 14.7115L43.0547 15.092C43.3717 15.3456 44.2594 15.409 44.2594 15.409C44.2594 15.409 44.5764 16.5503 45.0203 16.7405Z" fill="#C7B284"/>
<path d="M42.0407 19.0232C42.1675 18.8964 42.2943 18.7696 42.4211 18.6428C41.9773 18.1355 41.8505 17.121 41.8505 17.121C41.8505 17.121 40.836 17.0576 40.3922 17.0576C40.2653 17.1844 40.0117 17.4381 40.0117 17.4381L41.3432 17.5649C41.3432 17.5649 41.6603 18.516 42.0407 19.0232Z" fill="#C7B284"/>
<path d="M40.8346 20.3547C40.9614 20.2279 41.0882 20.1011 41.215 19.9743C40.7712 19.467 40.581 18.3257 40.581 18.3257C40.581 18.3257 39.6299 18.2623 39.1226 18.2623C38.9958 18.3891 38.869 18.516 38.7422 18.6428L40.0103 18.7696C40.1371 18.833 40.3907 19.9109 40.8346 20.3547Z" fill="#C7B284"/>
<path d="M46.5407 15.6627L47.048 15.3456C46.4773 15.2188 46.1603 13.9507 46.1603 13.9507C46.1603 13.9507 45.3994 13.9507 45.1458 13.7605C44.9556 13.8873 44.7653 13.9507 44.5117 14.0775C44.8287 14.2043 45.653 14.2678 45.653 14.2678C45.653 14.2678 46.0969 15.4725 46.5407 15.6627Z" fill="#C7B284"/>
<path d="M39.9473 21.3692C39.5669 20.9254 39.1864 19.7841 39.1864 19.7841C39.1864 19.7841 38.2987 19.8475 37.7915 19.8475L37.3477 20.2913C37.8549 20.3547 38.6792 20.3547 38.6792 20.3547C38.6792 20.3547 38.9962 21.3058 39.5035 21.8765L39.9473 21.3692Z" fill="#C7B284"/>
<path d="M47.9361 14.5214C48.0629 14.458 48.38 14.2677 48.38 14.2677C47.8727 14.0775 47.8093 13.1264 47.8093 13.1264C47.8093 13.1264 46.668 13.1264 46.351 12.9996C46.1608 13.1264 46.034 13.1899 45.8438 13.3167C46.034 13.5069 47.2387 13.5703 47.2387 13.5703C47.2387 13.5703 47.4289 14.3946 47.9361 14.5214Z" fill="#C7B284"/>
<path d="M36.65 21.4326C36.5232 21.6228 36.3963 21.7497 36.2695 21.9399L37.4742 22.0033C37.4742 22.0033 37.7279 23.1446 38.1717 23.525L38.4887 23.0178C38.1083 22.5739 37.9181 21.4326 37.9181 21.4326C37.9181 21.4326 37.0938 21.496 36.65 21.4326Z" fill="#C7B284"/>
<path d="M36.6516 23.1445C36.6516 23.1445 35.8907 23.2713 35.4468 23.1445L35.0664 23.5884C35.3834 23.7152 36.2711 23.7152 36.2711 23.7152C36.2711 23.7152 36.715 25.1735 37.0954 25.3637L37.4124 24.7931C36.9686 24.4761 36.6516 23.1445 36.6516 23.1445Z" fill="#C7B284"/>
<path d="M34.3678 25.0468L34.0508 25.554H35.1921C35.1921 25.554 35.4457 26.7587 35.953 27.1391L36.27 26.6319C35.953 26.2515 35.5725 25.0468 35.5725 25.0468H34.3678Z" fill="#C7B284"/>
<path d="M33.3552 27.0124L33.1016 27.5196L34.2429 27.4562C34.2429 27.4562 34.6867 28.5975 35.1305 28.9779C35.2574 28.7877 35.3208 28.5341 35.3842 28.3439C34.8769 27.8366 34.5599 26.949 34.5599 26.949L33.3552 27.0124Z" fill="#C7B284"/>
<path d="M49.2048 13.5704L49.6486 13.3167C49.2682 12.9997 49.1414 12.3657 49.1414 12.3657L48.3805 12.3022C48.0001 12.3022 47.1758 12.5559 47.1758 12.5559C47.5562 12.5559 48.6975 12.6827 48.6975 12.6827C48.7609 13.1265 49.2048 13.5704 49.2048 13.5704Z" fill="#C7B284"/>
<path d="M60.1119 27.1392C59.9851 27.1392 46.7966 28.5341 46.7966 28.5341C42.7387 28.9779 39.188 32.5287 38.6807 36.65C38.6807 36.65 36.9688 50.5993 36.9688 50.6627C36.9688 50.6627 36.9687 50.7261 37.0321 50.7261C37.0956 50.7261 44.8945 49.9019 45.7822 49.8384C45.8456 49.8384 45.8456 49.775 45.909 49.7116C45.909 49.6482 47.6209 35.8258 47.6209 35.8258C47.6843 35.5087 47.8745 35.0649 48.1282 35.0015L50.5376 34.7479C50.5376 34.7479 48.7622 49.141 48.7622 49.3312C48.7622 49.458 48.8256 49.5214 48.9524 49.5214C50.2206 49.3946 57.5756 48.6337 57.5756 48.6337C57.639 48.6337 57.7024 48.5703 57.7024 48.5069C57.8927 46.9852 60.3021 27.4562 60.3021 27.3294C60.2387 27.2026 60.2387 27.1392 60.1119 27.1392Z" fill="#C7B284"/>
<path d="M86.9961 38.4254C87.4399 38.362 87.8838 38.2352 88.3276 38.1718C88.391 37.6011 88.391 37.0939 88.4544 36.5232C88.0106 36.4598 87.5668 36.3964 87.1229 36.333C87.1229 37.0305 87.0595 37.7279 86.9961 38.4254Z" fill="#002B69"/>
<path d="M37.2211 18.1355C41.5327 13.8239 47.4928 11.1609 54.087 11.1609C60.6812 11.1609 66.6414 13.8239 70.953 18.1355C73.0453 20.2279 74.6939 22.6373 75.8986 25.3638C76.0888 25.3638 76.279 25.3004 76.4692 25.3004C72.7283 16.6772 64.1051 10.5902 54.087 10.5902C40.5816 10.5902 29.6758 21.496 29.6758 35.0014C29.6758 35.1917 29.6758 35.3819 29.6758 35.6355C29.8026 35.2551 29.9928 34.8746 30.2464 34.4942C30.3732 28.0902 32.9729 22.3203 37.2211 18.1355Z" fill="#15274B"/>
<path d="M70.8903 51.8674C66.5788 56.179 60.6186 58.8421 54.0244 58.8421C47.4302 58.8421 41.47 56.179 37.1585 51.8674C36.8414 51.5504 36.5244 51.2334 36.2708 50.9163C36.2708 50.9163 36.2074 50.9163 36.2074 50.9797C36.0806 50.9797 35.8903 51.0431 35.6367 51.0431C40.1385 56.179 46.6693 59.4761 54.0244 59.4761C63.9157 59.4761 72.4755 53.5794 76.2798 45.083C75.9628 45.3366 75.6458 45.5268 75.3288 45.7805C74.2509 47.9363 72.7291 50.0286 70.8903 51.8674Z" fill="#15274B"/>
<path d="M27.265 26.5051C26.3139 25.4906 24.919 25.0468 23.3973 25.237L10.0186 26.6319C5.3266 27.1392 2.79037 30.3729 2.0295 32.9725C1.52225 34.6211 1.45885 35.6355 1.39544 36.2696C1.39544 36.2696 1.33203 37.7913 1.33203 38.2986C1.33203 38.362 1.33204 38.4254 1.39544 38.4254C1.39544 38.4254 1.45884 38.4254 1.52225 38.362C1.77587 38.1084 2.40994 37.2207 2.53675 37.0305C3.04399 36.3964 3.99508 35.1917 4.62914 34.6844C5.39001 33.987 7.03856 32.8457 9.19436 32.6555L20.0367 31.5142C20.227 31.5142 20.3538 31.5142 20.3538 31.5776C20.544 31.7678 20.4172 32.0848 20.4172 32.0848L19.0223 44.3855C18.7052 46.4145 17.1835 47.6192 14.2668 47.9997L15.852 33.9236C15.852 33.8602 15.7886 33.7968 15.7252 33.8602C15.6617 33.8602 14.3936 34.1138 14.3936 34.1138C11.0965 34.8113 8.30667 37.9182 7.86283 41.2787L7.16537 47.3022L6.97515 48.824L6.59471 48.8874C5.77044 48.9508 4.81935 49.0142 2.79037 48.8874C2.40993 48.8874 2.28312 48.824 2.21972 48.8874C2.21972 48.9508 2.21971 49.0142 2.28312 49.141C2.34652 49.2044 3.10739 50.7261 4.81935 51.9942C5.89725 52.7551 7.60921 53.1989 9.7016 53.1989C10.9063 53.1989 12.111 53.0721 13.3157 52.9453L15.0911 52.7551C23.4607 51.8674 25.9969 50.7895 26.7578 45.083L28.4697 30.6899C28.6599 28.9779 28.2795 27.5196 27.265 26.5051Z" fill="#002B69"/>
<path d="M23.4606 25.9978L10.082 27.3927C3.23415 28.0902 2.40988 34.5576 2.34647 34.8112C2.28306 35.0648 2.15625 36.1427 2.15625 36.2061C2.15625 36.2695 2.15625 36.3329 2.21966 36.2061C2.28307 36.1427 3.04394 35.1282 3.04394 35.1282C3.04394 35.1282 5.26314 32.2116 9.06749 31.8311L19.9099 30.6898C20.2903 30.6264 20.6073 30.7532 20.861 30.9434C21.2414 31.3873 21.1146 32.2116 20.9878 33.0992C20.9244 33.2895 19.7197 44.3221 19.7197 44.3221C19.2124 47.9362 15.2178 48.38 13.8863 48.5069L13.5059 48.5703C13.5059 48.5703 15.0276 34.621 15.0276 34.5576C15.0276 34.4942 14.9642 34.4942 14.9008 34.4942C14.8374 34.4942 14.457 34.5576 14.457 34.5576C11.4135 35.1916 8.81386 38.0449 8.49683 41.0884L7.48234 49.1409C6.72147 49.2043 5.89719 49.2677 5.19973 49.2677C4.75589 49.2677 3.42437 49.2043 3.36097 49.1409C3.23415 49.1409 3.23415 49.2043 3.29756 49.2677C3.36096 49.3311 3.8048 49.8384 3.8048 49.8384C5.19973 51.4869 7.22872 52.3112 9.63814 52.1844C12.0476 52.0576 13.8229 51.804 15.5349 51.6771C20.5439 51.2333 25.2994 50.7261 26.0602 44.7659L27.7722 30.3728C27.9624 29.0413 27.582 27.7732 26.7577 26.9489C25.9334 26.2514 24.7287 25.871 23.4606 25.9978Z" fill="#1E4790"/>
<path d="M90.9266 29.4217L97.2672 28.7243C98.8523 28.534 100.311 27.2025 100.881 25.7442C101.135 25.1736 101.515 23.6518 101.642 23.3348C101.642 23.2714 101.642 23.2714 101.579 23.2714C101.515 23.2714 89.7219 24.5395 89.7219 24.5395C86.1077 24.9199 82.8106 28.217 82.3668 31.8946L82.0498 34.621V34.6844L92.6385 36.4598C92.6385 36.4598 92.5751 36.9036 92.4483 37.6011C92.3215 38.2985 87.7563 38.8058 85.9175 39.3765C83.1276 40.2007 80.3378 40.8982 77.7382 43.9417C77.3577 44.4489 77.0407 45.083 76.8505 45.3366C76.7871 45.4 76.8505 45.4634 76.9139 45.4634C76.9773 45.4634 93.9066 43.6246 93.9066 43.6246C97.394 43.2442 99.2961 41.9127 99.5497 39.6935L99.6132 39.4398C99.74 38.4888 99.9936 36.7768 100.057 35.5721C100.184 33.987 98.9157 32.5286 97.2037 32.1482C96.1893 31.8946 91.1802 31.0703 89.7219 30.8167C89.9121 30.0558 90.2925 29.5485 90.9266 29.4217Z" fill="#002B69"/>
<path d="M90.7982 28.6609L97.1388 27.9634C99.1678 27.7732 100.055 25.871 100.373 24.7297L100.499 24.2224C100.499 24.159 100.499 24.1591 100.436 24.1591C100.373 24.1591 89.6569 25.3004 89.6569 25.3004C86.4232 25.6174 83.4432 28.6609 82.9993 31.958L82.7457 34.0503C82.7457 34.0503 82.7457 34.1138 82.8091 34.1138L93.3979 36.0159C93.3979 36.0793 93.3979 36.1428 93.3979 36.2062L93.271 37.2206C93.0174 38.679 92.0029 38.8692 87.7548 39.6301C86.7403 39.8203 80.8435 41.1518 78.7511 43.7514C78.5609 44.0685 78.3707 44.2587 78.3073 44.3855C78.2439 44.4489 78.2439 44.5123 78.3707 44.5123C79.4486 44.3855 91.3055 43.1174 92.8906 42.9272C96.6315 42.5467 98.4703 41.9127 98.8508 39.313C99.1044 37.8547 99.2312 36.5232 99.2946 35.5087C99.358 34.304 98.4069 33.1627 97.012 32.8456C95.8073 32.592 89.1497 31.4507 89.0863 31.4507C89.0229 31.4507 88.896 31.3873 88.896 31.2605C89.0863 29.4851 90.0374 28.8511 90.7982 28.6609Z" fill="#1E4790"/>
<path d="M35.6997 30.8166C32.8465 31.6409 30.1834 34.7478 29.8664 37.8547C29.8664 37.8547 28.2812 50.726 28.2812 50.8529C28.2812 50.9797 28.3447 50.9797 28.4081 50.9797C28.4715 50.9797 34.9389 50.2822 35.5729 50.2188C35.5729 50.2188 35.6363 50.2188 35.6363 50.1554C35.7631 49.0141 38.0457 30.3094 38.0457 30.3094C38.0457 30.246 37.9823 30.246 37.9823 30.246C37.9189 30.246 36.841 30.4996 35.6997 30.8166Z" fill="#002B69"/>
<path d="M36.5864 31.3873C33.543 32.0214 31.0067 34.8746 30.6263 37.9181C30.6263 37.9181 29.168 49.9652 29.168 50.0286C29.168 50.092 29.168 50.1554 29.2948 50.1554C29.4216 50.1554 34.4306 49.5848 34.9379 49.5848C34.9379 49.5848 35.0013 49.5848 35.0013 49.5214C35.1281 48.5069 37.2205 31.3873 37.2205 31.3239C37.2205 31.2605 37.2205 31.2605 37.1571 31.2605C37.0303 31.2605 36.5864 31.3873 36.5864 31.3873Z" fill="#1E4790"/>
<path d="M46.7957 29.4217C43.1816 29.8021 39.8845 33.0992 39.4406 36.7768C39.4406 36.7768 37.8555 49.775 37.8555 49.8384C37.8555 49.9018 37.8555 49.9018 37.9189 49.9018C37.9823 49.9018 44.3229 49.2043 45.0837 49.1409C45.1471 49.1409 45.1471 49.0775 45.1471 49.0141C45.1471 48.9507 46.7323 35.7623 46.7323 35.7623C46.9225 34.8746 47.3663 34.3674 47.937 34.2406L51.3609 33.8601C51.3609 33.8601 49.5855 48.3166 49.5855 48.4434C49.5855 48.5703 49.6489 48.6337 49.7124 48.6337C50.7902 48.5068 56.7504 47.8728 56.8138 47.8728C56.8772 47.8728 56.8772 47.8728 56.8772 47.8094C57.0674 46.4779 59.2866 28.3438 59.2866 28.217C59.2866 28.0902 59.1598 28.0268 59.0964 28.0902L46.7957 29.4217Z" fill="#002B69"/>
<path d="M46.8581 30.1826C43.6244 30.4997 40.6444 33.5431 40.2005 36.8402C40.2005 36.8402 38.7422 48.9507 38.7422 49.0141C38.7422 49.0775 38.7422 49.0776 38.8056 49.0776C38.869 49.0776 43.8147 48.5703 44.5121 48.5069C44.5755 48.5069 44.5755 48.4435 44.5755 48.4435L46.0973 35.7623C46.4777 34.1138 47.4288 33.6699 47.936 33.5431L52.0574 33.0993C52.1208 33.0993 52.1842 33.0993 52.1842 33.1627C52.2476 33.2261 52.2476 33.2895 52.2476 33.2895C52.2476 33.2895 50.4723 47.5558 50.4723 47.6826C50.4723 47.8094 50.5357 47.8728 50.5991 47.8094C51.5502 47.6826 56.1154 47.2388 56.1154 47.2388C56.1788 47.2388 56.2422 47.1754 56.2422 47.112C56.369 45.9707 58.4614 29.0413 58.4614 29.0413C58.4614 28.9779 58.398 28.9779 58.398 28.9779L46.8581 30.1826Z" fill="#1E4790"/>
<path d="M68.1004 27.0123C64.4862 27.3927 61.1891 30.6898 60.7453 34.3674L59.1602 47.3656C59.1602 47.429 59.1602 47.4924 59.2236 47.4924C59.287 47.4924 71.6511 46.1609 71.6511 46.1609C75.2652 45.7804 78.5623 42.4833 79.0062 38.8058C79.0062 38.8058 80.5913 25.871 80.5913 25.8076C80.5913 25.7442 80.5279 25.6808 80.4645 25.6808L68.1004 27.0123ZM70.4464 41.342L67.0859 41.7224L68.037 33.6699C68.1638 32.9725 68.4808 32.0214 69.3051 31.8311L72.6656 31.4507L71.6511 39.5032C71.6511 40.2641 71.3341 41.1518 70.4464 41.342Z" fill="#002B69"/>
<path d="M79.7036 26.5685C79.6402 26.5685 68.1003 27.7732 68.1003 27.7732C64.8666 28.0902 61.8866 31.1337 61.4427 34.4308C61.4427 34.4308 59.9844 46.4779 59.9844 46.5413C59.9844 46.6047 60.0478 46.6681 60.1112 46.6681C60.1746 46.6681 71.651 45.4634 71.651 45.4634C74.8847 45.1464 77.8648 42.1029 78.3086 38.8058C78.3086 38.8058 79.767 26.6953 79.767 26.6319C79.8304 26.5685 79.767 26.5685 79.7036 26.5685ZM72.4753 39.5667V39.6301C72.2217 41.4054 71.2706 41.9761 70.5732 42.1029L66.5152 42.5468C66.4518 42.5468 66.3884 42.5467 66.3884 42.4833C66.325 42.4199 66.325 42.4199 66.325 42.3565L67.4029 33.6065C67.6565 31.8312 68.6076 31.2605 69.305 31.1337H69.3684L73.363 30.6899C73.4264 30.6899 73.4898 30.6899 73.4898 30.7533C73.5532 30.8167 73.5532 30.8801 73.5532 30.9435L72.4753 39.5667Z" fill="#1E4790"/>
<path d="M33.8607 12.7461C33.9875 12.8095 34.1143 12.8729 34.2411 12.9997L34.4313 13.1899L35.1922 12.4924L34.9386 12.2388C34.6215 11.9218 34.3045 11.7316 33.9875 11.7316C33.6705 11.7316 33.3534 11.9218 32.973 12.2388C32.5926 12.5558 32.4023 12.8729 32.4023 13.2533C32.4023 13.5703 32.5292 13.9508 32.9096 14.2678L34.1777 15.6627C34.4947 16.0431 34.8118 16.2334 35.1288 16.2334C35.4458 16.2968 35.7629 16.1066 36.1433 15.7895C36.5237 15.4091 36.7139 15.0921 36.7773 14.7116C36.7773 14.3946 36.6505 14.0776 36.3969 13.7605L36.0165 13.3801L35.2556 14.0776L35.5092 14.3946C35.5726 14.458 35.636 14.5214 35.636 14.5848C35.6994 14.6482 35.6994 14.7116 35.7629 14.775C35.7629 14.8384 35.7629 14.9019 35.7629 14.9653C35.7629 15.0287 35.6994 15.0921 35.636 15.1555C35.5092 15.2189 35.4458 15.2823 35.3824 15.2823C35.319 15.2823 35.1922 15.2189 35.1288 15.0921L33.6071 13.4435C33.4802 13.3167 33.4168 13.1899 33.4168 13.1265C33.4168 12.9997 33.4802 12.9363 33.6071 12.8095C33.6705 12.746 33.7339 12.7461 33.8607 12.7461Z" fill="#002B69"/>
<path d="M37.2197 9.06852L36.332 9.63917L38.7414 13.5069L39.6291 12.9363L38.678 11.3511L39.2487 10.9073L40.2632 12.5558L41.1509 11.9852L38.7414 8.11743L37.8538 8.68808L38.8049 10.1464L38.1708 10.5903L37.2197 9.06852Z" fill="#002B69"/>
<path d="M44.7664 10.3366L45.7809 9.95612L43.1813 6.08838L41.9766 6.53221L42.7374 11.0974L43.7519 10.717L43.5617 9.82932L44.3226 9.51229L44.7664 10.3366ZM43.3081 9.13185L42.8642 7.10286L43.8787 8.87823L43.3081 9.13185Z" fill="#002B69"/>
<path d="M47.6834 4.82026L46.6055 5.01047L47.4931 9.44887L48.4442 9.25866L47.8736 6.78582L49.2051 9.13184L50.2196 8.94164L49.3953 4.43982L48.3808 4.69344L48.9515 7.10285L47.6834 4.82026Z" fill="#002B69"/>
<path d="M53.8974 8.68806C54.0242 8.62466 54.151 8.49786 54.2778 8.30764L54.3412 8.68806H55.0387V6.21524H53.5803V7.03953H53.9608V7.41995C53.9608 7.48335 53.9608 7.61018 53.9608 7.67359C53.9608 7.73699 53.9608 7.80039 53.8974 7.8638C53.8974 7.9272 53.834 7.92721 53.7706 7.99062C53.7072 7.99062 53.6437 8.05401 53.5803 8.05401C53.4535 8.05401 53.3267 8.05402 53.2633 7.92721C53.1999 7.8638 53.1365 7.73699 53.1365 7.61018V5.39097C53.1365 5.20076 53.1365 5.13735 53.1999 5.01054C53.2633 4.94713 53.3901 4.88372 53.5169 4.88372C53.6438 4.88372 53.7072 4.94713 53.7706 5.01054C53.834 5.07394 53.834 5.26417 53.834 5.45438V5.708H54.9119V5.39097C54.9119 4.94713 54.785 4.6301 54.5314 4.37648C54.2778 4.18626 53.8974 4.05945 53.4535 4.05945C52.9463 4.05945 52.6292 4.18626 52.3756 4.43989C52.122 4.69351 52.0586 5.07393 52.0586 5.51777V7.35656C52.0586 7.54677 52.0586 7.73699 52.122 7.92721C52.1854 8.11742 52.2488 8.24422 52.3122 8.37104C52.3756 8.49785 52.5024 8.62466 52.6927 8.68806C52.8195 8.75147 53.0097 8.81488 53.2633 8.81488C53.5803 8.81488 53.7705 8.75147 53.8974 8.68806Z" fill="#002B69"/>
<path d="M57.701 4.31311L57.5742 8.87834L58.7155 9.13196L59.73 6.08848L59.413 9.25877L60.6177 9.51239L62.2028 5.20079L61.1883 5.01058L60.3007 8.05405H60.2373L60.4909 4.82037L59.4764 4.63014L58.4619 7.67363H58.3985L58.7155 4.50334L57.701 4.31311Z" fill="#002B69"/>
<path d="M65.4387 10.9706C65.7557 10.8438 66.0094 10.5268 66.1996 10.0195L66.897 8.30759C67.0873 7.92715 67.0873 7.54671 66.9605 7.22968C66.8336 6.91265 66.5166 6.65902 66.1362 6.4688C65.6923 6.27858 65.3119 6.2786 64.9949 6.342C64.6778 6.46881 64.4242 6.72243 64.234 7.10286L63.5365 8.81482C63.3463 9.32207 63.2829 9.7025 63.4097 10.0195C63.5365 10.3366 63.7902 10.5902 64.2974 10.7804C64.7413 11.0974 65.1851 11.1608 65.4387 10.9706ZM64.4242 9.63909C64.4242 9.57569 64.4876 9.51229 64.4876 9.44888L65.2485 7.73692C65.3119 7.67351 65.3119 7.61011 65.3753 7.54671C65.4387 7.4833 65.4387 7.41989 65.5021 7.41989C65.5655 7.35648 65.6289 7.3565 65.6923 7.3565C65.7557 7.3565 65.8192 7.3565 65.8826 7.3565C65.946 7.4199 66.0094 7.41989 66.0728 7.4833C66.1362 7.5467 66.1362 7.61012 66.1362 7.67353C66.1362 7.73693 66.1362 7.80033 66.1362 7.86374C66.1362 7.92714 66.0728 7.99054 66.0728 8.05395L65.3119 9.76591C65.2485 9.82932 65.2485 9.89272 65.1851 9.95612C65.1217 10.0195 65.1217 10.0829 65.0583 10.1464C64.9949 10.2098 64.9315 10.2097 64.8681 10.2731C64.8047 10.2731 64.7412 10.2731 64.6778 10.2731C64.6144 10.2097 64.551 10.2098 64.551 10.1464C64.4876 10.0829 64.4876 10.0195 64.4876 9.95612C64.4242 9.7659 64.4242 9.7025 64.4242 9.63909Z" fill="#002B69"/>
<path d="M69.8761 8.56128L67.3398 12.3022L68.2275 12.8729L69.4956 10.7171H69.559L68.7982 13.2533L69.7493 13.8874L72.2221 10.083L71.3978 9.57578L70.0663 11.7316L70.7638 9.13193L69.8761 8.56128Z" fill="#002B69"/>
<path d="M38.8058 58.5885C38.9326 58.5251 39.0594 58.3983 39.1863 58.2714C39.3131 58.1446 39.3765 57.9544 39.3765 57.8276C39.3765 57.7008 39.3765 57.574 39.3765 57.4472C39.3131 57.3204 39.2497 57.1936 39.1229 57.0667C38.996 56.9399 38.8692 56.8131 38.7424 56.7497L37.7279 56.0522L35.4453 59.2859L36.5232 60.0468C36.8402 60.3004 37.1573 60.3638 37.4109 60.3638C37.6645 60.3004 37.9181 60.1736 38.1718 59.8566C38.2352 59.7298 38.2986 59.6664 38.362 59.603C38.4254 59.5396 38.4254 59.4128 38.4254 59.3494C38.4254 59.2859 38.4254 59.2225 38.4254 59.0957C38.4254 59.0323 38.362 58.9055 38.2986 58.7787C38.4888 58.6519 38.6156 58.6519 38.8058 58.5885ZM37.4743 59.1591C37.4109 59.2859 37.3475 59.3494 37.2841 59.3494C37.2207 59.4128 37.1573 59.4127 37.0939 59.4127C37.0305 59.4127 36.9671 59.4128 36.9036 59.3494C36.8402 59.3494 36.7768 59.2859 36.65 59.2225L36.5866 59.1591L37.1573 58.3349H37.2207C37.2841 58.3983 37.4109 58.4617 37.4109 58.5251C37.4743 58.5885 37.4743 58.6519 37.5377 58.6519C37.5377 58.7153 37.5377 58.7787 37.5377 58.8421C37.5377 58.9689 37.5377 59.0323 37.4743 59.1591ZM38.045 57.9544C37.9815 57.9544 37.8547 57.891 37.6645 57.7642C37.6011 57.7642 37.6011 57.7008 37.6011 57.7008L38.1084 57.0033C38.2986 57.1301 38.4254 57.257 38.4254 57.3204C38.4888 57.3838 38.4254 57.5106 38.362 57.6374C38.2352 57.891 38.1718 57.9544 38.045 57.9544Z" fill="#002B69"/>
<path d="M41.1534 62.7098L42.2313 58.7786L41.2168 58.2714L38.6172 61.3782L39.4415 61.8221L39.8853 61.188L40.5194 61.5051L40.2657 62.2659L41.1534 62.7098ZM40.3291 60.6174L41.407 59.159L40.8364 60.871L40.3291 60.6174Z" fill="#002B69"/>
<path d="M44.7027 61.0613L45.4635 61.3783V61.3149V61.2515C45.5904 60.9345 45.5904 60.6174 45.4635 60.3638C45.3367 60.1102 45.0831 59.8566 44.7661 59.7298C44.449 59.6029 44.132 59.6029 43.8784 59.7298C43.6248 59.8566 43.4346 60.0468 43.3078 60.4272C43.2443 60.554 43.2443 60.7443 43.2443 60.8711C43.2443 60.9979 43.2443 61.1247 43.3078 61.2515C43.3712 61.3783 43.4346 61.5051 43.498 61.5685C43.5614 61.6953 43.6882 61.8221 43.815 61.949L43.8784 62.0124C44.0052 62.1392 44.0686 62.266 44.132 62.3928C44.1954 62.5196 44.1954 62.583 44.132 62.7098C44.0686 62.8366 44.0052 62.9 43.9418 62.9635C43.8784 63.0269 43.7516 63.0269 43.6882 62.9635C43.5614 62.9 43.498 62.8366 43.4346 62.7732C43.4346 62.7098 43.4346 62.583 43.4346 62.4562L43.5614 62.2026L42.7371 61.8856L42.6103 62.266C42.5469 62.3928 42.5469 62.5196 42.5469 62.6464C42.5469 62.7732 42.6103 62.9001 42.6103 63.0269C42.6737 63.1537 42.7371 63.2805 42.8639 63.3439C42.9907 63.4707 43.1809 63.5341 43.3712 63.5975C43.7516 63.7243 44.0686 63.7243 44.3222 63.5975C44.5759 63.4707 44.7661 63.2171 44.8929 62.9C44.9563 62.7098 45.0197 62.5196 45.0197 62.3294C45.0197 62.2026 44.9563 62.0124 44.8929 61.8856C44.8295 61.7588 44.7027 61.5685 44.5125 61.3783C44.3856 61.2515 44.3222 61.1247 44.2588 61.0613C44.1954 60.9345 44.132 60.8711 44.132 60.8077C44.132 60.7443 44.132 60.6809 44.132 60.554C44.1954 60.4906 44.1954 60.4272 44.2588 60.4272C44.3222 60.4272 44.3856 60.4272 44.5125 60.4272C44.5759 60.4272 44.6393 60.4906 44.6393 60.554C44.6393 60.6174 44.7027 60.6174 44.7027 60.6808C44.7027 60.7442 44.7027 60.8077 44.7027 60.8711C44.7661 60.9345 44.7661 60.9979 44.7027 61.0613Z" fill="#002B69"/>
<path d="M48.7625 61.8221L48.9527 61.0612L46.8603 60.554L45.9727 64.4217L48.1284 64.929L48.3187 64.1681L47.0506 63.851L47.2408 63.0268L48.3821 63.2804L48.5723 62.5195L47.431 62.2659L47.6212 61.5685L48.7625 61.8221Z" fill="#002B69"/>
<path d="M52.249 63.0268C52.3124 62.9 52.3758 62.7098 52.4392 62.5196C52.4392 62.3294 52.4392 62.1391 52.3758 62.0123C52.3124 61.8855 52.249 61.7587 52.1222 61.6953C51.9954 61.6319 51.8685 61.5051 51.7417 61.5051C51.6149 61.4417 51.4247 61.4417 51.2345 61.3783L50.0298 61.2515L49.5859 65.246L50.9175 65.3728C51.2979 65.4362 51.6149 65.3728 51.8686 65.1826C52.1222 64.9924 52.249 64.7388 52.249 64.3583C52.249 64.2315 52.249 64.1047 52.249 64.0413C52.249 63.9145 52.249 63.8511 52.1856 63.7877C52.1856 63.7243 52.1222 63.6609 52.0588 63.5975C51.9954 63.5341 51.932 63.4707 51.8051 63.4073C51.9954 63.217 52.1222 63.1536 52.249 63.0268ZM51.3613 64.1681C51.3613 64.2949 51.2979 64.3583 51.2979 64.4218C51.2979 64.4852 51.2345 64.5486 51.1711 64.5486C51.1077 64.5486 51.0443 64.612 50.9809 64.612C50.9175 64.612 50.8541 64.612 50.6638 64.612H50.6004L50.7272 63.6609H50.7906C50.9175 63.6609 50.9809 63.6609 51.0443 63.7243C51.1077 63.7243 51.1711 63.7877 51.2345 63.7877C51.2979 63.8511 51.2979 63.8511 51.3613 63.9145C51.3613 63.9779 51.3613 64.0413 51.3613 64.1681ZM51.2979 62.8366C51.2345 62.9 51.1077 62.9 50.8541 62.9C50.7906 62.9 50.7906 62.9 50.7906 62.9L50.8541 62.0757C51.1077 62.0757 51.2345 62.1391 51.2979 62.2026C51.3613 62.266 51.4247 62.3928 51.4247 62.5196C51.4247 62.7098 51.3613 62.8366 51.2979 62.8366Z" fill="#002B69"/>
<path d="M54.4676 64.7388H55.2285L55.3553 65.4996H56.3064L55.3553 61.5685H54.214L53.4531 65.563H54.4042L54.4676 64.7388ZM54.7847 62.2025L55.1017 63.9779H54.531L54.7847 62.2025Z" fill="#002B69"/>
<path d="M57.955 61.2515L57.0039 61.3783L57.638 65.3094L59.6669 64.9924L59.5401 64.2315L58.4622 64.3583L57.955 61.2515Z" fill="#002B69"/>
<path d="M61.6963 63.7243L60.8721 60.6174L59.9844 60.8711L60.9989 64.7388L63.0279 64.1681L62.8376 63.4073L61.6963 63.7243Z" fill="#002B69"/>
<path d="M66.0058 61.8221C66.196 62.2025 66.4497 62.4562 66.7033 62.5196C66.9569 62.6464 67.2739 62.583 67.6544 62.3928C68.0982 62.2025 68.3518 61.9489 68.4152 61.6319C68.5421 61.3783 68.4786 61.0612 68.3518 60.7442L68.1616 60.3004L67.3373 60.7442L67.5275 61.0612C67.5275 61.1246 67.591 61.1881 67.591 61.2515C67.591 61.3149 67.6544 61.3783 67.6544 61.4417C67.6544 61.5051 67.6544 61.5685 67.591 61.6319C67.591 61.6953 67.5276 61.7587 67.4642 61.7587C67.3373 61.8221 67.2739 61.8221 67.2105 61.8221C67.1471 61.8221 67.0837 61.6953 67.0203 61.6319L66.1326 59.8565C66.0692 59.7297 66.0692 59.6029 66.0692 59.5395C66.0692 59.4761 66.1326 59.4127 66.2594 59.3493C66.3228 59.2859 66.4497 59.2859 66.5131 59.3493C66.5765 59.4127 66.7033 59.4761 66.7667 59.6663L66.8935 59.9199L67.7178 59.4761L67.591 59.1591C67.4007 58.7786 67.2105 58.5884 66.8935 58.525C66.6399 58.4616 66.2594 58.525 65.9424 58.7152C65.562 58.9054 65.3084 59.1591 65.245 59.4127C65.1816 59.6663 65.1815 60.0467 65.3718 60.4272L66.0058 61.8221Z" fill="#002B69"/>
<path d="M71.8413 59.7932L71.3975 59.1591L70.4464 59.7932L68.671 57.1301L67.9102 57.6374L70.1294 60.9345L71.8413 59.7932Z" fill="#002B69"/>
<path d="M73.0468 58.5884C73.3638 58.5884 73.6174 58.4616 73.9344 58.208C74.1246 58.0812 74.2515 57.891 74.3149 57.7642C74.3783 57.6374 74.4417 57.4471 74.4417 57.3203C74.4417 57.1935 74.4417 57.0667 74.3783 56.8765C74.3149 56.7497 74.2515 56.6229 74.1247 56.4961L72.2225 54.2769L71.525 54.9109L73.4906 57.1935C73.554 57.2569 73.6174 57.3837 73.6174 57.4471C73.6174 57.5106 73.6174 57.6374 73.4906 57.7008C73.4272 57.7642 73.3004 57.8276 73.237 57.7642C73.1736 57.7642 73.1102 57.7008 72.9833 57.6374L71.0178 55.3547L70.3203 55.9888L72.2225 58.208C72.4761 58.4616 72.7931 58.5884 73.0468 58.5884Z" fill="#002B69"/>
<path d="M76.8482 55.2913C77.1018 54.9742 77.2287 54.7206 77.2287 54.4036C77.2287 54.15 77.1018 53.833 76.7848 53.5793C76.658 53.5159 76.5946 53.4525 76.5312 53.3891C76.4678 53.3257 76.4044 53.3257 76.2776 53.2623C76.2142 53.2623 76.1508 53.2623 76.024 53.2623C75.9606 53.2623 75.8337 53.3257 75.7069 53.3257C75.7703 53.1355 75.7069 53.0087 75.7069 52.8185C75.6435 52.6916 75.5801 52.5014 75.3899 52.438C75.2631 52.3112 75.0729 52.2478 74.9461 52.1844C74.8192 52.121 74.6924 52.121 74.5656 52.1844C74.4388 52.2478 74.312 52.2478 74.1852 52.3746C74.0584 52.438 73.9316 52.5648 73.8048 52.6917L72.9805 53.5793L75.9605 56.2424L76.8482 55.2913ZM74.8192 53.8964L74.7558 53.9598L74.1218 53.3891C74.2486 53.1989 74.3754 53.1355 74.5022 53.0721C74.5656 53.0087 74.6924 53.0721 74.8192 53.1989C74.946 53.3257 75.0095 53.4525 75.0095 53.5159C75.0095 53.6427 74.946 53.7061 74.8192 53.8964ZM75.3265 54.4036C75.3899 54.3402 75.4533 54.2768 75.5167 54.2134C75.5801 54.15 75.6435 54.15 75.7069 54.15C75.7703 54.15 75.8337 54.15 75.8971 54.15C75.9605 54.15 76.0239 54.2134 76.0873 54.2768C76.1508 54.3402 76.2142 54.4036 76.2776 54.467C76.341 54.5304 76.341 54.5938 76.341 54.6572C76.341 54.7206 76.341 54.784 76.2776 54.784C76.2142 54.8474 76.2142 54.9108 76.0873 55.0377L76.024 55.1011L75.3265 54.4036Z" fill="#002B69"/>
<path d="M31.5134 18.7696L32.2108 19.6573L32.1474 18.516L33.2253 18.7696L32.4644 17.9453L33.4155 17.3747L32.3376 17.2479L32.7181 16.2334L31.767 16.804L31.4499 15.7896L31.1329 16.8675L30.1184 16.2968L30.5623 17.3113L29.4844 17.5015L30.4989 18.0088L29.738 18.833L30.8159 18.5794V19.6573L31.5134 18.7696Z" fill="#002B69"/>
<path d="M72.7293 14.6482L72.0319 15.5358L73.1098 15.2822L73.0464 16.3601L73.7438 15.4724L74.4413 16.3601L74.3779 15.2188L75.5192 15.4724L74.6949 14.6482L75.7094 14.0775L74.5681 13.9507L75.012 12.8728L74.0609 13.5068L73.6804 12.429L73.3634 13.5068L72.4123 12.9362L72.8562 13.9507L71.7148 14.1409L72.7293 14.6482Z" fill="#002B69"/>
<path d="M35.0035 55.5449L36.018 54.9742L34.8767 54.8474L35.3205 53.7695L34.3695 54.4036L33.989 53.3257L33.672 54.4036L32.7209 53.8329L33.1647 54.9108L32.0234 55.0376L33.0379 55.5449L32.3405 56.4326L33.4184 56.1789L33.355 57.2568L34.0524 56.3692L34.7499 57.2568L34.6865 56.1155L35.8278 56.3692L35.0035 55.5449Z" fill="#002B69"/>
<path d="M79.1961 50.092L79.6399 49.0141L78.6889 49.6482L78.3084 48.5703L77.9914 49.6482L77.0403 49.0776L77.4842 50.092L76.4062 50.2823L77.3573 50.7895L76.6599 51.6138L77.7378 51.3602V52.5015L78.3718 51.6138L79.0693 52.5015L79.0059 51.3602L80.1472 51.5504L79.3863 50.7261L80.3374 50.2188L79.1961 50.092Z" fill="#002B69"/>
<path d="M57.0044 19.8475C57.0044 19.5938 57.1312 19.4036 57.258 19.2134C57.5117 18.9598 57.8287 18.9598 57.8287 18.8964L63.5352 18.1989C63.662 18.1989 63.7254 18.0721 63.7254 17.9453L63.8522 16.804C63.8522 16.6772 63.7888 16.6138 63.662 16.6138L55.5461 17.6283C54.9754 17.6917 54.5316 18.1989 54.4682 18.7696L53.8975 24.4127C53.8341 24.9833 54.2146 25.3638 54.7852 25.3004L62.9011 24.2859C63.028 24.2859 63.0914 24.1591 63.0914 24.0323L63.2182 22.891C63.2182 22.8276 63.2182 22.7007 63.028 22.7007L57.1946 23.3982C56.941 23.3982 56.5606 23.3348 56.624 22.7007L57.0044 19.8475Z" fill="#002B69"/>
<path d="M52.1852 18.0721L42.9913 19.2134L42.2305 26.949L44.9569 26.6319L45.591 20.4816L49.8392 19.9743C49.8392 19.9743 50.3464 19.9109 50.283 20.4816L49.7124 26.0613L52.3754 25.7442L53.0729 18.8964C53.0095 18.3892 52.629 18.0721 52.1852 18.0721Z" fill="#002B69"/>
<path d="M54.0221 1.90367C68.9224 1.90367 81.4768 11.7316 85.6616 25.237C86.042 24.9834 86.4224 24.7297 86.8029 24.5395C86.4859 23.525 86.1054 22.574 85.725 21.5595C84.013 17.4381 81.5402 13.7605 78.3699 10.6537C75.1996 7.48337 71.5221 5.01054 67.4641 3.29859C63.2159 1.52322 58.7141 0.572144 54.0855 0.572144C49.4569 0.572144 44.9551 1.45982 40.7069 3.29859C36.5855 5.01054 32.908 7.48337 29.8011 10.6537C26.6308 13.824 24.158 17.5015 22.446 21.5595C22.0022 22.574 21.6217 23.5884 21.3047 24.6029C21.8119 24.5395 22.3192 24.4761 22.6996 24.4761C27.0112 11.3511 39.4387 1.90367 54.0221 1.90367Z" fill="#002B69"/>
<path d="M85.4751 45.3366C81.1001 58.525 68.6726 68.0993 54.0258 68.0993C41.4715 68.0993 30.5657 61.1247 24.9226 50.7895C24.6055 51.0431 24.2251 51.2333 23.7812 51.487C25.3664 54.3402 27.332 57.0033 29.678 59.3493C32.8483 62.5196 36.5258 64.9924 40.5838 66.7044C44.832 68.4797 49.3338 69.4308 53.9624 69.4308C58.591 69.4308 63.0928 68.5431 67.341 66.7044C71.4624 64.9924 75.1399 62.5196 78.2468 59.3493C81.4171 56.179 83.8899 52.5015 85.6019 48.4435C86.0457 47.3656 86.4262 46.3511 86.7432 45.2732C86.4896 45.2098 85.9823 45.2732 85.4751 45.3366Z" fill="#002B69"/>
<path d="M90.2285 26.2514L99.8028 25.2369C99.8662 25.0467 99.9296 24.8565 99.993 24.6663L89.7213 25.7442C86.6144 26.0612 83.8246 28.9145 83.4441 32.0213L83.2539 33.7967L83.7611 33.8601L83.888 32.5286C84.3952 29.2315 87.1217 26.5684 90.2285 26.2514Z" fill="white"/>
<path d="M89.4682 32.4652C90.1656 32.5921 96.2526 33.6066 97.3939 33.8602C97.8377 33.9236 98.2182 34.1138 98.5352 34.3674C98.1548 33.8602 97.6475 33.4798 96.9501 33.3529C95.8088 33.0993 89.7218 32.0848 89.0243 31.958C89.0243 31.958 89.0243 31.958 88.9609 31.958C89.0243 32.275 89.2146 32.4652 89.4682 32.4652Z" fill="white"/>
<path d="M94.1609 37.8547L94.2877 36.9036C94.3511 36.5866 94.4145 36.2062 94.0975 36.1428L93.8439 36.0793C93.8439 36.1428 93.7171 37.3475 93.7171 37.3475C93.4 39.1862 92.6391 39.2496 87.8203 40.1373C85.9815 40.4543 80.3384 42.2297 79.0703 44.1319C79.3873 44.0685 79.7678 44.0685 80.0848 44.0051C81.9236 42.3565 86.6156 40.9616 88.2642 40.6446C93.083 39.7569 93.9073 39.6935 94.1609 37.8547Z" fill="white"/>
<path d="M36.5879 32.4019L36.6513 31.7678C33.7981 32.4019 31.3252 35.0649 31.0082 37.9816L29.6133 49.7117L30.1839 49.6482L31.5155 38.4888C31.8325 35.5722 33.9883 33.2262 36.5879 32.4019Z" fill="white"/>
<path d="M47.3668 31.0704L57.9556 29.929L58.019 29.3584L46.8596 30.4997C43.7527 30.8167 40.9629 33.67 40.5824 36.7769L39.1875 48.507L39.7581 48.4435L41.0897 37.2841C41.4701 34.2406 44.3234 31.3874 47.3668 31.0704Z" fill="white"/>
<path d="M53.0094 33.3529C52.946 33.2895 52.8192 33.2261 52.6924 33.1627C52.6924 33.2261 52.6924 33.2895 52.6924 33.3529L50.9805 47.3656L51.5511 47.3022L53.1997 33.7968C53.1997 33.67 53.1363 33.4798 53.0094 33.3529Z" fill="white"/>
<path d="M8.37229 50.1555L9.45018 41.7225C9.76721 38.996 11.9864 36.4598 14.5861 35.6355C14.6495 35.1917 14.6495 35.0015 14.6495 35.0015C11.7962 35.6355 9.32337 38.2986 9.00634 41.2152L7.92845 49.6482C6.53352 49.775 5.01178 49.8384 4.1875 49.7116C4.37772 49.9018 4.63134 50.1555 4.69475 50.2189C5.45562 50.4091 6.91395 50.2823 8.37229 50.1555Z" fill="white"/>
<path d="M10.5294 28.3438L23.908 26.9489C24.9859 26.8221 25.8736 27.0757 26.6345 27.7098C26.571 27.583 26.5076 27.5196 26.3808 27.4562C25.6834 26.6953 24.6055 26.3783 23.4642 26.5051L10.0855 27.9C3.49133 28.5975 2.73047 34.9381 2.73047 34.9381C2.73047 34.9381 2.98408 34.5576 3.55474 34.0504C4.18879 32.1482 5.90075 28.8511 10.5294 28.3438Z" fill="white"/>
<path d="M14.3955 49.458C15.727 49.3312 20.0386 48.8874 20.6093 44.9562C20.6093 44.9562 21.814 33.9236 21.8774 33.7334C22.0042 32.7189 22.131 31.7678 21.6237 31.1972C21.5603 31.1338 21.4335 31.007 21.3701 31.007C21.6872 31.5776 21.5603 32.4019 21.4335 33.2262C21.3701 33.4164 20.1654 44.449 20.1654 44.449C19.5948 48.3802 15.3466 48.824 13.9517 48.9508L13.5712 49.0142L13.5078 49.5849L14.3955 49.458Z" fill="white"/>
<path d="M73.9338 30.9435L72.8559 39.6935C72.5389 41.7859 71.3342 42.3566 70.5733 42.5468L66.4519 42.9906C66.3885 42.9906 66.3251 42.9906 66.2617 42.9906C66.2617 43.1174 66.3251 43.2442 66.4519 43.3076C66.5788 43.4344 66.769 43.4979 66.9592 43.4979L71.0806 43.054C71.778 42.9272 73.0461 42.3566 73.3632 40.2008L74.4411 31.4508C74.4411 31.2605 74.3777 31.0703 74.2509 30.9435C74.1874 30.8801 74.0606 30.8167 73.9338 30.7533C73.9338 30.8167 73.9338 30.8801 73.9338 30.9435Z" fill="white"/>
<path d="M68.6724 28.7243L79.2612 27.583L79.3246 27.0123L68.1652 28.1536C65.0583 28.4707 62.2684 31.3239 61.888 34.4308L60.4297 46.1609L61.0003 46.0975L62.3319 34.9381C62.7757 31.8312 65.5656 29.0413 68.6724 28.7243Z" fill="white"/>
</svg>
