<svg width="70" height="70" viewBox="0 0 70 70" fill="none" xmlns="http://www.w3.org/2000/svg">
<path d="M7 6.32417C19.2225 10.646 25.977 8.40506 34.2594 0.00146484C42.5417 8.16495 52.2715 10.1658 63.0466 6.4042L63.127 43.1399C63.127 79.1553 7.32164 78.6751 7 43.38L7 6.32417Z" fill="#003A56"/>
<path d="M9.97656 9.76573C19.3847 12.4869 27.0237 11.6065 34.3411 4.16333C41.8194 11.5265 51.4687 12.5669 60.1531 9.76573V42.8199C60.1531 75.3138 10.2178 74.5134 9.97656 42.9799V9.76573Z" fill="white"/>
<path d="M9.97656 9.76562L34.1803 46.5814L60.1531 9.76562V42.8198C60.1531 75.3937 9.97656 75.2336 9.97656 42.9798V9.76562Z" fill="#96A8A7"/>
<path d="M57.4958 51.3034L56.2092 51.0633L53.7969 51.3834L53.9577 50.5831L55.5659 50.423L54.1989 49.5427L54.4402 48.7423L56.37 50.263L57.6566 50.5831L57.4958 51.3034Z" fill="white"/>
<path d="M56.21 54.4247L53.5564 53.0641L53.1543 53.7844L52.6719 53.5443L53.7172 51.3834L54.1997 51.6235L53.878 52.3438L56.612 53.7044L56.21 54.4247Z" fill="white"/>
<path d="M52.3592 53.93L51.9766 54.5414L55.0479 56.4455L55.4306 55.8341L52.3592 53.93Z" fill="white"/>
<path d="M52.1903 58.2664L52.6727 57.6261L52.7531 57.7062C52.914 57.7862 53.0748 57.8662 53.0748 57.8662C53.1552 57.8662 53.316 57.8662 53.3964 57.7062C53.4768 57.6261 53.4768 57.4661 53.4768 57.386C53.4768 57.306 53.3964 57.1459 53.316 57.1459C53.2356 57.0659 52.914 57.0659 52.5923 57.1459H52.5119C52.3511 57.226 52.1903 57.226 52.1098 57.306C52.0294 57.306 51.8686 57.386 51.7882 57.386C51.6274 57.386 51.4666 57.386 51.3861 57.386C51.2253 57.306 51.1449 57.226 50.9841 57.1459C50.7429 56.9859 50.582 56.7457 50.582 56.5056C50.582 56.1855 50.6624 55.9454 50.8233 55.7053C51.0645 55.4652 51.3057 55.3051 51.547 55.2251C51.7882 55.2251 52.0294 55.3051 52.2707 55.4652L52.3511 55.5452L52.0294 56.1855C51.8686 56.1055 51.7882 56.0254 51.6274 56.0254C51.547 56.0254 51.3861 56.1055 51.3057 56.1855C51.2253 56.2655 51.2253 56.3456 51.2253 56.4256C51.2253 56.5056 51.3057 56.6657 51.3861 56.6657C51.547 56.7458 51.8686 56.7457 52.2707 56.5857C52.3511 56.5857 52.5119 56.5056 52.5119 56.5056C52.7531 56.4256 52.9944 56.3456 53.1552 56.4256C53.316 56.4256 53.4768 56.5056 53.6377 56.5857C53.9593 56.8258 54.0397 57.0659 54.1201 57.306C54.1201 57.5461 54.0397 57.8662 53.7181 58.1864C53.4768 58.5065 53.2356 58.6666 52.9944 58.6666C52.7531 58.7466 52.5119 58.5865 52.2707 58.4265C52.2707 58.4265 52.1903 58.4265 52.1903 58.3464C52.1903 58.2664 52.1903 58.3464 52.1903 58.2664Z" fill="white"/>
<path d="M52.112 59.3068C52.0316 59.2267 51.9512 59.1467 51.7904 58.9866C51.7904 58.9866 51.7904 58.9866 51.71 58.9066L51.6296 58.8265C51.3883 58.5864 51.2275 58.4264 51.1471 58.4264C51.0667 58.4264 50.9059 58.4264 50.6646 58.5064C50.745 58.3463 50.8254 58.1863 50.8254 58.0262C50.8254 57.8661 50.6646 57.7061 50.5038 57.466C50.2626 57.2259 50.0213 57.0658 49.7801 57.0658C49.6193 57.0658 49.2976 57.2259 48.976 57.466L48.1719 58.1863L50.5842 60.9074L51.1471 60.4272L50.1822 59.3068L50.4234 59.1467C50.5038 59.0666 50.6646 58.9866 50.745 58.9866C50.8254 58.9866 50.9863 59.0666 51.0667 59.2267C51.0667 59.2267 51.1471 59.3068 51.2275 59.4668C51.4687 59.7069 51.6296 59.867 51.71 59.947L52.3533 59.4668C52.3533 59.3868 52.1924 59.3868 52.112 59.3068ZM50.0213 58.8265L49.8605 58.9066L49.2172 58.1863L49.378 58.1062C49.5389 57.9462 49.6997 57.8661 49.7801 57.8661C49.8605 57.8661 50.0213 57.9462 50.1017 58.1062C50.1822 58.2663 50.2626 58.3463 50.2626 58.5064C50.2626 58.5864 50.1822 58.6665 50.0213 58.8265Z" fill="white"/>
<path d="M48.2518 62.5081L46.4023 59.3868L48.091 58.4264L48.3322 58.9066L47.3673 59.4668L47.7693 60.2672L48.7343 59.7069L48.9755 60.1071L48.091 60.6674L48.6539 61.6278L49.6992 60.9875L49.9404 61.4677L48.2518 62.5081Z" fill="white"/>
<path d="M45.9983 63.6286L43.5859 60.7474L44.3096 60.4273L45.4354 61.9479C45.6766 62.188 45.8374 62.3481 45.8374 62.5081C45.9179 62.6682 46.0787 62.8283 46.1591 62.9083C46.0787 62.6682 45.9983 62.5081 45.9179 62.268C45.8375 62.108 45.8374 61.8679 45.8374 61.7078L45.355 59.867L46.0787 59.5469L46.8024 63.2284L45.9983 63.6286Z" fill="white"/>
<path d="M43.7485 64.349L42.7031 60.9875L43.3464 60.7474L44.4722 64.1889L43.7485 64.349Z" fill="white"/>
<path d="M40.2104 65.3095L39.4062 61.788L40.4516 61.5479L41.4969 63.2286C41.6578 63.3887 41.7382 63.6288 41.8186 63.7888C41.899 63.9489 42.0598 64.189 42.1402 64.3491C42.1402 64.189 42.0598 64.0289 41.9794 63.8689C41.899 63.7088 41.899 63.5487 41.8186 63.3086L41.3361 61.3078L42.0598 61.1477L42.8639 64.6692L41.899 64.9093L40.6928 63.2286C40.6124 63.1486 40.4516 62.9085 40.3712 62.7484C40.2908 62.5883 40.1299 62.3482 40.0495 62.1081C40.0495 62.3482 40.13 62.5083 40.2104 62.6684C40.2104 62.8284 40.2908 62.9885 40.2908 63.0685L40.8536 65.1494L40.2104 65.3095Z" fill="white"/>
<path d="M38.9224 61.868L39.0833 64.109C39.1637 64.5892 39.0833 64.9893 38.9224 65.2294C38.6812 65.4695 38.44 65.6296 37.9575 65.6296C37.5554 65.6296 37.2338 65.6296 36.9926 65.3895C36.8317 65.1494 36.6709 64.9093 36.6709 64.4291L36.4297 62.0281L37.1534 61.948L37.3946 64.109C37.3946 64.5091 37.475 64.8293 37.5554 64.8293C37.6359 64.9093 37.7967 64.9893 37.9575 64.9893C38.1183 64.9893 38.2791 64.9093 38.2791 64.7492C38.2791 64.5892 38.3596 64.3491 38.2791 63.9489L38.1183 61.788L38.9224 61.868Z" fill="white"/>
<path d="M28.4688 65.1494L28.8708 61.5479L29.9966 61.7079L30.2378 63.9489C30.2378 64.0289 30.3182 64.1089 30.3182 64.269C30.3182 64.3491 30.3182 64.5892 30.3182 64.7492C30.3182 64.6692 30.3986 64.5091 30.3986 64.349C30.3986 64.269 30.479 64.1089 30.479 63.9489L31.2027 61.788L32.4089 61.868L32.0068 65.4695L31.2831 65.3895L31.6048 62.9084C31.6048 62.7484 31.6048 62.5883 31.6852 62.4282C31.6852 62.2682 31.7656 62.1881 31.7656 62.0281L30.6398 65.2294L29.9161 65.1494L29.5141 61.868C29.5141 62.1081 29.5141 62.4282 29.4337 62.7484L29.1924 65.1494H28.4688Z" fill="white"/>
<path d="M27.5038 60.9075L25.1719 63.7887L25.8956 64.1088L26.378 63.3885L27.343 63.7887L27.2626 64.589L27.9863 64.9092L28.4687 61.2276L27.5038 60.9075ZM27.4234 63.1484L26.6997 62.8283L27.6646 61.5477L27.4234 63.1484Z" fill="white"/>
<path d="M22.4375 62.3481L24.287 59.2268L25.1715 59.707L24.7694 61.6278C24.7694 61.8679 24.689 62.108 24.6086 62.2681C24.5282 62.4282 24.5282 62.6683 24.4478 62.9084C24.5282 62.7483 24.6086 62.5882 24.689 62.5082C24.7694 62.3481 24.8498 62.1881 24.9302 62.028L25.9756 60.2673L26.5385 60.5874L24.689 63.7087L23.8849 63.1485L24.287 61.0676C24.3674 60.9075 24.3674 60.7475 24.3674 60.5074C24.4478 60.3473 24.4478 60.0271 24.5282 59.787C24.4478 59.9471 24.287 60.1872 24.2065 60.3473C24.1261 60.5074 24.0457 60.6674 24.0457 60.7475L23.0808 62.6683L22.4375 62.3481Z" fill="white"/>
<path d="M22.9212 60.5873L21.7955 62.028C21.5543 61.9479 21.313 61.8679 21.2326 61.7078C21.0718 61.6278 20.9914 61.5478 20.8306 61.4677C20.6697 61.3077 20.5089 61.2276 20.4285 61.0676C20.3481 60.9075 20.1873 60.8275 20.2677 60.6674C20.1873 60.4273 20.2677 60.1872 20.3481 60.0271C20.4285 59.787 20.6697 59.4669 20.9914 58.9867C21.2326 58.6665 21.3934 58.5065 21.5543 58.3464C21.7151 58.1863 21.8759 58.1063 21.9563 58.1063C22.1171 58.0263 22.278 58.0263 22.5192 58.1063C22.68 58.1863 22.9213 58.2664 23.0821 58.4264C23.4037 58.6665 23.5645 58.9066 23.645 59.1467C23.7254 59.4669 23.645 59.707 23.4037 60.0271L22.7604 59.5469C22.9213 59.3868 23.0017 59.2268 22.9212 59.0667C22.9212 58.9867 22.8408 58.8266 22.7604 58.7466C22.5996 58.6665 22.4388 58.5865 22.278 58.7466C22.1171 58.8266 21.8759 59.1467 21.5543 59.5469C21.1522 60.0271 20.9914 60.3472 20.911 60.5073C20.911 60.6674 20.9914 60.8275 21.1522 60.9875C21.2326 60.9875 21.2326 61.0676 21.313 61.0676C21.313 61.1476 21.4738 61.1476 21.4738 61.1476L21.9563 60.5073L21.6347 60.2672L21.9563 59.787L22.9212 60.5873Z" fill="white"/>
<path d="M17.2109 58.3464L19.8645 55.8654L20.5882 56.5857L19.6233 58.3464C19.5429 58.5065 19.4624 58.7466 19.3016 58.9067C19.2212 59.0667 19.0604 59.3068 18.98 59.4669C19.0604 59.3068 19.1408 59.2268 19.3016 59.0667C19.4624 58.9067 19.5429 58.7466 19.7037 58.6666L21.2315 57.2259L21.714 57.7061L19.0604 60.2672L18.3367 59.5469L19.3016 57.6261C19.382 57.5461 19.4624 57.306 19.5429 57.1459C19.6233 56.9858 19.7841 56.7457 19.9449 56.5056C19.7841 56.6657 19.6233 56.8258 19.5429 56.9058C19.382 56.9858 19.3016 57.1459 19.2212 57.2259L17.6934 58.7466L17.2109 58.3464Z" fill="white"/>
<path d="M19.465 55.5453L17.6959 56.9059C17.2939 57.226 16.9722 57.3861 16.6506 57.306C16.4093 57.306 16.0877 57.0659 15.8465 56.7458C15.6052 56.4257 15.4444 56.1055 15.5248 55.7854C15.6052 55.5453 15.7661 55.2251 16.0877 54.985L17.9372 53.5444L18.4196 54.1847L16.6506 55.5453C16.3289 55.7854 16.1681 55.9455 16.0877 56.1055C16.0877 56.1856 16.0877 56.3456 16.1681 56.5057C16.2485 56.6658 16.4093 56.7458 16.4898 56.7458C16.6506 56.7458 16.8918 56.5857 17.2135 56.3456L18.9021 54.985L19.465 55.5453Z" fill="white"/>
<path d="M13.7539 53.5443L15.0405 52.9841L16.6487 51.1433L16.9704 51.8636L15.8446 52.9841L17.4528 52.824L17.7745 53.5443L15.2817 53.6244L14.156 54.2646L13.7539 53.5443Z" fill="white"/>
<path d="M12.4688 49.4627L16.0068 48.5823L16.1677 49.3026L14.6399 49.7028L16.4089 50.263L16.5697 50.9833L14.7203 50.4231L13.0316 51.8637L12.8708 50.9833L14.3182 49.7828L12.6296 50.183L12.4688 49.4627Z" fill="white"/>
<path d="M27.7461 13.2072H41.2552V17.6891H43.5067V20.4102H41.3356V23.4515H43.5871V26.0927H41.3356V30.4145H38.4408V16.0884H27.7461V13.2072Z" fill="#003A56"/>
<path d="M30.8033 17.689V32.1752H41.4176V35.2965H27.8281V17.689H30.8033Z" fill="#003A56"/>
<path d="M42.7013 38.2578L44.5507 36.257C47.2847 38.738 48.9734 42.2595 48.9734 46.1012C48.9734 53.6244 42.5405 59.707 34.7406 59.707C26.8603 59.707 20.5078 53.6244 20.5078 46.1012C20.5078 42.3396 22.116 38.8981 24.6892 36.4971L26.5386 38.4179C24.5284 40.4187 23.2418 43.1399 23.2418 46.1012C23.2418 52.1037 28.3881 57.0659 34.6602 57.0659C40.9322 57.0659 46.0786 52.1037 46.0786 46.1012C46.159 43.1399 44.8724 40.3387 42.7013 38.2578Z" fill="#003A56"/>
</svg>
