<svg width="71" height="70" viewBox="0 0 71 70" fill="none" xmlns="http://www.w3.org/2000/svg">
<g clip-path="url(#clip0_2521_55351)">
<path d="M69.4835 32.9526C69.0191 32.9216 68.6166 33.2312 68.2451 33.5097L67.9046 33.7574L66.3566 34.6551L64.9015 35.5218C64.0656 35.9242 63.3535 36.1718 62.6724 36.3885L62.208 36.5433C62.0841 36.6052 61.9913 36.6671 61.7745 36.698H61.7436V36.729C61.7126 36.698 61.6507 36.6671 61.6507 36.6671L61.5888 36.6052C61.3411 36.4504 61.2792 36.1099 61.2792 35.6765C61.2792 35.4289 61.3101 35.1194 61.3411 34.8717C61.3721 34.5931 61.3721 34.3455 61.3721 34.0979C61.3721 33.9741 61.3721 33.8812 61.3411 33.7883C61.6197 33.6955 61.6817 33.0454 61.7126 32.4573C61.7436 32.2097 61.7436 31.962 61.7745 31.8692C61.8365 31.7144 61.9913 31.5906 62.1461 31.4668L62.177 31.4358V31.3739C62.177 31.3739 62.177 31.0025 62.177 30.9715C62.4247 30.6929 62.7652 29.5167 62.7652 29.5167C62.7962 29.4547 62.7962 29.3928 62.7962 29.3309C62.7962 29.269 62.7962 29.1762 62.7652 29.1142C62.8581 29.0833 62.8891 28.9904 62.8891 28.9285L62.92 28.8666V28.8047H62.951L63.1058 28.7428C63.1058 28.7428 63.0748 28.7118 63.0748 28.6809C63.0748 28.6499 63.2296 28.3404 63.2606 28.2785C63.2916 28.2785 63.3225 28.2475 63.3535 28.2166L63.3844 28.1547L63.3535 28.0928C63.4464 28.0308 63.5392 27.907 63.6321 27.7832L63.725 27.6284L64.0965 27.2879C64.3132 27.0713 64.53 26.8546 64.7157 26.607L64.9015 26.1426L64.9944 25.926L65.1182 25.7712C65.273 25.5855 65.4278 25.3688 65.4278 25.0902C65.4278 25.0592 65.4278 25.0283 65.4278 24.9973C65.3659 24.564 64.9944 24.4092 64.6848 24.2854L64.6228 24.2544V24.1616H64.53H64.468C64.3752 24.1616 64.2823 24.1616 64.2513 24.1306C64.3442 24.0068 64.4061 23.852 64.4061 23.6973C64.468 23.6973 64.499 23.6663 64.5609 23.6044L64.6848 23.4806L64.499 23.4496V23.4187L64.468 23.3258H64.4061L64.1275 23.2949L64.0346 23.5734C63.9417 23.5425 63.9108 23.5115 63.8488 23.3877L63.8179 23.3568H63.725V23.2949L63.6012 23.2329C63.6321 23.202 63.6321 23.171 63.6321 23.171L63.5083 23.1401V23.1091C63.5083 23.0782 63.5083 23.0472 63.5083 23.0163C63.5083 22.9853 63.5083 22.9544 63.4773 22.9234L63.4154 22.8924C63.3844 22.7996 63.3225 22.7686 63.2916 22.7377H63.2606L63.2916 22.6448L63.1987 22.6139C63.1058 22.6139 62.982 22.5519 62.8272 22.49C62.5176 22.3662 62.177 22.2424 61.9293 22.3972C61.8055 22.4591 61.7436 22.6139 61.7126 22.7686C61.6817 22.7686 61.6197 22.7377 61.5888 22.7067C61.5888 22.7067 61.5578 22.6758 61.5269 22.6448C61.5269 22.6139 61.4959 22.5829 61.4959 22.5829L61.3721 22.5519H61.2482V22.6448C61.2173 22.9544 61.1553 23.0163 60.9386 23.1401L60.7219 23.2639C60.7219 23.2639 60.8457 23.2639 60.9077 23.2949L60.8767 23.3258L60.7529 23.5425C60.4123 24.1616 60.1027 24.7807 60.1027 25.1211C60.1027 25.1521 60.1027 25.1831 60.1337 25.214C60.0408 25.214 59.7931 25.1831 59.7931 25.1831V25.2759C59.7312 25.8641 59.5764 26.0807 59.2978 26.4212L59.081 26.7308L58.8024 27.257L58.7095 27.4427C58.4928 27.7213 58.338 28.0618 58.1832 28.3713C58.0284 28.6809 57.9046 28.9904 57.6879 29.269L57.2544 29.7024C57.0996 29.9191 56.9448 30.1976 56.821 30.5072C56.6352 30.8786 56.4804 31.2501 56.2637 31.4668L56.2327 31.4977L55.9541 31.7144C55.4897 32.1478 54.8396 32.8288 54.6228 33.5097L54.53 33.5407C53.756 34.036 53.0439 34.8717 52.4247 35.5837L52.177 35.8623L51.8674 36.2647L51.7745 36.3885L51.403 36.6361C51.2482 36.729 51.0934 36.8218 50.9386 37.0076L50.5671 37.5028L50.5052 37.5647C50.4123 37.6576 50.2266 37.6267 50.0408 37.6267C49.855 37.5957 49.7002 37.5957 49.5454 37.6886C49.7002 36.5433 49.9789 35.6146 50.4742 34.5622C50.5052 34.5622 50.5361 34.5312 50.5671 34.5312L50.5981 34.4693C50.5981 34.4384 50.5981 34.4074 50.5671 34.3765V34.3455C50.5671 34.3146 50.5671 34.2836 50.5671 34.2526C50.5671 33.8193 50.9386 32.7978 51.1553 32.3644L51.1863 32.3025L51.1244 32.2716L51.1553 32.2406L51.2173 32.1168L51.2792 31.7454L51.3411 31.312C51.434 30.7858 51.6507 29.7643 52.0222 29.0523H52.1461V28.9285V28.8666C52.1461 28.7737 52.1151 28.6809 52.1151 28.588C52.1151 28.2475 52.208 27.907 52.3628 27.5665H52.4866L52.4557 27.3808C52.2699 26.6689 51.5578 25.5545 50.5052 25.5545C49.2049 25.5545 47.8736 28.8357 47.6259 30.0119C47.564 30.0119 47.3783 30.0429 47.3783 30.0429H47.3163V30.1048C47.2854 30.3834 47.1925 30.6 47.0687 30.8477L46.9139 31.2191L46.4804 32.3335L46.2327 32.9526L46.3256 32.9835C46.3256 32.9835 46.4495 33.0145 46.5423 33.0454C46.4495 33.0454 46.1708 33.0145 46.1708 33.0145V33.1073C46.1399 33.324 46.047 33.5407 45.9541 33.7264L45.8303 34.036L45.7993 34.1598L45.7064 34.7479L45.5207 35.0884L45.4278 35.2741C45.273 35.6765 45.2111 36.048 45.1492 36.4814L45.0872 36.9147L45.0253 37.2243C44.9634 37.5338 44.9015 37.8433 44.9015 38.1529C44.9015 38.4624 44.9634 38.741 45.1801 39.0196V39.0506L44.8396 38.9577L44.8086 39.2053L44.8705 39.2363C44.8705 39.2363 44.9634 39.2672 45.0253 39.2982C45.0253 39.422 44.9944 39.5768 44.9944 39.7006C44.9944 40.4435 45.2111 41.0626 45.7064 41.6507L45.8612 41.8364C46.016 41.9912 46.1089 42.146 46.2018 42.3627L46.2327 42.4246L47.1925 42.4865V42.4555C47.2854 42.4865 47.7807 42.6722 47.7807 42.6722H47.8117L48.2761 42.6103C48.6786 42.5793 49.112 42.5484 49.3287 42.3936C49.3597 42.3936 49.3597 42.3936 49.4216 42.3936V42.4555V42.6103H49.5145C49.9479 42.6412 50.2266 42.3936 50.4742 42.1769L50.7838 41.9293V41.8983V41.8364C50.7838 41.7436 50.7529 41.6817 50.7219 41.6198C50.7838 41.6198 50.8457 41.5578 50.9696 41.5269L51.1244 41.434V41.4031L51.0934 41.2793L51.0315 41.2483C51.1863 41.2483 51.3411 41.1864 51.434 41.1554C51.5888 41.0935 51.6507 41.0007 51.7436 40.9388L51.9293 40.784L52.3318 40.5673C52.7033 40.3816 53.1058 40.1649 53.3225 39.7935C53.3844 39.7625 53.4773 39.7006 53.725 39.422L53.756 39.391V39.3291C53.8179 39.2982 53.8488 39.2363 53.8798 39.2053L53.9108 39.1434C54.4061 39.0196 54.7467 38.4934 55.0563 37.9672C55.273 37.6267 55.4897 37.2862 55.7374 37.0695L55.7683 37.0385V37.0076H55.8303V36.9147V36.8218L55.7683 36.7599L55.7374 36.729C55.7064 36.698 55.6445 36.6671 55.6136 36.6361C55.8612 36.5742 56.1089 36.3885 56.2018 36.1718C56.2327 36.1099 56.2327 36.017 56.2327 35.9551C56.2327 35.8623 56.2018 35.8004 56.1708 35.7075C56.2018 35.7075 56.5423 35.6765 56.5733 35.6765C56.6043 35.7385 56.6352 35.8313 56.6662 35.9242C56.7281 36.1718 56.8519 36.4814 57.0996 36.6671C57.0687 36.6671 56.9139 36.6671 56.9139 36.6671V36.729H56.8519V36.8218C56.8519 36.8528 56.8519 36.8838 56.8519 36.9147C56.8519 37.3481 57.1615 37.7505 57.5021 37.9052V37.9362H57.4711L57.4402 37.9981C57.4402 38.091 57.5331 38.2148 57.6259 38.3696C57.7188 38.5243 57.8736 38.741 57.8736 38.8958V38.9267L57.8427 38.9577V38.9886C57.8427 39.0815 57.9974 39.2363 58.8953 39.8863L58.9882 39.9482L59.1739 40.1959C59.2358 40.2887 59.3287 40.3816 59.4216 40.4744C59.3906 40.5054 59.3597 40.5673 59.3287 40.5983L59.1739 40.8149H59.3597C59.4526 40.8149 59.6693 40.9697 59.8241 41.0935C60.0098 41.2173 60.1646 41.3412 60.2885 41.3721L60.3814 41.4031L60.4433 40.9388C60.5361 40.9388 61.0005 40.9697 61.0005 40.9697L61.1244 40.9388L61.1553 40.8149C61.2173 40.8459 61.3101 40.9078 61.3721 40.9697L61.7436 41.2483V41.0935C61.9293 41.0626 62.0532 40.9388 62.1461 40.8459C62.208 40.8459 62.3937 40.8459 62.3937 40.8459C63.1058 40.8769 63.3535 40.5364 63.6631 40.072L63.7869 39.8863L63.8179 39.7006H63.725H63.6631L63.6321 39.6696C63.5702 39.6387 63.5392 39.6696 63.4773 39.7006H63.4154C63.4154 39.6696 63.4464 39.5768 63.6012 39.3291C63.6321 39.3291 63.9108 39.422 63.9108 39.422V39.3291V39.2982C63.9727 39.2672 64.0965 39.3291 64.2204 39.422C64.2204 39.453 64.2204 39.4839 64.2513 39.5149C64.3132 39.5458 64.3752 39.5458 64.4371 39.5458C64.468 39.6077 64.499 39.6696 64.53 39.7006C64.53 39.7315 64.53 39.7625 64.5609 39.7935C64.5919 39.8244 64.6538 39.8244 64.6848 39.8244H64.8086L64.8396 39.7625V39.6696L64.8086 39.6077L64.7467 39.5768C64.7467 39.5458 64.7467 39.5458 64.7467 39.5149L64.7776 39.4839L64.8086 39.422C64.8396 39.422 64.9634 39.422 64.9634 39.422C65.0253 39.422 65.0872 39.3911 65.1182 39.3601C65.1492 39.3601 65.4588 39.2982 65.4588 39.2982V39.1434L65.4897 39.1744V39.2053V39.2363C65.5207 39.2053 65.6445 39.1125 66.2018 38.8029L66.2327 38.772H66.3566V38.6791L66.3875 38.4934H66.2637C66.2637 38.4934 65.9231 38.5243 65.8612 38.5243L65.8922 38.4005V38.3696C65.8922 38.3077 65.8612 38.2767 65.8612 38.2457C65.7993 38.1838 65.7374 38.1838 65.6445 38.1838V38.1529C65.6445 38.1529 65.6445 38.06 65.6755 37.9981C66.016 37.9672 66.3875 37.6267 66.5423 37.41H66.6352L66.6662 37.0695H66.6043L66.6352 36.9766H66.6662L66.7591 36.9457L67.0996 36.7909C67.5331 36.6052 67.8117 36.4814 67.8736 36.3575L68.2761 35.4289C68.3999 35.2741 69.0191 34.7479 69.2049 34.717H69.2668V34.6551V34.6241C69.2668 34.5003 69.143 34.3455 69.0501 34.1907C69.0501 34.1907 69.0191 34.1288 68.9882 34.0979C69.0191 34.0669 69.0501 34.005 69.081 33.9431C69.2049 33.7264 69.5145 33.2312 69.6074 33.2002L69.6383 33.1692L69.6693 32.8907L69.4835 32.9526Z" fill="#006DB5"/>
<path d="M69.8874 15.4015H54.9648V30.8786H70.4447V15.4015H69.8874ZM69.3611 16.4539C69.3611 17.4135 69.3611 28.8356 69.3611 29.7952C68.4014 29.7952 56.9772 29.7952 56.0175 29.7952C56.0175 28.8356 56.0175 17.4135 56.0175 16.4539C56.9463 16.4539 68.4014 16.4539 69.3611 16.4539Z" fill="#E51F1F"/>
<path d="M15.4295 28.1236C14.9342 27.9998 14.284 27.876 13.8506 27.8141L13.8196 27.845L13.6339 27.9689V27.9998C13.572 27.9998 13.4791 27.9998 13.4172 28.0308H13.3552L13.0456 27.9689C12.9837 27.9689 12.8908 28.0308 12.798 28.0927H12.767L12.6432 27.9379L12.6122 28.0617V28.0927H12.5812C12.5812 28.0617 12.5193 28.0617 12.3336 28.2474C12.3026 28.2165 12.1788 28.1855 12.1788 28.1855V28.2165C12.1478 28.2474 12.024 28.2784 11.993 28.3094C11.962 28.3094 11.962 28.3094 11.9311 28.3403L11.8692 28.3094H11.8073L11.7763 28.3403C11.7763 28.3403 11.6525 28.526 11.6215 28.557V28.4641L11.4357 28.4332L11.4048 28.557H11.3738V28.5879L11.219 28.4951V28.557C11.219 28.5879 11.1881 28.6189 10.9404 28.7118H10.9094V28.7427C10.9094 28.7737 10.8475 28.8046 10.8165 28.8356L10.6308 28.9284C10.4141 28.9284 10.2283 28.9903 10.0425 29.0832L9.76391 29.1761V29.207C9.70199 29.3618 9.64007 29.6094 9.51623 29.7332L9.45431 29.6713L9.48527 29.5785H9.42335C9.33047 29.5475 9.23759 29.7023 9.20663 29.8571V29.8261H9.14471V29.7952H9.08279C9.02087 29.7952 8.98991 29.8261 8.95895 29.8571V29.7642H8.89703C8.83511 29.7642 8.68032 29.8261 8.33976 29.9809L7.9992 30.1357V30.1666C7.96824 30.2904 7.8444 30.3833 7.75152 30.4762C7.65864 30.569 7.56576 30.6309 7.50384 30.7547C7.28713 30.7238 7.16329 30.7547 6.97753 30.9714L6.91561 30.9405C6.88465 30.9714 6.88465 31.0024 6.88465 31.0643C6.88465 31.0952 6.88465 31.1262 6.88465 31.1571C6.85369 31.1571 6.82273 31.1571 6.82273 31.1571L6.85369 31.25V31.281C6.85369 31.3119 6.82273 31.3119 6.76081 31.3119H6.72985C6.76081 31.281 6.76081 31.2191 6.76081 31.2191L6.63697 31.1881C6.63697 31.2191 6.54409 31.281 6.48217 31.3429L6.17258 31.6215L6.42025 31.5595H6.45121C6.45121 31.5905 6.42025 31.6834 6.42025 31.7143C6.17258 31.8381 5.55338 32.581 5.55338 32.581L5.52242 32.7358C5.52242 32.7358 5.49146 32.7977 5.4605 32.8596C5.42954 32.8596 5.33666 32.8906 5.1509 33.0454V33.0144L5.08898 32.9834C4.99611 32.9525 4.96515 33.0454 4.93419 33.1073L4.87227 33.3239C4.81035 33.5716 4.77939 33.6025 4.50075 33.7573L4.46979 33.5406L4.37691 33.7263C4.37691 33.7263 4.16019 34.0978 4.16019 34.1288L3.94347 33.943C3.88155 33.974 3.88155 34.0359 3.85059 34.0978H3.78868V34.1288H3.75772L3.72676 34.1597L3.541 34.4692L3.35524 34.8407L3.13852 35.0883C2.95276 35.336 2.73604 35.5836 2.67412 35.8931C2.42645 35.955 2.20973 36.8218 1.49765 38.0599L1.06422 38.7719L1.03326 38.9267C1.03326 38.9886 1.03326 38.9886 0.940378 39.0505H0.909418V39.0814C0.847499 39.3291 0.785579 39.4529 0.630781 39.6386L0.599821 39.7005L0.568861 39.7624H0.599821C0.568861 39.7934 0.475982 40.0101 0.475982 40.0101V40.072C0.475982 40.1339 0.506942 40.1958 0.537901 40.2267L0.599821 40.3196L0.66174 40.3505H0.6927C0.599821 40.5672 0.506942 40.753 0.506942 40.9077C0.506942 40.9696 0.506942 41.0006 0.537901 41.0315C0.568861 41.0935 0.630781 41.1244 0.6927 41.1554C0.630781 41.3101 0.537901 41.5578 0.537901 41.7125H0.568861L0.537901 41.8054L0.599821 41.8364L0.72366 41.8673C0.72366 41.9292 0.6927 42.1459 0.6927 42.1459H0.72366C0.72366 42.2388 0.72366 42.2388 0.72366 42.3007C0.72366 42.3316 0.72366 42.4245 0.75462 42.5483L0.72366 42.5173L0.599821 42.9507L0.568861 43.0745V43.6007C0.568861 43.7246 0.506942 43.8484 0.414062 43.9412V44.0032L0.445022 44.0341L0.475982 44.096V44.1579L0.445022 44.2508L0.599821 44.2198C0.72366 44.1889 0.909418 44.4675 1.0023 44.6222C1.0023 44.6222 1.03326 44.6841 1.06422 44.7151L0.971338 44.777V44.808C0.971338 44.8389 1.0023 44.8389 1.0023 44.8699V44.9318H1.03326C1.03326 44.9627 1.0023 45.1175 1.0023 45.1485V45.1794H1.12614L1.09518 45.2104H1.06422L1.12614 45.427H1.1571V45.458L1.18806 45.5199C1.34285 45.6747 1.40477 45.7985 1.40477 45.9533C1.40477 46.0771 1.37381 46.2319 1.3119 46.4485V46.5104L1.28094 46.5414L1.24998 46.5723C1.21902 46.6343 1.09518 46.789 1.09518 46.789V46.82V46.9128L1.1571 46.9438C1.28094 46.9748 1.3119 46.8509 1.34285 46.7581C1.37381 46.789 1.40477 46.789 1.43573 46.82L1.46669 46.8819L1.49765 46.8509C1.49765 46.8509 1.55957 46.82 1.59053 46.82L1.46669 46.9748V47.0057L1.52861 47.0367C1.52861 47.0367 1.55957 47.0986 1.55957 47.1605C1.55957 47.1914 1.55957 47.2533 1.52861 47.3153V47.3772C1.52861 47.47 1.59053 47.5629 1.65245 47.6867L1.71437 47.7796H1.68341L1.65245 47.8105L1.83821 47.8415L1.86917 47.8105L1.93109 47.6867H1.99301C1.99301 47.6867 2.14781 47.7177 2.20973 47.7177L2.24069 47.8415H2.30261H2.64316V47.8105C2.67412 47.6867 2.70508 47.6557 2.79796 47.5938C2.82892 47.5938 2.85988 47.5938 2.85988 47.5938C2.9218 47.5938 2.9218 47.5938 2.95276 47.6248V47.6557C2.95276 47.7177 2.89084 47.8724 2.85988 47.9343L2.79796 48.0891H2.89084L2.98372 48.1201L3.01468 48.0891H3.04564L3.0766 48.0582L3.2314 47.8105L3.26236 47.7796L3.29332 47.8105V47.8415L3.20044 48.0272L3.16948 48.2748L3.2314 48.4606L3.32428 48.6772L3.29332 48.7391H3.32428L3.29332 48.832L3.3862 48.8011L3.541 48.7701C3.60292 48.7701 3.78868 48.7701 3.81963 48.832V48.863L3.97443 48.8939L4.00539 48.832C4.03635 48.7701 4.16019 48.7701 4.19115 48.8011C4.19115 48.8011 4.25307 48.832 4.28403 48.832L4.25307 48.8939H4.31499C4.37691 48.8939 4.40787 48.863 4.43883 48.832C4.46979 48.8939 4.53171 48.9249 4.62459 48.9868L4.68651 49.0487L4.77939 49.1106C4.99611 49.2035 5.18186 49.1416 5.36762 49.1106L5.58434 49.0796L5.67722 49.2344L5.70818 49.1106C5.73914 48.9868 5.89394 48.9558 6.11066 48.9558C6.20354 48.9868 6.29641 48.832 6.38929 48.6772L6.42025 48.6153C6.45121 48.6153 6.54409 48.5844 6.60601 48.5844V48.6153H6.66793C6.63697 48.6772 6.57505 48.8011 6.57505 48.8011C6.51313 48.9249 6.45121 49.0487 6.42025 49.2344V49.2963L6.57505 49.3273L6.60601 49.2654C6.63697 49.1725 6.72985 49.0487 6.82273 48.9558H6.85369L6.91561 49.1106L6.94657 49.1725L7.07041 49.2035L7.25617 48.8939V48.863C7.28713 48.863 7.44193 48.832 7.44193 48.832L7.62768 48.8011L8.03016 48.832L8.21592 48.7701C8.3088 48.7082 8.37072 48.7082 8.43264 48.7391L8.49456 48.8011L8.52552 48.7082C8.58744 48.6772 8.64936 48.6463 8.71128 48.6153L8.68032 48.6772L8.89703 48.7082V48.6772L8.95895 48.7082L9.08279 48.7701L9.11375 48.7082L9.14471 48.6153L9.08279 48.5844V48.5225L9.11375 48.5534L9.23759 48.6153L9.26855 48.5225C9.29951 48.4606 9.36143 48.3987 9.45431 48.3677C9.57815 48.3367 9.67103 48.3367 9.73295 48.3677L9.79487 48.4296L9.82583 48.3367C9.85679 48.2129 10.1045 48.151 10.2283 48.1201H10.2902L10.9094 47.9653H11.0023L11.0333 47.9343L11.0642 47.8415L11.0952 47.8105C11.1881 47.8105 11.5905 47.7486 11.7144 47.7177H11.7453L11.7763 47.6248C11.8382 47.6248 11.9001 47.5938 11.962 47.5938C12.0859 47.6248 12.2716 47.4391 12.3645 47.3153C12.4264 47.3462 12.4574 47.2843 12.5193 47.1914L12.5503 47.1605L13.7268 46.5723L13.7887 46.5104H13.8506V46.4485C13.8816 46.2938 13.9744 46.1699 14.0673 46.108C14.1912 46.0461 14.315 46.0461 14.4388 46.108L14.5317 46.139V46.0461C14.5317 45.9842 14.5627 45.5818 14.5936 45.5199C14.6555 45.458 14.7175 45.458 14.7794 45.427C14.8723 45.427 14.9651 45.3961 15.0271 45.3342L15.089 45.2413L15.1509 45.1485L15.3367 45.0865C15.4295 45.0556 15.5534 45.0246 15.6153 44.9318C15.7082 44.808 15.7391 44.6841 15.7701 44.5294L15.863 44.2508C15.9559 44.096 16.6679 43.6936 16.7918 43.7246L16.8537 43.7555V43.7246C17.0085 43.6317 17.5348 42.3316 17.5348 42.3007L17.8444 42.3316V42.3007C18.154 42.2388 18.4017 41.9911 18.6184 41.7435C18.8351 41.4959 18.959 41.0006 19.2066 40.9387H19.2686V40.8768V40.8458C19.2686 40.753 19.2376 40.691 19.2066 40.6601C19.1138 40.5982 18.959 40.6601 18.8661 40.691L18.7732 40.722V40.753C18.5565 40.7839 18.3398 40.8768 18.154 40.9696H18.0921C18.0302 40.9696 17.9373 41.0315 17.8754 41.0935L17.7825 41.1554L17.5658 41.2482V41.2173C17.5038 41.1863 17.4729 41.2482 17.4419 41.2792L17.411 41.3101C17.1014 41.5887 16.3274 42.1459 16.0487 42.1769H15.9868V42.2078H15.9249L15.8939 42.2388C15.863 42.2697 15.7082 42.3007 15.5843 42.3007H15.5534L15.5224 42.3626C15.4605 42.4554 14.7175 42.9507 14.5936 42.9198C14.5007 42.9198 14.4698 42.9507 14.4698 42.9817C14.4388 42.9817 14.3459 42.9507 14.3459 42.9507L14.315 43.0126C14.315 43.0745 14.1602 43.2293 13.2933 43.415H13.2004H13.1385L13.1076 43.446C13.0766 43.4769 12.9528 43.5388 12.8908 43.5698L12.767 43.6317V43.6627C12.736 43.6627 12.6741 43.6936 12.5503 43.7865C12.4574 43.8484 12.3026 43.9412 12.2716 43.9412H12.2407V43.9722C12.2097 43.9722 12.1478 44.0031 12.024 44.0341L11.7763 44.096L11.7453 44.127C11.4977 44.096 11.1261 44.2198 10.9094 44.3436C10.8785 44.3127 10.8475 44.3127 10.8165 44.3127H10.7856H10.7237L10.6927 44.3746C10.6927 44.3746 10.5998 44.3746 10.5689 44.3746H10.5069L10.4141 44.2508L10.3521 44.3436C10.3212 44.3746 10.1354 44.4365 10.0425 44.4675C10.0425 44.4675 9.85679 44.5294 9.79487 44.5603C9.79487 44.5603 9.76391 44.5603 9.73295 44.5603L9.70199 44.5294C9.64007 44.4984 9.60911 44.5603 9.54719 44.6222C9.51623 44.5913 9.45431 44.5603 9.45431 44.5603H9.39239H9.33047L9.29951 44.6222C9.29951 44.6532 9.20663 44.6532 9.17567 44.6841L9.08279 44.7151V44.7461C9.02087 44.7461 8.89703 44.7151 8.89703 44.7151L8.55648 44.4984H8.3088L7.9992 44.4675C7.44193 44.3436 6.76081 43.7865 6.63697 43.1364C6.60601 43.0436 6.60601 42.9507 6.60601 42.8269C6.60601 42.6721 6.63697 42.4864 6.63697 42.3316V42.3007V42.084C6.63697 41.9292 6.63697 41.8054 6.69889 41.6506L6.88465 41.1863L7.00849 40.9387L7.13233 40.5363L7.31809 40.1958L7.34905 39.9481V39.8862L7.38001 39.7005C7.38001 39.7005 7.38001 39.6386 7.41097 39.5767V39.6076C7.41097 39.6696 7.41097 39.7315 7.38001 39.8243V39.8862L7.5348 39.9172L7.56576 39.8862L7.65864 39.6696L7.8444 39.4838L8.21592 39.0195L8.4636 38.6481C8.6184 38.4004 8.7732 38.1218 8.92799 38.029H8.95895L8.98991 38.0599L9.11375 38.1218L9.14471 38.029C9.14471 37.998 9.17567 37.9361 9.17567 37.9052C9.17567 37.8433 9.17567 37.7504 9.14471 37.6885V37.6575C9.17567 37.7194 9.23759 37.7504 9.29951 37.7504C9.48527 37.7504 10.1045 37.1932 10.2902 36.9456L10.3521 37.0075L10.445 37.1004L10.5069 37.0075L10.6308 36.8527C10.7237 36.7599 10.8165 36.667 10.8475 36.5122C10.8785 36.5122 11.0333 36.4813 11.1261 36.4503C11.1571 36.5122 11.1881 36.5432 11.219 36.5741L11.1881 36.636L11.2809 36.667H11.3429L11.3738 36.5741C11.4048 36.5432 11.4357 36.4813 11.4667 36.4503L11.4977 36.3884L11.6215 36.2646L11.6834 36.2955H11.7144C11.7453 36.2955 11.9311 36.4813 11.962 36.5432L12.024 36.698L12.0859 36.5432C12.1168 36.4813 12.1478 36.4194 12.2097 36.3884C12.3026 36.3575 12.4264 36.3575 12.4884 36.4194V36.4503L12.5193 36.4194C12.5812 36.3884 13.0456 36.2336 13.1076 36.2336L13.4791 36.2646C13.6339 36.2955 13.7887 36.2955 13.9435 36.2646C14.1602 36.2336 14.3769 36.1098 14.5627 35.986L14.9032 35.8003L15.3676 35.6455L15.832 35.4907C16.1416 35.336 16.4512 35.1812 16.6989 34.9955L17.2252 34.5621L17.411 34.4383C17.5348 34.3764 17.6586 34.2835 17.7825 34.1597C17.9373 34.0049 17.9992 33.7883 18.0611 33.5716L18.185 33.2001L18.3398 32.9525C18.4636 32.612 18.5255 32.3025 18.5255 31.962C18.5255 31.7143 18.4946 31.4357 18.4326 31.1571L18.3707 30.8786L18.123 30.569C17.9063 30.3214 17.7206 30.0737 17.7206 29.7332C17.7206 29.6713 17.7206 29.6094 17.7206 29.5785V29.5166H17.3181V29.5785L17.2871 29.5475C17.1323 29.3618 17.1323 29.2689 17.1323 29.1142C17.1323 29.1142 17.1014 28.9284 17.1014 28.8975L17.1323 28.7427L16.9775 28.7118L16.9466 28.7737V28.8046L16.8537 28.7737L16.9156 28.8975C16.8227 28.8975 16.6679 28.8046 16.637 28.7737V28.7427L16.5131 28.7118L16.4822 28.7737C16.4822 28.8046 16.4822 28.8046 16.4512 28.8046H16.3893V28.8356C16.3274 28.7118 16.2655 28.6189 16.2035 28.5879H16.1726L16.1416 28.557C16.0797 28.526 15.9559 28.6499 15.9559 28.6499C15.5534 28.3094 15.4295 28.1236 15.4295 28.1236Z" fill="#006DB5"/>
<path d="M15.6158 49.6678C15.8016 49.5749 15.9874 49.4821 16.1731 49.4202C16.8233 49.3892 17.1948 49.1106 17.7521 48.8939C17.9069 48.832 18.0926 48.7701 18.2474 48.7392C18.2784 48.7392 18.3093 48.7392 18.3403 48.7392C18.1545 50.0392 17.2567 51.3084 17.783 52.5156C17.9069 52.7013 17.9997 52.8561 18.1236 53.0418C18.3093 53.1037 18.4951 53.1656 18.6499 53.2275C18.8666 53.3204 18.9905 53.5061 19.2072 53.599C19.331 53.599 19.331 53.6609 19.4239 53.7228C19.7954 53.9704 20.074 53.8157 20.4456 53.5061C20.4456 53.4752 20.4456 53.4442 20.4456 53.4133C20.7861 53.3823 20.9409 53.5061 21.2815 53.3513C21.3124 53.1037 21.2196 52.918 21.3124 52.6394C21.1886 52.6394 21.5911 52.4227 21.684 52.2989C21.8388 52.2989 21.684 52.0203 21.653 51.8965C21.5292 51.8965 21.5601 51.9275 21.5911 51.8346C21.622 51.8346 21.653 51.8036 21.7149 51.8036C21.9626 51.3393 22.2412 50.906 22.4889 50.4417C22.7675 50.1012 23.0771 49.7297 23.3558 49.3892C23.4487 49.2035 23.4487 49.0797 23.4177 48.9249C23.944 48.8939 24.0988 47.7177 24.0369 47.3772C24.2227 47.3772 25.0895 46.4486 25.3682 46.2628C25.6468 46.139 25.9254 46.0152 26.2041 45.8914L26.235 45.8604C26.3589 45.8604 26.3279 45.6437 26.3589 45.5199C26.3898 45.3961 26.3279 45.458 26.2041 45.458V45.3652C26.3589 45.3652 26.5137 45.3961 26.6994 45.3961C27.04 45.2723 27.4115 45.1485 27.7521 45.0247C27.7521 44.9318 27.9378 44.808 27.8759 44.7461C28.1236 44.7151 28.3713 44.7151 28.6189 44.6842C29.0524 44.5913 30.3217 43.9722 30.6623 43.6317C30.7242 43.6317 30.7861 43.6317 30.8171 43.6317C30.8171 43.7555 30.7861 43.7246 30.879 43.6936C30.91 43.5698 31.0648 43.5698 31.1576 43.5079C31.1886 43.415 31.1576 43.415 31.2505 43.415V43.5079C31.4363 43.5079 31.3434 45.2104 31.622 45.5509C31.653 45.5509 31.684 45.5509 31.7149 45.5509C31.684 45.6437 31.622 45.7676 31.5911 45.8914C31.5601 45.8914 31.5911 46.2009 31.5292 46.3866C31.5601 46.3866 31.5911 46.3866 31.622 46.3866C31.5911 46.6652 32.427 46.2938 32.5508 46.2319C32.5508 46.2009 32.5508 46.17 32.5508 46.139C32.5508 46.2009 32.5508 46.2628 32.5508 46.3247C32.4889 46.5724 32.3341 46.7581 32.1484 46.9129C31.1886 47.6867 31.622 48.7082 31.7459 49.544C31.7768 49.8226 31.7768 50.1012 31.7768 50.3797C31.8388 50.5345 31.9316 50.7202 31.9936 50.906C31.9626 51.0917 31.9316 51.2465 31.9007 51.4322C31.8697 51.8346 31.9316 52.206 32.0864 52.5465V52.6394C32.1793 52.6394 32.3651 52.1441 32.6747 51.9584L32.6437 52.0203C32.5508 52.237 32.458 52.4537 32.3341 52.6394C32.1793 53.1966 32.2722 54.1562 32.6437 54.4347C32.5818 54.8372 32.5199 55.1467 32.9533 55.3015C32.9533 55.2086 32.9843 55.1467 32.9843 55.0538C33.0152 54.8681 33.201 54.6514 33.2939 54.4657C33.3867 54.2181 33.4796 53.9704 33.5725 53.7228C33.7583 53.7228 33.4487 53.4442 33.3867 53.3513C33.2629 53.3513 33.3558 53.0728 33.3558 52.9489C33.4796 52.9489 33.5725 52.9489 33.6963 52.918C33.7583 52.3608 33.6344 51.9584 33.3867 51.587C33.2629 51.587 33.4177 51.525 33.4796 51.4941C33.4796 51.4631 33.4796 51.4322 33.4796 51.4012C33.6035 51.4012 33.5106 51.4322 33.5415 51.4631C33.5415 51.4941 33.5415 51.525 33.5415 51.556C33.6344 51.556 33.6344 51.556 33.6654 51.4631C33.9131 50.7202 34.1917 49.9773 34.5323 49.2654C34.6561 49.2654 34.6251 49.2035 34.5942 49.0797C34.6251 48.8011 34.6561 48.5534 34.6871 48.2749C34.749 47.6248 34.749 46.8819 34.9966 46.2628C34.9038 46.2628 34.8419 45.5818 34.718 45.3961C34.749 45.2723 34.8419 45.2104 34.9038 45.1485C34.9347 44.9008 34.9657 44.6532 34.9966 44.4365C35.0276 44.2508 35.2443 44.0651 35.3991 43.9413C35.4301 43.6627 35.3991 43.446 35.4301 43.1365C35.3062 43.1365 35.2753 43.0745 35.2134 42.9817C35.0895 42.9817 35.1205 43.0126 35.1514 42.9198C35.3062 42.9198 35.461 42.6721 35.523 42.5483C35.5849 42.3007 35.6468 42.084 35.7087 41.8364C36.2041 40.8149 36.8233 40.6601 37.7211 40.1339C37.8449 40.041 37.9997 39.9482 38.1236 39.8553C38.1545 39.7005 37.9378 39.7315 37.814 39.7315C37.814 39.7005 37.814 39.6696 37.814 39.6386C38.0617 39.6077 39.2691 38.5862 39.4549 38.3076C39.5168 38.1528 39.5787 37.9671 39.6406 37.8123C39.8264 37.7195 40.0431 37.8433 40.1979 37.8742V37.7814C40.3836 37.6885 40.5694 37.5956 40.7242 37.5028C40.7552 37.379 40.7861 37.4099 40.91 37.4099C40.9409 37.2861 40.7861 37.2861 40.6932 37.2551C40.7242 37.1004 40.848 37.1313 40.9719 37.0694C40.9719 37.0385 40.9719 37.0075 40.9719 36.9766C40.91 36.9766 40.848 36.9766 40.8171 36.9147C40.879 36.4503 41.1576 36.3884 41.5292 36.4813C41.5292 36.4194 41.9936 35.7384 42.0555 35.6455C42.1793 35.6455 42.1793 35.3979 42.2722 35.305C42.2412 35.4598 42.427 35.336 42.5199 35.2741C42.4889 35.4289 42.7366 35.1193 42.7985 35.0264C42.6747 35.0264 42.6437 34.9336 42.5818 34.8717C42.5818 34.8407 42.5818 34.8098 42.5818 34.7788C42.7366 34.7479 42.8604 34.7169 43.0152 34.6859V34.5931C43.7892 34.5312 44.2227 33.974 44.9347 33.8192C44.9657 33.6335 45.0895 33.5716 45.2443 33.4787C45.2443 33.3859 45.2753 33.324 45.2753 33.2311C45.2134 33.2311 45.1514 33.2311 45.1205 33.2311C45.0895 33.3859 44.8419 33.4787 44.749 33.5716C44.6561 33.5716 44.4703 33.3859 44.3775 33.3549C44.3775 33.324 44.3775 33.293 44.3775 33.2621C44.6871 33.2311 44.749 32.8597 45.0895 32.9835C45.1205 32.9835 45.1515 32.9835 45.1824 32.9835C45.1824 32.8906 45.1824 32.8906 45.1205 32.8287C45.1514 32.643 45.0895 32.7358 45.0586 32.5811C45.0895 32.4572 44.1917 32.8287 44.0369 32.8906C44.0679 32.7668 44.1607 32.9525 44.0679 32.8906V32.7977C44.3155 32.7668 44.4703 32.3953 44.5942 32.2406C44.6251 32.1167 44.5013 32.1167 44.4084 32.1167C43.8821 31.9929 42.0864 32.7358 41.5292 32.9216C41.0957 33.0763 40.6623 33.2311 40.2598 33.3859C39.9812 33.5406 39.6716 33.6954 39.3929 33.8502C38.4332 34.2835 37.4734 34.5312 36.5446 35.0264C36.5446 34.9955 36.5446 34.9645 36.5446 34.9336C36.4518 34.9336 36.4518 34.9336 36.3898 34.8717C36.4208 34.5621 36.4827 34.3145 36.3279 34.0669C36.3898 33.943 36.4208 33.7883 36.4827 33.6645C36.5756 32.9835 36.6685 32.2715 36.7614 31.5905C36.6066 31.5905 36.8233 31.4358 36.8852 31.3429C37.04 31.3429 36.9162 31.2191 36.8852 31.1262C36.6375 30.4762 36.9471 29.6404 36.9162 28.8666C36.8852 28.4022 36.6994 28.1856 36.9162 27.6593C36.7923 27.6593 36.8233 27.6284 36.7923 27.5355C36.6066 26.8855 36.297 27.1022 35.7706 26.9474C35.7706 26.8855 35.8016 26.8236 35.8016 26.7926C35.9254 26.7926 36.0802 26.6688 36.1422 26.6069C36.2041 26.2664 35.6158 26.0497 35.3991 25.9259C35.3991 26.0188 34.8419 26.0807 34.718 26.1426C34.4084 26.2974 34.0679 26.4212 33.6963 26.3902C33.4487 26.3902 33.2629 26.2664 32.9843 26.3283C32.2412 26.514 30.6004 28.0617 29.9193 28.6808C29.9502 28.6808 29.9812 28.6808 30.0121 28.6808C29.9812 28.8356 30.1979 28.8046 30.3217 28.8356C30.3217 28.8975 30.3217 28.9285 30.2908 28.9904C30.1979 28.9904 30.1979 28.9594 30.1979 29.0832C29.9812 29.0832 29.4239 29.3309 29.2381 29.4856C28.8666 29.8261 28.7428 30.3833 28.4332 30.7857C28.2474 31.0024 27.9069 31.0643 27.783 31.3738C27.783 31.4358 27.783 31.4977 27.783 31.5905V31.6834C26.9781 31.7453 25.3991 35.5217 24.6251 36.017C24.6251 36.0789 24.5942 36.1098 24.5942 36.1718C24.5632 36.1718 24.5323 36.1718 24.5013 36.1718C24.4703 36.698 24.1607 36.9147 23.9131 37.348C23.7892 37.5956 23.7273 37.8123 23.5725 38.06C23.7273 38.06 23.6035 38.1219 23.5415 38.2147C23.6654 38.2147 23.4487 38.4005 23.4177 38.5243C23.2939 38.9576 22.9533 39.2672 22.7366 39.6386C22.3032 40.4744 21.8388 41.2173 21.5601 42.1459C21.0648 42.1769 21.2505 42.734 21.4672 42.8579V42.9507C20.91 42.9817 20.848 43.5698 20.848 43.9413H20.7552C20.7861 43.8174 20.7242 43.8794 20.6313 43.9103C19.9193 44.1579 19.331 44.3437 18.7118 44.8699C18.557 44.8699 18.7118 44.9628 18.7737 45.0247V45.1175C18.2474 45.1485 17.9688 45.2104 17.4734 45.5199C17.04 45.7985 16.4827 46.4795 15.9254 46.4176C15.8945 46.4176 15.8635 46.4176 15.8326 46.4176V46.5105C15.7087 46.5105 15.7397 46.6652 15.7087 46.7581C15.6778 46.8819 15.3682 47.0676 15.3062 47.2224C15.1824 47.4391 14.9657 47.5629 14.8109 47.7486C14.5323 48.0891 14.2846 48.4915 14.2227 48.9249C14.2227 49.4511 15.3062 49.7297 15.6158 49.6678ZM36.8233 35.2741V35.3669C36.9471 35.3669 36.9162 35.336 36.8852 35.4289C36.8542 35.3979 36.8233 35.3669 36.8233 35.3669C36.7304 35.336 36.7614 35.305 36.8233 35.2741ZM29.331 37.0075C29.331 37.0075 31.0028 34.7788 31.1886 34.5621C31.0028 34.5931 31.0957 34.4074 31.1267 34.2526C31.2815 34.2216 32.427 32.4882 32.8295 32.1477C32.8295 32.1167 32.8295 32.0858 32.8295 32.0548C32.8604 32.0548 33.1391 32.9835 33.3248 33.2001C33.0771 33.9121 32.7985 34.624 32.5508 35.336C32.427 35.9241 32.5508 36.5122 32.3651 37.0694C32.1793 37.6576 31.4672 38.3695 30.848 38.5552C30.5384 38.6481 30.2598 38.6481 29.9812 38.8029C29.362 39.1743 28.7737 39.5767 28.1545 39.9482C27.3496 39.5458 29.2381 37.7504 29.331 37.0075Z" fill="#006DB5"/>
</g>
<defs>
<clipPath id="clip0_2521_55351">
<rect width="70" height="70" fill="white" transform="translate(0.414062 0.00146484)"/>
</clipPath>
</defs>
</svg>
