<svg width="210" height="30" viewBox="0 0 210 30" fill="none" xmlns="http://www.w3.org/2000/svg">
<g clip-path="url(#clip0_2521_53346)">
<mask id="mask0_2521_53346" style="mask-type:luminance" maskUnits="userSpaceOnUse" x="0" y="9" width="12" height="22">
<path d="M0.846395 9.97021C0.470219 9.97021 0 10.3464 0 11.0047V23.2304C0 29.9075 6.67712 30.0016 6.67712 30.0016H11.3793C9.12226 30.0016 8.36991 28.3088 8.36991 27.1802C8.36991 27.1802 8.36991 13.6379 8.36991 12.7915C8.36991 11.9451 8.27586 10.0643 6.2069 10.0643H0.846395V9.97021Z" fill="white"/>
</mask>
<g mask="url(#mask0_2521_53346)">
<path d="M11.2853 9.97021H0V30.0016H11.2853V9.97021Z" fill="url(#paint0_linear_2521_53346)"/>
</g>
<mask id="mask1_2521_53346" style="mask-type:luminance" maskUnits="userSpaceOnUse" x="0" y="0" width="22" height="9">
<path d="M0 2.16447V7.52498C0 7.90115 0.376176 8.37137 1.03448 8.37137H21.7241V2.82278C21.7241 1.69425 20.9718 0.00146484 18.7147 0.00146484H2.72727C1.88088 0.00146484 0 0.00146484 0 2.16447Z" fill="white"/>
</mask>
<g mask="url(#mask1_2521_53346)">
<path d="M21.7241 0.00146484H0V8.37137H21.7241V0.00146484Z" fill="url(#paint1_linear_2521_53346)"/>
</g>
<mask id="mask2_2521_53346" style="mask-type:luminance" maskUnits="userSpaceOnUse" x="18" y="-1" width="13" height="21">
<path d="M18.7148 0.00151459C20.9719 0.00151459 21.7242 1.6943 21.7242 2.82283C21.7242 2.82283 21.7242 16.3652 21.7242 17.2115C21.7242 18.0579 21.8183 19.9388 23.8873 19.9388C25.8622 19.9388 28.7775 19.9388 29.2478 19.9388C29.6239 19.9388 30.0942 19.5626 30.0942 18.9043V6.67863C30.0942 0.0015145 23.417 -0.0925293 23.417 -0.0925293H18.7148V0.00151459Z" fill="white"/>
</mask>
<g mask="url(#mask2_2521_53346)">
<path d="M30.0001 0.00146484H18.7148V20.0328H30.0001V0.00146484Z" fill="url(#paint2_linear_2521_53346)"/>
</g>
<mask id="mask3_2521_53346" style="mask-type:luminance" maskUnits="userSpaceOnUse" x="8" y="21" width="23" height="10">
<path d="M8.37109 21.7256V27.1801C8.37109 28.3087 9.12345 30.0014 11.3805 30.0014H27.368C28.2144 30.0014 30.0952 30.0014 30.0952 27.8384V22.572C30.0952 22.1958 29.7191 21.7256 29.0607 21.7256H8.37109Z" fill="white"/>
</mask>
<g mask="url(#mask3_2521_53346)">
<path d="M30.0952 21.7256H8.37109V30.0955H30.0952V21.7256Z" fill="url(#paint3_linear_2521_53346)"/>
</g>
<path d="M101.096 0.00146484V2.54065H96.6758V4.32748H107.679V2.54065H103.447V0.00146484H101.096Z" fill="#595757"/>
<path d="M192.132 11.0046H173.605V12.6974H192.132V11.0046Z" fill="#595757"/>
<mask id="mask4_2521_53346" style="mask-type:luminance" maskUnits="userSpaceOnUse" x="0" y="0" width="210" height="31">
<path d="M210 0.00146484H0V30.0015H210V0.00146484Z" fill="white"/>
</mask>
<g mask="url(#mask4_2521_53346)">
<path d="M39.2178 1.69434H48.152C48.152 1.69434 48.9043 8.74763 39.4999 12.5094L38.2773 10.9106C38.2773 10.9106 45.5187 8.27741 45.5187 3.48117H39.2178V1.69434Z" fill="#595757"/>
</g>
<mask id="mask5_2521_53346" style="mask-type:luminance" maskUnits="userSpaceOnUse" x="0" y="0" width="210" height="31">
<path d="M210 0.00146484H0V30.0015H210V0.00146484Z" fill="white"/>
</mask>
<g mask="url(#mask5_2521_53346)">
<path d="M48.996 12.6975C46.2688 12.6975 44.0117 14.7665 44.0117 17.2116C44.0117 19.7508 46.2688 21.7257 48.996 21.7257C51.7233 21.7257 53.9804 19.6568 53.9804 17.2116C53.9804 14.6724 51.7233 12.6975 48.996 12.6975ZM48.996 19.8448C47.4913 19.8448 46.2688 18.6223 46.2688 17.2116C46.2688 15.7069 47.4913 14.5784 48.996 14.5784C50.5007 14.5784 51.7233 15.801 51.7233 17.2116C51.7233 18.6223 50.5007 19.8448 48.996 19.8448Z" fill="#595757"/>
</g>
<mask id="mask6_2521_53346" style="mask-type:luminance" maskUnits="userSpaceOnUse" x="0" y="0" width="210" height="31">
<path d="M210 0.00146484H0V30.0015H210V0.00146484Z" fill="white"/>
</mask>
<g mask="url(#mask6_2521_53346)">
<path d="M102.131 5.07983C99.6856 5.07983 97.8047 6.86667 97.8047 9.02968C97.8047 11.1927 99.7796 12.9795 102.131 12.9795C104.576 12.9795 106.457 11.1927 106.457 9.02968C106.551 6.86667 104.576 5.07983 102.131 5.07983ZM102.131 11.2867C100.908 11.2867 99.8736 10.2522 99.8736 9.12372C99.8736 7.90115 100.908 6.96071 102.131 6.96071C103.353 6.96071 104.388 7.99519 104.388 9.12372C104.482 10.3463 103.447 11.2867 102.131 11.2867Z" fill="#595757"/>
</g>
<mask id="mask7_2521_53346" style="mask-type:luminance" maskUnits="userSpaceOnUse" x="0" y="0" width="210" height="31">
<path d="M210 0.00146484H0V30.0015H210V0.00146484Z" fill="white"/>
</mask>
<g mask="url(#mask7_2521_53346)">
<path d="M119.998 1.69434C117.459 1.69434 115.484 4.42161 115.484 7.80719C115.484 11.1928 117.553 13.92 119.998 13.92C122.538 13.92 124.513 11.1928 124.513 7.80719C124.607 4.42161 122.538 1.69434 119.998 1.69434ZM119.998 12.1332C118.682 12.1332 117.553 10.1583 117.553 7.80719C117.553 5.36205 118.682 3.48117 119.998 3.48117C121.315 3.48117 122.444 5.45609 122.444 7.80719C122.538 10.2523 121.409 12.1332 119.998 12.1332Z" fill="#595757"/>
</g>
<mask id="mask8_2521_53346" style="mask-type:luminance" maskUnits="userSpaceOnUse" x="0" y="0" width="210" height="31">
<path d="M210 0.00146484H0V30.0015H210V0.00146484Z" fill="white"/>
</mask>
<g mask="url(#mask8_2521_53346)">
<path d="M61.8828 19.9387C61.8828 20.3149 62.1649 20.597 62.5411 20.597H73.074V13.5437H61.8828V19.9387ZM64.2339 15.3305H70.911V18.8102H64.2339V15.3305Z" fill="#595757"/>
</g>
<mask id="mask9_2521_53346" style="mask-type:luminance" maskUnits="userSpaceOnUse" x="0" y="0" width="210" height="31">
<path d="M210 0.00146484H0V30.0015H210V0.00146484Z" fill="white"/>
</mask>
<g mask="url(#mask9_2521_53346)">
<path d="M80.4066 8.65359H91.7859V1.22412H79.7483V7.90124C79.7483 8.27741 80.0304 8.65359 80.4066 8.65359ZM82.0053 3.01095H89.5288V6.86675H82.0053V3.01095ZM76.5508 10.7226V12.5094H85.1088V16.3652H87.4599V12.5094H95.0774V10.7226H76.5508ZM82.0994 14.2962H79.7483V19.9389C79.7483 20.315 80.0304 20.5972 80.4066 20.5972H92.1621V18.7163H82.0994V14.2962Z" fill="#595757"/>
</g>
<mask id="mask10_2521_53346" style="mask-type:luminance" maskUnits="userSpaceOnUse" x="0" y="0" width="210" height="31">
<path d="M210 0.00146484H0V30.0015H210V0.00146484Z" fill="white"/>
</mask>
<g mask="url(#mask10_2521_53346)">
<path d="M161.851 18.7163V14.2021H159.594V19.8448C159.594 20.221 159.876 20.5031 160.252 20.5031H171.349V18.7163H161.851Z" fill="#595757"/>
</g>
<mask id="mask11_2521_53346" style="mask-type:luminance" maskUnits="userSpaceOnUse" x="0" y="0" width="210" height="31">
<path d="M210 0.00146484H0V30.0015H210V0.00146484Z" fill="white"/>
</mask>
<g mask="url(#mask11_2521_53346)">
<path d="M199.089 18.7161V15.4246H196.832V19.8446C196.832 20.2208 197.114 20.5029 197.49 20.5029H209.904V18.7161H199.089Z" fill="#595757"/>
</g>
<mask id="mask12_2521_53346" style="mask-type:luminance" maskUnits="userSpaceOnUse" x="0" y="0" width="210" height="31">
<path d="M210 0.00146484H0V30.0015H210V0.00146484Z" fill="white"/>
</mask>
<g mask="url(#mask12_2521_53346)">
<path d="M153.292 10.8166V9.02979H134.766V10.7226H142.853V12.6035H137.963V14.2962H147.65V15.7069H138.057V19.8448C138.057 20.221 138.339 20.5031 138.715 20.5031H150.471V18.8103H140.502V17.3056H150.095V12.6035H145.393V10.7226H153.292V10.8166Z" fill="#595757"/>
</g>
<mask id="mask13_2521_53346" style="mask-type:luminance" maskUnits="userSpaceOnUse" x="0" y="0" width="210" height="31">
<path d="M210 0.00146484H0V30.0015H210V0.00146484Z" fill="white"/>
</mask>
<g mask="url(#mask13_2521_53346)">
<path d="M96.0195 15.1426V16.9294C96.0195 16.9294 105.33 17.0234 108.81 16.3651V14.6723C108.81 14.6723 106.082 15.0485 103.543 15.0485V12.4153H101.192V15.1426H96.0195Z" fill="#595757"/>
</g>
<mask id="mask14_2521_53346" style="mask-type:luminance" maskUnits="userSpaceOnUse" x="0" y="0" width="210" height="31">
<path d="M210 0.00146484H0V30.0015H210V0.00146484Z" fill="white"/>
</mask>
<g mask="url(#mask14_2521_53346)">
<path d="M155.641 1.50615V3.29299H161.472C161.472 3.29299 160.719 8.18327 154.324 11.0986L155.547 12.5093C155.547 12.5093 163.258 9.78201 164.199 1.41211H155.641V1.50615Z" fill="#595757"/>
</g>
<mask id="mask15_2521_53346" style="mask-type:luminance" maskUnits="userSpaceOnUse" x="0" y="0" width="210" height="31">
<path d="M210 0.00146484H0V30.0015H210V0.00146484Z" fill="white"/>
</mask>
<g mask="url(#mask15_2521_53346)">
<path d="M166.645 9.97021C166.645 9.97021 162.883 8.4655 161.284 5.83228L160.25 7.52507C161.755 10.2523 165.422 11.8511 165.422 11.8511L166.645 9.97021Z" fill="#595757"/>
</g>
<mask id="mask16_2521_53346" style="mask-type:luminance" maskUnits="userSpaceOnUse" x="0" y="0" width="210" height="31">
<path d="M210 0.00146484H0V30.0015H210V0.00146484Z" fill="white"/>
</mask>
<g mask="url(#mask16_2521_53346)">
<path d="M183.01 13.4497C180.471 13.4497 178.496 15.3306 178.496 17.5876C178.496 19.8447 180.565 21.7256 183.01 21.7256C185.549 21.7256 187.524 19.8447 187.524 17.5876C187.524 15.3306 185.455 13.4497 183.01 13.4497ZM183.01 19.8447C181.694 19.8447 180.659 18.8102 180.659 17.4936C180.659 16.177 181.694 15.1425 183.01 15.1425C184.327 15.1425 185.361 16.177 185.361 17.4936C185.361 18.8102 184.327 19.8447 183.01 19.8447Z" fill="#595757"/>
</g>
<mask id="mask17_2521_53346" style="mask-type:luminance" maskUnits="userSpaceOnUse" x="0" y="0" width="210" height="31">
<path d="M210 0.00146484H0V30.0015H210V0.00146484Z" fill="white"/>
</mask>
<g mask="url(#mask17_2521_53346)">
<path d="M199.28 0.753906C196.741 0.753906 194.766 2.63478 194.766 4.89184C194.766 7.14889 196.835 9.02977 199.28 9.02977C201.725 9.02977 203.794 7.14889 203.794 4.89184C203.794 2.63478 201.725 0.753906 199.28 0.753906ZM199.28 7.14889C197.963 7.14889 196.929 6.11441 196.929 4.79779C196.929 3.48118 197.963 2.4467 199.28 2.4467C200.596 2.4467 201.631 3.48118 201.631 4.79779C201.631 6.11441 200.596 7.14889 199.28 7.14889Z" fill="#595757"/>
</g>
<mask id="mask18_2521_53346" style="mask-type:luminance" maskUnits="userSpaceOnUse" x="0" y="0" width="210" height="31">
<path d="M210 0.00146484H0V30.0015H210V0.00146484Z" fill="white"/>
</mask>
<g mask="url(#mask18_2521_53346)">
<path d="M183.01 2.54077C180.471 2.54077 178.496 4.32761 178.496 6.39657C178.496 8.55958 180.565 10.3464 183.01 10.3464C185.549 10.3464 187.524 8.55958 187.524 6.39657C187.524 4.23356 185.455 2.54077 183.01 2.54077ZM183.01 8.55958C181.694 8.55958 180.659 7.61914 180.659 6.39657C180.659 5.174 181.694 4.23356 183.01 4.23356C184.327 4.23356 185.361 5.174 185.361 6.39657C185.361 7.61914 184.327 8.55958 183.01 8.55958Z" fill="#595757"/>
</g>
<mask id="mask19_2521_53346" style="mask-type:luminance" maskUnits="userSpaceOnUse" x="0" y="0" width="210" height="31">
<path d="M210 0.00146484H0V30.0015H210V0.00146484Z" fill="white"/>
</mask>
<g mask="url(#mask19_2521_53346)">
<path d="M189.876 3.95131H175.863V2.25852H181.788V0.00146484H184.139V2.25852H189.876V3.95131Z" fill="#595757"/>
</g>
<mask id="mask20_2521_53346" style="mask-type:luminance" maskUnits="userSpaceOnUse" x="0" y="0" width="210" height="31">
<path d="M210 0.00146484H0V30.0015H210V0.00146484Z" fill="white"/>
</mask>
<g mask="url(#mask20_2521_53346)">
<path d="M60.7531 8.84163H62.634C65.8315 8.84163 69.5933 8.27736 69.5933 8.27736V10.0642C69.5933 10.0642 66.0196 10.7225 61.7876 10.7225H58.4961V1.31812H60.7531V8.84163Z" fill="#595757"/>
</g>
<mask id="mask21_2521_53346" style="mask-type:luminance" maskUnits="userSpaceOnUse" x="0" y="0" width="210" height="31">
<path d="M210 0.00146484H0V30.0015H210V0.00146484Z" fill="white"/>
</mask>
<g mask="url(#mask21_2521_53346)">
<path d="M114.922 8.46531H112.007V0.659668H109.75V19.9387H111.631C111.819 19.5625 112.007 17.9637 112.007 17.0233V10.2521H114.922V8.46531Z" fill="#595757"/>
</g>
<mask id="mask22_2521_53346" style="mask-type:luminance" maskUnits="userSpaceOnUse" x="0" y="0" width="210" height="31">
<path d="M210 0.00146484H0V30.0015H210V0.00146484Z" fill="white"/>
</mask>
<g mask="url(#mask22_2521_53346)">
<path d="M132.601 0.659668H130.344V19.9387H132.225C132.413 19.5625 132.601 17.9637 132.601 17.0233V0.659668Z" fill="#595757"/>
</g>
<mask id="mask23_2521_53346" style="mask-type:luminance" maskUnits="userSpaceOnUse" x="0" y="0" width="210" height="31">
<path d="M210 0.00146484H0V30.0015H210V0.00146484Z" fill="white"/>
</mask>
<g mask="url(#mask23_2521_53346)">
<path d="M170.972 0.659668H168.715V15.3305H170.596C170.784 14.9543 170.972 13.3556 170.972 12.4152V0.659668Z" fill="#595757"/>
</g>
<mask id="mask24_2521_53346" style="mask-type:luminance" maskUnits="userSpaceOnUse" x="0" y="0" width="210" height="31">
<path d="M210 0.00146484H0V30.0015H210V0.00146484Z" fill="white"/>
</mask>
<g mask="url(#mask24_2521_53346)">
<path d="M207.556 0.659668V12.4152H203.23V14.1079H207.556V15.8948H209.437C209.625 15.5186 209.814 13.9199 209.814 12.9794V0.659668H207.556Z" fill="#595757"/>
</g>
<mask id="mask25_2521_53346" style="mask-type:luminance" maskUnits="userSpaceOnUse" x="0" y="0" width="210" height="31">
<path d="M210 0.00146484H0V30.0015H210V0.00146484Z" fill="white"/>
</mask>
<g mask="url(#mask25_2521_53346)">
<path d="M52.1953 0.659668V3.57503H48.7157V5.26782H52.1953V7.90105H48.4336V9.59384H52.1953V12.7913H54.0762C54.2643 12.4152 54.4524 10.8164 54.4524 9.87597V0.659668H52.1953Z" fill="#595757"/>
</g>
<mask id="mask26_2521_53346" style="mask-type:luminance" maskUnits="userSpaceOnUse" x="0" y="0" width="210" height="31">
<path d="M210 0.00146484H0V30.0015H210V0.00146484Z" fill="white"/>
</mask>
<g mask="url(#mask26_2521_53346)">
<path d="M76.1763 5.26782H73.261V0.659668H71.0039V12.4152H72.8848C73.0729 12.039 73.261 10.4402 73.261 9.49979V7.1487H76.1763V5.26782Z" fill="#595757"/>
</g>
<mask id="mask27_2521_53346" style="mask-type:luminance" maskUnits="userSpaceOnUse" x="0" y="0" width="210" height="31">
<path d="M210 0.00146484H0V30.0015H210V0.00146484Z" fill="white"/>
</mask>
<g mask="url(#mask27_2521_53346)">
<path d="M126.49 0.941895V4.23343H123.293V6.11431H126.49V9.49989H123.481V11.2867H126.49V19.1864H128.277C128.465 18.8102 128.653 17.2115 128.653 16.271V0.941895H126.49Z" fill="#595757"/>
</g>
<mask id="mask28_2521_53346" style="mask-type:luminance" maskUnits="userSpaceOnUse" x="0" y="0" width="210" height="31">
<path d="M210 0.00146484H0V30.0015H210V0.00146484Z" fill="white"/>
</mask>
<g mask="url(#mask28_2521_53346)">
<path d="M143.98 4.23334C146.237 7.1487 150.093 8.08914 150.093 8.08914L151.315 6.58443C145.673 4.7976 145.297 2.16437 145.297 1.50606V0.659668H142.663V1.50606C142.663 2.16437 142.381 4.7976 136.645 6.58443L137.867 8.08914C137.961 7.99509 141.817 7.05465 143.98 4.23334Z" fill="#595757"/>
</g>
<mask id="mask29_2521_53346" style="mask-type:luminance" maskUnits="userSpaceOnUse" x="0" y="0" width="210" height="31">
<path d="M210 0.00146484H0V30.0015H210V0.00146484Z" fill="white"/>
</mask>
<g mask="url(#mask29_2521_53346)">
<path d="M193.07 9.87603H196.738H198.431C200.688 9.87603 206.613 9.31177 206.613 9.31177V11.0046C206.613 11.0046 202.945 11.4748 200.5 11.4748V14.3901H198.149V11.5688H193.07V9.87603Z" fill="#595757"/>
</g>
<mask id="mask30_2521_53346" style="mask-type:luminance" maskUnits="userSpaceOnUse" x="0" y="0" width="210" height="31">
<path d="M210 0.00146484H0V30.0015H210V0.00146484Z" fill="white"/>
</mask>
<g mask="url(#mask30_2521_53346)">
<path d="M43.0733 29.7193C42.6971 29.8134 42.0388 30.0015 41.2865 30.0015C40.346 30.0015 39.5937 29.8134 39.1234 29.2491C38.6532 28.7789 38.3711 28.1206 38.3711 27.2742C38.3711 25.5814 39.5937 24.4529 41.4745 24.4529C42.1328 24.4529 42.6971 24.5469 42.9792 24.735L42.7912 25.4874C42.509 25.3933 42.1328 25.2993 41.5686 25.2993C40.346 25.2993 39.4996 25.9576 39.4996 27.2742C39.4996 28.4968 40.252 29.2491 41.4745 29.2491C41.8507 29.2491 42.1329 29.2491 42.2269 29.1551V27.8385H41.2865V27.0861H43.2614V29.7193H43.0733Z" fill="#595757"/>
</g>
<mask id="mask31_2521_53346" style="mask-type:luminance" maskUnits="userSpaceOnUse" x="0" y="0" width="210" height="31">
<path d="M210 0.00146484H0V30.0015H210V0.00146484Z" fill="white"/>
</mask>
<g mask="url(#mask31_2521_53346)">
<path d="M45.4236 29.9074V27.6503L43.6367 24.5469H44.7652L45.4236 25.9575C45.6116 26.3337 45.7997 26.6158 45.8938 26.992C45.9878 26.6158 46.1759 26.3337 46.364 25.9575L47.0223 24.5469H48.1508L46.2699 27.6503V29.9074H45.4236Z" fill="#595757"/>
</g>
<mask id="mask32_2521_53346" style="mask-type:luminance" maskUnits="userSpaceOnUse" x="0" y="0" width="210" height="31">
<path d="M210 0.00146484H0V30.0015H210V0.00146484Z" fill="white"/>
</mask>
<g mask="url(#mask32_2521_53346)">
<path d="M51.912 27.5563H49.749V29.155H52.1001V29.9074H48.8086V24.5469H52.0061V25.3933H49.749V26.8039H51.912V27.5563Z" fill="#595757"/>
</g>
<mask id="mask33_2521_53346" style="mask-type:luminance" maskUnits="userSpaceOnUse" x="0" y="0" width="210" height="31">
<path d="M210 0.00146484H0V30.0015H210V0.00146484Z" fill="white"/>
</mask>
<g mask="url(#mask33_2521_53346)">
<path d="M57.9302 27.1802C57.9302 28.967 56.8017 30.0015 55.297 30.0015C53.6983 30.0015 52.7578 28.8729 52.7578 27.2742C52.7578 25.5814 53.7923 24.4529 55.391 24.4529C56.9898 24.4529 57.9302 25.6755 57.9302 27.1802ZM53.7923 27.2742C53.7923 28.4027 54.3566 29.2491 55.297 29.2491C56.2374 29.2491 56.8017 28.4027 56.8017 27.2742C56.8017 26.2397 56.2374 25.2993 55.297 25.2993C54.3566 25.2993 53.7923 26.1457 53.7923 27.2742Z" fill="#595757"/>
</g>
<mask id="mask34_2521_53346" style="mask-type:luminance" maskUnits="userSpaceOnUse" x="0" y="0" width="210" height="31">
<path d="M210 0.00146484H0V30.0015H210V0.00146484Z" fill="white"/>
</mask>
<g mask="url(#mask34_2521_53346)">
<path d="M68.8389 29.7193C68.4627 29.8134 67.8044 30.0015 67.0521 30.0015C66.1116 30.0015 65.3593 29.8134 64.8891 29.2491C64.4189 28.7789 64.1367 28.1206 64.1367 27.2742C64.1367 25.5814 65.3593 24.4529 67.2402 24.4529C67.8985 24.4529 68.4627 24.5469 68.7449 24.735L68.5568 25.4874C68.2747 25.3933 67.8985 25.2993 67.3342 25.2993C66.1116 25.2993 65.2653 25.9576 65.2653 27.2742C65.2653 28.4968 66.0176 29.2491 67.2402 29.2491C67.6163 29.2491 67.8985 29.2491 67.9925 29.1551V27.8385H67.0521V27.0861H69.027V29.7193H68.8389Z" fill="#595757"/>
</g>
<mask id="mask35_2521_53346" style="mask-type:luminance" maskUnits="userSpaceOnUse" x="0" y="0" width="210" height="31">
<path d="M210 0.00146484H0V30.0015H210V0.00146484Z" fill="white"/>
</mask>
<g mask="url(#mask35_2521_53346)">
<path d="M76.6453 28.4027L76.1751 29.9074H75.1406L76.9275 24.5469H78.2441L80.0309 29.9074H78.9024L78.4322 28.4027H76.6453ZM78.2441 27.6503L77.7739 26.3337C77.6798 26.0516 77.5858 25.6754 77.4917 25.2992C77.3977 25.5814 77.3036 25.9575 77.2096 26.3337L76.7394 27.6503H78.2441Z" fill="#595757"/>
</g>
<mask id="mask36_2521_53346" style="mask-type:luminance" maskUnits="userSpaceOnUse" x="0" y="0" width="210" height="31">
<path d="M210 0.00146484H0V30.0015H210V0.00146484Z" fill="white"/>
</mask>
<g mask="url(#mask36_2521_53346)">
<path d="M85.39 27.7443C85.39 27.086 85.2959 26.2396 85.2959 25.4873C85.1079 26.1456 84.9198 26.8979 84.6376 27.5562L83.7912 29.9073H83.0389L82.2865 27.6503C82.0985 26.992 81.9104 26.2396 81.7223 25.5813C81.7223 26.2396 81.6282 27.1801 81.6282 27.8384L81.5342 30.0014H80.5938L80.9699 24.6409H82.2865L83.0389 26.8039C83.227 27.4622 83.4151 28.0264 83.5091 28.6848C83.6972 28.1205 83.8853 27.4622 84.0734 26.8039L84.8257 24.6409H86.1423L86.4245 30.0014H85.39V27.7443Z" fill="#595757"/>
</g>
<mask id="mask37_2521_53346" style="mask-type:luminance" maskUnits="userSpaceOnUse" x="0" y="0" width="210" height="31">
<path d="M210 0.00146484H0V30.0015H210V0.00146484Z" fill="white"/>
</mask>
<g mask="url(#mask37_2521_53346)">
<path d="M93.2906 29.8133C93.0084 29.9074 92.5382 30.0955 91.8799 30.0955C90.0931 30.0955 89.0586 29.061 89.0586 27.3682C89.0586 25.5814 90.3752 24.5469 92.068 24.5469C92.7263 24.5469 93.1965 24.6409 93.3846 24.829L93.1025 25.4873C92.8204 25.3933 92.4442 25.2992 91.974 25.2992C90.8454 25.2992 89.999 25.9575 89.999 27.2741C89.999 28.4967 90.7514 29.2491 91.974 29.2491C92.3501 29.2491 92.8204 29.155 93.1025 29.061L93.2906 29.8133Z" fill="#595757"/>
</g>
<mask id="mask38_2521_53346" style="mask-type:luminance" maskUnits="userSpaceOnUse" x="0" y="0" width="210" height="31">
<path d="M210 0.00146484H0V30.0015H210V0.00146484Z" fill="white"/>
</mask>
<g mask="url(#mask38_2521_53346)">
<path d="M95.1715 24.5469V27.6503C95.1715 28.6848 95.6417 29.155 96.3 29.155C97.0524 29.155 97.4285 28.6848 97.4285 27.6503V24.5469H98.463V27.6503C98.463 29.3431 97.6166 30.0014 96.206 30.0014C94.8894 30.0014 94.043 29.3431 94.043 27.6503V24.5469H95.1715Z" fill="#595757"/>
</g>
<mask id="mask39_2521_53346" style="mask-type:luminance" maskUnits="userSpaceOnUse" x="0" y="0" width="210" height="31">
<path d="M210 0.00146484H0V30.0015H210V0.00146484Z" fill="white"/>
</mask>
<g mask="url(#mask39_2521_53346)">
<path d="M99.5938 24.5469H100.628V29.155H102.885V29.9074H99.5938V24.5469Z" fill="#595757"/>
</g>
<mask id="mask40_2521_53346" style="mask-type:luminance" maskUnits="userSpaceOnUse" x="0" y="0" width="210" height="31">
<path d="M210 0.00146484H0V30.0015H210V0.00146484Z" fill="white"/>
</mask>
<g mask="url(#mask40_2521_53346)">
<path d="M103.919 25.3933H102.414V24.5469H106.552V25.3933H104.953V29.9074H103.919V25.3933Z" fill="#595757"/>
</g>
<mask id="mask41_2521_53346" style="mask-type:luminance" maskUnits="userSpaceOnUse" x="0" y="0" width="210" height="31">
<path d="M210 0.00146484H0V30.0015H210V0.00146484Z" fill="white"/>
</mask>
<g mask="url(#mask41_2521_53346)">
<path d="M108.246 24.5469V27.6503C108.246 28.6848 108.716 29.155 109.374 29.155C110.127 29.155 110.503 28.6848 110.503 27.6503V24.5469H111.537V27.6503C111.537 29.3431 110.691 30.0014 109.28 30.0014C107.964 30.0014 107.117 29.3431 107.117 27.6503V24.5469H108.246Z" fill="#595757"/>
</g>
<mask id="mask42_2521_53346" style="mask-type:luminance" maskUnits="userSpaceOnUse" x="0" y="0" width="210" height="31">
<path d="M210 0.00146484H0V30.0015H210V0.00146484Z" fill="white"/>
</mask>
<g mask="url(#mask42_2521_53346)">
<path d="M112.758 24.6409C113.134 24.5469 113.699 24.5469 114.263 24.5469C115.109 24.5469 115.579 24.6409 115.956 25.0171C116.238 25.2992 116.426 25.6754 116.426 26.1456C116.426 26.8039 115.956 27.2741 115.391 27.4622C115.768 27.6503 116.05 28.0265 116.144 28.4967C116.332 29.155 116.52 29.8133 116.614 30.0014H115.579C115.485 29.8133 115.391 29.4372 115.203 28.6848C115.015 28.0265 114.827 27.7444 114.169 27.7444H113.699V30.0014H112.664V24.6409H112.758ZM113.699 26.992H114.263C114.921 26.992 115.391 26.6158 115.391 26.1456C115.391 25.5814 115.015 25.2992 114.263 25.2992C113.981 25.2992 113.699 25.2992 113.605 25.3933V26.992H113.699Z" fill="#595757"/>
</g>
<mask id="mask43_2521_53346" style="mask-type:luminance" maskUnits="userSpaceOnUse" x="0" y="0" width="210" height="31">
<path d="M210 0.00146484H0V30.0015H210V0.00146484Z" fill="white"/>
</mask>
<g mask="url(#mask43_2521_53346)">
<path d="M120.564 27.5563H118.401V29.155H120.752V29.9074H117.461V24.5469H120.658V25.3933H118.401V26.8039H120.564V27.5563Z" fill="#595757"/>
</g>
<mask id="mask44_2521_53346" style="mask-type:luminance" maskUnits="userSpaceOnUse" x="0" y="0" width="210" height="31">
<path d="M210 0.00146484H0V30.0015H210V0.00146484Z" fill="white"/>
</mask>
<g mask="url(#mask44_2521_53346)">
<path d="M124.513 28.4027L124.042 29.9074H123.008L124.795 24.5469H126.111L127.898 29.9074H126.77L126.299 28.4027H124.513ZM126.111 27.6503L125.641 26.3337C125.547 26.0516 125.453 25.6754 125.359 25.2992C125.265 25.5814 125.171 25.9575 125.077 26.3337L124.607 27.6503H126.111Z" fill="#595757"/>
</g>
<mask id="mask45_2521_53346" style="mask-type:luminance" maskUnits="userSpaceOnUse" x="0" y="0" width="210" height="31">
<path d="M210 0.00146484H0V30.0015H210V0.00146484Z" fill="white"/>
</mask>
<g mask="url(#mask45_2521_53346)">
<path d="M134.2 24.6409C134.67 24.5469 135.234 24.5469 135.798 24.5469C136.833 24.5469 137.585 24.735 138.055 25.2052C138.62 25.6754 138.902 26.2397 138.902 27.1801C138.902 28.1205 138.526 28.8729 138.055 29.3431C137.491 29.8133 136.645 30.0955 135.516 30.0955C134.952 30.0955 134.482 30.0955 134.105 30.0014V24.6409H134.2ZM135.234 29.2491C135.328 29.2491 135.61 29.2491 135.798 29.2491C137.115 29.2491 137.867 28.5908 137.867 27.1801C137.867 25.9575 137.209 25.2992 135.892 25.2992C135.61 25.2992 135.328 25.2992 135.234 25.3933V29.2491Z" fill="#595757"/>
</g>
<mask id="mask46_2521_53346" style="mask-type:luminance" maskUnits="userSpaceOnUse" x="0" y="0" width="210" height="31">
<path d="M210 0.00146484H0V30.0015H210V0.00146484Z" fill="white"/>
</mask>
<g mask="url(#mask46_2521_53346)">
<path d="M142.665 28.4027L142.195 29.9074H141.16L142.947 24.5469H144.264L146.05 29.9074H144.922L144.452 28.4027H142.665ZM144.264 27.6503L143.887 26.3337C143.793 26.0516 143.699 25.6754 143.605 25.2992C143.511 25.5814 143.417 25.9575 143.323 26.3337L142.853 27.6503H144.264Z" fill="#595757"/>
</g>
<mask id="mask47_2521_53346" style="mask-type:luminance" maskUnits="userSpaceOnUse" x="0" y="0" width="210" height="31">
<path d="M210 0.00146484H0V30.0015H210V0.00146484Z" fill="white"/>
</mask>
<g mask="url(#mask47_2521_53346)">
<path d="M146.801 24.6409C147.177 24.5469 147.742 24.5469 148.306 24.5469C149.152 24.5469 149.622 24.6409 149.999 25.0171C150.281 25.2992 150.469 25.6754 150.469 26.1456C150.469 26.8039 149.999 27.2741 149.434 27.4622C149.81 27.6503 150.093 28.0265 150.187 28.4967C150.375 29.155 150.563 29.8133 150.657 30.0014H149.622C149.528 29.8133 149.434 29.4372 149.246 28.6848C149.058 28.0265 148.87 27.7444 148.212 27.7444H147.742V30.0014H146.707V24.6409H146.801ZM147.836 26.992H148.4C149.058 26.992 149.528 26.6158 149.528 26.1456C149.528 25.5814 149.152 25.2992 148.4 25.2992C148.118 25.2992 147.836 25.2992 147.742 25.3933V26.992H147.836Z" fill="#595757"/>
</g>
<mask id="mask48_2521_53346" style="mask-type:luminance" maskUnits="userSpaceOnUse" x="0" y="0" width="210" height="31">
<path d="M210 0.00146484H0V30.0015H210V0.00146484Z" fill="white"/>
</mask>
<g mask="url(#mask48_2521_53346)">
<path d="M152.634 25.3933H151.035V24.5469H155.267V25.3933H153.668V29.9074H152.634V25.3933Z" fill="#595757"/>
</g>
<mask id="mask49_2521_53346" style="mask-type:luminance" maskUnits="userSpaceOnUse" x="0" y="0" width="210" height="31">
<path d="M210 0.00146484H0V30.0015H210V0.00146484Z" fill="white"/>
</mask>
<g mask="url(#mask49_2521_53346)">
<path d="M155.829 28.8729C156.111 29.061 156.675 29.2491 157.146 29.2491C157.804 29.2491 158.18 28.967 158.18 28.4968C158.18 28.1206 157.898 27.8385 157.24 27.5563C156.299 27.2742 155.735 26.804 155.735 25.9576C155.735 25.1112 156.487 24.4529 157.71 24.4529C158.274 24.4529 158.744 24.5469 159.027 24.735L158.744 25.4874C158.556 25.3933 158.18 25.2052 157.616 25.2052C156.958 25.2052 156.675 25.4874 156.675 25.8635C156.675 26.2397 156.958 26.4278 157.71 26.7099C158.65 27.0861 159.121 27.5563 159.121 28.3087C159.121 29.1551 158.462 29.9074 157.052 29.9074C156.487 29.9074 155.829 29.7193 155.547 29.5313L155.829 28.8729Z" fill="#595757"/>
</g>
<mask id="mask50_2521_53346" style="mask-type:luminance" maskUnits="userSpaceOnUse" x="0" y="0" width="210" height="31">
<path d="M210 0.00146484H0V30.0015H210V0.00146484Z" fill="white"/>
</mask>
<g mask="url(#mask50_2521_53346)">
<path d="M161.848 24.5469H165.045V25.3933H162.882V26.898H164.857V27.6503H162.882V29.9074H161.848V24.5469Z" fill="#595757"/>
</g>
<mask id="mask51_2521_53346" style="mask-type:luminance" maskUnits="userSpaceOnUse" x="0" y="0" width="210" height="31">
<path d="M210 0.00146484H0V30.0015H210V0.00146484Z" fill="white"/>
</mask>
<g mask="url(#mask51_2521_53346)">
<path d="M170.973 27.1802C170.973 28.967 169.845 30.0015 168.34 30.0015C166.741 30.0015 165.801 28.8729 165.801 27.2742C165.801 25.5814 166.929 24.4529 168.434 24.4529C170.033 24.4529 170.973 25.6755 170.973 27.1802ZM166.835 27.2742C166.835 28.4027 167.4 29.2491 168.34 29.2491C169.28 29.2491 169.845 28.4027 169.845 27.2742C169.845 26.2397 169.28 25.2993 168.34 25.2993C167.4 25.2993 166.835 26.1457 166.835 27.2742Z" fill="#595757"/>
</g>
<mask id="mask52_2521_53346" style="mask-type:luminance" maskUnits="userSpaceOnUse" x="0" y="0" width="210" height="31">
<path d="M210 0.00146484H0V30.0015H210V0.00146484Z" fill="white"/>
</mask>
<g mask="url(#mask52_2521_53346)">
<path d="M172.851 24.5469V27.6503C172.851 28.6848 173.321 29.155 173.98 29.155C174.732 29.155 175.108 28.6848 175.108 27.6503V24.5469H176.143V27.6503C176.143 29.3431 175.296 30.0014 173.886 30.0014C172.569 30.0014 171.723 29.3431 171.723 27.6503V24.5469H172.851Z" fill="#595757"/>
</g>
<mask id="mask53_2521_53346" style="mask-type:luminance" maskUnits="userSpaceOnUse" x="0" y="0" width="210" height="31">
<path d="M210 0.00146484H0V30.0015H210V0.00146484Z" fill="white"/>
</mask>
<g mask="url(#mask53_2521_53346)">
<path d="M182.914 24.6409C183.385 24.5469 183.949 24.5469 184.513 24.5469C185.548 24.5469 186.3 24.735 186.77 25.2052C187.334 25.6754 187.617 26.2397 187.617 27.1801C187.617 28.1205 187.24 28.8729 186.77 29.3431C186.206 29.8133 185.36 30.0955 184.231 30.0955C183.667 30.0955 183.196 30.0955 182.82 30.0014V24.6409H182.914ZM183.949 29.2491C184.043 29.2491 184.325 29.2491 184.513 29.2491C185.83 29.2491 186.582 28.5908 186.582 27.1801C186.582 25.9575 185.924 25.2992 184.607 25.2992C184.325 25.2992 184.043 25.2992 183.949 25.3933V29.2491Z" fill="#595757"/>
</g>
<mask id="mask54_2521_53346" style="mask-type:luminance" maskUnits="userSpaceOnUse" x="0" y="0" width="210" height="31">
<path d="M210 0.00146484H0V30.0015H210V0.00146484Z" fill="white"/>
</mask>
<g mask="url(#mask54_2521_53346)">
<path d="M189.591 28.4027L189.12 29.9074H188.086L189.873 24.5469H191.189L192.976 29.9074H191.848L191.377 28.4027H189.591ZM191.189 27.6503L190.719 26.3337C190.625 26.0516 190.531 25.6754 190.437 25.2992C190.343 25.5814 190.249 25.9575 190.155 26.3337L189.685 27.6503H191.189Z" fill="#595757"/>
</g>
<mask id="mask55_2521_53346" style="mask-type:luminance" maskUnits="userSpaceOnUse" x="0" y="0" width="210" height="31">
<path d="M210 0.00146484H0V30.0015H210V0.00146484Z" fill="white"/>
</mask>
<g mask="url(#mask55_2521_53346)">
<path d="M194.107 25.3933H192.508V24.5469H196.74V25.3933H195.141V29.9074H194.107V25.3933Z" fill="#595757"/>
</g>
<mask id="mask56_2521_53346" style="mask-type:luminance" maskUnits="userSpaceOnUse" x="0" y="0" width="210" height="31">
<path d="M210 0.00146484H0V30.0015H210V0.00146484Z" fill="white"/>
</mask>
<g mask="url(#mask56_2521_53346)">
<path d="M198.433 24.5469H197.398V29.9074H198.433V24.5469Z" fill="#595757"/>
</g>
<mask id="mask57_2521_53346" style="mask-type:luminance" maskUnits="userSpaceOnUse" x="0" y="0" width="210" height="31">
<path d="M210 0.00146484H0V30.0015H210V0.00146484Z" fill="white"/>
</mask>
<g mask="url(#mask57_2521_53346)">
<path d="M204.45 27.1802C204.45 28.967 203.321 30.0015 201.817 30.0015C200.218 30.0015 199.277 28.8729 199.277 27.2742C199.277 25.5814 200.406 24.4529 201.911 24.4529C203.509 24.4529 204.45 25.6755 204.45 27.1802ZM200.312 27.2742C200.312 28.4027 200.876 29.2491 201.817 29.2491C202.757 29.2491 203.321 28.4027 203.321 27.2742C203.321 26.2397 202.757 25.2993 201.817 25.2993C200.876 25.2993 200.312 26.1457 200.312 27.2742Z" fill="#595757"/>
</g>
<mask id="mask58_2521_53346" style="mask-type:luminance" maskUnits="userSpaceOnUse" x="0" y="0" width="210" height="31">
<path d="M210 0.00146484H0V30.0015H210V0.00146484Z" fill="white"/>
</mask>
<g mask="url(#mask58_2521_53346)">
<path d="M58.8711 24.5469V29.9074H59.8115V25.7694L62.1626 29.9074H63.1971V24.5469H62.2567V28.4967L59.9996 24.5469H58.8711Z" fill="#595757"/>
</g>
<mask id="mask59_2521_53346" style="mask-type:luminance" maskUnits="userSpaceOnUse" x="0" y="0" width="210" height="31">
<path d="M210 0.00146484H0V30.0015H210V0.00146484Z" fill="white"/>
</mask>
<g mask="url(#mask59_2521_53346)">
<path d="M69.875 24.5469V29.9074H70.8154V25.7694L73.2606 29.9074H74.2951V24.5469H73.3546V28.4967L71.0976 24.5469H69.875Z" fill="#595757"/>
</g>
<mask id="mask60_2521_53346" style="mask-type:luminance" maskUnits="userSpaceOnUse" x="0" y="0" width="210" height="31">
<path d="M210 0.00146484H0V30.0015H210V0.00146484Z" fill="white"/>
</mask>
<g mask="url(#mask60_2521_53346)">
<path d="M128.652 24.5469V29.9074H129.593V25.7694L132.038 29.9074H133.072V24.5469H132.132V28.4967L129.781 24.5469H128.652Z" fill="#595757"/>
</g>
<mask id="mask61_2521_53346" style="mask-type:luminance" maskUnits="userSpaceOnUse" x="0" y="0" width="210" height="31">
<path d="M210 0.00146484H0V30.0015H210V0.00146484Z" fill="white"/>
</mask>
<g mask="url(#mask61_2521_53346)">
<path d="M177.367 24.5469V29.9074H178.308V25.7694L180.659 29.9074H181.787V24.5469H180.847V28.4967L178.496 24.5469H177.367Z" fill="#595757"/>
</g>
<mask id="mask62_2521_53346" style="mask-type:luminance" maskUnits="userSpaceOnUse" x="0" y="0" width="210" height="31">
<path d="M210 0.00146484H0V30.0015H210V0.00146484Z" fill="white"/>
</mask>
<g mask="url(#mask62_2521_53346)">
<path d="M205.391 24.5469V29.9074H206.331V25.7694L208.682 29.9074H209.811V24.5469H208.87V28.4967L206.519 24.5469H205.391Z" fill="#595757"/>
</g>
</g>
<defs>
<linearGradient id="paint0_linear_2521_53346" x1="5.66244" y1="10.0137" x2="5.66244" y2="30.0397" gradientUnits="userSpaceOnUse">
<stop stop-color="#7CC16D"/>
<stop offset="0.2675" stop-color="#79C06B"/>
<stop offset="0.4824" stop-color="#6EBC63"/>
<stop offset="0.679" stop-color="#5BB557"/>
<stop offset="0.8635" stop-color="#38AB48"/>
<stop offset="1" stop-color="#00A33B"/>
</linearGradient>
<linearGradient id="paint1_linear_2521_53346" x1="0.000734624" y1="4.17523" x2="21.8833" y2="4.17523" gradientUnits="userSpaceOnUse">
<stop stop-color="#E37762"/>
<stop offset="0.2987" stop-color="#E17461"/>
<stop offset="0.5386" stop-color="#DA6B5F"/>
<stop offset="0.7581" stop-color="#CD5D5C"/>
<stop offset="0.9642" stop-color="#BD4958"/>
<stop offset="1" stop-color="#B94557"/>
</linearGradient>
<linearGradient id="paint2_linear_2521_53346" x1="24.3763" y1="20.0279" x2="24.3763" y2="0.202227" gradientUnits="userSpaceOnUse">
<stop stop-color="#00A2E6"/>
<stop offset="0.2886" stop-color="#00A1E5"/>
<stop offset="0.5203" stop-color="#009DE1"/>
<stop offset="0.7322" stop-color="#0095DB"/>
<stop offset="0.9313" stop-color="#008BD1"/>
<stop offset="1" stop-color="#0086CD"/>
</linearGradient>
<linearGradient id="paint3_linear_2521_53346" x1="30.0402" y1="25.8668" x2="8.34631" y2="25.8668" gradientUnits="userSpaceOnUse">
<stop stop-color="#FDD23E"/>
<stop offset="0.3166" stop-color="#FCD03C"/>
<stop offset="0.5708" stop-color="#FAC836"/>
<stop offset="0.8026" stop-color="#F5BB2B"/>
<stop offset="1" stop-color="#EEAA1E"/>
</linearGradient>
<clipPath id="clip0_2521_53346">
<rect width="210" height="30" fill="white" transform="translate(0 0.00146484)"/>
</clipPath>
</defs>
</svg>
