<svg width="71" height="70" viewBox="0 0 71 70" fill="none" xmlns="http://www.w3.org/2000/svg">
<g clip-path="url(#clip0_2521_55350)">
<path d="M70.4141 0.00146484H0.414062V70.0015H70.4141V0.00146484Z" fill="#0054A7"/>
<path d="M7.19848 5.33739C7.56024 5.33739 7.83156 5.42783 8.01244 5.69915C8.10287 5.78959 8.19331 5.97047 8.28375 6.24178H9.27859C9.27859 5.97047 9.18815 5.60871 8.91683 5.33739C8.55507 4.79476 8.01244 4.52344 7.10804 4.52344C6.56541 4.52344 6.02277 4.70432 5.66101 5.06607C5.11838 5.51827 4.9375 6.24178 4.9375 7.05574C4.9375 7.86969 5.11838 8.50277 5.57057 8.95496C5.93233 9.40716 6.56541 9.58804 7.19848 9.58804C7.74112 9.58804 8.19331 9.40716 8.64551 9.0454C9.00727 8.68364 9.27858 8.32189 9.36902 7.77925H8.28375C8.19331 8.05057 8.10287 8.23145 8.01244 8.32189C7.83156 8.5932 7.56024 8.68364 7.19848 8.68364C6.83672 8.68364 6.56541 8.50277 6.38453 8.23145C6.11321 8.05057 6.02277 7.59837 6.02277 7.05574C6.02277 6.5131 6.11321 6.06091 6.38453 5.78959C6.56541 5.51827 6.83672 5.33739 7.19848 5.33739Z" fill="white"/>
<path d="M12.715 6.42266H10.8157V4.52344H9.73047V9.40716H10.8157V7.23662H12.715V9.40716H13.7098V4.52344H12.715V6.42266Z" fill="white"/>
<path d="M18.3231 4.97562C17.9613 4.61386 17.4187 4.43298 16.6952 4.43298C15.9717 4.43298 15.429 4.61386 15.0673 4.97562C14.5246 5.42782 14.3438 6.06089 14.3438 6.96528C14.3438 7.86968 14.6151 8.50275 15.0673 8.95495C15.429 9.3167 15.9717 9.49758 16.6952 9.49758C17.4187 9.49758 17.9613 9.3167 18.3231 8.95495C18.8657 8.50275 19.0466 7.77924 19.0466 6.96528C19.137 6.15133 18.8657 5.42782 18.3231 4.97562ZM17.69 8.23143C17.4187 8.50275 17.1474 8.68363 16.6952 8.68363C16.243 8.68363 15.9717 8.50275 15.7003 8.23143C15.429 7.96012 15.3386 7.50792 15.3386 6.96528C15.3386 6.42265 15.429 5.97045 15.7003 5.69913C15.9717 5.42782 16.3334 5.24694 16.6952 5.24694C17.1474 5.24694 17.4187 5.42782 17.69 5.69913C17.9613 5.97045 18.0518 6.42265 18.0518 6.96528C18.0518 7.59836 17.9613 7.96012 17.69 8.23143Z" fill="white"/>
<path d="M23.2973 7.05572C23.1164 6.87484 22.8451 6.7844 22.4833 6.69397L21.5789 6.51309C21.2172 6.42265 21.0363 6.33221 20.8554 6.24177C20.6745 6.15133 20.5841 6.06089 20.5841 5.88001C20.5841 5.69913 20.6745 5.51825 20.8554 5.42782C21.0363 5.33738 21.2172 5.24694 21.4885 5.24694C21.7598 5.24694 21.9407 5.24694 22.1215 5.33738C22.3929 5.42782 22.4833 5.69913 22.4833 5.97045H23.4781C23.4781 5.42782 23.2973 5.06606 22.9355 4.79474C22.5737 4.52342 22.1215 4.43298 21.6694 4.43298C21.0363 4.43298 20.5841 4.61386 20.2223 4.88518C19.8606 5.1565 19.7701 5.51825 19.7701 5.97045C19.7701 6.42265 19.951 6.7844 20.3128 7.05572C20.4936 7.14616 20.8554 7.32704 21.398 7.41748L21.9407 7.50792C22.212 7.59836 22.4833 7.6888 22.6642 7.77924C22.8451 7.86968 22.8451 7.96011 22.8451 8.14099C22.8451 8.41231 22.6642 8.59319 22.3929 8.68363C22.212 8.77407 22.0311 8.77407 21.7598 8.77407C21.3076 8.77407 21.0363 8.68363 20.8554 8.50275C20.765 8.41231 20.6745 8.23143 20.6745 7.96012H19.6797C19.6797 8.50275 19.8606 8.86451 20.2223 9.13583C20.5841 9.40714 21.1267 9.58802 21.7598 9.58802C22.3929 9.58802 22.9355 9.40714 23.2068 9.13583C23.5686 8.86451 23.7495 8.50275 23.7495 8.05055C23.7495 7.59836 23.5686 7.2366 23.2973 7.05572Z" fill="white"/>
<path d="M27.2769 7.59837C27.2769 7.96013 27.2769 8.14101 27.1864 8.32189C27.096 8.5932 26.8247 8.77408 26.3725 8.77408C25.9203 8.77408 25.649 8.5932 25.5585 8.32189C25.4681 8.14101 25.4681 7.96013 25.4681 7.59837V4.52344H24.3828V7.50793C24.3828 8.05057 24.4733 8.41233 24.6541 8.68364C24.9254 9.22628 25.5585 9.4976 26.3725 9.4976C27.2769 9.4976 27.8195 9.22628 28.0908 8.68364C28.2717 8.41233 28.3621 7.96013 28.3621 7.50793V4.52344H27.2769V7.59837Z" fill="white"/>
<path d="M32.3406 7.96013L30.3509 4.52344H29.2656V9.40716H30.2605V5.97047L32.2501 9.40716H33.3354V4.52344H32.3406V7.96013Z" fill="white"/>
<path d="M8.19153 14.6526C8.19153 15.0143 8.19153 15.1952 8.10109 15.3761C8.01065 15.6474 7.73933 15.8283 7.28713 15.8283C6.83494 15.8283 6.56362 15.6474 6.47318 15.3761C6.38274 15.1952 6.38274 15.0143 6.38274 14.6526V11.6681H5.20703V14.6526C5.20703 15.1952 5.29747 15.557 5.47835 15.8283C5.74967 16.3709 6.38274 16.6423 7.1967 16.6423C8.10109 16.6423 8.64372 16.3709 8.91504 15.8283C9.09592 15.557 9.18636 15.1048 9.18636 14.6526V11.6681H8.19153V14.6526Z" fill="white"/>
<path d="M13.2585 15.0143L11.2689 11.6681H10.1836V16.5518H11.088V13.0247L13.1681 16.5518H14.1629V11.6681H13.2585V15.0143Z" fill="white"/>
<path d="M16.2409 11.6681H15.2461V16.5518H16.2409V11.6681Z" fill="white"/>
<path d="M18.9557 15.3761L17.9609 11.6681H16.7852L18.5035 16.5518H19.4983L21.1262 11.6681H20.1314L18.9557 15.3761Z" fill="white"/>
<path d="M22.4831 14.3813H24.8345V13.5673H22.4831V12.482H25.1059V11.6681H21.4883V16.5518H25.1963V15.6474H22.4831V14.3813Z" fill="white"/>
<path d="M29.5367 16.0996C29.5367 16.0092 29.5367 15.8283 29.5367 15.6474V15.3761C29.5367 15.0143 29.4463 14.743 29.3559 14.6526C29.2654 14.4717 29.0845 14.3813 28.9037 14.2908C29.175 14.2004 29.3559 14.0195 29.4463 13.8386C29.5367 13.6578 29.6272 13.3864 29.6272 13.1151C29.6272 12.9342 29.6272 12.7534 29.5367 12.5725C29.4463 12.3916 29.3559 12.3012 29.2654 12.1203C29.175 11.9394 28.9941 11.849 28.8132 11.7585C28.6323 11.6681 28.361 11.6681 27.9993 11.6681H25.7383V16.5518H26.7331V14.6526H27.7279C27.9993 14.6526 28.1801 14.743 28.361 14.8335C28.4515 14.9239 28.5419 15.1048 28.5419 15.4665V15.9187C28.5419 16.0996 28.5419 16.1901 28.5419 16.3709C28.5419 16.4614 28.5419 16.5518 28.6323 16.6423H29.808V16.5518C29.7176 16.3709 29.6272 16.2805 29.5367 16.0996ZM28.361 13.7482C28.2706 13.8386 28.0897 13.8386 27.8184 13.8386H26.7331V12.482H27.9088C28.0897 12.482 28.2706 12.482 28.361 12.5725C28.5419 12.6629 28.6323 12.8438 28.6323 13.2056C28.6323 13.4769 28.5419 13.6578 28.361 13.7482Z" fill="white"/>
<path d="M33.6969 14.11C33.516 13.9292 33.2447 13.8387 32.7925 13.7483L31.8881 13.5674C31.5263 13.477 31.3455 13.3865 31.255 13.3865C31.0741 13.2961 30.9837 13.2057 30.9837 13.0248C30.9837 12.8439 31.0741 12.663 31.255 12.5726C31.4359 12.4821 31.6168 12.3917 31.8881 12.3917C32.1594 12.3917 32.3403 12.3917 32.5212 12.4821C32.7925 12.5726 32.8829 12.8439 32.8829 13.1152H33.8778C33.8778 12.5726 33.6969 12.2108 33.2447 11.9395C32.8829 11.6682 32.4307 11.4873 31.8881 11.4873C31.255 11.4873 30.8028 11.6682 30.4411 11.9395C30.0793 12.2108 29.9889 12.5726 29.9889 13.0248C29.9889 13.477 30.1698 13.8387 30.5315 14.11C30.7124 14.2005 31.0741 14.3814 31.6168 14.4718L32.1594 14.5622C32.4307 14.6527 32.7021 14.7431 32.8829 14.8336C33.0638 14.924 33.0638 15.0144 33.0638 15.1953C33.0638 15.4666 32.8829 15.6475 32.6116 15.738C32.4307 15.8284 32.2499 15.8284 31.9785 15.8284C31.5263 15.8284 31.255 15.738 31.0742 15.5571C30.9837 15.4666 30.8933 15.2858 30.8933 15.0144H29.8984C29.8984 15.5571 30.0793 15.9188 30.4411 16.1901C30.8028 16.4615 31.3455 16.6423 31.9785 16.6423C32.6116 16.6423 33.1543 16.4615 33.4256 16.1901C33.7873 15.9188 33.9682 15.5571 33.9682 15.1049C34.1491 14.6527 34.0586 14.3814 33.6969 14.11Z" fill="white"/>
<path d="M35.8659 11.6681H34.8711V16.5518H35.8659V11.6681Z" fill="white"/>
<path d="M43.1033 11.6681L42.1084 13.7482L41.1136 11.6681H40.3901H39.9379H36.3203V12.482H37.7673V16.5518H38.8526V12.482H40.3901L41.6562 14.743V16.5518H42.6511V14.6526L44.279 11.6681H43.1033Z" fill="white"/>
<path d="M5.30078 20.079V19.4459C5.66254 19.4459 5.84342 19.4459 5.93386 19.3555C6.11473 19.265 6.29561 19.265 6.47649 19.0841C6.56693 18.9937 6.65737 18.9033 6.74781 18.7224C6.74781 18.6319 6.74781 18.5415 6.74781 18.5415H7.56176V23.6061H6.56693V20.079H5.30078Z" fill="white"/>
<path d="M10.3635 21.1642C10.0922 21.1642 9.91128 21.0738 9.82084 20.9834C9.7304 20.8025 9.63996 20.6216 9.63996 20.3503C9.63996 19.9885 9.7304 19.7172 9.91128 19.6268C10.0017 19.5363 10.1826 19.4459 10.3635 19.4459C10.6348 19.4459 10.8157 19.5363 10.9061 19.7172C11.087 19.8981 11.087 20.079 11.087 20.3503C11.087 20.712 10.9965 20.9834 10.7252 21.0738C10.6348 21.0738 10.4539 21.1642 10.3635 21.1642ZM8.55469 20.3503C8.55469 20.8929 8.73557 21.2547 9.00688 21.526C9.36864 21.7973 9.7304 21.9782 10.0922 21.9782C10.3635 21.9782 10.6348 21.8878 10.8157 21.7973C10.9061 21.7069 10.9965 21.6164 11.087 21.526C11.087 21.8878 10.9965 22.1591 10.9061 22.4304C10.7252 22.7921 10.5444 22.973 10.1826 22.973C10.0017 22.973 9.91128 22.8826 9.7304 22.7922C9.63996 22.7017 9.54952 22.6113 9.54952 22.4304H8.64513C8.73557 22.8826 8.82601 23.1539 9.18776 23.4252C9.45908 23.6061 9.82084 23.787 10.273 23.787C11.087 23.787 11.6296 23.4252 11.9914 22.6113C12.1723 22.1591 12.2627 21.7069 12.2627 21.0738C12.2627 20.4407 12.1723 19.8981 11.9914 19.5363C11.7201 18.8128 11.1774 18.5415 10.3635 18.5415C9.82084 18.5415 9.45908 18.7224 9.09732 19.0841C8.64513 19.3555 8.55469 19.8077 8.55469 20.3503Z" fill="white"/>
<path d="M13.3485 21.7973L14.6147 19.6268V21.7973H13.3485ZM16.2426 21.7973H15.6999V18.632H14.5242L12.625 21.7069V22.6113H14.7051V23.6966H15.6999V22.6113H16.2426V21.7973Z" fill="white"/>
<path d="M17.6901 22.0686C17.6901 21.7069 17.7806 21.526 17.9615 21.3451C18.0519 21.2547 18.2328 21.1642 18.4137 21.1642C18.5945 21.1642 18.7754 21.2547 18.9563 21.4356C19.1372 21.6164 19.1372 21.7973 19.1372 22.0686C19.1372 22.34 19.0467 22.5208 18.9563 22.7017C18.8659 22.8826 18.685 22.973 18.4137 22.973C18.1423 22.973 17.9615 22.8826 17.871 22.7017C17.7806 22.5208 17.6901 22.34 17.6901 22.0686ZM20.132 19.8981C20.132 19.5363 19.9511 19.1746 19.6798 18.9033C19.4085 18.6319 19.0467 18.5415 18.5041 18.5415C18.1423 18.5415 17.871 18.6319 17.6901 18.7224C17.4188 18.9033 17.2379 19.0841 17.1475 19.265C16.9666 19.5363 16.8762 19.8981 16.7858 20.3503C16.7858 20.6216 16.6953 20.8929 16.6953 21.2547C16.6953 21.8878 16.7858 22.4304 17.0571 22.8826C17.3284 23.4252 17.871 23.6965 18.5041 23.6965C19.1372 23.6965 19.5894 23.5157 19.8607 23.1539C20.132 22.7922 20.3129 22.34 20.3129 21.8878C20.3129 21.4356 20.132 20.9834 19.8607 20.712C19.5894 20.4407 19.2276 20.2598 18.7754 20.2598C18.5945 20.2598 18.4137 20.2599 18.2328 20.3503C18.0519 20.4407 17.9615 20.5312 17.7806 20.712C17.7806 20.3503 17.871 19.9885 17.9615 19.8077C18.1423 19.4459 18.3232 19.265 18.685 19.265C18.8659 19.265 19.0467 19.3555 19.1372 19.5363C19.2276 19.6268 19.2276 19.7172 19.2276 19.8077H20.132V19.8981Z" fill="white"/>
<path d="M64.0852 26.8619V34.1875H59.3824V26.2288H52.1472L57.1214 34.2779H51.7855L48.2584 28.5802L44.7312 34.2779H39.3953L44.279 26.2288H36.7726V34.1875H32.1602V26.0479C32.341 23.6965 34.9638 23.4252 34.9638 23.4252H46.1782L48.2584 19.8981L50.3385 23.4252H61.1007C61.1007 23.5156 64.1757 23.9678 64.0852 26.8619Z" fill="white"/>
<path d="M32.1602 38.619V48.6577H40.4806V45.9445H36.7726V43.5931H40.4806V40.88H36.7726V38.7998H40.4806V36.0867H34.4211C34.4211 36.1771 32.2506 35.9962 32.1602 38.619Z" fill="white"/>
<path d="M64.086 38.3477V48.6577H55.7656V45.9445H59.4736V43.5931H55.7656V40.88H59.4736V38.7998H55.7656V36.0867H61.7346C61.7346 36.1771 63.8147 36.4484 64.086 38.3477Z" fill="white"/>
<path d="M64.0846 52.4562V64.1229H59.4722V53.3606H36.8624V64.1229H32.25V52.6371C32.25 50.7379 34.6014 50.4666 34.6014 50.4666H45.9063V47.5725H50.8805V50.4666H61.9141C61.9141 50.4666 63.9942 51.0092 64.0846 52.4562Z" fill="white"/>
<path d="M52.7805 56.2546H50.5195V58.4251H52.7805V60.5052H56.6694V54.5363H52.7805V56.2546Z" fill="white"/>
<path d="M42.1074 64.2134H56.6682V61.8619H44.0067V60.3245H40.1178V62.495C40.1178 62.495 40.0273 64.3038 42.1074 64.2134Z" fill="white"/>
<path d="M54.0462 47.3916V43.4122C50.0668 42.5079 50.2477 38.7998 50.2477 38.7998H54.0462V36.0867H42.3795V38.7998H45.9066C45.9066 38.7998 46.4493 41.8748 42.2891 43.4122V47.3916C42.2891 47.3916 46.7206 46.1254 48.2581 43.2314C48.2581 43.3218 50.0668 46.6681 54.0462 47.3916Z" fill="white"/>
<path d="M45.9076 54.6267L42.1092 54.5363C42.1092 54.5363 41.8378 57.5208 38.582 57.5208V60.1435C38.582 60.1435 42.3805 60.1435 44.0084 57.9729C44.0084 57.9729 45.5459 60.2339 49.4347 60.2339V57.7016C49.5252 57.7016 46.5407 57.3399 45.9076 54.6267Z" fill="white"/>
</g>
<defs>
<clipPath id="clip0_2521_55350">
<rect width="70" height="70" fill="white" transform="translate(0.414062 0.00146484)"/>
</clipPath>
</defs>
</svg>
