<svg width="47" height="70" viewBox="0 0 47 70" fill="none" xmlns="http://www.w3.org/2000/svg">
<g clip-path="url(#clip0_2541_57205)">
<path d="M46.3297 24.6035C45.2409 20.5216 41.1033 16.8258 37.9456 14.9503C37.5645 14.7296 37.1834 14.509 36.8023 14.3435C34.7335 13.3506 32.8824 12.7438 31.3036 12.468C30.4325 12.3025 29.1259 12.1922 28.3637 12.5232C27.1115 13.0748 27.5471 14.7848 27.8737 15.9432C28.0371 16.4948 28.2004 16.9361 28.6359 17.7083C29.0715 18.4806 30.2692 19.4183 32.2836 20.3009C31.848 20.5216 30.8681 20.8525 30.1603 21.018C30.9225 22.2316 31.848 23.3348 32.8824 24.2174C34.9513 26.0929 35.7679 26.0929 35.7679 26.0929C35.7679 26.0929 36.0401 24.8242 35.9312 23.6106C35.8768 23.059 35.659 22.6177 35.3324 22.3971C34.3524 21.5696 33.6991 20.7422 32.9913 19.6942C31.6303 17.598 29.997 14.1228 32.8824 13.6815C35.8768 16.1087 37.6189 20.4113 37.6734 23.5555C37.8367 29.5681 34.1346 34.8084 30.7047 37.3458C19.8707 45.3994 9.36328 41.0968 9.36328 41.0968C9.36328 41.0968 12.902 46.2269 19.3263 47.9369C26.7304 49.8675 36.639 47.4956 38.98 39.1662C39.5789 40.2694 39.1433 43.1378 39.1433 43.1378C39.1433 43.1378 43.4443 39.8281 45.5131 35.0842C46.8742 31.94 47.3097 28.4648 46.3297 24.6035Z" fill="#002461"/>
<path d="M10.1253 14.8399C9.9075 16.7154 9.79862 19.0874 10.5064 22.2867C10.7241 20.5216 11.4319 18.4254 12.5207 16.7706C14.9707 12.9644 19.4349 10.2615 23.7903 9.70991C29.5613 8.99281 35.3866 10.3718 40.1231 13.7919C43.3352 16.1638 45.6762 19.639 45.6762 19.639C45.6762 19.639 46.2751 16.1086 44.6418 12.4128C42.3552 7.33796 37.6187 3.09052 32.6645 2.92503C31.0856 2.86987 29.289 3.256 28.418 3.42149C28.4724 2.59407 31.6845 1.1047 31.6845 1.1047C31.6845 1.1047 23.5181 -2.14983 17.0395 2.37342C14.644 4.02827 11.2141 7.33796 10.2342 14.3435C10.1797 14.509 10.1797 14.6744 10.1253 14.8399Z" fill="#002461"/>
<path d="M26.2953 34.5877C28.2008 31.3884 28.2008 27.8029 27.1664 24.1622C26.4042 21.7903 25.0431 21.349 22.4843 20.3009C22.9743 19.9699 24.1176 19.639 24.8253 19.4183C22.811 17.1015 19.8166 15.3915 16.9312 15.888C15.8423 16.0535 14.7535 16.3844 13.9368 17.8186C15.6245 17.5428 18.1833 18.3703 19.5444 19.4735C24.7164 23.6658 24.3354 31.2229 19.49 34.7532C18.1833 35.691 16.0056 36.5736 14.4268 36.6287C12.0313 36.6839 10.0714 36.3529 8.3837 35.691C8.65591 35.7461 12.0858 36.2978 15.679 35.1394C13.9368 33.7603 12.5213 31.8297 11.9225 30.9471C10.2347 28.4097 4.62716 18.9219 11.0514 6.12439C8.81923 6.62084 6.64154 7.61375 4.6816 9.93054C2.12281 12.9644 1.41505 16.6602 1.63282 19.0874C1.85059 21.6799 2.77612 23.5003 2.93944 23.9416C1.79615 23.7209 0.217319 21.1283 0.217319 21.1283C0.217319 21.1283 -0.000451311 23.059 -0.000451311 23.8864C-0.000451311 23.8864 -0.980417 36.3529 11.1058 39.8281C16.7678 41.4829 23.3554 39.5523 26.2953 34.5877Z" fill="#002461"/>
<path d="M15.7869 53.6736H11.4315C8.38276 57.8107 5.82396 60.5136 4.89844 61.2307C5.66063 61.6168 7.51168 64.3749 9.63494 69.6704H14.0448C11.976 64.3749 10.1249 61.5617 9.52605 61.0652C10.2338 60.3481 12.6293 57.8107 15.7869 53.6736Z" fill="#002461"/>
<path d="M0.816638 53.6736C1.25218 54.3907 2.12326 54.5562 2.01437 55.7146L0 69.6153H3.64765L5.93423 53.6736H0.816638Z" fill="#002461"/>
<path d="M25.9683 58.3072C25.805 59.4104 25.4239 59.7965 24.7162 59.7965H20.4152L20.8507 56.7626H25.1517C25.8595 56.8178 26.1317 57.2591 25.9683 58.3072ZM25.315 64.7611C25.1517 65.9746 24.6617 66.5262 23.8995 66.5262H19.4897L20.0341 62.8856H24.3351C25.1517 62.8304 25.4784 63.4372 25.315 64.7611ZM29.9971 57.4797C30.3237 54.9975 29.7249 53.6736 26.6217 53.6736H16.2231C16.6587 54.3907 17.5298 54.5562 17.4209 55.7146L15.4609 69.6153H24.444C27.0028 69.6153 28.7449 68.512 29.2349 65.3127C29.5615 62.8304 29.0171 61.2307 27.5472 61.2307C28.8538 61.2307 29.6704 59.7414 29.9971 57.4797Z" fill="#002461"/>
<path d="M42.7911 61.5617C43.39 57.2039 42.9 56.7075 39.6879 56.7075C36.4758 56.7075 35.8224 57.2039 35.2236 61.5617C34.5703 65.9746 35.1147 66.6366 38.2724 66.6366C41.4845 66.6366 42.1378 65.9746 42.7911 61.5617ZM46.6565 61.5065C45.731 68.0708 42.8455 70.0014 37.7824 70.0014C32.7192 70.0014 30.3782 68.1259 31.3037 61.5065C32.2292 54.9975 35.0603 53.2875 40.1234 53.2875C45.1866 53.3426 47.582 55.0526 46.6565 61.5065Z" fill="#002461"/>
</g>
<defs>
<clipPath id="clip0_2541_57205">
<rect width="46.875" height="70" fill="white" transform="translate(0 0.00146484)"/>
</clipPath>
</defs>
</svg>
