<svg width="132" height="36" viewBox="0 0 132 36" fill="none" xmlns="http://www.w3.org/2000/svg">
<g clip-path="url(#clip0_2512_19621)">
<path d="M40.0878 14.3039C39.1577 11.6202 36.7574 9.46022 32.3769 9.32931C26.3463 9.10022 22.4759 12.8639 21.5758 15.842C21.4557 16.202 21.7558 16.3657 22.1158 16.1693C23.736 15.122 25.9262 16.1366 26.8563 17.7729C27.1864 18.362 27.4264 19.1475 27.4864 20.0311C27.8764 19.0493 28.7765 18.362 29.8267 18.362C31.2368 18.362 32.3769 19.6057 32.3769 21.1439C32.3769 22.682 31.2368 23.9257 29.8267 23.9257C28.7165 23.9257 27.7864 23.1729 27.4264 22.0929C27.2764 23.1402 26.9163 24.2529 26.3463 25.2675C24.5461 28.7693 19.7756 33.9402 7.32422 34.3657C15.9352 37.5075 25.4462 36.2311 32.4969 30.8311C39.3677 25.7584 40.2678 19.8675 40.2678 19.8675C40.6878 17.8384 40.6578 15.9075 40.0878 14.3039Z" fill="url(#paint0_linear_2512_19621)"/>
<path d="M20.9156 24.1223C23.946 21.2423 23.856 18.2641 22.9559 16.9877C22.7758 16.7914 22.5658 16.9223 22.5358 17.1186C22.0858 18.5586 17.4353 20.1623 14.0449 17.7405C14.1949 18.0677 14.3149 18.4605 14.3149 18.8532C14.3149 20.1295 13.3548 21.1768 12.1847 21.1768C10.9846 21.1768 10.0545 20.1295 10.0545 18.8532C10.0545 17.5768 11.0146 16.4968 12.1847 16.4968C12.4247 16.4968 12.6648 16.5623 12.8748 16.6277C12.4247 16.1041 12.0347 15.515 11.7046 14.795C9.27439 9.62409 12.2747 3.01318 12.2747 3.01318C7.5042 5.99137 2.79369 11.3914 1.32353 16.955C-0.0266178 22.1586 1.80358 25.6932 4.71389 27.4932C8.85434 30.0132 16.5352 28.2459 20.9156 24.1223Z" fill="url(#paint1_linear_2512_19621)"/>
<path d="M20.707 17.5439C20.947 17.5439 21.0671 17.3803 20.827 17.053C19.8969 15.8094 19.6569 12.1439 22.4772 8.96936C22.2972 9.03481 22.1172 9.06754 21.9371 9.06754C20.887 9.06754 20.0469 8.15118 20.0469 7.00572C20.0469 5.86027 20.887 4.9439 21.9371 4.9439C22.9873 4.9439 23.8274 5.86027 23.8274 7.00572C23.8274 7.30027 23.7673 7.56209 23.6773 7.8239C24.2174 7.36572 24.8175 6.94027 25.4775 6.54754C25.4775 6.54754 31.2081 2.94754 37.0888 4.84572C34.0585 1.63845 27.0077 -1.69973 20.917 1.04936C16.2665 3.1439 14.6164 8.11845 15.3964 11.9803C16.0865 15.3512 18.5768 17.413 20.707 17.5439Z" fill="url(#paint2_linear_2512_19621)"/>
<path d="M60.5053 9.56404V6.27902C60.5053 5.19646 57.8359 5.27112 57.8359 5.27112V16.1714H60.5053V11.0572H62.6271V9.56404H60.5053Z" fill="#0055A2"/>
<path d="M55.0649 16.4702C52.5667 16.4702 50 17.8514 50 20.2778C50 22.7043 52.5667 24.0855 55.0649 24.0855C57.5632 24.0855 60.1299 22.7043 60.1299 20.2778C60.1299 17.8514 57.5632 16.4702 55.0649 16.4702ZM55.0649 22.7043C53.9014 22.7043 52.6694 21.8457 52.6694 20.2778C52.6694 18.7473 53.8672 17.8514 55.0649 17.8514C56.2285 17.8514 57.4605 18.7473 57.4605 20.2778C57.4605 21.8457 56.2285 22.7043 55.0649 22.7043Z" fill="#0055A2"/>
<path d="M51.2292 12.6623C53.0088 13.7448 55.0279 15.7606 55.0279 15.7606L56.2941 13.5209C55.6781 12.6623 53.043 11.6544 52.0505 11.2811C52.3243 10.7211 52.5639 10.1239 52.7008 9.45192H56.1572V7.95873H52.8376V6.46554C52.8376 5.38298 50.1683 5.45764 50.1683 5.45764H49.9972V7.95873H46.1985C46.1985 7.95873 46.1642 9.37726 46.6434 9.45192H49.9972C49.7918 11.0944 48.4914 13.6329 46.0273 15.462L46.7118 16.022C46.746 16.022 49.3812 15.1634 51.2292 12.6623Z" fill="#0055A2"/>
<path d="M70.5652 12.6621C72.7897 12.6621 75.0484 11.3929 75.0484 9.22779C75.0484 7.02534 72.7897 5.79346 70.5652 5.79346C68.3407 5.79346 66.082 7.06267 66.082 9.22779C66.082 11.4302 68.3407 12.6621 70.5652 12.6621ZM70.5652 7.28665C71.455 7.28665 72.3448 7.99591 72.3448 9.22779C72.3448 10.4597 71.455 11.1689 70.5652 11.1689C69.6754 11.1689 68.7856 10.4597 68.7856 9.22779C68.7856 7.99591 69.6754 7.28665 70.5652 7.28665Z" fill="#0055A2"/>
<path d="M69.2651 17.5898H71.9344V14.7901H76.3834V13.2969H64.645C64.645 13.2969 64.6108 14.7901 65.1241 14.7901H69.2651V17.5898Z" fill="#0055A2"/>
<path d="M71.0092 18.4482H68.3398V21.6213C68.3398 22.6665 69.0927 23.4878 70.051 23.4878H79.8044V21.9946H71.0092V18.4482Z" fill="#0055A2"/>
<path d="M73.9869 17.4405H77.1696V19.2696H79.839V6.46554C79.839 5.38298 77.1696 5.45764 77.1696 5.45764V15.9473H73.5078C73.5078 15.9473 73.5078 17.4405 73.9869 17.4405Z" fill="#0055A2"/>
<path d="M121.215 6.83899C121.215 6.83899 121.831 13.0357 116.492 18.5605L117.177 19.1205C119.162 17.9632 120.907 16.2088 122.139 14.1556C124.021 15.7235 125.732 18.8218 125.732 18.8218L127.307 16.806C126.485 15.0142 123.713 13.1477 122.926 12.6624C123.645 11.0946 124.09 9.45207 124.192 7.84689C124.261 6.76433 121.523 6.83899 121.523 6.83899" fill="#0055A2"/>
<path d="M129.016 5.45769V23.4879H131.685V6.46559C131.685 5.42036 129.016 5.45769 129.016 5.45769Z" fill="#0055A2"/>
<path d="M97.6702 16.0219H82.7492C81.9278 16.0219 81.7225 15.0886 81.8252 14.3047H97.7045V16.0219H97.6702Z" fill="#0055A2"/>
<path d="M83.5703 17.4033H94.2135C95.1376 17.4033 95.8905 18.2246 95.8905 19.2325V23.4134H93.1869V19.0832H83.5703V17.4033Z" fill="#0055A2"/>
<path d="M95.2035 5.53223V7.21206L86.682 7.24939V8.44395L94.9639 8.40662V10.0865H86.7162V11.393L95.443 11.3557C95.5115 12.0649 95.5115 13.0355 94.6217 13.0355H84.0469V5.53223H95.2035Z" fill="#0055A2"/>
<path d="M112.043 5.49527V12.14V23.5255H114.507V6.54051C114.507 5.45794 112.043 5.49527 112.043 5.49527Z" fill="#0055A2"/>
<path d="M108.45 5.49527V9.45222H106.91V11.0574H108.45V14.1931H106.91V15.7983H108.45V23.5255H110.914V12.1773V10.5721V6.54051C110.914 5.45794 108.45 5.49527 108.45 5.49527Z" fill="#0055A2"/>
<path d="M102.563 17.5155V13.8198H106.191V6.95117H99.7913V6.9885C99.7913 7.17515 99.7229 8.51902 100.339 8.63101H103.419V12.1027H99.7913V19.1953H106.259C107.115 19.1953 107.218 18.2248 107.115 17.5155H102.563Z" fill="#0055A2"/>
<path d="M76.3835 26.4746C75.8017 26.4746 75.2542 26.6986 74.8777 27.1465C74.5013 27.5945 74.2617 28.1544 74.2617 28.7891C74.2617 30.2449 75.1173 31.2528 76.3835 31.2528C77.6155 31.2528 78.5053 30.2449 78.5053 28.7891C78.5053 28.1544 78.3 27.5572 77.8893 27.1465C77.4786 26.7359 76.9653 26.4746 76.3835 26.4746ZM76.3835 30.5436C75.3226 30.5436 75.2542 29.237 75.2542 28.8264C75.2542 28.0798 75.5622 27.2585 76.3835 27.2585C77.2049 27.2585 77.5129 28.0798 77.5129 28.8264C77.4786 29.237 77.4102 30.5436 76.3835 30.5436Z" fill="#0055A2"/>
<path d="M57.2882 26.8106C57.2198 26.6613 57.1171 26.5493 56.9118 26.5493H56.5696L54.8242 31.1782H55.7825L56.1589 29.9463H57.5963L57.9727 31.1782H58.9309M56.3985 29.3117L56.9118 27.8932L57.4251 29.3117H56.3985Z" fill="#0055A2"/>
<path d="M53.8994 26.5864H53.3861V28.3409H51.7434V26.5864H50.7852V31.2153H51.7434V29.0502H53.3861V31.2153H54.3443V27.0344C54.3443 26.7731 54.2074 26.5864 53.8994 26.5864Z" fill="#0055A2"/>
<path d="M62.7962 26.5864H62.2828V29.7221L60.4348 26.7731C60.3664 26.6611 60.2637 26.5864 60.0926 26.5864H59.4766V31.2153H60.4348V28.0796L62.4197 31.2153H63.2753V27.0344C63.2068 26.7731 63.0699 26.5864 62.7962 26.5864Z" fill="#0055A2"/>
<path d="M72.2075 29.9837L71.3862 26.848C71.3519 26.6613 71.2151 26.5493 71.0097 26.5493H70.5991L69.7093 29.9837L68.9906 26.848C68.9564 26.6613 68.8195 26.5493 68.5799 26.5493H67.9297L69.1275 31.1782H70.0857L70.9413 27.9305L71.7968 31.1782H72.7551L73.9529 26.5493H72.9946" fill="#0055A2"/>
<path d="M82.3391 26.5864H81.8258V29.7221L79.9778 26.7731C79.9093 26.6611 79.8067 26.5864 79.6355 26.5864H79.0195V31.2153H79.9778V28.0796L81.9627 31.2153H82.8182V27.0344C82.7498 26.7731 82.6471 26.5864 82.3391 26.5864Z" fill="#0055A2"/>
<path d="M67.2476 27.2212L67.4187 26.8852L67.3845 26.8479C67.0765 26.6239 66.5974 26.4746 66.1525 26.4746C65.4338 26.4746 64.8178 26.7359 64.3729 27.1839C63.9622 27.6318 63.7227 28.1918 63.7227 28.8637C63.7227 30.2822 64.7151 31.2901 66.1182 31.2901C66.5289 31.2901 67.008 31.2155 67.5214 30.9915H67.5556V29.013H66.5974V30.4316C66.4605 30.5062 66.2894 30.5062 66.0498 30.5062C65.3996 30.5062 64.6809 29.9463 64.6809 28.8637C64.6809 27.8931 65.2627 27.2585 66.1182 27.2585C66.3578 27.2585 66.5974 27.3332 66.7685 27.3705C66.9738 27.4452 67.1449 27.3705 67.2476 27.2212Z" fill="#0055A2"/>
<path d="M50.1684 27.2212L50.3395 26.8852L50.3052 26.8479C50.0999 26.6986 49.655 26.4746 49.1417 26.4746C48.423 26.4746 47.8412 26.7359 47.3963 27.1839C46.9857 27.6318 46.7461 28.1918 46.7461 28.8637C46.7461 30.2822 47.7386 31.2901 49.1417 31.2901C49.5866 31.2901 50.0315 31.1408 50.271 30.9542L50.3052 30.9168L50.0315 30.2449L49.963 30.2822C49.7235 30.4316 49.4497 30.5062 49.1417 30.5062C48.2861 30.5062 47.7043 29.8343 47.7043 28.8637C47.7043 27.8931 48.2861 27.2585 49.1075 27.2585C49.3128 27.2585 49.5181 27.3332 49.6892 27.4079C49.8946 27.4452 50.0657 27.3705 50.1684 27.2212Z" fill="#0055A2"/>
<path d="M122.345 26.5866L121.49 28.3785L120.737 26.8106C120.668 26.6986 120.566 26.5866 120.36 26.5866H119.676L121.01 29.1624V31.2529H121.969V29.1251L123.303 26.5493" fill="#0055A2"/>
<path d="M119.331 26.5864H115.875V26.8477C115.875 27.109 116.012 27.2957 116.286 27.2957H117.141V31.2153H118.099V27.2957H119.366V26.5864" fill="#0055A2"/>
<path d="M114.986 26.5864H114.473V31.2153H115.431V27.0344C115.397 26.7731 115.26 26.5864 114.986 26.5864Z" fill="#0055A2"/>
<path d="M113.789 27.2212L113.961 26.8852L113.926 26.8479C113.721 26.6986 113.276 26.4746 112.763 26.4746C112.044 26.4746 111.462 26.7359 111.017 27.1839C110.607 27.6318 110.367 28.1918 110.367 28.8637C110.367 30.2822 111.36 31.2901 112.763 31.2901C113.208 31.2901 113.653 31.1408 113.892 30.9542L113.926 30.9168L113.653 30.2449L113.618 30.2822C113.379 30.4316 113.105 30.5062 112.797 30.5062C111.941 30.5062 111.36 29.8343 111.36 28.8637C111.36 27.8931 111.941 27.2585 112.763 27.2585C112.968 27.2585 113.173 27.3332 113.345 27.4079C113.516 27.4452 113.687 27.3705 113.789 27.2212Z" fill="#0055A2"/>
<path d="M103.659 26.8106C103.591 26.6613 103.488 26.5493 103.283 26.5493H102.941L101.195 31.1782H102.154L102.53 29.9463H103.967L104.344 31.1782H105.302L103.659 26.8106ZM102.735 29.3117L103.249 27.8932L103.762 29.3117H102.735Z" fill="#0055A2"/>
<path d="M100.373 26.5864H99.8594V31.2153H100.818V27.0344C100.783 26.7731 100.646 26.5864 100.373 26.5864Z" fill="#0055A2"/>
<path d="M99.1762 27.2212L99.3473 26.8852L99.3131 26.8479C99.1077 26.6986 98.6628 26.4746 98.1495 26.4746C97.4308 26.4746 96.849 26.7359 96.4041 27.1839C95.9935 27.6318 95.7539 28.1918 95.7539 28.8637C95.7539 30.2822 96.7464 31.2901 98.1495 31.2901C98.5944 31.2901 99.0393 31.1408 99.2788 30.9542L99.3131 30.9168L99.0393 30.2449L99.0051 30.2822C98.7655 30.4316 98.4917 30.5062 98.1837 30.5062C97.3281 30.5062 96.7464 29.8343 96.7464 28.8637C96.7464 27.8931 97.3281 27.2585 98.1495 27.2585C98.3548 27.2585 98.5602 27.3332 98.7313 27.4079C98.9024 27.4452 99.0735 27.3705 99.1762 27.2212Z" fill="#0055A2"/>
<path d="M109.066 30.3942V30.3196H106.67V26.9972C106.67 26.8479 106.636 26.7359 106.533 26.6613C106.328 26.4373 105.917 26.5119 105.815 26.5119H105.746V31.1408H108.621C108.758 31.1408 108.86 31.1035 108.929 30.9915C109.031 30.8422 109.1 30.6182 109.066 30.3942Z" fill="#0055A2"/>
<path d="M86.6499 28.3411C86.6157 28.3411 86.5815 28.3038 86.513 28.3038C86.2735 28.2292 85.6232 28.0052 85.6232 27.7812C85.6232 27.4826 86.1366 27.2959 86.5815 27.2959C86.9579 27.2959 87.3686 27.3706 87.745 27.5572L87.8135 27.5946L87.9504 27.1093C87.9846 26.9973 87.9504 26.8853 87.9161 26.8106C87.8819 26.736 87.7793 26.6613 87.6766 26.6613C87.3686 26.5866 86.9921 26.5493 86.6157 26.5493C85.4521 26.5493 84.6992 27.0719 84.6992 27.8559C84.6992 28.6025 85.589 28.9384 86.205 29.1624L86.3761 29.2371C86.7868 29.3864 87.2659 29.573 87.2659 29.8717C87.2659 30.245 86.7183 30.4689 86.1708 30.4689C85.7943 30.4689 85.3837 30.3943 84.973 30.2076L84.8703 30.1703L84.7334 30.6556C84.6992 30.7676 84.7334 30.8796 84.7677 30.9542C84.8019 31.0289 84.9045 31.1035 84.973 31.1035C85.3837 31.2155 85.7259 31.2529 86.0681 31.2529C87.4028 31.2529 88.1557 30.7302 88.1557 29.8343C88.1899 28.9384 87.2659 28.5651 86.6499 28.3411Z" fill="#0055A2"/>
<path d="M90.2786 26.5122H88.4648V31.1411H89.3546V29.4239H90.2444C91.1 29.4239 92.024 28.976 92.024 27.9681C92.0582 27.0348 91.3738 26.5122 90.2786 26.5122ZM91.1342 27.9307C91.1342 28.416 90.6551 28.6027 90.3129 28.6027H89.3546V27.2961H90.3129C90.5182 27.2961 91.1342 27.3708 91.1342 27.9307Z" fill="#0055A2"/>
<path d="M95.6526 30.3196H93.257V29.1623H95.4814V28.3411H93.257V27.2959H95.2077C95.3446 27.2959 95.4472 27.2585 95.5157 27.1465C95.6868 26.9599 95.6526 26.6613 95.6526 26.5493V26.4746H92.3672V31.1035H95.2419C95.3788 31.1035 95.4814 31.0662 95.5499 30.9542C95.721 30.7675 95.6868 30.4689 95.6868 30.3569L95.6526 30.3196Z" fill="#0055A2"/>
</g>
<defs>
<linearGradient id="paint0_linear_2512_19621" x1="15.7293" y1="40.9382" x2="37.9622" y2="10.7201" gradientUnits="userSpaceOnUse">
<stop stop-color="#6CBB5A"/>
<stop offset="1" stop-color="#009A53"/>
</linearGradient>
<linearGradient id="paint1_linear_2512_19621" x1="2.07401" y1="9.47011" x2="21.5843" y2="24.4786" gradientUnits="userSpaceOnUse">
<stop stop-color="#4CACE2"/>
<stop offset="0.1889" stop-color="#3F9FD9"/>
<stop offset="0.5698" stop-color="#157DC3"/>
<stop offset="1" stop-color="#0056A7"/>
</linearGradient>
<linearGradient id="paint2_linear_2512_19621" x1="32.2844" y1="-1.04319" x2="14.8394" y2="14.4011" gradientUnits="userSpaceOnUse">
<stop stop-color="#F8B500"/>
<stop offset="1" stop-color="#EA5504"/>
</linearGradient>
<clipPath id="clip0_2512_19621">
<rect width="130.814" height="36" fill="white" transform="translate(0.875 0.00195312)"/>
</clipPath>
</defs>
</svg>
