<svg width="132" height="36" viewBox="0 0 132 36" fill="none" xmlns="http://www.w3.org/2000/svg">
<g clip-path="url(#clip0_2521_53198)">
<path d="M109.876 22.1359C111.116 22.1359 111.281 20.9427 111.281 20.9427V15.9644L110.248 16.0056C111.033 15.4707 110.992 14.401 110.992 14.401V10.3279H111.943C112.232 10.3279 113.1 10.2867 113.1 9.17585C113.1 8.06499 111.943 8.02385 111.943 8.02385H110.951V4.23871H108.388V14.5656C107.892 15.9644 107.106 16.0056 107.106 16.0056L99.8311 16.0467H94.168V18.0216H99.8311L108.594 18.0627V20.9839C108.594 22.177 109.876 22.1359 109.876 22.1359Z" fill="#003A56"/>
<path d="M131.659 20.3667C131.659 19.4204 130.502 19.3793 130.502 19.3793L130.13 19.3381C131.039 18.8033 130.75 17.3221 130.75 17.3221V6.58383C130.791 4.40326 129.344 4.56783 129.344 4.56783H114.794V7.20098H128.104V17.6513C128.146 19.3793 126.906 19.3381 126.906 19.3381H125.417V11.9735H122.772V19.3381H119.672L119.713 12.0147H117.15V19.3381H114.422V21.7244H130.378C130.833 21.601 131.659 21.2718 131.659 20.3667Z" fill="#003A56"/>
<path d="M93.7945 10.657C94.1665 15.553 99.7056 15.4707 99.7056 15.4707C99.7469 15.4707 99.7883 15.4707 99.7883 15.4707C104.997 15.4296 105.947 10.9861 105.947 10.9861C105.947 8.22955 103.467 7.11869 103.467 7.11869H104.955C105.451 7.11869 105.989 6.87184 105.947 6.17241C105.906 5.47298 105.038 5.34955 105.038 5.34955H101.194V3.86841H99.7883H98.5482V5.34955H94.7039C93.8771 5.30841 93.7945 6.13127 93.7945 6.13127C93.7531 7.07755 94.5799 7.15984 94.5799 7.15984H95.9026C94.0012 7.85927 93.7945 10.657 93.7945 10.657ZM99.7883 8.06498C101.731 8.06498 103.302 9.21698 103.302 10.657C103.302 12.097 101.731 13.249 99.8296 13.249C99.8296 13.249 99.8296 13.249 99.7883 13.249C97.8455 13.2078 96.316 12.0558 96.316 10.657C96.316 9.25812 97.8455 8.10612 99.7883 8.06498Z" fill="#003A56"/>
<path d="M71.8882 7.03643H70.3587V4.19757H67.7545V8.68214C67.7545 8.68214 67.4238 10.1633 66.5144 10.1633H62.2154H56.1389V4.93814H53.2453L53.204 10.7804C53.204 10.7804 53.0387 12.5496 54.6508 12.5496H62.2154H66.1837C66.1837 12.5496 67.1345 12.5496 67.6305 11.9324C67.6305 11.9324 68.0852 13.6193 67.0104 14.2776H62.2154H54.1134V20.3256C54.1134 20.3256 54.1548 21.6421 55.5602 21.6421H62.1741H70.6067V14.2776H69.7387C69.7387 14.2776 70.3174 14.2776 70.3174 13.249V9.09357L71.7228 9.05243C71.7228 9.05243 72.5495 9.01128 72.5495 7.94157C72.5909 7.94157 72.5909 7.03643 71.8882 7.03643ZM67.7132 19.297H62.2154H56.7176V16.705H62.2154H67.7132V19.297Z" fill="#003A56"/>
<path d="M90.7768 20.5313V4.19757H88.1313V10.2456H86.0645V4.19757H83.4189L83.4603 17.0753C83.3776 18.433 81.8895 18.1861 81.8895 18.1861H76.8877L76.9291 6.99529H81.5174C82.7575 6.99529 82.6749 6.00786 82.6749 6.00786C82.6749 4.97929 81.5588 4.85586 81.5588 4.85586L74.2422 4.81471V19.1324C74.2422 20.6136 75.9783 20.449 75.9783 20.449H82.1375C82.9642 20.4079 83.4189 19.873 83.4189 19.873V20.449C83.5016 22.0947 84.7004 21.9301 84.7004 21.9301C85.8578 21.9301 86.0231 20.449 86.0231 20.449V12.2204H88.1313V20.449C88.1313 21.4364 88.8754 22.0947 89.5781 21.9301C90.7768 21.8479 90.7768 20.5313 90.7768 20.5313Z" fill="#003A56"/>
<path d="M47.4165 13.5781C47.4165 13.5781 47.5405 14.7301 46.7964 14.689C46.7964 14.689 44.4403 13.8661 41.6294 13.825C41.588 13.825 41.588 13.825 41.588 13.825C41.588 13.825 35.5942 13.9484 33.6101 16.705C33.3207 17.1164 33.114 17.5279 33.114 18.1039C33.114 18.1039 33.0727 18.8033 33.6101 19.585C34.3955 20.8604 36.4209 22.465 41.5054 22.3827C41.5054 22.3827 41.5467 22.3827 41.588 22.3827C42.4974 22.4239 48.9046 22.465 49.9794 18.145C49.9794 18.145 50.186 16.705 49.2766 16.3759C49.2766 16.3759 50.1447 16.129 50.186 14.977V4.19757H47.4165V6.21357H44.5229V8.27071H47.4578V10.081H44.5229V12.0147H47.4165V13.5781ZM41.6294 20.5313C38.9838 20.5313 36.793 19.4204 36.793 18.1039C36.793 16.7873 38.9011 15.7176 41.6294 15.7176V15.7587C44.2749 15.7587 46.4657 16.7873 46.4657 18.1039C46.4244 19.4616 44.2749 20.5313 41.6294 20.5313Z" fill="#003A56"/>
<path d="M33.6096 14.7301C33.8989 14.7301 34.1056 14.6478 34.1056 14.6478C37.7019 13.4958 40.0581 11.7678 41.5875 10.081C43.9851 7.4067 44.3571 4.8147 44.3571 4.8147H41.5875H33.6096H33.0722V7.15984H33.6096H41.0915C38.1979 11.3564 34.7256 12.2204 33.5682 12.5907C33.2789 12.673 33.1549 12.7141 33.1549 12.7141C33.1549 12.7141 32.3695 13.0844 32.3281 13.7016V13.825C32.3281 13.9073 32.3695 14.0307 32.4108 14.1541C32.7828 14.6478 33.2375 14.7713 33.6096 14.7301Z" fill="#003A56"/>
<path d="M112.976 31.8867C112.976 31.8455 113.018 31.8044 113.018 31.7221C113.018 31.6398 113.018 31.5575 113.018 31.5575C113.018 30.9815 112.935 30.5701 112.77 30.3644C112.604 30.1175 112.356 29.9941 111.943 29.9118C112.315 29.8295 112.563 29.665 112.728 29.377C112.894 29.1301 112.976 28.7187 112.976 28.1838C112.976 27.5255 112.811 27.073 112.522 26.8261C112.232 26.5792 111.695 26.4558 110.868 26.4147C110.827 26.4147 110.827 26.4147 110.786 26.4147H108.719V33.3267H110.166V30.4467H110.786C110.827 30.4467 110.827 30.4467 110.868 30.4467C111.116 30.4467 111.282 30.529 111.364 30.6524C111.488 30.7758 111.53 31.0227 111.571 31.393C111.571 31.5164 111.571 31.681 111.571 31.9278C111.571 32.6272 111.612 33.0798 111.654 33.2855H113.183C113.1 33.121 113.059 32.9152 113.018 32.6684C112.976 32.4627 112.976 32.1747 112.976 31.8867ZM111.282 29.1301C111.199 29.2124 111.034 29.2947 110.786 29.3358C110.703 29.377 110.579 29.377 110.455 29.377H110.083V27.4844H110.455C110.579 27.4844 110.703 27.4844 110.744 27.5255C110.992 27.5667 111.158 27.6078 111.24 27.6901C111.364 27.8135 111.447 28.0604 111.447 28.3895C111.53 28.7598 111.447 29.0067 111.282 29.1301Z" fill="#003A56"/>
<path d="M117.152 29.6238C117.07 29.5415 116.904 29.4593 116.656 29.3358C115.871 28.8421 115.458 28.4307 115.458 28.0604C115.458 27.8135 115.54 27.6901 115.664 27.5667C115.788 27.4433 115.954 27.361 116.16 27.361C116.408 27.361 116.574 27.4433 116.698 27.6078C116.78 27.7724 116.863 28.0193 116.863 28.3484V28.3895H118.31V28.225C118.31 27.6078 118.144 27.1141 117.772 26.785C117.4 26.4558 116.904 26.2913 116.202 26.2913C115.499 26.2913 114.961 26.4558 114.589 26.785C114.176 27.1553 114.011 27.6078 114.011 28.1838C114.011 28.4718 114.052 28.7598 114.135 28.9655C114.217 29.1713 114.424 29.377 114.672 29.5827C114.755 29.665 114.92 29.7884 115.085 29.953C115.292 30.0764 115.54 30.241 115.871 30.4467C115.912 30.4467 115.912 30.4878 115.954 30.4878C116.574 30.8993 116.904 31.2695 116.904 31.5987C116.904 31.8455 116.822 32.0101 116.698 32.1747C116.574 32.2981 116.408 32.3804 116.16 32.3804C115.871 32.3804 115.664 32.2981 115.54 32.1335C115.458 31.969 115.375 31.7221 115.375 31.3518V31.1873H113.887C113.887 31.2284 113.887 31.2695 113.887 31.3107C113.887 31.3518 113.887 31.393 113.887 31.4341C113.887 32.1335 114.052 32.6273 114.383 32.9153C114.713 33.2444 115.251 33.409 115.995 33.409C116.78 33.409 117.359 33.2444 117.772 32.8741C118.144 32.545 118.351 32.0513 118.351 31.393C118.351 31.0227 118.268 30.6935 118.103 30.4467C117.938 30.1998 117.607 29.9118 117.152 29.6238Z" fill="#003A56"/>
<path d="M120.873 26.3735H119.426V33.3267H120.873V26.3735Z" fill="#003A56"/>
<path d="M121.617 27.5255H123.188V33.3267H124.717V27.5255H126.288V26.3735H121.617V27.5255Z" fill="#003A56"/>
<path d="M128.932 29.2535L127.94 26.3735H126.328L128.106 30.6935V33.3267H129.594V30.6935L131.537 26.3735H130.048L128.932 29.2535Z" fill="#003A56"/>
<path d="M69.4085 26.3735H68.5405L66.5977 33.3267H68.0444L68.4165 31.7632H69.4085H70.442L70.7726 33.3267H72.3021L70.4006 26.3735H69.4085ZM69.4085 30.6935H68.6645L69.4085 27.8135L69.4499 27.7313L70.1526 30.7347H69.4085V30.6935Z" fill="#003A56"/>
<path d="M76.6409 30.6112C76.5995 30.8581 76.5582 31.105 76.5582 31.3518C76.5169 31.5987 76.4755 31.8455 76.4755 32.0512C76.4342 31.7221 76.3929 31.4341 76.3929 31.1873C76.3515 30.9404 76.3102 30.7758 76.3102 30.6112L75.3181 26.3735H73.0859V33.3267H74.5327L74.45 28.5952V28.5541C74.45 27.8547 74.4087 27.2787 74.3674 26.8673L75.8968 33.3678H77.2609L78.7077 26.8673C78.6664 27.1141 78.6664 27.361 78.6664 27.649C78.6664 27.937 78.625 28.2661 78.625 28.5952L78.501 33.3267H79.8651V26.3735H77.5503L76.6409 30.6112Z" fill="#003A56"/>
<path d="M86.7679 30.529C86.7679 31.2695 86.6852 31.7633 86.5612 32.0101C86.4372 32.257 86.1892 32.3804 85.8585 32.3804C85.4864 32.3804 85.2384 32.2981 85.1144 32.0924C84.9904 31.8455 84.9077 31.3518 84.9077 30.5701V26.3735H83.4609V30.9404C83.4609 31.8044 83.6676 32.4215 84.0397 32.833C84.4117 33.2444 84.9904 33.4501 85.8171 33.4501C86.6439 33.4501 87.2639 33.2033 87.6359 32.833C88.008 32.4215 88.2146 31.7221 88.2146 30.7347V26.3735H86.7679V30.529Z" fill="#003A56"/>
<path d="M93.3427 30.3644C93.3427 30.7758 93.3427 31.1461 93.384 31.4752C93.4253 31.8044 93.4254 32.0924 93.4667 32.4215C93.384 32.0101 93.3013 31.6398 93.1773 31.2284C93.0533 30.8581 92.9293 30.4055 92.764 29.9941L91.4412 26.3735H89.457V33.3267H90.8211L90.7385 29.2124C90.7385 28.9655 90.7385 28.6775 90.6971 28.3484C90.6558 28.0193 90.6558 27.649 90.6145 27.1964C90.7385 27.6901 90.8625 28.1015 90.9865 28.513C91.1105 28.8833 91.2345 29.2535 91.3172 29.5415L92.764 33.3267H94.6655V26.3735H93.3427V30.3644Z" fill="#003A56"/>
<path d="M97.3101 26.3735H95.8633V33.3267H97.3101V26.3735Z" fill="#003A56"/>
<path d="M100.865 29.9941C100.823 30.3232 100.741 30.6524 100.658 31.0227C100.617 31.393 100.575 31.8044 100.493 32.257C100.451 32.0101 100.41 31.681 100.369 31.3518C100.327 31.0227 100.245 30.5701 100.121 29.9941L99.4178 26.3735H97.9297L99.6658 33.3267H101.361L103.179 26.3735H101.733L100.865 29.9941Z" fill="#003A56"/>
<path d="M105.328 30.1998H107.395V29.1301H105.328V27.4432H107.601V26.3735H103.84V33.3267H107.684V32.1747H105.328V30.1998Z" fill="#003A56"/>
<path d="M39.4372 29.2535L38.4038 26.3735H37.1637L36.9984 26.6615L36.957 26.7027L36.9984 26.785L38.6105 30.6935V33.3267H40.0986V30.6935L42.0828 26.3735H40.5533L39.4372 29.2535Z" fill="#003A56"/>
<path d="M45.971 30.529C45.971 31.2695 45.8883 31.7633 45.7643 32.0101C45.6403 32.257 45.3923 32.3804 45.0616 32.3804C44.6896 32.3804 44.4829 32.2981 44.3175 32.0924C44.1935 31.8455 44.1108 31.3518 44.1108 30.5701V26.3735H42.6641V30.9404C42.6641 31.8044 42.8294 32.4215 43.2428 32.833C43.6148 33.2444 44.2349 33.4501 45.0203 33.4501C45.847 33.4501 46.467 33.2033 46.8391 32.833C47.2111 32.4215 47.4178 31.7221 47.4178 30.7347V26.3735H45.971V30.529Z" fill="#003A56"/>
<path d="M52.5012 30.3644C52.5012 30.7758 52.5425 31.1461 52.5425 31.4752C52.5839 31.8044 52.5839 32.0924 52.6252 32.4215C52.5425 32.0101 52.4185 31.6398 52.2945 31.2284C52.2118 30.8581 52.0465 30.4055 51.8812 29.9941L50.5584 26.3735H48.5742V33.3267H49.9383L49.8557 29.2124C49.8557 28.9655 49.8143 28.6775 49.8143 28.3484C49.8143 28.0193 49.773 27.649 49.7316 27.1964C49.8557 27.6901 49.9797 28.1015 50.1037 28.513C50.1863 28.8833 50.3517 29.2535 50.4344 29.5415L51.8398 33.3267H53.7413V26.3735H52.3772L52.5012 30.3644Z" fill="#003A56"/>
<path d="M57.335 26.2913C56.8803 26.2913 56.467 26.3735 56.1363 26.497C55.8469 26.6204 55.5576 26.8261 55.3922 27.1141C55.2269 27.361 55.1029 27.6901 55.0202 28.0604C54.9375 28.4718 54.9375 29.0067 54.9375 29.7061C54.9375 30.7347 54.9788 31.4753 55.1029 31.9278C55.2269 32.3804 55.3922 32.7507 55.7229 32.9975C55.8882 33.1621 56.1363 33.2855 56.4256 33.3678C56.715 33.4501 57.0457 33.4501 57.5004 33.4501C57.7484 33.4501 58.0791 33.409 58.4098 33.409C58.6991 33.3678 59.1125 33.3267 59.5672 33.2444V29.7473H57.459V30.817H58.2444V32.3804C58.0791 32.4215 57.9551 32.4627 57.8311 32.4627C57.7484 32.5038 57.6244 32.5038 57.5417 32.5038C57.087 32.5038 56.7977 32.3393 56.6323 32.0924C56.467 31.8044 56.3843 31.0638 56.3843 29.953C56.3843 28.8833 56.467 28.1838 56.591 27.8547C56.715 27.5667 56.963 27.4021 57.335 27.4021C57.6244 27.4021 57.8311 27.4844 57.9551 27.6901C58.0791 27.8547 58.1618 28.1838 58.1618 28.5541V28.6364H59.6085V28.5541C59.6085 27.8547 59.4432 27.3198 59.0298 26.9495C58.6165 26.4558 58.0377 26.2913 57.335 26.2913Z" fill="#003A56"/>
<path d="M64.6122 30.3644C64.6122 30.7758 64.6122 31.1461 64.6535 31.4752C64.6949 31.8044 64.6949 32.0924 64.7362 32.4215C64.6535 32.0101 64.5709 31.6398 64.4469 31.2284C64.3228 30.8581 64.1988 30.4055 64.0335 29.9941L62.6694 26.3735H60.7266V33.3267H62.0493L61.9667 29.2124C61.9667 28.9655 61.9667 28.6775 61.9253 28.3484C61.884 28.0193 61.884 27.649 61.8427 27.1964C61.9667 27.6901 62.0907 28.1015 62.2147 28.513C62.3387 28.8833 62.4627 29.2535 62.5454 29.5415L63.9922 33.3267H65.8936V26.3735H64.5295L64.6122 30.3644Z" fill="#003A56"/>
<path d="M35.6758 26.3735L33.8569 29.377V26.3735H32.4102V33.3267H33.8569V29.953L35.4691 33.3267H36.9985H37.1639L36.9985 32.9975L35.1384 29.5827L36.9572 26.7027L36.7918 26.3735H35.6758Z" fill="#003A56"/>
<path d="M0.00390625 3.25126C6.28707 5.47298 9.75935 4.32098 14.017 0.000976562C18.2747 4.19755 23.2764 5.22612 28.8155 3.29241L28.8569 22.177C28.8569 40.6913 0.169253 40.4444 0.00390625 22.3004L0.00390625 3.25126Z" fill="#003A56"/>
<path d="M1.53516 5.02038C6.37154 6.41924 10.2985 5.96667 14.0602 2.14038C17.9045 5.92552 22.8649 6.46038 27.3292 5.02038V22.0124C27.3292 38.7164 1.65917 38.305 1.53516 22.0947V5.02038Z" fill="white"/>
<path d="M1.53516 5.02039L13.9775 23.9461L27.3292 5.02039V22.0124C27.3292 38.7575 1.53516 38.6752 1.53516 22.0947V5.02039Z" fill="#96A8A7"/>
<path d="M25.964 26.3736L25.3026 26.2501L24.0625 26.4147L24.1452 26.0033L24.9719 25.921L24.2692 25.4684L24.3932 25.057L25.3853 25.8387L26.0467 26.0033L25.964 26.3736Z" fill="white"/>
<path d="M25.3032 27.9781L23.9391 27.2787L23.7324 27.649L23.4844 27.5255L24.0218 26.4147L24.2698 26.5381L24.1044 26.9084L25.5099 27.6078L25.3032 27.9781Z" fill="white"/>
<path d="M23.3217 27.7238L23.125 28.0381L24.7039 29.0169L24.9006 28.7026L23.3217 27.7238Z" fill="white"/>
<path d="M23.2369 29.953L23.4849 29.6238L23.5262 29.665C23.6089 29.7061 23.6916 29.7472 23.6916 29.7472C23.7329 29.7472 23.8156 29.7472 23.8569 29.665C23.8983 29.6238 23.8983 29.5415 23.8983 29.5004C23.8983 29.4592 23.8569 29.377 23.8156 29.377C23.7743 29.3358 23.6089 29.3358 23.4436 29.377H23.4022C23.3196 29.4181 23.2369 29.4181 23.1956 29.4592C23.1542 29.4592 23.0715 29.5004 23.0302 29.5004C22.9475 29.5004 22.8649 29.5004 22.8235 29.5004C22.7408 29.4592 22.6995 29.4181 22.6168 29.377C22.4928 29.2947 22.4102 29.1712 22.4102 29.0478C22.4102 28.8832 22.4515 28.7598 22.5342 28.6364C22.6582 28.513 22.7822 28.4307 22.9062 28.3895C23.0302 28.3895 23.1542 28.4307 23.2782 28.513L23.3196 28.5541L23.1542 28.8832C23.0715 28.8421 23.0302 28.801 22.9475 28.801C22.9062 28.801 22.8235 28.8421 22.7822 28.8832C22.7408 28.9244 22.7408 28.9655 22.7408 29.0067C22.7408 29.0478 22.7822 29.1301 22.8235 29.1301C22.9062 29.1712 23.0715 29.1712 23.2782 29.089C23.3196 29.089 23.4022 29.0478 23.4022 29.0478C23.5262 29.0067 23.6503 28.9655 23.7329 29.0067C23.8156 29.0067 23.8983 29.0478 23.9809 29.089C24.1463 29.2124 24.1876 29.3358 24.229 29.4592C24.229 29.5827 24.1876 29.7472 24.0223 29.9118C23.8983 30.0764 23.7743 30.1587 23.6503 30.1587C23.5262 30.1998 23.4022 30.1175 23.2782 30.0352C23.2782 30.0352 23.2369 30.0352 23.2369 29.9941C23.2369 29.953 23.2369 29.9941 23.2369 29.953Z" fill="white"/>
<path d="M23.1935 30.4878C23.1521 30.4467 23.1108 30.4055 23.0281 30.3232C23.0281 30.3232 23.0281 30.3232 22.9868 30.2821L22.9454 30.241C22.8214 30.1175 22.7388 30.0352 22.6974 30.0352C22.6561 30.0352 22.5734 30.0352 22.4494 30.0764C22.4907 29.9941 22.5321 29.9118 22.5321 29.8295C22.5321 29.7472 22.4494 29.665 22.3667 29.5415C22.2427 29.4181 22.1187 29.3358 21.9947 29.3358C21.912 29.3358 21.7467 29.4181 21.5813 29.5415L21.168 29.9118L22.4081 31.3107L22.6974 31.0638L22.2014 30.4878L22.3254 30.4055C22.3667 30.3644 22.4494 30.3232 22.4907 30.3232C22.5321 30.3232 22.6147 30.3644 22.6561 30.4467C22.6561 30.4467 22.6974 30.4878 22.7388 30.5701C22.8628 30.6935 22.9454 30.7758 22.9868 30.817L23.3175 30.5701C23.3175 30.529 23.2348 30.529 23.1935 30.4878ZM22.1187 30.241L22.036 30.2821L21.7053 29.9118L21.788 29.8707C21.8707 29.7884 21.9534 29.7472 21.9947 29.7472C22.036 29.7472 22.1187 29.7884 22.16 29.8707C22.2014 29.953 22.2427 29.9941 22.2427 30.0764C22.2427 30.1175 22.2014 30.1587 22.1187 30.241Z" fill="white"/>
<path d="M21.2086 32.1336L20.2578 30.529L21.1259 30.0353L21.2499 30.2821L20.7539 30.5701L20.9605 30.9816L21.4566 30.6936L21.5806 30.8993L21.1259 31.1873L21.4152 31.681L21.9526 31.3518L22.0766 31.5987L21.2086 32.1336Z" fill="white"/>
<path d="M20.0526 32.7096L18.8125 31.2284L19.1845 31.0638L19.7632 31.8456C19.8873 31.969 19.9699 32.0513 19.9699 32.1336C20.0113 32.2158 20.0939 32.2981 20.1353 32.3393C20.0939 32.2158 20.0526 32.1336 20.0113 32.0101C19.9699 31.9278 19.9699 31.8044 19.9699 31.7221L19.7219 30.7758L20.0939 30.6113L20.466 32.5038L20.0526 32.7096Z" fill="white"/>
<path d="M18.8928 33.0798L18.3555 31.3518L18.6862 31.2284L19.2649 32.9975L18.8928 33.0798Z" fill="white"/>
<path d="M17.0774 33.5736L16.6641 31.7633L17.2014 31.6399L17.7388 32.5039C17.8215 32.5861 17.8628 32.7096 17.9042 32.7919C17.9455 32.8741 18.0282 32.9976 18.0695 33.0799C18.0695 32.9976 18.0282 32.9153 17.9868 32.833C17.9455 32.7507 17.9455 32.6684 17.9042 32.545L17.6561 31.5164L18.0282 31.4341L18.4415 33.2444L17.9455 33.3679L17.3254 32.5039C17.2841 32.4627 17.2014 32.3393 17.1601 32.257C17.1188 32.1747 17.0361 32.0513 16.9948 31.9279C16.9948 32.0513 17.0361 32.1336 17.0774 32.2159C17.0774 32.2981 17.1188 32.3804 17.1188 32.4216L17.4081 33.4913L17.0774 33.5736Z" fill="white"/>
<path d="M16.4142 31.8044L16.4969 32.9564C16.5383 33.2032 16.4969 33.409 16.4142 33.5324C16.2902 33.6558 16.1662 33.7381 15.9182 33.7381C15.7115 33.7381 15.5462 33.7381 15.4222 33.6147C15.3395 33.4912 15.2568 33.3678 15.2568 33.121L15.1328 31.8867L15.5048 31.8455L15.6289 32.9564C15.6289 33.1621 15.6702 33.3267 15.7115 33.3267C15.7529 33.3678 15.8355 33.409 15.9182 33.409C16.0009 33.409 16.0836 33.3678 16.0836 33.2855C16.0836 33.2032 16.1249 33.0798 16.0836 32.8741L16.0009 31.7632L16.4142 31.8044Z" fill="white"/>
<path d="M11.0391 33.4913L11.2457 31.6398L11.8245 31.7221L11.9485 32.8741C11.9485 32.9153 11.9898 32.9564 11.9898 33.0387C11.9898 33.0798 11.9898 33.2033 11.9898 33.2855C11.9898 33.2444 12.0311 33.1621 12.0311 33.0798C12.0311 33.0387 12.0725 32.9564 12.0725 32.8741L12.4445 31.7633L13.0646 31.8044L12.8579 33.6558L12.4858 33.6147L12.6512 32.3393C12.6512 32.257 12.6512 32.1747 12.6925 32.0924C12.6925 32.0101 12.7339 31.969 12.7339 31.8867L12.1552 33.5324L11.7831 33.4913L11.5764 31.8044C11.5764 31.9278 11.5764 32.0924 11.5351 32.257L11.4111 33.4913H11.0391Z" fill="white"/>
<path d="M10.5464 31.3107L9.34766 32.7918L9.71969 32.9564L9.96771 32.5861L10.4637 32.7918L10.4224 33.2032L10.7944 33.3678L11.0425 31.4752L10.5464 31.3107ZM10.5051 32.4627L10.1331 32.2981L10.6291 31.6398L10.5051 32.4627Z" fill="white"/>
<path d="M7.94141 32.0513L8.89215 30.4467L9.34685 30.6936L9.14017 31.681C9.14017 31.8044 9.09883 31.9279 9.0575 32.0101C9.01616 32.0924 9.01616 32.2159 8.97482 32.3393C9.01616 32.257 9.0575 32.1747 9.09883 32.1336C9.14017 32.0513 9.1815 31.969 9.22284 31.8867L9.76022 30.9816L10.0496 31.1461L9.09883 32.7507L8.68547 32.4627L8.89215 31.393C8.93349 31.3107 8.93349 31.2284 8.93349 31.105C8.97482 31.0227 8.97482 30.8581 9.01616 30.7347C8.97482 30.817 8.89215 30.9404 8.85081 31.0227C8.80948 31.105 8.76814 31.1873 8.76814 31.2284L8.2721 32.2159L7.94141 32.0513Z" fill="white"/>
<path d="M8.18982 31.1461L7.61111 31.8867C7.4871 31.8456 7.36309 31.8044 7.32176 31.7221C7.23908 31.681 7.19775 31.6398 7.11507 31.5987C7.0324 31.5164 6.94973 31.4753 6.90839 31.393C6.86705 31.3107 6.78438 31.2696 6.82572 31.1873C6.78438 31.0638 6.82572 30.9404 6.86705 30.8581C6.90839 30.7347 7.0324 30.5701 7.19775 30.3233C7.32176 30.1587 7.40443 30.0764 7.4871 29.9941C7.56978 29.9118 7.65245 29.8707 7.69379 29.8707C7.77646 29.8296 7.85913 29.8296 7.98314 29.8707C8.06581 29.9118 8.18983 29.953 8.2725 30.0353C8.43784 30.1587 8.52052 30.2821 8.56186 30.4056C8.60319 30.5701 8.56185 30.6936 8.43784 30.8581L8.10715 30.6113C8.18983 30.529 8.23116 30.4467 8.18982 30.3644C8.18982 30.3233 8.14849 30.241 8.10715 30.1998C8.02448 30.1587 7.94181 30.1176 7.85913 30.1998C7.77646 30.241 7.65245 30.4056 7.4871 30.6113C7.28042 30.8581 7.19775 31.0227 7.15641 31.105C7.15641 31.1873 7.19775 31.2696 7.28042 31.3518C7.32176 31.3518 7.32176 31.393 7.36309 31.393C7.36309 31.4341 7.44577 31.4341 7.44577 31.4341L7.69379 31.105L7.52844 30.9816L7.69379 30.7347L8.18982 31.1461Z" fill="white"/>
<path d="M5.25391 29.9941L6.61801 28.7187L6.99004 29.089L6.494 29.9941C6.45267 30.0764 6.41133 30.1998 6.32866 30.2821C6.28732 30.3644 6.20465 30.4878 6.16331 30.5701C6.20465 30.4878 6.24599 30.4467 6.32866 30.3644C6.41133 30.2821 6.45267 30.1998 6.53534 30.1587L7.32074 29.4181L7.56876 29.665L6.20465 30.9815L5.83262 30.6113L6.32866 29.6238C6.37 29.5827 6.41133 29.4593 6.45267 29.377C6.49401 29.2947 6.57668 29.1713 6.65935 29.0478C6.57668 29.1301 6.49401 29.2124 6.45267 29.2535C6.37 29.2947 6.32866 29.377 6.28732 29.4181L5.50193 30.1998L5.25391 29.9941Z" fill="white"/>
<path d="M6.41125 28.5541L5.50184 29.2536C5.29516 29.4181 5.12981 29.5004 4.96447 29.4593C4.84046 29.4593 4.67511 29.3359 4.5511 29.1713C4.42709 29.0067 4.34442 28.8421 4.38575 28.6776C4.42709 28.5541 4.50976 28.3896 4.67511 28.2661L5.62585 27.5256L5.87387 27.8547L4.96447 28.5541C4.79912 28.6776 4.71645 28.7599 4.67511 28.8421C4.67511 28.8833 4.67511 28.9656 4.71645 29.0479C4.75778 29.1301 4.84046 29.1713 4.88179 29.1713C4.96447 29.1713 5.08848 29.089 5.25382 28.9656L6.12189 28.2661L6.41125 28.5541Z" fill="white"/>
<path d="M3.47656 27.5255L4.13795 27.2375L4.96468 26.2913L5.13003 26.6615L4.55131 27.2375L5.37805 27.1553L5.54339 27.5255L4.26196 27.5667L3.68325 27.8958L3.47656 27.5255Z" fill="white"/>
<path d="M2.81641 25.4272L4.63522 24.9747L4.71789 25.345L3.9325 25.5507L4.8419 25.8387L4.92457 26.209L3.97383 25.921L3.10576 26.6615L3.02309 26.209L3.76715 25.5918L2.89908 25.7975L2.81641 25.4272Z" fill="white"/>
<path d="M10.668 6.78955H17.6125V9.09355H18.7699V10.4924H17.6539V12.0558H18.8113V13.4136H17.6539V15.6353H16.1657V8.27069H10.668V6.78955Z" fill="#003A56"/>
<path d="M12.2404 9.09357V16.5404H17.6968V18.145H10.7109V9.09357H12.2404Z" fill="#003A56"/>
<path d="M18.3581 19.6672L19.3089 18.6387C20.7143 19.9141 21.5824 21.7244 21.5824 23.6992C21.5824 27.5667 18.2755 30.6935 14.2658 30.6935C10.2148 30.6935 6.94922 27.5667 6.94922 23.6992C6.94922 21.7655 7.77595 19.9964 9.09872 18.7621L10.0495 19.7495C9.01605 20.7781 8.35466 22.177 8.35466 23.6992C8.35466 26.785 11.0002 29.3358 14.2245 29.3358C17.4487 29.3358 20.0943 26.785 20.0943 23.6992C20.1356 22.177 19.4742 20.737 18.3581 19.6672Z" fill="#003A56"/>
</g>
<defs>
<clipPath id="clip0_2521_53198">
<rect width="131.657" height="36" fill="white" transform="translate(0.00390625 0.000976562)"/>
</clipPath>
</defs>
</svg>
