<svg width="84" height="70" viewBox="0 0 84 70" fill="none" xmlns="http://www.w3.org/2000/svg">
<path d="M77.1328 35.0015C77.1328 54.3289 61.4602 70.0015 42.1328 70.0015C22.8054 70.0015 7.13281 54.3289 7.13281 35.0015C7.13281 15.674 22.8054 0.00146484 42.1328 0.00146484C61.4602 0.00146484 77.1328 15.674 77.1328 35.0015Z" fill="white"/>
<path d="M76.1388 35.0015C76.1388 53.7714 60.8999 69.0103 42.1299 69.0103C23.36 69.0103 8.12109 53.7714 8.12109 35.0015C8.12109 16.2316 23.36 0.99262 42.1299 0.99262C60.8999 0.930673 76.1388 16.1696 76.1388 35.0015Z" fill="#0D0D2A"/>
<path d="M68.7051 34.9395C68.7051 49.6209 56.8113 61.5147 42.1299 61.5147C27.4485 61.5147 15.5547 49.6209 15.5547 34.9395C15.5547 20.2581 27.4485 8.36426 42.1299 8.36426C56.8113 8.4262 68.7051 20.32 68.7051 34.9395Z" fill="white"/>
<path d="M35.5047 34.7537C35.5047 34.6917 35.5047 34.6298 35.5047 34.5679L37.425 35.621L37.7348 35.0634L35.5047 33.8245C35.5047 32.9572 35.4427 32.1519 35.3808 31.3466L37.3631 32.3378L37.6728 31.7802L35.1949 30.6033C35.071 29.7979 34.9471 28.9926 34.8233 28.1873L36.9914 28.8687L37.1772 28.2493L34.6994 27.444C34.5135 26.7006 34.3277 26.0192 34.1418 25.3378L36.248 25.7714L36.3719 25.1519L33.956 24.6564C33.7702 24.0369 33.5843 23.4174 33.3365 22.8599L35.5666 23.2935L35.6905 22.674L33.0887 22.1165C32.779 21.4351 32.5312 20.7537 32.1595 20.0723L34.3896 20.3201L34.4516 19.7006L31.7879 19.3909C31.4162 18.7094 31.0445 17.9661 30.6109 17.2847H32.779V16.6652H30.2392C29.8056 15.9838 29.3719 15.3643 28.8763 14.7448L30.9206 14.559L30.8586 13.9395L28.3808 14.1254C28.1949 13.8776 27.9471 13.5679 27.7613 13.3201L26.956 13.7537C27.2038 14.0634 27.4516 14.3112 27.6374 14.621L26.7082 17.0369L27.3277 17.2847L28.071 15.2404C28.5666 15.8599 29.0002 16.5413 29.4339 17.2227L28.3808 19.5148L29.0002 19.7006L29.8675 17.8422C30.3011 18.5236 30.6728 19.205 30.9825 19.9484L29.7436 21.9926L30.3011 22.3024L31.3542 20.5679C31.664 21.1873 31.9737 21.8687 32.2215 22.5502L30.7967 24.4705L31.2923 24.8422L32.4693 23.2316C32.6551 23.7891 32.841 24.3466 33.0268 24.9041L31.4781 26.9484L31.9737 27.3201L33.2126 25.6475C33.3985 26.3289 33.5843 27.0723 33.7082 27.7537L32.0356 29.5502L32.5312 29.9838L33.894 28.559C34.0179 29.3024 34.1418 30.0457 34.2657 30.7891L32.3454 32.3378L32.7171 32.8333L34.2657 31.5325C34.3277 32.2758 34.3896 33.0811 34.3896 33.8864L32.3454 35.3732L32.7171 35.8687L34.3896 34.6298V34.6917C34.3896 35.3112 34.3896 35.9307 34.3277 36.6121L32.1595 37.851L32.4693 38.4086L34.2657 37.3555C34.2038 37.9749 34.1418 38.5944 34.0799 39.2139L31.7879 40.3909L32.0976 40.9484L33.956 40.0192C33.8321 40.6387 33.7082 41.3201 33.5843 41.9395L31.3542 42.9307L31.602 43.4882L33.3985 42.6829C33.2746 43.3024 33.0887 43.8599 32.9029 44.4794L30.6109 45.4086L30.8586 46.028L32.6551 45.2847C32.4693 45.9041 32.2215 46.5236 31.9737 47.1431L29.6197 47.8245L29.8056 48.444L31.664 47.9484C31.4162 48.5059 31.1684 49.0634 30.9206 49.559L28.5047 49.9926L28.6286 50.6121L30.5489 50.2404C30.3011 50.736 29.9914 51.2316 29.6817 51.7271L27.2038 51.913L27.2657 52.5325L29.248 52.4086C28.9383 52.9041 28.6286 53.3378 28.3188 53.7714L25.9648 53.8333V54.4528L27.8233 54.3909C27.5135 54.8245 27.1418 55.2581 26.7702 55.6917L27.2657 56.4971C27.7613 55.8776 28.2569 55.2581 28.6905 54.6386L29.7436 56.7448L30.3011 56.4351L29.1241 54.0192C29.4339 53.5856 29.7436 53.09 30.0533 52.6563L31.1684 54.6386L31.7259 54.3289L30.487 52.0369C30.7967 51.4794 31.1064 50.9218 31.4162 50.3643L32.7171 52.2227L33.2126 51.851L31.7259 49.6829C32.0356 49.0634 32.2834 48.5059 32.5932 47.8864L34.0799 49.621L34.5755 49.1873L32.841 47.205C33.0887 46.5236 33.3365 45.8422 33.5843 45.1608L35.2569 46.7094L35.6905 46.2758L33.8321 44.4794C34.0179 43.8599 34.2038 43.1785 34.3277 42.559L36.0622 44.0457L36.4958 43.5502L34.6994 42.0015C34.8232 41.382 34.9471 40.7006 35.071 40.0811L36.8056 41.444L37.1772 40.9484L35.1949 39.3378C35.2569 38.6563 35.3188 38.0369 35.3808 37.3555L37.1772 38.5944L37.5489 38.0988L35.4427 36.6121C35.4427 35.9926 35.5047 35.3732 35.5047 34.7537Z" fill="#CFCECC"/>
<path d="M58.1767 53.8953L55.8227 53.8333C55.513 53.3997 55.2033 52.9041 54.8935 52.4705L56.8758 52.5944L56.9378 51.9749L54.4599 51.7891C54.1502 51.2935 53.9024 50.7979 53.5926 50.3024L55.513 50.6741L55.6369 50.0546L53.221 49.621C52.9732 49.0634 52.7254 48.5059 52.4776 48.0103L54.336 48.5059L54.5218 47.8864L52.1679 47.205C51.9201 46.5856 51.6723 45.9661 51.4865 45.3466L53.2829 46.09L53.5307 45.4705L51.2387 44.5413C51.0528 43.9838 50.867 43.3643 50.7431 42.7448L52.5395 43.5502L52.7873 42.9926L50.5572 42.0015C50.4334 41.382 50.3095 40.7625 50.1856 40.0811L52.044 41.0103L52.3537 40.4528L50.0617 39.2758C49.9997 38.6564 49.9378 38.0369 49.8758 37.4174L51.6723 38.4705L51.982 37.913L49.8139 36.6741C49.7519 36.0546 49.7519 35.4351 49.7519 34.7537V34.6917L51.4245 35.9307L51.7962 35.4351L49.7519 33.9484C49.7519 33.1431 49.8139 32.3997 49.8758 31.5944L51.4245 32.8953L51.7962 32.3997L49.8758 30.851C49.9378 30.1077 50.0617 29.3643 50.2475 28.621L51.6103 30.0457L52.1059 29.6121L50.4334 27.8156C50.5572 27.1342 50.7431 26.3909 50.9289 25.7094L52.1679 27.382L52.6634 27.0103L51.1148 24.9661C51.3006 24.4086 51.4865 23.851 51.6723 23.2935L52.8493 24.9041L53.3449 24.5325L51.9201 22.6121C52.1679 21.9307 52.4776 21.2493 52.7873 20.6298L53.8404 22.3643L54.398 22.0546L53.159 20.0103C53.5307 19.3289 53.9024 18.5856 54.2741 17.9041L55.1413 19.7625L55.6988 19.5148L54.6457 17.2227C55.0794 16.5413 55.513 15.9218 56.0086 15.2404L56.7519 17.2847L57.3714 17.0369L56.4422 14.621C56.69 14.3112 56.8758 14.0015 57.1236 13.7537L56.3183 13.3201C56.0705 13.5679 55.8847 13.8776 55.6988 14.1254L53.221 13.9395L53.159 14.559L55.2033 14.7448C54.7077 15.3643 54.2741 16.0457 53.9024 16.6652H51.3626V17.2847H53.5307C53.0971 17.9661 52.7254 18.6475 52.3537 19.3909L49.69 19.7006L49.7519 20.3201L51.982 20.0723C51.6723 20.7537 51.3626 21.4351 51.0528 22.1165L48.4511 22.6741L48.5749 23.2935L50.805 22.8599C50.5572 23.4794 50.3714 24.0369 50.1856 24.6564L47.7696 25.1519L47.8935 25.7714L49.9997 25.3378C49.8139 26.0192 49.628 26.7625 49.4422 27.444L46.9024 28.2493L47.0882 28.8687L49.2564 28.1873C49.0705 28.9926 48.9466 29.7979 48.8847 30.6033L46.5307 31.7802L46.8404 32.3378L48.8227 31.3466C48.7608 32.1519 48.6988 33.0192 48.6988 33.8245L46.4688 35.0634L46.7785 35.621L48.8227 34.5679C48.8227 34.6298 48.8227 34.6917 48.8227 34.7537C48.8227 35.3732 48.8227 35.9926 48.8847 36.6121L46.7785 38.0988L47.1502 38.5944L48.9466 37.3555C49.0086 38.0369 49.0705 38.7183 49.1325 39.3378L47.1502 40.8864L47.5219 41.382L49.2564 40.0192C49.3803 40.7006 49.5042 41.3201 49.628 41.9395L47.6457 43.6121L48.0794 44.1077L49.8139 42.621C49.9997 43.2404 50.1236 43.9218 50.3095 44.5413L48.4511 46.3378L48.8847 46.7714L50.5572 45.2227C50.805 45.9041 51.0528 46.5856 51.3006 47.267L49.5661 49.2493L50.0617 49.6829L51.5484 47.9484C51.7962 48.5679 52.1059 49.1873 52.4157 49.7448L50.9289 51.913L51.4245 52.2847L52.7254 50.4263C53.0351 50.9838 53.3449 51.5413 53.6546 52.0988L52.4157 54.3909L52.9732 54.7006L54.0882 52.7183C54.398 53.1519 54.7077 53.6475 55.0174 54.0811L53.8404 56.4971L54.398 56.8068L55.4511 54.7006C55.9466 55.3201 56.3803 55.9395 56.8758 56.559L57.3714 55.7537C56.9997 55.3201 56.69 54.8864 56.3183 54.4528L58.1767 54.5148V53.8953Z" fill="#CFCECC"/>
<path d="M27.3891 16.913H29.9289C31.9731 16.913 31.7254 17.9041 31.3537 18.9572C30.982 20.0103 30.5484 21.0015 28.5041 21.0015H25.9023L27.3891 16.913ZM27.9466 20.1961H28.3183C28.9997 20.1961 29.1236 20.0103 29.5572 18.8953C29.9289 17.7802 29.9289 17.5944 29.2475 17.6563H28.8758L27.9466 20.1961Z" fill="#040000"/>
<path d="M34.8204 16.7891C36.6169 16.7891 37.0505 17.4085 36.493 18.8953C35.9355 20.4439 35.1301 21.0015 33.3337 21.0015C31.5372 21.0015 31.1036 20.382 31.6611 18.8953C32.1567 17.4085 33.024 16.7891 34.8204 16.7891ZM33.5815 20.32C34.139 20.32 34.2629 20.0103 34.6965 18.8953C35.0682 17.7802 35.1301 17.4705 34.5726 17.4705C34.0151 17.4705 33.8912 17.7802 33.4576 18.8953C33.0859 20.0103 33.024 20.32 33.5815 20.32Z" fill="#040000"/>
<path d="M39.9024 16.7891C41.6989 16.7891 42.1325 17.4085 41.575 18.8953C41.0175 20.4439 40.2122 21.0015 38.4157 21.0015C36.6193 21.0015 36.1856 20.382 36.7432 18.8953C37.3007 17.4085 38.106 16.7891 39.9024 16.7891ZM38.6635 20.32C39.221 20.32 39.3449 20.0103 39.7786 18.8953C40.1502 17.7802 40.2122 17.4705 39.6547 17.4705C39.0971 17.4705 38.9732 17.7802 38.5396 18.8953C38.1679 20.0103 38.1679 20.32 38.6635 20.32Z" fill="#040000"/>
<path d="M44.8588 18.09L44.9207 17.9661C44.9826 17.7183 44.9207 17.5325 44.549 17.5325C44.1773 17.5325 43.9295 17.7183 43.8676 17.9042C43.5579 18.7095 46.5933 18.3378 46.0977 19.8245C45.788 20.6918 44.7968 21.0635 43.2481 21.0635C41.7614 21.0635 41.08 20.7537 41.3897 19.8865L41.4517 19.7626H43.1862V19.8865C43.0623 20.2582 43.2481 20.382 43.6198 20.382C43.9915 20.382 44.2393 20.1962 44.3012 20.0104C44.611 19.2051 41.6375 19.5767 42.195 18.152C42.5048 17.3466 43.372 16.913 44.8588 16.8511C46.4074 16.8511 46.903 17.2228 46.5933 18.09H44.8588Z" fill="#040000"/>
<path d="M48.6989 16.913H50.929L51.1148 21.0015H49.2564L49.3184 20.2581H47.8936L47.46 21.0015H45.6016L48.6989 16.913ZM49.5042 17.7183L48.3892 19.4528H49.3803L49.5042 17.7183Z" fill="#040000"/>
<path d="M52.7881 16.913H54.7704L55.0181 19.3908L55.9474 16.913H57.558L56.1332 21.0015H54.2128L53.9031 18.4616L52.9739 21.0015H51.3633L52.7881 16.913Z" fill="#040000"/>
<path d="M36.3078 51.4793V53.1519L35.4405 54.0192H33.5821L32.7768 53.2139V52.2846H34.2016V52.7183H34.821V52.0369H33.3963L32.7148 51.2935V49.8687L33.5821 49.0015H35.4405L36.2458 49.8068V50.674H34.883V50.3023H34.2016V50.7979H35.6883L36.3078 51.4793Z" fill="#040000"/>
<path d="M35.8741 51.6651L35.4405 51.2315H33.9537L33.7679 51.0457V50.1784L34.0776 49.9306H35.0068L35.2546 50.1784V50.2404H35.8741V50.0545L35.2546 49.4351H33.8299L33.1484 50.0545V51.1696L33.644 51.6032H35.1307L35.2546 51.789V52.8421L34.9449 53.1519H34.0776L33.7679 52.8421V52.6563H33.1484V52.966L33.8299 53.5855H35.1927L35.8741 52.966V51.6651Z" fill="#040000"/>
<path d="M40.2743 49.0015V50.6121H38.9115V50.3023H38.292V50.8599H39.469V52.1608H38.292V52.7183H38.9115V52.3466H40.2743V54.0192H36.4336V52.7183H36.7433V50.3023H36.4336V49.0015H40.2743Z" fill="#040000"/>
<path d="M39.8406 49.4351H36.8672V49.9306H37.2389V53.1519H36.8672V53.5855H39.8406V52.7802H39.3451V53.1519H37.7964V51.7271H39.0353V51.2935H37.7964V49.9306H39.3451V50.1784H39.8406V49.4351Z" fill="#040000"/>
<path d="M44.0533 49.9307V53.1519L43.186 54.0192H41.2657L40.3984 53.1519V49.8687L41.2657 49.0015H43.186L44.0533 49.9307Z" fill="#040000"/>
<path d="M43.6196 50.1165L42.9382 49.4351H41.5134L40.832 50.1165V52.966L41.4515 53.5855H42.9382L43.6196 52.966V50.1165Z" fill="#040000"/>
<path d="M42.9979 50.1784V52.8422L42.6882 53.1519H41.697L41.4492 52.8422V50.1784L41.759 49.9307H42.6882L42.9979 50.1784Z" fill="#040000"/>
<path d="M42.5642 50.3024H41.8828V52.7183H42.5642V50.3024Z" fill="white"/>
<path d="M48.5115 49.0015V50.3023H48.0779V53.1519L47.2106 54.0192H45.3522L44.485 53.1519V50.3023H44.1133V49.0015H46.2195V50.3023H46.0336V52.7183H46.5912V50.3023H46.4053V49.0015H48.5115Z" fill="#040000"/>
<path d="M48.0779 49.4351H46.8389V49.9306H47.0867V52.9041L46.777 53.1519H45.8478L45.538 52.9041V49.9306H45.7858V49.4351H44.5469V49.9306H44.9805V52.966L45.538 53.5855H47.0248L47.6442 53.028V49.9306H48.0779V49.4351Z" fill="#040000"/>
<path d="M50.9913 49.0015V50.3023H50.5576V52.7183H51.1151V51.913H52.478V54.0192H48.6992V52.7183H49.0709V50.3023H48.6992V49.0015H50.9913Z" fill="#040000"/>
<path d="M50.4956 49.4351H49.1328V49.9306H49.5045V53.1519H49.1328V53.5855H51.9824V52.3466H51.5487V53.1519H50.124V49.9306H50.4956V49.4351Z" fill="#040000"/>
<path d="M42.1314 9.85098C51.7331 9.85098 60.034 15.2404 64.2464 23.1076H65.919C61.5827 14.3731 52.5384 8.36426 42.1314 8.36426C31.7243 8.36426 22.68 14.3731 18.3438 23.1076H20.0163C24.2287 15.2404 32.5915 9.85098 42.1314 9.85098Z" fill="#E60012"/>
<path d="M42.1303 60.028C32.4665 60.028 24.1037 54.5767 19.8913 46.5856H18.2188C22.555 55.382 31.5993 61.4528 42.0683 61.4528C52.5373 61.4528 61.6435 55.382 65.9179 46.5856H64.2453C60.1568 54.6387 51.794 60.028 42.1303 60.028Z" fill="#E60012"/>
<path d="M16.7334 27.382V32.8333L15.8042 33.8245L16.7334 34.8156V40.5767L13.0166 44.2316H0.875V38.4085H2.23783V29.8599L0.875 29.7979V24.0369H13.3883L16.7334 27.382Z" fill="white"/>
<path d="M32.22 24.0369V30.6032H26.335V29.4882H24.4147V30.913H28.9988V36.4882H24.4147V38.0988H26.335V36.9838H32.158L32.22 43.9218H16.6094V38.2227H17.8483V29.4882H16.6713V24.0369H32.22Z" fill="white"/>
<path d="M44.4837 24.0369L48.8819 38.4085H50.6784V44.2316H41.8819V38.7183H43.1209L42.935 38.0988H39.6518L39.5279 38.7183H40.581V44.2316H32.1562V36.9838L33.7049 38.6563L38.5987 24.0369H44.4837Z" fill="white"/>
<path d="M67.9651 38.4085V44.2316H59.4784V38.7802H59.7881L58.9828 36.9218H58.1775V38.7802H59.2926V44.2316H50.4961V38.4085H52.0448V29.8599H50.6819V24.0369H63.0094L66.4164 27.5059L66.3545 33.4528L64.7439 35.0634L66.2306 38.4085H67.9651Z" fill="white"/>
<path d="M82.2132 33.7006L82.0893 40.6386L78.4345 44.2316H71.1867L67.7796 40.8245V36.674H73.9743V38.4085H75.7088V36.3643H70.4433L67.6557 33.5767L67.5938 27.5678L71.1867 24.0369H78.8061L81.9035 27.1962V31.0988H75.8327V29.7979H73.9123V30.9749L79.7973 31.1608L82.2132 33.7006Z" fill="white"/>
<path d="M18.2821 29.2404V34.4439V35.497V36.4262L17.9723 42.1873L14.5033 45.5944H2.23783L0.875 44.1696L3.84845 40.0191V31.4705H2.42367V25.6475H14.8131L18.2821 29.2404Z" fill="white"/>
<path d="M33.6465 25.5855V32.3997H27.7615V31.2847H25.9031V32.09H30.5491V38.2847H25.9031V39.8953H27.7615V38.5944H33.6465V45.5944H18.2217L16.3633 43.674L19.3367 40.0192V31.2847H18.0978L32.1597 24.0369L33.6465 25.5855Z" fill="white"/>
<path d="M45.972 25.5855L50.4321 40.0811H52.2286V45.5944H39.9631V40.3289H44.6711L44.4852 39.7094H41.2021L41.0782 40.3289H42.1313V45.5944H33.6445V40.0811H35.3171L44.4852 24.0369L45.972 25.5855Z" fill="white"/>
<path d="M69.4506 40.205V45.5944H59.2294L61.0258 40.4528H61.3356L60.5302 38.5944H59.7249V40.4528H60.9019V45.5944H52.1055V40.205H53.5922V31.4705H52.1674V25.7095H64.6807L67.84 28.9307L67.9019 34.7537L66.1674 36.4263L67.778 39.9573L69.4506 40.205Z" fill="white"/>
<path d="M83.5737 35.1254V41.9395L79.9188 45.5944H72.6091L69.3879 42.4351L69.264 38.3466H75.5206V40.0192H77.3171V37.9749H71.9896L69.264 35.1873L69.0781 29.1165L72.671 25.5856L80.2286 25.4617L83.3879 28.6829V32.4617H77.379V31.4086H75.5206V32.5856H81.1578L83.5737 35.1254Z" fill="white"/>
<path d="M83.2662 35.2492V41.8156L79.7972 45.2227H72.6733L69.452 41.9395V38.3466H75.0892V40.143H77.4432V37.3554H71.9299L69.3281 34.6298V29.0545L72.6733 25.7714H79.921L83.0184 28.8687V32.0899H77.629V30.851H75.0892V32.7094H80.7883L83.2662 35.2492Z" fill="white"/>
<path d="M17.9098 29.1784V34.2581L16.9187 35.2492L17.9098 36.2404V41.8156L14.3788 45.2227H2.54698L1.24609 43.8599L3.90981 40.143V30.851L4.09565 30.7271L2.54698 25.7714H14.5647L17.9098 29.1784Z" fill="#0D0D2A"/>
<path d="M1.61719 43.736L4.03312 40.267V30.4794H2.67028V25.8334L14.3163 25.8953L17.7234 29.2405V34.1343L16.6703 35.3112L17.7234 36.3024V38.9042L17.5375 38.8422L17.4136 42.0015L14.3783 44.975H2.79418L1.61719 43.736Z" fill="#0D0D2A"/>
<path d="M16.6089 27.8156V32.8953L15.6797 33.8864L16.6089 34.8157V40.4528L13.078 43.8599H1.24609V38.7803H2.60893V29.4882H1.24609V24.4086H13.2638L16.6089 27.8156Z" fill="#E60012"/>
<path d="M15.246 28.7449L12.2106 25.7095H2.54688V28.1254H3.97165V40.0812H2.54688V42.559H12.0867L15.246 39.4617V35.4971L13.2637 33.9484L15.246 32.3997V28.7449Z" fill="white"/>
<path d="M10.9735 28.1254L12.0886 28.9307V32.028L11.0355 32.7094H7.13281V28.1254H10.9735Z" fill="#E60012"/>
<path d="M10.9116 35.1254L12.0886 35.9926V39.2139L10.8496 40.0811H7.13281V35.1254H10.9116Z" fill="#E60012"/>
<path d="M10.7256 29.4882H8.43359V31.4085H10.7256V29.4882Z" fill="#0D0D2A"/>
<path d="M10.7256 36.4882H8.43359V38.7802H10.7256V36.4882Z" fill="#0D0D2A"/>
<path d="M33.335 25.7714L33.2731 32.028H28.0695V30.851H25.5916L27.6359 30.1696L30.1757 32.8953V37.851H25.5916V40.1431H28.0695L31.9722 37.3555L33.335 38.7183V45.2227H18.3439L17.043 43.8599L20.2642 42.621L19.7067 30.851L20.512 31.0988L32.0341 24.4086L33.335 25.7714Z" fill="#0D0D2A"/>
<path d="M28.7492 31.7802L29.9262 33.0191V37.6032H25.2802V40.3908H28.3156L31.9705 37.7271L33.0236 38.8421V44.9749H18.4661L17.2891 43.736L19.9528 40.3289V30.6032H18.6519L31.8466 24.5944L33.0236 25.8333V31.7183H28.7492V31.7802Z" fill="#0D0D2A"/>
<path d="M31.9722 24.4086V30.6652H26.7686V29.4882H24.2288V31.5325H28.8748V36.5502H24.2288V38.7803H26.7686V37.3555H31.9722V43.8599H17.043V38.7803H18.4058V29.4882H17.043V24.4086H31.9722Z" fill="#E60012"/>
<path d="M30.6717 25.7095H18.4062V28.1254H19.7071V40.0812H18.4062V42.559H30.6717V38.7183H28.07V40.0812H22.9284V35.1873H27.5744V32.8953H22.9284V28.1254H28.07V29.3024H30.6717V25.7095Z" fill="white"/>
<path d="M45.1673 35.559H39.4062V42.1253H45.1673V35.559Z" fill="white"/>
<path d="M62.8822 35.559H57.1211V42.1253H62.8822V35.559Z" fill="white"/>
<path d="M78.4329 36.2404H72.6719V42.8067H78.4329V36.2404Z" fill="white"/>
<path d="M62.8822 35.559H57.1211V42.1253H62.8822V35.559Z" fill="white"/>
<path d="M78.4329 36.2404H72.6719V42.8067H78.4329V36.2404Z" fill="white"/>
<path d="M45.6634 25.7714L49.8758 39.3997L50.5572 38.7803L51.8581 40.1431V45.2227H43.6192L42.4422 43.9218L44.9201 40.3289L44.5484 39.2139H40.8316L40.5218 40.3289H41.6988L43.9289 45.2227H33.7696L32.4688 43.8599L35.3803 40.1431L44.3626 24.4086L45.6634 25.7714Z" fill="#0D0D2A"/>
<path d="M45.414 25.8953L49.8741 40.3908L50.4317 39.028L51.5467 40.2669V44.9749H42.7502L41.4494 42.4351L45.352 40.5767L44.7945 38.9041H40.5821L40.0865 40.5767H41.3874L43.6175 44.9749H33.8918L32.7148 43.736L35.7502 40.4528L44.2989 24.7183L45.414 25.8953Z" fill="#0D0D2A"/>
<path d="M45.1673 35.559H39.4062V42.1253H45.1673V35.559Z" fill="#0D0D2A"/>
<path d="M44.3626 24.4086L48.7608 38.7803H50.5572V43.8599H42.3183V38.9661H43.6192L43.2475 37.851H39.5307L39.159 38.9661H40.398V43.8599H32.4688V38.7803H34.0794L38.8493 24.4086H44.3626Z" fill="#E60012"/>
<path d="M43.3713 25.7095H39.7784L35.0085 40.0812H33.7695V42.559H39.035V40.0812H37.3625L38.6014 36.5502H44.1766L45.3536 40.0812H43.681V42.559H49.1943V40.0812H47.7695L43.3713 25.7095Z" fill="white"/>
<path d="M41.6358 27.8157L43.8659 35.0635H38.9102L41.2641 27.8157H41.6358Z" fill="#E60012"/>
<path d="M41.4509 31.7803L40.7695 33.7626H42.0704L41.4509 31.7803Z" fill="#0D0D2A"/>
<path d="M67.5928 39.0281L68.8937 40.3909V44.975H61.522L59.1061 42.3113L62.2034 40.7006L60.7787 37.6652H59.1061V40.7006H60.1592L62.0176 44.975H52.6017L51.3008 43.6121L54.0264 40.3909V30.6652H52.6017V25.9573L64.0618 26.0192L67.2211 29.2405V34.444L65.4247 36.3644L66.9733 39.4617L67.5928 39.0281Z" fill="white"/>
<path d="M62.8822 35.559H57.1211V42.1253H62.8822V35.559Z" fill="white"/>
<path d="M78.4329 36.2404H72.6719V42.8067H78.4329V36.2404Z" fill="white"/>
<path d="M67.7764 38.7803L69.0773 40.0812V45.2227H61.334L58.7322 42.4971L61.7676 40.4528L60.5906 37.975H59.3517V40.4528H60.3428L62.2012 45.2227H52.4136L51.0508 43.8599L53.7145 40.1431V30.8511L53.157 30.7891L52.3517 25.7714L64.1835 25.7095L67.4667 29.0546L67.5287 34.6298L65.7322 36.3643L67.157 39.4617L67.7764 38.7803Z" fill="#0D0D2A"/>
<path d="M83.2656 35.2492V41.8156L79.7346 45.2227H72.7347L69.4515 41.9395V38.3466H75.0886V40.143H77.4426V37.3554H71.8674L69.2656 34.6298V29.0545L72.6727 25.7714H79.9205L83.0178 28.8687V32.0899H77.5665V30.851H75.0886V32.7094H80.7258L83.2656 35.2492Z" fill="#0D0D2A"/>
<path d="M83.2656 35.2493V41.8157L79.7346 45.2227H72.7347L69.4515 41.9396V38.3466H75.0886V40.1431H77.4426V37.3555H71.8674L69.2656 34.6298V29.0546L72.6727 25.7714L79.9205 25.7095L83.0178 28.8688V32.09H77.5665V30.8511H75.0886L74.4072 32.0281H80.0444L83.2656 35.2493Z" fill="#0D0D2A"/>
<path d="M67.5298 38.9661L68.7687 40.267V44.975H61.459L59.043 42.3113L62.1404 40.7006L60.7776 37.7272H59.105V40.7006H60.1581L62.0165 44.975H52.5386L51.1758 43.6121L53.9634 40.3909V30.6652H52.5386V25.9573H63.9988L67.1581 29.1785V34.5059L65.3616 36.3024L66.8483 39.5236C66.9103 39.5856 67.5298 38.9661 67.5298 38.9661Z" fill="#0D0D2A"/>
<path d="M82.9548 35.3732V41.6918L79.6716 44.975H72.7955L69.6981 41.7537V38.6564H74.8397V40.3909H77.7512V37.0458H71.9901L69.5742 34.5679V29.1785L72.8574 25.9573H79.7335L82.707 28.9927V31.7803H77.8751V30.6033H74.7778V32.9573L80.5388 32.8953L82.9548 35.3732Z" fill="#0D0D2A"/>
<path d="M62.8822 35.559H57.1211V42.1253H62.8822V35.559Z" fill="#0D0D2A"/>
<path d="M78.4329 36.2404H72.6719V42.8067H78.4329V36.2404Z" fill="#0D0D2A"/>
<path d="M79.4837 26.6387H73.7227V33.205H79.4837V26.6387Z" fill="#0D0D2A"/>
<path d="M67.7764 38.7803V43.8599H59.9711V39.09H60.4667L59.2897 36.6121H58.0508V39.09H59.0419V43.8599H51.0508V38.7803H52.4136V29.4882H51.0508V24.4086H62.8826L66.1658 27.7537V33.205L64.3694 35.0015L66.1039 38.7803H67.7764Z" fill="#E60012"/>
<path d="M66.4135 40.0812H65.2985L62.7586 34.7537L64.8648 32.6475V28.2493L62.325 25.7095H52.3516V28.1254H53.7763V40.0812H52.3516V42.559H57.7409V40.0812H56.6878V35.2493H60.1569L62.4489 40.0812H61.3339V42.559H66.4135V40.0812Z" fill="white"/>
<path d="M61.8933 29.2404V31.5944L60.6543 32.8333H56.9375V28.1254H60.7782L61.8933 29.2404Z" fill="#E60012"/>
<path d="M60.5303 29.4882H58.2383V31.5324H60.5303V29.4882Z" fill="#0D0D2A"/>
<path d="M81.9029 33.9484V40.4528L78.4339 43.8599H71.3719L68.1507 40.5767V37.0457H73.7879V38.7803H76.1418V35.9926H70.5666L67.9648 33.3289V27.7537L71.3719 24.4086H78.6197L81.7171 27.5059V30.7272H76.2657V29.4882H73.7879V31.3466H79.425L81.9029 33.9484Z" fill="#E60012"/>
<path d="M80.6025 34.444L78.8679 32.6475H73.1069L72.4255 31.9661V29.2404L73.5405 28.1254H76.5759L77.629 29.2404V29.4263H80.6025V28.3112L78.0626 25.7095H71.9299L69.3281 28.3112V32.7714L71.1246 34.6918H76.8856L77.4432 35.3112V38.9661L76.3281 40.0812H73.5405L72.4255 38.9661V38.3466H69.452V40.0192L71.9299 42.559H77.8768L80.6025 39.9573V34.444Z" fill="white"/>
</svg>
