<svg width="71" height="70" viewBox="0 0 71 70" fill="none" xmlns="http://www.w3.org/2000/svg">
<g clip-path="url(#clip0_2521_55355)">
<path d="M21.1795 43.5422V43.59C21.1795 43.6378 21.1795 43.6857 21.1795 43.7335C21.1795 43.7814 21.1795 43.7814 21.1316 43.8292C21.0838 43.8771 21.0359 43.9249 20.9881 43.9728C20.9402 44.0206 20.8445 44.0206 20.7488 44.0206C20.6531 44.0206 20.5575 44.0206 20.4618 44.0206C20.3661 43.9728 20.3182 43.9249 20.2704 43.8292C20.2704 43.7814 20.2225 43.7335 20.2225 43.7335C20.2225 43.6857 20.2225 43.6857 20.2225 43.6378L20.4618 43.59L20.7488 43.5422L21.1795 43.4943C21.1316 43.4943 21.1316 43.4943 21.1795 43.5422ZM20.9881 42.968C20.9881 42.968 20.9402 42.968 20.8924 42.968C20.8924 42.968 20.7488 42.968 20.5096 43.0158C20.2704 43.0637 20.079 43.0637 19.9833 43.1115L19.457 43.1594C19.457 43.1594 19.4091 43.1594 19.3134 43.1594C19.2177 43.1594 19.1699 43.1594 19.0742 43.1594H18.8828C18.8828 43.1594 18.8828 43.2072 18.9307 43.2551C18.9307 43.3029 18.9785 43.3986 18.9785 43.3986C18.9785 43.3986 18.9785 43.4465 18.9785 43.5422C18.9785 43.59 18.9785 43.6857 18.9785 43.6857C19.0264 43.6857 19.122 43.6857 19.2656 43.6378C19.3613 43.6378 19.457 43.59 19.5527 43.59C19.6484 43.59 19.6962 43.5422 19.7919 43.5422C19.8876 43.5422 19.9354 43.4943 20.0311 43.4943V43.5422C20.0311 43.59 20.0311 43.59 20.0311 43.6378C20.0311 43.6378 20.0311 43.6857 20.0311 43.7335C20.0311 43.7814 20.0311 43.8292 20.079 43.8771C20.1268 43.9728 20.1747 44.0685 20.1747 44.1163C20.2225 44.212 20.2704 44.2599 20.3661 44.3077C20.4618 44.3556 20.5096 44.4034 20.6053 44.4034C20.701 44.4034 20.7967 44.4034 20.8924 44.4034C21.0359 44.4034 21.1316 44.3077 21.2273 44.212C21.323 44.1163 21.3709 43.9728 21.3709 43.8292C21.3709 43.7814 21.3709 43.6857 21.3709 43.6378C21.3709 43.59 21.3709 43.4943 21.323 43.4465C21.323 43.4465 21.323 43.3986 21.2752 43.2551C21.2752 43.1594 21.2273 43.0637 21.2273 43.0158L21.1795 42.6809C21.1795 42.9201 21.0838 42.968 20.9881 42.968Z" fill="#002965"/>
<path d="M21.5632 45.456C21.5632 45.5517 21.6111 45.6474 21.5632 45.7431C21.5632 45.8388 21.4676 45.8866 21.3719 45.9345C21.324 45.9345 21.2762 45.9823 21.2283 45.9823C20.8934 46.0302 20.702 45.9345 20.6542 45.6474C20.6542 45.5995 20.6542 45.5995 20.6542 45.5517L20.8934 45.5038L21.1805 45.456L21.5632 45.3603C21.5154 45.3603 21.5632 45.4081 21.5632 45.456ZM19.6015 46.7C19.6015 46.7 19.6015 46.7479 19.6015 46.8436C19.6015 46.9392 19.6015 46.9871 19.6494 47.0349L19.7929 46.8914C19.8408 46.8435 19.9843 46.7479 20.08 46.6043C20.2714 46.4129 20.4628 46.2215 20.6063 46.1258C20.6542 46.2694 20.7499 46.4129 20.8934 46.4608C21.0369 46.5565 21.1805 46.5565 21.324 46.5086C21.4197 46.4608 21.5154 46.4608 21.6111 46.3651C21.6589 46.3172 21.7068 46.2215 21.7546 46.078C21.7546 46.0302 21.8025 45.9345 21.7546 45.8388C21.7546 45.7431 21.7068 45.6474 21.7068 45.5038C21.7068 45.4081 21.6589 45.3603 21.6589 45.2646C21.6589 45.1689 21.6111 45.1211 21.6111 45.0254L21.5632 44.7861C21.5154 44.7861 21.324 44.834 21.0848 44.8818C20.9891 44.8818 20.8934 44.9297 20.7977 44.9297L20.1757 45.0732C20.1278 45.0732 20.0321 45.0732 19.8886 45.1211C19.7451 45.1689 19.6015 45.1689 19.5058 45.2168L19.2666 45.2646H19.2188C19.2188 45.2646 19.2188 45.3125 19.2666 45.3603C19.2666 45.4081 19.3144 45.456 19.3144 45.5038C19.3144 45.5038 19.3144 45.5517 19.3144 45.6474C19.3144 45.6952 19.3144 45.7431 19.3144 45.7909C19.3623 45.7909 19.4101 45.7909 19.458 45.7431C19.5537 45.7431 19.6015 45.6952 19.6494 45.6952H19.7451L20.3671 45.5517C20.3671 45.5517 20.3671 45.5517 20.3671 45.5995L20.2235 45.7431L20.08 45.8866L19.5537 46.4129C19.5537 46.5086 19.6015 46.6522 19.6015 46.7Z" fill="#002965"/>
<path d="M20.4131 48.0398C20.5087 47.8963 20.7001 47.7527 20.9394 47.657C21.0829 47.6092 21.1786 47.5613 21.3221 47.5613C21.4657 47.5135 21.5614 47.5135 21.7049 47.5613C21.8006 47.5613 21.9442 47.6092 22.0398 47.7049C22.0877 47.7527 22.1355 47.8006 22.1834 47.8484C22.2312 47.8963 22.2312 47.9441 22.2791 48.0398C22.3748 48.279 22.3269 48.4704 22.1834 48.6618C22.0398 48.8054 21.8963 48.9489 21.6571 49.0446C21.5135 49.0924 21.4178 49.1403 21.2743 49.1403C21.1308 49.1403 21.0351 49.1403 20.9394 49.1403C20.7958 49.1403 20.6523 49.0924 20.5566 48.9967C20.4609 48.901 20.3652 48.8054 20.3174 48.7097C20.2695 48.4226 20.2695 48.2312 20.4131 48.0398ZM22.0398 49.4274C22.1355 49.3795 22.1834 49.3317 22.2791 49.236C22.3748 49.1881 22.4226 49.0924 22.4705 48.9967C22.5183 48.901 22.5662 48.8532 22.5662 48.7097C22.614 48.5661 22.614 48.4226 22.614 48.279C22.614 48.1355 22.5662 47.992 22.5183 47.8484C22.4705 47.657 22.3748 47.5135 22.2791 47.3699C22.1834 47.2264 22.0398 47.1307 21.8963 47.035C21.7528 46.9393 21.5614 46.8915 21.4178 46.8915C21.2265 46.8915 21.0829 46.8915 20.8915 46.9872C20.7001 47.035 20.5566 47.1307 20.4609 47.2264C20.3174 47.3221 20.2695 47.4656 20.1738 47.6092C20.126 47.7527 20.0781 47.9441 20.0781 48.0877C20.0781 48.279 20.126 48.4226 20.1738 48.614C20.2217 48.8054 20.3174 48.9489 20.4131 49.0924C20.5087 49.236 20.6523 49.3317 20.7958 49.4274C20.9394 49.5231 21.1308 49.5709 21.2743 49.5709C21.4657 49.5709 21.6092 49.5709 21.8006 49.4752C21.8963 49.5231 21.9442 49.4752 22.0398 49.4274Z" fill="#002965"/>
<path d="M23.4774 50.0972C23.5252 50.145 23.5252 50.1929 23.5731 50.2407C23.6209 50.2886 23.6209 50.3364 23.6209 50.3364C23.6688 50.3842 23.6688 50.4321 23.7166 50.4799C23.7644 50.5278 23.8123 50.5756 23.8123 50.5756C23.7644 50.6235 23.6688 50.6713 23.6209 50.7192C23.5252 50.767 23.4774 50.8149 23.4295 50.8627L23.3338 50.9584L23.0946 51.1498C23.1424 51.1976 23.1903 51.2933 23.286 51.389C23.3817 51.4847 23.4295 51.5804 23.4295 51.5804C23.4774 51.6283 23.5252 51.724 23.6209 51.8197C23.7166 51.9154 23.7644 51.9632 23.7644 52.011L24.1472 51.724C24.1951 51.6761 24.2429 51.6283 24.2908 51.6283C24.4343 51.5326 24.4822 51.4369 24.53 51.4369C24.5778 51.4847 24.5778 51.5326 24.6257 51.5804C24.6735 51.6283 24.6735 51.6761 24.6735 51.6761C24.6735 51.724 24.7214 51.724 24.7692 51.7718C24.8171 51.8197 24.8649 51.8675 24.8649 51.8675C24.8171 51.9154 24.7692 51.9632 24.7214 51.9632C24.5778 52.0589 24.4822 52.1067 24.4822 52.1067L23.8601 52.5852C23.7644 52.6809 23.6209 52.7766 23.5252 52.8244C23.1903 53.1115 23.0467 53.2551 22.9989 53.2551C22.9511 53.2072 22.9511 53.1594 22.9032 53.1115C22.8554 53.0637 22.8554 53.0158 22.8554 53.0158C22.8075 52.968 22.8075 52.9201 22.7597 52.8723C22.7118 52.8244 22.664 52.7766 22.664 52.7766L23.0467 52.4895L23.4295 52.2024L23.5731 52.1067L23.2381 51.6761L22.9032 51.2455L22.5683 51.4847C22.4726 51.5326 22.3769 51.6283 22.2812 51.724C22.1377 51.8197 22.0898 51.9154 22.042 51.9154C22.042 51.8675 21.9941 51.8675 21.9463 51.7718C21.8984 51.724 21.8984 51.6761 21.8984 51.6761C21.8506 51.6283 21.8506 51.5804 21.8027 51.5326C21.7549 51.4847 21.707 51.4369 21.707 51.4369C21.8027 51.3412 21.9463 51.2455 22.0898 51.1498C22.4247 50.9106 22.664 50.767 22.7118 50.6713C22.8554 50.5756 22.951 50.4799 23.0467 50.4321C23.286 50.2886 23.4295 50.145 23.4774 50.0972Z" fill="#002965"/>
<path d="M24.3837 53.9728C24.3837 53.7814 24.4794 53.59 24.623 53.3508C24.7187 53.2551 24.8144 53.1594 24.8622 53.0637C24.9579 52.968 25.0536 52.9202 25.1493 52.8245C25.245 52.7766 25.3885 52.7288 25.4842 52.7288C25.5799 52.7288 25.6278 52.7288 25.6756 52.7766C25.7235 52.7766 25.7713 52.8245 25.867 52.8723C26.0584 53.0159 26.1541 53.2072 26.1062 53.4465C26.1062 53.6379 26.0105 53.8771 25.867 54.0685C25.7713 54.1642 25.7235 54.2599 25.6278 54.3556C25.5321 54.4513 25.4364 54.4991 25.3407 54.547C25.1971 54.5948 25.1014 54.6427 24.9579 54.6427C24.8144 54.6427 24.7187 54.5948 24.623 54.4991C24.4794 54.4034 24.3837 54.212 24.3837 53.9728ZM26.489 54.2599C26.5369 54.1642 26.5847 54.0685 26.5847 53.9728C26.6326 53.8771 26.6326 53.7814 26.6326 53.6857C26.6326 53.59 26.5847 53.4943 26.5847 53.3986C26.5369 53.2551 26.489 53.1594 26.3933 53.0159C26.2976 52.9202 26.2019 52.8245 26.0584 52.7288C25.9148 52.6331 25.7713 52.5374 25.5799 52.4895C25.4364 52.4417 25.245 52.3938 25.1014 52.4417C24.9101 52.4417 24.7665 52.4895 24.623 52.5852C24.4794 52.6809 24.3359 52.7766 24.2402 52.9202C24.1445 53.0637 24.0488 53.2072 24.001 53.3508C23.9531 53.4943 23.9531 53.6379 23.9531 53.8293C24.001 53.9728 24.0488 54.1642 24.1445 54.3077C24.2402 54.4513 24.3837 54.5948 24.5273 54.6905C24.6708 54.7862 24.8144 54.8819 25.0058 54.9297C25.1493 54.9776 25.3407 55.0254 25.4842 54.9776C25.6756 54.9776 25.8192 54.9297 25.9627 54.834C26.1062 54.7383 26.2498 54.6427 26.3455 54.4991C26.4412 54.4034 26.489 54.3556 26.489 54.2599Z" fill="#002965"/>
<path d="M26.9218 54.6426L27.4481 53.7335C27.4481 53.7335 27.496 53.7335 27.496 53.7814C27.5438 53.7814 27.5438 53.8292 27.5438 53.8292C27.5917 53.8292 27.5917 53.8292 27.6395 53.8771H27.6874C27.6874 54.1641 27.6874 54.3555 27.7352 54.4991C27.7352 54.5469 27.7352 54.7383 27.7831 55.1211C27.7831 55.3125 27.8309 55.5517 27.8309 55.7431L28.1658 55.456C28.5486 55.1689 28.8835 54.834 29.2185 54.5469H29.2663C29.2663 54.5469 29.3142 54.5469 29.3142 54.5948H29.362C29.4099 54.5948 29.4577 54.6426 29.5055 54.6426C29.362 55.0254 29.3142 55.3603 29.2185 55.6474C29.1706 55.8866 29.0749 56.078 29.0749 56.2216L28.9314 56.7957V56.8436C28.9314 56.8914 28.9314 56.8914 28.9314 56.9393C28.8835 56.9393 28.8357 56.8914 28.7878 56.8914C28.74 56.8436 28.6922 56.8436 28.6922 56.8436C28.6443 56.8436 28.5965 56.7957 28.5486 56.7957C28.5008 56.7957 28.4529 56.7479 28.4529 56.7479C28.5486 56.5565 28.6443 56.3173 28.6922 56.0302C28.7878 55.7431 28.8357 55.5039 28.9314 55.2168C28.7878 55.3603 28.6443 55.456 28.5008 55.5995C28.3572 55.7431 28.2137 55.8388 28.0701 55.9823C27.9744 56.078 27.8309 56.2216 27.6395 56.3651C27.5917 56.3651 27.5917 56.3172 27.5438 56.3172C27.5438 56.3172 27.5438 56.3172 27.496 56.3172L27.4481 55.6952C27.4481 55.5039 27.4481 55.3125 27.4003 55.1211C27.4003 54.9297 27.3524 54.7383 27.3524 54.5469L27.0654 55.0732L26.874 55.4082L26.7304 55.6952L26.6347 55.8866C26.5869 55.8388 26.539 55.8388 26.539 55.8388H26.4912C26.4433 55.8388 26.3955 55.7909 26.3477 55.7909C26.3477 55.7909 26.3477 55.7431 26.3955 55.7431C26.3955 55.7431 26.3955 55.7431 26.4434 55.6952C26.4912 55.6474 26.539 55.5517 26.5869 55.456C26.6347 55.3603 26.6826 55.3125 26.7304 55.2168C26.7783 55.1211 26.8261 55.0254 26.9218 54.9297C26.8261 54.7862 26.874 54.6905 26.9218 54.6426Z" fill="#002965"/>
<path d="M30.6054 54.834C30.6054 54.8818 30.5575 54.9297 30.5575 54.9775C30.5097 55.1211 30.4618 55.2167 30.4618 55.2646C30.4618 55.3603 30.414 55.456 30.3661 55.5995C30.3183 55.7431 30.2704 55.8388 30.2704 55.9344C30.2704 56.0301 30.2226 56.1258 30.1747 56.2694C30.1269 56.4129 30.1269 56.5565 30.079 56.6043C30.079 56.6522 30.0312 56.7478 30.0312 56.9392C30.0312 56.9871 29.9833 57.0828 29.9833 57.1306C29.9355 57.1306 29.8877 57.0828 29.8398 57.0828C29.792 57.0828 29.7441 57.0349 29.7441 57.0349C29.6484 57.0349 29.5527 56.9871 29.457 56.9871C29.5049 56.8435 29.5527 56.7 29.6006 56.5565C29.7441 56.1737 29.792 55.8866 29.8398 55.7909L29.8877 55.5995L29.9833 55.1689C29.9833 55.1211 30.0312 55.0254 30.0312 54.9775C30.0312 54.9297 30.079 54.834 30.079 54.6904C30.1269 54.6904 30.1747 54.7383 30.2226 54.7383C30.2704 54.7383 30.3183 54.7861 30.3183 54.7861C30.3661 54.7861 30.414 54.7861 30.4618 54.834C30.5575 54.834 30.5575 54.834 30.6054 54.834Z" fill="#002965"/>
<path d="M31.0371 57.3699L30.8935 57.322C30.8457 57.322 30.7978 57.322 30.75 57.322C30.7978 57.0828 30.8457 56.8436 30.8935 56.5565C30.9414 56.2694 30.9892 55.9823 31.0371 55.6952L31.1328 55.1211V54.9775C31.1806 54.9775 31.2285 55.0254 31.2763 55.0254C31.3242 55.0254 31.372 55.0254 31.4199 55.0254C31.4677 55.1211 31.6112 55.3125 31.8505 55.6474C31.994 55.8388 32.1376 56.0302 32.2811 56.2694C32.4725 56.5086 32.616 56.7479 32.7117 56.8914L32.8074 56.1259L32.8553 55.7431C32.8553 55.6952 32.8553 55.6474 32.8553 55.5517C32.8553 55.456 32.8553 55.4082 32.8553 55.3603V55.3125C32.9031 55.3125 32.9031 55.3125 32.951 55.3603C32.9988 55.3603 32.9988 55.3603 32.9988 55.3603C32.9988 55.3603 33.0467 55.3603 33.0945 55.3603C33.1423 55.3603 33.1423 55.3603 33.1902 55.3603L33.1423 55.5517C33.1423 55.5995 33.1423 55.6474 33.0945 55.6952C33.0467 55.8388 33.0466 55.9345 33.0466 55.9823C33.0466 56.078 32.9988 56.2216 32.9988 56.3172C32.951 56.4129 32.951 56.5565 32.951 56.6043L32.9031 56.9393L32.8074 57.657H32.7596C32.7117 57.657 32.7117 57.657 32.6639 57.6091C32.616 57.6091 32.5682 57.6091 32.5203 57.6091C32.3768 57.3699 32.2811 57.2263 32.2333 57.1306C32.1376 56.9393 32.0419 56.7957 31.9462 56.6522C31.8505 56.5565 31.7548 56.3651 31.6112 56.1737L31.2763 55.7431L31.1806 56.2216L31.1328 56.5086C31.1328 56.6043 31.0849 56.7479 31.0849 57.0828C31.0849 57.1306 31.0849 57.2742 31.0371 57.3699Z" fill="#002965"/>
<path d="M35.8191 55.4082C35.8191 55.5039 35.8191 55.5996 35.7713 55.6474C35.7713 55.7431 35.7713 55.791 35.7713 55.8867V56.2216V56.6044C35.7713 56.8436 35.7234 57.035 35.7234 57.1785C35.6756 57.3699 35.5799 57.5134 35.3885 57.6091C35.2928 57.657 35.1971 57.7048 35.1014 57.7527C35.0057 57.8005 34.8622 57.8005 34.7665 57.8005C34.5273 57.8005 34.3359 57.7527 34.1445 57.657C33.9531 57.5613 33.8096 57.4178 33.7617 57.1785C33.7617 57.1785 33.7617 57.1307 33.7617 57.0828C33.7617 57.035 33.7617 57.035 33.7617 56.9871C33.7617 56.9393 33.7617 56.9393 33.7617 56.8914C33.7617 56.8914 33.7617 56.8436 33.7617 56.7957C33.7617 56.7479 33.7617 56.7479 33.7617 56.7V56.2694V55.8388V55.456V55.3125C33.8096 55.3125 33.8574 55.3125 33.9053 55.3125C33.9531 55.3125 34.001 55.3125 34.0488 55.3125C34.1445 55.3125 34.2402 55.3125 34.3359 55.3125V55.5039C34.3359 55.5996 34.3359 55.7431 34.288 55.8867C34.288 56.078 34.288 56.2216 34.2402 56.2694V56.413C34.2402 56.5087 34.2402 56.6044 34.2402 56.6522C34.2402 56.7479 34.2402 56.8436 34.2402 56.8914C34.2402 56.9871 34.288 57.035 34.288 57.0828C34.288 57.1307 34.3359 57.1785 34.3837 57.2742C34.4794 57.3699 34.623 57.4178 34.7665 57.4178C34.91 57.4178 35.0536 57.4178 35.1493 57.3221C35.245 57.2742 35.3407 57.1785 35.3885 56.9871C35.4364 56.9393 35.4364 56.8436 35.4364 56.7C35.4364 56.5565 35.4364 56.413 35.4842 56.2694C35.4842 56.1737 35.4842 55.9823 35.4842 55.7431C35.4842 55.5039 35.4842 55.3603 35.4842 55.2168C35.5321 55.2168 35.5799 55.2168 35.5799 55.2168C35.5799 55.2168 35.6277 55.2168 35.6756 55.2168C35.7234 55.2168 35.7234 55.2168 35.7713 55.2168C35.7234 55.4082 35.7713 55.4082 35.8191 55.4082Z" fill="#002965"/>
<path d="M36.3935 56.413L36.4414 55.3603C36.4414 55.3603 36.4892 55.3603 36.5371 55.3603C36.5849 55.3603 36.5849 55.3603 36.5849 55.3603C36.6328 55.3603 36.6328 55.3603 36.6806 55.3603H36.7285C36.872 55.5996 36.9677 55.791 37.0155 55.8866C37.0634 55.9345 37.1591 56.1259 37.3505 56.413C37.4462 56.6044 37.5419 56.7479 37.6854 56.9393L37.8289 56.5087C38.0203 56.078 38.1639 55.6474 38.3074 55.2168H38.3553H38.4031H38.451C38.4988 55.2168 38.5467 55.2168 38.5945 55.1689C38.6902 55.5996 38.738 55.9345 38.7859 56.1737C38.8337 56.413 38.8816 56.6043 38.9294 56.7479L39.073 57.3221V57.3699C39.073 57.4177 39.073 57.4177 39.073 57.4656C39.0251 57.4656 38.9773 57.4656 38.9294 57.4656C38.8816 57.4656 38.8337 57.4656 38.7859 57.4656C38.738 57.4656 38.6902 57.4656 38.6423 57.4656C38.5945 57.4656 38.5466 57.4656 38.4988 57.4656C38.4988 57.2264 38.451 56.9871 38.3553 56.7C38.3074 56.413 38.2596 56.1259 38.1639 55.8866C38.116 56.078 38.0203 56.2694 37.9725 56.4608C37.9246 56.6522 37.8289 56.8436 37.7811 56.9871C37.7333 57.1307 37.6854 57.3221 37.5897 57.5613C37.5419 57.5613 37.5419 57.5613 37.494 57.5613H37.4462L37.1112 57.035C37.0155 56.8436 36.9199 56.7 36.8242 56.5565C36.7285 56.413 36.6328 56.2216 36.5371 56.078V56.7V57.0828V57.4177V57.657C36.4892 57.657 36.4414 57.657 36.4414 57.657H36.3935C36.3457 57.657 36.2978 57.657 36.25 57.7048V57.657V57.6091C36.25 57.5613 36.25 57.4656 36.2978 57.3699C36.2978 57.2742 36.2978 57.1785 36.2978 57.0828C36.2978 56.9871 36.2978 56.8436 36.2978 56.7479C36.3935 56.6043 36.3935 56.5087 36.3935 56.413Z" fill="#002965"/>
<path d="M40.7001 55.1689C40.6523 55.0254 40.6523 54.9776 40.6044 54.9297C40.6523 54.9297 40.6523 54.8819 40.7001 54.8819H40.748C40.8437 54.834 40.9394 54.834 41.0351 54.8819C41.0829 54.8819 41.1308 54.9297 41.1308 54.9776C41.1786 55.0254 41.1786 55.0732 41.2265 55.1211C41.2265 55.1689 41.2743 55.2646 41.2743 55.3125C41.2743 55.3603 41.2743 55.456 41.2265 55.5039C41.1786 55.5517 41.1308 55.5996 41.1308 55.5996C41.0829 55.5996 41.0351 55.6474 40.9394 55.6474H40.8915L40.7958 55.3125C40.748 55.3603 40.748 55.2646 40.7001 55.1689ZM41.7049 55.3125C41.8006 55.1689 41.8006 55.0254 41.7528 54.8819C41.7049 54.6905 41.5614 54.5948 41.4178 54.5469C41.2743 54.4991 41.1308 54.4991 40.9394 54.5948L40.4609 54.7383L40.0781 54.834C40.126 54.9297 40.1738 55.0732 40.2217 55.2646C40.3174 55.456 40.3652 55.5996 40.3652 55.6953C40.3652 55.6953 40.4131 55.8388 40.4609 56.078C40.5566 56.3173 40.6044 56.5087 40.6044 56.6043C40.6044 56.7 40.6523 56.7479 40.6523 56.8436C40.6523 56.9393 40.7001 56.9871 40.7001 57.0828L40.9872 56.9871L41.4657 56.8436C41.5135 56.8436 41.5614 56.7957 41.6092 56.7957C41.6571 56.7957 41.6571 56.7479 41.7049 56.7479C41.8006 56.7 41.8485 56.6522 41.8963 56.6043C41.9442 56.5565 41.992 56.5087 42.0398 56.413C42.1355 56.2694 42.1355 56.078 42.0877 55.9345C42.0398 55.791 41.9442 55.6474 41.8006 55.5996C41.7049 55.5517 41.6571 55.5517 41.5614 55.5517C41.4657 55.5517 41.4178 55.5517 41.3221 55.5996V55.5517C41.5135 55.5039 41.6092 55.4082 41.7049 55.3125ZM40.9394 55.8866H40.9872H41.0351C41.1786 55.8388 41.3221 55.8388 41.4178 55.8866C41.5135 55.9345 41.6092 56.0302 41.6571 56.2216C41.7049 56.3173 41.7049 56.413 41.6571 56.5565C41.6571 56.6043 41.6092 56.6522 41.5614 56.7C41.5135 56.7479 41.4657 56.7479 41.4178 56.7957L41.2743 56.8436L41.1308 56.413L40.9394 55.8866Z" fill="#002965"/>
<path d="M41.9922 54.2598C42.04 54.212 42.0879 54.1641 42.2314 54.1163C42.3271 54.0684 42.4228 54.0206 42.4707 54.0206C42.5664 53.9728 42.7099 53.9249 42.8534 53.8292C42.997 53.7335 43.1405 53.6857 43.1405 53.6857C43.1405 53.7335 43.1884 53.7814 43.1884 53.8292V53.8771C43.1884 53.8771 43.1884 53.9249 43.2362 53.9249V53.9728C43.1405 54.0206 43.0448 54.0684 42.8534 54.1163C42.7099 54.1641 42.5664 54.212 42.4707 54.2598L42.6142 54.5948L42.7577 54.9297L43.4754 54.5469C43.4754 54.5948 43.4754 54.5948 43.5233 54.6426C43.5233 54.6905 43.5233 54.6905 43.5711 54.6905C43.5711 54.7383 43.619 54.7383 43.619 54.7383C43.619 54.7383 43.619 54.7861 43.6668 54.7861C43.619 54.834 43.5233 54.834 43.3797 54.9297C43.2362 54.9775 43.1405 55.0254 43.0927 55.0732L42.9491 55.1689L43.1405 55.5517L43.3319 55.9345C43.5711 55.8388 43.7625 55.6952 44.0496 55.5517C44.0496 55.5995 44.0975 55.6474 44.0975 55.6952V55.7431C44.0975 55.7431 44.0975 55.7909 44.1453 55.7909L44.1931 55.8388C44.1453 55.8866 44.0496 55.9345 43.9061 55.9823C43.7625 56.0302 43.6668 56.078 43.619 56.1259L43.2362 56.3172L42.9491 56.4608L42.8534 56.2694L42.5663 55.6952L42.3271 55.2168L42.1357 54.834C42.0879 54.7383 42.0879 54.6905 42.04 54.6426C42.04 54.3555 41.9922 54.2598 41.9922 54.2598Z" fill="#002965"/>
<path d="M45.1034 55.2168L44.9598 55.3124C44.912 55.3603 44.8641 55.3603 44.8641 55.4081C44.7684 55.2168 44.577 54.9775 44.4335 54.7383C44.2421 54.4991 44.0986 54.2598 43.9072 54.0206L43.5723 53.59L43.4766 53.4464C43.5244 53.3986 43.5723 53.3986 43.6201 53.3507C43.668 53.3029 43.7158 53.3029 43.7158 53.255C43.8593 53.255 44.0986 53.3029 44.4335 53.3986C44.6727 53.4464 44.912 53.4943 45.1512 53.5421C45.4383 53.59 45.7254 53.6378 45.8689 53.6857L45.4383 53.0636L45.199 52.7766C45.1512 52.7287 45.1512 52.6809 45.0555 52.633C45.0077 52.5852 44.9598 52.4895 44.912 52.4895L44.8641 52.4416C44.912 52.4416 44.912 52.3938 44.9598 52.3938L45.0077 52.3459L45.0555 52.2981C45.1034 52.2981 45.1034 52.2502 45.1034 52.2502L45.199 52.3938C45.2469 52.4416 45.2469 52.4895 45.2947 52.5373C45.3904 52.6809 45.4383 52.7287 45.4383 52.7766C45.4861 52.8723 45.5818 52.9679 45.6297 53.0636C45.6775 53.1593 45.7732 53.255 45.8211 53.3029L46.0124 53.59L46.4431 54.1641H46.3952C46.3474 54.1641 46.3474 54.212 46.2995 54.212C46.2517 54.2598 46.2517 54.2598 46.2038 54.3077C45.9646 54.2598 45.7732 54.212 45.6297 54.1641C45.4383 54.1163 45.2469 54.0684 45.0555 54.0684C44.912 54.0206 44.7206 54.0206 44.4813 53.9727L43.955 53.877L44.2421 54.2598L44.4335 54.4991C44.4813 54.5469 44.577 54.6904 44.7684 54.9297C44.9598 55.0732 45.0555 55.1211 45.1034 55.2168Z" fill="#002965"/>
<path d="M45.4375 51.9633C45.4375 51.8676 45.4853 51.8197 45.581 51.724C45.6767 51.6284 45.7246 51.5805 45.7724 51.5327C45.8681 51.437 45.9638 51.3413 46.0595 51.1977C46.2031 51.0542 46.2509 50.9585 46.2987 50.9585C46.3466 51.0063 46.3466 51.0542 46.3944 51.0542C46.3944 51.0542 46.3944 51.0542 46.4423 51.102C46.4423 51.102 46.4901 51.102 46.4901 51.1499H46.538C46.4901 51.1977 46.3944 51.2934 46.2509 51.437C46.1074 51.5327 46.0117 51.6284 45.9638 51.724L46.203 51.9633L46.4901 52.2025L47.0164 51.5805C47.0643 51.6284 47.0643 51.6284 47.0643 51.6284L47.1121 51.6762L47.16 51.724C47.16 51.724 47.2078 51.724 47.2078 51.7719C47.16 51.8197 47.1121 51.9154 47.0164 52.0111C46.9208 52.1068 46.8251 52.2025 46.7772 52.2504L46.6815 52.3939L47.0164 52.681L47.3514 52.9681C47.4949 52.7767 47.6863 52.5853 47.8777 52.3461C47.9255 52.3939 47.9255 52.4417 47.9734 52.4417C47.9734 52.4417 47.9734 52.4417 48.0212 52.4896C48.0212 52.4896 48.0691 52.4896 48.0691 52.5374L48.1169 52.5853C48.0691 52.6331 48.0212 52.7288 47.8777 52.8245C47.782 52.9202 47.6863 53.0159 47.6385 53.0638L47.3514 53.3508L47.16 53.5901L47.0164 53.4465L46.538 53.0159L46.1552 52.681L45.8681 52.3939C45.8203 52.3461 45.7724 52.2982 45.7246 52.2504C45.5332 52.0111 45.4375 51.9633 45.4375 51.9633Z" fill="#002965"/>
<path d="M46.4922 50.7192C46.4922 50.6236 46.54 50.5757 46.6357 50.48C46.7314 50.3843 46.7793 50.2886 46.7793 50.2408C46.8271 50.1451 46.9228 50.0015 47.0185 49.858C47.1142 49.7145 47.162 49.6188 47.2099 49.5709C47.2577 49.6188 47.2577 49.6188 47.3056 49.6666C47.3056 49.6666 47.3534 49.6666 47.3534 49.7145C47.3534 49.7145 47.4013 49.7145 47.4013 49.7623H47.4491C47.4013 49.858 47.3056 49.9537 47.2099 50.0972C47.1142 50.2408 47.0185 50.3365 46.9707 50.4322L47.2577 50.6236L47.5927 50.8628L48.0233 50.1929C48.0711 50.2408 48.0711 50.2408 48.119 50.2408L48.1668 50.2886C48.2147 50.2886 48.2147 50.3365 48.2147 50.3365H48.2625C48.2147 50.3843 48.1668 50.48 48.0711 50.5757C47.9754 50.6714 47.9276 50.7671 47.8797 50.8149L47.7841 50.9585L48.119 51.1977L48.741 51.5805C48.741 51.6283 48.6931 51.6283 48.6453 51.724C48.5975 51.7719 48.5974 51.8197 48.5496 51.8197C48.5496 51.8676 48.5018 51.9154 48.4539 51.9633C48.4061 52.0111 48.4061 52.059 48.4061 52.059L48.2625 51.9154L47.7362 51.5326L47.3056 51.2456L46.9707 51.0063C46.875 50.9585 46.8271 50.9106 46.7793 50.9106C46.5879 50.7671 46.4922 50.7192 46.4922 50.7192Z" fill="#002965"/>
<path d="M47.6377 48.8053C47.6855 48.8531 47.7334 48.8531 47.7812 48.901C47.9248 48.9967 48.0204 49.0445 48.0204 49.0445C48.0683 49.0924 48.164 49.1402 48.3075 49.1881C48.4511 49.2359 48.5468 49.3316 48.5946 49.3316C48.6425 49.3795 48.786 49.4273 48.9295 49.4752C49.0731 49.523 49.1688 49.6187 49.2645 49.6187C49.3123 49.6187 49.408 49.6665 49.5515 49.7622C49.5994 49.8101 49.6951 49.8101 49.7429 49.8579C49.7429 49.9058 49.6951 49.9536 49.6472 50.0015C49.5994 50.0493 49.5994 50.0972 49.5994 50.0972C49.5516 50.1929 49.5037 50.2886 49.4559 50.3842C49.3602 50.3364 49.2166 50.2407 49.0252 50.145C48.6425 49.9058 48.4511 49.8101 48.3554 49.7622L48.2118 49.6665L47.8291 49.4752C47.7812 49.4273 47.7334 49.4273 47.6377 49.3795C47.5898 49.3316 47.4941 49.3316 47.3984 49.2838C47.3984 49.2359 47.4463 49.1881 47.4941 49.1402C47.542 49.0924 47.542 49.0445 47.542 49.0445C47.542 48.9967 47.5898 48.9488 47.5898 48.901C47.5898 48.8531 47.6377 48.8053 47.6377 48.8053Z" fill="#002965"/>
<path d="M50.3204 47.3221L50.6075 47.4656C50.6075 47.5613 50.6075 47.7048 50.6075 47.8005C50.6075 47.8962 50.5596 48.0398 50.5118 48.1355C50.4639 48.2312 50.4161 48.3268 50.4161 48.3747C50.4161 48.3747 50.3682 48.4225 50.3204 48.5182C50.2725 48.5661 50.2247 48.6139 50.1769 48.6618C50.129 48.7096 50.0812 48.7575 50.0333 48.8053C49.9855 48.8532 49.9376 48.8532 49.8898 48.901C49.8419 48.901 49.7941 48.9489 49.7462 48.9489C49.6505 48.9967 49.507 48.9967 49.4113 48.9967C49.3156 48.9967 49.1721 48.9489 49.0285 48.901C48.8371 48.8053 48.6458 48.7096 48.5501 48.6139C48.4065 48.5182 48.3108 48.3747 48.263 48.1833C48.2151 48.0398 48.1673 47.8484 48.2151 47.657C48.2151 47.4656 48.263 47.3221 48.3108 47.1307C48.3587 47.035 48.4065 46.8914 48.5022 46.7958C48.5501 46.7001 48.6458 46.6044 48.7414 46.5087C48.7893 46.5565 48.8371 46.5565 48.885 46.6044C48.9328 46.6522 48.9807 46.6522 49.0285 46.7001V46.7479C48.9328 46.7957 48.8371 46.8436 48.7414 46.8914C48.6458 46.9871 48.5979 47.0828 48.5501 47.1785C48.4544 47.4178 48.5022 47.657 48.6458 47.8962C48.7893 48.0876 48.9807 48.2312 49.2199 48.3269C49.3635 48.3747 49.4592 48.4225 49.6027 48.4225C49.7462 48.4225 49.8419 48.4225 49.9376 48.3747C50.0333 48.3268 50.129 48.279 50.2247 48.1833C50.3204 48.0876 50.3682 47.9919 50.4161 47.8962C50.4639 47.8005 50.4639 47.7048 50.4639 47.5613C50.4161 47.5613 50.3682 47.4178 50.3204 47.3221Z" fill="#002965"/>
<path d="M48.7383 45.6953C48.7861 45.6953 48.834 45.7432 48.8818 45.7432C49.0253 45.791 49.121 45.8389 49.1689 45.8389C49.2646 45.8389 49.3603 45.8867 49.5038 45.9345C49.6474 45.9824 49.743 46.0302 49.8387 46.0302C49.9344 46.0302 50.0301 46.0781 50.1737 46.1259C50.3172 46.1738 50.4607 46.1738 50.5086 46.2216C50.5564 46.2216 50.6521 46.2695 50.8435 46.2695C50.8914 46.2695 50.9871 46.3173 51.0349 46.3173C51.0349 46.3652 50.9871 46.413 50.9871 46.4609C50.9871 46.5087 50.9392 46.5566 50.9392 46.5566C50.9392 46.6523 50.8914 46.7479 50.8914 46.8436C50.7478 46.7958 50.6043 46.7479 50.4129 46.7001C50.0301 46.5566 49.743 46.5087 49.6474 46.4609L49.456 46.413L49.0253 46.3173C48.9775 46.3173 48.8818 46.2695 48.834 46.2695C48.7861 46.2695 48.6904 46.2216 48.5469 46.2216C48.5469 46.1738 48.5947 46.1259 48.5947 46.0781C48.5947 46.0302 48.6426 45.9824 48.6426 45.9824C48.6426 45.9345 48.6426 45.8867 48.6904 45.8389C48.7383 45.7432 48.7383 45.6953 48.7383 45.6953Z" fill="#002965"/>
<path d="M50.8912 44.9297C50.6998 45.0254 50.5084 45.0254 50.2213 44.9776C50.0778 44.9776 49.9342 44.9297 49.8385 44.8819C49.695 44.834 49.5993 44.7862 49.5036 44.7383C49.4079 44.6905 49.3122 44.5948 49.2644 44.4513C49.2165 44.4034 49.2165 44.3077 49.2165 44.2599C49.2165 44.212 49.2165 44.1163 49.2165 44.0206C49.2644 43.7814 49.4079 43.59 49.5993 43.4943C49.7907 43.3986 50.0299 43.3986 50.2692 43.4465C50.4127 43.4465 50.5084 43.4943 50.6519 43.5422C50.7476 43.59 50.8912 43.6379 50.939 43.6857C51.0347 43.7814 51.1304 43.8771 51.1782 43.9728C51.2261 44.0685 51.2261 44.212 51.2261 44.3556C51.2739 44.6427 51.1304 44.834 50.8912 44.9297ZM50.1735 42.9202C50.0778 42.9202 49.9821 42.9202 49.8864 42.968C49.7907 42.968 49.695 43.0159 49.5993 43.0637C49.5515 43.1116 49.4558 43.1594 49.3601 43.2551C49.2644 43.3508 49.1687 43.4465 49.1208 43.59C49.073 43.7336 49.0251 43.8771 48.9773 44.0206C48.9294 44.212 48.9294 44.3556 48.9773 44.547C49.0251 44.6905 49.073 44.8819 49.1687 45.0254C49.2644 45.169 49.3601 45.3125 49.5036 45.4082C49.6471 45.5039 49.7907 45.5517 49.9821 45.5996C50.1735 45.6474 50.317 45.6474 50.4605 45.5996C50.6041 45.5517 50.7476 45.5039 50.8912 45.4082C51.0347 45.3125 51.1304 45.169 51.2261 45.0254C51.3218 44.8819 51.3696 44.6905 51.3696 44.547C51.4175 44.3556 51.4175 44.1642 51.3696 44.0206C51.3218 43.8771 51.2739 43.6857 51.1782 43.5422C51.0826 43.3986 50.9869 43.2551 50.7955 43.1594C50.6519 43.0637 50.4605 43.0159 50.317 42.968C50.3649 42.9202 50.2692 42.9202 50.1735 42.9202Z" fill="#002965"/>
<path d="M29.9853 48.1355V47.4656H29.9374C29.7939 47.5613 29.6504 47.6092 29.5068 47.7049C29.5068 47.657 29.459 47.6092 29.459 47.6092C29.4111 47.5613 29.4111 47.5613 29.3633 47.5135V47.4656C29.5547 47.4178 29.7461 47.3221 29.9374 47.2264C30.081 47.1786 30.2724 47.0829 30.5116 46.9393L30.6073 46.9872C30.6073 47.1307 30.6073 47.37 30.6073 47.5613C30.6073 48.0877 30.5595 48.4226 30.5595 48.5183V48.7575C30.5595 48.8532 30.5595 48.9967 30.5595 49.1881C30.5595 49.3795 30.5595 49.5231 30.5595 49.6188H30.5116C30.4159 49.6188 30.3681 49.6188 30.3202 49.6188C30.2724 49.6188 30.2245 49.6188 30.2245 49.6188C30.1767 49.6188 30.1288 49.6188 30.0331 49.6188C29.9374 49.6188 29.8896 49.6188 29.8896 49.6188L29.9374 49.2838C29.9374 49.0924 29.9374 48.8532 29.9374 48.5661C29.9853 48.3747 29.9853 48.1834 29.9853 48.1355Z" fill="#002965"/>
<path d="M33.8104 48.2312C33.7626 48.3747 33.6669 48.4226 33.5233 48.4226C33.4277 48.4226 33.332 48.3747 33.2841 48.279C33.2363 48.2312 33.2363 48.1355 33.2363 47.992V47.8006C33.2363 47.657 33.2363 47.5135 33.2841 47.4178C33.332 47.2743 33.4277 47.1786 33.5712 47.1786C33.7147 47.1786 33.8104 47.2743 33.8583 47.4178C33.9061 47.5135 33.9061 47.657 33.9061 47.8484C33.9061 47.992 33.8583 48.1355 33.8104 48.2312ZM32.8535 49.5709C32.8535 49.6188 32.8535 49.6188 32.9013 49.6666C32.9013 49.7145 32.9492 49.7145 32.9492 49.7145H32.997C33.0449 49.7145 33.0927 49.7145 33.0927 49.7623C33.0927 49.7623 33.1406 49.7623 33.1884 49.7623C33.3798 49.7623 33.5712 49.7144 33.7147 49.6188C33.9061 49.5231 34.0497 49.4274 34.1454 49.236C34.241 49.0924 34.3367 48.9011 34.3846 48.7097C34.4324 48.5183 34.4324 48.3269 34.4324 48.0877C34.4324 47.9441 34.4324 47.8006 34.3846 47.657C34.3367 47.5135 34.2889 47.4178 34.1932 47.2743C34.0975 47.1786 34.0018 47.0829 33.8583 47.035C33.7147 46.9872 33.5712 46.9393 33.4277 46.9393C33.2841 46.9393 33.1884 46.9393 33.0927 46.9872C32.997 47.035 32.9013 47.0829 32.8056 47.1786C32.7099 47.2743 32.6143 47.37 32.6143 47.4656C32.5664 47.5613 32.5664 47.7049 32.5664 47.8484C32.5664 48.0877 32.6621 48.2312 32.8056 48.3747C32.9492 48.5183 33.1406 48.5661 33.3798 48.5661C33.5712 48.5661 33.7147 48.5183 33.8583 48.3747H33.9061V48.4226C33.9061 48.6618 33.8583 48.9011 33.7626 49.0924C33.619 49.3317 33.4755 49.4752 33.2363 49.4752C33.1884 49.4752 33.1406 49.4752 33.0449 49.4274C32.997 49.4274 32.9492 49.3795 32.9013 49.3317L32.8535 49.3795C32.8535 49.5231 32.8535 49.5231 32.8535 49.5709Z" fill="#002965"/>
<path d="M36.6357 47.8963C36.7792 47.7049 36.8749 47.5613 36.9228 47.4657H36.9706V48.5661H36.2529V48.5183C36.3964 48.2791 36.54 48.0877 36.6357 47.8963ZM35.918 48.7575C35.918 48.8054 35.918 48.8532 35.918 48.8532C35.918 48.9011 35.918 48.9011 35.918 48.9489C35.918 48.9489 35.918 48.9968 35.918 49.0446H36.9706C36.9706 49.1881 36.9706 49.2838 36.9706 49.4274C36.9706 49.5231 36.9706 49.6188 36.9228 49.7145C36.9228 49.7145 36.9706 49.7145 37.0663 49.7145C37.162 49.7145 37.2098 49.7145 37.2577 49.7145C37.3055 49.7145 37.3534 49.7145 37.4012 49.7145C37.4491 49.7145 37.4969 49.7145 37.5448 49.7145H37.5926V49.6666V49.4752V49.0446L37.9275 49.0924C37.9275 48.9968 37.9275 48.9489 37.9275 48.9489C37.9275 48.9489 37.9275 48.9011 37.9275 48.8532C37.9275 48.8054 37.9275 48.7575 37.9275 48.7097C37.9275 48.6618 37.9275 48.6618 37.9275 48.614H37.5926V47.8484V47.4657C37.5926 47.4657 37.5926 47.37 37.5926 47.1786C37.5926 47.1307 37.5926 47.0829 37.5926 46.9872C37.4969 46.9872 37.4491 47.035 37.3534 47.035C37.3055 47.035 37.2577 47.035 37.2098 47.035C37.162 47.035 37.1141 47.035 37.1141 47.035H37.0663C37.0184 47.1307 36.9228 47.2264 36.8271 47.37C36.7792 47.4657 36.6835 47.5613 36.5878 47.7049L36.3007 48.1355L35.9658 48.6618C35.918 48.7097 35.918 48.7097 35.918 48.7575Z" fill="#002965"/>
<path d="M39.8886 48.5661C39.9365 48.4226 40.0321 48.3747 40.1757 48.3747C40.3192 48.3747 40.4149 48.4704 40.4628 48.614C40.5106 48.7097 40.5106 48.8532 40.5106 48.9968C40.5106 49.1403 40.5106 49.2838 40.4628 49.3795C40.4149 49.5231 40.3192 49.6188 40.1757 49.6188C40.0321 49.6188 39.9365 49.5231 39.8886 49.3795C39.8408 49.2838 39.8408 49.1403 39.8408 48.9489C39.8408 48.7575 39.8408 48.6618 39.8886 48.5661ZM40.702 47.035C40.6542 47.035 40.5585 47.035 40.5106 47.035H40.4628C40.4149 47.035 40.3671 47.035 40.2714 47.0829C40.1757 47.0829 40.1278 47.1307 40.0321 47.1307C39.9365 47.1786 39.8886 47.1786 39.7929 47.2743C39.6015 47.4178 39.458 47.657 39.3623 47.8963C39.2666 48.1355 39.2188 48.3747 39.2188 48.6618C39.2188 48.8054 39.2187 48.9489 39.2666 49.0446C39.3144 49.1881 39.3623 49.2838 39.4101 49.3795C39.5058 49.4752 39.6015 49.5709 39.6972 49.6188C39.7451 49.6666 39.8408 49.6666 39.8886 49.6666C39.9843 49.6666 40.0321 49.6666 40.1278 49.6666C40.4149 49.6666 40.6063 49.5709 40.7977 49.4274C40.9891 49.2838 41.0848 49.0446 41.0848 48.8054C41.0848 48.5661 40.9891 48.3747 40.8455 48.2312C40.702 48.0877 40.5106 48.0398 40.2714 48.0398C40.08 48.0398 39.9365 48.0877 39.8408 48.2312H39.7929C39.7929 48.0877 39.7929 47.992 39.8408 47.8484C39.8408 47.8006 39.8886 47.7049 39.8886 47.6092C39.9365 47.5135 39.9365 47.4657 40.0321 47.37C40.08 47.2743 40.1757 47.2264 40.2235 47.1786C40.3192 47.1307 40.4149 47.0829 40.4628 47.0829C40.5106 47.0829 40.5585 47.0829 40.6063 47.0829C40.6542 47.0829 40.702 47.0829 40.702 47.1307C40.7498 47.1307 40.702 47.0829 40.702 47.035Z" fill="#002965"/>
<path d="M5.24789 31.3891C6.15698 31.3891 6.87468 30.6714 6.87468 29.7623C6.87468 28.8532 6.15698 28.1355 5.24789 28.1355C4.3388 28.1355 3.62109 28.8532 3.62109 29.7623C3.62109 30.6714 4.3388 31.3891 5.24789 31.3891Z" fill="#002965"/>
<path d="M65.3885 30.8627C66.2976 30.8627 67.0153 30.145 67.0153 29.2359C67.0153 28.3268 66.2976 27.6091 65.3885 27.6091C64.4794 27.6091 63.7617 28.3268 63.7617 29.2359C63.7617 30.145 64.4794 30.8627 65.3885 30.8627Z" fill="#002965"/>
<path d="M6.39453 17.5614L8.06917 15.3604L7.5907 15.0255L8.26056 14.1164L8.73903 14.4513L10.4137 12.1547L11.1314 12.6331L7.11223 18.0398L6.39453 17.5614Z" fill="#002965"/>
<path d="M11.992 16.5566L10.8915 15.8389L10.0781 16.8915L11.2265 17.6571L11.992 16.5566Z" fill="#002965"/>
<path d="M13.7153 14.3555L12.9976 13.9249L8.88281 19.4273L9.60052 19.8579L13.7153 14.3555Z" fill="#002965"/>
<path d="M10.368 17.1306C9.50677 18.0397 8.50198 18.4225 7.92782 18.0397C7.25796 17.6091 7.44935 16.2216 8.40629 14.9775C9.31538 13.7335 10.6551 13.0637 11.3249 13.5421C11.8991 13.9249 11.8513 14.9297 11.2771 15.9823M10.1766 16.1259C10.6551 15.5039 10.7986 14.834 10.5116 14.5948C10.2245 14.4034 9.60246 14.7383 9.12399 15.3603C8.64552 15.9823 8.50198 16.6522 8.78906 16.8914C9.07614 17.1306 9.69815 16.7479 10.1766 16.1259Z" fill="#002965"/>
<path d="M10.7961 20.0972C9.98274 19.5709 10.1741 18.0398 11.1311 16.7001C12.1359 15.3604 13.5713 14.6905 14.3847 15.2647C15.1981 15.791 15.0067 17.3221 14.0497 18.6618C13.0449 20.0015 11.5617 20.6714 10.7961 20.0972ZM13.332 18.1833C13.954 17.3699 14.0976 16.4608 13.667 16.1259C13.2363 15.8388 12.3751 16.2694 11.7531 17.0828C11.0832 17.9441 10.9397 18.8532 11.4181 19.1403C11.8488 19.4752 12.71 18.9967 13.332 18.1833Z" fill="#002965"/>
<path d="M24.0983 6.98715L22.1366 4.16418L21.1797 4.78619L23.1893 7.60916L24.0983 6.98715Z" fill="#002965"/>
<path d="M19.6484 10.1928L24.2896 7.27417L25.8685 9.47513L24.8637 10.0971L23.8111 8.56604L20.1269 10.8627L19.6484 10.1928Z" fill="#002965"/>
<path d="M18.309 8.56605C17.7349 7.75265 17.9741 6.60433 18.8354 6.07801C19.6966 5.55169 20.8928 5.74308 21.4669 6.60433C22.0411 7.41772 21.8019 8.56605 20.9406 9.09236C20.0315 9.61868 18.8832 9.37944 18.309 8.56605ZM20.4143 8.32681C20.7971 8.08758 20.8449 7.56126 20.5579 7.13064C20.2708 6.70002 19.7445 6.55648 19.3617 6.79571C18.9789 7.03495 18.9311 7.56126 19.2181 7.99189C19.5052 8.42251 20.0315 8.56605 20.4143 8.32681Z" fill="#002965"/>
<path d="M35.0085 1.58044H32.2812V7.94408H36.6353V4.69049H37.0181V7.94408H38.2143V1.58044H37.0659V3.7814H36.6832V1.58044H35.487V7.08284H33.286V2.29815H35.0085V1.58044Z" fill="#002965"/>
<path d="M60.6537 12.4895L64.003 17.0828L59.2183 20.1929L59.6011 20.6713L58.8834 21.1976L55.0078 15.9345L55.7255 15.456L56.4432 16.3651L59.4097 14.4034L60.1274 15.3603L57.1131 17.322L57.4002 17.7048L60.4145 15.7431L61.0844 16.6522L58.07 18.6139L58.5006 19.2838L62.5198 16.6043L59.8882 12.968L60.6537 12.4895Z" fill="#002965"/>
<path d="M48.8828 4.02063L51.8014 5.83881L51.4187 6.41297L48.5 4.59479L48.8828 4.02063Z" fill="#002965"/>
<path d="M47.7832 4.547L51.7544 6.98719L51.276 7.70489L47.3047 5.21685L47.7832 4.547Z" fill="#002965"/>
<path d="M52.615 6.36511L53.7155 7.08282L52.5672 8.75746L53.1413 9.09239L52.615 9.90578L52.0409 9.52301L51.4667 10.2886L50.4141 9.6187L52.615 6.36511Z" fill="#002965"/>
<path d="M46.3007 7.36987L51.3247 10.5278L50.0806 12.3459L48.9323 11.6761L49.6979 10.6235L45.7266 8.13542L46.3007 7.36987Z" fill="#002965"/>
<path d="M47.3516 6.12591C47.8301 5.45605 48.8827 5.36036 49.6961 5.88667C50.5095 6.41299 50.8444 7.36993 50.3659 8.03978C49.8875 8.70964 48.8348 8.80533 48.0214 8.27902C47.1602 7.80055 46.8731 6.79576 47.3516 6.12591ZM48.3564 7.80055C48.6913 7.99194 49.1698 7.8484 49.4569 7.46562C49.7439 7.08285 49.6961 6.55653 49.3612 6.36514C49.0262 6.17375 48.5478 6.31729 48.2607 6.70007C47.9736 7.13069 48.0214 7.60916 48.3564 7.80055Z" fill="#002965"/>
<path d="M2.71094 41.8197L8.21333 40.1929L8.45256 40.9584L6.15591 41.5804L7.01716 44.4512L9.26596 43.7814L9.5052 44.5469L4.0028 46.1737L3.76357 45.4082L6.3473 44.6426L5.48606 41.7718L2.90232 42.5374L2.71094 41.8197Z" fill="#002965"/>
<path d="M6.20304 48.279C6.44227 47.8005 6.87289 47.4178 7.39921 47.1307C8.11691 46.7479 8.73892 46.6522 9.26524 46.7958C9.79155 46.9393 10.2222 47.2742 10.4614 47.8005C10.7485 48.3269 10.7963 48.8532 10.5571 49.3795C10.3657 49.858 9.93509 50.2886 9.36093 50.5757C8.78677 50.8627 8.21261 51.0063 7.63844 50.9584C7.06428 50.9106 6.63366 50.5757 6.29873 49.9536C5.9638 49.3316 5.9638 48.7575 6.20304 48.279ZM9.1217 46.0302C8.45184 45.9345 7.78198 46.078 7.06428 46.413C6.29873 46.7958 5.77242 47.3221 5.48533 47.9919C5.19825 48.7096 5.2461 49.4752 5.62887 50.2407C6.0595 51.102 6.68151 51.5804 7.4949 51.724C8.21261 51.8675 8.93031 51.724 9.69586 51.3412C10.4136 51.0063 10.892 50.5278 11.1791 49.9536C11.5619 49.2359 11.4662 48.4225 11.0356 47.5135C10.605 46.6044 9.98294 46.1259 9.1217 46.0302Z" fill="#002965"/>
<path d="M8.45112 54.6427L12.0875 51.7719L10.2693 56.9393L10.7956 57.6092L15.3411 54.0685L14.9105 53.4943L11.2262 56.3652L13.0923 51.2455L12.5181 50.5278L7.97266 54.0685L8.45112 54.6427Z" fill="#002965"/>
<path d="M15.916 55.6475C15.1504 55.7432 14.4806 56.1738 13.8586 56.8915C13.2365 57.6092 12.9495 58.3747 12.9973 59.1403C13.093 59.8101 13.3801 60.3365 13.9064 60.7671C14.2892 61.102 14.7198 61.2934 15.1026 61.3891C15.3418 61.4369 15.6289 61.4369 16.0117 61.3891L15.6767 62.0589L16.0595 62.3939L18.0691 60.0494L16.1552 58.4226L15.7246 58.901L17.1121 60.0494C16.6815 60.5757 16.2031 60.8149 15.7724 60.8149C15.3418 60.8149 14.9112 60.6714 14.4806 60.3365C13.9543 59.9058 13.715 59.4274 13.7629 58.901C13.8107 58.3747 14.0499 57.8484 14.4806 57.3221C15.0069 56.7001 15.5332 56.3652 16.0595 56.3173C16.5858 56.2695 17.0643 56.3652 17.4471 56.7479C17.782 57.035 18.0212 57.3699 18.1169 57.7049C18.2126 58.0398 18.1648 58.3747 17.9734 58.7575L18.5476 59.236C18.9303 58.5661 19.026 57.9441 18.7868 57.3699C18.6432 56.9393 18.3562 56.5565 17.9255 56.2216C17.3035 55.7432 16.6337 55.5518 15.916 55.6475Z" fill="#002965"/>
<path d="M18.3105 63.6857L21.4205 58.901L20.7507 58.4703L17.6406 63.255L18.3105 63.6857Z" fill="#002965"/>
<path d="M19.5039 64.3556L22.2312 59.3317L22.901 59.7144L21.5613 62.1546L25.3412 61.0542L26.2982 61.5805L23.0924 62.4896L23.6187 66.6522L22.7096 66.1738L22.3269 62.6809L21.0829 63.0159L20.1259 64.7862L19.5039 64.3556Z" fill="#002965"/>
<path d="M28.4038 65.0733C28.3081 65.791 28.3081 66.3173 28.4038 66.7479C28.643 67.5135 29.2172 67.9441 30.1741 68.0877C31.1311 68.2312 31.8488 68.0398 32.2794 67.4178C32.5186 67.0829 32.71 66.5566 32.8536 65.8389L33.4277 62.681L32.6622 62.5374L32.0402 66.0302C31.9923 66.4609 31.8488 66.7479 31.7052 66.9872C31.3703 67.37 30.8918 67.5135 30.2698 67.4178C29.7435 67.3221 29.3607 67.035 29.2172 66.6044C29.1215 66.3173 29.0737 65.9345 29.1694 65.5518L29.7914 62.0589L29.0258 61.9154L28.4038 65.0733Z" fill="#002965"/>
<path d="M35.1513 68.5182L35.0556 63.8771L38.0699 68.4704H38.9312L38.7876 62.7288H38.0699L38.1656 67.3699L35.1513 62.7766H34.2422L34.3857 68.5182H35.1513Z" fill="#002965"/>
<path d="M41.6561 67.9442L40.6991 62.2982L39.9336 62.4418L40.9384 68.0877L41.6561 67.9442Z" fill="#002965"/>
<path d="M41.3242 62.2982L42.1376 62.059L45.1998 66.2216L45.2477 61.0542L46.0611 60.7671L45.8218 66.8915L45.0563 67.1307L41.3242 62.2982Z" fill="#002965"/>
<path d="M52.9476 63.5422L52.6127 62.9202L49.5505 64.5949L48.6414 62.8724L51.4165 61.3413L51.0816 60.7671L48.3065 62.2504L47.4931 60.7193L50.5074 59.0925L50.1725 58.4705L46.4883 60.48L49.2156 65.5518L52.9476 63.5422Z" fill="#002965"/>
<path d="M51.8954 58.0876L53.3787 56.8914C53.57 56.7479 53.7614 56.6043 53.9528 56.6043C54.2878 56.5565 54.5748 56.6522 54.8141 56.9871C55.0533 57.2742 55.149 57.5613 55.0533 57.8005C54.9576 58.0397 54.8141 58.279 54.527 58.5182L53.1394 59.6665L51.8954 58.0876ZM55.0533 62.011L53.5222 60.0972L54.9098 58.9967C55.149 58.8053 55.3404 58.6617 55.5318 58.6617C55.8189 58.6139 56.0581 58.7096 56.3452 58.9967L56.9672 59.7144C57.1107 59.9058 57.2064 60.0015 57.3021 60.0493C57.35 60.0972 57.3978 60.145 57.4935 60.145L58.259 59.523L58.1634 59.4273C58.0198 59.4751 57.8763 59.4273 57.7327 59.3316C57.637 59.2838 57.5413 59.1402 57.3978 58.9967L56.8715 58.4225C56.6323 58.1833 56.4409 58.0397 56.2495 57.9919C56.0581 57.944 55.8667 57.944 55.6275 58.0397C55.7232 57.8005 55.771 57.5134 55.771 57.2742C55.7232 57.035 55.6275 56.7479 55.3882 56.4608C54.9576 55.9345 54.4791 55.7431 53.905 55.9345C53.6179 56.0302 53.283 56.1737 52.948 56.4608L50.8906 58.1354L54.4791 62.5852L55.0533 62.011Z" fill="#002965"/>
<path d="M59.2653 57.8484C59.7916 57.8006 60.3179 57.4657 60.7964 56.9393C61.1791 56.4609 61.4662 55.9824 61.5619 55.4561C61.6576 54.9298 61.4662 54.4513 60.9878 54.0207C60.605 53.6857 60.1744 53.5422 59.7437 53.6857C59.5045 53.7336 59.2174 53.8771 58.8825 54.1164L58.2126 54.5948C57.782 54.9298 57.4471 55.1212 57.3035 55.169C57.0643 55.2647 56.8251 55.2168 56.5858 55.0255C56.3945 54.8819 56.2988 54.6427 56.2988 54.3556C56.2988 54.0685 56.4423 53.7814 56.7294 53.3987C57.1122 52.968 57.4949 52.7767 57.8777 52.7767C58.0691 52.7767 58.3083 52.8724 58.5954 53.0637L59.0739 52.4896C58.5954 52.059 58.1169 51.9154 57.5906 52.059C57.1122 52.2025 56.6337 52.4896 56.2509 52.9202C55.8203 53.3987 55.6289 53.925 55.6289 54.4035C55.6289 54.8819 55.8681 55.3125 56.2509 55.6475C56.5858 55.9824 57.0165 56.0781 57.3992 55.9346C57.6385 55.8867 57.9734 55.6953 58.404 55.3604L59.026 54.8819C59.361 54.6427 59.648 54.4513 59.8873 54.4035C60.1265 54.3556 60.3657 54.4035 60.605 54.6427C60.9399 54.9298 60.9878 55.2647 60.7964 55.7432C60.7007 55.9824 60.5571 56.2216 60.3657 56.413C59.9351 56.8915 59.5045 57.1307 59.026 57.0829C58.7868 57.035 58.5476 56.9393 58.2605 56.7479L57.782 57.3221C58.2126 57.7527 58.6911 57.8963 59.2653 57.8484Z" fill="#002965"/>
<path d="M63.4761 53.1115L58.7392 49.9058L58.3086 50.5756L63.0454 53.7814L63.4761 53.1115Z" fill="#002965"/>
<path d="M59.1211 49.4273L61.2742 45.3125L61.8962 45.6474L60.9871 47.3699L65.4847 49.7144L65.102 50.4321L60.6522 48.0876L59.7431 49.7623L59.1211 49.4273Z" fill="#002965"/>
<path d="M67.3978 45.0254L67.6371 44.3077L65.4361 43.59L62.8524 40.48L62.5653 41.3412L64.6706 43.7336L61.5605 44.4513L61.2734 45.3125L65.1969 44.3077L67.3978 45.0254Z" fill="#002965"/>
<path d="M27.4013 25.6474V20.2407H39.3152V22.011H39.6501V19.9058H27.0664V25.9823H31.4683V25.6474H27.4013Z" fill="#002965"/>
<path d="M38.9334 31.054L38.7898 31.1976C38.7898 31.5325 38.8377 31.9153 38.742 32.2023C38.6463 32.3459 38.4549 32.3459 38.2635 32.298C38.1678 32.2502 38.2157 32.1545 38.2157 32.0588H37.6415L37.5937 32.6808C37.9286 32.633 38.2635 32.8243 38.4549 32.4894C38.6463 32.633 38.9812 32.7765 38.9812 33.0157C38.9334 33.1114 38.8377 33.1114 38.742 33.1593C38.6941 33.4464 38.6941 33.7813 38.5984 34.0684C38.742 34.1162 38.8855 34.1162 38.9812 34.0684C39.2683 32.92 39.4118 31.7717 39.5075 30.5755C39.8425 30.6234 40.1774 30.6234 40.5123 30.7669C40.5602 30.8626 40.4166 30.9105 40.3688 30.9105H40.3209C40.0339 32.0109 39.6989 33.0157 39.2683 34.0684V34.1162L40.4166 34.0205C40.4645 33.542 40.2252 33.1114 40.0339 32.633C40.1774 32.633 40.3209 32.7765 40.4645 32.8722C40.9429 33.3028 41.23 33.877 41.1343 34.5468C41.0865 34.6904 41.0386 34.8339 40.8472 34.8818C40.7516 34.9296 40.608 34.8818 40.5123 34.8339C40.3688 34.6904 40.4166 34.4511 40.3688 34.2598C39.8903 34.4033 39.4118 34.5947 38.8855 34.7861C38.8377 34.8339 38.8377 34.9775 38.742 34.9296C38.6463 34.7382 38.5984 34.499 38.5027 34.3076C38.4071 34.5947 38.2157 34.9296 37.8807 34.9775C37.785 34.9775 37.5937 35.0253 37.5458 34.8818C37.498 34.7382 37.5458 34.499 37.3066 34.4511C37.2109 34.4033 37.1152 34.4033 37.0195 34.3076C37.3066 34.2598 37.7372 34.499 37.8807 34.0684C38.0243 33.6856 37.9764 33.3028 38.0243 32.92C37.8329 32.8722 37.5937 32.8722 37.4023 32.8722C37.4023 33.0157 37.3544 33.1114 37.2109 33.1593C37.1152 33.2071 36.9716 33.2071 36.8281 33.1593C36.7324 33.0157 36.8281 32.8243 36.8281 32.6808C36.9238 32.298 36.9238 31.9153 36.9716 31.5325L37.498 31.7717H38.0243C38.0721 31.4846 38.0243 31.1976 38.0243 30.9105H36.6846C36.6846 30.8626 36.6367 30.7191 36.6367 30.6712H38.0721L38.3592 30.3842C38.5984 30.6712 38.9812 30.7669 38.9334 31.054Z" fill="#002965"/>
<path d="M40.4653 35.5994C40.3696 35.6951 40.1782 35.5994 40.0347 35.6473C40.2261 35.9344 40.5132 36.0301 40.8002 36.1736L41.3266 36.3171C41.3266 36.4607 41.0873 36.4607 41.0873 36.6521C41.0873 36.6999 41.0873 36.8435 41.0395 36.9392C40.7524 36.8435 40.5132 36.6042 40.2739 36.4128L40.1782 36.4607H38.073C38.073 36.4128 37.9773 36.3171 38.0251 36.2693H39.5562C39.6998 36.1736 39.7955 35.8387 39.9868 36.1258C39.9868 36.1258 39.9868 36.1736 40.0347 36.1736C39.939 36.0301 39.8433 35.8865 39.7476 35.6951H38.695L38.5514 35.5037H39.6519L39.9868 35.1688C40.1304 35.3124 40.3696 35.4081 40.4653 35.5994Z" fill="#002965"/>
<path d="M38.5975 35.743C38.5975 35.8865 38.4061 35.8387 38.3583 35.8865C37.9755 36.3172 37.4492 36.7478 36.9228 36.9392L36.875 36.8913C37.3056 36.4129 37.6884 35.8865 37.8798 35.3124C38.119 35.4559 38.3583 35.5516 38.5975 35.743Z" fill="#002965"/>
<path d="M40.4664 37.1306C40.4664 37.2741 40.3229 37.2263 40.2751 37.2263C40.2272 37.2263 40.1315 37.2263 40.0837 37.2263C40.3708 37.6569 40.8971 37.8004 41.3755 37.8483C41.3755 37.9918 41.232 37.9918 41.1842 38.1354C41.1363 38.2311 41.1363 38.3746 41.0885 38.5181C40.8971 38.566 40.7535 38.1354 40.6578 38.4703V39.5229C40.7535 39.4272 40.8492 39.2837 40.9449 39.188C41.1363 39.3315 41.3755 39.5229 41.4712 39.7143L41.3277 39.81H37.0215C36.9736 39.81 36.9736 39.6186 36.9258 39.6186H37.6435V38.1832C37.4043 38.3268 37.165 38.5181 36.9258 38.566V38.5181C37.3564 38.0397 37.7392 37.5612 37.9306 36.987C38.1698 37.0827 38.409 37.2263 38.6483 37.3698C38.6004 37.4655 38.5047 37.4655 38.409 37.5134C38.2655 37.7047 38.0741 37.8483 37.9306 38.0397L38.2655 38.1354H40.0358L40.2751 37.944C40.1315 37.7526 39.988 37.5134 39.8923 37.2741L39.8444 37.2263H38.6961C38.6483 37.1784 38.6483 37.0827 38.6483 37.0349H39.7487L40.0358 36.7478C40.1794 36.8435 40.3708 36.987 40.4664 37.1306ZM38.3612 38.2789H38.1698V39.5708H38.3612V38.2789ZM39.2224 38.2789H39.031C39.0789 38.3267 39.031 38.4224 38.9832 38.4703V39.6186H39.2224V38.2789ZM39.988 38.2789H39.8444L39.8923 38.3746C39.8444 38.4224 39.8444 38.4224 39.7966 38.4703V39.6186H40.0358V38.2789H39.988Z" fill="#002965"/>
<path d="M31.6609 30.5277C31.7087 30.6234 31.5652 30.6712 31.5173 30.7191C31.4695 32.1545 32.2829 33.5899 33.6226 34.2119C33.6226 34.3554 33.5269 34.2119 33.2877 34.3554C33.1441 34.4511 33.0963 34.7382 33.0006 34.7382C32.6657 34.6425 32.4264 34.2597 32.1872 34.0205C31.613 33.255 31.4695 32.3459 31.3738 31.3889C31.2302 32.6808 30.8953 34.1641 29.5078 34.6904C29.3164 34.7382 29.125 34.8339 28.9336 34.7861V34.7382C30.6082 33.9248 30.7518 32.0588 30.7039 30.3363C30.991 30.432 31.3259 30.432 31.6609 30.5277Z" fill="#002965"/>
<path d="M29.8886 35.743C30.1278 35.743 30.6542 35.8387 30.7977 35.4559C30.9891 35.5516 31.2283 35.6952 31.324 35.8865C31.3719 36.0301 31.2283 36.0301 31.1326 36.0779V37.2263C31.0848 37.3698 30.8455 37.3698 30.702 37.3698C30.6542 37.3698 30.5585 37.3698 30.5585 37.2741C30.5585 37.2263 30.6063 37.1306 30.5106 37.1306H29.8408L29.7929 37.1784V39.7621C29.7451 39.9057 29.5058 39.9057 29.3623 39.9057C29.2666 39.9057 29.2188 39.8578 29.2188 39.7621V35.3602L29.8886 35.743ZM30.5106 36.3172V35.9344H29.8408V36.3172H30.5106ZM30.5106 36.9392V36.5564H29.8408V36.9392H30.5106Z" fill="#002965"/>
<path d="M32.8083 35.743L32.9997 35.4559C33.1911 35.5995 33.4304 35.6952 33.5739 35.9344C33.5739 36.0779 33.4304 36.0779 33.3825 36.1258V39.6665C33.3347 39.9057 33.0954 39.9535 32.8562 39.9535C32.7605 40.0014 32.7127 39.9057 32.7127 39.8578V39.6186C32.5691 39.4751 32.3777 39.4751 32.1863 39.3794C32.0428 39.4751 31.8514 39.5229 31.66 39.4751C31.5643 39.3794 31.6122 39.2358 31.6122 39.1401L30.9423 39.0923C30.8466 39.2837 30.9902 39.5708 30.7031 39.6186C30.6074 39.6186 30.4639 39.7143 30.3682 39.6186L30.3203 39.5229V37.3698C30.5117 37.4177 30.7031 37.5133 30.8945 37.609H31.6122L31.7557 37.4177C31.66 37.4177 31.5165 37.3698 31.4686 37.322V35.4559L32.0906 35.743H32.8083ZM32.7605 36.3172V35.9344H32.0906V36.3172H32.7605ZM32.7605 36.987V36.6043H32.0906V36.987H32.7605ZM31.6122 38.2789V37.8961H30.9423V38.2789H31.6122ZM31.6122 38.9009V38.5181H30.9423V38.9009H31.6122ZM31.9471 37.4177C31.9471 37.4177 32.0906 37.4655 32.1863 37.5612C32.5213 37.8483 32.2342 37.944 32.2342 37.944V39.2358C32.2342 39.2358 32.4256 39.2358 32.5691 39.2837C32.7127 39.3315 32.7605 39.188 32.7605 39.188V37.1784H32.0428C32.1385 37.2741 31.9471 37.4177 31.9471 37.4177Z" fill="#002965"/>
<path d="M43.7176 22.011V27.8005H31.4688V25.9823H39.6506V22.011H43.7176Z" fill="#002965"/>
<path d="M31.4688 22.011H39.3156V25.6473H31.4688V22.011ZM38.0238 23.2072H35.4879V22.4895H35.153V23.2072H32.8085V23.5421H35.1051C34.6745 24.499 32.8085 24.6426 32.8085 24.6426L32.8563 24.9775C34.9137 24.834 35.3443 23.8292 35.3443 23.8292C35.9185 24.9296 37.9281 25.0253 37.9281 25.0253V24.6904C36.2534 24.5469 35.7271 23.9249 35.5357 23.5899H37.9759V23.2072H38.0238Z" fill="#002965"/>
<path d="M16.9688 39.9536C17.5429 40.4799 17.83 41.5804 17.83 41.5804L18.1649 41.4847C18.1649 41.4368 17.83 40.2885 17.208 39.6665L16.9688 39.9536Z" fill="#002965"/>
<path d="M18.4062 38.3746C18.4062 38.4225 18.8369 39.6186 19.6981 40.5277L19.9374 40.2885C19.124 39.4751 18.6933 38.3268 18.6933 38.2789L18.4062 38.3746Z" fill="#002965"/>
<path d="M16.5883 28.7096C15.7749 28.7575 15.0572 29.0924 14.5308 29.6666C13.239 31.1498 14.0045 32.6331 14.5787 33.2551C15.0093 33.6857 16.3012 34.2599 17.4495 33.3029C17.7844 33.0159 17.9758 32.6331 18.0237 32.1546C18.0237 31.724 17.8801 31.2934 17.593 31.0541C17.3538 30.8149 16.971 30.7192 16.6361 30.7671C16.349 30.8149 16.1098 30.9585 15.9662 31.2455L16.2533 31.4369C16.349 31.2934 16.4926 31.1977 16.684 31.1498C16.971 31.102 17.2103 31.2455 17.3538 31.3412C17.5452 31.5326 17.6887 31.8675 17.6887 32.2025C17.6887 32.5374 17.4974 32.8723 17.2581 33.0637C16.2055 33.9728 15.0572 33.2073 14.8658 33.0637C14.3395 32.5374 13.7174 31.2455 14.8179 29.9537C15.2485 29.4273 15.8706 29.1403 16.6361 29.0924C17.6887 29.0446 18.8371 29.5709 19.794 30.5278C21.2773 31.9632 21.2773 34.3077 21.2773 35.6953C21.2773 37.1307 20.4639 41.0541 17.9758 41.4848C17.3538 41.5805 16.8753 41.4848 16.4447 41.1977C15.9662 40.8628 15.727 40.2886 15.6792 39.9058C15.5835 39.1881 15.8227 38.5661 16.349 38.1355C16.7796 37.8006 17.3538 37.657 17.7844 37.8484C18.2629 38.0398 18.55 38.4704 18.5978 38.901C18.6457 39.236 18.4543 39.5709 18.1672 39.7623C17.928 39.9058 17.6887 39.9537 17.4974 39.9058C17.306 39.858 17.1624 39.7144 17.1146 39.5709L16.7796 39.7144C16.8753 39.9537 17.1146 40.1929 17.4017 40.2407C17.593 40.2886 17.9758 40.3364 18.3586 40.0972C18.7892 39.858 18.9806 39.4273 18.9328 38.9489C18.8849 38.3747 18.5021 37.8484 17.928 37.6092C17.4017 37.3699 16.684 37.5135 16.1576 37.9441C15.5356 38.4226 15.2485 39.1881 15.3921 40.0494C15.4878 40.6235 15.8227 41.1977 16.3012 41.5326C16.7796 41.8675 17.4017 42.0111 18.1194 41.9154C20.8466 41.4369 21.7079 37.3699 21.7079 35.9345C21.7079 34.3556 21.7079 31.9632 20.1289 30.4321C18.9328 29.1881 17.7366 28.6618 16.5883 28.7096Z" fill="#002965"/>
<path d="M0.414062 34.9775C0.414062 54.2598 16.1078 70.0015 35.438 70.0015C54.7203 70.0015 70.4141 54.3077 70.4141 34.9775C70.4141 15.6952 54.7203 0.00146484 35.438 0.00146484C16.1078 0.00146484 0.414062 15.6952 0.414062 34.9775ZM0.748991 34.9775C0.748991 15.8866 16.2992 0.336393 35.3901 0.336393C54.481 0.336393 70.0313 15.8866 70.0313 34.9775C70.0313 54.0685 54.481 69.6187 35.3901 69.6187C16.2992 69.6665 0.748991 54.1163 0.748991 34.9775Z" fill="#002965"/>
<path d="M9.07422 34.9775C9.07422 49.523 20.8924 61.3412 35.4379 61.3412C49.9833 61.3412 61.8015 49.523 61.8015 34.9775C61.8015 20.4321 49.9833 8.61389 35.4379 8.61389C20.8924 8.61389 9.07422 20.4799 9.07422 34.9775ZM9.40915 34.9775C9.40915 20.6235 21.0838 8.94882 35.4379 8.94882C49.7919 8.94882 61.4666 20.6235 61.4666 34.9775C61.4666 49.3316 49.7919 61.0062 35.4379 61.0062C21.0838 61.0062 9.40915 49.3316 9.40915 34.9775Z" fill="#002965"/>
<path d="M20.6517 17.5613C19.647 18.0398 18.9293 19.0924 18.5943 20.5278L18.4029 21.4847C18.2116 22.6331 17.9245 24.0206 17.2546 25.5039C16.6326 26.8436 15.9628 27.7527 15.3407 28.5661L14.5273 29.6666L14.8144 29.8579L15.58 28.7575C16.202 27.9441 16.9197 26.9871 17.5417 25.6474C18.2594 24.1163 18.4986 22.6809 18.69 21.5326L18.8814 20.6235C19.1685 19.2838 19.7905 18.3747 20.7474 17.8962C21.513 17.5135 22.4699 17.5613 23.2833 17.9441C24.001 18.279 24.4317 18.8532 24.5752 19.5709C24.7666 20.5278 24.5273 21.5326 23.9532 22.1546C23.4747 22.6809 22.8049 22.9201 21.9915 22.8245C20.8431 22.6809 20.4604 21.9154 20.5082 21.2455C20.5082 20.5757 20.9388 19.8101 21.7044 19.7623C22.2307 19.7144 22.5178 20.0015 22.6135 20.1929C22.8049 20.48 22.8049 20.9106 22.6135 21.1977L22.9005 21.389C23.1398 21.0063 23.1398 20.4321 22.9005 20.0493C22.6613 19.6187 22.2307 19.4273 21.6565 19.4273C20.6996 19.4752 20.1254 20.3843 20.1254 21.2455C20.0776 22.0589 20.5561 23.0158 21.8958 23.2072C23.0441 23.3508 23.7618 22.8723 24.1446 22.4417C24.8144 21.724 25.1015 20.5757 24.8623 19.523C24.6709 18.7096 24.1446 18.0398 23.379 17.657C22.6135 17.1785 21.4651 17.1307 20.6517 17.5613Z" fill="#002965"/>
<path d="M29.3614 11.054L28.7873 11.6282C28.3088 12.1545 27.4954 13.0636 26.06 14.2119C24.3854 15.5038 22.4236 16.6043 21.2275 17.2263L20.4141 17.7048L20.6055 17.9918L21.4188 17.5612C22.615 16.8914 24.5767 15.8387 26.2992 14.499C27.7825 13.3507 28.5959 12.4416 29.0744 11.8674L29.5528 11.389C29.7921 11.2454 30.6533 11.054 31.4667 11.7239C31.8973 12.0588 32.1365 12.4894 32.0887 12.9201C32.0887 13.3028 31.8973 13.6378 31.5145 13.877C30.5576 14.499 29.4571 15.5516 27.9739 16.9392C26.7777 18.0875 25.6294 19.81 24.816 21.0062L24.3375 21.7239L24.6246 21.9153L25.1031 21.1976C25.9165 19.9536 27.0169 18.2789 28.2131 17.1784C29.6964 15.743 30.7968 14.7383 31.7059 14.1162C32.1366 13.8292 32.4236 13.3985 32.4236 12.8722C32.4236 12.3459 32.1366 11.7717 31.6581 11.389C30.7011 10.7191 29.7442 10.8627 29.3614 11.054Z" fill="#002965"/>
<path d="M21.0352 19.5709L21.1787 19.8579C21.2744 19.8101 23.0447 18.8532 23.7624 17.9919L23.5232 17.7527C22.8533 18.6139 21.083 19.5709 21.0352 19.5709Z" fill="#002965"/>
<path d="M22.7109 21.1977L23.0459 21.3412C23.0459 21.3412 23.3808 20.5757 24.864 19.4273L24.6248 19.1403C23.0459 20.3364 22.7109 21.1498 22.7109 21.1977Z" fill="#002965"/>
<path d="M16.0586 31.0063L16.3457 31.1977C16.3935 31.1498 17.2548 30.0015 17.494 29.0445L17.1591 28.9489C16.9198 29.9058 16.0586 31.0063 16.0586 31.0063Z" fill="#002965"/>
<path d="M17.6406 32.2981L17.9756 32.3459C17.9756 32.3459 18.1669 31.1019 19.3153 29.9536L19.076 29.6665C17.8799 30.9105 17.6885 32.2024 17.6406 32.2981Z" fill="#002965"/>
<path d="M47.0158 17.657C46.2024 18.0398 45.6761 18.7096 45.5325 19.523C45.2933 20.5756 45.5804 21.724 46.2502 22.4417C46.633 22.8723 47.3507 23.3508 48.4991 23.2072C49.8866 23.0637 50.3172 22.0589 50.3172 21.2455C50.2694 20.3842 49.7431 19.4752 48.7861 19.4273C48.2598 19.3795 47.7813 19.6187 47.5421 20.0015C47.3029 20.4321 47.3029 20.9584 47.5421 21.3412L47.8292 21.1498C47.6378 20.8627 47.6857 20.4321 47.8292 20.145C47.9727 19.9058 48.212 19.6665 48.7383 19.7144C49.5038 19.7622 49.9345 20.5278 49.9345 21.1976C49.9345 21.8675 49.5517 22.6809 48.4512 22.8244C47.6378 22.9201 46.968 22.6809 46.4895 22.1546C45.9153 21.5326 45.6761 20.4799 45.8675 19.5709C46.011 18.8531 46.4895 18.279 47.1593 17.9441C47.9727 17.5613 48.9775 17.5134 49.6952 17.8962C50.6522 18.3747 51.2742 19.2838 51.5613 20.6235L51.7526 21.5326C51.944 22.6809 52.2311 24.1163 52.901 25.6474C53.523 27.035 54.3842 28.1354 55.0541 29.0445L55.8675 30.1929L56.1546 30.0015L55.3412 28.8531C54.6235 27.8962 53.8101 26.8436 53.2359 25.5039C52.566 24.0206 52.279 22.6331 52.0876 21.4847L51.8962 20.5278C51.5613 19.0924 50.8914 18.0876 49.8388 17.5613C49.0254 17.2264 47.877 17.2264 47.0158 17.657Z" fill="#002965"/>
<path d="M38.8365 11.4847C38.358 11.8675 38.0231 12.4417 38.071 12.968C38.071 13.4464 38.358 13.8771 38.7887 14.212C39.6977 14.834 40.7982 15.8388 42.2815 17.2742C43.3341 18.279 44.3389 19.7144 45.1044 20.8627L45.87 21.9632L46.1571 21.7718L45.3915 20.6235C44.5781 19.4751 43.6212 17.9919 42.5207 16.9871C41.0375 15.5517 39.8891 14.5469 38.98 13.9249C38.5973 13.6857 38.4059 13.3507 38.4059 12.968C38.4059 12.5374 38.6451 12.1067 39.0279 11.7718C39.8413 11.1498 40.7025 11.3412 40.9418 11.4369L41.4202 11.9153C41.8987 12.4895 42.7121 13.3986 44.2432 14.5469C45.9657 15.8866 47.9274 16.9393 49.1236 17.6091L49.8891 18.0397L50.0805 17.7527L49.2671 17.322C48.071 16.6522 46.1092 15.5996 44.4346 14.3077C42.9513 13.1594 42.1858 12.2503 41.6595 11.724L41.0853 11.1498C40.7504 10.9106 39.7456 10.767 38.8365 11.4847Z" fill="#002965"/>
<path d="M46.6836 18.0876C47.4013 18.9489 48.9802 19.8101 49.0759 19.858L49.2195 19.5709C49.2195 19.5709 47.5927 18.7096 46.9228 17.8962L46.6836 18.0876Z" fill="#002965"/>
<path d="M45.6758 19.4752C47.159 20.5757 47.494 21.3412 47.494 21.3891L47.8289 21.2455C47.8289 21.1977 47.4461 20.3843 45.915 19.236L45.6758 19.4752Z" fill="#002965"/>
<path d="M50.4618 30.2407C48.8828 31.7718 48.8828 34.212 48.8828 35.6474C48.8828 37.1785 49.7441 41.2933 52.4713 41.7718C53.1412 41.8675 53.7632 41.7718 54.2895 41.389C54.768 41.0541 55.1029 40.4799 55.1986 39.9058C55.3421 39.0445 55.0551 38.3268 54.4331 37.8484C53.9067 37.4177 53.189 37.2742 52.6149 37.5134C52.0407 37.7527 51.6579 38.279 51.6101 38.8531C51.5622 39.3316 51.8015 39.7622 52.1842 40.0015C52.6149 40.2407 52.9498 40.2407 53.1412 40.145C53.4283 40.0493 53.6197 39.8579 53.7632 39.6187L53.4283 39.4751C53.3326 39.6665 53.189 39.7622 53.0455 39.8101C52.8541 39.8579 52.6149 39.8101 52.3756 39.6665C52.0886 39.4751 51.8972 39.1881 51.945 38.8053C51.9929 38.3747 52.2799 37.944 52.7584 37.7527C53.189 37.5613 53.7632 37.7048 54.1938 38.0397C54.7201 38.4704 54.9594 39.0924 54.8158 39.8101C54.768 40.1928 54.5287 40.7192 54.0503 41.1019C53.6197 41.389 53.0933 41.5326 52.5192 41.389C50.0311 40.9584 49.2177 37.035 49.2177 35.7431C49.2177 34.212 49.2177 31.9153 50.701 30.4799C51.7058 29.523 52.8063 28.9967 53.8589 29.0445C54.5766 29.0924 55.1986 29.3795 55.6771 29.9058C56.8254 31.1976 56.1555 32.4895 55.6292 33.0158C55.4378 33.2072 54.2895 33.9249 53.2369 33.0158C52.9498 32.7766 52.8063 32.4895 52.8063 32.1546C52.8063 31.8196 52.9019 31.4847 53.1412 31.2933C53.2847 31.1498 53.5718 31.0062 53.8589 31.0541C54.0981 31.1019 54.2895 31.2933 54.3852 31.6283L54.7201 31.5326C54.5287 30.9584 54.1938 30.767 53.9546 30.7192C53.5718 30.6235 53.1412 30.8149 52.9019 31.0541C52.6149 31.3412 52.4713 31.7239 52.4713 32.1546C52.4713 32.5852 52.7106 33.0158 53.0455 33.3029C54.1938 34.3077 55.5335 33.6378 55.9163 33.255C56.4905 32.6809 57.256 31.1976 55.9641 29.6665C55.4378 29.0924 54.7201 28.7574 53.9067 28.7096C52.7584 28.7096 51.5622 29.2359 50.4618 30.2407Z" fill="#002965"/>
<path d="M52.9492 29.0445C53.2363 30.0493 54.0497 31.1498 54.0975 31.1977L54.3846 31.0063C54.3846 31.0063 53.5712 29.8579 53.2841 28.9489L52.9492 29.0445Z" fill="#002965"/>
<path d="M51.1797 29.9536C52.2802 31.1019 52.4716 32.3459 52.5194 32.3459L52.8543 32.2981C52.8543 32.2502 52.6629 30.9584 51.4189 29.7144L51.1797 29.9536Z" fill="#002965"/>
<path d="M52.3281 41.5804L52.6631 41.6761C52.6631 41.6761 52.9501 40.5756 53.5243 40.0493L53.2851 39.8101C52.6631 40.3364 52.3281 41.5325 52.3281 41.5804Z" fill="#002965"/>
<path d="M50.5586 40.2885L50.7978 40.5277C51.6591 39.6665 52.0897 38.4703 52.0897 38.3746L51.7548 38.2789C51.7548 38.3268 51.372 39.4751 50.5586 40.2885Z" fill="#002965"/>
<path d="M31.2266 14.3556C31.3223 14.4034 33.0447 15.3603 35.0543 15.3603C37.8773 15.3603 39.1213 14.3556 39.1691 14.3077L38.9299 14.0206C38.9299 14.0206 37.7337 14.9776 35.0543 14.9776C33.0926 14.9776 31.4179 14.0206 31.3701 14.0206L31.2266 14.3556Z" fill="#002965"/>
<path d="M52.2328 45.9824L52.1371 46.3651C51.4672 49.4274 49.362 58.8053 35.4385 58.8053C21.4194 58.8053 19.1227 49.236 18.3572 46.0781L18.2615 45.5996C17.6395 43.2073 16.1084 40.7192 16.0605 40.7192L15.7734 40.9106C15.7734 40.9106 17.3045 43.3508 17.9265 45.6953L18.0222 46.1738C18.7878 49.3795 21.1323 59.1881 35.4385 59.1881C44.8643 59.1881 50.606 54.9297 52.472 46.4608L52.5677 46.0781C53.0462 43.9728 53.716 42.6809 54.96 40.6714L54.673 40.48C53.3811 42.4895 52.7112 43.8293 52.2328 45.9824Z" fill="#002965"/>
<path d="M43.2852 29.1881H36.5866C36.4909 29.236 35.534 29.9537 35.2947 30.145C35.1033 30.0015 34.0507 29.1881 34.0507 29.1881H26.8258L23.333 33.0159L23.2852 44.7384C23.2852 44.7384 32.5196 44.7384 32.6631 44.7384C32.7588 44.834 33.9072 45.9824 33.9072 45.9824H36.7301C36.7301 45.9824 37.7349 44.9776 37.8306 44.8819C37.9742 44.8819 46.8258 44.8819 46.8258 44.8819V32.7288C46.778 32.5852 43.4765 29.236 43.4765 29.236L43.3809 29.1881H43.2852ZM35.4383 30.5278L36.7301 29.523C36.7301 29.523 43.0938 29.5709 43.2373 29.5709C43.333 29.6666 46.4909 32.9202 46.4909 32.9202C46.4909 32.9202 46.4431 44.1642 46.4431 44.4991C46.1081 44.4991 37.6392 44.4991 37.6392 44.4991C37.6392 44.4991 36.6344 45.5039 36.5387 45.5996C36.3952 45.5996 34.1464 45.5996 34.0029 45.5996C33.9072 45.5039 32.7588 44.3556 32.7588 44.3556C32.7588 44.3556 23.9072 44.3556 23.5722 44.3556C23.5722 44.0206 23.5722 33.1116 23.5722 33.1116C23.6201 33.1594 26.6823 29.8101 26.9215 29.523C27.0651 29.523 33.955 29.523 33.955 29.523C33.955 29.5709 35.199 30.5278 35.199 30.5278L35.3426 30.6235L35.4383 30.5278Z" fill="#002965"/>
<path d="M26.7305 29.3795V41.0063C26.7305 41.0063 34.1946 41.0063 34.2424 41.0063C34.2424 41.0542 35.2951 41.9632 35.2951 41.9632L35.3908 42.0589L36.6826 40.9106C36.6826 40.9585 43.3812 40.9585 43.3812 40.9585H43.4769L43.5247 29.3317H43.1898C43.1898 29.3317 43.142 40.2886 43.142 40.6235C42.807 40.6235 36.5391 40.6235 36.5391 40.6235C36.4434 40.6714 35.63 41.3891 35.3908 41.5805C35.1994 41.4369 34.3381 40.6714 34.3381 40.6714C34.3381 40.6714 27.4003 40.6714 27.0654 40.6714C27.0654 40.3364 27.0654 29.3795 27.0654 29.3795H26.7305Z" fill="#002965"/>
<path d="M44.8164 31.1498C44.8164 31.1498 44.8164 42.011 44.8164 42.346C44.4815 42.346 37.0174 42.346 37.0174 42.346C36.9217 42.3938 35.7255 43.4943 35.7255 43.4943C35.7255 43.4943 34.7207 43.4464 34.5772 43.4464C34.4815 43.3507 33.5246 42.3938 33.5246 42.3938C33.5246 42.3938 25.6298 42.3938 25.3427 42.3938C25.3427 42.0589 25.3427 31.1976 25.3427 31.1976H25.0078V42.7287C25.0078 42.7287 33.2853 42.7287 33.4289 42.7287C33.5246 42.8244 34.4815 43.7814 34.4815 43.7814H35.8691C35.9647 43.7335 37.1609 42.633 37.1609 42.633L45.1514 42.6809V31.1498H44.8164Z" fill="#002965"/>
<path d="M25.918 30.2886V41.9632C25.918 41.9632 33.6213 41.9632 33.7649 41.9632C33.8606 42.0589 34.8175 43.0637 34.8175 43.0637H35.7266C35.7266 43.0637 36.6357 42.0589 36.7314 41.9154C36.8749 41.9154 44.3869 41.8675 44.3869 41.8675V30.3364H44.0519C44.0519 30.3364 44.0519 41.1977 44.0519 41.5326C43.717 41.5326 36.5878 41.5326 36.5878 41.5326C36.5878 41.5326 35.6787 42.5374 35.583 42.6809C35.4873 42.6809 35.1046 42.6809 34.961 42.6809C34.8653 42.5852 33.9084 41.5804 33.9084 41.5804C33.9084 41.5804 26.5878 41.5804 26.2529 41.5804C26.2529 41.2455 26.2529 30.2886 26.2529 30.2886H25.918Z" fill="#002965"/>
<path d="M45.6756 32.011C45.6756 32.011 45.6756 43.0636 45.6756 43.3985C45.3407 43.3985 37.2067 43.3985 37.2067 43.3985C37.2067 43.3985 36.3455 44.2598 36.2498 44.3555C36.1063 44.3555 34.4795 44.3555 34.3359 44.3555C34.2402 44.2598 33.4268 43.2072 33.4268 43.2072C33.4268 43.2072 24.8144 43.2072 24.4795 43.2072C24.4795 42.8722 24.4795 32.2024 24.4795 32.2024H24.1445V43.5421C24.1445 43.5421 33.0919 43.5421 33.2354 43.5421C33.3311 43.6378 34.1445 44.6904 34.1445 44.6904H36.3933C36.3933 44.6904 37.2546 43.8292 37.3503 43.7335C37.4938 43.7335 46.0584 43.7335 46.0584 43.7335V32.011H45.6756Z" fill="#002965"/>
<path d="M26.7326 40.6961L23.2812 44.4122L23.5267 44.6401L26.978 40.9241L26.7326 40.6961Z" fill="#002965"/>
<path d="M43.1875 40.9105L46.4411 44.6904L46.6803 44.499L43.4746 40.7191L43.1875 40.9105Z" fill="#002965"/>
</g>
<defs>
<clipPath id="clip0_2521_55355">
<rect width="70" height="70" fill="white" transform="translate(0.414062 0.00146484)"/>
</clipPath>
</defs>
</svg>
