<svg width="70" height="70" viewBox="0 0 70 70" fill="none" xmlns="http://www.w3.org/2000/svg">
<g clip-path="url(#clip0_2521_55344)">
<path d="M25.3907 8.38171L17.832 12.2432L18.325 13.147L21.4471 11.5038L22.5973 13.7221L23.7475 13.147L22.6794 10.9287L25.8015 9.28547L25.3907 8.38171Z" fill="#005CA9"/>
<path d="M20.7881 8.71035C21.8561 9.36763 23.0064 8.79251 23.0064 8.79251L24.7317 7.88875L24.3209 7.06716L23.0064 7.72443C23.0064 7.72443 22.0204 8.29955 21.1989 7.47795L23.828 6.1634L23.335 5.25964L16.4336 8.79251L16.9266 9.69626L19.5557 8.38171C19.8021 9.53194 18.7341 10.0249 18.7341 10.0249L17.4195 10.6822L17.8303 11.5038L19.5557 10.6C19.5557 10.5179 20.7059 9.94274 20.7881 8.71035Z" fill="#005CA9"/>
<path d="M12.4885 13.64L11.6669 14.7902L10.681 14.0508L9.85938 15.1189L15.6105 19.4733L16.4321 18.4874L12.4885 15.4475L13.3101 14.2973L12.4885 13.64Z" fill="#005CA9"/>
<path d="M8.87492 16.762C8.13548 17.0907 7.56037 17.9944 7.56037 17.9944C7.56037 17.9944 6.90309 18.816 6.73877 19.6376C6.73877 19.6376 6.41013 20.9522 7.56037 21.9381C8.79276 22.8419 10.0252 22.1846 10.0252 22.1846C10.6824 21.8559 11.3397 20.9522 11.3397 20.9522C11.3397 20.9522 11.997 20.1306 12.1613 19.309C12.1613 19.309 12.4899 17.9944 11.3397 17.0085C10.0252 16.0226 8.87492 16.762 8.87492 16.762ZM10.9289 19.309C10.8468 19.7198 10.436 20.2128 10.436 20.2128C10.436 20.2128 10.0252 20.7057 9.69652 20.9522C9.69652 20.9522 9.03924 21.363 8.2998 20.87C7.64253 20.2949 7.889 19.5555 7.889 19.5555C7.97116 19.1447 8.38196 18.6517 8.38196 18.6517C8.38196 18.6517 8.79276 18.1588 9.1214 17.9123C9.1214 17.9123 9.77868 17.5015 10.5181 17.9944C11.1754 18.5696 10.9289 19.309 10.9289 19.309Z" fill="#005CA9"/>
<path d="M37.2174 3.45215V4.68455H36.3137V3.45215H34.9991V7.14934H31.8771L31.7949 7.06718V4.43807H34.2597V3.37H30.5625V7.31366C30.5625 7.72445 30.8911 8.05309 31.3019 8.05309H34.917V10.5179H36.2315V5.5883H37.1353V10.5179H38.4498V3.45215H37.2174Z" fill="#005CA9"/>
<path d="M58.8249 22.5954L62.6864 19.5555C63.015 19.309 63.0972 18.8982 62.8507 18.5696L58.9892 13.7222L58.1676 14.3794L61.7005 18.8161L58.0854 21.6917L57.346 20.7057L60.0573 18.5696L59.3178 17.6658L56.6066 19.7198L55.9493 18.8982L58.6606 16.7621L57.9211 15.8583L55.2099 17.9945L54.2239 16.6799L53.4023 17.3372L58.6606 23.9921L59.4822 23.3348L58.8249 22.5954Z" fill="#005CA9"/>
<path d="M53.1573 9.69634L51.925 9.12122L52.5001 7.97098L51.432 7.47803L49.9531 10.5179L51.0212 11.0931L51.5963 9.94282L52.7466 10.5179L53.1573 9.69634Z" fill="#005CA9"/>
<path d="M50.4443 12.2432C50.6086 11.8324 50.4442 11.4216 50.1156 11.2573L44.0358 8.29956L43.625 9.12116L49.294 11.9146L48.2259 13.9686L49.294 14.4615L50.4443 12.2432Z" fill="#005CA9"/>
<path d="M45.0209 6.32777C45.0209 6.32777 44.7745 6.82073 44.8566 7.23153C44.8566 7.23153 44.8566 7.80664 45.4317 8.2996C45.6782 8.54608 46.089 8.79256 46.6641 9.03904C47.2392 9.28552 47.65 9.44984 47.9787 9.53199C48.7181 9.61415 49.1289 9.36768 49.1289 9.36768C49.4576 9.1212 49.704 8.62824 49.704 8.62824C49.704 8.62824 49.8684 8.21744 49.8684 7.8888L50.4435 8.13528L50.9364 7.23153L48.7181 6.16345L48.9646 5.67049L47.8965 5.17753L47.65 5.67049L45.4317 4.60242L44.9388 5.50617L45.5139 5.75265C45.1853 5.91697 45.0209 6.32777 45.0209 6.32777ZM48.3895 8.46392C48.3895 8.46392 48.143 8.62824 47.8144 8.54608C47.65 8.54608 47.2392 8.2996 46.9928 8.21744C46.7463 8.05312 46.3355 7.8888 46.2533 7.80664C46.0068 7.56016 46.0068 7.31368 46.0068 7.31368C46.0068 7.14937 46.089 6.90289 46.089 6.90289C46.089 6.90289 46.1712 6.65641 46.3355 6.57425C46.3355 6.57425 46.582 6.40993 46.9106 6.49209C47.0749 6.49209 47.4857 6.73857 47.7322 6.82073C47.9787 6.98505 48.3895 7.14937 48.5538 7.31368C48.8003 7.56016 48.8003 7.80664 48.8003 7.80664C48.8003 7.97096 48.7181 8.21744 48.7181 8.21744C48.7181 8.21744 48.5538 8.2996 48.3895 8.46392Z" fill="#005CA9"/>
<path d="M5.99604 39.6846L5.74956 37.6306L3.61341 37.1376L3.53125 36.3982L8.37867 37.7127C8.70731 37.7949 9.03595 37.8771 9.1181 37.4663L9.28242 38.7808L5.2566 40.9991C4.8458 41.2456 4.35285 41.4099 4.18853 41.985L4.10637 40.6705L5.99604 39.6846ZM8.62515 38.2879L6.489 37.7127L6.65332 39.3559L8.62515 38.2879Z" fill="#005CA9"/>
<path d="M9.03697 42.5601C9.36561 42.4779 10.0229 42.3136 10.0229 41.9028L10.5158 43.3817C10.2694 43.0531 9.69425 43.2995 9.28345 43.3817L4.76467 44.7784C3.94308 45.0249 3.2858 44.6963 2.875 43.7103C3.6966 44.2033 4.10739 44.1211 5.01115 43.8747L9.03697 42.5601Z" fill="#005CA9"/>
<path d="M11.0902 51.6799C9.52919 52.3372 7.886 51.5156 7.22872 49.9545C6.57144 48.4757 7.14656 46.6681 8.70759 46.093C10.1865 45.5179 11.9118 46.2573 12.5691 47.9005C13.2264 49.4616 12.4869 51.1048 11.0902 51.6799ZM9.11839 46.9146C8.05032 47.3254 7.22872 48.5578 7.72168 49.7902C8.21463 50.9404 9.36487 51.3512 10.5151 50.8583C11.6653 50.3653 12.4048 49.2151 11.9118 48.0649C11.501 46.8325 10.2686 46.4217 9.11839 46.9146Z" fill="#005CA9"/>
<path d="M13.7217 57.924L14.1325 57.5132C13.5574 57.5953 12.9001 57.2667 12.4893 56.8559C12.0785 56.4451 11.832 55.9521 11.832 55.377C11.832 54.7197 12.2428 54.3089 12.6536 53.8981L14.2147 52.3371C14.4611 52.0906 14.9541 51.6798 14.7898 51.269L15.6935 52.0906L14.8719 52.9122L13.3109 54.4733C12.5715 55.2127 12.4893 55.9521 13.0644 56.5273C13.3931 56.8559 13.886 57.0202 14.2968 56.9381C14.6255 56.8559 14.7076 56.7737 14.9541 56.5273L16.6794 54.7197C16.9259 54.4733 17.4189 54.0625 17.2546 53.6517L18.1583 54.5554L17.3367 55.377L14.2968 58.4169L13.7217 57.924Z" fill="#005CA9"/>
<path d="M24.3173 64.3324L24.4816 63.8394C23.9886 64.1681 23.2492 64.0859 22.7562 63.8394C22.2633 63.593 21.7703 63.2643 21.606 62.7714C21.3595 62.1963 21.606 61.6211 21.8525 61.1282L22.6741 59.0742C22.8384 58.7456 23.0849 58.1704 22.7562 57.8418L23.9065 58.3348L23.4135 59.4028L22.5919 61.4568C22.1811 62.4427 22.4276 63.1 23.167 63.4286C23.5778 63.593 24.0708 63.593 24.4816 63.3465C24.7281 63.1822 24.8102 63.0179 24.8924 62.6892L25.8783 60.3887C26.0426 60.0601 26.2891 59.485 25.9605 59.1563L27.1107 59.6493L26.6177 60.7174L24.9745 64.661L24.3173 64.3324Z" fill="#005CA9"/>
<path d="M34.0117 61.7855L33.5188 66.3865C32.9437 66.14 32.6972 65.8114 32.4507 65.3184L30.0681 61.3747L29.5751 65.647L29 65.5649L29.493 61.2104C29.5751 60.7175 29.5751 60.3888 29.1643 60.1423L30.3967 60.3067C30.3967 60.3888 30.4789 60.471 30.4789 60.5531L30.561 60.7175L33.108 64.9076L33.4366 61.7855C33.5188 61.2926 33.5188 60.9639 33.108 60.6353L34.1761 60.7175L34.0117 61.7855Z" fill="#005CA9"/>
<path d="M36.7237 66.1399L36.4772 61.8676C36.4772 61.4569 36.4772 60.8817 36.0664 60.7174L37.2988 60.6353L37.381 61.7855L37.6274 66.0578L36.7237 66.1399Z" fill="#005CA9"/>
<path d="M61.6209 51.3512L57.9237 49.1329C57.595 48.9686 57.1021 48.5578 56.7734 48.8864L57.3486 47.8184L58.3345 48.3935L62.0317 50.6118L61.6209 51.3512Z" fill="#005CA9"/>
<path d="M42.8033 61.2105C42.8855 60.5532 42.9676 59.8959 42.4747 59.8137L43.7071 59.5673L42.8855 65.6471C42.2282 65.4006 42.0639 65.4006 41.6531 64.8255L39.5991 61.6213C39.3526 61.2105 39.1061 60.7997 38.6953 60.6353L39.8455 60.3889V60.471C39.8455 60.6353 40.092 61.0461 40.2563 61.1283L42.3925 64.3325L42.8033 61.2105Z" fill="#005CA9"/>
<path d="M47.1597 62.6892L45.763 59.8958C45.5987 59.5672 45.3522 58.992 44.9414 59.0742L47.324 57.924C47.4884 57.8418 47.5705 57.8418 47.6527 57.7596L48.0635 58.6634C47.7348 58.4991 47.4062 58.6634 47.0776 58.8277C46.8311 58.992 46.5846 59.0742 46.3381 59.2385L46.9954 60.6352L47.8992 60.2244C47.9813 60.1423 48.1456 60.1423 48.2278 60.0601L48.6386 60.8817C48.3921 60.7174 48.0635 60.8817 47.8992 60.9639L47.324 61.2103L48.2278 62.9357L49.2137 62.5249C49.7067 62.3606 50.1996 61.9498 50.3639 61.3747L50.5283 62.5249L47.6527 63.6751L47.1597 62.6892Z" fill="#005CA9"/>
<path d="M53.158 60.3888L50.5289 57.0203C50.2824 56.6917 49.9538 56.1987 49.543 56.363L51.104 55.1306C52.0078 54.4734 52.8294 54.5555 53.2402 55.1306C53.651 55.7057 53.5688 56.5273 53.0758 57.1025L54.9655 57.5133C55.5406 57.6776 56.1979 57.6776 56.773 57.5954L56.1979 58.0884C55.8693 58.3349 55.5406 58.417 55.212 58.3349L53.651 58.0062L52.3364 57.5133C52.8294 57.0203 53.2401 56.2809 52.7472 55.7058C52.4186 55.2128 51.7613 55.2949 51.3505 55.6236C51.1862 55.7879 51.104 55.8701 50.9397 56.0344L53.8974 59.8959L53.158 60.3888Z" fill="#005CA9"/>
<path d="M56.6089 51.1048C56.1159 51.1048 55.7051 51.4334 55.3765 51.7621C55.0479 52.0907 54.8014 52.6658 55.2943 53.0766C56.1981 53.8161 58.0056 51.5977 59.1558 52.5837C59.8131 53.1588 59.8953 54.3912 59.0737 55.3771C58.745 55.7879 58.4164 56.1165 57.9234 56.363L57.0197 55.87C57.677 55.7879 58.2521 55.3771 58.6629 54.8841C58.9915 54.5555 59.238 53.8161 58.745 53.4053C57.7591 52.5837 56.1159 54.9663 54.7192 53.8161C53.8976 53.1588 54.3084 52.0907 54.9657 51.2691C55.2122 50.9405 55.5408 50.694 55.8695 50.4475L56.6089 51.1048Z" fill="#005CA9"/>
<path d="M65.8918 40.2597L63.5092 39.931L61.1265 40.9991C60.7157 41.1634 60.4693 41.3277 60.1406 41.6564L60.3049 40.424L62.8519 39.3559L61.4552 38.1235C61.2909 37.9592 60.8801 37.7127 60.6336 38.1235L60.8801 36.7268L63.5913 39.1916L65.974 39.5202L65.8918 40.2597Z" fill="#005CA9"/>
<path d="M58.25 46.5038L58.9894 47.0789C58.8251 46.7503 58.9073 46.3395 59.0716 46.0109L59.3181 45.3536L63.8369 47.1611L64.1655 46.3395L59.6467 44.532L59.8932 43.8747C59.9754 43.6282 60.1397 43.2996 60.4683 43.2996L59.7289 42.7245L58.25 46.5038Z" fill="#005CA9"/>
<path d="M35 0.00146484C15.6925 0.00146484 0 15.694 0 35.0015C0 54.3911 15.6925 70.0015 35 70.0015C54.3897 70.0015 70 54.309 70 35.0015C70 15.694 54.3075 0.00146484 35 0.00146484ZM35 69.0155C16.2676 69.0155 1.06808 53.816 1.06808 35.0015C1.06808 16.2691 16.2676 1.06954 35 1.06954C53.8146 1.06954 69.0141 16.2691 69.0141 35.0015C69.0141 53.816 53.8146 69.0155 35 69.0155Z" fill="#005CA9"/>
<path d="M57.7586 35.0015C57.7586 47.5719 47.5708 57.7597 35.0004 57.7597C22.43 57.7597 12.2422 47.5719 12.2422 35.0015C12.2422 22.4311 22.43 12.2433 35.0004 12.2433C47.5708 12.2433 57.7586 22.4311 57.7586 35.0015Z" fill="#005CA9"/>
<path d="M8.46376 29.2503C8.46376 29.7433 8.05296 30.1541 7.56001 30.1541C7.06705 30.1541 6.65625 29.7433 6.65625 29.2503C6.65625 28.7574 7.06705 28.2644 7.56001 28.2644C8.05296 28.2644 8.46376 28.6752 8.46376 29.2503Z" fill="#005CA9"/>
<path d="M63.5927 29.2503C63.5927 29.7433 63.1819 30.1541 62.6889 30.1541C62.196 30.1541 61.7852 29.7433 61.7852 29.2503C61.7852 28.7574 62.196 28.2644 62.6889 28.2644C63.1819 28.2644 63.5927 28.6752 63.5927 29.2503Z" fill="#005CA9"/>
<path d="M30.9755 15.6118L21.445 29.579C21.445 29.579 19.1445 32.4545 21.0342 36.2339L26.0459 43.8747C26.0459 43.8747 26.8675 45.3536 28.6751 45.3536H32.3722C32.3722 45.3536 31.7971 45.1071 31.3863 44.6142L25.7995 36.1517C25.7995 36.1517 24.8957 34.6728 24.9779 33.194C24.9779 33.194 25.06 31.8794 25.7995 30.647L30.9755 22.8419L37.1375 32.3724C37.1375 32.3724 37.8769 33.4405 37.1375 34.2621C37.1375 34.2621 36.7267 34.755 35.5765 34.3442L37.7126 37.6306C37.7126 37.6306 38.1234 38.2057 38.6985 38.2057C38.6985 38.2057 39.1915 38.2057 39.6023 37.7128L41.1633 35.1658C41.1633 35.1658 42.3136 33.6048 41.0812 31.2221L30.9755 15.6118Z" fill="#C59600"/>
<path d="M43.5465 44.1212L48.3118 36.9733C48.3118 36.9733 50.6122 34.0977 48.7225 30.3184L40.0958 17.1728C40.0958 17.1728 39.2742 15.694 37.4667 15.694H33.7695C33.7695 15.694 34.3446 15.9404 34.7554 16.4334L43.7108 30.0719C43.7108 30.0719 44.9432 31.8794 44.6967 33.4404C44.6967 33.4404 44.6146 34.755 43.8751 35.9874L40.7531 40.8348C40.2601 41.4921 39.685 41.4921 39.685 41.4921H37.7953C37.138 41.4099 36.7272 40.6705 36.7272 40.6705L32.4549 34.1799C32.4549 34.1799 31.7977 33.1118 32.4549 32.2902C32.4549 32.2902 32.9479 31.7973 34.016 32.2081L31.8798 28.9217C31.8798 28.9217 31.469 28.4287 30.8939 28.4287C30.8939 28.4287 30.401 28.4287 29.9902 28.9217L28.4291 31.4686C28.4291 31.4686 27.2789 33.0296 28.5113 35.4123L34.2625 44.2855C34.2625 44.2855 35.084 45.5179 36.2343 45.5179H41.4103C41.4103 45.4358 42.7249 45.4358 43.5465 44.1212Z" fill="#C59600"/>
<path d="M29.2487 53.7338H28.5092V48.8043L27.6055 49.3794V48.6399C27.7698 48.5578 28.3449 48.147 28.5914 47.9827H29.2487V53.7338Z" fill="white"/>
<path d="M34.2587 50.9404C34.2587 52.4192 34.2587 53.8981 32.6976 53.8981C31.7939 53.8981 31.3009 53.323 31.3009 52.4192H32.0403C32.0403 52.83 32.2047 53.323 32.6976 53.323C33.4371 53.323 33.5192 52.5014 33.5192 51.0225C33.3549 51.4333 32.9441 51.5976 32.5333 51.5976C32.0403 51.5976 31.2188 51.3512 31.2188 49.7901C31.2188 48.4756 31.9582 48.0648 32.7798 48.0648C34.2587 47.9005 34.2587 49.3793 34.2587 50.9404ZM31.876 49.6258C31.876 50.2009 31.9582 50.8582 32.6155 50.8582C33.2727 50.8582 33.3549 50.2009 33.3549 49.6258C33.3549 49.1328 33.2727 48.3934 32.6155 48.3934C32.0403 48.4756 31.876 49.1328 31.876 49.6258Z" fill="white"/>
<path d="M35.0822 47.9827H38.0399V48.6399L36.4789 53.7338H35.5751L37.2183 48.6399H35V47.9827H35.0822Z" fill="white"/>
<path d="M40.2565 50.4475C40.9138 50.5296 41.4067 50.201 41.4067 49.4615C41.4067 48.9686 41.1602 48.5578 40.5851 48.5578C39.9279 48.5578 39.8457 49.0507 39.8457 49.4615H39.1063C39.0241 48.4756 39.5171 47.9005 40.5851 47.9005C41.571 47.9005 42.1462 48.3935 42.1462 49.3794C42.1462 50.4475 41.3246 50.6118 40.9959 50.6939C41.8997 50.8583 42.2283 51.2691 42.2283 52.1728C42.2283 53.323 41.6532 53.816 40.503 53.816C38.8598 53.816 39.0241 52.4193 39.0241 52.0907H39.7635C39.7635 52.6658 39.8457 53.1587 40.5851 53.1587C41.2424 53.1587 41.4889 52.7479 41.4889 52.0907C41.4889 51.1869 41.1602 50.9404 40.2565 50.9404V50.4475Z" fill="white"/>
</g>
<defs>
<clipPath id="clip0_2521_55344">
<rect width="70" height="70" fill="white" transform="translate(0 0.00146484)"/>
</clipPath>
</defs>
</svg>
