<svg width="206" height="36" viewBox="0 0 206 36" fill="none" xmlns="http://www.w3.org/2000/svg">
<g clip-path="url(#clip0_2512_19622)">
<path d="M104.031 16.3175C102.185 15.8061 100.906 14.7265 100.153 13.3628C99.4328 14.9375 98.1214 16.1876 96.2192 16.772L95.0859 14.8239C97.7248 14.0446 98.8742 12.0965 98.9066 10.124H95.6768V8.17587H98.9066V6.30078H101.278V8.17587H104.549V10.124H101.278C101.311 11.8854 102.46 13.6712 105.099 14.3856L104.022 16.3175H104.031ZM108.41 20.506C108.41 22.5921 106.273 23.8016 102.824 23.8016C99.3761 23.8016 97.2229 22.5921 97.2229 20.506C97.2229 18.4198 99.3599 17.1941 102.824 17.1941C106.289 17.1941 108.41 18.428 108.41 20.506ZM106.062 20.506C106.062 19.5562 104.945 19.126 102.833 19.126C100.72 19.126 99.5866 19.5644 99.5866 20.506C99.5866 21.4476 100.704 21.8859 102.833 21.8859C104.961 21.8859 106.062 21.4476 106.062 20.506ZM110.425 10.4406V12.4861H108.232V16.8613H105.86V6.34948H108.232V10.4406H110.425Z" fill="#727171"/>
<path d="M125.562 21.5126V23.5014H113.299V18.3063H115.598V15.9767C114.141 16.0497 112.765 16.0741 111.526 16.0741L111.219 14.0853C114.238 14.0691 118.253 14.0285 121.742 13.5577L121.904 15.3354C120.609 15.5789 119.281 15.7332 117.953 15.8306V19.1262H115.671V21.5126H125.562ZM112.417 10.0673C112.417 8.20846 114.125 6.94217 116.545 6.94217C118.965 6.94217 120.657 8.20846 120.657 10.0673C120.657 11.9262 118.949 13.1762 116.545 13.1762C114.141 13.1762 112.417 11.9262 112.417 10.0673ZM114.659 10.0673C114.659 10.9196 115.428 11.358 116.545 11.358C117.662 11.358 118.415 10.9196 118.415 10.0673C118.415 9.215 117.646 8.76043 116.545 8.76043C115.444 8.76043 114.659 9.215 114.659 10.0673ZM122.826 16.4881V6.34961H125.198V19.5726H122.826V18.1927H119.718V16.4881H122.826Z" fill="#727171"/>
<path d="M136.03 16.5855C134.233 15.9604 133.01 14.7104 132.298 13.1356C131.561 14.8808 130.25 16.2445 128.364 16.9102L127.109 14.962C129.894 14.0123 131.06 11.6826 131.06 9.29617V7.42109H133.464V9.31241C133.464 11.5284 134.581 13.7282 137.252 14.6373L136.03 16.5855ZM132.096 21.5126H140.943V23.5014H129.724V17.9086H132.096V21.5045V21.5126ZM142.562 11.4067V13.4766H140.368V19.1262H137.997V6.34961H140.368V11.4067H142.562Z" fill="#727171"/>
<path d="M157.244 6.34961V15.7331H154.872V12.2265H152.25C151.804 14.1178 150.113 15.4085 147.976 15.4085C145.499 15.4085 143.629 13.6633 143.629 11.2443C143.629 8.82537 145.499 7.07204 147.976 7.07204C150.072 7.07204 151.764 8.33834 152.234 10.1972H154.872V6.34961H157.244ZM150.08 11.2362C150.08 9.92932 149.198 9.15006 147.984 9.15006C146.77 9.15006 145.903 9.92932 145.903 11.2362C145.903 12.5431 146.786 13.3223 147.984 13.3223C149.182 13.3223 150.08 12.5431 150.08 11.2362ZM154.897 16.4881H157.244V23.5906H146.292V16.4881H148.639V18.1602H154.889V16.4881H154.897ZM154.897 20.0515H148.648V21.6263H154.897V20.0515Z" fill="#727171"/>
<path d="M168.596 16.8127C166.767 16.204 165.504 14.9539 164.751 13.4035C164.015 15.1081 162.687 16.4556 160.769 17.1212L159.562 15.1649C162.307 14.2558 163.513 11.9667 163.513 9.78321V9.57216H160.194V7.59967H169.187V9.57216H165.917V9.78321C165.917 11.8288 167.123 13.9717 169.794 14.8971L168.588 16.8127H168.596ZM173.639 21.5126V23.5014H162.226V17.8355H164.597V21.5126H173.647H173.639ZM173.226 18.9719H170.838V6.34961H173.226V18.9719Z" fill="#727171"/>
<path d="M190.497 15.6928V17.6247H175.562V15.6928H190.497ZM189.72 9.49934H176.275V7.62425H181.836V6.1875H184.208V7.62425H189.72V9.49934ZM188.732 21.1151C188.732 22.9009 186.636 23.8263 182.985 23.8263C179.335 23.8263 177.262 22.9009 177.262 21.1151C177.262 19.3293 179.359 18.404 182.985 18.404C186.612 18.404 188.732 19.3293 188.732 21.1151ZM183.026 9.9539C186.579 9.9539 188.571 10.8062 188.571 12.4784C188.571 14.1505 186.579 14.9622 183.026 14.9622C179.472 14.9622 177.497 14.1099 177.497 12.4784C177.497 10.8468 179.488 9.9539 183.026 9.9539ZM186.312 21.1151C186.312 20.4739 185.292 20.1898 182.993 20.1898C180.695 20.1898 179.675 20.4739 179.675 21.1151C179.675 21.7564 180.695 22.0405 182.993 22.0405C185.292 22.0405 186.312 21.7564 186.312 21.1151ZM183.026 11.6342C180.978 11.6342 180.031 11.8777 180.031 12.4703C180.031 13.0222 180.986 13.282 183.026 13.282C185.066 13.282 186.021 13.0141 186.021 12.4703C186.021 11.8858 185.09 11.6342 183.026 11.6342Z" fill="#727171"/>
<path d="M205.902 21.5126V23.5014H193.639V18.3063H195.938V15.9767C194.481 16.0497 193.105 16.0741 191.866 16.0741L191.559 14.0853C194.578 14.0691 198.593 14.0285 202.082 13.5577L202.244 15.3354C200.948 15.5789 199.621 15.7332 198.293 15.8306V19.1262H196.011V21.5126H205.902ZM192.757 10.0673C192.757 8.20846 194.465 6.94217 196.885 6.94217C199.305 6.94217 200.997 8.20846 200.997 10.0673C200.997 11.9262 199.289 13.1762 196.885 13.1762C194.481 13.1762 192.757 11.9262 192.757 10.0673ZM195.007 10.0673C195.007 10.9196 195.776 11.358 196.893 11.358C198.01 11.358 198.763 10.9196 198.763 10.0673C198.763 9.215 197.994 8.76043 196.893 8.76043C195.792 8.76043 195.007 9.215 195.007 10.0673ZM203.174 16.4881V6.34961H205.546V19.5726H203.174V18.1927H200.066V16.4881H203.174Z" fill="#727171"/>
<path d="M96.0195 29.5893C96.0195 28.047 96.8614 27.146 97.8651 27.146C98.367 27.146 98.7717 27.4301 99.0307 27.7467L98.6098 28.3392C98.4155 28.1119 98.1808 27.9496 97.8813 27.9496C97.2823 27.9496 96.829 28.5584 96.829 29.5649C96.829 30.5715 97.2337 31.1965 97.8651 31.1965C98.2051 31.1965 98.4722 31.0098 98.6827 30.7338L99.1036 31.3183C98.7798 31.7647 98.3508 32.0082 97.8408 32.0082C96.8371 32.0082 96.0276 31.164 96.0276 29.5974L96.0195 29.5893Z" fill="#B5B5B6"/>
<path d="M99.9531 26.8701H100.738V28.1445L100.706 28.8101C100.949 28.5423 101.24 28.2906 101.653 28.2906C102.301 28.2906 102.576 28.8183 102.576 29.7112V31.919H101.791V29.8248C101.791 29.2809 101.661 29.0861 101.37 29.0861C101.127 29.0861 100.965 29.2241 100.746 29.4839V31.919H99.9612V26.8701H99.9531Z" fill="#B5B5B6"/>
<path d="M103.504 30.9531C103.504 30.1982 104.022 29.7923 105.228 29.6462C105.22 29.2972 105.09 29.0293 104.718 29.0293C104.443 29.0293 104.168 29.1754 103.892 29.3621L103.609 28.7452C103.965 28.4855 104.394 28.2744 104.864 28.2744C105.625 28.2744 106.013 28.8102 106.013 29.8329V31.9028H105.374L105.317 31.5213H105.301C105.042 31.7892 104.734 31.9921 104.394 31.9921C103.86 31.9921 103.504 31.5457 103.504 30.945V30.9531ZM105.228 30.9288V30.2144C104.5 30.3281 104.249 30.5635 104.249 30.88C104.249 31.156 104.419 31.2778 104.645 31.2778C104.872 31.2778 105.034 31.1479 105.22 30.9288H105.228Z" fill="#B5B5B6"/>
<path d="M107.102 28.3715H107.741L107.798 28.8423H107.822C108.081 28.542 108.389 28.2822 108.801 28.2822C109.449 28.2822 109.732 28.8098 109.732 29.7027V31.9106H108.947V29.8164C108.947 29.2725 108.818 29.0777 108.526 29.0777C108.283 29.0777 108.121 29.2157 107.903 29.4755V31.9106H107.118V28.3715H107.102Z" fill="#B5B5B6"/>
<path d="M110.605 32.5357C110.605 32.2353 110.759 31.9837 111.034 31.8051V31.7726C110.881 31.6509 110.759 31.4642 110.759 31.1801C110.759 30.9122 110.913 30.6687 111.091 30.5145V30.4901C110.889 30.3115 110.695 29.9787 110.695 29.5648C110.695 28.7287 111.269 28.2822 111.909 28.2822C112.071 28.2822 112.233 28.3228 112.362 28.3715H113.447V29.0534H112.929C113.01 29.1751 113.066 29.3699 113.066 29.5891C113.066 30.3846 112.548 30.7905 111.909 30.7905C111.787 30.7905 111.65 30.758 111.52 30.7093C111.431 30.7905 111.391 30.8716 111.391 31.0096C111.391 31.1963 111.512 31.3018 111.86 31.3018H112.37C113.091 31.3018 113.487 31.5697 113.487 32.1866C113.487 32.9009 112.856 33.4448 111.86 33.4448C111.156 33.4448 110.605 33.1607 110.605 32.5357ZM112.742 32.349C112.742 32.0973 112.564 32.0324 112.241 32.0324H111.876C111.69 32.0324 111.569 32.0162 111.455 31.9837C111.318 32.1136 111.261 32.2516 111.261 32.3977C111.261 32.698 111.536 32.8685 111.982 32.8685C112.427 32.8685 112.742 32.6331 112.742 32.3571V32.349ZM112.378 29.5648C112.378 29.1508 112.176 28.9154 111.909 28.9154C111.642 28.9154 111.439 29.1508 111.439 29.5648C111.439 29.9787 111.65 30.2141 111.909 30.2141C112.168 30.2141 112.378 29.9787 112.378 29.5648Z" fill="#B5B5B6"/>
<path d="M113.957 28.3716H114.742L115.066 30.1249C115.123 30.4658 115.163 30.8068 115.22 31.1558H115.244C115.301 30.8068 115.357 30.4577 115.43 30.1249L115.786 28.3716H116.491L116.863 30.1249C116.936 30.4658 116.984 30.8068 117.049 31.1558H117.073C117.13 30.8068 117.163 30.4658 117.227 30.1249L117.551 28.3716H118.28L117.543 31.9107H116.612L116.296 30.3684C116.232 30.0356 116.183 29.7109 116.126 29.3375H116.102C116.045 29.7109 115.997 30.0437 115.94 30.3684L115.633 31.9107H114.734L113.957 28.3716Z" fill="#B5B5B6"/>
<path d="M118.91 30.1492C118.91 28.9641 119.598 28.2822 120.351 28.2822C121.104 28.2822 121.792 28.9641 121.792 30.1492C121.792 31.3343 121.104 31.9999 120.351 31.9999C119.598 31.9999 118.91 31.3181 118.91 30.1492ZM120.99 30.1492C120.99 29.4836 120.756 29.0452 120.351 29.0452C119.946 29.0452 119.712 29.4836 119.712 30.1492C119.712 30.8148 119.946 31.245 120.351 31.245C120.756 31.245 120.99 30.8148 120.99 30.1492Z" fill="#B5B5B6"/>
<path d="M122.723 28.3715H123.37L123.427 28.8423H123.451C123.71 28.542 124.018 28.2822 124.431 28.2822C125.078 28.2822 125.353 28.8098 125.353 29.7027V31.9106H124.568V29.8164C124.568 29.2725 124.439 29.0777 124.147 29.0777C123.904 29.0777 123.743 29.2157 123.524 29.4755V31.9106H122.739V28.3715H122.723Z" fill="#B5B5B6"/>
<path d="M127.984 27.2354H128.778V31.9109H127.984V27.2354Z" fill="#B5B5B6"/>
<path d="M129.957 28.3715H130.597L130.653 28.8423H130.677C130.936 28.542 131.244 28.2822 131.657 28.2822C132.304 28.2822 132.58 28.8098 132.58 29.7027V31.9106H131.795V29.8164C131.795 29.2725 131.665 29.0777 131.374 29.0777C131.131 29.0777 130.969 29.2157 130.75 29.4755V31.9106H129.965V28.3715H129.957Z" fill="#B5B5B6"/>
<path d="M133.496 30.1495C133.496 28.9887 134.112 28.2825 134.759 28.2825C135.099 28.2825 135.31 28.4367 135.52 28.6721L135.488 28.1121V26.8701H136.273V31.919H135.633L135.569 31.5538H135.552C135.334 31.8054 135.034 32.0083 134.719 32.0083C133.974 32.0083 133.488 31.3103 133.488 30.1576L133.496 30.1495ZM135.488 30.8719V29.3134C135.31 29.1186 135.115 29.0455 134.929 29.0455C134.589 29.0455 134.306 29.4271 134.306 30.1333C134.306 30.8395 134.532 31.2372 134.929 31.2372C135.14 31.2372 135.318 31.1398 135.488 30.8719Z" fill="#B5B5B6"/>
<path d="M137.367 30.5876V28.3716H138.153V30.4658C138.153 31.0178 138.282 31.2045 138.574 31.2045C138.816 31.2045 138.978 31.0746 139.181 30.7581V28.3716H139.966V31.9107H139.326L139.27 31.4074H139.245C138.986 31.7646 138.695 32 138.282 32C137.643 32 137.359 31.4643 137.359 30.5795L137.367 30.5876Z" fill="#B5B5B6"/>
<path d="M140.797 31.4967L141.154 30.9122C141.421 31.1557 141.68 31.3018 141.955 31.3018C142.254 31.3018 142.392 31.1476 142.392 30.9284C142.392 30.6606 142.084 30.5388 141.761 30.4008C141.38 30.2304 140.943 29.9544 140.943 29.3699C140.943 28.7287 141.38 28.2822 142.06 28.2822C142.497 28.2822 142.829 28.5014 143.08 28.7206L142.724 29.2806C142.514 29.1021 142.303 28.9803 142.076 28.9803C141.809 28.9803 141.68 29.1183 141.68 29.3212C141.68 29.581 141.971 29.6784 142.287 29.8164C142.683 29.995 143.121 30.2304 143.121 30.8879C143.121 31.5048 142.708 32.008 141.923 32.008C141.518 32.008 141.073 31.797 140.781 31.5048L140.797 31.4967Z" fill="#B5B5B6"/>
<path d="M144.003 30.6771V29.1104H143.582V28.4205L144.043 28.3799L144.132 27.4302H144.788V28.3799H145.525V29.1104H144.788V30.6771C144.788 31.0829 144.926 31.2696 145.193 31.2696C145.29 31.2696 145.411 31.229 145.484 31.1966L145.614 31.8703C145.452 31.9352 145.241 32.0002 144.982 32.0002C144.27 32.0002 143.995 31.4644 143.995 30.669L144.003 30.6771Z" fill="#B5B5B6"/>
<path d="M146.406 28.3715H147.046L147.102 28.9965H147.127C147.345 28.5339 147.669 28.2822 147.977 28.2822C148.147 28.2822 148.236 28.3147 148.333 28.3553L148.195 29.1589C148.09 29.1183 148.009 29.1021 147.888 29.1021C147.653 29.1021 147.37 29.2888 147.2 29.8002V31.9106H146.414V28.3715H146.406Z" fill="#B5B5B6"/>
<path d="M148.94 33.2663L149.086 32.552C149.142 32.5682 149.223 32.5926 149.296 32.5926C149.604 32.5926 149.774 32.3653 149.863 32.0568L149.92 31.8458L148.754 28.3716H149.547L150.025 30.0113C150.114 30.3278 150.195 30.6688 150.276 31.0097H150.3C150.373 30.685 150.446 30.3441 150.519 30.0113L150.931 28.3716H151.684L150.616 32.0162C150.357 32.8523 150.033 33.3312 149.361 33.3312C149.183 33.3312 149.07 33.3069 148.948 33.2582L148.94 33.2663Z" fill="#B5B5B6"/>
<path d="M153.992 27.2354H155.295C156.178 27.2354 156.85 27.5925 156.85 28.7046C156.85 29.8166 156.17 30.255 155.32 30.255H154.785V31.919H153.992V27.2435V27.2354ZM155.263 29.5082C155.813 29.5082 156.073 29.2403 156.073 28.6965C156.073 28.1526 155.781 27.974 155.239 27.974H154.785V29.5082H155.263Z" fill="#B5B5B6"/>
<path d="M157.781 28.3715H158.429L158.485 28.9965H158.51C158.728 28.5339 159.052 28.2822 159.36 28.2822C159.522 28.2822 159.619 28.3147 159.716 28.3553L159.578 29.1589C159.473 29.1183 159.392 29.1021 159.271 29.1021C159.036 29.1021 158.753 29.2888 158.583 29.8002V31.9106H157.797V28.3715H157.781Z" fill="#B5B5B6"/>
<path d="M160.137 30.1492C160.137 28.9641 160.825 28.2822 161.578 28.2822C162.33 28.2822 163.018 28.9641 163.018 30.1492C163.018 31.3343 162.33 31.9999 161.578 31.9999C160.825 31.9999 160.137 31.3181 160.137 30.1492ZM162.217 30.1492C162.217 29.4836 161.982 29.0452 161.578 29.0452C161.173 29.0452 160.938 29.4836 160.938 30.1492C160.938 30.8148 161.173 31.245 161.578 31.245C161.982 31.245 162.217 30.8148 162.217 30.1492Z" fill="#B5B5B6"/>
<path d="M163.957 28.3715H164.605L164.661 28.8423H164.686C164.936 28.5339 165.22 28.2822 165.608 28.2822C166.037 28.2822 166.288 28.5095 166.434 28.8991C166.709 28.5582 167.001 28.2822 167.389 28.2822C168.029 28.2822 168.32 28.8098 168.32 29.7027V31.9106H167.535V29.8164C167.535 29.2725 167.397 29.0777 167.114 29.0777C166.944 29.0777 166.75 29.2076 166.539 29.4755V31.9106H165.754V29.8164C165.754 29.2725 165.616 29.0777 165.333 29.0777C165.163 29.0777 164.969 29.2076 164.758 29.4755V31.9106H163.973V28.3715H163.957Z" fill="#B5B5B6"/>
<path d="M169.211 30.1492C169.211 28.9641 169.899 28.2822 170.652 28.2822C171.405 28.2822 172.093 28.9641 172.093 30.1492C172.093 31.3343 171.405 31.9999 170.652 31.9999C169.899 31.9999 169.211 31.3181 169.211 30.1492ZM171.291 30.1492C171.291 29.4836 171.057 29.0452 170.652 29.0452C170.247 29.0452 170.012 29.4836 170.012 30.1492C170.012 30.8148 170.247 31.245 170.652 31.245C171.057 31.245 171.291 30.8148 171.291 30.1492Z" fill="#B5B5B6"/>
<path d="M172.991 30.6771V29.1104H172.57V28.4205L173.032 28.3799L173.121 27.4302H173.776V28.3799H174.513V29.1104H173.776V30.6771C173.776 31.0829 173.914 31.2696 174.181 31.2696C174.278 31.2696 174.4 31.229 174.473 31.1966L174.602 31.8703C174.44 31.9352 174.23 32.0002 173.971 32.0002C173.258 32.0002 172.983 31.4644 172.983 30.669L172.991 30.6771Z" fill="#B5B5B6"/>
<path d="M175.32 27.2923C175.32 26.992 175.515 26.7891 175.79 26.7891C176.065 26.7891 176.259 26.992 176.259 27.2923C176.259 27.5927 176.065 27.7956 175.79 27.7956C175.515 27.7956 175.32 27.5764 175.32 27.2923ZM175.401 28.3719H176.186V31.911H175.401V28.3719Z" fill="#B5B5B6"/>
<path d="M177.109 30.1492C177.109 28.9641 177.797 28.2822 178.55 28.2822C179.303 28.2822 179.991 28.9641 179.991 30.1492C179.991 31.3343 179.303 31.9999 178.55 31.9999C177.797 31.9999 177.109 31.3181 177.109 30.1492ZM179.19 30.1492C179.19 29.4836 178.963 29.0452 178.55 29.0452C178.137 29.0452 177.911 29.4836 177.911 30.1492C177.911 30.8148 178.145 31.245 178.55 31.245C178.955 31.245 179.19 30.8148 179.19 30.1492Z" fill="#B5B5B6"/>
<path d="M180.93 28.3715H181.569L181.626 28.8423H181.65C181.909 28.542 182.217 28.2822 182.63 28.2822C183.277 28.2822 183.56 28.8098 183.56 29.7027V31.9106H182.775V29.8164C182.775 29.2725 182.646 29.0777 182.354 29.0777C182.112 29.0777 181.95 29.2157 181.731 29.4755V31.9106H180.946V28.3715H180.93Z" fill="#B5B5B6"/>
<path d="M188.047 30.7095H186.76L186.485 31.9109H185.684L186.954 27.2354H187.885L189.164 31.9109H188.331L188.055 30.7095H188.047ZM187.877 29.9871L187.756 29.4757C187.634 28.9887 187.521 28.4529 187.408 27.9416H187.383C187.278 28.4529 187.165 28.9887 187.043 29.4757L186.922 29.9871H187.869H187.877Z" fill="#B5B5B6"/>
<path d="M189.641 32.5357C189.641 32.2353 189.794 31.9837 190.07 31.8051V31.7726C189.916 31.6509 189.794 31.4642 189.794 31.1801C189.794 30.9122 189.948 30.6687 190.126 30.5145V30.4901C189.924 30.3115 189.73 29.9787 189.73 29.5648C189.73 28.7287 190.304 28.2822 190.944 28.2822C191.114 28.2822 191.268 28.3228 191.397 28.3715H192.482V29.0534H191.964C192.045 29.1751 192.101 29.3699 192.101 29.5891C192.101 30.3846 191.583 30.7905 190.944 30.7905C190.822 30.7905 190.685 30.758 190.555 30.7093C190.466 30.7905 190.426 30.8716 190.426 31.0096C190.426 31.1963 190.547 31.3018 190.895 31.3018H191.405C192.126 31.3018 192.522 31.5697 192.522 32.1866C192.522 32.9009 191.891 33.4448 190.895 33.4448C190.191 33.4448 189.641 33.1607 189.641 32.5357ZM191.77 32.349C191.77 32.0973 191.591 32.0324 191.268 32.0324H190.903C190.717 32.0324 190.596 32.0162 190.482 31.9837C190.345 32.1136 190.288 32.2516 190.288 32.3977C190.288 32.698 190.563 32.8685 191.009 32.8685C191.454 32.8685 191.77 32.6331 191.77 32.3571V32.349ZM191.405 29.5648C191.405 29.1508 191.203 28.9154 190.936 28.9154C190.669 28.9154 190.466 29.1508 190.466 29.5648C190.466 29.9787 190.677 30.2141 190.936 30.2141C191.195 30.2141 191.405 29.9787 191.405 29.5648Z" fill="#B5B5B6"/>
<path d="M193.016 30.1492C193.016 28.9965 193.696 28.2822 194.416 28.2822C195.242 28.2822 195.671 28.9965 195.671 29.9787C195.671 30.1492 195.654 30.3197 195.63 30.4008H193.785C193.849 30.9853 194.173 31.2856 194.618 31.2856C194.861 31.2856 195.08 31.1963 195.29 31.0421L195.557 31.6103C195.266 31.8538 194.885 31.9999 194.505 31.9999C193.671 31.9999 193.016 31.31 193.016 30.1492ZM194.999 29.7839C194.999 29.305 194.821 28.9965 194.432 28.9965C194.116 28.9965 193.841 29.2644 193.777 29.7839H194.999Z" fill="#B5B5B6"/>
<path d="M196.594 28.3715H197.233L197.29 28.8423H197.314C197.573 28.542 197.881 28.2822 198.294 28.2822C198.941 28.2822 199.216 28.8098 199.216 29.7027V31.9106H198.431V29.8164C198.431 29.2725 198.302 29.0777 198.01 29.0777C197.767 29.0777 197.606 29.2157 197.387 29.4755V31.9106H196.602V28.3715H196.594Z" fill="#B5B5B6"/>
<path d="M200.114 30.1492C200.114 28.9641 200.834 28.2822 201.643 28.2822C202.016 28.2822 202.299 28.4527 202.518 28.6719L202.145 29.2725C201.992 29.1183 201.854 29.0371 201.684 29.0371C201.231 29.0371 200.915 29.4755 200.915 30.1411C200.915 30.8067 201.223 31.2369 201.66 31.2369C201.87 31.2369 202.081 31.1151 202.242 30.9528L202.55 31.5697C202.267 31.8701 201.902 31.9999 201.571 31.9999C200.737 31.9999 200.105 31.3181 200.105 30.1492H200.114Z" fill="#B5B5B6"/>
<path d="M203.264 33.2663L203.41 32.552C203.467 32.5682 203.548 32.5926 203.62 32.5926C203.928 32.5926 204.098 32.3653 204.187 32.0568L204.244 31.8458L203.078 28.3716H203.871L204.349 30.0113C204.438 30.3278 204.519 30.6688 204.6 31.0097H204.624C204.697 30.685 204.77 30.3441 204.843 30.0113L205.256 28.3716H206.008L204.94 32.0162C204.681 32.8523 204.357 33.3312 203.685 33.3312C203.507 33.3312 203.394 33.3069 203.272 33.2582L203.264 33.2663Z" fill="#B5B5B6"/>
<path d="M64.1562 5.22949H78.759C84.4009 5.22949 88.9825 9.82385 88.9825 15.4816V19.1587C88.9825 24.8083 84.4009 29.4108 78.759 29.4108H73.7646V22.0809H78.759C80.3617 22.0809 81.6731 20.774 81.6731 19.1587V15.4816C81.6731 13.8744 80.3698 12.5594 78.759 12.5594H64.1562V5.22949Z" fill="#3E3A39"/>
<path d="M42.4639 13.0464V20.9932C42.4639 22.6004 41.1607 23.9154 39.5499 23.9154H30.9534C29.3425 23.9154 28.0393 22.6004 28.0393 20.9932V13.0464H20.7298V20.9932C20.7298 21.3585 20.7541 21.7156 20.7865 22.0728H10.911C9.30829 22.0728 7.99696 20.7578 7.99696 19.1506V15.4735C7.99696 13.8662 9.3002 12.5513 10.911 12.5513H15.9054V5.22949H10.911C5.26907 5.22949 0.6875 9.82386 0.6875 15.4816V19.1587C0.6875 24.8164 5.26907 29.4108 10.911 29.4108H25.1252C26.7846 30.5715 28.7921 31.2534 30.9534 31.2534H39.5499C45.1837 31.2534 49.7734 26.659 49.7734 21.0013V13.0545H42.4639V13.0464Z" fill="#3E3A39"/>
<path d="M38.8691 18.2089C38.8691 20.2139 37.2502 21.8374 35.2589 21.8374C33.2596 21.8374 31.6406 20.2139 31.6406 18.2089V3.63036C31.6406 1.6254 33.2596 0.00195312 35.2589 0.00195312C37.2583 0.00195312 38.8691 1.6254 38.8691 3.63036V18.2089Z" fill="#009EA8"/>
<path d="M60.541 18.2089C60.541 20.2139 58.9221 21.8374 56.9308 21.8374C54.9314 21.8374 53.3125 20.2139 53.3125 18.2089V3.63036C53.3125 1.6254 54.9314 0.00195312 56.9308 0.00195312C58.9302 0.00195312 60.541 1.6254 60.541 3.63036V18.2089Z" fill="#E7B000"/>
<path d="M71.3691 32.3818C71.3691 34.3868 69.7502 36.0021 67.7508 36.0021C65.7515 36.0021 64.1406 34.3786 64.1406 32.3818V17.8032C64.1406 15.7983 65.7596 14.1748 67.7508 14.1748C69.7502 14.1748 71.3691 15.7983 71.3691 17.8032V32.3818Z" fill="#B21123"/>
</g>
<defs>
<clipPath id="clip0_2512_19622">
<rect width="205.312" height="36" fill="white" transform="translate(0.6875 0.00195312)"/>
</clipPath>
</defs>
</svg>
