<svg width="86" height="30" viewBox="0 0 86 30" fill="none" xmlns="http://www.w3.org/2000/svg">
<g clip-path="url(#clip0_2521_53345)">
<path d="M41.7655 26.5784C40.9175 26.8322 40.2861 26.8469 39.8272 26.8469C38.491 26.8469 36.9492 26.0526 36.9492 23.8167C36.9492 21.5809 38.2781 20.7351 40.1136 20.7351C40.4439 20.7351 41.1414 20.7792 41.6296 20.9999L41.5232 22.287C41.1084 22.0001 40.6165 21.9082 40.3008 21.9082C39.2178 21.9082 38.3258 22.4414 38.3258 23.8204C38.3258 24.9788 39.0233 25.6812 39.9998 25.6812C40.1796 25.6812 40.3522 25.6481 40.4733 25.5782V24.4088H39.6914V23.2909H41.7655V26.5748V26.5784Z" fill="#231815"/>
<path d="M44.1155 24.5228L42.2617 20.8418H43.7998L44.7836 23.21L45.7528 20.8418H47.2909L45.4517 24.5228V26.7477H44.1155V24.5228Z" fill="#231815"/>
<path d="M47.7305 20.8418H51.2619V21.9597H49.0667V23.1769H51.1408V24.2948H49.0667V25.6334H51.3427V26.7513H47.7305V20.8455V20.8418Z" fill="#231815"/>
<path d="M53.2711 23.7944C53.2711 22.7721 53.5942 21.9079 54.4054 21.9079C55.2167 21.9079 55.5398 22.7721 55.5398 23.7944C55.5398 24.8167 55.2167 25.6809 54.4054 25.6809C53.5942 25.6809 53.2711 24.7652 53.2711 23.7944ZM51.8945 23.7944C51.8945 25.6736 52.7719 26.8503 54.4091 26.8503C56.0463 26.8503 56.92 25.6736 56.92 23.7944C56.92 21.9153 56.0574 20.7385 54.4091 20.7385C52.7609 20.7385 51.8945 21.8969 51.8945 23.7944Z" fill="#231815"/>
<path d="M57.6133 20.8418H59.3166L61.0089 24.8538H61.0236L61.0015 20.8418H62.224V26.7477H60.5647L58.8137 22.7099H58.799L58.843 26.7477H57.617V20.8418H57.6133Z" fill="#231815"/>
<path d="M67.7381 26.5784C66.8901 26.8322 66.2587 26.8469 65.7999 26.8469C64.4637 26.8469 62.9219 26.0526 62.9219 23.8167C62.9219 21.5809 64.2507 20.7351 66.0862 20.7351C66.4166 20.7351 67.1141 20.7792 67.5986 20.9999L67.4922 22.287C67.0774 22.0001 66.5891 21.9082 66.2698 21.9082C65.1868 21.9082 64.2948 22.4414 64.2948 23.8204C64.2948 24.9788 64.9923 25.6812 65.9687 25.6812C66.1486 25.6812 66.3211 25.6481 66.4423 25.5782V24.4088H65.6604V23.2909H67.7345V26.5748L67.7381 26.5784Z" fill="#231815"/>
<path d="M68.6406 20.8418H70.3403L72.0362 24.8538H72.0509L72.0289 20.8418H73.2476V26.7477H71.5884L69.8373 22.7099H69.8227L69.8667 26.7477H68.6406V20.8418Z" fill="#231815"/>
<path d="M77.0412 24.3718H75.7857L76.4318 22.0624H76.4465L77.0412 24.3718ZM73.7227 26.7511H75.0772L75.4737 25.4897H77.3532L77.7276 26.7511H79.1923L77.2614 20.8452H75.6242L73.7227 26.7511Z" fill="#231815"/>
<path d="M79.613 20.8418H81.7165L82.7774 24.7656H82.7921L83.9044 20.8418H85.927V26.7477H84.6202L84.6422 22.2135H84.6275L83.35 26.7477H82.1203L80.9015 22.2135H80.8869L80.9162 26.7477H79.6094V20.8418H79.613Z" fill="#231815"/>
<path d="M69.8924 9.09351H65.4359V4.91602H63.6445V10.5093H69.8924V9.09351Z" fill="#231815"/>
<path d="M45.2046 11.3772H47.0033V4.73584H45.2046V6.01557H43.2773V7.43135H45.2046V8.36173H43.2773V9.78119H45.2046V11.3772Z" fill="#231815"/>
<path d="M82.1011 15.1798V11.7561H85.1296V10.3404H78.6651V6.57105H85.1296V5.15894H76.87V11.7561H80.306V15.1798H76V16.5992H85.9996V15.1798H82.1011Z" fill="#231815"/>
<path d="M72.7445 4.73584H70.9531V11.1786H72.7445V8.17786H74.3157V6.76207H72.7445V4.73584Z" fill="#231815"/>
<path d="M65.6562 11.9692V17.1507H72.7448V11.9692H65.6562ZM67.4513 15.7349V13.385H70.9497V15.7349H67.4513Z" fill="#231815"/>
<path d="M43.2101 11.2078C41.2168 11.2078 39.6016 12.675 39.6016 14.4806C39.6016 16.2862 41.2168 17.7535 43.2101 17.7535C45.2034 17.7535 46.8186 16.2899 46.8186 14.4806C46.8186 12.6714 45.2034 11.2078 43.2101 11.2078ZM43.2101 16.2347C42.2446 16.2347 41.4627 15.4515 41.4627 14.4806C41.4627 13.5098 42.2446 12.7265 43.2101 12.7265C44.1755 12.7265 44.9538 13.5135 44.9538 14.4806C44.9538 15.4478 44.1719 16.2347 43.2101 16.2347Z" fill="#231815"/>
<path d="M55.7611 11.2078C53.7715 11.2078 52.1562 12.675 52.1562 14.4806C52.1562 16.2862 53.7715 17.7535 55.7611 17.7535C57.7507 17.7535 59.3659 16.2899 59.3659 14.4806C59.3659 12.6714 57.7507 11.2078 55.7611 11.2078ZM55.7611 16.2347C54.7956 16.2347 54.0174 15.4515 54.0174 14.4806C54.0174 13.5098 54.7993 12.7265 55.7611 12.7265C56.7229 12.7265 57.5048 13.5135 57.5048 14.4806C57.5048 15.4478 56.7229 16.2347 55.7611 16.2347Z" fill="#231815"/>
<path d="M42.4192 7.87639C42.4192 7.87639 42.8964 6.61873 42.8671 5.07056H36.9495V6.51944H40.7086C40.7086 6.51944 40.8407 9.40618 36.7109 10.0129L37.4268 11.2596C38.7373 11.1493 41.373 10.4836 42.4192 7.87639Z" fill="#231815"/>
<path d="M56.0151 10.8878L56.7456 9.67795C53.9411 8.7439 53.9557 5.92336 53.9557 5.62549V4.97827H51.7532V5.6402C51.7532 5.90129 51.8596 8.94248 49 10.0236L49.7709 11.1857C49.7709 11.1857 51.7679 10.6157 52.9169 8.63358C53.9154 10.3877 56.0188 10.8915 56.0188 10.8915L56.0151 10.8878Z" fill="#231815"/>
<path d="M59.6154 4.7356H57.8203V11.3733H59.6154V8.17762H61.1829V6.76183H59.6154V4.7356Z" fill="#231815"/>
<path d="M15.9601 0.00271758C10.6997 -0.0965715 6.02296 2.53275 3.27344 6.59257C3.32483 6.65141 3.36888 6.70657 3.40926 6.75805C3.43863 6.79115 3.46433 6.82792 3.49002 6.85366C3.50471 6.85366 3.51939 6.85734 3.5304 6.86102C3.72496 6.89779 4.01863 6.94927 4.27193 7.17727C4.42978 7.32069 4.53256 7.48249 4.61332 7.60752C4.64636 7.66268 4.69776 7.73623 4.71978 7.75829C4.76383 7.79875 4.82991 7.85023 4.89966 7.90539C5.01345 7.98997 5.14194 8.08926 5.26675 8.21797C5.3732 8.32461 5.46865 8.43125 5.56042 8.5379C5.62283 8.61512 5.68523 8.68499 5.74764 8.75119C5.79536 8.80267 5.86144 8.86151 5.93118 8.92402C6.03397 9.01596 6.15144 9.1226 6.26157 9.25131C6.40473 9.41311 6.48917 9.58227 6.55157 9.71833C6.57727 9.76982 6.61765 9.84336 6.63233 9.86911C6.73512 9.98678 6.83056 10.1118 6.92233 10.2295L7.06917 10.4134C7.09487 10.4465 7.15727 10.4979 7.21601 10.5457C7.32613 10.6414 7.46563 10.759 7.58677 10.9208C7.67854 11.0422 7.75563 11.1599 7.82905 11.2739C7.88412 11.3584 7.93551 11.4357 7.98323 11.5055C8.1007 11.6673 8.17045 11.8291 8.23285 11.9652C8.26589 12.0388 8.29526 12.1123 8.32463 12.1491C8.35032 12.1858 8.40539 12.241 8.46412 12.2998C8.55956 12.3991 8.68071 12.5205 8.78349 12.6786C8.89362 12.8441 8.95969 13.0133 9.01109 13.1456C9.02944 13.1971 9.05147 13.2523 9.06982 13.2927C9.08818 13.3074 9.11387 13.3222 9.1359 13.3369C9.27172 13.4288 9.48097 13.5685 9.6278 13.8076C9.70856 13.94 9.76363 14.076 9.80768 14.19L10.094 14.3849C10.5602 14.7012 10.7584 14.5357 10.5308 14.0209L7.89513 8.00468C7.6712 7.48617 7.76297 7.43469 8.1007 7.88333L12.0286 13.0905C12.37 13.5391 12.6049 13.4509 12.5572 12.8882L12.0066 6.35722C11.9588 5.79458 12.0653 5.77251 12.2452 6.30941L14.1467 12.4764C14.3266 13.0133 14.5615 12.9985 14.6716 12.4433L15.7362 6.08509C15.8463 5.52981 15.9565 5.54084 15.9822 6.10348L16.2538 12.6051C16.2795 13.1677 16.5255 13.2302 16.8081 12.7411L20.0532 7.11475C20.3359 6.62566 20.435 6.66979 20.2735 7.21037L18.438 13.4214C18.2765 13.962 18.4967 14.1018 18.9189 13.7303L23.7865 9.49769C24.2087 9.12628 24.2931 9.2035 23.9664 9.6595L21.1655 13.5943C21.3087 13.5906 21.4518 13.5833 21.562 13.5244C21.7896 13.4031 21.9217 13.0905 22.1567 12.9728C22.3916 12.8588 22.7 12.8993 22.9386 12.7963C23.1772 12.6897 23.3424 12.4102 23.581 12.3109C23.8196 12.2153 24.0729 12.1454 24.3115 12.0571C24.5758 11.9615 24.8217 11.8071 25.0787 11.7225C25.3393 11.6342 25.6183 11.5975 25.8753 11.5166C26.1323 11.4357 26.4443 11.5497 26.6939 11.4761C26.9692 11.3989 27.1785 11.1047 27.4428 11.0385C27.7108 10.9686 27.9971 11.0091 28.2504 10.9503C28.5257 10.8841 28.8047 10.8951 29.0617 10.8399C29.3407 10.7811 29.5829 10.634 29.8362 10.5862C29.8839 10.5752 29.9353 10.5715 29.9867 10.5715C28.1219 4.56266 22.5898 0.135103 15.9601 0.00271758Z" fill="#EA5529"/>
<path d="M13.6933 29.0541C13.6933 29.0541 13.7006 29.0247 13.7043 29.01C13.6933 28.9916 13.6823 28.9659 13.6676 28.9475C13.5979 28.8224 13.4987 28.6459 13.451 28.4253C13.4327 28.3407 13.407 28.2451 13.3739 28.1421C13.3372 28.0281 13.3005 27.9031 13.2675 27.767C13.2271 27.5905 13.2234 27.425 13.2161 27.2927C13.2161 27.2118 13.2087 27.1272 13.2014 27.0867C13.1684 26.947 13.1463 26.8146 13.1316 26.6932C13.117 26.594 13.1059 26.4983 13.0839 26.4211C13.0692 26.3549 13.0325 26.274 12.9995 26.1858C12.9554 26.0718 12.9004 25.9394 12.86 25.7886L12.8196 25.6452L12.6911 25.1524C12.6691 25.0752 12.6361 24.9833 12.5994 24.8913C12.559 24.7847 12.5149 24.6633 12.4782 24.5346C12.4121 24.3066 12.4195 24.0933 12.4268 23.9389C12.4268 23.8911 12.4268 23.8396 12.4268 23.8102C12.3975 23.7219 12.3644 23.6263 12.324 23.527C12.2837 23.4204 12.2433 23.3137 12.2029 23.1961C12.1919 23.174 12.1552 23.1225 12.1258 23.0821C12.0377 22.9644 11.9202 22.7989 11.8468 22.5856C11.8285 22.5268 11.7881 22.4459 11.744 22.3613C11.689 22.251 11.6229 22.1223 11.5715 21.9752C11.5311 21.8612 11.4871 21.7472 11.4394 21.6258L11.3366 21.3574C11.2411 21.1 11.2595 20.8536 11.2705 20.6954C11.2705 20.6734 11.2742 20.6476 11.2742 20.6256C11.2485 20.5704 11.2154 20.5079 11.175 20.438C11.1163 20.3277 11.0429 20.199 10.9842 20.0556C10.9695 20.0151 10.9218 19.9489 10.8777 19.8791C10.8043 19.7687 10.7125 19.6327 10.6391 19.4635C10.5804 19.3238 10.54 19.1914 10.5033 19.0737C10.4739 18.9818 10.4482 18.8935 10.4225 18.831C10.3748 18.7207 10.3344 18.6141 10.2904 18.5111C10.2463 18.4081 10.2096 18.3088 10.1655 18.2206L10.0407 17.9485C9.98567 17.8234 9.93427 17.7057 9.87921 17.5954C9.86085 17.555 9.80579 17.4851 9.75807 17.4189C9.67731 17.3159 9.57819 17.1872 9.49743 17.0254C9.40933 16.8489 9.36528 16.6798 9.32857 16.5437C9.31756 16.4996 9.30287 16.4444 9.29186 16.4113C9.26984 16.3929 9.24414 16.3709 9.22211 16.3525C9.0973 16.2532 8.92477 16.1134 8.80363 15.8928C8.68249 15.6795 8.64945 15.4625 8.62008 15.3081C8.61274 15.2676 8.6054 15.2125 8.59806 15.1867C8.5173 15.047 8.4659 14.9073 8.42185 14.7933C8.39983 14.7344 8.3778 14.6756 8.35578 14.6315C8.33375 14.6168 8.30805 14.5984 8.28603 14.5837C8.14653 14.4917 7.95565 14.363 7.81248 14.1387C7.70969 13.9806 7.64729 13.8188 7.59957 13.6901C7.57387 13.6239 7.5445 13.543 7.52248 13.5172C7.49311 13.4731 7.43437 13.4143 7.37564 13.3517C7.28387 13.2561 7.17741 13.1495 7.08197 13.0097C6.97551 12.8516 6.90576 12.6972 6.84703 12.5721C6.81766 12.5059 6.78095 12.425 6.7626 12.3956C6.68551 12.289 6.61576 12.1823 6.55702 12.0904C6.49829 11.9985 6.43956 11.9102 6.38449 11.8403C6.3588 11.8036 6.29272 11.7484 6.22664 11.6932C6.12753 11.605 6.00272 11.4983 5.88892 11.3586L5.73474 11.1637C5.64297 11.0497 5.55853 10.9431 5.4741 10.8401C5.33828 10.6783 5.25752 10.5165 5.19511 10.3841C5.16942 10.3363 5.14005 10.2701 5.12169 10.2517C5.06296 10.1855 4.98954 10.1193 4.90878 10.0495C4.82435 9.97223 4.72891 9.88397 4.63346 9.78469C4.5527 9.69643 4.47928 9.61553 4.40954 9.53095C4.32878 9.43901 4.25536 9.35076 4.18561 9.28089C4.13422 9.2294 4.05713 9.17056 3.97637 9.10805C3.88092 9.0345 3.77447 8.9536 3.66801 8.85431C3.5175 8.70722 3.41839 8.55277 3.33763 8.43141C3.32294 8.40567 3.30459 8.37993 3.2899 8.35419C3.27522 8.35419 3.26054 8.35051 3.24585 8.34683C3.06598 8.31374 2.79433 8.26593 2.56673 8.06735C2.52268 8.03058 2.4823 7.9938 2.44559 7.95703C1.3847 9.96488 0.749627 12.2632 0.698234 14.7124C0.547726 22.4201 6.23031 28.8776 13.6786 29.8705C13.6639 29.819 13.6492 29.7675 13.6419 29.7124C13.5942 29.4439 13.6492 29.2122 13.6896 29.0541H13.6933Z" fill="#00A161"/>
<path d="M12.3763 19.4892C12.402 19.5517 12.4424 19.6252 12.4864 19.7098C12.5525 19.8312 12.6296 19.9672 12.6957 20.129C12.7948 20.3901 12.7764 20.6365 12.7654 20.802C12.7654 20.8277 12.7618 20.8608 12.7618 20.8829L12.8389 21.0815C12.8866 21.2065 12.938 21.3352 12.9857 21.4713C13.0077 21.5264 13.0444 21.6037 13.0848 21.6846C13.1435 21.8059 13.2133 21.942 13.2684 22.1038C13.2647 22.0927 13.261 22.0891 13.261 22.0891C13.272 22.1075 13.3124 22.1626 13.3381 22.2031C13.4299 22.3281 13.551 22.4973 13.6244 22.7216C13.6501 22.8025 13.6868 22.8907 13.7199 22.9863C13.7676 23.1114 13.819 23.2401 13.863 23.3835C13.9328 23.6152 13.9254 23.8321 13.9218 23.9939C13.9181 24.0381 13.9181 24.0969 13.9181 24.1263C13.9401 24.1962 13.9695 24.2734 13.9989 24.358C14.0429 24.4757 14.0943 24.6081 14.1347 24.7515L14.2705 25.2626L14.3072 25.4097C14.3219 25.4686 14.3513 25.5458 14.388 25.6304C14.4357 25.7554 14.4944 25.8951 14.5348 26.0606C14.5715 26.2077 14.5899 26.3511 14.6119 26.4762C14.6266 26.5718 14.6376 26.6674 14.656 26.7409C14.6963 26.9211 14.7037 27.0903 14.711 27.23C14.711 27.3109 14.7184 27.3918 14.7294 27.4396C14.7477 27.5205 14.7734 27.6088 14.8028 27.7007C14.8395 27.8184 14.8799 27.9508 14.9093 28.0942C14.9166 28.1163 14.946 28.1641 14.9643 28.2009C15.0377 28.3296 15.1405 28.5098 15.1882 28.7414C15.2433 29.0099 15.1846 29.2489 15.1442 29.407C15.1368 29.4291 15.1332 29.4548 15.1258 29.4806C15.1405 29.5284 15.1552 29.5872 15.1772 29.6497C15.2139 29.7527 15.247 29.8667 15.2763 29.9954C15.3131 29.9954 15.3461 29.9991 15.3828 29.9991C19.8099 30.0873 23.8259 28.2376 26.6232 25.2332C21.4251 21.2322 15.0451 19.8312 12.3359 19.3936C12.3506 19.4267 12.3653 19.4561 12.38 19.4892H12.3763Z" fill="#004EA2"/>
<path d="M30.5613 15.3006C30.5834 14.1607 30.4732 13.0501 30.253 11.98C30.1612 11.9947 30.0658 12.0094 29.974 12.0278C29.717 12.0756 29.4894 12.2411 29.2471 12.2889C28.9975 12.3404 28.7589 12.4176 28.5166 12.4727C28.2523 12.5353 27.9843 12.5426 27.731 12.6088C27.4741 12.675 27.1988 12.6529 26.9528 12.7228C26.7032 12.7964 26.4939 12.9913 26.259 13.0648C25.9984 13.1494 25.7231 13.1678 25.4771 13.256C25.2238 13.3443 24.9411 13.3333 24.7025 13.4252C24.4639 13.5208 24.2657 13.7157 24.0418 13.8113C23.7921 13.918 23.5168 13.9474 23.2892 14.0577C23.0359 14.179 22.8487 14.407 22.6211 14.5321C22.3825 14.6571 22.1476 14.7601 21.931 14.8851C21.6961 15.0212 21.4391 15.1094 21.2298 15.2418C20.9986 15.3889 20.8371 15.6169 20.6388 15.7603C20.4076 15.9258 20.235 16.1354 20.0405 16.2899C19.8165 16.4701 19.5449 16.5546 19.3724 16.7164C19.1962 16.8746 19.0053 16.9886 18.8584 17.1062L18.5244 17.6468C18.4546 17.9005 18.4546 18.0881 18.3482 17.93L17.625 19.092C20.6572 20.0224 24.2914 21.5559 27.5218 24.0749C29.3756 21.6331 30.5063 18.5993 30.5687 15.297L30.5613 15.3006Z" fill="#F6AB00"/>
</g>
<defs>
<clipPath id="clip0_2521_53345">
<rect width="85.3012" height="30" fill="white" transform="translate(0.699219 0.00146484)"/>
</clipPath>
</defs>
</svg>
