<svg width="97" height="70" viewBox="0 0 97 70" fill="none" xmlns="http://www.w3.org/2000/svg">
<path d="M48.6992 0.00146484C29.3441 0.00146484 13.6992 15.6463 13.6992 35.0015C13.6992 54.3566 29.3441 70.0015 48.6992 70.0015C68.0543 70.0015 83.6992 54.3566 83.6992 35.0015C83.6992 15.6463 67.9925 0.00146484 48.6992 0.00146484Z" fill="#62000A"/>
<path d="M48.7014 68.7029C30.0883 68.7029 15 53.6145 15 35.0015C15 16.3884 30.0883 1.30005 48.7014 1.30005C67.3145 1.30005 82.4028 16.3884 82.4028 35.0015C82.4028 53.6145 67.3145 68.7029 48.7014 68.7029Z" fill="#87001F"/>
<path d="M26.1901 19.6657L22.7891 17.0686L23.4074 16.2647L24.7678 17.3159L23.8403 15.7081L24.4587 14.8424L25.3862 16.7594L27.9216 17.3777L27.2413 18.2435L25.7573 17.8106L25.9428 18.2435L26.8085 18.8618L26.1901 19.6657Z" fill="white"/>
<path d="M26.6128 12.5404L25.918 13.2448L28.9555 16.2413L29.6504 15.537L26.6128 12.5404Z" fill="white"/>
<path d="M32.3729 11.6269H32.4348L30.8888 9.02968L31.6309 8.47314L33.6097 12.3071L32.6821 12.9873L30.6415 10.7611L32.1874 13.3583L31.3217 14.0385L28.168 11.0703L28.9719 10.4519L31.0125 12.6781L29.5284 10.0191L30.3323 9.46254L32.3729 11.6269Z" fill="white"/>
<path d="M37.259 8.78243C37.3827 8.96795 37.4445 9.2153 37.5064 9.40081C37.5682 9.58632 37.5682 9.77183 37.5064 9.89551C37.4445 10.081 37.3827 10.2047 37.259 10.3284C37.1354 10.452 36.9499 10.5757 36.7025 10.6994C36.4552 10.8231 36.2696 10.8849 36.0841 10.8849C35.8986 10.8849 35.7131 10.8849 35.5894 10.8231C35.4657 10.7612 35.2802 10.6376 35.1566 10.5139C35.0329 10.3902 34.9092 10.2047 34.7855 9.95735L34.0435 8.41141C33.858 8.04039 33.7961 7.7312 33.9198 7.42201C34.0435 7.11282 34.2908 6.86547 34.6619 6.67996C35.0329 6.49445 35.4039 6.43261 35.7131 6.55629C36.0223 6.67996 36.2696 6.86547 36.4552 7.2365L37.259 8.78243ZM35.6513 7.7312C35.6513 7.66936 35.5894 7.60752 35.5276 7.54569C35.4658 7.48385 35.4657 7.42201 35.4039 7.42201C35.3421 7.36017 35.2802 7.36017 35.2184 7.36017C35.1566 7.36017 35.0947 7.36017 35.0329 7.42201C34.971 7.48385 34.9092 7.48385 34.9092 7.54569C34.9092 7.60752 34.8474 7.66936 34.8474 7.7312C34.8474 7.79304 34.8474 7.85487 34.9092 7.91671C34.9092 7.97855 34.971 8.04039 34.971 8.10222L35.7749 9.64816C35.7749 9.71 35.8368 9.77183 35.8986 9.83367C35.9604 9.89551 35.9604 9.95735 36.0223 10.0192C36.0841 10.081 36.146 10.081 36.2078 10.081C36.2696 10.081 36.3315 10.081 36.3933 10.081C36.4552 10.0192 36.517 10.0192 36.517 9.95735C36.517 9.89551 36.5788 9.83367 36.517 9.77183C36.517 9.71 36.517 9.64816 36.4552 9.58632C36.4552 9.52448 36.3933 9.46265 36.3933 9.40081L35.6513 7.7312Z" fill="white"/>
<path d="M41.5889 7.29831C41.6507 7.54566 41.7126 7.73117 41.7126 7.91668C41.7126 8.1022 41.7126 8.28771 41.6507 8.41138C41.5889 8.53506 41.4652 8.65873 41.3415 8.78241C41.2179 8.90608 41.0324 8.96792 40.785 9.02976C40.5377 9.0916 40.3521 9.15343 40.1666 9.15343C39.9811 9.15343 39.7956 9.0916 39.6719 9.02976C39.5482 8.96792 39.4246 8.84425 39.3009 8.65873C39.1772 8.47322 39.1154 8.28771 39.0535 8.1022L38.5588 6.43259C38.4352 6.06156 38.4352 5.69054 38.6207 5.44319C38.8062 5.19584 39.0535 4.94849 39.4864 4.82481C39.9193 4.70114 40.2284 4.70114 40.5376 4.82481C40.8468 4.94849 41.0323 5.25767 41.156 5.6287L41.5889 7.29831ZM40.1048 5.99972C40.1048 5.93789 40.0429 5.87605 40.0429 5.81421C40.0429 5.75237 39.9811 5.69054 39.9193 5.6287C39.8574 5.56686 39.8574 5.56686 39.7956 5.50502C39.7338 5.50502 39.6719 5.50502 39.6101 5.50502C39.5482 5.50502 39.4864 5.56686 39.4246 5.6287C39.3627 5.69054 39.3627 5.75237 39.3627 5.81421C39.3627 5.87605 39.3627 5.93789 39.3627 5.99972C39.3627 6.06156 39.3627 6.1234 39.4246 6.18524L39.9193 7.85485C39.9193 7.91668 39.9811 7.97852 39.9811 8.04036C39.9811 8.1022 40.0429 8.16403 40.1048 8.22587C40.1666 8.28771 40.1666 8.28771 40.2284 8.34955C40.2903 8.34955 40.3521 8.34955 40.414 8.34955C40.4758 8.34955 40.5376 8.28771 40.5995 8.22587C40.6613 8.16403 40.6613 8.1022 40.6613 8.04036C40.6613 7.97852 40.6613 7.91668 40.6613 7.85485C40.6613 7.79301 40.5995 7.73117 40.5995 7.66933L40.1048 5.99972Z" fill="white"/>
<path d="M43.565 8.22589L43.0703 3.95911L44.4307 3.83543L45.2346 6.24709H45.2965L45.5438 3.71176L46.9042 3.52625L47.3989 7.79303L46.4714 7.91671L46.1622 4.57748L45.853 7.97854L45.111 8.04038L43.9979 4.82483L44.4926 8.10222L43.565 8.22589Z" fill="white"/>
<path d="M51.668 7.97846L52.3482 3.71167L53.3376 3.89718L53.0902 5.50496L53.7705 5.62863L54.0178 4.02086L55.0072 4.14453L54.327 8.34948L53.3376 8.2258L53.6468 6.49435L52.9666 6.37068L52.6574 8.10213L51.668 7.97846Z" fill="white"/>
<path d="M55.9336 8.78244L57.2322 4.70117L59.4583 5.44322L59.211 6.24711L57.9742 5.81425L57.7269 6.5563L58.9018 6.98916L58.6544 7.79304L57.4177 7.42202L57.1703 8.28775L58.4689 8.72061L58.2216 9.52449L55.9336 8.78244Z" fill="white"/>
<path d="M60.5728 10.5756L59.707 10.1428L61.624 6.30884L62.9226 6.98905C63.2936 7.17456 63.541 7.42191 63.6028 7.66926C63.7265 7.91661 63.6646 8.2258 63.4791 8.59682C63.3554 8.78234 63.2318 8.96785 63.1081 9.09152C62.9844 9.2152 62.7989 9.27704 62.5516 9.27704C62.6752 9.33887 62.7371 9.46255 62.7989 9.58622C62.8607 9.7099 62.7989 9.83357 62.7371 9.95725C62.6752 10.0191 62.6752 10.1428 62.6134 10.2664C62.5516 10.3901 62.4897 10.5138 62.4279 10.6375C62.3661 10.7611 62.3042 10.8848 62.3042 10.9466C62.2424 11.0703 62.2424 11.1322 62.1805 11.194C62.1805 11.2558 62.1805 11.3177 62.1805 11.3795V11.4413L61.1911 10.9466C61.1911 10.8848 61.1911 10.8848 61.1911 10.823C61.1911 10.7611 61.1911 10.7611 61.253 10.6993C61.3148 10.5138 61.4385 10.3901 61.5003 10.2046C61.5622 10.0809 61.624 9.89541 61.6858 9.77174C61.7477 9.64806 61.7477 9.52439 61.7477 9.46255C61.7477 9.40071 61.6858 9.27704 61.5622 9.2152L61.253 9.09152L60.5728 10.5756ZM61.6858 8.34947L61.995 8.47315C62.0569 8.53499 62.1187 8.53499 62.1805 8.53499C62.2424 8.53499 62.3042 8.53499 62.3042 8.47315C62.366 8.41131 62.3661 8.41131 62.4279 8.34947C62.4897 8.28764 62.4897 8.2258 62.5516 8.16396C62.6134 8.04029 62.6134 7.97845 62.6752 7.85477C62.6752 7.79294 62.6752 7.7311 62.6134 7.66926C62.5516 7.60742 62.5516 7.54559 62.4279 7.54559C62.3661 7.48375 62.2424 7.42191 62.1187 7.42191L61.6858 8.34947Z" fill="white"/>
<path d="M66.5073 12.6782C66.3836 12.8637 66.1981 13.0492 66.0745 13.1729C65.9508 13.2966 65.7653 13.3584 65.6416 13.4202C65.4561 13.4821 65.3324 13.4202 65.1469 13.4202C64.9614 13.3584 64.7759 13.2966 64.5904 13.1111C64.4049 12.9874 64.2193 12.8019 64.0957 12.6782C63.972 12.5545 63.9102 12.369 63.9102 12.1835C63.9102 11.998 63.9102 11.8743 63.972 11.6888C64.0338 11.5033 64.1575 11.3178 64.2812 11.1323L65.2706 9.70999C65.5179 9.4008 65.7653 9.21529 66.1363 9.15345C66.4455 9.09162 66.8165 9.21529 67.1257 9.46264C67.4967 9.70999 67.6822 10.0192 67.7441 10.3284C67.8059 10.6376 67.6822 10.9467 67.4967 11.3178L66.5073 12.6782ZM66.631 10.6994C66.6928 10.6376 66.6928 10.5757 66.7547 10.5139C66.8165 10.452 66.8165 10.3902 66.8165 10.3284C66.8165 10.2665 66.8165 10.2047 66.8165 10.1429C66.8165 10.081 66.7547 10.0192 66.6928 9.95734C66.631 9.8955 66.5692 9.8955 66.5073 9.8955C66.4455 9.8955 66.3837 9.8955 66.3218 9.95734C66.26 9.95734 66.1981 10.0192 66.1981 10.081C66.1363 10.1429 66.1363 10.2047 66.0745 10.2047L65.0232 11.627C64.9614 11.6888 64.9614 11.7506 64.8996 11.8125C64.8377 11.8743 64.8377 11.9361 64.8377 11.998C64.8377 12.0598 64.8377 12.1217 64.8377 12.1835C64.8377 12.2453 64.8995 12.3072 64.9614 12.369C65.0232 12.4308 65.0851 12.4308 65.1469 12.4308C65.2087 12.4308 65.2706 12.4308 65.3324 12.369C65.3942 12.3072 65.4561 12.3072 65.4561 12.2453C65.5179 12.1835 65.5179 12.1217 65.5798 12.0598L66.631 10.6994Z" fill="white"/>
<path d="M66.9414 14.8424L69.9096 11.8124L71.5792 13.4202L70.9608 14.0385L70.0333 13.111L69.4767 13.6675L70.4043 14.5332L69.7859 15.1516L68.8584 14.2859L68.24 14.9043L69.2294 15.8937L68.611 16.512L66.9414 14.8424Z" fill="white"/>
<path d="M71.2719 17.5015L71.0246 17.687C70.9627 17.7488 70.9627 17.7488 70.9009 17.8107C70.839 17.8725 70.839 17.8725 70.839 17.9343C70.839 17.9962 70.839 18.058 70.839 18.1198C70.839 18.1817 70.9009 18.2435 70.9009 18.3054C70.9627 18.429 71.0864 18.429 71.1482 18.429C71.2719 18.429 71.3337 18.3672 71.4574 18.3054C71.5192 18.2435 71.5811 18.1817 71.6429 18.1198C71.6429 18.058 71.7048 17.9962 71.7048 17.9343C71.7048 17.8725 71.7048 17.8107 71.7048 17.687C71.7048 17.6251 71.7048 17.5633 71.7048 17.4396C71.7048 17.2541 71.6429 17.0686 71.6429 16.9449C71.6429 16.8213 71.6429 16.6357 71.7048 16.5121C71.7666 16.3884 71.7666 16.2647 71.8903 16.141C71.9521 16.0174 72.0758 15.8937 72.2613 15.77C72.5705 15.5227 72.8797 15.4608 73.1889 15.5227C73.4981 15.5845 73.7454 15.77 73.9927 16.0792C74.1164 16.2647 74.2401 16.4502 74.2401 16.5739C74.3019 16.7594 74.3019 16.8831 74.2401 17.0686C74.1783 17.2541 74.1164 17.3778 74.0546 17.5015C73.9309 17.6251 73.8072 17.7488 73.6217 17.8725L73.0652 17.1304C73.127 17.0686 73.1889 17.0686 73.1889 17.0068C73.2507 16.9449 73.3125 16.8831 73.3125 16.8831C73.3744 16.8213 73.3744 16.7594 73.3744 16.6976C73.3744 16.6357 73.3744 16.5739 73.3125 16.5121C73.2507 16.4502 73.1889 16.3884 73.127 16.3884C73.0652 16.3884 72.9415 16.3884 72.8797 16.4502C72.756 16.5121 72.6942 16.5739 72.6942 16.6976C72.6942 16.8213 72.6323 16.8831 72.6942 17.0068C72.6942 17.2541 72.756 17.4396 72.756 17.6251C72.756 17.8107 72.756 17.9962 72.756 18.1198C72.756 18.3054 72.6942 18.429 72.6323 18.5527C72.5705 18.6764 72.385 18.8619 72.1995 18.9856C71.8903 19.2329 71.5193 19.3566 71.2719 19.2948C70.9627 19.2329 70.7154 19.0474 70.4062 18.7382C70.2825 18.5527 70.1588 18.3672 70.097 18.2435C70.0352 18.058 70.0352 17.9343 70.0352 17.7488C70.0352 17.6251 70.097 17.5015 70.1588 17.3778C70.2207 17.2541 70.3444 17.1304 70.468 17.0686L70.839 16.8213L71.2719 17.5015Z" fill="white"/>
<path d="M23.6553 49.5332C23.9027 49.4095 24.15 49.224 23.9645 48.9767C23.8408 48.7912 23.7171 48.7293 23.5316 48.853C23.3461 48.9767 23.3461 49.1622 23.2843 49.3477C23.2843 49.595 23.2225 49.9661 23.1606 50.2134C23.0988 50.4608 22.9751 50.6463 22.7278 50.77C22.2331 51.0791 21.7384 50.8936 21.491 50.3989C21.1818 49.7806 21.3673 49.4095 21.862 49.1003L22.0475 48.9767L22.3567 49.4714L22.1712 49.5332C21.9239 49.6569 21.7384 49.8424 21.9239 50.0897C22.0475 50.2753 22.2331 50.3371 22.4186 50.2134C22.6041 50.1516 22.6659 49.9661 22.6659 49.8424C22.7277 49.4714 22.6659 49.0385 22.8514 48.7293C22.9133 48.6056 23.0369 48.4201 23.1606 48.3583C23.5935 48.1109 24.0263 48.2346 24.3355 48.7293C24.7684 49.5332 24.15 49.8424 23.9027 50.0279L23.6553 49.5332Z" fill="white"/>
<path d="M22.6641 51.945L25.1994 50.2135L26.0651 51.5121L25.6941 51.8213L25.1376 50.9555L24.5192 51.3884L25.0139 52.1923L24.6429 52.4396L24.1482 51.6358L23.3443 52.1923L23.9627 53.058L23.5916 53.3054L22.6641 51.945Z" fill="white"/>
<path d="M25.5103 52.9343C26.1287 52.4396 26.6234 52.1304 27.18 52.8106C27.7365 53.4908 27.3655 53.9237 26.7471 54.4802L26.4379 54.7894C25.8195 55.2841 25.3248 55.6551 24.7065 54.9131C24.0881 54.171 24.5209 53.7382 25.1393 53.2435L25.5103 52.9343ZM25.3248 53.8C25.1393 53.9855 24.8301 54.2329 25.0775 54.5421C25.3248 54.8512 25.6959 54.6039 25.8814 54.4184L26.4997 53.9237C26.6853 53.7382 27.1181 53.429 26.8708 53.1198C26.5616 52.7488 26.1905 53.1198 26.005 53.3053L25.3248 53.8Z" fill="white"/>
<path d="M29.2821 55.1604L29.715 55.5933L28.2309 57.1392C27.7362 57.6339 27.3652 57.6958 26.8086 57.1392C26.2521 56.5827 26.3139 56.2117 26.8086 55.717L28.2927 54.171L28.7256 54.6039L27.2415 56.088C27.056 56.2735 26.8705 56.5208 27.1178 56.7682C27.3652 57.0155 27.6125 56.83 27.798 56.6445L29.2821 55.1604Z" fill="white"/>
<path d="M28.293 58.4378L30.2718 56.088L30.7046 56.459L29.035 58.4997L29.9007 59.1799L29.5916 59.4891L28.293 58.4378Z" fill="white"/>
<path d="M31.5703 60.9114L33.1781 58.3142L33.6728 58.6234L32.9926 59.6128L33.6728 60.0457L34.353 58.9944L34.8477 59.3036L33.2399 61.9626L32.7452 61.6534L33.4873 60.4167L32.8071 60.0457L32.065 61.2206L31.5703 60.9114Z" fill="white"/>
<path d="M34.168 62.4572L35.5284 59.6746L36.9507 60.4166L36.7651 60.8495L35.8376 60.3548L35.4666 61.035L36.3323 61.4678L36.1468 61.9007L35.281 61.4678L34.8482 62.2717L35.7757 62.7664L35.5902 63.1375L34.168 62.4572Z" fill="white"/>
<path d="M37.4458 62.5191L36.9511 63.7559L36.3945 63.5704L37.5076 60.7258L38.497 61.0969C38.9299 61.2824 39.239 61.5916 39.0535 62.0863C38.9299 62.3954 38.7443 62.7046 38.3733 62.581C38.6825 62.7665 38.6825 63.0138 38.5588 63.2612C38.497 63.3848 38.2497 64.0651 38.3115 64.1887V64.2506L37.7549 64.0032C37.7549 63.8177 37.8786 63.4467 38.0023 63.2612C38.0641 63.0757 38.1878 62.8283 38.0023 62.7046C37.8786 62.581 37.6931 62.5191 37.5694 62.5191H37.4458ZM37.6313 62.1481L38.0641 62.3336C38.2496 62.3954 38.4352 62.3336 38.5588 62.0244C38.6825 61.7152 38.5588 61.5916 38.3733 61.5297L38.0023 61.406L37.6313 62.1481Z" fill="white"/>
<path d="M39.7946 62.8902C40.042 62.1482 40.2275 61.5916 41.155 61.839C42.0208 62.0863 41.9589 62.6429 41.7734 63.4468L41.6497 63.8796C41.4024 64.6835 41.2169 65.24 40.2893 64.9927C39.3618 64.7453 39.4854 64.127 39.7328 63.3849L39.7946 62.8902ZM40.1657 63.7559C40.1038 64.0033 39.9801 64.3743 40.3512 64.498C40.7222 64.6217 40.8459 64.1888 40.9695 63.9414L41.155 63.1994C41.2169 62.9521 41.4024 62.4574 40.9695 62.3337C40.5367 62.21 40.413 62.7665 40.3512 62.9521L40.1657 63.7559Z" fill="white"/>
<path d="M42.207 65.3637L42.7636 62.3336L44.3713 62.6428L44.3095 63.0757L43.2583 62.8902L43.1346 63.694L44.0622 63.8177L44.0003 64.3124L43.0728 64.1269L42.8872 65.0545L43.8766 65.24L43.8148 65.6728L42.207 65.3637Z" fill="white"/>
<path d="M46.1638 63.8177C46.1638 63.5703 46.2256 63.2611 45.8546 63.2611C45.6691 63.2611 45.5454 63.323 45.4836 63.5085C45.4836 63.7558 45.6072 63.8177 45.7928 64.0032C45.9783 64.1269 46.2875 64.3742 46.4111 64.5597C46.5966 64.7452 46.6585 64.9307 46.5967 65.2399C46.5348 65.7965 46.1019 66.1057 45.5454 66.0438C44.8652 65.982 44.6797 65.5491 44.6797 65.0544V64.8071L45.2362 64.8689V65.0544C45.1744 65.3636 45.2362 65.5491 45.5454 65.611C45.7928 65.611 45.9164 65.5491 45.9164 65.3018C45.9164 65.1163 45.8546 64.9926 45.7309 64.8689C45.4836 64.6216 45.1125 64.3742 44.927 64.065C44.8652 63.9413 44.8034 63.7558 44.8034 63.5703C44.8652 63.0756 45.1744 62.7664 45.7928 62.8283C46.7203 62.8901 46.5967 63.6322 46.5967 63.9413L46.1638 63.8177Z" fill="white"/>
<path d="M49.069 66.0438L48.9453 62.952L49.8729 62.8901C50.1202 62.8901 50.3676 62.8901 50.5531 63.0757C50.6768 63.2612 50.7386 63.3848 50.7386 63.6322C50.7386 63.8795 50.6768 64.1887 50.3676 64.3124C50.6768 64.3742 50.8004 64.6216 50.8623 64.9926C50.8623 65.1163 50.8623 65.24 50.8623 65.3636C50.7386 65.7347 50.5531 65.9202 50.1202 65.9202L49.069 66.0438ZM49.6255 64.1887C49.7492 64.1887 49.9347 64.1887 50.0584 64.065C50.1202 64.0032 50.1202 63.8795 50.1202 63.7559C50.1202 63.5085 50.0584 63.3848 49.811 63.4467H49.5637V64.2506L49.6255 64.1887ZM49.7492 65.5491C49.8729 65.5491 49.9965 65.5491 50.1202 65.4873C50.2439 65.4255 50.3057 65.24 50.3057 65.0544C50.3057 64.7453 50.2439 64.5597 49.8729 64.6216H49.6255L49.6874 65.5491H49.7492Z" fill="white"/>
<path d="M51.6055 65.9202L51.9147 62.7665L52.6567 62.6428L53.7698 65.611L53.1514 65.6729L52.904 64.9308L52.2238 64.9926L52.162 65.7965L51.6055 65.9202ZM52.2857 64.6216L52.7804 64.5598L52.533 63.6941C52.4712 63.5704 52.4712 63.4467 52.4093 63.2612C52.4093 63.1994 52.4093 63.1375 52.3475 63.0757C52.3475 63.1375 52.3475 63.1994 52.3475 63.2612C52.3475 63.3849 52.3475 63.5704 52.3475 63.6941L52.2857 64.6216Z" fill="white"/>
<path d="M55.3148 63.1374C55.253 62.8901 55.1912 62.5809 54.882 62.7046C54.6965 62.7664 54.5728 62.8283 54.6346 63.0756C54.6965 63.323 54.8201 63.3848 55.0675 63.4466C55.253 63.5085 55.6859 63.694 55.8714 63.7558C56.1187 63.8795 56.1806 64.065 56.2424 64.3124C56.3661 64.8689 56.0569 65.2399 55.5003 65.3636C54.8201 65.4873 54.5109 65.1781 54.3873 64.6834L54.3254 64.436L54.882 64.3124L54.9438 64.4979C55.0056 64.8071 55.1293 64.9926 55.4385 64.9307C55.6858 64.8689 55.7477 64.7452 55.6858 64.4979C55.624 64.3124 55.5622 64.1887 55.3767 64.1268C55.0056 63.9413 54.6346 63.8795 54.3254 63.6321C54.2018 63.5085 54.1399 63.3848 54.0781 63.1993C53.9544 62.7046 54.2017 62.3336 54.7583 62.2099C55.624 62.0244 55.8095 62.7046 55.8714 63.0138L55.3148 63.1374Z" fill="white"/>
<path d="M57.2947 64.8071L56.3672 61.9007L57.9131 61.406L58.0368 61.8389L57.0474 62.1481L57.2947 62.8901L58.2223 62.5809L58.346 63.0138L57.4184 63.323L57.7276 64.2505L58.717 63.9413L58.8407 64.3124L57.2947 64.8071Z" fill="white"/>
<path d="M59.7687 64.0032L58.5938 61.1587L59.4595 60.7877C59.7068 60.664 59.8923 60.6022 60.1397 60.7259C60.3252 60.8495 60.387 60.9732 60.5107 61.1587C60.6344 61.4061 60.6344 61.6534 60.387 61.9008C60.6962 61.8389 60.9436 62.0244 61.0672 62.3955C61.1291 62.5191 61.1291 62.6428 61.1909 62.7665C61.2528 63.1994 61.0672 63.3849 60.6962 63.5704L59.7687 64.0032ZM59.7068 62.0863C59.8305 62.0244 60.016 61.9626 60.016 61.8389C60.016 61.7771 60.016 61.6534 59.9542 61.5297C59.8923 61.3442 59.7687 61.2206 59.5213 61.3442L59.274 61.4679L59.5832 62.21L59.7068 62.0863ZM60.2015 63.323C60.3252 63.2612 60.4489 63.2612 60.5107 63.1375C60.6344 63.0138 60.5726 62.8283 60.5107 62.7047C60.387 62.3955 60.2634 62.2718 59.9542 62.4573L59.7687 62.5191L60.1397 63.3849L60.2015 63.323Z" fill="white"/>
<path d="M62.1164 63.0139L61.3125 59.9838L61.9927 59.6128L64.0333 62.0245L63.4768 62.3336L62.9821 61.7153L62.3637 62.0245L62.6111 62.7665L62.1164 63.0139ZM62.3019 61.5298L62.7348 61.2824L62.1782 60.6022C62.1164 60.4785 61.9927 60.3548 61.9309 60.2312C61.869 60.1693 61.869 60.1075 61.8072 60.0457C61.8072 60.1075 61.869 60.1693 61.869 60.2312C61.9309 60.3548 61.9927 60.4785 61.9927 60.6022L62.3019 61.5298Z" fill="white"/>
<path d="M64.779 61.5298L63.1094 58.9326L63.6041 58.6234L65.0263 60.8496L65.9539 60.293L66.1394 60.6641L64.779 61.5298Z" fill="white"/>
<path d="M66.9404 60.1075L65.0234 57.6959L65.5181 57.3248L67.1259 59.4273L67.9298 58.7471L68.239 59.1181L66.9404 60.1075Z" fill="white"/>
<path d="M70.5293 55.4696C70.5912 55.5315 70.5912 55.5315 70.653 55.5933C71.024 56.0262 71.2095 56.459 70.7767 56.8919C70.0965 57.5721 69.6636 57.2011 69.0452 56.5827L68.736 56.2735C68.1795 55.717 67.8085 55.2223 68.4887 54.6039C68.8597 54.2329 69.2307 54.2329 69.6636 54.5421C69.7254 54.6039 69.7873 54.6657 69.8491 54.7276L69.4781 55.0986C69.2926 54.9749 69.0452 54.7276 68.8597 54.9131C68.5505 55.2223 68.9215 55.5933 69.1071 55.7788L69.7254 56.3972C69.9109 56.5827 70.2201 56.8301 70.4675 56.5827C70.7148 56.3354 70.282 56.0262 70.1583 55.9025L70.5293 55.4696Z" fill="white"/>
<path d="M71.9514 55.5315L69.6016 53.5527L69.9726 53.1199L72.0132 54.7895L72.6934 53.9856L73.0026 54.2948L71.9514 55.5315Z" fill="white"/>
<path d="M71.8898 50.6463L72.199 50.1516L73.9304 51.3884C74.487 51.7594 74.6107 52.1304 74.1778 52.7488C73.7449 53.3672 73.3739 53.3672 72.8174 52.9961L71.0859 51.7594L71.3951 51.2647L73.1266 52.4396C73.3739 52.6251 73.6213 52.7488 73.8686 52.4396C74.0541 52.1304 73.8686 51.9449 73.6213 51.7594L71.8898 50.6463Z" fill="white"/>
<path d="M75.2879 51.0174L72.6289 49.5333L73.0618 48.7294C73.1854 48.5439 73.3091 48.2965 73.5565 48.2965C73.742 48.2347 73.9275 48.3584 74.113 48.4202C74.3604 48.5439 74.5459 48.7294 74.484 49.0386C74.6695 48.7912 74.9787 48.7912 75.3498 48.9767C75.4734 49.0386 75.5971 49.1004 75.6589 49.2241C75.9063 49.5333 75.9681 49.7806 75.7826 50.1516L75.2879 51.0174ZM73.9893 49.5333C74.0512 49.4096 74.1748 49.2859 74.113 49.1004C74.0512 49.0386 73.9893 48.9767 73.8657 48.8531C73.6801 48.7294 73.5565 48.7294 73.4328 48.9767L73.3091 49.2241L73.9893 49.5951V49.5333ZM75.2261 50.2135C75.2879 50.0898 75.3498 50.028 75.3498 49.9043C75.3498 49.7188 75.2261 49.5951 75.0406 49.5333C74.7314 49.3478 74.6077 49.3478 74.4222 49.6569L74.2985 49.8425L75.1024 50.2753L75.2261 50.2135Z" fill="white"/>
<path d="M48.6991 60.1693C34.7857 60.1693 23.5312 48.9149 23.5312 35.0015C23.5312 21.088 34.7857 9.83362 48.6991 9.83362C62.6125 9.83362 73.867 21.088 73.867 35.0015C73.867 48.9149 62.5507 60.1693 48.6991 60.1693Z" fill="#62000A"/>
<path d="M57.788 57.0775C45.606 62.1482 31.6307 56.3354 26.5601 44.1535C21.4894 31.9715 27.3021 17.9962 39.4841 12.9255C51.6661 7.85488 65.6413 13.6676 70.712 25.8496C75.7827 38.0316 69.97 52.0068 57.788 57.0775Z" fill="white"/>
<path d="M28.1704 24.8601C28.2323 24.6746 28.3559 24.4891 28.5415 24.4272C28.6651 24.4272 28.727 24.4891 28.727 24.5509C28.727 24.6128 28.727 24.6746 28.727 24.7364C28.5415 25.293 28.2323 27.0863 28.2323 27.0863C28.2323 27.0863 27.3047 28.0757 26.81 28.5085C26.6863 28.6322 26.5627 28.5704 26.5008 28.4467C26.439 28.2612 26.5008 28.0757 26.6245 27.952C26.9955 27.581 27.3665 27.2099 27.7376 26.8389C27.7994 26.1587 27.9849 25.4785 28.1704 24.8601Z" fill="#87001F"/>
<path d="M29.035 25.2311C29.0969 25.0456 29.2205 24.7983 29.4061 24.7364C29.5297 24.6746 29.6534 24.7364 29.6534 24.8601C29.6534 24.9219 29.6534 24.9219 29.6534 24.9838C29.5297 25.6021 29.4061 27.4573 29.4061 27.4573C29.4061 27.4573 28.3548 28.6322 27.8601 29.1887C27.7364 29.3124 27.5509 29.3124 27.4891 29.1269C27.4273 28.9414 27.4891 28.694 27.6128 28.5703C27.9838 28.1375 28.4167 27.7046 28.7877 27.2099C28.8495 26.6534 28.9114 25.9732 29.035 25.2311Z" fill="#87001F"/>
<path d="M30.3347 25.6022C30.3347 25.4166 30.5203 25.1693 30.7058 25.0456C30.8913 24.9838 31.015 25.0456 31.015 25.1693C31.015 25.1693 31.015 25.2311 31.015 25.293C31.015 25.9113 31.0768 27.7665 31.0768 27.7665C31.0768 27.7665 30.0256 29.1269 29.469 29.7453C29.3453 29.9308 29.1598 29.9308 29.0362 29.8071C28.9125 29.6834 28.9743 29.3742 29.098 29.2506C29.5309 28.7559 29.9019 28.1993 30.3347 27.7046C30.3347 26.9626 30.2729 26.2824 30.3347 25.6022Z" fill="#87001F"/>
<path d="M31.8804 25.664C31.8804 25.4785 32.004 25.1693 32.2514 25.1074C32.4369 24.9838 32.6224 25.0456 32.6842 25.2311V25.2929C32.7461 25.9113 33.1171 27.7664 33.1171 27.7664C33.1171 27.7664 32.0659 29.3124 31.5093 30.0544C31.3857 30.2399 31.1383 30.3018 31.0146 30.1781C30.891 30.0544 30.891 29.7452 31.0146 29.5597C31.4475 29.0032 31.8185 28.3848 32.2514 27.7664C32.0659 27.0862 31.9422 26.406 31.8804 25.664Z" fill="#87001F"/>
<path d="M33.8593 25.8496C33.8593 25.7259 33.7974 25.6641 33.7974 25.5404C33.7356 25.3549 33.8593 25.0457 34.1066 24.922C34.354 24.7983 34.6013 24.8602 34.6632 25.0457C34.6632 25.1694 34.725 25.2312 34.725 25.3549C34.8487 25.8496 35.5289 27.4573 35.5289 27.4573C35.5289 27.4573 34.4777 29.127 33.9211 29.9927C33.7975 30.24 33.4883 30.3019 33.3028 30.1782C33.1172 30.0545 33.0554 29.8072 33.2409 29.5598C33.6738 28.8796 34.1066 28.2612 34.4777 27.581C34.2303 27.0245 34.0448 26.4679 33.8593 25.8496Z" fill="#87001F"/>
<path d="M37.0134 27.1481C36.5806 26.5297 36.2095 25.9113 35.9003 25.2311C35.7767 25.0456 35.9622 24.7364 36.1477 24.6127C36.3951 24.4272 36.7042 24.4891 36.7661 24.6746C37.0134 25.2311 38.1265 26.9007 38.1265 26.9007C38.1265 26.9007 37.1371 28.7559 36.6424 29.6216C36.5187 29.8689 36.2095 29.9926 35.9622 29.8689C35.7148 29.7453 35.653 29.4979 35.7767 29.2506C36.2714 28.5703 36.6424 27.8283 37.0134 27.1481Z" fill="#87001F"/>
<path d="M39.8584 26.3443C39.3019 25.7877 38.8072 25.1693 38.3743 24.6128C38.2507 24.4273 38.3125 24.1181 38.5599 23.9326C38.8072 23.7471 39.1164 23.7471 39.2401 23.9326C39.6111 24.4273 41.0334 25.9732 41.0334 25.9732C41.0334 25.9732 40.2295 27.8902 39.7348 28.8796C39.6111 29.1269 39.3019 29.3124 39.0546 29.2506C38.8072 29.1888 38.6835 28.9414 38.8072 28.6322C39.1782 27.8902 39.5493 27.0863 39.8584 26.3443Z" fill="#87001F"/>
<path d="M42.0217 27.6428C42.3309 26.8389 42.5783 26.0968 42.8256 25.2929C42.1454 24.7982 41.527 24.2417 40.9086 23.747C40.7231 23.5615 40.785 23.3141 41.0323 23.0668C41.2797 22.8813 41.6507 22.8194 41.7744 23.005C42.2691 23.4378 44.0005 24.5509 44.0005 24.5509C44.0005 24.5509 43.444 26.777 43.0111 27.7664C42.8874 28.0138 42.5783 28.1993 42.2691 28.1993C42.0836 28.1993 41.8981 27.952 42.0217 27.6428Z" fill="#87001F"/>
<path d="M45.6676 26.9008C45.3585 26.9008 45.1729 26.6534 45.2348 26.4061C45.4203 25.6022 45.6058 24.8602 45.7295 24.0563C44.9256 23.6234 44.1835 23.1905 43.5033 22.7577C43.3178 22.634 43.3178 22.3248 43.5652 22.1393C43.8125 21.9538 44.1835 21.892 44.369 22.0156C44.9874 22.3867 46.9662 23.3761 46.9662 23.3761C46.9662 23.3761 46.657 25.4785 46.4097 26.4679C46.3478 26.7153 45.9768 26.9008 45.6676 26.9008Z" fill="#87001F"/>
<path d="M48.4508 24.8601C48.5127 24.0562 48.5745 23.3141 48.6363 22.5721C47.7706 22.2011 46.9667 21.83 46.1628 21.459C45.9155 21.3353 45.9155 21.088 46.101 20.8406C46.2865 20.6551 46.6575 20.5315 46.9049 20.6551C47.5851 20.9643 49.7494 21.7682 49.7494 21.7682C49.7494 21.7682 49.7494 23.747 49.6257 24.7364C49.6257 24.9838 49.3165 25.2311 49.0074 25.2311C48.6363 25.3548 48.389 25.1693 48.4508 24.8601Z" fill="#87001F"/>
<path d="M51.3583 23.1905C51.3583 22.4484 51.2346 21.7682 51.1728 21.088C50.2452 20.8406 49.3795 20.5314 48.5756 20.2223C48.3283 20.0986 48.2046 19.8512 48.3901 19.6657C48.5756 19.4802 48.8848 19.3565 49.194 19.4802C49.936 19.7276 52.224 20.4078 52.224 20.4078C52.224 20.4078 52.5332 22.2011 52.5332 23.1286C52.5332 23.376 52.2859 23.6233 51.9767 23.6233C51.6056 23.6233 51.3583 23.4378 51.3583 23.1905Z" fill="#87001F"/>
<path d="M53.9547 21.4591C53.8311 20.7789 53.6455 20.0986 53.3982 19.4803C52.4706 19.2948 51.6049 19.0474 50.7392 18.8619C50.4918 18.8001 50.3063 18.5527 50.43 18.3672C50.5537 18.1817 50.8629 18.058 51.172 18.1198C51.9141 18.3054 54.2639 18.8619 54.2639 18.8619C54.2639 18.8619 54.8205 20.4697 55.006 21.2736C55.0678 21.5209 54.8823 21.7064 54.5731 21.7683C54.2639 21.8301 53.9547 21.7064 53.9547 21.4591Z" fill="#87001F"/>
<path d="M55.9971 19.6657C55.8735 19.2947 55.688 18.9855 55.5025 18.6145C55.3788 18.3671 55.2551 18.1198 55.1314 17.8724C54.2657 17.7488 53.4 17.5633 52.4724 17.4396C52.1632 17.3777 52.0396 17.1922 52.1014 17.0067C52.1632 16.8212 52.4724 16.6975 52.7198 16.7594C53.4618 16.883 55.7498 17.3159 55.7498 17.3159C55.7498 17.3159 56.1827 18.058 56.3682 18.429C56.5537 18.8 56.6774 19.1092 56.8629 19.4802C56.9247 19.6657 56.8011 19.9131 56.5537 19.9749C56.3682 20.0368 56.1208 19.9131 55.9971 19.6657Z" fill="#87001F"/>
<path d="M57.6026 17.9962C57.2316 17.4396 56.9224 16.9449 56.4895 16.4502C55.6857 16.3884 54.8199 16.2647 53.9542 16.1411C53.7068 16.0792 53.4595 15.9555 53.5213 15.77C53.5213 15.5845 53.7687 15.4608 54.0779 15.5227C54.8199 15.5845 56.9842 15.8937 56.9842 15.8937C56.9842 15.8937 57.9736 17.1305 58.4065 17.8107C58.5302 17.9962 58.4065 18.1817 58.221 18.2435C58.0355 18.3054 57.7263 18.1817 57.6026 17.9962Z" fill="#87001F"/>
<path d="M58.7173 16.3884C58.3463 15.8937 57.8516 15.4609 57.4187 15.028C56.6767 14.9662 55.8728 14.9662 55.0689 14.9043C54.8216 14.9043 54.5742 14.7188 54.5742 14.5951C54.5742 14.4096 54.7597 14.3478 55.0071 14.3478C55.6873 14.4096 57.7279 14.5333 57.7279 14.5333C57.7279 14.5333 58.841 15.5845 59.3357 16.2029C59.3357 16.2029 59.3357 16.2647 59.3975 16.2647C59.4594 16.3884 59.4594 16.5739 59.2739 16.6358C59.1502 16.6358 58.9028 16.5739 58.7173 16.3884Z" fill="#87001F"/>
<path d="M59.3979 14.9043C58.9032 14.4714 58.4704 14.1004 57.9757 13.7294C57.2955 13.7294 56.5534 13.7294 55.8114 13.6676C55.564 13.6676 55.3167 13.5439 55.3167 13.4202C55.2548 13.2965 55.4403 13.1729 55.6877 13.1729C56.3061 13.1729 58.1612 13.2347 58.1612 13.2347C58.1612 13.2347 59.3979 14.1623 59.9545 14.657L60.0163 14.7188C60.0781 14.8425 60.0782 14.9661 59.9545 15.028C59.8308 15.0898 59.5834 15.028 59.3979 14.9043Z" fill="#87001F"/>
<path d="M69.2284 45.1428C69.1666 45.3283 69.0429 45.5138 68.8574 45.5757C68.7337 45.5757 68.6719 45.5139 68.6719 45.452C68.6719 45.3902 68.6719 45.3283 68.6719 45.2665C68.8574 44.71 69.1666 42.9167 69.1666 42.9167C69.1666 42.9167 70.0941 41.9273 70.5888 41.4944C70.7125 41.3707 70.8362 41.4326 70.898 41.5563C70.9599 41.7418 70.898 41.9273 70.7744 42.051C70.4033 42.422 70.0323 42.793 69.6613 43.164C69.5376 43.8442 69.3521 44.4626 69.2284 45.1428Z" fill="#87001F"/>
<path d="M68.302 44.7099C68.2401 44.8954 68.1165 45.1428 67.9309 45.2046C67.8073 45.2665 67.6836 45.2046 67.6836 45.081C67.6836 45.0191 67.6836 45.0191 67.6836 44.9573C67.8073 44.3389 67.9309 42.4838 67.9309 42.4838C67.9309 42.4838 68.9822 41.3089 69.4769 40.7523C69.6006 40.6287 69.7861 40.6287 69.8479 40.8142C69.9097 40.9997 69.8479 41.247 69.7242 41.3707C69.3532 41.8036 68.9822 42.2364 68.5493 42.7311C68.4875 43.3495 68.4256 44.0297 68.302 44.7099Z" fill="#87001F"/>
<path d="M67.0038 44.4008C67.0038 44.5863 66.8183 44.8337 66.6327 44.9573C66.4472 45.0192 66.3236 44.9574 66.3236 44.8337V44.7718C66.3236 44.1535 66.2617 42.2983 66.2617 42.2983C66.2617 42.2983 67.313 40.9379 67.8695 40.3195C67.9932 40.134 68.1787 40.134 68.3024 40.2577C68.426 40.3814 68.3642 40.6906 68.2405 40.8142C67.8077 41.3089 67.4366 41.8655 67.0038 42.3602C67.0038 43.0404 67.0656 43.7206 67.0038 44.4008Z" fill="#87001F"/>
<path d="M65.4555 44.2771C65.4555 44.4626 65.3318 44.7718 65.0845 44.8336C64.899 44.9573 64.7134 44.8955 64.6516 44.7099V44.6481C64.5898 44.0297 64.2188 42.1746 64.2188 42.1746C64.2188 42.1746 65.27 40.6287 65.8265 39.8866C65.9502 39.7011 66.1975 39.6393 66.3212 39.763C66.4449 39.8866 66.4449 40.1958 66.3212 40.3813C65.8884 40.9379 65.4555 41.5562 65.0845 42.1746C65.27 42.9167 65.3937 43.5969 65.4555 44.2771Z" fill="#87001F"/>
<path d="M63.4782 44.0916C63.4782 44.2153 63.54 44.2771 63.54 44.4008C63.6019 44.5863 63.4782 44.8955 63.2308 45.0192C62.9835 45.1429 62.7362 45.081 62.6743 44.8955C62.6743 44.7718 62.6125 44.71 62.6125 44.5863C62.4888 44.0916 61.8086 42.4839 61.8086 42.4839C61.8086 42.4839 62.8598 40.8142 63.4164 39.9485C63.54 39.7012 63.8492 39.6393 64.0347 39.763C64.2202 39.8867 64.2202 40.134 64.0966 40.3814C63.6637 41.0616 63.2308 41.68 62.8598 42.3602C63.1072 42.9786 63.2927 43.5351 63.4782 44.0916Z" fill="#87001F"/>
<path d="M60.324 42.8548C60.7569 43.4732 61.1279 44.0916 61.4371 44.7718C61.5608 44.9573 61.3753 45.2665 61.1897 45.3902C60.9424 45.5757 60.6332 45.5138 60.5714 45.3283C60.324 44.7718 59.2109 43.1022 59.2109 43.1022C59.2109 43.1022 60.1385 41.247 60.695 40.3813C60.8187 40.134 61.1279 40.0103 61.3752 40.134C61.6226 40.2576 61.6844 40.505 61.5608 40.7523C61.0661 41.4326 60.695 42.1128 60.324 42.8548Z" fill="#87001F"/>
<path d="M57.4796 43.5968C58.0362 44.1534 58.5308 44.7717 58.9637 45.3283C59.0874 45.5138 59.0255 45.823 58.7782 46.0085C58.5308 46.194 58.2217 46.194 58.098 46.0085C57.727 45.5138 56.3047 43.9678 56.3047 43.9678C56.3047 43.9678 57.1086 42.0509 57.6033 41.0615C57.727 40.8141 58.0361 40.6286 58.2835 40.6905C58.5308 40.7523 58.6545 40.9996 58.5308 41.3088C58.1598 42.1127 57.7888 42.8548 57.4796 43.5968Z" fill="#87001F"/>
<path d="M55.3147 42.2982C55.0056 43.1021 54.7582 43.8442 54.5108 44.6481C55.1911 45.1428 55.8094 45.6993 56.4278 46.194C56.6133 46.3795 56.5515 46.6269 56.3041 46.8742C56.0568 47.0597 55.6858 47.1216 55.5621 46.936C55.0674 46.5032 53.3359 45.3901 53.3359 45.3901C53.3359 45.3901 53.8925 43.164 54.3253 42.1746C54.449 41.9272 54.7582 41.7417 55.0674 41.7417C55.2529 41.8035 55.4384 42.0509 55.3147 42.2982Z" fill="#87001F"/>
<path d="M51.6658 43.1021C51.9749 43.1021 52.1605 43.3495 52.0986 43.5968C51.9131 44.4007 51.7276 45.1428 51.6039 45.9467C52.4078 46.3795 53.1499 46.8124 53.8301 47.2452C54.0156 47.3689 54.0156 47.6781 53.7682 47.8636C53.5209 48.0491 53.1499 48.111 52.9643 47.9873C52.346 47.6163 50.3672 46.6269 50.3672 46.6269C50.3672 46.6269 50.6764 44.5244 50.9237 43.535C51.0474 43.2877 51.3566 43.0403 51.6658 43.1021Z" fill="#87001F"/>
<path d="M48.8845 45.081C48.8227 45.8849 48.7608 46.6269 48.699 47.369C49.5647 47.74 50.3686 48.111 51.1725 48.4821C51.4199 48.6057 51.4199 48.8531 51.2343 49.1004C51.0488 49.286 50.6778 49.4096 50.4304 49.286C49.7502 48.9768 47.5859 48.1729 47.5859 48.1729C47.5859 48.1729 47.5859 46.1941 47.7096 45.2047C47.7096 44.9573 48.0188 44.71 48.328 44.71C48.699 44.6481 48.9463 44.8337 48.8845 45.081Z" fill="#87001F"/>
<path d="M45.9796 46.7506C45.9796 47.4927 46.1033 48.1729 46.1651 48.8531C47.0927 49.1004 47.9584 49.4096 48.7623 49.7188C49.0096 49.8425 49.1333 50.0898 48.9478 50.2753C48.7623 50.4609 48.4531 50.5845 48.1439 50.4609C47.4019 50.2135 45.1139 49.5333 45.1139 49.5333C45.1139 49.5333 44.8047 47.74 44.8047 46.8125C44.8047 46.5651 45.052 46.3177 45.3612 46.3177C45.7322 46.3177 45.9796 46.5033 45.9796 46.7506Z" fill="#87001F"/>
<path d="M43.3834 48.5439C43.5071 49.2241 43.6926 49.9043 43.9399 50.5227C44.8675 50.7082 45.7332 50.9555 46.5989 51.141C46.8463 51.2029 47.0318 51.4502 46.9081 51.6357C46.7845 51.8213 46.4753 51.9449 46.1661 51.8831C45.424 51.6976 43.0742 51.141 43.0742 51.141C43.0742 51.141 42.5177 49.5333 42.3322 48.7294C42.2703 48.482 42.4558 48.2965 42.765 48.2347C43.0742 48.111 43.3834 48.2965 43.3834 48.5439Z" fill="#87001F"/>
<path d="M41.3424 50.2754C41.4661 50.6464 41.6516 50.9556 41.8371 51.3266C41.9608 51.574 42.0845 51.8213 42.2081 52.0687C43.0739 52.1923 43.9396 52.3778 44.8671 52.5015C45.1763 52.5634 45.3 52.7489 45.2382 52.9344C45.1763 53.1199 44.8671 53.2436 44.6198 53.1817C43.8777 53.0581 41.5898 52.6252 41.5898 52.6252C41.5898 52.6252 41.1569 51.8831 40.9714 51.5121C40.7859 51.1411 40.6622 50.8319 40.4767 50.4609C40.4149 50.2754 40.5385 50.028 40.7859 49.9662C40.9714 49.9662 41.2187 50.0899 41.3424 50.2754Z" fill="#87001F"/>
<path d="M39.7326 52.0067C40.1036 52.5633 40.4128 53.058 40.8456 53.5527C41.6495 53.6145 42.5153 53.7382 43.381 53.8618C43.6283 53.9237 43.8757 54.0473 43.8138 54.2329C43.8138 54.4184 43.5665 54.5421 43.2573 54.4802C42.5153 54.4184 40.3509 54.1092 40.3509 54.1092C40.3509 54.1092 39.3616 52.8724 38.9287 52.1922C38.805 52.0067 38.9287 51.8212 39.1142 51.7594C39.2997 51.6975 39.6089 51.7594 39.7326 52.0067Z" fill="#87001F"/>
<path d="M38.6195 53.6145C38.9906 54.1092 39.4853 54.5421 39.9181 54.975C40.6602 55.0368 41.4641 55.0368 42.268 55.0986C42.5153 55.0986 42.7626 55.2842 42.7626 55.4078C42.7626 55.5933 42.5771 55.6552 42.3298 55.6552C41.6496 55.5933 39.6089 55.4697 39.6089 55.4697C39.6089 55.4697 38.4959 54.4184 38.0012 53.8001C38.0012 53.8001 38.0012 53.7382 37.9393 53.7382C37.8775 53.6145 37.8775 53.429 38.063 53.3672C38.1867 53.3672 38.434 53.429 38.6195 53.6145Z" fill="#87001F"/>
<path d="M37.9402 55.0986C38.4349 55.5315 38.8678 55.9025 39.3625 56.2735C40.0427 56.2735 40.7848 56.2735 41.5268 56.3354C41.7742 56.3354 42.0215 56.459 42.0215 56.5827C42.0834 56.7064 41.8978 56.8301 41.6505 56.8301C41.0321 56.8301 39.177 56.7682 39.177 56.7682C39.177 56.7682 37.9402 55.9025 37.3837 55.346L37.3219 55.2841C37.26 55.1605 37.26 55.0368 37.3837 54.9749C37.5074 54.9131 37.7547 54.9749 37.9402 55.0986Z" fill="#87001F"/>
<path d="M86.1111 23.1286H86.0493L83.0192 26.5297L82.5246 23.4997L74.9185 24.1799L74.4857 25.0456C73.8673 24.6746 73.0634 24.4891 72.2595 24.4891C72.074 24.4891 71.9503 24.4891 71.7648 24.4891L67.0034 24.9219C65.4574 25.0456 63.726 25.8495 62.3037 27.0244C61.4998 26.035 60.1394 25.5403 58.6553 25.664L53.8938 26.0968L27.2419 28.5703L30.2101 25.2929L16.8532 26.5297L16.0493 28.1375L8.38143 28.8177L4.98037 35.8671L6.58815 35.7435L0.960938 47.2452L9.61818 46.4413L11.3496 42.8548L13.4521 49.1004L21.6147 48.3583L20.6253 45.452L23.6553 45.2046L27.4274 37.4749L27.0564 44.8954L34.044 44.277H34.1058L35.2189 42.6693L35.1571 44.2152L42.1447 43.5968H42.2065L43.8761 41.1233C43.938 41.247 43.9998 41.3088 44.0617 41.4325C44.8037 42.6693 46.226 43.2258 47.9574 43.1021L52.7189 42.6693C54.2648 42.5456 56.0581 41.7417 57.4185 40.505C58.0988 41.4325 59.2118 41.9272 60.5723 41.9272C60.7578 41.9272 60.9433 41.9272 61.067 41.9272L65.8284 41.4944C66.756 41.4325 67.7454 41.1233 68.7348 40.5668L68.4256 41.247L77.0829 40.4431L77.5776 39.4537L78.0723 42.4838L80.1747 40.1339L87.9044 39.4537L96.1906 22.5103L86.1111 23.1286Z" fill="#62000A"/>
<path d="M86.666 23.8708H86.6042L82.2755 28.6322L81.5335 24.3036L75.5971 24.8602L74.7314 26.5916C74.6695 26.5298 74.6695 26.4061 74.6077 26.3443C74.1748 25.6022 73.3091 25.1694 72.196 25.1694C72.0724 25.1694 71.9487 25.1694 71.7632 25.1694L67.0017 25.6022C65.1466 25.7877 63.1059 26.9626 61.8074 28.6322C61.8074 28.1994 61.6837 27.8284 61.4363 27.5192C61.0035 26.7771 60.1377 26.3443 59.0247 26.3443C58.901 26.3443 58.7773 26.3443 58.5918 26.3443L53.8303 26.7771C52.9027 26.839 51.8515 27.21 50.924 27.8284L51.4805 27.0245L45.2967 27.7047L42.2667 32.2188L42.4522 27.952L37.196 28.4467L34.166 32.9609L34.3515 28.6941L24.3339 29.6216L27.302 26.3443L17.4081 27.2718L16.6042 28.8796L8.93633 29.5598L6.64834 34.2595L8.25612 34.1358L2.62891 45.6375L8.68897 45.081L11.348 39.5775L14.0688 47.5545L19.9434 46.998L18.954 44.0916L22.7879 43.7206L27.6112 33.8266L28.5388 33.7648L28.0441 43.2877L33.3003 42.793L36.3303 38.2789L36.1448 42.4838L41.3392 41.9891L45.6678 35.6199L44.8639 37.2895C44.3073 38.4026 44.3074 39.5156 44.8021 40.3195C45.2968 41.0616 46.1006 41.4944 47.2137 41.4944C47.3374 41.4944 47.5229 41.4944 47.6466 41.4944L52.4081 41.0616C54.2632 40.8761 56.3657 39.6393 57.6024 38.0315C57.6024 38.4644 57.7261 38.8354 57.9734 39.1446C58.4681 40.0103 59.5194 40.3814 60.818 40.2577L65.5794 39.8248C67.8674 39.6393 70.4646 37.7842 71.5158 35.6817L74.484 29.5598L74.9787 29.498L70.1554 39.392L76.2155 38.7736L77.9469 35.2489L78.689 39.392L82.5847 35.0633L80.977 38.3407L87.037 37.7842L94.1483 23.1906L86.666 23.8708ZM68.4858 30.0545L65.9505 35.3107L64.219 35.4962L66.7543 30.24L68.4858 30.0545ZM55.3144 31.2294L52.7791 36.4856L51.0476 36.6711L53.583 31.4149L55.3144 31.2294ZM18.1501 41.4326L16.9134 37.846L23.4063 30.6729L18.1501 41.4326ZM15.1819 31.9096L16.1713 31.786L14.0688 34.1358L15.1819 31.9096Z" fill="#E4007F"/>
<path d="M25.4467 27.2717L17.9025 27.9519L16.4184 31.0438L18.0262 30.9201L11.7188 37.9078L14.6869 46.6887L19.0156 46.3177L16.0474 37.6604L25.4467 27.2717Z" fill="white"/>
<path d="M86.9782 24.6128L81.8457 30.3019L80.9182 25.1693L76.0948 25.6022L74.6107 28.6941L76.2804 28.5704L71.457 38.4644L75.7238 38.0934L78.321 32.8372L79.1249 37.7842L85.556 30.6729L82.2168 37.475L86.5454 37.104L92.9146 24.0563L86.9782 24.6128Z" fill="white"/>
<path d="M24.3966 30.3636L18.0273 43.4114L22.356 42.9785L28.7252 29.9308L24.3966 30.3636Z" fill="white"/>
<path d="M9.49572 30.24L8.01162 33.3319L9.55756 33.2082L3.99219 44.6481L8.32081 44.2771L15.4321 29.6835L9.49572 30.24Z" fill="white"/>
<path d="M58.7178 27.2099L53.9564 27.6428C52.0394 27.8283 49.8133 29.3124 48.8239 31.1057L45.6701 37.5986C44.7426 39.5156 45.6701 40.876 47.6489 40.6905L52.4104 40.2576C54.4511 40.0721 56.8009 38.4025 57.7284 36.4855L60.7585 30.3018C61.686 28.3848 60.7585 27.0244 58.7178 27.2099ZM53.2761 37.1657L49.8132 37.4749L53.1525 30.6728L56.6154 30.3636L53.2761 37.1657Z" fill="white"/>
<path d="M71.8897 25.9732L67.1282 26.4061C65.2113 26.5916 62.9851 28.0757 61.9957 29.869L58.842 36.3619C57.9144 38.217 58.842 39.6393 60.8208 39.4538L65.5823 39.0209C67.6229 38.8354 69.9728 37.1658 70.9003 35.2488L73.9303 29.0651C74.7961 27.2099 73.9304 25.7877 71.8897 25.9732ZM66.3862 35.9909L62.9233 36.3001L66.2625 29.4979L69.7254 29.1887L66.3862 35.9909Z" fill="white"/>
<path d="M45.6711 28.3848L41.3425 34.8159L41.6517 28.7558L37.6323 29.1269L33.3037 35.558L33.6128 29.4979L29.2842 29.9308L27.7383 33.0226L29.4079 32.8371L28.975 42.3601L32.9945 41.9891L37.3231 35.6198L37.0139 41.618L41.0333 41.247L49.9998 28.0138L45.6711 28.3848Z" fill="white"/>
<path d="M9.55766 33.2081L12.5258 31.4767L8.75376 31.7859L8.01172 33.3318L9.55766 33.2081Z" fill="#DCDDDD"/>
<path d="M18.0297 30.9202L21.8636 29.0651L17.1639 29.4979L16.4219 31.0439L18.0297 30.9202Z" fill="#DCDDDD"/>
<path d="M25.4471 27.2717L21.8605 29.065L13.9453 37.8459L16.8517 46.5032L14.6874 46.6887L19.016 46.3177L16.0478 37.6604L25.4471 27.2717Z" fill="#DCDDDD"/>
<path d="M77.7645 29.7452L74.3634 36.7329L71.457 38.4643L75.7238 38.0933L78.321 32.8371L77.7645 29.7452Z" fill="#DCDDDD"/>
<path d="M79.9894 32.3425L81.8445 30.3018L80.917 25.1693L79 26.5916L79.9894 32.3425Z" fill="#DCDDDD"/>
<path d="M90.0063 25.7877L85.183 35.7436L82.2148 37.475L86.5435 37.104L92.9127 24.0563L90.0063 25.7877Z" fill="#DCDDDD"/>
<path d="M87.9059 25.8495L80.4236 34.1357L79.125 37.7841L85.5561 30.6728L87.9059 25.8495Z" fill="#DCDDDD"/>
<path d="M25.757 31.7241L20.9337 41.6181L18.0273 43.4114L22.356 42.9785L28.7252 29.9308L25.757 31.7241Z" fill="#DCDDDD"/>
<path d="M12.5257 31.4768L6.89854 42.9167L3.99219 44.6481L8.32081 44.2771L15.4321 29.6835L12.5257 31.4768Z" fill="#DCDDDD"/>
<path d="M39.0547 38.217L41.3427 34.8159L41.6519 28.7559L39.4257 30.4873L39.0547 38.217Z" fill="#DCDDDD"/>
<path d="M37.4444 32.4043L31.879 40.6287L28.9727 42.3601L32.9921 41.9891L37.3207 35.6198L37.4444 32.4043Z" fill="#DCDDDD"/>
<path d="M46.782 29.8071L39.9181 39.8866L37.0117 41.618L41.0312 41.247L49.9976 28.0138L46.782 29.8071Z" fill="#DCDDDD"/>
<path d="M29.4079 32.8371L31.3248 31.2294L28.4803 31.4767L27.7383 33.0227L29.4079 32.8371Z" fill="#DCDDDD"/>
<path d="M76.279 28.5704L78.9998 26.5916L75.4751 26.9007L74.6094 28.694L76.279 28.5704Z" fill="#DCDDDD"/>
<path d="M30.9531 38.9591L33.303 35.558L33.6121 29.4979L31.3242 31.2294L30.9531 38.9591Z" fill="#DCDDDD"/>
<path d="M53.8939 29.1269L50.9875 30.8584L46.9062 39.2682L49.8126 37.475L53.09 30.6728L56.5529 30.3637L59.4592 28.6322L53.8939 29.1269Z" fill="#DCDDDD"/>
<path d="M60.7596 27.8284L59.461 28.5704L55.3797 36.9185L52.4733 38.6499L46.8461 39.1446L45.6094 39.8867C45.9804 40.3814 46.6606 40.6287 47.65 40.5051L52.4115 40.0722C52.5352 40.0722 52.597 40.0722 52.7207 40.0103C54.6995 39.7012 56.8638 38.0934 57.7295 36.3001L60.7596 30.1164C61.2543 29.2506 61.1924 28.3849 60.7596 27.8284Z" fill="#DCDDDD"/>
<path d="M67.0033 27.952L64.0969 29.6835L60.0156 38.0316L62.922 36.3001L66.2612 29.498L69.7241 29.1888L72.6305 27.3955L67.0033 27.952Z" fill="#DCDDDD"/>
<path d="M73.9275 26.6534L72.6289 27.3955L68.5477 35.7435L65.6413 37.475L60.0141 37.9697L58.7773 38.7117C59.1484 39.2064 59.8286 39.4538 60.818 39.3301L65.5795 38.8973C65.7031 38.8973 65.765 38.8973 65.8887 38.8354C67.8674 38.5262 70.0318 36.9185 70.8975 35.1252L73.9275 28.9414C74.3604 28.0757 74.3604 27.21 73.9275 26.6534Z" fill="#DCDDDD"/>
</svg>
