<svg width="127" height="30" viewBox="0 0 127 30" fill="none" xmlns="http://www.w3.org/2000/svg">
<g clip-path="url(#clip0_2521_53342)">
<path d="M72.3543 1.65332H70.043V18.32H72.3543V1.65332Z" fill="#696B68"/>
<path d="M66.5767 5.66512H64.1172V7.9955H66.5767V18.3495H68.9474V1.65332H66.5767V5.66512Z" fill="#696B68"/>
<path d="M107.44 1.65332H104.773V10.9159H107.44V7.58252H109.663V5.22264H107.44V1.65332Z" fill="#696B68"/>
<path d="M100.923 9.70649C101.753 8.91003 102.197 7.93658 102.197 6.78614C102.197 5.84218 101.901 5.01623 101.308 4.27876L101.249 4.21977H102.73V2.15487H99.1745V0.856934H96.4778V2.18437H92.9219V4.24926H94.4035L94.3739 4.30826C93.7812 5.01623 93.4849 5.87168 93.4849 6.81564C93.4849 7.96608 93.8998 8.93953 94.7591 9.73599C95.5889 10.5325 96.6556 10.9454 97.8706 10.9454C99.0263 10.8864 100.063 10.503 100.923 9.70649ZM95.737 6.78614C95.737 6.19617 95.9444 5.66519 96.3593 5.28171C96.7742 4.86873 97.2483 4.66224 97.8113 4.66224C98.3744 4.66224 98.8781 4.86873 99.2634 5.28171C99.6782 5.69469 99.8857 6.19617 99.8857 6.78614C99.8857 7.37611 99.6782 7.87758 99.2634 8.29056C98.8485 8.70354 98.3744 8.91003 97.8113 8.91003C97.2483 8.91003 96.7445 8.70354 96.3593 8.29056C95.9444 7.87758 95.737 7.37611 95.737 6.78614Z" fill="#696B68"/>
<path d="M53.4777 1.65332H51.1367V13.2167H53.4777V1.65332Z" fill="#696B68"/>
<path d="M47.7 9.61804C48.6483 8.70358 49.152 7.58264 49.152 6.28471C49.152 4.98677 48.6779 3.86583 47.7 2.95137C46.7518 2.03692 45.5664 1.56494 44.1737 1.56494C42.8106 1.56494 41.6252 2.03692 40.6473 2.95137C39.6991 3.86583 39.1953 4.98677 39.1953 6.28471C39.1953 7.58264 39.6694 8.70358 40.6473 9.61804C41.5956 10.5325 42.7809 10.975 44.1737 10.975C45.5664 10.975 46.7518 10.503 47.7 9.61804ZM41.7734 6.28471C41.7734 5.57674 42.0105 4.98677 42.4846 4.51479C42.9587 4.04282 43.5217 3.80683 44.2033 3.80683C44.8552 3.80683 45.4479 4.04282 45.922 4.51479C46.3962 4.98677 46.6332 5.57674 46.6332 6.28471C46.6332 6.96317 46.3962 7.55314 45.922 8.02512C45.4479 8.4971 44.8849 8.73308 44.2033 8.73308C43.5514 8.73308 42.9587 8.4971 42.4846 8.02512C42.0105 7.55314 41.7734 6.96317 41.7734 6.28471Z" fill="#696B68"/>
<path d="M120.359 15.1638V10.916H117.87V15.1638H116.062V10.916H113.573V15.1638H110.402V17.6122H126.552V15.1638H120.359Z" fill="#696B68"/>
<path d="M43.6716 15.4881V14.7212V13.0103H42.3084H40.9453V14.7212V16.4321C40.9453 17.199 41.5676 17.789 42.3084 17.789H53.5394V15.4881H43.6716Z" fill="#696B68"/>
<path d="M82.9627 4.24919V1.94831H75.4062V8.26099V8.99845V12.1253C75.4062 12.8333 75.9693 13.3937 76.6805 13.3937H77.2139H77.9547H84.0591V18.32H86.4298V7.9955H87.5262V18.3495H89.8376V1.65332H87.5262V5.63562H86.4298V1.65332H84.0591V11.0928H77.9547V8.99845V8.26099V4.24919H82.9627Z" fill="#696B68"/>
<path d="M106.165 12.0369H101.749H94.9336V14.3378H101.749H104.564V18.5855H107.32V13.1578C107.32 12.5383 106.816 12.0369 106.165 12.0369Z" fill="#696B68"/>
<path d="M123.826 1.8894H119.263H112.121V4.27878H119.263H122.256V13.2168H125.011V3.06935C125.041 2.42038 124.478 1.8894 123.826 1.8894Z" fill="#696B68"/>
<path d="M39.6992 20.6799H41.2994V27.9366H39.6992V20.6799Z" fill="#696B68"/>
<path d="M42.7227 20.6799H44.3228L47.3751 25.5472H47.4047V20.6799H48.916V27.9366H47.3158L44.2932 23.0693H44.2636V27.9366H42.7523V20.6799H42.7227Z" fill="#696B68"/>
<path d="M54.545 25.6357C54.545 25.9307 54.5154 26.1962 54.4561 26.4616C54.3969 26.7271 54.2783 26.9926 54.1302 27.2286C53.9524 27.4646 53.7153 27.6711 53.3894 27.8481C53.0634 27.9956 52.6485 28.0841 52.1151 28.0841C51.7892 28.0841 51.4928 28.0546 51.2261 27.9661C50.9298 27.8776 50.6927 27.7301 50.4557 27.5531C50.2186 27.3761 50.0408 27.1401 49.9223 26.8451C49.8037 26.5501 49.7148 26.2257 49.7148 25.8422V25.2227H51.1669V25.5472C51.1669 25.9307 51.2261 26.2552 51.3743 26.4321C51.4928 26.6386 51.7595 26.7271 52.1151 26.7271C52.3226 26.7271 52.4707 26.6976 52.5893 26.6091C52.7078 26.5501 52.7967 26.4321 52.856 26.3437C52.9152 26.2257 52.9449 26.1077 52.9449 25.9897C52.9449 25.8717 52.9745 25.7242 52.9745 25.5472V20.6799H54.5747V25.6357H54.545Z" fill="#696B68"/>
<path d="M55.9688 20.6799H61.4212V22.0074H57.5689V23.5708H61.0953V24.8097H57.5689V26.5796H61.5101V27.9366H55.9688V20.6799Z" fill="#696B68"/>
<path d="M71.6136 25.1932C71.6136 26.1667 71.3469 26.8746 70.8135 27.3761C70.2801 27.8776 69.5096 28.1136 68.5021 28.1136C67.5242 28.1136 66.7537 27.8776 66.1907 27.3761C65.6573 26.8746 65.3906 26.1667 65.3906 25.1932V20.6799H66.9908V25.1932C66.9908 25.4292 67.0204 25.6062 67.0501 25.8127C67.0797 25.9897 67.1686 26.1667 67.2575 26.3141C67.376 26.4616 67.5242 26.5796 67.7316 26.6681C67.9391 26.7566 68.1761 26.7861 68.5021 26.7861C69.0651 26.7861 69.4504 26.6681 69.6874 26.4026C69.9245 26.1667 70.0134 25.7537 70.0134 25.1932V20.6799H71.6136V25.1932Z" fill="#696B68"/>
<path d="M73.0078 20.6799H74.608L77.6602 25.5472H77.6898V20.6799H79.2011V27.9366H77.6009L74.5784 23.0693H74.5487V27.9366H73.0374V20.6799H73.0078Z" fill="#696B68"/>
<path d="M80.5625 20.6799H82.1627V27.9366H80.5625V20.6799Z" fill="#696B68"/>
<path d="M86.9634 27.9366H85.1558L82.7852 20.6799H84.4446L86.0744 25.7832H86.1041L87.7339 20.6799H89.3933L86.9634 27.9366Z" fill="#696B68"/>
<path d="M90.0156 20.6799H95.4681V22.0074H91.6158V23.5708H95.1422V24.8097H91.6158V26.5796H95.557V27.9366H90.0156V20.6799Z" fill="#696B68"/>
<path d="M101.129 27.9366C101.129 27.1696 101.129 26.7566 101.04 26.1962C100.981 25.8127 100.863 25.5177 100.685 25.3407C100.507 25.1637 100.211 25.0752 99.8254 25.0752H98.2252V27.9071H96.625V20.6799H100.566C100.892 20.6799 101.188 20.7389 101.455 20.8274C101.722 20.9159 101.959 21.0634 102.137 21.2699C102.315 21.4469 102.463 21.6829 102.552 21.9189C102.641 22.1549 102.7 22.4203 102.7 22.6858C102.7 23.1283 102.611 23.5118 102.433 23.8068C102.255 24.1018 101.959 24.3377 101.544 24.5147V24.5442C101.9 24.6327 102.166 24.8392 102.315 25.1342C102.463 25.4292 102.759 25.9307 102.759 27.9661H101.129V27.9366ZM98.2548 23.9543H100.003C100.359 23.9543 100.655 23.8658 100.833 23.7183C101.011 23.5413 101.1 23.2758 101.1 22.9218C101.1 22.5678 101.011 22.3318 100.833 22.1549C100.655 21.9779 100.388 21.9189 100.003 21.9189H98.2548V23.9543Z" fill="#696B68"/>
<path d="M105.1 25.5177C105.1 25.9602 105.248 26.3141 105.544 26.5206C105.84 26.7271 106.226 26.8451 106.7 26.8451C106.848 26.8451 107.026 26.8451 107.174 26.8156C107.322 26.7861 107.5 26.7271 107.648 26.6681C107.796 26.6091 107.915 26.5206 108.004 26.4026C108.092 26.2846 108.122 26.1371 108.122 25.9602C108.122 25.7832 108.092 25.6652 108.004 25.5472C107.915 25.4292 107.796 25.3407 107.648 25.2522C107.5 25.1637 107.322 25.1047 107.144 25.0457C106.966 24.9867 106.729 24.9277 106.433 24.8687C106.226 24.8097 106.077 24.7802 105.959 24.7507C105.633 24.6622 105.366 24.5737 105.1 24.4852C104.862 24.3967 104.625 24.2787 104.418 24.1017C104.211 23.9543 104.062 23.7478 103.944 23.5118C103.825 23.2758 103.766 23.0103 103.766 22.6858C103.766 22.3318 103.855 22.0074 104.003 21.7419C104.151 21.4764 104.359 21.2404 104.625 21.0634C104.892 20.8864 105.188 20.7389 105.514 20.6504C105.84 20.5619 106.166 20.5029 106.522 20.5029C106.907 20.5029 107.292 20.5324 107.648 20.6209C108.004 20.7094 108.3 20.8569 108.567 21.0339C108.833 21.2109 109.041 21.4764 109.219 21.7714C109.367 22.0664 109.456 22.4203 109.456 22.8333H107.915C107.885 22.4203 107.766 22.1548 107.5 21.9779C107.233 21.8009 106.907 21.7419 106.463 21.7419C106.166 21.7419 105.9 21.8009 105.692 21.9484C105.485 22.0959 105.366 22.3023 105.366 22.5678C105.366 22.7153 105.396 22.8333 105.455 22.9218C105.514 23.0103 105.603 23.0693 105.751 23.1578C105.9 23.2168 106.077 23.2758 106.285 23.3643C106.522 23.4233 106.877 23.5413 107.381 23.6593C107.411 23.6593 107.47 23.6888 107.529 23.6888C107.559 23.6888 107.559 23.6888 107.589 23.6888C107.826 23.7478 108.063 23.8068 108.27 23.8953C108.478 23.9543 108.685 24.0723 108.922 24.2492C109.159 24.3967 109.337 24.6032 109.485 24.8687C109.633 25.1342 109.722 25.4587 109.722 25.8127C109.722 26.4911 109.456 27.0516 108.922 27.4941C108.389 27.9366 107.648 28.143 106.67 28.143C106.255 28.143 105.87 28.0841 105.485 27.9956C105.1 27.9071 104.774 27.7301 104.477 27.5236C104.181 27.3171 103.973 27.0516 103.796 26.6976C103.618 26.3731 103.559 25.9897 103.559 25.5472H105.1V25.5177Z" fill="#696B68"/>
<path d="M110.641 20.6799H112.241V27.9366H110.641V20.6799Z" fill="#696B68"/>
<path d="M115.263 22.0074H113.07V20.6799H119.056V22.0074H116.863V27.9366H115.263V22.0074Z" fill="#696B68"/>
<path d="M122.079 25.1047L119.383 20.6799H121.19L122.909 23.5413L124.598 20.6799H126.376L123.68 25.1637V27.9366H122.079V25.1047Z" fill="#696B68"/>
<path d="M62.5741 4.27887L65.4782 4.24937V1.94849H57.4476V4.24937H59.9368V4.27887C59.996 5.19332 60.0849 10.3556 56.5586 10.916V13.2169C56.5586 13.2169 56.5882 13.2169 56.6179 13.2169C57.092 13.2169 59.6108 13.0989 61.2406 10.739L61.2703 10.7095L61.2999 10.739C62.9297 13.0989 65.4189 13.2169 65.9227 13.2169C65.9523 13.2169 65.9819 13.2169 65.9819 13.2169V10.916C62.426 10.3851 62.5149 5.22282 62.5741 4.27887Z" fill="#696B68"/>
<path d="M29.7446 11.2405H22.2178C21.6844 11.2405 21.2695 11.6535 21.2695 12.1844V16.8747V20.621H27.0776H29.7446C30.2187 20.621 30.6336 20.267 30.6929 19.7951C30.6929 19.7656 30.6929 19.7361 30.6929 19.6771V16.8747V12.1844C30.6929 11.683 30.278 11.2405 29.7446 11.2405Z" fill="#00A5B1"/>
<path d="M30.6929 0.945418C30.6929 0.414444 30.278 0.00146484 29.7446 0.00146484H22.2178C21.6844 0.00146484 21.2695 0.414444 21.2695 0.945418V8.43804C21.2695 8.96902 21.6844 9.382 22.2178 9.382H29.7446C30.278 9.382 30.6929 8.96902 30.6929 8.43804V0.945418Z" fill="#00A5B1"/>
<path d="M9.97802 0.945418C9.97802 0.414444 9.56315 0.00146484 9.02976 0.00146484H1.50295C0.969551 0.00146484 0.554688 0.414444 0.554688 0.945418V8.43804C0.554688 8.96902 0.969551 9.382 1.50295 9.382H9.02976C9.56315 9.382 9.97802 8.96902 9.97802 8.43804V0.945418Z" fill="#E8447E"/>
<path d="M9.02976 11.2405H1.50295C0.999184 11.2405 0.554688 11.6535 0.554688 12.1844V20.621V29.0576C0.554688 29.5886 0.969551 30.0015 1.50295 30.0015H9.02976C9.56315 30.0015 9.97802 29.5886 9.97802 29.0576V20.621V12.1844C9.97802 11.6535 9.56315 11.2405 9.02976 11.2405Z" fill="#E8447E"/>
<path d="M21.2687 20.6208H12.7936C12.2899 20.6208 11.875 21.0338 11.875 21.5648V29.0574C11.875 29.5884 12.2899 30.0014 12.8233 30.0014H21.2983V20.6208" fill="#00A5B1"/>
<path d="M30.6929 19.7949C30.6336 20.2669 30.2484 20.6209 29.7446 20.6209H27.0776H21.2695V29.9129V30.0014L29.8928 21.4173L30.0706 21.2404L30.1891 21.1224C30.3373 20.9749 30.4262 20.7979 30.5151 20.6209C30.6336 20.3849 30.6929 20.1194 30.6929 19.8539C30.6929 19.8244 30.6929 19.8244 30.6929 19.7949Z" fill="#00919B"/>
</g>
<defs>
<clipPath id="clip0_2521_53342">
<rect width="126" height="30" fill="white" transform="translate(0.554688 0.00146484)"/>
</clipPath>
</defs>
</svg>
