<svg width="70" height="70" viewBox="0 0 70 70" fill="none" xmlns="http://www.w3.org/2000/svg">
<g clip-path="url(#clip0_2521_55345)">
<path d="M0 34.9925C0 54.2992 15.7023 70.0015 34.9911 70.0015C54.2977 70.0015 70 54.2992 70 34.9925C70 15.7037 54.2977 0.00146484 34.9911 0.00146484C15.7023 0.00146484 0 15.7037 0 34.9925Z" fill="white"/>
<path d="M1.03516 34.9925C1.03516 16.2747 16.2735 1.03638 35.0092 1.03638C53.7448 1.03638 68.9832 16.2747 68.9832 35.0104C68.9832 53.746 53.7448 68.9844 35.0092 68.9844C16.2735 68.9665 1.03516 53.7282 1.03516 34.9925Z" fill="#003378"/>
<path d="M35.0106 59.7593C21.3425 59.7593 10.2617 48.6785 10.2617 35.0104C10.2617 21.3423 21.3425 10.2437 35.0106 10.2437C48.6787 10.2437 59.7774 21.3245 59.7774 35.0104C59.7595 48.6785 48.6787 59.7593 35.0106 59.7593Z" fill="white"/>
<path d="M6.37109 43.0399C6.37109 43.5752 6.79934 44.0035 7.3168 44.0035C7.8521 44.0035 8.2625 43.5752 8.2625 43.0399C8.2625 42.5225 7.83426 42.0942 7.3168 42.0942C6.79934 42.0942 6.37109 42.5225 6.37109 43.0399Z" fill="white"/>
<path d="M63.9857 43.1827C63.9857 43.718 63.5575 44.1463 63.0221 44.1463C62.4868 44.1463 62.0586 43.718 62.0586 43.1827C62.0586 42.6474 62.4868 42.2192 63.0221 42.2192C63.5575 42.2013 63.9857 42.6296 63.9857 43.1827Z" fill="white"/>
<path d="M9.13393 26.5882C8.7949 27.6588 7.65292 28.1228 6.35035 27.7124C4.74443 27.1949 4.79796 26.2135 4.95855 25.6782C5.1013 25.25 5.36895 24.9109 5.77935 24.6968C6.29682 24.4292 6.95702 24.4113 7.65292 24.6254C8.36666 24.8574 8.83059 25.1786 9.06256 25.6068C9.27668 26.0172 9.2053 26.3919 9.13393 26.5882ZM7.74214 23.6084C7.08193 23.3942 6.43956 23.4299 5.90426 23.7154C5.31542 24.0188 4.86934 24.5897 4.61953 25.3749C4.38756 26.1421 4.42325 26.8559 4.72659 27.4447C5.02993 28.0335 5.58308 28.4796 6.24328 28.6937C7.42096 29.0685 8.91981 28.6759 9.45511 26.9629C9.68708 26.2135 9.65139 25.5176 9.33021 24.8931C9.00903 24.2864 8.43803 23.8403 7.74214 23.6084Z" fill="white"/>
<path d="M14.4546 17.3989L13.5624 16.5602L13.7409 16.3818L14.1513 16.6495C14.633 16.8993 15.0078 16.6316 15.1683 16.4532C15.5252 16.0785 15.4717 15.6324 15.2397 15.4183C15.0078 15.2041 14.7401 15.0792 14.1156 15.1863L13.7409 15.2398C12.8844 15.3647 12.3491 15.2577 11.9565 14.8651C11.4212 14.3477 11.4747 13.5447 12.0993 12.8845C12.6346 12.3313 12.9201 12.2957 12.9201 12.2957L13.6873 13.0272L13.5089 13.2235C13.5089 13.2235 13.3305 12.9915 13.0093 12.9559C12.8487 12.938 12.6167 12.9559 12.3491 13.2235C12.0636 13.5269 12.0457 13.8837 12.2955 14.1514C12.474 14.312 12.6881 14.3833 13.3662 14.2763L13.5803 14.2406C14.5617 14.0978 15.0791 14.1871 15.5252 14.6153C15.7215 14.8116 16.0427 15.222 15.9178 15.8644C15.8642 16.2034 15.6858 16.5067 15.4003 16.8101C15.1505 17.0599 14.7401 17.3989 14.4546 17.3989Z" fill="white"/>
<path d="M56.4375 18.5409L57.4546 17.845L57.5973 18.0591L57.2583 18.3981C56.9193 18.8263 57.0977 19.2367 57.2404 19.433C57.5259 19.8613 57.972 19.897 58.2397 19.7185C58.4895 19.5401 58.6679 19.3081 58.7036 18.6658L58.7215 18.291C58.775 17.4346 59.0069 16.9349 59.4709 16.6138C60.0776 16.2034 60.8627 16.4175 61.3801 17.1669C61.8084 17.7914 61.7905 18.0948 61.7905 18.0948L60.9162 18.7014L60.7556 18.4695C60.7556 18.4695 61.0233 18.3446 61.1303 18.0234C61.1839 17.8806 61.2195 17.6308 61.0054 17.3275C60.7735 16.9706 60.4166 16.8814 60.1132 17.0777C59.8991 17.2204 59.7921 17.4167 59.7564 18.1126L59.7385 18.3446C59.685 19.3438 59.4709 19.8256 58.9534 20.1646C58.7215 20.3252 58.2397 20.5572 57.6508 20.2895C57.3475 20.1646 57.0799 19.9326 56.83 19.5758C56.6159 19.2903 56.384 18.8085 56.4375 18.5409Z" fill="white"/>
<path d="M18.1831 10.993C18.4329 10.7967 18.5222 10.8859 18.7184 11.1536L18.8969 11.0108L18.1118 9.94023L17.9333 10.083C18.1296 10.3506 18.201 10.4398 17.9333 10.6361L17.1839 11.2071L16.1847 9.8867C16.1847 9.8867 16.7735 9.44061 16.9341 9.33355C17.2731 9.08375 17.4337 9.24434 17.63 9.51199L17.8084 9.36924L17.2017 8.56628L14.668 10.4755L14.8107 10.654C14.9892 10.5291 15.2925 10.2436 15.578 10.6183C15.8635 10.993 17.7014 13.4554 17.7014 13.4554C18.0225 13.8836 17.862 13.955 17.5586 14.1691L17.7014 14.3654L20.2887 12.4205L19.6285 11.5461L19.45 11.6889C19.7355 12.0815 19.682 12.3313 19.4143 12.5275C19.2359 12.6524 18.5935 13.1342 18.5935 13.1342L17.4159 11.564L18.1831 10.993Z" fill="white"/>
<path d="M51.9584 11.2608C52.226 11.4392 52.1725 11.5284 51.9762 11.8139L52.1725 11.9566L52.9041 10.8504L52.7078 10.7254C52.5115 11.0109 52.458 11.1002 52.1903 10.9217L51.4052 10.3864L52.3152 9.01247C52.3152 9.01247 52.9219 9.42287 53.0825 9.52993C53.4394 9.77974 53.3323 9.97602 53.136 10.2437L53.3323 10.3686L53.8855 9.52993L51.2446 7.76343L51.1197 7.95971C51.2981 8.08461 51.655 8.28089 51.4052 8.67345C51.1554 9.04816 49.4424 11.6176 49.4424 11.6176C49.1569 12.0637 49.032 11.9388 48.7287 11.7247L48.5859 11.9388L51.2803 13.741L51.887 12.831L51.6907 12.7061C51.4231 13.1165 51.1732 13.1343 50.8878 12.9559C50.7093 12.831 50.0491 12.3849 50.0491 12.3849L51.1376 10.7611L51.9584 11.2608Z" fill="white"/>
<path d="M20.9118 7.15665C20.769 6.87116 20.9118 6.79978 21.2508 6.62135L21.1437 6.40723L19.3594 7.31724L19.4664 7.51352C19.4664 7.51352 19.9125 7.19234 20.1088 7.54921C20.198 7.72764 21.8396 10.9395 21.8396 10.9395C21.9824 11.225 21.8396 11.2963 21.5006 11.4748L21.6077 11.6711L23.5348 10.6718L23.4277 10.4755C23.1422 10.6183 22.821 10.8324 22.6604 10.4934C22.482 10.2257 20.9118 7.15665 20.9118 7.15665Z" fill="white"/>
<path d="M31.297 5.96125L30.9044 3.99847C30.8509 3.69513 30.9936 3.65944 31.3683 3.57022L31.3148 3.33826L29.6018 3.67728L29.6554 3.8914C29.6554 3.8914 30.1728 3.69513 30.262 4.10553L30.6724 6.17537C30.8152 6.83558 30.8866 7.37089 30.6367 7.76344C30.4048 8.12031 30.0301 8.22737 29.8695 8.26306C29.6375 8.29875 29.3699 8.33443 29.0665 8.156C28.781 8.01325 28.4955 7.72776 28.2993 6.74636L27.8532 4.56946C27.7996 4.26612 27.9424 4.23043 28.3349 4.14121L28.2814 3.90925L26.3008 4.30181L26.3365 4.53377C26.3365 4.53377 26.8718 4.35534 26.9431 4.74789L27.3892 6.96048C27.5498 7.76344 27.8353 8.26306 28.2993 8.54856C28.8881 8.88758 29.5305 8.76268 29.816 8.70915C30.1907 8.63777 30.6546 8.47718 31.0472 7.97756C31.5111 7.44226 31.4397 6.69283 31.297 5.96125Z" fill="white"/>
<path d="M42.7175 4.76571C42.7888 4.46237 42.9494 4.48021 43.3241 4.56943L43.3777 4.33747L41.4149 3.87354L41.3614 4.1055C41.3614 4.1055 41.9145 4.15903 41.8253 4.55159C41.7718 4.74787 40.9688 8.26303 40.9688 8.26303C40.8974 8.56637 40.7368 8.54853 40.3621 8.45931L40.3086 8.69128L42.432 9.17305L42.4855 8.95893C42.1643 8.88756 41.7896 8.83402 41.8788 8.47715C41.9502 8.12029 42.7175 4.76571 42.7175 4.76571Z" fill="white"/>
<path d="M63.2537 21.7884C63.5392 21.6456 63.6106 21.7705 63.7891 22.1274L64.0032 22.0203L63.111 20.2181L62.8969 20.3252C62.8969 20.3252 63.2181 20.7891 62.8433 20.9676C62.6649 21.0568 59.4174 22.6627 59.4174 22.6627C59.1319 22.8054 59.0605 22.6627 58.8821 22.3058L58.668 22.4129L59.6315 24.3578L59.8278 24.2508C59.685 23.9653 59.4888 23.6441 59.81 23.4835C60.1668 23.3051 63.2537 21.7884 63.2537 21.7884Z" fill="white"/>
<path d="M64.8978 24.108L63.8986 24.2508L63.97 24.5006C64.309 24.4471 64.541 24.4292 64.6659 24.8575C64.6837 24.9288 64.7373 25.0894 64.9514 25.7853C64.3804 25.9459 61.1686 26.9095 61.1686 26.9095C60.8652 26.9987 60.8117 26.8381 60.7046 26.4634L60.4727 26.5347L61.0972 28.6224L61.3113 28.5689C61.2221 28.2477 61.0615 27.9087 61.4184 27.8016C61.7574 27.6946 64.7016 26.8202 65.2012 26.6775C65.4153 27.3734 65.451 27.534 65.4867 27.6054C65.6116 28.0336 65.3975 28.1407 65.0941 28.2834L65.1655 28.5332L66.0934 28.105L64.8978 24.108Z" fill="white"/>
<path d="M56.8499 14.08C56.4573 14.4904 56.1183 14.5082 55.9577 14.4725C55.8328 14.4547 55.7614 14.419 55.583 14.2406L55.2618 13.9194L56.7607 12.4027L56.9748 12.6168C57.2246 12.8666 57.4744 13.4376 56.8499 14.08ZM57.9919 13.4911C57.9027 13.0629 57.6172 12.7239 57.3317 12.4384L55.9756 11.1001L55.815 11.2607C55.815 11.2607 56.2611 11.5819 55.9756 11.8852C55.8328 12.028 53.2812 14.5974 53.2812 14.5974C53.0671 14.8294 52.9422 14.7223 52.6567 14.4368L52.4961 14.5974L54.0485 16.1141L54.2091 15.9535C53.9771 15.7216 53.6738 15.4896 53.9414 15.2219L54.9585 14.187L55.3689 14.5974L55.1905 15.7037C55.1012 16.3282 55.0656 16.7208 55.1548 17.0063C55.2083 17.2026 55.3154 17.3453 55.5652 17.5951L56.0291 18.0591L56.1718 17.9163L56.0648 17.7914C56.0113 17.7022 55.8685 17.5059 55.8685 17.0063C55.8864 16.5424 55.9399 15.9357 56.0291 15.1863L56.0648 14.8829C56.7964 14.9543 57.296 14.8115 57.6707 14.4368C58.0276 14.0978 58.0276 13.6696 57.9919 13.4911Z" fill="white"/>
<path d="M6.6011 31.8164C6.38698 31.7985 6.20855 31.7807 5.99443 31.6736C5.74462 31.5309 4.33498 30.5138 4.10302 30.2818C3.94243 30.1391 3.88889 30.0677 3.83536 29.9428L3.78183 29.6752L3.79968 29.4967L3.56771 29.4789L3.40712 31.1026L3.63909 31.1205L3.65693 30.9599L3.76399 30.8885L4.06733 30.9956L5.61971 32.0483C5.61971 32.0483 3.88889 32.8513 3.7283 32.9048L3.53202 32.9584L3.47849 32.9048V32.8691V32.7264L3.24653 32.7086L3.08594 34.5286L3.3179 34.5464C3.3179 34.5464 3.33575 34.2966 3.42496 34.1539C3.49634 34.029 3.67477 33.9041 3.90674 33.7792C4.26361 33.5829 5.72677 32.8691 5.83383 32.8335C6.03011 32.7621 6.15502 32.7264 6.49404 32.7442C6.49404 32.7442 7.15425 32.7978 7.56465 32.8513C7.97505 32.887 7.95721 33.119 7.93937 33.4223L8.15349 33.4401L8.34977 31.2811L8.13564 31.2632C8.09996 31.6201 8.09996 31.9591 7.63603 31.9234C7.18994 31.8699 6.6011 31.8164 6.6011 31.8164Z" fill="white"/>
<path d="M63.4529 32.8157C63.6491 32.7979 63.8454 32.78 64.0774 32.8514C64.345 32.9406 65.9153 33.6722 66.2007 33.8506C66.3792 33.9755 66.4506 34.0291 66.5219 34.1361L66.6111 34.3859L66.629 34.5644L66.861 34.5465L66.7004 32.9406L66.4684 32.9584L66.4862 33.119L66.397 33.2083C66.3078 33.2261 66.2186 33.2083 66.0758 33.1547L64.345 32.4053C64.345 32.4053 65.8974 31.2812 66.0402 31.2098L66.2186 31.1206L66.29 31.1563L66.3078 31.1919L66.3257 31.3525L66.5576 31.3347L66.3792 29.5146L66.1472 29.5325C66.1472 29.5325 66.1829 29.7823 66.1115 29.9429C66.058 30.0678 65.9152 30.2462 65.719 30.4068C65.3978 30.6566 64.0952 31.638 64.0238 31.6916C63.8454 31.7986 63.7205 31.87 63.3993 31.8878C63.3993 31.8878 62.7391 31.9592 62.3287 31.9949C61.9183 32.0306 61.8826 31.8165 61.8469 31.4953L61.6328 31.5131L61.8469 33.6543L62.0611 33.6365C62.0254 33.2796 61.954 32.9406 62.4358 32.9049C62.864 32.8692 63.4529 32.8157 63.4529 32.8157Z" fill="white"/>
<path d="M13.2027 19.1654L13.0243 19.4508L8.29573 20.5215L10.6154 21.9489C11.0972 22.2523 11.2756 21.8776 11.4362 21.5921L11.6325 21.717L10.6689 23.2694L10.4726 23.1444C10.6154 22.8946 10.8117 22.6627 10.3477 22.3772C9.8838 22.0917 6.79688 20.1824 6.79688 20.1824L6.95747 19.9148C7.76042 19.7363 11.6325 18.8977 11.7574 18.862C11.7574 18.862 9.79458 17.6487 9.36634 17.381C8.93809 17.1133 8.75966 17.4702 8.61691 17.6843L8.42063 17.5594L9.31281 16.132L9.50909 16.2569C9.36634 16.4888 9.20575 16.6851 9.63399 16.9528C10.0444 17.2204 13.2027 19.1654 13.2027 19.1654Z" fill="white"/>
<path d="M38.1476 8.35222L37.8264 8.33438L34.6502 4.67647L34.4896 7.38868C34.454 7.95967 34.8644 7.92398 35.1855 7.94182L35.1677 8.17379L33.3477 8.06673L33.3655 7.83476C33.651 7.85261 33.9543 7.90614 33.9722 7.35299C34.0079 6.79984 34.222 3.17761 34.222 3.17761L34.5253 3.19546C35.0606 3.81998 37.6479 6.81768 37.7193 6.92474C37.7193 6.92474 37.8621 4.60509 37.8799 4.10547C37.9156 3.60586 37.523 3.60586 37.2732 3.58801L37.2911 3.35605L38.9684 3.46311L38.9505 3.69507C38.6829 3.67723 38.4331 3.64154 38.3974 4.14116C38.3795 4.64078 38.1476 8.35222 38.1476 8.35222Z" fill="white"/>
<path d="M49.892 7.12097L49.9455 6.889L48.4823 6.24663L48.3931 6.46076L48.5715 6.53213L48.6608 6.65703L48.4823 6.94253L47.1084 8.31648L46.234 9.19081C46.234 9.06591 46.3233 7.2994 46.3589 6.53213L46.3946 5.85408L46.4482 5.67564L46.6088 5.6578L46.7872 5.72917L46.8764 5.51505L45.1634 4.76562L45.0742 4.9619C45.0742 4.9619 45.3062 5.05112 45.3954 5.19387C45.4668 5.30093 45.5025 5.49721 45.4846 5.72917L45.3776 10.3506L45.5738 10.4399L48.179 8.03098L49.1068 7.19234C49.1068 7.19234 49.4102 6.92469 49.7314 7.06743L49.892 7.12097Z" fill="white"/>
<path d="M36.6161 61.6864V63.1853H36.2235V61.6864H35.2064V61.8113C35.3135 61.8113 35.4027 61.9897 35.4027 62.1682V65.4157H33.2972V62.5072H34.7068V61.8291H32.2266V61.9541C32.3336 61.9541 32.4228 62.1325 32.4228 62.3109V66.1116H35.4205V67.2H36.2413V63.8811H36.6339V67.2H37.5082V61.7042H36.6161V61.6864Z" fill="white"/>
<path d="M60.4021 53.3892C59.6884 52.8004 57.0475 50.6056 57.0118 50.5699L54.2461 53.9067L54.7636 54.3528L56.9761 51.6941C56.9761 51.6941 59.1887 53.532 59.8311 54.0673C59.5991 54.3528 59.4029 54.5847 59.4029 54.5847L57.904 53.3535L57.3687 53.9959L58.8676 55.2271L58.5821 55.5661L57.0832 54.3349L56.4587 55.0844L56.5479 55.1557C56.6193 55.0844 56.8156 55.12 56.9583 55.2271L58.0824 56.155L57.4579 56.9222L57.9932 57.3683L61.2943 53.4071L60.759 52.961C60.7411 52.9967 60.5984 53.1573 60.4021 53.3892Z" fill="white"/>
<path d="M24.587 59.6166L22.2852 64.6306L23.0881 64.9875L25.3899 59.9913L24.587 59.6166Z" fill="white"/>
<path d="M23.3577 59.0634L23.3042 59.1704C23.3934 59.2061 23.4113 59.4024 23.3399 59.5808L22.9117 60.5087L22.073 60.1161L21.7875 60.7406L22.6262 61.1154L21.2344 64.1309L21.9481 64.4521L24.2499 59.4559L23.3577 59.0634Z" fill="white"/>
<path d="M21.0535 60.598L21.0357 60.5445L21.0535 60.5266C21.678 60.0627 22.1241 59.4917 22.4453 58.7958L21.2855 58.2605L21.2319 58.3676C21.2498 58.3854 21.4639 58.546 21.2676 58.9564C21.2498 58.9742 20.6253 60.3303 18.7695 60.9549L18.9837 61.4902C18.9837 61.4902 19.6082 61.4188 20.4468 60.937L20.4647 60.9192L20.4825 60.9549C20.6074 61.2047 20.8037 61.5972 20.9821 62.6143L21.6959 62.2039C21.6066 61.7578 21.3747 61.1868 21.0535 60.598Z" fill="white"/>
<path d="M46.3932 63.9169L49.7299 62.3288L50.2295 63.3994L51.0325 63.0069L50.2117 61.3296L46.0898 63.3102L46.3932 63.9169Z" fill="white"/>
<path d="M48.6415 58.0464L47.6602 58.5103L47.7137 58.6174C47.8029 58.5639 47.9635 58.6888 48.0527 58.8493L49.2125 61.2582L50.0155 60.8835L49.5873 59.9735L50.3724 59.5988L50.1047 59.0456L49.3196 59.4203L48.6415 58.0464Z" fill="white"/>
<path d="M46.7848 61.8827C46.4101 62.0611 45.9283 61.9005 45.7499 61.4901C45.5536 61.0976 45.7142 60.6158 46.1068 60.4374C46.4993 60.2589 46.9633 60.4374 47.1417 60.8299C47.3201 61.2225 47.1596 61.7043 46.7848 61.8827ZM45.0183 61.847C45.3574 62.5429 46.2495 62.7927 47.0346 62.418C47.8198 62.0433 48.1766 61.1868 47.8554 60.4909C47.6949 60.1519 47.3737 59.9021 46.999 59.8129C47.338 59.6523 47.57 59.5274 47.5878 59.5274L47.3023 58.9028L46.1782 59.4381L45.9819 59.0099L45.0005 59.4738L45.054 59.5809C45.1432 59.5452 45.2681 59.6344 45.3574 59.7772L45.3752 59.8129L44.1797 60.3838L44.483 61.0084C44.5009 61.0084 44.715 60.9013 45.0183 60.7586C44.8756 61.0976 44.8577 61.4901 45.0183 61.847Z" fill="white"/>
<path d="M11.2044 53.7639L10.4907 52.9431L10.4015 53.0145C10.4729 53.0859 10.4015 53.2821 10.2587 53.407L9.27734 54.2635L12.0431 57.4575L12.5605 57.0114L10.3658 54.4955L11.2044 53.7639Z" fill="white"/>
<path d="M12.0813 51.7476C12.456 51.4264 12.9913 51.4443 13.2946 51.7833C13.598 52.1223 13.5266 52.6576 13.1697 52.9788C12.795 53.3 12.2597 53.2821 11.9564 52.9431C11.653 52.6041 11.7244 52.0688 12.0813 51.7476ZM14.4902 54.0494L14.1333 54.3706C14.1333 54.3706 13.8299 54.0137 13.5801 53.7282L13.7229 53.6212L13.937 53.3892C14.169 53.6747 14.4902 54.0494 14.4902 54.0494ZM12.8664 53.9602C13.1162 54.2457 13.6158 54.8167 13.6158 54.8167L12.5452 55.7624L13.1162 56.4226L16.1139 53.8174L15.4002 52.9966L15.311 53.068C15.3823 53.1394 15.311 53.3357 15.1682 53.4606L15.0076 53.6033C15.0076 53.6033 14.3296 52.836 14.1868 52.6755C14.2403 52.2294 14.0976 51.7654 13.7586 51.3729C13.1519 50.6948 12.1527 50.5699 11.5281 51.1231C10.9036 51.6762 10.8679 52.6755 11.4746 53.3713C11.8493 53.7996 12.3846 53.9959 12.8664 53.9602Z" fill="white"/>
<path d="M35.0073 23.1088C32.9909 23.1088 31.3672 24.7325 31.3672 26.7488C31.3672 28.7651 32.9909 30.3889 35.0073 30.3889C37.0236 30.3889 38.6473 28.7651 38.6473 26.7488C38.6473 24.7325 37.0057 23.1088 35.0073 23.1088Z" fill="#003378"/>
<path d="M26.2109 52.8539C28.4949 54.8345 31.3677 56.7259 35.0078 58.4032C38.6478 56.7259 41.5207 54.8345 43.8046 52.8539L35.0078 44.0392L26.2109 52.8539Z" fill="#003378"/>
<path d="M35.0103 33.8506C31.0848 33.8506 27.8908 30.6744 27.8908 26.7488C27.8908 22.8233 31.0669 19.6471 35.0103 19.6471C38.9359 19.6471 42.1299 22.8233 42.1299 26.7488C42.1121 30.6744 38.9359 33.8506 35.0103 33.8506ZM52.9074 31.8878V19.7364C52.9074 19.7364 42.5581 20.0754 35.0103 14.2762C27.4625 20.0754 17.1133 19.7364 17.1133 19.7364V31.8878C17.1133 31.8878 17.042 34.4929 17.5059 37.3479C23.1623 36.313 29.0149 35.7598 35.0103 35.7598C41.0058 35.7598 46.8584 36.313 52.5148 37.3479C52.9609 34.4929 52.9074 31.8878 52.9074 31.8878Z" fill="#003378"/>
<path d="M17.6836 38.3649C17.755 38.7396 17.8442 39.1143 17.9512 39.489C18.7899 42.7009 20.2887 46.3945 23.3578 49.981L35.0096 38.3114L46.6614 49.981C49.7305 46.3945 51.2293 42.7009 52.068 39.489C52.1751 39.1143 52.2464 38.7396 52.3356 38.3649C46.7328 37.33 40.9337 36.7947 35.0096 36.7947C29.0856 36.7947 23.2864 37.33 17.6836 38.3649Z" fill="#003378"/>
<path d="M22.8571 29.586H24.5343L24.6414 29.4789V26.053L24.5343 25.9459H23.1782C22.9463 25.9459 22.75 26.1244 22.75 26.3742V29.4968L22.8571 29.586Z" fill="white"/>
<path d="M20.5384 29.586H22.2157L22.3228 29.479V26.3563C22.3228 26.1244 22.1265 25.9281 21.9124 25.9281H20.5563L20.4492 26.0352V29.4611L20.5384 29.586Z" fill="white"/>
<path d="M25.4079 26.5348H25.051V29.9429H22.9276V29.9786C22.9098 30.1927 22.7314 30.3533 22.5172 30.3533C22.3031 30.3533 22.1247 30.1927 22.1068 29.9786V29.9429H19.9835V26.5348H19.6266L19.5195 26.6419V30.2641L19.6266 30.3711H21.7678C21.9106 30.6388 22.1961 30.8172 22.5351 30.8172C22.8563 30.8172 23.1418 30.6388 23.2845 30.3711H25.4079L25.5149 30.2641V26.6419L25.4079 26.5348Z" fill="white"/>
<path d="M47.9793 29.2113H46.6054L46.4805 29.3362L46.9266 32.2269C46.9444 32.3518 47.0336 32.441 47.1585 32.441H47.3905L47.6225 32.2269L48.0685 29.3362L47.9793 29.2113Z" fill="white"/>
<path d="M48.1791 27.9444C48.536 27.641 49.3568 26.731 49.2675 26.2135C49.1783 25.6604 47.6259 24.8574 47.5367 24.2686C47.4832 24.0009 47.5902 23.6262 47.733 23.3229L47.6438 23.3051C47.6081 23.3229 46.359 24.2686 46.3412 24.911C46.3412 25.1608 46.5196 25.4463 46.823 25.7139C47.0728 25.928 47.4118 26.1065 47.6616 26.3741C47.7865 26.499 47.8936 26.6061 47.9471 26.7845C48.072 27.1236 47.7152 27.6946 47.501 27.9622H47.0014C47.1977 27.7124 47.4297 27.3912 47.501 27.07C47.6973 26.2849 45.7702 26.0886 46.0557 24.9288L45.9665 24.911C45.9486 24.9288 45.1992 25.6604 45.1992 26.16C45.1992 26.6061 46.0914 26.9987 46.5018 27.6053V27.98H45.7167C45.7167 27.98 45.5204 27.9622 45.6096 28.1406L45.8237 28.8008C45.8237 28.8008 45.8594 28.8901 45.9843 28.8901H48.536C48.6609 28.8901 48.7144 28.8008 48.7144 28.8008L48.9463 28.1228C48.9999 27.9622 48.8214 27.98 48.8214 27.98H48.1791V27.9444Z" fill="white"/>
<path d="M31.5284 50.8911C31.4035 50.9803 30.7432 51.4085 30.7254 51.4264L30.6719 51.5156L30.7433 51.6048L30.8146 51.587L30.9217 51.5334L31.1893 51.4264L31.2072 51.4978V51.9617V52.5148L31.1893 53.3L31.0823 53.4427L30.8146 53.4605L30.7433 53.5498L30.8503 53.6211H31.2786H31.457H31.5997H32.028L32.135 53.5498L32.0637 53.4605L31.8495 53.4427L31.7603 53.3L31.7425 52.5148V51.8725L31.7603 50.9981V50.9446L31.6711 50.8197L31.5284 50.8911Z" fill="white"/>
<path d="M33.1692 51.4621C33.1692 51.2837 33.2584 51.0874 33.5439 51.0874C33.7045 51.0874 33.8829 51.2123 33.8829 51.4621C33.8829 51.7298 33.7223 51.8725 33.5974 51.926C33.2941 51.7654 33.1692 51.6405 33.1692 51.4621ZM32.7052 51.5335C32.7052 51.8725 32.9551 52.0509 33.1692 52.1758C32.7945 52.3543 32.5625 52.6398 32.5625 52.961C32.5625 53.4249 32.9372 53.7104 33.4904 53.7104C34.1327 53.7104 34.4718 53.3 34.4718 52.8896C34.4718 52.4613 34.1327 52.2472 33.8829 52.1045C34.0435 52.0331 34.3468 51.8368 34.3468 51.4621C34.3468 51.1052 34.0435 50.8733 33.5796 50.8733C32.9372 50.8376 32.7052 51.248 32.7052 51.5335ZM33.0621 52.9253C33.0621 52.5862 33.2762 52.39 33.419 52.3008C33.7045 52.4792 33.9543 52.6219 33.9543 52.9431C33.9543 53.2286 33.7759 53.4249 33.5082 53.4249C33.2762 53.4249 33.0621 53.2108 33.0621 52.9253Z" fill="white"/>
<path d="M35.5989 51.4621C35.5989 51.2837 35.7059 51.0874 35.9736 51.0874C36.1342 51.0874 36.3126 51.2123 36.3126 51.4621C36.3126 51.7298 36.1699 51.8725 36.0271 51.926C35.7238 51.7654 35.5989 51.6405 35.5989 51.4621ZM35.1349 51.5335C35.1349 51.8725 35.3847 52.0509 35.5989 52.1758C35.2242 52.3543 34.9922 52.6398 34.9922 52.961C34.9922 53.4249 35.3669 53.7104 35.9379 53.7104C36.5803 53.7104 36.9193 53.3 36.9193 52.8896C36.9193 52.4613 36.5803 52.2472 36.3304 52.1045C36.491 52.0331 36.7944 51.8368 36.7944 51.4621C36.7944 51.1052 36.491 50.8733 36.0271 50.8733C35.3847 50.8376 35.1349 51.248 35.1349 51.5335ZM35.5096 52.9253C35.5096 52.5862 35.7238 52.39 35.8665 52.3008C36.1699 52.4792 36.4018 52.6219 36.4018 52.9431C36.4018 53.2286 36.2234 53.4249 35.9557 53.4249C35.7059 53.4249 35.5096 53.2108 35.5096 52.9253Z" fill="white"/>
<path d="M38.8794 50.8911L38.6475 50.909H37.791L37.6839 50.9982L37.5947 51.926L37.7018 52.0509C37.9337 52.0866 38.5404 52.2829 38.5404 52.8361C38.5404 53.2643 38.2549 53.4249 38.0051 53.4249C37.7196 53.4249 37.5769 53.2821 37.5769 53.0145L37.5055 52.9074L37.4163 53.0145L37.3984 53.407V53.4606L37.4877 53.639C37.5769 53.6747 37.7196 53.7104 37.8445 53.7104C38.6653 53.7104 39.04 53.1751 39.04 52.6755C39.04 52.0688 38.4512 51.7654 37.8802 51.6584L37.9159 51.3194H38.5047C38.7545 51.3194 38.7545 51.3907 38.7545 51.4621L38.8438 51.5513L38.933 51.4799L38.9865 51.016L38.8973 50.8911H38.8794Z" fill="white"/>
<path d="M23.3555 49.981C24.1763 50.9446 25.1398 51.9081 26.2104 52.8538L35.0073 44.0392L43.8041 52.8538C44.8926 51.9081 45.8383 50.9446 46.6591 49.981L35.0073 38.3114L23.3555 49.981Z" fill="white"/>
<path d="M35.0084 35.7598C29.013 35.7598 23.1603 36.3129 17.5039 37.3478C17.5574 37.6869 17.611 38.0259 17.6823 38.3649C23.2852 37.33 29.0843 36.7947 35.0084 36.7947C40.9324 36.7947 46.7315 37.33 52.3344 38.3649C52.4058 38.0259 52.4593 37.6869 52.5128 37.3478C46.8386 36.3129 41.0038 35.7598 35.0084 35.7598Z" fill="white"/>
<path d="M35.0085 30.3889C32.9922 30.3889 31.3684 28.7651 31.3684 26.7488C31.3684 24.7325 32.9922 23.1087 35.0085 23.1087C37.0248 23.1087 38.6486 24.7325 38.6486 26.7488C38.6486 28.7651 37.007 30.3889 35.0085 30.3889ZM42.1102 26.7488C42.1102 22.8232 38.9341 19.6471 34.9906 19.6471C31.0651 19.6471 27.8711 22.8232 27.8711 26.7488C27.8711 30.6744 31.0472 33.8505 34.9906 33.8505C38.9341 33.8505 42.1102 30.6744 42.1102 26.7488Z" fill="white"/>
</g>
<defs>
<clipPath id="clip0_2521_55345">
<rect width="70" height="70" fill="white" transform="translate(0 0.00146484)"/>
</clipPath>
</defs>
</svg>
