<svg width="71" height="70" viewBox="0 0 71 70" fill="none" xmlns="http://www.w3.org/2000/svg">
<g clip-path="url(#clip0_2521_55354)">
<path d="M35.4158 69.9095C54.6865 69.9095 70.3238 54.2722 70.3238 35.0015C70.3238 15.7308 54.6865 0.0935059 35.4158 0.0935059C16.1451 0.0935059 0.507812 15.7308 0.507812 35.0015C0.507813 54.2722 16.1451 69.9095 35.4158 69.9095Z" fill="white" stroke="#808080" stroke-width="0.3471"/>
<path d="M35.4155 60.1592C49.3051 60.1592 60.5732 48.8912 60.5732 35.0016C60.5732 21.1119 49.3051 9.84387 35.4155 9.84387C21.5259 9.84387 10.2578 21.1119 10.2578 35.0016C10.2578 48.8912 21.5259 60.1592 35.4155 60.1592Z" fill="white" stroke="#999999" stroke-width="0.3471"/>
<path d="M28.1483 65.9542C28.1483 66.1382 28.1943 66.5061 28.5622 66.5061C28.7462 66.5061 28.9762 66.4142 28.9762 66.0922C28.9762 65.8163 28.8382 65.7703 28.6082 65.6783L28.3783 65.5863C28.0563 65.4483 27.7344 65.3563 27.7344 64.6205C27.7344 64.2525 27.8723 63.6086 28.5162 63.6086C29.1141 63.6086 29.2981 64.2525 29.2981 64.6665H28.9302C28.9302 64.5285 28.8842 64.1605 28.5162 64.1605C28.3783 64.1605 28.1483 64.2525 28.1483 64.5745C28.1483 64.8504 28.2863 64.8964 28.3783 64.9424L28.8842 65.1264C29.1601 65.2184 29.3901 65.4023 29.3901 66.0002C29.3901 67.0121 28.7922 67.104 28.6082 67.104C27.8724 67.104 27.7804 66.4142 27.7804 66.0002H28.1483V65.9542Z" fill="#AAABAB"/>
<path d="M30.1249 66.9661H29.7109V63.6547H30.1249V66.9661Z" fill="#AAABAB"/>
<path d="M31.688 63.6547H32.0559V66.9661H31.688L30.8601 64.6205V66.9661H30.4922V63.6547H30.9521L31.734 65.9543V63.6547H31.688Z" fill="#AAABAB"/>
<path d="M33.7587 64.7584C33.7127 64.5745 33.6667 64.2065 33.2987 64.2065C33.1148 64.2065 32.7928 64.4365 32.7928 65.3563C32.7928 65.9542 32.9308 66.5061 33.2987 66.5061C33.5287 66.5061 33.6667 66.2762 33.7587 65.8623H34.1726C34.0806 66.5981 33.8047 67.104 33.2987 67.104C32.7928 67.104 32.3789 66.5061 32.3789 65.3563C32.3789 64.2065 32.7928 63.6086 33.2987 63.6086C33.8966 63.6086 34.1266 64.2985 34.1726 64.7584H33.7587Z" fill="#AAABAB"/>
<path d="M35.9678 64.2526H34.91V64.9425H35.8759V65.5404H34.91V66.4142H36.0138V67.0121H34.4961V63.7007H35.9678V64.2526Z" fill="#AAABAB"/>
<path d="M37.0703 64.2526H37.1163C37.4842 64.2526 37.5762 63.9306 37.5762 63.7007H37.8982V66.9661H37.5302V64.7125H37.0703V64.2526Z" fill="#AAABAB"/>
<path d="M38.91 64.7585C38.91 64.2986 39.094 64.2066 39.186 64.2066C39.3699 64.2066 39.4619 64.4366 39.4619 64.8045C39.4619 65.1724 39.324 65.3564 39.186 65.3564C39.048 65.3564 38.91 65.2644 38.91 64.7585ZM38.5421 66.2302C38.5881 66.7362 38.818 67.0581 39.14 67.0581C39.5079 67.0581 39.8759 66.6442 39.8759 65.4024C39.8759 64.9425 39.8759 63.7007 39.186 63.7007C38.818 63.7007 38.4961 64.0686 38.4961 64.8965C38.4961 65.4484 38.7261 65.9083 39.094 65.9083C39.232 65.9083 39.3699 65.8623 39.4619 65.6324C39.4619 66.3222 39.278 66.5522 39.14 66.5522C39.002 66.5522 38.956 66.4602 38.91 66.2302H38.5421Z" fill="#AAABAB"/>
<path d="M40.1992 64.8505C40.1992 63.7927 40.6591 63.7007 40.8431 63.7007C41.211 63.7007 41.533 64.0686 41.533 64.7125C41.533 65.2644 41.303 65.5404 41.1191 65.7703C40.8431 66.0923 40.7051 66.2303 40.6591 66.3682H41.533V66.9201H40.1992C40.1992 66.5522 40.2452 66.1383 40.6591 65.6324C41.0271 65.2184 41.1651 65.0345 41.1651 64.6665C41.1651 64.4366 41.0731 64.2066 40.8891 64.2066C40.6131 64.2066 40.6131 64.5745 40.6131 64.8045H40.1992V64.8505Z" fill="#AAABAB"/>
<path d="M43.1406 64.2525C42.9566 64.5745 42.4507 65.5403 42.4047 66.9661H41.9908C42.0368 65.6783 42.5427 64.6205 42.6807 64.3445H41.7148V63.7926H43.0946V64.2525H43.1406Z" fill="#AAABAB"/>
<path d="M18.9513 10.2118C18.9513 10.6257 18.6294 10.9937 18.2155 10.9937C17.8015 10.9937 17.4336 10.6717 17.4336 10.2118C17.4336 9.79787 17.7555 9.42993 18.2155 9.42993C18.6294 9.47592 18.9513 9.79787 18.9513 10.2118Z" fill="#9FA0A0"/>
<path d="M53.4006 10.0737C53.4006 10.4877 53.0786 10.8556 52.6647 10.8556C52.2507 10.8556 51.8828 10.5337 51.8828 10.0737C51.8828 9.65981 52.2048 9.29187 52.6647 9.29187C53.0326 9.33786 53.4006 9.65981 53.4006 10.0737Z" fill="#9FA0A0"/>
<path d="M44.1535 63.1947C44.2454 62.7808 44.6134 62.5048 45.0273 62.5968C45.4412 62.6888 45.7172 63.0567 45.6252 63.4707C45.5332 63.8846 45.1653 64.1606 44.7514 64.0686C44.3834 63.9766 44.1075 63.6086 44.1535 63.1947Z" fill="#9FA0A0"/>
<path d="M25.574 62.7348C25.8959 62.4588 26.3558 62.5048 26.6318 62.8268C26.9077 63.1487 26.8617 63.6086 26.5398 63.8846C26.2179 64.1605 25.7579 64.1145 25.482 63.7926C25.206 63.4707 25.252 63.0107 25.574 62.7348Z" fill="#9FA0A0"/>
<path d="M9.98159 54.9622L13.523 51.6047L13.0631 51.0068L9.42969 54.6402L10.0736 55.4681L14.4888 52.8005L14.0749 52.2946L9.98159 54.9622Z" fill="#9FA0A0"/>
<path d="M15.4994 54.8701L16.0053 54.4562L14.7635 53.1224L10.9922 56.5718L12.28 57.9056L12.7399 57.4917L12.004 56.7098L13.3838 55.422L14.0737 56.1579L14.5336 55.744L13.8437 54.9621L14.7635 54.0883L15.4994 54.8701Z" fill="#9FA0A0"/>
<path d="M16.9725 60.7571C16.8346 60.9411 16.6506 60.9411 16.5126 60.8031C16.3287 60.6652 16.2827 60.4812 16.4206 60.2972L17.0185 59.4694L16.4206 59.0094L15.8687 59.7913C15.4548 60.3432 15.4548 60.9411 16.0527 61.401C16.6506 61.815 17.2485 61.723 17.6624 61.1251C18.1683 60.5272 18.1683 60.2052 18.1683 60.2052C18.2143 60.0213 18.1683 59.3774 18.1683 59.3774C18.1683 59.1474 18.0764 58.4575 18.0764 58.4575C18.0764 58.1816 18.1683 57.9976 18.1683 57.9976C18.2603 57.8137 18.3983 57.6297 18.3983 57.6297C18.5363 57.4457 18.7202 57.4457 18.9042 57.5837C19.0882 57.7217 19.0882 57.9056 18.9962 58.0436L18.4903 58.7335L19.0882 59.1934L19.5021 58.5955C19.916 58.0436 19.916 57.4457 19.3181 56.9858C18.7202 56.5719 18.1683 56.7098 17.7544 57.2617C17.7544 57.2617 17.6164 57.3997 17.5244 57.6297C17.5244 57.6297 17.3405 57.9516 17.3405 58.3656C17.3405 58.3656 17.4785 59.5154 17.4785 59.7453C17.3865 59.8373 17.4325 60.2972 16.9725 60.7571Z" fill="#9FA0A0"/>
<path d="M10.3502 46.2237L6.48682 47.8794C6.25686 47.9714 6.11889 47.8794 6.0269 47.6954C5.93492 47.4655 6.0269 47.3275 6.21087 47.2355L10.0742 45.5798L9.75226 44.8899L5.98091 46.5456C5.33702 46.7756 5.06107 47.3275 5.33702 48.0174C5.61297 48.7072 6.25686 48.8912 6.85476 48.5693L10.6261 46.9135L10.3502 46.2237Z" fill="#9FA0A0"/>
<path d="M25.7571 60.7571L25.1132 60.4811L23.7335 62.5048L24.2394 60.0672L23.5035 59.7913L22.9976 63.1487L22.2617 64.8044L22.9516 65.1263L23.6875 63.4246L25.7571 60.7571Z" fill="#9FA0A0"/>
<path d="M15.0874 57.2617L13.4777 59.0554L12.9258 58.5495L16.3292 54.7322L17.249 55.514C17.755 55.974 17.755 56.4799 17.203 57.0318C16.6971 57.5837 16.2832 57.8136 15.6853 57.2617L15.7313 57.3077C16.0992 57.6297 16.2372 58.0436 15.8233 58.5495L14.9494 59.5154C14.9494 59.5154 14.6735 59.7913 14.6275 60.0673L14.0296 59.5613C14.0296 59.5613 14.0756 59.3774 14.4435 58.9635L15.1794 58.1356C15.4094 57.9056 15.4553 57.6297 15.2714 57.4457L15.0874 57.2617ZM15.7313 57.0318C15.9613 57.2158 16.1452 57.1238 16.4672 56.7558C16.7891 56.4339 16.9271 56.1579 16.6971 55.928L16.4672 55.698L15.5013 56.8018L15.7313 57.0318Z" fill="#9FA0A0"/>
<path d="M3.86376 36.7492C3.17388 36.7492 2.66797 36.3813 2.66797 35.6454C2.66797 34.9095 3.12789 34.5416 3.81777 34.4956L6.89924 34.4496C7.58913 34.4496 8.09504 34.8175 8.09504 35.5074C8.09504 36.2433 7.63512 36.6112 6.94524 36.6572L3.86376 36.7492ZM7.1292 35.9213C7.35916 35.9213 7.45115 35.8293 7.45115 35.5994C7.45115 35.3694 7.35916 35.2314 7.1292 35.2314L3.77178 35.2774C3.54182 35.2774 3.44983 35.3694 3.44983 35.5994C3.44983 35.8293 3.54182 35.9673 3.77178 35.9673L7.1292 35.9213Z" fill="#9FA0A0"/>
<path d="M2.85156 33.7598L7.95669 34.0358L8.00268 33.2539L2.89755 33.0239L2.85156 33.7598Z" fill="#9FA0A0"/>
<path d="M12.3638 49.9819L8.125 52.827L8.5351 53.438L12.7739 50.5929L12.3638 49.9819Z" fill="#9FA0A0"/>
<path d="M20.5337 58.0724L17.832 62.4041L18.4564 62.7935L21.158 58.4618L20.5337 58.0724Z" fill="#9FA0A0"/>
<path d="M4.78489 44.1999L9.06216 42.9121L8.87819 42.1763L3.95703 43.648L4.50894 45.4417L5.10683 45.2577L4.78489 44.1999Z" fill="#9FA0A0"/>
<path d="M11.8683 12.5114L11.3164 13.0633L15.4097 16.1908L16.1456 15.4089L12.9261 11.4076L12.4662 11.8675L13.3401 12.8793L12.8801 13.3393L11.8683 12.5114ZM13.754 13.3853L15.6397 15.5929L13.3861 13.7532L13.754 13.3853Z" fill="#9FA0A0"/>
<path d="M6.532 19.9621L6.16406 20.6519L10.9472 22.4916L11.4532 21.5718L7.26787 18.6283L6.94593 19.1802L8.04974 19.9161L7.72779 20.468L6.532 19.9621ZM8.60164 20.284L11.0392 21.8937L8.37168 20.7439L8.60164 20.284Z" fill="#9FA0A0"/>
<path d="M3.4036 29.1145L3.26562 29.8964L8.37075 30.2643L8.55472 29.2065L3.67955 27.5968L3.54158 28.2407L4.82936 28.6086L4.69138 29.2525L3.4036 29.1145ZM5.47325 28.7926L8.23277 29.6205L5.33527 29.3445L5.47325 28.7926Z" fill="#9FA0A0"/>
<path d="M3.68132 42.2683L3.86529 43.0502L8.69446 41.3485L8.4645 40.2906L3.35938 40.7506L3.49735 41.3945L4.83112 41.2105L4.9691 41.8544L3.68132 42.2683ZM5.47501 41.1645L8.32652 40.7966L5.567 41.6704L5.47501 41.1645Z" fill="#9FA0A0"/>
<path d="M13.7061 18.1224L10.4406 15.5008L14.166 17.5705L14.9019 16.6966L10.9006 13.4772L10.5326 13.9831L14.028 16.7886L10.0267 14.581L9.38281 15.4088L13.3381 18.6283L13.7061 18.1224Z" fill="#9FA0A0"/>
<path d="M8.87554 27.8728L4.87422 26.677L9.1055 27.1369L9.42744 26.0791L4.50629 24.6533L4.32232 25.2512L8.64558 26.493L4.09236 25.9871L3.81641 26.9989L8.73756 28.4707L8.87554 27.8728Z" fill="#9FA0A0"/>
<path d="M8.23441 39.0029L4.09512 39.5088L8.14242 38.267L8.00445 37.1632L2.94531 37.7611L3.0373 38.405L7.49853 37.8531L3.12928 39.1869L3.26726 40.2447L8.32639 39.6008L8.23441 39.0029Z" fill="#9FA0A0"/>
<path d="M11.7726 49.0292L8.13921 51.0988L11.4506 48.3853L10.8987 47.4194L6.4375 49.903L6.71345 50.4549L10.6688 48.2473L7.12738 51.1448L7.63329 52.0646L12.0945 49.5351L11.7726 49.0292Z" fill="#9FA0A0"/>
<path d="M9.84102 24.9293L10.6689 22.9977L10.071 22.7217L9.84102 23.3656L5.74773 21.5719L5.42578 22.2618L9.51908 24.0555L9.24313 24.6994L9.84102 24.9293Z" fill="#9FA0A0"/>
<path d="M8.00231 32.8399L8.27826 30.7242L7.63437 30.6782L7.54238 31.3221L3.12714 30.8162L3.03516 31.5521L7.4504 32.104L7.35842 32.7939L8.00231 32.8399Z" fill="#9FA0A0"/>
<path d="M23.363 59.6993L21.4773 58.6875L21.2013 59.2854L21.7992 59.6073L19.6836 63.5167L20.3275 63.8846L22.4431 59.9293L23.041 60.2512L23.363 59.6993Z" fill="#9FA0A0"/>
<path d="M10.6699 18.8583C10.5319 19.0882 10.6699 19.2722 11.0378 19.5482C11.4057 19.7781 11.7277 19.9161 11.8657 19.6401L12.0496 19.3642L10.8078 18.5363L10.6699 18.8583ZM8.46224 18.8123C7.86434 18.3524 7.58839 17.9844 8.00232 17.3405L8.6922 16.2827L12.9695 19.0882L12.3256 20.1001C11.9576 20.652 11.4517 20.7439 10.8078 20.284C10.1639 19.8701 9.93399 19.5022 10.3479 18.8583L10.3019 18.9043C10.026 19.3182 9.56605 19.5022 9.10613 19.1802C9.06014 19.1802 8.55422 18.8583 8.46224 18.8123ZM9.47407 18.5363C9.75002 18.7203 10.026 18.7203 10.1639 18.4903L10.3479 18.2604L8.78418 17.2485L8.60021 17.5245C8.46224 17.7545 8.60022 17.9384 8.96815 18.2144C9.19811 18.3984 9.47407 18.5363 9.47407 18.5363Z" fill="#9FA0A0"/>
<path d="M17.2492 14.3971L15.9614 12.9253L16.4673 12.4654L17.7551 13.9831L18.307 13.4772L14.9956 9.61389L14.3977 10.0738L16.0534 12.0055L15.5475 12.4194L13.9377 10.5337L13.3398 10.9937L16.6973 14.903L17.2492 14.3971Z" fill="#9FA0A0"/>
<path d="M65.4515 23.0436L61.0823 25.2513L61.3582 25.9871L65.8655 23.5036L65.4515 22.5377L60.4844 23.8255L60.7143 24.4234L65.4515 23.0436Z" fill="#9FA0A0"/>
<path d="M60.1135 21.5259L59.5156 21.8018L60.3435 23.4575L64.8967 21.1579L64.0688 19.5482L63.5169 19.8242L63.9769 20.79L62.3211 21.6179L61.8612 20.698L61.2633 20.974L61.7692 21.8938L60.5734 22.4917L60.1135 21.5259Z" fill="#9FA0A0"/>
<path d="M60.3455 15.5009C60.5295 15.3629 60.7135 15.4089 60.8055 15.5928C60.9434 15.7768 60.9434 15.9608 60.7595 16.0987L59.9316 16.7426L60.3915 17.3405L61.1274 16.7886C61.6793 16.3747 61.8633 15.7768 61.4034 15.1789C60.9434 14.581 60.3455 14.535 59.7936 14.9949C59.1038 15.4549 59.0578 15.7768 59.0578 15.7768C58.9198 15.9608 58.8278 16.5587 58.8278 16.5587C58.7818 16.7886 58.6438 17.4785 58.6438 17.4785C58.5978 17.7545 58.4139 17.8924 58.4139 17.8924C58.2759 18.0764 58.0919 18.1684 58.0919 18.1684C57.908 18.3064 57.724 18.2604 57.586 18.0764C57.448 17.8924 57.494 17.7085 57.632 17.6165L58.3219 17.0646L57.862 16.4667L57.3101 16.8806C56.7582 17.2945 56.5742 17.8924 57.0341 18.4903C57.494 19.0882 58.0919 19.0882 58.6438 18.6743C58.6438 18.6743 58.7818 18.5823 58.9658 18.3984C58.9658 18.3984 59.2417 18.1684 59.3337 17.7085C59.3337 17.7085 59.5637 16.5587 59.6097 16.3287C59.7476 16.2367 59.7936 15.7768 60.3455 15.5009Z" fill="#9FA0A0"/>
<path d="M62.5998 31.2762L66.7851 30.7703C67.015 30.7243 67.153 30.8623 67.153 31.0922C67.199 31.3222 67.061 31.4602 66.8771 31.4602L62.6918 31.9661L62.7838 32.702L66.8771 32.196C67.5669 32.196 67.9809 31.6901 67.8889 30.9543C67.7969 30.2184 67.291 29.8504 66.6011 29.9884L62.5078 30.4943L62.5998 31.2762Z" fill="#9FA0A0"/>
<path d="M51.9727 13.0173L52.4786 13.4772L54.4102 11.9135L53.2144 14.0751L53.8583 14.581L55.2841 11.5456L56.4339 10.1198L55.882 9.61389L54.6862 11.0396L51.9727 13.0173Z" fill="#9FA0A0"/>
<path d="M61.1743 19.3642L63.2439 18.0764L63.6579 18.7203L59.3346 21.4338L58.6907 20.422C58.3228 19.8241 58.4608 19.3642 59.1506 18.9502C59.7945 18.5363 60.2545 18.4903 60.6684 19.1342L60.6224 19.0882C60.3464 18.6743 60.3464 18.2604 60.8983 17.8924L62.0022 17.2485C62.0022 17.2485 62.3701 17.0646 62.4621 16.8346L62.876 17.4785C62.876 17.4785 62.784 17.6165 62.2781 17.9384L61.3583 18.5363C61.0823 18.7203 60.9443 18.9502 61.0823 19.1802L61.1743 19.3642ZM60.4844 19.4102C60.3464 19.1802 60.1165 19.2262 59.7025 19.4561C59.3346 19.6861 59.0587 19.9161 59.2426 20.192L59.4266 20.468L60.6684 19.6861L60.4844 19.4102Z" fill="#9FA0A0"/>
<path d="M66.1868 42.1763C66.8767 42.3603 67.1986 42.8662 67.0147 43.5561C66.8307 44.292 66.2788 44.4759 65.5889 44.292L62.5994 43.4641C61.9095 43.2801 61.5416 42.7742 61.7716 42.0843C61.9555 41.3485 62.5074 41.1645 63.1973 41.3485L66.1868 42.1763ZM62.8294 42.0843C62.6454 42.0383 62.4615 42.0843 62.4155 42.3143C62.3695 42.4983 62.4155 42.6822 62.6454 42.7282L65.8649 43.6021C66.0488 43.6481 66.2328 43.6021 66.2788 43.3721C66.3248 43.1881 66.2788 43.0042 66.0488 42.9582L62.8294 42.0843Z" fill="#9FA0A0"/>
<path d="M61.4915 43.6684L61.25 44.3635L66.0723 46.039L66.3138 45.3439L61.4915 43.6684Z" fill="#9FA0A0"/>
<path d="M66.3761 24.8663L61.5078 26.4039L61.7295 27.1057L66.5977 25.568L66.3761 24.8663Z" fill="#9FA0A0"/>
<path d="M59.4995 13.0748L55.6875 16.4707L56.177 17.0202L59.989 13.6243L59.4995 13.0748Z" fill="#9FA0A0"/>
<path d="M67.3831 34.8176H62.9219V35.5994L68.027 35.5534V33.7137H67.3831V34.8176Z" fill="#9FA0A0"/>
<path d="M51.699 63.2407L52.3889 62.8728L49.3534 58.7335L48.4336 59.2394L50.3653 63.9766L50.9172 63.6547L50.3653 62.4129L50.9172 62.0909L51.699 63.2407ZM50.0893 61.861L48.8935 59.2394L50.5492 61.631L50.0893 61.861Z" fill="#9FA0A0"/>
<path d="M58.9179 57.5376L59.4698 56.9857L55.3765 53.8583L54.6406 54.5941L57.8141 58.6415L58.274 58.1815L57.4002 57.1697L57.8601 56.7098L58.9179 57.5376ZM56.9862 56.6638L55.1005 54.4562L57.3542 56.2959L56.9862 56.6638Z" fill="#9FA0A0"/>
<path d="M64.4828 49.673L64.8507 48.9831L60.0215 47.1895L59.5156 48.1553L63.7469 51.0528L64.0229 50.5009L62.919 49.765L63.241 49.2131L64.4828 49.673ZM62.4131 49.3971L59.9755 47.8333L62.6431 48.9372L62.4131 49.3971Z" fill="#9FA0A0"/>
<path d="M67.9354 36.9332L67.9814 36.1514L62.8303 36.4273L62.7383 37.4851L67.7974 38.497L67.8434 37.8531L66.5096 37.6231L66.5556 36.9792L67.9354 36.9332ZM65.9117 37.5311L63.0602 37.0712L65.9577 37.0252L65.9117 37.5311Z" fill="#9FA0A0"/>
<path d="M51.467 57.3078L53.8585 60.7572L50.8691 57.7217L49.9492 58.3196L52.8467 62.5509L53.3526 62.1829L50.8231 58.5035L53.9965 61.769L54.8704 61.1711L51.9729 56.9398L51.467 57.3078Z" fill="#9FA0A0"/>
<path d="M58.8751 49.3051L62.4165 51.6047L58.4612 49.949L57.8633 50.8688L62.1865 53.6284L62.5085 53.1225L58.6911 50.6849L62.9224 52.4786L63.4743 51.5587L59.1971 48.7992L58.8751 49.3051Z" fill="#9FA0A0"/>
<path d="M62.6002 38.8188L66.7395 39.5087L62.5082 39.5547L62.3242 40.6585L67.3834 41.4864L67.4753 40.8885L63.0141 40.1526L67.5673 40.1066L67.7513 39.0488L62.7381 38.2209L62.6002 38.8188Z" fill="#9FA0A0"/>
<path d="M62.0481 28.1947L66.1414 27.2749L62.1861 28.9306L62.4621 29.9884L67.4292 28.8386L67.2912 28.2407L62.922 29.2525L67.1073 27.5048L66.8773 26.447L61.9102 27.5968L62.0481 28.1947Z" fill="#9FA0A0"/>
<path d="M57.1259 51.8346L55.7461 53.4903L56.252 53.9042L56.7119 53.3983L60.1153 56.2498L60.5753 55.6519L57.1718 52.8004L57.6318 52.2485L57.1259 51.8346Z" fill="#9FA0A0"/>
<path d="M61.1278 44.7979L60.2539 46.7295L60.8518 47.0055L61.1278 46.3616L65.221 48.1093L65.543 47.4194L61.4497 45.6717L61.6797 45.0278L61.1278 44.7979Z" fill="#9FA0A0"/>
<path d="M53.9062 14.673L55.424 16.1907L55.8839 15.7308L55.424 15.2709L58.5515 12.0514L57.9995 11.5455L54.8721 14.719L54.3662 14.2131L53.9062 14.673Z" fill="#9FA0A0"/>
<path d="M54.6421 57.4456C54.8721 57.2617 54.7801 57.0317 54.4581 56.6638C54.1822 56.3418 53.9062 56.1119 53.6763 56.2958L53.4463 56.5258L54.4121 57.6296L54.6421 57.4456ZM56.7117 58.1355C57.1717 58.7334 57.3096 59.1473 56.7577 59.6533L55.7919 60.4811L52.4805 56.6178L53.4003 55.8359C53.9062 55.376 54.4121 55.468 54.9181 56.0659C55.424 56.6178 55.5619 57.0777 54.964 57.5836L55.01 57.5376C55.378 57.2157 55.8839 57.2157 56.2518 57.6296C56.2518 57.5836 56.6658 58.0435 56.7117 58.1355ZM55.6539 58.1355C55.424 57.9056 55.194 57.8136 54.964 57.9515L54.7341 58.1355L55.9299 59.5153L56.1598 59.3313C56.3898 59.1473 56.2978 58.9174 56.0219 58.5494C55.8839 58.3195 55.6539 58.1355 55.6539 58.1355Z" fill="#9FA0A0"/>
<path d="M47.0534 59.8832L47.8353 61.6769L47.2374 61.9529L46.4555 60.1592L45.7656 60.4811L47.8813 65.1263L48.5711 64.8044L47.5133 62.5048L48.1112 62.2748L49.169 64.5284L49.8589 64.2525L47.7433 59.5613L47.0534 59.8832Z" fill="#9FA0A0"/>
<path d="M25.1115 20.475L15.0273 23.178L20.9334 45.2122L31.0176 42.5092L25.1115 20.475Z" fill="#E4605B"/>
<path d="M42.9678 39.3108L20.9336 45.2146L23.6355 55.2988L45.6697 49.395L42.9678 39.3108Z" fill="#306B9B"/>
<path d="M55.7904 46.6835L45.6721 49.3971L39.7852 27.3669L49.9034 24.6533L55.7904 46.6835Z" fill="#0096B8"/>
<path d="M47.1514 14.5734L25.1172 20.4772L27.8191 30.5614L49.8533 24.6576L47.1514 14.5734Z" fill="#DFAE74"/>
<path d="M37.4884 3.4049H37.0285V2.20911H36.4766V5.10661H37.0285V4.0028H37.4884V3.4049Z" fill="#9FA0A0"/>
<path d="M35.9233 2.34705H35.4174V3.03693H34.2676V2.34705H33.7617V4.9686H35.9693V2.34705H35.9233ZM35.4174 3.63483V4.41669H34.2676V3.63483H35.4174Z" fill="#9FA0A0"/>
<path d="M34.591 7.03826V6.71631H37.0286V6.16441H34.591V5.88845H37.0286V5.33655H34.0391V7.59016H37.0745V7.03826H34.591Z" fill="#9FA0A0"/>
<path d="M41.9008 3.03703L41.6708 4.55477L41.2569 4.50878L41.4868 2.94505L40.9809 2.85306L40.429 6.34847L39.0033 6.1185L39.4172 3.35898L40.383 3.54295L40.475 2.94505L39.0033 2.71509L38.3594 6.62442L40.337 6.94636L40.1071 8.28013L40.613 8.37212L41.1649 5.10668L41.5788 5.15267L41.0269 8.41811L41.5788 8.5101L42.4067 3.08302L41.9008 3.03703Z" fill="#9FA0A0"/>
<path d="M49.1199 10.3958L50.3157 7.95819L49.8558 7.72823L48.66 10.1658L48.2001 9.93585L49.3959 7.49827L48.89 7.26831L47.7402 9.70589L47.0963 9.38395L46.8203 9.93585L50.0858 11.5456L50.3617 10.9937L49.1199 10.3958Z" fill="#9FA0A0"/>
<path d="M52.0159 6.94632L49.2564 5.61255L48.9805 6.16445L51.2801 7.26827L49.8543 10.1658L50.3142 10.3957L52.0159 6.94632Z" fill="#9FA0A0"/>
<path d="M28.6554 5.10665C28.5175 4.37078 28.9314 3.81887 29.5753 3.6809C30.2652 3.58891 30.7711 4.00284 30.9091 4.73872C31.047 5.47459 30.6331 6.0265 29.9892 6.16447C29.2993 6.25646 28.7934 5.84253 28.6554 5.10665ZM29.8972 5.61257C30.2652 5.56657 30.4951 5.24463 30.4031 4.8307C30.3571 4.41677 30.0352 4.18681 29.6673 4.2328C29.2993 4.2788 29.0694 4.60074 29.1614 5.01467C29.2073 5.4286 29.5293 5.65856 29.8972 5.61257Z" fill="#9FA0A0"/>
<path d="M29.9429 7.63617L29.7129 6.34839L29.207 6.44037L29.483 8.28006L32.5645 7.77414L32.4725 7.22224L29.9429 7.63617Z" fill="#9FA0A0"/>
<path d="M32.3325 3.95686L31.8726 4.00285L31.6426 2.48511L31.1367 2.57709L31.7346 6.25646L32.2405 6.16448L32.0106 4.60074L32.4245 4.50876L32.3325 3.95686Z" fill="#9FA0A0"/>
<path d="M29.7587 3.08302L29.7127 2.71509L29.2068 2.76108L29.2528 3.17501L28.3789 3.31299L28.4249 3.86489L30.7705 3.49695L30.6785 2.94505L29.7587 3.08302Z" fill="#9FA0A0"/>
<path d="M43.5546 5.52065C43.7845 4.78477 44.3824 4.46283 45.0263 4.69279C45.6702 4.87676 45.9921 5.52065 45.7622 6.25652C45.5322 6.9924 44.9343 7.31434 44.2904 7.08438C43.6465 6.90041 43.3246 6.25652 43.5546 5.52065ZM44.4744 6.53248C44.8423 6.62446 45.1643 6.44049 45.3023 6.07255C45.4402 5.65863 45.2563 5.33668 44.8883 5.1987C44.5204 5.10672 44.1984 5.29069 44.0605 5.65863C43.9225 6.07255 44.1065 6.44049 44.4744 6.53248Z" fill="#9FA0A0"/>
<path d="M45.4856 4.23281L45.5776 3.86488L45.0717 3.68091L44.9797 4.09484L44.1058 3.81888L43.9219 4.37079L46.1755 5.06067L46.3595 4.55476L45.4856 4.23281Z" fill="#9FA0A0"/>
<path d="M47.4643 5.93458L46.9584 5.75061L47.3723 4.50883L46.8664 4.37085L45.8086 7.68228L46.3145 7.82026L46.7744 6.34851L47.2803 6.48649L47.4643 5.93458Z" fill="#9FA0A0"/>
<path d="M43.1879 7.08435L43.0039 7.68225L45.5795 8.46411L45.2115 9.65991L45.7174 9.79789L46.2234 8.09618L43.1879 7.08435Z" fill="#9FA0A0"/>
<path d="M26.6305 6.48635L26.4465 5.93445L24.6068 6.53235L24.4229 6.02643L26.1706 5.47453L25.6647 3.95679L23.457 4.64667L23.641 5.19857L25.3427 4.64667L25.4807 5.10659L23.779 5.6125L24.2849 7.22223L26.6305 6.48635Z" fill="#9FA0A0"/>
<path d="M26.6348 3.45229L26.1523 3.60437L27.051 6.45544L27.5335 6.30337L26.6348 3.45229Z" fill="#9FA0A0"/>
<path d="M27.273 7.03833L25.2494 7.68222L25.1114 7.2223L24.6055 7.36027L25.2494 9.47591L28.2848 8.51007L27.6409 6.44043L27.135 6.57841L27.273 7.03833ZM27.411 7.59023L27.595 8.14214L25.5713 8.78603L25.3873 8.23412L27.411 7.59023Z" fill="#9FA0A0"/>
<path d="M22.8133 7.5442L22.5833 6.99229L22.3534 7.08428L21.5715 5.38257L18.582 6.85432L18.858 7.36023L21.3416 6.16443L21.8935 7.31424L19.3179 8.55602L19.5939 9.10793L20.9736 8.46404L21.3416 9.24591L20.0078 9.8898L20.2377 10.3957L22.8593 9.15392L23.4572 10.3957L23.9171 10.1657L23.0433 8.37206L21.8015 8.96995L21.4335 8.23408L22.8133 7.5442Z" fill="#9FA0A0"/>
</g>
<defs>
<clipPath id="clip0_2521_55354">
<rect width="70" height="70" fill="white" transform="translate(0.414062 0.00146484)"/>
</clipPath>
</defs>
</svg>
