<svg width="70" height="70" viewBox="0 0 70 70" fill="none" xmlns="http://www.w3.org/2000/svg">
<g clip-path="url(#clip0_2521_55341)">
<path d="M35 0.00146484C15.6971 0.00146484 0 15.6986 0 35.0015C0 54.3043 15.6971 70.0015 35 70.0015C54.3029 70.0015 70 54.3043 70 35.0015C70 15.6986 54.2901 0.00146484 35 0.00146484ZM34.9873 68.7273C16.3597 68.7273 1.26138 53.6291 1.26138 35.0015C1.26138 16.3739 16.3597 1.27558 34.9873 1.27558C53.6149 1.27558 68.7131 16.3739 68.7131 35.0015C68.7131 53.6291 53.6149 68.7273 34.9873 68.7273Z" fill="#7D7D7D"/>
<path d="M58.8128 34.7848L41.0516 34.6574L58.8001 33.8929L58.7873 33.5999L41.0389 34.3644L58.7236 32.708L58.6854 32.415L41.0134 34.0586L58.5835 31.5231L58.5452 31.23L40.9624 33.7655L58.3923 30.3509L58.3286 30.0578L40.8987 33.4852L58.1375 29.1915L58.0611 28.8984L40.835 33.1922L57.8317 28.0447L57.7425 27.7644L40.7458 32.9119L57.4622 26.9108L57.3603 26.6305L40.6439 32.6188L57.029 25.8023L56.9144 25.5347L40.5292 32.3513L56.5576 24.7193L56.4302 24.4517L40.4018 32.0837L56.0225 23.6618L55.8823 23.3942L40.2616 31.8161L55.4364 22.617L55.2835 22.3622L40.096 31.574L54.7993 21.6232L54.6337 21.3684L39.9304 31.3192L54.1113 20.6549L53.9329 20.4128L39.752 31.0899L53.3723 19.712L53.1812 19.4827L39.5609 30.8605L52.5951 18.8201L52.3912 18.6035L39.357 30.6439L51.7669 17.9665L51.5631 17.7499L39.1404 30.4401L50.9133 17.151L50.6839 16.9472L38.9111 30.2362L49.9959 16.3866L49.7666 16.1955L38.6817 30.0578L49.0531 15.6603L48.811 15.4819L38.4397 29.8795L48.072 14.985L47.8299 14.8194L38.1976 29.7138L47.0654 14.3607L46.8106 14.2078L37.93 29.5737L46.0207 13.7874L45.7658 13.6472L37.6752 29.4208L44.9631 13.265L44.6828 13.1503L37.3949 29.3061L43.8674 12.8063L43.5871 12.6916L37.1146 29.1915L42.7462 12.3858L42.4659 12.2967L36.8343 29.1023L41.6122 12.0418L41.3319 11.9526L36.5412 29.0258L40.4655 11.736L40.1725 11.6723L36.2482 28.9621L39.3061 11.5067L39.013 11.4557L35.9551 28.9111L38.1211 11.3283L37.8281 11.2901L35.6621 28.8729L36.9489 11.2009L36.6432 11.1754L35.3563 28.8602L35.7513 11.1372H35.4582L34.9868 32.2238L34.6555 11.1372H34.3625L34.6428 28.8984L33.4706 11.1754L33.1648 11.1882L34.337 28.9239L32.2857 11.2774L31.9926 11.3156L34.044 28.9494L31.1007 11.443L30.8077 11.494L33.7509 29.0003L29.9413 11.6596L29.6483 11.7233L33.4579 29.064L28.7819 11.9399L28.5015 12.0163L33.1776 29.1405L27.6479 12.2839L27.3676 12.3731L32.8845 29.2297L26.5267 12.6661L26.2464 12.7808L32.6169 29.3443L25.4309 13.1248L25.1506 13.2395L32.3366 29.4718L24.3479 13.6217L24.0804 13.7619L32.0818 29.5992L23.3031 14.1823L23.0356 14.3225L31.8143 29.7521L22.2711 14.7939L22.029 14.9468L31.5722 29.9177L21.29 15.4565L21.048 15.6221L31.3301 30.0961L20.3345 16.1572L20.1051 16.3483L31.1007 30.2745L19.4171 16.9217L19.2005 17.1128L30.8714 30.4783L18.538 17.7117L18.3214 17.9283L30.6548 30.6822L17.7098 18.5653L17.5059 18.7819L30.4637 30.8988L16.9071 19.4445L16.716 19.6738L30.2726 31.1281L16.1681 20.3618L15.977 20.6039L30.0815 31.3702L15.4546 21.3301L15.289 21.5722L29.9158 31.6123L14.8048 22.324L14.6519 22.5788L29.7629 31.8671L14.206 23.3432L14.0658 23.6108L29.6228 32.1347L13.6581 24.4008L13.5307 24.6683L29.4826 32.4022L13.1612 25.4838L13.0465 25.7513L29.3679 32.6698L12.7152 26.5795L12.626 26.8598L29.266 32.9501L12.333 27.7135L12.2438 27.9938L29.1768 33.2431L12.0145 28.8474L11.938 29.1405L29.1131 33.5362L11.7342 30.0069L11.6832 30.2999L29.0494 33.8292L11.5303 31.1791L11.4793 31.4721L29.0112 34.1223L11.3774 32.3513L11.3392 32.6443L28.9857 34.4153L11.2755 33.5362L11.2627 33.842L28.973 34.7211H11.25V35.0269L32.5787 35.0142L11.2627 35.9315L11.2755 36.2373L29.0239 35.4728L11.3392 37.1165L11.3647 37.4222L29.0494 35.7659L11.4793 38.3014L11.5176 38.5944L29.1004 36.0589L11.6705 39.4736L11.7342 39.7666L29.1513 36.352L11.9253 40.633L12.0017 40.9261L29.2151 36.6323L12.2311 41.7797L12.3203 42.06L29.317 36.9253L12.6006 42.9137L12.7025 43.194L29.4189 37.2056L13.0338 44.0222L13.1484 44.2897L29.5336 37.4732L13.5052 45.1052L13.6326 45.3727L29.661 37.7408L14.0403 46.1754L14.1805 46.4303L29.8011 38.0083L14.6264 47.2075L14.7793 47.4623L29.9668 38.2504L15.2635 48.2013L15.4291 48.4561L30.1324 38.5052L15.9515 49.1824L16.1299 49.4117L30.3108 38.7346L16.6905 50.1125L16.8816 50.3418L30.5019 38.9767L17.4677 51.0043L17.6716 51.2209L30.7058 39.1933L18.2959 51.858L18.4997 52.0746L30.9224 39.3844L19.1623 52.6734L19.3789 52.8773L31.1517 39.5882L20.0541 53.4506L20.2962 53.629L31.3811 39.7794L21.0097 54.1641L21.2518 54.3425L31.6231 39.945L21.9781 54.8394L22.2329 55.0051L31.8652 40.1106L22.9974 55.4637L23.2522 55.6166L32.1328 40.2635L24.0294 56.0371L24.297 56.1772L32.3876 40.4037L25.0997 56.5595L25.38 56.6869L32.6679 40.5184L26.1954 57.0309L26.4757 57.1328L32.9355 40.633L27.3166 57.4386L27.5969 57.5278L33.2285 40.7222L28.4506 57.7954L28.7309 57.8718L33.5216 40.7987L29.5973 58.0884L29.8903 58.1521L33.8146 40.8624L30.7567 58.3305L31.0498 58.3815L34.1077 40.9133L31.9417 58.5089L32.2347 58.5471L34.4007 40.9515L33.1138 58.6236L33.4196 58.649L34.6938 40.977L34.3115 58.6873H34.6046L35.076 37.6134L35.4073 58.7L35.7003 58.6873L35.42 40.9261L36.5922 58.649L36.8852 58.6363L35.7258 40.9006L37.7771 58.5471L38.0702 58.5216L36.0188 40.8751L38.9493 58.3815L39.2424 58.3433L36.3119 40.8241L40.1215 58.1649L40.4145 58.1012L36.5922 40.7604L41.2809 57.8846L41.5613 57.8081L36.8852 40.684L42.4149 57.5533L42.6952 57.4514L37.1655 40.5948L43.5361 57.1583L43.8164 57.0437L37.4458 40.4801L44.6319 56.7124L44.9122 56.585L37.7134 40.3527L45.7149 56.2027L45.9824 56.0626L37.981 40.2253L46.7596 55.6421L47.0272 55.502L38.2485 40.0724L47.7789 55.0305L48.0338 54.8777L38.4906 39.9068L48.7728 54.3807L49.0148 54.2024L38.7327 39.7411L49.7283 53.6672L49.9577 53.4889L38.962 39.55L50.6457 52.9155L50.8623 52.7117L39.1914 39.3589L51.5248 52.1128L51.7287 51.909L39.3953 39.1423L52.353 51.2719L52.5569 51.0553L39.5991 38.9257L53.1557 50.38L53.3468 50.1507L39.7902 38.6964L53.8947 49.4627L54.0731 49.2206L39.9686 38.4543L54.5955 48.5071L54.7738 48.2522L40.147 38.2122L55.258 47.5005L55.4109 47.2584L40.2999 37.9574L55.8568 46.4812L55.997 46.2264L40.44 37.6898L56.4047 45.4237L56.5321 45.1561L40.5674 37.4222L56.9016 44.3534L57.0163 44.0731L40.6948 37.1547L57.3348 43.245L57.4367 42.9647L40.7968 36.8744L57.7298 42.1237L57.8062 41.8307L40.8732 36.5813L58.0483 40.977L58.1248 40.684L40.9497 36.2883L58.3286 39.8176L58.3796 39.5245L41.0006 35.9952L58.5325 38.6454L58.5835 38.3524L41.0516 35.7022L58.6854 37.4732L58.7236 37.1802L41.0771 35.4091L58.7746 36.2883L58.8001 35.9952L37.4841 34.925L58.8128 35.0779V34.7848Z" fill="#7D7D7D"/>
<path d="M32.3645 12.233L31.4089 12.6535C31.1796 12.7554 30.912 12.8319 30.6317 12.8701L30.3769 12.9083L30.0456 13.8384C30.0456 13.8384 30.3259 13.8512 30.4916 13.8512C30.3514 14.2334 29.9182 15.4056 29.9182 15.4056C29.9182 15.4056 29.8672 15.533 29.8418 15.5967C29.7908 15.6094 29.4468 15.6604 29.4468 15.6604L29.3321 15.8897L29.0391 16.616H31.1923L31.5618 15.6986C31.5618 15.6986 31.2688 15.6604 31.1159 15.6349C31.2433 15.2782 32.3645 12.233 32.3645 12.233Z" fill="white"/>
<path d="M34.9115 12.9721C34.7841 12.8192 34.542 12.6281 34.1215 12.6281C33.3698 12.6281 32.6308 13.3033 32.4779 14.1315C32.4652 14.2207 32.4524 14.3099 32.4524 14.3991C32.4524 14.6666 32.5416 14.9087 32.6945 15.0998C32.7837 15.2018 32.8856 15.2782 32.9876 15.3292C32.7455 15.5076 32.4907 15.635 32.2358 15.6859L31.9046 15.7496L31.8281 16.6925H32.3123C32.4907 16.6925 32.8219 16.616 33.0768 16.5141C33.8667 16.2211 34.886 15.4184 35.1281 14.1188C35.1791 13.8639 35.2173 13.3416 34.9115 12.9721ZM33.9304 13.762C33.9304 13.813 33.9304 13.8512 33.9049 13.9277C33.9049 13.9277 33.8412 14.1315 33.7903 14.2717C33.7648 14.2844 33.7393 14.2844 33.7266 14.2971C33.7266 14.2717 33.7266 14.2334 33.7393 14.1825C33.7775 13.9659 33.854 13.8385 33.9304 13.762Z" fill="white"/>
<path d="M37.1411 13.9276C37.2303 13.8639 37.3194 13.8002 37.4214 13.762L38.2113 13.5199L38.275 13.2014L38.3133 12.5006L37.7526 12.6025L37.6507 12.628L37.0646 12.7682C35.9179 13.1377 35.1152 14.0423 34.8986 15.189C34.8859 15.2782 34.8731 15.3674 34.8731 15.4566L34.8477 15.5075L34.8731 15.4948C34.8731 15.5075 34.8731 15.5203 34.8731 15.533C34.8731 15.8515 34.9623 16.1191 35.1407 16.323C35.3318 16.5523 35.6249 16.6925 35.9434 16.6925C36.7206 16.6925 37.4596 16.0044 37.6252 15.138C37.638 15.0361 37.6507 14.9342 37.6507 14.845C37.6507 14.5647 37.5743 14.3226 37.4086 14.1315C37.3449 14.0423 37.243 13.9786 37.1411 13.9276ZM36.3766 14.9214C36.3766 14.9469 36.3766 14.9979 36.3639 15.0488C36.3001 15.3674 36.1855 15.5075 36.109 15.5712C36.109 15.5203 36.109 15.4438 36.1345 15.3546C36.1727 15.189 36.211 15.0616 36.2492 14.9597C36.3001 14.9469 36.3639 14.9087 36.3766 14.9214Z" fill="white"/>
<path d="M40.5448 12.9465C40.4174 12.7936 40.2008 12.6152 39.8185 12.6152C38.6463 12.6152 37.9328 14.2588 37.7672 15.0488C37.678 15.431 37.6525 15.9789 37.9456 16.3484C38.0602 16.5013 38.2896 16.6797 38.6718 16.6797C39.8568 16.6797 40.5703 15.0233 40.7359 14.2079C40.7996 13.8384 40.8378 13.316 40.5448 12.9465ZM39.4873 14.0422C39.3853 14.45 39.1942 14.9086 39.0031 15.2527C39.1178 14.8322 39.2961 14.3735 39.4873 14.0422Z" fill="white"/>
<path d="M29.6758 16.1827L29.7267 16.0681C30.1345 16.0299 30.1727 16.0044 30.3256 15.5712L31.0009 13.7492C31.1028 13.4689 31.0901 13.4307 30.848 13.4307H30.6569L30.6951 13.316C31.0009 13.265 31.3067 13.1886 31.587 13.0612L30.6569 15.5712C30.504 15.9916 30.5294 16.0171 30.9244 16.0681L30.8862 16.1827H29.6758Z" fill="#7D7D7D"/>
<path d="M34.0326 13.2141C34.4912 13.2141 34.3766 13.8001 34.3383 14.004C34.2874 14.2461 34.2109 14.4372 34.1472 14.5901C34.0326 14.6665 33.8414 14.743 33.6885 14.743C33.3445 14.743 33.2299 14.4627 33.3063 14.0932C33.3828 13.6473 33.6758 13.2141 34.0326 13.2141ZM34.1217 13.0612C33.5994 13.0612 33.026 13.5835 32.9113 14.2079C32.8221 14.6665 33.0642 14.9978 33.4337 14.9978C33.5102 14.9978 33.5994 14.9723 33.7013 14.9341L34.0835 14.7557C33.6503 15.5329 32.9496 16.0044 32.3252 16.119L32.3125 16.2465C32.4017 16.2465 32.682 16.1955 32.9368 16.1063C33.714 15.826 34.5167 15.087 34.7078 14.0422C34.7843 13.5963 34.6824 13.0612 34.1217 13.0612Z" fill="#7D7D7D"/>
<path d="M36.39 14.4627C36.8232 14.4627 36.8487 14.8449 36.7977 15.1252C36.6958 15.6858 36.39 16.068 36.046 16.068C35.6765 16.068 35.6255 15.6603 35.7019 15.2653C35.7529 14.985 35.8421 14.743 35.9185 14.6155C36.046 14.5518 36.2243 14.4627 36.39 14.4627ZM37.8425 13.0356C37.6768 13.0739 37.4475 13.0994 37.2054 13.1885C36.3135 13.4688 35.5363 14.1951 35.3325 15.2653C35.2305 15.826 35.4599 16.2464 35.9313 16.2464C36.4664 16.2464 37.0525 15.7495 37.1799 15.0487C37.2691 14.5901 37.078 14.2206 36.6321 14.2206C36.5429 14.2206 36.4409 14.2588 36.339 14.297L36.0077 14.4627V14.4499C36.4282 13.7746 36.8996 13.4816 37.2691 13.3414C37.473 13.265 37.6896 13.2013 37.8425 13.1758V13.0356Z" fill="#7D7D7D"/>
<path d="M39.7543 13.2141C40.0856 13.2141 40.0218 13.6473 39.9709 13.953C39.869 14.4245 39.3338 16.0808 38.7222 16.0808C38.4165 16.0808 38.4547 15.6476 38.5184 15.3163C38.6331 14.8322 39.1554 13.2141 39.7543 13.2141ZM39.8052 13.0612C38.9643 13.0612 38.34 14.4117 38.1871 15.138C38.0724 15.6604 38.1234 16.2337 38.6585 16.2337C39.4995 16.2337 40.1365 14.8704 40.2894 14.1187C40.3913 13.6218 40.3531 13.0612 39.8052 13.0612Z" fill="#7D7D7D"/>
<path d="M47.4622 38.4798C44.0348 29.6119 47.2328 22.2985 47.2328 22.2985L43.2831 17.9792H26.7323L22.7825 22.2985C22.7825 22.2985 25.9933 29.6247 22.5532 38.4798C21.9671 39.996 20.7185 44.3153 23.0119 48.0484C25.6238 52.304 31.9307 55.0433 35.0141 56.6487C38.0974 55.0433 44.3916 52.304 47.0162 48.0484C49.2969 44.3153 48.061 39.996 47.4622 38.4798Z" fill="white"/>
<path d="M46.9027 41.1682C46.7371 40.5184 46.5332 39.8431 46.3166 39.1296C45.5521 36.6196 44.5583 33.7656 44.5583 29.6247C44.5583 27.2294 45.0425 25.3055 45.6413 22.5151C44.9788 21.8016 43.1568 19.9159 42.5834 19.2916C41.4113 19.2916 28.6064 19.2916 27.4342 19.2916C26.8481 19.9159 25.0389 21.8016 24.3763 22.5151C24.9751 25.3055 25.4593 27.2166 25.4593 29.6247C25.4593 33.7656 24.4528 36.6196 23.701 39.1296C23.4844 39.8431 23.2806 40.5057 23.1149 41.1682C23.1149 41.1682 22.1593 44.8504 24.7331 48.1631C26.5678 50.6094 29.8295 52.4951 32.4415 53.8584C33.4862 54.4063 34.3399 54.6866 35.0152 55.1325C35.6905 54.6866 36.5314 54.4063 37.5889 53.8584C40.2008 52.4951 43.4498 50.6094 45.2973 48.1631C47.8583 44.8504 46.9027 41.1682 46.9027 41.1682Z" fill="#B60005"/>
<mask id="mask0_2521_55341" style="mask-type:luminance" maskUnits="userSpaceOnUse" x="22" y="19" width="26" height="37">
<path d="M46.9027 41.1682C46.7371 40.5184 46.5332 39.8431 46.3166 39.1296C45.5521 36.6196 44.5583 33.7656 44.5583 29.6247C44.5583 27.2294 45.0425 25.3055 45.6413 22.5151C44.9788 21.8016 43.1568 19.9159 42.5834 19.2916C41.4113 19.2916 28.6064 19.2916 27.4342 19.2916C26.8481 19.9159 25.0389 21.8016 24.3763 22.5151C24.9751 25.3055 25.4593 27.2166 25.4593 29.6247C25.4593 33.7656 24.4528 36.6196 23.701 39.1296C23.4844 39.8431 23.2806 40.5057 23.1149 41.1682C23.1149 41.1682 22.1593 44.8504 24.7331 48.1631C26.5678 50.6094 29.8295 52.4951 32.4415 53.8584C33.4862 54.4063 34.3399 54.6866 35.0152 55.1325C35.6905 54.6866 36.5314 54.4063 37.5889 53.8584C40.2008 52.4951 43.4498 50.6094 45.2973 48.1631C47.8583 44.8504 46.9027 41.1682 46.9027 41.1682Z" fill="white"/>
</mask>
<g mask="url(#mask0_2521_55341)">
<path d="M48.2919 42.8119L35.0028 29.8923L21.701 42.8119C21.3188 44.7868 21.3953 46.8636 21.8157 48.367L35.0028 35.9062L48.1899 48.367C48.5977 46.8636 48.6741 44.7868 48.2919 42.8119Z" fill="white"/>
</g>
<path d="M27.4464 23.0375C27.4464 22.7445 27.4082 22.6425 27.1406 22.6171V22.5151H28.4912V22.6171C28.2236 22.6425 28.1854 22.7317 28.1854 23.0375V26.707C28.1854 27 28.2109 27.102 28.4784 27.1147V27.2294H27.1406V27.1402C27.4082 27.1147 27.4464 27.0255 27.4464 26.7325V23.0375Z" fill="white"/>
<path d="M32.2621 24.5792V23.0503C32.2621 22.7572 32.2876 22.6553 32.0328 22.6298V22.5151H33.2942V22.6298C33.0139 22.6553 32.9884 22.7445 32.9884 23.0503V26.707C32.9884 27 33.0139 27.102 33.2942 27.1274V27.2421H31.9691V27.1402C32.2494 27.1147 32.2621 27.0255 32.2621 26.7325V24.9232H30.4656V26.7325C30.4656 27.0255 30.4784 27.1274 30.7332 27.1402V27.2421H29.4336V27.1529C29.7012 27.1274 29.7394 27.0255 29.7394 26.7452V23.0503C29.7394 22.7572 29.7139 22.6553 29.4336 22.6298V22.5279H30.695V22.6298C30.4529 22.6553 30.4784 22.7572 30.4784 23.0503V24.6047H32.2621V24.5792Z" fill="white"/>
<path d="M33.9058 26.3629C33.9695 26.554 34.4536 27.0509 35.2054 27.0509C35.7023 27.0509 36.0081 26.7069 36.0081 26.21C36.0081 25.7259 35.6641 25.4073 35.1417 25.1525C34.5811 24.8722 33.8803 24.4645 33.8803 23.7382C33.8803 23.0247 34.4536 22.4259 35.4602 22.4259C35.8679 22.4259 36.1864 22.5278 36.403 22.5915C36.4285 22.8718 36.454 23.0247 36.4795 23.2413L36.3521 23.2668C36.2756 23.0502 36.0208 22.719 35.32 22.719C34.8614 22.719 34.5938 23.063 34.5938 23.4707C34.5938 23.9039 34.9251 24.1714 35.4475 24.4263C36.0718 24.7321 36.7343 25.127 36.7343 25.9297C36.7343 26.7579 36.0463 27.344 35.0525 27.344C34.8104 27.344 34.5683 27.3058 34.3899 27.2548C34.1988 27.2038 34.0332 27.1529 33.893 27.0892C33.8293 26.8853 33.8166 26.6177 33.7656 26.4011L33.9058 26.3629Z" fill="white"/>
<path d="M38.5059 44.3407L38.1746 45.3472C38.1746 45.3472 38.5314 45.3982 38.8754 45.4874L38.2893 47.0673C38.2893 47.0673 37.1426 46.8762 36.0341 46.8125L36.0978 45.1052C36.0978 45.1052 36.3399 45.1052 36.6712 45.1434L36.7858 44.1496C36.2125 44.0986 35.6264 44.0731 35.0403 44.0731C34.4542 44.0731 33.8681 44.0986 33.282 44.1496L33.3967 45.1434C33.7279 45.1052 33.97 45.1052 33.97 45.1052L34.0337 46.8125C32.9252 46.8634 31.7785 47.0673 31.7785 47.0673L31.1924 45.4874C31.5492 45.4109 31.8932 45.3472 31.8932 45.3472L31.5492 44.3407C30.3006 44.5445 29.0902 44.8376 27.918 45.2326C29.3959 47.2712 30.8357 50.1124 30.8357 50.1124C35.3716 49.2078 39.2321 50.1124 39.2321 50.1124C39.9202 48.6472 41.551 45.9843 42.1499 45.2326C40.9649 44.8503 39.7545 44.5445 38.5059 44.3407Z" fill="white"/>
<path d="M8.85299 24.7575C8.82751 25.2162 8.43253 25.5602 7.97385 25.5347C7.51517 25.5092 7.17116 25.1143 7.19664 24.6683C7.22212 24.2096 7.6171 23.8656 8.06304 23.8911C8.52172 23.9038 8.86573 24.2988 8.85299 24.7575Z" fill="#7D7D7D"/>
<path d="M63.0668 24.6301C63.0923 25.0888 62.7483 25.471 62.2896 25.4965C61.8309 25.522 61.4487 25.178 61.4232 24.7193C61.3977 24.2606 61.7417 23.8657 62.2004 23.8402C62.6464 23.8274 63.0413 24.1842 63.0668 24.6301Z" fill="#7D7D7D"/>
<path d="M5.47831 32.3258C4.87947 32.4787 3.65632 33.0011 3.6181 33.9822C3.59261 34.5937 4.03856 34.976 4.67561 35.0015C5.3509 35.0269 5.7841 34.632 6.19181 33.893C6.7142 32.9374 7.364 32.2494 8.37055 32.2876C9.54274 32.3385 10.4219 33.1795 10.3709 34.581C10.3454 35.1926 10.1288 35.715 10.0396 35.9316C9.64467 35.957 9.16051 36.008 8.43426 36.0717L8.37055 35.6767C9.02035 35.5111 9.84853 35.2181 9.88675 34.4281C9.91224 33.8293 9.45355 33.4853 8.89294 33.4598C8.34507 33.4343 7.9501 33.7783 7.52964 34.5937C7.01999 35.5875 6.34471 36.2501 5.27445 36.2119C4.00033 36.1609 3.09571 35.1926 3.15942 33.7528C3.17216 33.3706 3.26134 33.0138 3.36327 32.7463C3.4652 32.4787 3.56713 32.2876 3.63084 32.1602C3.91114 32.0837 4.65013 32.0073 5.37638 31.9181L5.47831 32.3258Z" fill="#7D7D7D"/>
<path d="M9.14603 40.1871C9.33715 41.1427 8.3943 41.8817 6.71246 42.2002C5.11982 42.506 4.26616 42.1237 4.12601 41.3593C3.93489 40.34 5.01789 39.5755 6.52135 39.2952C7.9611 39.0149 8.99313 39.3716 9.14603 40.1871ZM9.57923 40.238C9.23522 38.4161 7.46419 37.8427 6.06266 38.1103C4.45728 38.4288 3.38702 39.6902 3.69281 41.2828C3.98585 42.7863 5.40012 43.7164 7.22211 43.3596C8.90395 43.0411 9.85953 41.6905 9.57923 40.238Z" fill="#7D7D7D"/>
<path d="M7.97538 50.0998C7.68233 50.2272 7.44025 50.3546 7.26187 50.482C6.9306 50.0998 6.47192 49.5901 6.20435 49.004C5.43988 47.3477 6.0005 45.806 7.63137 45.067C9.46609 44.2389 11.0078 45.1307 11.6958 46.6214C11.9634 47.2203 12.078 47.8191 12.129 48.0994C11.8614 48.2523 11.4665 48.4689 10.8167 48.8384L10.6383 48.5581C11.5174 47.8828 11.5302 47.2203 11.2626 46.6469C10.8549 45.7678 9.72092 45.462 8.30665 46.1118C7.04527 46.6852 6.08968 47.7172 6.63755 48.9149C6.70126 49.055 6.79045 49.1824 6.90512 49.2334C7.00705 49.2844 7.17268 49.2844 7.40202 49.1824L8.12827 48.8512C8.6634 48.6091 8.70162 48.5454 8.43406 47.7682L8.73985 47.628L9.73366 49.8067L9.42787 49.9469C9.18579 49.6284 9.13482 49.5901 8.63792 49.8195L7.97538 50.0998Z" fill="#7D7D7D"/>
<path d="M11.1336 52.5333C11.7452 52.3167 12.3313 52.0873 12.9683 51.8707L12.9811 51.8835L11.8471 53.4761L11.1336 52.5333ZM11.5668 53.8711C11.4012 54.1259 11.1463 54.5209 11.0062 54.7375C10.7768 55.0815 10.6877 55.107 10.3309 54.7503L10.0633 54.9541L11.4394 56.7379L11.7069 56.534C11.4903 56.1645 11.4521 56.0116 11.9108 55.3109C12.4077 54.5591 13.0448 53.6418 13.6691 52.7244L14.6374 51.3101L14.2552 51.0171L9.70658 52.5078C8.94211 52.7499 8.8147 52.6862 8.47069 52.3422L8.20312 52.546L9.32435 53.9985L9.59191 53.7947C9.27338 53.2978 9.36257 53.2468 9.78303 53.0684C10.1143 52.9283 10.4711 52.7881 10.6877 52.7244L11.5668 53.8711Z" fill="#7D7D7D"/>
<path d="M15.9507 55.4383C16.3075 54.9923 16.4349 54.8394 16.4604 54.5846C16.4731 54.317 16.3585 54.1514 16.1291 53.9221L16.3457 53.6672L17.4797 54.5973L17.3523 59.4899L17.365 59.5027L18.3333 58.305C18.8302 57.6934 19.0723 57.324 19.2125 57.1074C19.3909 56.827 19.3271 56.585 18.9194 56.2027L19.136 55.9479L20.7159 57.2348L20.4993 57.4896C20.1808 57.2602 19.9515 57.2475 19.7094 57.4896C19.5055 57.6807 19.1997 57.9865 18.7028 58.5981L16.5241 61.2737L16.1164 60.9424L16.3839 55.6931L16.3712 55.6803L15.199 57.1201C14.7021 57.7317 14.4728 58.0757 14.3326 58.305C14.1542 58.5981 14.2179 58.8274 14.6129 59.1969L14.3963 59.4517L12.8164 58.1521L13.033 57.8973C13.3643 58.1266 13.6064 58.1521 13.8484 57.9228C14.065 57.7189 14.3581 57.4259 14.855 56.827L15.9507 55.4383Z" fill="#7D7D7D"/>
<path d="M23.4704 63.8603C23.3302 64.1406 23.2155 64.4081 23.1646 64.5992C22.6677 64.5228 21.9796 64.4081 21.4063 64.1278C19.7627 63.3251 19.2148 61.7834 20.0048 60.178C20.8966 58.3688 22.6549 58.0885 24.1329 58.8147C24.719 59.1078 25.1904 59.5028 25.407 59.6939C25.2924 59.9742 25.1267 60.4074 24.8592 61.1082L24.5406 61.0062C24.7954 59.936 24.375 59.4008 23.8144 59.1333C22.948 58.7001 21.8777 59.197 21.1897 60.5985C20.5781 61.8344 20.5017 63.2487 21.6739 63.822C21.814 63.8857 21.9542 63.9367 22.0816 63.8985C22.1962 63.873 22.3237 63.7711 22.4383 63.5417L22.7951 62.8282C23.0499 62.3058 23.0372 62.2294 22.3364 61.7962L22.4893 61.4904L24.6426 62.5479L24.4897 62.8537C24.0947 62.7645 24.0437 62.7645 23.8016 63.2487L23.4704 63.8603Z" fill="#7D7D7D"/>
<path d="M29.3188 61.2101C29.4335 60.2418 29.357 60.1526 28.6562 59.9869L28.7072 59.5792L31.6377 59.936L31.5867 60.3437C30.8732 60.331 30.7585 60.3947 30.6439 61.363L30.3636 63.6437C30.1725 65.249 30.5547 66.1919 31.5867 66.3193C32.7079 66.4595 33.3195 65.5803 33.5361 63.822L33.6635 62.7773C33.7527 62.051 33.7655 61.5031 33.7527 61.1719C33.7527 60.7896 33.5361 60.624 32.8991 60.5093L32.95 60.1016L35.3963 60.4074L35.3454 60.8151C34.8485 60.7896 34.6064 60.9043 34.5044 61.2865C34.428 61.6051 34.3133 62.1402 34.2241 62.8664L34.0967 63.9494C33.9693 65.0197 33.689 65.9371 33.0774 66.4977C32.5933 66.9436 31.8798 67.1475 31.1535 67.0583C30.5037 66.9818 29.8921 66.7652 29.4589 66.2683C29.013 65.7587 28.8729 64.956 29.0257 63.7201L29.3188 61.2101Z" fill="#7D7D7D"/>
<path d="M36.9755 62.9302C36.899 62.3696 36.8608 62.1657 36.6824 61.9746C36.4913 61.7835 36.3002 61.758 35.9689 61.7707L35.918 61.4395L37.3705 61.2229L40.887 64.6248H40.8998L40.6832 63.0958C40.5685 62.3186 40.4538 61.8854 40.4029 61.6433C40.3137 61.3248 40.0843 61.2101 39.5492 61.2483L39.4982 60.9171L41.5113 60.624L41.5623 60.9553C41.1801 61.0317 41.0144 61.1974 41.0272 61.5414C41.0272 61.8217 41.0399 62.2549 41.1546 63.0321L41.6515 66.4467L41.1291 66.5232L37.4469 62.7773H37.4342L37.7017 64.612C37.8164 65.3892 37.9183 65.7969 37.982 66.0645C38.0712 66.3958 38.3006 66.5104 38.823 66.4595L38.8739 66.7908L36.8481 67.0838L36.7971 66.7525C37.1921 66.6761 37.3705 66.5104 37.3705 66.1664C37.3577 65.8734 37.3577 65.4529 37.243 64.6757L36.9755 62.9302Z" fill="#7D7D7D"/>
<path d="M43.2058 61.2229C42.9764 60.5348 42.8745 60.4966 42.3011 60.6368L42.1992 60.3182L44.5054 59.541L44.6073 59.8595C44.0722 60.1016 44.0212 60.1908 44.2505 60.8788L45.3208 64.0514C45.5501 64.7394 45.6393 64.7776 46.2254 64.6502L46.3274 64.9688L44.0212 65.746L43.9193 65.4274C44.4544 65.1854 44.5181 65.0962 44.276 64.4081L43.2058 61.2229Z" fill="#7D7D7D"/>
<path d="M50.1876 63.2359C48.9517 62.1019 47.2317 60.5603 46.5436 59.9614C45.9958 59.4773 45.8556 59.4773 45.4352 59.6429L45.2695 59.3498L47.3336 58.1904L47.4992 58.4834C47.0151 58.8275 47.0406 58.8912 47.3081 59.146C47.6394 59.4773 48.9772 60.6749 49.9201 61.5158L49.9455 61.5031C49.7417 60.3182 49.5123 59.095 49.334 58.3051C49.2066 57.7317 49.1174 57.6298 48.544 57.8973L48.3784 57.6043L50.0602 56.6742L50.2259 56.9672C49.8309 57.2603 49.7417 57.375 49.8564 58.2414C49.9583 58.9166 50.3023 61.1209 50.6336 62.9811L50.1876 63.2359Z" fill="#7D7D7D"/>
<path d="M51.8679 56.6488C51.3837 56.1009 51.2818 56.1009 50.8103 56.4449L50.5938 56.1901L53.435 53.7056C53.537 53.8075 53.9956 54.2662 54.4034 54.6739L54.174 54.9287C53.8682 54.6994 53.6261 54.5847 53.435 54.572C53.2312 54.5465 53.0018 54.6612 52.6833 54.9415L52.4412 55.1581C52.2246 55.3492 52.2119 55.3874 52.403 55.604L53.5624 56.9163L53.9702 56.5596C54.4925 56.1009 54.4671 56.0499 54.1103 55.4893L54.3651 55.2727L55.6393 56.7252L55.3844 56.9418C54.862 56.4959 54.8111 56.4704 54.2887 56.9291L53.881 57.2858L54.9003 58.4453C55.1806 58.7638 55.3335 58.8912 55.5118 58.8403C55.6647 58.802 55.8304 58.6619 56.0597 58.458C56.3273 58.2287 56.5439 57.9356 56.5311 57.6553C56.5311 57.4515 56.4419 57.1202 56.2763 56.7252L56.5694 56.5723C56.786 56.8909 57.2446 57.6681 57.3593 57.8847L54.2759 60.5731L54.0593 60.3182C54.5435 59.8086 54.569 59.7067 54.0848 59.1588L51.8679 56.6488Z" fill="#7D7D7D"/>
<path d="M55.9318 52.0237C55.7917 51.9217 55.728 51.8453 55.7152 51.7688C55.7025 51.7051 55.7407 51.6032 55.8426 51.4631C56.0975 51.1318 56.6708 50.9024 57.3716 51.4376C57.7029 51.6924 57.9322 51.9982 57.9704 52.3804C57.9959 52.6225 57.894 52.8518 57.6901 53.1067L57.5627 53.2723L55.9318 52.0237ZM58.2635 55.1198C58.8496 55.5657 58.8496 55.6549 58.531 56.19L58.7986 56.3939L60.2638 54.4572L59.9963 54.2534C59.5886 54.6993 59.4866 54.7248 58.9133 54.2789L57.894 53.5016L57.9959 53.3742C58.1488 53.1704 58.3017 53.1449 58.5693 53.1959C59.0662 53.2978 59.614 53.4379 60.06 53.4762C60.6843 53.5271 61.041 53.4507 61.6908 52.6735C61.7673 52.597 61.8183 52.5333 61.8692 52.4569L61.6399 52.2403C61.487 52.3422 61.3341 52.3804 61.0793 52.3932C60.8499 52.4186 60.4804 52.3804 59.9071 52.3295C59.4484 52.2912 58.8113 52.1511 58.5438 52.1001C58.6839 51.5013 58.582 50.8897 57.9449 50.4183C57.5372 50.1125 57.0913 50.036 56.709 50.1635C56.3396 50.2781 56.0083 50.5712 55.6006 51.119L54.25 52.9028L54.5176 53.1067C54.9125 52.6735 55.0017 52.6607 55.5878 53.0939L58.2635 55.1198Z" fill="#7D7D7D"/>
<path d="M61.2337 49.8067C61.7306 49.8832 62.8263 49.9087 63.1831 49.1824C63.3997 48.7365 63.1958 48.2905 62.7244 48.0612C62.2275 47.8191 61.7688 47.972 61.221 48.3925C60.5074 48.9403 59.7939 49.2461 59.0422 48.8766C58.1758 48.4562 57.7936 47.5133 58.3032 46.4813C58.5198 46.0353 58.8638 45.7041 59.004 45.5767C59.3098 45.6913 59.692 45.8187 60.2526 46.0099L60.1762 46.3284C59.6283 46.2392 58.9148 46.1755 58.6218 46.7616C58.4052 47.2075 58.6345 47.6152 59.0422 47.8191C59.4499 48.023 59.8576 47.8956 60.4437 47.4241C61.1572 46.838 61.8835 46.5705 62.6862 46.9654C63.629 47.4241 63.9858 48.4562 63.4634 49.5264C63.3232 49.8067 63.1449 50.0488 62.9665 50.2144C62.8009 50.3801 62.6607 50.4947 62.5715 50.5585C62.3294 50.5202 61.7433 50.3419 61.17 50.1507L61.2337 49.8067Z" fill="#7D7D7D"/>
<path d="M60.6972 44.1242C59.9964 43.8948 59.92 43.9585 59.6779 44.5064L59.3594 44.4045L60.0984 42.0856L60.4169 42.1875C60.2895 42.7736 60.3277 42.8628 61.0285 43.0794L64.2138 44.0987C64.9145 44.3153 64.991 44.2771 65.2331 43.7292L65.5516 43.8311L64.8126 46.15L64.4941 46.0481C64.6087 45.462 64.5833 45.3728 63.8825 45.1562L60.6972 44.1242Z" fill="#7D7D7D"/>
<path d="M61.0549 39.5628L61.0294 39.7667C60.9403 40.3655 61.0294 40.5694 61.1569 40.7095C61.2843 40.837 61.5263 40.9771 61.9595 41.1555L61.9086 41.474C61.2206 41.3466 60.6217 41.2064 60.1758 41.13L60.2013 40.9389C60.4179 40.837 60.4433 40.7732 60.4816 40.5566L60.9275 37.3586C60.953 37.1548 60.9148 37.0528 60.7746 36.8999L60.8001 36.7216C61.1696 36.7598 61.9086 36.8362 62.5329 36.8744L62.5074 37.193C62.0233 37.2185 61.7302 37.2822 61.5773 37.3841C61.4117 37.4988 61.3225 37.7536 61.2588 38.1741L61.2206 38.4798L65.285 39.0532C66.0112 39.1551 66.0749 39.0787 66.2406 38.3906L66.5719 38.4416L66.2024 41.0536L65.8711 41.0026C65.9093 40.3273 65.8583 40.2381 65.1321 40.1362L61.0549 39.5628Z" fill="#7D7D7D"/>
<path d="M64.5068 33.8038C64.2647 33.8165 64.201 33.8548 64.0099 33.9567C63.513 34.2115 62.9906 34.5428 62.035 35.1161C61.4871 35.4474 61.4489 35.5493 61.4107 35.9698L61.0794 35.9953L60.9138 33.7401L61.245 33.7146C61.3597 34.237 61.4489 34.2243 61.7165 34.0841C62.3153 33.7656 62.9524 33.3833 63.513 33.0393C63.0415 32.8482 62.1752 32.5169 61.6273 32.3513C61.296 32.2621 61.2196 32.2749 61.1941 32.8737L60.8628 32.8992L60.7227 30.988L61.0539 30.9625C61.1559 31.4594 61.2705 31.5868 61.8184 31.8417C62.3408 32.0837 62.8122 32.3131 63.6022 32.6061C63.9207 32.7335 63.9717 32.7463 64.3284 32.7208L65.335 32.6571C66.1122 32.6061 66.1631 32.5297 66.1759 31.8162L66.5071 31.7907L66.6983 34.3899L66.367 34.4154C66.2651 33.7401 66.1886 33.6764 65.4114 33.7401L64.5068 33.8038Z" fill="#7D7D7D"/>
<path d="M34.3634 7.90091C34.0704 8.02832 34.0576 8.06655 33.8028 8.06655C33.5352 8.06655 33.6754 8.09203 33.4588 8.04107C33.3186 8.01558 33.2804 8.00284 33.1403 7.96462C32.9237 7.91365 32.4268 7.83721 32.4013 7.09822C32.3885 6.32101 32.3376 5.5438 32.465 5.40364C32.5924 5.25075 32.5414 5.1106 32.5542 5.00867C32.5669 4.894 32.7198 4.84303 32.7962 4.85577C32.8727 4.86851 33.0128 4.91948 33.2422 4.91948C33.2422 4.91948 33.4588 4.85577 33.5862 4.85577C33.6626 4.84303 33.8538 4.90674 34.0704 4.70288C34.0704 4.70288 34.4653 4.39709 34.4781 4.18049C34.4908 3.95115 34.4271 3.6581 33.9175 3.6581C33.4715 3.6581 33.0383 3.63262 32.7708 3.5944C32.5542 3.56891 32.3758 3.54343 32.2229 3.53069C32.2229 3.53069 31.8661 3.39054 31.5858 3.68358C31.3692 3.90018 31.4202 4.0276 31.4839 4.14227C31.5986 4.33338 31.9935 4.48628 31.9681 4.58821C31.9426 4.69014 31.7515 4.80481 31.7005 4.88125C31.6495 4.9577 31.5476 5.07237 31.5986 5.19978C31.6495 5.3272 31.5986 5.46735 31.4712 5.59476C31.3438 5.72217 31.3438 5.98974 31.3438 6.10441L31.3692 7.81172C31.3692 7.81172 31.1781 9.04762 33.1785 9.06036C33.1785 9.06036 34.1468 9.04762 34.5163 8.94569C34.6692 8.90746 34.7074 8.76731 34.8094 8.66538C34.8731 8.58894 34.8858 8.34685 34.8603 8.23218C34.8348 8.00284 34.5928 7.81172 34.3634 7.90091Z" fill="#7D7D7D"/>
<path d="M38.8738 5.95156C38.8356 5.05968 38.6955 3.96394 38.67 3.84927C38.6572 3.81105 38.6955 3.23769 38.4534 3.21221C38.1858 3.17399 38.2113 3.22495 38.0584 3.23769C38.0584 3.23769 37.7526 3.21221 37.7654 3.55622C37.7781 3.90023 37.6634 4.2315 37.6634 4.49907C37.6634 4.63922 37.7144 6.15542 37.7526 6.71603C37.5233 6.72877 37.2175 6.72877 37.0391 6.72877C37.0136 5.56933 36.9499 3.87475 36.6059 3.64541C36.3511 3.46703 36.2746 3.36511 36.0453 3.41607C35.9306 3.44155 35.8542 3.47978 35.8287 3.55622C35.8287 3.55622 35.7395 3.69638 35.8287 4.01491C35.9051 4.28247 35.8542 6.70329 35.8797 7.21294C35.9051 7.72259 35.8797 8.89477 36.0071 8.97122C36.1345 9.04767 36.2746 9.07315 36.453 8.933C36.6187 8.79284 36.9372 8.90752 37.0901 8.76736C37.1538 8.70366 37.0901 8.07934 37.0646 7.81177C37.0646 7.78629 37.0646 7.73533 37.0646 7.67162C37.1156 7.64614 37.1665 7.62066 37.2557 7.59517C37.4341 7.51873 37.6379 7.53147 37.8163 7.55695C37.8418 8.05386 37.8673 8.58898 37.8673 8.61447C37.88 8.66543 37.9055 9.07315 38.3387 9.07315C38.8738 9.07315 38.963 8.92026 39.0522 8.43609C39.1541 7.95193 38.8993 6.69055 38.8738 5.95156Z" fill="#7D7D7D"/>
<path d="M21.9293 9.25146C22.4007 8.95841 22.5027 8.34683 22.4772 7.86267C22.4517 7.39124 22.2224 6.2955 21.7382 6.12987C21.3814 6.0152 21.2413 6.10439 21.1903 6.12987C21.0756 6.18083 20.9355 6.33373 20.8463 6.37195C20.7189 6.41017 20.5023 6.48662 20.1201 6.67774C19.7378 6.86886 19.1135 7.0982 18.9606 7.12368C18.8205 7.1619 18.6293 7.13642 18.4892 7.13642C18.349 7.14916 18.2598 7.39124 18.2598 7.39124C18.2598 7.39124 18.0687 7.9646 18.1961 8.23216C18.3236 8.49973 18.5274 8.62714 19.0625 8.41054C19.5977 8.19394 19.6359 8.01556 19.8143 7.84993C19.9926 7.68429 20.5278 7.02175 20.8845 7.07271C21.2285 7.12368 21.3687 8.30861 21.2031 9.67191C21.2031 9.67191 21.2285 9.62095 21.6108 9.37887C21.7382 9.27694 21.8146 9.3279 21.9293 9.25146Z" fill="#7D7D7D"/>
<path d="M26.5553 5.28896C26.5043 5.238 26.4279 5.13607 26.3897 5.0851C26.3514 5.0214 26.224 4.91947 26.2495 4.93221C26.0966 4.8048 25.7526 5.00866 25.6379 5.04688C25.5105 5.0851 25.3194 5.16155 25.141 5.27622C25.0264 5.35267 24.8862 5.46734 24.6314 5.55653C24.4403 5.62023 24.2619 5.70942 24.0835 5.77313C23.9816 5.81135 23.9051 5.83683 23.8414 5.86232C23.7395 5.69668 23.6376 5.53104 23.5739 5.4546C23.4974 5.36541 23.0897 4.52449 22.6055 4.75383C22.4654 4.81754 22.4654 4.99592 22.4272 5.07236C22.4272 5.07236 22.3507 5.5183 22.5673 6.05343C22.7839 6.58856 23.3318 7.56963 23.421 7.73527C23.5229 7.9009 23.714 8.00283 23.8542 8.00283C23.9943 7.99009 24.1217 7.92638 24.2491 7.91364C24.3638 7.9009 24.4785 7.79897 24.5422 7.64608C24.6441 7.404 24.5932 7.37851 24.5294 7.17466C24.4657 6.99628 24.2364 6.49937 24.1854 6.39744C24.2237 6.3847 24.3001 6.35922 24.4275 6.30826C24.7078 6.21907 25.0264 6.33374 25.2557 6.35922C25.485 6.3847 25.9947 6.1681 26.0839 6.1044C26.224 6.00247 26.2877 5.84957 26.4151 5.74764C26.7464 5.46734 26.619 5.33993 26.5553 5.28896Z" fill="#7D7D7D"/>
<path d="M24.527 8.30866L23.9409 8.4743C23.8645 8.33415 23.7371 8.30866 23.7371 8.30866C23.7371 8.30866 23.5714 8.30866 23.4695 8.4743C23.4313 8.538 22.9853 8.76735 22.8324 8.9712C22.7815 9.03491 22.5649 9.17506 22.4375 9.4044C22.2973 9.65923 21.8386 10.5511 22.5776 11.7106C23.1892 12.6534 24.3741 12.4368 24.6417 12.3604C25.0749 12.2329 26.1197 11.736 26.4764 11.0608C26.8714 10.2963 26.5911 9.65923 26.2853 9.13684C25.9795 8.57623 25.1641 8.16851 24.527 8.30866ZM25.5845 10.3982C25.4062 10.9971 24.6927 11.3028 24.1448 11.2901C23.5459 11.2774 23.2019 10.7295 23.2274 10.1561C23.2529 9.58278 23.6734 9.35344 23.6734 9.35344C24.1575 9.08588 24.183 9.11136 24.183 9.11136C24.7818 8.9712 24.922 9.13684 25.0749 9.21329C25.1641 9.27699 25.7884 9.71019 25.5845 10.3982Z" fill="#7D7D7D"/>
<path d="M47.0253 5.42919C47.1144 5.51838 47.4457 5.73498 47.726 5.42919C48.0063 5.1234 47.8789 4.81762 47.8279 4.63924C47.777 4.44812 47.4202 4.18056 47.0635 4.20604C47.0635 4.20604 46.6558 4.26975 46.7322 4.63924C46.7704 4.94503 46.9361 5.32726 47.0253 5.42919Z" fill="#7D7D7D"/>
<path d="M45.0011 10.0032C45.0011 10.0032 45.4343 10.1052 45.6382 10.0669C45.7911 10.0415 46.0204 10.016 46.1351 10.0415C46.2498 10.0797 46.7085 9.97776 47.0142 9.58278C47.32 9.18781 47.5749 8.24496 47.1289 7.44227C47.1289 7.44227 46.8741 7.03455 46.6702 6.85617C46.4664 6.66505 46.976 6.85617 47.0652 6.8944C47.1544 6.93262 47.4474 7.12374 47.6513 6.93262C47.8679 6.7415 47.7787 6.77973 47.9316 6.70328C48.0463 6.63957 48.0845 6.51216 47.9698 6.28282C47.8806 6.11718 47.7532 5.95155 47.5111 5.8114C47.2691 5.68398 46.632 5.3782 46.4154 5.26353C46.1988 5.14886 45.4853 4.77936 45.4853 4.77936C45.4853 4.77936 44.9119 4.46083 44.7336 4.89403C44.5425 5.32723 44.4787 5.58206 44.8228 5.88784C45.1668 6.19363 45.3451 6.27008 45.4471 6.34653C45.4471 6.34653 44.8482 6.35927 44.1475 6.90714C43.6761 7.28937 43.2683 8.10481 43.6123 8.81831C43.9564 9.53182 44.5297 9.81212 45.0011 10.0032ZM44.861 7.8245C45.1795 7.18744 45.8038 7.42952 45.8038 7.42952C46.581 7.70983 46.6575 8.33415 46.5556 8.66542C46.4409 9.07314 46.237 9.16232 46.1478 9.16232C46.0587 9.16232 45.8675 9.09862 45.7401 9.11136C45.6127 9.1241 45.6127 9.22603 45.4343 9.17507C45.256 9.1241 45.0776 9.04765 44.9502 8.81831C44.8228 8.58897 44.6062 8.33415 44.861 7.8245Z" fill="#7D7D7D"/>
<path d="M51.0921 9.86311C50.8245 9.46814 50.4932 9.37895 49.8817 9.0222C49.423 8.75463 49.2319 8.48707 49.1554 8.34691C49.3211 7.97742 49.4612 7.65889 49.5249 7.506C49.6778 7.09828 50.06 6.43574 49.9581 5.84964C49.8689 5.31451 49.5377 5.54386 49.5249 5.5566C49.4485 5.64578 49.3083 5.82416 49.2064 5.88787C49.1045 5.95157 48.9133 6.10447 48.9006 6.2064C48.9006 6.2064 48.0724 8.02838 47.6902 9.0222C47.1933 10.2708 47.1168 10.5384 47.3462 10.6276C47.4991 10.6913 47.6902 10.6913 47.9068 10.5894C48.1234 10.4874 48.34 10.3982 48.4547 10.016C48.5056 9.86311 48.6713 9.4554 48.8751 9.00945C49.1045 9.14961 49.1299 9.18783 49.2574 9.50636C49.3975 9.85037 49.6141 10.2199 50.1237 10.4747C50.7098 10.7677 50.9519 10.6148 51.0411 10.5129C51.0793 10.4365 51.3214 10.1944 51.0921 9.86311Z" fill="#7D7D7D"/>
<path d="M48.4284 11.6723C48.4284 11.6723 48.301 11.6213 48.1481 11.5704C47.9825 11.5067 47.7786 11.392 47.6767 11.3028C47.5748 11.2009 46.8485 10.8441 46.2752 10.5893C45.5871 10.2963 44.9883 10.1689 44.5679 10.0797C44.1474 9.99048 44.0837 10.1943 44.0455 10.2453C44.0455 10.2453 43.8034 10.5766 44.3513 10.8059C44.7845 10.9715 44.9628 10.7677 45.5362 11.0353C46.1095 11.3028 47.0396 11.5194 47.3582 11.7233C47.6767 11.9271 47.7404 12.0545 47.613 12.3731C47.4856 12.6916 47.1671 13.3287 47.1671 13.3287C47.1671 13.3287 47.0524 13.6982 47.3327 13.7873C47.613 13.8765 47.7786 13.8256 47.957 13.7491C48.1991 13.6472 48.4539 13.0229 48.5304 12.8827C48.5941 12.7426 48.9381 12.131 48.4284 11.6723Z" fill="#7D7D7D"/>
<path d="M12.7027 15.2271C12.7027 15.2271 12.4607 15.38 12.397 15.1634C12.397 15.1634 12.1931 14.4499 11.7599 14.1569C11.7599 14.1569 11.4414 13.8383 11.1356 13.8893C10.9445 13.9148 10.9572 14.0167 10.9572 14.0422C10.9572 14.1314 10.9827 14.1187 11.0337 14.2715C11.1228 14.5264 11.1483 14.6156 11.0846 15.6986C11.0209 16.6541 11.0591 16.5395 11.0209 16.8453C10.9954 17.0746 10.9572 17.9537 11.314 18.2723C11.6197 18.5526 11.9638 18.5781 12.2186 18.2341C12.4479 17.9155 12.3715 17.597 12.4097 17.3549C12.4097 17.3549 12.4224 16.9217 12.5116 16.7688C12.6518 16.4885 12.9321 16.2082 13.378 16.2592C13.7857 16.2974 13.9259 16.5013 14.0151 17.0619C14.0151 17.0619 14.1043 17.2275 14.117 17.3294C14.1298 17.4314 14.0406 18.0302 13.824 18.4124C13.6329 18.7564 13.5564 18.6418 13.4545 18.7692C13.3525 18.8966 13.2251 19.4699 13.2888 19.6993C13.3525 19.9286 13.4545 20.0306 13.8749 19.9796C14.168 19.9541 14.3336 19.7757 14.5884 19.2661C14.7923 18.8584 15.0599 17.7499 14.9579 17.1256C14.8687 16.565 14.6394 15.8897 14.0151 15.3928C13.4545 14.9596 12.9193 15.1125 12.7027 15.2271Z" fill="#7D7D7D"/>
<path d="M17.4555 14.1823C16.8694 13.66 15.3786 12.1692 15.3786 12.1692C14.6397 11.4557 13.8879 11.3411 13.6586 11.3538C13.5821 11.3538 13.4038 11.5067 13.3783 11.7488C13.3401 12.0801 13.6458 12.3349 13.786 12.4623C13.9261 12.6024 13.9644 12.5897 14.0663 12.7553C14.1682 12.921 14.1937 12.9465 14.7034 13.4306C14.8053 13.5325 14.7925 13.7619 14.6014 13.953C14.4103 14.1441 13.9644 14.6665 13.9644 14.6665C13.9644 14.6665 13.9899 14.6028 13.8879 14.7684C13.786 14.9468 14.0153 14.985 14.13 15.036C14.181 15.0615 14.3721 15.1507 14.5887 15.0615C14.7543 14.9978 14.9709 14.9596 15.1493 14.8067C15.3277 14.6538 15.5825 14.3735 15.5825 14.3735C15.7227 14.3098 15.7481 14.2715 15.8501 14.3352C15.952 14.3989 17.4045 15.7877 17.6721 15.9151C17.9269 16.0298 18.0543 15.9151 18.1562 15.8514C18.2581 15.7877 18.4238 15.8387 18.4365 15.3928C18.4493 14.8321 18.0415 14.7047 17.4555 14.1823Z" fill="#7D7D7D"/>
<path d="M56.94 13.5325C57.1184 13.7109 57.0674 13.7364 57.1566 13.8511C57.2967 14.0167 57.6153 14.2588 57.7809 14.3734C58.0357 14.5646 58.5581 15.1124 58.5454 15.2781C58.5326 15.4564 58.5581 15.7368 57.8701 16.5012C57.0929 17.3549 56.9909 17.4696 56.9782 17.7116C56.9655 17.9537 56.9655 17.9282 57.0674 18.0811C57.1821 18.2468 57.3095 18.3614 57.7045 18.0939C57.7045 18.0939 58.1759 17.7244 58.4562 17.5587C58.7492 17.3804 58.9913 17.1892 59.3098 16.7051C59.5774 16.2974 59.7685 15.673 59.2207 14.8576C58.9021 14.3862 58.8766 14.4372 58.7365 14.2333C58.5963 14.0294 57.972 13.4816 57.7682 13.2267C57.5643 12.9719 57.3095 12.6406 57.1948 12.526C57.1184 12.4495 56.9655 12.5005 56.8763 12.5769C56.8763 12.5769 56.6597 12.6534 56.6724 12.921C56.6979 13.1758 56.7616 13.3669 56.94 13.5325Z" fill="#7D7D7D"/>
<path d="M53.6012 14.1696C53.614 14.246 53.6522 14.3989 53.7414 14.4754C53.8561 14.5773 54.0472 14.5136 54.1491 14.5391C54.2383 14.5646 54.4804 14.59 54.5951 14.5646C54.7097 14.5391 54.7352 14.5009 54.7352 14.3989C54.7352 14.3097 54.9136 14.0422 55.0028 13.902C55.0792 13.7491 55.0155 13.4306 54.9263 13.3287C54.8499 13.2267 54.7097 13.214 54.5059 13.3796C54.5059 13.3796 54.3275 13.5325 54.1109 13.5453C53.8943 13.558 53.6649 13.7746 53.6267 13.9148C53.5758 14.0422 53.5885 14.0931 53.6012 14.1696Z" fill="#7D7D7D"/>
<path d="M58.5842 20.1069C58.495 19.9668 58.495 19.8776 58.3931 19.7374C58.3039 19.5973 57.2846 18.6672 57.0425 18.4251C56.9023 18.285 56.2398 17.5077 55.3224 16.5904C55.3861 16.6031 55.4626 16.6031 55.539 16.6031C55.8066 16.5776 55.9468 16.6159 56.0232 16.6286C56.0996 16.6413 56.7367 16.2336 56.7622 15.9151C56.7877 15.5456 56.7877 15.2398 56.7494 15.1379C56.6857 14.934 56.4182 14.8066 56.1888 14.985C56.0742 15.0742 55.8958 15.0869 55.8448 15.0997C55.8448 15.0997 55.5008 15.2143 55.3352 15.4946C55.1695 15.7749 55.1186 15.8769 55.0294 15.9788C54.9784 16.0425 54.9402 16.119 54.902 16.1827C54.3414 15.6348 53.7043 15.0614 53.0545 14.5645C53.0545 14.5645 52.7869 14.3862 52.6723 14.2078C52.5576 14.0294 52.6595 13.8128 52.3537 13.6981C52.3537 13.6981 52.1754 13.6854 52.0225 13.7109C51.8568 13.7364 51.8441 13.8128 51.7804 13.8383C51.7039 13.8638 51.4873 13.9147 51.5893 14.1441C51.6785 14.3734 51.7167 14.5263 51.8186 14.6282C51.9205 14.7302 51.997 14.934 52.1371 15.0487C52.2773 15.1634 52.685 15.38 52.9144 15.5583C53.1437 15.7495 55.195 17.5077 55.5773 17.9282C55.9595 18.3487 57.4757 19.9795 57.6923 20.2853C57.9089 20.5911 57.9981 20.5656 58.2019 20.6038C58.4058 20.6548 58.6606 20.5274 58.7116 20.451C58.7753 20.3872 58.6861 20.2344 58.5842 20.1069Z" fill="#7D7D7D"/>
</g>
<defs>
<clipPath id="clip0_2521_55341">
<rect width="70" height="70" fill="white" transform="translate(0 0.00146484)"/>
</clipPath>
</defs>
</svg>
