<svg width="70" height="70" viewBox="0 0 70 70" fill="none" xmlns="http://www.w3.org/2000/svg">
<g clip-path="url(#clip0_2521_55334)">
<path d="M34.6364 0.00146484L34.3811 0.0842561L6 7.16291V21.2374L7.74456 21.7756C8.21262 21.8997 8.59557 22.1481 8.93597 22.3965C9.87208 23.1002 10.3827 24.0523 10.4678 24.3421V26.5775V29.9719V44.8743V47.565V52.4083V53.6088C10.4678 54.4367 10.5954 55.2232 10.8082 55.9683C11.957 59.7353 15.9568 62.4261 22.8074 63.9991C22.7648 63.9991 25.9561 64.8684 25.9561 64.8684C27.573 65.3652 29.0197 65.9861 30.2111 66.6484C31.7004 67.3935 32.8492 68.1801 33.6152 68.9666V68.9252C33.7003 69.0494 33.8705 69.1735 34.0832 69.4219L34.6789 70.0015L35.7427 68.9666C36.5086 68.1801 37.7 67.3935 39.1467 66.6484C40.3381 65.9861 41.7848 65.4065 43.4443 64.8684C43.4443 64.8684 43.4017 64.8684 43.3592 64.8684C43.6145 64.827 44.2953 64.62 46.593 63.9991C53.4011 62.4261 57.4008 59.7353 58.5496 55.9683C58.7624 55.2232 58.89 54.4367 58.89 53.6088V24.2179C58.9326 24.0109 59.4857 23.0588 60.4219 22.3965C60.7623 22.1481 61.1452 21.8997 61.6133 21.7756L63.3578 21.2374V7.16291L34.6364 0.00146484Z" fill="white"/>
<path d="M34.1666 10.309C34.1666 10.309 33.3156 11.3439 32.7624 12.0476C32.0391 12.9169 31.9114 14.3243 33.0177 15.6076C34.124 16.8909 39.8683 23.5556 39.8683 23.5556L40.0385 23.7625L40.2087 23.5556L41.5703 22.1067C41.8682 21.7755 41.8257 21.1132 41.4853 20.7821C41.4853 20.7821 34.6772 12.9169 34.2517 12.4615C33.7411 11.7992 33.8262 10.8885 34.1666 10.309Z" fill="#E0393D"/>
<path d="M38.9762 25.3356C39.274 25.0044 39.2315 24.3835 38.8911 24.0109C38.8911 24.0109 32.083 16.1458 31.6575 15.6904C31.1469 15.0695 31.232 14.1588 31.5724 13.5792C31.5724 13.5792 30.7214 14.6141 30.1257 15.3178C29.4024 16.1871 29.2747 17.5946 30.381 18.8779C31.4873 20.1197 37.2316 26.7844 37.2316 26.7844L37.3593 26.95H37.4018L37.5295 26.7844L38.9762 25.3356Z" fill="#E0393D"/>
<path d="M29.0216 16.8081C29.0216 16.8081 28.1706 17.843 27.5749 18.5467C26.8516 19.416 26.7239 20.8235 27.8302 22.1067C28.4259 22.7691 30.3407 25.0458 32.0002 26.95H35.9999C34.7234 25.5012 29.4046 19.3746 29.0642 18.9193C28.5536 18.2983 28.6812 17.3876 29.0216 16.8081Z" fill="#E0393D"/>
<path d="M33.1914 58.6177C33.1914 58.6177 31.532 41.7283 31.3192 39.2032C31.1065 36.7194 28.4258 35.9743 28.4258 34.898V28.0677H33.8297H35.5742H40.9781V34.898C40.9781 35.9743 38.34 36.678 38.0847 39.2032C37.8294 41.6869 36.2125 58.6177 36.2125 58.6177C36.1274 59.1145 35.7444 59.901 34.8083 59.901C33.8297 59.901 33.3191 59.3628 33.1914 58.6177Z" fill="white"/>
<path d="M30.2148 34.0702C30.2148 34.5669 30.5552 34.8981 30.8956 35.2706C31.3637 35.7674 32.4275 36.3055 32.5126 37.3404C32.6828 39.3688 34.0869 57.0447 34.172 57.6657L34.2146 57.9968C34.2997 58.7006 34.3848 58.9903 34.7252 58.9903C35.0656 58.9903 35.1081 58.535 35.1507 57.9968L35.1932 57.6657C35.2358 57.0447 36.6399 39.3274 36.8527 37.3404C36.9378 36.3055 38.0016 35.7674 38.4696 35.2706C38.81 34.8981 39.1504 34.5669 39.1504 34.0702V29.765H30.2148V34.0702Z" fill="#E0393D"/>
<path d="M34.6364 0.00146484L34.3811 0.0842561L6 7.16291V21.2374L7.74456 21.7756C8.21262 21.8997 8.59557 22.1481 8.93597 22.3965C9.87208 23.1002 10.3827 24.0523 10.4678 24.3421V26.5775V29.9719V44.8743V47.565V52.4083V53.6088C10.4678 54.4367 10.5954 55.2232 10.8082 55.9683C11.957 59.7353 15.9568 62.4261 22.8074 63.9991C22.7648 63.9991 25.9561 64.8684 25.9561 64.8684C27.573 65.3652 29.0197 65.9861 30.2111 66.6484C31.7004 67.3935 32.8492 68.1801 33.6152 68.9666V68.9252C33.7003 69.0494 33.8705 69.1735 34.0832 69.4219L34.6789 70.0015L35.7427 68.9666C36.5086 68.1801 37.7 67.3935 39.1467 66.6484C40.3381 65.9861 41.7848 65.4065 43.4443 64.8684C43.4443 64.8684 43.4017 64.8684 43.3592 64.8684C43.6145 64.827 44.2953 64.62 46.593 63.9991C53.4011 62.4261 57.4008 59.7353 58.5496 55.9683C58.7624 55.2232 58.89 54.4367 58.89 53.6088V24.2179C58.9326 24.0109 59.4857 23.0588 60.4219 22.3965C60.7623 22.1481 61.1452 21.8997 61.6133 21.7756L63.3578 21.2374V7.16291L34.6364 0.00146484ZM62.209 20.4509L61.1878 20.7407C58.89 21.4444 57.7412 23.7212 57.7412 24.1765V53.5674C57.7412 58.0381 53.8691 61.2256 46.21 62.9642L43.0188 63.8335C41.2742 64.3717 39.785 65.034 38.551 65.6963C36.9766 66.4828 35.7427 67.3521 34.9342 68.1801L34.5938 68.4698L34.296 68.1801C33.4875 67.3521 32.211 66.4828 30.6792 65.6963C29.4452 65.034 27.956 64.3717 26.2114 63.8335L23.0201 62.9642C15.4036 61.267 11.5315 58.0795 11.5315 53.6088V24.2179C11.5315 23.7626 10.3827 21.4858 8.08497 20.7821L7.06376 20.4923V7.94942L34.5513 1.07775L34.6364 1.03636L62.209 7.94942V20.4509Z" fill="#014DA2"/>
<path d="M59.3564 10.102C58.8458 9.97786 34.5496 3.9341 34.3794 3.8927C34.2092 3.97549 9.8704 9.97786 9.40234 10.102C9.40234 10.5988 9.40234 18.257 9.40234 18.5881C12.2958 19.9128 13.9127 22.7277 13.9127 24.2593V53.6916C13.9127 56.7135 17.104 58.9903 23.3588 60.4391C25.2311 60.8531 31.486 62.4675 34.4219 65.241C37.3579 62.4675 43.5702 60.8531 45.485 60.4391C51.7399 58.9903 54.9312 56.7549 54.9312 53.6916V24.2593C54.9312 22.7691 56.5481 19.9542 59.4415 18.5881C59.3564 18.257 59.3564 10.5988 59.3564 10.102ZM19.6144 56.5479C17.6571 55.8028 16.0827 54.7679 15.7423 53.3605C15.6572 53.1949 15.6572 53.0293 15.6998 52.8637V48.8484L27.8692 36.7608C28.8053 37.4232 29.4861 37.9199 29.6137 38.9548C29.6137 38.9962 29.6137 39.0376 29.6137 39.0376C29.6137 39.0376 29.9967 41.6869 30.3796 45.7851L19.6144 56.5479ZM40.9321 34.898C40.9321 35.9743 38.294 36.678 38.0387 39.2032C37.7834 41.6869 36.1665 58.6591 36.1665 58.6591C36.0814 59.1559 35.6984 59.9424 34.7623 59.9424C33.8262 59.9424 33.3156 59.4042 33.188 58.6591C33.188 58.6591 31.5285 41.7283 31.2732 39.2032C31.0605 36.678 28.3798 35.9743 28.3798 34.898V28.0677H33.7837H35.5282H40.9321V34.898ZM56.6757 17.2221L42.2086 33.2836V26.9087H41.4002H37.443L37.4005 26.9501V26.9087H36.0388H32.0391H29.2733C26.5927 23.804 26.0821 23.2245 25.614 22.6863C25.0183 21.9826 24.7205 21.0305 24.8481 20.1612C24.9758 19.3333 25.3162 18.7123 26.0821 17.7602C26.848 16.8495 34.4219 7.94947 34.4219 7.94947C34.3794 8.15645 34.3368 8.32203 34.3368 8.52901C34.3368 9.64669 35.5282 10.8472 36.5494 12.0476C36.5494 12.0476 41.7831 18.1328 41.9108 18.257C42.5065 18.9607 42.9745 19.5402 42.932 20.5751L51.825 10.6402C54.1653 11.3439 55.9949 11.8407 56.5906 12.0062C56.6757 13.3723 56.6757 15.7732 56.6757 17.2221Z" fill="#014DA2"/>
<path d="M22.5922 25.3357V28.1092H20.7626L21.5285 26.8259C21.5285 25.8324 20.8902 25.998 20.8902 25.998H16.8054L16.1246 26.9915H19.9967L15.7842 34.2771L14.8906 34.6497H16.933L18.6776 31.6278H22.5922V35.8088H23.9113V25.0459H22.0391L22.5922 25.3357ZM22.5922 30.6757H19.2308L20.2094 29.0613H22.5922V30.6757Z" fill="white"/>
<path d="M24.4648 25.0459L25.018 25.3357V35.8088H26.3371V25.0459H24.4648Z" fill="white"/>
<path d="M51.0182 34.7324L51.6139 35.0222V36.0571H49.7416V35.6017H41.7422L42.3804 35.9329V39.9897H49.7416V39.4101H51.6139V40.2794H53.0606V34.7738H51.0182V34.7324ZM48.2949 38.9134H43.8272V36.6366H48.2949V38.9134ZM49.7416 38.3338V37.092H51.6139V38.3338H49.7416Z" fill="white"/>
<path d="M48.2931 40.5278C46.0805 40.5278 44.3359 41.7697 44.3359 43.3013C44.3359 44.833 46.1231 46.0748 48.2931 46.0748C50.4632 46.0748 52.2503 44.833 52.2503 43.3013C52.2503 41.8111 50.4632 40.5692 48.2931 40.5278ZM50.4632 44.0465C50.293 44.8744 49.1441 45.2469 47.9527 44.833C46.7613 44.419 45.9529 43.4255 46.1231 42.5562C46.3358 41.6869 47.4421 41.3557 48.6335 41.7697C49.8249 42.1837 50.6334 43.1772 50.4632 44.0465Z" fill="white"/>
</g>
<defs>
<clipPath id="clip0_2521_55334">
<rect width="70" height="70" fill="white" transform="translate(0 0.00146484)"/>
</clipPath>
</defs>
</svg>
