<svg width="71" height="70" viewBox="0 0 71 70" fill="none" xmlns="http://www.w3.org/2000/svg">
<g clip-path="url(#clip0_2521_55349)">
<path d="M35.4141 0.00146484C16.0902 0.00146484 0.414062 15.6776 0.414062 35.0015C0.414062 54.3253 16.0902 70.0015 35.4141 70.0015C54.7379 70.0015 70.4141 54.3253 70.4141 35.0015C70.4141 15.6776 54.7379 0.00146484 35.4141 0.00146484ZM35.4141 69.0549C16.5981 69.0549 1.36063 53.7943 1.36063 35.0015C1.36063 16.1855 16.5981 0.948035 35.4141 0.948035C54.23 0.948035 69.4675 16.2086 69.4675 35.0015C69.4675 53.8174 54.23 69.0549 35.4141 69.0549Z" fill="black"/>
<path d="M35.4154 12.6993C23.0869 12.6993 13.1133 22.673 13.1133 35.0015C13.1133 47.3299 23.11 57.3036 35.4154 57.3036C47.7439 57.3036 57.7175 47.3069 57.7175 35.0015C57.7175 22.673 47.7439 12.6993 35.4154 12.6993ZM35.4154 56.7956C23.387 56.7956 13.6212 47.0298 13.6212 35.0015C13.6212 22.9731 23.387 13.2073 35.4154 13.2073C47.4438 13.2073 57.2096 22.9731 57.2096 35.0015C57.2096 47.0298 47.4438 56.7956 35.4154 56.7956Z" fill="black"/>
<path d="M7.01874 36.1328C7.75752 36.1328 8.35779 35.5325 8.35779 34.7938C8.35779 34.055 7.75752 33.4547 7.01874 33.4547C6.27995 33.4547 5.67969 34.055 5.67969 34.7938C5.67969 35.5325 6.27995 36.1328 7.01874 36.1328Z" fill="black"/>
<path d="M64.4601 36.1328C65.1989 36.1328 65.7992 35.5325 65.7992 34.7938C65.7992 34.055 65.1989 33.4547 64.4601 33.4547C63.7214 33.4547 63.1211 34.055 63.1211 34.7938C63.1211 35.5325 63.7214 36.1328 64.4601 36.1328Z" fill="black"/>
<path d="M10.4577 40.8656L10.2961 40.1961L10.4808 40.1499L11.0349 42.297L10.8502 42.3432L10.6886 41.6737L5.93265 42.8742L6.09426 43.5437L5.90956 43.5899L5.35547 41.4428L5.54017 41.3966L5.70177 42.0661L10.4577 40.8656Z" fill="black"/>
<path d="M11.2886 43.7746L11.0116 43.1513L11.1732 43.082L11.8658 44.6289L9.48785 48.5537V48.5768L12.7431 47.1223L12.4199 46.3835L12.5815 46.3142L13.2741 47.8611L13.1125 47.9303L12.8355 47.307L8.1488 49.3848L8.05645 49.2694L11.2194 44.0517V44.0286L6.9021 45.9448L7.22532 46.6836L7.06371 46.7529L6.37109 45.183L6.5327 45.1137L6.80975 45.737L11.2886 43.7746Z" fill="black"/>
<path d="M15.6767 51.4395L15.2842 50.9085L15.4228 50.7931L16.7618 52.5477L16.6233 52.6632L16.2077 52.1091L12.306 55.0873L12.7216 55.6414L12.5831 55.7568L11.244 54.0022L11.3825 53.8868L11.775 54.4178L13.7143 52.9402L12.3291 51.1163L10.3898 52.5939L10.7823 53.1249L10.6437 53.2403L9.30469 51.4857L9.44321 51.3703L9.85878 51.9244L13.7836 48.9461L13.368 48.392L13.5065 48.2766L14.8456 50.0312L14.7071 50.1467L14.3146 49.6157L12.4907 51.0009L13.8759 52.8248L15.6767 51.4395Z" fill="black"/>
<path d="M16.7141 56.7265L15.7906 55.9184L17.5222 54.9257L16.7141 56.7265ZM13.8975 56.7265L13.4357 56.3109L13.3203 56.4494L14.5439 57.5345L14.6594 57.396L14.0822 56.8881L15.5828 56.0108L16.5987 56.9343L15.883 58.5042L15.3058 57.9963L15.1904 58.1348L16.9681 59.7047L17.0835 59.5662L16.5756 59.1044L18.7458 54.0945L18.6303 54.0022L13.8975 56.7265Z" fill="black"/>
<path d="M22.9932 57.5345L22.3699 57.2574L22.4391 57.0958L24.4939 58.0193L24.4246 58.1809L23.7551 57.8808L22.3006 61.0668C21.9081 61.9441 21.9081 62.4289 22.9932 62.9138C24.263 63.4909 24.6324 63.0292 25.0018 62.2212L26.4332 59.0813L25.7175 58.7581L25.7868 58.5965L27.2874 59.266L27.2182 59.4276L26.6641 59.1737L25.2096 62.3828C24.794 63.3062 24.3092 63.7449 22.7393 63.0292C21.1232 62.2904 21.1463 61.6901 21.5388 60.7898L22.9932 57.5345Z" fill="black"/>
<path d="M28.788 59.8663L28.1184 59.7278L28.1646 59.5431L29.8269 59.8663L31.6739 64.0451H31.6969L32.3896 60.5358L31.6046 60.3742L31.6508 60.1895L33.313 60.5128L33.2669 60.6974L32.5973 60.5589L31.6277 65.615H31.4892L29.0188 60.0279H28.9958L28.0954 64.6684L28.9034 64.83L28.8572 65.0147L27.1719 64.6915L27.218 64.5068L27.8876 64.6453L28.788 59.8663Z" fill="black"/>
<path d="M35.0207 60.7667H34.3281V60.582H36.5445V60.7667H35.8519V65.6612H36.5445V65.8459H34.3281V65.6612H35.0207V60.7667Z" fill="black"/>
<path d="M37.8382 60.6051L37.2379 60.6975L37.2148 60.5128L39.4312 60.1434L39.4543 60.3281L38.7155 60.4435L40.5625 64.0682H40.5856L41.2551 60.0279L40.5163 60.1434L40.4932 59.9587L42.04 59.7047L42.0631 59.8894L41.5321 59.9818L40.5856 65.3841L40.4239 65.4072L37.8382 60.6051Z" fill="black"/>
<path d="M43.3563 59.4738L42.7099 59.7277L42.6406 59.5661L46.5654 58.0193L47.2119 59.5199L47.0272 59.5892C46.3346 58.4579 46.0344 58.4349 44.4645 59.0582L44.1413 59.1967L44.9724 61.3207L45.3418 61.1822C46.1499 60.859 46.0806 60.5589 45.7805 59.797L45.9883 59.7046L46.9117 62.0364L46.704 62.1288C46.3576 61.2746 46.2191 61.0668 45.4342 61.3669L45.0648 61.5054L45.9421 63.7218L46.981 63.3062C48.043 62.8907 48.1584 62.2211 47.9276 61.1822L48.1123 61.113L48.7125 62.8214L44.5799 64.4606L44.5107 64.299L45.1571 64.045L43.3563 59.4738Z" fill="black"/>
<path d="M49.1505 56.6572L49.4737 56.4495C50.0971 56.0339 50.5357 56.2417 50.9051 56.8188C51.2283 57.3268 51.3438 57.8578 50.7897 58.2272L50.351 58.5042L49.1505 56.6572ZM51.136 61.2054L50.5588 61.5979L50.6512 61.7595L52.475 60.5589L52.3827 60.3973L51.8286 60.7667L50.4665 58.6889L50.8589 58.4349C51.6439 57.927 51.9671 58.0886 52.5443 58.8505C53.1676 59.6816 53.4216 59.9356 54.1604 59.4508L54.599 59.1506L54.5067 58.989L54.3451 59.0814C53.9757 59.3353 53.6987 59.0352 53.2369 58.4119C52.5443 57.4653 52.198 57.5345 51.1822 58.0194V57.9963C51.7362 57.5345 52.0364 57.0266 51.5746 56.3109C50.9744 55.4105 50.3279 55.6183 49.543 56.1262L47.7422 57.3268L47.8345 57.4884L48.4117 57.0959L51.136 61.2054Z" fill="black"/>
<path d="M54.5773 56.9112L54.7159 56.7727C55.3392 57.3498 56.3089 57.4422 56.9322 56.8419C57.3709 56.4033 57.5787 55.7568 57.0707 55.2489C56.078 54.2331 54.3926 56.6111 53.1229 55.3182C52.4764 54.6487 52.6611 53.7252 53.2845 53.1018C53.5846 52.8017 54.0694 52.5246 54.485 52.363L55.3392 53.148L55.2007 53.2865C54.485 52.8017 53.8847 52.8248 53.3999 53.3096C53.0305 53.679 52.8689 54.21 53.2845 54.6256C54.2079 55.5721 55.824 53.1942 57.2093 54.6025C57.925 55.3182 57.671 56.4033 57.0246 57.0497C56.6321 57.4422 56.2396 57.7192 55.6624 57.927L54.5773 56.9112Z" fill="black"/>
<path d="M55.7767 50.6083L55.3612 51.1624L55.2227 51.047L56.5617 49.2693L56.7002 49.3847L56.2847 49.9388L60.2095 52.8709L60.625 52.3168L60.7636 52.4322L59.4245 54.2099L59.286 54.0945L59.7015 53.5404L55.7767 50.6083Z" fill="black"/>
<path d="M58.2026 46.9837L57.9256 47.5608C57.5793 48.2304 58.1334 48.8306 58.7336 49.1769L58.6413 49.3847L57.1406 48.6229L59.2646 44.4441L60.7653 45.206L60.6729 45.4137C60.0496 45.1367 59.2185 45.0444 58.8952 45.7139L58.6182 46.2911L62.9586 48.4843L63.328 47.7686L63.4896 47.861L62.3814 50.0543L62.2198 49.9619L62.5892 49.2462L58.2026 46.9837Z" fill="black"/>
<path d="M62.4733 42.6433L59.7721 43.359L59.6105 43.9593L59.4258 43.9131L60.026 41.6506L60.2107 41.6968L60.003 42.4355L62.3809 41.8584L60.5801 40.2423L60.3954 40.958L60.2107 40.9118L60.6032 39.4111L60.7879 39.4573L60.6494 40.0114L62.6811 41.8353L65.0821 42.4817L65.2668 41.8353L65.4515 41.8814L64.8743 44.0285L64.6896 43.9824L64.8743 43.3129L62.4733 42.6433Z" fill="black"/>
<path d="M17.6634 12.7457C17.04 11.7067 17.3633 10.3446 18.4253 9.69817C19.4873 9.05173 20.8494 9.37495 21.4958 10.4139C22.1423 11.4528 21.796 12.8149 20.734 13.4614C19.672 14.1078 18.3098 13.7846 17.6634 12.7457ZM20.2722 12.6995C20.734 12.4224 20.8263 11.6837 20.4338 11.0603C20.0644 10.437 19.3718 10.1599 18.887 10.46C18.4253 10.7371 18.3329 11.4759 18.7254 12.0992C19.0948 12.7226 19.7874 12.9996 20.2722 12.6995Z" fill="black"/>
<path d="M18.747 9.00548L18.3545 8.35904L17.2694 9.02857L17.6619 9.67501L16.2305 10.5292L16.6922 11.2449L20.5939 8.86696L20.1553 8.12817L18.747 9.00548Z" fill="black"/>
<path d="M21.6554 6.67371L20.5703 7.32014L24.1719 13.2073L25.257 12.5609L23.2022 9.1902L24.1719 8.58993L23.7332 7.87423L22.7636 8.4745L21.6554 6.67371Z" fill="black"/>
<path d="M37.6775 3.48767V5.61168H37.2158V3.48767H35.9922V10.3907H37.2158V6.51208H37.6775V10.3907H38.8781V3.48767H37.6775Z" fill="black"/>
<path d="M33.5003 4.66513H35.4165V3.81091H32.2305V7.89732C32.2305 8.33598 32.5999 8.68228 33.0616 8.68228H36.4785V7.82806H33.5233V4.66513H33.5003Z" fill="black"/>
<path d="M10.6439 23.5965L12.2369 24.4276L14.4302 20.272L15.1921 20.6645L12.791 25.2126C12.5832 25.6282 12.0984 25.7898 11.729 25.582L10.0898 24.7047L10.6439 23.5965Z" fill="black"/>
<path d="M9.08607 17.449L8.49219 18.5714L12.5735 20.731L13.1674 19.6086L9.08607 17.449Z" fill="black"/>
<path d="M7.48045 24.3814C6.58006 23.8966 6.30301 22.6268 6.88019 21.5417C7.45736 20.4566 8.65789 19.9718 9.55829 20.4566C10.4587 20.9414 10.7357 22.2112 10.1586 23.2963C9.60446 24.3583 8.40393 24.8662 7.48045 24.3814ZM9.37359 22.8576C9.62755 22.3728 9.46594 21.7726 8.98111 21.5417C8.51937 21.2877 7.91911 21.4955 7.66515 21.9803C7.41119 22.4652 7.5728 23.0654 8.05763 23.2963C8.51937 23.5503 9.11963 23.3425 9.37359 22.8576Z" fill="black"/>
<path d="M48.6212 8.70536C49.106 7.96658 50.2835 7.89732 51.23 8.52067C52.1766 9.14402 52.5691 10.2753 52.0843 10.991C51.5994 11.7298 50.422 11.799 49.4754 11.1757C48.5058 10.5523 48.1133 9.44415 48.6212 8.70536ZM49.891 10.5062C50.2835 10.7601 50.7914 10.6678 51.0453 10.2984C51.2993 9.92898 51.1608 9.42106 50.7683 9.16711C50.3758 8.91315 49.8679 9.0055 49.6139 9.37489C49.3831 9.74428 49.4985 10.2522 49.891 10.5062Z" fill="black"/>
<path d="M51.8315 8.75158L52.2471 8.12823L51.1851 7.43561L50.7695 8.05897L49.4305 7.15857L48.9688 7.87427L52.6858 10.3446L53.1706 9.62889L51.8315 8.75158Z" fill="black"/>
<path d="M55.295 10.4832L54.233 9.76746L52.0859 13.0227L53.1479 13.7153L54.0945 12.2839L55.0411 12.9304L55.5259 12.2147L54.5563 11.5913L55.295 10.4832Z" fill="black"/>
<path d="M48.0669 10.7832L47.582 11.4989L51.4145 14.0385L50.4217 15.5391L51.4837 16.2318L52.9382 14.0385L48.0669 10.7832Z" fill="black"/>
<path d="M58.5951 23.181L60.8114 21.9343L60.1881 20.8261L57.9717 22.0728L56.3325 19.1407L55.5938 19.5563L59.2184 26.0438L59.9803 25.6282L58.5951 23.181Z" fill="black"/>
<path d="M57.3265 21.6342L59.8661 20.2259L59.2427 19.0946L56.7031 20.526" fill="black"/>
<path d="M63.8355 21.7727L61.2729 17.2014L60.5341 17.617L62.8659 21.7957L58.918 24.0121L59.5413 25.1203L63.6046 22.8347C63.951 22.6269 64.0433 22.142 63.8355 21.7727Z" fill="black"/>
<path d="M48.6194 23.6657H43.4941V22.3728H41.5548V16.7858H33.7282C32.2045 16.7858 30.9578 17.2937 30.1267 18.2403C29.3417 19.1406 28.9261 20.3643 28.9261 21.8187V23.6657H22.7388L20.1992 47.607L35.6676 54.2099L51.1359 47.607L48.6194 23.6657ZM35.7137 53.6558L35.6906 53.6789L35.6676 53.6558L20.7995 47.33L20.7533 47.3069V47.2607L23.2005 24.2429V24.1736H23.2698H29.3879V21.8418C29.3879 20.5259 29.7573 19.3946 30.473 18.6096C31.2348 17.7554 32.343 17.3168 33.7052 17.3168H40.9545H41.0238V17.386V22.9038H42.8938H42.9631V22.9731V24.1967H48.0884H48.1577V24.266L50.6049 47.2838V47.33L50.5587 47.353L35.7137 53.6558Z" fill="black"/>
<path fill-rule="evenodd" clip-rule="evenodd" d="M42.9858 26.8055H42.8935H41.0234V30.3378H42.8935H42.9858V30.4071V31.2382H47.9957L47.3493 25.074H42.9858V26.7362V26.8055Z" fill="#00AFEC"/>
<path fill-rule="evenodd" clip-rule="evenodd" d="M24.0097 25.074L23.3633 31.2382H29.4121V25.074H24.0097Z" fill="#00AFEC"/>
<path fill-rule="evenodd" clip-rule="evenodd" d="M48.0881 32.0925H42.9628V34.1704V34.2396H42.8935H41.0234V37.1486V37.2179H40.9542H35.0439H34.9746V37.1486V32.0695H32.689V32.6466C32.689 35.6018 29.9417 37.1486 27.2405 37.1486H27.0327H26.9634V37.0794V34.0319V33.9626H27.0327H27.125C28.3948 33.9626 29.3645 33.2931 29.3645 32.3927V32.0925H23.2695L21.7227 46.7528L35.6903 52.7093L49.658 46.7528L48.0881 32.0925Z" fill="#005BAC"/>
<path d="M34.9966 25.074H32.7109V31.2382H34.9966V25.074Z" fill="#00AFEC"/>
<path fill-rule="evenodd" clip-rule="evenodd" d="M34.2343 20.1565C33.4955 20.1565 32.6875 20.6875 32.6875 21.8649V24.1736H34.9731V20.1565H34.2343ZM34.4652 23.6657H33.1954V21.8649C33.1954 20.9876 33.7495 20.6644 34.2343 20.6644H34.4652V23.6657Z" fill="black"/>
<path d="M29.1094 41.7198V42.1123H30.079V45.4599H30.5869V40.8656H30.1945C30.1252 41.5813 29.7558 41.7198 29.1094 41.7198Z" fill="white"/>
<path d="M33.1963 40.8656C32.5037 40.8656 31.9727 41.489 31.9727 42.4586C31.9727 43.1974 32.3421 43.8669 33.1501 43.8669C33.4733 43.8669 33.8196 43.7053 34.0043 43.3128H34.0274C34.0043 43.7977 34.0043 45.0905 33.2424 45.0905C32.8038 45.0905 32.6422 44.8597 32.6422 44.4441H32.1112C32.1343 45.1136 32.5037 45.5292 33.1732 45.5292C34.4891 45.5292 34.5353 43.9362 34.5353 42.9896C34.5122 42.043 34.4199 40.8656 33.1963 40.8656ZM33.2194 43.4052C32.6191 43.4052 32.5037 42.8511 32.5037 42.3663C32.5037 41.9045 32.6422 41.3043 33.2194 41.3043C33.8196 41.3043 33.9812 41.9507 33.9812 42.4355C33.9581 42.9434 33.7965 43.4052 33.2194 43.4052Z" fill="white"/>
<path d="M37.0267 42.4587C36.7034 42.4587 36.4956 42.5741 36.2879 42.7819L36.4957 41.4197H38.0425V40.958H36.1032L35.8261 43.3129H36.2879C36.4033 43.0358 36.6342 42.8973 36.9343 42.8973C37.5807 42.8973 37.6962 43.4514 37.6962 43.9824C37.6962 44.5596 37.5115 45.0906 36.9574 45.0906C36.4495 45.0906 36.2648 44.7443 36.2879 44.2595H35.7338C35.6876 45.0675 36.1263 45.5523 36.9574 45.5523C37.904 45.5523 38.2041 44.7212 38.2041 43.9132C38.181 43.1513 37.8578 42.4587 37.0267 42.4587Z" fill="white"/>
<path d="M41.0686 43.8438V40.8656H40.6069L38.8984 43.8438V44.3056H40.5607V45.4599H41.0686V44.3056H41.4842V43.8438H41.0686ZM40.5607 43.8438H39.2909L40.5607 41.6506V43.8438Z" fill="white"/>
</g>
<defs>
<clipPath id="clip0_2521_55349">
<rect width="70" height="70" fill="white" transform="translate(0.414062 0.00146484)"/>
</clipPath>
</defs>
</svg>
