<svg width="114" height="70" viewBox="0 0 114 70" fill="none" xmlns="http://www.w3.org/2000/svg">
<path d="M95.8203 35.0015C95.8203 54.3505 80.1694 70.0015 60.8203 70.0015C41.4713 70.0015 25.8203 54.3505 25.8203 35.0015C25.8203 15.6524 41.4713 0.00146484 60.8203 0.00146484C80.1694 0.00146484 95.8203 15.6524 95.8203 35.0015Z" fill="#EA5514"/>
<path d="M93.6415 35.0014C93.6415 53.1618 78.9151 67.8221 60.8207 67.8221C42.6604 67.8221 28 53.0957 28 35.0014C28 16.841 42.7264 2.18064 60.8207 2.18064C78.9811 2.1146 93.6415 16.841 93.6415 35.0014Z" fill="black"/>
<path d="M82.1514 36.3222C81.425 48.077 71.2551 56.9921 59.5004 56.2656C47.7457 55.5392 38.8306 45.3694 39.557 33.6147C40.2835 21.86 50.4533 12.9449 62.208 13.6713C73.9627 14.4638 82.8778 24.5675 82.1514 36.3222Z" fill="white"/>
<path d="M44.0465 47.0204C44.0465 47.0204 43.9805 47.4166 43.9805 47.6808C44.0465 47.8128 44.1786 47.9449 44.2446 48.077C44.2446 47.9449 44.1126 47.3506 44.1786 47.2185L44.0465 47.0204Z" fill="#F5B082"/>
<path d="M44.8395 47.6807C44.8395 47.6807 44.7734 48.0769 44.7734 48.6712C44.9055 48.8033 45.0376 48.9354 45.1697 49.0675C45.0376 48.7373 45.1036 48.341 45.0376 47.9448L44.8395 47.6807Z" fill="#F5B082"/>
<path d="M46.224 49.0015L45.7617 48.6052C45.7617 48.6052 45.8277 49.3977 45.9598 49.6618C45.9598 49.7939 45.9598 49.926 46.0259 49.992C46.224 50.1901 46.4221 50.3222 46.6202 50.5203C46.5542 50.3882 46.4221 50.0581 46.4881 49.8599C46.224 49.5958 46.224 49.2656 46.224 49.0015Z" fill="#F5B082"/>
<path d="M47.5459 49.86L47.0836 49.4637C47.0175 49.5958 47.1496 50.3883 47.3477 50.7185C47.3477 50.9166 47.3477 51.0487 47.4138 51.1807C47.6119 51.3128 47.744 51.4449 47.9421 51.643C47.9421 51.577 47.81 51.1807 47.81 50.9166C47.6119 50.6524 47.5459 50.1902 47.5459 49.86Z" fill="#F5B082"/>
<path d="M48.8674 52.3694C48.8013 52.1713 48.5372 51.9732 48.6692 51.7751C48.4711 51.5109 48.3391 50.8506 48.4711 50.4543L48.9334 50.9166C48.9334 51.2468 48.9334 51.7751 49.1976 52.1053C49.0655 52.2374 49.5938 52.8317 49.5938 52.8977L48.8674 52.3694Z" fill="#F5B082"/>
<path d="M50.3213 53.0297C50.2552 52.8316 50.3213 52.8316 50.2552 52.6335C50.0571 52.3693 49.859 51.709 49.793 51.2467L50.3873 51.5109C50.3873 51.841 50.5194 52.3033 50.7835 52.6335C50.6515 52.8316 50.9816 53.3599 51.0477 53.426L50.3213 53.0297Z" fill="#F5B082"/>
<path d="M52.8935 54.2184C52.8275 53.9543 52.9595 53.8222 53.0916 53.558C52.7614 53.1618 52.2331 52.6996 51.969 51.9731L51.3086 51.775C51.5727 52.5014 52.1011 53.2279 52.4312 53.558C52.3652 53.7562 52.3652 54.0203 52.3652 54.0203L52.8935 54.2184Z" fill="#F5B082"/>
<path d="M54.9424 54.6807C54.8764 54.4165 55.0745 54.2184 55.1406 54.0203C54.7443 53.7562 54.15 53.0958 53.8198 52.2373L53.0273 52.1713C53.6877 53.426 54.084 53.8222 54.4802 54.0203C54.3481 54.2845 54.3481 54.5486 54.3481 54.5486L54.9424 54.6807Z" fill="#F5B082"/>
<path d="M57.055 54.7467C57.055 54.4166 57.2531 54.3505 57.3191 54.0864C56.9229 53.8222 56.1305 53.36 55.8003 52.5015L55.0078 52.4354C55.8003 53.6241 56.2625 54.2184 56.6588 54.1524C56.5267 54.4166 56.4607 54.7467 56.4607 54.7467H57.055Z" fill="#F5B082"/>
<path d="M58.9701 54.8128C58.9701 54.5486 59.3003 54.2185 59.3664 53.9543C58.9701 53.6901 58.3758 53.492 57.9796 52.6335H57.1211C57.7154 53.6241 58.3098 54.1524 58.64 54.0864C58.4418 54.4166 58.2437 54.9449 58.2437 54.9449L58.9701 54.8128Z" fill="#F5B082"/>
<path d="M60.951 54.6807C60.951 54.3505 61.2812 54.0864 61.3472 53.8222C60.951 53.5581 60.2906 53.2279 59.9604 52.4354L59.168 52.5015C59.7623 53.426 60.3567 53.9543 60.6868 53.8883C60.4227 54.2845 60.2906 54.8128 60.2906 54.8128L60.951 54.6807Z" fill="#F5B082"/>
<path d="M63.131 54.3505C63.131 54.0203 63.3952 53.6901 63.4612 53.426C63.065 53.1618 62.5367 52.9637 62.1405 52.1052L61.4141 52.1713C62.2065 53.2939 62.4707 53.5581 62.8669 53.492C62.6027 53.8882 62.4046 54.5486 62.4046 54.5486L63.131 54.3505Z" fill="#F5B082"/>
<path d="M65.1772 54.0203C65.1772 53.6901 65.4413 53.3599 65.5074 53.0958C65.1111 52.8316 64.4508 52.4354 64.0545 51.6429L63.3281 51.775C64.1206 52.8977 64.5168 53.2939 64.847 53.2278C64.7149 53.492 64.4508 54.2184 64.4508 54.2184L65.1772 54.0203Z" fill="#F5B082"/>
<path d="M67.2916 53.4259C67.3576 53.0297 67.6878 52.5674 67.8199 52.3033C67.4236 52.0391 66.6312 51.775 66.235 50.9825L65.6406 51.1807C66.4331 52.2373 66.6312 52.3693 67.1595 52.4354C67.0274 52.6995 66.6312 53.6901 66.6312 53.6901L67.2916 53.4259Z" fill="#F5B082"/>
<path d="M69.538 52.7657C69.6701 52.0392 69.9343 51.643 70.0003 51.3789C69.6041 51.3789 68.9437 50.9826 68.5475 50.1902L67.9531 50.4543C68.5475 51.3789 69.0097 51.643 69.3399 51.643C69.2078 51.9072 68.9437 53.0298 68.9437 53.0298L69.538 52.7657Z" fill="#F5B082"/>
<path d="M71.7173 51.7751C71.6513 51.5109 72.1136 50.6524 72.2457 50.3883C72.1796 50.3883 72.0476 50.3883 71.9155 50.3883C71.6513 50.3222 71.1891 50.1241 70.6608 49.1996L70.0664 49.4637C70.6607 50.4543 71.123 50.5864 71.2551 50.6524C71.3872 50.7185 71.5192 50.6524 71.5853 50.5864C71.2551 50.9826 70.991 52.0392 70.991 52.0392L71.7173 51.7751Z" fill="#F5B082"/>
<path d="M75.4809 49.5298C75.3488 49.1996 75.3488 48.6713 75.4149 48.4732C75.0186 48.2091 74.7545 47.7468 74.6885 46.8883L74.1602 47.2185C74.2922 48.2091 74.5564 48.5392 74.8866 48.6713C74.7545 48.9355 74.9526 49.86 74.9526 49.86L75.4809 49.5298Z" fill="#F5B082"/>
<path d="M73.6329 50.7184C73.6329 50.3882 73.765 49.7279 73.897 49.4637C73.5008 49.4637 73.3027 49.3977 72.8404 48.0769L72.2461 48.4071C73.0385 49.7939 73.1046 49.7279 73.3027 49.6618C73.1706 49.926 72.9725 51.1146 72.9725 51.1146L73.6329 50.7184Z" fill="#F5B082"/>
<path d="M76.8659 48.3411C76.7339 47.9449 76.7999 47.6147 76.8659 47.4166C76.6678 47.4826 76.6018 47.1524 76.5357 46.8222C76.4697 46.492 76.5357 46.2279 76.4697 45.8317L75.9414 46.1619C75.9414 47.0203 76.0074 47.8788 76.3376 47.7468C76.2055 48.0109 76.2716 48.8694 76.2716 48.8694L76.8659 48.3411Z" fill="#F5B082"/>
<path d="M78.1883 47.2845C78.1223 46.9543 78.1883 46.6241 78.2544 46.3599C78.0562 46.0958 77.9902 45.7656 78.0562 44.8411L77.5279 45.2373C77.3959 46.2279 77.594 46.558 77.726 46.7562C77.594 47.0203 77.594 47.7467 77.594 47.7467L78.1883 47.2845Z" fill="#F5B082"/>
<path d="M79.4424 45.5014C79.6405 44.6429 79.4424 44.1806 79.4424 43.6523L78.9141 44.1146C79.0461 44.5769 79.1782 45.5014 78.9141 46.3599L79.4424 45.5014Z" fill="#F5B082"/>
<path d="M80.4329 42.5958C80.4329 42.5958 80.4329 43.2562 80.3008 43.7845C80.4329 43.5203 80.4989 43.2562 80.631 42.992C80.631 42.7279 80.631 42.4637 80.5649 42.1996L80.4329 42.5958Z" fill="#F5B082"/>
<path d="M59.6312 23.3127C59.7633 23.5769 59.5652 25.4259 59.367 26.0203L58.6406 25.558C58.6406 25.558 59.1029 24.1712 59.1689 23.841C59.235 23.5108 59.1029 23.1807 58.9048 22.9825L59.6312 23.3127Z" fill="#F5B082"/>
<path d="M57.1891 24.6996L56.5948 24.3694C56.925 23.3128 56.925 22.8505 56.925 22.5203C56.925 22.3222 56.3967 22.1901 56.4627 22.2562C56.925 22.1241 58.5099 21.1996 58.9061 20.9354L59.5665 21.2656C58.8401 21.7279 57.3873 22.4543 57.0571 22.4543L57.3873 22.3883C57.7835 22.7184 57.2552 24.3694 57.1891 24.6996Z" fill="#F5B082"/>
<path d="M55.0756 23.7751L54.6133 23.577C54.6133 23.1807 54.7454 22.6524 55.2076 21.7279L55.7359 21.926C55.1416 22.9826 55.0095 23.577 55.0756 23.7751Z" fill="#F5B082"/>
<path d="M57.3869 20.341L56.7925 20.1429C56.0661 20.4731 55.2737 21.0014 54.6133 21.5297L55.0756 21.7939C56.0661 21.1335 56.9246 20.4731 57.3869 20.341Z" fill="#F5B082"/>
<path d="M81.3563 33.2184L80.894 33.3505C80.7619 32.8222 80.6959 32.0297 80.1016 31.5014C80.3657 30.9731 80.4978 30.5769 80.2336 29.9165H80.6299C80.7619 30.6429 80.6959 30.9731 80.4978 31.4354C80.894 31.7656 81.3563 32.3599 81.3563 33.2184Z" fill="#F5B082"/>
<path d="M80.2341 33.4825L79.7058 33.5486C79.5737 33.0203 79.3756 32.1618 78.7812 31.6335C79.2435 31.1052 79.2435 30.5108 79.1775 29.9825H79.7058C79.8378 30.709 79.6397 31.1712 79.3756 31.6335C79.7058 31.9637 80.102 32.6241 80.2341 33.4825Z" fill="#F5B082"/>
<path d="M81.293 31.3693C81.8873 31.8976 81.7552 32.492 81.9533 33.0203L82.1515 32.9542C82.0854 32.558 82.0854 32.1618 82.0194 31.7656C81.9534 31.5674 81.8213 31.4354 81.6892 31.3033C81.8213 30.9071 81.8213 30.6429 81.8213 30.3788C81.7552 30.1807 81.7552 29.9825 81.6892 29.7844H81.4251C81.4251 30.1807 81.425 30.9071 81.293 31.3693Z" fill="#F5B082"/>
<path d="M77.7271 31.6996C78.2554 32.36 78.5196 32.9543 78.7177 33.6807H78.1894C78.0573 33.1524 77.7272 32.2939 77.1328 31.6996H77.7271Z" fill="#F5B082"/>
<path d="M77 31.7656C77.3302 31.4354 77.7264 30.5108 77.6604 29.9825L78.2547 30.0486C78.2547 30.9731 78.0566 31.1712 77.7264 31.7656H77Z" fill="#F5B082"/>
<path d="M76.4029 31.6335C76.7331 32.1618 77.0633 32.8222 77.1293 33.6807H76.6011C76.469 33.1524 76.3369 32.1618 75.8086 31.6335H76.4029Z" fill="#F5B082"/>
<path d="M75.7461 31.6335C76.1423 31.3033 76.4725 30.3127 76.4065 29.7844L77.0008 29.8505C77.1329 30.5108 76.7367 31.1052 76.3404 31.6335H75.7461Z" fill="#F5B082"/>
<path d="M74.6221 31.5015C74.8862 31.5015 75.1504 32.7562 75.2164 33.5486L74.6221 33.4166C74.424 32.2939 74.7541 32.3599 74.0938 31.2373L74.6221 31.5015Z" fill="#F5B082"/>
<path d="M73.8945 31.1713C74.753 30.3789 75.0172 29.9166 74.9511 29.5204L75.5455 29.6525C75.6776 30.1808 74.8851 30.9072 74.4889 31.4355L73.8945 31.1713Z" fill="#F5B082"/>
<path d="M71.9805 30.9072C72.5088 30.5109 73.1691 29.4543 73.2352 28.926L73.7635 29.1902C73.6974 29.9166 72.839 30.8411 72.5748 31.1053L71.9805 30.9072Z" fill="#F5B082"/>
<path d="M70.9221 30.1146C71.2523 30.5769 71.2523 31.5674 71.1202 32.4259L70.4598 32.0957C70.5919 31.5014 70.6579 30.4448 70.2617 29.8505L70.9221 30.1146Z" fill="#F5B082"/>
<path d="M72.7737 31.1052C73.1038 31.5675 73.1039 32.6241 72.9718 33.4165L72.3114 33.0863C72.4435 32.492 72.5095 31.4354 72.1133 30.8411L72.7737 31.1052Z" fill="#F5B082"/>
<path d="M70.1328 29.8505C70.6611 29.4543 71.5196 28.7279 71.5857 28.1996L72.246 28.5298C71.9158 29.2562 71.5196 29.4543 70.7932 30.1147L70.1328 29.8505Z" fill="#F5B082"/>
<path d="M68.9416 29.0581C69.2058 29.5864 69.1397 30.643 68.9416 31.5675L68.2812 31.1713C68.4794 30.577 68.6114 29.4543 68.2812 28.7939L68.9416 29.0581Z" fill="#F5B082"/>
<path d="M68.082 28.6618C68.6764 28.3316 69.6669 27.6052 69.733 27.0109L70.3934 27.4071C69.9971 28.1335 69.5349 28.3316 68.7424 28.926L68.082 28.6618Z" fill="#F5B082"/>
<path d="M66.7612 27.8033C67.0253 28.3316 66.8272 29.3882 66.5631 30.3128L65.9688 29.8505C66.2329 29.2562 66.431 28.1996 66.1008 27.4731L66.7612 27.8033Z" fill="#F5B082"/>
<path d="M65.9688 27.3411C66.5631 27.0109 67.6197 26.4166 67.7518 25.8223L68.3461 26.2845C67.8838 27.0109 67.4216 27.143 66.5631 27.6713L65.9688 27.3411Z" fill="#F5B082"/>
<path d="M64.5854 26.4825C64.8496 27.0108 64.6515 28.0674 64.3873 28.992L63.793 28.5297C64.0571 27.9354 64.2552 26.8788 63.9251 26.1523L64.5854 26.4825Z" fill="#F5B082"/>
<path d="M63.793 26.0864C64.3873 25.7562 65.4439 25.1618 65.576 24.5675L66.1703 25.0298C65.7081 25.7562 65.2458 25.8883 64.3873 26.4166L63.793 26.0864Z" fill="#F5B082"/>
<path d="M62.2065 24.9637C62.4707 25.492 62.2725 26.5486 62.0084 27.4732L61.4141 27.0109C61.6782 26.4166 61.8763 25.36 61.5461 24.6335L62.2065 24.9637Z" fill="#F5B082"/>
<path d="M61.4141 24.5675C62.0084 24.2373 63.065 23.6429 63.1971 23.0486L63.7914 23.5108C63.3291 24.2373 62.8669 24.3693 62.0084 24.8976L61.4141 24.5675Z" fill="#F5B082"/>
<path d="M58.9688 22.9826C59.5631 22.6524 60.6197 22.0581 60.7518 21.4637L61.3461 21.926C60.8838 22.6524 60.4216 22.7845 59.5631 23.3128L58.9688 22.9826Z" fill="#F5B082"/>
<path d="M55.8677 19.7467L55.2734 19.5486C54.4809 19.9448 53.6885 20.4731 53.1602 21.0014L53.5564 21.1335C54.3488 20.5392 55.3394 19.9448 55.8677 19.7467Z" fill="#F5B082"/>
<path d="M54.2821 19.1525L53.6878 18.9543C52.4331 19.6808 52.1689 19.9449 51.6406 20.4732L52.1689 20.6053C52.301 20.3411 52.5652 20.077 54.2821 19.1525Z" fill="#F5B082"/>
<path d="M52.6294 18.6902L51.903 18.6241C51.1766 18.9543 50.4502 19.7468 49.9219 20.209L50.4502 20.2751C50.9785 19.6807 51.903 18.9543 52.6294 18.6902Z" fill="#F5B082"/>
<path d="M50.6498 18.426H50.0555C49.263 18.9543 48.5366 20.077 48.8668 20.209H49.197C49.4612 19.4166 49.9234 18.9543 50.6498 18.426Z" fill="#F5B082"/>
<path d="M49.1953 18.426L48.667 18.4921C47.6104 19.4166 47.4783 20.209 47.8085 20.143H48.0066C48.0066 19.9449 48.0066 19.4166 49.1953 18.426Z" fill="#F5B082"/>
<path d="M47.8104 18.6241L47.216 18.8223C46.5557 19.2845 46.2255 20.3411 46.4896 20.2751L46.7538 20.209C46.8198 19.8789 47.0179 19.3506 47.8104 18.6241Z" fill="#F5B082"/>
<path d="M51.9697 22.7845L51.4414 22.6524C51.5074 22.0581 51.7716 21.1335 52.1018 20.6713L52.564 20.7373C52.1678 21.2656 51.9697 22.3222 51.9697 22.7845Z" fill="#F5B082"/>
<path d="M53.4893 23.1807L52.9609 23.0486C52.9609 22.4543 53.2911 21.5298 53.6213 21.0675L54.0836 21.1335C53.6874 21.6618 53.4893 22.7184 53.4893 23.1807Z" fill="#F5B082"/>
<path d="M50.3177 22.3882L49.8555 22.2562C49.8555 21.6618 50.1196 20.8033 50.3838 20.275L50.846 20.3411C50.5158 20.8033 50.3177 22.058 50.3177 22.3882Z" fill="#F5B082"/>
<path d="M48.8685 21.992L48.4062 21.926C48.4723 21.3316 48.8025 20.6712 49.0666 20.209H49.4629C49.1327 20.7373 48.8685 21.5297 48.8685 21.992Z" fill="#F5B082"/>
<path d="M47.5447 21.8599L47.1484 21.7939C47.2145 21.1996 47.4786 20.6712 47.8088 20.209H48.2711C47.8088 20.7373 47.5447 21.3977 47.5447 21.8599Z" fill="#F5B082"/>
<path d="M46.3575 21.7939H46.0273C46.1594 21.0675 46.3575 20.7373 46.6877 20.275L47.084 20.209C46.5556 20.8033 46.4896 21.1335 46.3575 21.7939Z" fill="#F5B082"/>
<path d="M45.2989 21.8599L44.9688 21.926C45.1669 21.1335 45.2329 21.0014 45.4971 20.4731H45.8273C45.4971 20.9354 45.431 21.3316 45.2989 21.8599Z" fill="#F5B082"/>
<path d="M45.6974 20.4071C45.6974 20.209 45.7634 19.9448 45.8955 19.6807C45.7634 19.8127 45.5653 20.0109 45.4332 20.209L45.3672 20.5392L45.6974 20.4071Z" fill="#F5B082"/>
<path d="M44.4438 21.992C44.5759 21.5958 44.708 21.1335 45.0382 20.7373C44.774 21.0015 44.5759 21.3316 44.3118 21.5958C44.2457 21.7279 44.2457 21.86 44.1797 22.1241L44.4438 21.992Z" fill="#F5B082"/>
<path d="M49.5932 18.8222C47.0178 19.9448 43.4517 20.7373 37.9706 20.5392C37.9706 20.5392 29.4517 19.9448 24.8951 20.275C23.1121 20.3411 15.5178 21.0675 8.58382 23.6429C7.79136 23.9071 7.46116 24.1712 7.06494 24.5675C6.93286 24.7656 6.60267 25.2939 6.40456 25.6901C6.40456 25.6901 4.29136 25.9543 2.97061 26.4826C1.12155 27.209 0.461172 28.1995 0.923436 29.9826C2.11212 34.0109 6.93287 34.8033 6.93287 34.8033C6.93287 34.8033 5.74419 31.9637 6.86683 31.8977C7.3291 31.8977 8.78192 32.2279 9.77249 32.6901C10.3668 32.9543 12.9423 34.1429 15.4517 36.3882L12.414 45.9637H47.2159C48.3385 45.9637 49.4612 45.6995 50.4517 45.3033C50.2536 45.5675 50.1215 45.6995 49.9234 45.9637L47.348 50.4543H61.6121C65.1781 50.3882 68.2159 48.6052 69.4706 45.8977H101.565C105.527 45.8977 108.631 44.1146 109.754 41.4731C111.14 38.3694 109.555 36.7184 109.555 36.7184C111.14 35.7278 111.867 34.4731 112.131 33.5486L113.716 28.5958H82.6121L84.3291 23.2467H80.1687C76.2725 23.3128 73.3668 25.558 72.3763 28.5958H45.1027C47.6781 27.4731 51.9046 24.8316 54.0178 16.5769C54.0178 16.5769 52.1687 17.8316 49.5932 18.8222Z" fill="black"/>
<path d="M33.4158 38.1712C35.3969 38.1052 36.9158 37.3127 37.5762 36.7184C37.5762 36.7184 36.5196 42.7939 29.3875 42.8599H14.9252L17.3686 35.0014C17.3686 35.0014 14.4629 31.6335 9.11389 30.3127C7.19879 29.7844 4.49125 29.5863 4.29314 30.5109C4.2271 30.775 4.35917 31.6995 4.55729 32.4259C4.55729 32.4259 3.69879 32.0297 3.17049 31.3693C2.97238 31.1712 2.17992 30.1807 2.11388 29.1241C2.04785 28.5297 2.37804 28.1335 2.8403 27.8033C3.96294 27.0769 7.1988 26.7467 7.1988 26.7467L7.46294 26.0863C7.7271 25.426 8.05728 25.0958 8.45351 24.9637C15.7837 22.058 24.5007 21.5297 24.5667 21.5297H24.5007C25.095 21.4637 25.9535 21.4637 26.878 21.4637C30.8403 21.1995 36.1894 21.7278 36.5195 21.7278C40.3497 21.992 42.9252 21.8599 44.5762 21.5958C47.0856 21.3316 49.3969 19.7467 49.3969 19.7467C49.3969 19.7467 47.2177 24.6335 42.0007 26.0203C39.8214 26.6146 37.5762 26.6807 35.529 26.6807H31.6328C29.6516 26.6807 29.1894 27.4071 28.9252 28.0675L28.3969 29.7844H34.9346C37.378 29.8505 39.029 28.8599 39.7554 28.2656C39.7554 28.2656 38.7648 34.275 31.5667 34.4071C31.5667 34.4071 27.9346 34.4071 26.9441 34.4071L25.6894 38.3033H33.4158V38.1712Z" fill="white"/>
<path d="M31.4983 25.492C29.3191 25.492 28.3945 26.3505 27.9983 27.4732L27.1398 30.2467H34.8002C36.1209 30.2467 37.4417 30.2467 38.4323 29.3883C37.7059 31.2373 35.5266 33.2184 31.4983 33.1524H26.2813L24.5643 38.6996H32.5549C33.8757 38.6996 35.1304 38.6335 36.187 37.9071C35.4606 39.7562 33.1492 41.7373 29.187 41.6713H15.9134L18.2247 34.3411C18.2247 34.3411 13.404 29.3222 6.47001 28.992C5.21529 28.992 4.3568 29.0581 3.8285 29.3883C3.23416 29.7184 3.56435 30.775 3.56435 30.775C3.56435 30.775 2.83792 30.0486 2.70585 29.1901C2.57377 28.3316 3.69641 27.8033 5.34736 27.4732C6.53604 27.275 7.59266 27.143 7.59266 27.143L8.05491 26.1524C8.18698 25.8882 8.31907 25.6901 8.51718 25.5581C8.78133 25.2939 9.2436 25.1618 9.2436 25.1618C16.2436 22.7184 24.4983 21.992 24.4983 21.992C25.0926 21.926 25.8851 21.926 26.8096 21.926C30.7719 21.6618 36.3851 22.1901 36.3851 22.1901C45.6964 22.8505 47.4794 21.3316 48.3379 20.6713C45.036 24.9637 40.9417 25.492 35.4606 25.492H31.4983Z" fill="#EA5514"/>
<path d="M19.0161 31.6336L19.8085 29.1241C20.3368 27.3411 20.7991 26.8128 22.45 26.0864C24.101 25.36 27.2047 25.0298 27.2047 25.0298C22.6481 24.3694 13.1387 24.7656 9.70474 25.9543C8.97832 26.2185 8.71417 26.8789 8.71417 26.8789L13.5349 26.4826L11.6859 27.6053C9.90285 27.0109 8.51607 27.2751 8.51607 27.2751C7.39343 27.8034 7.19531 28.7939 7.19531 28.7939C13.2708 28.7279 19.0161 31.6336 19.0161 31.6336Z" fill="white"/>
<path d="M80.2333 24.4354C77.2616 24.4354 74.6861 26.1524 74.0257 28.3316L69.5352 42.926H75.7427L81.488 24.5015H80.2333V24.4354Z" fill="white"/>
<path d="M92.8498 36.6524C93.7083 36.058 94.3026 35.2656 94.5668 34.341L95.9536 29.8505H86.0479C82.3498 29.9165 80.6989 31.6995 80.1706 33.2184L77.1328 42.8599H87.1706C89.8781 42.8599 92.2555 41.6052 93.0479 38.9637L93.7743 36.6524H92.8498ZM85.9819 34.4071L86.3121 33.3505H88.6234L88.2932 34.4071H85.9819ZM86.9064 39.2278H84.529C84.7272 38.6335 84.7932 38.3693 84.9253 37.9731H87.8309C87.3687 38.3693 87.1045 38.6995 86.9064 39.2278Z" fill="white"/>
<path d="M61.4808 43.7845H57.4525C54.4808 43.7845 52.6318 44.5109 51.7733 46.0958L51.0469 47.4166H61.6129C64.5846 47.3505 67.094 45.8317 67.8205 43.5864L72.1129 29.8505H62.3393C62.3393 29.8505 57.5846 29.7845 56.3299 33.6807L53.4903 42.86H60.028C60.8205 42.86 61.4808 42.7279 62.0091 42.5298L61.4808 43.7845ZM64.7167 33.3505C64.2544 34.8034 63.1318 38.3694 62.8676 39.2279H60.6884C61.1507 37.7751 62.2733 34.209 62.5374 33.3505H64.7167Z" fill="white"/>
<path d="M37.0469 42.8599H47.2167C49.9903 42.7939 52.3676 41.275 52.962 39.1618L55.8676 29.8505H45.8299C42.9903 29.8505 40.6129 31.3693 39.8865 33.6146L39.094 36.124H40.0846C39.2922 36.7184 38.6318 37.5769 38.3676 38.5674L37.0469 42.8599ZM44.3771 39.2278L44.7073 38.1712H47.1507L46.8205 39.2278H44.3771ZM48.6035 33.4165L48.2073 34.6712H45.1035C45.6978 34.341 45.962 33.8127 46.1601 33.4165H48.6035Z" fill="white"/>
<path d="M92.7812 42.8599H101.498C104.932 42.8599 106.781 40.8788 107.376 39.0297C107.376 39.0297 107.706 37.9731 107.31 37.1146C107.111 36.5863 106.715 36.124 106.055 35.7939C105.725 35.5957 105.064 35.3316 104.47 35.0014C107.97 34.7373 109.159 33.2844 109.555 32.0297L109.885 30.9731L110.215 29.8505H109.027H101.432C98.5265 29.8505 96.4133 31.3033 95.6869 33.6807C95.1586 35.8599 96.8095 36.6524 96.8095 36.6524L98.7907 37.5769C95.2246 37.709 93.9699 39.2939 93.5737 40.6146L92.7812 42.8599ZM101.894 33.7467L102.027 33.4165H102.951L102.687 34.1429L101.894 33.7467ZM100.177 39.2278C100.244 38.9637 100.376 38.6995 100.376 38.6995C100.376 38.6995 100.442 38.5014 100.442 38.4354C100.772 38.5674 101.168 38.7656 101.234 38.8316C101.168 38.9637 101.168 39.0957 101.102 39.2939H100.177V39.2278Z" fill="white"/>
<path d="M70.3945 41.6713L74.5549 28.3977C75.2153 26.4826 77.5266 25.0298 79.97 25.0298L74.753 41.7373H70.3945V41.6713Z" fill="#EA5514"/>
<path d="M88.423 36.7844C90.9985 36.6524 92.9136 35.3977 93.4419 33.6807L94.4984 30.2467H85.7815C83.3381 30.3127 81.3569 31.4354 80.6966 33.3505L78.1211 41.5392H86.9701C89.5456 41.5392 91.2626 40.3505 91.989 38.3033L92.3852 37.1146C90.0079 37.1146 87.8286 37.775 87.2343 39.558L87.1683 39.6901H83.0079L83.9324 36.7184L88.423 36.7844ZM89.5456 32.2278L88.6871 34.9354H84.5268L85.3852 32.2278H89.5456Z" fill="#EA5514"/>
<path d="M63.1966 39.7561H59.2344L61.5457 32.2278H65.508L63.1966 39.7561ZM52.2344 46.2278H61.2155C63.6589 46.1618 65.9702 44.9731 66.5646 42.992L70.4608 30.3788H61.8759C59.4325 30.4448 57.4514 31.7656 56.725 33.6807L54.2155 41.7373H59.5646C61.9419 41.7373 62.8665 40.7467 62.8665 40.7467L61.8098 44.3788H57.1212C55.074 44.3127 53.0929 44.709 52.2344 46.2278Z" fill="#EA5514"/>
<path d="M47.1484 39.7561H42.922L43.7804 36.9826H48.0069L47.1484 39.7561ZM45.5635 30.3127C43.1861 30.3127 41.0069 31.6995 40.4786 33.4826L40.0823 34.8693C42.3276 34.9354 44.6389 34.209 45.2333 32.426L45.2993 32.2278H49.5257L48.6012 35.1335H44.1106C41.5352 35.1335 39.554 36.5863 39.0257 38.3693L38.0352 41.6052H47.0163C49.4597 41.5392 51.4408 40.2844 51.9691 38.5014L54.5446 30.2467H45.5635V30.3127Z" fill="#EA5514"/>
<path d="M106.255 38.4354C105.726 40.2184 104.009 41.6712 101.236 41.6712H93.7734L94.1036 40.5486C94.6319 38.7656 96.8112 38.1712 99.2546 38.1052L98.7263 39.7561H101.5L101.896 38.4354C101.962 38.1712 101.896 37.9731 101.698 37.841L96.9432 35.5297C96.4149 35.2656 96.0187 34.4071 96.2829 33.5486C96.8772 31.6335 98.5942 30.3127 101.236 30.3127H108.83L108.5 31.3694C107.972 33.1524 105.924 33.7467 103.415 33.8127L103.877 32.2278H101.104L100.773 33.4165C100.707 33.6807 100.773 33.8788 100.972 34.0109L105.594 36.2561C106.651 36.9165 106.255 38.4354 106.255 38.4354Z" fill="#EA5514"/>
<path d="M60.0266 62.2751H61.0172C61.2153 62.2751 61.4134 62.2751 61.4795 62.2091C61.6776 62.143 61.7436 61.9449 61.7436 61.7468C61.7436 61.5487 61.6776 61.4166 61.4795 61.3506C61.4134 61.2845 61.2153 61.2845 61.0172 61.2845H60.2247C59.9606 61.2845 59.7625 61.3506 59.6304 61.4166C59.4983 61.4826 59.4983 61.6147 59.4983 61.8128C59.4323 62.143 59.6304 62.2751 60.0266 62.2751ZM62.0078 63.926L60.1587 63.9921C59.6304 63.9921 59.3002 63.86 59.0361 63.5298C58.904 63.3317 58.8379 63.1336 58.8379 62.9355C58.7719 62.6713 58.8379 61.9449 58.8379 61.8128C58.8379 61.4166 58.97 61.1524 59.1021 61.0204C59.2342 60.8883 59.4983 60.6902 59.6964 60.6902C59.8946 60.6902 59.8946 60.6902 60.0927 60.6902H61.0172C61.4795 60.6902 61.7436 60.7562 61.9417 60.8223C62.2059 60.9543 62.338 61.2845 62.338 61.7468C62.338 62.143 62.2059 62.4732 62.0078 62.6053C61.8097 62.7374 61.5455 62.8034 61.1493 62.8034C61.1493 62.8034 59.5644 62.8034 59.5644 62.8694C59.5644 63.0015 59.6304 63.1996 59.7625 63.3317C59.8946 63.3977 60.0927 63.3977 60.2908 63.3977L62.0738 63.3317L62.0078 63.926Z" fill="white"/>
<path d="M57.7159 62.0769C57.5839 61.9449 57.3197 61.8788 57.0556 61.8128L55.8669 61.6147C55.7348 61.6147 55.3386 61.4826 55.4046 61.2184L55.4707 60.9543C55.5367 60.7562 55.6027 60.6901 55.999 60.7562C55.999 60.7562 57.9801 61.0864 58.0461 61.1524C58.0461 61.0864 58.1122 60.7562 58.1122 60.6901C58.0461 60.6901 56.131 60.36 56.131 60.36C55.8009 60.2939 55.5367 60.2939 55.4046 60.36C55.1405 60.426 54.9424 60.6241 54.8763 61.0203L54.8103 61.2845C54.7443 61.5486 54.8103 61.7467 55.0084 61.9449C55.1405 62.0769 55.3386 62.209 55.5367 62.209L56.8574 62.4732C57.2537 62.5392 57.2537 62.6713 57.2537 62.8694L57.1876 63.0675C57.1216 63.2656 57.0556 63.3977 56.7254 63.3317C56.7254 63.3317 54.6122 62.9354 54.4801 62.9354C54.4801 63.0015 54.4141 63.3316 54.4141 63.4637C54.4801 63.4637 56.5933 63.8599 56.5933 63.8599C57.1216 63.926 57.4518 63.86 57.6499 63.6618C57.7159 63.5958 57.782 63.3977 57.782 63.1996L57.848 63.0015C57.9801 62.4732 57.9141 62.2751 57.7159 62.0769Z" fill="white"/>
<path d="M52.7624 61.1524L51.8379 60.8222C51.6397 60.7562 51.5077 60.7562 51.3756 60.7562C51.1775 60.7562 51.0454 60.8882 50.9794 61.0864C50.9133 61.2845 50.9794 61.4165 51.1114 61.5486C51.1775 61.6147 51.3095 61.6807 51.5737 61.7467L52.3661 62.0109C52.6303 62.0769 52.8284 62.143 52.9605 62.0769C53.0926 62.0109 53.1586 61.9448 53.2246 61.7467C53.2907 61.4826 53.1586 61.2845 52.7624 61.1524ZM51.4416 58.9071L53.1586 59.5014C53.6869 59.6335 53.9511 59.8977 54.0831 60.2939C54.2152 60.7562 53.9511 61.2845 53.819 61.6807C53.7529 61.8128 53.7529 62.0109 53.6869 62.1429C53.6209 62.3411 53.4888 62.5392 53.2907 62.6713C53.1586 62.8033 52.8944 62.8033 52.6963 62.7373C52.4982 62.6713 52.3001 62.6052 52.168 62.5392L51.2435 62.275C50.8473 62.1429 50.5831 62.0109 50.4511 61.8128C50.2529 61.6146 50.2529 61.2845 50.385 60.8222C50.5171 60.426 50.7152 60.1618 51.0454 60.0958C51.2435 60.0297 51.5737 60.0958 51.9699 60.2279L53.4888 60.7562C53.5548 60.6241 53.5548 60.426 53.4228 60.2939C53.2907 60.1618 53.0926 60.0958 52.9605 60.0297L51.2435 59.5014L51.4416 58.9071Z" fill="white"/>
<path d="M69.6039 60.8882L68.6794 61.2184C68.4813 61.2844 68.3492 61.3505 68.2832 61.4165C68.1511 61.5486 68.085 61.6807 68.1511 61.9448C68.2171 62.1429 68.3492 62.275 68.4813 62.275C68.6134 62.275 68.7454 62.275 68.9435 62.209L69.736 61.9448C70.0001 61.8788 70.1983 61.7467 70.2643 61.6146C70.3303 61.4826 70.3303 61.3505 70.3303 61.1524C70.1983 60.8882 70.0002 60.8222 69.6039 60.8882ZM67.2266 59.8977L69.0096 59.3693C69.5379 59.2373 69.9341 59.2373 70.1983 59.5014C70.5945 59.8316 70.6605 60.3599 70.7926 60.8222C70.8586 60.9543 70.8586 61.1524 70.9247 61.2844C70.9907 61.4826 70.9907 61.7467 70.9247 61.9448C70.8586 62.1429 70.7266 62.275 70.5284 62.341C70.3303 62.4071 70.1322 62.4731 70.0002 62.5392L69.0756 62.8033C68.6794 62.9354 68.3492 63.0014 68.1511 62.9354C67.8869 62.8693 67.6888 62.6052 67.5568 62.1429C67.4247 61.7467 67.4907 61.4165 67.6888 61.2184C67.8209 61.0863 68.085 60.8882 68.4813 60.8222L70.0002 60.3599C69.9341 60.2278 69.8681 60.0297 69.67 59.9637C69.4719 59.8976 69.2737 59.9637 69.1417 60.0297L67.4247 60.558L67.2266 59.8977Z" fill="white"/>
<path d="M72.7073 61.4166L72.179 61.6147L70.6602 57.5864L71.1885 57.3883L72.7073 61.4166Z" fill="white"/>
<path d="M72.5334 56.7602L71.9844 56.9878L73.628 60.9532L74.177 60.7256L72.5334 56.7602Z" fill="white"/>
<path d="M49.5291 59.3694C49.7272 59.3694 49.9253 59.3694 50.1234 59.1713C50.1894 59.1052 50.3215 58.9071 50.4536 58.709C50.5857 58.4449 50.6517 58.2467 50.5856 57.9826C50.5856 57.7845 50.4536 57.5864 50.3215 57.3883C50.1894 57.2562 50.0574 57.1241 49.7932 57.0581C49.7932 57.0581 47.8121 55.9354 47.68 55.8694L45.6328 59.6335C45.7649 59.6996 47.8121 60.8222 47.8121 60.8222C48.1423 61.0203 48.4064 61.0864 48.6706 61.0203C49.0007 60.9543 49.2649 60.7562 49.463 60.426C49.5291 60.2279 49.6611 60.0958 49.6611 59.8977C49.7272 59.6996 49.6611 59.5675 49.5291 59.3694ZM48.8687 60.2279C48.7366 60.426 48.4064 60.426 48.0102 60.2279L46.3592 59.3033L46.8875 58.3128L46.9536 58.3788L48.6045 59.3033C49.0007 59.5015 49.1328 59.6996 49.0007 59.9637L48.8687 60.2279ZM49.7932 58.709C49.6611 58.9071 49.397 58.9071 49.0668 58.709L47.3498 57.7845L47.9441 56.7279L48.0102 56.7939L49.5951 57.6524C49.9913 57.8505 50.1234 58.1147 49.9913 58.3788L49.7932 58.709Z" fill="white"/>
<path d="M66.697 62.0769L66.631 61.4826C66.5649 61.0864 66.4329 60.7562 66.1027 60.5581C65.8385 60.36 65.5744 60.2939 65.1121 60.36L64.7159 60.426L63.5272 60.5581L63.3951 59.5675L62.8008 59.6335L62.9329 60.6241L62.9989 61.1524L63.131 62.0769L63.197 62.4732C63.263 62.8694 63.3951 63.1996 63.7253 63.3977C63.9895 63.5958 64.2536 63.6618 64.7159 63.5958L65.1781 63.5298L65.5083 63.4637C65.9706 63.3977 66.2347 63.2656 66.4329 63.0015C66.631 62.8694 66.7631 62.4732 66.697 62.0769ZM66.1027 62.143C66.1687 62.4071 66.1027 62.6052 65.9706 62.7373C65.8385 62.9354 65.7725 63.0015 65.5083 63.0015L65.1781 63.0675H65.1121L64.7159 63.1335C64.4517 63.1996 64.3197 63.1335 64.1876 63.0015C63.9895 62.8694 63.9234 62.6713 63.8574 62.4732L63.7913 62.0769L63.6593 61.1524L64.914 60.9543L65.2442 60.8883C65.5083 60.8222 65.6404 60.8883 65.7725 61.0203C65.9706 61.1524 66.0366 61.3505 66.1027 61.5486V62.143Z" fill="white"/>
<path d="M77.5273 53.1619L80.367 56.3977C80.433 56.3317 80.6972 56.0675 80.8292 56.0015C80.7632 55.9354 78.0556 52.8977 77.9896 52.7656C77.8575 52.8977 77.5273 53.1619 77.5273 53.1619Z" fill="white"/>
<path d="M75.1492 56.2657C75.2152 56.0015 75.2152 55.7374 75.5454 55.4732C75.5454 55.4732 77.1303 54.2185 77.2624 54.0864C77.1964 53.9543 76.9982 53.7562 76.8662 53.6241C76.7341 53.7562 75.1492 55.0109 75.1492 55.0109C74.6209 55.4072 74.4888 55.7374 74.4228 56.1336C74.3567 56.5958 74.4888 56.9921 74.819 57.3883L75.3473 58.0487C75.6775 58.4449 76.0737 58.709 76.536 58.709C76.9322 58.709 77.3284 58.643 77.7907 58.2468C77.7907 58.2468 79.3756 56.9921 79.5077 56.86C79.4416 56.7279 79.2435 56.5298 79.1775 56.3977C79.0454 56.5298 77.4605 57.7845 77.4605 57.7845C77.1303 58.0487 76.9322 58.0487 76.602 58.0487C76.2718 58.0487 76.0077 57.8506 75.8096 57.5864L75.3473 57.0581C75.1492 56.926 75.0831 56.5958 75.1492 56.2657Z" fill="white"/>
<path d="M85.4519 47.8788L84.9236 47.5487C84.5934 47.3505 84.1972 47.3505 83.867 47.4166C83.5368 47.4826 83.2726 47.6147 83.0745 48.0109L82.8764 48.3411L82.216 49.3317L81.3575 48.8034L81.0273 49.2656L81.8858 49.7939L82.3481 50.1241L83.1406 50.6524L83.4707 50.9166C83.8009 51.1147 84.1311 51.2468 84.4613 51.1147C84.7915 51.0486 85.0556 50.9166 85.2538 50.5204L85.5179 50.1241L85.716 49.86C85.9802 49.4637 86.0462 49.1996 85.9802 48.8694C85.9141 48.4732 85.7821 48.077 85.4519 47.8788ZM84.9896 48.4071C85.1877 48.5392 85.3198 48.7373 85.3198 48.9354C85.3858 49.1336 85.3858 49.2656 85.1877 49.5298L84.9896 49.7939L84.9236 49.86L84.7255 50.1902C84.5934 50.3883 84.4613 50.4543 84.2632 50.5204C84.0651 50.5864 83.867 50.5203 83.6689 50.3883L83.3387 50.1902L82.5462 49.6619L83.2066 48.6052L83.4047 48.3411C83.5368 48.143 83.6689 48.077 83.867 48.0109C84.0651 47.9449 84.2632 48.0109 84.4613 48.143L84.9896 48.4071Z" fill="white"/>
<path d="M82.5445 54.1525C82.2803 54.4827 81.9501 54.6147 81.6199 54.6147C81.2897 54.6147 81.0256 54.5487 80.6954 54.2185L79.3086 52.9638L79.7048 52.5015L81.0916 53.7562C81.2897 53.9543 81.4218 53.9543 81.6199 53.9543C81.818 53.9543 82.0162 53.8223 82.1482 53.6902L82.4124 53.36C82.5445 53.1619 82.6105 52.9638 82.6105 52.7657C82.6105 52.5676 82.5444 52.4355 82.3463 52.2374L80.9595 50.9826L81.3558 50.5204L82.7426 51.7751C83.0728 52.1053 83.2048 52.3034 83.2048 52.6336C83.2709 52.9638 83.1388 53.294 82.8746 53.5581L82.5445 54.1525Z" fill="white"/>
<path d="M40.744 49.7279C40.744 49.4638 40.6119 49.1996 40.4798 48.8694C40.4798 48.8694 39.2911 46.8883 39.2251 46.7562C39.093 46.8223 35.593 48.8034 35.4609 48.8694C35.527 48.9355 35.7251 49.2657 35.7911 49.3977C35.9232 49.3317 37.1119 48.6713 37.1119 48.6713L38.1024 50.2562C38.3006 50.5864 38.4987 50.7845 38.7628 50.9166C39.093 51.1147 39.4232 51.0487 39.8194 50.8506L40.4138 50.5204C40.6119 50.3223 40.744 50.0581 40.744 49.7279ZM39.4892 50.3223C39.2911 50.4543 39.027 50.4543 38.6968 49.926L37.7062 48.3411L38.8949 47.6808L38.9609 47.7468L39.8855 49.2657C39.9515 49.3977 40.0175 49.5298 40.0175 49.6619C40.0836 49.86 40.0175 50.0581 39.8855 50.1242L39.4892 50.3223Z" fill="white"/>
<path d="M38.168 52.9638C38.234 52.8977 39.885 51.5109 39.885 51.5109C40.4133 51.0487 40.8755 51.1147 41.4038 51.7751C41.4038 51.7751 42.1302 52.6996 42.1963 52.7657C42.1302 52.8317 41.8 53.0958 41.734 53.1619C41.668 53.0958 40.9416 52.1713 40.9416 52.1713C40.6774 51.8411 40.3472 51.9072 40.2151 52.0392C40.2151 52.0392 38.5642 53.426 38.4982 53.4921C38.4982 53.426 38.234 53.0958 38.168 52.9638Z" fill="white"/>
<path d="M44.7713 55.4072C44.7053 55.077 44.6393 54.8128 44.243 54.4826L43.9129 54.2185L43.3185 53.7562C42.9883 53.426 42.7242 53.36 42.3279 53.36C41.9977 53.36 41.6676 53.5581 41.4034 53.8223L41.0072 54.2845C40.743 54.6147 40.6109 54.9449 40.677 55.2751C40.743 55.6053 40.8091 55.8694 41.2053 56.1996L41.7336 56.6619L42.1298 56.9921C42.46 57.3222 42.7902 57.3883 43.1204 57.3883C43.4506 57.3883 43.7808 57.1902 44.0449 56.926L44.4411 56.4638C44.6393 56.0675 44.7713 55.7373 44.7713 55.4072ZM43.5827 56.4638C43.4506 56.6619 43.2525 56.7279 42.9883 56.7279C42.7902 56.7279 42.6581 56.7279 42.46 56.5298L42.1298 56.2657L42.0638 56.1996L41.5355 55.7373C41.3374 55.5392 41.2713 55.4072 41.2713 55.209C41.2713 55.0109 41.3374 54.8128 41.4694 54.6147L41.7996 54.2185C41.9317 54.0204 42.1298 53.9543 42.3279 53.9543C42.526 53.9543 42.6581 53.9543 42.8562 54.1524L43.3845 54.6147L43.4506 54.6807L43.7808 54.9449C43.9789 55.143 44.0449 55.2751 44.0449 55.4732C44.0449 55.6713 43.9789 55.8694 43.8468 56.0675L43.5827 56.4638Z" fill="white"/>
<path d="M43.8469 15.7844L43.4506 16.1807L41.8657 14.5958L39.9506 16.5769L41.6016 18.0958L41.2053 18.492L38.1016 15.5203L38.4978 15.1241L39.4884 16.1146L41.4034 14.1335L40.3468 13.1429L40.7431 12.7467L43.8469 15.7844Z" fill="white"/>
<path d="M63.5941 7.992L62.6036 7.92597C62.4054 7.92597 62.2073 7.92597 62.1413 7.92597C61.9432 7.99201 61.8771 8.12408 61.8771 8.38823C61.8771 8.58635 61.9432 8.71842 62.0753 8.8505C62.1413 8.91653 62.3394 8.91654 62.5375 8.91654L63.33 8.98257C63.5941 8.98257 63.7922 8.98258 63.9243 8.91654C64.0564 8.8505 64.1224 8.71842 64.1224 8.52031C64.1885 8.19012 63.9904 7.992 63.5941 7.992ZM61.8111 6.14294L63.6602 6.27503C64.1885 6.34107 64.5187 6.47313 64.7168 6.80332C64.9809 7.19955 64.8488 7.7939 64.7828 8.25616C64.7828 8.38824 64.7828 8.58635 64.7168 8.71842C64.7168 8.98257 64.5847 9.18068 64.4526 9.31276C64.3205 9.44483 64.1224 9.57691 63.9243 9.51087C63.7262 9.51087 63.5281 9.51087 63.33 9.44483L62.4055 9.3788C61.9432 9.31276 61.679 9.24672 61.547 9.11464C61.3488 8.91653 61.2168 8.65238 61.2828 8.19012C61.3488 7.79389 61.4809 7.4637 61.7451 7.33163C61.9432 7.26559 62.2073 7.19956 62.6696 7.26559L64.2545 7.39767C64.2545 7.26559 64.2545 7.06748 64.0564 6.93541C63.9243 6.80333 63.7262 6.80332 63.5281 6.80332L61.7451 6.67125L61.8111 6.14294Z" fill="white"/>
<path d="M48.0074 9.18077C48.4036 8.98265 48.7338 8.91662 49.064 9.04869C49.3942 9.18077 49.5923 9.31284 49.8565 9.7751L50.7149 11.426L50.1866 11.6902L49.3281 10.0393C49.1961 9.77511 49.064 9.70907 48.8659 9.64303C48.6678 9.57699 48.4696 9.577 48.2715 9.70907L47.8093 9.97322C47.6112 10.1053 47.4791 10.2374 47.4131 10.4355C47.347 10.6336 47.347 10.7657 47.4791 11.0298L48.3376 12.6808L47.8093 12.9449L46.9508 11.294C46.7527 10.8977 46.6866 10.5676 46.8187 10.2374C46.8848 9.90719 47.1489 9.64303 47.4791 9.44491L48.0074 9.18077Z" fill="white"/>
<path d="M55.2075 6.67124L55.7358 8.45426C55.8018 8.71841 55.8018 8.85049 55.6697 9.04861C55.6037 9.24672 55.4056 9.37879 55.1414 9.44483L54.8113 9.51087C54.5471 9.57691 54.349 9.5769 54.2169 9.44483C54.0188 9.31275 53.9527 9.24672 53.8867 8.98257L53.3584 7.19955L52.7641 7.39766L53.2924 9.18068C53.3584 9.44483 53.3584 9.5769 53.2263 9.77502C53.1603 9.97313 52.9622 10.1052 52.698 10.1712H52.3679C52.1037 10.2373 51.9056 10.2373 51.7735 10.1052C51.5754 9.97313 51.5094 9.90709 51.4433 9.64294L50.915 7.85993L50.3867 7.992L50.915 9.84106C51.0471 10.3033 51.2452 10.5014 51.5094 10.6996C51.7735 10.8977 52.1697 10.8977 52.566 10.7656L53.0282 10.6335C53.4245 10.5014 53.6886 10.3033 53.8207 9.97313C53.8207 9.90709 53.8867 9.9071 53.8867 9.84106C53.8867 9.84106 53.9528 9.9071 54.0188 9.9071C54.2829 10.1052 54.6792 10.1052 55.0754 9.97313L55.5377 9.84106C55.9339 9.70898 56.198 9.51087 56.3301 9.18068C56.4622 8.85049 56.5282 8.58634 56.3962 8.12407L55.8678 6.27502L55.2075 6.67124Z" fill="white"/>
<path d="M59.9593 6.53914C59.6951 6.34102 59.3649 6.20895 58.9687 6.27499L58.3083 6.34102C57.9781 6.34102 57.78 6.4731 57.5819 6.60518L57.4498 5.28442L56.8555 5.35046L57.1857 9.70895L57.78 9.64291L57.6479 7.72782C57.6479 7.46367 57.714 7.33159 57.846 7.19951C57.9781 7.06744 58.1762 6.93537 58.4404 6.93537L58.9687 6.86933C59.2328 6.86933 59.4309 6.93537 59.563 7.06744C59.6951 7.19952 59.8272 7.33159 59.8272 7.59574L59.9593 9.51083L60.5536 9.44479L60.4215 7.5297C60.3555 7.0014 60.2234 6.73725 59.9593 6.53914Z" fill="white"/>
<path d="M45.302 12.7467L44.5096 13.341C44.3115 13.4731 44.2454 13.6052 44.1794 13.6712C44.1134 13.8033 44.1134 14.0014 44.2454 14.1995C44.3775 14.3977 44.5096 14.3976 44.7077 14.3976C44.7737 14.3976 44.9718 14.2656 45.1039 14.1335L45.7643 13.6712C45.9624 13.4731 46.0945 13.341 46.1605 13.209C46.2266 13.0769 46.1605 12.9448 46.0284 12.8127C45.8303 12.4826 45.5662 12.4825 45.302 12.7467ZM42.7266 12.5486L44.1794 11.4259C44.5756 11.0958 44.9718 11.0297 45.3681 11.1618C45.8303 11.2939 46.0945 11.8222 46.3586 12.1524C46.4247 12.2844 46.5567 12.4165 46.6228 12.5486C46.7549 12.7467 46.8209 12.9448 46.8209 13.1429C46.8209 13.341 46.7549 13.5392 46.5568 13.6712C46.4247 13.8033 46.2266 13.8693 46.0945 14.0014L45.3681 14.5958C45.0379 14.8599 44.7737 14.992 44.5096 14.992C44.2454 14.992 43.9152 14.8599 43.6511 14.4637C43.3869 14.1335 43.3209 13.8033 43.453 13.5392C43.519 13.341 43.7171 13.1429 44.0473 12.8788C44.0473 12.8788 45.3681 11.9543 45.302 11.8882C45.236 11.7561 45.0379 11.6241 44.8398 11.6241C44.6417 11.6241 44.5096 11.7561 44.3775 11.8882L42.9247 12.9448L42.7266 12.5486Z" fill="white"/>
<path d="M81.6198 13.275L78.582 16.643C78.6481 16.709 78.9782 16.9731 79.0443 17.0392C79.1103 16.9731 82.016 13.8033 82.082 13.6713C82.016 13.6052 81.6858 13.275 81.6198 13.275Z" fill="white"/>
<path d="M81.6884 17.3034L82.3488 18.0959C82.4809 18.294 82.6129 18.36 82.745 18.426C82.9431 18.4921 83.0752 18.4921 83.2733 18.294C83.4054 18.1619 83.4714 17.9638 83.4054 17.8317C83.3394 17.6996 83.2733 17.5676 83.1412 17.4355L82.5469 16.7751C82.3488 16.577 82.1507 16.4449 82.0186 16.3789C81.8865 16.3789 81.7545 16.3789 81.5563 16.511C81.3582 16.7751 81.4243 17.0393 81.6884 17.3034ZM81.6884 20.011L80.4337 18.5581C80.1035 18.1619 79.9054 17.7657 80.0375 17.3694C80.1035 17.1713 80.2356 16.9732 80.3677 16.7751C80.5658 16.577 81.0941 16.1147 81.2262 15.9827C81.5563 15.7185 81.8205 15.6525 82.0186 15.6525C82.2167 15.6525 82.5469 15.7845 82.679 15.9166C82.811 16.0487 82.811 16.0487 82.9431 16.2468L83.6035 16.9732C83.9337 17.3034 84.0658 17.5676 84.1318 17.8317C84.1978 18.0959 83.9997 18.426 83.6695 18.7562C83.3393 19.0204 83.0092 19.1525 82.745 19.0864C82.5469 19.0204 82.2827 18.8223 82.0186 18.4921L80.896 17.2374C80.7639 17.3694 80.6318 17.5015 80.6978 17.6996C80.7639 17.8977 80.8299 18.0298 80.962 18.2279L82.2167 19.6147L81.6884 20.011Z" fill="white"/>
<path d="M85.2518 22.3222C85.2518 22.124 85.1198 21.8599 84.9877 21.5958L84.3273 20.5391C84.2613 20.4071 84.0632 20.0769 84.3273 19.8788L84.5254 19.7467C84.7235 19.6146 84.8556 19.6146 85.0537 20.0108C85.0537 20.0108 86.1764 21.7939 86.2424 21.8599C86.3084 21.7939 86.6386 21.5958 86.7047 21.5958C86.6386 21.5297 85.582 19.8127 85.582 19.8127C85.3839 19.5486 85.1858 19.2844 85.0537 19.2184C84.7896 19.0863 84.5254 19.0863 84.1952 19.2844L83.9311 19.4165C83.6669 19.5486 83.5349 19.7467 83.5349 20.0769C83.5349 20.275 83.6009 20.4731 83.733 20.7373L84.5254 21.9259C84.7235 22.2561 84.6575 22.3882 84.5254 22.5203L84.3273 22.6523C84.1292 22.7844 83.9971 22.7844 83.799 22.5203C83.799 22.5203 82.6103 20.6052 82.5443 20.4731C82.4783 20.5392 82.1481 20.7373 82.082 20.7373C82.1481 20.8033 83.3367 22.6523 83.3367 22.6523C83.6669 23.1146 83.9311 23.3788 84.2613 23.3127C84.3933 23.3127 84.5254 23.2467 84.7235 23.1146L84.9216 22.9825C85.1858 22.8505 85.3179 22.6523 85.2518 22.3222Z" fill="white"/>
<path d="M74.2919 11.2939L73.3673 10.8316C73.1692 10.6995 73.0372 10.6995 72.9051 10.6335C72.707 10.6335 72.5749 10.6995 72.4428 10.8976C72.3107 11.0958 72.3768 11.2278 72.4428 11.4259C72.5088 11.492 72.6409 11.6241 72.839 11.6901L73.5655 12.0863C73.8296 12.2184 74.0277 12.2844 74.2258 12.2844C74.3579 12.2844 74.49 12.1524 74.556 12.0203C74.8202 11.7561 74.6881 11.492 74.2919 11.2939ZM73.3673 8.78442L75.0843 9.70896C75.5466 9.97311 75.8107 10.3033 75.8768 10.6995C75.9428 11.2278 75.6126 11.6901 75.3485 12.0863C75.2824 12.2184 75.2164 12.3505 75.0843 12.5486C74.9522 12.7467 74.8202 12.9448 74.556 13.0108C74.3579 13.0769 74.1598 13.1429 73.9617 13.0108C73.7636 12.9448 73.6315 12.8127 73.4334 12.7467L72.5749 12.2844C72.1787 12.0863 71.9145 11.8882 71.8485 11.6901C71.7164 11.4259 71.7164 11.0957 71.9806 10.6335C72.1787 10.2373 72.4428 10.0391 72.773 10.0391C72.9711 10.0391 73.3013 10.1052 73.6975 10.3033C73.6975 10.3033 75.1504 11.0957 75.2164 11.0957C75.2824 10.9637 75.3485 10.7656 75.2164 10.5675C75.0843 10.4354 74.9522 10.3033 74.7541 10.1712L73.1032 9.2467L73.3673 8.78442Z" fill="white"/>
<path d="M79.7064 13.4072C79.7064 13.3411 79.7064 13.2751 79.6403 13.209C79.5083 12.9449 79.3762 12.6807 79.112 12.5487L78.2536 11.8883C77.5932 11.36 77.0649 11.36 76.6686 11.8223L75.8101 12.9449C75.3479 13.4732 75.48 14.0015 76.1403 14.5298L77.1309 15.3223C77.263 15.3883 77.4611 15.5204 77.6592 15.4543L77.4611 15.6524C77.3951 15.7845 77.263 15.8506 77.0649 15.8506C76.8667 15.8506 76.6686 15.7185 76.5366 15.5864L75.0177 14.3977L74.6875 14.794L76.2724 16.0487C76.5366 16.2468 76.7347 16.3128 76.9328 16.3789C77.1309 16.4449 77.263 16.3789 77.4611 16.3789C77.6592 16.3128 77.7913 16.1807 77.9234 16.0487C77.9894 15.9826 77.9894 15.9166 78.0554 15.8506C78.7158 15.0581 79.4422 14.0675 79.4422 14.0675C79.7064 13.8694 79.7724 13.6713 79.7064 13.4072ZM78.3196 14.6619C77.9233 15.1241 77.4611 14.7279 77.4611 14.7279L76.5366 14.0015C76.5366 14.0015 76.5366 14.0015 76.4705 14.0015C76.4705 14.0015 75.9422 13.6713 76.3384 13.143L76.9328 12.3506C77.329 11.8223 77.7913 12.2845 77.7913 12.2845C77.9894 12.4166 78.5837 12.8789 78.5837 12.8789C78.6498 12.8789 78.6498 12.9449 78.7158 13.0109C78.7158 13.0109 78.7158 13.0109 78.7818 13.0109C78.8479 13.077 78.8479 13.077 78.9139 13.143C79.046 13.2751 79.112 13.5392 78.9139 13.8034L78.3196 14.6619Z" fill="white"/>
<path d="M68.8121 7.19955C68.8781 6.9354 69.0762 6.80333 69.5385 6.86936C69.6705 6.86936 71.8498 7.66182 72.18 7.72786C72.18 7.66182 72.3781 7.19955 72.3781 7.06748C72.246 7.00144 69.9347 6.20899 69.9347 6.20899C69.8026 6.14295 69.6045 6.14294 69.4724 6.14294C68.9441 6.14294 68.4819 6.27502 68.2838 6.80332C68.2838 6.80332 68.2177 6.9354 68.1517 7.19955C68.0196 7.66182 67.7554 8.38823 67.7554 8.45426C67.6234 8.78445 67.5573 9.11464 67.5573 9.11464C67.4913 9.31276 67.4913 9.44483 67.5573 9.64295C67.6894 10.1052 68.1517 10.4354 68.5479 10.5675C68.5479 10.5675 70.8592 11.3599 70.9913 11.426C70.9913 11.3599 71.1894 10.8977 71.1894 10.7656C70.8592 10.6335 68.746 9.9071 68.6139 9.84106C68.2177 9.64295 68.1517 9.3788 68.2177 9.18068C68.2177 9.18068 68.2837 8.91653 68.4158 8.65238C68.4819 8.5203 68.4158 8.58635 68.4158 8.58635C68.4158 8.58635 71.1234 9.51088 71.2555 9.57691C71.2555 9.51088 71.4536 9.04861 71.4536 8.91654C71.3215 8.8505 68.6139 7.92597 68.6139 7.92597L68.746 7.4637L68.8121 7.19955Z" fill="white"/>
<path d="M45.8961 57.2562L45.5659 57.7845L44.7734 57.2562L45.1036 56.7939L45.8961 57.2562Z" fill="white"/>
</svg>
