<svg width="70" height="70" viewBox="0 0 70 70" fill="none" xmlns="http://www.w3.org/2000/svg">
<g clip-path="url(#clip0_2521_55346)">
<path d="M0 29.1754C0 23.4221 4.67596 18.7515 10.4357 18.7515C16.1955 18.7515 20.8715 23.4221 20.8715 29.1754C20.8715 34.9287 16.1955 39.5994 10.4357 39.5994C4.67596 39.6148 0 34.9442 0 29.1754ZM10.4357 34.2946C13.2692 34.2946 15.5452 32.0056 15.5452 29.1909C15.5452 26.3606 13.2537 24.0872 10.4357 24.0872C7.6023 24.0872 5.32626 26.3761 5.32626 29.1909C5.32626 32.0056 7.61778 34.2946 10.4357 34.2946Z" fill="#00561F"/>
<path d="M52.1797 38.0992H70.001V32.8408H57.444V25.5873H70.001V20.329H52.1797V38.0992Z" fill="#B81A35"/>
<path d="M35.7979 19.6176L22.6836 35.2071L26.7093 38.5941L35.7979 27.799L44.9641 38.6405L49.0052 35.2535L35.7979 19.6176Z" fill="#004190"/>
<path d="M2.75641 45.5537L3.17446 47.9509C3.2364 48.3066 3.25188 48.6623 3.28285 49.018H3.29833C3.34478 48.6623 3.37575 48.3066 3.43768 47.9509L3.93315 45.5537H4.72279L5.35761 49.0026H5.37309C5.40406 48.6469 5.41954 48.3066 5.48148 47.9509L5.86856 45.5537H6.90594L5.86856 50.5646H5.01698L4.50603 47.92C4.47506 47.6107 4.41313 47.3168 4.36668 47.0075H4.35119C4.30474 47.3168 4.25829 47.6261 4.19636 47.92L3.62348 50.5646H2.75641L1.75 45.5537H2.75641Z" fill="black"/>
<path d="M11.2255 48.0437C11.2255 49.9306 10.343 50.6265 9.46041 50.6265C8.57786 50.6265 7.69531 49.9306 7.69531 48.0437C7.69531 46.1724 8.57786 45.4609 9.46041 45.4609C10.343 45.4609 11.2255 46.1724 11.2255 48.0437ZM9.46041 49.714C10.1107 49.714 10.1572 48.4458 10.1572 48.0437C10.1572 47.5952 10.1107 46.3734 9.46041 46.3734C8.81011 46.3734 8.76366 47.5952 8.76366 48.0437C8.76366 48.4458 8.81011 49.714 9.46041 49.714Z" fill="black"/>
<path d="M15.6552 48.0437C15.6552 49.9306 14.7726 50.6265 13.8901 50.6265C13.0075 50.6265 12.125 49.9306 12.125 48.0437C12.125 46.1724 13.0075 45.4609 13.8901 45.4609C14.7726 45.4609 15.6552 46.1724 15.6552 48.0437ZM13.8901 49.714C14.5404 49.714 14.5868 48.4458 14.5868 48.0437C14.5868 47.5952 14.5404 46.3734 13.8901 46.3734C13.2398 46.3734 13.1779 47.5952 13.1779 48.0437C13.1933 48.4458 13.2398 49.714 13.8901 49.714Z" fill="black"/>
<path d="M18.7963 46.6827C18.595 46.5126 18.3473 46.3579 18.0841 46.3579C17.7744 46.3579 17.5886 46.5435 17.5886 46.8528C17.5886 47.6725 19.0905 47.7189 19.0905 49.0799C19.0905 49.9769 18.5795 50.6419 17.6505 50.6419C17.3718 50.6419 17.0312 50.5491 16.7989 50.3945V49.4511C17.0312 49.6057 17.2634 49.714 17.5421 49.714C17.8673 49.714 18.115 49.4975 18.115 49.1727C18.115 48.786 17.8054 48.6468 17.5267 48.4458C16.9538 48.0591 16.5977 47.688 16.5977 46.9611C16.5977 46.1723 17.0622 45.4918 17.8983 45.4918C18.2234 45.4918 18.5021 45.5846 18.7808 45.7393V46.6827H18.7963Z" fill="black"/>
<path d="M23.5653 48.0437C23.5653 49.9306 22.6828 50.6265 21.8003 50.6265C20.9177 50.6265 20.0352 49.9306 20.0352 48.0437C20.0352 46.1724 20.9177 45.4609 21.8003 45.4609C22.6828 45.4609 23.5653 46.1724 23.5653 48.0437ZM21.8003 49.714C22.4506 49.714 22.497 48.4458 22.497 48.0437C22.497 47.5952 22.4506 46.3734 21.8003 46.3734C21.15 46.3734 21.1035 47.5952 21.1035 48.0437C21.1035 48.4458 21.15 49.714 21.8003 49.714Z" fill="black"/>
<path d="M25.6084 45.5537L26.8471 48.5695L26.8625 48.554C26.8006 48.3221 26.7851 48.0591 26.7851 47.7962V45.5382H27.7761V50.5491H26.8316L25.6084 47.5333L25.5929 47.5488L25.6394 48.0591V48.2602V50.5646H24.6484V45.5537H25.6084Z" fill="black"/>
<path d="M32.2346 47.7653V48.152C32.2346 49.2191 31.9714 50.6265 30.6243 50.6265C29.2773 50.6265 28.8438 49.1727 28.8438 48.0747C28.8438 46.9147 29.2153 45.4609 30.6243 45.4609C31.383 45.4609 31.894 45.9404 32.0952 46.6518L31.1353 47.023C31.0888 46.7755 31.0114 46.3889 30.6243 46.3889C29.9585 46.3425 29.8811 47.5798 29.8811 48.0592C29.8811 48.585 29.9121 49.7295 30.6398 49.7295C31.1508 49.7295 31.2282 49.049 31.2282 48.7088H30.5934V47.7808H32.2346V47.7653Z" fill="black"/>
<path d="M36.4794 45.5537V48.7861C36.4794 49.1572 36.4329 49.7449 36.9748 49.7449C37.4548 49.7449 37.4548 49.3738 37.4703 49.0026V45.5537H38.4612V49.2036C38.4612 49.7295 38.3993 50.642 36.9748 50.642C36.0458 50.642 35.5039 50.2089 35.5039 49.281V45.5692H36.4794V45.5537Z" fill="black"/>
<path d="M40.7062 45.5537L41.9449 48.5695L41.9603 48.554C41.8984 48.3221 41.8829 48.0591 41.8829 47.7962V45.5382H42.8739V50.5491H41.9449L40.7217 47.5333L40.7062 47.5488L40.7527 48.0591V48.2602V50.5646H39.7617V45.5537H40.7062Z" fill="black"/>
<path d="M45.1667 45.5537V50.5646H44.1758V45.5537H45.1667Z" fill="black"/>
<path d="M47.1466 45.5537L47.7505 47.9509C47.8434 48.2293 47.8743 48.5231 47.9363 48.8015H47.9517C47.9982 48.5076 48.0292 48.2293 48.1066 47.9354L48.7104 45.5382H49.7478L48.3543 50.5491H47.5337L46.0938 45.5382H47.1466V45.5537Z" fill="black"/>
<path d="M52.6458 45.5537V46.4816H51.6394V47.5642H52.5219V48.4922H51.6394V49.6212H52.6613V50.5491H50.6484V45.5382H52.6458V45.5537Z" fill="black"/>
<path d="M53.9766 50.5491V45.5382H54.9675C55.6023 45.5382 56.7326 45.6001 56.7326 46.9765C56.7326 47.5333 56.5158 47.9973 56.0204 48.2757L56.8874 50.5491H55.85L54.983 48.2447H54.9675V50.5491H53.9766ZM54.9675 47.7034H55.1378C55.5868 47.7034 55.7726 47.3941 55.7726 46.992C55.7726 46.6363 55.6023 46.3424 55.1068 46.3734H54.9675V47.7034Z" fill="black"/>
<path d="M59.9527 46.6827C59.7514 46.5126 59.5037 46.3579 59.2404 46.3579C58.9308 46.3579 58.745 46.5435 58.745 46.8528C58.745 47.6725 60.2469 47.7189 60.2469 49.0799C60.2469 49.9769 59.7359 50.6419 58.8069 50.6419C58.5282 50.6419 58.1876 50.5491 57.9553 50.3945V49.4511C58.1876 49.6057 58.4198 49.714 58.714 49.714C59.0237 49.714 59.2869 49.4975 59.2869 49.1727C59.2869 48.786 58.9772 48.6468 58.6985 48.4458C58.1256 48.0591 57.7695 47.688 57.7695 46.9611C57.7695 46.1723 58.234 45.4918 59.0701 45.4918C59.3953 45.4918 59.674 45.5846 59.9527 45.7393V46.6827Z" fill="black"/>
<path d="M62.4284 45.5537V50.5646H61.4375V45.5537H62.4284Z" fill="black"/>
<path d="M66.1133 45.5537V46.4817H65.3237V50.5492H64.3328V46.4817H63.5586V45.5537H66.1133Z" fill="black"/>
<path d="M67.709 45.5537L68.2354 46.9147L68.3128 47.1622H68.3283L68.4367 46.791L68.8857 45.5537H70.0005L68.8393 48.1674V50.5646H67.8483V48.1674L66.6406 45.5537H67.709Z" fill="black"/>
</g>
<defs>
<clipPath id="clip0_2521_55346">
<rect width="70" height="70" fill="white" transform="translate(0 0.00146484)"/>
</clipPath>
</defs>
</svg>
