<svg width="89" height="70" viewBox="0 0 89 70" fill="none" xmlns="http://www.w3.org/2000/svg">
<path d="M88.6662 29.5678V25.8644C88.6662 24.0431 87.2091 22.586 85.3877 22.586H82.4736C83.2629 21.4325 83.2021 19.9147 82.3522 18.7612C69.2993 1.33711 51.3895 0.00146484 46.1683 0.00146484C45.6826 0.00146484 45.3184 0.00146484 45.0755 0.00146484C44.8327 0.00146484 44.4684 0.00146484 43.9827 0.00146484C38.8223 0.00146484 20.9125 1.33711 7.73813 18.8219C6.88818 19.9147 6.88818 21.4932 7.61671 22.6467H3.85262C2.03128 22.6467 0.574219 24.1038 0.574219 25.9251V29.6285C0.574219 31.4499 2.03128 32.9069 3.85262 32.9069H5.85609V43.41C5.85609 45.2313 7.31316 46.6884 9.13449 46.6884H13.6271C15.4485 46.6884 16.9055 45.2313 16.9055 43.41V32.8462H17.8769V37.3996C17.8769 38.1281 18.1197 38.7959 18.5447 39.3423L21.7624 43.6528C21.2767 43.9564 20.8518 44.4421 20.6089 44.9885C20.0625 46.142 20.2446 47.4776 21.0946 48.449L26.3158 54.6415C26.9229 55.3701 27.8335 55.795 28.8049 55.795H32.8119L42.5864 68.7872C42.6471 68.848 42.7078 68.9694 42.7685 69.0301C42.7685 69.0301 42.7685 69.0301 42.7685 69.0908C42.8292 69.1515 42.9506 69.2729 43.0113 69.3336C43.0113 69.3336 43.072 69.3336 43.072 69.3944C43.1328 69.4551 43.2542 69.5158 43.3149 69.5765C43.3149 69.5765 43.3149 69.5765 43.3756 69.5765C43.497 69.6372 43.5577 69.6979 43.6792 69.7586H43.7399C43.8006 69.8193 43.922 69.8193 43.9827 69.88H44.0434C44.0434 69.88 44.0434 69.88 44.1041 69.88C44.2256 69.9408 44.2863 69.9408 44.4077 69.9408H44.4684C44.5898 69.9408 44.6505 70.0015 44.772 70.0015H44.8327C44.9541 70.0015 45.0755 70.0015 45.1969 70.0015C45.3184 70.0015 45.4398 70.0015 45.5612 70.0015H45.6219C45.7433 70.0015 45.804 70.0015 45.9255 69.9408H45.9862C46.1076 69.9408 46.1683 69.88 46.2897 69.88C46.2897 69.88 46.2897 69.88 46.3504 69.88H46.4112C46.4719 69.8193 46.5933 69.8193 46.654 69.7586H46.7147C46.8361 69.6979 46.8969 69.6372 47.0183 69.5765C47.0183 69.5765 47.0183 69.5765 47.079 69.5765C47.1397 69.5158 47.2611 69.4551 47.3218 69.3944C47.3218 69.3944 47.3825 69.3943 47.3825 69.3336C47.4433 69.2729 47.5647 69.2122 47.6254 69.0908C47.6254 69.0908 47.6254 69.0908 47.6254 69.0301C47.6861 68.9694 47.7468 68.848 47.8075 68.7872L57.5213 55.8558H61.7104C62.6818 55.8558 63.6531 55.4308 64.2603 54.6415L69.2386 48.449C69.6636 47.9026 69.9064 47.2348 69.9671 46.5669C70.2099 46.5062 70.3921 46.4455 70.5742 46.3241C71.1206 46.6884 71.7277 46.8705 72.3955 46.8705H85.3877C87.2091 46.8705 88.6662 45.4134 88.6662 43.5921V36.6103C88.6662 35.5175 88.1197 34.4854 87.2091 33.8783L85.6913 32.8462C87.3912 32.7248 88.6662 31.2677 88.6662 29.5678Z" fill="white"/>
<path d="M12.0472 23.0717H17.7541L16.2363 21.1897C16.2363 21.1897 26.2537 7.77252 45.1348 7.77252V3.27989C45.1348 3.27989 24.7359 1.76212 10.4688 20.7647L12.0472 23.0717Z" fill="#E60039"/>
<path d="M78.2243 23.0717H72.5175L74.0352 21.1897C74.0352 21.1897 64.0179 7.77252 45.1367 7.77252V3.27989C45.1367 3.27989 65.5357 1.76212 79.8028 20.7647L78.2243 23.0717Z" fill="black"/>
<path d="M19.0294 25.8644H3.85156V29.5678H9.13343V43.3492H13.6261V29.5678H19.0294V25.8644Z" fill="#E60039"/>
<path d="M49.9926 25.8644H45.5V43.3492H49.9926V25.8644Z" fill="#E60039"/>
<path d="M37.609 25.8644V36.6103L35.8484 39.0994L33.9056 36.6103V25.8644H29.413V36.6103L27.3488 39.0994L25.6489 36.6103V25.8644H21.1562V37.3995L25.6489 43.3492H29.413L31.6593 40.3744L33.9056 43.3492H37.609L42.1016 37.3995V25.8644H37.609Z" fill="#E60039"/>
<path d="M64.7448 25.8644V35.2746L57.3987 25.8644H52.2383L53.6346 27.7464V43.3492H58.1273V33.6354L65.534 43.3492H69.2374V41.5279V41.1029V25.8644H64.7448Z" fill="#E60039"/>
<path d="M85.3867 29.5678V25.8644H72.3945V28.5964V29.5678V32.664L80.712 38.3102V39.9494H72.3945V43.6528H85.3867V39.9494V36.6103L77.0086 30.9641V29.5678H85.3867Z" fill="#E60039"/>
<path d="M33.9062 51.9702L45.1378 66.8445V59.4377L40.0381 51.9702H33.9062Z" fill="#E60039"/>
<path d="M56.3076 51.9702L45.1367 66.8445V59.4377L50.2365 51.9702H56.3076Z" fill="black"/>
<path d="M28.7446 52.5773L23.5234 46.3848H66.6891L61.7108 52.5773H28.7446Z" fill="#7D7D7D"/>
<path d="M37 50.6953C37.2429 50.6953 37.3643 50.6346 37.4857 50.5738C37.6071 50.5131 37.6072 50.3917 37.6072 50.2703V50.2096C37.6072 50.0882 37.5464 49.9667 37.425 49.906C37.3036 49.8453 37.1822 49.7846 37 49.7239C36.8786 49.6632 36.6965 49.6632 36.5751 49.6025C36.4536 49.5418 36.3322 49.5418 36.2108 49.4203C36.0894 49.2989 36.0287 49.2382 35.9072 49.1168C35.8465 48.9954 35.7858 48.8132 35.7858 48.6311V48.5704C35.7858 48.449 35.7858 48.3882 35.8465 48.2668C35.9072 48.1454 35.9679 48.024 36.0287 47.9633C36.1501 47.8418 36.2715 47.7811 36.3929 47.7204C36.5751 47.6597 36.7572 47.599 36.9393 47.599C37.1215 47.599 37.3036 47.599 37.4857 47.6597C37.6679 47.7204 37.85 47.7811 37.9714 47.9026L37.6679 48.3882C37.5464 48.3275 37.425 48.2668 37.3036 48.2061C37.1822 48.2061 37.0608 48.1454 36.9393 48.1454C36.8179 48.1454 36.7572 48.1454 36.6358 48.2061C36.5751 48.2061 36.5143 48.2668 36.4536 48.3275C36.3929 48.3882 36.3929 48.3882 36.3322 48.449C36.3322 48.5097 36.2715 48.5704 36.2715 48.5704V48.6311C36.2715 48.6918 36.2715 48.7525 36.3322 48.8132C36.3929 48.8739 36.3929 48.8739 36.5144 48.9346C36.5751 48.9954 36.6358 48.9954 36.7572 48.9954C36.8179 48.9954 36.9393 49.0561 37.0607 49.0561C37.2429 49.1168 37.425 49.1775 37.5464 49.2382C37.6679 49.2989 37.7893 49.3596 37.85 49.481C37.9107 49.5418 37.9714 49.6632 38.0321 49.7239C38.0928 49.8453 38.0928 49.906 38.0928 50.0274V50.0882C38.0928 50.2703 38.0321 50.4524 37.9714 50.5738C37.9107 50.6953 37.7893 50.8167 37.6679 50.8774C37.5464 50.9381 37.425 50.9988 37.2429 51.0595C37.1215 51.1202 36.9393 51.1202 36.7572 51.1202C36.6358 51.1202 36.5144 51.1202 36.3929 51.0595C36.2715 51.0595 36.1501 50.9988 36.0894 50.9988C35.968 50.9381 35.9072 50.9381 35.7858 50.8774C35.7251 50.8167 35.6037 50.756 35.543 50.756L35.8465 50.2703C35.9679 50.331 36.0894 50.4524 36.2715 50.5131C36.6358 50.6346 36.8179 50.6953 37 50.6953Z" fill="white"/>
<path d="M42.588 47.7811V48.3275H41.0095V49.2382H42.4665V49.7239H41.0095V50.6953H42.588V51.181H40.4023V47.7811H42.588Z" fill="white"/>
<path d="M46.1091 47.7811C46.2912 47.7811 46.4734 47.7811 46.6555 47.8418C46.8376 47.9026 46.959 47.9633 47.1412 48.0847C47.2626 48.2061 47.384 48.3275 47.4447 48.5097C47.5054 48.6918 47.5662 48.9346 47.5662 49.1775V49.7846C47.5662 50.0274 47.5054 50.2703 47.4447 50.4524C47.384 50.6346 47.2626 50.8167 47.1412 50.8774C47.0197 50.9988 46.8376 51.0595 46.7162 51.1202C46.5341 51.181 46.3519 51.181 46.1698 51.181C45.9877 51.181 45.8055 51.181 45.6234 51.1202C45.4413 51.0595 45.3198 50.9988 45.1984 50.8774C45.077 50.756 44.9556 50.6346 44.8949 50.4524C44.8342 50.2703 44.7734 50.0274 44.7734 49.7846V49.2382C44.7734 48.9954 44.8342 48.7525 44.8949 48.5704C44.9556 48.3882 45.077 48.2061 45.1984 48.1454C45.3198 48.024 45.502 47.9633 45.6841 47.9026C45.6841 47.7811 45.8662 47.7811 46.1091 47.7811ZM46.1091 50.6953C46.2305 50.6953 46.3519 50.6953 46.4126 50.6346C46.5341 50.6346 46.5948 50.5738 46.6555 50.4524C46.7162 50.3917 46.7769 50.2703 46.8376 50.1489C46.8983 50.0274 46.8983 49.8453 46.8983 49.6632V49.2382C46.8983 49.0561 46.8983 48.8739 46.8376 48.7525C46.7769 48.6311 46.7162 48.5097 46.6555 48.449C46.5948 48.3882 46.4734 48.3275 46.4126 48.2668C46.2912 48.2668 46.2305 48.2061 46.1091 48.2061C45.9877 48.2061 45.8662 48.2061 45.8055 48.2668C45.6841 48.2668 45.6234 48.3275 45.5627 48.449C45.502 48.5097 45.4413 48.6311 45.3805 48.7525C45.3198 48.8739 45.3198 49.0561 45.3198 49.2382V49.6632C45.3198 49.8453 45.3198 50.0274 45.3805 50.1489C45.4413 50.2703 45.502 50.3917 45.5627 50.4524C45.6234 50.5131 45.7448 50.5738 45.8055 50.6346C45.8662 50.6953 45.9877 50.6953 46.1091 50.6953Z" fill="white"/>
<path d="M50.9642 50.6953C51.0856 50.6953 51.2071 50.6953 51.2678 50.6346C51.3285 50.6346 51.4499 50.5738 51.5106 50.5131C51.5713 50.4524 51.6321 50.331 51.6321 50.2096C51.6321 50.0882 51.6927 49.9667 51.6927 49.7846V47.7811H52.2999V49.7846C52.2999 50.0882 52.2999 50.2703 52.2392 50.4524C52.1785 50.6346 52.1177 50.756 51.9963 50.8774C51.8749 50.9988 51.7535 51.0595 51.5713 51.1202C51.3892 51.181 51.2071 51.181 51.0249 51.181C50.8428 51.181 50.5999 51.181 50.4785 51.1202C50.2964 51.0595 50.175 50.9988 50.0536 50.8774C49.9321 50.756 49.8714 50.6346 49.8107 50.4524C49.75 50.2703 49.75 50.0274 49.75 49.7846V47.7811H50.3571V49.7846C50.3571 49.9667 50.3571 50.0882 50.4178 50.2096C50.4178 50.331 50.4785 50.3917 50.5392 50.5131C50.5999 50.5738 50.6607 50.6346 50.7821 50.6346C50.7214 50.6953 50.8428 50.6953 50.9642 50.6953Z" fill="white"/>
<path d="M55.0915 47.7811V50.6953H56.6093V51.181H54.4844V47.7811H55.0915Z" fill="white"/>
<path d="M39.0039 21.6147H44.4679V19.9755H41.0074V14.0258H39.0039V21.6147Z" fill="#7D7D7D"/>
<path d="M51.0871 14.5722C50.4799 14.0865 49.63 13.8436 48.7193 13.8436C47.5658 13.8436 46.5944 14.2079 45.9266 14.8757C45.2588 15.5435 44.8945 16.5756 44.8945 17.8506C44.8945 19.1862 45.2588 20.279 45.9873 21.0075C46.5337 21.5539 47.2623 21.8575 48.1122 21.8575C49.9336 21.8575 50.4193 20.7647 50.4193 20.7647V21.2504V21.6754H52.1192V17.3649H48.78V18.7005H50.1157H50.2978C50.2978 18.7005 50.2978 20.4004 48.7193 20.4004C48.2944 20.4004 47.9908 20.279 47.6872 19.9755C47.2623 19.5505 47.0194 18.8219 47.0194 17.8506C47.0194 16.2721 47.6265 15.3614 48.6586 15.3614C49.3264 15.3614 49.8121 15.7864 49.9336 16.3328H52.0584C51.937 15.4828 51.6942 14.9971 51.0871 14.5722Z" fill="#7D7D7D"/>
</svg>
