<svg width="70" height="70" viewBox="0 0 70 70" fill="none" xmlns="http://www.w3.org/2000/svg">
<path d="M35.336 70.0015C19.0042 70.0015 5.48828 57.3858 5.48828 40.5278V38.6299V3.90896H8.52937L13.2599 8.7096V1.67611H17.4274L23.3969 7.81646V0.00146484H29.817L34.8854 6.03017L39.8413 0.00146484H46.9372V7.48153L52.1183 1.56446H56.3983V8.48631L61.0163 3.79732H64.5079V39.4114V40.8627C64.5079 57.0509 51.5551 69.8898 34.5475 69.8898M35.6739 57.944C42.8824 57.944 52.2309 51.2455 52.3435 41.3093V40.3045V17.5294L46.9372 23.6697V39.2997C46.9372 44.6586 45.4729 46.3332 45.4729 46.3332C45.3603 45.9983 44.7971 39.8579 44.7971 34.0525V27.4656H44.0087V34.0525C44.0087 34.0525 44.0087 34.2758 44.0087 35.3922L43.5582 48.7893L42.7697 49.6825C42.5445 46.8914 41.8687 39.9696 41.7561 33.1594V24.3396H40.9676V33.3826C40.9676 43.0956 40.6297 51.0222 40.6297 51.0222L39.7287 51.5804C39.2781 48.1195 38.8276 41.6442 38.6023 32.8244V21.7718H37.8139L37.7013 31.8196C37.7013 31.8196 37.8139 33.271 37.7013 35.1689L37.3634 52.1386L36.3497 52.2503C35.8991 49.6825 35.4486 40.9743 35.336 32.3779V19.7622H34.5475V32.4895V34.6107L34.2097 52.1386L33.3086 52.027C33.0833 51.2455 32.6328 44.6586 32.2949 32.8244V21.6602H31.5065V32.8244C31.5065 47.5613 31.0559 51.6921 31.0559 51.6921L30.3801 51.2455C29.9296 49.4592 29.3664 39.7463 29.1412 32.9361V24.6745H28.3527V33.271C28.4654 41.5326 27.9022 49.6825 27.9022 49.6825L27.1138 48.7893C26.7759 46.8914 26.3254 41.7559 26.2127 34.2758V27.3539H25.4243V34.3874L25.0864 46.1099C23.3969 44.8818 23.3969 37.8484 23.3969 37.8484V23.5581L17.7653 17.8643V40.4161V40.7511C17.7653 49.1243 25.3117 57.944 35.2233 57.944H35.6739Z" fill="#A62B43"/>
<path d="M13.2592 18.1992V13.1753L8.75391 8.48633V13.8452L13.2592 18.1992Z" fill="white"/>
<path d="M23.3934 19.0923L17.7617 13.5101V7.70471L23.3934 13.2868V19.0923Z" fill="white"/>
<path d="M56.3945 18.0874V13.0635L61.0125 8.37451V13.5101L56.3945 18.0874Z" fill="white"/>
<path d="M30.9441 15.8548L28.0156 12.5055V5.47205L33.9852 12.2823L30.9441 15.8548Z" fill="white"/>
<path d="M14.2774 31.5964H11.0111C10.7858 31.5964 10.5606 31.5964 10.5606 31.708L10.4479 32.1546H10.2227V30.3683H10.4479L10.5606 30.8149C10.6732 30.9265 10.7858 30.9265 11.1237 30.9265H14.0522H14.5027L14.6153 30.4799H14.8406V31.5964L11.5743 33.271L14.8406 35.0573V36.1737H14.6153L14.5027 35.7271L14.0522 35.6155H11.0111L10.4479 35.7271L10.3353 36.1737H10.2227V34.7224H10.4479L10.5606 35.1689L11.0111 35.2806H14.0522L10.6732 33.4943L14.2774 31.5964Z" fill="white"/>
<path d="M10.8959 37.9599C11.3464 37.625 11.9096 37.5133 12.4728 37.5133C13.1486 37.5133 13.7117 37.625 14.0496 37.9599C14.5002 38.2948 14.7254 38.6297 14.7254 39.0763C14.7254 39.5229 14.5002 39.8578 14.0496 40.1927C13.5991 40.5277 13.0359 40.6393 12.4728 40.6393C11.797 40.6393 11.2338 40.5277 10.8959 40.1927C10.4454 39.8578 10.2201 39.5229 10.2201 39.0763C10.3327 38.6297 10.558 38.1832 10.8959 37.9599ZM10.7833 40.7509C11.2338 41.0859 11.797 41.3092 12.5854 41.3092C12.9233 41.3092 13.2612 41.1975 13.5991 41.0859C13.937 40.9742 14.2749 40.7509 14.3875 40.5277C14.8381 40.1927 14.9507 39.6345 14.9507 39.0763C14.9507 38.4065 14.7254 37.8482 14.2749 37.4017C13.8244 36.9551 13.2612 36.7318 12.5854 36.7318C11.9096 36.7318 11.3464 36.9551 10.8959 37.4017C10.4454 37.8482 10.2201 38.4065 10.2201 39.0763C10.1075 39.7462 10.3327 40.3044 10.7833 40.7509Z" fill="white"/>
<path d="M10.4479 45.2167L12.5879 42.8722H11.1237L10.6732 42.9839L10.5606 43.4305H10.3353L10.2227 41.6442H10.4479V41.7558L10.5606 42.2024L11.1237 42.314L14.1648 42.2024L14.6153 42.0907L14.728 41.6442H14.9532L15.0659 43.4305H14.8406L14.728 42.9839L14.2774 42.8722L12.9258 42.9839L14.3901 44.3236C14.6153 44.5469 14.8406 44.6585 14.8406 44.6585L14.9532 44.3236H15.1785L15.2911 45.5517H15.0659C15.0659 45.3284 14.8406 44.9934 14.3901 44.6585L13.1511 43.4305L11.4616 45.3284L10.7858 45.7749L10.6732 46.1099H10.4479V45.2167Z" fill="white"/>
<path d="M12.1328 50.3522L15.0613 47.5612L15.3992 47.2262V46.8913L15.6244 46.7797L16.075 47.8961H15.9623H15.8497L15.5118 47.6728L15.1739 47.8961L13.0339 49.9057L16.976 49.5707V49.794L14.2728 52.3618L17.2013 52.0269L17.5392 51.9152L17.6518 51.8036V51.4687V51.357H17.7645L18.4403 52.6967L18.3276 52.8084H18.215L17.9897 52.5851H17.5392L13.3718 53.1433V52.92L16.1876 50.2406L12.1328 50.5755V50.3522Z" fill="white"/>
<path d="M19.9024 54.3715C20.2403 54.7065 20.353 55.153 20.2403 55.5996C20.1277 56.0462 19.7898 56.6044 19.3393 56.9393C18.8887 57.3859 18.3256 57.6092 17.875 57.7208C17.3119 57.7208 16.974 57.6092 16.6361 57.2742C16.2982 56.9393 16.1856 56.4927 16.2982 56.0462C16.4108 55.5996 16.7487 55.0414 17.1993 54.7065C17.6498 54.2599 18.2129 54.0366 18.6635 53.925C19.114 53.8133 19.5645 54.0366 19.9024 54.3715ZM20.0151 54.2599C19.5645 53.7017 19.0014 53.4784 18.4382 53.4784C17.7624 53.4784 17.1993 53.7017 16.7487 54.1482C16.1856 54.5948 15.9603 55.153 15.8477 55.8229C15.8477 56.4927 15.9603 57.051 16.4108 57.4975C16.8614 57.9441 17.3119 58.1674 17.7624 58.279C18.1003 58.279 18.4382 58.279 18.7761 58.1674C19.114 58.0557 19.4519 57.8325 19.6772 57.6092C20.2403 57.1626 20.4656 56.6044 20.5782 55.9345C20.6909 55.2647 20.4656 54.7065 20.0151 54.2599Z" fill="white"/>
<path d="M22.2742 62.4099L21.8236 57.6092L20.2468 59.8421L20.0215 60.2887L20.3594 60.6236L20.2468 60.7352L19.0078 59.9537L19.1204 59.8421L19.571 59.9537L19.9089 59.6188L21.711 57.051V56.9394C21.711 56.6045 21.5984 56.4928 21.4857 56.3812L21.5984 56.2695L22.3868 56.8277L22.8373 61.1818L24.3016 59.0606L24.5268 58.614L24.1889 58.2791L24.3016 58.1675L25.5405 59.0606L25.4279 59.1722L24.9774 59.0606L24.6395 59.1722L22.2742 62.4099Z" fill="white"/>
<path d="M27.795 60.0653L26.8939 59.8421L27.0065 59.6188H28.696L27.2318 63.4146V63.8612C27.3444 63.9728 27.5697 64.0845 27.9076 64.1961L27.795 64.3078L25.4297 63.4146L25.5423 63.1913C25.8802 63.303 26.2181 63.4146 26.3307 63.4146L26.6686 63.0797L27.795 60.0653Z" fill="white"/>
<path d="M37.3659 61.7399L37.2533 63.9728L35.7891 63.8612L37.3659 61.7399ZM37.8165 65.5358V64.1961H38.6049V63.7495H37.8165L37.9291 60.8468H37.2533L35.1133 63.6379V64.0844L37.2533 64.1961V65.5358H37.8165Z" fill="white"/>
<path d="M40.0658 60.7353L39.9531 60.6237L41.6426 60.0655V60.2887L41.3047 60.512V60.9586L41.8679 62.8565C42.0931 63.4147 42.3184 63.8613 42.5437 63.9729C42.8816 64.1962 43.2195 64.1962 43.5574 64.0846C43.8953 63.9729 44.1205 63.7497 44.2332 63.5264C44.3458 63.1915 44.3458 62.8565 44.2332 62.2983L43.7826 60.1771L43.5574 59.7305H43.1068V59.5072L44.5711 59.0607V59.284L44.2332 59.5072V59.9538L44.7963 61.8517C44.909 62.2983 45.0216 62.6332 45.0216 62.8565L44.6837 63.638C44.4584 63.9729 44.1205 64.1962 43.5574 64.4195C43.1068 64.5312 42.6563 64.5312 42.3184 64.4195L41.7553 63.9729C41.6426 63.7497 41.53 63.5264 41.4174 63.0798L40.8542 61.1819L40.6289 60.7353H40.0658Z" fill="white"/>
<path d="M50.8758 60.6233L46.2578 59.2836L47.7221 61.6281L48.06 61.963L48.5105 61.8514L48.6231 61.963L47.3842 62.7445L47.2715 62.5213L47.6094 62.1863L47.3842 61.7398L45.6947 59.172H45.582C45.3568 59.0603 45.1315 59.0603 45.0189 59.172L44.9062 59.0603L45.6947 58.5021L49.9747 59.7302L48.5105 57.609L48.1726 57.2741L47.7221 57.3857L47.6094 57.2741L48.8484 56.4926L48.961 56.6042L48.6231 56.9391L48.8484 57.3857L50.8758 60.6233Z" fill="white"/>
<path d="M50.543 55.0414L50.3177 55.3763L50.543 55.8229L52.683 57.9441L53.0209 58.279L53.4715 58.0558L53.5841 58.1674L52.3451 59.3955L52.1199 59.2838L52.2325 59.1722L52.4578 58.8373L52.2325 58.3907L50.0925 56.2695L49.7546 55.9345L49.304 56.1578L49.1914 56.0462L50.543 54.8181L50.6556 54.9298L50.543 55.0414Z" fill="white"/>
<path d="M52.1211 54.0364L55.3875 54.8179L53.8106 51.9152L53.5854 51.5803L53.2475 51.6919L53.1348 51.5803L53.8106 50.6871L53.9232 50.7988L53.8106 51.1337L54.0359 51.5803L56.0633 55.2645L55.9506 55.3761L51.6706 54.5946C51.2201 54.483 50.9948 54.483 50.8822 54.5946L50.7695 54.483L51.6706 53.3666L51.7832 53.4782L51.6706 53.8131L51.7832 53.9248L52.1211 54.0364Z" fill="white"/>
<path d="M56.9669 48.6776L56.629 48.4543L56.7416 48.231L57.8679 48.6776L57.7553 48.9008H57.3048C57.1921 49.0125 57.0795 49.1241 56.9669 49.4591L56.7416 50.1289L58.4311 50.7988L58.6564 50.1289C58.8816 49.6823 58.8816 49.3474 58.8816 49.2358L58.5437 48.7892L58.6564 48.5659L59.4448 49.0125L58.2058 51.9152L57.9806 51.8036L58.0932 51.357L57.6427 51.1337L54.8268 50.0173L54.3763 49.9056L54.151 50.2406H53.9258L54.3763 49.1241C54.3763 49.1241 54.4889 48.9008 54.6016 48.6776C54.7142 48.4543 54.8268 48.231 54.8268 48.0077C54.9395 47.7844 55.0521 47.5611 55.1647 47.2262L56.0658 47.5611L55.9532 47.7844H55.39L55.1647 48.0077V48.1193C54.9395 48.5659 54.9395 48.7892 54.9395 49.0125L55.1647 49.4591L56.629 50.0173L56.8542 49.3474C56.9669 49.0125 56.9669 48.7892 56.9669 48.6776Z" fill="white"/>
<path d="M55.6061 45.2169C55.7188 44.7704 55.8314 44.4354 55.944 44.3238C56.1693 44.1005 56.3946 44.1005 56.6198 44.1005C56.9577 44.1005 57.183 44.2121 57.2956 44.4354C57.5209 44.6587 57.5209 44.882 57.6335 45.1053L57.5209 45.7751L55.4935 45.4402L55.6061 45.2169ZM60.2241 44.3238L60.4493 43.4306H60.2241L59.9988 43.6539C59.8862 43.7656 59.6609 43.8772 59.323 43.9889L58.7599 44.2121C58.422 44.3238 58.1967 44.4354 58.0841 44.5471L57.7462 44.7703C57.6335 44.3238 57.5209 44.1005 57.4083 43.8772C57.183 43.6539 56.9577 43.5423 56.6198 43.4306C56.2819 43.319 56.0567 43.4306 55.8314 43.6539C55.6061 43.8772 55.4935 44.2121 55.3809 44.7703L55.043 46.5566H55.2682L55.4935 46.1101H55.944L58.8725 46.6683L59.323 46.8916V47.3381H59.5483L59.8862 45.5518H59.6609L59.5483 46.1101H59.0977L57.7462 45.8868L57.8588 45.3286L60.2241 44.3238Z" fill="white"/>
<path d="M55.9473 39.9695H56.961V40.1928C56.6231 40.1928 56.3978 40.4161 56.2852 40.5277C56.0599 40.751 56.0599 40.9743 56.0599 41.3092C56.0599 41.5325 56.1725 41.8674 56.2852 41.9791C56.5104 42.2023 56.6231 42.314 56.961 42.314C57.2989 42.314 57.6368 42.0907 57.9747 41.6441L58.3126 41.1976C58.6505 40.751 58.8757 40.4161 58.9884 40.3044L59.5515 40.0811C59.8894 40.0811 60.2273 40.3044 60.34 40.5277C60.5652 40.8626 60.6779 41.1976 60.6779 41.7558C60.6779 42.0907 60.5652 42.5373 60.4526 42.8722L59.5515 42.9838V42.7606C60.1147 42.6489 60.34 42.2023 60.4526 41.6441C60.4526 41.4208 60.34 41.1976 60.2273 40.9743L59.5515 40.751C59.2136 40.751 58.9884 40.9743 58.6505 41.4208L58.1999 42.0907C57.862 42.5373 57.6368 42.7606 57.5241 42.8722C57.2989 42.9838 57.1862 43.0955 56.8483 43.0955C56.5104 43.0955 56.1725 42.8722 55.9473 42.6489C55.722 42.314 55.6094 41.8674 55.6094 41.4208C55.722 40.8626 55.8346 40.4161 55.9473 39.9695Z" fill="white"/>
<path d="M56.0612 37.7368L56.1738 38.1834L56.6244 38.295H59.6655L60.116 38.1834L60.2286 37.7368H60.4539V39.5231H60.2286L60.116 39.0765L59.6655 38.9649H56.6244C56.3991 38.9649 56.1738 38.9649 56.1738 39.0765L56.0612 39.5231H55.8359V37.7368H56.0612Z" fill="white"/>
<path d="M59.6609 35.6156H56.0567V36.0621C56.0567 36.3971 56.0567 36.732 56.1693 36.8436C56.2819 36.9553 56.5072 37.0669 56.7324 37.1786V37.4018L55.7188 37.2902C55.7188 36.732 55.8314 36.1738 55.8314 35.6156V34.9457C55.8314 34.3875 55.8314 33.8293 55.7188 33.2711L56.7324 33.1594V33.3827C56.5072 33.3827 56.2819 33.4944 56.1693 33.7176C56.0567 33.8293 56.0567 34.1642 56.0567 34.4991V34.9457H59.6609C59.8862 34.9457 60.1114 34.9457 60.1114 34.8341C60.2241 34.7224 60.2241 34.6108 60.2241 34.2759H60.4493V36.2854H60.2241C60.2241 36.0621 60.2241 35.8388 60.1114 35.7272C59.9988 35.6156 59.8862 35.6156 59.6609 35.6156Z" fill="white"/>
<path d="M59.5483 30.9265H58.1967L56.5072 31.9313C56.0566 32.1546 55.944 32.3779 55.944 32.6012H55.7188V31.0382H55.944V31.2615L56.0567 31.4847L56.5072 31.2615L57.8588 30.3683L56.5072 29.5868L56.1693 29.3635L55.944 29.5868V29.6985H55.7188V28.582H55.944V28.6937L56.0567 29.0286C56.1693 29.1402 56.2819 29.2519 56.5072 29.3635L58.1967 30.3683H59.5483C59.7735 30.3683 59.9988 30.3683 59.9988 30.2567C60.1114 30.145 60.1114 30.0334 60.1114 29.8101H60.3367V31.8197H60.1114C60.1114 31.5964 60.1114 31.3731 59.9988 31.3731C59.8862 31.0382 59.7735 30.9265 59.5483 30.9265Z" fill="white"/>
<path d="M31.1674 60.8467C31.28 61.1816 31.28 61.5165 31.1674 61.8515C31.0548 62.1864 30.9421 62.5213 30.7169 62.633C30.4916 62.8563 30.2663 62.8563 30.0411 62.7446C29.8158 62.633 29.5905 62.5213 29.4779 62.1864C29.3653 61.8515 29.3653 61.5165 29.4779 61.1816C29.5905 60.735 29.7032 60.5118 29.9284 60.2885L30.6042 60.0652C30.8295 60.4001 31.0548 60.6234 31.1674 60.8467ZM28.6895 65.2008C29.2526 65.424 29.8158 65.3124 30.379 64.8658C30.9421 64.4193 31.28 63.861 31.5053 62.9679C31.7305 62.298 31.7305 61.6282 31.5053 61.1816C31.3927 60.6234 31.0548 60.2885 30.6042 60.1768C30.2663 60.0652 29.8158 60.1768 29.4779 60.4001C29.14 60.6234 28.9147 61.07 28.8021 61.5165C28.6895 61.9631 28.6895 62.298 28.8021 62.633C28.9147 62.9679 29.14 63.1912 29.4779 63.3028C29.7032 63.4145 30.0411 63.3028 30.2663 63.1912C30.4916 63.0795 30.7169 62.8563 30.9421 62.5213L30.8295 62.8563C30.7169 63.1912 30.6042 63.5261 30.379 63.9727C30.1537 64.3076 29.9284 64.5309 29.7032 64.7542C29.3653 64.9775 28.9147 65.0891 28.4642 64.9775V64.7542L28.3516 64.9775L28.6895 65.2008Z" fill="white"/>
<path d="M33.0834 62.4098C33.4213 62.5214 33.8718 62.6331 34.0971 62.8564C34.435 63.1913 34.6602 63.5262 34.6602 63.9728C34.6602 64.4194 34.3223 64.9776 33.9844 65.2009C32.9707 65.8707 31.957 65.8707 31.957 65.8707V65.6474C33.9844 65.2009 33.8718 64.3077 33.8718 64.3077C33.8718 63.8612 33.7592 63.5262 33.4213 63.1913C33.0834 62.968 33.0834 62.8564 32.7455 62.8564H32.6328L32.9707 60.8468H35.2234V61.405H33.196L33.0834 62.2982V62.4098Z" fill="white"/>
<path d="M38.9356 15.8548L41.5262 12.7288L41.6388 5.47205L35.8945 12.2823L38.9356 15.8548Z" fill="white"/>
<path d="M46.9336 18.9808L52.34 12.9521V7.37L46.9336 13.1754V18.9808Z" fill="white"/>
</svg>
