<svg width="70" height="70" viewBox="0 0 70 70" fill="none" xmlns="http://www.w3.org/2000/svg">
<g clip-path="url(#clip0_2521_55332)">
<path d="M12.082 34.9759C12.082 47.6198 22.3297 57.8674 34.9735 57.8674C47.6174 57.8674 57.865 47.6198 57.865 34.9759C57.865 22.3321 47.6174 12.0845 34.9735 12.0845C22.3806 12.0845 12.082 22.3831 12.082 34.9759ZM12.4389 34.9759C12.4389 22.536 22.5336 12.4414 34.9735 12.4414C47.4134 12.4414 57.5081 22.536 57.5081 34.9759C57.5081 47.4159 47.4134 57.5105 34.9735 57.5105C22.5846 57.5615 12.4389 47.4159 12.4389 34.9759Z" fill="#6DB328"/>
<path d="M10.6562 34.9759C10.6562 48.4355 21.5667 59.3459 35.0262 59.3459C48.4858 59.3459 59.3962 48.4355 59.3962 34.9759C59.3962 21.5164 48.4858 10.606 35.0262 10.606C21.5667 10.6569 10.6562 21.5674 10.6562 34.9759ZM11.319 34.9759C11.319 21.9242 21.9235 11.3197 34.9753 11.3197C48.027 11.3197 58.6315 21.9242 58.6315 34.9759C58.6315 48.0277 48.027 58.6322 34.9753 58.6322C21.9745 58.6322 11.319 48.0277 11.319 34.9759Z" fill="#6DB328"/>
<path d="M0 34.976C0 54.2986 15.7028 69.9505 34.9745 69.9505C54.2972 69.9505 69.949 54.2476 69.949 34.976C70 15.7043 54.2972 0.00146484 34.9745 0.00146484C15.7028 0.00146484 0 15.7043 0 34.976ZM1.01966 34.976C1.01966 16.2651 16.2637 1.02113 34.9745 1.02113C53.6854 1.02113 68.9293 16.2651 68.9293 34.976C68.9293 53.6868 53.6854 68.9308 34.9745 68.9308C16.2637 68.9818 1.01966 53.7378 1.01966 34.976Z" fill="#6DB328"/>
<path d="M50.727 31.1013L42.8246 26.5128C42.7226 26.4618 42.5697 26.4618 42.4167 26.5128L37.9812 29.1129C37.8792 29.1639 37.7773 29.3168 37.7773 29.4698V34.6701C37.7773 34.823 37.8282 34.925 37.9812 35.027L41.2441 36.9133V38.9527L34.9732 42.5725L28.7022 38.9527V31.7131L40.6323 24.8303C40.7343 24.7793 40.8363 24.6264 40.8363 24.4734V19.2731C40.8363 19.2222 40.8363 19.1202 40.7853 19.0692L40.7343 19.0182C40.6833 18.9672 40.6833 18.9672 40.6323 18.9163L36.2478 16.3671C36.1458 16.3161 35.9928 16.3161 35.8399 16.3671L19.2703 26.0029C19.1684 26.0539 19.0664 26.2069 19.0664 26.3598V44.3059C19.0664 44.4589 19.1174 44.5608 19.2703 44.6628L34.8202 53.6358C34.8712 53.6868 34.9732 53.6868 35.0242 53.6868C35.0751 53.6868 35.1771 53.6868 35.2281 53.6358L50.778 44.6628C50.88 44.6118 50.9819 44.4589 50.9819 44.3059V31.4581C50.9309 31.3052 50.88 31.2032 50.727 31.1013ZM38.593 34.4152V30.1836L45.3228 34.0583L41.652 36.1996L38.593 34.4152ZM41.652 39.6155L45.3228 41.7058L35.381 47.4669V43.2353L41.652 39.6155ZM34.6163 43.2353V47.4669L24.6746 41.7058L28.3454 39.6155L34.6163 43.2353ZM24.2667 41.043V29.5718L27.9375 31.6621V38.9017L24.2667 41.043ZM40.0715 24.2185L28.3454 30.9993L24.6746 28.909L40.0715 19.9869V24.2185ZM23.5019 46.1413L19.8821 44.051V27.0226L23.5019 29.1129V46.1413ZM20.29 26.3598L36.0948 17.2338L39.7146 19.3241L23.9098 28.4501L20.29 26.3598ZM24.2667 42.4195L34.5653 48.3846V52.5652L24.2667 46.6002V42.4195ZM45.7306 46.6002L35.432 52.5652V48.3846L45.7306 42.4195V46.6002ZM45.7306 41.043L42.0599 38.9527V36.9133L45.7306 34.772V41.043ZM46.0875 33.5994L38.9499 29.4698L42.6207 27.3285L49.7073 31.4581L46.0875 33.5994ZM50.1152 44.051L46.4954 46.1413V34.3132L50.1152 32.1719V44.051Z" fill="#6DB328"/>
<path d="M11.4689 54.2477L10.4492 53.6359V52.4123L11.4689 51.8514L12.5395 52.4123V53.6359L11.4689 54.2477Z" fill="#6DB328"/>
<path d="M58.3244 54.2477L57.3047 53.6359V52.4123L58.3244 51.8514L59.395 52.4123V53.6359L58.3244 54.2477Z" fill="#6DB328"/>
<path d="M20.7993 57.9694L19.1678 56.9498C19.1168 56.8988 19.0659 56.9498 19.0149 56.9498L18.811 57.2557C18.811 57.2557 18.76 57.3576 18.8619 57.4086L20.0345 58.1224C20.0855 58.1734 20.0855 58.1734 20.0855 58.2244C20.0855 58.2753 20.0855 58.2753 20.0345 58.3263C19.8816 58.5303 19.7286 58.6832 19.5757 58.8362C19.3718 58.9891 19.1678 59.0911 18.9639 59.193C18.709 59.295 18.4541 59.346 18.1992 59.346C17.9442 59.346 17.6383 59.346 17.3324 59.346C17.2305 59.346 17.2305 59.4989 17.2305 59.4989V59.9068C17.2305 59.9068 17.2305 60.0088 17.3324 60.0088C17.6893 60.0598 18.0462 60.0598 18.4031 60.0598C18.76 60.0088 19.0659 59.9578 19.3718 59.8048C19.6777 59.6519 19.9326 59.4989 20.1875 59.295C20.4424 59.0911 20.6463 58.8362 20.8503 58.5303C20.9522 58.4283 20.9522 58.3263 20.9522 58.2244C20.9522 58.1224 20.9013 58.0204 20.7993 57.9694Z" fill="#6DB328"/>
<path d="M22.0161 58.3216L19.4336 62.5391L20.0423 62.9118L22.6248 58.6944L22.0161 58.3216Z" fill="#6DB328"/>
<path d="M26.9203 60.5696L26.2065 60.2637L24.3711 64.8522L25.0849 65.1581L26.0026 62.8128L26.7163 63.1187L26.9203 62.6089L26.2065 62.354L26.9203 60.5696Z" fill="#6DB328"/>
<path d="M23.8097 61.2834L23.1469 61.0284L22.5861 62.405L21.8213 62.0991C21.7194 62.0481 21.6684 62.0991 21.6684 62.1501L21.5664 62.456C21.5664 62.456 21.5664 62.5579 21.6684 62.6089L24.5744 63.7815L24.7784 63.2717L23.2998 62.7109L23.8097 61.2834Z" fill="#6DB328"/>
<path d="M23.0437 59.9068L24.5732 60.5186C24.6242 60.5186 24.6752 60.5696 24.6752 60.6206C24.6752 60.6716 24.6752 60.7226 24.6752 60.7736L24.0124 62.456L24.6752 62.7109L25.3889 60.8755C25.4399 60.7226 25.4399 60.5696 25.4399 60.4677C25.3889 60.3657 25.287 60.2637 25.134 60.2127L23.1967 59.448C23.0947 59.397 23.0437 59.448 23.0437 59.499L22.9418 59.8049C22.9418 59.7539 22.8908 59.8559 23.0437 59.9068Z" fill="#6DB328"/>
<path d="M17.7918 56.1851L17.129 55.6243L16.7722 56.0321L17.4349 56.5929L17.129 57.0008L16.4663 56.389L16.1094 56.7969L16.7722 57.3577L16.3643 57.8165L16.9251 58.2754L18.7605 56.2361L18.1997 55.7262L17.7918 56.1851Z" fill="#6DB328"/>
<path d="M16.3146 58.3264C16.2636 58.1734 16.2126 57.9695 16.1106 57.8165C16.0087 57.6636 15.8557 57.4597 15.7028 57.3067C15.4988 57.1538 15.3459 57.0008 15.142 56.9498C14.938 56.8479 14.7851 56.7969 14.6321 56.7969C14.4792 56.7969 14.3262 56.7969 14.1733 56.8479C14.0203 56.8988 13.9184 57.0008 13.8164 57.1028C13.7144 57.2047 13.6125 57.3577 13.6125 57.5106C13.5615 57.6636 13.5615 57.8165 13.6125 57.9695C13.6634 58.1224 13.7144 58.3264 13.8164 58.4793C13.9184 58.6323 14.0713 58.8362 14.2752 58.9892C14.4792 59.1421 14.6321 59.2951 14.8361 59.346C15.04 59.448 15.1929 59.499 15.3459 59.499C15.4988 59.499 15.6518 59.499 15.8047 59.448C15.9577 59.397 16.0597 59.2951 16.1616 59.1931C16.2636 59.0911 16.3656 58.9382 16.3656 58.7852C16.3146 58.6323 16.3146 58.4793 16.3146 58.3264ZM15.091 58.8872C14.887 58.8872 14.7341 58.7852 14.5302 58.6323C14.3262 58.4793 14.2243 58.2754 14.1733 58.1224C14.1223 57.9185 14.1733 57.7656 14.2752 57.6636C14.3772 57.5106 14.5302 57.4597 14.7341 57.5106C14.938 57.5106 15.091 57.6126 15.2949 57.7656C15.4988 57.9185 15.6008 58.1224 15.6518 58.2754C15.7028 58.4793 15.6518 58.6323 15.5498 58.7342C15.3969 58.8362 15.2949 58.8872 15.091 58.8872Z" fill="#6DB328"/>
<path d="M16.5697 55.8282C16.7736 55.6752 17.0286 55.5223 17.0286 55.5223C17.0286 55.5223 17.0286 55.5223 17.0795 55.4713C17.0795 55.4713 17.0795 55.4713 17.1305 55.4203C17.1815 55.3693 17.2325 55.2674 17.2325 55.1654C17.2325 55.0634 17.1815 55.0124 17.1305 54.9105L15.703 53.6359C15.601 53.5849 15.55 53.5849 15.4991 53.6359L15.2951 53.8908C15.2951 53.8908 15.2441 53.9928 15.3461 54.0438L16.3658 54.9615C16.4168 55.0124 16.4168 55.0634 16.3658 55.1144C16.2128 55.2164 16.0599 55.3183 15.9069 55.3693C15.703 55.4203 15.55 55.4713 15.2951 55.4713C15.0912 55.4713 14.8363 55.4713 14.6323 55.3693C14.4284 55.3183 14.2245 55.2164 14.0205 55.1654C14.0205 55.1654 13.9186 55.1144 13.8676 55.2674L13.7656 55.5733C13.7656 55.5733 13.7656 55.6752 13.8676 55.7262C14.3774 55.9811 14.8363 56.0831 15.2951 56.0831C15.754 56.1851 16.1618 56.0831 16.5697 55.8282Z" fill="#6DB328"/>
<path d="M38.7966 63.1187C39.0005 63.0168 39.1535 62.9148 39.3064 62.8128C39.4594 62.7108 39.6123 62.6089 39.7143 62.4559C39.8163 62.354 39.9182 62.201 39.9692 62.0991C40.0712 62.201 40.1732 62.303 40.3261 62.354C40.479 62.405 40.632 62.5069 40.785 62.5579C40.9379 62.6089 41.1418 62.6599 41.3458 62.6599C41.5497 62.6599 41.7026 62.7109 41.9066 62.7109L42.0085 62.201C41.8046 62.201 41.6007 62.201 41.3967 62.15C41.1928 62.0991 40.9889 62.0481 40.8359 61.9971C40.683 61.9461 40.53 61.8441 40.3771 61.7422C40.2751 61.6402 40.1732 61.5382 40.1732 61.3853L40.1222 61.1304L39.3574 61.2833L39.4084 61.4873C39.4084 61.6402 39.4084 61.7422 39.3064 61.8951C39.2555 62.0481 39.1025 62.15 39.0005 62.303C38.8476 62.405 38.6946 62.5069 38.4907 62.6089C38.2868 62.7109 38.0828 62.8128 37.8789 62.8638L38.1848 63.3226C38.4397 63.2717 38.6437 63.2207 38.7966 63.1187Z" fill="#6DB328"/>
<path d="M37.8283 64.1384L39.8167 63.7815L39.8677 64.1384L38.4911 64.3933L38.5931 64.9031L41.1422 64.4443C41.1932 64.4443 41.2442 64.4443 41.2442 64.4443C41.2442 64.4443 41.2952 64.4953 41.2952 64.5463L41.3462 64.7502L38.695 65.209L38.848 66.0758C38.848 66.2287 38.95 66.3307 39.0519 66.3817C39.1539 66.4326 39.2559 66.4836 39.4088 66.4836L42.4168 65.9738L42.3149 65.464L39.7147 65.9228C39.6637 65.9228 39.6127 65.9228 39.6127 65.9228C39.6127 65.9228 39.5618 65.8718 39.5618 65.8208L39.5108 65.6169L42.1619 65.1581L42.009 64.1384C42.009 64.0364 41.958 63.9854 41.907 63.8835C41.856 63.8325 41.754 63.7815 41.6521 63.8325L40.6834 63.9854L40.6324 63.6286L42.6208 63.2717L42.5188 62.7618L37.7773 63.5776L37.8283 64.1384Z" fill="#6DB328"/>
<path d="M51.9492 59.7029L49.604 61.2324C49.502 61.2834 49.502 61.3344 49.553 61.3853L49.757 61.6912C49.757 61.6912 49.8079 61.7422 49.9099 61.6912L51.8983 60.4167C51.9492 60.3657 52.0002 60.3657 52.0512 60.3657C52.1022 60.3657 52.1022 60.4167 52.1532 60.4676L52.765 61.3853L53.3768 60.9775L52.663 59.8559C52.561 59.7029 52.4591 59.6519 52.3571 59.6009C52.2551 59.55 52.1022 59.6009 51.9492 59.7029Z" fill="#6DB328"/>
<path d="M49.9108 60.5187C50.0637 60.4167 50.2167 60.3147 50.3186 60.1618C50.4206 60.0088 50.4716 59.9069 50.5226 59.7539C50.5736 59.601 50.5736 59.448 50.5226 59.3461C50.5226 59.1931 50.4716 59.0911 50.3696 58.9382C50.2167 58.6833 49.9618 58.5303 49.7068 58.4793L50.1657 58.1734L49.8598 57.7146L48.8911 58.3264L48.6362 57.8676L48.0244 58.2244L48.2793 58.6833L47.4126 59.2441C47.3106 59.2951 47.3106 59.3461 47.3616 59.397L47.5655 59.7029C47.5655 59.7029 47.6165 59.7539 47.7185 59.7029L48.0754 59.448C48.0244 59.601 48.0244 59.7539 48.0754 59.8559C48.0754 60.0088 48.1264 60.1108 48.2283 60.2638C48.3303 60.4167 48.4323 60.5187 48.5342 60.5697C48.6362 60.6716 48.7891 60.7226 48.9421 60.7226C49.095 60.7226 49.248 60.7226 49.4009 60.7226C49.6049 60.6716 49.7578 60.6206 49.9108 60.5187ZM48.7382 59.652C48.7382 59.601 48.7382 59.499 48.7382 59.448C48.7382 59.397 48.7891 59.2951 48.8401 59.2441C48.8911 59.1931 48.9421 59.1421 48.9931 59.0911C49.095 59.0402 49.146 58.9892 49.248 58.9892C49.35 58.9892 49.4009 58.9892 49.4519 58.9892C49.5029 58.9892 49.6049 59.0402 49.6559 59.0911C49.7068 59.1421 49.7578 59.1931 49.8088 59.2441C49.9108 59.397 49.9108 59.499 49.9108 59.652C49.9108 59.8049 49.8088 59.9069 49.6559 60.0088C49.5029 60.1108 49.35 60.1108 49.197 60.1108C49.0441 60.0598 48.9421 59.9579 48.8401 59.8559C48.7891 59.8049 48.7891 59.7539 48.7382 59.652Z" fill="#6DB328"/>
<path d="M50.5727 56.6439L49.9609 57.0008L51.5924 59.55L52.2042 59.1931L51.6434 58.2244L52.2552 57.8165L52.0003 57.3577L51.3375 57.7656L50.5727 56.6439Z" fill="#6DB328"/>
<path d="M52.0534 56.389L53.9908 54.6555C54.0418 54.6045 54.0928 54.6045 54.1437 54.6045C54.1947 54.6045 54.2457 54.6045 54.2457 54.6555L55.4693 56.0321L56.0301 55.5222L54.6536 53.9928C54.5516 53.8908 54.4496 53.7888 54.2967 53.7888C54.1947 53.7888 54.0418 53.8398 53.9398 53.9418L51.6965 55.9811C51.5946 56.0321 51.6456 56.134 51.6456 56.134L51.8495 56.389C51.9005 56.4399 52.0024 56.4909 52.0534 56.389Z" fill="#6DB328"/>
<path d="M55.6236 56.8478L54.5529 55.6752L53.9921 56.185L55.0628 57.3576L54.6549 57.7145L53.5843 56.5419L53.0234 57.0517L54.0941 58.2243L53.3803 58.8361C53.2784 58.8871 53.3293 58.9891 53.3293 58.9891L53.5333 59.244C53.5333 59.244 53.5843 59.295 53.6862 59.244L57.1531 56.134L56.7962 55.7262L55.6236 56.8478Z" fill="#6DB328"/>
<path d="M28.7544 63.9345C28.9584 63.9855 29.1113 63.9855 29.3153 63.9345C29.4682 63.8835 29.6212 63.8325 29.7741 63.7815C29.8761 63.6796 29.978 63.6286 30.08 63.4756C30.182 63.3737 30.233 63.2207 30.233 63.0678C30.2839 62.7619 30.233 62.507 30.029 62.252L30.5389 62.354L30.6408 61.8442L29.5192 61.6402L29.6212 61.1304L28.9584 61.0284L28.8564 61.5383L27.8367 61.3343C27.7348 61.3343 27.6838 61.3853 27.6838 61.3853L27.6328 61.7422C27.6328 61.7422 27.6328 61.8442 27.7348 61.8442L28.1426 61.9461C28.0407 62.0481 27.9387 62.0991 27.8367 62.252C27.7348 62.354 27.6838 62.507 27.6838 62.6599C27.6328 62.8129 27.6838 62.9658 27.6838 63.1188C27.7348 63.2717 27.7858 63.3737 27.8877 63.5266C27.9897 63.6286 28.0917 63.7306 28.2446 63.8325C28.3976 63.8325 28.6015 63.8835 28.7544 63.9345ZM28.4995 62.507C28.5505 62.456 28.6015 62.405 28.6525 62.354C28.7035 62.303 28.7544 62.303 28.8564 62.252C28.9074 62.252 29.0094 62.252 29.1113 62.252C29.2133 62.252 29.2643 62.303 29.3662 62.354C29.4172 62.405 29.4682 62.456 29.5192 62.507C29.5702 62.5579 29.5702 62.6599 29.5702 62.7109C29.5702 62.7619 29.5702 62.8638 29.5702 62.9148C29.5192 63.0678 29.4682 63.1697 29.3662 63.2717C29.2643 63.3737 29.1113 63.3737 28.9074 63.3737C28.7035 63.3227 28.6015 63.2717 28.4995 63.1188C28.3976 62.9658 28.3976 62.8638 28.4485 62.7109C28.4485 62.6599 28.4485 62.6089 28.4995 62.507Z" fill="#6DB328"/>
<path d="M31.9152 61.5383L31.2014 61.3854L30.6406 64.3934L31.3544 64.4954L31.5583 63.4247L32.3231 63.5777L32.425 63.0168L31.6603 62.9149L31.9152 61.5383Z" fill="#6DB328"/>
<path d="M30.8437 64.7502L28.0907 64.2404C27.9887 64.2404 27.9377 64.2913 27.9377 64.2913C27.9377 64.3423 27.9377 64.3423 27.9377 64.3423L27.8867 64.5972C27.8867 64.5972 27.8867 64.6992 27.9887 64.6992L30.3339 65.1071C30.3849 65.1071 30.4359 65.1581 30.4869 65.1581C30.4869 65.209 30.5378 65.209 30.4869 65.311L30.2829 66.4326L30.9967 66.5856L31.2516 65.311C31.3026 65.1581 31.2516 65.0051 31.2006 64.9031C31.0987 64.8012 30.9967 64.7502 30.8437 64.7502Z" fill="#6DB328"/>
<path d="M36.9638 61.6403H36.25V66.5856H36.9638V61.6403Z" fill="#6DB328"/>
<path d="M35.0269 61.9972H33.0895C32.9875 61.9972 32.9875 62.0482 32.9875 62.0992V62.456C32.9875 62.456 32.9875 62.558 33.1405 62.558H34.517C34.568 62.558 34.619 62.558 34.619 62.609C34.619 62.609 34.619 62.66 34.619 62.711C34.619 62.9149 34.568 63.1698 34.466 63.3737C34.3641 63.5777 34.2621 63.7816 34.1092 63.9855C33.9562 64.1895 33.7523 64.3424 33.5483 64.5464C33.3444 64.6993 33.0895 64.8523 32.7836 64.9542C32.6816 65.0052 32.7836 65.1072 32.7836 65.1072L32.9875 65.4641C32.9875 65.4641 33.0385 65.566 33.1405 65.4641C33.4974 65.3111 33.8033 65.1072 34.0582 64.9542C34.3641 64.7503 34.568 64.4954 34.7719 64.2405C34.9759 63.9855 35.0778 63.6796 35.1798 63.3737C35.2818 63.0678 35.3328 62.7619 35.3328 62.4051C35.3328 62.2521 35.3328 62.1501 35.2308 62.0992C35.2818 61.9972 35.1798 61.9972 35.0269 61.9972Z" fill="#6DB328"/>
<path d="M46.5969 61.1304L46.1381 61.3344L45.4753 59.6009L44.8125 59.8049L46.5969 64.4443L47.2087 64.1894L46.291 61.7932L46.8008 61.6403L47.7185 63.9855L48.3303 63.7816L46.5969 59.1421L45.9341 59.397L46.5969 61.1304Z" fill="#6DB328"/>
<path d="M44.151 63.2717C44.1 63.2717 44.1 63.2207 44.049 63.1698L43.3862 61.4363L44.5079 60.9775C44.6098 60.9265 44.6098 60.8755 44.6098 60.8245L44.5079 60.5186C44.5079 60.4677 44.4569 60.4167 44.3549 60.4677L42.5195 61.1814L43.4372 63.5266C43.5392 63.7306 43.6412 63.8835 43.7431 63.9345C43.8451 63.9855 43.998 63.9855 44.151 63.9345L45.7825 63.3227L45.5785 62.8129L44.3039 63.3227C44.202 63.2717 44.202 63.2717 44.151 63.2717Z" fill="#6DB328"/>
<path d="M7.74791 48.0787C7.79889 48.0787 7.79889 48.0787 7.84988 48.1297V48.1807C7.90086 48.2826 7.95184 48.6395 8.15578 49.0474C8.46168 49.6082 8.81856 49.8121 9.63429 49.3533C10.501 48.8944 10.552 48.5375 10.2461 47.9767C10.1441 47.7728 9.99117 47.6198 9.99117 47.6198L9.22643 48.0277L9.37938 48.4866C9.37938 48.5375 9.37937 48.5375 9.32839 48.5885L8.97151 48.7925C8.92053 48.7925 8.92053 48.7925 8.86954 48.7415L8.35971 47.7728C8.35971 47.7218 8.35971 47.7218 8.41069 47.6708L9.63429 47.008C9.83822 46.9061 9.94019 46.8551 10.1441 47.059C10.2971 47.212 10.501 47.5179 10.654 47.7728C11.2148 48.8434 11.0108 49.4043 9.88921 49.9651C8.81856 50.5259 8.15578 50.3729 7.64595 49.4552C7.34005 48.8944 7.28906 48.4866 7.28906 48.3846C7.28906 48.3336 7.28906 48.2826 7.34005 48.2826H7.39103L7.74791 48.0787Z" fill="#6DB328"/>
<path d="M8.20831 45.3255L9.32994 44.8667C9.38092 44.8667 9.38092 44.8667 9.43191 44.9177L9.63584 45.4275C9.63584 45.4785 9.63584 45.4785 9.58486 45.5295L8.51421 45.9883L7.13766 47.8237C7.13766 47.8237 7.13766 47.8237 7.08668 47.8237C7.03569 47.8237 6.98471 47.8237 6.98471 47.7727L6.72979 47.1609C6.72979 47.11 6.72979 47.11 6.78078 47.059L7.80044 45.8354L6.21996 45.6824C6.16898 45.6824 6.118 45.6824 6.118 45.6314L5.91406 45.0706C5.91406 45.0196 5.91406 45.0196 5.96505 44.9687C5.96505 44.9687 5.96505 44.9687 6.01603 44.9687L8.20831 45.3255Z" fill="#6DB328"/>
<path d="M8.3096 41.6038L8.87042 43.5412C8.87042 43.5922 8.87042 43.6432 8.81943 43.6432L5.76044 44.5099C5.70946 44.5099 5.65847 44.5099 5.65847 44.4589L5.09766 42.5215C5.09766 42.4706 5.09766 42.4706 5.14864 42.4196L5.55651 42.3176C5.60749 42.3176 5.65847 42.3176 5.65847 42.3686L6.06634 43.7451L6.83109 43.5412L6.4742 42.2156C6.4742 42.1647 6.4742 42.1647 6.52519 42.1137L6.93305 42.0117C6.98404 42.0117 6.98404 42.0117 7.03502 42.0627L7.3919 43.3883L8.25862 43.1333L7.85075 41.7568C7.85075 41.7058 7.85075 41.7058 7.90174 41.6548L8.3096 41.5529C8.25862 41.5529 8.3096 41.5529 8.3096 41.6038Z" fill="#6DB328"/>
<path d="M8.00162 39.7684C8.20556 40.992 7.59376 41.3489 6.57409 41.5018C5.55443 41.7057 4.84066 41.5528 4.63673 40.3292C4.4328 39.1056 5.0446 38.7487 6.06426 38.5448C7.08393 38.4428 7.79769 38.5448 8.00162 39.7684ZM5.14656 40.2782C5.24853 40.941 5.65639 40.992 6.47213 40.839C7.28786 40.6861 7.64474 40.5331 7.49179 39.8703C7.38983 39.2076 6.98196 39.1566 6.16623 39.3095C5.40148 39.4625 4.99361 39.5644 5.14656 40.2782Z" fill="#6DB328"/>
<path d="M7.4936 35.1289L7.54458 36.1995C7.54458 36.2505 7.4936 36.2505 7.4936 36.3015L4.84247 37.3211V37.4741L7.54458 37.2702C7.59557 37.2702 7.59557 37.3211 7.59557 37.3211L7.64655 37.882C7.64655 37.9329 7.64655 37.9329 7.59557 37.9329L4.4346 38.0859C4.38362 38.0859 4.38362 38.0349 4.38362 38.0349L4.33264 36.9133C4.33264 36.8623 4.33264 36.8623 4.38362 36.8113L7.13672 35.7916V35.7407L4.33264 35.9446C4.28165 35.9446 4.23067 35.8936 4.23067 35.8426L4.17969 35.3328C4.17969 35.2818 4.17969 35.2308 4.23067 35.2308L7.39163 35.0779C7.44262 35.0269 7.4936 35.0779 7.4936 35.1289Z" fill="#6DB328"/>
<path d="M4.94412 31.866C4.9951 31.866 4.9951 31.917 4.9951 31.917V31.968C4.94412 32.07 4.84215 32.4269 4.79117 32.8347C4.74019 33.4975 4.94412 33.8034 5.9128 33.8544C6.88148 33.9054 7.08542 33.6505 7.1364 32.9877C7.1364 32.7837 7.1364 32.5798 7.1364 32.5798L6.26969 32.5288L6.16772 32.9877C6.16772 33.0387 6.11674 33.0387 6.11674 33.0387H5.70887C5.65789 33.0387 5.65789 32.9877 5.65789 32.9877L5.70887 31.917C5.70887 31.866 5.75985 31.866 5.75985 31.866L7.18738 31.968C7.4423 31.968 7.54427 32.019 7.59525 32.2739C7.64623 32.4778 7.64623 32.8347 7.64623 33.1406C7.59525 34.3642 7.08542 34.7211 5.86182 34.6191C4.63822 34.5682 4.17937 34.1093 4.23035 32.9877C4.28134 32.3759 4.43429 31.968 4.48527 31.866C4.48527 31.8151 4.53625 31.8151 4.58724 31.8151H4.63822L4.94412 31.866Z" fill="#6DB328"/>
<path d="M5.45544 28.5011C5.50642 28.5011 5.50642 28.5521 5.50642 28.6031V28.6541C5.45544 28.7561 5.30249 29.062 5.20052 29.5208C5.09855 30.1836 5.2515 30.4895 6.22018 30.6424C7.18887 30.7954 7.44378 30.5914 7.54575 29.9287C7.59673 29.7247 7.59673 29.5208 7.59673 29.5208L6.73002 29.3679L6.57707 29.8267C6.57707 29.8777 6.52608 29.8777 6.52608 29.8777L6.11822 29.7757C6.06723 29.7757 6.06723 29.7247 6.06723 29.7247L6.27117 28.6541C6.27117 28.6031 6.32215 28.6031 6.37313 28.6031L7.74968 28.858C8.0046 28.909 8.10656 28.96 8.10656 29.1639C8.10656 29.3679 8.10656 29.7247 8.05558 30.0306C7.85165 31.2542 7.34182 31.5091 6.11822 31.3052C4.84364 31.1013 4.43577 30.5914 4.6397 29.5208C4.74167 28.909 4.9456 28.5011 4.99659 28.4502C5.04757 28.3992 5.04757 28.3992 5.09855 28.3992H5.14954L5.45544 28.5011Z" fill="#6DB328"/>
<path d="M8.46255 27.7873L8.3096 28.2972C8.3096 28.3481 8.25862 28.3481 8.20763 28.3481L5.14864 27.5324C5.09766 27.5324 5.09766 27.4814 5.09766 27.4814L5.14864 26.9206C5.14864 26.8696 5.19962 26.8696 5.19962 26.8696L8.3096 27.6854C8.46255 27.6854 8.46255 27.7363 8.46255 27.7873Z" fill="#6DB328"/>
<path d="M9.48309 24.9323C9.17719 25.748 8.66736 26.0539 7.90261 25.748L5.91426 24.9832C5.86328 24.9832 5.86328 24.9323 5.86328 24.8813L6.01623 24.3205C6.01623 24.2695 6.06721 24.2695 6.1182 24.2695L8.15753 25.0852C8.51441 25.2382 8.82031 25.1872 8.97326 24.7283C9.12621 24.2695 9.02424 24.0655 8.61638 23.9126L6.62803 23.1478C6.57705 23.1478 6.57705 23.0969 6.57705 23.0459L6.73 22.4851C6.73 22.4341 6.78098 22.4341 6.83196 22.4341L8.82031 23.2498C9.63604 23.5557 9.78899 24.0655 9.48309 24.9323Z" fill="#6DB328"/>
<path d="M11.4189 20.7516L10.9091 21.7203C10.9091 21.7713 10.8581 21.7713 10.8071 21.7713L8.05401 21.2615L8.00303 21.3634L10.3992 22.587C10.4502 22.587 10.4502 22.638 10.4502 22.689L10.1953 23.1478C10.1953 23.1988 10.1443 23.1988 10.0933 23.1988L7.28926 21.6693C7.23828 21.6693 7.23828 21.6183 7.23828 21.5674L7.74811 20.5987C7.74811 20.5477 7.7991 20.5477 7.85008 20.5477L10.7561 21.1085L10.8071 21.0575L8.30893 19.732C8.25795 19.681 8.25795 19.681 8.30893 19.63L8.56385 19.2221C8.61483 19.1711 8.61483 19.1202 8.66581 19.1711L11.4699 20.6497C11.4189 20.7006 11.4699 20.7006 11.4189 20.7516Z" fill="#6DB328"/>
<path d="M12.1832 19.681L11.8773 20.1398C11.8773 20.1908 11.8263 20.1908 11.7753 20.1398L9.12417 18.4064C9.07319 18.4064 9.07319 18.3554 9.12417 18.3044L9.37909 17.7946C9.37909 17.7436 9.43007 17.7436 9.48106 17.7946L12.1832 19.579C12.1832 19.63 12.1832 19.63 12.1832 19.681Z" fill="#6DB328"/>
<path d="M13.561 17.6416C13.612 17.6926 13.612 17.6926 13.561 17.7436L12.9492 18.5593C12.9492 18.6103 12.8982 18.6103 12.8472 18.5593L9.78824 17.3867C9.73725 17.3867 9.73725 17.3357 9.78824 17.2847L10.1451 16.8259C10.1961 16.7749 10.1961 16.7749 10.2471 16.7749L12.8472 17.8965L12.9492 17.7436L11.2158 15.5513C11.1648 15.5003 11.1648 15.4493 11.2158 15.4493L11.5727 14.9905C11.5727 14.9905 11.6236 14.9905 11.6746 14.9905L13.561 17.6416Z" fill="#6DB328"/>
<path d="M15.8032 15.2965L14.4266 16.775C14.3757 16.826 14.3757 16.826 14.3247 16.775L12.0304 14.5827C11.9794 14.5317 11.9794 14.5317 12.0304 14.4807L13.407 13.0022C13.458 12.9512 13.458 12.9512 13.5089 13.0022L13.7639 13.2571C13.8148 13.3081 13.8148 13.3081 13.7639 13.3591L12.7952 14.3788L13.356 14.9396L14.2737 13.9709C14.3247 13.9199 14.3247 13.9199 14.3757 13.9709L14.6816 14.2768C14.7325 14.3278 14.7325 14.3278 14.6816 14.3788L13.7639 15.3475L14.4266 15.9593L15.3953 14.9396C15.4463 14.8886 15.4463 14.8886 15.4973 14.9396L15.8032 15.1945C15.8032 15.1945 15.8032 15.2455 15.8032 15.2965Z" fill="#6DB328"/>
<path d="M18.0976 13.257L17.6897 13.6139C17.6388 13.6649 17.6388 13.6139 17.5878 13.6139L17.027 13.0531C16.7721 12.7982 16.5171 12.9511 16.2622 13.1551L15.8034 13.512L16.5681 14.4297C16.6191 14.4806 16.5681 14.4806 16.5681 14.5316L16.1603 14.8885C16.1093 14.8885 16.1093 14.8885 16.0583 14.8885L13.968 12.4923C13.917 12.4413 13.968 12.4413 13.968 12.3903L15.0386 11.4726C15.5485 11.0648 15.9563 10.9628 16.4152 11.4726C16.7211 11.8295 16.7721 12.1354 16.4152 12.5433L16.5171 12.6452C16.874 12.3393 17.1289 12.2884 17.5878 12.7472L17.9956 13.2061C18.1486 13.2061 18.1486 13.2061 18.0976 13.257ZM15.3955 11.8805L14.8857 12.3393L15.5994 13.1551L16.0073 12.7472C16.2622 12.4923 16.3642 12.2884 16.1093 11.9825C15.8544 11.7276 15.6504 11.6766 15.3955 11.8805Z" fill="#6DB328"/>
<path d="M19.4741 12.3394C19.0153 12.6453 18.5564 12.7983 18.5055 12.7983C18.4545 12.7983 18.4035 12.7983 18.4035 12.7473L18.2505 12.4414C18.2505 12.3904 18.2505 12.3394 18.2505 12.3394H18.3015C18.4035 12.2884 18.8114 12.1865 19.1173 11.9825C19.3722 11.7786 19.5761 11.5747 19.3722 11.2688C19.1682 10.9629 18.9133 11.1158 18.5564 11.2688C18.1486 11.4727 17.5878 11.6766 17.1799 11.0139C16.721 10.3511 17.0269 9.89223 17.5878 9.48436C17.9956 9.22945 18.4035 9.0765 18.5055 9.02551C18.5564 9.02551 18.6074 9.02551 18.6074 9.0765L18.7604 9.38239C18.7604 9.43338 18.7604 9.43338 18.7604 9.48436H18.7094C18.5055 9.58633 18.1996 9.63731 17.9446 9.84124C17.6897 9.99419 17.4858 10.1981 17.6897 10.504C17.8937 10.7589 18.1486 10.606 18.5055 10.504L18.5564 10.453C19.0153 10.2491 19.4741 10.0962 19.933 10.7589C20.3408 11.4727 19.984 11.9825 19.4741 12.3394Z" fill="#6DB328"/>
<path d="M21.36 11.0649L20.9012 11.3708C20.8502 11.3708 20.8502 11.3708 20.7992 11.3708L19.2188 8.61766C19.2188 8.56668 19.2188 8.56668 19.2188 8.5157L19.6776 8.15881C19.7286 8.15881 19.7286 8.15881 19.7796 8.2098L21.411 11.0139C21.411 11.0139 21.411 11.0649 21.36 11.0649Z" fill="#6DB328"/>
<path d="M22.7878 7.24111L21.9721 7.64898L23.1447 10.0452C23.1447 10.0962 23.1447 10.0962 23.0937 10.1472L22.5839 10.4021C22.5329 10.4021 22.5329 10.4021 22.4819 10.3511L21.3093 7.9039L20.4426 8.31176C20.3916 8.31176 20.3916 8.31176 20.3407 8.26078L20.1367 7.9039C20.1367 7.85291 20.1367 7.85291 20.1877 7.80193L22.4819 6.6803C22.5329 6.6803 22.5329 6.6803 22.5839 6.73128L22.7878 7.08816C22.8388 7.19013 22.8388 7.24111 22.7878 7.24111Z" fill="#6DB328"/>
<path d="M25.2868 7.90387L25.6947 9.0255C25.6947 9.07648 25.6947 9.07648 25.6437 9.12746L25.1339 9.3314C25.0829 9.3314 25.0829 9.3314 25.0319 9.28041L24.675 8.15878L22.8906 6.73125C22.8906 6.73125 22.8906 6.73125 22.8906 6.68027C22.8906 6.62928 22.8906 6.5783 22.9416 6.5783L23.5534 6.37437C23.6044 6.37437 23.6044 6.37437 23.6554 6.42535L24.828 7.496L25.0319 5.91552C25.0319 5.86454 25.0319 5.81355 25.0829 5.81355L25.6437 5.60962C25.6947 5.60962 25.6947 5.60962 25.7457 5.6606C25.7457 5.6606 25.7457 5.6606 25.7457 5.71159L25.2868 7.90387Z" fill="#6DB328"/>
<path d="M29.3126 8.15876C28.14 8.41368 27.7321 7.80188 27.5282 6.78221C27.3242 5.76255 27.4262 5.04878 28.6498 4.79387C29.8734 4.53895 30.2303 5.15075 30.4852 6.17042C30.6381 7.19008 30.4852 7.90385 29.3126 8.15876ZM28.7008 5.3037C28.038 5.45665 28.038 5.86452 28.1909 6.62926C28.3439 7.39401 28.4968 7.80188 29.2106 7.64893C29.8734 7.49598 29.8734 7.08811 29.7204 6.32336C29.5675 5.50763 29.3636 5.15075 28.7008 5.3037Z" fill="#6DB328"/>
<path d="M32.8835 4.79385L31.5579 4.9468L31.6599 5.91548L32.8325 5.81351C32.8835 5.81351 32.8835 5.81351 32.8835 5.8645L32.9345 6.27236C32.9345 6.32335 32.9345 6.32334 32.8835 6.32334L31.7109 6.42531L31.8128 7.59793C31.8128 7.64891 31.7619 7.64891 31.7619 7.69989L31.201 7.75088C31.1501 7.75088 31.1501 7.75088 31.0991 7.69989L30.7422 4.53893C30.7422 4.48795 30.7422 4.48795 30.7932 4.43697L32.7305 4.23303C32.7815 4.23303 32.7815 4.23303 32.8325 4.28402L32.8835 4.69188C32.9345 4.74286 32.8835 4.79385 32.8835 4.79385Z" fill="#6DB328"/>
<path d="M35.6363 7.54698C35.0755 7.54698 34.6167 7.39403 34.5657 7.34305C34.5147 7.34305 34.5147 7.29206 34.5147 7.24108L34.5657 6.8842C34.5657 6.83321 34.6167 6.83321 34.6167 6.83321H34.6677C34.7696 6.83321 35.1775 6.98616 35.5344 6.98616C35.8403 6.98616 36.1462 6.8842 36.1462 6.5783C36.1462 6.22142 35.8403 6.17043 35.4834 6.11945C35.0755 6.01748 34.4637 5.86453 34.5147 5.09978C34.5147 4.28405 35.0755 4.08012 35.7383 4.1311C36.2481 4.1311 36.656 4.28405 36.707 4.28405C36.758 4.28405 36.809 4.33504 36.809 4.38602L36.758 4.7429C36.758 4.79388 36.707 4.79388 36.707 4.79388H36.656C36.4011 4.7429 36.1462 4.64094 35.8403 4.64094C35.5344 4.64094 35.2795 4.69192 35.2285 5.0488C35.2285 5.40568 35.5344 5.40568 35.8913 5.50765H35.9422C36.4011 5.60962 36.9109 5.71158 36.8599 6.52732C36.8599 7.34305 36.2991 7.54698 35.6363 7.54698Z" fill="#6DB328"/>
<path d="M39.6632 7.649C39.6632 7.69998 39.6632 7.69998 39.5612 7.69998C39.4083 7.75096 39.1024 7.80195 38.5926 7.75096C37.5219 7.649 37.216 7.08818 37.369 5.91557C37.5219 4.74295 37.9298 4.2841 39.0004 4.43705C39.5103 4.48803 39.8162 4.64098 39.9691 4.69197C40.0201 4.74295 40.0201 4.74295 40.0201 4.79393V4.84492L39.8671 5.09983C39.8671 5.15082 39.8162 5.15082 39.8162 5.15082C39.8162 5.15082 39.8162 5.15082 39.7652 5.15082C39.6632 5.09983 39.3573 4.99787 39.0004 4.94688C38.2867 4.84492 38.1337 5.15082 38.0317 5.96655C37.9298 6.78228 38.0317 7.13916 38.7455 7.19015C39.0514 7.24113 39.4083 7.19015 39.5103 7.13916C39.5103 7.13916 39.5103 7.13916 39.5612 7.13916C39.6122 7.13916 39.6122 7.13916 39.6122 7.19015L39.6632 7.649C39.6632 7.59801 39.6632 7.59801 39.6632 7.649Z" fill="#6DB328"/>
<path d="M40.6313 8.05679L40.0705 7.95482C40.0195 7.95482 40.0195 7.90384 40.0195 7.85286L40.6313 4.74288C40.6313 4.69189 40.6823 4.69189 40.6823 4.69189L41.2941 4.74288C41.3451 4.74288 41.3451 4.79386 41.3451 4.79386L40.7333 7.95482C40.6823 8.05679 40.6313 8.05679 40.6313 8.05679Z" fill="#6DB328"/>
<path d="M43.336 8.77056L41.3986 8.20975C41.3477 8.20975 41.3477 8.15876 41.3477 8.10778L42.2144 5.04879C42.2144 4.9978 42.2654 4.9978 42.3163 4.9978L44.2537 5.55862C44.3047 5.55862 44.3047 5.6096 44.3047 5.66059L44.2027 6.06845C44.2027 6.11943 44.1517 6.11943 44.1008 6.11943L42.7242 5.76255L42.5203 6.5273L43.8458 6.88418C43.8968 6.88418 43.8968 6.93517 43.8968 6.98615L43.7949 7.39402C43.7949 7.445 43.7439 7.445 43.6929 7.445L42.3673 7.08812L42.1124 7.95483L43.489 8.31171C43.5399 8.31171 43.5399 8.3627 43.5399 8.41368L43.438 8.82155C43.387 8.71958 43.387 8.77056 43.336 8.77056Z" fill="#6DB328"/>
<path d="M46.3931 9.94324L45.3734 9.53538C45.3225 9.53538 45.3225 9.48439 45.3225 9.43341L45.5264 6.62933L45.4244 6.57835L44.4557 9.07653C44.4557 9.12751 44.4048 9.12751 44.3538 9.12751L43.844 8.92358C43.793 8.92358 43.793 8.87259 43.793 8.82161L44.9656 5.86458C44.9656 5.8136 45.0166 5.8136 45.0675 5.8136L46.0872 6.22146C46.1382 6.22146 46.1382 6.27245 46.1382 6.32343L45.9343 9.28046H45.9852L47.0049 6.62933C47.0049 6.57835 47.0559 6.57835 47.1069 6.57835L47.5657 6.78228C47.6167 6.78228 47.6677 6.83326 47.6167 6.88425L46.4441 9.84128C46.4951 9.94324 46.4441 9.94324 46.3931 9.94324Z" fill="#6DB328"/>
<path d="M49.1478 11.1158C49.1478 11.1667 49.0968 11.1667 49.0459 11.1667C48.8929 11.1667 48.587 11.0648 48.1282 10.8608C47.2105 10.351 47.1085 9.73921 47.6693 8.71955C48.2301 7.6489 48.7909 7.39398 49.7086 7.90382C50.1675 8.15873 50.3714 8.36267 50.4734 8.51561C50.5244 8.5666 50.5244 8.61758 50.5244 8.61758V8.66856L50.3204 8.92348C50.3204 8.97446 50.2695 8.97446 50.2185 8.92348C50.2185 8.92348 50.2185 8.92348 50.1675 8.92348C50.0655 8.82151 49.8106 8.61758 49.5557 8.46463C48.9439 8.15873 48.638 8.36266 48.2811 9.07643C47.9242 9.7902 47.8732 10.1471 48.485 10.504C48.74 10.6569 49.0968 10.7079 49.1988 10.7589C49.1988 10.7589 49.1988 10.7589 49.2498 10.7589C49.3008 10.7589 49.3008 10.8099 49.3008 10.8608L49.1478 11.1158Z" fill="#6DB328"/>
<path d="M51.084 12.6453L49.4015 11.5236C49.3505 11.5236 49.3505 11.4726 49.4015 11.4217L51.135 8.77054C51.135 8.71955 51.1859 8.71955 51.2369 8.77054L52.9194 9.89217C52.9703 9.89217 52.9703 9.94315 52.9194 9.99414L52.7154 10.351C52.7154 10.402 52.6644 10.402 52.6135 10.351L51.4408 9.58627L50.982 10.2491L52.1036 11.0138C52.1546 11.0138 52.1546 11.0648 52.1036 11.1158L51.8997 11.4726C51.8997 11.5236 51.8487 11.5236 51.7977 11.4726L50.7271 10.7079L50.2172 11.4217L51.3899 12.1864C51.4408 12.1864 51.4408 12.2374 51.3899 12.2884L51.1859 12.6453C51.1859 12.6962 51.1349 12.6962 51.084 12.6453Z" fill="#6DB328"/>
<path d="M54.4497 15.4494C54.4497 15.4494 54.3987 15.4494 54.3477 15.4494L53.9399 15.0415C53.9399 15.0415 53.8889 14.9905 53.9399 14.9395L54.4497 13.9199L53.634 13.2061L52.6653 13.8179C52.6143 13.8179 52.6143 13.8179 52.5633 13.8179L52.1555 13.461C52.1555 13.461 52.1045 13.41 52.1555 13.359L55.0105 11.6256C55.0615 11.6256 55.0615 11.6256 55.1125 11.6256L55.8772 12.3394C55.8772 12.3394 55.9282 12.3904 55.8772 12.4413L54.4497 15.4494C54.5007 15.4494 54.5007 15.3984 54.4497 15.4494ZM55.2145 12.3904L55.0615 12.2884L54.0928 12.9002L54.7046 13.41L55.2145 12.3904Z" fill="#6DB328"/>
<path d="M56.437 17.7436L55.7232 16.9278C55.7232 16.8769 55.7232 16.8769 55.7232 16.8259L57.1507 14.3787L57.0488 14.2767L55.0604 16.1121C55.0094 16.1631 55.0094 16.1121 54.9584 16.1121L54.6016 15.7042C54.6016 15.6533 54.6016 15.6533 54.6016 15.6023L56.9978 13.512C57.0488 13.512 57.0488 13.512 57.0997 13.512L57.8645 14.3277C57.9155 14.3787 57.9155 14.3787 57.8645 14.4297L56.335 16.9788L56.386 17.0298L58.4763 15.1434C58.5273 15.0924 58.5783 15.1434 58.5783 15.1434L58.8842 15.5003C58.9351 15.5513 58.9351 15.6023 58.8842 15.6023L56.5389 17.6926C56.4879 17.7436 56.4879 17.7436 56.437 17.7436Z" fill="#6DB328"/>
<path d="M57.6085 19.3241L56.8438 18.2534C56.8438 18.2025 56.8438 18.2025 56.8438 18.1515L59.4439 16.3671C59.4949 16.3671 59.4949 16.3671 59.5459 16.3671L60.3106 17.4377C60.9224 18.3044 60.7185 18.8652 59.7498 19.528C58.7811 20.1908 58.2203 20.1908 57.6085 19.3241ZM59.8518 17.6416L59.4949 17.1318L57.6085 18.4574L57.9654 18.9672C58.2713 19.4261 58.5772 19.477 59.3419 18.9672C60.1067 18.4064 60.1577 18.1515 59.8518 17.6416Z" fill="#6DB328"/>
<path d="M62.6063 22.5361L62.1984 21.7203L59.8022 22.9439C59.7512 22.9439 59.7512 22.9439 59.7002 22.8929L59.4453 22.3831C59.4453 22.3321 59.4453 22.3321 59.4963 22.2811L61.8925 21.0575L61.4846 20.2418C61.4846 20.1908 61.4846 20.1908 61.5356 20.1398L61.8925 19.9359C61.9435 19.9359 61.9435 19.9359 61.9945 19.9869L63.1671 22.2811C63.1671 22.3321 63.1671 22.3321 63.1161 22.3831L62.7592 22.587C62.6573 22.587 62.6063 22.587 62.6063 22.5361Z" fill="#6DB328"/>
<path d="M61.0263 26.0539L60.3125 24.1676C60.3125 24.1166 60.3125 24.0656 60.3635 24.0656L63.3205 22.944C63.3715 22.944 63.4225 22.944 63.4225 22.995L64.1362 24.8813C64.1362 24.9323 64.1362 24.9323 64.0853 24.9833L63.7284 25.1362C63.6774 25.1362 63.6264 25.1362 63.6264 25.0853L63.1166 23.7597L62.3518 24.0656L62.8617 25.3402C62.8617 25.3912 62.8617 25.3912 62.8107 25.4421L62.4028 25.5951C62.3518 25.5951 62.3518 25.5951 62.3008 25.5441L61.791 24.2695L60.9753 24.5754L61.4851 25.901C61.4851 25.952 61.4851 25.952 61.4341 26.003L61.0772 26.1559C61.0772 26.1049 61.0263 26.1049 61.0263 26.0539Z" fill="#6DB328"/>
<path d="M62.0457 28.858C61.9947 28.858 61.9947 28.858 61.9437 28.807C61.8417 28.6541 61.6888 28.3992 61.5358 27.8893C61.2299 26.8697 61.6378 26.3598 62.7594 26.0539C63.932 25.748 64.4929 25.952 64.7478 26.9716C64.9007 27.4815 64.8497 27.7874 64.8497 27.9403C64.8497 27.9913 64.7988 28.0423 64.7988 28.0423H64.7478L64.3909 28.0933C64.3399 28.0933 64.3399 28.0933 64.3399 28.0423C64.3399 28.0423 64.3399 28.0423 64.3399 27.9913C64.3399 27.8383 64.3399 27.5324 64.2379 27.2265C64.034 26.5638 63.6771 26.5128 62.9124 26.7167C62.1476 26.9206 61.8417 27.1756 62.0457 27.8383C62.1476 28.1442 62.3006 28.3992 62.3516 28.5521C62.3516 28.5521 62.3516 28.5521 62.3516 28.6031C62.3516 28.6541 62.3516 28.6541 62.3006 28.7051L62.0457 28.858C62.0457 28.807 62.0457 28.807 62.0457 28.858Z" fill="#6DB328"/>
<path d="M62.3534 31.917L62.2514 31.3562C62.2514 31.3052 62.2514 31.3052 62.3024 31.2542L63.628 31.0503L63.424 29.6738L62.0985 29.8777C62.0475 29.8777 62.0475 29.8777 61.9965 29.8267L61.8945 29.2659C61.8945 29.2149 61.8945 29.2149 61.9455 29.2149L65.0555 28.7051C65.1065 28.7051 65.1065 28.7051 65.1065 28.7561L65.2594 29.3169C65.2594 29.3679 65.2594 29.3679 65.2084 29.3679L63.8829 29.5718L64.0868 30.9483L65.3104 30.7444C65.3614 30.7444 65.3614 30.7444 65.3614 30.7954L65.5143 31.3562C65.5143 31.4072 65.5143 31.4072 65.4634 31.4072L62.2514 31.917C62.3534 31.968 62.3534 31.917 62.3534 31.917Z" fill="#6DB328"/>
<path d="M62.5043 35.3328L62.4533 34.2622C62.4533 34.2112 62.5043 34.2112 62.5043 34.1602L65.1554 33.1915V33.0386L62.4533 33.1915C62.4023 33.1915 62.4023 33.1405 62.4023 33.1405V32.5797C62.4023 32.5287 62.4023 32.5287 62.4533 32.5287L65.6143 32.4268C65.6653 32.4268 65.6653 32.4777 65.6653 32.4777L65.7163 33.5994C65.7163 33.6504 65.7163 33.6504 65.6653 33.7013L62.8612 34.67V34.721L65.6653 34.5681C65.7163 34.5681 65.7672 34.619 65.7672 34.67V35.1799C65.7672 35.2308 65.7672 35.2818 65.6653 35.2818L62.5043 35.3838C62.5553 35.3838 62.5043 35.3328 62.5043 35.3328Z" fill="#6DB328"/>
<path d="M62.2994 37.2702C62.4013 36.0466 63.1151 35.8427 64.1348 35.9446C65.1544 36.0466 65.8172 36.3525 65.7153 37.5761C65.6133 38.7997 64.8995 39.0036 63.8799 38.9017C62.8602 38.7997 62.1974 38.4938 62.2994 37.2702ZM65.2054 37.5251C65.2564 36.8114 64.8995 36.7094 64.0838 36.6584C63.2681 36.6074 62.8602 36.6584 62.8092 37.3212C62.7582 38.035 63.1151 38.1369 63.9308 38.1879C64.7466 38.2899 65.1544 38.2389 65.2054 37.5251Z" fill="#6DB328"/>
<path d="M61.7891 41.1959L62.1459 39.2585C62.1459 39.2075 62.1969 39.2075 62.2479 39.2075L65.3579 39.8193C65.4089 39.8193 65.4089 39.8703 65.4089 39.8703L65.3579 40.4311C65.3579 40.4821 65.3069 40.4821 65.3069 40.4821L62.6048 39.9723L62.3499 41.2978C62.3499 41.3488 62.2989 41.3488 62.2479 41.3488L61.84 41.2468C61.7891 41.2978 61.7891 41.2469 61.7891 41.1959Z" fill="#6DB328"/>
<path d="M61.2793 42.7255C61.6362 41.5529 62.35 41.5019 63.3187 41.8078C64.3383 42.1137 64.8991 42.5215 64.5423 43.6942C64.1854 44.8668 63.4716 44.9178 62.4519 44.6119C61.5342 44.3569 60.9734 43.8981 61.2793 42.7255ZM64.0834 43.5412C64.2873 42.8784 63.9305 42.6745 63.1657 42.4706C62.401 42.2666 61.9931 42.2156 61.7892 42.8784C61.5852 43.5412 61.9421 43.7451 62.7069 43.9491C63.4716 44.204 63.8795 44.204 64.0834 43.5412Z" fill="#6DB328"/>
<path d="M62.3025 47.9767C62.2515 47.9767 62.2515 47.9257 62.2515 47.8747V47.8237C62.3025 47.7217 62.5574 47.4668 62.7103 47.059C62.9652 46.4472 62.8633 46.0903 61.9966 45.7334C61.1298 45.3765 60.8239 45.5295 60.569 46.0903C60.4671 46.2942 60.4161 46.4981 60.4161 46.4981L61.2318 46.855L61.4867 46.4472C61.4867 46.3962 61.5377 46.3962 61.5887 46.3962L61.9456 46.5491C61.9966 46.5491 61.9966 46.6001 61.9966 46.6511L61.5887 47.6708C61.5887 47.7217 61.5377 47.7217 61.4867 47.7217L60.2121 47.1609C60.0082 47.059 59.9062 47.008 59.9062 46.7531C59.9062 46.5491 60.0592 46.1922 60.1612 45.9373C60.62 44.8157 61.2318 44.6627 62.3534 45.1216C63.4751 45.5804 63.781 46.1922 63.3221 47.2119C63.0672 47.7727 62.7613 48.1296 62.7103 48.1806C62.6593 48.2316 62.6593 48.2316 62.6084 48.2316H62.5574L62.3025 47.9767Z" fill="#6DB328"/>
<path d="M59.9056 49.3023L58.8859 48.7414C58.8349 48.7414 58.8349 48.6905 58.8859 48.6395L59.1408 48.1806C59.1408 48.1296 59.1918 48.1296 59.2428 48.1296L60.2624 48.6905L62.5567 48.6395H62.6077C62.6587 48.6395 62.6587 48.6905 62.6587 48.7414L62.3528 49.3023C62.3018 49.3532 62.3018 49.3532 62.2508 49.3532L60.6703 49.3023L61.537 50.6278C61.588 50.6788 61.588 50.6788 61.537 50.7298L61.2311 51.2396C61.2311 51.2906 61.1801 51.2906 61.1292 51.2396C61.1292 51.2396 61.1292 51.2396 61.0782 51.2396L59.9056 49.3023Z" fill="#6DB328"/>
</g>
<defs>
<clipPath id="clip0_2521_55332">
<rect width="70" height="70" fill="white" transform="translate(0 0.00146484)"/>
</clipPath>
</defs>
</svg>
