<svg width="70" height="70" viewBox="0 0 70 70" fill="none" xmlns="http://www.w3.org/2000/svg">
<path d="M32.2886 15.4496L32.1495 10.8446L34.9328 15.31L36.1852 15.1705L35.9069 8.75146H34.6544L34.9328 13.3564L32.1495 8.89101L30.7578 9.03055L31.1753 15.4496H32.2886Z" fill="#009992"/>
<path d="M67.4938 52.1496L62.3447 50.7542L62.0664 52.0101L67.2155 53.4055L66.798 54.9405L67.9113 55.2196L69.0247 50.7542L67.9113 50.4751L67.4938 52.1496Z" fill="#009992"/>
<path d="M46.7609 16.566L44.2559 15.5892L46.2042 10.7051L44.9517 10.147L42.5859 16.1474L46.3434 17.6824L46.7609 16.566Z" fill="#009992"/>
<path d="M28.5273 29.9622L28.8057 36.6603C30.4757 37.7766 32.1456 39.4512 33.1198 41.4048C32.9806 36.3812 31.8673 30.939 28.5273 29.9622Z" fill="#009992"/>
<path d="M38.4102 14.1937L40.776 14.6124L40.9152 16.0078L42.3069 16.2869L41.0544 9.58878L39.5236 9.30969L36.1836 15.3101L37.5752 15.5892L38.4102 14.1937ZM40.0802 10.7051L40.4977 13.3565L38.8277 13.0774L40.0802 10.7051Z" fill="#009992"/>
<path d="M25.8858 16.1473C26.4425 16.4264 27.1383 16.4264 27.8341 16.2868C28.5299 16.1473 29.0866 15.7287 29.3649 15.31C29.9216 14.6123 30.0608 13.4959 29.7824 12.24C29.5041 10.9842 28.8083 10.1469 27.9733 9.8678C27.4166 9.58871 26.7208 9.58871 26.1641 9.72826C25.4683 9.8678 24.9117 10.2864 24.4942 10.7051C23.9375 11.4028 23.7983 12.5191 24.0767 13.775C24.355 15.0309 24.9117 15.7287 25.8858 16.1473ZM25.3292 11.5423C25.6075 11.1237 25.8858 10.9842 26.3033 10.8446C26.7208 10.7051 27.1383 10.8446 27.4166 10.9842C27.8341 11.2632 28.2516 11.8214 28.3908 12.5191C28.5299 13.3564 28.5299 13.9146 28.2516 14.3332C28.1125 14.7518 27.695 14.8914 27.2775 15.0309C26.86 15.1705 26.4425 15.0309 26.025 14.8914C25.6075 14.6123 25.19 14.0541 25.0508 13.3564C25.0508 12.6587 25.0508 11.961 25.3292 11.5423Z" fill="#009992"/>
<path d="M17.5328 14.7519L20.1769 19.3569L21.2902 18.6591L18.6461 14.0542L20.1769 13.2169L19.6203 12.2401L15.4453 14.6124L16.002 15.5892L17.5328 14.7519Z" fill="#009992"/>
<path d="M21.6436 11.3054L20.4922 11.7997L23.0119 17.7007L24.1633 17.2064L21.6436 11.3054Z" fill="#009992"/>
<path d="M59.563 29.6831L66.2429 27.869L65.4079 26.7526L60.5372 28.2876L64.0163 24.5199L63.1813 23.264L58.8672 28.7063L59.563 29.6831Z" fill="#009992"/>
<path d="M62.6245 37.7767L65.1295 37.2185L65.4078 38.3349C65.547 38.7535 65.547 39.0326 65.2687 39.3117C65.1295 39.4512 64.8512 39.5908 64.4337 39.7303C64.1553 39.8698 63.877 39.8698 63.7378 39.8698C63.5987 39.8698 63.4595 40.0094 63.1812 40.1489L63.4595 41.5444H63.5987C63.5987 41.4048 63.7378 41.2653 63.877 41.2653C64.0162 41.2653 64.2945 41.1257 64.8512 40.9862C65.4078 40.8467 65.8253 40.7071 65.9645 40.5676C66.1037 40.428 66.2428 40.1489 66.2428 39.8698C66.382 40.1489 66.6603 40.2885 66.9386 40.428C67.217 40.5676 67.6345 40.5676 67.9128 40.428C68.3303 40.2885 68.6086 40.1489 68.887 39.8698C69.3044 39.4512 69.3044 38.893 69.1653 38.1953L68.4695 35.2649L62.207 36.7999L62.6245 37.7767ZM67.7736 36.5208L68.052 37.9162C68.052 38.1953 68.052 38.4744 67.9128 38.7535C67.7736 38.893 67.6345 39.0326 67.3561 39.0326C67.0778 39.1721 66.7995 39.0326 66.6603 38.893C66.5211 38.7535 66.382 38.4744 66.2428 38.1953L65.9645 36.9394L67.7736 36.5208Z" fill="#009992"/>
<path d="M67.7721 45.5912V46.8471C68.3288 46.8471 68.7463 46.7075 69.1638 46.4284C69.7204 46.0098 69.9988 45.3121 69.9988 44.4748C69.9988 43.6376 69.8596 42.9398 69.3029 42.5212C69.0246 42.2421 68.6071 42.1026 68.0505 42.1026C67.7721 42.1026 67.4938 42.1026 67.2155 42.2421C66.9371 42.3817 66.798 42.5212 66.6588 42.6607C66.5196 42.8003 66.3805 43.0794 66.3805 43.2189C66.3805 43.3585 66.2413 43.6376 66.1022 43.9166L65.963 44.6144C65.8238 45.033 65.8238 45.3121 65.6847 45.4516C65.5455 45.7307 65.4063 45.7307 65.128 45.7307C64.8497 45.7307 64.5713 45.5912 64.4322 45.3121C64.293 45.033 64.293 44.7539 64.293 44.4748C64.293 43.9166 64.4322 43.6376 64.7105 43.3585C64.8497 43.2189 65.128 43.0794 65.4063 43.0794V41.8235C64.8497 41.8235 64.4322 41.963 64.0147 42.2421C63.458 42.6607 63.1797 43.3585 63.1797 44.4748C63.1797 45.033 63.3188 45.4516 63.458 45.8703C63.7363 46.568 64.4322 46.9866 65.128 46.9866C65.6847 46.9866 66.1022 46.8471 66.3805 46.568C66.6588 46.2889 66.798 46.0098 66.9371 45.4516L67.3546 43.9166C67.3546 43.7771 67.4938 43.6376 67.4938 43.498C67.633 43.3585 67.7721 43.2189 68.0505 43.2189C68.3288 43.2189 68.468 43.3585 68.6071 43.6376C68.7463 43.7771 68.7463 44.0562 68.7463 44.3353C68.7463 44.8935 68.6071 45.1725 68.3288 45.4516C68.1896 45.4516 67.9113 45.5912 67.7721 45.5912Z" fill="#009992"/>
<path d="M62.2066 35.823L63.3199 35.4043L62.2066 32.6135L63.7374 31.9157L64.7116 34.288L65.8249 33.8694L64.8507 31.4971L66.1032 30.9389L67.0774 33.5903L68.1907 33.1716L66.6599 29.2644L60.6758 31.7762L62.2066 35.823Z" fill="#009992"/>
<path d="M49.6822 19.4963C50.378 19.915 50.9347 20.1941 51.4913 20.0545C52.048 20.0545 52.6046 19.6359 53.1613 18.9382L55.5271 15.7287L54.4138 14.8914L51.9088 18.38C51.6305 18.6591 51.3522 18.9382 51.0738 18.9382C50.7955 18.9382 50.5172 18.9382 50.0997 18.6591C49.8213 18.5195 49.6822 18.2405 49.6822 17.9614C49.6822 17.6823 49.6822 17.2636 49.9605 16.9846L52.3263 13.6355L51.4913 12.6587L48.9863 16.1473C48.8472 16.4264 48.708 16.7055 48.5689 16.9846C48.4297 17.2636 48.4297 17.5427 48.4297 17.8218C48.4297 18.2405 48.5689 18.5195 48.8472 18.9382C49.1255 19.0777 49.2647 19.3568 49.6822 19.4963Z" fill="#009992"/>
<path d="M53.4405 22.1477L56.6413 18.9381L55.2496 23.9617L56.2238 24.9385L60.677 20.194L59.8421 19.3568L56.7804 22.5663L58.0329 17.6823L57.0588 16.7054L52.6055 21.3104L53.4405 22.1477Z" fill="#009992"/>
<path d="M61.0957 54.801L60.5391 55.9174L62.7657 57.0337L65.549 60.5223L66.2448 59.2664L64.1574 56.8942H67.219L67.9148 55.4987L63.3224 55.7778L61.0957 54.801Z" fill="#009992"/>
<path d="M61.9804 21.8397L56.9219 25.7739L57.6895 26.7663L62.7481 22.8321L61.9804 21.8397Z" fill="#009992"/>
<path d="M63.1519 47.5673L62.957 48.8079L69.2805 49.8067L69.4754 48.5661L63.1519 47.5673Z" fill="#009992"/>
<path d="M30.6162 53.9637C30.3379 53.9637 30.1987 53.9637 30.0596 54.1033C29.9204 54.2428 29.7812 54.3824 29.7812 54.5219C29.7812 54.6615 29.9204 54.801 30.0596 54.9405C30.1987 55.0801 30.3379 55.0801 30.6162 55.0801C30.8946 55.0801 31.0337 55.0801 31.1729 54.9405C31.3121 54.801 31.4512 54.6615 31.4512 54.5219C31.4512 54.3824 31.3121 54.2428 31.1729 54.1033C31.0337 53.9637 30.8946 53.9637 30.6162 53.9637Z" fill="#009992"/>
<path d="M37.0191 55.4987V54.3823L35.4883 55.4987H37.0191Z" fill="#009992"/>
<path d="M5.00939 58.8477V58.7082L9.18434 55.7778L8.76684 54.5219L3.61774 55.4987L8.21018 53.5451L7.79269 52.4287L1.80859 54.9405L2.50442 56.615L7.51436 55.7778L3.47857 58.7082L4.1744 60.5223L10.1585 58.0105L9.60183 56.8941L5.00939 58.8477Z" fill="#009992"/>
<path d="M42.8623 55.3593C42.584 55.3593 42.4448 55.3593 42.3057 55.4988C42.1665 55.6383 42.0273 55.7779 42.0273 55.9174C42.0273 56.057 42.1665 56.1965 42.3057 56.3361C42.4448 56.4756 42.7232 56.4756 42.8623 56.4756C43.1407 56.4756 43.2798 56.4756 43.419 56.3361C43.5582 56.1965 43.6973 56.057 43.6973 55.9174C43.6973 55.7779 43.5582 55.6383 43.419 55.4988C43.2798 55.3593 43.1407 55.3593 42.8623 55.3593Z" fill="#009992"/>
<path d="M4.31205 52.5683C5.56454 52.2892 6.39953 51.731 6.81702 50.8938C7.09535 50.3356 7.23452 49.6379 7.09535 49.0797C6.95618 48.382 6.67786 47.8238 6.26036 47.4052C5.56454 46.5679 4.59038 46.4284 3.3379 46.5679C2.08541 46.847 1.25042 47.4052 0.832925 48.2424C0.554595 48.8006 0.41543 49.4983 0.554595 50.0565C0.69376 50.7542 0.97209 51.3124 1.38959 51.731C2.08541 52.5683 3.05957 52.7078 4.31205 52.5683ZM1.66792 49.917C1.52875 49.4983 1.66792 49.0797 1.94625 48.8006C2.22458 48.382 2.78123 48.1029 3.61623 47.9633C4.45122 47.8238 5.00788 47.9633 5.42537 48.2424C5.7037 48.5215 5.98203 48.8006 6.1212 49.2192C6.26036 49.6379 6.1212 50.0565 5.84286 50.3356C5.56454 50.7542 5.00788 51.0333 4.17289 51.1728C3.3379 51.3124 2.78124 51.1728 2.36374 50.8938C1.94625 50.7542 1.66792 50.3356 1.66792 49.917Z" fill="#009992"/>
<path d="M4.59295 34.0089C5.84543 34.5671 6.81959 34.5671 7.65458 34.0089C8.21124 33.7298 8.62873 33.1717 8.90706 32.6135C9.18539 31.9158 9.18539 31.3576 9.04623 30.7994C8.7679 29.8226 8.07207 29.1249 6.95875 28.5667C5.70627 28.0085 4.73211 28.0085 3.89712 28.5667C3.34046 28.8458 2.92297 29.404 2.64464 29.9621C2.36631 30.6599 2.36631 31.218 2.50547 31.7762C2.64464 32.753 3.34046 33.4507 4.59295 34.0089ZM3.61879 30.3808C3.89712 29.9621 4.17545 29.6831 4.45378 29.5435C5.01044 29.2644 5.5671 29.404 6.40209 29.6831C7.09792 29.9621 7.65458 30.3808 7.79374 30.939C7.93291 31.3576 7.93291 31.7762 7.79374 32.0553C7.65458 32.4739 7.23708 32.753 6.95875 32.8926C6.40209 33.0321 5.84543 33.0321 5.14961 32.753C4.45378 32.4739 3.89712 32.0553 3.75796 31.4971C3.47963 31.218 3.47963 30.7994 3.61879 30.3808Z" fill="#009992"/>
<path d="M15.7228 22.7059L15.3053 21.45L17.1144 19.915L18.2277 20.7523L19.3411 19.915L13.4961 16.2869L12.3828 17.1241L14.7486 23.5432L15.7228 22.7059ZM13.9136 17.8218L16.1403 19.3568L14.8878 20.3336L13.9136 17.8218Z" fill="#009992"/>
<path d="M11.9675 26.8921L8.48836 23.9617L13.6375 24.9385L14.4725 23.8222L9.46251 19.7754L8.62752 20.7522L12.1066 23.5431L7.09671 22.7058L6.26172 23.8222L11.2717 27.8689L11.9675 26.8921Z" fill="#009992"/>
<path d="M34.9286 17.5427C20.4555 17.5427 8.76562 29.404 8.76562 43.777C8.76562 49.6378 10.7139 55.0801 14.0539 59.5455H55.9426C59.4217 54.9405 61.2308 49.4983 61.2308 43.777C61.0917 29.2644 49.2626 17.5427 34.9286 17.5427ZM26.7179 57.1732H24.9088V54.9405H23.5171V54.1033C24.0738 54.1033 24.4913 53.9637 24.7696 53.9637C25.0479 53.8242 25.1871 53.6846 25.3263 53.4055H26.7179V57.1732ZM32.702 56.7546C32.1453 57.1732 31.4495 57.3128 30.6145 57.3128C29.9187 57.3128 29.362 57.1732 28.9445 57.0337C28.5271 56.8941 28.2487 56.6151 28.1096 56.1964H29.7795C29.7795 56.336 29.9187 56.336 30.0579 56.4755C30.197 56.4755 30.3362 56.6151 30.4754 56.6151C30.7537 56.6151 31.032 56.4755 31.1712 56.336C31.3104 56.1964 31.4495 55.9173 31.4495 55.6382C31.3104 55.7778 31.032 55.7778 30.8929 55.9173C30.6145 55.9173 30.3362 56.0569 30.0579 56.0569C29.362 56.0569 28.8054 55.9173 28.5271 55.6382C28.1096 55.3592 27.9704 55.0801 27.9704 54.6614C27.9704 54.2428 28.2487 53.8242 28.6662 53.6846C29.0837 53.4055 29.7795 53.266 30.6145 53.266C31.5887 53.266 32.2845 53.4055 32.702 53.8242C33.1195 54.1033 33.3978 54.6614 33.3978 55.3592C33.537 55.9173 33.2587 56.336 32.702 56.7546ZM39.5211 56.336H38.8253V57.1732H37.0161V56.336H34.0937V55.3592L37.0161 53.266H38.8253V55.4987H39.5211V56.336ZM44.8094 56.8941C44.3919 57.1732 43.696 57.3128 42.861 57.3128C41.8869 57.3128 41.1911 57.1732 40.7736 56.7546C40.3561 56.4755 40.0777 55.9173 40.0777 55.2196C40.0777 54.5219 40.3561 54.1033 40.7736 53.6846C41.3302 53.266 42.0261 53.1264 42.861 53.1264C43.5569 53.1264 44.1135 53.266 44.531 53.4055C44.9485 53.5451 45.2269 53.8242 45.366 54.2428H43.696C43.696 54.1033 43.5569 54.1033 43.4177 53.9637C43.2785 53.9637 43.1394 53.8242 43.0002 53.8242C42.7219 53.8242 42.4436 53.9637 42.3044 54.1033C42.1652 54.2428 42.0261 54.5219 42.0261 54.801C42.1652 54.6614 42.4436 54.6614 42.5827 54.5219C42.861 54.5219 43.1394 54.3823 43.4177 54.3823C44.1135 54.3823 44.6702 54.5219 44.9485 54.801C45.366 55.0801 45.5052 55.3592 45.5052 55.7778C45.5052 56.336 45.2269 56.7546 44.8094 56.8941ZM53.0201 51.8706H48.9843V37.9162C47.871 37.9162 46.4793 38.3348 45.0877 38.893V51.731H40.9127V41.8234C38.1294 44.4747 36.5986 47.8238 36.5986 51.731H33.2587C33.2587 47.8238 31.7278 44.4747 28.8054 41.8234V51.731H24.6304V38.893C23.2388 38.3348 21.9863 38.0557 20.7338 37.9162V51.8706H16.698V33.4507C19.6205 33.3112 22.2646 33.7298 24.6304 34.4276V34.288L24.4913 24.2408C29.5012 24.2408 34.0937 27.0317 34.9286 32.0553C35.7636 27.0317 40.3561 24.2408 45.366 24.2408L45.2269 34.288V34.4276C47.5927 33.7298 50.0976 33.3112 53.1593 33.4507V51.8706H53.0201Z" fill="#009992"/>
<path d="M36.6016 41.4048C37.5757 39.4512 39.1065 37.9162 40.9157 36.6603L41.194 29.9622C37.854 30.939 36.7407 36.3812 36.6016 41.4048Z" fill="#009992"/>
<path d="M6.40159 44.3351L4.31412 44.1956L3.61829 43.6374L6.54076 41.8234V40.0093L2.64414 42.6606L0.139165 40.1488V41.8234L2.64414 44.1956H0V45.4515L6.40159 45.591V44.3351Z" fill="#009992"/>
<path d="M6.95872 38.3348L4.59292 37.9162L4.87125 36.5207C5.01041 35.823 4.73208 35.2648 4.31459 34.8462C4.03626 34.5671 3.61876 34.4276 3.20127 34.288C2.50544 34.1485 2.08795 34.288 1.67045 34.5671C1.25296 34.8462 0.974629 35.2648 0.835464 35.823L0.417969 38.6139L6.81956 39.5907L6.95872 38.3348ZM3.61876 37.7766L1.67045 37.4975L1.80962 36.5207C1.80962 36.1021 1.94878 35.823 2.08795 35.6835C2.22711 35.5439 2.50544 35.4044 2.78377 35.5439C3.0621 35.5439 3.20127 35.6835 3.34043 35.823C3.61876 35.9625 3.61876 36.3812 3.61876 36.6603V37.7766Z" fill="#009992"/>
</svg>
