<svg width="70" height="70" viewBox="0 0 70 70" fill="none" xmlns="http://www.w3.org/2000/svg">
<g clip-path="url(#clip0_2521_55337)">
<path d="M1.19299 39.7167L6.11034 38.8626L6.29113 39.9658L1.37377 40.8199L1.55456 41.9231L0.867575 42.0299L0.289062 38.7203L0.976046 38.6135L1.19299 39.7167Z" fill="#3B6741"/>
<path d="M2.89256 33.2043C3.94112 33.2043 5.06198 33.3822 5.06198 34.3431C5.06198 35.3039 3.94112 35.4819 2.89256 35.4819C1.84401 35.4819 0.686983 35.2683 0.686983 34.3431C0.686983 33.4178 1.84401 33.2043 2.89256 33.2043ZM2.92872 32.1011C1.30165 32.1011 0 32.7416 0 34.3787C0 36.0157 1.30165 36.6562 2.92872 36.6562C4.55578 36.6562 5.85744 36.0157 5.85744 34.3787C5.85744 32.7416 4.55578 32.1011 2.92872 32.1011Z" fill="#3B6741"/>
<path d="M6.72592 26.941L2.64017 28.4001C2.2786 28.5424 1.95319 28.6136 1.95319 28.6136C1.95319 28.6136 2.2786 28.6492 2.60402 28.7204L6.18356 29.5033L5.96662 30.4286L0.398438 29.2542L0.61538 28.2221L4.44802 26.8342C4.80959 26.6919 5.09885 26.6563 5.09885 26.6563V26.6207C5.09885 26.6207 4.80959 26.5851 4.52034 26.514L1.15773 25.8022L1.37468 24.877L6.94286 26.0869L6.72592 26.941Z" fill="#3B6741"/>
<path d="M8.64043 22.1367C7.95345 23.5958 6.57948 24.094 4.84394 23.3467C3.18072 22.5994 2.67452 21.1759 3.32535 19.7524C3.6146 19.1118 3.94002 18.7559 4.22927 18.5068L4.66316 19.0762C4.48237 19.2186 4.22927 19.4677 4.01233 19.9303C3.57845 20.8912 3.94002 21.7097 5.31399 22.3503C6.61564 22.9196 7.55572 22.6705 7.91729 21.9232C8.06192 21.6385 8.06192 21.425 8.06192 21.3182L6.36254 20.5709L6.00097 21.3538L5.42246 21.1047L6.21791 19.3609L8.96584 20.6065C9.07432 20.9624 9.002 21.3894 8.64043 22.1367Z" fill="#3B6741"/>
<path d="M13.1259 15.1972C13.0175 15.1261 9.90796 13.2399 9.90796 13.2399C9.6187 13.062 9.36561 12.8485 9.36561 12.8485C9.36561 12.8485 9.58255 13.0976 9.79949 13.4179C9.79949 13.4179 11.9328 16.4428 12.0412 16.5851L11.6435 17.0833C11.4989 17.0478 7.95548 15.731 7.95548 15.731C7.59391 15.5887 7.30466 15.4463 7.30466 15.4463C7.30466 15.4463 7.55775 15.6243 7.81085 15.8734C7.81085 15.8734 10.4142 18.3289 10.5588 18.4357L9.98028 19.2186L5.89453 15.2328L6.58152 14.3431L10.1249 15.6954C10.4865 15.8378 10.7396 15.9446 10.7396 15.9446C10.7396 15.9446 10.5588 15.731 10.3418 15.4463L8.17242 12.3503L8.85941 11.4606L13.7768 14.3431L13.1259 15.1972Z" fill="#3B6741"/>
<path d="M15.0429 10.1794L16.6338 12.03L15.766 12.7417L14.1751 10.8912L10.8125 9.50328L11.7164 8.72036L14.0305 9.82357L13.3796 7.36805L14.2113 6.69189L15.0429 10.1794Z" fill="#3B6741"/>
<path d="M20.3211 6.26487C20.8273 7.19014 21.225 8.22217 20.3934 8.6848C19.5618 9.14743 18.8387 8.29334 18.2963 7.36808C17.7901 6.44281 17.3924 5.37519 18.224 4.91256C19.0556 4.48551 19.7787 5.33961 20.3211 6.26487ZM21.3335 5.73106C20.538 4.34316 19.3449 3.52466 17.8986 4.34316C16.4523 5.12608 16.5246 6.58516 17.3201 7.97306C18.1155 9.36096 19.3449 10.1795 20.755 9.36096C22.2013 8.57804 22.129 7.11896 21.3335 5.73106Z" fill="#3B6741"/>
<path d="M27.7671 6.47837L24.4768 3.70257C24.1514 3.45346 23.9345 3.20435 23.9345 3.20435C23.9345 3.20435 24.0791 3.48904 24.1514 3.80933L25.2 7.2257L24.296 7.5104L22.6328 2.17232L23.6452 1.85203L26.7547 4.48548C27.044 4.73459 27.2248 4.94812 27.2248 4.94812C27.2248 4.94812 27.1163 4.69901 27.0078 4.37872L25.9954 1.14029L26.8993 0.855591L28.5626 6.19367L27.7671 6.47837Z" fill="#3B6741"/>
<path d="M32.9737 5.7666C31.3466 5.90895 30.2257 4.94809 30.045 3.09756C29.9003 1.3182 30.9127 0.179408 32.5036 0.0370591C33.1906 -0.0341153 33.6968 0.0726463 34.0584 0.214995L33.7691 0.891152C33.5522 0.819977 33.2268 0.713216 32.6844 0.78439C31.6359 0.891152 31.0574 1.6029 31.202 3.09756C31.3105 4.52104 31.9974 5.1972 32.8652 5.12603C33.1906 5.09044 33.3714 5.01927 33.4799 4.98368L33.3352 3.16873L32.4675 3.23991L32.359 2.49257L34.3115 2.31464L34.5646 5.26838C34.203 5.55307 33.7691 5.69542 32.9737 5.7666Z" fill="#3B6741"/>
<path d="M41.6167 6.4427C40.4597 6.158 39.8088 5.30391 40.0258 4.30747L40.9297 0.428467L42.0506 0.677577L41.1467 4.52099C41.002 5.09039 41.3636 5.51744 41.8336 5.6242C42.3398 5.73096 42.8099 5.51744 42.9545 4.91245L43.8584 1.06904L44.8708 1.31815L43.9669 5.19715C43.75 6.19359 42.8099 6.69181 41.6167 6.4427Z" fill="#3B6741"/>
<path d="M48.7034 8.89826L48.161 4.66339C48.1248 4.30752 48.1248 3.95164 48.1248 3.95164C48.1248 3.95164 48.0164 4.23634 47.8717 4.55663L46.317 7.79506L45.4492 7.4036L47.8717 2.35022L48.848 2.81285L49.3542 6.79862C49.3903 7.15449 49.3903 7.43919 49.3903 7.43919C49.3903 7.43919 49.4988 7.19008 49.6073 6.90538L51.0536 3.84488L51.9213 4.23634L49.535 9.28972L48.7034 8.89826Z" fill="#3B6741"/>
<path d="M51.1641 10.3573L54.382 5.7666L55.3221 6.40717L52.1041 10.9979L51.1641 10.3573Z" fill="#3B6741"/>
<path d="M55.4653 13.7738L54.7422 13.0976L57.3093 7.75952L58.1771 8.57803L56.4054 11.8876C56.2608 12.1723 56.0438 12.5282 56.0438 12.5282C56.0438 12.5282 56.3693 12.3147 56.6585 12.1367L59.9126 10.215L60.7081 10.9268L55.4653 13.7738Z" fill="#3B6741"/>
<path d="M57.707 16.1224L62.2628 12.7772L64.0345 15.126L63.456 15.553L62.3351 14.0939L60.9612 15.0904L61.9374 16.4071L61.395 16.7986L60.4188 15.4818L58.9364 16.585L60.0572 18.0441L59.4787 18.4712L57.707 16.1224Z" fill="#3B6741"/>
<path d="M65.263 20.6776C64.576 20.9979 63.9975 20.82 63.5998 20.0371C63.5275 19.8947 63.4552 19.7168 63.4552 19.6456L65.4438 18.6847C65.5523 18.7915 65.6607 18.9339 65.7692 19.1474C66.1669 19.8947 65.9861 20.3573 65.263 20.6776ZM62.262 23.5958L63.7083 20.8912C64.1783 21.7097 65.0099 22.0655 65.7692 21.6741C66.7093 21.2114 66.9985 20.2506 66.3116 18.9339C65.9861 18.3289 65.6246 17.8662 65.263 17.5815L60.418 19.9303L60.9242 20.9267L63.2382 19.7879L61.7196 22.457L62.262 23.5958Z" fill="#3B6741"/>
<path d="M63.0235 26.2292C62.8065 25.553 62.8065 25.0548 62.915 24.699L63.7105 24.7701C63.6381 25.0192 63.602 25.3751 63.7466 25.8022C63.9274 26.3716 64.3613 26.6207 64.8675 26.4783C65.2652 26.3716 65.446 26.0513 65.5183 25.3039C65.6268 24.2363 66.133 23.8449 66.6753 23.6669C67.5431 23.4178 68.4832 23.8804 68.7724 24.9481C68.9532 25.5175 68.9171 26.0157 68.8447 26.3004L68.1578 26.2292C68.2301 25.9801 68.2662 25.6242 68.1578 25.2684C68.0131 24.7345 67.6154 24.521 67.1092 24.6634C66.6392 24.8057 66.5307 25.2328 66.4584 25.8022C66.3499 27.0833 65.7714 27.4036 65.2652 27.5459C64.2528 27.9018 63.3489 27.2968 63.0235 26.2292Z" fill="#3B6741"/>
<path d="M63.9258 29.8236L69.5663 29.0406L69.7109 30.1439L64.0704 30.9268L63.9258 29.8236Z" fill="#3B6741"/>
<path d="M69.2787 34.8057L64.2891 34.8413V33.7381L69.2787 33.7025V32.5637H69.9657L70.0019 35.9445H69.3149L69.2787 34.8057Z" fill="#3B6741"/>
<path d="M66.2389 40.0726L63.8164 39.6812L63.9972 38.578L66.4197 38.9694L69.8908 37.8662L69.71 39.0406L67.2152 39.6812L69.3484 41.1402L69.1676 42.1723L66.2389 40.0726Z" fill="#3B6741"/>
<path d="M48.4508 28.3289C48.4508 28.2221 48.4147 28.0798 48.4147 27.973C48.3785 27.973 48.3424 27.973 48.3062 27.973C48.3062 28.0442 48.3062 28.0798 48.2339 28.0798C48.1254 28.2933 48.017 28.4712 47.9446 28.6848C47.9085 28.6848 47.8723 28.6848 47.8362 28.6848C47.7277 28.2221 47.0769 28.6848 46.7153 28.6492C46.5707 28.8627 46.2814 29.0406 45.9922 29.0051C45.9922 28.9695 45.9922 28.9695 45.9922 28.9339C45.9922 28.8627 45.9922 28.8271 45.9922 28.7559C45.956 28.7559 45.9198 28.7559 45.8837 28.7559C45.8475 28.8627 45.8475 29.0762 45.7752 29.0406C45.7752 29.0762 45.7752 29.0762 45.7752 29.1118C45.0882 29.0762 44.4013 29.4321 43.7143 29.5744C43.3165 29.6456 42.9911 29.7168 42.5934 29.788C42.4488 29.8591 42.3041 29.8947 42.1234 29.9659C42.051 29.9659 41.9787 30.0015 41.9064 30.0015C41.7979 30.0015 41.8703 30.1794 41.8341 30.2506C41.8341 30.2506 41.7979 30.2506 41.7618 30.2506C41.7618 30.2862 41.7618 30.2862 41.7618 30.3218C41.6533 30.3218 41.6172 30.215 41.581 30.1083C41.581 30.0727 41.581 30.0727 41.581 30.0371C41.5448 30.0371 41.5087 30.0371 41.4725 30.0371C41.4364 30.215 39.9539 30.393 39.6647 30.6776C39.737 30.6776 39.737 30.6776 39.7008 30.7488C39.5924 30.7132 39.4477 30.6776 39.3393 30.6421C39.3031 30.8556 38.58 30.9268 38.4353 31.0691C38.3992 31.1759 38.3269 31.247 38.2907 31.3538C38.2546 31.3538 38.2184 31.3538 38.1822 31.3538C38.2184 31.247 38.2184 31.1403 38.2546 31.0335C38.2546 31.0335 38.2184 31.0335 38.1822 31.0335C38.1822 30.9979 38.1822 30.9979 38.1822 30.9623C38.1822 30.9623 38.1461 30.9623 38.1099 30.9623C38.1099 30.9979 38.1099 30.9979 38.1099 31.0335C37.8568 30.9979 37.5314 31.2826 37.3145 31.3538C37.1698 31.3538 36.9891 31.3894 36.8444 31.3894C36.6637 31.425 36.4829 31.4962 36.3021 31.5317C36.2298 31.6385 36.1575 31.7453 36.1213 31.852C36.0851 32.03 36.1936 32.1367 36.0851 32.3502C36.049 32.4214 35.9405 32.5282 35.9044 32.5994C35.7959 32.8129 35.8682 33.0264 35.7959 33.2399C35.6874 33.4535 35.5789 33.3823 35.5428 33.6314C35.5066 34.0228 35.6513 34.272 35.362 34.699C35.2535 34.8414 35.1451 34.8769 35.1089 35.0549C35.1089 35.2684 35.2535 35.304 35.1451 35.5531C35.1089 35.6599 35.0004 35.731 34.9643 35.8378C34.9281 36.0157 35.0004 36.0157 35.0004 36.1225C35.0004 36.2648 34.9281 36.4072 34.9643 36.5139C35.0004 36.6207 35.0727 36.6207 35.0727 36.7275C35.1089 36.8342 35.1089 36.8342 35.1089 36.9766C35.1089 37.0122 34.9643 37.2613 34.9643 37.2969C35.0727 37.4392 34.9643 37.7239 34.892 37.9018C34.8196 38.1154 34.8558 38.5068 34.675 38.6136C34.8558 38.7915 34.7835 38.8983 34.7112 39.2186C34.675 39.4321 34.675 39.7168 34.6389 39.9303C34.6389 40.215 34.892 40.4641 34.8196 40.7488C34.7473 40.9268 34.6389 40.8556 34.5304 41.0335C34.4219 41.247 34.5665 41.6029 34.6027 41.8164C34.675 42.2435 34.5665 42.3502 34.4942 42.7417C34.4581 42.9552 34.5304 43.062 34.5665 43.2399C34.675 43.667 34.892 44.0228 35.0004 44.4499C35.0366 44.6634 35.0004 44.699 35.1089 44.9481C35.1812 45.0905 35.2174 45.1972 35.2174 45.304L45.7029 43.1332C47.5831 42.7061 48.7039 41.1403 48.7039 39.8591V28.2221C48.6316 28.2577 48.5593 28.2933 48.5593 28.2933C48.487 28.3289 48.5232 28.3645 48.4508 28.3289Z" fill="#86BE40"/>
<path d="M31.8559 28.1153C31.9644 27.9374 32.0729 27.9374 32.109 27.6883C32.1452 27.5459 32.8322 26.0868 32.8322 26.0868C32.7598 26.0157 32.8322 25.9801 32.8683 25.9089C32.9406 25.8733 33.483 25.0548 33.5191 25.0904C33.483 25.0548 33.483 25.0192 33.4468 24.9836C33.5553 24.7345 33.8084 24.4854 33.8807 24.2719C33.953 24.0228 33.9169 24.094 34.1338 23.8448C34.2784 23.7025 34.2784 23.5246 34.3869 23.4178C34.4592 23.311 34.6039 23.2399 34.6762 23.1687C34.6762 23.1687 34.64 23.0619 34.6762 22.9908C34.7485 22.884 34.8931 22.7772 34.9654 22.7061C35.8332 21.852 36.8094 21.1402 37.858 21.4605C38.2919 21.6029 38.8704 21.8876 39.0873 22.2434C39.232 22.4214 39.232 22.8484 39.4489 22.9196C39.4127 22.9196 39.3766 22.9908 39.3404 22.9908C39.3766 23.0263 39.4127 23.0975 39.4489 23.1331C39.232 23.2755 39.3404 23.489 39.3043 23.6669C39.232 23.8448 39.1235 24.0584 38.9789 24.2363C38.8704 24.3787 38.8704 24.4498 38.8342 24.5922C38.7981 24.6989 38.7258 24.8413 38.6896 24.9481C38.6534 25.0904 38.545 25.1972 38.4727 25.3039C38.4365 25.3751 38.4365 25.4819 38.4365 25.553C38.4365 25.5886 38.4365 25.6242 38.4365 25.6598C38.4365 25.6954 38.4727 25.6954 38.4727 25.731C38.4003 25.9801 38.1472 25.8733 38.0749 26.0868C38.0388 26.1936 38.2196 26.2648 38.2557 26.3715C38.4365 26.336 38.545 26.2648 38.545 26.2292C38.5811 26.2292 38.6173 26.2292 38.6534 26.2292C38.6534 26.2648 38.6534 26.2648 38.6534 26.3004C38.6896 26.3715 38.7258 26.4783 38.8342 26.5139C38.8342 26.4783 38.8342 26.4783 38.8342 26.4427C38.8704 26.4427 38.8704 26.4427 38.9065 26.4427C38.9065 26.3715 38.8704 26.1936 38.9427 26.1936C39.0873 26.1224 40.1359 25.9445 40.172 25.8021C40.2443 25.8377 40.3167 25.8733 40.389 25.8733C40.8229 25.4819 41.4014 25.6242 41.9076 25.4463C41.9799 25.4107 41.9799 25.4463 42.016 25.3395C42.016 25.3395 42.0522 25.3395 42.0884 25.3395C42.1245 25.3751 42.1968 25.553 42.233 25.4107C42.703 25.2328 43.1369 25.0192 43.6431 24.9836C43.7154 25.0192 43.8239 25.0192 43.9324 25.0548C44.0047 24.9836 44.077 24.9836 44.077 24.8769C44.1493 24.9125 44.2216 24.9481 44.2939 24.9481C44.4024 24.8769 44.8363 24.7701 44.8724 24.6989C44.9086 24.6989 44.9086 24.6989 44.9448 24.6989C44.9448 24.7701 44.9086 24.7701 44.9809 24.7701C44.9809 24.7345 44.9809 24.7345 44.9809 24.6989C45.2702 24.6278 45.5956 24.4498 45.8848 24.4854C45.921 24.521 45.921 24.5566 45.9933 24.5566C46.1379 24.4498 46.2826 24.4142 46.4634 24.4142C46.7165 24.3075 46.9334 24.3431 47.2227 24.3431C47.4034 24.2007 47.5842 24.2007 47.765 24.2007C47.8012 24.2007 47.8735 24.2007 47.9458 24.1651C48.0181 24.1295 48.2351 24.0584 48.3435 24.0228C47.8012 23.2043 47.2227 22.884 46.5357 22.6349L25.0222 16.6207C22.7082 15.9445 20.9727 17.795 20.9727 19.432V44.6634C20.9727 46.3004 22.672 47.8662 24.516 47.5103L27.5171 46.9053V46.8698C27.5532 46.7274 27.4448 46.5851 27.5171 46.4427C27.4809 46.4071 27.4448 46.3715 27.4448 46.336C27.4809 46.2648 27.5171 46.1936 27.5894 46.1936C27.5171 46.0157 27.5171 45.8377 27.5894 45.6954C27.5532 45.6598 27.5532 45.6242 27.4448 45.5886C27.5171 44.7701 27.5532 43.9872 27.5532 43.2043C27.6255 42.9908 27.6979 42.8128 27.734 42.6349C27.6979 42.5993 27.6617 42.5993 27.6617 42.5637C27.6255 42.5637 27.734 42.1011 27.7702 42.0299C27.7702 41.9587 27.734 41.8876 27.734 41.8164C27.7702 41.7452 27.8786 41.674 27.8786 41.5673C27.8786 41.4605 27.8063 41.4249 27.8063 41.3537C27.8063 41.1758 27.9148 40.9979 27.9871 40.8199C28.0956 40.5352 28.1679 40.1794 28.1317 39.8947C28.1679 39.8947 28.1679 39.8947 28.2041 39.8591C28.1317 39.8591 28.3125 39.2185 28.3125 39.1829C28.3848 38.9694 28.5295 38.6847 28.3848 38.4712C28.6379 38.4 28.5295 38.2577 28.5295 38.0797C28.4933 37.6171 28.7103 37.1545 28.8187 36.6918C28.8549 36.5139 29.1803 36.3715 29.1803 36.1224C29.1803 36.0157 29.0357 35.8733 29.0357 35.7666C29.0718 35.5886 29.2526 35.6598 29.2165 35.4107C29.1803 35.1972 28.9995 35.1972 29.108 34.9836C29.1803 34.8057 29.4334 34.7345 29.5057 34.5566C29.578 34.4142 29.578 34.2007 29.578 34.094C29.578 33.8804 29.5057 33.7737 29.6142 33.5957C29.7227 33.3822 29.9034 33.2399 30.0119 33.0619C30.1204 32.8484 30.0481 32.8484 30.0119 32.7416C29.8311 32.8128 29.6503 32.8484 29.4696 32.9196C29.2165 32.9552 28.9272 32.9552 28.6741 32.9908C28.4572 33.0263 28.2764 33.1331 28.0594 33.1687C27.8786 33.1687 27.6979 33.2043 27.5171 33.2043C27.5171 33.2043 27.5171 33.2043 27.4809 33.2043C27.0832 33.2755 26.7216 33.4178 26.3239 33.4534C26.0708 33.489 25.89 33.4534 25.6369 33.5602C25.4561 33.6313 25.2753 33.7381 25.0946 33.8093C24.7691 33.9516 24.4799 34.0228 24.1183 34.1295C24.0098 34.1651 23.9014 34.2719 23.7929 34.2363C23.7929 34.3075 23.7929 34.3787 23.7929 34.4142C23.3229 34.4142 22.8167 34.5922 22.3828 34.3787C22.0935 34.2363 22.0935 33.5957 21.9127 33.5602C22.0574 33.1331 22.1658 32.6705 22.202 32.2078C22.202 32.1367 22.202 32.1367 22.2743 32.1367C22.2743 32.1723 22.2743 32.1723 22.2743 32.2078C22.3466 32.2078 22.4189 32.2078 22.4913 32.2434C22.672 31.9587 23.5036 31.1758 23.7929 31.1758C23.8291 31.2114 23.8291 31.247 23.8652 31.1758C23.9014 31.2114 23.9737 31.3182 24.046 31.3182C24.046 31.2826 24.046 31.2826 24.046 31.247C24.0822 31.247 24.0822 31.247 24.1183 31.247C24.1545 31.1402 24.1545 30.9267 24.2268 30.9623C24.2268 30.8911 24.2268 30.8911 24.2991 30.8911C24.5884 30.9979 24.9861 30.5352 25.2753 30.4285C25.42 30.3573 25.9262 30.4285 25.9262 30.4285C25.9985 30.3929 26.0346 30.3929 26.0708 30.3217C26.1793 30.3573 26.2877 30.4285 26.3962 30.4641C26.5047 30.3217 26.6132 30.1794 26.6855 30.037C26.8301 29.9303 27.5171 29.6456 27.5532 29.5744C27.6255 29.5744 27.6617 29.5744 27.734 29.5744C27.734 29.6811 27.6979 29.8235 27.8063 29.8235C27.8063 29.8591 27.8063 29.8591 27.8063 29.8947C27.951 29.7523 27.8786 29.5744 27.9148 29.3965C27.951 29.3965 27.9871 29.3965 28.0233 29.3965C28.0956 29.4676 28.1317 29.61 28.2764 29.61C28.2764 29.5744 28.2764 29.5744 28.2764 29.5388C28.3125 29.5388 28.3125 29.5388 28.3487 29.5388C28.4933 29.2185 28.891 29.0762 29.1441 29.005C29.2888 28.9694 29.3972 28.8982 29.4334 28.8626C29.9034 29.005 29.9758 28.7559 30.4096 28.6135C30.6627 28.5424 30.8797 28.4712 31.1328 28.3644C31.3136 28.2577 31.639 28.1153 31.8198 28.1509L31.8559 28.1153Z" fill="#37A048"/>
<path d="M54.7435 26.1224C54.7074 26.2292 54.7797 26.1936 54.852 26.1936C54.852 26.0868 54.8882 25.9445 54.8882 25.8021C54.9966 25.8021 55.069 25.6953 55.2136 25.6598C55.3221 25.1615 55.2497 24.8057 55.9367 24.9836C55.9729 24.8057 55.9367 24.7701 56.0814 24.6277H56.1175C56.1898 24.3074 56.226 24.3786 56.3706 24.0939C56.5514 24.0939 56.8406 24.3074 56.8406 24.4854C56.9491 24.4854 56.9853 24.3074 57.0214 24.2007C57.0576 24.2007 57.2384 23.9516 56.9491 23.9516C56.9853 23.7736 57.0576 23.738 57.1661 23.5957C57.0576 23.5957 57.0214 23.5245 56.9491 23.4534C56.696 23.1687 57.1299 22.7416 57.383 22.5637C57.383 22.5281 57.383 22.4925 57.4192 22.4569C57.383 22.4569 57.3468 22.4569 57.3107 22.4569C57.0214 22.6348 56.696 22.5993 56.4068 22.7416C56.1537 22.706 55.9729 22.8484 55.7921 22.9195C55.3944 23.0263 54.9966 23.0619 54.5628 23.1687C54.4181 23.2042 54.2735 23.2754 54.1289 23.311C53.8035 23.3822 53.5142 23.2754 53.1888 23.2754C52.7911 23.3466 52.3933 23.4178 51.9956 23.4889C51.851 23.4889 51.7425 23.4889 51.5979 23.4889C51.4894 23.5245 51.4533 23.5601 51.3809 23.6669C51.3086 23.6669 51.3448 23.6313 51.3086 23.738C51.2002 23.7025 51.0917 23.6313 50.9832 23.5957C50.9471 23.7025 50.7301 23.6669 50.6216 23.6669C50.477 23.7025 50.3685 23.7736 50.2239 23.8092C49.79 23.8448 49.3923 23.8804 48.9584 23.916C48.7053 23.9872 48.5968 24.0227 48.3438 24.0939C48.7053 24.5921 48.7776 25.1971 48.7776 25.5886V28.222C48.9584 28.1153 49.2838 27.9729 49.32 27.9373C49.32 27.9729 49.32 28.0441 49.3561 28.0441C49.3923 28.0797 49.4646 28.1153 49.5008 28.1153C49.5008 28.0797 49.5008 28.0797 49.5008 28.0441C49.6092 28.0441 49.5731 27.9729 49.6092 27.8662C49.8262 27.2612 50.0793 27.6882 50.4047 27.6171C50.6578 27.5459 50.8386 27.3324 51.0555 27.1544C51.0555 27.0832 51.0555 27.0832 51.1278 27.0832C51.1278 27.1544 51.0917 27.1544 51.164 27.1544C51.164 27.2612 51.164 27.3679 51.164 27.4747C51.2002 27.4747 51.2363 27.4747 51.2725 27.4747C51.3086 27.2256 51.3809 27.0832 51.4171 26.7985C51.5617 26.7985 51.9956 26.8697 52.0318 27.0121C52.0679 27.0121 52.1041 27.0121 52.1402 27.0121C52.1764 26.763 52.5018 26.9765 52.6464 26.9765C52.6464 26.9053 52.6826 26.8697 52.6826 26.7985C52.6826 26.763 52.6826 26.7274 52.7188 26.6918C52.7549 26.6918 52.7911 26.6918 52.8272 26.6918C52.8272 26.763 52.8272 26.7985 52.8272 26.8697C53.1526 26.9053 53.1526 26.2647 53.4419 26.585C53.478 26.585 53.478 26.585 53.5142 26.585C53.5142 26.5138 53.5142 26.4427 53.5142 26.4071C53.5504 26.4071 53.5504 26.4071 53.5865 26.4071C53.6227 26.3003 53.695 26.2292 53.6227 26.0868C53.5504 26.0868 53.5142 26.0868 53.4419 26.1224C53.3696 26.1224 53.3696 26.1224 53.4057 26.0512C53.3334 26.0512 53.6227 25.6598 53.6227 25.6242C53.6588 25.6242 53.6588 25.6242 53.695 25.6242C53.695 25.6953 53.695 25.8021 53.695 25.8733C53.7311 25.8733 53.7673 25.8733 53.8035 25.8733C53.8758 25.5174 54.382 25.3039 54.382 25.4106C54.4181 25.4106 54.4543 25.4106 54.4904 25.4106C54.5989 25.6598 54.5989 25.9089 54.7435 26.1224Z" fill="#90A944"/>
<path d="M36.2314 51.3537C36.2675 51.3893 36.4845 51.3537 36.5568 51.3537C36.6653 51.3537 36.7737 51.3537 36.8822 51.3537C37.2438 51.3893 37.6053 51.4605 38.0031 51.3893C38.4731 51.3181 38.8347 51.3893 39.2686 51.3537C39.6301 51.3181 39.9917 51.2114 40.3533 51.2114C40.3894 51.2114 40.4256 51.2114 40.4979 51.2114C40.5341 51.2114 40.5702 51.1758 40.6064 51.1758C40.6787 51.1758 40.6787 51.1758 40.751 51.1758C40.751 51.1758 40.751 51.1758 40.7872 51.1758C40.8595 51.1758 41.0764 51.1046 41.0403 51.0334C41.0764 51.0334 41.1126 50.9978 41.1487 50.9978C41.221 50.9978 41.221 50.9978 41.2934 50.9978C41.2934 50.9978 41.2934 50.9978 41.3295 50.9978C41.4018 50.9978 41.6188 50.9267 41.5826 50.8555C41.5465 50.8199 41.3657 50.8199 41.2934 50.8199C41.221 50.8199 41.0764 50.8555 40.9679 50.8555C40.8956 50.8555 40.7872 50.8555 40.6787 50.8911C40.6425 50.8911 40.6064 50.9267 40.6064 50.9267C40.5341 50.9267 40.5341 50.8911 40.4979 50.8911C40.4617 50.8555 40.3894 50.8911 40.3533 50.9267C40.281 50.9623 40.3171 50.9267 40.281 50.9267H40.2448C40.2086 50.9267 40.2086 50.8911 40.2086 50.8911C40.1363 50.9267 40.064 50.9267 39.9917 50.9267C39.9555 50.8911 39.8832 50.8911 39.8471 50.8911C39.8109 50.8911 39.8109 50.8555 39.7748 50.8555C40.1725 50.8199 40.3533 50.8555 40.751 50.8199C41.1126 50.7843 41.4741 50.6776 41.8357 50.6776C41.8719 50.6776 41.908 50.6776 41.9803 50.6776C42.0165 50.6776 42.0527 50.642 42.0888 50.642C42.1611 50.642 42.1611 50.642 42.2334 50.642C42.2334 50.642 42.2334 50.642 42.2696 50.642C42.3419 50.642 42.5588 50.5708 42.5227 50.4996C42.4865 50.464 42.3058 50.464 42.2334 50.464C42.1611 50.464 42.0165 50.4996 41.9442 50.4996C41.8719 50.4996 41.7634 50.4996 41.6549 50.5352C41.6188 50.5352 41.5826 50.5708 41.5465 50.5708C41.4741 50.5708 41.4741 50.5352 41.438 50.5352C41.4018 50.4996 41.3295 50.5352 41.2934 50.5708C41.221 50.6064 41.2572 50.5708 41.221 50.5708H41.1849C41.1487 50.5708 41.1487 50.5352 41.1487 50.5352C41.0764 50.5708 41.0041 50.5708 40.9318 50.5708C40.8956 50.5352 40.8233 50.5352 40.7872 50.5352C40.751 50.5352 40.7148 50.4996 40.7148 50.4996L40.6425 50.5352C40.6064 50.5352 40.4979 50.4996 40.4617 50.4996C40.3894 50.4996 40.281 50.4996 40.2086 50.4996C40.1363 50.4996 40.064 50.464 39.9917 50.5352C39.9194 50.5708 39.8832 50.5352 39.8109 50.4996C39.7748 50.4996 39.7386 50.464 39.7024 50.464C39.6663 50.464 39.6301 50.464 39.594 50.464C39.5578 50.464 39.5578 50.4284 39.5217 50.4284C39.4493 50.4284 39.4132 50.464 39.4132 50.4996L39.3047 50.5352C39.2686 50.5352 39.3047 50.4996 39.2686 50.464C39.2324 50.4284 39.2324 50.3573 39.1239 50.3573C39.0878 50.3573 39.0516 50.3929 39.0516 50.3929C38.9431 50.4284 38.9793 50.3929 38.907 50.3573C38.907 50.3573 38.8347 50.2505 38.7985 50.2861C38.69 50.3929 38.7262 50.3217 38.6539 50.2861C38.5454 50.2861 38.5093 50.2861 38.4008 50.2861C38.3646 50.2861 38.3646 50.2861 38.3285 50.2861C38.2923 50.2861 38.22 50.2861 38.22 50.2505C38.1477 50.2505 38.0754 50.2149 38.0031 50.2149C37.9669 50.2149 37.9307 50.2149 37.8584 50.2149H37.8223C37.7861 50.2149 37.7861 50.2149 37.75 50.2149C37.6777 50.1793 37.6415 50.1437 37.5692 50.1437C37.533 50.1437 37.4607 50.1437 37.3884 50.1437C37.3161 50.1437 37.2438 50.1437 37.1353 50.1082C37.0991 50.037 36.9545 50.037 36.846 50.037C36.8099 50.037 36.8099 50.0014 36.8099 50.0014C36.8822 50.0014 36.9545 50.037 36.9907 50.037C37.0268 50.037 37.0991 50.0014 37.1353 50.037C37.1715 50.0726 37.1715 50.1082 37.2438 50.1082C37.3884 50.1437 37.533 50.1082 37.7138 50.1082C37.8584 50.1082 37.9669 50.1793 38.1115 50.1793C38.22 50.1793 38.4369 50.1793 38.5093 50.2505C38.5454 50.2861 38.7624 50.2505 38.8347 50.2505C38.9431 50.2505 39.0516 50.2505 39.1601 50.2505C39.5217 50.2861 39.8832 50.3573 40.281 50.2861C40.4256 50.2505 40.5702 50.2505 40.7148 50.2505C40.7148 50.2505 40.751 50.2505 40.751 50.2861C40.7872 50.3217 41.0041 50.2861 41.0764 50.2861C41.1849 50.2861 41.2934 50.2861 41.4018 50.2861C41.7996 50.3217 42.125 50.3929 42.5227 50.3217C42.9927 50.2505 43.3543 50.3217 43.7882 50.2861C44.1498 50.2505 44.5113 50.1437 44.8729 50.1437C44.9091 50.1437 44.9452 50.1437 45.0175 50.1437C45.0537 50.1437 45.0898 50.1082 45.126 50.1082C45.1983 50.1082 45.1983 50.1082 45.2706 50.1082C45.2706 50.1082 45.2706 50.1082 45.3068 50.1082C45.3791 50.1082 45.596 50.037 45.5599 49.9658C45.5237 49.9302 45.3429 49.9302 45.2706 49.9302C45.1983 49.9302 45.0537 49.9658 44.9814 49.9658C44.9091 49.9658 44.8006 49.9658 44.6921 50.0014C44.656 50.0014 44.6198 50.037 44.5836 50.037C44.5113 50.037 44.5113 50.0014 44.4752 50.0014C44.439 49.9658 44.3667 50.0014 44.3305 50.037C44.2582 50.0726 44.2944 50.037 44.2582 50.037C44.2582 50.037 44.2221 50.037 44.1859 50.037C44.1498 50.037 44.1498 50.0014 44.1498 50.0014C44.0774 50.037 44.0051 50.037 43.9328 50.037C43.8967 50.0014 43.8243 50.0014 43.7882 50.0014C43.752 50.0014 43.7159 49.9658 43.7159 49.9658C43.7159 49.9658 43.6436 50.0014 43.6074 50.0014C43.6074 50.0014 43.4628 49.9658 43.4266 49.9658C43.3905 49.9658 43.3543 49.9658 43.282 49.9658C43.2458 49.9302 43.065 49.9302 42.9927 49.9302C42.9204 49.9302 42.8119 49.9302 42.7396 49.9658C42.7396 49.9658 42.7396 49.9658 42.7035 49.9658C42.6673 49.9658 42.6312 49.9658 42.595 49.9658C42.5589 49.9658 42.5588 49.9302 42.5227 49.9302C42.4865 49.9302 42.4142 49.9302 42.4142 49.9658C42.3781 49.9658 42.3419 50.0014 42.3419 50.0014C42.3057 50.0014 42.3057 50.0014 42.3057 50.0014V49.9658C42.2696 49.9302 42.2696 49.8591 42.1611 49.8591C42.125 49.8591 42.0888 49.8946 42.0888 49.8946C41.9803 49.9302 42.0165 49.8946 41.9442 49.8591C41.9442 49.8591 41.8719 49.7523 41.8357 49.7879C41.7272 49.8946 41.7634 49.8235 41.6911 49.8235C41.5826 49.7879 41.5465 49.8235 41.438 49.8235C41.4018 49.8235 41.2934 49.7879 41.2572 49.7879C41.1849 49.7879 41.1126 49.7523 41.0403 49.7523C40.9679 49.7523 40.8595 49.7523 40.8233 49.7523C40.751 49.7167 40.751 49.6811 40.6787 49.6811C40.6425 49.6811 40.5341 49.6811 40.4617 49.6811L40.4979 49.6455C40.5341 49.6455 40.5341 49.6455 40.5702 49.6455C40.6064 49.6455 40.6064 49.6455 40.6425 49.6455C40.6787 49.6455 40.7148 49.6455 40.751 49.6455C40.7872 49.6455 40.8595 49.6455 40.8956 49.6099C40.8956 49.5744 40.8595 49.5744 40.8233 49.5744C40.751 49.5744 40.751 49.5744 40.7148 49.5388C40.7872 49.5388 40.8595 49.5032 40.9318 49.5032C41.0041 49.5032 41.1126 49.5388 41.1849 49.5744C41.2572 49.6099 41.2572 49.6455 41.3295 49.6455C41.3295 49.6455 41.5465 49.6099 41.5465 49.5744C41.5465 49.5744 41.5465 49.5744 41.5826 49.6099C41.6188 49.5744 41.6549 49.6099 41.6911 49.6099C41.7272 49.6455 41.7996 49.6099 41.8357 49.6455C41.8719 49.6099 41.908 49.6811 41.9442 49.6099C42.125 49.6811 42.3057 49.6455 42.5227 49.6811C42.5588 49.6455 42.595 49.6811 42.6312 49.6811C42.6673 49.7167 42.7758 49.6811 42.8481 49.6811C42.8843 49.6811 42.8843 49.6811 42.9204 49.6811C42.9566 49.6811 42.9566 49.6811 42.9927 49.6811C43.0289 49.6811 43.065 49.6811 43.1012 49.6811C43.1374 49.6811 43.2097 49.6811 43.2458 49.6455C43.2458 49.6099 43.2097 49.6099 43.1735 49.6099C43.1012 49.6099 43.1012 49.6099 43.065 49.5744C43.0289 49.5388 43.0289 49.5744 42.9927 49.5744C42.9566 49.5388 42.8843 49.5744 42.8481 49.5388C42.7035 49.6099 42.5227 49.3964 42.3781 49.432C42.3781 49.432 42.2696 49.4676 42.2696 49.5032C42.2334 49.5032 42.2334 49.4676 42.1973 49.4676C42.1973 49.4676 42.1973 49.432 42.1611 49.432C42.125 49.432 42.125 49.432 42.0888 49.432C42.0527 49.432 41.9803 49.432 41.9442 49.432C41.9442 49.432 41.9442 49.3964 41.908 49.3964H41.8719C41.8357 49.3964 41.7996 49.432 41.7634 49.432C41.7272 49.432 41.6549 49.4676 41.6188 49.4676C41.5826 49.4676 41.6188 49.432 41.5826 49.432C41.5465 49.432 41.5103 49.432 41.5103 49.3964C41.4741 49.3608 41.438 49.3252 41.3657 49.3252C41.2934 49.3252 41.2572 49.3964 41.1849 49.3608C41.3295 49.1473 40.751 49.2185 40.6787 49.2185C40.6425 49.2185 40.6064 49.1829 40.5341 49.1829C40.4617 49.1829 40.4256 49.1829 40.3533 49.1829C40.281 49.1829 40.281 49.1117 40.2086 49.1117C40.1725 49.1117 40.1002 49.1473 40.0279 49.1473C39.9555 49.1473 39.9555 49.1473 39.9194 49.1117C39.8471 49.0761 39.7748 49.005 39.6663 49.005C39.594 49.005 39.594 49.0405 39.5578 49.005C39.5217 48.9694 39.5217 48.9338 39.4855 48.9338C39.4132 48.8982 39.3047 48.9338 39.2324 48.9338C39.1601 48.8982 39.0516 48.827 38.9793 48.7914C38.9431 48.7914 38.907 48.7203 38.907 48.6847C38.907 48.6491 38.9793 48.6491 38.9793 48.6491C39.0516 48.6135 39.0878 48.6847 39.1239 48.6847C39.1962 48.6847 39.2324 48.6847 39.3047 48.6847C39.4132 48.7203 39.4132 48.827 39.594 48.827C39.6301 48.827 39.6663 48.8982 39.7024 48.8626C39.7386 48.827 39.7024 48.827 39.7024 48.827C39.7024 48.7914 39.7748 48.827 39.8109 48.827C39.8471 48.8626 39.8471 48.8626 39.8832 48.8982C39.9194 48.8982 39.9555 48.8982 39.9917 48.8982C40.0279 48.8982 40.1363 48.8982 40.1002 48.8626C40.1002 48.827 40.064 48.8626 40.064 48.827C40.0279 48.7914 39.9917 48.7558 39.9555 48.7203C39.9194 48.6847 39.8471 48.6847 39.7748 48.6847C39.7386 48.6847 39.7024 48.6491 39.6663 48.6491C39.6301 48.6135 39.594 48.6135 39.5578 48.6135C39.5217 48.5779 39.4855 48.5779 39.4132 48.5779C39.377 48.5779 39.377 48.5423 39.3409 48.5067C39.3409 48.5067 39.3409 48.5067 39.3047 48.4711C39.3047 48.4711 39.3047 48.4712 39.3047 48.4356C39.2324 48.4 39.1962 48.4712 39.1239 48.4356C39.0878 48.4 39.1239 48.3288 39.0878 48.3288C39.0516 48.2932 38.9431 48.2932 38.8708 48.2576C38.7624 48.222 38.7624 48.222 38.7262 48.1509C38.69 48.1153 38.69 48.1509 38.6539 48.1153C38.6177 48.0797 38.5454 47.9729 38.4731 48.0797C38.4369 48.0797 38.4008 48.0441 38.4008 48.0085C38.2923 48.0441 38.22 48.0797 38.3285 48.1509C38.3646 48.1865 38.4008 48.1509 38.4731 48.1509C38.5093 48.1509 38.5093 48.1865 38.5454 48.222C38.6177 48.2576 38.7262 48.2576 38.7624 48.3288C38.7985 48.4356 38.6539 48.4711 38.6177 48.4C38.5816 48.4 38.5093 48.4356 38.4731 48.4C38.4369 48.4 38.4369 48.3288 38.4008 48.3288C38.3285 48.2932 38.2562 48.2932 38.1838 48.2932C38.1477 48.2932 38.0031 48.3288 37.9669 48.2932C37.9669 48.2932 38.0031 48.222 37.9669 48.1865C37.9308 48.1509 37.8584 48.1509 37.8223 48.1153C37.8223 48.1153 37.75 47.9729 37.8223 47.9729C37.8946 47.9729 38.0754 48.0441 38.1115 47.9729C38.1477 47.9018 38.0754 47.9373 38.0392 47.9018C37.9669 47.8306 37.9307 47.7594 37.8223 47.7238C37.75 47.7238 37.6777 47.6882 37.6053 47.6526C37.5692 47.6171 37.6415 47.5459 37.5692 47.5103C37.533 47.4747 37.4607 47.4747 37.4246 47.4747C37.3884 47.4391 37.3884 47.4035 37.3161 47.3679C37.2799 47.3679 37.2438 47.3679 37.2076 47.3679C37.1353 47.3324 37.0991 47.2612 37.0268 47.2256C36.9545 47.19 36.9545 47.2256 36.8822 47.19C36.7737 47.0833 36.7737 47.0121 36.6291 46.9765C36.5929 46.9765 36.5206 46.9765 36.4845 46.9409C36.4483 46.9053 36.4845 46.8341 36.376 46.7986C36.3398 46.7986 36.3037 46.7985 36.2675 46.763C36.2314 46.7274 36.2314 46.7274 36.1952 46.6918C36.1591 46.6562 36.1229 46.6562 36.0867 46.6206C36.0506 46.585 36.0867 46.5494 36.0867 46.5139C36.0867 46.4783 36.0867 46.4783 36.0506 46.4427L35.9421 46.4071C35.9421 46.3359 35.8336 46.3003 35.7975 46.2647C35.7252 46.2292 35.689 46.158 35.6167 46.158L35.5805 46.1224C35.5805 46.0512 35.5444 46.0512 35.4721 45.98C35.4721 45.98 35.4721 45.98 35.4721 45.9445C35.4359 45.9089 35.4359 45.8733 35.4359 45.8733C35.3636 45.6598 35.3998 45.5174 35.3998 45.3395L27.626 46.9765C27.626 46.9765 27.626 46.9765 27.626 47.0121C27.626 47.0121 27.626 47.0121 27.5898 47.0477C27.5898 47.0477 27.5898 47.0477 27.626 47.0833C27.6622 47.1188 27.6622 47.19 27.7345 47.19V47.2256C27.7706 47.2256 27.7706 47.2256 27.8068 47.2256C27.8429 47.2968 27.8791 47.3324 27.9153 47.3679C27.9153 47.4035 27.9153 47.4035 27.9153 47.4391C27.9876 47.5103 28.0599 47.6171 28.1684 47.6882C28.3491 48.3288 28.6022 48.9338 29.1084 49.3964C30.2293 50.4284 32.3987 51.4605 36.2314 51.3537Z" fill="#90A944"/>
<path d="M31.7469 28.2576C31.5299 28.222 31.2407 28.3999 31.0599 28.4711C30.8429 28.5423 30.5898 28.6135 30.3367 28.7202C29.9029 28.8626 29.8305 29.1117 29.3605 28.9693C29.3605 29.0405 29.252 29.0761 29.0712 29.1117C28.8181 29.2185 28.4204 29.3252 28.2758 29.6455C28.2758 29.6455 28.2396 29.6455 28.2035 29.6455C28.2035 29.6811 28.2035 29.6811 28.2035 29.7167C28.095 29.7167 28.0227 29.6099 27.9504 29.5032C27.9142 29.5032 27.8781 29.5032 27.8419 29.5032C27.8058 29.6811 27.8781 29.8234 27.7334 30.0014C27.7334 29.9658 27.7334 29.9658 27.7334 29.9302C27.625 29.9302 27.6611 29.7879 27.6611 29.6811C27.5888 29.6811 27.5527 29.6811 27.4803 29.6811C27.4442 29.7523 26.7572 30.037 26.6126 30.1437C26.5041 30.2861 26.3956 30.4284 26.3233 30.5708C26.2148 30.5352 26.1064 30.464 25.9979 30.4284C25.9617 30.4996 25.9256 30.4996 25.8533 30.5352C25.8533 30.5352 25.3471 30.4996 25.2024 30.5352C24.9132 30.6419 24.4793 31.1046 24.2262 30.9978C24.1539 30.9978 24.1901 30.9622 24.1539 31.069C24.0454 31.069 24.0454 31.2825 24.0454 31.3537C24.0093 31.3537 24.0093 31.3537 23.9731 31.3537C23.9731 31.3893 23.9731 31.3893 23.9731 31.4249C23.9008 31.4249 23.8285 31.3181 23.7923 31.2825C23.7923 31.3537 23.7562 31.3181 23.72 31.2825C23.3946 31.2469 22.5991 32.0654 22.4184 32.3501C22.346 32.3501 22.2737 32.3501 22.2014 32.3145C22.2014 32.279 22.2014 32.279 22.2014 32.2434C22.1291 32.2434 22.1653 32.2078 22.1291 32.3145C22.0929 32.7416 21.9845 33.2398 21.8398 33.6669C22.0206 33.7024 22.0206 34.3074 22.3099 34.4854C22.7438 34.7345 23.25 34.5209 23.72 34.5209C23.72 34.4498 23.72 34.3786 23.72 34.343C23.8285 34.343 23.937 34.2718 24.0454 34.2362C24.3708 34.1295 24.6962 34.0227 25.0217 33.916C25.2024 33.8448 25.3832 33.738 25.564 33.6669C25.781 33.5957 25.9979 33.5957 26.251 33.5601C26.6487 33.5245 27.0103 33.3466 27.408 33.311C27.408 33.311 27.408 33.311 27.4442 33.311C27.625 33.311 27.8058 33.2754 27.9865 33.2754C28.2035 33.2042 28.4204 33.133 28.6012 33.0975C28.8543 33.0619 29.1436 33.0263 29.3967 33.0263C29.5774 32.9551 29.7582 32.9195 29.939 32.8483C29.9752 32.9551 30.0475 32.9551 29.939 33.1686C29.8305 33.3822 29.6498 33.5245 29.5413 33.7024C29.469 33.8804 29.5051 33.9871 29.5051 34.2007C29.5051 34.3074 29.469 34.5565 29.4328 34.6633C29.3605 34.8412 29.1074 34.9124 29.0351 35.0903C28.9266 35.3395 29.1074 35.3395 29.1436 35.5174C29.1797 35.7665 28.9989 35.6953 28.9628 35.8733C28.9628 35.9444 29.1074 36.1224 29.1074 36.2291C29.0712 36.4782 28.782 36.6206 28.7458 36.7985C28.6374 37.2612 28.4204 37.7238 28.4566 38.1864C28.4566 38.3644 28.5651 38.5067 28.312 38.5779C28.4566 38.7914 28.3119 39.0761 28.2396 39.2896C28.2396 39.3252 28.0589 40.0014 28.1312 39.9658C28.095 39.9658 28.095 39.9658 28.0589 40.0014C28.095 40.3217 28.0227 40.6419 27.9142 40.9266C27.8419 41.1046 27.7334 41.2825 27.7334 41.4604C27.7334 41.5316 27.8058 41.5672 27.8058 41.674C27.8058 41.7807 27.6973 41.8163 27.6611 41.9231C27.625 41.9943 27.6973 42.0654 27.6973 42.1366C27.6973 42.1722 27.5888 42.6348 27.5888 42.6704C27.625 42.706 27.6611 42.706 27.6611 42.7416C27.5888 42.9195 27.5165 43.133 27.4803 43.311C27.4803 44.0939 27.4442 44.8768 27.3719 45.6953C27.4803 45.7309 27.4803 45.7665 27.5165 45.8021C27.4803 45.9444 27.4803 46.1224 27.5165 46.3003C27.4442 46.3359 27.3719 46.3715 27.3719 46.4427C27.408 46.4782 27.4442 46.5138 27.4442 46.5494C27.3357 46.6918 27.4803 46.8341 27.4442 46.9765V47.0121L35.2179 45.375C35.2179 45.2683 35.1818 45.1615 35.1095 45.0192C35.001 44.7701 35.0372 44.7345 35.001 44.5209C34.9287 44.0939 34.6756 43.738 34.5671 43.311C34.531 43.133 34.4586 43.0263 34.4948 42.8128C34.5671 42.4213 34.6756 42.3145 34.6033 41.8875C34.5671 41.674 34.4225 41.3181 34.531 41.1046C34.6033 40.9622 34.7479 40.9978 34.8202 40.8199C34.8925 40.5352 34.6394 40.2861 34.6394 40.0014C34.6394 39.7523 34.6394 39.5032 34.7117 39.2896C34.7841 39.0049 34.8564 38.8982 34.6756 38.6846C34.8564 38.5779 34.8202 38.1864 34.8925 37.9729C34.9648 37.795 35.1095 37.5459 34.9648 37.3679C34.9648 37.3323 35.1095 37.0832 35.1095 37.0476C35.1456 36.9053 35.1095 36.9053 35.0733 36.7985C35.0372 36.6918 34.9648 36.6918 34.9648 36.585C34.9648 36.4782 35.0372 36.3003 35.001 36.1935C35.001 36.0512 34.9287 36.0512 34.9648 35.9088C35.001 35.8021 35.1095 35.7309 35.1456 35.6241C35.2541 35.3395 35.0733 35.3395 35.1095 35.1259C35.1456 34.948 35.2541 34.9124 35.3626 34.7701C35.6518 34.343 35.471 34.1295 35.5434 33.7024C35.5795 33.4533 35.688 33.4889 35.7965 33.311C35.9049 33.0975 35.8326 32.8839 35.9049 32.6704C35.9411 32.5637 36.0857 32.4925 36.0857 32.4213C36.158 32.2078 36.0857 32.101 36.1219 31.9231C36.158 31.8163 36.2303 31.7096 36.3027 31.6028C36.4834 31.5672 36.6642 31.496 36.845 31.4604C36.9896 31.4604 37.1704 31.4249 37.315 31.4249C37.5681 31.3181 37.8574 31.069 38.1105 31.1046C38.1105 31.069 38.1105 31.069 38.1105 31.0334C38.1467 31.0334 38.1467 31.0334 38.1828 31.0334C38.1828 31.069 38.1828 31.069 38.1828 31.1046C38.219 31.1046 38.219 31.1046 38.2551 31.1046C38.219 31.2113 38.219 31.3181 38.1828 31.4249C38.219 31.4249 38.2551 31.4249 38.2913 31.4249C38.3274 31.3181 38.3998 31.2469 38.4359 31.1402C38.5805 30.9978 39.3037 30.9266 39.3398 30.7131C39.4845 30.7487 39.5929 30.7843 39.7014 30.8199C39.7014 30.7487 39.7376 30.7487 39.6653 30.7487C39.9545 30.464 41.4369 30.2861 41.4731 30.1081C41.5093 30.1081 41.5454 30.1081 41.5816 30.1081C41.5816 30.1437 41.5816 30.1437 41.5816 30.1793C41.6177 30.2505 41.6539 30.3572 41.7624 30.3928C41.7624 30.3572 41.7624 30.3572 41.7624 30.3217C41.7985 30.3217 41.7985 30.3217 41.8347 30.3217C41.8347 30.2505 41.7985 30.0725 41.907 30.0725C41.9793 30.0725 42.0516 30.0725 42.1239 30.037C42.2686 29.9658 42.4493 29.9302 42.594 29.859C42.9555 29.7879 43.3171 29.7167 43.7148 29.6455C44.3657 29.5032 45.0527 29.1473 45.7758 29.1829C45.7758 29.1473 45.7758 29.1473 45.7758 29.1117C45.8843 29.1117 45.8843 28.8982 45.8843 28.827C45.9204 28.827 45.9566 28.827 45.9927 28.827C45.9927 28.8982 45.9927 28.9693 45.9927 29.0049C45.9927 29.0405 45.9927 29.0405 45.9927 29.0761C46.2458 29.1117 46.5351 28.9338 46.7159 28.7202C47.0774 28.7558 47.7283 28.2932 47.8367 28.7558C47.8729 28.7558 47.9091 28.7558 47.9452 28.7558C48.0537 28.5423 48.1622 28.3644 48.2345 28.1508C48.3068 28.1508 48.3068 28.1153 48.3068 28.0441C48.3429 28.0441 48.3791 28.0441 48.4153 28.0441C48.4153 28.1508 48.4514 28.2932 48.4514 28.4C48.5237 28.4 48.5237 28.3999 48.5599 28.3644C48.5599 28.3644 48.6322 28.3288 48.7045 28.2932V25.6597C48.7045 25.2683 48.6322 24.6633 48.2706 24.1651C48.1983 24.2007 47.9814 24.2718 47.8729 24.3074C47.8006 24.3074 47.7644 24.343 47.6921 24.343C47.5113 24.3786 47.3305 24.3786 47.1498 24.4854C46.8605 24.4498 46.6436 24.4142 46.3905 24.5565C46.2097 24.5565 46.0651 24.5921 45.9204 24.6989C45.8481 24.6989 45.8481 24.6633 45.8119 24.6277C45.5227 24.5921 45.1973 24.8056 44.908 24.8412C44.908 24.8768 44.908 24.8768 44.908 24.9124C44.8357 24.9124 44.8357 24.9124 44.8719 24.8412C44.8719 24.8412 44.8357 24.8412 44.7996 24.8412C44.7996 24.9124 44.3295 25.0192 44.221 25.0903C44.1487 25.0548 44.0764 25.0548 44.0041 25.0192C43.9679 25.1259 43.9318 25.1259 43.8595 25.1971C43.751 25.1615 43.6787 25.1615 43.5702 25.1259C43.064 25.1615 42.6301 25.375 42.1601 25.553C42.1239 25.6597 42.0516 25.5174 42.0155 25.4818C41.9793 25.4818 41.9793 25.4818 41.9431 25.4818C41.907 25.5886 41.907 25.553 41.8347 25.5886C41.3285 25.7665 40.7861 25.6597 40.3161 26.0156C40.2438 25.98 40.1715 25.98 40.0991 25.9444C40.063 26.0868 39.0506 26.2291 38.8698 26.3359C38.7613 26.3359 38.8336 26.5138 38.8336 26.585C38.8336 26.585 38.7975 26.585 38.7613 26.585C38.7613 26.6206 38.7613 26.6206 38.7613 26.6562C38.6529 26.6562 38.6167 26.5494 38.5805 26.4427C38.5805 26.4071 38.5805 26.4071 38.5805 26.3715C38.5444 26.3715 38.5082 26.3715 38.4721 26.3715C38.4721 26.4071 38.3636 26.4782 38.1828 26.5138C38.1467 26.4071 37.9659 26.3715 38.002 26.2291C38.0743 26.0156 38.3274 26.1224 38.3998 25.8733C38.3998 25.8377 38.3636 25.8377 38.3636 25.8021C38.3636 25.7665 38.3636 25.7309 38.3636 25.6953C38.3636 25.6241 38.3636 25.5174 38.3998 25.4462C38.4721 25.3039 38.5444 25.1971 38.6167 25.0903C38.6529 24.9836 38.7252 24.8412 38.7613 24.7345C38.7975 24.5921 38.7975 24.5209 38.906 24.3786C39.0506 24.2007 39.1952 24.0227 39.2314 23.8092C39.2675 23.6313 39.1591 23.4177 39.376 23.2754C39.3398 23.2398 39.3037 23.133 39.2675 23.133C39.3037 23.0975 39.3398 23.0619 39.376 23.0619C39.1591 23.0263 39.1591 22.5637 39.0144 22.3857C38.7613 22.0298 38.219 21.7451 37.7851 21.6028C36.7365 21.2825 35.7603 21.9943 34.8925 22.8483C34.8202 22.9195 34.6394 23.0619 34.6033 23.133C34.5671 23.1686 34.6033 23.311 34.6033 23.311C34.531 23.3822 34.4225 23.4533 34.314 23.5601C34.2055 23.7024 34.2055 23.8448 34.0609 23.9871C33.844 24.2007 33.9163 24.1651 33.8078 24.4142C33.7355 24.6277 33.4462 24.9124 33.3739 25.1259C33.4101 25.1615 33.4462 25.1971 33.4462 25.2327C33.4101 25.2327 32.8677 26.0512 32.7954 26.0512C32.7593 26.1224 32.6869 26.1935 32.7593 26.2291C32.7593 26.2291 32.0723 27.7238 32.0361 27.8306C32 28.0441 31.8915 28.0441 31.783 28.2576H31.7469Z" fill="#3B6741"/>
<path d="M1.19299 39.7167L6.11034 38.8626L6.29113 39.9658L1.37377 40.8199L1.55456 41.9231L0.867575 42.0299L0.289062 38.7203L0.976046 38.6135L1.19299 39.7167Z" fill="#3B6741"/>
<path d="M2.89256 33.2043C3.94112 33.2043 5.06198 33.3822 5.06198 34.3431C5.06198 35.3039 3.94112 35.4819 2.89256 35.4819C1.84401 35.4819 0.686983 35.2683 0.686983 34.3431C0.686983 33.4178 1.84401 33.2043 2.89256 33.2043ZM2.92872 32.1011C1.30165 32.1011 0 32.7416 0 34.3787C0 36.0157 1.30165 36.6562 2.92872 36.6562C4.55578 36.6562 5.85744 36.0157 5.85744 34.3787C5.85744 32.7416 4.55578 32.1011 2.92872 32.1011Z" fill="#3B6741"/>
<path d="M6.72592 26.941L2.64017 28.4001C2.2786 28.5424 1.95319 28.6136 1.95319 28.6136C1.95319 28.6136 2.2786 28.6492 2.60402 28.7204L6.18356 29.5033L5.96662 30.4286L0.398438 29.2542L0.61538 28.2221L4.44802 26.8342C4.80959 26.6919 5.09885 26.6563 5.09885 26.6563V26.6207C5.09885 26.6207 4.80959 26.5851 4.52034 26.514L1.15773 25.8022L1.37468 24.877L6.94286 26.0869L6.72592 26.941Z" fill="#3B6741"/>
<path d="M8.64043 22.1367C7.95345 23.5958 6.57948 24.094 4.84394 23.3467C3.18072 22.5994 2.67452 21.1759 3.32535 19.7524C3.6146 19.1118 3.94002 18.7559 4.22927 18.5068L4.66316 19.0762C4.48237 19.2186 4.22927 19.4677 4.01233 19.9303C3.57845 20.8912 3.94002 21.7097 5.31399 22.3503C6.61564 22.9196 7.55572 22.6705 7.91729 21.9232C8.06192 21.6385 8.06192 21.425 8.06192 21.3182L6.36254 20.5709L6.00097 21.3538L5.42246 21.1047L6.21791 19.3609L8.96584 20.6065C9.07432 20.9624 9.002 21.3894 8.64043 22.1367Z" fill="#3B6741"/>
<path d="M13.1259 15.1972C13.0175 15.1261 9.90796 13.2399 9.90796 13.2399C9.6187 13.062 9.36561 12.8485 9.36561 12.8485C9.36561 12.8485 9.58255 13.0976 9.79949 13.4179C9.79949 13.4179 11.9328 16.4428 12.0412 16.5851L11.6435 17.0833C11.4989 17.0478 7.95548 15.731 7.95548 15.731C7.59391 15.5887 7.30466 15.4463 7.30466 15.4463C7.30466 15.4463 7.55775 15.6243 7.81085 15.8734C7.81085 15.8734 10.4142 18.3289 10.5588 18.4357L9.98028 19.2186L5.89453 15.2328L6.58152 14.3431L10.1249 15.6954C10.4865 15.8378 10.7396 15.9446 10.7396 15.9446C10.7396 15.9446 10.5588 15.731 10.3418 15.4463L8.17242 12.3503L8.85941 11.4606L13.7768 14.3431L13.1259 15.1972Z" fill="#3B6741"/>
<path d="M15.0429 10.1794L16.6338 12.03L15.766 12.7417L14.1751 10.8912L10.8125 9.50328L11.7164 8.72036L14.0305 9.82357L13.3796 7.36805L14.2113 6.69189L15.0429 10.1794Z" fill="#3B6741"/>
<path d="M20.3211 6.26487C20.8273 7.19014 21.225 8.22217 20.3934 8.6848C19.5618 9.14743 18.8387 8.29334 18.2963 7.36808C17.7901 6.44281 17.3924 5.37519 18.224 4.91256C19.0556 4.48551 19.7787 5.33961 20.3211 6.26487ZM21.3335 5.73106C20.538 4.34316 19.3449 3.52466 17.8986 4.34316C16.4523 5.12608 16.5246 6.58516 17.3201 7.97306C18.1155 9.36096 19.3449 10.1795 20.755 9.36096C22.2013 8.57804 22.129 7.11896 21.3335 5.73106Z" fill="#3B6741"/>
<path d="M27.7671 6.47837L24.4768 3.70257C24.1514 3.45346 23.9345 3.20435 23.9345 3.20435C23.9345 3.20435 24.0791 3.48904 24.1514 3.80933L25.2 7.2257L24.296 7.5104L22.6328 2.17232L23.6452 1.85203L26.7547 4.48548C27.044 4.73459 27.2248 4.94812 27.2248 4.94812C27.2248 4.94812 27.1163 4.69901 27.0078 4.37872L25.9954 1.14029L26.8993 0.855591L28.5626 6.19367L27.7671 6.47837Z" fill="#3B6741"/>
<path d="M32.9737 5.7666C31.3466 5.90895 30.2257 4.94809 30.045 3.09756C29.9003 1.3182 30.9127 0.179408 32.5036 0.0370591C33.1906 -0.0341153 33.6968 0.0726463 34.0584 0.214995L33.7691 0.891152C33.5522 0.819977 33.2268 0.713216 32.6844 0.78439C31.6359 0.891152 31.0574 1.6029 31.202 3.09756C31.3105 4.52104 31.9974 5.1972 32.8652 5.12603C33.1906 5.09044 33.3714 5.01927 33.4799 4.98368L33.3352 3.16873L32.4675 3.23991L32.359 2.49257L34.3115 2.31464L34.5646 5.26838C34.203 5.55307 33.7691 5.69542 32.9737 5.7666Z" fill="#3B6741"/>
<path d="M41.6167 6.4427C40.4597 6.158 39.8088 5.30391 40.0258 4.30747L40.9297 0.428467L42.0506 0.677577L41.1467 4.52099C41.002 5.09039 41.3636 5.51744 41.8336 5.6242C42.3398 5.73096 42.8099 5.51744 42.9545 4.91245L43.8584 1.06904L44.8708 1.31815L43.9669 5.19715C43.75 6.19359 42.8099 6.69181 41.6167 6.4427Z" fill="#3B6741"/>
<path d="M48.7034 8.89826L48.161 4.66339C48.1248 4.30752 48.1248 3.95164 48.1248 3.95164C48.1248 3.95164 48.0164 4.23634 47.8717 4.55663L46.317 7.79506L45.4492 7.4036L47.8717 2.35022L48.848 2.81285L49.3542 6.79862C49.3903 7.15449 49.3903 7.43919 49.3903 7.43919C49.3903 7.43919 49.4988 7.19008 49.6073 6.90538L51.0536 3.84488L51.9213 4.23634L49.535 9.28972L48.7034 8.89826Z" fill="#3B6741"/>
<path d="M51.1641 10.3573L54.382 5.7666L55.3221 6.40717L52.1041 10.9979L51.1641 10.3573Z" fill="#3B6741"/>
<path d="M55.4653 13.7738L54.7422 13.0976L57.3093 7.75952L58.1771 8.57803L56.4054 11.8876C56.2608 12.1723 56.0438 12.5282 56.0438 12.5282C56.0438 12.5282 56.3693 12.3147 56.6585 12.1367L59.9126 10.215L60.7081 10.9268L55.4653 13.7738Z" fill="#3B6741"/>
<path d="M57.707 16.1224L62.2628 12.7772L64.0345 15.126L63.456 15.553L62.3351 14.0939L60.9612 15.0904L61.9374 16.4071L61.395 16.7986L60.4188 15.4818L58.9364 16.585L60.0572 18.0441L59.4787 18.4712L57.707 16.1224Z" fill="#3B6741"/>
<path d="M65.263 20.6776C64.576 20.9979 63.9975 20.82 63.5998 20.0371C63.5275 19.8947 63.4552 19.7168 63.4552 19.6456L65.4438 18.6847C65.5523 18.7915 65.6607 18.9339 65.7692 19.1474C66.1669 19.8947 65.9861 20.3573 65.263 20.6776ZM62.262 23.5958L63.7083 20.8912C64.1783 21.7097 65.0099 22.0655 65.7692 21.6741C66.7093 21.2114 66.9985 20.2506 66.3116 18.9339C65.9861 18.3289 65.6246 17.8662 65.263 17.5815L60.418 19.9303L60.9242 20.9267L63.2382 19.7879L61.7196 22.457L62.262 23.5958Z" fill="#3B6741"/>
<path d="M63.0235 26.2292C62.8065 25.553 62.8065 25.0548 62.915 24.699L63.7105 24.7701C63.6381 25.0192 63.602 25.3751 63.7466 25.8022C63.9274 26.3716 64.3613 26.6207 64.8675 26.4783C65.2652 26.3716 65.446 26.0513 65.5183 25.3039C65.6268 24.2363 66.133 23.8449 66.6753 23.6669C67.5431 23.4178 68.4832 23.8804 68.7724 24.9481C68.9532 25.5175 68.9171 26.0157 68.8447 26.3004L68.1578 26.2292C68.2301 25.9801 68.2662 25.6242 68.1578 25.2684C68.0131 24.7345 67.6154 24.521 67.1092 24.6634C66.6392 24.8057 66.5307 25.2328 66.4584 25.8022C66.3499 27.0833 65.7714 27.4036 65.2652 27.5459C64.2528 27.9018 63.3489 27.2968 63.0235 26.2292Z" fill="#3B6741"/>
<path d="M63.9258 29.8236L69.5663 29.0406L69.7109 30.1439L64.0704 30.9268L63.9258 29.8236Z" fill="#3B6741"/>
<path d="M69.2787 34.8057L64.2891 34.8413V33.7381L69.2787 33.7025V32.5637H69.9657L70.0019 35.9445H69.3149L69.2787 34.8057Z" fill="#3B6741"/>
<path d="M66.2389 40.0726L63.8164 39.6812L63.9972 38.578L66.4197 38.9694L69.8908 37.8662L69.71 39.0406L67.2152 39.6812L69.3484 41.1402L69.1676 42.1723L66.2389 40.0726Z" fill="#3B6741"/>
<path d="M48.4508 28.3289C48.4508 28.2221 48.4147 28.0798 48.4147 27.973C48.3785 27.973 48.3424 27.973 48.3062 27.973C48.3062 28.0442 48.3062 28.0798 48.2339 28.0798C48.1254 28.2933 48.017 28.4712 47.9446 28.6848C47.9085 28.6848 47.8723 28.6848 47.8362 28.6848C47.7277 28.2221 47.0769 28.6848 46.7153 28.6492C46.5707 28.8627 46.2814 29.0406 45.9922 29.0051C45.9922 28.9695 45.9922 28.9695 45.9922 28.9339C45.9922 28.8627 45.9922 28.8271 45.9922 28.7559C45.956 28.7559 45.9198 28.7559 45.8837 28.7559C45.8475 28.8627 45.8475 29.0762 45.7752 29.0406C45.7752 29.0762 45.7752 29.0762 45.7752 29.1118C45.0882 29.0762 44.4013 29.4321 43.7143 29.5744C43.3165 29.6456 42.9911 29.7168 42.5934 29.788C42.4488 29.8591 42.3041 29.8947 42.1234 29.9659C42.051 29.9659 41.9787 30.0015 41.9064 30.0015C41.7979 30.0015 41.8703 30.1794 41.8341 30.2506C41.8341 30.2506 41.7979 30.2506 41.7618 30.2506C41.7618 30.2862 41.7618 30.2862 41.7618 30.3218C41.6533 30.3218 41.6172 30.215 41.581 30.1083C41.581 30.0727 41.581 30.0727 41.581 30.0371C41.5448 30.0371 41.5087 30.0371 41.4725 30.0371C41.4364 30.215 39.9539 30.393 39.6647 30.6776C39.737 30.6776 39.737 30.6776 39.7008 30.7488C39.5924 30.7132 39.4477 30.6776 39.3393 30.6421C39.3031 30.8556 38.58 30.9268 38.4353 31.0691C38.3992 31.1759 38.3269 31.247 38.2907 31.3538C38.2546 31.3538 38.2184 31.3538 38.1822 31.3538C38.2184 31.247 38.2184 31.1403 38.2546 31.0335C38.2546 31.0335 38.2184 31.0335 38.1822 31.0335C38.1822 30.9979 38.1822 30.9979 38.1822 30.9623C38.1822 30.9623 38.1461 30.9623 38.1099 30.9623C38.1099 30.9979 38.1099 30.9979 38.1099 31.0335C37.8568 30.9979 37.5314 31.2826 37.3145 31.3538C37.1698 31.3538 36.9891 31.3894 36.8444 31.3894C36.6637 31.425 36.4829 31.4962 36.3021 31.5317C36.2298 31.6385 36.1575 31.7453 36.1213 31.852C36.0851 32.03 36.1936 32.1367 36.0851 32.3502C36.049 32.4214 35.9405 32.5282 35.9044 32.5994C35.7959 32.8129 35.8682 33.0264 35.7959 33.2399C35.6874 33.4535 35.5789 33.3823 35.5428 33.6314C35.5066 34.0228 35.6513 34.272 35.362 34.699C35.2535 34.8414 35.1451 34.8769 35.1089 35.0549C35.1089 35.2684 35.2535 35.304 35.1451 35.5531C35.1089 35.6599 35.0004 35.731 34.9643 35.8378C34.9281 36.0157 35.0004 36.0157 35.0004 36.1225C35.0004 36.2648 34.9281 36.4072 34.9643 36.5139C35.0004 36.6207 35.0727 36.6207 35.0727 36.7275C35.1089 36.8342 35.1089 36.8342 35.1089 36.9766C35.1089 37.0122 34.9643 37.2613 34.9643 37.2969C35.0727 37.4392 34.9643 37.7239 34.892 37.9018C34.8196 38.1154 34.8558 38.5068 34.675 38.6136C34.8558 38.7915 34.7835 38.8983 34.7112 39.2186C34.675 39.4321 34.675 39.7168 34.6389 39.9303C34.6389 40.215 34.892 40.4641 34.8196 40.7488C34.7473 40.9268 34.6389 40.8556 34.5304 41.0335C34.4219 41.247 34.5665 41.6029 34.6027 41.8164C34.675 42.2435 34.5665 42.3502 34.4942 42.7417C34.4581 42.9552 34.5304 43.062 34.5665 43.2399C34.675 43.667 34.892 44.0228 35.0004 44.4499C35.0366 44.6634 35.0004 44.699 35.1089 44.9481C35.1812 45.0905 35.2174 45.1972 35.2174 45.304L45.7029 43.1332C47.5831 42.7061 48.7039 41.1403 48.7039 39.8591V28.2221C48.6316 28.2577 48.5593 28.2933 48.5593 28.2933C48.487 28.3289 48.5232 28.3645 48.4508 28.3289Z" fill="#86BE40"/>
<path d="M31.8559 28.1153C31.9644 27.9374 32.0729 27.9374 32.109 27.6883C32.1452 27.5459 32.8322 26.0868 32.8322 26.0868C32.7598 26.0157 32.8322 25.9801 32.8683 25.9089C32.9406 25.8733 33.483 25.0548 33.5191 25.0904C33.483 25.0548 33.483 25.0192 33.4468 24.9836C33.5553 24.7345 33.8084 24.4854 33.8807 24.2719C33.953 24.0228 33.9169 24.094 34.1338 23.8448C34.2784 23.7025 34.2784 23.5246 34.3869 23.4178C34.4592 23.311 34.6039 23.2399 34.6762 23.1687C34.6762 23.1687 34.64 23.0619 34.6762 22.9908C34.7485 22.884 34.8931 22.7772 34.9654 22.7061C35.8332 21.852 36.8094 21.1402 37.858 21.4605C38.2919 21.6029 38.8704 21.8876 39.0873 22.2434C39.232 22.4214 39.232 22.8484 39.4489 22.9196C39.4127 22.9196 39.3766 22.9908 39.3404 22.9908C39.3766 23.0263 39.4127 23.0975 39.4489 23.1331C39.232 23.2755 39.3404 23.489 39.3043 23.6669C39.232 23.8448 39.1235 24.0584 38.9789 24.2363C38.8704 24.3787 38.8704 24.4498 38.8342 24.5922C38.7981 24.6989 38.7258 24.8413 38.6896 24.9481C38.6534 25.0904 38.545 25.1972 38.4727 25.3039C38.4365 25.3751 38.4365 25.4819 38.4365 25.553C38.4365 25.5886 38.4365 25.6242 38.4365 25.6598C38.4365 25.6954 38.4727 25.6954 38.4727 25.731C38.4003 25.9801 38.1472 25.8733 38.0749 26.0868C38.0388 26.1936 38.2196 26.2648 38.2557 26.3715C38.4365 26.336 38.545 26.2648 38.545 26.2292C38.5811 26.2292 38.6173 26.2292 38.6534 26.2292C38.6534 26.2648 38.6534 26.2648 38.6534 26.3004C38.6896 26.3715 38.7258 26.4783 38.8342 26.5139C38.8342 26.4783 38.8342 26.4783 38.8342 26.4427C38.8704 26.4427 38.8704 26.4427 38.9065 26.4427C38.9065 26.3715 38.8704 26.1936 38.9427 26.1936C39.0873 26.1224 40.1359 25.9445 40.172 25.8021C40.2443 25.8377 40.3167 25.8733 40.389 25.8733C40.8229 25.4819 41.4014 25.6242 41.9076 25.4463C41.9799 25.4107 41.9799 25.4463 42.016 25.3395C42.016 25.3395 42.0522 25.3395 42.0884 25.3395C42.1245 25.3751 42.1968 25.553 42.233 25.4107C42.703 25.2328 43.1369 25.0192 43.6431 24.9836C43.7154 25.0192 43.8239 25.0192 43.9324 25.0548C44.0047 24.9836 44.077 24.9836 44.077 24.8769C44.1493 24.9125 44.2216 24.9481 44.2939 24.9481C44.4024 24.8769 44.8363 24.7701 44.8724 24.6989C44.9086 24.6989 44.9086 24.6989 44.9448 24.6989C44.9448 24.7701 44.9086 24.7701 44.9809 24.7701C44.9809 24.7345 44.9809 24.7345 44.9809 24.6989C45.2702 24.6278 45.5956 24.4498 45.8848 24.4854C45.921 24.521 45.921 24.5566 45.9933 24.5566C46.1379 24.4498 46.2826 24.4142 46.4634 24.4142C46.7165 24.3075 46.9334 24.3431 47.2227 24.3431C47.4034 24.2007 47.5842 24.2007 47.765 24.2007C47.8012 24.2007 47.8735 24.2007 47.9458 24.1651C48.0181 24.1295 48.2351 24.0584 48.3435 24.0228C47.8012 23.2043 47.2227 22.884 46.5357 22.6349L25.0222 16.6207C22.7082 15.9445 20.9727 17.795 20.9727 19.432V44.6634C20.9727 46.3004 22.672 47.8662 24.516 47.5103L27.5171 46.9053V46.8698C27.5532 46.7274 27.4448 46.5851 27.5171 46.4427C27.4809 46.4071 27.4448 46.3715 27.4448 46.336C27.4809 46.2648 27.5171 46.1936 27.5894 46.1936C27.5171 46.0157 27.5171 45.8377 27.5894 45.6954C27.5532 45.6598 27.5532 45.6242 27.4448 45.5886C27.5171 44.7701 27.5532 43.9872 27.5532 43.2043C27.6255 42.9908 27.6979 42.8128 27.734 42.6349C27.6979 42.5993 27.6617 42.5993 27.6617 42.5637C27.6255 42.5637 27.734 42.1011 27.7702 42.0299C27.7702 41.9587 27.734 41.8876 27.734 41.8164C27.7702 41.7452 27.8786 41.674 27.8786 41.5673C27.8786 41.4605 27.8063 41.4249 27.8063 41.3537C27.8063 41.1758 27.9148 40.9979 27.9871 40.8199C28.0956 40.5352 28.1679 40.1794 28.1317 39.8947C28.1679 39.8947 28.1679 39.8947 28.2041 39.8591C28.1317 39.8591 28.3125 39.2185 28.3125 39.1829C28.3848 38.9694 28.5295 38.6847 28.3848 38.4712C28.6379 38.4 28.5295 38.2577 28.5295 38.0797C28.4933 37.6171 28.7103 37.1545 28.8187 36.6918C28.8549 36.5139 29.1803 36.3715 29.1803 36.1224C29.1803 36.0157 29.0357 35.8733 29.0357 35.7666C29.0718 35.5886 29.2526 35.6598 29.2165 35.4107C29.1803 35.1972 28.9995 35.1972 29.108 34.9836C29.1803 34.8057 29.4334 34.7345 29.5057 34.5566C29.578 34.4142 29.578 34.2007 29.578 34.094C29.578 33.8804 29.5057 33.7737 29.6142 33.5957C29.7227 33.3822 29.9034 33.2399 30.0119 33.0619C30.1204 32.8484 30.0481 32.8484 30.0119 32.7416C29.8311 32.8128 29.6503 32.8484 29.4696 32.9196C29.2165 32.9552 28.9272 32.9552 28.6741 32.9908C28.4572 33.0263 28.2764 33.1331 28.0594 33.1687C27.8786 33.1687 27.6979 33.2043 27.5171 33.2043C27.5171 33.2043 27.5171 33.2043 27.4809 33.2043C27.0832 33.2755 26.7216 33.4178 26.3239 33.4534C26.0708 33.489 25.89 33.4534 25.6369 33.5602C25.4561 33.6313 25.2753 33.7381 25.0946 33.8093C24.7691 33.9516 24.4799 34.0228 24.1183 34.1295C24.0098 34.1651 23.9014 34.2719 23.7929 34.2363C23.7929 34.3075 23.7929 34.3787 23.7929 34.4142C23.3229 34.4142 22.8167 34.5922 22.3828 34.3787C22.0935 34.2363 22.0935 33.5957 21.9127 33.5602C22.0574 33.1331 22.1658 32.6705 22.202 32.2078C22.202 32.1367 22.202 32.1367 22.2743 32.1367C22.2743 32.1723 22.2743 32.1723 22.2743 32.2078C22.3466 32.2078 22.4189 32.2078 22.4913 32.2434C22.672 31.9587 23.5036 31.1758 23.7929 31.1758C23.8291 31.2114 23.8291 31.247 23.8652 31.1758C23.9014 31.2114 23.9737 31.3182 24.046 31.3182C24.046 31.2826 24.046 31.2826 24.046 31.247C24.0822 31.247 24.0822 31.247 24.1183 31.247C24.1545 31.1402 24.1545 30.9267 24.2268 30.9623C24.2268 30.8911 24.2268 30.8911 24.2991 30.8911C24.5884 30.9979 24.9861 30.5352 25.2753 30.4285C25.42 30.3573 25.9262 30.4285 25.9262 30.4285C25.9985 30.3929 26.0346 30.3929 26.0708 30.3217C26.1793 30.3573 26.2877 30.4285 26.3962 30.4641C26.5047 30.3217 26.6132 30.1794 26.6855 30.037C26.8301 29.9303 27.5171 29.6456 27.5532 29.5744C27.6255 29.5744 27.6617 29.5744 27.734 29.5744C27.734 29.6811 27.6979 29.8235 27.8063 29.8235C27.8063 29.8591 27.8063 29.8591 27.8063 29.8947C27.951 29.7523 27.8786 29.5744 27.9148 29.3965C27.951 29.3965 27.9871 29.3965 28.0233 29.3965C28.0956 29.4676 28.1317 29.61 28.2764 29.61C28.2764 29.5744 28.2764 29.5744 28.2764 29.5388C28.3125 29.5388 28.3125 29.5388 28.3487 29.5388C28.4933 29.2185 28.891 29.0762 29.1441 29.005C29.2888 28.9694 29.3972 28.8982 29.4334 28.8626C29.9034 29.005 29.9758 28.7559 30.4096 28.6135C30.6627 28.5424 30.8797 28.4712 31.1328 28.3644C31.3136 28.2577 31.639 28.1153 31.8198 28.1509L31.8559 28.1153Z" fill="#37A048"/>
<path d="M54.7435 26.1224C54.7074 26.2292 54.7797 26.1936 54.852 26.1936C54.852 26.0868 54.8882 25.9445 54.8882 25.8021C54.9966 25.8021 55.069 25.6953 55.2136 25.6598C55.3221 25.1615 55.2497 24.8057 55.9367 24.9836C55.9729 24.8057 55.9367 24.7701 56.0814 24.6277H56.1175C56.1898 24.3074 56.226 24.3786 56.3706 24.0939C56.5514 24.0939 56.8406 24.3074 56.8406 24.4854C56.9491 24.4854 56.9853 24.3074 57.0214 24.2007C57.0576 24.2007 57.2384 23.9516 56.9491 23.9516C56.9853 23.7736 57.0576 23.738 57.1661 23.5957C57.0576 23.5957 57.0214 23.5245 56.9491 23.4534C56.696 23.1687 57.1299 22.7416 57.383 22.5637C57.383 22.5281 57.383 22.4925 57.4192 22.4569C57.383 22.4569 57.3468 22.4569 57.3107 22.4569C57.0214 22.6348 56.696 22.5993 56.4068 22.7416C56.1537 22.706 55.9729 22.8484 55.7921 22.9195C55.3944 23.0263 54.9966 23.0619 54.5628 23.1687C54.4181 23.2042 54.2735 23.2754 54.1289 23.311C53.8035 23.3822 53.5142 23.2754 53.1888 23.2754C52.7911 23.3466 52.3933 23.4178 51.9956 23.4889C51.851 23.4889 51.7425 23.4889 51.5979 23.4889C51.4894 23.5245 51.4533 23.5601 51.3809 23.6669C51.3086 23.6669 51.3448 23.6313 51.3086 23.738C51.2002 23.7025 51.0917 23.6313 50.9832 23.5957C50.9471 23.7025 50.7301 23.6669 50.6216 23.6669C50.477 23.7025 50.3685 23.7736 50.2239 23.8092C49.79 23.8448 49.3923 23.8804 48.9584 23.916C48.7053 23.9872 48.5968 24.0227 48.3438 24.0939C48.7053 24.5921 48.7776 25.1971 48.7776 25.5886V28.222C48.9584 28.1153 49.2838 27.9729 49.32 27.9373C49.32 27.9729 49.32 28.0441 49.3561 28.0441C49.3923 28.0797 49.4646 28.1153 49.5008 28.1153C49.5008 28.0797 49.5008 28.0797 49.5008 28.0441C49.6092 28.0441 49.5731 27.9729 49.6092 27.8662C49.8262 27.2612 50.0793 27.6882 50.4047 27.6171C50.6578 27.5459 50.8386 27.3324 51.0555 27.1544C51.0555 27.0832 51.0555 27.0832 51.1278 27.0832C51.1278 27.1544 51.0917 27.1544 51.164 27.1544C51.164 27.2612 51.164 27.3679 51.164 27.4747C51.2002 27.4747 51.2363 27.4747 51.2725 27.4747C51.3086 27.2256 51.3809 27.0832 51.4171 26.7985C51.5617 26.7985 51.9956 26.8697 52.0318 27.0121C52.0679 27.0121 52.1041 27.0121 52.1402 27.0121C52.1764 26.763 52.5018 26.9765 52.6464 26.9765C52.6464 26.9053 52.6826 26.8697 52.6826 26.7985C52.6826 26.763 52.6826 26.7274 52.7188 26.6918C52.7549 26.6918 52.7911 26.6918 52.8272 26.6918C52.8272 26.763 52.8272 26.7985 52.8272 26.8697C53.1526 26.9053 53.1526 26.2647 53.4419 26.585C53.478 26.585 53.478 26.585 53.5142 26.585C53.5142 26.5138 53.5142 26.4427 53.5142 26.4071C53.5504 26.4071 53.5504 26.4071 53.5865 26.4071C53.6227 26.3003 53.695 26.2292 53.6227 26.0868C53.5504 26.0868 53.5142 26.0868 53.4419 26.1224C53.3696 26.1224 53.3696 26.1224 53.4057 26.0512C53.3334 26.0512 53.6227 25.6598 53.6227 25.6242C53.6588 25.6242 53.6588 25.6242 53.695 25.6242C53.695 25.6953 53.695 25.8021 53.695 25.8733C53.7311 25.8733 53.7673 25.8733 53.8035 25.8733C53.8758 25.5174 54.382 25.3039 54.382 25.4106C54.4181 25.4106 54.4543 25.4106 54.4904 25.4106C54.5989 25.6598 54.5989 25.9089 54.7435 26.1224Z" fill="#90A944"/>
<path d="M36.2314 51.3537C36.2675 51.3893 36.4845 51.3537 36.5568 51.3537C36.6653 51.3537 36.7737 51.3537 36.8822 51.3537C37.2438 51.3893 37.6053 51.4605 38.0031 51.3893C38.4731 51.3181 38.8347 51.3893 39.2686 51.3537C39.6301 51.3181 39.9917 51.2114 40.3533 51.2114C40.3894 51.2114 40.4256 51.2114 40.4979 51.2114C40.5341 51.2114 40.5702 51.1758 40.6064 51.1758C40.6787 51.1758 40.6787 51.1758 40.751 51.1758C40.751 51.1758 40.751 51.1758 40.7872 51.1758C40.8595 51.1758 41.0764 51.1046 41.0403 51.0334C41.0764 51.0334 41.1126 50.9978 41.1487 50.9978C41.221 50.9978 41.221 50.9978 41.2934 50.9978C41.2934 50.9978 41.2934 50.9978 41.3295 50.9978C41.4018 50.9978 41.6188 50.9267 41.5826 50.8555C41.5465 50.8199 41.3657 50.8199 41.2934 50.8199C41.221 50.8199 41.0764 50.8555 40.9679 50.8555C40.8956 50.8555 40.7872 50.8555 40.6787 50.8911C40.6425 50.8911 40.6064 50.9267 40.6064 50.9267C40.5341 50.9267 40.5341 50.8911 40.4979 50.8911C40.4617 50.8555 40.3894 50.8911 40.3533 50.9267C40.281 50.9623 40.3171 50.9267 40.281 50.9267H40.2448C40.2086 50.9267 40.2086 50.8911 40.2086 50.8911C40.1363 50.9267 40.064 50.9267 39.9917 50.9267C39.9555 50.8911 39.8832 50.8911 39.8471 50.8911C39.8109 50.8911 39.8109 50.8555 39.7748 50.8555C40.1725 50.8199 40.3533 50.8555 40.751 50.8199C41.1126 50.7843 41.4741 50.6776 41.8357 50.6776C41.8719 50.6776 41.908 50.6776 41.9803 50.6776C42.0165 50.6776 42.0527 50.642 42.0888 50.642C42.1611 50.642 42.1611 50.642 42.2334 50.642C42.2334 50.642 42.2334 50.642 42.2696 50.642C42.3419 50.642 42.5588 50.5708 42.5227 50.4996C42.4865 50.464 42.3058 50.464 42.2334 50.464C42.1611 50.464 42.0165 50.4996 41.9442 50.4996C41.8719 50.4996 41.7634 50.4996 41.6549 50.5352C41.6188 50.5352 41.5826 50.5708 41.5465 50.5708C41.4741 50.5708 41.4741 50.5352 41.438 50.5352C41.4018 50.4996 41.3295 50.5352 41.2934 50.5708C41.221 50.6064 41.2572 50.5708 41.221 50.5708H41.1849C41.1487 50.5708 41.1487 50.5352 41.1487 50.5352C41.0764 50.5708 41.0041 50.5708 40.9318 50.5708C40.8956 50.5352 40.8233 50.5352 40.7872 50.5352C40.751 50.5352 40.7148 50.4996 40.7148 50.4996L40.6425 50.5352C40.6064 50.5352 40.4979 50.4996 40.4617 50.4996C40.3894 50.4996 40.281 50.4996 40.2086 50.4996C40.1363 50.4996 40.064 50.464 39.9917 50.5352C39.9194 50.5708 39.8832 50.5352 39.8109 50.4996C39.7748 50.4996 39.7386 50.464 39.7024 50.464C39.6663 50.464 39.6301 50.464 39.594 50.464C39.5578 50.464 39.5578 50.4284 39.5217 50.4284C39.4493 50.4284 39.4132 50.464 39.4132 50.4996L39.3047 50.5352C39.2686 50.5352 39.3047 50.4996 39.2686 50.464C39.2324 50.4284 39.2324 50.3573 39.1239 50.3573C39.0878 50.3573 39.0516 50.3929 39.0516 50.3929C38.9431 50.4284 38.9793 50.3929 38.907 50.3573C38.907 50.3573 38.8347 50.2505 38.7985 50.2861C38.69 50.3929 38.7262 50.3217 38.6539 50.2861C38.5454 50.2861 38.5093 50.2861 38.4008 50.2861C38.3646 50.2861 38.3646 50.2861 38.3285 50.2861C38.2923 50.2861 38.22 50.2861 38.22 50.2505C38.1477 50.2505 38.0754 50.2149 38.0031 50.2149C37.9669 50.2149 37.9307 50.2149 37.8584 50.2149H37.8223C37.7861 50.2149 37.7861 50.2149 37.75 50.2149C37.6777 50.1793 37.6415 50.1437 37.5692 50.1437C37.533 50.1437 37.4607 50.1437 37.3884 50.1437C37.3161 50.1437 37.2438 50.1437 37.1353 50.1082C37.0991 50.037 36.9545 50.037 36.846 50.037C36.8099 50.037 36.8099 50.0014 36.8099 50.0014C36.8822 50.0014 36.9545 50.037 36.9907 50.037C37.0268 50.037 37.0991 50.0014 37.1353 50.037C37.1715 50.0726 37.1715 50.1082 37.2438 50.1082C37.3884 50.1437 37.533 50.1082 37.7138 50.1082C37.8584 50.1082 37.9669 50.1793 38.1115 50.1793C38.22 50.1793 38.4369 50.1793 38.5093 50.2505C38.5454 50.2861 38.7624 50.2505 38.8347 50.2505C38.9431 50.2505 39.0516 50.2505 39.1601 50.2505C39.5217 50.2861 39.8832 50.3573 40.281 50.2861C40.4256 50.2505 40.5702 50.2505 40.7148 50.2505C40.7148 50.2505 40.751 50.2505 40.751 50.2861C40.7872 50.3217 41.0041 50.2861 41.0764 50.2861C41.1849 50.2861 41.2934 50.2861 41.4018 50.2861C41.7996 50.3217 42.125 50.3929 42.5227 50.3217C42.9927 50.2505 43.3543 50.3217 43.7882 50.2861C44.1498 50.2505 44.5113 50.1437 44.8729 50.1437C44.9091 50.1437 44.9452 50.1437 45.0175 50.1437C45.0537 50.1437 45.0898 50.1082 45.126 50.1082C45.1983 50.1082 45.1983 50.1082 45.2706 50.1082C45.2706 50.1082 45.2706 50.1082 45.3068 50.1082C45.3791 50.1082 45.596 50.037 45.5599 49.9658C45.5237 49.9302 45.3429 49.9302 45.2706 49.9302C45.1983 49.9302 45.0537 49.9658 44.9814 49.9658C44.9091 49.9658 44.8006 49.9658 44.6921 50.0014C44.656 50.0014 44.6198 50.037 44.5836 50.037C44.5113 50.037 44.5113 50.0014 44.4752 50.0014C44.439 49.9658 44.3667 50.0014 44.3305 50.037C44.2582 50.0726 44.2944 50.037 44.2582 50.037C44.2582 50.037 44.2221 50.037 44.1859 50.037C44.1498 50.037 44.1498 50.0014 44.1498 50.0014C44.0774 50.037 44.0051 50.037 43.9328 50.037C43.8967 50.0014 43.8243 50.0014 43.7882 50.0014C43.752 50.0014 43.7159 49.9658 43.7159 49.9658C43.7159 49.9658 43.6436 50.0014 43.6074 50.0014C43.6074 50.0014 43.4628 49.9658 43.4266 49.9658C43.3905 49.9658 43.3543 49.9658 43.282 49.9658C43.2458 49.9302 43.065 49.9302 42.9927 49.9302C42.9204 49.9302 42.8119 49.9302 42.7396 49.9658C42.7396 49.9658 42.7396 49.9658 42.7035 49.9658C42.6673 49.9658 42.6312 49.9658 42.595 49.9658C42.5589 49.9658 42.5588 49.9302 42.5227 49.9302C42.4865 49.9302 42.4142 49.9302 42.4142 49.9658C42.3781 49.9658 42.3419 50.0014 42.3419 50.0014C42.3057 50.0014 42.3057 50.0014 42.3057 50.0014V49.9658C42.2696 49.9302 42.2696 49.8591 42.1611 49.8591C42.125 49.8591 42.0888 49.8946 42.0888 49.8946C41.9803 49.9302 42.0165 49.8946 41.9442 49.8591C41.9442 49.8591 41.8719 49.7523 41.8357 49.7879C41.7272 49.8946 41.7634 49.8235 41.6911 49.8235C41.5826 49.7879 41.5465 49.8235 41.438 49.8235C41.4018 49.8235 41.2934 49.7879 41.2572 49.7879C41.1849 49.7879 41.1126 49.7523 41.0403 49.7523C40.9679 49.7523 40.8595 49.7523 40.8233 49.7523C40.751 49.7167 40.751 49.6811 40.6787 49.6811C40.6425 49.6811 40.5341 49.6811 40.4617 49.6811L40.4979 49.6455C40.5341 49.6455 40.5341 49.6455 40.5702 49.6455C40.6064 49.6455 40.6064 49.6455 40.6425 49.6455C40.6787 49.6455 40.7148 49.6455 40.751 49.6455C40.7872 49.6455 40.8595 49.6455 40.8956 49.6099C40.8956 49.5744 40.8595 49.5744 40.8233 49.5744C40.751 49.5744 40.751 49.5744 40.7148 49.5388C40.7872 49.5388 40.8595 49.5032 40.9318 49.5032C41.0041 49.5032 41.1126 49.5388 41.1849 49.5744C41.2572 49.6099 41.2572 49.6455 41.3295 49.6455C41.3295 49.6455 41.5465 49.6099 41.5465 49.5744C41.5465 49.5744 41.5465 49.5744 41.5826 49.6099C41.6188 49.5744 41.6549 49.6099 41.6911 49.6099C41.7272 49.6455 41.7996 49.6099 41.8357 49.6455C41.8719 49.6099 41.908 49.6811 41.9442 49.6099C42.125 49.6811 42.3057 49.6455 42.5227 49.6811C42.5588 49.6455 42.595 49.6811 42.6312 49.6811C42.6673 49.7167 42.7758 49.6811 42.8481 49.6811C42.8843 49.6811 42.8843 49.6811 42.9204 49.6811C42.9566 49.6811 42.9566 49.6811 42.9927 49.6811C43.0289 49.6811 43.065 49.6811 43.1012 49.6811C43.1374 49.6811 43.2097 49.6811 43.2458 49.6455C43.2458 49.6099 43.2097 49.6099 43.1735 49.6099C43.1012 49.6099 43.1012 49.6099 43.065 49.5744C43.0289 49.5388 43.0289 49.5744 42.9927 49.5744C42.9566 49.5388 42.8843 49.5744 42.8481 49.5388C42.7035 49.6099 42.5227 49.3964 42.3781 49.432C42.3781 49.432 42.2696 49.4676 42.2696 49.5032C42.2334 49.5032 42.2334 49.4676 42.1973 49.4676C42.1973 49.4676 42.1973 49.432 42.1611 49.432C42.125 49.432 42.125 49.432 42.0888 49.432C42.0527 49.432 41.9803 49.432 41.9442 49.432C41.9442 49.432 41.9442 49.3964 41.908 49.3964H41.8719C41.8357 49.3964 41.7996 49.432 41.7634 49.432C41.7272 49.432 41.6549 49.4676 41.6188 49.4676C41.5826 49.4676 41.6188 49.432 41.5826 49.432C41.5465 49.432 41.5103 49.432 41.5103 49.3964C41.4741 49.3608 41.438 49.3252 41.3657 49.3252C41.2934 49.3252 41.2572 49.3964 41.1849 49.3608C41.3295 49.1473 40.751 49.2185 40.6787 49.2185C40.6425 49.2185 40.6064 49.1829 40.5341 49.1829C40.4617 49.1829 40.4256 49.1829 40.3533 49.1829C40.281 49.1829 40.281 49.1117 40.2086 49.1117C40.1725 49.1117 40.1002 49.1473 40.0279 49.1473C39.9555 49.1473 39.9555 49.1473 39.9194 49.1117C39.8471 49.0761 39.7748 49.005 39.6663 49.005C39.594 49.005 39.594 49.0405 39.5578 49.005C39.5217 48.9694 39.5217 48.9338 39.4855 48.9338C39.4132 48.8982 39.3047 48.9338 39.2324 48.9338C39.1601 48.8982 39.0516 48.827 38.9793 48.7914C38.9431 48.7914 38.907 48.7203 38.907 48.6847C38.907 48.6491 38.9793 48.6491 38.9793 48.6491C39.0516 48.6135 39.0878 48.6847 39.1239 48.6847C39.1962 48.6847 39.2324 48.6847 39.3047 48.6847C39.4132 48.7203 39.4132 48.827 39.594 48.827C39.6301 48.827 39.6663 48.8982 39.7024 48.8626C39.7386 48.827 39.7024 48.827 39.7024 48.827C39.7024 48.7914 39.7748 48.827 39.8109 48.827C39.8471 48.8626 39.8471 48.8626 39.8832 48.8982C39.9194 48.8982 39.9555 48.8982 39.9917 48.8982C40.0279 48.8982 40.1363 48.8982 40.1002 48.8626C40.1002 48.827 40.064 48.8626 40.064 48.827C40.0279 48.7914 39.9917 48.7558 39.9555 48.7203C39.9194 48.6847 39.8471 48.6847 39.7748 48.6847C39.7386 48.6847 39.7024 48.6491 39.6663 48.6491C39.6301 48.6135 39.594 48.6135 39.5578 48.6135C39.5217 48.5779 39.4855 48.5779 39.4132 48.5779C39.377 48.5779 39.377 48.5423 39.3409 48.5067C39.3409 48.5067 39.3409 48.5067 39.3047 48.4711C39.3047 48.4711 39.3047 48.4712 39.3047 48.4356C39.2324 48.4 39.1962 48.4712 39.1239 48.4356C39.0878 48.4 39.1239 48.3288 39.0878 48.3288C39.0516 48.2932 38.9431 48.2932 38.8708 48.2576C38.7624 48.222 38.7624 48.222 38.7262 48.1509C38.69 48.1153 38.69 48.1509 38.6539 48.1153C38.6177 48.0797 38.5454 47.9729 38.4731 48.0797C38.4369 48.0797 38.4008 48.0441 38.4008 48.0085C38.2923 48.0441 38.22 48.0797 38.3285 48.1509C38.3646 48.1865 38.4008 48.1509 38.4731 48.1509C38.5093 48.1509 38.5093 48.1865 38.5454 48.222C38.6177 48.2576 38.7262 48.2576 38.7624 48.3288C38.7985 48.4356 38.6539 48.4711 38.6177 48.4C38.5816 48.4 38.5093 48.4356 38.4731 48.4C38.4369 48.4 38.4369 48.3288 38.4008 48.3288C38.3285 48.2932 38.2562 48.2932 38.1838 48.2932C38.1477 48.2932 38.0031 48.3288 37.9669 48.2932C37.9669 48.2932 38.0031 48.222 37.9669 48.1865C37.9308 48.1509 37.8584 48.1509 37.8223 48.1153C37.8223 48.1153 37.75 47.9729 37.8223 47.9729C37.8946 47.9729 38.0754 48.0441 38.1115 47.9729C38.1477 47.9018 38.0754 47.9373 38.0392 47.9018C37.9669 47.8306 37.9307 47.7594 37.8223 47.7238C37.75 47.7238 37.6777 47.6882 37.6053 47.6526C37.5692 47.6171 37.6415 47.5459 37.5692 47.5103C37.533 47.4747 37.4607 47.4747 37.4246 47.4747C37.3884 47.4391 37.3884 47.4035 37.3161 47.3679C37.2799 47.3679 37.2438 47.3679 37.2076 47.3679C37.1353 47.3324 37.0991 47.2612 37.0268 47.2256C36.9545 47.19 36.9545 47.2256 36.8822 47.19C36.7737 47.0833 36.7737 47.0121 36.6291 46.9765C36.5929 46.9765 36.5206 46.9765 36.4845 46.9409C36.4483 46.9053 36.4845 46.8341 36.376 46.7986C36.3398 46.7986 36.3037 46.7985 36.2675 46.763C36.2314 46.7274 36.2314 46.7274 36.1952 46.6918C36.1591 46.6562 36.1229 46.6562 36.0867 46.6206C36.0506 46.585 36.0867 46.5494 36.0867 46.5139C36.0867 46.4783 36.0867 46.4783 36.0506 46.4427L35.9421 46.4071C35.9421 46.3359 35.8336 46.3003 35.7975 46.2647C35.7252 46.2292 35.689 46.158 35.6167 46.158L35.5805 46.1224C35.5805 46.0512 35.5444 46.0512 35.4721 45.98C35.4721 45.98 35.4721 45.98 35.4721 45.9445C35.4359 45.9089 35.4359 45.8733 35.4359 45.8733C35.3636 45.6598 35.3998 45.5174 35.3998 45.3395L27.626 46.9765C27.626 46.9765 27.626 46.9765 27.626 47.0121C27.626 47.0121 27.626 47.0121 27.5898 47.0477C27.5898 47.0477 27.5898 47.0477 27.626 47.0833C27.6622 47.1188 27.6622 47.19 27.7345 47.19V47.2256C27.7706 47.2256 27.7706 47.2256 27.8068 47.2256C27.8429 47.2968 27.8791 47.3324 27.9153 47.3679C27.9153 47.4035 27.9153 47.4035 27.9153 47.4391C27.9876 47.5103 28.0599 47.6171 28.1684 47.6882C28.3491 48.3288 28.6022 48.9338 29.1084 49.3964C30.2293 50.4284 32.3987 51.4605 36.2314 51.3537Z" fill="#90A944"/>
<path d="M31.7469 28.2576C31.5299 28.222 31.2407 28.3999 31.0599 28.4711C30.8429 28.5423 30.5898 28.6135 30.3367 28.7202C29.9029 28.8626 29.8305 29.1117 29.3605 28.9693C29.3605 29.0405 29.252 29.0761 29.0712 29.1117C28.8181 29.2185 28.4204 29.3252 28.2758 29.6455C28.2758 29.6455 28.2396 29.6455 28.2035 29.6455C28.2035 29.6811 28.2035 29.6811 28.2035 29.7167C28.095 29.7167 28.0227 29.6099 27.9504 29.5032C27.9142 29.5032 27.8781 29.5032 27.8419 29.5032C27.8058 29.6811 27.8781 29.8234 27.7334 30.0014C27.7334 29.9658 27.7334 29.9658 27.7334 29.9302C27.625 29.9302 27.6611 29.7879 27.6611 29.6811C27.5888 29.6811 27.5527 29.6811 27.4803 29.6811C27.4442 29.7523 26.7572 30.037 26.6126 30.1437C26.5041 30.2861 26.3956 30.4284 26.3233 30.5708C26.2148 30.5352 26.1064 30.464 25.9979 30.4284C25.9617 30.4996 25.9256 30.4996 25.8533 30.5352C25.8533 30.5352 25.3471 30.4996 25.2024 30.5352C24.9132 30.6419 24.4793 31.1046 24.2262 30.9978C24.1539 30.9978 24.1901 30.9622 24.1539 31.069C24.0454 31.069 24.0454 31.2825 24.0454 31.3537C24.0093 31.3537 24.0093 31.3537 23.9731 31.3537C23.9731 31.3893 23.9731 31.3893 23.9731 31.4249C23.9008 31.4249 23.8285 31.3181 23.7923 31.2825C23.7923 31.3537 23.7562 31.3181 23.72 31.2825C23.3946 31.2469 22.5991 32.0654 22.4184 32.3501C22.346 32.3501 22.2737 32.3501 22.2014 32.3145C22.2014 32.279 22.2014 32.279 22.2014 32.2434C22.1291 32.2434 22.1653 32.2078 22.1291 32.3145C22.0929 32.7416 21.9845 33.2398 21.8398 33.6669C22.0206 33.7024 22.0206 34.3074 22.3099 34.4854C22.7438 34.7345 23.25 34.5209 23.72 34.5209C23.72 34.4498 23.72 34.3786 23.72 34.343C23.8285 34.343 23.937 34.2718 24.0454 34.2362C24.3708 34.1295 24.6962 34.0227 25.0217 33.916C25.2024 33.8448 25.3832 33.738 25.564 33.6669C25.781 33.5957 25.9979 33.5957 26.251 33.5601C26.6487 33.5245 27.0103 33.3466 27.408 33.311C27.408 33.311 27.408 33.311 27.4442 33.311C27.625 33.311 27.8058 33.2754 27.9865 33.2754C28.2035 33.2042 28.4204 33.133 28.6012 33.0975C28.8543 33.0619 29.1436 33.0263 29.3967 33.0263C29.5774 32.9551 29.7582 32.9195 29.939 32.8483C29.9752 32.9551 30.0475 32.9551 29.939 33.1686C29.8305 33.3822 29.6498 33.5245 29.5413 33.7024C29.469 33.8804 29.5051 33.9871 29.5051 34.2007C29.5051 34.3074 29.469 34.5565 29.4328 34.6633C29.3605 34.8412 29.1074 34.9124 29.0351 35.0903C28.9266 35.3395 29.1074 35.3395 29.1436 35.5174C29.1797 35.7665 28.9989 35.6953 28.9628 35.8733C28.9628 35.9444 29.1074 36.1224 29.1074 36.2291C29.0712 36.4782 28.782 36.6206 28.7458 36.7985C28.6374 37.2612 28.4204 37.7238 28.4566 38.1864C28.4566 38.3644 28.5651 38.5067 28.312 38.5779C28.4566 38.7914 28.3119 39.0761 28.2396 39.2896C28.2396 39.3252 28.0589 40.0014 28.1312 39.9658C28.095 39.9658 28.095 39.9658 28.0589 40.0014C28.095 40.3217 28.0227 40.6419 27.9142 40.9266C27.8419 41.1046 27.7334 41.2825 27.7334 41.4604C27.7334 41.5316 27.8058 41.5672 27.8058 41.674C27.8058 41.7807 27.6973 41.8163 27.6611 41.9231C27.625 41.9943 27.6973 42.0654 27.6973 42.1366C27.6973 42.1722 27.5888 42.6348 27.5888 42.6704C27.625 42.706 27.6611 42.706 27.6611 42.7416C27.5888 42.9195 27.5165 43.133 27.4803 43.311C27.4803 44.0939 27.4442 44.8768 27.3719 45.6953C27.4803 45.7309 27.4803 45.7665 27.5165 45.8021C27.4803 45.9444 27.4803 46.1224 27.5165 46.3003C27.4442 46.3359 27.3719 46.3715 27.3719 46.4427C27.408 46.4782 27.4442 46.5138 27.4442 46.5494C27.3357 46.6918 27.4803 46.8341 27.4442 46.9765V47.0121L35.2179 45.375C35.2179 45.2683 35.1818 45.1615 35.1095 45.0192C35.001 44.7701 35.0372 44.7345 35.001 44.5209C34.9287 44.0939 34.6756 43.738 34.5671 43.311C34.531 43.133 34.4586 43.0263 34.4948 42.8128C34.5671 42.4213 34.6756 42.3145 34.6033 41.8875C34.5671 41.674 34.4225 41.3181 34.531 41.1046C34.6033 40.9622 34.7479 40.9978 34.8202 40.8199C34.8925 40.5352 34.6394 40.2861 34.6394 40.0014C34.6394 39.7523 34.6394 39.5032 34.7117 39.2896C34.7841 39.0049 34.8564 38.8982 34.6756 38.6846C34.8564 38.5779 34.8202 38.1864 34.8925 37.9729C34.9648 37.795 35.1095 37.5459 34.9648 37.3679C34.9648 37.3323 35.1095 37.0832 35.1095 37.0476C35.1456 36.9053 35.1095 36.9053 35.0733 36.7985C35.0372 36.6918 34.9648 36.6918 34.9648 36.585C34.9648 36.4782 35.0372 36.3003 35.001 36.1935C35.001 36.0512 34.9287 36.0512 34.9648 35.9088C35.001 35.8021 35.1095 35.7309 35.1456 35.6241C35.2541 35.3395 35.0733 35.3395 35.1095 35.1259C35.1456 34.948 35.2541 34.9124 35.3626 34.7701C35.6518 34.343 35.471 34.1295 35.5434 33.7024C35.5795 33.4533 35.688 33.4889 35.7965 33.311C35.9049 33.0975 35.8326 32.8839 35.9049 32.6704C35.9411 32.5637 36.0857 32.4925 36.0857 32.4213C36.158 32.2078 36.0857 32.101 36.1219 31.9231C36.158 31.8163 36.2303 31.7096 36.3027 31.6028C36.4834 31.5672 36.6642 31.496 36.845 31.4604C36.9896 31.4604 37.1704 31.4249 37.315 31.4249C37.5681 31.3181 37.8574 31.069 38.1105 31.1046C38.1105 31.069 38.1105 31.069 38.1105 31.0334C38.1467 31.0334 38.1467 31.0334 38.1828 31.0334C38.1828 31.069 38.1828 31.069 38.1828 31.1046C38.219 31.1046 38.219 31.1046 38.2551 31.1046C38.219 31.2113 38.219 31.3181 38.1828 31.4249C38.219 31.4249 38.2551 31.4249 38.2913 31.4249C38.3274 31.3181 38.3998 31.2469 38.4359 31.1402C38.5805 30.9978 39.3037 30.9266 39.3398 30.7131C39.4845 30.7487 39.5929 30.7843 39.7014 30.8199C39.7014 30.7487 39.7376 30.7487 39.6653 30.7487C39.9545 30.464 41.4369 30.2861 41.4731 30.1081C41.5093 30.1081 41.5454 30.1081 41.5816 30.1081C41.5816 30.1437 41.5816 30.1437 41.5816 30.1793C41.6177 30.2505 41.6539 30.3572 41.7624 30.3928C41.7624 30.3572 41.7624 30.3572 41.7624 30.3217C41.7985 30.3217 41.7985 30.3217 41.8347 30.3217C41.8347 30.2505 41.7985 30.0725 41.907 30.0725C41.9793 30.0725 42.0516 30.0725 42.1239 30.037C42.2686 29.9658 42.4493 29.9302 42.594 29.859C42.9555 29.7879 43.3171 29.7167 43.7148 29.6455C44.3657 29.5032 45.0527 29.1473 45.7758 29.1829C45.7758 29.1473 45.7758 29.1473 45.7758 29.1117C45.8843 29.1117 45.8843 28.8982 45.8843 28.827C45.9204 28.827 45.9566 28.827 45.9927 28.827C45.9927 28.8982 45.9927 28.9693 45.9927 29.0049C45.9927 29.0405 45.9927 29.0405 45.9927 29.0761C46.2458 29.1117 46.5351 28.9338 46.7159 28.7202C47.0774 28.7558 47.7283 28.2932 47.8367 28.7558C47.8729 28.7558 47.9091 28.7558 47.9452 28.7558C48.0537 28.5423 48.1622 28.3644 48.2345 28.1508C48.3068 28.1508 48.3068 28.1153 48.3068 28.0441C48.3429 28.0441 48.3791 28.0441 48.4153 28.0441C48.4153 28.1508 48.4514 28.2932 48.4514 28.4C48.5237 28.4 48.5237 28.3999 48.5599 28.3644C48.5599 28.3644 48.6322 28.3288 48.7045 28.2932V25.6597C48.7045 25.2683 48.6322 24.6633 48.2706 24.1651C48.1983 24.2007 47.9814 24.2718 47.8729 24.3074C47.8006 24.3074 47.7644 24.343 47.6921 24.343C47.5113 24.3786 47.3305 24.3786 47.1498 24.4854C46.8605 24.4498 46.6436 24.4142 46.3905 24.5565C46.2097 24.5565 46.0651 24.5921 45.9204 24.6989C45.8481 24.6989 45.8481 24.6633 45.8119 24.6277C45.5227 24.5921 45.1973 24.8056 44.908 24.8412C44.908 24.8768 44.908 24.8768 44.908 24.9124C44.8357 24.9124 44.8357 24.9124 44.8719 24.8412C44.8719 24.8412 44.8357 24.8412 44.7996 24.8412C44.7996 24.9124 44.3295 25.0192 44.221 25.0903C44.1487 25.0548 44.0764 25.0548 44.0041 25.0192C43.9679 25.1259 43.9318 25.1259 43.8595 25.1971C43.751 25.1615 43.6787 25.1615 43.5702 25.1259C43.064 25.1615 42.6301 25.375 42.1601 25.553C42.1239 25.6597 42.0516 25.5174 42.0155 25.4818C41.9793 25.4818 41.9793 25.4818 41.9431 25.4818C41.907 25.5886 41.907 25.553 41.8347 25.5886C41.3285 25.7665 40.7861 25.6597 40.3161 26.0156C40.2438 25.98 40.1715 25.98 40.0991 25.9444C40.063 26.0868 39.0506 26.2291 38.8698 26.3359C38.7613 26.3359 38.8336 26.5138 38.8336 26.585C38.8336 26.585 38.7975 26.585 38.7613 26.585C38.7613 26.6206 38.7613 26.6206 38.7613 26.6562C38.6529 26.6562 38.6167 26.5494 38.5805 26.4427C38.5805 26.4071 38.5805 26.4071 38.5805 26.3715C38.5444 26.3715 38.5082 26.3715 38.4721 26.3715C38.4721 26.4071 38.3636 26.4782 38.1828 26.5138C38.1467 26.4071 37.9659 26.3715 38.002 26.2291C38.0743 26.0156 38.3274 26.1224 38.3998 25.8733C38.3998 25.8377 38.3636 25.8377 38.3636 25.8021C38.3636 25.7665 38.3636 25.7309 38.3636 25.6953C38.3636 25.6241 38.3636 25.5174 38.3998 25.4462C38.4721 25.3039 38.5444 25.1971 38.6167 25.0903C38.6529 24.9836 38.7252 24.8412 38.7613 24.7345C38.7975 24.5921 38.7975 24.5209 38.906 24.3786C39.0506 24.2007 39.1952 24.0227 39.2314 23.8092C39.2675 23.6313 39.1591 23.4177 39.376 23.2754C39.3398 23.2398 39.3037 23.133 39.2675 23.133C39.3037 23.0975 39.3398 23.0619 39.376 23.0619C39.1591 23.0263 39.1591 22.5637 39.0144 22.3857C38.7613 22.0298 38.219 21.7451 37.7851 21.6028C36.7365 21.2825 35.7603 21.9943 34.8925 22.8483C34.8202 22.9195 34.6394 23.0619 34.6033 23.133C34.5671 23.1686 34.6033 23.311 34.6033 23.311C34.531 23.3822 34.4225 23.4533 34.314 23.5601C34.2055 23.7024 34.2055 23.8448 34.0609 23.9871C33.844 24.2007 33.9163 24.1651 33.8078 24.4142C33.7355 24.6277 33.4462 24.9124 33.3739 25.1259C33.4101 25.1615 33.4462 25.1971 33.4462 25.2327C33.4101 25.2327 32.8677 26.0512 32.7954 26.0512C32.7593 26.1224 32.6869 26.1935 32.7593 26.2291C32.7593 26.2291 32.0723 27.7238 32.0361 27.8306C32 28.0441 31.8915 28.0441 31.783 28.2576H31.7469Z" fill="#3B6741"/>
<path d="M38.6158 60.2506L38.652 62.9196H37.6396L37.6034 60.2506L36.3379 60.2862L36.4103 65.304C36.2656 65.3752 36.0848 65.4108 35.8679 65.4819C35.6148 65.5531 35.3617 65.5887 35.0724 65.5887L33.3731 65.6243L33.3007 61.425L35.3979 61.3894V60.6065L31.8906 60.6777L31.9629 65.4108C31.9629 65.731 32.0714 65.9801 32.2884 66.1581C32.5053 66.336 32.7584 66.4072 33.0477 66.4072L35.0001 66.3716C35.3255 66.3716 35.5786 66.336 35.7956 66.2293C36.0125 66.1581 36.1933 66.0513 36.3379 65.9446L36.4103 70.0015L37.6757 69.9659L37.5673 63.7382H38.5797L38.6881 69.9659L39.9536 69.9303L39.7729 60.2506H38.6158Z" fill="#3B6741"/>
<path d="M63.8882 53.7382L60.7787 51.4962L60.0194 52.4926L63.1651 54.7346L62.6227 55.4819L59.477 53.2399L58.7539 54.2364L61.8634 56.4784L60.6341 58.1154L61.2487 58.578L66.2746 51.8165L65.6599 51.3894L63.8882 53.7382Z" fill="#3B6741"/>
<path d="M59.1881 49.005L61.466 50.642C62.0445 51.0691 62.5146 51.4249 62.8761 51.7096C63.2377 51.9943 63.4908 52.3502 63.6354 52.6705L63.6716 52.7061L64.3947 51.7452C64.2501 51.4249 64.0332 51.0691 63.7077 50.7132C63.3823 50.3573 62.9484 49.9659 62.4422 49.61L59.9836 47.8662C59.8028 47.795 59.6582 47.795 59.4774 47.8306C59.2243 47.9018 59.0073 48.0441 58.8265 48.2933L55.3555 52.9552L56.0063 53.4178L59.1881 49.005Z" fill="#3B6741"/>
<path d="M52.0317 57.2968L51.0193 55.5886L49.8984 56.2292L52.6102 60.642V60.6776L52.6464 60.642L53.6949 60.037H53.7311L53.6949 60.0014L52.4294 57.9018L53.5865 57.2612L53.1887 56.6207L52.0317 57.2968Z" fill="#3B6741"/>
<path d="M53.2611 61.0334L48.3438 63.9516L48.7415 64.6277L53.3696 61.8875L54.9966 64.5565L56.226 63.8448L54.7074 61.3537C54.5266 61.069 54.3097 60.9266 54.0566 60.8911C53.7673 60.8199 53.5142 60.8555 53.2611 61.0334Z" fill="#3B6741"/>
<path d="M50.585 60.9267C50.8019 60.3217 50.7296 59.7524 50.4042 59.2541C50.0788 58.7559 49.6088 58.4356 48.9941 58.3289C48.8856 58.3289 48.7771 58.2933 48.7048 58.2933L49.7172 57.6883L49.3195 57.0477L47.584 58.0798L47.1862 57.4392L46.1015 58.0798L46.4993 58.7203L44.6914 59.7879L45.0891 60.4285L46.1015 59.8235C46.0654 59.9303 46.0292 60.0015 45.9931 60.1082C45.7761 60.7132 45.8484 61.2826 46.1377 61.7808C46.4631 62.279 46.9331 62.5993 47.5478 62.7061C48.1986 62.8129 48.8133 62.7061 49.3918 62.3502C50.0065 62.0299 50.4042 61.5317 50.585 60.9267ZM47.0778 60.1082C47.1139 59.7524 47.2947 59.5032 47.5478 59.3253C47.8371 59.1474 48.1263 59.1474 48.4517 59.2541C48.7772 59.3965 49.0664 59.61 49.2472 59.9303C49.428 60.2506 49.5003 60.5709 49.4641 60.9267C49.428 61.2826 49.2472 61.5317 48.9941 61.6741C48.7048 61.852 48.4156 61.852 48.0902 61.7452C47.7648 61.6385 47.4755 61.3894 47.2947 61.1047C47.1139 60.82 47.0416 60.4641 47.0778 60.1082Z" fill="#3B6741"/>
<path d="M10.8843 53.2399L11.7521 52.5993L13.4153 54.8413L14.03 54.3787L10.7035 49.9303L12.1137 48.8982L15.4401 53.3466L16.0548 52.884L11.8967 47.3324L10.0527 48.6847C9.79962 48.8626 9.65499 49.1118 9.61883 49.3609C9.58268 49.61 9.69115 49.8591 9.87193 50.1438C9.87193 50.1438 10.7759 51.3537 10.8843 51.4961L10.0166 52.1367L7.77483 49.1473L7.16016 49.5744L12.4391 56.6207L13.0538 56.1936L10.8843 53.2399Z" fill="#3B6741"/>
<path d="M9.58331 53.3466C8.53476 51.9231 7.19695 51.8164 6.22071 52.5281C5.24447 53.2398 5.02753 54.6277 6.00377 55.9445C6.98001 57.2612 8.39013 57.4747 9.36637 56.763C10.3426 56.0156 10.6319 54.7701 9.58331 53.3466ZM6.58228 55.5174C6.11224 54.9124 6.36534 54.1295 7.05232 53.6313C7.70315 53.1331 8.57092 53.1331 9.0048 53.7736C9.47484 54.3786 9.22174 55.1615 8.53476 55.6598C7.84778 56.1224 7.01617 56.1224 6.58228 55.5174Z" fill="#3B6741"/>
<path d="M26.1414 58.9338L25.5991 60.0014L24.2613 59.3253L24.659 58.5068L20.2478 56.3359L18.5846 59.6455C18.44 59.9302 18.4038 60.1794 18.5123 60.4285C18.5846 60.6776 18.8015 60.8555 19.0908 60.9979L22.5619 62.706L23.0681 61.7096L24.4059 62.3858L23.7912 63.6313L25.0567 64.2363L27.4431 59.5032L26.1414 58.9338ZM25.2737 60.6776L24.7675 61.7096L23.4296 61.0334L23.9358 60.0014L25.2737 60.6776ZM23.0681 58.5779L21.658 61.3893L19.7778 60.464L21.1879 57.6527L23.0681 58.5779Z" fill="#3B6741"/>
<path d="M22.3468 63.311C20.7559 62.5281 19.5266 63.0263 18.9842 64.0939C18.4419 65.1615 18.9119 66.5138 20.3582 67.2256C21.8406 67.9373 23.1784 67.5103 23.7208 66.4427C24.2632 65.3395 23.9377 64.0939 22.3468 63.311ZM20.6836 66.585C19.9966 66.2291 19.852 65.4462 20.2136 64.6989C20.5751 63.9516 21.3344 63.5957 22.0214 63.916C22.7084 64.2718 22.853 65.0548 22.4915 65.8021C22.0937 66.5494 21.3706 66.9409 20.6836 66.585Z" fill="#3B6741"/>
</g>
<defs>
<clipPath id="clip0_2521_55337">
<rect width="70" height="70" fill="white" transform="translate(0 0.00146484)"/>
</clipPath>
</defs>
</svg>
