<svg width="134" height="36" viewBox="0 0 134 36" fill="none" xmlns="http://www.w3.org/2000/svg">
<g clip-path="url(#clip0_2521_53200)">
<path d="M109.776 15.0001H97.2852V17.3865C97.2852 17.3865 109.37 17.3865 109.624 17.3865C109.624 17.6404 109.624 21.8548 109.624 21.8548H112.416V15.0001H112.264H109.776Z" fill="#7C0019"/>
<path d="M102.363 13.8322C105.105 13.8322 107.339 11.6996 107.339 9.11007C107.339 8.24688 107.034 7.38369 106.577 6.67283C106.932 6.67283 108.253 6.67283 108.253 6.67283V4.33715C108.253 4.33715 103.937 4.33715 103.683 4.33715C103.683 4.13405 103.683 2.56 103.683 2.56H103.53H100.941C100.941 2.56 100.941 4.08327 100.941 4.33715C100.687 4.33715 96.2695 4.33715 96.2695 4.33715V6.62206C96.2695 6.62206 97.742 6.62206 98.0975 6.62206C97.5897 7.33292 97.285 8.1961 97.285 9.05929C97.285 11.6489 99.6207 13.8322 102.363 13.8322ZM102.363 11.5473C101.042 11.5473 100.027 10.481 100.027 9.16084C100.027 7.84067 101.093 6.77438 102.363 6.77438C103.683 6.77438 104.698 7.84067 104.698 9.16084C104.698 10.481 103.632 11.5473 102.363 11.5473Z" fill="#7C0019"/>
<path d="M112.418 3.98169H112.265H109.574V13.9337H112.367C112.367 13.9337 112.367 10.5318 112.367 10.3287C112.57 10.3287 114.246 10.3287 114.246 10.3287V7.84065C114.246 7.84065 112.621 7.84065 112.367 7.84065C112.418 7.58677 112.418 3.98169 112.418 3.98169Z" fill="#7C0019"/>
<path d="M51.2834 8.65307V5.70808V4.23558V4.13403H51.1311H37.4217V6.57127C37.4217 6.57127 48.2369 6.57127 48.4908 6.57127C48.4908 6.82515 48.4908 11.0395 48.4908 11.0395C48.4908 11.0903 48.44 16.6249 47.6276 17.9958C47.4753 17.9958 44.3272 17.9958 44.0733 17.9958C44.0733 17.7419 44.0733 11.6996 44.0733 11.6996H41.433C41.433 11.6996 41.433 17.7419 41.433 17.9958C41.1791 17.9958 35.4922 17.9958 35.4922 17.9958V20.433H53.0098V17.9958C53.0098 17.9958 50.6741 17.9958 50.3695 17.9958C50.6234 17.3357 51.2834 14.7462 51.2834 8.65307Z" fill="#7C0019"/>
<path d="M131.358 17.9958C131.561 17.3865 132.221 14.8477 132.221 8.50075V6.41894V4.23558V4.13403H132.069H118.308V6.57127C118.308 6.57127 129.124 6.57127 129.377 6.57127C129.377 6.82515 129.377 10.938 129.377 10.938C129.377 12.1566 129.225 16.8787 128.514 17.9958C128.413 17.9958 127.346 17.9958 127.143 17.9958C127.143 17.7419 127.143 11.7504 127.143 11.7504H124.554C124.554 11.7504 124.554 17.7419 124.554 17.9958C124.351 17.9958 122.777 17.9958 122.523 17.9958C122.523 17.7419 122.523 11.7504 122.523 11.7504H119.882C119.882 11.7504 119.882 17.7419 119.882 17.9958C119.629 17.9958 116.48 17.9958 116.48 17.9958V20.433H133.998V17.9958C133.998 17.9958 131.713 17.9958 131.358 17.9958Z" fill="#7C0019"/>
<path d="M69.0025 3.93096C69.0025 3.93096 69.0025 6.87596 69.0025 7.12984C68.7487 7.12984 66.0575 7.12984 66.0575 7.12984V9.46552C66.0575 9.46552 68.7994 9.46552 69.0025 9.46552C69.0025 9.66862 69.0025 11.9028 69.0025 12.1566C68.7487 12.1566 66.0575 12.1566 66.0575 12.1566V14.4923C66.0575 14.4923 68.7994 14.4923 69.0025 14.4923C69.0025 14.6954 69.0025 16.1679 69.0025 16.2695C67.987 17.285 65.499 17.2342 65.4482 17.2342C65.4482 17.2342 59.5075 17.2342 59.2536 17.2342C59.2536 16.9803 59.2536 12.8675 59.2536 12.6136C59.5075 12.6136 64.8897 12.6136 64.8897 12.6136V3.98174H56.2578V6.31742C56.2578 6.31742 61.9447 6.31742 62.1986 6.31742C62.1986 6.5713 62.1986 9.82095 62.1986 10.0748C61.9447 10.0748 56.4101 10.0748 56.4101 10.0748C56.4101 10.0748 56.4101 10.0748 56.4101 10.1256H56.3594V17.3865C56.4609 19.316 58.2381 19.5699 58.2888 19.5699L65.0928 19.5191C67.3777 19.5191 68.5455 19.1129 68.9518 18.9098C68.9518 19.3668 68.9518 21.6517 68.9518 21.6517H71.7444V3.88019H71.5921H69.0025V3.93096Z" fill="#7C0019"/>
<path d="M89.8228 3.93097C89.8228 3.93097 89.8228 10.0241 89.8228 10.2779C89.6197 10.2779 88.2487 10.2779 88.0456 10.2779C88.0456 10.0241 88.0456 3.93097 88.0456 3.93097H85.5068C85.5068 3.93097 85.5068 15.9648 85.5068 16.1171C84.339 16.8788 82.3587 16.828 82.3079 16.828C82.3079 16.828 79.3122 16.828 79.0583 16.828C79.0583 16.5741 79.0583 6.67286 79.0583 6.41898C79.3122 6.41898 83.2727 6.41898 83.2727 6.41898V4.0833H76.2656V16.9803C76.2656 19.0114 78.1443 19.2145 78.1951 19.2145C78.2459 19.2145 80.0738 19.2652 82.0033 19.1637C83.882 19.0621 84.9483 18.7575 85.5068 18.5036C85.5068 18.859 85.5068 21.6517 85.5068 21.6517H88.0456C88.0456 21.6517 88.0456 13.0198 88.0456 12.7659C88.2487 12.7659 89.6197 12.7659 89.8228 12.7659C89.8228 13.0198 89.8228 21.6517 89.8228 21.6517H92.3615V3.93097H92.2092H89.8228Z" fill="#7C0019"/>
<path d="M43.4643 32.5177C43.2104 32.3654 43.0073 32.1622 42.5503 31.6545C42.5503 31.6545 40.57 29.4204 40.2654 29.1157C40.3669 29.0142 42.6011 26.2723 42.6011 26.2723L42.7534 26.1199H42.6011H41.6363L39.0975 29.268V26.1199H39.0468H37.9805V32.7208H39.1483V29.3188L41.7887 32.2638C41.9918 32.5685 42.398 32.7208 42.9565 32.7208H43.9212L43.7181 32.5685C43.5658 32.5685 43.4643 32.5177 43.4643 32.5177Z" fill="#7C0019"/>
<path d="M47.1207 25.9169C46.1052 25.9169 45.242 26.2723 44.5311 26.9324C43.8203 27.5925 43.4648 28.4557 43.4648 29.3696C43.4648 30.3851 43.8203 31.2483 44.5311 31.9084C45.1912 32.5685 46.0544 32.8731 47.0191 32.8731C47.9839 32.8731 48.8471 32.5177 49.5579 31.8576C50.2688 31.1975 50.6242 30.3344 50.6242 29.3188C50.6242 28.4049 50.3196 27.5925 49.6595 26.9324C48.9486 26.2723 48.0854 25.9169 47.1207 25.9169ZM47.0699 32.01C46.3591 32.01 45.8005 31.7053 45.3435 31.1468C44.9373 30.639 44.6835 29.9789 44.6835 29.2681C44.6835 28.5572 44.8866 27.9479 45.3435 27.4401C45.7498 26.9832 46.3591 26.7293 47.0699 26.7293C47.7808 26.7293 48.3393 27.0339 48.7963 27.5925C49.2025 28.1002 49.4056 28.7603 49.4056 29.5219C49.4056 30.2328 49.2025 30.8421 48.7963 31.2991C48.2885 31.8069 47.73 32.01 47.0699 32.01Z" fill="#7C0019"/>
<path d="M59.8124 29.5727C59.9647 29.5727 61.945 29.5727 61.945 29.5727V28.7095C61.945 28.7095 59.9647 28.7095 59.8124 28.7095C59.8124 28.5572 59.8124 27.1354 59.8124 26.9831C60.2694 26.9831 62.4019 26.9831 62.4527 26.9831H62.5035V26.0692H58.6445V26.1199V32.67H62.7574L62.9097 31.756C62.9097 31.756 59.9139 31.756 59.8124 31.756C59.8124 31.7053 59.8124 29.725 59.8124 29.5727Z" fill="#7C0019"/>
<path d="M101.855 29.5727C102.008 29.5727 103.988 29.5727 103.988 29.5727V28.7095C103.988 28.7095 102.008 28.7095 101.855 28.7095C101.855 28.5572 101.855 27.1354 101.855 26.9831C102.312 26.9831 104.445 26.9831 104.496 26.9831H104.546V26.0692H100.688V26.1199V32.67H104.8L104.953 31.756C104.953 31.756 101.957 31.756 101.855 31.756C101.855 31.7053 101.855 29.725 101.855 29.5727Z" fill="#7C0019"/>
<path d="M67.4293 26.1199H66.363L63.6719 32.7716H64.6874C64.6874 32.7716 65.5506 30.4359 65.6014 30.3343C65.7029 30.3343 67.8863 30.3343 67.9878 30.3343C68.0386 30.4359 68.9018 32.7716 68.9018 32.7716H70.1712L67.4293 26.1199ZM67.6324 29.4204C67.4293 29.4204 66.1091 29.4204 65.906 29.4204C65.9568 29.268 66.6676 27.5417 66.7692 27.237C66.9215 27.5417 67.5816 29.268 67.6324 29.4204Z" fill="#7C0019"/>
<path d="M80.6322 26.1199H79.8706V30.2328C79.8706 31.4514 79.5659 32.1115 78.0934 32.1115H77.9411C76.9256 32.1115 76.4178 31.5022 76.4178 30.2328V26.1199H75.25V30.2328C75.25 30.7405 75.25 31.0452 75.3008 31.2991C75.3516 31.6545 75.5039 32.0099 75.7578 32.2638C76.2147 32.7208 76.824 32.9747 77.5857 32.9747H78.3473C79.1597 32.9747 79.769 32.7208 80.1752 32.2638C80.4291 32.0099 80.5815 31.7053 80.6322 31.2991C80.683 31.096 80.683 30.7405 80.683 30.2835V26.1707H80.6322V26.1199Z" fill="#7C0019"/>
<path d="M87.7417 26.1199V26.1707C87.7417 26.1707 87.7417 30.5882 87.7417 30.9944C87.4878 30.6897 83.8827 26.1199 83.8827 26.1199H82.8672V32.7716H83.7304C83.7304 32.7716 83.7304 28.2017 83.7304 27.7955C83.9843 28.1002 87.6401 32.7716 87.6401 32.7716H88.6048V26.1199H88.5033H87.7417Z" fill="#7C0019"/>
<path d="M90.8867 26.1199V32.7716H92.0038V26.1199H91.953H90.8867Z" fill="#7C0019"/>
<path d="M118.41 26.1199V27.5924V31.2991V32.7716H119.578V31.2991V27.5924V26.1707V26.1199H119.476H118.41Z" fill="#7C0019"/>
<path d="M98.4526 26.1199C98.4526 26.1199 96.6754 30.9944 96.5739 31.3498C96.4215 30.9944 94.6952 26.1199 94.6952 26.1199H93.375L95.863 32.7716H96.8785L99.4681 26.1199H99.3665H98.4526Z" fill="#7C0019"/>
<path d="M116.175 29.3696L115.261 28.9126L114.5 28.5572C113.941 28.2526 113.637 27.9479 113.637 27.5925C113.637 27.2878 113.738 27.0847 114.043 26.9324C114.246 26.8308 114.551 26.7801 114.906 26.7801C115.465 26.7801 116.074 26.9832 116.378 27.1863L116.48 27.2878V26.12H116.429C115.972 25.9676 115.465 25.9169 114.957 25.9169C114.246 25.9169 113.687 26.0692 113.23 26.3231C112.672 26.6277 112.418 27.0847 112.418 27.694C112.418 28.3033 112.723 28.8111 113.332 29.2173L113.637 29.3696L114.957 30.0297C115.515 30.3344 115.82 30.639 115.82 31.0452C115.82 31.3499 115.668 31.553 115.363 31.7561C115.109 31.9084 114.804 32.01 114.5 32.01C113.789 32.01 113.129 31.8069 112.52 31.4514L112.367 31.3499L112.52 32.5177H112.57C113.129 32.7208 113.687 32.8224 114.347 32.8224C115.16 32.8224 115.871 32.6193 116.378 32.2131C116.835 31.8069 117.089 31.2991 117.089 30.6898C117.089 30.2328 116.785 29.7758 116.175 29.3696Z" fill="#7C0019"/>
<path d="M120.797 26.0692V26.1199V26.9323C120.797 26.9323 122.523 26.9323 122.676 26.9323C122.676 27.0847 122.676 32.7208 122.676 32.7208H123.843C123.843 32.7208 123.843 27.0847 123.843 26.9323C123.996 26.9323 125.722 26.9323 125.722 26.9323V26.0692H120.797Z" fill="#7C0019"/>
<path d="M131.253 26.1199C131.253 26.1199 129.578 28.7603 129.425 28.9126C129.324 28.7095 127.648 26.1199 127.648 26.1199H127.598H126.328C126.328 26.1199 128.715 29.8266 128.715 29.8773C128.715 29.9281 128.715 32.7716 128.715 32.7716H129.882C129.882 32.7716 129.882 29.9281 129.882 29.8773C129.933 29.8266 132.37 26.1199 132.37 26.1199H131.253Z" fill="#7C0019"/>
<path d="M56.3628 31.2483C56.3628 31.2483 55.2458 29.8773 54.9919 29.5219C55.195 29.4204 55.6012 29.268 55.9058 28.9634C56.2613 28.608 56.4136 28.2017 56.4136 27.7955C56.4136 27.2878 56.2105 26.9324 55.8551 26.6277C55.4996 26.323 54.9411 26.1707 54.281 26.1707H52.1484H52.0977V32.8223H53.2655V32.7208C53.2147 32.5177 53.2147 32.1623 53.2147 31.3498C53.2147 31.3498 53.2147 27.1355 53.2147 26.9831C54.281 26.9831 54.738 27.0847 54.8903 27.237C55.0934 27.3893 55.2458 27.6432 55.2458 27.9479C55.2458 28.6587 54.6872 29.1157 53.6209 29.268H53.5194L55.8551 32.2638C56.1089 32.6192 56.5151 32.7716 57.0737 32.7716H58.0384L57.8353 32.6192C57.2768 32.2638 56.769 31.8068 56.3628 31.2483Z" fill="#7C0019"/>
<path d="M110.335 31.2483C110.335 31.2483 109.218 29.8773 108.965 29.5219C109.168 29.4204 109.574 29.268 109.878 28.9634C110.234 28.608 110.386 28.2017 110.386 27.7955C110.386 27.2878 110.183 26.9324 109.828 26.6277C109.472 26.323 108.914 26.1707 108.254 26.1707H106.121H106.07V32.8223H107.238V32.7208C107.187 32.5177 107.187 32.1623 107.187 31.3498C107.187 31.3498 107.187 27.1355 107.187 26.9831C108.254 26.9831 108.711 27.0847 108.863 27.237C109.066 27.3893 109.218 27.6432 109.218 27.9479C109.218 28.6587 108.66 29.1157 107.594 29.268H107.492L109.828 32.2638C110.082 32.6192 110.488 32.7716 111.046 32.7716H112.011L111.808 32.6192C111.249 32.2638 110.742 31.8068 110.335 31.2483Z" fill="#7C0019"/>
<path d="M26.9622 0.457947V19.4988C26.9622 19.4988 27.1145 26.3536 22.3416 30.3649C22.3416 30.3649 18.4319 33.5637 14.0652 35.5948H14.0144C9.49535 33.6653 5.78872 30.3649 5.78872 30.3649C1.01581 26.4044 1.11736 19.4988 1.11736 19.4988V0.457947H26.9622Z" fill="#D7C9B1"/>
<path d="M26.962 0.000976562H0.660156V19.4989C0.660156 19.8035 0.660156 26.6582 5.53463 30.7203C5.68695 30.8219 9.29203 34.0207 13.8618 36.001L13.9634 36.0518H14.2173L14.3188 36.001C18.6855 33.9699 22.6461 30.7711 22.6968 30.7203C27.5713 26.6582 27.4697 19.8035 27.4697 19.4989V0.000976562H26.962ZM26.505 0.91494C26.505 1.77813 26.505 19.4989 26.505 19.4989C26.505 19.4989 26.505 19.4989 26.505 19.5496C26.505 20.1082 26.4035 26.3536 22.0367 30.0094C21.986 30.0602 18.2286 33.1068 14.0142 35.087C9.69824 33.2083 6.14394 30.0602 6.09316 30.0094C1.6249 26.3028 1.57412 19.7527 1.57412 19.5496C1.57412 19.5496 1.57412 1.87968 1.57412 0.965716C2.48808 0.91494 25.6418 0.91494 26.505 0.91494Z" fill="#7C0019"/>
<path d="M26.8605 10.7146H1.11719V0.457947H26.8605V10.7146Z" fill="#7C0019"/>
<path d="M1.625 1.01648V1.16881H26.5051V1.01648H1.625Z" fill="#D7C9B1"/>
<path d="M1.625 6.29718V6.50028H26.5051V6.29718H1.625Z" fill="#D7C9B1"/>
<path d="M1.57422 9.49603V9.69914H26.4543V9.49603H1.57422Z" fill="#D7C9B1"/>
<path d="M11.9336 31.9389H12.289C12.3398 31.9389 12.3398 31.8882 12.3398 31.8882C12.1875 31.2789 12.289 30.7711 12.289 30.6696C12.289 30.6696 12.289 30.6188 12.2382 30.6188H11.8828C11.832 30.6188 11.832 30.6696 11.832 30.6696C11.9844 31.1265 11.9336 31.7358 11.9336 31.9389C11.9336 31.8882 11.8828 31.9389 11.9336 31.9389Z" fill="#7C0019"/>
<path d="M13.2001 30.5679C12.6416 30.6187 12.6924 31.2788 12.6924 31.2788C12.7432 31.8373 13.3017 31.9897 13.3017 31.9897C13.1494 32.4467 12.6924 32.5482 12.6924 32.5482C12.5908 32.599 12.6416 32.599 12.6416 32.599C12.7939 32.6498 12.9463 32.5482 12.9463 32.5482C13.7587 32.1928 13.7587 31.3296 13.7587 31.3296C13.8602 30.5172 13.2001 30.5679 13.2001 30.5679ZM13.4032 31.7358C13.1494 31.7358 13.0986 31.3296 13.0986 31.3296C13.0478 30.8726 13.2001 30.8726 13.2001 30.8726C13.4032 30.8218 13.454 31.1773 13.454 31.1773C13.5556 31.6342 13.4032 31.7358 13.4032 31.7358Z" fill="#7C0019"/>
<path d="M15.2343 31.0758C15.2343 31.0758 15.1835 30.568 14.6757 30.568C14.6757 30.568 14.168 30.568 14.168 31.2281C14.168 31.2281 14.168 31.9389 14.7773 31.9389C14.7773 31.9389 15.3866 31.8882 15.2343 31.0758ZM14.7773 31.6851C14.5234 31.7866 14.5234 31.2789 14.5234 31.2789C14.5234 30.8219 14.6757 30.7711 14.6757 30.7711C14.8788 30.7203 14.9296 31.0758 14.9296 31.0758C14.9804 31.5835 14.7773 31.6851 14.7773 31.6851Z" fill="#7C0019"/>
<path d="M15.3858 32.0913C15.8936 32.1928 16.0459 31.8374 16.0459 31.8374C16.1983 31.3296 15.5382 31.2789 15.5382 31.2789L15.6397 30.6188C15.6397 30.6188 16.2998 30.6695 16.5029 30.568C16.5029 30.568 16.5537 30.5172 16.5029 30.6188C16.5029 30.6188 16.4521 30.8219 16.249 30.8726L15.9444 30.9234L15.8936 31.0758C15.8936 31.0758 16.4521 31.0758 16.4521 31.6851C16.4521 31.6851 16.4521 32.142 15.8936 32.2944C15.8936 32.2944 15.6397 32.3451 15.3351 32.2436C15.3351 32.2436 15.2843 32.2436 15.3351 32.1928C15.3351 32.142 15.3351 32.0913 15.3858 32.0913Z" fill="#7C0019"/>
<path d="M13.4556 19.3973C13.5064 19.3465 13.5572 19.3973 13.6079 19.3973C13.6587 19.3973 13.6587 19.4989 13.6587 19.5496C13.6587 19.6004 13.7603 19.6512 13.7603 19.702C13.811 20.0066 13.7603 20.4128 13.6079 20.6159C13.5572 20.6667 13.5064 20.7175 13.4556 20.7175C13.4048 20.7175 13.3541 20.6159 13.3541 20.6159C13.2525 20.5144 13.3541 20.2097 13.3541 20.0574C13.3541 19.9051 13.2525 19.6004 13.3033 19.4481C13.3541 19.4481 13.4556 19.3973 13.4556 19.3973Z" fill="#7C0019"/>
<path d="M9.29394 19.702C9.34471 19.702 9.49704 19.702 9.49704 19.702L9.59859 19.6512C9.70014 19.6004 9.85247 19.6004 9.95402 19.6004C10.0048 19.6004 10.2079 19.702 10.2587 19.702C10.3602 19.702 10.7664 19.7528 11.2742 19.8035C11.2742 19.8035 11.5281 19.7528 11.4773 19.702C11.5281 19.7528 11.4773 19.6512 11.3757 19.6512L11.325 19.6004C11.325 19.6004 11.2234 19.5497 11.3757 19.4989C11.325 19.4989 11.4773 19.4989 11.5281 19.4481C11.5788 19.3973 11.4773 19.2958 11.4773 19.2958C11.2742 19.245 11.0203 19.3465 10.6649 19.3465C10.5126 19.3465 10.2587 19.245 10.0556 19.2958C9.8017 19.3465 9.44627 19.4989 9.24316 19.6004C9.24316 19.6004 9.19239 19.7528 9.29394 19.702Z" fill="#7C0019"/>
<path d="M12.0844 17.874C12.2876 17.874 12.3383 18.0771 12.3383 18.0771C12.2876 18.2295 11.8813 18.2802 11.8306 18.3818C11.5259 18.7372 11.6782 19.0926 10.9674 19.1434C10.9674 19.1434 10.8151 19.0926 10.8658 19.0419C10.9166 18.9911 11.0689 18.9403 11.1197 18.9403C11.2213 18.8895 11.2213 18.7372 11.272 18.6864L11.3736 18.6357C11.5767 18.3818 11.5767 18.1279 11.9321 17.9756C11.9321 17.9248 12.0337 17.9248 12.0844 17.874Z" fill="#7C0019"/>
<path d="M14.2172 16.9093C14.3187 16.8585 14.3695 16.9093 14.4203 16.9601C14.4711 16.9601 14.6742 17.5694 14.7249 17.6202C14.7757 17.8233 14.7757 18.331 14.7249 18.4833C14.6234 18.6864 14.4203 18.8896 14.4711 19.245C14.4711 19.4989 14.5726 19.6512 14.6742 19.8543C14.6742 19.9051 14.7757 20.1082 14.7757 20.1082C14.8265 20.3113 14.6742 20.6159 14.6742 20.7683C14.6234 21.1745 14.7757 21.5807 14.7249 21.9869C14.6742 22.1392 14.6234 22.2407 14.5218 22.3423L14.4203 22.3931C14.4203 22.4439 14.3695 22.4439 14.3187 22.4946L14.3695 22.5962C14.3187 22.5962 14.268 22.647 14.268 22.647C14.0649 22.6977 14.0649 22.5962 14.0649 22.5962C13.8618 22.0884 14.1664 21.4791 14.0141 20.9714C13.9633 20.8698 13.8618 20.7175 13.811 20.6159C13.7602 20.1589 14.1664 19.9051 14.1664 19.6004C14.1664 19.3973 13.8618 19.0927 13.811 18.8896C13.7094 18.6357 13.6587 18.1787 13.811 17.8233C13.8618 17.7725 13.9125 17.6202 13.9633 17.5186C14.0141 17.3155 14.1156 17.1632 14.1156 17.0108C14.1156 16.9601 14.1664 16.9093 14.1664 16.8585C14.1664 16.9601 14.2172 16.9093 14.2172 16.9093Z" fill="#7C0019"/>
<path d="M19.6486 15.843C19.9533 15.7922 20.1056 15.9445 19.9533 16.1984L19.9025 16.2492C19.9025 16.2492 19.801 16.3507 19.801 16.4015C19.6486 16.5031 19.4963 16.5538 19.3948 16.7062C19.344 16.7569 19.344 16.8585 19.2932 16.9093C19.1917 16.96 18.9378 17.1124 18.8362 17.1124C18.4808 17.1632 17.973 16.8077 17.9223 16.6046C17.8715 16.4015 17.9223 16.2492 18.0238 16.1984C18.1254 16.1476 18.4808 16.1476 18.5823 16.1476C18.887 16.1476 19.0393 16.1476 19.2424 16.0461C19.2932 15.9953 19.4455 15.843 19.6486 15.843Z" fill="#7C0019"/>
<path d="M18.0762 15.6907C18.0762 15.6907 18.2285 15.7415 18.3808 15.7415C18.4824 15.6907 18.6855 15.6399 18.787 15.5891C18.8378 15.5891 18.9393 15.5891 18.9901 15.5891C19.1424 15.5384 19.4471 15.2337 19.0917 15.1829C18.9393 15.1829 18.5331 15.3353 18.4316 15.3353C18.33 15.386 18.2285 15.386 18.1269 15.4368C18.0762 15.4368 17.9746 15.5891 17.9746 15.5384C17.9746 15.5891 17.8731 15.6399 18.0762 15.6907Z" fill="#7C0019"/>
<path d="M15.3869 16.3C15.2854 16.3 15.2854 16.0969 14.9807 16.1477C14.7776 16.1984 14.7268 16.4523 14.473 16.4523H14.3714C14.2699 16.4015 14.1683 16.4523 14.0668 16.4015C13.559 16.1477 14.4222 14.9798 14.7268 15.0306L14.8792 15.0814C14.9807 15.1321 14.9807 15.4876 15.0315 15.5891C15.0823 15.6907 15.1838 15.6907 15.2854 15.7415C15.3869 15.7922 15.5393 16.0461 15.5393 16.1477C15.59 16.1477 15.6408 16.3508 15.3869 16.3Z" fill="#7C0019"/>
<path d="M13.3035 16.4016C13.1004 16.5031 12.6942 16.6554 12.5926 16.8585C12.5418 16.9601 12.5418 17.0616 12.4911 17.1632L12.4403 17.214C12.2372 17.214 12.0849 17.214 11.8818 17.2647C11.7294 17.3155 11.5263 17.4678 11.374 17.4678C11.0693 17.5186 10.8155 17.3663 10.5616 17.4171C10.4093 17.4171 10.3585 17.5694 10.2569 17.6202C10.1554 17.671 10.1554 17.671 10.0538 17.7217L10.0031 17.7725C10.0031 17.8233 9.95227 17.8741 9.95227 17.9248C9.9015 18.0264 9.85072 18.1279 9.85072 18.2295C9.85072 18.331 9.79995 18.5849 9.74917 18.6865C9.74917 18.7372 9.59685 18.8388 9.59685 18.8896C9.59685 18.9403 9.54607 18.9403 9.59685 18.9911C9.54607 18.9403 9.54607 19.0419 9.79995 19.0419C10.0538 19.0419 10.6631 18.8896 10.6631 18.8896L10.9678 18.7372C11.0186 18.6865 11.2217 18.5341 11.2724 18.4834C11.4755 18.2295 12.0341 17.2647 12.4911 17.5186L12.5926 17.5694C12.6942 17.7217 12.5418 18.2295 12.4911 18.3818L12.3895 18.4834C12.288 18.5341 12.2372 18.6865 12.2372 18.788C12.2372 18.9403 12.2372 19.0927 12.288 19.1434C12.288 19.3466 12.3387 19.5497 12.2372 19.7528C12.2372 19.8035 12.1356 19.8543 12.1864 20.0066C12.1864 20.159 12.3895 20.2605 12.4403 20.3621C12.4403 20.4128 12.4911 20.4128 12.4403 20.5144C12.3895 20.5652 12.2372 20.6667 12.1864 20.7175C12.1356 20.7683 12.1864 20.8698 12.2372 20.9206C12.3387 21.0222 12.4403 21.0222 12.5418 21.1745C12.6942 21.3268 12.6434 21.4791 12.948 21.5299C13.2019 21.5299 13.5066 21.5807 13.3543 21.276L13.3035 21.1745C13.2019 20.9714 13.1004 20.7683 13.0496 20.5652C12.9988 20.2605 13.2527 20.159 13.1511 19.9051C13.0496 19.7528 12.7449 19.7528 12.6942 19.4989C12.6942 19.3466 12.7957 19.0927 12.8465 18.9911C12.8973 18.8388 12.8465 18.7372 12.8973 18.5849C12.948 18.4834 13.1004 18.3818 13.1004 18.2295C13.1511 17.9756 12.948 17.8741 13.0496 17.6202C13.1004 17.4678 13.3035 17.5186 13.3543 17.4171C13.4558 17.2647 13.405 17.1124 13.4558 16.9093L13.5066 16.757L13.5574 16.5031C13.405 16.3508 13.3035 16.4016 13.3035 16.4016ZM11.0693 18.2295C10.8662 18.2803 10.8662 17.8741 10.4093 18.0264L10.2569 18.1787C10.2062 18.2803 10.2062 18.6357 10.1554 18.6357C10.1554 18.6357 9.95227 18.6865 10.0031 18.4326C10.0538 18.0772 10.1046 17.9756 10.3077 17.8233C10.3077 17.8233 10.4093 17.7725 10.46 17.7217C10.6631 17.671 11.0693 17.7725 11.1709 17.8741C11.2217 18.0264 11.0693 18.2295 11.0693 18.2295Z" fill="#7C0019"/>
<path d="M23.8134 15.4876C23.7626 15.3352 23.3057 15.3352 23.1533 15.0814C23.1026 14.9798 23.1533 14.929 23.1533 14.8783C23.2041 14.6751 23.6103 14.7767 23.7119 14.6244C23.7626 14.5736 23.7626 14.3197 23.7626 14.3197C23.5088 14.0151 22.9502 14.1674 22.544 14.0151C22.3409 13.9135 22.1378 13.7612 21.9347 13.7104C21.6808 13.6089 21.4777 13.6089 21.2239 13.5073C21.1731 13.5073 21.0715 13.4058 21.0208 13.355C20.7669 13.2534 20.513 13.2027 20.2591 13.1011C20.2083 13.1011 20.1576 13.0503 20.1068 13.0503C20.0052 12.9996 19.9545 12.9996 19.8529 12.9488C19.4467 12.7964 18.8882 12.6441 18.2789 12.6949C18.025 12.6949 17.6696 12.6441 17.2634 12.7964C17.111 12.8472 16.9079 12.9488 16.7556 12.9996C16.654 13.0503 16.5525 13.0503 16.5017 13.1011C16.4002 13.1519 16.2986 13.2027 16.0955 13.2534C15.6385 13.355 14.9784 13.2534 14.5215 13.3042C14.1153 13.355 13.8614 13.6596 13.5059 13.7612C13.4044 13.812 13.3536 13.7612 13.2521 13.812C13.2013 13.812 13.049 13.8627 12.9982 13.9135C12.8459 13.9643 12.7443 14.0151 12.592 14.0658C12.4904 14.1166 12.4397 14.1674 12.3381 14.2182C12.2366 14.2689 12.2366 14.2689 12.135 14.3705L12.0335 14.4213C12.0335 14.4213 11.8811 14.5736 11.8303 14.5736C11.7796 14.6244 11.678 14.7259 11.6272 14.8275C11.4749 15.0306 11.1703 15.2845 10.9672 15.4368C10.8656 15.4876 10.8148 15.4876 10.7641 15.5383C10.6625 15.5891 10.6117 15.6907 10.5102 15.7414C10.3071 15.8938 10.1548 15.9445 9.95165 16.0461L9.79932 16.1476C9.64699 16.2492 9.64699 16.3 9.44389 16.4015C9.34234 16.5031 9.29156 16.6046 9.19001 16.7062C9.13924 16.757 9.03768 16.9093 8.98691 17.0108C8.78381 17.3155 8.68225 17.8232 8.52993 18.1787C8.47915 18.2802 8.12372 18.8388 8.02217 18.8895L7.97139 18.9403C7.92062 18.9911 7.92062 18.9911 7.86984 19.0419C7.76829 19.1434 7.66674 19.1942 7.56519 19.2957C7.51441 19.3973 7.46364 19.4988 7.41286 19.6004C7.31131 19.7527 7.15898 19.9558 7.05743 20.1082C7.00666 20.1589 7.00665 20.2605 6.95588 20.3113C6.9051 20.362 6.85433 20.5651 6.85433 20.5651C6.75278 20.7682 6.60045 20.819 6.34657 21.1744C6.04192 21.1744 5.07718 20.9713 4.41709 20.6159C4.56942 20.7682 5.33106 21.276 6.19424 21.3775C6.14347 21.4791 6.14347 21.5299 6.04192 21.5807C5.68649 21.6822 5.07718 21.4791 4.26477 21.1744C4.31554 21.276 5.0264 21.733 6.09269 21.7838C5.94036 21.9869 4.46787 21.9361 3.3508 21.6314C3.19847 21.8345 4.67097 22.1392 5.48338 22.1392C5.33106 22.19 4.97563 22.2915 4.77252 22.3931C4.41709 22.3423 3.90933 22.2915 3.80778 22.2407C3.80778 22.2915 4.21399 22.3931 4.51864 22.4946C4.21399 22.5962 3.80778 22.6469 3.65546 22.6977C3.75701 22.7485 4.26477 22.6469 4.72175 22.5454C5.12795 22.6469 5.78804 22.6977 6.14347 22.6977C6.04192 22.7485 5.73726 22.9516 5.43261 23.1039C4.77252 23.1547 4.01089 23.2055 3.85856 23.2562C3.96011 23.2562 4.56942 23.2562 5.17873 23.2562C4.77252 23.5101 4.36632 23.7132 4.16321 23.8148C4.46787 23.764 4.97563 23.5609 5.53416 23.2562C6.09269 23.2562 6.60045 23.2055 6.80355 23.1039C6.75278 23.2562 6.29579 24.0179 5.88959 24.1702C6.04192 24.1194 6.60045 23.9671 6.95588 23.1547C7.05743 23.2055 7.20976 23.2562 7.36208 23.2562C7.46364 23.4086 7.66674 23.7132 8.07295 23.764C8.1745 24.0179 8.88536 25.1857 9.95165 24.7287C9.64699 24.5764 9.44389 24.3733 9.34234 23.9163C9.79932 23.8656 11.0179 24.5764 11.4241 25.9981C11.1195 25.8966 10.7641 25.7443 10.7133 25.5919C10.6117 25.9474 10.561 26.3536 11.3226 27.1152C11.3226 27.2675 11.3226 27.4706 11.3734 27.623C11.4749 27.7753 11.6272 27.8261 11.7796 27.9784C11.7796 28.1815 11.7796 28.4862 12.3381 28.6385C12.5412 28.7908 13.1505 28.9431 13.2013 29.0447C13.4044 29.0955 13.6583 29.0955 13.8614 29.0955C13.8614 29.0955 14.1153 29.0447 14.2168 28.9431C14.3691 28.9431 14.5215 28.9431 15.3339 28.0799C15.4862 27.8768 15.3339 26.7598 15.3847 26.5059C15.4862 26.3028 15.4862 26.1505 15.5878 25.8966C15.5878 25.8966 15.6893 25.6427 15.8924 25.5412H15.9432C16.4002 25.4396 17.0095 25.8458 17.3141 25.9981C17.4157 26.0489 17.4665 25.9981 17.568 26.0489C17.6188 26.0489 17.6696 26.1505 17.7203 26.2012C17.8219 26.252 17.9234 26.252 18.025 26.3028C18.1773 26.4043 18.5327 26.8613 18.8374 26.8106C18.939 26.8106 18.9897 26.5567 19.0913 26.5059C19.2436 26.4043 19.3959 26.4043 19.5483 26.3536C19.7006 26.252 19.6498 26.0997 19.6498 25.9474L19.7006 25.8458C19.7514 25.8458 19.9037 25.8458 20.0052 25.795L20.056 25.7443C20.1068 25.6935 20.056 25.5919 20.056 25.5412C20.056 25.4904 19.9037 25.4396 19.8529 25.3888C19.7514 25.2873 19.5483 25.135 19.4975 24.9826C19.4467 24.9318 19.4975 24.8811 19.4467 24.8303C19.3959 24.7795 19.2944 24.678 19.2436 24.5764C19.0913 24.2718 19.1421 23.6117 19.0913 23.5101C19.0405 23.4086 18.9897 23.4086 18.939 23.3578C18.8374 23.1547 18.9897 22.5962 18.9897 22.3423C18.9897 22.1392 18.8374 22.2915 18.8374 22.2915C18.6851 22.6469 18.6851 22.85 18.6851 23.3578C18.6851 23.4086 18.6343 23.7132 18.6343 23.764C18.6343 23.9671 18.7359 24.2718 18.6851 24.4749C18.6851 24.5256 18.5327 24.678 18.2789 24.678C18.1773 24.678 17.8219 24.5764 17.7203 24.5256L17.6188 24.4241C17.4157 24.2718 17.3649 24.4241 17.3649 24.4749C17.3649 24.5764 17.4157 24.5764 17.4157 24.6272C17.4157 24.678 17.5172 24.8303 17.5172 24.8303C17.5172 24.8303 17.4665 25.0334 17.111 24.8303C16.8571 24.678 16.5525 24.221 16.5525 24.1194C16.5017 23.9671 16.5525 23.8148 16.6033 23.764C16.7556 23.6625 16.9079 23.8148 17.0603 23.8656C17.111 23.8656 17.1618 23.9671 17.2126 23.9671C17.3141 23.9671 17.4157 23.9671 17.4157 23.9671C17.9234 23.9163 18.482 24.1194 18.5835 23.764C18.6343 23.5609 18.4312 23.4086 18.3804 23.307C18.3296 23.2055 18.3804 23.2055 18.3296 23.0531L18.2789 22.9516C18.2281 22.85 18.2789 22.7993 18.2281 22.6977C18.1773 22.5962 18.025 22.4946 17.9742 22.4438C17.8727 22.2915 17.8727 22.1392 17.7711 22.0376C17.6188 21.8853 16.8571 21.6822 16.8064 21.5299C16.654 21.276 16.8571 20.7682 16.7556 20.4636C16.7048 20.2605 16.654 20.1589 16.5525 20.0574C16.5017 20.0066 16.5017 19.9558 16.5017 19.8543C16.5525 19.7527 16.6033 19.7527 16.6033 19.4988C16.6033 19.3465 16.6033 19.1942 16.6033 19.0419L16.654 18.788C16.7048 18.3818 16.654 17.9756 16.5525 17.7217C16.5017 17.5694 16.4002 17.4678 16.3494 17.3155C16.2986 17.2139 16.3494 17.1632 16.2986 17.0616C16.2478 16.9601 16.1463 16.9093 16.0955 16.8077C15.994 16.6554 16.0447 16.4523 15.8924 16.3507C15.7909 16.3 15.7401 16.3507 15.7401 16.3507C15.6893 16.4523 15.6893 16.6046 15.7909 16.757C15.8416 16.8077 15.9432 16.9093 15.9432 17.0108C15.994 17.1632 15.9432 17.3155 15.9432 17.417L15.994 17.5694C16.0447 17.9248 15.8416 18.3818 15.7401 18.5849C15.6385 18.7372 15.3339 18.8895 15.3339 19.0926C15.3339 19.1942 15.3847 19.1942 15.3847 19.245C15.4354 19.2957 15.5878 19.3973 15.5878 19.4481C15.5878 19.4988 15.6385 19.4988 15.6385 19.5496V19.6512C15.6385 19.9051 15.3339 19.9558 15.4862 20.2605C15.537 20.362 15.6893 20.362 15.7401 20.4128C15.8924 20.5144 16.1971 20.819 16.2478 21.0221C16.2478 21.1237 16.2478 21.6822 16.1971 21.733C16.1463 21.8853 15.7401 21.9361 15.7909 22.2407C15.8416 22.5962 16.7048 22.4946 16.9587 22.6469C17.0603 22.7485 17.111 22.9008 17.111 23.0531C17.111 23.1547 17.0603 23.1547 17.0095 23.2055C16.9079 23.2562 16.8571 23.2055 16.7556 23.2562C16.4509 23.307 15.994 23.4594 15.8924 23.6625C15.7401 23.9163 15.9432 24.2718 15.8416 24.5764C15.7909 24.8303 15.5878 25.1857 15.4354 25.3888C15.3339 25.5412 15.2323 25.6427 15.1815 25.8458C14.8769 26.4043 14.9784 26.9121 14.9277 27.3691C14.9277 27.3691 14.9277 27.623 14.7753 27.7753C14.5722 27.9784 13.9122 28.5877 13.4552 28.5877C13.3028 28.5877 13.2013 28.5369 12.9982 28.3846C12.8966 28.3846 12.592 28.283 12.4397 28.1307C12.3889 28.0292 11.8811 27.5214 12.1858 27.3691C12.4904 27.2168 12.9982 27.5214 13.2013 27.6737C13.3028 27.6737 13.9629 27.7245 14.6738 26.7598C14.623 26.252 14.623 25.6427 14.5722 25.5412C14.5215 25.2873 14.1153 24.8811 14.0137 24.6272C13.9629 24.4241 13.8614 24.0179 13.9122 23.764C13.8614 23.4594 13.7091 23.4086 13.6075 23.1547C13.6075 23.1039 13.5567 23.0531 13.5567 23.0024C13.5567 22.9008 13.5059 22.85 13.4552 22.7485C13.3536 22.5454 13.2013 22.4946 13.0997 22.3423C12.9982 22.1392 12.9982 21.9361 12.8459 21.7838C12.7443 21.733 12.592 21.733 12.4904 21.6314C12.3889 21.5806 12.2873 21.4791 12.2366 21.4283C12.135 21.3775 12.0842 21.3775 11.9827 21.3268C11.9319 21.276 11.8303 21.276 11.7796 21.2252C11.7288 21.1744 11.678 21.2252 11.6272 21.1744C11.4749 21.0729 11.5765 20.9713 11.5257 20.7682L11.4749 20.7175C11.4241 20.7175 11.3226 20.6159 11.2718 20.6667C11.1703 20.7682 11.1195 20.7175 11.0687 20.8698C11.0179 20.9713 10.9672 21.276 10.8656 21.3775C10.8148 21.4283 10.7133 21.5299 10.6117 21.6314C10.5102 21.6822 10.4594 21.6822 10.4594 21.6822L10.2055 21.733L10.0532 21.9361C10.0532 21.9361 9.90087 21.9361 9.8501 21.9361C9.8501 21.9869 9.64699 22.1392 9.59622 22.1392C9.39311 22.2915 9.24079 22.19 9.24079 22.1392C9.24079 22.0884 9.13924 21.9869 9.29156 21.9361C9.79932 21.7838 10.4086 21.1237 10.4594 20.9713C10.4086 21.0729 9.34234 21.6314 9.13924 21.733C9.34234 21.2252 10.6625 20.5144 10.7133 20.4128C10.3579 20.4636 9.29156 21.1237 9.08846 21.4283C8.88536 21.733 8.68225 21.6314 8.47915 21.6314C8.27605 21.6314 8.27605 21.8345 8.27605 21.9869C8.27605 22.0884 8.1745 22.3931 8.27605 22.3931C8.42838 22.4946 8.78381 22.0376 8.88536 22.2915C8.93613 22.5962 8.22527 22.5454 8.22527 22.7993C8.1745 22.9008 8.88536 22.9516 9.03768 23.1039C8.83458 23.2562 8.27605 23.307 8.07295 23.3578C7.97139 23.3578 7.86984 23.3578 7.81907 23.3578C7.71752 23.3578 7.61596 23.2562 7.51441 23.1039C7.31131 22.7485 7.66674 22.4946 7.66674 22.3931C7.66674 22.2915 7.61596 22.3423 7.61596 22.19C7.61596 22.0376 7.76829 21.9869 7.81907 21.9869C7.86984 21.9361 7.81907 21.8853 7.81907 21.7838C7.92062 21.4283 8.47915 21.0729 8.32682 20.9713C8.1745 20.9206 7.92062 21.1744 7.81907 21.3268C7.46364 21.8345 7.00665 21.6822 6.85433 21.6822C6.4989 21.6822 6.60045 21.3268 6.80355 21.3775C7.05743 21.3268 7.05743 20.9713 7.26053 20.9713C7.31131 21.2252 7.00665 21.276 7.15898 21.3268C7.36209 21.3775 7.36209 21.1744 7.41286 21.0221C7.46364 20.9206 7.71751 20.6667 7.71751 20.6159C7.61596 20.5651 7.46364 20.7175 7.36208 20.819C7.15898 20.2605 7.71751 19.8543 7.71751 19.7019C7.92062 19.3973 8.93613 19.0419 8.93613 18.6357H8.98691C8.98691 18.6357 8.98691 18.6357 9.03768 18.6864C9.03768 18.7372 9.03768 18.7372 9.03768 18.788C9.03768 18.8388 9.03768 18.8388 9.03768 18.8388V18.788C9.03768 18.8388 9.03768 18.8895 9.03768 18.8895V18.788C9.03768 18.8388 9.08846 18.8388 9.08846 18.8388C9.08846 18.8388 9.19001 18.8388 9.24079 18.7372C9.24079 18.7372 9.29156 18.6864 9.29156 18.6357C9.39311 18.5849 9.39311 18.5341 9.49467 18.4326C9.64699 18.1787 9.34234 17.8232 9.44389 17.4678C9.49467 17.2647 9.69777 16.9601 9.69777 16.9601C9.74854 16.8077 9.64699 16.8077 9.64699 16.8077C9.49467 16.8077 9.44389 16.9093 9.44389 16.9093C9.29156 17.0616 9.24079 17.1632 9.08846 17.3663C9.08846 17.3663 8.98691 17.4678 8.93613 17.3155C8.88536 17.1124 9.13924 16.6554 9.19001 16.6046C9.34234 16.5031 9.49467 16.4523 9.64699 16.4015C9.74855 16.3507 9.8501 16.1984 9.95165 16.1984C10.0024 16.1984 10.0532 16.1984 10.104 16.1984C10.104 16.1984 10.1548 16.2492 10.1548 16.4015C10.1548 16.4015 10.104 16.6046 10.104 16.6554C10.104 16.7062 10.104 16.757 10.2055 16.757C10.4594 16.757 11.0179 16.7062 11.1703 16.6046C11.221 16.6046 11.221 16.5539 11.2718 16.5031C11.3226 16.4523 11.3226 16.3507 11.2718 16.3507L11.1703 16.3C11.2718 16.3 10.7133 16.3 10.7641 16.2492C10.6625 16.2492 10.9164 15.9953 10.8656 15.843C10.8656 15.7922 10.7641 15.7414 10.7133 15.6907C10.7133 15.6399 10.6625 15.5891 10.7133 15.5891L10.8148 15.5383C10.8656 15.5383 10.8656 15.4876 10.9164 15.4876C11.0687 15.386 11.4241 15.4368 11.5257 15.4876C11.5257 15.4876 11.7796 15.5383 11.8303 15.7414C11.8303 15.7922 11.8811 15.843 11.8811 15.8938C11.9827 16.0461 12.2873 16.0969 12.4904 15.8938C12.5412 15.843 12.592 15.7922 12.592 15.7414C12.7443 15.3352 12.4904 15.0306 12.1858 14.929C12.0335 14.8783 11.8304 14.8783 11.678 14.8275C11.5765 14.7767 11.6272 14.6751 11.678 14.6751L11.7288 14.6244C11.7796 14.5228 11.9827 14.4213 12.0842 14.4213C12.2873 14.3705 12.4397 14.2689 12.6935 14.3705C12.7443 14.3705 12.8459 14.472 12.8459 14.472C13.049 14.5228 13.0997 14.5228 13.3028 14.4213C13.3536 14.3705 13.3536 14.3705 13.3536 14.3705C13.4044 14.1674 13.3028 14.0658 13.3028 14.0658C13.2521 13.812 13.9629 14.1166 14.0645 13.9643C14.166 13.812 14.1153 13.5581 14.2168 13.4565L14.3184 13.4058C14.4707 13.355 14.5722 13.4565 14.6738 13.4565L14.7753 13.5073C14.9784 13.6089 15.1815 13.6596 15.3339 13.812C15.4354 13.9135 15.3847 14.1166 15.4862 14.2182C15.537 14.2689 15.5878 14.3197 15.6385 14.3705C15.6893 14.4213 15.7401 14.4213 15.7909 14.472C15.8416 14.5228 15.8924 14.5228 15.9432 14.5736C15.994 14.5736 16.0955 14.6752 16.1463 14.7259C16.3494 14.8275 16.6033 14.7767 16.8571 14.7767C17.0095 14.7767 17.0603 14.8275 17.2126 14.8275C17.2634 14.8275 17.2634 14.6751 17.2126 14.6244C17.111 14.5228 17.0603 14.5228 16.9079 14.472C16.8571 14.4213 16.8064 14.3197 16.7556 14.3197C16.6033 14.2182 16.3494 14.2182 16.2478 14.0658C16.2478 14.0658 16.1971 14.0151 16.1971 13.9643L16.1463 13.9135C15.9432 13.5073 15.8924 13.3042 16.0955 13.2027C16.1971 13.1519 16.4509 13.2027 16.6033 13.1519C16.654 13.1519 16.7048 13.0503 16.7048 13.0503C16.9587 12.898 17.5172 12.7457 17.7711 12.898C17.8727 12.9488 17.7711 13.1519 17.8219 13.2534C17.8219 13.3042 17.9234 13.355 17.9742 13.355C18.5835 13.5073 19.1421 13.5073 19.599 13.7104C19.8529 13.812 20.056 14.0151 20.3099 14.2182C20.513 14.4213 20.2591 14.6244 20.4622 14.6751C20.3099 14.6751 20.2083 14.7259 20.1576 14.6244L20.1068 14.5228C19.9545 14.3705 19.7514 14.1674 19.5483 14.0658C19.4467 14.0151 19.3959 14.0658 19.2436 14.0151L19.2944 14.2182C19.1421 14.1674 19.1421 14.1674 18.9897 14.1674C18.939 14.1674 18.7866 14.0658 18.6851 14.0658C18.3804 14.0151 18.2281 14.1166 17.9742 14.0658C17.8727 14.0151 17.6696 13.812 17.568 13.7612C17.4665 13.7104 17.3141 13.6596 17.2126 13.6089C17.1618 13.6089 17.111 13.6089 17.111 13.6089C17.0095 13.6596 17.0603 13.7104 17.111 13.7612C17.111 13.812 17.1618 13.8627 17.1618 13.8627C17.2634 13.9135 17.4665 13.9135 17.5172 14.0151C17.6696 14.3197 17.4665 14.4213 17.4157 14.5228C17.4157 14.5736 17.3649 14.6244 17.4157 14.6751C17.4665 14.7259 17.5172 14.7767 17.568 14.7767C17.7203 14.8275 17.8219 14.8275 17.9742 14.8783C18.0758 14.929 18.1773 15.0814 18.2789 15.1321C18.5327 15.1829 18.6343 14.9798 18.7866 14.9798C18.9897 14.929 19.0913 15.0306 19.3452 14.9798C19.4467 14.9798 19.4467 14.8783 19.4975 14.8275C19.6498 14.7767 19.7514 14.7259 19.8529 14.7767C19.8529 14.7767 19.9545 14.8275 19.8021 14.8783C19.7514 14.929 19.6498 14.929 19.599 14.9798C19.5483 15.0306 19.4975 15.0814 19.4975 15.0814C19.4975 15.1321 19.4467 15.1829 19.4467 15.1829C19.4467 15.2337 19.4975 15.2337 19.4975 15.2337C19.7514 15.3352 20.0052 15.1829 20.2083 15.1321C20.3607 15.1321 20.7669 15.1321 20.9192 15.2337C20.9192 15.2337 21.0208 15.2337 20.97 15.4876C20.9192 15.5891 20.7161 15.6907 20.6653 15.7922C20.6146 15.843 20.5638 15.9445 20.513 16.0461C20.4622 16.1476 20.4114 16.1476 20.3607 16.2492L20.3099 16.3C20.2591 16.4015 19.9037 16.7062 19.8529 16.8077C19.8021 16.8585 19.8021 16.9093 19.7514 17.0108C19.7006 17.1124 19.6498 17.1124 19.599 17.1632C19.4975 17.3155 19.2944 17.6201 19.1421 17.6709C19.0913 17.7217 18.9897 17.6709 18.8374 17.6709C18.7866 17.6709 18.6851 17.5186 18.6343 17.5186C18.3804 17.417 18.1265 17.417 17.9234 17.3155C17.8219 17.2647 17.7203 17.0616 17.6188 16.9601C17.568 16.9093 17.5172 16.757 17.4665 16.757C17.3649 16.7062 17.0603 16.757 16.9587 16.8585C16.8571 17.0616 17.1618 17.6201 17.1618 17.874C17.1618 18.0771 17.111 18.1787 17.1618 18.331C17.2126 18.4326 17.3141 18.4326 17.3649 18.4833C17.568 18.788 17.3649 19.1942 17.4157 19.6004C17.4157 19.7019 17.5172 19.8543 17.4665 20.0574C17.4157 20.3113 17.0603 20.5651 17.2126 20.9713C17.2126 20.9713 17.2634 21.0221 17.3141 21.0221C17.3649 21.0729 17.4665 21.0221 17.5172 21.0221C17.6188 20.9713 17.7203 20.7682 17.8727 20.6667L17.9234 20.6159L17.9742 20.5651C18.025 20.5144 18.025 20.5144 18.0758 20.4636C18.1265 20.362 18.1265 20.2605 18.1265 20.0574C18.1773 19.9051 18.2789 19.7019 18.2789 19.5496C18.3296 19.1434 18.025 18.2802 18.2281 18.1787C18.3296 18.1279 18.3804 18.0263 18.5327 18.0263C18.5835 18.0263 18.7866 18.0771 18.8882 18.0771C18.7866 18.331 19.1928 19.0419 19.1421 19.3973C19.0405 20.3113 18.4312 20.8698 17.9234 21.3268C17.8727 21.3775 17.9234 21.4283 17.9742 21.4791C18.0758 21.5806 18.3296 21.5299 18.482 21.5299C18.6851 21.4791 18.7359 21.4283 18.8882 21.3775C18.939 21.3775 18.9897 21.3775 19.0405 21.3775C19.1928 21.3268 19.2944 21.1237 19.3959 21.0221C19.3959 21.0221 19.5483 20.819 19.599 21.0729C19.599 21.276 19.5483 21.5299 19.599 21.7838C19.6498 22.0376 20.1068 22.85 20.3607 22.85C20.9192 22.9516 20.3607 22.19 20.3099 22.1392C20.2083 21.9361 20.1068 21.5299 20.1576 21.2252C20.1576 21.1237 20.2591 20.9206 20.2591 20.819C20.2591 20.7682 20.2591 20.6667 20.2591 20.6159C20.3099 20.5144 20.6146 20.5144 20.6653 20.362C20.6653 20.3113 20.6653 20.2605 20.6653 20.2097C20.6653 20.1082 20.7161 19.9558 20.8177 19.9051C20.8684 19.8543 20.9192 19.8035 20.97 19.9051C21.0208 19.9558 21.0208 20.1082 21.1223 20.2605L21.2239 20.362C21.3254 20.4128 21.4777 20.362 21.427 20.362C21.5285 20.3113 21.5285 20.2097 21.5793 20.2097L21.6301 20.1589C21.8839 19.9051 21.3254 19.6512 21.3254 19.4481C21.3254 19.1942 21.3762 18.8895 21.2746 18.5849C21.2746 18.5341 21.1223 18.4326 21.1223 18.331C21.0715 18.1787 21.1731 17.9756 21.1731 17.874C21.2239 17.6709 21.1223 17.3155 21.2239 17.2139C21.2746 17.1632 21.3254 17.1124 21.4777 17.1632C21.5793 17.1632 21.6301 17.3155 21.6808 17.3663C21.8839 17.5694 22.1886 17.6709 22.544 17.6201C22.5948 17.6201 22.6456 17.5694 22.6456 17.5186C22.6456 17.4678 22.6456 17.3663 22.6456 17.3155C22.4933 17.1124 21.9855 17.0108 21.9347 16.9093C21.9347 16.8585 21.8332 16.757 21.9347 16.7062C21.9855 16.757 22.3917 16.757 22.4933 16.7062C22.6456 16.6554 22.6964 16.5031 22.7979 16.4523C22.9502 16.3507 23.2041 16.4523 23.3057 16.3C23.3564 16.1984 23.3057 16.0461 23.3564 15.9445C23.4072 15.843 23.6103 15.7922 23.7626 15.6907C23.8134 15.6399 23.8134 15.5383 23.8134 15.4876ZM9.8501 23.6117C9.79932 23.5609 9.8501 23.4086 9.95165 23.307C10.2055 23.2055 10.2563 23.307 10.3071 23.4086C10.5102 23.764 10.8148 24.221 11.0179 24.3733C10.8656 24.4241 10.1548 24.1702 9.8501 23.6117ZM11.7796 27.1152C11.678 27.1152 10.8656 26.4551 11.0179 26.0489C11.2718 26.2012 11.7796 26.5567 11.8303 26.5567C11.8811 26.6074 11.9319 27.0644 11.7796 27.1152ZM12.6428 27.1152C12.5412 27.0137 11.7796 26.252 11.9827 25.8458C12.1858 26.0489 12.7443 26.5567 12.9474 26.6074C13.049 26.8106 13.049 27.2168 12.6428 27.1152ZM12.7443 24.1194C12.8966 24.3225 13.049 24.4241 13.049 24.8303C13.049 24.9318 13.049 24.9318 13.1505 24.9318C13.2521 24.9318 13.2013 24.4241 13.4044 24.4749C13.6075 24.5256 13.4552 24.7795 13.5567 25.0842C13.6075 25.1857 13.8106 25.5919 13.7598 26.3028C13.7598 26.5059 13.4044 26.709 13.2013 26.5567C13.049 26.4551 13.049 26.3536 12.9474 25.5919C12.8966 25.1857 12.3889 25.0334 12.1858 24.8303C11.9827 24.678 12.0842 24.5764 12.0335 24.2718C11.8811 23.8148 11.4241 23.6625 11.5765 23.3578C11.6272 23.307 11.678 23.2055 11.8303 23.2562C11.8811 23.5101 12.3889 23.7132 12.7443 24.1194ZM9.19001 22.7485C9.13924 22.7485 9.13924 22.7485 9.19001 22.7485C9.24079 22.7485 9.44389 22.5962 9.54544 22.5962C9.79932 22.4946 9.90087 22.6469 10.104 22.4946C10.1548 22.4438 10.2055 22.3931 10.2563 22.3423C10.3071 22.2915 10.3579 22.2915 10.4086 22.2915C10.5102 22.19 10.7641 21.9361 10.9164 21.9361C11.0179 21.9361 11.0179 21.9361 11.0687 21.9361C11.0687 21.9361 11.1195 21.9361 11.1195 22.0376C11.0687 22.2915 11.678 22.0376 12.0842 22.1392C12.3381 22.19 12.592 22.2915 12.5412 22.4438L12.4397 22.4946C12.2366 22.6469 12.0842 22.4946 12.0335 22.4438C11.8811 22.4438 11.7796 22.4946 11.5765 22.4438L11.3734 22.3931C11.2718 22.3931 11.0687 22.4438 10.9672 22.4438C10.7641 22.4438 10.7133 22.3931 10.5102 22.3931C10.4086 22.3931 10.3071 22.4946 10.2563 22.5454C10.2055 22.5454 10.1548 22.5962 10.104 22.5962C10.0532 22.5962 10.0024 22.6469 9.95165 22.6977C9.79932 22.7993 9.69777 22.7993 9.49467 22.85L9.29156 22.9008C9.03768 22.9516 9.08846 22.7993 9.19001 22.7485ZM8.52993 23.7132C8.78381 23.6625 8.88536 23.7132 9.03768 24.0179C9.13924 24.221 9.34234 24.4241 9.39312 24.5764C9.08846 24.6272 8.5807 24.1702 8.42838 23.9671C8.3776 23.8656 8.47915 23.764 8.52993 23.7132ZM5.07718 22.4438C5.43261 22.3423 5.73726 22.2407 5.88959 22.1392C5.94036 22.1392 5.99114 22.1392 6.04192 22.1392C6.04192 22.2407 6.09269 22.3423 6.14347 22.4438C6.14347 22.4438 6.14347 22.4946 6.19424 22.4946C5.94036 22.4946 5.53416 22.4438 5.07718 22.4438ZM5.83881 23.0531C6.04192 22.9516 6.19424 22.7993 6.34657 22.6977C6.44812 22.7993 6.4989 22.85 6.60045 22.9516C6.4989 22.9516 6.19424 23.0024 5.83881 23.0531Z" fill="#7C0019"/>
<path d="M6.29653 5.48477C6.1442 5.38322 6.04265 5.28167 5.78877 5.02779C5.78877 5.02779 4.62093 3.7584 4.4686 3.55529C4.4686 3.50452 5.73799 1.93047 5.73799 1.93047L5.83955 1.82892H5.73799H5.17946L3.75774 3.65685V1.82892H3.70696H3.09766V5.6371H3.75774V3.70762L5.28101 5.38322C5.38256 5.53555 5.63644 5.6371 5.9411 5.6371H6.49963L6.29653 5.48477Z" fill="#D7C9B1"/>
<path d="M9.39431 1.72736C8.83577 1.72736 8.32801 1.93046 7.92181 2.28589C7.5156 2.69209 7.3125 3.14908 7.3125 3.70761C7.3125 4.26614 7.5156 4.7739 7.92181 5.12933C8.32801 5.48476 8.785 5.68786 9.34353 5.68786C9.90206 5.68786 10.4098 5.48476 10.7652 5.12933C11.1715 4.72312 11.3746 4.26614 11.3746 3.65683C11.3746 3.14908 11.1715 2.69209 10.816 2.28589C10.4606 1.93046 9.95284 1.72736 9.39431 1.72736ZM9.34353 5.23088C8.93732 5.23088 8.63267 5.07855 8.37879 4.72312C8.12491 4.41847 8.02336 4.06304 8.02336 3.65683C8.02336 3.25063 8.12491 2.8952 8.37879 2.64132C8.63267 2.38744 8.93732 2.23511 9.34353 2.23511C9.74974 2.23511 10.0544 2.38744 10.3083 2.74287C10.5621 3.04753 10.6637 3.40296 10.6637 3.85994C10.6637 4.26614 10.5621 4.62157 10.3083 4.87545C10.1052 5.07855 9.74974 5.23088 9.34353 5.23088Z" fill="#D7C9B1"/>
<path d="M18.5859 3.80917C18.6874 3.80917 19.8045 3.80917 19.8045 3.80917V3.30142C19.8045 3.30142 18.6874 3.30142 18.5859 3.30142C18.5859 3.25064 18.5859 2.38745 18.5859 2.33668C18.8397 2.33668 20.0584 2.33668 20.1091 2.33668H20.1599V1.82892H17.9258V1.87969V5.6371H20.3122L20.4138 5.07857C20.4138 5.07857 18.6874 5.07857 18.6366 5.07857C18.5859 5.02779 18.5859 3.91072 18.5859 3.80917Z" fill="#D7C9B1"/>
<path d="M23.863 1.82892H23.2537L21.6797 5.6371H22.289C22.289 5.6371 22.7968 4.31693 22.7968 4.26615C22.8475 4.26615 24.1169 4.26615 24.1677 4.26615C24.1677 4.31693 24.6755 5.6371 24.6755 5.6371H25.3863L23.863 1.82892ZM23.9646 3.7584C23.863 3.7584 23.1014 3.7584 22.9999 3.7584C23.0506 3.65685 23.4061 2.69211 23.5076 2.489C23.5584 2.64133 23.9646 3.65685 23.9646 3.7584Z" fill="#D7C9B1"/>
<path d="M15.6404 4.77392C15.6404 4.77392 15.0311 3.9615 14.8279 3.80918C14.9803 3.7584 15.1834 3.65685 15.3865 3.45375C15.5896 3.25064 15.6911 3.04754 15.6911 2.79366C15.6911 2.53978 15.5896 2.28591 15.3865 2.13358C15.1834 1.93048 14.8787 1.8797 14.4725 1.8797H13.2539H13.2031V5.68788H13.8632V5.58633C13.8632 5.434 13.8632 5.28167 13.8632 4.82469C13.8632 4.82469 13.8632 2.38746 13.8632 2.33668C14.4725 2.33668 14.7264 2.38746 14.8279 2.48901C14.9803 2.59056 15.0311 2.69211 15.0311 2.89521C15.0311 3.30142 14.7264 3.5553 14.0663 3.65685H14.0155L15.3357 5.38323C15.488 5.58633 15.7419 5.68788 16.0466 5.68788H16.6051L16.5035 5.58633C16.1481 5.38323 15.8435 5.07857 15.6404 4.77392Z" fill="#D7C9B1"/>
<path d="M13.2539 8.12508C13.3046 8.12508 13.8124 8.12508 13.8124 8.12508V7.8712H13.2539C13.2539 7.82042 13.2539 7.41422 13.2539 7.41422C13.3554 7.41422 13.9647 7.41422 13.9647 7.41422V7.16034H12.8984V8.93749H14.0155L14.0663 8.68361C14.0663 8.68361 13.2539 8.68361 13.2031 8.68361C13.2539 8.68361 13.2539 8.12508 13.2539 8.12508Z" fill="#D7C9B1"/>
<path d="M4.57015 7.16034H4.36705V8.27741C4.36705 8.63284 4.2655 8.78516 3.85929 8.78516H3.80852C3.55464 8.78516 3.40231 8.63284 3.40231 8.27741V7.16034H3.09766V8.27741C3.09766 8.42973 3.09766 8.48051 3.09766 8.58206C3.09766 8.68361 3.14843 8.78516 3.19921 8.83594C3.30076 8.98827 3.50386 9.03904 3.70697 9.03904H3.91007C4.11317 9.03904 4.31627 8.98827 4.41783 8.83594C4.4686 8.78516 4.51938 8.68361 4.51938 8.58206C4.51938 8.53128 4.51938 8.42973 4.51938 8.27741L4.57015 7.16034Z" fill="#D7C9B1"/>
<path d="M7.31236 7.16034C7.31236 7.16034 7.31236 8.37896 7.31236 8.48051C7.26158 8.37896 6.24607 7.16034 6.24607 7.16034H5.99219V8.98827H6.24607C6.24607 8.98827 6.24607 7.71887 6.24607 7.61732C6.29684 7.71887 7.31236 8.98827 7.31236 8.98827H7.56624V7.16034H7.31236Z" fill="#D7C9B1"/>
<path d="M8.88672 7.16034V8.98827H9.19137V7.16034H8.88672Z" fill="#D7C9B1"/>
<path d="M20.207 7.16034V7.56654V8.58206V8.98827H20.5625V8.58206V7.56654V7.21111V7.16034H20.5117H20.207Z" fill="#D7C9B1"/>
<path d="M11.6288 7.16034C11.6288 7.16034 11.121 8.48051 11.121 8.58206C11.0702 8.48051 10.6132 7.16034 10.6132 7.16034H10.2578L10.9179 8.98827H11.2226L11.9334 7.16034H11.8826H11.6288Z" fill="#D7C9B1"/>
<path d="M18.6874 8.0743L18.4335 7.97275L18.2304 7.8712C18.0781 7.76965 17.9765 7.71887 17.9765 7.61732C17.9765 7.51577 18.0273 7.46499 18.0781 7.46499C18.1289 7.41422 18.2304 7.41422 18.332 7.41422C18.4843 7.41422 18.6366 7.46499 18.7382 7.51577H18.7889V7.21111C18.6366 7.16034 18.5351 7.16034 18.3827 7.16034C18.1796 7.16034 18.0273 7.21112 17.9258 7.26189C17.7734 7.36344 17.7227 7.46499 17.7227 7.61732C17.7227 7.76965 17.8242 7.92198 17.9765 8.02353L18.0781 8.0743L18.4335 8.22663C18.5858 8.32818 18.6874 8.37896 18.6874 8.48051C18.6874 8.58206 18.6366 8.63284 18.5858 8.68361C18.5351 8.73439 18.4335 8.73439 18.332 8.73439C18.1289 8.73439 17.9765 8.68361 17.7734 8.58206H17.7227L17.7734 8.88671C17.9258 8.93749 18.0781 8.98827 18.2812 8.98827C18.4843 8.98827 18.6874 8.93749 18.8397 8.83594C18.9921 8.73439 19.0428 8.58206 19.0428 8.42973C18.9413 8.27741 18.8905 8.17585 18.6874 8.0743Z" fill="#D7C9B1"/>
<path d="M21.7305 7.16034V7.41422C21.7305 7.41422 22.1875 7.41422 22.2382 7.41422C22.2382 7.46499 22.2382 8.98827 22.2382 8.98827H22.5429C22.5429 8.98827 22.5429 7.46499 22.5429 7.41422C22.5937 7.41422 23.0506 7.41422 23.0506 7.41422V7.16034H21.7305Z" fill="#D7C9B1"/>
<path d="M25.1327 7.16034C25.1327 7.16034 24.6757 7.8712 24.6249 7.92198C24.5741 7.8712 24.1171 7.16034 24.1171 7.16034H23.7617L24.4218 8.17585V8.98827H24.7265C24.7265 8.98827 24.7265 8.22663 24.7265 8.17585L25.3865 7.16034H25.1327Z" fill="#D7C9B1"/>
<path d="M16.453 8.58207C16.453 8.58207 16.1484 8.22664 16.0976 8.12508C16.1484 8.12508 16.2499 8.07431 16.3515 7.97276C16.453 7.87121 16.5038 7.76965 16.5038 7.6681C16.5038 7.51578 16.453 7.41422 16.3515 7.36345C16.2499 7.2619 16.0976 7.21112 15.9453 7.21112H15.3867V9.03905H15.6914V8.98827C15.6914 8.9375 15.6914 8.83594 15.6914 8.63284V7.465C15.996 7.465 16.0976 7.51578 16.1484 7.51578C16.1991 7.56655 16.2499 7.61733 16.2499 7.71888C16.2499 7.92198 16.0976 8.02353 15.7929 8.07431H15.7421L16.3515 8.88672C16.4022 8.98827 16.5546 9.03905 16.6561 9.03905H16.91L16.8592 8.98827C16.7069 8.83595 16.5546 8.73439 16.453 8.58207Z" fill="#D7C9B1"/>
</g>
<defs>
<clipPath id="clip0_2521_53200">
<rect width="133.337" height="36" fill="white" transform="translate(0.660156 0.000976562)"/>
</clipPath>
</defs>
</svg>
