<svg width="330" height="110" viewBox="0 0 330 110" fill="none" xmlns="http://www.w3.org/2000/svg">
<path d="M11.5 9.93861C30.7068 16.7301 41.321 13.2086 54.3362 0.00292969C67.3513 12.8313 82.6409 15.9755 99.5732 10.0644L99.6995 67.7919C99.6995 124.388 12.0054 123.633 11.5 68.1692L11.5 9.93861Z" fill="#003A56"/>
<path d="M16.1758 15.3467C30.9599 19.6228 42.9642 18.2394 54.463 6.54297C66.2145 18.1136 81.3777 19.7486 95.0246 15.3467V67.2889C95.0246 118.351 16.5549 117.093 16.1758 67.5405V15.3467Z" fill="white"/>
<path d="M16.1758 15.3467L54.2103 73.2L95.0246 15.3467V67.2889C95.0246 118.476 16.1758 118.225 16.1758 67.5404V15.3467Z" fill="#96A8A7"/>
<path d="M90.8516 80.6203L88.8299 80.243L85.0391 80.746L85.2918 79.4884L87.819 79.2368L85.6709 77.8534L86.0499 76.5957L89.0826 78.9853L91.1044 79.4884L90.8516 80.6203Z" fill="white"/>
<path d="M88.8294 85.5253L84.6595 83.3872L84.0277 84.5191L83.2695 84.1418L84.9122 80.7461L85.6704 81.1234L85.1649 82.2553L89.4612 84.3934L88.8294 85.5253Z" fill="white"/>
<path d="M82.7809 84.7477L82.1797 85.7085L87.0061 88.7007L87.6074 87.7399L82.7809 84.7477Z" fill="white"/>
<path d="M82.5155 91.5621L83.2736 90.556L83.4 90.6818C83.6527 90.8075 83.9055 90.9333 83.9055 90.9333C84.0318 90.9333 84.2845 90.9333 84.4109 90.6818C84.5373 90.556 84.5373 90.3045 84.5373 90.1787C84.5373 90.0529 84.4109 89.8014 84.2845 89.8014C84.1582 89.6756 83.6527 89.6756 83.1473 89.8014H83.0209C82.7682 89.9272 82.5155 89.9272 82.3891 90.0529C82.2628 90.0529 82.01 90.1787 81.8837 90.1787C81.631 90.1787 81.3782 90.1787 81.2519 90.1787C80.9992 90.0529 80.8728 89.9272 80.6201 89.8014C80.241 89.5499 79.9883 89.1726 79.9883 88.7952C79.9883 88.2922 80.1146 87.9149 80.3674 87.5376C80.7464 87.1603 81.1255 86.9087 81.5046 86.783C81.8837 86.783 82.2628 86.9087 82.6418 87.1603L82.7682 87.286L82.2628 88.2922C82.01 88.1664 81.8837 88.0406 81.631 88.0406C81.5046 88.0406 81.2519 88.1664 81.1255 88.2922C80.9992 88.4179 80.9992 88.5437 80.9992 88.6695C80.9992 88.7952 81.1255 89.0468 81.2519 89.0468C81.5046 89.1726 82.01 89.1725 82.6418 88.921C82.7682 88.921 83.0209 88.7952 83.0209 88.7952C83.4 88.6695 83.7791 88.5437 84.0318 88.6695C84.2845 88.6695 84.5373 88.7952 84.79 88.921C85.2954 89.2983 85.4218 89.6756 85.5481 90.0529C85.5481 90.4302 85.4218 90.9333 84.9163 91.4364C84.5373 91.9394 84.1582 92.191 83.7791 92.191C83.4 92.3168 83.0209 92.0652 82.6418 91.8137C82.6418 91.8137 82.5155 91.8137 82.5155 91.6879C82.5155 91.5621 82.5155 91.6879 82.5155 91.5621Z" fill="white"/>
<path d="M82.3909 93.197C82.2645 93.0713 82.1382 92.9455 81.8854 92.694C81.8854 92.694 81.8854 92.694 81.7591 92.5682L81.6327 92.4424C81.2536 92.0651 81.0009 91.8136 80.8746 91.8136C80.7482 91.8136 80.4955 91.8136 80.1164 91.9394C80.2427 91.6878 80.3691 91.4363 80.3691 91.1848C80.3691 90.9332 80.1164 90.6817 79.8637 90.3044C79.4846 89.9271 79.1055 89.6755 78.7264 89.6755C78.4737 89.6755 77.9683 89.9271 77.4628 90.3044L76.1992 91.4363L79.99 95.7124L80.8746 94.9578L79.3582 93.197L79.7373 92.9455C79.8637 92.8197 80.1164 92.694 80.2428 92.694C80.3691 92.694 80.6218 92.8197 80.7482 93.0713C80.7482 93.0713 80.8746 93.197 81.0009 93.4486C81.38 93.8259 81.6327 94.0774 81.7591 94.2032L82.77 93.4486C82.77 93.3228 82.5172 93.3228 82.3909 93.197ZM79.1055 92.4424L78.8528 92.5682L77.8419 91.4363L78.0946 91.3105C78.3473 91.059 78.6001 90.9332 78.7264 90.9332C78.8528 90.9332 79.1055 91.059 79.2319 91.3105C79.3582 91.5621 79.4846 91.6878 79.4846 91.9394C79.4846 92.0651 79.3582 92.1909 79.1055 92.4424Z" fill="white"/>
<path d="M76.3243 98.2276L73.418 93.3227L76.0715 91.8135L76.4506 92.5681L74.9343 93.4485L75.5661 94.7061L77.0824 93.8258L77.4615 94.4546L76.0715 95.335L76.9561 96.8442L78.5987 95.8381L78.9778 96.5927L76.3243 98.2276Z" fill="white"/>
<path d="M72.783 99.9886L68.9922 95.461L70.1294 94.9579L71.8985 97.3475C72.2776 97.7248 72.5303 97.9763 72.5303 98.2279C72.6566 98.4794 72.9094 98.7309 73.0357 98.8567C72.9094 98.4794 72.783 98.2279 72.6566 97.8506C72.5303 97.599 72.5303 97.2217 72.5303 96.9702L71.7721 94.0775L72.9094 93.5745L74.0466 99.3598L72.783 99.9886Z" fill="white"/>
<path d="M69.2482 101.12L67.6055 95.8382L68.6164 95.4609L70.3854 100.869L69.2482 101.12Z" fill="white"/>
<path d="M63.6855 102.63L62.4219 97.096L64.0646 96.7187L65.7072 99.3598C65.96 99.6113 66.0863 99.9886 66.2127 100.24C66.339 100.492 66.5918 100.869 66.7181 101.121C66.7181 100.869 66.5918 100.617 66.4654 100.366C66.339 100.114 66.339 99.8629 66.2127 99.4856L65.4545 96.3414L66.5918 96.0898L67.8554 101.624L66.339 102.001L64.4436 99.3598C64.3173 99.234 64.0646 98.8567 63.9382 98.6052C63.8118 98.3537 63.5591 97.9764 63.4328 97.5991C63.4328 97.9764 63.5591 98.2279 63.6855 98.4794C63.6855 98.731 63.8118 98.9825 63.8118 99.1083L64.6964 102.378L63.6855 102.63Z" fill="white"/>
<path d="M61.6633 97.2217L61.916 100.743C62.0423 101.498 61.916 102.127 61.6633 102.504C61.2842 102.881 60.9051 103.133 60.1469 103.133C59.5151 103.133 59.0097 103.133 58.6306 102.756C58.3779 102.378 58.1252 102.001 58.1252 101.246L57.7461 97.4733L58.8833 97.3475L59.2624 100.743C59.2624 101.372 59.3888 101.875 59.5151 101.875C59.6415 102.001 59.8942 102.127 60.1469 102.127C60.3997 102.127 60.6524 102.001 60.6524 101.749C60.6524 101.498 60.7787 101.121 60.6524 100.492L60.3997 97.0959L61.6633 97.2217Z" fill="white"/>
<path d="M45.2383 102.378L45.8701 96.7185L47.6391 96.97L48.0182 100.492C48.0182 100.617 48.1446 100.743 48.1446 100.995C48.1446 101.12 48.1446 101.498 48.1446 101.749C48.1446 101.623 48.2709 101.372 48.2709 101.12C48.2709 100.995 48.3973 100.743 48.3973 100.492L49.5345 97.0958L51.4299 97.2216L50.7981 102.881L49.6609 102.755L50.1663 98.8566C50.1663 98.605 50.1663 98.3535 50.2927 98.102C50.2927 97.8504 50.4191 97.7246 50.4191 97.4731L48.65 102.504L47.5128 102.378L46.881 97.2216C46.881 97.5989 46.881 98.102 46.7546 98.605L46.3755 102.378H45.2383Z" fill="white"/>
<path d="M43.723 95.7124L40.0586 100.24L41.1958 100.743L41.954 99.6112L43.4703 100.24L43.344 101.498L44.4812 102.001L45.2394 96.2155L43.723 95.7124ZM43.5967 99.2339L42.4594 98.7308L43.9758 96.7185L43.5967 99.2339Z" fill="white"/>
<path d="M35.7617 97.9762L38.668 93.0713L40.058 93.8259L39.4262 96.8443C39.4262 97.2216 39.2998 97.5989 39.1734 97.8505C39.0471 98.102 39.0471 98.4793 38.9207 98.8566C39.0471 98.6051 39.1734 98.3535 39.2998 98.2278C39.4262 97.9762 39.5525 97.7247 39.6789 97.4732L41.3216 94.7063L42.2061 95.2093L39.2998 100.114L38.0362 99.2339L38.668 95.964C38.7944 95.7124 38.7944 95.4609 38.7944 95.0836C38.9207 94.832 38.9207 94.329 39.0471 93.9517C38.9207 94.2032 38.668 94.5805 38.5416 94.832C38.4153 95.0836 38.2889 95.3351 38.2889 95.4609L36.7726 98.4793L35.7617 97.9762Z" fill="white"/>
<path d="M36.5191 95.2094L34.7501 97.4733C34.371 97.3475 33.9919 97.2217 33.8655 96.9702C33.6128 96.8444 33.4865 96.7187 33.2337 96.5929C32.981 96.3414 32.7283 96.2156 32.6019 95.9641C32.4756 95.7125 32.2229 95.5868 32.3492 95.3352C32.2229 94.9579 32.3492 94.5806 32.4756 94.3291C32.6019 93.9518 32.981 93.4487 33.4865 92.6941C33.8655 92.191 34.1183 91.9395 34.371 91.6879C34.6237 91.4364 34.8764 91.3106 35.0028 91.3106C35.2555 91.1849 35.5082 91.1849 35.8873 91.3106C36.14 91.4364 36.5191 91.5622 36.7718 91.8137C37.2773 92.191 37.53 92.5683 37.6564 92.9456C37.7827 93.4487 37.6564 93.826 37.2773 94.3291L36.2664 93.5745C36.5191 93.3229 36.6455 93.0714 36.5191 92.8199C36.5191 92.6941 36.3927 92.4426 36.2664 92.3168C36.0137 92.191 35.7609 92.0652 35.5082 92.3168C35.2555 92.4426 34.8764 92.9456 34.371 93.5745C33.7392 94.3291 33.4865 94.8321 33.3601 95.0837C33.3601 95.3352 33.4865 95.5867 33.7392 95.8383C33.8655 95.8383 33.8655 95.9641 33.9919 95.9641C33.9919 96.0898 34.2446 96.0898 34.2446 96.0898L35.0028 95.0837L34.4973 94.7064L35.0028 93.9518L36.5191 95.2094Z" fill="white"/>
<path d="M27.5469 91.6879L31.7168 87.7891L32.854 88.921L31.3377 91.6879C31.2113 91.9394 31.085 92.3167 30.8322 92.5682C30.7059 92.8198 30.4532 93.1971 30.3268 93.4486C30.4532 93.1971 30.5795 93.0713 30.8322 92.8198C31.085 92.5682 31.2113 92.3167 31.464 92.1909L33.8649 89.9271L34.6231 90.6817L30.4532 94.7063L29.3159 93.5744L30.8322 90.556C30.9586 90.4302 31.085 90.0529 31.2113 89.8013C31.3377 89.5498 31.5904 89.1725 31.8431 88.7952C31.5904 89.0467 31.3377 89.2983 31.2113 89.424C30.9586 89.5498 30.8322 89.8013 30.7059 89.9271L28.305 92.3167L27.5469 91.6879Z" fill="white"/>
<path d="M31.0878 87.286L28.3079 89.4241C27.6761 89.9272 27.1706 90.1787 26.6652 90.0529C26.2861 90.0529 25.7807 89.6756 25.4016 89.1726C25.0225 88.6695 24.7698 88.1664 24.8962 87.6633C25.0225 87.286 25.2752 86.783 25.7807 86.4057L28.687 84.1418L29.4451 85.148L26.6652 87.286C26.1598 87.6634 25.907 87.9149 25.7807 88.1664C25.7807 88.2922 25.7807 88.5437 25.907 88.7953C26.0334 89.0468 26.2861 89.1726 26.4125 89.1726C26.6652 89.1726 27.0443 88.921 27.5497 88.5437L30.2033 86.4057L31.0878 87.286Z" fill="white"/>
<path d="M22.1133 84.1417L24.135 83.2613L26.6623 80.3687L27.1677 81.5006L25.3987 83.2613L27.9259 83.0098L28.4313 84.1417L24.5141 84.2675L22.7451 85.2736L22.1133 84.1417Z" fill="white"/>
<path d="M20.0938 77.7277L25.6536 76.3442L25.9063 77.4761L23.5055 78.105L26.2854 78.9854L26.5381 80.1173L23.6318 79.2369L20.9783 81.5007L20.7256 80.1173L23 78.2308L20.3465 78.8596L20.0938 77.7277Z" fill="white"/>
<path d="M44.1016 20.7546H65.3301V27.7976H68.8682V32.0738H65.4565V36.8529H68.9946V41.0033H65.4565V47.7948H60.9075V25.2823H44.1016V20.7546Z" fill="#003A56"/>
<path d="M48.9058 27.7976V50.5616H65.5854V55.4666H44.2305V27.7976H48.9058Z" fill="#003A56"/>
<path d="M67.602 60.12L70.5083 56.9758C74.8046 60.8746 77.4581 66.4084 77.4581 72.4453C77.4581 84.2675 67.3493 93.8259 55.0923 93.8259C42.709 93.8259 32.7266 84.2675 32.7266 72.4453C32.7266 66.5342 35.2538 61.1262 39.2973 57.3531L42.2036 60.3716C39.0446 63.5158 37.0228 67.7919 37.0228 72.4453C37.0228 81.8779 45.1099 89.6755 54.966 89.6755C64.8221 89.6755 72.9092 81.8779 72.9092 72.4453C73.0355 67.7919 71.0138 63.39 67.602 60.12Z" fill="#003A56"/>
<path fill-rule="evenodd" clip-rule="evenodd" d="M141.501 38.3362C142.652 38.3362 143.585 39.2689 143.585 40.4195V69.5862C143.585 70.7368 142.652 71.6695 141.501 71.6695C140.351 71.6695 139.418 70.7368 139.418 69.5862V40.4195C139.418 39.2689 140.351 38.3362 141.501 38.3362Z" fill="#7F96AE"/>
<path fill-rule="evenodd" clip-rule="evenodd" d="M124.832 55.003C124.832 53.8524 125.765 52.9197 126.915 52.9197H156.082C157.233 52.9197 158.165 53.8524 158.165 55.003C158.165 56.1536 157.233 57.0863 156.082 57.0863H126.915C125.765 57.0863 124.832 56.1536 124.832 55.003Z" fill="#7F96AE"/>
<g clip-path="url(#clip0_2493_38248)">
<path d="M288.145 72.2534C288.035 72.2689 288.02 72.1918 288.067 71.9914C288.082 71.9451 288.161 71.6214 288.381 71.0972C282.289 83.3992 269.447 91.8779 254.594 91.8779C243.306 91.8779 233.195 86.9911 226.319 79.2523C223.241 79.576 214.167 80.5164 213.931 80.5472C213.649 80.578 213.602 80.4855 213.617 80.3006C213.633 80.131 216.208 59.3041 216.208 59.3041C216.349 58.2095 216.647 57.1304 217.071 56.0821C217.056 55.7276 217.04 55.373 217.04 55.0184C217.04 34.654 233.855 18.1435 254.594 18.1435C270.059 18.1435 283.341 27.3314 289.087 40.4349C293.216 40.0033 296.749 39.6333 296.78 39.6333C296.874 39.6179 296.937 39.6796 296.922 39.772C296.922 39.8645 294.315 60.8919 294.315 60.8919C294.127 62.3718 293.672 63.7901 293.012 65.1159C294.724 63.7438 296.984 62.4489 299.983 61.5394C301.365 61.1231 303.296 60.6915 305.227 60.3061C305.337 59.2424 305.415 58.1633 305.462 57.0687C301.129 56.3904 296.419 55.6659 296.388 55.6659C296.325 55.6505 296.262 55.6196 296.278 55.4963C296.294 55.373 296.89 50.3011 296.89 50.3011C297.393 46.2622 299.889 42.5778 303.28 40.3116C296.922 19.8701 277.532 4.97827 254.579 4.97827C232.049 4.97827 212.942 19.3459 206.223 39.2633C207.526 39.14 208.358 39.0475 208.421 39.0475C210.744 39.0475 212.77 39.8491 214.277 41.3753C216.035 43.1481 216.82 45.6609 216.475 48.4204C216.475 48.4204 213.9 69.7406 213.853 70.234C213.492 73.4713 213.131 76.6007 209.834 78.9594C218.484 94.4986 235.268 105.028 254.563 105.028C277.108 105.028 296.215 90.6447 302.935 70.7273C295.775 71.4672 288.208 72.2534 288.145 72.2534Z" fill="#071D3D"/>
<path d="M224.386 22.1825L224.088 21.8588C223.884 21.6429 223.711 21.5196 223.539 21.4734C223.366 21.4271 223.225 21.4579 223.099 21.5504C222.926 21.72 222.848 21.8588 222.848 22.0129C222.864 22.1671 222.958 22.3212 223.115 22.5062L225.454 25.0036C225.595 25.1424 225.737 25.2349 225.878 25.2503C226.019 25.2657 226.161 25.204 226.318 25.0653C226.412 24.9882 226.475 24.8957 226.49 24.7878C226.506 24.6799 226.506 24.5874 226.459 24.4949C226.427 24.4024 226.38 24.3099 226.302 24.2174C226.239 24.1249 226.161 24.0324 226.066 23.9553L225.627 23.4929L226.836 22.4137L227.417 23.0304C227.84 23.4929 228.045 23.9707 227.997 24.4949C227.966 25.019 227.652 25.5432 227.055 26.0827C226.522 26.576 226.004 26.7919 225.501 26.7302C224.999 26.6839 224.512 26.391 224.01 25.8669L222.063 23.8012C221.545 23.2616 221.309 22.7375 221.325 22.2287C221.341 21.7354 221.623 21.2267 222.173 20.7334C222.707 20.2555 223.225 20.0088 223.727 19.978C224.229 19.9626 224.716 20.1938 225.187 20.7026L225.58 21.1188L224.386 22.1825Z" fill="#C7A079"/>
<path d="M231.045 22.5831L227.324 16.7868L228.706 15.9235L230.15 18.1588L231.108 17.5576L229.679 15.3377L231.061 14.4744L234.782 20.2862L233.4 21.1341L231.846 18.7137L230.888 19.315L232.427 21.7199L231.045 22.5831Z" fill="#C7A079"/>
<path d="M237.17 19.053L236.008 12.1313L237.845 11.4221L241.833 17.2339L240.294 17.8352L239.572 16.679L238.379 17.1414L238.693 18.4518L237.17 19.053ZM237.405 12.9175H237.389L238.096 15.939L238.975 15.5998L237.405 12.9175Z" fill="#C7A079"/>
<path d="M245.08 12.4704V12.4859L245.975 16.2011L244.452 16.494L243.102 9.77265L244.75 9.46433L246.744 12.9792L246.775 12.9637L245.865 9.2485L247.388 8.94019L248.738 15.6615L247.089 15.9853L245.08 12.4704Z" fill="#C7A079"/>
<path d="M255.002 15.3378L254.923 14.7366H254.907C254.735 15.0295 254.562 15.2299 254.358 15.3378C254.154 15.4457 253.871 15.5074 253.51 15.5074C253.18 15.5074 252.882 15.4611 252.647 15.3532C252.411 15.2453 252.223 15.0911 252.066 14.9061C251.924 14.7057 251.814 14.4899 251.736 14.2278C251.673 13.9658 251.642 13.6729 251.642 13.3491L251.61 10.5434C251.595 9.80346 251.767 9.24848 252.128 8.89392C252.474 8.53935 253.039 8.35436 253.777 8.33894C254.499 8.32353 255.049 8.47769 255.441 8.80142C255.818 9.10974 256.022 9.61846 256.038 10.2968V10.8055L254.405 10.8209V10.4355C254.405 10.1272 254.374 9.89595 254.295 9.75721C254.232 9.63388 254.091 9.5568 253.887 9.5568C253.651 9.57222 253.479 9.61846 253.384 9.74179C253.29 9.86512 253.259 10.0347 253.259 10.2814L253.29 13.6729C253.29 13.8733 253.337 14.0274 253.447 14.1199C253.557 14.2278 253.698 14.2741 253.903 14.2741C254.028 14.2741 254.138 14.2432 254.217 14.197C254.295 14.1508 254.358 14.0737 254.389 14.012C254.421 13.9195 254.452 13.8424 254.452 13.7499C254.452 13.6574 254.468 13.5341 254.468 13.3954V12.8558L253.887 12.8712L253.871 11.638L256.101 11.6071L256.148 15.3378H255.002Z" fill="#C7A079"/>
<path d="M264.156 14.3512H264.172L265.617 9.74185L267.139 10.0348L264.659 16.5403L262.853 16.1857L263.309 11.3605H263.293L261.801 15.9853L260.027 15.6462L260.216 8.70898L261.77 9.00189L261.315 13.8117L261.33 13.7962L262.932 9.21771L264.47 9.52603L264.156 14.3512Z" fill="#C7A079"/>
<path d="M273.294 17.3728C272.965 18.1128 272.588 18.5907 272.117 18.8065C271.662 19.0377 271.049 18.9915 270.327 18.6832C269.589 18.3748 269.134 17.974 268.977 17.4807C268.82 17.0028 268.898 16.3862 269.212 15.6462L270.327 13.0872C270.594 12.4859 270.971 12.1005 271.473 11.9156C271.976 11.7306 272.541 11.7922 273.2 12.0697C273.86 12.3472 274.284 12.7172 274.488 13.1951C274.692 13.6576 274.66 14.1971 274.409 14.8138L273.294 17.3728ZM272.871 14.2896C272.933 14.1663 272.965 14.0584 272.996 13.9659C273.028 13.8734 273.043 13.7809 273.043 13.6884C273.043 13.5959 273.012 13.5034 272.965 13.4263C272.918 13.3492 272.823 13.2876 272.714 13.2413C272.604 13.1951 272.494 13.1797 272.4 13.1951C272.305 13.2105 272.227 13.2567 272.148 13.3184C272.086 13.3955 272.007 13.4572 271.96 13.5496C271.897 13.6421 271.85 13.7346 271.803 13.858L270.688 16.4478C270.641 16.5558 270.594 16.6637 270.563 16.7716C270.531 16.8795 270.516 16.9874 270.516 17.0953C270.516 17.2032 270.531 17.2957 270.594 17.3882C270.641 17.4807 270.72 17.5424 270.845 17.5886C270.955 17.6349 271.065 17.6503 271.159 17.6195C271.253 17.5886 271.348 17.5424 271.41 17.4653C271.489 17.3882 271.552 17.3111 271.599 17.2186C271.662 17.1261 271.709 17.0182 271.756 16.9103L272.871 14.2896Z" fill="#C7A079"/>
<path d="M278.411 18.3747H278.395L276.354 21.6428L275.066 20.795L278.929 15.0911L280.342 16.016L279.227 19.8854L279.243 19.9008L281.284 16.6327L282.571 17.4805L278.709 23.1844L277.312 22.2595L278.411 18.3747Z" fill="#C7A079"/>
<path d="M219.772 26.021L220.337 27.6397L221.782 26.6993L221.154 28.2871L222.881 28.4875L221.358 29.3046L222.551 30.5379L220.855 30.2141L220.95 31.9099L219.866 30.5841L218.83 31.9407L218.862 30.245L217.182 30.6458L218.312 29.3663L216.773 28.5955L218.485 28.3334L217.794 26.7764L219.27 27.6551L219.772 26.021Z" fill="#C7A079"/>
<path d="M284.803 21.0107L285.369 22.614L286.813 21.689L286.201 23.2769L287.912 23.4773L286.405 24.2943L287.582 25.5276L285.887 25.2039L285.981 26.8996L284.898 25.5739L283.861 26.9305L283.893 25.2501L282.213 25.6355L283.343 24.356L281.805 23.5852L283.516 23.3231L282.825 21.7661L284.301 22.6448L284.803 21.0107Z" fill="#C7A079"/>
<path d="M231.42 91.8009L232.943 90.9839L231.216 90.7835L231.844 89.1956L230.4 90.1206L229.835 88.5173L229.332 90.136L227.856 89.2727L228.532 90.8297L226.836 91.0918L228.375 91.8626L227.244 93.1421L228.924 92.7413L228.893 94.437L229.913 93.0804L231.012 94.4062L230.902 92.7105L232.598 93.0342L231.42 91.8009Z" fill="#C7A079"/>
<path d="M287.091 85.1257L287.719 83.5533L286.275 84.4783L285.71 82.875L285.207 84.4937L283.731 83.6304L284.422 85.1874L282.711 85.4495L284.25 86.2203L283.119 87.4844L284.799 87.099L284.768 88.7947L285.804 87.4381L286.887 88.7639L286.793 87.0681L288.489 87.3919L287.295 86.1586L288.818 85.3415L287.091 85.1257Z" fill="#C7A079"/>
<path d="M236.524 91.061L240.23 92.618L239.664 93.9284L237.592 93.0651L237.137 94.1134L239.084 94.9304L238.534 96.1791L236.587 95.3621L236.053 96.5799L238.204 97.4895L237.639 98.7998L233.855 97.212L236.524 91.061Z" fill="#C7A079"/>
<path d="M244.391 95.7937L244.422 95.6395C244.517 95.2541 244.438 94.8995 244.108 94.8224C243.732 94.7299 243.496 94.9766 243.433 95.2695C243.104 96.549 246.071 96.6107 245.474 98.9848C245.129 100.372 244.14 100.773 242.633 100.403C241.204 100.048 240.529 99.3702 240.874 98.029L240.937 97.7977L242.601 98.214L242.57 98.3681C242.428 98.9231 242.601 99.1852 242.947 99.2622C243.292 99.3547 243.575 99.1235 243.653 98.7689C243.983 97.4894 241.11 97.4586 241.706 95.1616C242.036 93.8512 242.931 93.3117 244.391 93.6662C245.882 94.0362 246.369 94.7916 246.024 96.1945L244.391 95.7937Z" fill="#C7A079"/>
<path d="M249.459 96.2099L248.125 96.0866L248.266 94.6221L252.694 95.0229L252.552 96.4874L251.218 96.3641L250.731 101.544L248.973 101.39L249.459 96.2099Z" fill="#C7A079"/>
<path d="M253.824 99.8326L255.426 99.8018L255.457 101.652L253.856 101.682L253.824 99.8326Z" fill="#C7A079"/>
<path d="M259.775 97.0116C259.665 96.3333 259.649 95.7783 259.901 95.3313C260.152 94.8842 260.654 94.5759 261.549 94.4063C263.292 94.098 263.826 94.8225 264.014 95.8092C264.171 96.6879 263.951 97.3045 263.543 97.8903L262.695 99.0619C262.57 99.2315 262.397 99.4627 262.366 99.6785L264.658 99.2777L264.893 100.573L260.529 101.343C260.356 100.449 260.45 99.5706 261.062 98.6765L262.004 97.3045C262.287 96.9191 262.366 96.6416 262.271 96.1483C262.177 95.5933 261.957 95.4546 261.69 95.5008C261.439 95.5471 261.219 95.7167 261.361 96.4566L261.408 96.7341L259.775 97.0116Z" fill="#C7A079"/>
<path d="M267.751 92.8184C269.243 92.3097 270.154 92.7414 271.048 95.2542C271.943 97.7824 271.504 98.6765 270.012 99.1852C268.521 99.694 267.61 99.2623 266.715 96.7495C265.82 94.2213 266.26 93.3272 267.751 92.8184ZM268.756 97.212C269.07 98.1061 269.306 98.2911 269.651 98.1678C269.997 98.0444 270.059 97.767 269.745 96.8728L269.007 94.8071C268.693 93.913 268.458 93.728 268.113 93.8513C267.767 93.9746 267.704 94.2521 268.018 95.1462L268.756 97.212Z" fill="#C7A079"/>
<path d="M276.151 96.4565L273.984 92.4946L272.854 93.0959L272.336 92.1401C273.294 91.6313 273.592 91.2305 273.404 90.4135L274.534 89.8123L277.737 95.6395L276.151 96.4565Z" fill="#C7A079"/>
<path d="M281.646 93.1729L278.946 89.5348L277.909 90.2747L277.266 89.396C278.145 88.764 278.38 88.3169 278.082 87.5461L279.118 86.8062L283.09 92.1555L281.646 93.1729Z" fill="#C7A079"/>
<path d="M291.288 55.0029C291.288 74.9049 274.866 91.0299 254.597 91.0299C234.328 91.0299 217.906 74.9049 217.906 55.0029C217.906 35.1009 234.328 18.9758 254.597 18.9758C274.85 18.9758 291.288 35.1009 291.288 55.0029Z" fill="white"/>
<path d="M307.487 57.3923C306.844 57.2998 306.168 57.1919 305.478 57.084C305.431 58.1785 305.352 59.2576 305.242 60.3213C305.933 60.1826 306.639 60.0438 307.299 59.9051C307.377 59.0726 307.44 58.2248 307.487 57.3923Z" fill="#5C8EBB"/>
<path d="M206.241 39.2632C212.961 19.3458 232.068 4.97812 254.597 4.97812C277.535 4.97812 296.924 19.8699 303.314 40.3269C303.879 39.9415 304.476 39.6023 305.088 39.3094C304.586 37.7678 304.036 36.2571 303.393 34.7617C300.724 28.5645 296.909 22.9994 292.042 18.2358C287.175 13.4569 281.523 9.71082 275.211 7.09011C268.68 4.3769 261.741 3.00488 254.581 3.00488C247.438 3.00488 240.498 4.3769 233.967 7.09011C227.672 9.71082 222.004 13.4569 217.137 18.2358C212.27 23.0148 208.455 28.5645 205.786 34.7617C205.126 36.3033 204.53 37.8912 204.027 39.479C204.859 39.4019 205.597 39.3248 206.241 39.2632Z" fill="#5C8EBB"/>
<path d="M302.953 70.7271C296.233 90.6445 277.127 105.028 254.581 105.028C235.286 105.028 218.487 94.4831 209.852 78.9592C209.35 79.3138 208.784 79.6683 208.125 79.9767C210.527 84.2931 213.541 88.2396 217.137 91.7698C222.004 96.5488 227.672 100.295 233.967 102.916C240.498 105.629 247.438 107.001 254.581 107.001C261.725 107.001 268.664 105.629 275.195 102.916C281.507 100.295 287.159 96.5488 292.026 91.7698C296.893 86.9909 300.708 81.4258 303.377 75.244C304.052 73.687 304.633 72.0991 305.151 70.4958C304.429 70.5729 303.691 70.65 302.953 70.7271Z" fill="#5C8EBB"/>
<path d="M271.804 40.5736C271.804 40.5736 273.798 39.9262 274.708 40.142L274.975 39.4483C274.206 39.0783 272.259 39.5253 272.259 39.5253C272.259 39.5253 271.333 37.8604 270.673 37.7217L270.344 38.5079C271.27 39.032 271.804 40.5736 271.804 40.5736Z" fill="#5C8EBB"/>
<path d="M264.234 87.1143C264.234 87.1143 263.418 86.0044 262.9 85.9119L262.664 86.4977C263.386 86.9447 263.842 87.8543 263.842 87.8543C263.842 87.8543 265.647 87.4843 266.354 87.7001L266.605 87.1297C265.992 86.7906 264.234 87.1143 264.234 87.1143Z" fill="#5C8EBB"/>
<path d="M267.878 78.3271C267.878 78.3271 266.308 76.8163 265.649 76.8471L265.555 77.6488C266.575 77.9571 267.643 79.3754 267.643 79.3754C267.643 79.3754 269.511 78.0958 270.422 78.1113L270.563 77.3096C269.731 77.1246 267.878 78.3271 267.878 78.3271Z" fill="#5C8EBB"/>
<path d="M273.167 37.9992C273.167 37.9992 275.161 37.6908 276.072 37.8142L276.48 36.9971C275.663 36.7042 273.607 37.028 273.607 37.028C273.607 37.028 272.727 35.4401 272.052 35.363L271.723 36.1493C272.696 36.5963 273.167 37.9992 273.167 37.9992Z" fill="#5C8EBB"/>
<path d="M274.769 35.4708C274.769 35.4708 276.339 35.3937 277.234 35.5633L277.705 34.7771C276.92 34.4379 275.303 34.4842 275.303 34.4842C275.303 34.4842 274.251 33.2047 273.639 32.958L273.262 33.6671C274.204 34.145 274.769 35.4708 274.769 35.4708Z" fill="#5C8EBB"/>
<path d="M276.198 33.1585C276.198 33.1585 277.705 33.0044 278.584 33.2356L279.118 32.4186C278.364 32.0332 276.794 32.2181 276.794 32.2181C276.794 32.2181 275.962 30.8153 275.303 30.6611L274.91 31.3086C275.821 31.8327 276.198 33.1585 276.198 33.1585Z" fill="#5C8EBB"/>
<path d="M277.69 30.9847C277.69 30.9847 279.009 31.0926 279.872 31.3855L280.359 30.7535C279.637 30.3218 278.192 30.2448 278.192 30.2448C278.192 30.2448 277.454 28.8882 276.811 28.6877L276.402 29.2735C277.25 29.8594 277.69 30.9847 277.69 30.9847Z" fill="#5C8EBB"/>
<path d="M263.261 88.8101C263.261 88.8101 262.429 87.7155 261.958 87.623L261.738 88.2089C262.398 88.6559 262.9 89.5655 262.9 89.5655C262.9 89.5655 264.501 89.2109 265.161 89.4113L265.396 88.8409C264.831 88.5172 263.261 88.8101 263.261 88.8101Z" fill="#5C8EBB"/>
<path d="M265.193 85.2182C265.193 85.2182 264.062 83.8154 263.466 83.7383L263.246 84.4782C264.11 84.9561 264.8 86.1586 264.8 86.1586C264.8 86.1586 266.731 85.4649 267.579 85.6653L267.815 84.9407C267.108 84.6016 265.193 85.2182 265.193 85.2182Z" fill="#5C8EBB"/>
<path d="M266.245 83.2603C266.245 83.2603 264.848 81.6571 264.188 81.6262L264.031 82.4279C265.02 82.8287 265.931 84.2932 265.931 84.2932C265.931 84.2932 267.909 83.137 268.82 83.2295L269.008 82.4433C268.192 82.1812 266.245 83.2603 266.245 83.2603Z" fill="#5C8EBB"/>
<path d="M267.14 80.7321C267.14 80.7321 265.664 79.1597 265.005 79.1597L264.879 79.9613C265.884 80.3159 266.873 81.765 266.873 81.765C266.873 81.765 268.788 80.5471 269.714 80.6088L269.871 79.8071C269.039 79.5913 267.14 80.7321 267.14 80.7321Z" fill="#5C8EBB"/>
<path d="M238.379 29.0423L239.054 28.472C238.489 28.1482 237.877 26.3137 237.877 26.3137C237.877 26.3137 236.558 26.2675 235.961 26.0979L235.098 26.7145L237.17 26.9458C237.186 26.9304 237.672 28.6724 238.379 29.0423Z" fill="#5C8EBB"/>
<path d="M240.718 27.4083L241.424 26.8842C240.702 26.5296 240.215 24.7568 240.215 24.7568C240.215 24.7568 238.865 24.6335 238.363 24.3406L237.656 24.8647C238.112 25.2193 239.525 25.358 239.525 25.358C239.525 25.358 239.98 27.1 240.718 27.4083Z" fill="#5C8EBB"/>
<path d="M236.148 30.877C236.336 30.692 236.556 30.4916 236.76 30.3066C236.1 29.5049 235.881 27.9788 235.881 27.9788C235.881 27.9788 234.342 27.9171 233.604 27.8708C233.384 28.0713 233.055 28.4567 233.055 28.4567L235.08 28.6879C235.08 28.6879 235.488 30.1524 236.148 30.877Z" fill="#5C8EBB"/>
<path d="M234.281 32.9271C234.469 32.7421 234.673 32.5109 234.893 32.3259C234.233 31.5088 233.904 29.8748 233.904 29.8748C233.904 29.8748 232.428 29.8131 231.706 29.7668C231.47 29.9673 231.282 30.1368 231.156 30.3526L233.134 30.5685C233.134 30.5685 233.605 32.2026 234.281 32.9271Z" fill="#5C8EBB"/>
<path d="M242.991 25.7743L243.745 25.281C242.866 25.096 242.41 23.1999 242.41 23.1999C242.41 23.1999 241.217 23.1844 240.825 22.9224C240.526 23.0919 240.197 23.1999 239.898 23.3848C240.354 23.6007 241.688 23.6932 241.688 23.6932C241.688 23.6932 242.316 25.466 242.991 25.7743Z" fill="#5C8EBB"/>
<path d="M232.835 34.4687C232.207 33.8059 231.673 32.1101 231.673 32.1101C231.673 32.1101 230.276 32.1718 229.538 32.1564L228.895 32.8347C229.632 32.958 230.967 32.8963 230.967 32.8963C230.967 32.8963 231.422 34.3763 232.27 35.2241L232.835 34.4687Z" fill="#5C8EBB"/>
<path d="M245.175 24.0168C245.363 23.878 245.882 23.6005 245.882 23.6005C245.065 23.2922 245.018 21.9048 245.018 21.9048C245.018 21.9048 243.228 21.874 242.82 21.689C242.569 21.8585 242.302 21.9356 242.051 22.1514C242.396 22.4289 244.202 22.5214 244.202 22.5214C244.202 22.5214 244.374 23.8472 245.175 24.0168Z" fill="#5C8EBB"/>
<path d="M227.827 34.5305C227.623 34.808 227.466 34.993 227.262 35.2705L229.161 35.363C229.161 35.363 229.57 37.0741 230.198 37.6908L230.731 36.92C230.182 36.2879 229.837 34.5459 229.837 34.5459C229.837 34.5459 228.471 34.5768 227.827 34.5305Z" fill="#5C8EBB"/>
<path d="M227.812 37.1357C227.812 37.1357 226.603 37.3053 225.975 37.1512L225.441 37.7986C225.944 37.9682 227.263 37.9836 227.263 37.9836C227.263 37.9836 227.953 40.2189 228.487 40.4964L228.974 39.6485C228.283 39.0936 227.812 37.1357 227.812 37.1357Z" fill="#5C8EBB"/>
<path d="M224.342 39.9415L223.855 40.6969H225.63C225.63 40.6969 226.053 42.5314 226.838 43.1172L227.309 42.3001C226.791 41.7606 226.258 39.8953 226.258 39.8953L224.342 39.9415Z" fill="#5C8EBB"/>
<path d="M222.771 42.9167L222.41 43.7338L224.153 43.6413C224.153 43.6413 224.844 45.3216 225.487 45.9074C225.66 45.6299 225.739 45.2445 225.896 44.967C225.142 44.2425 224.655 42.8242 224.655 42.8242L222.771 42.9167Z" fill="#5C8EBB"/>
<path d="M246.32 21.2111C246.398 21.9357 247.152 22.6757 247.152 22.6757L247.795 22.2594C247.214 21.7815 246.995 20.7795 246.995 20.7795L245.833 20.6562C245.252 20.6253 244.027 21.0416 244.027 21.0416C244.593 21.0107 246.32 21.2111 246.32 21.2111Z" fill="#5C8EBB"/>
<path d="M216.491 48.4203C216.837 45.6608 216.052 43.1634 214.293 41.3752C212.786 39.849 210.761 39.0474 208.437 39.0474C208.092 39.0474 186.771 41.2364 186.771 41.2364C176.613 42.2847 173.74 50.0389 172.94 54.5712C172.249 58.456 172.594 61.2001 172.626 61.9709C172.626 62.0942 172.688 62.2638 172.767 62.2946C172.893 62.3254 173.05 62.2638 173.254 62.0325C173.473 61.7859 177.257 57.1765 177.822 56.5753C178.388 55.9741 180.805 53.1221 185.515 52.6442L201.514 50.9947C201.482 51.3339 199.41 69.0776 199.41 69.0776C199.049 71.4208 197.479 72.8699 194.559 73.3787C194.559 73.3787 197.071 51.8888 197.071 51.858C197.086 51.8272 197.071 51.7809 197.008 51.7809C196.945 51.7963 193.381 52.3821 193.381 52.3821C187.776 53.5692 183.019 58.7027 182.328 64.2987L181.104 74.7353C177.728 75.0744 175.53 74.7661 174.133 74.6582C173.662 74.6274 173.222 74.5657 172.845 74.5194C172.688 74.504 172.579 74.6428 172.657 74.7661C173.222 75.6294 174.588 78.0034 176.347 79.8225C178.764 82.3199 182.234 83.5532 186.552 83.5532L197.275 82.5974C212.661 81.0096 213.242 75.7681 213.87 70.2184C213.917 69.7405 216.491 48.4203 216.491 48.4203Z" fill="#5C8EBB"/>
<path d="M329.345 36.0104C329.156 36.0258 309.374 38.0762 309.374 38.0762C303.157 38.7236 297.678 44.0884 296.908 50.3164C296.908 50.3164 296.312 55.3728 296.296 55.5116C296.28 55.6349 296.343 55.6657 296.406 55.6812C296.469 55.6812 312.64 58.194 312.64 58.194L312.561 58.641C312.467 59.1343 304.005 60.3522 300.001 61.57C297.003 62.4796 294.742 63.7745 293.03 65.1465C293.69 63.8208 294.145 62.3871 294.334 60.9226C294.334 60.9226 296.94 39.8952 296.94 39.8027C296.955 39.7102 296.893 39.6486 296.798 39.664C296.767 39.664 293.219 40.034 289.105 40.4656C283.344 27.3158 270.061 18.1279 254.597 18.1279C233.857 18.1279 217.042 34.6384 217.042 55.0028C217.042 55.3574 217.058 55.712 217.074 56.0666C216.634 57.1148 216.336 58.194 216.21 59.2885C216.21 59.2885 213.636 80.1154 213.62 80.285C213.604 80.4546 213.651 80.5471 213.934 80.5316C214.201 80.5008 225.85 79.2984 227.2 79.1596C227.043 79.175 226.729 79.2059 226.321 79.2521C233.198 86.9755 243.309 91.8778 254.597 91.8778C269.559 91.8778 282.464 83.2757 288.509 70.835C288.211 71.4979 288.101 71.9296 288.085 71.9912C288.038 72.1916 288.054 72.2687 288.163 72.2533C288.273 72.2379 315.607 69.4168 315.607 69.4168C325.482 68.3993 325.859 63.8208 326.063 61.3696C326.079 61.1384 326.55 57.1457 326.613 56.0203C326.801 53.045 324.587 50.3781 321.353 49.6689C320.034 49.376 314.696 48.4665 311.29 47.8961C311.368 47.8344 311.447 47.8036 311.494 47.8036L321.118 46.8016C324.462 46.4624 327.068 44.0421 328.277 40.1727L329.533 36.18C329.502 36.1646 329.517 35.995 329.345 36.0104ZM282.574 78.2963C281.931 79.0517 281.255 79.7763 280.533 80.47C279.56 81.4258 278.524 82.3199 277.456 83.1678C271.192 88.0855 263.248 91.0299 254.597 91.0299C244.455 91.0299 235.286 86.9909 228.645 80.4854C228.189 80.0383 227.734 79.5604 227.31 79.0826C227.326 79.0517 227.342 79.0209 227.357 78.9746C227.671 76.4156 231.377 46.6782 231.377 46.6166C231.377 46.5549 231.298 46.5241 231.251 46.5395C231.204 46.5549 229.241 46.8941 227.42 47.2332C226.384 47.4336 225.363 47.7882 224.374 48.2815C224.39 48.2353 224.39 48.2044 224.406 48.1736C223.636 47.4645 223.511 45.8612 223.511 45.8612L221.423 46.1541L221.172 46.9403L222.836 46.7091C222.836 46.7091 222.93 47.819 223.589 48.7132C221.297 50.0389 219.303 52.0584 217.937 54.3862C217.937 54.3862 217.937 54.3862 217.937 54.3708C217.984 51.9813 218.251 49.6535 218.754 47.4028C220.261 40.5119 223.778 34.3455 228.676 29.5357C231.973 26.2984 235.898 23.6777 240.247 21.8586C244.659 20.0087 249.526 18.9758 254.628 18.9758C269.637 18.9758 282.543 27.84 288.226 40.5273C288.32 40.5119 288.415 40.5119 288.509 40.4965C282.794 41.0823 276.247 41.776 276.247 41.776C275.368 41.8685 274.504 42.0689 273.657 42.331L273.751 42.0381C272.966 41.7143 271.05 42.3001 271.05 42.3001C271.05 42.3001 269.983 40.6814 269.308 40.5735L269.009 41.3598C269.951 41.8222 270.642 43.3484 270.642 43.3484C270.642 43.3484 271.443 43.0401 272.244 42.8551C271.302 43.2713 270.407 43.7955 269.575 44.4121C269.166 43.965 268.601 43.4255 268.224 43.3947L267.958 44.1963C268.303 44.335 268.633 44.6279 268.9 44.9362C266.152 47.2178 264.205 50.4706 263.766 54.0008C263.766 54.0008 261.175 74.8432 261.175 74.9973C261.159 75.1515 261.144 75.2748 261.364 75.2594C261.426 75.2594 263.483 75.0436 266.262 74.7507L266.246 74.9665C267.282 75.1977 268.46 76.5698 268.46 76.5698C268.46 76.5698 270.234 75.1977 271.16 75.1515L271.255 74.3499C270.407 74.2111 268.633 75.5061 268.633 75.5061C268.633 75.5061 268.052 75.0127 267.439 74.6273C273.5 73.9953 281.899 73.132 281.899 73.132C283.83 72.9316 285.699 72.2687 287.363 71.2667C286.013 73.8103 284.411 76.1689 282.574 78.2963ZM281.962 51.0718L280.627 61.8013C280.518 62.4642 280.282 63.2812 279.717 63.4354L276.09 63.8054L277.425 53.0759C277.519 52.413 277.77 51.5959 278.335 51.4264L281.962 51.0718ZM288.101 70.7734C287.944 70.8813 287.787 70.9738 287.63 71.0817C287.787 70.9892 287.944 70.8813 288.101 70.7734Z" fill="#5C8EBB"/>
<path d="M263.951 43.256C263.794 43.2714 243.432 45.3679 243.432 45.3679C237.214 46.0154 231.735 51.3956 230.95 57.639C230.95 57.639 228.328 78.7435 228.328 78.7897C228.328 78.8359 228.375 78.8822 228.438 78.8822C228.501 78.8822 240.496 77.6489 241.94 77.5102C242.034 77.4948 242.081 77.4023 242.097 77.3406C242.097 77.2789 244.688 56.3595 244.688 56.3595C244.813 55.8662 245.049 55.2187 245.504 55.08L249.178 54.6946C249.178 54.6946 246.493 76.4156 246.446 76.7394C246.43 76.909 246.509 77.0169 246.697 77.0014C248.644 76.801 259.932 75.6294 259.979 75.6294C260.042 75.6294 260.168 75.5678 260.183 75.4599C260.482 73.132 264.14 43.6259 264.156 43.4564C264.171 43.2868 264.124 43.2405 263.951 43.256Z" fill="#5C8EBB"/>
<path d="M213.398 42.3001C211.907 40.8048 209.835 40.0956 207.432 40.3423L186.818 42.4851C179.628 43.2251 175.703 48.1119 174.525 52.0584C173.787 54.5404 173.646 56.0511 173.568 57.0532C173.568 57.0532 173.426 59.3656 173.458 60.0901C173.458 60.198 173.458 60.2443 173.505 60.2597C173.536 60.2751 173.583 60.2597 173.662 60.1826C174.039 59.7664 175.012 58.456 175.247 58.1631C176.032 57.2073 177.493 55.3883 178.45 54.5712C179.643 53.5538 182.14 51.8118 185.484 51.4572L202.126 49.7306C202.424 49.6998 202.613 49.746 202.628 49.7923C202.879 50.0543 202.738 50.5322 202.738 50.5322L200.619 69.1239C200.163 72.1762 197.793 74.0107 193.334 74.5657C193.334 74.5657 195.736 53.3379 195.752 53.2454C195.767 53.1375 195.705 53.0913 195.595 53.1067C195.485 53.1221 193.569 53.5229 193.569 53.5229C188.483 54.602 184.181 59.2422 183.537 64.3141L182.485 73.4095L182.171 75.7065L181.575 75.7681C180.35 75.8915 178.796 75.984 175.718 75.7681C175.185 75.7373 174.918 75.6756 174.855 75.7527C174.808 75.8298 174.839 75.9223 174.996 76.1844C175.059 76.2923 176.284 78.5584 178.921 80.47C180.57 81.657 183.176 82.3199 186.457 82.3199C188.263 82.3199 190.178 82.1503 191.984 81.9653L194.747 81.6724C207.621 80.3312 211.546 78.6663 212.661 70.0951L215.282 48.4048C215.581 45.9999 214.921 43.8263 213.398 42.3001Z" fill="#071D3D"/>
<path d="M207.495 41.5295L186.881 43.6569C176.362 44.736 175.075 54.4943 175.012 54.8951C174.934 55.296 174.761 56.8684 174.761 56.9763C174.745 57.0842 174.792 57.1305 174.871 57.0225C174.965 56.8992 176.158 55.3422 176.158 55.3422C176.19 55.296 179.581 50.9795 185.421 50.3783L202.079 48.6517C202.707 48.59 203.194 48.7134 203.508 49.0371C204.136 49.6846 203.931 50.9487 203.743 52.2898C203.696 52.6136 201.796 69.2936 201.796 69.2936C200.996 74.7509 194.841 75.3983 192.816 75.5987L192.235 75.6604C192.235 75.6604 194.574 54.556 194.574 54.4635C194.574 54.371 194.496 54.3402 194.402 54.3556C194.323 54.371 193.742 54.4943 193.742 54.4943C189.064 55.4809 185.107 59.7512 184.526 64.4068L182.972 76.6162C181.826 76.7241 180.57 76.8166 179.487 76.8166C178.827 76.8166 176.786 76.6779 176.629 76.6624C176.488 76.647 176.441 76.7241 176.535 76.832C176.629 76.9399 177.273 77.7416 177.273 77.7416C179.392 80.2235 182.548 81.503 186.253 81.3181C189.958 81.1485 192.675 80.7631 195.328 80.5473C203.052 79.869 210.337 79.1136 211.53 70.0798L214.136 48.3434C214.388 46.293 213.822 44.4431 212.551 43.1482C211.31 41.9149 209.489 41.3137 207.495 41.5295Z" fill="#C7A079"/>
<path d="M311.319 46.6475L321.053 45.6301C323.503 45.3834 325.732 43.3793 326.643 41.1286C326.988 40.2653 327.632 38.0146 327.789 37.4904C327.804 37.4134 327.757 37.3979 327.663 37.3979C327.585 37.4134 309.42 39.3404 309.42 39.3404C303.878 39.9107 298.807 44.9055 298.116 50.4552C298.116 50.4552 297.645 54.5559 297.629 54.6021C297.629 54.6484 297.645 54.6638 297.676 54.6638C297.692 54.6638 313.973 57.377 313.973 57.377C313.973 57.377 313.847 58.0553 313.69 59.0728C313.517 60.0902 306.5 60.9227 303.642 61.7243C299.34 62.9267 295.023 63.975 291.019 68.6615C290.407 69.386 289.936 70.3881 289.685 70.7735C289.638 70.8505 289.669 70.9584 289.795 70.943C289.936 70.9276 315.935 68.2144 315.935 68.2144C321.273 67.6594 324.209 65.6708 324.664 62.2947L324.712 61.8785C324.9 60.4756 325.261 57.8395 325.355 56.0512C325.512 53.6772 323.613 51.4419 320.975 50.8715C319.374 50.5323 311.743 49.2374 309.451 48.852C309.781 47.6033 310.409 46.8633 311.319 46.6475Z" fill="#071D3D"/>
<path d="M311.211 45.5684L320.993 44.551C324.117 44.2272 325.467 41.3599 326.001 39.6949C326.001 39.6949 326.221 38.955 326.236 38.8779C326.252 38.8008 326.189 38.7854 326.095 38.7854C326.001 38.8008 309.5 40.512 309.5 40.512C304.476 41.0207 299.907 45.553 299.279 50.5786C299.279 50.5786 298.903 53.7389 298.903 53.7697C298.903 53.8005 298.918 53.8314 298.95 53.8468C298.981 53.8468 315.246 56.6833 315.246 56.6833C315.231 56.7758 315.215 56.9145 315.215 56.9916L315.027 58.5486C314.665 60.7223 313.08 61.0306 306.486 62.233C304.931 62.5105 295.81 64.5454 292.638 68.5073C292.309 68.939 292.057 69.2781 291.932 69.4785C291.838 69.6173 291.885 69.6789 292.026 69.6789C293.722 69.4939 311.902 67.567 314.367 67.3203C320.113 66.7345 322.955 65.7633 323.583 61.9093C323.944 59.6894 324.18 57.7316 324.274 56.1283C324.384 54.2784 322.877 52.5364 320.741 52.0739C318.904 51.6731 308.621 49.9465 308.527 49.9465C308.433 49.9311 308.228 49.8232 308.26 49.6228C308.542 46.74 310.018 45.8151 311.211 45.5684Z" fill="#C7A079"/>
<path d="M310.297 41.8841L325.071 40.3579C325.197 40.0496 325.306 39.7567 325.385 39.4946L309.559 41.1441C304.818 41.6374 300.485 45.9077 299.904 50.6558L299.59 53.3227L300.391 53.4615L300.626 51.4111C301.27 46.3701 305.556 42.3774 310.297 41.8841Z" fill="white"/>
<path d="M309.121 51.2876C310.189 51.4572 319.609 53.0451 321.304 53.415C321.964 53.5538 322.544 53.8313 323.031 54.2167C322.482 53.4767 321.618 52.8601 320.566 52.6597C318.776 52.3205 309.451 50.7172 308.383 50.5323C308.367 50.5323 308.336 50.5168 308.336 50.5168C308.399 50.9331 308.744 51.226 309.121 51.2876Z" fill="white"/>
<path d="M316.376 59.3964L316.565 57.9627C316.628 57.4848 316.753 56.9298 316.282 56.8373L315.89 56.7603C315.874 56.899 315.654 58.6256 315.654 58.6256C315.183 61.4467 314.006 61.5238 306.595 62.8341C303.754 63.3429 295.04 66.0098 293.172 68.8309C293.706 68.7693 294.224 68.723 294.742 68.6768C297.599 66.2102 304.79 64.0366 307.318 63.5895C314.744 62.2946 315.905 62.2021 316.376 59.3964Z" fill="white"/>
<path d="M226.414 48.7596C222.034 50.0237 217.967 54.7409 217.402 59.3966C217.402 59.3966 214.984 78.8823 214.969 79.0365C214.969 79.206 215.079 79.2369 215.173 79.2369C215.267 79.2215 225.237 78.1886 226.163 78.0961C226.21 78.0807 226.241 78.0653 226.241 78.0036C226.461 76.2924 229.947 48.035 229.962 47.9734C229.962 47.9271 229.899 47.85 229.821 47.8809C229.758 47.9117 228.157 48.2508 226.414 48.7596Z" fill="#071D3D"/>
<path d="M227.748 49.6228C223.085 50.6094 219.128 54.8642 218.547 59.5352C218.547 59.5352 216.302 77.7569 216.287 77.8648C216.255 77.9727 216.302 78.0344 216.459 78.019C216.616 78.0035 224.372 77.1865 225.141 77.1094C225.188 77.1094 225.204 77.0786 225.204 77.0323C225.393 75.5216 228.611 49.592 228.611 49.5303C228.627 49.4686 228.58 49.4224 228.501 49.4378C228.454 49.4686 227.748 49.6228 227.748 49.6228Z" fill="#C7A079"/>
<path d="M227.778 51.2107L227.904 50.2241C223.523 51.1645 219.74 55.2035 219.206 59.597L217.008 77.3253L217.856 77.2328L219.944 60.3524C220.43 55.9126 223.775 52.444 227.778 51.2107Z" fill="white"/>
<path d="M243.48 46.6166C237.922 47.187 232.851 52.1817 232.16 57.7469C232.16 57.7469 229.727 77.433 229.711 77.4947C229.695 77.5564 229.727 77.618 229.805 77.6026C229.884 77.5872 239.68 76.5852 240.874 76.4464C240.952 76.4464 240.999 76.3693 241.015 76.3077C241.015 76.2614 243.496 56.2824 243.496 56.2824C243.794 54.9412 244.438 54.155 245.332 53.9392L250.561 53.3996C250.561 53.3996 247.86 75.2748 247.829 75.4598C247.782 75.6448 247.876 75.7373 248.049 75.7219C249.697 75.5523 258.913 74.5965 258.976 74.5811C259.039 74.5811 259.101 74.5349 259.101 74.4578C259.353 72.4691 262.759 45.0596 262.759 44.89C262.775 44.705 262.602 44.6433 262.493 44.6588C262.383 44.6742 243.48 46.6166 243.48 46.6166Z" fill="#071D3D"/>
<path d="M243.542 47.8036C238.533 48.3277 233.949 52.8446 233.321 57.8702C233.321 57.8702 231.045 76.1689 231.045 76.2614C231.029 76.3385 231.045 76.3847 231.123 76.3693C231.202 76.3539 238.8 75.5677 239.852 75.4598C239.931 75.4444 239.978 75.3981 239.994 75.321C239.994 75.2748 242.364 56.1745 242.364 56.1745C242.914 53.7233 244.39 53.0296 245.237 52.8446L251.549 52.1817C251.612 52.1817 251.69 52.1817 251.784 52.2588C251.847 52.3205 251.863 52.3975 251.847 52.49C251.847 52.49 249.162 74.0724 249.162 74.2265C249.147 74.3807 249.225 74.4732 249.398 74.4578C250.889 74.3036 257.86 73.579 257.923 73.579C258.049 73.579 258.096 73.4557 258.096 73.3941C258.315 71.6829 261.471 46.1387 261.487 46.0462C261.487 45.9691 261.424 45.9229 261.361 45.9229C261.283 45.9691 243.542 47.8036 243.542 47.8036Z" fill="#C7A079"/>
<path d="M244.341 49.1756L260.654 47.4953L260.748 46.6628L243.619 48.4357C238.878 48.929 234.56 53.1838 233.964 57.9473L231.766 75.6756L232.598 75.5831L234.686 58.7027C235.282 53.9392 239.616 49.6689 244.341 49.1756Z" fill="white"/>
<path d="M252.98 52.5826C252.854 52.4439 252.681 52.3668 252.493 52.3359C252.509 52.413 252.509 52.5055 252.493 52.5826L249.855 73.7949L250.703 73.7024L253.231 53.338C253.262 53.0451 253.168 52.783 252.98 52.5826Z" fill="white"/>
<path d="M184.273 77.9573L185.89 65.2391C186.409 61.1076 189.753 57.3153 193.772 56.082C193.835 55.4192 193.866 55.1108 193.866 55.1108C189.486 56.0358 185.702 60.0748 185.153 64.4837L183.535 77.2019C181.353 77.4177 179.061 77.464 177.742 77.3406C178.009 77.6644 178.433 78.0498 178.48 78.096C179.862 78.3272 182.107 78.1731 184.273 77.9573Z" fill="white"/>
<path d="M187.683 45.0443L208.297 42.9014C209.914 42.7319 211.374 43.1327 212.457 44.0268C212.347 43.8881 212.222 43.7339 212.08 43.5952C210.966 42.4698 209.364 41.9611 207.559 42.1461L186.945 44.2889C176.818 45.3372 175.641 54.9567 175.641 54.9567C175.641 54.9567 176.065 54.4017 176.881 53.6618C177.87 50.7636 180.555 45.7842 187.683 45.0443Z" fill="white"/>
<path d="M193.616 76.986C195.704 76.7702 202.283 76.0919 203.162 70.1413C203.162 70.1413 205.062 53.4613 205.109 53.1375C205.329 51.6268 205.533 50.2085 204.716 49.3452C204.591 49.2065 204.434 49.0986 204.277 49.0215C204.748 49.9002 204.559 51.1026 204.387 52.3822C204.324 52.7059 202.424 69.3859 202.424 69.3859C201.545 75.3365 194.982 76.0148 192.878 76.2306L192.25 76.2923L192.156 77.1402L193.616 76.986Z" fill="white"/>
<path d="M276.244 42.9939C270.702 43.5643 265.615 48.559 264.94 54.1242C264.94 54.1242 262.507 73.7178 262.507 73.8103C262.491 73.9028 262.538 73.9953 262.648 73.9799C262.774 73.9645 281.818 71.9913 281.818 71.9913C287.36 71.4209 292.431 66.4261 293.122 60.861C293.122 60.861 295.54 41.2981 295.555 41.1902C295.571 41.0669 295.445 41.0052 295.351 41.0206C295.241 41.0361 276.244 42.9939 276.244 42.9939ZM279.887 64.6841L274.721 65.2237L276.229 53.0759C276.401 51.9968 276.872 50.6248 278.16 50.3319L283.341 49.7923L281.818 61.9401C281.661 63.0192 281.19 64.3758 279.887 64.6841Z" fill="#071D3D"/>
<path d="M294.111 42.3466C294.048 42.3466 276.307 44.1965 276.307 44.1965C271.299 44.7206 266.699 49.2375 266.087 54.2631C266.087 54.2631 263.826 72.4847 263.81 72.5772C263.794 72.6851 263.904 72.7468 263.999 72.7468C264.077 72.7468 281.74 70.9123 281.74 70.9123C286.748 70.3882 291.348 65.8713 291.976 60.8457C291.976 60.8457 294.221 42.547 294.237 42.4545C294.252 42.362 294.19 42.3311 294.111 42.3466ZM282.98 61.9865L282.964 62.079C282.572 64.7305 281.159 65.5938 280.028 65.8405L273.748 66.4879C273.685 66.5033 273.607 66.4879 273.513 66.4108C273.45 66.3492 273.434 66.2721 273.434 66.1796L275.067 52.9836C275.46 50.3012 276.904 49.4533 278.019 49.2067L278.097 49.1912L284.283 48.5438C284.377 48.5438 284.456 48.5592 284.518 48.6208C284.581 48.6825 284.597 48.7596 284.581 48.8675L282.98 61.9865Z" fill="#C7A079"/>
<path d="M285.259 48.9754L283.626 62.1868C283.155 65.3934 281.24 66.2566 280.141 66.4879L273.829 67.1508C273.735 67.1662 273.657 67.1508 273.562 67.1354C273.594 67.3203 273.672 67.5053 273.814 67.6441C274.002 67.8445 274.285 67.937 274.583 67.9062L280.894 67.2587C281.993 67.0274 283.893 66.1642 284.38 62.9576L286.013 49.7462C286.06 49.4687 285.966 49.1912 285.761 48.9908C285.636 48.852 285.463 48.775 285.275 48.7441C285.259 48.7904 285.259 48.8829 285.259 48.9754Z" fill="white"/>
<path d="M277.111 45.5685L293.423 43.8881L293.533 43.0557L276.389 44.8285C271.647 45.3218 267.33 49.592 266.733 54.3401L264.535 72.0531L265.383 71.9606L267.471 55.0801C268.052 50.3166 272.385 46.0618 277.111 45.5685Z" fill="white"/>
<path d="M258.663 31.247L265.462 30.5224C265.634 30.507 265.791 30.3529 265.823 30.1679L266.294 26.3756C266.309 26.206 266.199 26.0672 266.011 26.0981L257.125 27.0539C256.984 27.0693 256.842 27.1463 256.748 27.2543L253.938 30.137L251.787 27.7784C251.708 27.6859 251.583 27.6397 251.441 27.6551L243.215 28.5338C243.073 28.5492 242.932 28.6263 242.822 28.7342L240.169 31.4628C240.075 31.5707 239.996 31.694 239.98 31.8328L238.662 42.4852C238.646 42.6548 238.756 42.7935 238.944 42.7627L242.728 42.3619C242.901 42.3465 243.058 42.1923 243.089 42.0073L244.157 33.3898C244.188 33.0969 244.455 32.8502 244.738 32.8194L248.772 32.3878C249.055 32.3569 249.259 32.5728 249.228 32.8502L248.176 41.4678C248.16 41.6373 248.27 41.7761 248.458 41.7452L252.242 41.3444C252.415 41.329 252.572 41.1749 252.603 40.9899L252.902 38.5387L255.052 40.8819C255.131 40.9744 255.257 41.0207 255.398 41.0053L264.284 40.0495C264.457 40.0341 264.614 39.8799 264.645 39.6949L265.116 35.9026C265.132 35.733 265.022 35.5943 264.834 35.6251L258.035 36.3497C257.753 36.3805 257.549 36.1647 257.58 35.8872L258.083 31.8482C258.114 31.5399 258.381 31.2778 258.663 31.247Z" fill="#071D3D"/>
</g>
<defs>
<clipPath id="clip0_2493_38248">
<rect width="157" height="106" fill="white" transform="translate(172.5 2.00293)"/>
</clipPath>
</defs>
</svg>
