<svg width="414" height="240" viewBox="0 0 414 240" fill="none" xmlns="http://www.w3.org/2000/svg">
<path d="M57.5117 8.05313C70.4916 2.37272 84.5679 -0.364167 98.7307 0.0388436L96 96L57.5117 8.05313Z" fill="#92B1E7"/>
<path d="M96 0C114.756 2.23662e-07 133.101 5.49419 148.769 15.8039C164.437 26.1136 176.742 40.7873 184.164 58.0122C191.586 75.2372 193.8 94.259 190.531 112.728C187.263 131.197 178.656 148.304 165.774 161.936C152.892 175.568 136.299 185.128 118.044 189.435C99.7893 193.742 80.6728 192.607 63.0559 186.17C45.439 179.734 30.0934 168.278 18.9146 153.217C7.73577 138.157 1.21352 120.152 0.153453 101.426L96 96V0Z" fill="#3377FF"/>
<path d="M0.240581 102.792C-1.20837 82.3641 3.91334 62.0081 14.8574 44.6982C25.8014 27.3883 41.9942 14.0318 61.0698 6.58029L96 96L0.240581 102.792Z" fill="#0E419C"/>
<path d="M74.4805 36.1367C72.6074 36.1367 71.1992 34.9951 71.1309 33.416H72.5938C72.6758 34.2568 73.4824 34.8721 74.4805 34.8789C75.6836 34.8721 76.5449 34.0039 76.5449 32.8281C76.5449 31.625 75.6562 30.75 74.4121 30.7363C73.6191 30.7363 73.0107 31.0029 72.6758 31.6113H71.2539L71.8965 26.1016H77.502V27.3867H73.1406L72.8125 30.1621H72.9082C73.3184 29.7656 74.0156 29.499 74.7676 29.4922C76.6338 29.499 78.0078 30.8799 78.0078 32.7871C78.0078 34.7354 76.5449 36.1367 74.4805 36.1367ZM80.2227 36.0957C79.6895 36.0889 79.2451 35.6582 79.252 35.125C79.2451 34.5918 79.6895 34.1543 80.2227 34.1543C80.749 34.1543 81.1865 34.5918 81.1934 35.125C81.1865 35.6582 80.749 36.0889 80.2227 36.0957ZM83.0254 36L87.4414 27.4688V27.3867H82.3418V26.1016H89V27.4414L84.5977 36H83.0254ZM95.6855 33.6211C95.6855 32.5068 96.4102 31.5566 97.6953 31.5566C99.0146 31.5566 99.7051 32.5 99.7051 33.6211V34.1406C99.7051 35.2617 98.9941 36.2119 97.6953 36.2051C96.3896 36.2119 95.6855 35.2617 95.6855 34.1406V33.6211ZM90.6953 28.4805V27.9609C90.6953 26.8398 91.4336 25.8896 92.7188 25.8965C94.0312 25.8896 94.7217 26.8398 94.7148 27.9609V28.4805C94.7217 29.5947 94.0107 30.5381 92.7188 30.5449C91.3994 30.5381 90.6953 29.5947 90.6953 28.4805ZM91.1738 36L97.9824 26.1016H99.1309L92.3223 36H91.1738ZM91.8301 28.4805C91.8369 29.0273 92.0625 29.5674 92.7188 29.5605C93.3682 29.5674 93.5869 29.0273 93.5801 28.4805V27.9609C93.5869 27.4072 93.3818 26.8672 92.7188 26.8672C92.0762 26.8672 91.8369 27.4072 91.8301 27.9609V28.4805ZM96.8203 34.1406C96.8135 34.6943 97.0391 35.2275 97.6953 35.2344C98.3447 35.2275 98.5703 34.6943 98.5703 34.1406V33.6211C98.5703 33.0674 98.3652 32.5342 97.6953 32.5273C97.0527 32.5342 96.8135 33.0674 96.8203 33.6211V34.1406Z" fill="white"/>
<path d="M120.498 105L124.914 96.4688V96.3867H119.814V95.1016H126.473V96.4414L122.07 105H120.498ZM126.979 103.072V101.855L131.354 95.1016H133.213V101.801H134.566V103.072H133.213V105H131.791V103.072H126.979ZM128.564 101.801H131.791V96.8926H131.682L128.564 101.719V101.801ZM136.686 105.096C136.152 105.089 135.708 104.658 135.715 104.125C135.708 103.592 136.152 103.154 136.686 103.154C137.212 103.154 137.649 103.592 137.656 104.125C137.649 104.658 137.212 105.089 136.686 105.096ZM141.963 95.1016V105H140.445V96.6055H140.391L138.025 98.1504V96.7148L140.486 95.1016H141.963ZM149.646 102.621C149.646 101.507 150.371 100.557 151.656 100.557C152.976 100.557 153.666 101.5 153.666 102.621V103.141C153.666 104.262 152.955 105.212 151.656 105.205C150.351 105.212 149.646 104.262 149.646 103.141V102.621ZM144.656 97.4805V96.9609C144.656 95.8398 145.395 94.8896 146.68 94.8965C147.992 94.8896 148.683 95.8398 148.676 96.9609V97.4805C148.683 98.5947 147.972 99.5381 146.68 99.5449C145.36 99.5381 144.656 98.5947 144.656 97.4805ZM145.135 105L151.943 95.1016H153.092L146.283 105H145.135ZM145.791 97.4805C145.798 98.0273 146.023 98.5674 146.68 98.5605C147.329 98.5674 147.548 98.0273 147.541 97.4805V96.9609C147.548 96.4072 147.343 95.8672 146.68 95.8672C146.037 95.8672 145.798 96.4072 145.791 96.9609V97.4805ZM150.781 103.141C150.774 103.694 151 104.228 151.656 104.234C152.306 104.228 152.531 103.694 152.531 103.141V102.621C152.531 102.067 152.326 101.534 151.656 101.527C151.014 101.534 150.774 102.067 150.781 102.621V103.141Z" fill="white"/>
<path d="M116.034 113.912V126.162H114.79V119.777H113.272V125.561H112.042V114.145H113.272V118.711H114.79V113.912H116.034ZM105.903 122.936V115.293H110.661V122.936H105.903ZM107.134 121.896H109.444V116.318H107.134V121.896ZM128.79 120.871V121.951H123.786V126.162H122.515V121.951H117.579V120.871H128.79ZM118.796 117.098C118.803 115.43 120.566 114.377 123.157 114.377C125.748 114.377 127.525 115.43 127.519 117.098C127.525 118.745 125.748 119.791 123.157 119.791C120.566 119.791 118.803 118.745 118.796 117.098ZM120.136 117.098C120.129 118.116 121.339 118.752 123.157 118.752C124.982 118.752 126.186 118.116 126.192 117.098C126.186 116.065 124.982 115.423 123.157 115.416C121.339 115.423 120.129 116.065 120.136 117.098ZM142.817 115.156V116.469C142.817 118.055 142.817 119.771 142.366 122.389L141.04 122.266C141.532 119.812 141.532 118.014 141.532 116.469V116.223H134.313V115.156H142.817ZM133.11 124.426V123.346H144.28V124.426H133.11ZM155.423 113.912V120.598H154.124V117.289H151.923V116.236H154.124V113.912H155.423ZM145.675 115.457V114.473H151.185V117.59H147.001V118.861C149.018 118.854 150.46 118.8 152.142 118.492L152.265 119.518C150.433 119.825 148.895 119.88 146.659 119.887H145.702V116.66H149.899V115.457H145.675ZM147.042 122.252V121.268H150.72V120.174H152.019V121.268H155.669V122.252H147.042ZM147.89 124.426C147.89 123.305 149.168 122.71 151.349 122.717C153.543 122.71 154.835 123.305 154.835 124.426C154.835 125.554 153.543 126.142 151.349 126.135C149.168 126.142 147.89 125.554 147.89 124.426ZM149.147 124.426C149.147 124.959 149.913 125.232 151.349 125.232C152.791 125.232 153.563 124.959 153.563 124.426C153.563 123.92 152.791 123.619 151.349 123.619C149.913 123.619 149.147 123.92 149.147 124.426ZM166.853 113.912V118.656H168.821V119.723H166.853V126.189H165.554V113.912H166.853ZM157.829 123.141V115.088H163.558V116.141H159.128V122.061C161.186 122.054 162.724 121.965 164.474 121.65L164.638 122.744C162.717 123.086 161.09 123.147 158.813 123.141H157.829Z" fill="white"/>
<path d="M26.0098 60V58.9062L29.4414 55.4473C30.5283 54.3193 31.0684 53.6904 31.0684 52.8223C31.0684 51.8447 30.2754 51.2227 29.2363 51.2227C28.1357 51.2227 27.4385 51.9199 27.4316 52.9727H26.0098C25.9961 51.1611 27.377 49.9648 29.2637 49.9648C31.1709 49.9648 32.4902 51.1748 32.5039 52.7812C32.4902 53.8887 31.9707 54.7705 30.1113 56.5957L28.1016 58.6328V58.7148H32.668V60H26.0098ZM37.7812 60.1367C35.4912 60.1367 34.1445 58.291 34.1445 55.0508C34.1445 51.8311 35.5049 49.9648 37.7812 49.9648C40.0508 49.9648 41.4111 51.8311 41.418 55.0508C41.4111 58.291 40.0713 60.1367 37.7812 60.1367ZM35.6484 55.0508C35.6416 57.5186 36.4414 58.8379 37.7812 58.8379C39.1143 58.8379 39.9141 57.5186 39.9141 55.0508C39.9141 52.5898 39.1074 51.2432 37.7812 51.2363C36.4482 51.2432 35.6484 52.5898 35.6484 55.0508ZM43.5781 60.0957C43.0449 60.0889 42.6006 59.6582 42.6074 59.125C42.6006 58.5918 43.0449 58.1543 43.5781 58.1543C44.1045 58.1543 44.542 58.5918 44.5488 59.125C44.542 59.6582 44.1045 60.0889 43.5781 60.0957ZM46.2988 60V58.9062L49.7305 55.4473C50.8174 54.3193 51.3574 53.6904 51.3574 52.8223C51.3574 51.8447 50.5645 51.2227 49.5254 51.2227C48.4248 51.2227 47.7275 51.9199 47.7207 52.9727H46.2988C46.2852 51.1611 47.666 49.9648 49.5527 49.9648C51.46 49.9648 52.7793 51.1748 52.793 52.7812C52.7793 53.8887 52.2598 54.7705 50.4004 56.5957L48.3906 58.6328V58.7148H52.957V60H46.2988ZM59.793 57.6211C59.793 56.5068 60.5176 55.5566 61.8027 55.5566C63.1221 55.5566 63.8125 56.5 63.8125 57.6211V58.1406C63.8125 59.2617 63.1016 60.2119 61.8027 60.2051C60.4971 60.2119 59.793 59.2617 59.793 58.1406V57.6211ZM54.8027 52.4805V51.9609C54.8027 50.8398 55.541 49.8896 56.8262 49.8965C58.1387 49.8896 58.8291 50.8398 58.8223 51.9609V52.4805C58.8291 53.5947 58.1182 54.5381 56.8262 54.5449C55.5068 54.5381 54.8027 53.5947 54.8027 52.4805ZM55.2812 60L62.0898 50.1016H63.2383L56.4297 60H55.2812ZM55.9375 52.4805C55.9443 53.0273 56.1699 53.5674 56.8262 53.5605C57.4756 53.5674 57.6943 53.0273 57.6875 52.4805V51.9609C57.6943 51.4072 57.4893 50.8672 56.8262 50.8672C56.1836 50.8672 55.9443 51.4072 55.9375 51.9609V52.4805ZM60.9277 58.1406C60.9209 58.6943 61.1465 59.2275 61.8027 59.2344C62.4521 59.2275 62.6777 58.6943 62.6777 58.1406V57.6211C62.6777 57.0674 62.4727 56.5342 61.8027 56.5273C61.1602 56.5342 60.9209 57.0674 60.9277 57.6211V58.1406Z" fill="white"/>
<path d="M37.0088 70.1562V71.4688C37.0088 73.0547 37.0088 74.7705 36.5576 77.3887L35.2314 77.2656C35.7236 74.8115 35.7236 73.0137 35.7236 71.4688V71.2227H28.5049V70.1562H37.0088ZM27.3018 79.4258V78.3457H38.4717V79.4258H27.3018ZM49.6143 68.9121V75.5977H48.3154V72.2891H46.1143V71.2363H48.3154V68.9121H49.6143ZM39.8662 70.457V69.4727H45.376V72.5898H41.1924V73.8613C43.209 73.8545 44.6514 73.7998 46.333 73.4922L46.4561 74.5176C44.624 74.8252 43.0859 74.8799 40.8506 74.8867H39.8936V71.6602H44.0908V70.457H39.8662ZM41.2334 77.252V76.2676H44.9111V75.1738H46.21V76.2676H49.8604V77.252H41.2334ZM42.0811 79.4258C42.0811 78.3047 43.3594 77.71 45.54 77.7168C47.7344 77.71 49.0264 78.3047 49.0264 79.4258C49.0264 80.5537 47.7344 81.1416 45.54 81.1348C43.3594 81.1416 42.0811 80.5537 42.0811 79.4258ZM43.3389 79.4258C43.3389 79.959 44.1045 80.2324 45.54 80.2324C46.9824 80.2324 47.7549 79.959 47.7549 79.4258C47.7549 78.9199 46.9824 78.6191 45.54 78.6191C44.1045 78.6191 43.3389 78.9199 43.3389 79.4258ZM61.0439 68.9121V73.6562H63.0127V74.7227H61.0439V81.1895H59.7451V68.9121H61.0439ZM52.0205 78.1406V70.0879H57.749V71.1406H53.3193V77.0605C55.377 77.0537 56.915 76.9648 58.665 76.6504L58.8291 77.7441C56.9082 78.0859 55.2812 78.1475 53.0049 78.1406H52.0205Z" fill="white"/>
<path d="M50.6309 222.939V230.621H42.9492V222.939H50.6309ZM44.7949 237.336V232.15H47.0273V235.543H55.7461V237.336H44.7949ZM45.1641 228.863H48.416V224.732H45.1641V228.863ZM52.916 233.293V221.621H55.166V226.227H57.3281V228.072H55.166V233.293H52.916ZM71.3027 222.201V223.977H66.9258C67.2686 225.146 68.9297 226.271 72.0059 226.561L71.1973 228.318C68.1914 228.011 66.1611 226.868 65.3086 225.304C64.4648 226.868 62.4697 228.011 59.4727 228.318L58.6816 226.561C61.7139 226.271 63.3574 225.137 63.709 223.977H59.3672V222.201H71.3027ZM58.0312 231.201V229.408H64.2012V227.316H66.416V229.408H72.6211V231.201H58.0312ZM59.6484 234.137V232.344H70.8457V237.617H68.6133V234.137H59.6484ZM86.6309 228.775V230.551H81.9902V233.961H88.2305V235.789H73.5879V233.961H79.7578V230.551H75.3105V222.746H86.5078V224.539H77.5605V228.775H86.6309ZM93.6094 233.75V231.658L98.9883 223.273H102.311V231.623H103.928V233.75H102.311V236H99.7969V233.75H93.6094ZM96.2812 231.623H99.832V226.174H99.709L96.2812 231.518V231.623ZM106.934 236.158C106.107 236.158 105.439 235.499 105.457 234.682C105.439 233.873 106.107 233.214 106.934 233.223C107.716 233.214 108.393 233.873 108.393 234.682C108.393 235.499 107.716 236.158 106.934 236.158ZM114.861 236.176C112.233 236.167 109.72 234.594 109.729 229.936C109.737 225.638 111.785 223.098 114.967 223.098C117.524 223.098 119.282 224.715 119.537 226.807H116.936C116.725 225.919 115.995 225.365 114.967 225.365C113.235 225.365 112.33 226.921 112.312 229.426H112.436C113.024 228.292 114.281 227.633 115.688 227.633C117.981 227.633 119.687 229.347 119.678 231.746C119.687 234.33 117.735 236.185 114.861 236.176ZM112.576 231.816C112.594 233.064 113.543 234.093 114.844 234.084C116.153 234.093 117.111 233.1 117.111 231.816C117.111 230.542 116.171 229.558 114.879 229.549C113.578 229.558 112.594 230.577 112.576 231.816ZM126.287 236.176C123.378 236.176 121.295 234.646 121.295 232.572C121.295 230.973 122.525 229.672 124.107 229.426V229.338C122.728 229.074 121.778 227.923 121.787 226.525C121.778 224.548 123.686 223.098 126.287 223.098C128.889 223.098 130.796 224.548 130.805 226.525C130.796 227.923 129.82 229.074 128.484 229.338V229.426C130.031 229.672 131.279 230.973 131.279 232.572C131.279 234.646 129.188 236.176 126.287 236.176ZM124.055 232.309C124.046 233.398 124.942 234.163 126.287 234.154C127.632 234.163 128.528 233.398 128.52 232.309C128.528 231.21 127.579 230.401 126.287 230.393C124.995 230.401 124.046 231.201 124.055 232.309ZM124.371 226.789C124.362 227.809 125.162 228.521 126.287 228.529C127.403 228.521 128.212 227.809 128.221 226.789C128.212 225.796 127.421 225.102 126.287 225.102C125.145 225.102 124.362 225.796 124.371 226.789Z" fill="#0E419C"/>
<path d="M138.082 222.676L133.986 237.916H132.316L136.412 222.676H138.082ZM143.777 236.176C141.369 236.176 139.559 234.708 139.471 232.678H141.352C141.457 233.759 142.494 234.55 143.777 234.559C145.324 234.55 146.432 233.434 146.432 231.922C146.432 230.375 145.289 229.25 143.689 229.232C142.67 229.232 141.888 229.575 141.457 230.357H139.629L140.455 223.273H147.662V224.926H142.055L141.633 228.494H141.756C142.283 227.984 143.18 227.642 144.146 227.633C146.546 227.642 148.312 229.417 148.312 231.869C148.312 234.374 146.432 236.176 143.777 236.176Z" fill="#111111"/>
<path d="M260.615 19.0395C281.026 3.81998 306.647 -2.66791 331.842 1.00311L318 96L260.615 19.0395Z" fill="#92B1E7"/>
<path d="M285.543 23.9648C287.361 23.9785 289.269 25.0723 289.275 28.6953C289.275 32.168 287.778 34.1367 285.406 34.1367C283.581 34.1367 282.31 33.0088 282.07 31.4023H283.561C283.766 32.2363 284.408 32.8174 285.406 32.8242C286.931 32.8174 287.826 31.4912 287.84 29.2285H287.717C287.184 30.0625 286.254 30.5684 285.188 30.5684C283.41 30.5684 281.988 29.208 281.988 27.3145C281.988 25.4277 283.39 23.9512 285.543 23.9648ZM283.451 27.2871C283.458 28.4355 284.312 29.3447 285.516 29.3379C286.712 29.3447 287.635 28.3672 287.635 27.2734C287.635 26.2002 286.753 25.2227 285.543 25.2227C284.347 25.2227 283.444 26.1523 283.451 27.2871ZM291.463 34.0957C290.93 34.0889 290.485 33.6582 290.492 33.125C290.485 32.5918 290.93 32.1543 291.463 32.1543C291.989 32.1543 292.427 32.5918 292.434 33.125C292.427 33.6582 291.989 34.0889 291.463 34.0957ZM297.301 34.1367C295.147 34.1367 293.65 32.9746 293.664 31.3613C293.65 30.0898 294.56 29.0508 295.729 28.873V28.8184C294.71 28.5859 294.033 27.6836 294.033 26.6035C294.033 25.0791 295.407 23.9648 297.301 23.9648C299.167 23.9648 300.548 25.0791 300.555 26.6035C300.548 27.6836 299.857 28.5859 298.859 28.8184V28.873C300.015 29.0508 300.931 30.0898 300.938 31.3613C300.931 32.9746 299.42 34.1367 297.301 34.1367ZM295.195 31.252C295.175 32.2227 295.995 32.8926 297.301 32.8926C298.586 32.8926 299.406 32.2227 299.406 31.252C299.406 30.2334 298.518 29.4883 297.301 29.4883C296.07 29.4883 295.175 30.2334 295.195 31.252ZM295.496 26.7402C295.503 27.6631 296.241 28.3057 297.301 28.2988C298.333 28.3057 299.085 27.6699 299.078 26.7402C299.085 25.8174 298.36 25.1885 297.301 25.1953C296.214 25.1885 295.503 25.8174 295.496 26.7402ZM307.664 31.6211C307.664 30.5068 308.389 29.5566 309.674 29.5566C310.993 29.5566 311.684 30.5 311.684 31.6211V32.1406C311.684 33.2617 310.973 34.2119 309.674 34.2051C308.368 34.2119 307.664 33.2617 307.664 32.1406V31.6211ZM302.674 26.4805V25.9609C302.674 24.8398 303.412 23.8896 304.697 23.8965C306.01 23.8896 306.7 24.8398 306.693 25.9609V26.4805C306.7 27.5947 305.989 28.5381 304.697 28.5449C303.378 28.5381 302.674 27.5947 302.674 26.4805ZM303.152 34L309.961 24.1016H311.109L304.301 34H303.152ZM303.809 26.4805C303.815 27.0273 304.041 27.5674 304.697 27.5605C305.347 27.5674 305.565 27.0273 305.559 26.4805V25.9609C305.565 25.4072 305.36 24.8672 304.697 24.8672C304.055 24.8672 303.815 25.4072 303.809 25.9609V26.4805ZM308.799 32.1406C308.792 32.6943 309.018 33.2275 309.674 33.2344C310.323 33.2275 310.549 32.6943 310.549 32.1406V31.6211C310.549 31.0674 310.344 30.5342 309.674 30.5273C309.031 30.5342 308.792 31.0674 308.799 31.6211V32.1406Z" fill="white"/>
<path d="M318 0C334.094 1.91914e-07 349.929 4.04594 364.05 11.7658C378.171 19.4857 390.125 30.6318 398.812 44.1792C407.499 57.7267 412.642 73.2408 413.766 89.295C414.89 105.349 411.96 121.429 405.245 136.054C398.53 150.68 388.246 163.383 375.338 172.995C362.431 182.608 347.314 188.821 331.377 191.063C315.441 193.306 299.196 191.506 284.137 185.829C269.078 180.152 255.688 170.781 245.197 158.576L318 96V0Z" fill="#3377FF"/>
<path d="M245.548 158.982C236.811 148.931 230.26 137.171 226.313 124.452C222.366 111.733 221.109 98.331 222.621 85.0993C224.133 71.8676 228.382 59.0953 235.097 47.5944C241.812 36.0935 250.847 26.1156 261.627 18.2951L318 96L245.548 158.982Z" fill="#0E419C"/>
<path d="M343.688 105.137C341.855 105.123 339.941 104.036 339.941 100.379C339.948 96.9336 341.438 94.9648 343.811 94.9648C345.636 94.9648 346.9 96.0996 347.133 97.6719H345.643C345.444 96.8652 344.809 96.2842 343.811 96.2773C342.279 96.2842 341.391 97.6104 341.391 99.8457H341.5C342.04 99.0049 342.97 98.5127 344.043 98.5059C345.807 98.5127 347.229 99.8662 347.229 101.76C347.229 103.681 345.813 105.15 343.688 105.137ZM341.568 101.801C341.575 102.901 342.457 103.872 343.674 103.879C344.87 103.872 345.766 102.942 345.766 101.787C345.766 100.652 344.904 99.7295 343.715 99.7363C342.505 99.7295 341.582 100.7 341.568 101.801ZM352.342 105.137C350.291 105.137 348.835 104.036 348.773 102.416H350.305C350.359 103.284 351.221 103.838 352.328 103.838C353.524 103.838 354.393 103.188 354.393 102.225C354.393 101.247 353.579 100.55 352.164 100.543H351.316V99.3125H352.164C353.292 99.3193 354.078 98.6904 354.078 97.7402C354.078 96.8379 353.401 96.2227 352.355 96.2227C351.364 96.2227 350.476 96.7764 350.441 97.6719H348.992C349.033 96.0586 350.523 94.9648 352.369 94.9648C354.317 94.9648 355.541 96.1953 355.527 97.6582C355.541 98.7861 354.844 99.5928 353.777 99.8594V99.9277C355.131 100.119 355.917 101.028 355.91 102.279C355.917 103.927 354.393 105.137 352.342 105.137ZM358.234 105.096C357.701 105.089 357.257 104.658 357.264 104.125C357.257 103.592 357.701 103.154 358.234 103.154C358.761 103.154 359.198 103.592 359.205 104.125C359.198 104.658 358.761 105.089 358.234 105.096ZM361.037 105L365.453 96.4688V96.3867H360.354V95.1016H367.012V96.4414L362.609 105H361.037ZM373.697 102.621C373.697 101.507 374.422 100.557 375.707 100.557C377.026 100.557 377.717 101.5 377.717 102.621V103.141C377.717 104.262 377.006 105.212 375.707 105.205C374.401 105.212 373.697 104.262 373.697 103.141V102.621ZM368.707 97.4805V96.9609C368.707 95.8398 369.445 94.8896 370.73 94.8965C372.043 94.8896 372.733 95.8398 372.727 96.9609V97.4805C372.733 98.5947 372.022 99.5381 370.73 99.5449C369.411 99.5381 368.707 98.5947 368.707 97.4805ZM369.186 105L375.994 95.1016H377.143L370.334 105H369.186ZM369.842 97.4805C369.849 98.0273 370.074 98.5674 370.73 98.5605C371.38 98.5674 371.599 98.0273 371.592 97.4805V96.9609C371.599 96.4072 371.394 95.8672 370.73 95.8672C370.088 95.8672 369.849 96.4072 369.842 96.9609V97.4805ZM374.832 103.141C374.825 103.694 375.051 104.228 375.707 104.234C376.356 104.228 376.582 103.694 376.582 103.141V102.621C376.582 102.067 376.377 101.534 375.707 101.527C375.064 101.534 374.825 102.067 374.832 102.621V103.141Z" fill="white"/>
<path d="M338.034 113.912V126.162H336.79V119.777H335.272V125.561H334.042V114.145H335.272V118.711H336.79V113.912H338.034ZM327.903 122.936V115.293H332.661V122.936H327.903ZM329.134 121.896H331.444V116.318H329.134V121.896ZM350.79 120.871V121.951H345.786V126.162H344.515V121.951H339.579V120.871H350.79ZM340.796 117.098C340.803 115.43 342.566 114.377 345.157 114.377C347.748 114.377 349.525 115.43 349.519 117.098C349.525 118.745 347.748 119.791 345.157 119.791C342.566 119.791 340.803 118.745 340.796 117.098ZM342.136 117.098C342.129 118.116 343.339 118.752 345.157 118.752C346.982 118.752 348.186 118.116 348.192 117.098C348.186 116.065 346.982 115.423 345.157 115.416C343.339 115.423 342.129 116.065 342.136 117.098ZM364.817 115.156V116.469C364.817 118.055 364.817 119.771 364.366 122.389L363.04 122.266C363.532 119.812 363.532 118.014 363.532 116.469V116.223H356.313V115.156H364.817ZM355.11 124.426V123.346H366.28V124.426H355.11ZM377.423 113.912V120.598H376.124V117.289H373.923V116.236H376.124V113.912H377.423ZM367.675 115.457V114.473H373.185V117.59H369.001V118.861C371.018 118.854 372.46 118.8 374.142 118.492L374.265 119.518C372.433 119.825 370.895 119.88 368.659 119.887H367.702V116.66H371.899V115.457H367.675ZM369.042 122.252V121.268H372.72V120.174H374.019V121.268H377.669V122.252H369.042ZM369.89 124.426C369.89 123.305 371.168 122.71 373.349 122.717C375.543 122.71 376.835 123.305 376.835 124.426C376.835 125.554 375.543 126.142 373.349 126.135C371.168 126.142 369.89 125.554 369.89 124.426ZM371.147 124.426C371.147 124.959 371.913 125.232 373.349 125.232C374.791 125.232 375.563 124.959 375.563 124.426C375.563 123.92 374.791 123.619 373.349 123.619C371.913 123.619 371.147 123.92 371.147 124.426ZM388.853 113.912V118.656H390.821V119.723H388.853V126.189H387.554V113.912H388.853ZM379.829 123.141V115.088H385.558V116.141H381.128V122.061C383.186 122.054 384.724 121.965 386.474 121.65L386.638 122.744C384.717 123.086 383.09 123.147 380.813 123.141H379.829Z" fill="white"/>
<path d="M243.229 84V82.9062L246.661 79.4473C247.748 78.3193 248.288 77.6904 248.288 76.8223C248.288 75.8447 247.495 75.2227 246.456 75.2227C245.355 75.2227 244.658 75.9199 244.651 76.9727H243.229C243.216 75.1611 244.597 73.9648 246.483 73.9648C248.391 73.9648 249.71 75.1748 249.724 76.7812C249.71 77.8887 249.19 78.7705 247.331 80.5957L245.321 82.6328V82.7148H249.888V84H243.229ZM255.138 84.1367C253.306 84.123 251.392 83.0361 251.392 79.3789C251.398 75.9336 252.889 73.9648 255.261 73.9648C257.086 73.9648 258.351 75.0996 258.583 76.6719H257.093C256.895 75.8652 256.259 75.2842 255.261 75.2773C253.729 75.2842 252.841 76.6104 252.841 78.8457H252.95C253.49 78.0049 254.42 77.5127 255.493 77.5059C257.257 77.5127 258.679 78.8662 258.679 80.7598C258.679 82.6807 257.264 84.1504 255.138 84.1367ZM253.019 80.8008C253.025 81.9014 253.907 82.8721 255.124 82.8789C256.32 82.8721 257.216 81.9424 257.216 80.7871C257.216 79.6523 256.354 78.7295 255.165 78.7363C253.955 78.7295 253.032 79.7002 253.019 80.8008ZM260.798 84.0957C260.265 84.0889 259.82 83.6582 259.827 83.125C259.82 82.5918 260.265 82.1543 260.798 82.1543C261.324 82.1543 261.762 82.5918 261.769 83.125C261.762 83.6582 261.324 84.0889 260.798 84.0957ZM263.3 82.0723V80.8555L267.675 74.1016H269.534V80.8008H270.888V82.0723H269.534V84H268.112V82.0723H263.3ZM264.886 80.8008H268.112V75.8926H268.003L264.886 80.7188V80.8008ZM277.573 81.6211C277.573 80.5068 278.298 79.5566 279.583 79.5566C280.902 79.5566 281.593 80.5 281.593 81.6211V82.1406C281.593 83.2617 280.882 84.2119 279.583 84.2051C278.277 84.2119 277.573 83.2617 277.573 82.1406V81.6211ZM272.583 76.4805V75.9609C272.583 74.8398 273.321 73.8896 274.606 73.8965C275.919 73.8896 276.609 74.8398 276.603 75.9609V76.4805C276.609 77.5947 275.898 78.5381 274.606 78.5449C273.287 78.5381 272.583 77.5947 272.583 76.4805ZM273.062 84L279.87 74.1016H281.019L274.21 84H273.062ZM273.718 76.4805C273.725 77.0273 273.95 77.5674 274.606 77.5605C275.256 77.5674 275.475 77.0273 275.468 76.4805V75.9609C275.475 75.4072 275.27 74.8672 274.606 74.8672C273.964 74.8672 273.725 75.4072 273.718 75.9609V76.4805ZM278.708 82.1406C278.701 82.6943 278.927 83.2275 279.583 83.2344C280.232 83.2275 280.458 82.6943 280.458 82.1406V81.6211C280.458 81.0674 280.253 80.5342 279.583 80.5273C278.94 80.5342 278.701 81.0674 278.708 81.6211V82.1406Z" fill="white"/>
<path d="M254.509 94.1562V95.4688C254.509 97.0547 254.509 98.7705 254.058 101.389L252.731 101.266C253.224 98.8115 253.224 97.0137 253.224 95.4688V95.2227H246.005V94.1562H254.509ZM244.802 103.426V102.346H255.972V103.426H244.802ZM267.114 92.9121V99.5977H265.815V96.2891H263.614V95.2363H265.815V92.9121H267.114ZM257.366 94.457V93.4727H262.876V96.5898H258.692V97.8613C260.709 97.8545 262.151 97.7998 263.833 97.4922L263.956 98.5176C262.124 98.8252 260.586 98.8799 258.351 98.8867H257.394V95.6602H261.591V94.457H257.366ZM258.733 101.252V100.268H262.411V99.1738H263.71V100.268H267.36V101.252H258.733ZM259.581 103.426C259.581 102.305 260.859 101.71 263.04 101.717C265.234 101.71 266.526 102.305 266.526 103.426C266.526 104.554 265.234 105.142 263.04 105.135C260.859 105.142 259.581 104.554 259.581 103.426ZM260.839 103.426C260.839 103.959 261.604 104.232 263.04 104.232C264.482 104.232 265.255 103.959 265.255 103.426C265.255 102.92 264.482 102.619 263.04 102.619C261.604 102.619 260.839 102.92 260.839 103.426ZM278.544 92.9121V97.6562H280.513V98.7227H278.544V105.189H277.245V92.9121H278.544ZM269.521 102.141V94.0879H275.249V95.1406H270.819V101.061C272.877 101.054 274.415 100.965 276.165 100.65L276.329 101.744C274.408 102.086 272.781 102.147 270.505 102.141H269.521Z" fill="white"/>
<path d="M262.68 225.98C262.671 228.564 264.007 231.333 266.688 232.449L265.475 234.207C263.594 233.407 262.293 231.816 261.572 229.883C260.852 231.983 259.524 233.741 257.635 234.611L256.352 232.836C259.006 231.649 260.377 228.688 260.377 225.98V224.996H256.984V223.168H266.02V224.996H262.68V225.98ZM267.602 237.617V221.621H269.869V237.617H267.602ZM285.426 221.639V233.135H283.176V221.639H285.426ZM272.277 226.684C272.277 224.337 274.193 222.649 276.654 222.658C279.106 222.649 281.022 224.337 281.031 226.684C281.022 229.065 279.106 230.744 276.654 230.744C274.193 230.744 272.277 229.065 272.277 226.684ZM274.475 226.684C274.457 228.02 275.397 228.793 276.654 228.793C277.867 228.793 278.808 228.02 278.816 226.684C278.808 225.383 277.867 224.601 276.654 224.609C275.397 224.601 274.457 225.383 274.475 226.684ZM274.703 237.336V231.975H276.971V235.543H285.848V237.336H274.703ZM302.178 231.201V233.029H295.973V237.635H293.758V233.029H287.588V231.201H302.178ZM288.326 228.582C291.648 228.213 293.45 226.648 293.723 225.225H288.906V223.467H293.758V221.639H295.973V223.467H300.842V225.225H296.043C296.289 226.631 298.091 228.213 301.404 228.582L300.596 230.34C297.88 230.032 295.92 228.916 294.883 227.466C293.837 228.934 291.868 230.032 289.135 230.34L288.326 228.582ZM309.033 225.383C309.042 227.185 310.211 229.021 312.812 229.812L311.74 231.553C309.947 231.034 308.682 229.936 307.961 228.547C307.249 230.05 305.983 231.236 304.129 231.816L303.039 230.059C305.641 229.276 306.801 227.334 306.801 225.383V225.26H303.584V223.502H306.801V221.727H309.068V223.502H312.268V225.26H309.033V225.383ZM306.01 237.336V232.484H308.26V235.543H317.014V237.336H306.01ZM311.74 228.107V226.297H314.395V221.639H316.627V233.504H314.395V228.107H311.74ZM323.166 233.75V231.658L328.545 223.273H331.867V231.623H333.484V233.75H331.867V236H329.354V233.75H323.166ZM325.838 231.623H329.389V226.174H329.266L325.838 231.518V231.623ZM336.49 236.158C335.664 236.158 334.996 235.499 335.014 234.682C334.996 233.873 335.664 233.214 336.49 233.223C337.272 233.214 337.949 233.873 337.949 234.682C337.949 235.499 337.272 236.158 336.49 236.158ZM344.594 236.176C341.939 236.176 339.997 234.611 339.953 232.414H342.52C342.581 233.407 343.486 234.093 344.594 234.084C345.912 234.093 346.853 233.161 346.844 231.834C346.853 230.48 345.895 229.54 344.559 229.531C343.601 229.531 342.933 229.892 342.555 230.604H340.164L340.85 223.273H348.689V225.436H343.029L342.678 228.652H342.783C343.249 228.028 344.216 227.571 345.332 227.58C347.67 227.571 349.41 229.32 349.41 231.764C349.41 234.339 347.459 236.176 344.594 236.176ZM350.992 233.75V231.658L356.371 223.273H359.693V231.623H361.311V233.75H359.693V236H357.18V233.75H350.992ZM353.664 231.623H357.215V226.174H357.092L353.664 231.518V231.623Z" fill="#0E419C"/>
<path d="M368.025 222.676L363.93 237.916H362.26L366.355 222.676H368.025ZM373.721 236.176C371.312 236.176 369.502 234.708 369.414 232.678H371.295C371.4 233.759 372.438 234.55 373.721 234.559C375.268 234.55 376.375 233.434 376.375 231.922C376.375 230.375 375.232 229.25 373.633 229.232C372.613 229.232 371.831 229.575 371.4 230.357H369.572L370.398 223.273H377.605V224.926H371.998L371.576 228.494H371.699C372.227 227.984 373.123 227.642 374.09 227.633C376.489 227.642 378.256 229.417 378.256 231.869C378.256 234.374 376.375 236.176 373.721 236.176Z" fill="#111111"/>
</svg>
