<svg width="414" height="264" viewBox="0 0 414 264" fill="none" xmlns="http://www.w3.org/2000/svg">
<path d="M74.003 2.55462C83.6848 0.275518 93.6621 -0.485092 103.578 0.300016L96 96.0005L74.003 2.55462Z" fill="#0E419C"/>
<path d="M96 0.000488281C120.73 0.000488576 144.506 9.54395 162.373 26.642C180.24 43.74 190.82 67.0734 191.907 91.7795C192.994 116.486 184.506 140.658 168.21 159.26C151.914 177.861 129.068 189.457 104.434 191.629C79.7993 193.802 55.2768 186.384 35.9767 170.922C16.6767 155.46 4.08806 133.146 0.834469 108.631C-2.41912 84.1156 3.9133 59.2906 18.512 39.3294C33.1107 19.3682 54.8495 5.81064 79.1978 1.48232L96 96.0005V0.000488281Z" fill="#3377FF"/>
<path d="M93.4258 133.965C95.2441 133.979 97.1514 135.072 97.1582 138.695C97.1582 142.168 95.6611 144.137 93.2891 144.137C91.4639 144.137 90.1924 143.009 89.9531 141.402H91.4434C91.6484 142.236 92.291 142.817 93.2891 142.824C94.8135 142.817 95.709 141.491 95.7227 139.229H95.5996C95.0664 140.062 94.1367 140.568 93.0703 140.568C91.293 140.568 89.8711 139.208 89.8711 137.314C89.8711 135.428 91.2725 133.951 93.4258 133.965ZM91.334 137.287C91.3408 138.436 92.1953 139.345 93.3984 139.338C94.5947 139.345 95.5176 138.367 95.5176 137.273C95.5176 136.2 94.6357 135.223 93.4258 135.223C92.2295 135.223 91.3271 136.152 91.334 137.287ZM98.8125 144L103.229 135.469V135.387H98.1289V134.102H104.787V135.441L100.385 144H98.8125ZM105.566 144.096C105.033 144.089 104.589 143.658 104.596 143.125C104.589 142.592 105.033 142.154 105.566 142.154C106.093 142.154 106.53 142.592 106.537 143.125C106.53 143.658 106.093 144.089 105.566 144.096ZM108.287 144V142.906L111.719 139.447C112.806 138.319 113.346 137.69 113.346 136.822C113.346 135.845 112.553 135.223 111.514 135.223C110.413 135.223 109.716 135.92 109.709 136.973H108.287C108.273 135.161 109.654 133.965 111.541 133.965C113.448 133.965 114.768 135.175 114.781 136.781C114.768 137.889 114.248 138.771 112.389 140.596L110.379 142.633V142.715H114.945V144H108.287ZM121.781 141.621C121.781 140.507 122.506 139.557 123.791 139.557C125.11 139.557 125.801 140.5 125.801 141.621V142.141C125.801 143.262 125.09 144.212 123.791 144.205C122.485 144.212 121.781 143.262 121.781 142.141V141.621ZM116.791 136.48V135.961C116.791 134.84 117.529 133.89 118.814 133.896C120.127 133.89 120.817 134.84 120.811 135.961V136.48C120.817 137.595 120.106 138.538 118.814 138.545C117.495 138.538 116.791 137.595 116.791 136.48ZM117.27 144L124.078 134.102H125.227L118.418 144H117.27ZM117.926 136.48C117.933 137.027 118.158 137.567 118.814 137.561C119.464 137.567 119.683 137.027 119.676 136.48V135.961C119.683 135.407 119.478 134.867 118.814 134.867C118.172 134.867 117.933 135.407 117.926 135.961V136.48ZM122.916 142.141C122.909 142.694 123.135 143.228 123.791 143.234C124.44 143.228 124.666 142.694 124.666 142.141V141.621C124.666 141.067 124.461 140.534 123.791 140.527C123.148 140.534 122.909 141.067 122.916 141.621V142.141Z" fill="white"/>
<path d="M87.0342 152.912V165.162H85.79V158.777H84.2725V164.561H83.042V153.145H84.2725V157.711H85.79V152.912H87.0342ZM76.9033 161.936V154.293H81.6611V161.936H76.9033ZM78.1338 160.896H80.4443V155.318H78.1338V160.896ZM99.79 159.871V160.951H94.7861V165.162H93.5146V160.951H88.5791V159.871H99.79ZM89.7959 156.098C89.8027 154.43 91.5664 153.377 94.1572 153.377C96.748 153.377 98.5254 154.43 98.5186 156.098C98.5254 157.745 96.748 158.791 94.1572 158.791C91.5664 158.791 89.8027 157.745 89.7959 156.098ZM91.1357 156.098C91.1289 157.116 92.3389 157.752 94.1572 157.752C95.9824 157.752 97.1855 157.116 97.1924 156.098C97.1855 155.065 95.9824 154.423 94.1572 154.416C92.3389 154.423 91.1289 155.065 91.1357 156.098ZM113.817 154.156V155.469C113.817 157.055 113.817 158.771 113.366 161.389L112.04 161.266C112.532 158.812 112.532 157.014 112.532 155.469V155.223H105.313V154.156H113.817ZM104.11 163.426V162.346H115.28V163.426H104.11ZM126.423 152.912V159.598H125.124V156.289H122.923V155.236H125.124V152.912H126.423ZM116.675 154.457V153.473H122.185V156.59H118.001V157.861C120.018 157.854 121.46 157.8 123.142 157.492L123.265 158.518C121.433 158.825 119.895 158.88 117.659 158.887H116.702V155.66H120.899V154.457H116.675ZM118.042 161.252V160.268H121.72V159.174H123.019V160.268H126.669V161.252H118.042ZM118.89 163.426C118.89 162.305 120.168 161.71 122.349 161.717C124.543 161.71 125.835 162.305 125.835 163.426C125.835 164.554 124.543 165.142 122.349 165.135C120.168 165.142 118.89 164.554 118.89 163.426ZM120.147 163.426C120.147 163.959 120.913 164.232 122.349 164.232C123.791 164.232 124.563 163.959 124.563 163.426C124.563 162.92 123.791 162.619 122.349 162.619C120.913 162.619 120.147 162.92 120.147 163.426ZM137.853 152.912V157.656H139.821V158.723H137.853V165.189H136.554V152.912H137.853ZM128.829 162.141V154.088H134.558V155.141H130.128V161.061C132.186 161.054 133.724 160.965 135.474 160.65L135.638 161.744C133.717 162.086 132.09 162.147 129.813 162.141H128.829Z" fill="white"/>
<path d="M76.6523 32V30.9062L80.084 27.4473C81.1709 26.3193 81.7109 25.6904 81.7109 24.8223C81.7109 23.8447 80.918 23.2227 79.8789 23.2227C78.7783 23.2227 78.0811 23.9199 78.0742 24.9727H76.6523C76.6387 23.1611 78.0195 21.9648 79.9062 21.9648C81.8135 21.9648 83.1328 23.1748 83.1465 24.7812C83.1328 25.8887 82.6133 26.7705 80.7539 28.5957L78.7441 30.6328V30.7148H83.3105V32H76.6523ZM85.9492 32.0957C85.416 32.0889 84.9717 31.6582 84.9785 31.125C84.9717 30.5918 85.416 30.1543 85.9492 30.1543C86.4756 30.1543 86.9131 30.5918 86.9199 31.125C86.9131 31.6582 86.4756 32.0889 85.9492 32.0957ZM91.7871 32.1367C89.6338 32.1367 88.1367 30.9746 88.1504 29.3613C88.1367 28.0898 89.0459 27.0508 90.2148 26.873V26.8184C89.1963 26.5859 88.5195 25.6836 88.5195 24.6035C88.5195 23.0791 89.8936 21.9648 91.7871 21.9648C93.6533 21.9648 95.0342 23.0791 95.041 24.6035C95.0342 25.6836 94.3438 26.5859 93.3457 26.8184V26.873C94.501 27.0508 95.417 28.0898 95.4238 29.3613C95.417 30.9746 93.9062 32.1367 91.7871 32.1367ZM89.6816 29.252C89.6611 30.2227 90.4814 30.8926 91.7871 30.8926C93.0723 30.8926 93.8926 30.2227 93.8926 29.252C93.8926 28.2334 93.0039 27.4883 91.7871 27.4883C90.5566 27.4883 89.6611 28.2334 89.6816 29.252ZM89.9824 24.7402C89.9893 25.6631 90.7275 26.3057 91.7871 26.2988C92.8193 26.3057 93.5713 25.6699 93.5645 24.7402C93.5713 23.8174 92.8467 23.1885 91.7871 23.1953C90.7002 23.1885 89.9893 23.8174 89.9824 24.7402ZM102.15 29.6211C102.15 28.5068 102.875 27.5566 104.16 27.5566C105.479 27.5566 106.17 28.5 106.17 29.6211V30.1406C106.17 31.2617 105.459 32.2119 104.16 32.2051C102.854 32.2119 102.15 31.2617 102.15 30.1406V29.6211ZM97.1602 24.4805V23.9609C97.1602 22.8398 97.8984 21.8896 99.1836 21.8965C100.496 21.8896 101.187 22.8398 101.18 23.9609V24.4805C101.187 25.5947 100.476 26.5381 99.1836 26.5449C97.8643 26.5381 97.1602 25.5947 97.1602 24.4805ZM97.6387 32L104.447 22.1016H105.596L98.7871 32H97.6387ZM98.2949 24.4805C98.3018 25.0273 98.5273 25.5674 99.1836 25.5605C99.833 25.5674 100.052 25.0273 100.045 24.4805V23.9609C100.052 23.4072 99.8467 22.8672 99.1836 22.8672C98.541 22.8672 98.3018 23.4072 98.2949 23.9609V24.4805ZM103.285 30.1406C103.278 30.6943 103.504 31.2275 104.16 31.2344C104.81 31.2275 105.035 30.6943 105.035 30.1406V29.6211C105.035 29.0674 104.83 28.5342 104.16 28.5273C103.518 28.5342 103.278 29.0674 103.285 29.6211V30.1406Z" fill="white"/>
<path d="M83.5088 42.1562V43.4688C83.5088 45.0547 83.5088 46.7705 83.0576 49.3887L81.7314 49.2656C82.2236 46.8115 82.2236 45.0137 82.2236 43.4688V43.2227H75.0049V42.1562H83.5088ZM73.8018 51.4258V50.3457H84.9717V51.4258H73.8018ZM96.1143 40.9121V47.5977H94.8154V44.2891H92.6143V43.2363H94.8154V40.9121H96.1143ZM86.3662 42.457V41.4727H91.876V44.5898H87.6924V45.8613C89.709 45.8545 91.1514 45.7998 92.833 45.4922L92.9561 46.5176C91.124 46.8252 89.5859 46.8799 87.3506 46.8867H86.3936V43.6602H90.5908V42.457H86.3662ZM87.7334 49.252V48.2676H91.4111V47.1738H92.71V48.2676H96.3604V49.252H87.7334ZM88.5811 51.4258C88.5811 50.3047 89.8594 49.71 92.04 49.7168C94.2344 49.71 95.5264 50.3047 95.5264 51.4258C95.5264 52.5537 94.2344 53.1416 92.04 53.1348C89.8594 53.1416 88.5811 52.5537 88.5811 51.4258ZM89.8389 51.4258C89.8389 51.959 90.6045 52.2324 92.04 52.2324C93.4824 52.2324 94.2549 51.959 94.2549 51.4258C94.2549 50.9199 93.4824 50.6191 92.04 50.6191C90.6045 50.6191 89.8389 50.9199 89.8389 51.4258ZM107.544 40.9121V45.6562H109.513V46.7227H107.544V53.1895H106.245V40.9121H107.544ZM98.5205 50.1406V42.0879H104.249V43.1406H99.8193V49.0605C101.877 49.0537 103.415 48.9648 105.165 48.6504L105.329 49.7441C103.408 50.0859 101.781 50.1475 99.5049 50.1406H98.5205Z" fill="white"/>
<path d="M17.8633 225.243C17.8545 228.108 19.0762 231 21.6426 232.239L20.2891 234.032C18.5752 233.179 17.415 231.597 16.7559 229.672C16.0527 231.738 14.8223 233.434 13.0117 234.331L11.623 232.52C14.3389 231.272 15.6133 228.213 15.6133 225.243V222.852H17.8633V225.243ZM22.3457 237.618V221.622H24.5957V227.792H26.9512V229.69H24.5957V237.618H22.3457ZM41.0137 221.639V233.311H38.7812V227.581H36.1621V225.77H38.7812V221.639H41.0137ZM27.4434 229.708C30.0889 228.881 31.2842 226.798 31.293 224.75V224.504H28.0762V222.711H36.7598V224.504H33.5781V224.768C33.5693 226.623 34.7119 228.6 37.252 229.426L36.1445 231.202C34.3779 230.622 33.1562 229.461 32.4619 228.029C31.75 229.62 30.4756 230.912 28.5859 231.536L27.4434 229.708ZM30.3965 237.336V232.292H32.6465V235.543H41.4004V237.336H30.3965ZM56.3594 223.01V224.575C56.3506 226.526 56.3506 228.714 55.7617 231.94L53.5645 231.747C54.083 228.811 54.1006 226.64 54.1094 224.786H44.5293V223.01H56.3594ZM43.0879 235.667V233.838H46.1992V228.811H48.4316V233.838H50.1895V228.811H52.4043V233.838H57.6777V235.667H43.0879ZM73.2344 229.092V230.868H69.7188V232.362H71.459V237.618H69.2266V234.12H60.2617V232.362H62.0898V230.868H58.6445V229.092H73.2344ZM60.1035 225.084C60.1035 223.133 62.3975 221.929 65.9395 221.938C69.4551 221.929 71.749 223.133 71.7578 225.084C71.749 227.044 69.4551 228.249 65.9395 228.249C62.3975 228.249 60.1035 227.044 60.1035 225.084ZM62.4414 225.084C62.4238 226.034 63.6982 226.508 65.9395 226.508C68.1455 226.508 69.4375 226.034 69.4375 225.084C69.4375 224.162 68.1455 223.669 65.9395 223.678C63.6982 223.669 62.4238 224.162 62.4414 225.084ZM64.3574 232.362H67.5039V230.868H64.3574V232.362ZM75.3262 230.885C75.3174 227.8 76.1348 225.234 77.8223 223.01H80.3184C79.0176 224.663 78.0244 227.941 78.0332 230.885C78.0244 233.83 79.0176 237.117 80.3184 238.76H77.8223C76.1348 236.545 75.3174 233.979 75.3262 230.885ZM82.2344 236L87.5957 225.524V225.436H81.3555V223.274H90.3379V225.471L84.9766 236H82.2344ZM105.016 221.622V237.618H102.783V221.622H105.016ZM91.6387 233.1C92.8604 233.091 94.2578 233.091 95.7168 233.056V231.703C93.9678 231.386 92.8252 230.296 92.834 228.793C92.8252 227.009 94.4512 225.788 96.8066 225.788C99.1797 225.788 100.832 227.009 100.832 228.793C100.832 230.288 99.6895 231.377 97.9316 231.703V232.977C99.2764 232.916 100.621 232.81 101.904 232.643L102.062 234.295C98.5557 234.902 94.7852 234.937 91.9375 234.928L91.6387 233.1ZM91.9551 225.155V223.397H95.7168V221.692H97.9492V223.397H101.676V225.155H91.9551ZM94.9609 228.793C94.9521 229.637 95.7168 230.094 96.8066 230.094C97.9316 230.094 98.6875 229.637 98.6875 228.793C98.6875 227.967 97.9316 227.501 96.8066 227.493C95.7168 227.501 94.9521 227.967 94.9609 228.793ZM112.908 226.631C112.908 228.908 114.086 231.474 116.635 232.678L115.387 234.366C113.673 233.592 112.486 232.089 111.818 230.305C111.124 232.23 109.867 233.847 108.057 234.647L106.826 232.907C109.437 231.755 110.676 229.031 110.693 226.631V226.016H107.389V224.223H110.676V221.973H112.926V224.223H116.178V226.016H112.908V226.631ZM117.496 237.618V221.622H119.746V227.827H122.102V229.708H119.746V237.618H117.496ZM127.621 230.885C127.63 233.97 126.812 236.537 125.125 238.76H122.629C123.93 237.108 124.923 233.83 124.914 230.885C124.923 227.941 123.93 224.654 122.629 223.01H125.125C126.812 225.225 127.63 227.792 127.621 230.885ZM142 222.94V230.622H134.318V222.94H142ZM136.164 237.336V232.151H138.396V235.543H147.115V237.336H136.164ZM136.533 228.864H139.785V224.733H136.533V228.864ZM144.285 233.293V221.622H146.535V226.227H148.697V228.073H146.535V233.293H144.285ZM162.672 222.202V223.977H158.295C158.638 225.146 160.299 226.271 163.375 226.561L162.566 228.319C159.561 228.011 157.53 226.869 156.678 225.304C155.834 226.869 153.839 228.011 150.842 228.319L150.051 226.561C153.083 226.271 154.727 225.137 155.078 223.977H150.736V222.202H162.672ZM149.4 231.202V229.409H155.57V227.317H157.785V229.409H163.99V231.202H149.4ZM151.018 234.137V232.344H162.215V237.618H159.982V234.137H151.018ZM178 228.776V230.551H173.359V233.961H179.6V235.79H164.957V233.961H171.127V230.551H166.68V222.747H177.877V224.54H168.93V228.776H178Z" fill="#111111"/>
<path d="M68.291 257.75V255.659L73.6699 247.274H76.9922V255.624H78.6094V257.75H76.9922V260H74.4785V257.75H68.291ZM70.9629 255.624H74.5137V250.174H74.3906L70.9629 255.518V255.624ZM81.6152 260.159C80.7891 260.159 80.1211 259.5 80.1387 258.682C80.1211 257.874 80.7891 257.214 81.6152 257.223C82.3975 257.214 83.0742 257.874 83.0742 258.682C83.0742 259.5 82.3975 260.159 81.6152 260.159ZM89.4023 260.176C86.4932 260.176 84.4102 258.647 84.4102 256.573C84.4102 254.973 85.6406 253.672 87.2227 253.426V253.338C85.8428 253.075 84.8936 251.923 84.9023 250.526C84.8936 248.548 86.8008 247.098 89.4023 247.098C92.0039 247.098 93.9111 248.548 93.9199 250.526C93.9111 251.923 92.9355 253.075 91.5996 253.338V253.426C93.1465 253.672 94.3945 254.973 94.3945 256.573C94.3945 258.647 92.3027 260.176 89.4023 260.176ZM87.1699 256.309C87.1611 257.399 88.0576 258.164 89.4023 258.155C90.7471 258.164 91.6436 257.399 91.6348 256.309C91.6436 255.21 90.6943 254.402 89.4023 254.393C88.1104 254.402 87.1611 255.202 87.1699 256.309ZM87.4863 250.79C87.4775 251.809 88.2773 252.521 89.4023 252.53C90.5186 252.521 91.3271 251.809 91.3359 250.79C91.3271 249.796 90.5361 249.102 89.4023 249.102C88.2598 249.102 87.4775 249.796 87.4863 250.79ZM101.127 260.176C98.499 260.167 95.9854 258.594 95.9941 253.936C96.0029 249.638 98.0508 247.098 101.232 247.098C103.79 247.098 105.548 248.715 105.803 250.807H103.201C102.99 249.919 102.261 249.366 101.232 249.366C99.501 249.366 98.5957 250.921 98.5781 253.426H98.7012C99.29 252.292 100.547 251.633 101.953 251.633C104.247 251.633 105.952 253.347 105.943 255.747C105.952 258.331 104.001 260.185 101.127 260.176ZM98.8418 255.817C98.8594 257.065 99.8086 258.093 101.109 258.084C102.419 258.093 103.377 257.1 103.377 255.817C103.377 254.542 102.437 253.558 101.145 253.549C99.8438 253.558 98.8594 254.578 98.8418 255.817Z" fill="#0E419C"/>
<path d="M112.764 246.676L108.668 261.917H106.998L111.094 246.676H112.764ZM118.459 260.176C116.051 260.176 114.24 258.708 114.152 256.678H116.033C116.139 257.759 117.176 258.55 118.459 258.559C120.006 258.55 121.113 257.434 121.113 255.922C121.113 254.375 119.971 253.25 118.371 253.233C117.352 253.233 116.569 253.576 116.139 254.358H114.311L115.137 247.274H122.344V248.926H116.736L116.314 252.495H116.438C116.965 251.985 117.861 251.642 118.828 251.633C121.228 251.642 122.994 253.417 122.994 255.87C122.994 258.375 121.113 260.176 118.459 260.176Z" fill="#111111"/>
<path d="M303.097 1.16434C309.316 0.18702 315.616 -0.176174 321.906 0.0800018L318 96.0005L303.097 1.16434Z" fill="#0E419C"/>
<path d="M318 0.000488281C342.939 0.000488579 366.899 9.70524 384.808 27.0604C402.717 44.4155 413.169 68.0587 413.953 92.9851C414.736 117.911 405.789 142.164 389.005 160.61C372.221 179.055 348.917 190.245 324.028 191.811C299.138 193.377 274.616 185.196 255.653 168.999C236.689 152.803 224.773 129.863 222.426 105.035C220.079 80.2069 227.486 55.44 243.079 35.9772C258.671 16.5143 281.226 3.8831 305.968 0.75747L318 96.0005L318 0.000488281Z" fill="#3377FF"/>
<path d="M320.033 133.965C321.852 133.979 323.759 135.072 323.766 138.695C323.766 142.168 322.269 144.137 319.896 144.137C318.071 144.137 316.8 143.009 316.561 141.402H318.051C318.256 142.236 318.898 142.817 319.896 142.824C321.421 142.817 322.316 141.491 322.33 139.229H322.207C321.674 140.062 320.744 140.568 319.678 140.568C317.9 140.568 316.479 139.208 316.479 137.314C316.479 135.428 317.88 133.951 320.033 133.965ZM317.941 137.287C317.948 138.436 318.803 139.345 320.006 139.338C321.202 139.345 322.125 138.367 322.125 137.273C322.125 136.2 321.243 135.223 320.033 135.223C318.837 135.223 317.935 136.152 317.941 137.287ZM328.811 144.137C326.657 144.137 325.16 142.975 325.174 141.361C325.16 140.09 326.069 139.051 327.238 138.873V138.818C326.22 138.586 325.543 137.684 325.543 136.604C325.543 135.079 326.917 133.965 328.811 133.965C330.677 133.965 332.058 135.079 332.064 136.604C332.058 137.684 331.367 138.586 330.369 138.818V138.873C331.524 139.051 332.44 140.09 332.447 141.361C332.44 142.975 330.93 144.137 328.811 144.137ZM326.705 141.252C326.685 142.223 327.505 142.893 328.811 142.893C330.096 142.893 330.916 142.223 330.916 141.252C330.916 140.233 330.027 139.488 328.811 139.488C327.58 139.488 326.685 140.233 326.705 141.252ZM327.006 136.74C327.013 137.663 327.751 138.306 328.811 138.299C329.843 138.306 330.595 137.67 330.588 136.74C330.595 135.817 329.87 135.188 328.811 135.195C327.724 135.188 327.013 135.817 327.006 136.74ZM339.174 141.621C339.174 140.507 339.898 139.557 341.184 139.557C342.503 139.557 343.193 140.5 343.193 141.621V142.141C343.193 143.262 342.482 144.212 341.184 144.205C339.878 144.212 339.174 143.262 339.174 142.141V141.621ZM334.184 136.48V135.961C334.184 134.84 334.922 133.89 336.207 133.896C337.52 133.89 338.21 134.84 338.203 135.961V136.48C338.21 137.595 337.499 138.538 336.207 138.545C334.888 138.538 334.184 137.595 334.184 136.48ZM334.662 144L341.471 134.102H342.619L335.811 144H334.662ZM335.318 136.48C335.325 137.027 335.551 137.567 336.207 137.561C336.856 137.567 337.075 137.027 337.068 136.48V135.961C337.075 135.407 336.87 134.867 336.207 134.867C335.564 134.867 335.325 135.407 335.318 135.961V136.48ZM340.309 142.141C340.302 142.694 340.527 143.228 341.184 143.234C341.833 143.228 342.059 142.694 342.059 142.141V141.621C342.059 141.067 341.854 140.534 341.184 140.527C340.541 140.534 340.302 141.067 340.309 141.621V142.141Z" fill="white"/>
<path d="M309.034 152.912V165.162H307.79V158.777H306.272V164.561H305.042V153.145H306.272V157.711H307.79V152.912H309.034ZM298.903 161.936V154.293H303.661V161.936H298.903ZM300.134 160.896H302.444V155.318H300.134V160.896ZM321.79 159.871V160.951H316.786V165.162H315.515V160.951H310.579V159.871H321.79ZM311.796 156.098C311.803 154.43 313.566 153.377 316.157 153.377C318.748 153.377 320.525 154.43 320.519 156.098C320.525 157.745 318.748 158.791 316.157 158.791C313.566 158.791 311.803 157.745 311.796 156.098ZM313.136 156.098C313.129 157.116 314.339 157.752 316.157 157.752C317.982 157.752 319.186 157.116 319.192 156.098C319.186 155.065 317.982 154.423 316.157 154.416C314.339 154.423 313.129 155.065 313.136 156.098ZM335.817 154.156V155.469C335.817 157.055 335.817 158.771 335.366 161.389L334.04 161.266C334.532 158.812 334.532 157.014 334.532 155.469V155.223H327.313V154.156H335.817ZM326.11 163.426V162.346H337.28V163.426H326.11ZM348.423 152.912V159.598H347.124V156.289H344.923V155.236H347.124V152.912H348.423ZM338.675 154.457V153.473H344.185V156.59H340.001V157.861C342.018 157.854 343.46 157.8 345.142 157.492L345.265 158.518C343.433 158.825 341.895 158.88 339.659 158.887H338.702V155.66H342.899V154.457H338.675ZM340.042 161.252V160.268H343.72V159.174H345.019V160.268H348.669V161.252H340.042ZM340.89 163.426C340.89 162.305 342.168 161.71 344.349 161.717C346.543 161.71 347.835 162.305 347.835 163.426C347.835 164.554 346.543 165.142 344.349 165.135C342.168 165.142 340.89 164.554 340.89 163.426ZM342.147 163.426C342.147 163.959 342.913 164.232 344.349 164.232C345.791 164.232 346.563 163.959 346.563 163.426C346.563 162.92 345.791 162.619 344.349 162.619C342.913 162.619 342.147 162.92 342.147 163.426ZM359.853 152.912V157.656H361.821V158.723H359.853V165.189H358.554V152.912H359.853ZM350.829 162.141V154.088H356.558V155.141H352.128V161.061C354.186 161.054 355.724 160.965 357.474 160.65L357.638 161.744C355.717 162.086 354.09 162.147 351.813 162.141H350.829Z" fill="white"/>
<path d="M304.654 32V30.9062L308.086 27.4473C309.173 26.3193 309.713 25.6904 309.713 24.8223C309.713 23.8447 308.92 23.2227 307.881 23.2227C306.78 23.2227 306.083 23.9199 306.076 24.9727H304.654C304.641 23.1611 306.021 21.9648 307.908 21.9648C309.815 21.9648 311.135 23.1748 311.148 24.7812C311.135 25.8887 310.615 26.7705 308.756 28.5957L306.746 30.6328V30.7148H311.312V32H304.654ZM318.148 29.6211C318.148 28.5068 318.873 27.5566 320.158 27.5566C321.478 27.5566 322.168 28.5 322.168 29.6211V30.1406C322.168 31.2617 321.457 32.2119 320.158 32.2051C318.853 32.2119 318.148 31.2617 318.148 30.1406V29.6211ZM313.158 24.4805V23.9609C313.158 22.8398 313.896 21.8896 315.182 21.8965C316.494 21.8896 317.185 22.8398 317.178 23.9609V24.4805C317.185 25.5947 316.474 26.5381 315.182 26.5449C313.862 26.5381 313.158 25.5947 313.158 24.4805ZM313.637 32L320.445 22.1016H321.594L314.785 32H313.637ZM314.293 24.4805C314.3 25.0273 314.525 25.5674 315.182 25.5605C315.831 25.5674 316.05 25.0273 316.043 24.4805V23.9609C316.05 23.4072 315.845 22.8672 315.182 22.8672C314.539 22.8672 314.3 23.4072 314.293 23.9609V24.4805ZM319.283 30.1406C319.276 30.6943 319.502 31.2275 320.158 31.2344C320.808 31.2275 321.033 30.6943 321.033 30.1406V29.6211C321.033 29.0674 320.828 28.5342 320.158 28.5273C319.516 28.5342 319.276 29.0674 319.283 29.6211V30.1406Z" fill="white"/>
<path d="M305.509 42.1562V43.4688C305.509 45.0547 305.509 46.7705 305.058 49.3887L303.731 49.2656C304.224 46.8115 304.224 45.0137 304.224 43.4688V43.2227H297.005V42.1562H305.509ZM295.802 51.4258V50.3457H306.972V51.4258H295.802ZM318.114 40.9121V47.5977H316.815V44.2891H314.614V43.2363H316.815V40.9121H318.114ZM308.366 42.457V41.4727H313.876V44.5898H309.692V45.8613C311.709 45.8545 313.151 45.7998 314.833 45.4922L314.956 46.5176C313.124 46.8252 311.586 46.8799 309.351 46.8867H308.394V43.6602H312.591V42.457H308.366ZM309.733 49.252V48.2676H313.411V47.1738H314.71V48.2676H318.36V49.252H309.733ZM310.581 51.4258C310.581 50.3047 311.859 49.71 314.04 49.7168C316.234 49.71 317.526 50.3047 317.526 51.4258C317.526 52.5537 316.234 53.1416 314.04 53.1348C311.859 53.1416 310.581 52.5537 310.581 51.4258ZM311.839 51.4258C311.839 51.959 312.604 52.2324 314.04 52.2324C315.482 52.2324 316.255 51.959 316.255 51.4258C316.255 50.9199 315.482 50.6191 314.04 50.6191C312.604 50.6191 311.839 50.9199 311.839 51.4258ZM329.544 40.9121V45.6562H331.513V46.7227H329.544V53.1895H328.245V40.9121H329.544ZM320.521 50.1406V42.0879H326.249V43.1406H321.819V49.0605C323.877 49.0537 325.415 48.9648 327.165 48.6504L327.329 49.7441C325.408 50.0859 323.781 50.1475 321.505 50.1406H320.521Z" fill="white"/>
<path d="M257.457 221.639V233.821H255.225V230.797H253.062V229.022H255.225V227.422H253.062V225.612H255.225V221.639H257.457ZM244.01 225.084V223.309H247.455V221.604H249.688V223.309H252.904V225.084H244.01ZM244.801 228.793C244.783 226.948 246.374 225.647 248.545 225.647C250.742 225.647 252.324 226.948 252.342 228.793C252.324 230.639 250.742 231.922 248.545 231.922C246.374 231.922 244.783 230.639 244.801 228.793ZM246.805 237.336V232.784H249.072V235.543H257.791V237.336H246.805ZM246.893 228.793C246.884 229.716 247.569 230.217 248.545 230.217C249.512 230.217 250.224 229.716 250.232 228.793C250.224 227.897 249.512 227.396 248.545 227.387C247.569 227.396 246.884 227.897 246.893 228.793ZM265.736 225.981C265.728 228.565 267.063 231.333 269.744 232.45L268.531 234.208C266.65 233.408 265.35 231.817 264.629 229.883C263.908 231.984 262.581 233.742 260.691 234.612L259.408 232.836C262.062 231.65 263.434 228.688 263.434 225.981V224.997H260.041V223.168H269.076V224.997H265.736V225.981ZM270.658 237.618V221.622H272.926V237.618H270.658ZM293.879 233.891V235.754H279.236V233.891H293.879ZM280.379 224.821V223.028H292.648V224.821H290.398V229.672H292.578V231.43H280.449V229.672H282.594V224.821H280.379ZM284.844 229.672H288.184V224.821H284.844V229.672ZM309.436 233.997V235.842H294.793V233.997H300.963V231.588H296.48V226.209H305.533V224.452H296.463V222.659H307.748V227.967H298.73V229.76H308.117V231.588H303.195V233.997H309.436ZM323.146 223.098V225.014C323.138 227.211 323.138 229.382 322.566 232.696L320.299 232.502C320.905 229.426 320.905 227.141 320.914 225.014V224.891H311.861V223.098H323.146ZM310.35 235.526V233.68H324.939V235.526H310.35ZM339.652 221.639V231.061H337.525V227.194H336.137V230.938H334.045V221.92H336.137V225.401H337.525V221.639H339.652ZM326.539 224.311V222.571H332.639V227.334H328.719V228.776C330.468 228.767 331.777 228.688 333.289 228.407L333.482 230.165C331.61 230.49 330.037 230.516 327.664 230.516H326.557V225.665H330.477V224.311H326.539ZM328.736 237.442V231.711H339.652V237.442H328.736ZM330.969 235.649H337.438V233.487H330.969V235.649ZM353.768 222.94V230.622H346.086V222.94H353.768ZM347.932 237.336V232.151H350.164V235.543H358.883V237.336H347.932ZM348.301 228.864H351.553V224.733H348.301V228.864ZM356.053 233.293V221.622H358.303V226.227H360.465V228.073H358.303V233.293H356.053ZM374.439 222.202V223.977H370.062C370.405 225.146 372.066 226.271 375.143 226.561L374.334 228.319C371.328 228.011 369.298 226.869 368.445 225.304C367.602 226.869 365.606 228.011 362.609 228.319L361.818 226.561C364.851 226.271 366.494 225.137 366.846 223.977H362.504V222.202H374.439ZM361.168 231.202V229.409H367.338V227.317H369.553V229.409H375.758V231.202H361.168ZM362.785 234.137V232.344H373.982V237.618H371.75V234.137H362.785ZM389.768 228.776V230.551H385.127V233.961H391.367V235.79H376.725V233.961H382.895V230.551H378.447V222.747H389.645V224.54H380.697V228.776H389.768Z" fill="#111111"/>
<path d="M295.791 257.75V255.659L301.17 247.274H304.492V255.624H306.109V257.75H304.492V260H301.979V257.75H295.791ZM298.463 255.624H302.014V250.174H301.891L298.463 255.518V255.624ZM309.115 260.159C308.289 260.159 307.621 259.5 307.639 258.682C307.621 257.874 308.289 257.214 309.115 257.223C309.897 257.214 310.574 257.874 310.574 258.682C310.574 259.5 309.897 260.159 309.115 260.159ZM317.061 247.098C319.697 247.107 322.193 248.68 322.193 253.303C322.202 257.627 320.154 260.176 316.955 260.176C314.397 260.176 312.64 258.568 312.385 256.415H314.986C315.206 257.355 315.936 257.909 316.955 257.909C318.687 257.909 319.601 256.353 319.609 253.813H319.504C318.906 254.938 317.649 255.606 316.234 255.606C313.949 255.606 312.262 253.883 312.244 251.51C312.244 248.953 314.187 247.089 317.061 247.098ZM314.828 251.44C314.828 252.697 315.751 253.672 317.061 253.672C318.353 253.672 319.346 252.644 319.346 251.422C319.328 250.209 318.379 249.181 317.078 249.172C315.777 249.181 314.811 250.174 314.828 251.44Z" fill="#0E419C"/>
<path d="M328.979 246.676L324.883 261.917H323.213L327.309 246.676H328.979ZM334.674 260.176C332.266 260.176 330.455 258.708 330.367 256.678H332.248C332.354 257.759 333.391 258.55 334.674 258.559C336.221 258.55 337.328 257.434 337.328 255.922C337.328 254.375 336.186 253.25 334.586 253.233C333.566 253.233 332.784 253.576 332.354 254.358H330.525L331.352 247.274H338.559V248.926H332.951L332.529 252.495H332.652C333.18 251.985 334.076 251.642 335.043 251.633C337.442 251.642 339.209 253.417 339.209 255.87C339.209 258.375 337.328 260.176 334.674 260.176Z" fill="#111111"/>
</svg>
