<svg width="475" height="150" viewBox="0 0 475 150" fill="none" xmlns="http://www.w3.org/2000/svg">
<g clip-path="url(#clip0_1849_195146)">
<path d="M518.655 106.837L518.649 121.942L136.064 122.228C86.8032 122.265 46.7227 162.379 46.7026 211.664C46.6929 235.528 55.9715 257.966 72.8322 274.83C89.6929 291.693 112.123 300.969 135.976 300.951L477.194 300.686L477.188 315.792L135.97 316.057C108.091 316.078 81.8636 305.233 62.1522 285.519C42.4408 265.804 31.5928 239.568 31.6042 211.675C31.6276 154.059 78.4824 107.165 136.055 107.137L518.655 106.837Z" fill="url(#paint0_linear_1849_195146)"/>
<path d="M706.549 282.583L24.3418 282.174C-5.59066 282.157 -29.9382 257.814 -29.9554 227.887C-29.9638 213.396 -24.3269 199.763 -14.0807 189.518C-3.8345 179.274 9.80118 173.638 24.2945 173.646L624.012 173.992L624.02 189.093L24.2879 188.762C2.6853 188.75 -14.8643 206.296 -14.8519 227.895C-14.8394 249.494 2.73046 267.061 24.3331 267.073L706.555 267.467L706.549 282.583Z" fill="url(#paint1_linear_1849_195146)"/>
<path d="M318.168 243.399L303.064 243.39L302.821 -178.305C302.802 -210.428 276.654 -236.572 244.524 -236.591C212.395 -236.61 186.276 -210.496 186.295 -178.372L186.564 288.992L171.461 288.983L171.191 -178.381C171.168 -218.833 204.056 -251.715 244.516 -251.692C284.975 -251.669 317.901 -218.748 317.924 -178.296L318.168 243.399Z" fill="url(#paint2_linear_1849_195146)"/>
<path d="M453.205 397.009L438.101 397.001L437.953 139.249C437.926 93.916 401.016 57.0121 355.675 56.9859C310.334 56.9598 273.466 93.8212 273.492 139.154L273.641 396.906L258.537 396.897L258.388 139.146C258.357 85.4842 301.995 41.8541 355.666 41.8851C409.337 41.916 453.025 85.5964 453.056 139.258L453.205 397.009Z" fill="url(#paint3_linear_1849_195146)"/>
<path d="M212.17 42.8723C199.331 55.7082 182.233 62.7912 164.063 62.7655C126.533 62.7438 95.9883 32.2042 95.982 -5.30384L95.8818 -179.009L110.985 -179.001L111.085 -5.29514C111.102 23.8998 134.87 47.6631 164.07 47.6799C178.197 47.688 191.512 42.1892 201.499 32.204C211.502 22.2036 217.001 8.92107 216.978 -5.21883L216.878 -178.924L231.981 -178.916L232.082 -5.21011C232.092 12.9414 225.023 30.0211 212.17 42.8723Z" fill="url(#paint4_linear_1849_195146)"/>
</g>
<defs>
<linearGradient id="paint0_linear_1849_195146" x1="518.605" y1="211.299" x2="31.6175" y2="211.1" gradientUnits="userSpaceOnUse">
<stop offset="2.067e-05" stop-color="#FF3F4B"/>
<stop offset="0.293722" stop-color="#FF58D0"/>
<stop offset="0.653736" stop-color="#3D51FF"/>
<stop offset="0.9854" stop-color="#0009E8"/>
</linearGradient>
<linearGradient id="paint1_linear_1849_195146" x1="706.516" y1="228.313" x2="-29.9627" y2="228.738" gradientUnits="userSpaceOnUse">
<stop offset="2.067e-05" stop-color="#FF3824"/>
<stop offset="0.283722" stop-color="#FF4465"/>
<stop offset="0.648736" stop-color="#4C6FFF"/>
<stop offset="1" stop-color="#008DFF"/>
</linearGradient>
<linearGradient id="paint2_linear_1849_195146" x1="244.399" y1="-250.314" x2="243.918" y2="167.375" gradientUnits="userSpaceOnUse">
<stop offset="2.067e-05" stop-color="#FF3FA5"/>
<stop offset="0.0903" stop-color="#FF519A"/>
<stop offset="0.526" stop-color="#FFA369"/>
<stop offset="0.8346" stop-color="#FFD64B"/>
<stop offset="0.9854" stop-color="#FFEA3F"/>
</linearGradient>
<linearGradient id="paint3_linear_1849_195146" x1="355.889" y1="396.954" x2="356.094" y2="41.8812" gradientUnits="userSpaceOnUse">
<stop stop-color="#E14131"/>
<stop offset="0.333333" stop-color="#FC804B"/>
<stop offset="0.666667" stop-color="#9DD753"/>
<stop offset="1" stop-color="#53B055"/>
</linearGradient>
<linearGradient id="paint4_linear_1849_195146" x1="163.927" y1="-178.964" x2="163.788" y2="62.7758" gradientUnits="userSpaceOnUse">
<stop offset="2.067e-05" stop-color="#FF1290"/>
<stop offset="0.9854" stop-color="#001CAF"/>
</linearGradient>
<clipPath id="clip0_1849_195146">
<rect width="475" height="150" fill="white"/>
</clipPath>
</defs>
</svg>
