<svg width="475" height="150" viewBox="0 0 475 150" fill="none" xmlns="http://www.w3.org/2000/svg">
<g clip-path="url(#clip0_1849_195147)">
<path d="M213.044 -342.149L228.15 -342.144L228.466 40.4409C228.507 89.7014 268.624 129.779 317.909 129.795C341.774 129.803 364.211 120.522 381.073 103.66C397.935 86.7981 407.209 64.367 407.19 40.5146L406.897 -300.704L422.003 -300.699L422.296 40.5195C422.319 68.3982 411.476 94.6263 391.763 114.339C372.05 134.052 345.815 144.902 317.922 144.893C260.306 144.874 213.408 98.0234 213.376 40.4512L213.044 -342.149Z" fill="url(#paint0_linear_1849_195147)"/>
<path d="M688.55 322.583L6.34375 322.174C-23.5887 322.157 -47.9362 297.814 -47.9535 267.887C-47.9618 253.396 -42.3249 239.763 -32.0787 229.518C-21.8325 219.274 -8.19687 213.638 6.29642 213.646L606.013 213.992L606.022 229.093L6.28988 228.762C-15.3127 228.75 -32.8624 246.296 -32.8499 267.895C-32.8375 289.494 -15.2676 307.061 6.33504 307.073L688.557 307.467L688.55 322.583Z" fill="url(#paint1_linear_1849_195147)"/>
<path d="M300.168 283.399L285.064 283.39L284.821 -138.305C284.802 -170.428 258.654 -196.572 226.524 -196.591C194.395 -196.61 168.276 -170.496 168.295 -138.372L168.564 328.992L153.461 328.983L153.191 -138.381C153.168 -178.833 186.056 -211.715 226.516 -211.692C266.975 -211.669 299.901 -178.748 299.924 -138.296L300.168 283.399Z" fill="url(#paint2_linear_1849_195147)"/>
<path d="M395.205 437.009L380.101 437.001L379.953 179.249C379.926 133.916 343.016 97.0121 297.675 96.9859C252.334 96.9598 215.466 133.821 215.492 179.154L215.641 436.906L200.537 436.897L200.388 179.146C200.357 125.484 243.995 81.8541 297.666 81.8851C351.337 81.916 395.025 125.596 395.056 179.258L395.205 437.009Z" fill="url(#paint3_linear_1849_195147)"/>
<path d="M108.138 119.894C101.765 126.266 92.949 130.227 83.2308 130.206L-114.976 130.092L-114.981 121.458L83.2258 121.572C97.9022 121.581 109.841 109.644 109.832 94.9707C109.824 80.2969 97.8715 68.3466 83.1952 68.3382L-136.493 68.2115L-136.498 59.5781L83.1902 59.7047C102.626 59.7159 118.441 75.5275 118.452 94.9604C118.473 104.707 114.511 113.521 108.138 119.894Z" fill="url(#paint4_linear_1849_195147)"/>
<path d="M54.1696 152.872C41.3314 165.708 24.2334 172.791 6.06337 172.765C-31.4666 172.744 -62.0117 142.204 -62.018 104.696L-62.1182 -69.0094L-47.0147 -69.0007L-46.9145 104.705C-46.8977 133.9 -23.1302 157.663 6.06993 157.68C20.1971 157.688 33.5125 152.189 43.4994 142.204C53.5017 132.204 59.0014 118.921 58.978 104.781L58.8779 -68.9244L73.9814 -68.9157L74.0816 104.79C74.092 122.941 67.0231 140.021 54.1696 152.872Z" fill="url(#paint5_linear_1849_195147)"/>
</g>
<defs>
<linearGradient id="paint0_linear_1849_195147" x1="317.506" y1="-342.107" x2="317.347" y2="144.88" gradientUnits="userSpaceOnUse">
<stop offset="2.067e-05" stop-color="#FF3F4B"/>
<stop offset="0.293722" stop-color="#FF58D0"/>
<stop offset="1" stop-color="#3D51FF"/>
</linearGradient>
<linearGradient id="paint1_linear_1849_195147" x1="688.518" y1="268.313" x2="-47.9607" y2="268.738" gradientUnits="userSpaceOnUse">
<stop offset="2.067e-05" stop-color="#FF3824"/>
<stop offset="0.283722" stop-color="#FF4465"/>
<stop offset="0.648736" stop-color="#4C6FFF"/>
<stop offset="1" stop-color="#008DFF"/>
</linearGradient>
<linearGradient id="paint2_linear_1849_195147" x1="226.399" y1="-210.314" x2="225.918" y2="207.375" gradientUnits="userSpaceOnUse">
<stop offset="2.067e-05" stop-color="#FF3FA5"/>
<stop offset="0.0903" stop-color="#FF519A"/>
<stop offset="0.526" stop-color="#FFA369"/>
<stop offset="0.8346" stop-color="#FFD64B"/>
<stop offset="0.9854" stop-color="#FFEA3F"/>
</linearGradient>
<linearGradient id="paint3_linear_1849_195147" x1="297.889" y1="436.954" x2="298.094" y2="81.8812" gradientUnits="userSpaceOnUse">
<stop stop-color="#E14131"/>
<stop offset="0.333333" stop-color="#FC804B"/>
<stop offset="0.666667" stop-color="#9DD753"/>
<stop offset="1" stop-color="#53B055"/>
</linearGradient>
<linearGradient id="paint4_linear_1849_195147" x1="-136.478" y1="94.84" x2="118.456" y2="94.693" gradientUnits="userSpaceOnUse">
<stop offset="2.067e-05" stop-color="#E14131"/>
<stop offset="0.9854" stop-color="#FFEA3F"/>
</linearGradient>
<linearGradient id="paint5_linear_1849_195147" x1="5.92692" y1="-68.9641" x2="5.78756" y2="172.776" gradientUnits="userSpaceOnUse">
<stop offset="2.067e-05" stop-color="#FF1290"/>
<stop offset="0.9854" stop-color="#001CAF"/>
</linearGradient>
<clipPath id="clip0_1849_195147">
<rect width="475" height="150" fill="white"/>
</clipPath>
</defs>
</svg>
