<svg width="475" height="150" viewBox="0 0 475 150" fill="none" xmlns="http://www.w3.org/2000/svg">
<g clip-path="url(#clip0_1849_195144)">
<path d="M82.8405 294.415C71.817 294.415 60.7935 290.217 52.3889 281.802C44.2582 273.662 39.7734 262.832 39.7734 251.316C39.7734 239.799 44.2582 228.986 52.3889 220.829L388.829 -115.982L397.302 -107.5L60.8619 229.329C48.7429 241.462 48.7429 261.186 60.8619 273.32C72.981 285.453 92.7001 285.453 104.802 273.32L487.527 -109.83L496 -101.347L113.275 281.802C104.888 290.217 93.864 294.415 82.8405 294.415Z" fill="url(#paint0_linear_1849_195144)"/>
<path d="M205.727 419.589L197.254 411.106L433.866 174.221C451.89 156.176 451.89 126.82 433.866 108.775C415.841 90.7293 386.519 90.7293 368.495 108.775L106.258 371.314L97.7852 362.831L360.022 100.292C382.719 77.5681 419.641 77.5681 442.339 100.292C465.036 123.016 465.036 159.98 442.339 182.704L205.727 419.589Z" fill="url(#paint1_linear_1849_195144)"/>
<path d="M61.5757 369.915L53.1027 361.432L267.805 146.482C295.449 118.806 295.449 73.7866 267.805 46.1103C254.419 32.7091 236.617 25.3231 217.685 25.3231C198.754 25.3231 180.952 32.7091 167.566 46.1103L-23.9156 237.825L-32.3887 229.342L159.093 37.6274C174.738 21.9642 195.553 13.3271 217.685 13.3271C239.818 13.3271 260.633 21.9642 276.278 37.6274C308.595 69.9822 308.595 122.61 276.278 154.948L61.5757 369.915Z" fill="url(#paint2_linear_1849_195144)"/>
<path d="M132.328 98.8478C125.173 98.8478 118 96.123 112.557 90.6563L1.36328 -20.6658L6.20747 -25.5156L117.401 85.8065C125.635 94.0495 139.038 94.0495 147.271 85.8065C155.504 77.5636 155.504 64.1453 147.271 55.9024L24.0266 -67.4842L28.8708 -72.334L152.115 51.0527C163.019 61.9689 163.019 79.7229 152.115 90.6392C146.655 96.123 139.483 98.8478 132.328 98.8478Z" fill="url(#paint3_linear_1849_195144)"/>
<path d="M53.7122 65.844C39.2995 65.844 25.7255 60.2231 15.5407 50.0094C-5.51356 28.9309 -5.51356 -5.36034 15.5407 -26.4218L113.006 -124L121.48 -115.517L24.0138 -17.9389C7.63252 -1.53878 7.63252 25.1436 24.0138 41.5437C31.9391 49.4781 42.5004 53.8652 53.7122 53.8652C64.9412 53.8652 75.4854 49.4953 83.4107 41.5437L180.876 -56.0345L189.35 -47.5517L91.8838 50.0266C81.699 60.2231 68.1421 65.844 53.7122 65.844Z" fill="url(#paint4_linear_1849_195144)"/>
</g>
<defs>
<linearGradient id="paint0_linear_1849_195144" x1="465.553" y1="-131.829" x2="51.9137" y2="281.334" gradientUnits="userSpaceOnUse">
<stop offset="2.067e-05" stop-color="#53B055"/>
<stop offset="0.338724" stop-color="#BAE958"/>
<stop offset="0.678737" stop-color="#FFC95F"/>
<stop offset="0.9854" stop-color="#F79433"/>
</linearGradient>
<linearGradient id="paint1_linear_1849_195144" x1="441.5" y1="101" x2="206.73" y2="335.229" gradientUnits="userSpaceOnUse">
<stop offset="2.067e-05" stop-color="#FF3FA5"/>
<stop offset="0.0903" stop-color="#FF519A"/>
<stop offset="0.526" stop-color="#FFA369"/>
<stop offset="0.8346" stop-color="#FFD64B"/>
<stop offset="0.9854" stop-color="#FFEA3F"/>
</linearGradient>
<linearGradient id="paint2_linear_1849_195144" x1="2.98629" y1="311.249" x2="276.593" y2="37.9577" gradientUnits="userSpaceOnUse">
<stop offset="2.067e-05" stop-color="#FF3F4B"/>
<stop offset="0.293722" stop-color="#FF58D0"/>
<stop offset="0.653736" stop-color="#3D51FF"/>
<stop offset="0.9854" stop-color="#0009E8"/>
</linearGradient>
<linearGradient id="paint3_linear_1849_195144" x1="9.08487" y1="-52.5263" x2="152.267" y2="90.491" gradientUnits="userSpaceOnUse">
<stop offset="2.067e-05" stop-color="#E14131"/>
<stop offset="0.9854" stop-color="#FFEA3F"/>
</linearGradient>
<linearGradient id="paint4_linear_1849_195144" x1="151.176" y1="-85.7793" x2="15.3801" y2="49.8604" gradientUnits="userSpaceOnUse">
<stop offset="2.067e-05" stop-color="#FF1290"/>
<stop offset="0.9854" stop-color="#001CAF"/>
</linearGradient>
<clipPath id="clip0_1849_195144">
<rect width="475" height="150" fill="white"/>
</clipPath>
</defs>
</svg>
