<svg width="83" height="96" viewBox="0 0 83 96" fill="none" xmlns="http://www.w3.org/2000/svg">
<g clip-path="url(#clip0_700_40171)">
<path d="M65.9585 36.3987C64.84 36.3987 63.8947 37.3301 63.8947 38.4168C63.8947 50.37 53.8591 60.1499 41.5863 60.1499C40.4677 60.1499 39.5225 61.0813 39.5225 62.1679C39.5225 63.2546 40.4835 64.186 41.5863 64.186C56.0962 64.186 68.0381 52.6985 68.0381 38.4168C68.0381 37.1749 67.0771 36.3987 65.9585 36.3987Z" fill="#92B1E7"/>
<path d="M43.6504 14.5103C43.6504 13.4236 42.6894 12.4922 41.5866 12.4922C27.0767 12.4922 15.1348 23.9797 15.1348 38.2615C15.1348 39.3481 16.0958 40.2795 17.1986 40.2795C18.3014 40.2795 19.2782 39.3481 19.2782 38.2615C19.2782 26.3082 29.3138 16.5283 41.5866 16.5283C42.7052 16.5283 43.6504 15.5969 43.6504 14.5103Z" fill="#92B1E7"/>
<path d="M53.6858 50.2146V44.3156C53.6858 39.8138 51.1336 35.9329 47.3053 33.9148C48.7389 32.5177 49.5424 30.6548 49.5424 28.4815C49.5424 24.1349 45.8716 20.5645 41.4131 20.5645C36.9545 20.5645 33.2837 24.1349 33.2837 28.4815C33.2837 30.6548 34.0872 32.5177 35.5209 33.9148C31.6925 35.9329 29.2979 39.8138 29.2979 44.3156V50.2146C29.2979 51.3013 30.2589 52.2327 31.3774 52.2327H51.622C52.8981 52.0775 53.6858 51.3013 53.6858 50.2146ZM37.6005 28.4815C37.6005 26.3082 39.3492 24.6006 41.5864 24.6006C43.8235 24.6006 45.5723 26.3082 45.5723 28.4815C45.5723 30.6548 43.8235 32.3624 41.5864 32.3624C39.3492 32.3624 37.6005 30.6548 37.6005 28.4815ZM49.6999 48.1966H33.4413V44.3156C33.4413 39.969 37.1121 36.3986 41.5706 36.3986C46.0291 36.3986 49.6999 39.969 49.6999 44.3156V48.1966Z" fill="#92B1E7"/>
<path d="M41.5866 0.694092C20.2235 0.694092 3.01953 17.6149 3.01953 38.2613C3.01953 55.4926 15.1348 70.2401 31.3934 74.5867V81.8828C31.3934 82.9695 32.3544 83.9009 33.4573 83.9009H35.5211V93.836C35.5211 94.9227 36.4821 95.8541 37.6007 95.8541C38.7193 95.8541 39.6645 94.9227 39.6645 93.836V83.9009H43.6504V93.836C43.6504 94.9227 44.6115 95.8541 45.7143 95.8541C46.8171 95.8541 47.7939 94.9227 47.7939 93.836V83.9009H49.8577C50.9763 83.9009 51.9215 82.9695 51.9215 81.8828V74.5867C68.3378 70.2401 80.2954 55.6478 80.2954 38.2613C80.1379 17.6149 62.9182 0.694092 41.5708 0.694092L41.5866 0.694092ZM47.6363 79.8647H35.5211V75.3629C39.507 75.9838 43.6504 75.9838 47.6363 75.3629V79.8647ZM41.5866 71.9477C22.6181 71.9477 7.00542 56.8897 7.00542 38.2613C7.00542 19.633 22.4606 4.57501 41.5866 4.57501C60.7126 4.57501 76.1677 19.633 76.1677 38.2613C76.1677 56.8897 60.555 71.9477 41.5866 71.9477Z" fill="#92B1E7"/>
<path d="M4.92583 75.8286H0.939941V79.7095H4.92583V75.8286Z" fill="#92B1E7"/>
<path d="M13.0547 75.8286H9.06885V79.7095H13.0547V75.8286Z" fill="#92B1E7"/>
<path d="M21.1846 75.8286H17.1987V79.7095H21.1846V75.8286Z" fill="#92B1E7"/>
<path d="M65.8018 75.8286H61.8159V79.7095H65.8018V75.8286Z" fill="#92B1E7"/>
<path d="M73.9307 75.8286H69.9448V79.7095H73.9307V75.8286Z" fill="#92B1E7"/>
<path d="M82.0601 75.8286H78.0742V79.7095H82.0601V75.8286Z" fill="#92B1E7"/>
</g>
<defs>
<clipPath id="clip0_700_40171">
<rect width="81.12" height="95.16" fill="white" transform="translate(0.939941 0.694092)"/>
</clipPath>
</defs>
</svg>
