<svg width="266" height="224" viewBox="0 0 266 224" fill="none" xmlns="http://www.w3.org/2000/svg">
<g clip-path="url(#clip0_2200_251390)">
<path d="M143.542 126.136C143.069 125.9 142.148 125.118 140.919 123.891C140.919 123.891 140.915 123.887 140.911 123.883C139.525 122.5 137.747 120.556 135.785 118.207C138.692 116.411 147.142 111.076 152.876 106.298C152.884 106.29 152.892 106.282 152.9 106.274C152.928 106.25 152.952 106.222 152.98 106.194C153 106.17 153.02 106.15 153.04 106.126C153.06 106.098 153.08 106.07 153.097 106.037C153.113 106.009 153.129 105.985 153.145 105.957C153.161 105.925 153.169 105.893 153.181 105.861C153.193 105.829 153.205 105.801 153.213 105.769C153.221 105.737 153.225 105.705 153.229 105.673C153.233 105.637 153.241 105.605 153.245 105.568C153.245 105.56 153.245 105.552 153.245 105.54L153.397 101.412C155.715 103.103 159.155 105.913 160.028 107.913C159.912 108.31 159.015 110.403 152.26 117.61C148.187 121.955 144.547 125.395 143.534 126.136H143.542Z" fill="white"/>
<path d="M245.493 200.943C244.54 200.306 243.459 198.794 243.338 196.983C243.266 195.9 243.527 194.305 245.172 192.858C245.285 192.758 245.373 192.637 245.429 192.509C245.493 192.525 245.561 192.533 245.625 192.533C245.689 192.533 252.044 192.689 257.815 192.722H257.823C258.391 192.722 258.852 192.261 258.856 191.691C258.856 191.118 258.399 190.653 257.827 190.649C252.669 190.617 247.043 190.493 245.889 190.465C242.778 188.998 242.241 186.645 242.349 184.917C242.485 182.644 243.851 180.548 245.016 180.115C246.162 180.035 253.99 179.521 259.016 180.311C259.072 180.319 259.124 180.323 259.176 180.323C259.677 180.323 260.117 179.958 260.197 179.449C260.285 178.884 259.901 178.355 259.336 178.267C254.403 177.489 247.207 177.89 245.225 178.026C244.155 176.76 240.94 172.298 244.764 168.358C244.9 168.234 246.474 167.167 258.443 168.406L258.548 168.418C259.112 168.478 259.625 168.065 259.681 167.496C259.741 166.927 259.324 166.418 258.76 166.362L258.656 166.349C253.001 165.764 249.457 165.656 247.195 165.8C247.167 165.784 247.135 165.768 247.103 165.752C245.397 164.979 244.223 163.315 244.179 161.611C244.147 160.353 244.516 159.415 245.305 158.753C247.115 157.23 251.275 157.018 257.026 158.164C260.722 158.898 262.344 161.471 263.233 167.997C264.326 176.014 264.895 193.078 259.224 200.306C257.09 203.023 246.966 201.925 245.497 200.943H245.493Z" fill="white"/>
<path d="M154.114 82.3312C154.282 82.3432 154.45 82.3472 154.618 82.3472C154.831 82.3472 155.043 82.3392 155.251 82.3232C159.844 81.9784 163.3 77.9539 162.956 73.3561C162.611 68.7583 158.587 65.303 153.998 65.6437C153.081 65.7119 152.184 65.9363 151.343 66.2931L150.822 64.0163C150.706 63.5072 150.225 63.1664 149.713 63.2186C149.657 63.2226 144.006 63.7397 137.891 61.8637C129.834 59.3904 124.793 54.1152 122.899 46.1904C122.83 45.9098 122.65 45.6693 122.402 45.529C122.15 45.3887 121.853 45.3566 121.581 45.4448C121.229 45.557 114.201 47.882 110.192 55.0492C109.844 48.2548 111.414 43.1359 114.882 39.8128C121.237 33.7159 132.021 35.6159 132.129 35.64C132.285 35.668 132.445 35.66 132.601 35.6159C137.271 34.2891 142.501 34.249 148.139 35.4997C148.247 35.5237 148.355 35.5277 148.463 35.5197C148.507 35.5157 152.852 35.1188 157.758 36.6942C164.229 38.7746 168.59 43.1519 170.72 49.7018C170.793 49.9223 170.937 50.1147 171.133 50.243C171.157 50.259 173.736 52.0308 175.298 55.8268C177.376 60.8776 176.719 67.2511 173.404 74.258C173.339 74.3983 173.303 74.5466 173.303 74.703C173.303 74.7511 173.263 79.4971 170.708 84.7042C167.413 91.4185 161.638 95.7878 153.545 97.7038L154.114 82.3352V82.3312Z" fill="black"/>
<path d="M139.429 133.359C139.978 132.105 140.534 129.211 140.935 126.753C142.317 127.96 143.073 128.281 143.61 128.281C143.806 128.281 143.97 128.237 144.127 128.18C145.949 127.507 159.94 113.181 161.818 109.024C161.847 108.96 161.879 108.891 161.907 108.819L173.52 110.182C195.236 112.728 215.475 122.661 230.78 138.23H140.09C139.762 135.785 139.525 134.045 139.433 133.363L139.429 133.359Z" fill="white"/>
<path d="M139.117 125.01C138.64 128.124 137.963 131.612 137.583 132.462C136.402 132.911 130.715 132.802 129.045 132.602C128.569 131.676 128.104 127.86 127.972 123.799C128.389 123.519 128.829 123.218 129.302 122.889C131.2 121.566 133.058 120.163 134.075 119.382C134.848 120.304 136.225 121.919 137.675 123.491C138.2 124.06 138.68 124.565 139.117 125.014V125.01Z" fill="black"/>
<path d="M75.0888 179.088V149.642C75.0888 149.069 74.6243 148.608 74.0556 148.608C73.487 148.608 73.0225 149.073 73.0225 149.642V178.547L55.2745 190.645C46.7689 196.441 36.233 198.077 26.3738 195.13C8.95821 189.923 -1.28134 172.001 3.06757 154.336L17.8763 94.1719L56.5759 101.195L52.5914 129.768C52.5434 129.904 52.5233 130.048 52.5314 130.192L49.1195 154.644C49.0394 155.21 49.4359 155.735 50.0005 155.815C50.5691 155.891 51.0897 155.498 51.1698 154.933L54.5657 130.597C69.3663 116.471 88.7522 108.378 109.207 107.793L113.921 107.657C113.788 110.234 115.422 114.114 116.792 117.048C118.686 121.097 121.033 125.098 121.629 125.839C121.902 126.18 122.254 126.356 122.735 126.356C123.455 126.356 124.477 125.951 125.958 125.078C126.006 126.012 126.082 127.206 126.194 128.417C126.487 131.491 126.867 133.199 127.504 134.017C126.062 143.376 120.088 182.451 120.444 184.58C120.712 186.195 128.405 197.728 130.784 200.851C130.828 200.907 130.876 200.955 130.928 201.003V222.966C130.928 223.539 131.392 224 131.961 224H75.0888V179.092V179.088Z" fill="white"/>
<path d="M121.189 47.8257C123.459 55.7946 129.026 61.3264 137.351 63.8638C142.429 65.4111 147.086 65.4231 149.004 65.3389L149.629 68.0687C149.637 68.1008 149.649 68.1288 149.657 68.1569C149.665 68.181 149.669 68.205 149.681 68.2251C149.705 68.2852 149.737 68.3453 149.769 68.3974C149.769 68.4014 149.777 68.4054 149.781 68.4094C149.813 68.4576 149.849 68.5016 149.889 68.5457C149.905 68.5618 149.921 68.5778 149.941 68.5938C149.969 68.6219 150.001 68.6459 150.033 68.67C150.053 68.686 150.073 68.6981 150.097 68.7101C150.13 68.7301 150.166 68.7502 150.198 68.7662C150.218 68.7782 150.242 68.7862 150.262 68.7943C150.302 68.8103 150.342 68.8223 150.382 68.8303C150.402 68.8344 150.422 68.8424 150.438 68.8464C150.486 68.8544 150.534 68.8624 150.586 68.8624C150.598 68.8624 150.614 68.8624 150.626 68.8624H150.634C150.69 68.8624 150.742 68.8584 150.798 68.8464C150.81 68.8464 150.822 68.8464 150.834 68.8384C150.846 68.8384 150.854 68.8384 150.866 68.8344C150.914 68.8223 150.958 68.8103 151.002 68.7943C151.011 68.7943 151.019 68.7862 151.027 68.7822C151.083 68.7582 151.139 68.7301 151.191 68.6981C151.191 68.6981 151.199 68.6981 151.199 68.694C152.076 68.1208 153.101 67.7761 154.154 67.6959C157.61 67.4394 160.633 70.0369 160.894 73.4963C161.154 76.9556 158.555 79.982 155.099 80.2426C154.506 80.2867 153.914 80.2506 153.337 80.1263C153.329 80.1263 153.317 80.1263 153.309 80.1223C153.289 80.1223 153.273 80.1143 153.253 80.1143C153.229 80.1143 153.209 80.1103 153.185 80.1103C153.177 80.1103 153.169 80.1103 153.161 80.1103H153.153C153.125 80.1103 153.101 80.1103 153.073 80.1103C153.065 80.1103 153.057 80.1103 153.049 80.1103C153.021 80.1103 152.997 80.1143 152.969 80.1183C152.961 80.1183 152.953 80.1183 152.945 80.1183C152.921 80.1223 152.897 80.1263 152.873 80.1344C152.861 80.1344 152.853 80.1384 152.841 80.1424C152.821 80.1464 152.801 80.1544 152.781 80.1624C152.768 80.1664 152.752 80.1704 152.74 80.1744C152.724 80.1825 152.708 80.1865 152.692 80.1945C152.676 80.2025 152.664 80.2065 152.648 80.2145C152.636 80.2225 152.62 80.2306 152.608 80.2386C152.592 80.2466 152.576 80.2546 152.56 80.2666C152.548 80.2747 152.536 80.2827 152.524 80.2907C152.508 80.3027 152.492 80.3107 152.48 80.3228C152.468 80.3308 152.456 80.3428 152.448 80.3508C152.436 80.3628 152.42 80.3749 152.408 80.3869C152.396 80.3989 152.388 80.4069 152.376 80.419C152.364 80.431 152.352 80.447 152.34 80.4591C152.332 80.4711 152.32 80.4831 152.312 80.4951C152.3 80.5112 152.288 80.5232 152.28 80.5392C152.272 80.5512 152.264 80.5633 152.256 80.5753C152.244 80.5913 152.236 80.6074 152.224 80.6234C152.216 80.6354 152.212 80.6475 152.204 80.6595C152.196 80.6795 152.184 80.6956 152.176 80.7156C152.172 80.7276 152.168 80.7397 152.164 80.7477C152.156 80.7677 152.148 80.7878 152.14 80.8118C152.14 80.8238 152.132 80.8359 152.128 80.8479C152.12 80.8679 152.116 80.892 152.112 80.912C152.112 80.916 152.112 80.92 152.112 80.924C152.112 80.9321 152.112 80.9441 152.108 80.9521C152.108 80.9721 152.1 80.9922 152.1 81.0122C152.1 81.0323 152.1 81.0483 152.096 81.0683C152.096 81.0804 152.096 81.0884 152.096 81.1004L151.211 104.979C145.32 109.817 136.762 115.165 134.356 116.644C132.458 114.924 126.283 109.152 123.728 104.727V98.5174C126.335 99.4634 129.314 100.241 132.73 100.878C132.794 100.89 132.858 100.894 132.922 100.894C133.411 100.894 133.843 100.546 133.939 100.049C134.043 99.4875 133.675 98.9463 133.114 98.8421C123.56 97.0543 117.645 94.1962 113.945 89.5824C109.48 84.0186 108.098 75.4604 109.72 63.4229C109.872 62.2924 110.084 61.158 110.353 60.0517C112.539 52.3593 118.746 48.9 121.201 47.8057L121.189 47.8257ZM151.119 74.6347C151.299 75.0035 151.667 75.2159 152.048 75.2159C152.2 75.2159 152.356 75.1838 152.5 75.1117C154.551 74.1056 156.829 74.1737 156.853 74.1737C157.418 74.1937 157.902 73.7488 157.926 73.1796C157.946 72.6104 157.506 72.1294 156.933 72.1053C156.821 72.1053 154.122 72.0091 151.591 73.2517C151.079 73.5043 150.866 74.1256 151.119 74.6387V74.6347ZM134.188 71.7966C135.485 71.9169 136.634 70.9629 136.754 69.6641C136.875 68.3654 135.921 67.2149 134.624 67.0947C133.327 66.9744 132.177 67.9284 132.057 69.2272C131.937 70.5259 132.89 71.6764 134.188 71.7966ZM122.875 80.2266C124.112 80.7557 125.265 80.9521 126.291 80.9521C129.114 80.9521 130.98 79.473 131.084 79.3888C131.529 79.028 131.597 78.3746 131.236 77.9337C130.876 77.4887 130.227 77.4206 129.787 77.7774C129.67 77.8695 127.152 79.8057 123.688 78.3265C123.163 78.102 122.554 78.3466 122.33 78.8717C122.106 79.3968 122.35 80.0061 122.875 80.2306V80.2266ZM121.685 74.8191C122.014 75.2841 122.663 75.3963 123.127 75.0676C124.036 74.4222 124.801 75.0836 125.013 75.3001C125.217 75.5166 125.49 75.6248 125.762 75.6248C126.014 75.6248 126.271 75.5326 126.471 75.3442C126.887 74.9554 126.907 74.294 126.515 73.8771C125.786 73.0954 123.888 71.9891 121.93 73.376C121.465 73.7047 121.353 74.3541 121.681 74.8191H121.685ZM117.377 71.0471C118.674 71.1673 119.823 70.2133 119.943 68.9145C120.064 67.6158 119.111 66.4653 117.813 66.3451C116.516 66.2248 115.366 67.1788 115.246 68.4776C115.126 69.7764 116.079 70.9268 117.377 71.0471Z" fill="white"/>
<path d="M218.082 166.847C218.43 166.726 218.691 166.434 218.763 166.073C218.835 165.712 218.711 165.339 218.438 165.095C217.994 164.698 217.746 164.153 217.746 163.564C217.746 162.429 218.667 161.507 219.796 161.507C220.925 161.507 221.846 162.429 221.846 163.564C221.846 164.153 221.602 164.698 221.153 165.095C220.877 165.339 220.753 165.712 220.829 166.073C220.905 166.434 221.161 166.73 221.51 166.847C223.668 167.58 225.118 169.609 225.118 171.893C225.118 172.491 225.022 173.072 224.83 173.621C224.83 173.621 224.822 173.625 224.818 173.629C224.786 173.649 224.758 173.665 224.725 173.681C224.657 173.721 224.589 173.761 224.521 173.797C224.481 173.817 224.441 173.838 224.405 173.862C224.345 173.894 224.281 173.926 224.221 173.958C224.177 173.978 224.133 174.002 224.093 174.022C224.033 174.05 223.977 174.078 223.917 174.106C223.873 174.126 223.824 174.146 223.78 174.166C223.724 174.19 223.664 174.218 223.608 174.242C223.56 174.262 223.512 174.282 223.464 174.303C223.408 174.327 223.348 174.351 223.292 174.371C223.244 174.391 223.196 174.407 223.144 174.427C223.088 174.447 223.028 174.467 222.971 174.487C222.923 174.503 222.871 174.519 222.823 174.535C222.767 174.555 222.707 174.571 222.647 174.591C222.595 174.607 222.547 174.623 222.495 174.635C222.435 174.651 222.379 174.667 222.319 174.683C222.267 174.695 222.215 174.711 222.167 174.723C222.107 174.739 222.046 174.751 221.99 174.767C221.938 174.78 221.886 174.792 221.838 174.804C221.778 174.816 221.718 174.828 221.658 174.84C221.606 174.848 221.554 174.86 221.506 174.868C221.446 174.88 221.382 174.888 221.322 174.9C221.27 174.908 221.222 174.916 221.169 174.924C221.105 174.932 221.041 174.94 220.977 174.948C220.929 174.952 220.881 174.96 220.829 174.964C220.761 174.972 220.693 174.976 220.625 174.984C220.581 174.984 220.533 174.992 220.489 174.996C220.413 175 220.337 175.004 220.26 175.008C220.224 175.008 220.184 175.012 220.148 175.012C220.032 175.012 219.92 175.02 219.804 175.02C219.688 175.02 219.576 175.02 219.46 175.012C219.419 175.012 219.379 175.008 219.343 175.008C219.267 175.008 219.191 175 219.119 174.996C219.071 174.996 219.027 174.988 218.979 174.984C218.911 174.98 218.843 174.972 218.775 174.964C218.727 174.96 218.675 174.952 218.627 174.948C218.563 174.94 218.498 174.932 218.434 174.924C218.382 174.916 218.334 174.908 218.282 174.9C218.222 174.892 218.158 174.88 218.098 174.868C218.046 174.86 217.994 174.848 217.946 174.84C217.886 174.828 217.826 174.816 217.766 174.804C217.714 174.792 217.662 174.78 217.609 174.767C217.549 174.755 217.489 174.739 217.433 174.723C217.381 174.711 217.329 174.695 217.277 174.683C217.217 174.667 217.161 174.651 217.101 174.635C217.049 174.619 216.997 174.607 216.949 174.591C216.893 174.575 216.833 174.555 216.777 174.535C216.724 174.519 216.676 174.503 216.624 174.483C216.568 174.463 216.512 174.443 216.456 174.423C216.404 174.403 216.356 174.387 216.304 174.367C216.248 174.347 216.192 174.323 216.136 174.299C216.088 174.278 216.04 174.258 215.988 174.238C215.932 174.214 215.875 174.19 215.819 174.162C215.771 174.142 215.723 174.118 215.675 174.098C215.619 174.07 215.563 174.042 215.507 174.018C215.463 173.994 215.415 173.974 215.371 173.95C215.311 173.922 215.255 173.89 215.195 173.858C215.155 173.834 215.111 173.813 215.071 173.789C215.007 173.753 214.942 173.717 214.878 173.677C214.846 173.657 214.81 173.637 214.774 173.617C214.774 173.617 214.766 173.613 214.762 173.609C214.574 173.056 214.478 172.475 214.478 171.881C214.478 169.597 215.928 167.568 218.09 166.835L218.082 166.847Z" fill="white"/>
<path d="M23.0138 77.9456C25.1643 77.6811 26.5378 76.7671 27.2987 76.0656C28.8404 77.176 30.4062 77.6169 31.9639 77.3845C33.774 77.1119 35.1115 75.9694 35.8844 75.1196C36.7053 75.7129 37.7705 76.1418 38.9038 76.3583C36.7814 78.4227 34.6269 81.6896 34.4307 86.5359C34.4067 87.1091 34.8512 87.5901 35.4239 87.6142C35.4399 87.6142 35.4519 87.6142 35.4679 87.6142C36.0205 87.6142 36.477 87.1773 36.5011 86.6201C36.8334 78.4186 43.6651 75.4523 43.9535 75.3281C44.1016 75.2639 44.2298 75.1718 44.3299 75.0555C45.8396 75.8933 47.1891 76.2941 47.3133 76.3302C47.8619 76.4865 48.4345 76.1699 48.5947 75.6207C48.7509 75.0715 48.4345 74.4983 47.8859 74.338C46.4082 73.9091 42.4758 72.2135 42.0754 69.5438C41.751 67.3912 42.4998 65.9 44.3619 64.9941C47.1491 63.6352 51.9104 63.9439 55.5906 65.3589C55.6907 65.4311 55.8028 65.4912 55.927 65.5232C55.975 65.5353 56.0271 65.5473 56.0751 65.5513C57.4807 66.1446 58.7021 66.9022 59.543 67.7961C64.5367 73.0753 57.701 91.6989 54.6455 98.4252C54.6015 98.5214 54.5734 98.6216 54.5614 98.7178L20.3428 92.5086C20.1907 91.2339 19.3858 84.1468 19.1775 77.3965C19.9264 77.7733 20.8514 78.0098 21.9687 78.0098C22.305 78.0098 22.6534 77.9897 23.0259 77.9416L23.0138 77.9456Z" fill="white"/>
<path d="M23.2221 65.0702C23.2501 65.0702 23.2822 65.0622 23.3102 65.0542C24.3154 64.8497 25.0842 65.1384 25.4606 65.3548C25.1563 67.8201 25.753 72.3417 26.0894 74.366C25.6729 74.8069 24.6477 75.6567 22.7656 75.8892C21.5042 76.0455 19.8423 75.8211 19.1255 74.7187C19.1175 72.2374 19.2176 69.9245 19.4939 68.1127C19.7342 66.5454 21.2679 65.2947 23.2261 65.0702H23.2221Z" fill="white"/>
<path d="M223.452 165.46C223.756 164.879 223.917 164.229 223.917 163.56C223.917 161.283 222.066 159.431 219.796 159.431C217.525 159.431 215.675 161.283 215.675 163.56C215.675 164.225 215.839 164.879 216.14 165.46C213.929 166.714 212.496 169.047 212.408 171.645C210.886 169.889 210.021 167.636 210.021 165.243C210.021 159.848 214.406 155.458 219.796 155.458C225.186 155.458 229.567 159.848 229.567 165.243C229.567 167.636 228.702 169.889 227.18 171.645C227.092 169.047 225.658 166.718 223.452 165.46Z" fill="white"/>
<path d="M40.0252 69.8527C40.2735 71.4921 41.2586 72.7829 42.4319 73.765C42.1476 73.9173 41.7952 74.1177 41.3987 74.3703C39.897 74.5987 37.7666 74.1698 36.7575 73.1557C36.6894 72.4983 36.5933 71.6966 36.4852 70.7866C36.2369 68.7062 35.9326 66.1608 35.8605 64.4452C37.1539 63.3068 38.8559 62.6574 40.3015 62.7656C41.3827 62.8458 42.1196 63.2787 42.5601 63.6354C40.5178 65.0024 39.6207 67.175 40.0212 69.8487L40.0252 69.8527Z" fill="white"/>
<path d="M31.6439 75.3361C30.5346 75.5005 29.3533 75.0836 28.1399 74.1015C27.6834 71.4158 27.2589 67.247 27.5312 65.4672C28.8567 63.7756 30.6267 63.3266 31.768 63.4669C32.7571 63.5912 33.4619 64.1323 33.7903 64.441C33.8584 66.2488 34.1747 68.8864 34.431 71.039C34.5311 71.8768 34.6272 72.6745 34.6953 73.3158C34.2748 73.869 33.1696 75.1157 31.6439 75.3401V75.3361Z" fill="white"/>
<path d="M55.1661 19.5217L59.0585 14.7476L61.6094 20.3555C61.7215 20.6 61.9257 20.7924 62.178 20.8926L67.9165 23.1214L63.3794 27.2822C63.1792 27.4666 63.059 27.7191 63.047 27.9877L62.7026 34.1408L57.3446 31.1063C57.1083 30.974 56.832 30.938 56.5717 31.0061L50.621 32.5774L51.8504 26.5406C51.9024 26.2761 51.8504 25.9995 51.7062 25.775L48.3745 20.596L54.4894 19.8985C54.7577 19.8664 55.0019 19.7342 55.1741 19.5257L55.1661 19.5217Z" fill="#6099FF"/>
<path d="M121.381 103.067C121.081 103.356 120.968 103.808 121.141 104.217C121.293 104.578 121.477 104.951 121.681 105.332C121.725 105.516 121.821 105.684 121.954 105.817C124.589 110.33 130.351 115.818 132.622 117.894C127.936 121.51 124.228 123.859 123.027 124.228C122.318 123.146 120.372 119.806 118.67 116.171C117.605 113.89 116.84 111.942 116.399 110.378C115.739 108.025 116.019 107.292 116.123 107.124C116.624 106.306 119.15 104.502 121.385 103.071L121.381 103.067Z" fill="white"/>
<path d="M45.7194 62.3727C45.9277 60.8014 46.6124 56.0954 47.8739 51.5136C49.744 44.7032 52.0466 41.0955 54.3532 41.3641C55.2061 41.4643 55.8388 41.8651 56.3514 42.6268C58.9824 46.5511 56.852 57.8551 55.5065 63.1263C52.3309 62.0641 48.6627 61.7394 45.7234 62.3727H45.7194Z" fill="white"/>
<path d="M133.502 134.843H133.595C135.481 134.843 136.698 134.746 137.511 134.598C137.627 135.448 137.795 136.687 138 138.226H131.961C131.388 138.226 130.928 138.691 130.928 139.26V197.532C127.604 192.826 122.886 185.378 122.486 184.228C122.382 181.975 126.551 153.823 129.49 134.71C130.523 134.783 132.065 134.843 133.502 134.843Z" fill="white"/>
<path d="M253.814 155.559C249.177 155.026 245.873 155.567 243.967 157.17C242.686 158.248 242.061 159.764 242.109 161.664C242.153 163.415 242.954 165.083 244.259 166.31C243.779 166.494 243.483 166.702 243.278 166.915C240.856 169.412 240.239 172.463 241.492 175.742C241.981 177.012 242.658 178.071 243.194 178.792C241.62 179.995 240.427 182.348 240.279 184.793C240.111 187.555 241.296 189.924 243.571 191.515C241.5 193.463 241.172 195.624 241.268 197.119C241.416 199.34 242.622 201.52 244.34 202.667C245.493 203.437 248.857 204.05 252.168 204.098C252.305 204.098 252.441 204.098 252.581 204.098C252.981 204.098 253.394 204.09 253.81 204.07V221.928H132.99V140.298H253.814V155.559ZM191.664 160.998H152.656C152.083 160.998 151.623 161.463 151.623 162.033C151.623 162.602 152.087 163.067 152.656 163.067H191.664C192.237 163.067 192.697 162.602 192.697 162.033C192.697 161.463 192.233 160.998 191.664 160.998ZM191.664 168.298H152.656C152.083 168.298 151.623 168.763 151.623 169.332C151.623 169.901 152.087 170.366 152.656 170.366H191.664C192.237 170.366 192.697 169.901 192.697 169.332C192.697 168.763 192.233 168.298 191.664 168.298ZM219.8 153.386C213.268 153.386 207.958 158.705 207.958 165.239C207.958 169.268 209.973 172.984 213.353 175.18C214.766 176.102 216.352 176.704 218.01 176.956C218.178 176.98 218.346 177.004 218.514 177.024C218.939 177.068 219.367 177.093 219.8 177.093C222.098 177.093 224.325 176.431 226.247 175.184C229.627 172.988 231.641 169.272 231.641 165.239C231.641 158.701 226.331 153.386 219.8 153.386ZM232.026 186.248H154.126C153.553 186.248 153.093 186.713 153.093 187.282C153.093 187.851 153.557 188.316 154.126 188.316H232.026C232.598 188.316 233.059 187.851 233.059 187.282C233.059 186.713 232.594 186.248 232.026 186.248ZM232.026 194.397H154.126C153.553 194.397 153.093 194.862 153.093 195.432C153.093 196.001 153.557 196.466 154.126 196.466H232.026C232.598 196.466 233.059 196.001 233.059 195.432C233.059 194.862 232.594 194.397 232.026 194.397ZM232.026 202.547H179.19C178.617 202.547 178.157 203.012 178.157 203.581C178.157 204.15 178.621 204.615 179.19 204.615H232.026C232.598 204.615 233.059 204.15 233.059 203.581C233.059 203.012 232.594 202.547 232.026 202.547Z" fill="#B3CAFF"/>
<path d="M134.628 75.2998C134.279 78.0977 136.265 80.6431 139.057 80.9919C141.852 81.3406 144.395 79.3524 144.743 76.5585C145.091 73.7605 143.105 71.2151 140.314 70.8664C137.519 70.5176 134.976 72.5058 134.628 75.2998Z" fill="#FDCECA"/>
<path d="M218.082 166.847C218.43 166.726 218.691 166.434 218.763 166.073C218.835 165.712 218.711 165.339 218.438 165.095C217.994 164.698 217.746 164.153 217.746 163.564C217.746 162.429 218.667 161.507 219.796 161.507C220.925 161.507 221.846 162.429 221.846 163.564C221.846 164.153 221.602 164.698 221.153 165.095C220.877 165.339 220.753 165.712 220.829 166.073C220.905 166.434 221.161 166.73 221.51 166.847C223.668 167.58 225.118 169.609 225.118 171.893C225.118 172.491 225.022 173.072 224.83 173.621C224.83 173.621 224.822 173.625 224.818 173.629C224.786 173.649 224.758 173.665 224.725 173.681C224.657 173.721 224.589 173.761 224.521 173.797C224.481 173.817 224.441 173.838 224.405 173.862C224.345 173.894 224.281 173.926 224.221 173.958C224.177 173.978 224.133 174.002 224.093 174.022C224.033 174.05 223.977 174.078 223.917 174.106C223.873 174.126 223.824 174.146 223.78 174.166C223.724 174.19 223.664 174.218 223.608 174.242C223.56 174.262 223.512 174.282 223.464 174.303C223.408 174.327 223.348 174.351 223.292 174.371C223.244 174.391 223.196 174.407 223.144 174.427C223.088 174.447 223.028 174.467 222.971 174.487C222.923 174.503 222.871 174.519 222.823 174.535C222.767 174.555 222.707 174.571 222.647 174.591C222.595 174.607 222.547 174.623 222.495 174.635C222.435 174.651 222.379 174.667 222.319 174.683C222.267 174.695 222.215 174.711 222.167 174.723C222.107 174.739 222.046 174.751 221.99 174.767C221.938 174.78 221.886 174.792 221.838 174.804C221.778 174.816 221.718 174.828 221.658 174.84C221.606 174.848 221.554 174.86 221.506 174.868C221.446 174.88 221.382 174.888 221.322 174.9C221.27 174.908 221.222 174.916 221.169 174.924C221.105 174.932 221.041 174.94 220.977 174.948C220.929 174.952 220.881 174.96 220.829 174.964C220.761 174.972 220.693 174.976 220.625 174.984C220.581 174.984 220.533 174.992 220.489 174.996C220.413 175 220.337 175.004 220.26 175.008C220.224 175.008 220.184 175.012 220.148 175.012C220.032 175.012 219.92 175.02 219.804 175.02C219.688 175.02 219.576 175.02 219.46 175.012C219.419 175.012 219.379 175.008 219.343 175.008C219.267 175.008 219.191 175 219.119 174.996C219.071 174.996 219.027 174.988 218.979 174.984C218.911 174.98 218.843 174.972 218.775 174.964C218.727 174.96 218.675 174.952 218.627 174.948C218.563 174.94 218.498 174.932 218.434 174.924C218.382 174.916 218.334 174.908 218.282 174.9C218.222 174.892 218.158 174.88 218.098 174.868C218.046 174.86 217.994 174.848 217.946 174.84C217.886 174.828 217.826 174.816 217.766 174.804C217.714 174.792 217.662 174.78 217.609 174.767C217.549 174.755 217.489 174.739 217.433 174.723C217.381 174.711 217.329 174.695 217.277 174.683C217.217 174.667 217.161 174.651 217.101 174.635C217.049 174.619 216.997 174.607 216.949 174.591C216.893 174.575 216.833 174.555 216.777 174.535C216.724 174.519 216.676 174.503 216.624 174.483C216.568 174.463 216.512 174.443 216.456 174.423C216.404 174.403 216.356 174.387 216.304 174.367C216.248 174.347 216.192 174.323 216.136 174.299C216.088 174.278 216.04 174.258 215.988 174.238C215.932 174.214 215.875 174.19 215.819 174.162C215.771 174.142 215.723 174.118 215.675 174.098C215.619 174.07 215.563 174.042 215.507 174.018C215.463 173.994 215.415 173.974 215.371 173.95C215.311 173.922 215.255 173.89 215.195 173.858C215.155 173.834 215.111 173.813 215.071 173.789C215.007 173.753 214.942 173.717 214.878 173.677C214.846 173.657 214.81 173.637 214.774 173.617C214.774 173.617 214.766 173.613 214.762 173.609C214.574 173.056 214.478 172.475 214.478 171.881C214.478 169.597 215.928 167.568 218.09 166.835L218.082 166.847Z" fill="white"/>
<path d="M154.114 82.3312C154.282 82.3432 154.45 82.3472 154.618 82.3472C154.831 82.3472 155.043 82.3392 155.251 82.3232C159.844 81.9784 163.3 77.9539 162.956 73.3561C162.611 68.7583 158.587 65.303 153.998 65.6437C153.081 65.7119 152.184 65.9363 151.343 66.2931L150.822 64.0163C150.706 63.5072 150.225 63.1664 149.713 63.2186C149.657 63.2226 144.006 63.7397 137.891 61.8637C129.834 59.3904 124.793 54.1152 122.899 46.1904C122.83 45.9098 122.65 45.6693 122.402 45.529C122.15 45.3887 121.853 45.3566 121.581 45.4448C121.229 45.557 114.201 47.882 110.192 55.0492C109.844 48.2548 111.414 43.1359 114.882 39.8128C121.237 33.7159 132.021 35.6159 132.129 35.64C132.285 35.668 132.445 35.66 132.601 35.6159C137.271 34.2891 142.501 34.249 148.139 35.4997C148.247 35.5237 148.355 35.5277 148.463 35.5197C148.507 35.5157 152.852 35.1188 157.758 36.6942C164.229 38.7746 168.59 43.1519 170.72 49.7018C170.793 49.9223 170.937 50.1147 171.133 50.243C171.157 50.259 173.736 52.0308 175.298 55.8268C177.376 60.8776 176.719 67.2511 173.404 74.258C173.339 74.3983 173.303 74.5466 173.303 74.703C173.303 74.7511 173.263 79.4971 170.708 84.7042C167.413 91.4185 161.638 95.7878 153.545 97.7038L154.114 82.3352V82.3312Z" fill="black"/>
<path d="M223.452 165.46C223.756 164.879 223.917 164.229 223.917 163.56C223.917 161.283 222.066 159.431 219.796 159.431C217.525 159.431 215.675 161.283 215.675 163.56C215.675 164.225 215.839 164.879 216.14 165.46C213.929 166.714 212.496 169.047 212.408 171.645C210.886 169.889 210.021 167.636 210.021 165.243C210.021 159.848 214.406 155.458 219.796 155.458C225.186 155.458 229.567 159.848 229.567 165.243C229.567 167.636 228.702 169.889 227.18 171.645C227.092 169.047 225.658 166.718 223.452 165.46Z" fill="white"/>
<path d="M139.117 125.01C138.64 128.124 137.963 131.612 137.583 132.462C136.402 132.911 130.715 132.802 129.045 132.602C128.569 131.676 128.104 127.86 127.972 123.799C128.389 123.519 128.829 123.218 129.302 122.889C131.2 121.566 133.058 120.163 134.075 119.382C134.848 120.304 136.225 121.919 137.675 123.491C138.2 124.06 138.68 124.565 139.117 125.014V125.01Z" fill="#6099FF"/>
<path d="M253.814 155.559C249.177 155.026 245.873 155.567 243.967 157.17C242.686 158.248 242.061 159.764 242.109 161.664C242.153 163.415 242.954 165.083 244.259 166.31C243.779 166.494 243.483 166.702 243.278 166.915C240.856 169.412 240.239 172.463 241.492 175.742C241.981 177.012 242.658 178.071 243.194 178.792C241.62 179.995 240.427 182.348 240.279 184.793C240.111 187.555 241.296 189.924 243.571 191.515C241.5 193.463 241.172 195.624 241.268 197.119C241.416 199.34 242.622 201.52 244.34 202.667C245.493 203.437 248.857 204.05 252.168 204.098C252.305 204.098 252.441 204.098 252.581 204.098C252.981 204.098 253.394 204.09 253.81 204.07V221.928H132.99V140.298H253.814V155.559ZM191.664 160.998H152.656C152.083 160.998 151.623 161.463 151.623 162.033C151.623 162.602 152.087 163.067 152.656 163.067H191.664C192.237 163.067 192.697 162.602 192.697 162.033C192.697 161.463 192.233 160.998 191.664 160.998ZM191.664 168.298H152.656C152.083 168.298 151.623 168.763 151.623 169.332C151.623 169.901 152.087 170.366 152.656 170.366H191.664C192.237 170.366 192.697 169.901 192.697 169.332C192.697 168.763 192.233 168.298 191.664 168.298ZM219.8 153.386C213.268 153.386 207.958 158.705 207.958 165.239C207.958 169.268 209.973 172.984 213.353 175.18C214.766 176.102 216.352 176.704 218.01 176.956C218.178 176.98 218.346 177.004 218.514 177.024C218.939 177.068 219.367 177.093 219.8 177.093C222.098 177.093 224.325 176.431 226.247 175.184C229.627 172.988 231.641 169.272 231.641 165.239C231.641 158.701 226.331 153.386 219.8 153.386ZM232.026 186.248H154.126C153.553 186.248 153.093 186.713 153.093 187.282C153.093 187.851 153.557 188.316 154.126 188.316H232.026C232.598 188.316 233.059 187.851 233.059 187.282C233.059 186.713 232.594 186.248 232.026 186.248ZM232.026 194.397H154.126C153.553 194.397 153.093 194.862 153.093 195.432C153.093 196.001 153.557 196.466 154.126 196.466H232.026C232.598 196.466 233.059 196.001 233.059 195.432C233.059 194.862 232.594 194.397 232.026 194.397ZM232.026 202.547H179.19C178.617 202.547 178.157 203.012 178.157 203.581C178.157 204.15 178.621 204.615 179.19 204.615H232.026C232.598 204.615 233.059 204.15 233.059 203.581C233.059 203.012 232.594 202.547 232.026 202.547Z" fill="#B3CAFF"/>
<path d="M63.3753 27.2821C63.1751 27.4665 63.0549 27.719 63.0429 27.9876L62.6985 34.1407L57.3405 31.1062C57.1042 30.9739 56.8279 30.9379 56.5676 31.006L50.6169 32.5773L51.8463 26.5405C51.8983 26.276 51.8463 25.9994 51.7021 25.7749L48.3704 20.5959L54.4853 19.8984C54.7536 19.8663 54.9978 19.7341 55.17 19.5256L59.0624 14.7515L61.6133 20.3594C61.7254 20.6039 61.9297 20.7963 62.1819 20.8965L67.9204 23.1253L63.3833 27.2861L63.3753 27.2821Z" fill="#6099FF"/>
<path d="M121.381 103.067C121.081 103.356 120.968 103.808 121.141 104.217C121.293 104.578 121.477 104.951 121.681 105.332C121.725 105.516 121.821 105.684 121.954 105.817C124.589 110.33 130.351 115.818 132.622 117.894C127.936 121.51 124.228 123.859 123.027 124.228C122.318 123.146 120.372 119.806 118.67 116.171C117.605 113.89 116.84 111.942 116.399 110.378C115.739 108.025 116.019 107.292 116.123 107.124C116.624 106.306 119.15 104.502 121.385 103.071L121.381 103.067Z" fill="white"/>
<path d="M133.502 134.843H133.595C135.481 134.843 136.698 134.746 137.511 134.598C137.627 135.448 137.795 136.687 138 138.226H131.961C131.388 138.226 130.928 138.691 130.928 139.26V197.532C127.604 192.826 122.886 185.378 122.486 184.228C122.382 181.975 126.551 153.823 129.49 134.71C130.523 134.783 132.065 134.843 133.502 134.843Z" fill="#6099FF"/>
<path d="M151.591 73.2515C154.126 72.0088 156.821 72.101 156.933 72.105C157.502 72.1291 157.946 72.6061 157.926 73.1793C157.906 73.7485 157.418 74.1975 156.853 74.1734C156.829 74.1734 154.55 74.1053 152.5 75.1114C152.352 75.1836 152.2 75.2156 152.047 75.2156C151.667 75.2156 151.299 75.0032 151.118 74.6344C150.866 74.1213 151.078 73.5 151.591 73.2474V73.2515Z" fill="black"/>
<path d="M121.93 73.3761C123.888 71.9851 125.786 73.0955 126.515 73.8771C126.903 74.294 126.887 74.9554 126.471 75.3443C126.27 75.5327 126.014 75.6249 125.762 75.6249C125.49 75.6249 125.213 75.5166 125.013 75.3002C124.801 75.0837 124.036 74.4223 123.127 75.0677C122.662 75.4004 122.014 75.2881 121.685 74.8191C121.357 74.3541 121.465 73.7048 121.934 73.3761H121.93Z" fill="black"/>
<path d="M123.683 78.3224C127.147 79.8016 129.666 77.8695 129.782 77.7733C130.227 77.4165 130.876 77.4847 131.232 77.9296C131.592 78.3745 131.524 79.0279 131.08 79.3847C130.976 79.4689 129.106 80.948 126.286 80.948C125.261 80.948 124.108 80.7516 122.871 80.2225C122.346 79.998 122.102 79.3887 122.326 78.8636C122.55 78.3385 123.159 78.094 123.683 78.3184V78.3224Z" fill="black"/>
<path d="M134.624 67.0947C135.921 67.215 136.875 68.3654 136.754 69.6642C136.634 70.9629 135.485 71.9169 134.188 71.7967C132.89 71.6764 131.937 70.526 132.057 69.2272C132.177 67.9285 133.327 66.9744 134.624 67.0947Z" fill="black"/>
<path d="M117.813 66.3452C119.11 66.4654 120.064 67.6159 119.943 68.9147C119.823 70.2134 118.674 71.1674 117.376 71.0472C116.079 70.9269 115.126 69.7765 115.246 68.4777C115.366 67.179 116.516 66.2249 117.813 66.3452Z" fill="black"/>
<path d="M16.0982 92.7291C16.2303 92.2 16.7509 91.8592 17.2875 91.9594L18.2085 92.1278C17.9202 89.5904 17.1033 81.9141 17.0512 75.1517C17.0272 75.0235 17.0272 74.8952 17.0512 74.7709C17.0432 72.1774 17.1473 69.7322 17.4477 67.7961C17.8361 65.2828 20.0386 63.3667 22.9419 63.0179C24.1632 62.7774 25.1604 62.9979 25.7811 63.2304C26.0253 63.3186 26.2536 63.4268 26.4619 63.5431C28.2519 61.7032 30.5024 61.2221 32.0241 61.4145C33.2735 61.5709 34.2226 62.1321 34.8353 62.6131C36.5012 61.2823 38.5795 60.5647 40.4616 60.709C41.9193 60.8213 42.9845 61.3704 43.6933 61.9036C43.9335 60.1158 44.6183 55.5541 45.8717 50.9844C48.1103 42.823 51.0416 38.8987 54.5856 39.3076C56.0432 39.4759 57.2125 40.2055 58.0655 41.4722C61.5374 46.6472 58.3858 60.216 57.4408 63.8958C58.8704 64.5652 60.1198 65.399 61.0448 66.3771C64.0362 69.5398 64.1564 76.0937 61.3972 85.8585C59.5952 92.24 57.1004 97.9923 56.6118 99.0946L57.9213 99.3311C58.4659 99.4313 58.8383 99.9444 58.7623 100.494L55.0181 127.347C69.9349 113.946 89.0404 106.29 109.147 105.713L114.717 105.552C116.251 103.781 120.468 101.167 121.653 100.449V97.7117C117.629 95.972 114.613 93.7472 112.323 90.8932C107.485 84.8604 105.96 75.7891 107.661 63.1623C107.826 61.9517 108.05 60.7411 108.338 59.5586C108.338 59.5506 108.338 59.5466 108.342 59.5385C108.342 59.5305 108.342 59.5265 108.346 59.5185C108.394 59.3461 108.446 59.1778 108.498 59.0094C107.213 49.6535 108.883 42.6867 113.46 38.3014C120.107 31.9359 130.495 33.2707 132.261 33.5513C137.163 32.2045 142.601 32.1644 148.431 33.4351C149.328 33.3709 153.521 33.1665 158.315 34.6897C163.192 36.241 169.599 39.9369 172.579 48.7316C173.396 49.3649 175.654 51.3371 177.156 54.9047C180.111 61.9276 177.841 69.636 175.366 74.9353C175.33 76.0216 175.037 80.5272 172.603 85.5258C170.164 90.5364 165.042 96.9541 154.45 99.5997C156.561 101.115 160.373 104.097 161.746 106.707L173.756 108.114C196.606 110.791 217.858 121.478 233.648 138.218H254.851C255.424 138.218 255.885 138.683 255.885 139.252V155.839C256.385 155.923 256.898 156.016 257.426 156.12C259.985 156.629 261.843 157.92 263.105 160.06C264.126 161.8 264.799 164.157 265.283 167.704C265.82 171.629 266.248 178.038 265.848 184.244C265.335 192.172 263.657 198.001 260.854 201.572C259.813 202.899 257.907 203.561 255.889 203.865V222.954C255.889 223.527 255.424 223.988 254.855 223.988H131.965C131.392 223.988 130.932 223.523 130.932 222.954V200.991C130.88 200.947 130.832 200.895 130.788 200.839C128.409 197.716 120.716 186.184 120.448 184.568C120.091 182.436 126.066 143.361 127.508 134.005C126.871 133.191 126.495 131.479 126.198 128.405C126.082 127.19 126.006 125.996 125.962 125.066C124.48 125.94 123.463 126.345 122.738 126.345C122.258 126.345 121.905 126.164 121.633 125.827C121.036 125.086 118.69 121.085 116.796 117.037C115.422 114.103 113.792 110.222 113.924 107.645L109.211 107.781C88.7601 108.366 69.3702 116.46 54.5695 130.586L51.1737 154.921C51.0936 155.486 50.573 155.883 50.0044 155.803C49.4398 155.723 49.0433 155.202 49.1234 154.633L52.5352 130.181C52.5272 130.036 52.5433 129.892 52.5953 129.756L56.5798 101.183L17.8802 94.1601L3.07144 154.324C-1.27744 171.99 8.9581 189.912 26.3777 195.119C36.2369 198.069 46.7727 196.433 55.2783 190.633L73.0264 178.535V149.63C73.0264 149.057 73.4909 148.596 74.0595 148.596C74.6282 148.596 75.0927 149.061 75.0927 149.63V179.077V223.988H73.0224V181.041L56.4397 192.345C50.3648 196.486 43.3128 198.626 36.1608 198.626C32.6929 198.626 29.2009 198.125 25.7851 197.103C7.30826 191.579 -3.548 172.571 1.06519 153.827L16.1062 92.7171L16.0982 92.7291ZM113.932 89.6024C117.633 94.2162 123.547 97.0743 133.102 98.8621C133.663 98.9663 134.035 99.5075 133.927 100.069C133.835 100.566 133.398 100.914 132.91 100.914C132.846 100.914 132.782 100.91 132.718 100.898C129.302 100.257 126.322 99.4794 123.716 98.5374V104.747C126.274 109.172 132.449 114.944 134.344 116.664C136.75 115.185 145.308 109.837 151.199 104.999L152.084 81.1204C152.084 81.1204 152.084 81.1004 152.084 81.0883C152.084 81.0683 152.084 81.0523 152.088 81.0322C152.088 81.0122 152.092 80.9921 152.096 80.9721C152.096 80.9641 152.096 80.9521 152.1 80.944C152.1 80.94 152.1 80.936 152.1 80.932C152.104 80.908 152.112 80.8879 152.116 80.8679C152.116 80.8559 152.124 80.8438 152.128 80.8318C152.136 80.8118 152.144 80.7877 152.152 80.7677C152.156 80.7556 152.16 80.7436 152.164 80.7356C152.172 80.7156 152.18 80.6995 152.192 80.6795C152.2 80.6674 152.204 80.6554 152.212 80.6434C152.22 80.6274 152.232 80.6113 152.244 80.5953C152.252 80.5833 152.26 80.5712 152.268 80.5592C152.28 80.5432 152.292 80.5312 152.3 80.5151C152.308 80.5031 152.32 80.4911 152.328 80.479C152.34 80.467 152.352 80.451 152.364 80.439C152.376 80.4269 152.384 80.4189 152.396 80.4069C152.408 80.3949 152.424 80.3828 152.436 80.3708C152.448 80.3628 152.46 80.3508 152.468 80.3428C152.484 80.3307 152.496 80.3227 152.512 80.3107C152.524 80.3027 152.536 80.2947 152.548 80.2866C152.564 80.2786 152.58 80.2666 152.596 80.2586C152.608 80.2506 152.624 80.2425 152.636 80.2345C152.652 80.2265 152.664 80.2225 152.68 80.2145C152.696 80.2065 152.712 80.1985 152.728 80.1944C152.74 80.1904 152.752 80.1864 152.768 80.1824C152.788 80.1744 152.808 80.1704 152.828 80.1624C152.84 80.1624 152.848 80.1584 152.86 80.1544C152.884 80.1504 152.908 80.1423 152.932 80.1383C152.94 80.1383 152.948 80.1383 152.956 80.1383C152.985 80.1383 153.009 80.1303 153.037 80.1303C153.045 80.1303 153.053 80.1303 153.061 80.1303C153.089 80.1303 153.113 80.1303 153.141 80.1303H153.149C153.157 80.1303 153.165 80.1303 153.173 80.1303C153.197 80.1303 153.217 80.1303 153.241 80.1343C153.261 80.1343 153.277 80.1383 153.297 80.1423C153.309 80.1423 153.317 80.1423 153.325 80.1463C153.902 80.2666 154.494 80.3067 155.087 80.2626C158.543 80.002 161.142 76.9756 160.881 73.5163C160.621 70.0569 157.598 67.4594 154.142 67.7159C153.089 67.7961 152.068 68.1408 151.187 68.714C151.187 68.714 151.178 68.714 151.178 68.7181C151.126 68.7501 151.07 68.7782 151.014 68.8022C151.006 68.8022 150.998 68.8103 150.99 68.8143C150.946 68.8303 150.902 68.8463 150.854 68.8543C150.842 68.8543 150.834 68.8543 150.822 68.8584C150.81 68.8584 150.798 68.8624 150.786 68.8664C150.73 68.8744 150.678 68.8824 150.622 68.8824H150.614C150.602 68.8824 150.586 68.8824 150.574 68.8824C150.526 68.8824 150.474 68.8744 150.426 68.8664C150.406 68.8664 150.386 68.8543 150.37 68.8503C150.33 68.8383 150.289 68.8263 150.249 68.8143C150.225 68.8062 150.205 68.7942 150.185 68.7862C150.149 68.7702 150.117 68.7501 150.085 68.7301C150.065 68.7181 150.041 68.702 150.021 68.69C149.989 68.6659 149.957 68.6419 149.929 68.6138C149.913 68.5978 149.893 68.5858 149.877 68.5657C149.837 68.5257 149.801 68.4776 149.769 68.4294C149.769 68.4254 149.761 68.4214 149.757 68.4174C149.721 68.3653 149.693 68.3052 149.669 68.2451C149.661 68.221 149.653 68.1969 149.645 68.1769C149.637 68.1488 149.625 68.1168 149.617 68.0887L148.992 65.3589C147.078 65.4391 142.417 65.4311 137.339 63.8838C129.014 61.3464 123.451 55.8146 121.177 47.8457C118.718 48.94 112.515 52.3954 110.328 60.0917C110.064 61.1981 109.852 62.3325 109.696 63.4629C108.074 75.5005 109.455 84.0546 113.92 89.6225L113.932 89.6024ZM134.075 119.378C133.058 120.159 131.2 121.562 129.302 122.885C128.829 123.214 128.389 123.514 127.972 123.795C128.104 127.856 128.573 131.672 129.046 132.598C130.715 132.802 136.402 132.906 137.583 132.458C137.964 131.612 138.64 128.124 139.117 125.006C138.68 124.557 138.2 124.056 137.675 123.482C136.226 121.911 134.848 120.296 134.075 119.374V119.378ZM170.705 84.704C173.259 79.501 173.299 74.7509 173.299 74.7028C173.299 74.5505 173.331 74.3981 173.4 74.2578C176.715 67.2509 177.372 60.8774 175.294 55.8267C173.732 52.0306 171.149 50.2548 171.129 50.2428C170.933 50.1145 170.789 49.9221 170.717 49.7016C168.586 43.1517 164.225 38.7744 157.754 36.694C152.848 35.1187 148.503 35.5155 148.459 35.5195C148.351 35.5315 148.239 35.5235 148.135 35.4995C142.497 34.2488 137.267 34.2889 132.598 35.6157C132.445 35.6598 132.281 35.6678 132.125 35.6398C132.017 35.6197 121.233 33.7157 114.878 39.8126C111.414 43.1397 109.84 48.2546 110.188 55.049C114.193 47.8858 121.225 45.5568 121.577 45.4446C121.849 45.3564 122.15 45.3885 122.398 45.5288C122.65 45.6691 122.831 45.9096 122.895 46.1902C124.785 54.115 129.83 59.3902 137.887 61.8635C144.002 63.7435 149.653 63.2264 149.709 63.2184C150.221 63.1703 150.702 63.511 150.818 64.0161L151.339 66.2929C152.18 65.9361 153.077 65.7117 153.994 65.6435C158.583 65.2988 162.603 68.7581 162.952 73.3559C163.296 77.9537 159.84 81.9742 155.247 82.323C155.035 82.339 154.823 82.347 154.614 82.347C154.446 82.347 154.278 82.339 154.11 82.331L153.541 97.6996C161.634 95.7876 167.409 91.4183 170.705 84.7V84.704ZM153.405 101.412L153.253 105.54C153.253 105.54 153.253 105.556 153.253 105.568C153.253 105.604 153.245 105.637 153.237 105.673C153.233 105.705 153.229 105.737 153.221 105.769C153.213 105.801 153.201 105.829 153.189 105.861C153.177 105.893 153.165 105.925 153.153 105.957C153.141 105.985 153.121 106.013 153.105 106.037C153.085 106.065 153.069 106.097 153.049 106.126C153.029 106.15 153.009 106.174 152.989 106.194C152.965 106.222 152.936 106.25 152.908 106.274C152.9 106.282 152.892 106.29 152.884 106.298C147.15 111.076 138.696 116.411 135.793 118.207C137.755 120.556 139.533 122.5 140.919 123.883C140.919 123.883 140.923 123.887 140.927 123.891C142.156 125.114 143.077 125.9 143.55 126.136C144.559 125.395 148.199 121.955 152.276 117.61C159.035 110.403 159.928 108.306 160.045 107.913C159.172 105.913 155.732 103.103 153.413 101.412H153.405ZM173.52 110.178L161.907 108.815C161.879 108.887 161.847 108.956 161.818 109.02C159.94 113.177 145.949 127.503 144.127 128.176C143.97 128.233 143.806 128.277 143.61 128.277C143.073 128.277 142.317 127.956 140.935 126.749C140.534 129.207 139.978 132.105 139.429 133.355C139.521 134.037 139.758 135.777 140.086 138.222H230.78C215.475 122.653 195.236 112.72 173.52 110.174V110.178ZM259.22 200.306C264.891 193.078 264.322 176.01 263.229 167.997C262.34 161.475 260.714 158.902 257.022 158.164C251.275 157.018 247.111 157.23 245.301 158.753C244.512 159.415 244.147 160.353 244.175 161.611C244.219 163.315 245.393 164.979 247.099 165.752C247.131 165.768 247.159 165.78 247.191 165.8C249.453 165.656 253.001 165.764 258.652 166.35L258.756 166.362C259.324 166.422 259.737 166.931 259.677 167.496C259.617 168.065 259.108 168.482 258.544 168.418L258.439 168.406C246.47 167.167 244.9 168.234 244.76 168.358C240.936 172.298 244.151 176.756 245.221 178.026C247.207 177.894 254.399 177.493 259.332 178.267C259.897 178.355 260.282 178.884 260.193 179.449C260.113 179.958 259.673 180.323 259.172 180.323C259.12 180.323 259.064 180.319 259.012 180.311C253.986 179.522 246.158 180.031 245.012 180.115C243.847 180.548 242.481 182.644 242.345 184.917C242.241 186.649 242.778 188.998 245.885 190.465C247.039 190.493 252.665 190.617 257.823 190.649C258.395 190.649 258.856 191.118 258.852 191.691C258.852 192.261 258.387 192.722 257.819 192.722H257.811C252.04 192.685 245.685 192.533 245.621 192.533C245.553 192.533 245.489 192.521 245.425 192.509C245.365 192.637 245.281 192.758 245.169 192.858C243.523 194.301 243.262 195.896 243.334 196.983C243.455 198.794 244.536 200.306 245.489 200.943C246.959 201.925 257.086 203.023 259.216 200.306H259.22ZM132.994 221.928H253.814V204.07C253.394 204.09 252.981 204.098 252.585 204.098C252.445 204.098 252.309 204.098 252.172 204.098C248.861 204.05 245.493 203.436 244.344 202.667C242.626 201.52 241.42 199.34 241.272 197.119C241.172 195.624 241.504 193.463 243.575 191.515C241.296 189.928 240.115 187.555 240.283 184.793C240.431 182.348 241.625 179.991 243.198 178.792C242.662 178.07 241.981 177.012 241.496 175.741C240.243 172.463 240.86 169.412 243.282 166.915C243.487 166.702 243.783 166.494 244.263 166.309C242.958 165.083 242.157 163.415 242.113 161.664C242.065 159.76 242.69 158.248 243.971 157.17C245.877 155.567 249.181 155.025 253.818 155.559V140.298H132.998V221.928H132.994ZM122.486 184.228C122.887 185.382 127.604 192.826 130.928 197.532V139.26C130.928 138.687 131.392 138.226 131.961 138.226H138C137.791 136.686 137.623 135.448 137.511 134.598C136.702 134.746 135.481 134.839 133.595 134.843H133.503C132.069 134.843 130.527 134.782 129.49 134.71C126.551 153.823 122.382 181.971 122.486 184.228ZM116.395 110.375C116.836 111.942 117.601 113.89 118.666 116.167C120.368 119.807 122.314 123.146 123.023 124.224C124.228 123.851 127.936 121.506 132.618 117.891C130.351 115.818 124.585 110.33 121.95 105.813C121.817 105.681 121.725 105.516 121.677 105.328C121.473 104.947 121.289 104.574 121.137 104.213C120.964 103.805 121.073 103.352 121.377 103.063C119.146 104.494 116.616 106.298 116.115 107.116C116.011 107.284 115.731 108.014 116.391 110.371L116.395 110.375ZM34.4308 71.035C34.1745 68.8824 33.8582 66.2448 33.7901 64.437C33.4617 64.1283 32.7569 63.5872 31.7678 63.4629C30.6265 63.3226 28.8605 63.7675 27.5311 65.4631C27.2547 67.2429 27.6792 71.4118 28.1397 74.0975C29.3571 75.0796 30.5344 75.4965 31.6437 75.3321C33.1654 75.1076 34.2707 73.861 34.6951 73.3078C34.6271 72.6665 34.5309 71.8688 34.4308 71.031V71.035ZM40.3055 62.7694C38.8598 62.6612 37.1579 63.3146 35.8644 64.449C35.9365 66.1646 36.2409 68.706 36.4892 70.7905C36.5973 71.7004 36.6934 72.5021 36.7615 73.1595C37.7706 74.1736 39.901 74.6026 41.4027 74.3741C41.7991 74.1175 42.1515 73.9171 42.4359 73.7688C41.2625 72.7867 40.2734 71.496 40.0292 69.8565C39.6287 67.1828 40.5257 65.0142 42.568 63.6433C42.1275 63.2825 41.3867 62.8536 40.3094 62.7734L40.3055 62.7694ZM56.3475 42.6266C55.835 41.865 55.2022 41.4641 54.3493 41.3639C52.0427 41.0954 49.7441 44.703 47.87 51.5135C46.6126 56.0952 45.9278 60.8012 45.7155 62.3726C48.6549 61.7392 52.323 62.0639 55.4986 63.1262C56.8441 57.855 58.9745 46.5469 56.3436 42.6266H56.3475ZM20.3389 92.5126L54.5575 98.7218C54.5695 98.6216 54.5976 98.5254 54.6416 98.4292C57.6971 91.6989 64.5328 73.0793 59.5391 67.8001C58.6942 66.9062 57.4768 66.1486 56.0712 65.5553C56.0232 65.5473 55.9711 65.5393 55.9231 65.5273C55.7989 65.4912 55.6868 65.4351 55.5867 65.3629C51.9065 63.9479 47.1452 63.6393 44.358 64.9981C42.4959 65.9081 41.7511 67.3952 42.0714 69.5478C42.4719 72.2135 46.4003 73.9131 47.882 74.342C48.4306 74.4983 48.747 75.0716 48.5908 75.6247C48.4346 76.1739 47.862 76.4906 47.3094 76.3342C47.1892 76.2982 45.8397 75.9013 44.326 75.0595C44.2259 75.1718 44.1017 75.268 43.9496 75.3321C43.6572 75.4564 36.8295 78.4227 36.4972 86.6241C36.4731 87.1813 36.0166 87.6182 35.464 87.6182C35.448 87.6182 35.436 87.6182 35.42 87.6182C34.8473 87.5942 34.4068 87.1131 34.4268 86.5399C34.623 81.6936 36.7775 78.4267 38.8999 76.3623C37.7666 76.1458 36.7014 75.7169 35.8805 75.1237C35.1076 75.9775 33.7701 77.1159 31.96 77.3885C30.4023 77.625 28.8365 77.18 27.2948 76.0697C26.5339 76.7712 25.1564 77.6851 23.01 77.9497C22.6415 77.9938 22.2891 78.0178 21.9528 78.0178C20.8395 78.0178 19.9104 77.7813 19.1616 77.4045C19.3698 84.1549 20.1788 91.2419 20.3269 92.5166L20.3389 92.5126ZM19.1216 74.7188C19.8384 75.8211 21.5003 76.0456 22.7617 75.8893C24.6438 75.6568 25.669 74.807 26.0854 74.3661C25.749 72.3418 25.1524 67.8201 25.4567 65.3549C25.0803 65.1384 24.3154 64.8498 23.3063 65.0543C23.2783 65.0623 23.2462 65.0663 23.2182 65.0703C21.264 65.2948 19.7302 66.5454 19.486 68.1128C19.2056 69.9246 19.1055 72.2375 19.1176 74.7188H19.1216Z" fill="black"/>
<path d="M226.243 175.184C224.325 176.435 222.094 177.092 219.796 177.092C219.363 177.092 218.935 177.068 218.51 177.024C218.342 177.004 218.174 176.984 218.006 176.956C216.348 176.703 214.762 176.102 213.349 175.18C209.973 172.983 207.954 169.267 207.954 165.239C207.954 158.701 213.268 153.386 219.796 153.386C226.323 153.386 231.637 158.705 231.637 165.239C231.637 169.267 229.619 172.987 226.243 175.184ZM214.758 173.621C214.758 173.621 214.766 173.625 214.77 173.629C214.802 173.649 214.838 173.669 214.874 173.689C214.938 173.725 215.002 173.765 215.067 173.801C215.107 173.825 215.151 173.845 215.191 173.869C215.251 173.901 215.307 173.933 215.367 173.961C215.411 173.986 215.459 174.006 215.503 174.03C215.559 174.058 215.615 174.086 215.671 174.11C215.719 174.134 215.767 174.154 215.815 174.174C215.871 174.198 215.927 174.226 215.984 174.25C216.032 174.27 216.08 174.29 216.132 174.31C216.188 174.334 216.244 174.354 216.3 174.378C216.348 174.398 216.4 174.414 216.452 174.434C216.508 174.455 216.564 174.475 216.62 174.495C216.672 174.511 216.72 174.531 216.772 174.547C216.829 174.567 216.889 174.583 216.945 174.603C216.997 174.619 217.049 174.635 217.097 174.647C217.153 174.663 217.213 174.679 217.273 174.695C217.325 174.707 217.377 174.723 217.429 174.735C217.489 174.751 217.545 174.763 217.605 174.779C217.657 174.791 217.709 174.803 217.762 174.815C217.822 174.827 217.882 174.839 217.942 174.851C217.994 174.859 218.046 174.871 218.094 174.879C218.154 174.891 218.218 174.899 218.278 174.911C218.33 174.92 218.378 174.928 218.43 174.936C218.494 174.944 218.558 174.952 218.623 174.96C218.671 174.964 218.719 174.972 218.771 174.976C218.839 174.984 218.907 174.988 218.975 174.996C219.023 174.996 219.067 175.004 219.115 175.008C219.191 175.012 219.267 175.016 219.339 175.02C219.379 175.02 219.419 175.024 219.455 175.024C219.572 175.024 219.684 175.032 219.8 175.032C219.916 175.032 220.028 175.032 220.144 175.024C220.18 175.024 220.22 175.02 220.256 175.02C220.332 175.02 220.409 175.012 220.485 175.008C220.529 175.008 220.577 175 220.621 174.996C220.689 174.992 220.757 174.984 220.825 174.976C220.873 174.972 220.921 174.964 220.973 174.96C221.037 174.952 221.101 174.944 221.165 174.936C221.217 174.928 221.266 174.92 221.318 174.911C221.378 174.903 221.442 174.891 221.502 174.879C221.554 174.871 221.606 174.859 221.654 174.851C221.714 174.839 221.774 174.827 221.834 174.815C221.886 174.803 221.938 174.791 221.986 174.779C222.046 174.767 222.106 174.751 222.163 174.735C222.215 174.723 222.267 174.707 222.315 174.695C222.375 174.679 222.431 174.663 222.491 174.647C222.543 174.631 222.591 174.619 222.643 174.603C222.703 174.587 222.759 174.567 222.819 174.547C222.867 174.531 222.919 174.515 222.967 174.499C223.023 174.479 223.084 174.459 223.14 174.438C223.188 174.422 223.236 174.402 223.288 174.382C223.344 174.358 223.404 174.338 223.46 174.314C223.508 174.294 223.556 174.274 223.604 174.254C223.664 174.23 223.72 174.202 223.776 174.178C223.82 174.158 223.868 174.138 223.912 174.118C223.973 174.09 224.029 174.062 224.089 174.034C224.133 174.014 224.177 173.99 224.217 173.969C224.277 173.937 224.341 173.905 224.401 173.873C224.441 173.853 224.481 173.833 224.517 173.809C224.585 173.773 224.653 173.733 224.721 173.693C224.753 173.673 224.785 173.657 224.814 173.641C224.814 173.641 224.822 173.637 224.826 173.633C225.014 173.08 225.114 172.502 225.114 171.905C225.114 169.62 223.664 167.592 221.506 166.858C221.157 166.738 220.897 166.445 220.825 166.085C220.753 165.724 220.877 165.351 221.149 165.107C221.594 164.71 221.842 164.165 221.842 163.575C221.842 162.441 220.921 161.519 219.792 161.519C218.663 161.519 217.742 162.441 217.742 163.575C217.742 164.165 217.986 164.71 218.434 165.107C218.711 165.351 218.835 165.724 218.759 166.085C218.687 166.445 218.426 166.742 218.078 166.858C215.919 167.592 214.466 169.62 214.466 171.905C214.466 172.498 214.562 173.08 214.75 173.633L214.758 173.621ZM219.8 155.458C214.41 155.458 210.025 159.847 210.025 165.243C210.025 167.632 210.89 169.889 212.412 171.645C212.5 169.047 213.933 166.718 216.144 165.459C215.843 164.878 215.679 164.229 215.679 163.559C215.679 161.283 217.529 159.431 219.8 159.431C222.07 159.431 223.921 161.283 223.921 163.559C223.921 164.225 223.756 164.878 223.456 165.459C225.666 166.714 227.1 169.047 227.184 171.645C228.706 169.889 229.571 167.636 229.571 165.243C229.571 159.847 225.186 155.458 219.8 155.458Z" fill="black"/>
<path d="M191.664 163.07H152.656C152.083 163.07 151.623 162.605 151.623 162.036C151.623 161.467 152.087 161.002 152.656 161.002H191.664C192.237 161.002 192.697 161.467 192.697 162.036C192.697 162.605 192.233 163.07 191.664 163.07Z" fill="black"/>
<path d="M191.664 170.37H152.656C152.083 170.37 151.623 169.905 151.623 169.336C151.623 168.767 152.087 168.302 152.656 168.302H191.664C192.237 168.302 192.697 168.767 192.697 169.336C192.697 169.905 192.233 170.37 191.664 170.37Z" fill="black"/>
<path d="M232.026 188.32H154.126C153.553 188.32 153.093 187.855 153.093 187.286C153.093 186.717 153.557 186.252 154.126 186.252H232.026C232.598 186.252 233.059 186.717 233.059 187.286C233.059 187.855 232.594 188.32 232.026 188.32Z" fill="black"/>
<path d="M232.026 196.469H154.126C153.553 196.469 153.093 196.004 153.093 195.435C153.093 194.866 153.557 194.401 154.126 194.401H232.026C232.598 194.401 233.059 194.866 233.059 195.435C233.059 196.004 232.594 196.469 232.026 196.469Z" fill="black"/>
<path d="M232.026 204.615H179.19C178.617 204.615 178.157 204.15 178.157 203.581C178.157 203.011 178.621 202.546 179.19 202.546H232.026C232.598 202.546 233.059 203.011 233.059 203.581C233.059 204.15 232.594 204.615 232.026 204.615Z" fill="black"/>
<path d="M70.2154 21.7944C70.5478 21.9227 70.792 22.2153 70.8561 22.5681C70.9242 22.9208 70.8 23.2816 70.5397 23.5221L65.0816 28.5247L64.6651 35.9204C64.6451 36.2772 64.4409 36.5979 64.1285 36.7702C63.9723 36.8544 63.8041 36.8985 63.632 36.8985C63.4598 36.8985 63.2796 36.8544 63.1234 36.7622L56.6841 33.1145L49.528 35.0025C49.1837 35.0947 48.8152 35.0025 48.555 34.754C48.2947 34.5094 48.1785 34.1447 48.2506 33.7959L49.7283 26.5365L45.7238 20.3113C45.5315 20.0106 45.5075 19.6298 45.6597 19.3051C45.8119 18.9804 46.1242 18.76 46.4766 18.7199L53.8289 17.8821L58.5062 12.1459C58.7304 11.8693 59.0868 11.729 59.4392 11.7731C59.7956 11.8172 60.1 12.0457 60.2481 12.3704L63.3156 19.1087L70.2114 21.7904L70.2154 21.7944ZM61.6097 20.3554L59.0588 14.7474L55.1664 19.5216C54.9942 19.73 54.7499 19.8663 54.4816 19.8944L48.3668 20.5919L51.6985 25.7709C51.8467 25.9994 51.8947 26.2719 51.8427 26.5365L50.6133 32.5733L56.564 31.002C56.8243 30.9338 57.1046 30.9699 57.3369 31.1022L62.6949 34.1367L63.0393 27.9836C63.0553 27.715 63.1754 27.4625 63.3717 27.2781L67.9088 23.1172L62.1703 20.8885C61.918 20.7923 61.7138 20.5999 61.6017 20.3514L61.6097 20.3554Z" fill="black"/>
<path d="M74.476 8.34582C74.7684 8.83887 74.6042 9.47221 74.1156 9.76484L68.7616 12.9436L67.7084 11.1638L73.0624 7.98505C73.555 7.69243 74.1877 7.85678 74.48 8.34582H74.476Z" fill="black"/>
<path d="M46.6284 3.76017C47.0849 3.41944 47.7336 3.51164 48.078 3.96861L51.9424 9.1396L50.2845 10.3822L46.4201 5.21125C46.0798 4.75428 46.1719 4.1049 46.6284 3.76017Z" fill="black"/>
<path d="M58.7181 7.98479L59.7592 0.885705C59.8433 0.320504 60.3639 -0.0723306 60.9326 0.0118483C61.4972 0.0960271 61.8896 0.621143 61.8055 1.18634L60.7644 8.28543L58.7181 7.98479Z" fill="black"/>
</g>
<defs>
<clipPath id="clip0_2200_251390">
<rect width="266" height="224" fill="white" transform="matrix(-1 0 0 1 266 0)"/>
</clipPath>
</defs>
</svg>
