<svg width="244" height="177" viewBox="0 0 244 177" fill="none" xmlns="http://www.w3.org/2000/svg">
<g clip-path="url(#clip0_2263_114508)">
<path d="M177.382 82.8057H81.8682V90.5856H211.412V82.8057H177.385C177.385 82.8057 177.385 82.8057 177.382 82.8057Z" fill="black"/>
<path d="M115.198 44.9624C113.916 44.9624 112.875 46.0071 112.875 47.2948C112.875 48.5826 113.916 49.6273 115.198 49.6273C116.481 49.6273 117.522 48.5826 117.522 47.2948C117.522 46.0071 116.481 44.9624 115.198 44.9624Z" fill="#FFA9AC"/>
<path d="M131.825 27.1915C130.1 19.6699 124.302 16.1637 122.043 15.062C119.656 21.5275 114.252 26.0747 106.347 28.2475C101.572 29.5581 97.2199 29.6531 95.3771 29.6189L95.0062 32.5781C95.0062 32.5781 94.9987 32.6123 94.9949 32.6275C94.9911 32.6579 94.9835 32.6883 94.976 32.7187C94.9684 32.7529 94.957 32.7833 94.9419 32.8137C94.9306 32.8403 94.923 32.8631 94.9116 32.8896C94.8927 32.9238 94.8738 32.958 94.8511 32.9922C94.8435 33.0074 94.836 33.0226 94.8246 33.034C94.8208 33.0378 94.817 33.0416 94.8132 33.0492C94.7868 33.0834 94.7565 33.1138 94.7262 33.1442C94.7111 33.1594 94.6997 33.1746 94.6846 33.1898C94.643 33.2239 94.6013 33.2581 94.5559 33.2847C94.5408 33.2961 94.5219 33.3037 94.5067 33.3151C94.4651 33.3379 94.4197 33.3607 94.3743 33.3797C94.3554 33.3873 94.3327 33.3911 94.3138 33.3987C94.2759 33.4101 94.2381 33.4215 94.1964 33.4291C94.17 33.4329 94.1473 33.4329 94.1208 33.4367C94.0905 33.4367 94.064 33.4443 94.0337 33.4443C94.0262 33.4443 94.0186 33.4443 94.011 33.4443C93.9959 33.4443 93.9845 33.4443 93.9694 33.4443C93.9505 33.4443 93.9278 33.4443 93.9089 33.4405C93.8748 33.4367 93.8445 33.4291 93.8143 33.4215C93.8105 33.4215 93.8067 33.4215 93.8029 33.4215C93.7424 33.4063 93.6856 33.3873 93.6288 33.3607C93.5683 33.3341 93.5115 33.2999 93.4586 33.2619C92.6715 32.6883 91.7444 32.316 90.7719 32.1907C89.228 31.9931 87.6992 32.411 86.4656 33.3645C85.232 34.3218 84.4449 35.7007 84.2482 37.2506C84.0514 38.8005 84.4638 40.3352 85.4174 41.5736C86.371 42.812 87.7446 43.6022 89.2885 43.7997C89.8372 43.8719 90.3859 43.8643 90.927 43.7807C90.9762 43.7731 91.0216 43.7693 91.067 43.7693C91.067 43.7693 91.0708 43.7693 91.0746 43.7693C91.0784 43.7693 91.0859 43.7693 91.0897 43.7693C91.0897 43.7693 91.0935 43.7693 91.0973 43.7693C91.1238 43.7693 91.1503 43.7693 91.1768 43.7731C91.1805 43.7731 91.1881 43.7731 91.1919 43.7731C91.2184 43.7731 91.2449 43.7807 91.2714 43.7883C91.2752 43.7883 91.2827 43.7883 91.2865 43.7883C91.313 43.7921 91.3357 43.7997 91.3584 43.8073C91.366 43.8073 91.3735 43.8111 91.3811 43.8149C91.4038 43.8225 91.4227 43.8301 91.4454 43.8415C91.453 43.8415 91.4644 43.8491 91.4719 43.8529C91.4908 43.8605 91.5098 43.8719 91.5287 43.8795C91.54 43.8833 91.5476 43.8909 91.559 43.8947C91.5741 43.9061 91.593 43.9137 91.6081 43.9251C91.6195 43.9327 91.6271 43.9365 91.6384 43.9441C91.6536 43.9555 91.6687 43.9669 91.6838 43.9783C91.6952 43.9859 91.7027 43.9935 91.7141 44.0011C91.7292 44.0125 91.7406 44.0276 91.7557 44.039C91.7633 44.0466 91.7746 44.0542 91.7822 44.0656C91.7936 44.0808 91.8087 44.0922 91.8201 44.1074C91.8276 44.115 91.8352 44.1264 91.8428 44.1378C91.8541 44.153 91.8655 44.1682 91.8768 44.1834C91.8844 44.1948 91.892 44.2062 91.8995 44.2176C91.9071 44.2328 91.9184 44.248 91.926 44.2632C91.9336 44.2746 91.9411 44.2898 91.9487 44.3012C91.9563 44.3164 91.9601 44.3278 91.9676 44.3429C91.9752 44.3581 91.9828 44.3733 91.9866 44.3923C91.9903 44.4037 91.9941 44.4189 92.0017 44.4303C92.0093 44.4493 92.013 44.4683 92.0206 44.4873C92.0206 44.4987 92.0282 44.5139 92.0282 44.5253C92.032 44.5443 92.0357 44.5633 92.0395 44.5823C92.0395 44.5861 92.0395 44.5899 92.0395 44.5975C92.0395 44.6089 92.0395 44.6165 92.0395 44.6279C92.0395 44.6468 92.0433 44.662 92.0433 44.681C92.0433 44.7 92.0433 44.719 92.0433 44.738C92.0433 44.7456 92.0433 44.757 92.0433 44.7646L91.7179 67.1204C97.3183 70.6153 103.044 71.7435 108.739 70.4709C112.193 69.6997 114.627 68.222 115.516 67.618V62.9493C113.563 63.4394 111.418 63.8344 109.053 64.1535C109.007 64.1611 108.966 64.1611 108.924 64.1611C108.44 64.1611 108.023 63.8041 107.955 63.3102C107.883 62.7746 108.258 62.2807 108.795 62.2086C124.696 60.0813 134.164 54.0108 132.23 30.3749C132.143 29.3112 132.003 28.2476 131.81 27.2067L131.825 27.1915ZM93.2694 38.7701C93.0915 39.093 92.7585 39.2754 92.4142 39.2754C92.2514 39.2754 92.0887 39.2336 91.9411 39.15C90.087 38.113 87.9717 38.0674 87.949 38.0674C87.4116 38.0598 86.9802 37.6115 86.9878 37.0721C86.9954 36.5365 87.4305 36.1034 87.9641 36.1034H87.9755C88.0814 36.1034 90.594 36.149 92.8909 37.433C93.364 37.6951 93.5305 38.2953 93.2694 38.7663V38.7701ZM108.958 37.2392C107.747 37.281 106.729 36.3313 106.688 35.1157C106.646 33.9001 107.592 32.8783 108.803 32.8365C110.014 32.7947 111.032 33.7444 111.073 34.96C111.115 36.1756 110.169 37.1975 108.958 37.2392ZM115.198 51.5872C112.837 51.5872 110.918 49.6612 110.918 47.2908C110.918 44.9204 112.837 42.9944 115.198 42.9944C117.559 42.9944 119.478 44.9204 119.478 47.2908C119.478 49.6612 117.559 51.5872 115.198 51.5872ZM120.462 40.4188C120.125 40.8405 119.508 40.9127 119.088 40.5746C118.286 39.9326 117.552 40.4986 117.344 40.6885C117.154 40.8671 116.916 40.9582 116.674 40.9582C116.416 40.9582 116.159 40.8557 115.966 40.6505C115.595 40.2593 115.614 39.6325 116.004 39.2602C116.727 38.5688 118.554 37.6343 120.31 39.0399C120.734 39.378 120.802 39.9972 120.465 40.4188H120.462ZM124.613 37.1177C123.402 37.1595 122.384 36.2098 122.342 34.9942C122.301 33.7786 123.247 32.7567 124.458 32.7149C125.668 32.6731 126.686 33.6228 126.728 34.8384C126.77 36.054 125.824 37.0759 124.613 37.1177Z" fill="white"/>
<path d="M42.215 81.3774C50.2524 75.7096 59.6179 71.8577 69.3051 70.2394L89.7845 66.8129L90.091 45.8019C90.091 45.8019 90.0607 45.8019 90.0456 45.8019C89.7126 45.8019 89.3796 45.7791 89.0466 45.7373C86.9842 45.4714 85.149 44.4153 83.8775 42.7667C82.6061 41.1142 82.0498 39.0667 82.3147 36.9925C82.5796 34.9222 83.6316 33.0798 85.2776 31.8034C86.9237 30.527 88.9671 29.9686 91.0294 30.2345C91.8014 30.3333 92.5544 30.5536 93.2582 30.8727L93.5572 28.4871C93.6215 27.9705 94.0756 27.5944 94.594 27.6286C94.647 27.6286 100.013 27.9629 105.889 26.3408C113.616 24.2059 118.543 19.8677 120.538 13.444C120.617 13.1894 120.795 12.9767 121.033 12.8589C121.272 12.7412 121.548 12.7222 121.798 12.8096C122.134 12.9273 128.987 15.4459 132.404 22.8231C132.957 16.7071 131.723 11.9434 128.719 8.63851C123.065 2.41991 112.879 3.36961 112.773 3.37721C112.633 3.3924 112.493 3.37721 112.36 3.32782C108.088 1.8653 103.237 1.57279 97.9391 2.4617C97.6288 2.51489 97.292 2.57567 96.9363 2.64784C82.8104 5.50072 72.847 15.803 69.6041 30.9145L67.1974 42.1209C67.0914 42.6223 66.6146 42.9566 66.1114 42.8882C66.047 42.8806 59.5801 42.0677 54.5851 45.9614C51.3535 48.4838 49.4047 52.4308 48.7917 57.6959C48.7312 58.2277 48.2506 58.6114 47.7208 58.5582C47.6981 58.5582 45.3104 58.334 42.2831 59.3255C38.2569 60.6437 35.0518 63.3788 32.7587 67.4511C30.6963 71.1131 29.6368 78.931 33.7349 84.8419C33.769 84.8951 33.7993 84.9482 33.8258 85.0052L35.2637 87.049C37.4547 85.0014 39.7857 83.102 42.2302 81.3812L42.215 81.3774Z" fill="black"/>
<path d="M39.0589 134.192C38.5253 134.192 38.0902 133.763 38.0826 133.227C38.075 132.684 38.5064 132.239 39.0437 132.232L51.1073 132.053C51.096 131.992 51.0884 131.932 51.0884 131.867V107.768C51.9512 106.78 53.0448 107.384 53.0448 108.239V131.867C53.0448 131.92 53.041 131.973 53.0296 132.023L79.9116 131.624V80.8457H170.339L170.283 80.8001C160.856 73.5596 149.36 69.5595 137.494 69.3962L116.81 69.1113C115.943 69.7267 113.249 71.4513 109.272 72.3592C107.849 72.6821 106.173 72.9177 104.289 72.9177C100.414 72.9177 95.676 71.9224 90.5372 68.6782L69.6227 72.1769C60.2231 73.7496 51.1338 77.4876 43.3349 82.9844C35.5359 88.485 28.9517 95.8015 24.2897 104.144L5.11965 138.458C0.824738 146.147 0.907988 155.283 5.34669 162.888C9.78539 170.497 17.6789 175.036 26.4617 175.036H84.2784V133.516L39.074 134.188C39.074 134.188 39.0627 134.188 39.0589 134.188V134.192Z" fill="#6099FF"/>
<path d="M172.871 61.4945V45.6042C172.258 45.4789 171.69 45.2396 171.183 44.9053H153.231V64.6209H163.997C165.367 62.9988 167.963 62.2353 169.666 61.8972C170.744 61.6845 171.819 61.5591 172.871 61.4945Z" fill="#6099FF"/>
<path d="M181.45 79.4019L209.444 69.9163C209.414 69.7948 209.406 69.6656 209.425 69.5365C209.792 66.9799 209.864 63.7623 209.637 59.9674C209.259 53.6614 207.31 47.6365 203.999 42.5386C201.354 38.4701 199.704 37.8091 198.958 37.7787C198.667 37.7673 198.368 37.7521 198.058 37.7369C193.876 37.547 186.884 37.2279 186.013 39.9022C185.714 40.8215 185.96 41.2926 186.172 41.5661C187.372 43.116 191.829 43.4275 194.357 43.2566C194.701 43.2338 195.038 43.3971 195.231 43.6858L198.663 48.7838C198.966 49.232 198.849 49.8436 198.402 50.1475C197.956 50.4514 197.346 50.3337 197.044 49.8854L193.922 45.2433C192.045 45.3079 186.566 45.2737 184.628 42.7703C184.114 42.1055 183.614 40.9621 184.155 39.2944C185.207 36.0731 189.975 35.5944 194.561 35.659C193.581 35.1006 192.314 34.6523 190.781 34.6523C184.045 34.6523 176.689 36.829 172.905 38.1244C171.66 38.5499 170.866 39.7693 170.972 41.0875C171.089 42.5234 172.247 43.663 173.673 43.739C174.479 43.7808 175.743 43.5719 177.079 43.3515C179.667 42.9223 182.604 42.4322 184.484 43.3629C188.2 45.2015 188.234 52.9852 188.159 55.3253C188.102 57.0689 187.758 62.824 185.748 63.656C184.518 64.165 182.691 63.9903 180.159 63.7433C177.253 63.4622 173.632 63.1127 170.052 63.8231C167.074 64.4157 165.205 65.5516 165.046 66.8659C164.917 67.9524 165.977 69.244 167.623 70.0037C171.388 71.7474 175.467 71.9791 175.509 71.9791C175.845 71.9981 176.148 72.188 176.315 72.4843C176.337 72.5299 178.782 76.9137 181.453 79.4019H181.45ZM198.198 52.1533C198.735 52.1533 199.174 52.5901 199.174 53.1334C199.185 57.426 200.052 61.7946 201.683 65.7605C201.887 66.2619 201.653 66.8355 201.153 67.0407C201.032 67.0901 200.903 67.1166 200.782 67.1166C200.396 67.1166 200.033 66.8887 199.878 66.5089C198.152 62.3074 197.233 57.6805 197.222 53.1372C197.222 52.5939 197.657 52.1533 198.198 52.1533ZM186.532 64.3208C186.641 63.7889 187.156 63.447 187.686 63.5572C190.361 64.1118 192.223 65.4908 193.721 68.0284C193.998 68.4956 193.842 69.0958 193.377 69.3731C193.222 69.4643 193.048 69.5099 192.881 69.5099C192.548 69.5099 192.223 69.3389 192.041 69.0274C190.815 66.9495 189.442 65.9238 187.292 65.4756C186.762 65.3654 186.422 64.845 186.532 64.317V64.3208Z" fill="white"/>
<path d="M81.8721 131.59L85.2437 131.54C85.2437 131.54 85.255 131.54 85.2588 131.54C85.3231 131.54 85.3875 131.548 85.4518 131.559C85.5123 131.571 85.5729 131.59 85.6296 131.612C85.6296 131.612 85.6296 131.612 85.6334 131.612C85.6902 131.635 85.7432 131.666 85.7924 131.7C85.7924 131.7 85.7961 131.7 85.7999 131.704C85.8491 131.738 85.8945 131.776 85.9362 131.814C85.9362 131.814 85.9399 131.818 85.9437 131.821C85.9853 131.863 86.0232 131.909 86.0572 131.954C86.0572 131.954 86.061 131.962 86.0648 131.962C86.0989 132.011 86.1254 132.061 86.1518 132.114C86.1518 132.118 86.1518 132.121 86.1556 132.125C86.1783 132.178 86.1973 132.235 86.2086 132.296C86.2086 132.3 86.2086 132.304 86.2086 132.308C86.22 132.368 86.2275 132.429 86.2275 132.49V132.497C86.2275 132.497 86.2275 132.501 86.2275 132.505C86.2275 132.505 86.2275 132.509 86.2275 132.513V134.021C93.7086 132.023 106.052 131.001 109.216 131.825C111.07 132.308 112.364 133.55 112.761 135.24C113.045 136.444 112.826 137.744 112.201 138.868C115.811 138.955 119.149 139.096 120.239 139.252L120.292 139.259C122.195 139.529 124.564 139.863 126.006 141.725C126.891 142.864 127.22 144.175 126.963 145.52C126.77 146.523 126.252 147.476 125.506 148.251C125.99 148.388 126.463 148.566 126.918 148.806C128.787 149.793 129.869 151.852 129.616 153.93C129.336 156.194 127.519 157.577 125.468 158.291C126.365 159.233 126.759 160.529 126.505 161.919C125.884 165.292 122.384 166.352 119.164 166.626C119.815 167.309 120.258 168.138 120.42 169.053C120.549 169.779 120.492 170.493 120.261 171.154H211.412V92.542H81.8721V131.586V131.59ZM162.877 158.922L180.814 129.189C180.992 128.896 181.31 128.714 181.65 128.714C181.991 128.714 182.309 128.892 182.486 129.189L200.423 158.922C200.605 159.226 200.612 159.602 200.438 159.913C200.264 160.221 199.939 160.415 199.587 160.415H163.714C163.362 160.415 163.036 160.225 162.862 159.913C162.688 159.606 162.696 159.226 162.877 158.922ZM139.212 143.115H152.002C152.543 143.115 152.978 143.556 152.978 144.095C152.978 144.635 152.539 145.075 152.002 145.075H139.212C138.671 145.075 138.236 144.635 138.236 144.095C138.236 143.556 138.675 143.115 139.212 143.115ZM139.212 149.413H148.354C148.895 149.413 149.331 149.854 149.331 150.393C149.331 150.933 148.892 151.374 148.354 151.374H139.212C138.671 151.374 138.236 150.933 138.236 150.393C138.236 149.854 138.675 149.413 139.212 149.413Z" fill="white"/>
<path d="M106.17 164.168C106.631 164.194 107.366 164.232 108.225 164.274C110.328 164.377 113.061 164.513 114.593 164.658C120.78 165.045 124.144 164.008 124.594 161.569C124.806 160.422 124.277 159.499 123.149 159.043C121.473 158.363 114.869 158.382 111.324 158.39C110.143 158.39 109.121 158.397 108.467 158.378C107.926 158.363 107.502 157.911 107.517 157.372C107.532 156.84 107.967 156.418 108.493 156.418C108.501 156.418 108.512 156.418 108.52 156.418C109.144 156.433 110.151 156.433 111.316 156.429C115.936 156.418 120.269 156.452 122.676 156.901C122.683 156.901 122.691 156.901 122.699 156.901C124.844 156.707 127.436 155.753 127.69 153.702C127.845 152.448 127.16 151.157 126.021 150.557C124.75 149.884 123.183 149.82 121.56 149.808C121.537 149.808 121.514 149.808 121.491 149.808C121.404 149.801 112.746 149.159 108.119 149.079C107.577 149.071 107.15 148.623 107.157 148.08C107.165 147.537 107.615 147.1 108.153 147.115C112.69 147.191 121.007 147.802 121.605 147.848C122.044 147.848 122.487 147.859 122.933 147.882C123.013 147.768 123.115 147.666 123.243 147.59C124.182 147.043 124.878 146.112 125.06 145.162C125.211 144.38 125.014 143.635 124.481 142.944C123.523 141.709 121.749 141.459 120.035 141.215L119.978 141.208C117.825 140.904 105.807 140.638 102.113 140.813C101.572 140.836 101.114 140.421 101.092 139.878C101.065 139.335 101.481 138.875 102.022 138.853C103.623 138.777 106.65 138.78 109.799 138.83C110.703 137.986 111.123 136.775 110.87 135.703C110.643 134.735 109.882 134.036 108.735 133.739C106.109 133.059 93.5954 133.994 86.2354 136.072V172.324C92.0515 173.376 98.719 173.885 105.103 173.763C111.555 173.638 115.664 172.89 116.875 172.202C118.101 171.503 118.695 170.489 118.506 169.414C118.23 167.875 116.606 166.941 115.119 166.701C114.968 166.679 114.756 166.652 114.495 166.625C114.442 166.625 114.385 166.618 114.336 166.614C114.298 166.614 114.26 166.606 114.222 166.599C112.716 166.47 110.033 166.337 108.126 166.242C107.26 166.2 106.522 166.162 106.052 166.135C105.515 166.105 105.103 165.638 105.133 165.098C105.163 164.559 105.629 164.149 106.166 164.175L106.17 164.168Z" fill="white"/>
<path d="M181.65 131.593L165.45 158.451H197.853L181.654 131.593H181.65ZM183.084 154.363H180.227V151.495H183.084V154.363ZM180.136 150.276L179.705 140.315H183.61L183.179 150.276H180.14H180.136Z" fill="#B3CAFF"/>
<path d="M217.25 69.3467L183.318 80.8418H212.395C212.936 80.8418 213.371 81.2824 213.371 81.8218V167.328C217.662 167.583 221.991 166.804 225.927 165.061C239.054 159.233 245.369 144.107 240.299 130.628L217.254 69.3505L217.25 69.3467Z" fill="#6099FF"/>
<path d="M165.557 42.9412H169.477C169.227 42.4208 169.068 41.8472 169.019 41.2432C168.841 39.0285 170.177 36.981 172.27 36.263C174.831 35.3855 178.99 34.1167 183.531 33.3493C182.755 33.1138 181.855 32.9429 180.882 32.9429C178.025 32.9429 169.008 36.4415 166.499 38.2763C163.926 40.1605 165.348 42.6031 165.519 42.8767C165.53 42.8957 165.538 42.9184 165.549 42.9412H165.557Z" fill="white"/>
<path d="M117.393 62.4253C117.453 62.5545 117.487 62.695 117.487 62.847V67.1662L136.566 67.8499C135.405 62.0986 132.657 58.4518 127.954 56.4194C125.35 59.1052 121.949 61.0577 117.393 62.4253Z" fill="black"/>
<path d="M39.0592 37.2015C36.1 37.2015 33.6934 34.7855 33.6934 31.8149C33.6934 28.8442 36.1 26.4282 39.0592 26.4282C42.0183 26.4282 44.425 28.8442 44.425 31.8149C44.425 34.7855 42.0183 37.2015 39.0592 37.2015ZM39.0592 28.3884C37.1785 28.3884 35.6497 29.9231 35.6497 31.8111C35.6497 33.6991 37.1785 35.2338 39.0592 35.2338C40.9398 35.2338 42.4686 33.6991 42.4686 31.8111C42.4686 29.9231 40.9398 28.3884 39.0592 28.3884Z" fill="#6099FF"/>
<path d="M158.318 60.4954C158.068 60.4954 157.818 60.4004 157.626 60.2067C157.243 59.823 157.243 59.2038 157.626 58.8201L167.093 49.3156C167.475 48.9319 168.096 48.9319 168.474 49.3156C168.857 49.6993 168.857 50.3185 168.474 50.7021L159.007 60.2067C158.817 60.3966 158.564 60.4954 158.314 60.4954H158.318Z" fill="black"/>
<path d="M167.786 60.4954C167.536 60.4954 167.286 60.4004 167.093 60.2067L157.626 50.7021C157.243 50.3185 157.243 49.6993 157.626 49.3156C158.008 48.9319 158.625 48.9319 159.007 49.3156L168.474 58.8201C168.857 59.2038 168.857 59.823 168.474 60.2067C168.285 60.3966 168.032 60.4954 167.782 60.4954H167.786Z" fill="black"/>
<path d="M107.56 43.7054C108.694 41.3359 107.7 38.4922 105.339 37.3538C102.979 36.2155 100.146 37.2135 99.0122 39.5831C97.8782 41.9526 98.8724 44.7964 101.233 45.9347C103.593 47.073 106.426 46.075 107.56 43.7054Z" fill="#FFA9AC"/>
<path d="M188.307 6.19942H170.745C170.204 6.19942 169.769 5.75877 169.769 5.21934C169.769 4.67992 170.208 4.23926 170.745 4.23926H188.307C188.848 4.23926 189.283 4.67992 189.283 5.21934C189.283 5.75877 188.844 6.19942 188.307 6.19942Z" fill="#6099FF"/>
<path d="M183.296 12.384H170.741C170.2 12.384 169.765 11.9433 169.765 11.4039C169.765 10.8645 170.204 10.4238 170.741 10.4238H183.296C183.838 10.4238 184.273 10.8645 184.273 11.4039C184.273 11.9433 183.834 12.384 183.296 12.384Z" fill="#6099FF"/>
<path d="M123.198 117.363C124.227 117.363 124.795 117.952 124.795 118.662C124.795 119.209 124.269 119.901 123.198 119.901H115.819C114.869 119.901 114.324 119.392 114.324 118.499V105.796C114.324 105.044 114.971 104.516 115.842 104.516H123.239C124.269 104.516 124.795 105.085 124.795 105.796C124.795 106.366 124.348 107.011 123.239 107.011H117.821V110.947H122.551C123.58 110.947 124.045 111.494 124.045 112.204C124.045 112.774 123.663 113.424 122.551 113.424H117.821V117.359H123.198V117.363Z" fill="black"/>
<path d="M130.414 118.34C130.414 119.434 129.506 119.901 128.696 119.901C127.886 119.901 126.937 119.434 126.937 118.34V105.678C126.937 104.888 127.421 104.523 128.129 104.523H132.658C135.772 104.523 138.52 105.496 138.52 108.884C138.52 111.278 136.964 112.66 135.428 113.147L138.054 117.47C138.561 118.26 138.501 119.194 137.63 119.681C136.68 120.209 135.772 119.802 135.326 119.073L132.03 113.534H130.414V118.343V118.34ZM132.579 111.095C134.096 111.095 135.084 110.586 135.084 109.067C135.084 107.547 134.115 107.015 132.579 107.015H130.414V111.095H132.579Z" fill="black"/>
<path d="M143.98 118.34C143.98 119.434 143.071 119.901 142.262 119.901C141.452 119.901 140.502 119.434 140.502 118.34V105.678C140.502 104.888 140.986 104.523 141.694 104.523H146.223C149.338 104.523 152.085 105.496 152.085 108.884C152.085 111.278 150.53 112.66 148.993 113.147L151.62 117.47C152.127 118.26 152.066 119.194 151.196 119.681C150.246 120.209 149.338 119.802 148.891 119.073L145.595 113.534H143.98V118.343V118.34ZM146.14 111.095C147.658 111.095 148.645 110.586 148.645 109.067C148.645 107.547 147.677 107.015 146.14 107.015H143.976V111.095H146.14Z" fill="black"/>
<path d="M153.905 115.194C153.886 114.222 153.863 113.245 153.863 112.273C153.863 111.3 153.882 110.324 153.905 109.31C153.965 105.8 156.592 104.52 160.069 104.52C163.547 104.52 166.052 105.94 166.214 109.31C166.294 111.259 166.275 113.348 166.214 115.194C166.154 118.583 163.486 120.003 160.069 120.003C156.652 120.003 153.965 118.704 153.905 115.194ZM160.069 107.015C158.31 107.015 157.341 107.767 157.28 109.329C157.239 111.297 157.239 113.245 157.28 115.194C157.341 116.797 158.31 117.489 160.069 117.489C161.708 117.489 162.756 116.717 162.858 115.175C162.998 113.249 162.919 111.361 162.858 109.31C162.797 107.748 161.745 107.015 160.069 107.015Z" fill="black"/>
<path d="M172.603 118.34C172.603 119.434 171.694 119.901 170.885 119.901C170.075 119.901 169.125 119.434 169.125 118.34V105.678C169.125 104.888 169.609 104.523 170.317 104.523H174.846C177.961 104.523 180.708 105.496 180.708 108.884C180.708 111.278 179.153 112.66 177.616 113.147L180.243 117.47C180.75 118.26 180.689 119.194 179.819 119.681C178.869 120.209 177.961 119.802 177.514 119.073L174.218 113.534H172.603V118.343V118.34ZM174.767 111.095C176.284 111.095 177.272 110.586 177.272 109.067C177.272 107.547 176.303 107.015 174.767 107.015H172.603V111.095H174.767Z" fill="black"/>
<path d="M108.807 32.8365C107.596 32.8783 106.65 33.9002 106.692 35.1158C106.733 36.3314 107.751 37.2811 108.962 37.2393C110.173 37.1975 111.119 36.1756 111.077 34.96C111.036 33.7444 110.018 32.7909 108.807 32.8365Z" fill="black"/>
<path d="M124.457 32.7149C123.247 32.7567 122.301 33.7786 122.342 34.9942C122.384 36.2098 123.402 37.1633 124.613 37.1177C125.823 37.0759 126.769 36.0541 126.728 34.8385C126.686 33.6229 125.668 32.6694 124.457 32.7149Z" fill="black"/>
<path d="M179.705 140.315L180.136 150.276H183.175L183.606 140.315H179.705Z" fill="black"/>
<path d="M183.085 151.495H180.228V154.363H183.085V151.495Z" fill="black"/>
<path d="M92.8915 37.4331C90.5946 36.1491 88.082 36.1035 87.976 36.1035H87.9647C87.4311 36.1035 86.9959 36.5328 86.9884 37.0722C86.9808 37.6116 87.4122 38.0599 87.9495 38.0675C87.9722 38.0675 90.0875 38.1169 91.9417 39.1501C92.0931 39.2337 92.2558 39.2755 92.4147 39.2755C92.7591 39.2755 93.0921 39.0931 93.2699 38.7703C93.531 38.2954 93.3645 37.699 92.8915 37.4369V37.4331Z" fill="black"/>
<path d="M120.307 39.0399C118.555 37.6344 116.724 38.5689 116.001 39.2603C115.611 39.6325 115.592 40.2593 115.963 40.6506C116.156 40.8557 116.413 40.9583 116.671 40.9583C116.909 40.9583 117.151 40.8709 117.34 40.6886C117.549 40.4987 118.283 39.9326 119.085 40.5746C119.509 40.9127 120.122 40.8443 120.458 40.4189C120.795 39.9972 120.727 39.378 120.303 39.0399H120.307Z" fill="black"/>
<path d="M218.748 67.7664C218.563 67.2726 218.022 67.0143 217.522 67.1814L211.438 69.2441C211.755 66.6572 211.808 63.5042 211.589 59.8498C211.192 53.2057 209.133 46.8466 205.637 41.4675C203.222 37.7523 201.065 35.9061 199.041 35.8187C198.753 35.8073 198.454 35.7921 198.144 35.7769C198.05 35.7731 197.955 35.7693 197.857 35.7655C197.834 35.739 197.819 35.7124 197.792 35.6858C196.684 34.5651 194.3 32.6847 190.777 32.6847C189.581 32.6847 188.37 32.7531 187.163 32.8671C186.319 32.3239 183.931 30.9829 180.885 30.9829C177.404 30.9829 167.928 34.8083 165.352 36.6924C162.691 38.6412 162.778 41.2548 163.399 42.9414H152.259C151.718 42.9414 151.282 43.3821 151.282 43.9215V65.6011C151.282 66.1443 151.721 66.5812 152.259 66.5812H163.111C163.111 66.5812 163.104 66.6154 163.104 66.6306C162.869 68.6135 164.322 70.6345 166.805 71.7855C170.123 73.3202 173.563 73.7761 174.868 73.8976C175.523 75.0145 177.298 77.9053 179.383 80.101L177.211 80.838H173.589L171.213 79.045C161.794 71.9337 150.359 68.0361 138.576 67.9184C138.576 67.8842 138.568 67.85 138.56 67.8158C137.368 61.4946 134.337 57.2476 129.301 54.8734C133.509 49.4715 135.113 41.3801 134.197 30.2003C134.11 29.1253 133.967 28.0502 133.777 26.9942C135.412 18.3748 134.19 11.7497 130.145 7.30514C124.234 0.809241 114.414 1.27649 112.783 1.40565C108.25 -0.106264 103.145 -0.402568 97.6055 0.528131C97.2763 0.585113 96.9168 0.649692 96.5384 0.725668C81.614 3.73809 71.0981 14.5912 67.6811 30.5004L65.4561 40.8635C63.3332 40.7495 57.922 40.8711 53.3887 44.3964C49.9112 47.1049 47.7467 51.1962 46.952 56.5676C45.8736 56.5752 43.974 56.712 41.749 57.4261C38.6233 58.4328 34.2262 60.8184 31.0363 66.4824C29.6854 68.8794 28.9323 72.1692 28.9626 75.5083C28.9853 78.1826 29.5302 82.103 31.9596 85.7308C31.9861 85.7954 32.0201 85.86 32.0618 85.9207L33.8176 88.4165C29.4091 92.7851 25.6062 97.7729 22.5827 103.179L3.41264 137.493C-1.20013 145.748 -1.1358 155.537 3.56779 163.723C8.32435 171.997 17.2093 176.996 26.7225 176.996H85.2505C85.7916 176.996 86.2268 176.556 86.2268 176.016V174.307C91.8423 175.291 97.9914 175.728 103.41 175.728C110.176 175.728 115.807 175.048 117.827 173.896C118.236 173.665 118.596 173.403 118.914 173.118H212.384C212.925 173.118 213.36 172.677 213.36 172.138V169.296C213.893 169.327 214.423 169.342 214.957 169.342C218.991 169.342 223.013 168.495 226.706 166.854C240.783 160.605 247.553 144.388 242.115 129.93L218.737 67.7626L218.748 67.7664ZM166.502 38.2765C169.011 36.4417 178.028 32.9431 180.885 32.9431C181.858 32.9431 182.758 33.114 183.534 33.3495C178.993 34.1169 174.834 35.3857 172.273 36.2632C170.18 36.9812 168.844 39.0287 169.022 41.2434C169.071 41.8474 169.23 42.421 169.48 42.9414H165.56C165.548 42.9186 165.541 42.8958 165.529 42.8768C165.359 42.6033 163.936 40.1607 166.509 38.2765H166.502ZM163.997 64.621H153.231V44.9054H171.183C171.69 45.2397 172.257 45.4828 172.87 45.6044V61.4946C171.818 61.5592 170.748 61.6808 169.665 61.8973C167.959 62.2354 165.367 62.9989 163.997 64.621ZM176.31 72.4845C176.147 72.1882 175.841 71.9982 175.504 71.9792C175.463 71.9792 171.383 71.7475 167.618 70.0039C165.972 69.2441 164.913 67.9525 165.041 66.8661C165.196 65.5517 167.069 64.4121 170.048 63.8233C173.627 63.1129 177.245 63.4624 180.155 63.7435C182.686 63.9866 184.514 64.1652 185.744 63.6561C187.753 62.8242 188.098 57.0691 188.154 55.3254C188.23 52.9816 188.196 45.1979 184.48 43.3631C182.599 42.4324 179.667 42.9224 177.075 43.3517C175.739 43.572 174.475 43.7848 173.669 43.7392C172.246 43.6632 171.084 42.5236 170.967 41.0876C170.861 39.7695 171.656 38.55 172.901 38.1246C176.685 36.8292 184.041 34.6525 190.777 34.6525C192.309 34.6525 193.577 35.1046 194.557 35.6592C189.971 35.5984 185.203 36.0732 184.151 39.2946C183.606 40.9623 184.105 42.1057 184.624 42.7705C186.561 45.2739 192.04 45.3081 193.917 45.2435L197.039 49.8856C197.342 50.3338 197.951 50.4516 198.398 50.1477C198.844 49.8438 198.962 49.236 198.659 48.7839L195.227 43.686C195.034 43.3973 194.697 43.2339 194.353 43.2567C191.825 43.4277 187.367 43.1162 186.168 41.5663C185.956 41.2928 185.71 40.8255 186.009 39.9024C186.879 37.2319 193.876 37.5472 198.053 37.7371C198.364 37.7523 198.666 37.7637 198.954 37.7789C199.703 37.8093 201.353 38.4703 203.994 42.5388C207.305 47.6367 209.254 53.6616 209.633 59.9675C209.86 63.7625 209.788 66.9839 209.421 69.5366C209.402 69.6658 209.409 69.795 209.44 69.9165L181.445 79.402C178.774 76.9138 176.329 72.5301 176.306 72.4845H176.31ZM174.827 61.4415V45.6537C175.606 45.5816 176.484 45.4334 177.392 45.2815C179.576 44.9168 182.297 44.4647 183.613 45.1181C184.749 45.6803 185.619 47.7013 186.001 50.6643C186.648 55.6673 185.71 61.0996 184.945 61.8555C184.136 62.1518 182.289 61.9733 180.336 61.7871C178.683 61.6276 176.81 61.449 174.823 61.4415H174.827ZM136.566 67.85L117.487 67.1662V62.847C117.487 62.695 117.453 62.5545 117.392 62.4253C121.948 61.0578 125.354 59.1052 127.954 56.4195C132.661 58.448 135.408 62.0948 136.566 67.85ZM108.81 62.1936C108.277 62.2658 107.898 62.7596 107.97 63.2952C108.034 63.7891 108.454 64.1462 108.939 64.1462C108.98 64.1462 109.026 64.1462 109.067 64.1386C111.429 63.8233 113.578 63.4244 115.531 62.9344V67.6031C114.641 68.2071 112.208 69.6848 108.753 70.4559C103.058 71.7285 97.333 70.6003 91.7326 67.1054L92.058 44.7496C92.058 44.7496 92.058 44.7306 92.058 44.723C92.058 44.7041 92.058 44.6851 92.058 44.6661C92.058 44.6471 92.058 44.6319 92.0543 44.6129C92.0543 44.6015 92.0543 44.5939 92.0543 44.5825C92.0543 44.5787 92.0543 44.5749 92.0543 44.5673C92.0543 44.5483 92.0467 44.5293 92.0429 44.5103C92.0429 44.4989 92.0391 44.4837 92.0353 44.4723C92.0315 44.4533 92.024 44.4343 92.0164 44.4153C92.0126 44.4039 92.0088 44.3888 92.0013 44.3774C91.9937 44.3622 91.9861 44.347 91.9824 44.328C91.9748 44.3128 91.971 44.3014 91.9634 44.2862C91.9559 44.271 91.9483 44.2596 91.9407 44.2482C91.9332 44.233 91.9256 44.2178 91.9142 44.2026C91.9067 44.1912 91.8991 44.1798 91.8915 44.1684C91.8802 44.1532 91.8688 44.138 91.8575 44.1228C91.8499 44.1114 91.8423 44.1038 91.8348 44.0925C91.8234 44.0773 91.8121 44.0621 91.7969 44.0507C91.7894 44.0431 91.778 44.0317 91.7704 44.0241C91.7553 44.0089 91.744 43.9975 91.7288 43.9861C91.7213 43.9785 91.7099 43.9709 91.6986 43.9633C91.6834 43.9519 91.6683 43.9405 91.6531 43.9291C91.6418 43.9215 91.6342 43.9177 91.6229 43.9101C91.6077 43.8987 91.5888 43.8873 91.5737 43.8797C91.5623 43.8759 91.5548 43.8683 91.5434 43.8645C91.5245 43.8531 91.5056 43.8455 91.4866 43.8379C91.4791 43.8341 91.4677 43.8303 91.4602 43.8265C91.4374 43.8189 91.4185 43.8075 91.3958 43.7999C91.3883 43.7999 91.3807 43.7961 91.3731 43.7924C91.3504 43.7848 91.3239 43.7772 91.3012 43.7734C91.2974 43.7734 91.2899 43.7734 91.2861 43.7734C91.2596 43.7696 91.2331 43.762 91.2066 43.7582C91.2028 43.7582 91.1953 43.7582 91.1915 43.7582C91.165 43.7582 91.1385 43.7544 91.112 43.7544C91.112 43.7544 91.1082 43.7544 91.1045 43.7544C91.1007 43.7544 91.0931 43.7544 91.0893 43.7544C91.0893 43.7544 91.0855 43.7544 91.0817 43.7544C91.0363 43.7544 90.9872 43.7544 90.9417 43.7658C90.4006 43.8493 89.8519 43.8569 89.3032 43.7848C87.7593 43.5872 86.382 42.7971 85.4322 41.5587C84.4786 40.3203 84.0661 38.7856 84.2629 37.2357C84.4596 35.6858 85.2467 34.303 86.4803 33.3495C87.7139 32.3922 89.2427 31.9744 90.7866 32.1757C91.7591 32.3011 92.69 32.6695 93.4733 33.247C93.5263 33.2849 93.583 33.3191 93.6436 33.3457C93.7003 33.3723 93.7571 33.3913 93.8176 33.4065C93.8214 33.4065 93.8252 33.4065 93.829 33.4065C93.8593 33.4141 93.8933 33.4179 93.9236 33.4255C93.9425 33.4255 93.9652 33.4255 93.9841 33.4293C93.9993 33.4293 94.0106 33.4293 94.0257 33.4293C94.0333 33.4293 94.0409 33.4293 94.0484 33.4293C94.0787 33.4293 94.1052 33.4255 94.1355 33.4217C94.162 33.4217 94.1847 33.4217 94.2112 33.4141C94.249 33.4065 94.2906 33.3951 94.3285 33.3837C94.3474 33.3761 94.3701 33.3723 94.389 33.3647C94.4344 33.3457 94.4798 33.3267 94.5215 33.3001C94.5366 33.2925 94.5555 33.2811 94.5707 33.2698C94.6161 33.2394 94.6577 33.209 94.6993 33.1748C94.7144 33.1596 94.7258 33.1444 94.7409 33.1292C94.7712 33.0988 94.8015 33.0684 94.828 33.0342C94.8318 33.0304 94.8355 33.0266 94.8393 33.019C94.8507 33.0038 94.8545 32.9886 94.8658 32.9772C94.8885 32.9431 94.9074 32.9089 94.9264 32.8747C94.9377 32.8519 94.9491 32.8253 94.9566 32.7987C94.968 32.7683 94.9793 32.7341 94.9907 32.7037C94.9983 32.6733 95.0058 32.643 95.0096 32.6126C95.0096 32.5974 95.0172 32.5784 95.021 32.5632L95.3918 29.6039C97.2346 29.6381 101.586 29.5432 106.362 28.2326C114.267 26.0635 119.67 21.5163 122.058 15.047C124.317 16.1487 130.114 19.655 131.84 27.1765C132.033 28.2174 132.173 29.2848 132.26 30.3447C134.19 53.9807 124.726 60.0473 108.825 62.1784L108.81 62.1936ZM33.81 85.0014C33.7835 84.9445 33.757 84.8913 33.7192 84.8381C29.621 78.9272 30.6806 71.1093 32.7429 67.4473C35.036 63.375 38.2411 60.6399 42.2674 59.3217C45.2946 58.3303 47.6861 58.5506 47.7051 58.5544C48.2348 58.6076 48.7154 58.2239 48.776 57.6921C49.389 52.427 51.3378 48.48 54.5694 45.9577C59.5643 42.0601 66.0313 42.8768 66.0956 42.8844C66.6027 42.9528 67.0757 42.6185 67.1816 42.1171L69.5883 30.9107C72.835 15.7992 82.7984 5.49693 96.9206 2.64405C97.2763 2.57187 97.613 2.51109 97.9233 2.45791C103.221 1.56899 108.072 1.8615 112.344 3.32403C112.477 3.36961 112.621 3.38481 112.757 3.37341C112.859 3.36202 123.049 2.41232 128.703 8.63471C131.707 11.9396 132.941 16.7033 132.389 22.8193C128.972 15.4421 122.119 12.9235 121.782 12.8058C121.532 12.7184 121.256 12.7336 121.017 12.8551C120.779 12.9729 120.601 13.1856 120.522 13.4402C118.528 19.8639 113.601 24.2021 105.874 26.337C99.997 27.9591 94.6312 27.6286 94.5782 27.6248C94.0636 27.5906 93.6057 27.9667 93.5414 28.4833L93.2424 30.8689C92.5386 30.5498 91.7856 30.3295 91.0136 30.2307C88.9513 29.9648 86.9079 30.5232 85.2619 31.7996C83.6158 33.076 82.5638 34.9184 82.299 36.9888C82.0341 39.0591 82.5903 41.1104 83.8618 42.7629C85.1332 44.4153 86.9685 45.4714 89.0308 45.7335C89.3638 45.7753 89.6968 45.7981 90.0298 45.7981C90.0449 45.7981 90.0601 45.7981 90.0752 45.7981L89.7687 66.8091L69.2893 70.2356C59.6021 71.8539 50.2366 75.7058 42.1993 81.3736C39.7548 83.0983 37.4276 84.9938 35.2328 87.0414L33.7949 84.9976L33.81 85.0014ZM84.278 175.036H26.4614C17.6785 175.036 9.785 170.493 5.34629 162.888C0.907591 155.279 0.824341 146.146 5.11925 138.458L24.2893 104.143C28.9513 95.8013 35.5355 88.4849 43.3345 82.9843C51.1334 77.4837 60.2227 73.7495 69.6223 72.1768L90.5368 68.6781C95.6718 71.9223 100.413 72.9175 104.288 72.9175C106.173 72.9175 107.849 72.682 109.272 72.3591C113.253 71.4512 115.943 69.7266 116.81 69.1112L138.205 69.5936C149.591 69.8481 160.618 73.6355 169.775 80.4277L170.339 80.8456H80.8875C80.3464 80.8456 79.9112 81.2862 79.9112 81.8257V131.62L53.0292 132.019C53.0368 131.969 53.0444 131.916 53.0444 131.863V108.277C53.0444 107.764 52.6698 107.308 52.1627 107.258C51.5799 107.201 51.088 107.661 51.088 108.235V131.863C51.088 131.928 51.0956 131.988 51.1069 132.049L39.0434 132.228C38.5022 132.235 38.0709 132.68 38.0822 133.223C38.0898 133.759 38.5249 134.188 39.0585 134.188C39.0623 134.188 39.0698 134.188 39.0736 134.188L84.278 133.516V175.036ZM106.052 166.124C106.517 166.151 107.259 166.189 108.125 166.231C110.032 166.326 112.715 166.459 114.221 166.588C114.259 166.595 114.293 166.599 114.335 166.603C114.384 166.603 114.441 166.61 114.494 166.614C114.755 166.641 114.967 166.664 115.118 166.69C116.605 166.93 118.229 167.864 118.505 169.403C118.698 170.478 118.104 171.496 116.874 172.191C115.663 172.878 111.554 173.627 105.102 173.752C98.718 173.878 92.0505 173.365 86.2344 172.312V136.061C93.5944 133.983 106.108 133.048 108.734 133.728C109.881 134.025 110.638 134.724 110.869 135.692C111.122 136.764 110.698 137.975 109.798 138.819C106.646 138.765 103.622 138.765 102.021 138.841C101.48 138.868 101.064 139.328 101.091 139.867C101.117 140.41 101.575 140.824 102.112 140.802C105.802 140.627 117.824 140.889 119.977 141.197L120.034 141.204C121.748 141.447 123.522 141.698 124.48 142.933C125.013 143.62 125.21 144.365 125.059 145.151C124.877 146.101 124.181 147.032 123.242 147.579C123.114 147.655 123.012 147.757 122.932 147.871C122.486 147.848 122.043 147.841 121.604 147.837C121.006 147.791 112.689 147.184 108.152 147.104C107.614 147.089 107.168 147.525 107.156 148.069C107.149 148.612 107.576 149.056 108.118 149.068C112.745 149.148 121.403 149.793 121.49 149.797C121.513 149.797 121.536 149.797 121.559 149.797C123.186 149.808 124.749 149.873 126.02 150.545C127.155 151.146 127.84 152.441 127.689 153.691C127.435 155.746 124.839 156.699 122.698 156.889C122.69 156.889 122.682 156.889 122.675 156.889C120.272 156.441 115.939 156.407 111.315 156.418C110.15 156.418 109.143 156.422 108.519 156.407C108.511 156.407 108.5 156.407 108.492 156.407C107.966 156.407 107.531 156.829 107.516 157.36C107.501 157.904 107.928 158.352 108.466 158.367C109.117 158.386 110.138 158.382 111.323 158.379C114.868 158.367 121.472 158.352 123.148 159.032C124.279 159.488 124.805 160.411 124.593 161.558C124.147 163.997 120.779 165.034 114.592 164.646C113.063 164.506 110.327 164.369 108.224 164.263C107.365 164.221 106.634 164.183 106.169 164.156C105.631 164.126 105.166 164.536 105.136 165.08C105.105 165.619 105.514 166.086 106.055 166.117L106.052 166.124ZM211.415 171.158H120.264C120.495 170.493 120.552 169.782 120.423 169.057C120.261 168.141 119.818 167.313 119.167 166.629C122.387 166.356 125.891 165.296 126.508 161.923C126.765 160.529 126.368 159.233 125.471 158.295C127.522 157.585 129.339 156.202 129.619 153.934C129.876 151.856 128.79 149.797 126.921 148.809C126.467 148.57 125.993 148.392 125.509 148.255C126.255 147.48 126.773 146.526 126.966 145.523C127.223 144.179 126.894 142.868 126.009 141.729C124.563 139.867 122.198 139.533 120.295 139.263L120.242 139.255C119.152 139.1 115.814 138.959 112.204 138.872C112.829 137.747 113.048 136.448 112.764 135.244C112.367 133.554 111.073 132.311 109.219 131.829C106.055 131.008 93.7117 132.03 86.2306 134.025V132.516C86.2306 132.516 86.2306 132.513 86.2306 132.509C86.2306 132.509 86.2306 132.505 86.2306 132.501V132.494C86.2306 132.433 86.223 132.368 86.2117 132.311C86.2117 132.308 86.2117 132.304 86.2117 132.3C86.1965 132.243 86.1814 132.186 86.1587 132.129C86.1587 132.125 86.1587 132.121 86.1549 132.118C86.1322 132.064 86.1019 132.011 86.0679 131.966C86.0679 131.966 86.0641 131.958 86.0603 131.958C86.0262 131.909 85.9884 131.863 85.9468 131.825C85.9468 131.825 85.943 131.821 85.9392 131.818C85.8976 131.776 85.8522 131.738 85.803 131.707C85.803 131.707 85.7992 131.707 85.7954 131.704C85.7462 131.669 85.6932 131.643 85.6365 131.616C85.6365 131.616 85.6365 131.616 85.6327 131.616C85.5759 131.593 85.5154 131.574 85.4548 131.563C85.3943 131.552 85.33 131.544 85.2619 131.544C85.2619 131.544 85.2505 131.544 85.2467 131.544L81.8751 131.593V92.5496H211.419V171.161L211.415 171.158ZM211.415 90.5818H81.8713V82.8019H177.385C177.385 82.8019 177.385 82.8019 177.389 82.8019H211.415V90.5818ZM225.927 165.061C221.995 166.808 217.662 167.587 213.371 167.328V81.8219C213.371 81.2786 212.932 80.8418 212.395 80.8418H183.318L217.25 69.3467L240.295 130.625C245.365 144.107 239.054 159.229 225.923 165.057L225.927 165.061Z" fill="black"/>
<path d="M139.212 145.079H152.002C152.543 145.079 152.978 144.638 152.978 144.099C152.978 143.559 152.539 143.119 152.002 143.119H139.212C138.671 143.119 138.235 143.559 138.235 144.099C138.235 144.638 138.674 145.079 139.212 145.079Z" fill="black"/>
<path d="M139.212 151.377H148.354C148.895 151.377 149.33 150.937 149.33 150.397C149.33 149.858 148.891 149.417 148.354 149.417H139.212C138.671 149.417 138.235 149.858 138.235 150.397C138.235 150.937 138.674 151.377 139.212 151.377Z" fill="black"/>
<path d="M115.198 42.9985C112.836 42.9985 110.918 44.9245 110.918 47.2949C110.918 49.6654 112.836 51.5914 115.198 51.5914C117.559 51.5914 119.478 49.6654 119.478 47.2949C119.478 44.9245 117.559 42.9985 115.198 42.9985ZM115.198 49.6274C113.915 49.6274 112.874 48.5827 112.874 47.2949C112.874 46.0072 113.915 44.9625 115.198 44.9625C116.481 44.9625 117.521 46.0072 117.521 47.2949C117.521 48.5827 116.481 49.6274 115.198 49.6274Z" fill="black"/>
<path d="M163.714 160.415H199.587C199.939 160.415 200.264 160.225 200.438 159.913C200.612 159.605 200.605 159.226 200.423 158.922L182.486 129.189C182.309 128.896 181.991 128.714 181.65 128.714C181.31 128.714 180.992 128.892 180.814 129.189L162.877 158.922C162.696 159.226 162.688 159.602 162.862 159.913C163.036 160.221 163.362 160.415 163.714 160.415ZM181.65 131.593L197.85 158.451H165.447L181.646 131.593H181.65Z" fill="black"/>
<path d="M200.782 67.1167C200.907 67.1167 201.032 67.0939 201.153 67.0407C201.653 66.8356 201.891 66.262 201.683 65.7605C200.052 61.7908 199.186 57.426 199.174 53.1334C199.174 52.594 198.735 52.1533 198.198 52.1533C197.657 52.1533 197.222 52.594 197.222 53.1372C197.233 57.6843 198.149 62.3074 199.878 66.5089C200.033 66.8888 200.396 67.1167 200.782 67.1167Z" fill="black"/>
<path d="M187.292 65.4795C189.437 65.924 190.815 66.9535 192.041 69.0314C192.223 69.3391 192.548 69.5138 192.881 69.5138C193.051 69.5138 193.222 69.4683 193.377 69.3771C193.842 69.0998 193.993 68.4996 193.721 68.0323C192.223 65.4947 190.361 64.1158 187.685 63.5612C187.156 63.451 186.641 63.7929 186.531 64.3247C186.422 64.8565 186.762 65.3732 187.292 65.4833V65.4795Z" fill="black"/>
</g>
<defs>
<clipPath id="clip0_2263_114508">
<rect width="244" height="177" fill="white"/>
</clipPath>
</defs>
</svg>
