<svg width="106" height="80" viewBox="0 0 106 80" fill="none" xmlns="http://www.w3.org/2000/svg">
<g clip-path="url(#clip0_575_27100)">
<path d="M91.1609 39.3864C87.0656 40.8197 82.9524 42.2175 78.8333 43.5798C76.7319 44.2728 74.4514 43.2363 73.5977 41.2107C73.5977 41.1988 73.5918 41.187 73.5858 41.181C72.2127 37.9412 69.4009 34.2572 68.798 32.587V32.5633C68.6667 32.2968 68.5532 32.0243 68.4577 31.7519C66.9832 27.7539 66.8339 19.5508 76.0155 17.614C76.0155 17.614 83.5793 15.8608 86.9462 22.6129C86.9462 22.6129 88.4626 25.7402 89.5371 28.0145C90.7669 30.6087 91.6982 31.4498 92.5101 32.0776C95.1428 34.1151 94.4622 38.2374 91.3161 39.339L91.1669 39.3923L91.1609 39.3864Z" fill="#24315D"/>
<path d="M49.0175 54.9701C49.0175 54.9701 55.1903 64.2038 70.7656 66.0517C73.2311 63.3213 75.9772 56.9187 77.804 51.6C78.4845 49.6099 78.5263 48.449 77.9413 47.223C77.3682 46.0206 76.3473 45.073 75.1235 44.534C74.843 44.4096 74.5743 44.4096 74.3295 44.919C73.7624 46.0799 73.2013 47.448 72.5625 48.7866C70.6163 52.8438 69.0881 56.5929 68.1508 59.0154C68.0612 58.9798 64.7838 57.7005 59.6677 56.4626C54.7187 55.2603 49.722 52.9148 49.722 52.9148L49.0235 54.9701H49.0175Z" fill="#225CCD"/>
<path d="M75.6432 49.568C75.3984 51.6765 74.7238 53.8147 75.6253 57.1729C75.9118 58.239 76.3536 59.086 77.1894 60.549C77.2312 60.6319 77.2789 60.7148 77.3326 60.7977L77.3864 61.2419C77.9296 64.9852 77.7863 63.001 77.7266 66.0809H97.2539L96.8002 41.7202L90.6334 41.1812L89.5708 41.0865H89.5111L87.8455 40.9325C87.7022 40.9206 87.5589 40.9088 87.4097 40.8969C85.171 40.7607 82.9323 41.1101 80.8369 41.9097L80.7653 41.9334L79.84 42.2888L79.7862 42.3125L78.8788 42.656L74.5388 44.3203C74.7596 45.2917 75.4521 48.5907 75.6491 49.568H75.6432Z" fill="#408CFF"/>
<path d="M81.7283 47.8153C81.8656 47.8153 82.0089 47.8093 82.1521 47.7916C86.7668 47.3296 88.2593 41.1284 88.319 40.8618C88.3548 40.7019 88.2533 40.542 88.0981 40.5065C87.9369 40.4709 87.7757 40.5657 87.7399 40.7256C87.728 40.7848 86.2773 46.7788 82.0925 47.1993C81.2388 47.2822 80.5045 47.069 79.9075 46.5655C78.3553 45.2566 78.1643 42.4373 78.1643 42.4077C78.1524 42.2419 78.0031 42.1234 77.8479 42.1293C77.6808 42.1412 77.5554 42.2774 77.5673 42.4432C77.5733 42.5676 77.7822 45.5468 79.5195 47.0157C80.1403 47.5428 80.8866 47.8093 81.7283 47.8093V47.8153Z" fill="white"/>
<path d="M77.3261 60.7978C77.344 60.9458 77.3679 61.0939 77.3799 61.242C78.4485 61.4671 81.8095 61.935 87.5166 60.5786C88.2569 60.4009 89.0389 60.1936 89.8568 59.9508C90.0239 59.9034 90.1194 59.7257 90.0717 59.5599C90.0239 59.3941 89.8448 59.2993 89.6777 59.3467C81.4393 61.775 77.2366 60.5549 77.1948 60.5431C77.1948 60.5431 77.1888 60.5431 77.1829 60.5431C77.2306 60.626 77.2724 60.7089 77.3261 60.7918V60.7978Z" fill="#225CCD"/>
<path d="M71.9297 31.9833C71.9297 31.9833 70.1149 30.8521 69.6493 32.4868C69.1896 34.1156 71.8879 37.4916 73.8281 35.7443L71.9297 31.9833Z" fill="#FF8B6B"/>
<path d="M72.7136 35.8384C72.7972 36.0634 72.6778 36.3181 72.4449 36.401C72.2181 36.484 71.9614 36.3655 71.8778 36.1345C71.7942 35.9035 71.9136 35.6548 72.1465 35.5719C72.3793 35.4889 72.63 35.6074 72.7136 35.8384Z" fill="white"/>
<path d="M72.9044 34.7371C72.8209 34.7668 72.7253 34.7371 72.6716 34.672C71.8896 33.6118 70.415 33.594 70.4031 33.594C70.2897 33.594 70.2061 33.5052 70.2061 33.3986C70.2061 33.292 70.3016 33.2031 70.415 33.2031C70.4867 33.2031 72.1104 33.2209 73.0059 34.441C73.0716 34.5298 73.0477 34.6483 72.9522 34.7135C72.9343 34.7253 72.9223 34.7312 72.9044 34.7371Z" fill="#D85C48"/>
<path d="M71.3746 34.6069C71.3388 34.6187 71.297 34.6246 71.2612 34.6128C71.1537 34.5891 71.0881 34.4884 71.112 34.3818C71.112 34.364 71.2254 33.9494 71.6373 33.5763C71.7209 33.4993 71.8462 33.4993 71.9239 33.5763C72.0015 33.6533 71.9955 33.7777 71.9119 33.8488C71.5955 34.139 71.506 34.4588 71.506 34.4588C71.4881 34.524 71.4343 34.5773 71.3746 34.601V34.6069Z" fill="#D85C48"/>
<path d="M84.4667 36.6025L86.1621 41.3171C86.1621 41.3171 84.5622 43.787 82.8966 44.5451C81.231 45.3032 79.9117 43.5027 79.9117 43.5027L78.3357 39.1198L84.4727 36.6085L84.4667 36.6025Z" fill="#FFAA95"/>
<path d="M84.634 37.065L85.3086 38.9425C84.6101 40.6246 82.7237 41.8033 79.5238 42.4311L78.4911 39.5704L84.628 37.0591L84.634 37.065Z" fill="#FF8B6B"/>
<path d="M71.8224 34.0445C72.0433 34.4828 72.2702 34.9211 72.5209 35.3535C74.1686 38.2261 77.3147 40.844 79.9832 40.5241C85.744 39.8371 86.4604 34.9033 86.2097 31.5392C86.1798 31.166 85.8634 30.8403 85.7918 30.4079C85.6246 29.3892 85.6246 28.1691 85.3261 27.0674C85.1232 26.3034 84.9023 25.5571 84.6933 24.8878C84.1083 22.9925 82.4069 21.6717 80.4667 21.6006C77.6728 21.4999 73.679 22.0567 70.8911 25.3498C69.8643 26.5699 69.5539 28.2579 70.0733 29.8038C70.4732 30.9824 71.0523 32.5046 71.8224 34.0445Z" fill="#FFAA95"/>
<path d="M79.1778 34.1091C79.2793 34.0735 79.339 33.9729 79.3211 33.8662C79.2972 33.7478 79.1838 33.6708 79.0644 33.6886L78.3122 33.8248L78.3599 30.893C78.3599 30.7745 78.2644 30.6738 78.145 30.6738C78.0256 30.6738 77.9241 30.7686 77.9241 30.8871L77.8704 34.3519L79.1479 34.1269C79.1479 34.1269 79.1718 34.1269 79.1838 34.115L79.1778 34.1091Z" fill="#FF8B6B"/>
<path d="M72.0185 28.1573C70.2753 29.8393 71.8215 32.0545 71.5588 33.5352C71.5409 33.63 71.4991 33.6655 71.4334 33.6418C70.6454 32.0782 70.0544 30.5264 69.6485 29.3241C69.1171 27.7486 69.4634 26.0191 70.5559 24.7575C73.5169 21.3519 77.7196 20.7418 80.6508 20.8129C82.6865 20.8603 84.4596 22.1989 85.0565 24.1297C85.2655 24.8168 85.4864 25.5749 85.6953 26.3508C85.4207 26.6765 84.6148 27.0674 84.776 27.636C85.2058 29.1286 85.4923 30.1473 85.158 30.171C84.5849 30.2066 83.6298 28.5541 83.8089 27.2037C83.8089 27.2037 83.0567 26.6055 80.8478 26.5522C78.0181 26.4811 75.1168 25.9243 75.1168 25.9243C75.1168 25.9243 73.9706 25.6933 73.3856 25.2077C73.3856 25.2077 73.3438 26.8838 72.0185 28.1632V28.1573Z" fill="#24315D"/>
<path d="M75.5252 31.5451C75.6864 31.9953 75.5849 32.4454 75.2923 32.552C74.9998 32.6527 74.6357 32.3684 74.4745 31.9183C74.3133 31.4681 74.4148 31.018 74.7073 30.9114C74.9998 30.8107 75.364 31.095 75.5252 31.5451Z" fill="#29245D"/>
<path d="M81.1951 29.5367C81.3563 29.9868 81.2548 30.437 80.9623 30.5436C80.6697 30.6443 80.3056 30.3659 80.1444 29.9098C79.9832 29.4538 80.0847 29.0096 80.3772 28.903C80.6697 28.7963 81.0339 29.0866 81.1951 29.5367Z" fill="#29245D"/>
<path d="M72.8138 30.0874C73.2078 29.8564 74.0137 29.4181 74.9331 29.1279C75.1778 29.0509 75.4285 29.1634 75.4644 29.3648C75.4942 29.5307 75.3689 29.6906 75.1718 29.7439C74.5331 29.9156 72.9212 30.502 72.2466 30.9936C72.1869 30.8929 72.2168 30.7508 72.2884 30.6145C72.3959 30.4072 72.5869 30.2295 72.8138 30.0933V30.0874Z" fill="#29245D"/>
<path d="M81.2859 27.1975C80.8322 27.2568 79.9308 27.4167 79.0293 27.7543C78.7905 27.8431 78.6592 28.0919 78.7607 28.2696C78.8383 28.4176 79.0353 28.465 79.2263 28.3821C79.8352 28.1274 81.465 27.5825 82.3008 27.547C82.2829 27.4285 82.1694 27.3397 82.0321 27.2745C81.8172 27.1738 81.5546 27.1561 81.2919 27.1916L81.2859 27.1975Z" fill="#29245D"/>
<path d="M77.3277 36.1469C77.7396 36.8103 78.7246 37.9534 80.4439 37.3493C82.1632 36.7392 82.211 35.3592 82.0796 34.4648L77.3277 36.1469Z" fill="white"/>
<path d="M80.8622 38.5928C80.3668 38.7705 79.8354 38.6579 79.8116 38.652C79.6981 38.6283 79.6205 38.5158 79.6444 38.3973C79.6683 38.2848 79.7817 38.2078 79.9011 38.2315C79.9011 38.2315 80.3369 38.3203 80.719 38.1841C81.1309 38.042 81.4174 37.6925 81.4174 37.6925C81.495 37.6037 81.6264 37.5859 81.7219 37.6629C81.8115 37.7399 81.8294 37.8702 81.7518 37.965C81.7398 37.9827 81.3876 38.4033 80.8622 38.5928Z" fill="#FF8B6B"/>
<path d="M84.7593 27.4284C84.7593 27.4284 85.5832 25.1599 86.8965 26.1194C88.2099 27.0789 88.3412 31.2368 85.9115 31.0709L84.7593 27.4284Z" fill="#FFAA95"/>
<path d="M87.2605 30.686C87.344 30.917 87.2246 31.1658 86.9918 31.2487C86.765 31.3316 86.5083 31.2132 86.4247 30.9822C86.3411 30.7571 86.4605 30.5024 86.6933 30.4195C86.9202 30.3366 87.1769 30.455 87.2605 30.686Z" fill="white"/>
<path d="M85.9545 29.7562C86.0321 29.7266 86.0859 29.6496 86.0799 29.5667C85.9903 28.2992 87.0231 27.4048 87.0351 27.3989C87.1127 27.3338 87.1246 27.2153 87.0589 27.1324C86.9933 27.0554 86.8739 27.0435 86.7963 27.1087C86.7485 27.1502 85.6083 28.1274 85.7098 29.5904C85.7157 29.6911 85.8053 29.774 85.9127 29.7621C85.9306 29.7621 85.9486 29.7621 85.9605 29.7503L85.9545 29.7562Z" fill="#FF8B6B"/>
<path d="M86.9566 28.7432C86.9925 28.7314 87.0223 28.7136 87.0402 28.684C87.1059 28.6011 87.088 28.4826 87.0044 28.4234C86.9925 28.4116 86.6641 28.1687 86.1447 28.1273C86.0433 28.1214 85.9477 28.1983 85.9418 28.299C85.9358 28.3997 86.0134 28.4945 86.1149 28.5004C86.5149 28.53 86.7716 28.7196 86.7716 28.7196C86.8253 28.761 86.891 28.7669 86.9507 28.7492L86.9566 28.7432Z" fill="#FF8B6B"/>
<path d="M61.3509 61.7811L65.7387 56.9362C66.2939 56.3261 66.2402 55.3785 65.6253 54.8336L53.2559 43.8052L48.1397 39.2446L41.7461 46.3047L44.7728 49.0055L59.2257 61.8877C59.8406 62.4385 60.7898 62.3911 61.345 61.7752L61.3509 61.7811Z" fill="#3676D7"/>
<path d="M44.7729 49.0055C47.3339 48.1526 50.5875 46.6008 53.25 43.8052L48.1339 39.2446L41.7402 46.3047L44.7669 49.0055H44.7729Z" fill="#285CAA"/>
<path d="M65.5312 57.166L61.5613 61.5497L81.4774 79.3038C82.6009 80.3053 84.3376 80.2132 85.3471 79.0985L85.6503 78.7637C86.6597 77.6491 86.5669 75.926 85.4434 74.9245L65.5273 57.1704L65.5312 57.166Z" fill="#0C1A3D"/>
<path d="M6.99117 8.75386C16.9787 -2.16196 33.9986 -2.97931 45.001 6.93554C56.0033 16.8445 56.8272 33.7305 46.8337 44.6464C36.8462 55.5622 19.8263 56.3795 8.8239 46.4647C-2.17846 36.5557 -3.0023 19.6697 6.9852 8.75386H6.99117ZM43.7831 41.8922C52.2304 32.6644 51.5319 18.343 42.231 9.96212C32.93 1.58128 18.495 2.27426 10.0477 11.5021C1.60043 20.7299 2.29889 35.0513 11.5999 43.4322C20.9008 51.8071 35.3358 51.12 43.7831 41.8922Z" fill="#24345D"/>
<path opacity="0.5" d="M19.3371 48.0161C31.1812 52.1621 44.2193 45.9668 48.3982 34.2099C48.7564 33.203 49.0369 32.1843 49.2459 31.1656C49.7832 28.524 49.8309 25.8646 49.4309 23.3C49.0131 20.6229 48.1176 18.0524 46.8042 15.7069C44.7387 12.017 41.6344 8.8897 37.7241 6.80486C36.6973 6.25996 35.6168 5.78021 34.4885 5.38337C22.6384 1.23738 9.60035 7.43268 5.42745 19.1836C5.02747 20.309 4.72301 21.4402 4.51407 22.5774C3.70218 26.907 4.20961 31.2722 5.80952 35.1813C6.82439 37.6689 8.28699 39.9728 10.1257 41.9748C11.8928 43.8938 14.0061 45.5226 16.4179 46.7664C17.3492 47.2461 18.3222 47.6666 19.3431 48.022L19.3371 48.0161Z" fill="white"/>
<path opacity="0.5" d="M5.80803 35.1811L46.8027 15.7009C44.7372 12.0109 41.6329 8.88367 37.7226 6.79883L4.50661 22.5773C3.69472 26.9069 4.20215 31.2721 5.80206 35.1811H5.80803Z" fill="white"/>
<path opacity="0.5" d="M16.4178 46.7607L49.2517 31.1658C49.789 28.5242 49.8368 25.8649 49.4368 23.3003L10.1256 41.9751C11.8926 43.8941 14.006 45.5228 16.4178 46.7666V46.7607Z" fill="white"/>
<path d="M45.8469 49.6393C45.8469 49.6393 48.0021 48.7331 49.0348 49.0885C50.0736 49.4438 47.3633 51.12 47.3633 51.12C47.3633 51.12 50.6526 49.1181 51.2795 49.8111C51.9123 50.4981 48.7722 52.5297 48.7722 52.5297C48.7722 52.5297 51.2078 51.5109 51.7451 51.9907C52.2824 52.4704 50.0497 54.0459 50.0497 54.0459C50.0497 54.0459 52.0615 53.4358 52.5093 53.7498C52.957 54.0696 51.2377 55.6214 50.1094 56.0715C48.9811 56.5217 48.7005 54.9284 48.7005 54.9284C48.7005 54.9284 47.5603 54.0518 47.6677 53.3885C47.6677 53.3885 46.4977 52.7073 46.3723 51.9433C46.3723 51.9433 44.7067 50.658 45.8469 49.6334V49.6393Z" fill="#FFAA95"/>
<path d="M83.3682 70.6298L82.4548 70.689C81.637 70.7423 80.9863 70.3099 80.5684 69.611C80.3833 69.303 80.1206 68.7285 79.9594 68.539C79.4938 68 78.258 67.1294 77.8222 67.1353C77.3805 67.1353 77.5178 67.9349 77.8521 68.2725C78.1864 68.6042 78.7058 69.0247 78.9983 69.5044C79.2968 69.9842 76.9626 71.1628 76.0074 71.4649C75.0523 71.767 73.3031 71.3642 73.1897 72.1756C73.0762 72.9871 74.3717 73.0167 74.3717 73.0167C74.3717 73.0167 74.0434 73.763 75.1537 74.2901C75.1537 74.2901 75.0105 75.0127 75.7268 75.3384C75.7268 75.3384 75.7089 76.2387 76.5268 76.4223C77.3447 76.6059 79.8878 77.1508 84.5801 73.8755L83.3801 70.6298H83.3682Z" fill="#FFAA95"/>
<path d="M84.2343 74.4385C84.2343 74.4385 93.6307 73.2835 105.624 66.0873C105.624 66.0873 105.976 65.9688 105.976 65.9629C106.221 62.3026 103.893 56.1546 102.263 50.7767C101.189 47.2171 99.7677 42.9289 96.7947 41.7266C96.2694 42.3366 95.3023 44.8657 95.2366 46.1569C95.0754 49.2723 95.9291 52.4114 96.5142 54.1409C97.3559 56.6285 97.9409 59.8031 98.711 62.2848C98.711 62.2848 98.7887 62.6224 98.7827 62.6224C98.6872 62.6461 95.5172 64.3933 91.1891 66.3716C86.4431 68.5393 82.6702 70.6775 82.6702 70.6775L84.2283 74.4326L84.2343 74.4385Z" fill="#225CCD"/>
</g>
<defs>
<clipPath id="clip0_575_27100">
<rect width="106" height="80" fill="white" transform="matrix(-1 0 0 1 106 0)"/>
</clipPath>
</defs>
</svg>
