<svg width="86" height="31" viewBox="0 0 86 31" fill="none" xmlns="http://www.w3.org/2000/svg">
<g clip-path="url(#clip0_2462_23456)">
<path d="M41.3388 26.8736C40.4893 27.1274 39.8568 27.1421 39.3972 27.1421C38.0586 27.1421 36.5141 26.3478 36.5141 24.1119C36.5141 21.8761 37.8453 21.0303 39.684 21.0303C40.015 21.0303 40.7137 21.0744 41.2027 21.295L41.0961 22.5821C40.6806 22.2953 40.1878 22.2034 39.8715 22.2034C38.7867 22.2034 37.8931 22.7366 37.8931 24.1156C37.8931 25.274 38.5918 25.9763 39.57 25.9763C39.7502 25.9763 39.923 25.9432 40.0444 25.8734V24.704H39.2611V23.586H41.3388V26.8699V26.8736Z" fill="#231815"/>
<path d="M43.6923 24.8178L41.8353 21.1367H43.3761L44.3616 23.5049L45.3324 21.1367H46.8733L45.0309 24.8178V27.0426H43.6923V24.8178Z" fill="#231815"/>
<path d="M47.3145 21.1367H50.8521V22.2546H48.6531V23.4719H50.7308V24.5898H48.6531V25.9283H50.9331V27.0463H47.3145V21.1404V21.1367Z" fill="#231815"/>
<path d="M52.8637 24.0901C52.8637 23.0678 53.1873 22.2036 54 22.2036C54.8127 22.2036 55.1363 23.0678 55.1363 24.0901C55.1363 25.1124 54.8127 25.9766 54 25.9766C53.1873 25.9766 52.8637 25.0609 52.8637 24.0901ZM51.4847 24.0901C51.4847 25.9692 52.3636 27.146 54.0037 27.146C55.6438 27.146 56.519 25.9692 56.519 24.0901C56.519 22.2109 55.6548 21.0342 54.0037 21.0342C52.3525 21.0342 51.4847 22.1926 51.4847 24.0901Z" fill="#231815"/>
<path d="M57.2141 21.1367H58.9204L60.6156 25.1487H60.6303L60.6083 21.1367H61.8328V27.0426H60.1707L58.4166 23.0048H58.4018L58.446 27.0426H57.2177V21.1367H57.2141Z" fill="#231815"/>
<path d="M67.3562 26.8736C66.5067 27.1274 65.8742 27.1421 65.4146 27.1421C64.076 27.1421 62.5315 26.3478 62.5315 24.1119C62.5315 21.8761 63.8627 21.0303 65.7014 21.0303C66.0324 21.0303 66.7311 21.0744 67.2165 21.295L67.1098 22.5821C66.6943 22.2953 66.2052 22.2034 65.8853 22.2034C64.8004 22.2034 63.9068 22.7366 63.9068 24.1156C63.9068 25.274 64.6055 25.9763 65.5837 25.9763C65.7639 25.9763 65.9367 25.9432 66.0581 25.8734V24.704H65.2748V23.586H67.3525V26.8699L67.3562 26.8736Z" fill="#231815"/>
<path d="M68.2609 21.1367H69.9635L71.6624 25.1487H71.6771L71.6551 21.1367H72.876V27.0426H71.2138L69.4597 23.0048H69.445L69.4891 27.0426H68.2609V21.1367Z" fill="#231815"/>
<path d="M76.6747 24.6672H75.417L76.0642 22.3578H76.079L76.6747 24.6672ZM73.3503 27.0465H74.7073L75.1044 25.7851H76.9873L77.3624 27.0465H78.8296L76.8953 21.1406H75.2552L73.3503 27.0465Z" fill="#231815"/>
<path d="M79.2525 21.1367H81.3596L82.4224 25.0605H82.4371L83.5514 21.1367H85.5776V27.0426H84.2685L84.2905 22.5084H84.2758L82.9961 27.0426H81.7642L80.5433 22.5084H80.5286L80.558 27.0426H79.2488V21.1367H79.2525Z" fill="#231815"/>
<path d="M69.5149 9.38746H65.0505V5.20996H63.256V10.8032H69.5149V9.38746Z" fill="#231815"/>
<path d="M44.7845 11.6716H46.5864V5.03027H44.7845V6.31H42.8539V7.72579H44.7845V8.65616H42.8539V10.0756H44.7845V11.6716Z" fill="#231815"/>
<path d="M81.7458 15.474V12.0503H84.7797V10.6345H78.3038V6.86524H84.7797V5.45312H76.5056V12.0503H79.9476V15.474H75.634V16.8934H85.6512V15.474H81.7458Z" fill="#231815"/>
<path d="M72.3722 5.03027H70.5776V11.473H72.3722V8.47229H73.9461V7.0565H72.3722V5.03027Z" fill="#231815"/>
<path d="M65.2712 12.2637V17.4451H72.3722V12.2637H65.2712ZM67.0694 16.0293V13.6795H70.5739V16.0293H67.0694Z" fill="#231815"/>
<path d="M42.784 11.502C40.7872 11.502 39.1692 12.9692 39.1692 14.7748C39.1692 16.5804 40.7872 18.0477 42.784 18.0477C44.7809 18.0477 46.3989 16.5841 46.3989 14.7748C46.3989 12.9655 44.7809 11.502 42.784 11.502ZM42.784 16.5289C41.8169 16.5289 41.0336 15.7456 41.0336 14.7748C41.0336 13.804 41.8169 13.0207 42.784 13.0207C43.7512 13.0207 44.5308 13.8077 44.5308 14.7748C44.5308 15.742 43.7475 16.5289 42.784 16.5289Z" fill="#231815"/>
<path d="M55.3606 11.502C53.3675 11.502 51.7495 12.9692 51.7495 14.7748C51.7495 16.5804 53.3675 18.0477 55.3606 18.0477C57.3538 18.0477 58.9718 16.5841 58.9718 14.7748C58.9718 12.9655 57.3538 11.502 55.3606 11.502ZM55.3606 16.5289C54.3935 16.5289 53.6139 15.7456 53.6139 14.7748C53.6139 13.804 54.3972 13.0207 55.3606 13.0207C56.3241 13.0207 57.1074 13.8077 57.1074 14.7748C57.1074 15.742 56.3241 16.5289 55.3606 16.5289Z" fill="#231815"/>
<path d="M41.9934 8.17107C41.9934 8.17107 42.4715 6.91341 42.442 5.36523H36.5141V6.81412H40.2797C40.2797 6.81412 40.4121 9.70086 36.2751 10.3076L36.9922 11.5543C38.305 11.4439 40.9453 10.7783 41.9934 8.17107Z" fill="#231815"/>
<path d="M55.6144 11.183L56.3462 9.97312C53.5367 9.03907 53.5514 6.21852 53.5514 5.92066V5.27344H51.3449V5.93536C51.3449 6.19646 51.4516 9.23764 48.5869 10.3188L49.3592 11.4808C49.3592 11.4808 51.3597 10.9108 52.5107 8.92874C53.5109 10.6829 55.618 11.1867 55.618 11.1867L55.6144 11.183Z" fill="#231815"/>
<path d="M59.2182 5.03027H57.42V11.6679H59.2182V8.47229H60.7885V7.0565H59.2182V5.03027Z" fill="#231815"/>
<path d="M15.4906 0.297639C10.2209 0.19835 5.53597 2.82767 2.78162 6.88749C2.8331 6.94633 2.87723 7.00149 2.91768 7.05297C2.9471 7.08607 2.97284 7.12284 2.99858 7.14858C3.01329 7.14858 3.028 7.15226 3.03903 7.15594C3.23393 7.19271 3.52812 7.24419 3.78186 7.47219C3.93999 7.61561 4.04295 7.77741 4.12386 7.90244C4.15695 7.9576 4.20844 8.03115 4.2305 8.05322C4.27463 8.09367 4.34082 8.14515 4.41069 8.20031C4.52469 8.28489 4.6534 8.38418 4.77843 8.51289C4.88507 8.61953 4.98068 8.72617 5.07262 8.83282C5.13513 8.91004 5.19765 8.97991 5.26016 9.04611C5.30797 9.09759 5.37416 9.15643 5.44403 9.21894C5.547 9.31088 5.66468 9.41752 5.775 9.54623C5.91841 9.70803 6.00299 9.87719 6.06551 10.0133C6.09125 10.0647 6.1317 10.1383 6.14641 10.164C6.24938 10.2817 6.34499 10.4067 6.43692 10.5244L6.58402 10.7083C6.60976 10.7414 6.67228 10.7929 6.73111 10.8407C6.84143 10.9363 6.98117 11.054 7.10253 11.2158C7.19446 11.3371 7.27169 11.4548 7.34523 11.5688C7.40039 11.6534 7.45188 11.7306 7.49968 11.8005C7.61736 11.9623 7.68723 12.1241 7.74975 12.2601C7.78284 12.3337 7.81226 12.4072 7.84168 12.444C7.86742 12.4808 7.92258 12.5359 7.98142 12.5948C8.07703 12.6941 8.19838 12.8154 8.30135 12.9735C8.41167 13.139 8.47786 13.3082 8.52935 13.4406C8.54773 13.492 8.5698 13.5472 8.58819 13.5877C8.60657 13.6024 8.63231 13.6171 8.65438 13.6318C8.79044 13.7237 9.00005 13.8635 9.14715 14.1025C9.22805 14.2349 9.28321 14.3709 9.32734 14.4849L9.61417 14.6798C10.0812 14.9961 10.2798 14.8306 10.0518 14.3158L7.41143 8.2996C7.18711 7.78109 7.27904 7.72961 7.61736 8.17825L11.5521 13.3854C11.8941 13.834 12.1295 13.7458 12.0817 13.1832L11.5301 6.65214C11.4823 6.0895 11.5889 6.06744 11.7691 6.60433L13.674 12.7713C13.8542 13.3082 14.0895 13.2935 14.1999 12.7382L15.2663 6.38001C15.3766 5.82473 15.4869 5.83576 15.5127 6.3984L15.7848 12.9C15.8105 13.4626 16.0569 13.5251 16.3401 13.0361L19.5909 7.40968C19.874 6.92059 19.9733 6.96471 19.8115 7.50529L17.9728 13.7164C17.811 14.2569 18.0317 14.3967 18.4546 14.0253L23.3308 9.79261C23.7537 9.4212 23.8382 9.49842 23.511 9.95442L20.7051 13.8892C20.8485 13.8855 20.992 13.8782 21.1023 13.8193C21.3303 13.698 21.4627 13.3854 21.698 13.2677C21.9334 13.1537 22.2423 13.1942 22.4813 13.0912C22.7203 12.9846 22.8858 12.7051 23.1248 12.6058C23.3639 12.5102 23.6176 12.4403 23.8566 12.3521C24.1214 12.2565 24.3678 12.102 24.6252 12.0174C24.8863 11.9292 25.1658 11.8924 25.4232 11.8115C25.6806 11.7306 25.9932 11.8446 26.2432 11.771C26.5191 11.6938 26.7287 11.3996 26.9934 11.3334C27.2619 11.2636 27.5487 11.304 27.8025 11.2452C28.0783 11.179 28.3577 11.19 28.6152 11.1349C28.8946 11.076 29.1373 10.9289 29.3911 10.8811C29.4389 10.8701 29.4904 10.8664 29.5419 10.8664C27.6737 4.85758 22.1319 0.430025 15.4906 0.297639Z" fill="#EA5529"/>
<path d="M13.218 29.349C13.218 29.349 13.2253 29.3196 13.229 29.3049C13.218 29.2865 13.2069 29.2608 13.1922 29.2424C13.1224 29.1174 13.0231 28.9408 12.9753 28.7202C12.9569 28.6356 12.9311 28.54 12.898 28.437C12.8613 28.323 12.8245 28.198 12.7914 28.062C12.7509 27.8854 12.7473 27.72 12.7399 27.5876C12.7399 27.5067 12.7326 27.4221 12.7252 27.3816C12.6921 27.2419 12.67 27.1095 12.6553 26.9882C12.6406 26.8889 12.6296 26.7933 12.6075 26.716C12.5928 26.6498 12.556 26.5689 12.5229 26.4807C12.4788 26.3667 12.4237 26.2343 12.3832 26.0835L12.3428 25.9401L12.214 25.4473C12.192 25.3701 12.1589 25.2782 12.1221 25.1863C12.0817 25.0796 12.0375 24.9583 12.0008 24.8295C11.9346 24.6015 11.9419 24.3883 11.9493 24.2338C11.9493 24.186 11.9493 24.1345 11.9493 24.1051C11.9199 24.0168 11.8868 23.9212 11.8463 23.8219C11.8059 23.7153 11.7654 23.6087 11.725 23.491C11.7139 23.4689 11.6771 23.4174 11.6477 23.377C11.5595 23.2593 11.4418 23.0938 11.3682 22.8805C11.3499 22.8217 11.3094 22.7408 11.2653 22.6562C11.2101 22.5459 11.1439 22.4172 11.0924 22.2701C11.052 22.1561 11.0079 22.0421 10.9601 21.9207L10.8571 21.6523C10.7615 21.3949 10.7799 21.1485 10.7909 20.9904C10.7909 20.9683 10.7946 20.9426 10.7946 20.9205C10.7688 20.8653 10.7357 20.8028 10.6953 20.733C10.6365 20.6226 10.5629 20.4939 10.5041 20.3505C10.4894 20.3101 10.4416 20.2439 10.3974 20.174C10.3239 20.0637 10.2319 19.9276 10.1584 19.7584C10.0996 19.6187 10.0591 19.4863 10.0223 19.3686C9.99291 19.2767 9.96717 19.1885 9.94143 19.1259C9.89362 19.0156 9.85317 18.909 9.80904 18.806C9.76491 18.703 9.72814 18.6038 9.68401 18.5155L9.55898 18.2434C9.50382 18.1183 9.45234 18.0007 9.39718 17.8903C9.37879 17.8499 9.32363 17.78 9.27582 17.7138C9.19492 17.6109 9.09563 17.4822 9.01473 17.3204C8.92647 17.1438 8.88234 16.9747 8.84557 16.8386C8.83454 16.7945 8.81983 16.7393 8.8088 16.7062C8.78673 16.6878 8.76099 16.6658 8.73893 16.6474C8.6139 16.5481 8.44106 16.4084 8.31971 16.1877C8.19835 15.9744 8.16526 15.7575 8.13584 15.603C8.12848 15.5626 8.12113 15.5074 8.11377 15.4817C8.03287 15.3419 7.98139 15.2022 7.93726 15.0882C7.9152 15.0293 7.89313 14.9705 7.87107 14.9264C7.849 14.9117 7.82326 14.8933 7.8012 14.8786C7.66146 14.7866 7.47023 14.6579 7.32682 14.4336C7.22385 14.2755 7.16133 14.1137 7.11353 13.985C7.08779 13.9188 7.05837 13.8379 7.0363 13.8121C7.00689 13.768 6.94805 13.7092 6.88921 13.6467C6.79728 13.551 6.69063 13.4444 6.59502 13.3047C6.48838 13.1465 6.41851 12.9921 6.35967 12.8671C6.33025 12.8009 6.29348 12.72 6.27509 12.6905C6.19786 12.5839 6.12799 12.4773 6.06916 12.3853C6.01032 12.2934 5.95148 12.2051 5.89632 12.1353C5.87058 12.0985 5.80438 12.0433 5.73819 11.9882C5.6389 11.8999 5.51387 11.7933 5.39987 11.6535L5.24542 11.4586C5.15349 11.3446 5.06891 11.238 4.98433 11.135C4.84827 10.9732 4.76737 10.8114 4.70485 10.679C4.67911 10.6312 4.64969 10.565 4.6313 10.5466C4.57247 10.4804 4.49892 10.4142 4.41802 10.3444C4.33344 10.2672 4.23782 10.1789 4.14221 10.0796C4.06131 9.99135 3.98776 9.91045 3.91789 9.82587C3.83699 9.73393 3.76344 9.64568 3.69357 9.57581C3.64209 9.52432 3.56487 9.46549 3.48396 9.40297C3.38835 9.32942 3.28171 9.24852 3.17506 9.14923C3.02429 9.00214 2.925 8.84769 2.8441 8.72633C2.82939 8.70059 2.811 8.67485 2.79629 8.64911C2.78159 8.64911 2.76688 8.64543 2.75217 8.64176C2.57197 8.60866 2.29985 8.56085 2.07185 8.36227C2.02772 8.3255 1.98727 8.28873 1.9505 8.25195C0.887739 10.2598 0.251553 12.5582 0.20007 15.0073C0.0492978 22.7151 5.74187 29.1725 13.2033 30.1654C13.1885 30.1139 13.1738 30.0624 13.1665 30.0073C13.1187 29.7388 13.1738 29.5072 13.2143 29.349H13.218Z" fill="#00A161"/>
<path d="M11.8978 19.7841C11.9236 19.8466 11.964 19.9202 12.0081 20.0047C12.0743 20.1261 12.1516 20.2621 12.2177 20.424C12.317 20.685 12.2986 20.9314 12.2876 21.0969C12.2876 21.1227 12.2839 21.1557 12.2839 21.1778L12.3612 21.3764C12.409 21.5014 12.4605 21.6301 12.5083 21.7662C12.5303 21.8214 12.5671 21.8986 12.6075 21.9795C12.6664 22.1008 12.7363 22.2369 12.7914 22.3987C12.7877 22.3877 12.7841 22.384 12.7841 22.384C12.7951 22.4024 12.8355 22.4575 12.8613 22.498C12.9532 22.623 13.0746 22.7922 13.1481 23.0165C13.1739 23.0974 13.2106 23.1857 13.2437 23.2813C13.2915 23.4063 13.343 23.535 13.3871 23.6784C13.457 23.9101 13.4497 24.1271 13.446 24.2889C13.4423 24.333 13.4423 24.3918 13.4423 24.4213C13.4644 24.4911 13.4938 24.5684 13.5232 24.6529C13.5673 24.7706 13.6188 24.903 13.6593 25.0464L13.7953 25.5576L13.8321 25.7047C13.8468 25.7635 13.8762 25.8407 13.913 25.9253C13.9608 26.0503 14.0197 26.1901 14.0601 26.3556C14.0969 26.5026 14.1153 26.6461 14.1373 26.7711C14.152 26.8667 14.1631 26.9623 14.1815 27.0359C14.2219 27.2161 14.2293 27.3852 14.2366 27.525C14.2366 27.6059 14.244 27.6868 14.255 27.7346C14.2734 27.8155 14.2991 27.9037 14.3286 27.9957C14.3653 28.1133 14.4058 28.2457 14.4352 28.3891C14.4426 28.4112 14.472 28.459 14.4904 28.4958C14.5639 28.6245 14.6669 28.8047 14.7147 29.0364C14.7698 29.3048 14.711 29.5438 14.6705 29.702C14.6632 29.724 14.6595 29.7498 14.6522 29.7755C14.6669 29.8233 14.6816 29.8822 14.7036 29.9447C14.7404 30.0476 14.7735 30.1616 14.8029 30.2903C14.8397 30.2903 14.8728 30.294 14.9096 30.294C19.3445 30.3823 23.3675 28.5326 26.1697 25.5281C20.9625 21.5272 14.5713 20.1261 11.8574 19.6885C11.8721 19.7216 11.8868 19.751 11.9015 19.7841H11.8978Z" fill="#004EA2"/>
<path d="M30.1155 15.5951C30.1376 14.4551 30.0272 13.3445 29.8066 12.2744C29.7147 12.2891 29.619 12.3038 29.5271 12.3222C29.2697 12.37 29.0417 12.5355 28.799 12.5833C28.5489 12.6348 28.3099 12.712 28.0672 12.7672C27.8024 12.8297 27.534 12.8371 27.2802 12.9032C27.0228 12.9694 26.747 12.9474 26.5006 13.0172C26.2506 13.0908 26.041 13.2857 25.8056 13.3592C25.5445 13.4438 25.2687 13.4622 25.0223 13.5505C24.7686 13.6387 24.4854 13.6277 24.2464 13.7196C24.0074 13.8152 23.8088 14.0101 23.5845 14.1057C23.3344 14.2124 23.0586 14.2418 22.8306 14.3521C22.5769 14.4735 22.3893 14.7015 22.1613 14.8265C21.9223 14.9515 21.687 15.0545 21.47 15.1795C21.2346 15.3156 20.9772 15.4039 20.7676 15.5362C20.5359 15.6833 20.3741 15.9113 20.1756 16.0548C19.9439 16.2202 19.771 16.4298 19.5761 16.5843C19.3518 16.7645 19.0797 16.8491 18.9069 17.0109C18.7303 17.169 18.5391 17.283 18.392 17.4007L18.0574 17.9412C17.9875 18.195 17.9875 18.3825 17.8809 18.2244L17.1564 19.3865C20.1939 20.3168 23.8345 21.8503 27.0706 24.3693C28.9277 21.9275 30.0603 18.8937 30.1228 15.5914L30.1155 15.5951Z" fill="#F6AB00"/>
</g>
<defs>
<clipPath id="clip0_2462_23456">
<rect width="85.4511" height="30" fill="white" transform="translate(0.200012 0.296875)"/>
</clipPath>
</defs>
</svg>
