<svg width="122" height="31" viewBox="0 0 122 31" fill="none" xmlns="http://www.w3.org/2000/svg">
<path d="M16.2945 0.00277122C10.9207 -0.0984777 6.14322 2.58274 3.33447 6.7227C3.38697 6.7827 3.43197 6.83895 3.47322 6.89145C3.50322 6.9252 3.52947 6.96269 3.55572 6.98894C3.57072 6.98894 3.58572 6.99269 3.59697 6.99644C3.79572 7.03394 4.09572 7.08644 4.35447 7.31894C4.51572 7.46519 4.62072 7.63019 4.70322 7.75769C4.73697 7.81394 4.78947 7.88893 4.81197 7.91143C4.85697 7.95268 4.92447 8.00518 4.99572 8.06143C5.11197 8.14768 5.24322 8.24893 5.37072 8.38018C5.47947 8.48893 5.57697 8.59768 5.67072 8.70642C5.73447 8.78517 5.79822 8.85642 5.86197 8.92392C5.91072 8.97642 5.97822 9.03642 6.04947 9.10017C6.15447 9.19392 6.27447 9.30267 6.38697 9.43392C6.53322 9.59892 6.61947 9.77141 6.68322 9.91016C6.70947 9.96266 6.75072 10.0377 6.76572 10.0639C6.87072 10.1839 6.96822 10.3114 7.06197 10.4314L7.21197 10.6189C7.23822 10.6527 7.30197 10.7052 7.36197 10.7539C7.47447 10.8514 7.61697 10.9714 7.74072 11.1364C7.83447 11.2601 7.91322 11.3801 7.98822 11.4964C8.04447 11.5826 8.09697 11.6614 8.14572 11.7326C8.26572 11.8976 8.33697 12.0626 8.40072 12.2014C8.43447 12.2764 8.46447 12.3514 8.49447 12.3889C8.52072 12.4264 8.57697 12.4826 8.63697 12.5426C8.73447 12.6439 8.85822 12.7676 8.96322 12.9289C9.07572 13.0976 9.14322 13.2701 9.19572 13.4051C9.21447 13.4576 9.23697 13.5139 9.25572 13.5551C9.27447 13.5701 9.30072 13.5851 9.32322 13.6001C9.46197 13.6939 9.67572 13.8364 9.82572 14.0801C9.90822 14.2151 9.96447 14.3539 10.0095 14.4701L10.302 14.6689C10.7782 14.9914 10.9807 14.8226 10.7482 14.2976L8.05572 8.16268C7.82697 7.63394 7.92072 7.58144 8.26572 8.03893L12.2782 13.3489C12.627 13.8064 12.867 13.7164 12.8182 13.1426L12.2557 6.4827C12.207 5.90896 12.3157 5.88646 12.4995 6.43395L14.442 12.7226C14.6257 13.2701 14.8657 13.2551 14.9782 12.6889L16.0657 6.2052C16.1782 5.63896 16.2907 5.65021 16.317 6.22395L16.5945 12.8539C16.6207 13.4276 16.872 13.4914 17.1607 12.9926L20.4757 7.25519C20.7645 6.75645 20.8657 6.80145 20.7007 7.35269L18.8257 13.6864C18.6607 14.2376 18.8857 14.3801 19.317 14.0014L24.2895 9.68516C24.7207 9.30642 24.807 9.38517 24.4732 9.85016L21.612 13.8626C21.7582 13.8589 21.9045 13.8514 22.017 13.7914C22.2495 13.6676 22.3845 13.3489 22.6245 13.2289C22.8645 13.1126 23.1795 13.1539 23.4232 13.0489C23.667 12.9401 23.8357 12.6551 24.0795 12.5539C24.3232 12.4564 24.582 12.3851 24.8257 12.2951C25.0957 12.1976 25.347 12.0401 25.6095 11.9539C25.8757 11.8639 26.1607 11.8264 26.4232 11.7439C26.6857 11.6614 27.0045 11.7776 27.2595 11.7026C27.5407 11.6239 27.7545 11.3239 28.0245 11.2564C28.2982 11.1851 28.5907 11.2264 28.8495 11.1664C29.1307 11.0989 29.4157 11.1101 29.6782 11.0539C29.9632 10.9939 30.2107 10.8439 30.4695 10.7952C30.5182 10.7839 30.5707 10.7802 30.6232 10.7802C28.7182 4.65272 23.067 0.13777 16.2945 0.00277122Z" fill="#EA5529"/>
<path d="M13.977 29.6268C13.977 29.6268 13.9845 29.5968 13.9882 29.5818C13.977 29.563 13.9657 29.5368 13.9507 29.518C13.8795 29.3905 13.7782 29.2106 13.7295 28.9856C13.7107 28.8993 13.6845 28.8018 13.6507 28.6968C13.6132 28.5806 13.5757 28.4531 13.542 28.3143C13.5007 28.1343 13.497 27.9656 13.4895 27.8306C13.4895 27.7481 13.482 27.6618 13.4745 27.6206C13.4407 27.4781 13.4182 27.3431 13.4032 27.2193C13.3882 27.1181 13.377 27.0206 13.3545 26.9418C13.3395 26.8743 13.302 26.7918 13.2682 26.7018C13.2232 26.5856 13.167 26.4506 13.1257 26.2968L13.0845 26.1506L12.9532 25.6481C12.9307 25.5693 12.897 25.4756 12.8595 25.3818C12.8182 25.2731 12.7732 25.1493 12.7357 25.0181C12.6682 24.7856 12.6757 24.5681 12.6832 24.4106C12.6832 24.3619 12.6832 24.3094 12.6832 24.2794C12.6532 24.1894 12.6195 24.0919 12.5782 23.9906C12.537 23.8819 12.4957 23.7731 12.4545 23.6531C12.4432 23.6306 12.4057 23.5781 12.3757 23.5369C12.2857 23.4169 12.1657 23.2481 12.0907 23.0306C12.072 22.9706 12.0307 22.8881 11.9857 22.8019C11.9295 22.6894 11.862 22.5581 11.8095 22.4081C11.7682 22.2919 11.7232 22.1756 11.6745 22.0519L11.5695 21.7781C11.472 21.5156 11.4907 21.2644 11.502 21.1031C11.502 21.0806 11.5057 21.0544 11.5057 21.0319C11.4795 20.9756 11.4457 20.9119 11.4045 20.8406C11.3445 20.7281 11.2695 20.5969 11.2095 20.4506C11.1945 20.4094 11.1457 20.3419 11.1007 20.2706C11.0257 20.1581 10.932 20.0194 10.857 19.8469C10.797 19.7044 10.7557 19.5694 10.7182 19.4494C10.6882 19.3557 10.662 19.2657 10.6357 19.2019C10.587 19.0894 10.5457 18.9807 10.5007 18.8757C10.4557 18.7707 10.4182 18.6694 10.3732 18.5794L10.2457 18.3019C10.1895 18.1744 10.137 18.0544 10.0807 17.9419C10.062 17.9007 10.0057 17.8294 9.95696 17.7619C9.87446 17.6569 9.77321 17.5257 9.69071 17.3607C9.60071 17.1807 9.55571 17.0082 9.51821 16.8694C9.50696 16.8244 9.49196 16.7682 9.48071 16.7344C9.45821 16.7157 9.43196 16.6932 9.40946 16.6744C9.28196 16.5732 9.10571 16.4307 8.98196 16.2057C8.85821 15.9882 8.82446 15.7669 8.79446 15.6094C8.78696 15.5682 8.77946 15.512 8.77196 15.4857C8.68946 15.3432 8.63696 15.2007 8.59196 15.0845C8.56946 15.0245 8.54696 14.9645 8.52446 14.9195C8.50196 14.9045 8.47571 14.8857 8.45321 14.8707C8.31071 14.777 8.11571 14.6457 7.96946 14.417C7.86446 14.2557 7.80071 14.0907 7.75196 13.9595C7.72571 13.892 7.69571 13.8095 7.67321 13.7832C7.64321 13.7382 7.58321 13.6782 7.52321 13.6145C7.42946 13.517 7.32071 13.4082 7.22321 13.2657C7.11446 13.1045 7.04321 12.947 6.98321 12.8195C6.95321 12.752 6.91571 12.6695 6.89696 12.6395C6.81821 12.5307 6.74696 12.422 6.68696 12.3282C6.62696 12.2345 6.56696 12.1445 6.51071 12.0732C6.48446 12.0357 6.41696 11.9795 6.34946 11.9232C6.24821 11.8332 6.12071 11.7245 6.00446 11.582L5.84696 11.3832C5.75321 11.267 5.66696 11.1582 5.58071 11.0532C5.44196 10.8883 5.35946 10.7233 5.29571 10.5883C5.26946 10.5395 5.23946 10.472 5.22071 10.4533C5.16071 10.3858 5.08571 10.3183 5.00321 10.247C4.91696 10.1683 4.81946 10.0783 4.72196 9.97701C4.63946 9.88701 4.56446 9.80451 4.49321 9.71826C4.41071 9.62451 4.33571 9.53452 4.26446 9.46327C4.21196 9.41077 4.13321 9.35077 4.05071 9.28702C3.95321 9.21202 3.84446 9.12952 3.73571 9.02827C3.58196 8.87827 3.48071 8.72077 3.39821 8.59703C3.38321 8.57078 3.36446 8.54453 3.34946 8.51828C3.33446 8.51828 3.31946 8.51453 3.30446 8.51078C3.12071 8.47703 2.84321 8.42828 2.61071 8.22578C2.56571 8.18828 2.52446 8.15078 2.48696 8.11328C1.40321 10.1608 0.754459 12.5045 0.701959 15.002C0.548209 22.8619 6.35321 29.4468 13.962 30.4593C13.947 30.4068 13.932 30.3543 13.9245 30.298C13.8757 30.0243 13.932 29.788 13.9732 29.6268H13.977Z" fill="#00A161"/>
<path d="M12.6307 19.8739C12.657 19.9376 12.6982 20.0126 12.7432 20.0989C12.8107 20.2226 12.8895 20.3614 12.957 20.5264C13.0582 20.7926 13.0395 21.0439 13.0282 21.2126C13.0282 21.2389 13.0245 21.2726 13.0245 21.2951L13.1032 21.4976C13.152 21.6251 13.2045 21.7563 13.2532 21.8951C13.2757 21.9513 13.3132 22.0301 13.3545 22.1126C13.4145 22.2363 13.4857 22.3751 13.542 22.5401C13.5382 22.5288 13.5345 22.5251 13.5345 22.5251C13.5457 22.5438 13.587 22.6001 13.6132 22.6413C13.707 22.7688 13.8307 22.9413 13.9057 23.1701C13.932 23.2526 13.9695 23.3426 14.0032 23.4401C14.052 23.5676 14.1045 23.6988 14.1495 23.8451C14.2207 24.0813 14.2132 24.3026 14.2095 24.4676C14.2057 24.5126 14.2057 24.5726 14.2057 24.6026C14.2282 24.6738 14.2582 24.7526 14.2882 24.8388C14.3332 24.9588 14.3857 25.0938 14.427 25.2401L14.5657 25.7613L14.6032 25.9113C14.6182 25.9713 14.6482 26.05 14.6857 26.1363C14.7345 26.2638 14.7945 26.4063 14.8357 26.575C14.8732 26.725 14.892 26.8713 14.9145 26.9988C14.9295 27.0963 14.9407 27.1938 14.9595 27.2688C15.0007 27.4525 15.0082 27.625 15.0157 27.7675C15.0157 27.85 15.0232 27.9325 15.0345 27.9813C15.0532 28.0638 15.0795 28.1538 15.1095 28.2475C15.147 28.3675 15.1882 28.5025 15.2182 28.6488C15.2257 28.6713 15.2557 28.72 15.2745 28.7575C15.3495 28.8888 15.4545 29.0725 15.5032 29.3088C15.5595 29.5825 15.4995 29.8263 15.4582 29.9875C15.4507 30.01 15.447 30.0363 15.4395 30.0625C15.4545 30.1113 15.4695 30.1713 15.492 30.235C15.5295 30.34 15.5632 30.4563 15.5932 30.5875C15.6307 30.5875 15.6645 30.5912 15.702 30.5912C20.2245 30.6812 24.327 28.795 27.1845 25.7313C21.8745 21.6513 15.357 20.2226 12.5895 19.7764C12.6045 19.8101 12.6195 19.8401 12.6345 19.8739H12.6307Z" fill="#004EA2"/>
<path d="M31.2082 15.603C31.2307 14.4405 31.1182 13.308 30.8932 12.2168C30.7994 12.2318 30.7019 12.2468 30.6082 12.2655C30.3457 12.3143 30.1132 12.483 29.8657 12.5318C29.6107 12.5843 29.3669 12.663 29.1194 12.7193C28.8494 12.783 28.5757 12.7905 28.3169 12.858C28.0544 12.9255 27.7732 12.903 27.5219 12.9743C27.2669 13.0493 27.0532 13.248 26.8132 13.323C26.5469 13.4093 26.2657 13.428 26.0144 13.518C25.7557 13.608 25.4669 13.5968 25.2232 13.6905C24.9794 13.788 24.7769 13.9868 24.5482 14.0843C24.2932 14.193 24.0119 14.223 23.7794 14.3355C23.5207 14.4593 23.3294 14.6918 23.0969 14.8193C22.8532 14.9468 22.6132 15.0518 22.3919 15.1793C22.1519 15.318 21.8894 15.408 21.6757 15.543C21.4394 15.693 21.2744 15.9255 21.0719 16.0718C20.8357 16.2405 20.6594 16.4543 20.4607 16.6117C20.2319 16.7955 19.9544 16.8817 19.7782 17.0467C19.5982 17.208 19.4032 17.3242 19.2532 17.4442L18.9119 17.9955C18.8407 18.2542 18.8407 18.4455 18.7319 18.2842L17.9932 19.4692C21.0907 20.418 24.8032 21.9817 28.1032 24.5504C29.9969 22.0604 31.1519 18.9667 31.2157 15.5993L31.2082 15.603Z" fill="#F6AB00"/>
<path d="M46.8226 2.06348V8.50879H45.4677V7.28809H42.8431V6.18945H45.4677V5.00537H42.9469C42.2511 6.75708 40.6398 7.98389 38.2411 8.65527L37.6918 7.58105C40.2736 6.88525 41.653 5.573 41.8605 3.93115H38.2777V2.83252H43.3436C43.3436 3.21704 43.3131 3.58325 43.2521 3.93115H45.4677V2.06348H46.8226ZM39.4252 10.8281C39.4252 9.47314 40.9083 8.63696 43.1727 8.63086C45.4066 8.63696 46.8959 9.47314 46.8959 10.8281C46.8959 12.1831 45.4066 13.0315 43.1727 13.0254C40.9083 13.0315 39.4252 12.1831 39.4252 10.8281ZM40.7802 10.8281C40.7802 11.5544 41.6896 11.9512 43.1727 11.9512C44.6315 11.9512 45.5348 11.5544 45.5409 10.8281C45.5348 10.0896 44.6315 9.69287 43.1727 9.69287C41.6896 9.69287 40.7802 10.0896 40.7802 10.8281ZM51.9164 3.80908C51.9164 5.19458 52.8136 6.50684 54.5165 7.04395L53.7841 8.10596C52.5939 7.70312 51.7394 6.89746 51.2572 5.87207C50.7811 7.04395 49.89 7.96558 48.6205 8.41113L47.8881 7.34912C49.6642 6.73267 50.5553 5.26172 50.5614 3.68701V2.63721H51.9164V3.80908ZM49.3895 10.9746C49.3895 9.66846 50.8239 8.89331 53.1249 8.89941C55.4076 8.89331 56.8175 9.66846 56.8236 10.9746C56.8175 12.3113 55.4076 13.0742 53.1249 13.0742C50.8239 13.0742 49.3895 12.3113 49.3895 10.9746ZM50.7445 10.9746C50.7445 11.6582 51.6112 12 53.1249 12C54.6324 12 55.4808 11.6582 55.4808 10.9746C55.4808 10.3276 54.6324 9.96143 53.1249 9.96143C51.6112 9.96143 50.7445 10.3276 50.7445 10.9746ZM55.3588 8.65527V2.05127H56.7137V4.73682H58.2518V5.85986H56.7137V8.65527H55.3588ZM67.142 2.06348V4.45605H68.6923V5.5791H67.142V8.27686H65.787V2.06348H67.142ZM58.9144 7.60547V2.60059H60.2816V6.48853C61.6915 6.47021 63.1869 6.34204 64.7982 6.03076L64.9569 7.1416C63.1259 7.50781 61.4291 7.60547 59.83 7.60547H58.9144ZM60.0009 12.9399V8.81396H67.142V12.9399H60.0009ZM61.3314 11.8657H65.8114V9.87598H61.3314V11.8657ZM77.8265 7.06836V8.14258H74.5551V10.6694H78.9496V11.7803H68.8666V10.6694H73.2123V8.14258H70.0873V2.86914H77.7411V3.95557H71.4423V7.06836H77.8265ZM46.5419 22.0684V23.1426H43.2704V25.6694H47.6649V26.7803H37.5819V25.6694H41.9276V23.1426H38.8026V17.8691H46.4564V18.9556H40.1576V22.0684H46.5419ZM52.1849 19.7002C52.1727 21.7266 53.2408 23.7529 55.0292 24.522L54.2235 25.6084C52.954 25.0225 52.0262 23.8567 51.5135 22.4163C51.007 23.9666 50.0548 25.2361 48.7181 25.8647L47.8881 24.7295C49.7252 23.936 50.7994 21.8303 50.8055 19.7002V17.9424H52.1849V19.7002ZM55.8226 28.0986V17.0513H57.1898V28.0986H55.8226ZM68.0087 17.0513V28.0864H66.7147V22.4956H65.5795V27.5493H64.2977V17.2466H65.5795V21.3726H66.7147V17.0513H68.0087ZM58.2552 24.876C59.891 23.9482 60.5502 22.0256 60.5502 19.8711V19.3462H58.5848V18.2598H63.6752V19.3462H61.8685V19.8711C61.8685 21.8303 62.5277 23.6431 64.1635 24.4854L63.37 25.5229C62.3202 24.9553 61.6305 23.9849 61.2399 22.7886C60.8676 24.1619 60.1779 25.2666 59.0853 25.9136L58.2552 24.876ZM72.309 19.1021C72.3151 20.2922 73.0109 21.4946 74.4574 22.0439L73.7372 23.0815C72.7545 22.7092 72.0709 22.0012 71.6742 21.1467C71.2714 22.1294 70.5511 22.9717 69.5013 23.4111L68.7689 22.3735C70.2887 21.7021 70.9967 20.3228 71.0028 19.1021V17.7349H72.309V19.1021ZM70.7953 26.0356C70.7892 24.7661 72.254 24.0093 74.5795 24.0093C76.8866 24.0093 78.3575 24.7661 78.3636 26.0356C78.3575 27.3113 76.8866 28.0742 74.5795 28.0742C72.254 28.0742 70.7892 27.3113 70.7953 26.0356ZM72.1503 26.0356C72.1442 26.6887 73.0475 27.0427 74.5795 27.0366C76.087 27.0427 76.9904 26.6887 76.9965 26.0356C76.9904 25.3887 76.087 25.0347 74.5795 25.0347C73.0475 25.0347 72.1442 25.3887 72.1503 26.0356ZM74.6405 23.4844V17.271H75.91V19.8467H77.0087V17.0635H78.3026V23.8262H77.0087V20.9575H75.91V23.4844H74.6405ZM83.4574 20.1885C83.4574 21.9951 84.5194 23.8994 86.3016 24.644L85.557 25.7183C84.2509 25.1506 83.2987 23.9971 82.7921 22.5933C82.2855 24.1069 81.3151 25.3765 80.0272 25.9868L79.246 24.9248C80.9855 24.1191 82.0719 22.0623 82.078 20.1885V19.2607H79.6488V18.1377H85.8744V19.2607H83.4574V20.1885ZM87.1073 28.0864V17.0513H88.4745V28.0864H87.1073ZM98.976 17.0635V25.4131H97.6088V24.4487H95.4481V23.4966H97.6088V17.0635H98.976ZM89.6742 22.0195C91.7067 22.0073 94.4471 21.989 96.7909 21.6899L96.8641 22.6665C95.9547 22.8191 95.0148 22.9167 94.0809 22.9839V25.1079H92.726V23.0571C91.6945 23.0999 90.7118 23.106 89.8451 23.106L89.6742 22.0195ZM90.5165 19.4194C90.5165 18.2537 91.6395 17.4602 93.2753 17.4663C94.8805 17.4602 96.0096 18.2537 96.0219 19.4194C96.0096 20.6035 94.8805 21.3542 93.2753 21.3604C91.6395 21.3542 90.5165 20.6035 90.5165 19.4194ZM91.139 27.8667V24.6074H92.494V26.7681H99.2323V27.8667H91.139ZM91.7982 19.4194C91.7982 20.0176 92.3903 20.3655 93.2753 20.3716C94.1176 20.3655 94.7218 20.0176 94.7279 19.4194C94.7218 18.8213 94.1176 18.4612 93.2753 18.4673C92.3903 18.4612 91.7982 18.8213 91.7982 19.4194ZM109.587 17.0513V25.3154H108.293V17.0513H109.587ZM100.078 22.8008C101.549 22.0867 102.239 20.6218 102.239 19.3096V17.8081H103.557V19.3096C103.557 20.5974 104.192 21.8792 105.596 22.5078L104.839 23.5576C103.911 23.1243 103.276 22.3796 102.91 21.4824C102.519 22.4956 101.83 23.3562 100.823 23.8262L100.078 22.8008ZM102.202 27.8667V24.3267H103.557V26.7681H109.892V27.8667H102.202ZM104.607 20.7866V19.6758H106.084V17.2466H107.378V24.9858H106.084V20.7866H104.607ZM119.832 17.0513V28.0986H118.49V22.1416H116.414V21.043H118.49V17.0513H119.832ZM111.08 25.5596V18.0034H116.244V19.1143H112.447V21.0918H115.804V22.166H112.447V24.4365C114.126 24.4304 115.383 24.3694 116.805 24.1436L116.939 25.2422C115.334 25.4863 113.918 25.5474 111.947 25.5596H111.08Z" fill="#111111"/>
</svg>
