<svg width="159" height="31" viewBox="0 0 159 31" fill="none" xmlns="http://www.w3.org/2000/svg">
<g clip-path="url(#clip0_2462_23917)">
<path d="M29.8442 0.59375H-0.23877V30.5938H29.8442V0.59375Z" fill="#F27221"/>
<path fill-rule="evenodd" clip-rule="evenodd" d="M15.9752 11.9453H17.8534L17.8324 17.4968L15.9865 17.4863L15.9752 11.9453Z" fill="white"/>
<path fill-rule="evenodd" clip-rule="evenodd" d="M13.5845 18.7346H15.4417V11.3791H17.9314V9.5166H10.5251V11.36H13.5845V18.7346Z" fill="white"/>
<path fill-rule="evenodd" clip-rule="evenodd" d="M4.96704 21.7079L6.81877 21.7123L6.82929 13.7341L11.1203 13.7392L11.1319 21.7246L24.1074 21.7405L24.0748 15.5598H18.5348L18.5297 17.4143L22.2107 17.4176V19.8675L12.9735 19.883L12.9829 11.8882L4.96704 11.8701V21.7079Z" fill="white"/>
<path fill-rule="evenodd" clip-rule="evenodd" d="M18.3025 11.9912L18.313 13.8599H23.8881V11.9912H18.3025Z" fill="white"/>
<path d="M45.9122 16.2255V15.3855H44.6741C44.8292 14.5548 44.8973 13.7103 44.877 12.8655V12.1672H38.6459V13.0072H43.852C43.8644 13.8057 43.7895 14.6032 43.6288 15.3855H37.6107V16.2255H41.225V17.7234H38.453V18.5634H43.8709V20.8911H44.9162V17.7234H42.2776V16.2255H45.9122ZM47.3938 12.7137V13.5638H50.6008C50.3876 15.6689 49.18 17.2781 46.9372 18.4217L47.5171 19.2212C50.5109 17.7132 51.649 15.3653 51.649 12.7152L47.3938 12.7137ZM55.4329 15.3552H54.0411V11.7407H52.9958V20.881H54.0411V16.2255H55.4329V15.3552ZM61.0841 16.8949C61.2689 15.7133 61.3537 14.5182 61.3378 13.3224V12.7152H56.6797V13.5552H60.3128C60.3215 14.6433 60.2366 15.7302 60.0591 16.8038L61.0841 16.8949ZM59.0341 15.3364H58.0091V18.0877C57.3698 18.0978 56.7507 18.1079 56.1926 18.1079L56.3028 18.9682C58.1731 18.9978 60.043 18.8794 61.8946 18.614L61.8438 17.8549C60.9508 17.9663 59.9866 18.027 59.0327 18.0675L59.0341 15.3364ZM64.7376 15.5084H63.3878V11.7523H62.3324V20.8911H63.3878V16.3889H64.7376V15.5084ZM71.0398 12.6429H68.8579V11.7031H67.8126V12.6429H65.6306V13.4742H71.0398V12.6429ZM67.1123 15.5373C67.1123 14.9908 67.5995 14.667 68.3301 14.667C69.0608 14.667 69.5581 14.9923 69.5581 15.5373C69.5581 16.0737 69.0608 16.3976 68.3301 16.3976C67.5995 16.3976 67.1123 16.0737 67.1123 15.5373ZM70.5527 15.5373C70.5527 14.5354 69.6494 13.8675 68.3301 13.8675C67.0108 13.8675 66.1076 14.5354 66.1076 15.5373C66.1076 16.5291 67.0108 17.1971 68.3301 17.1971C69.6494 17.1971 70.5527 16.5291 70.5527 15.5373ZM66.747 18.7542H71.7299V20.8911H72.7752V17.9157H66.747V18.7542ZM74.0742 14.2H72.7752V11.7508H71.7299V17.4689H72.7752V15.0602H74.0742V14.2ZM75.4747 12.7123V13.5624H78.7425C78.5613 15.6675 77.4232 17.2766 75.018 18.4304L75.5761 19.2617C78.7222 17.7436 79.8168 15.4361 79.8168 12.7137L75.4747 12.7123ZM81.4724 11.7508V20.8911H82.5177V11.7523L81.4724 11.7508ZM92.1486 14.161C90.3117 13.9802 88.9721 13.0766 88.9721 12.0559V11.7928H87.8964V12.0559C87.8964 13.0781 86.5554 13.9788 84.7199 14.161L85.0751 14.9605C86.5974 14.7798 87.8457 14.1508 88.4343 13.24C89.0229 14.1508 90.2711 14.7783 91.7934 14.9605L92.1486 14.161ZM92.5835 16.2863V15.4549H84.2835V16.2863H87.8964V17.0554H85.2679V17.8448H90.5147V18.5214H85.2882V20.8101H91.8036V20.0106H86.3234V19.2617H91.5397V17.0569H88.9518V16.2877L92.5835 16.2863ZM97.0083 13.5234H99.0481V12.6631H93.9144V13.5234H95.9543V14.3937C95.9543 15.9624 95.0119 17.6626 93.5897 18.3205L94.1884 19.1518C94.7461 18.8512 95.2374 18.4419 95.6331 17.9481C96.0289 17.4543 96.321 16.8862 96.4922 16.2776C96.6798 16.8505 96.9814 17.3797 97.379 17.8336C97.7766 18.2874 98.262 18.6566 98.806 18.919L99.3859 18.0993C98.68 17.7681 98.0824 17.2446 97.6622 16.5892C97.242 15.9337 97.0163 15.1731 97.0112 14.3952L97.0083 13.5234ZM100.114 11.7523V20.8911H101.169V11.7523H100.114ZM108.527 15.9017C107.9 15.7277 107.345 15.3575 106.945 14.8455C106.545 14.3334 106.32 13.7068 106.304 13.0578V12.1672H105.239V13.0578C105.228 13.7316 105.005 14.3849 104.6 14.9246C104.196 15.4644 103.631 15.863 102.986 16.0636L103.503 16.8834C104.016 16.7079 104.486 16.4246 104.88 16.0527C105.274 15.6809 105.583 15.229 105.787 14.7277C105.997 15.1961 106.304 15.6155 106.687 15.9588C107.069 16.3022 107.52 16.5619 108.009 16.7214L108.527 15.9017ZM104.335 18.5041H109.473V20.8911H110.519V17.6626H104.337L104.335 18.5041ZM109.471 11.7451V17.2275H110.516V11.7422L109.471 11.7451ZM117.224 14.0525V14.9026H118.848V17.2H119.893V11.7523H118.848V14.0496L117.224 14.0525ZM117.752 16.0867C117.15 15.9094 116.619 15.5485 116.233 15.0548C115.847 14.5611 115.626 13.9594 115.6 13.334V13.2082H117.508V12.3696H112.608V13.2082H114.548V13.3398C114.53 14.0067 114.305 14.6516 113.903 15.1849C113.501 15.7182 112.943 16.1133 112.305 16.3152L112.843 17.1465C113.356 16.9641 113.824 16.6735 114.214 16.2945C114.605 15.9155 114.909 15.4571 115.106 14.9504C115.305 15.4057 115.598 15.8145 115.965 16.1506C116.332 16.4866 116.765 16.7426 117.237 16.9022L117.752 16.0867ZM116.85 20.0916C115.541 20.0916 114.8 19.7663 114.8 19.1706C114.8 18.5749 115.541 18.2496 116.85 18.2496C118.139 18.2496 118.89 18.5749 118.89 19.1706C118.89 19.7663 118.139 20.0916 116.85 20.0916ZM116.85 17.44C114.932 17.44 113.755 18.0877 113.755 19.1706C113.755 20.2636 114.932 20.9012 116.85 20.9012C118.758 20.9012 119.935 20.2636 119.935 19.1706C119.935 18.0877 118.758 17.44 116.85 17.44ZM123.609 14.7378H127.952V16.2357H123.609V14.7378ZM126.298 18.919V17.0757H128.988V12.3595H127.952V13.8978H123.609V12.3595H122.574V17.0757H125.253V18.919H121.64V19.7793H129.94V18.919H126.298ZM134.295 12.4925H133.24V14.0005C133.24 15.7108 132.347 17.4704 130.916 18.1701L131.575 19.0014C132.621 18.4651 133.372 17.4024 133.778 16.107C133.939 16.6848 134.214 17.2248 134.586 17.6953C134.959 18.1658 135.423 18.5572 135.949 18.8467L136.568 18.0067C135.168 17.359 134.295 15.6993 134.295 13.999V12.4925ZM137.533 11.7335V14.7393H135.575V15.5894H137.533V20.9026H138.588V11.732L137.533 11.7335ZM146.798 11.7436V20.9113H147.854V11.7422L146.798 11.7436ZM140.8 12.5026V18.7354H145.205V12.5012H144.16V14.8289H141.836V12.5012L140.8 12.5026ZM141.836 15.6602H144.16V17.8969H141.836V15.6602ZM157.596 16.2169C155.79 15.8916 154.318 14.4863 154.318 13.0289V12.3422H153.212V13.0289C153.212 14.4747 151.74 15.8843 149.934 16.2169L150.381 17.0771C151.098 16.9427 151.776 16.6468 152.361 16.2119C152.947 15.7769 153.425 15.2144 153.76 14.5672C154.095 15.2142 154.573 15.7764 155.159 16.2111C155.745 16.6458 156.422 16.9415 157.139 17.0757L157.596 16.2169ZM149.65 18.8569V19.7171H157.95V18.8569H149.65Z" fill="black"/>
</g>
<defs>
<clipPath id="clip0_2462_23917">
<rect width="158" height="30" fill="white" transform="translate(0.215576 0.296875)"/>
</clipPath>
</defs>
</svg>
