<svg width="81" height="31" viewBox="0 0 81 31" fill="none" xmlns="http://www.w3.org/2000/svg">
<g clip-path="url(#clip0_2462_23487)">
<path d="M52.4161 23.7925C52.4161 23.9178 52.4793 23.981 52.6046 23.981H53.1701C53.3747 23.981 53.5264 24.0281 53.6218 24.1235C53.7184 24.2189 53.7667 24.3661 53.7667 24.5683V24.7224C53.7667 24.9247 53.7184 25.0729 53.6218 25.1672C53.5253 25.2626 53.3747 25.3097 53.1701 25.3097H52.3345C52.1816 25.3097 52.0299 25.2959 51.8793 25.2695V24.8672H53.0448C53.0931 24.8672 53.131 24.8534 53.1598 24.827C53.1874 24.8005 53.2023 24.7637 53.2023 24.7189V24.4523H52.4805C52.2609 24.4523 52.1012 24.4028 52.0012 24.3028C51.9012 24.204 51.8517 24.0442 51.8517 23.8235V23.7293C51.8517 23.5098 51.9012 23.35 52.0012 23.25C52.1012 23.15 52.2598 23.1006 52.4805 23.1006H53.5828V23.5408H52.6058C52.4805 23.5408 52.4173 23.604 52.4173 23.7293V23.7925H52.4161Z" fill="#2B2B2B"/>
<path d="M54.0482 23.1006H55.3677C55.5873 23.1006 55.747 23.15 55.847 23.25C55.947 23.35 55.9965 23.5086 55.9965 23.7293V24.0431C55.9965 24.2626 55.947 24.4224 55.847 24.5224C55.747 24.6224 55.5884 24.6718 55.3677 24.6718H54.6137V25.3005H54.0482V23.1017V23.1006ZM55.431 23.7293C55.431 23.604 55.3677 23.5408 55.2425 23.5408H54.6137V24.2316H55.2425C55.3677 24.2316 55.431 24.1684 55.431 24.0431V23.7293Z" fill="#2B2B2B"/>
<path d="M58.0217 25.2994H56.2781V23.1006H58.0217V23.5408H56.8436V23.9649H57.77V24.4051H56.8436V24.8603H58.0217V25.3005V25.2994Z" fill="#2B2B2B"/>
<path d="M58.808 25.3089C58.6022 25.3089 58.4517 25.2618 58.3563 25.1652C58.2597 25.0698 58.2114 24.9204 58.2114 24.717V23.7216C58.2114 23.5044 58.2608 23.3457 58.3608 23.2469C58.4608 23.1481 58.6195 23.0986 58.8402 23.0986H59.9712V23.5388H58.9666C58.8413 23.5388 58.7781 23.6009 58.7781 23.7262V24.7262C58.7781 24.7744 58.793 24.8124 58.8206 24.8399C58.8482 24.8675 58.8873 24.8825 58.9356 24.8825H59.408C59.4654 24.8825 59.5218 24.8733 59.5758 24.856H59.9712V25.2664C59.831 25.2928 59.6919 25.3066 59.5539 25.3066H58.8091L58.808 25.3089Z" fill="#2B2B2B"/>
<path d="M61.2574 25.2995H60.1263V24.8593H60.4091V23.5398H60.1263V23.0996H61.2574V23.5398H60.9746V24.8593H61.2574V25.2995Z" fill="#2B2B2B"/>
<path d="M61.9321 25.2994H61.3195L62.1516 23.1006H62.7804L63.6125 25.2994H62.9999L62.8585 24.9063H62.0735L61.9321 25.2994ZM62.2148 24.4982H62.7171L62.4654 23.7603L62.2137 24.4982H62.2148Z" fill="#2B2B2B"/>
<path d="M64.3355 24.8601H65.4814V25.3003H63.77V23.1016H64.3355V24.8601Z" fill="#2B2B2B"/>
<path d="M67.178 25.3089C66.9722 25.3089 66.8216 25.2618 66.7262 25.1652C66.6297 25.0698 66.5814 24.9204 66.5814 24.717V23.7216C66.5814 23.5044 66.6309 23.3457 66.7309 23.2469C66.8308 23.1481 66.9895 23.0986 67.2102 23.0986H68.3412V23.5388H67.3366C67.2113 23.5388 67.1481 23.6009 67.1481 23.7262V24.7262C67.1481 24.7744 67.163 24.8124 67.1906 24.8399C67.2182 24.8675 67.2573 24.8825 67.3056 24.8825H67.778C67.8354 24.8825 67.8918 24.8733 67.9458 24.856H68.3412V25.2664C68.2009 25.2928 68.0619 25.3066 67.9239 25.3066H67.1791L67.178 25.3089Z" fill="#2B2B2B"/>
<path d="M69.6274 25.2995H68.4963V24.8593H68.7791V23.5398H68.4963V23.0996H69.6274V23.5398H69.3446V24.8593H69.6274V25.2995Z" fill="#2B2B2B"/>
<path d="M70.978 25.2994H70.4124V23.5408H69.7527V23.1006H71.6377V23.5408H70.978V25.2994Z" fill="#2B2B2B"/>
<path d="M71.6067 23.1006H72.2032L72.7216 24.1684L73.24 23.1006H73.8365L73.0044 24.7178V25.2982H72.4389V24.7178L71.6067 23.1006Z" fill="#2B2B2B"/>
<path d="M25.8589 10.0445C25.8589 11.8491 24.6623 13.38 23.0198 13.8823V18.327H20.6877V14.0582H14.4694V20.9579C14.4694 23.1716 12.6648 24.9716 10.451 24.9716C8.23724 24.9716 6.43726 23.1716 6.43726 20.9579C6.43726 18.7442 8.23724 16.9443 10.451 16.9443C10.6625 16.9443 10.8694 16.9615 11.0717 16.9925V19.3959C10.8786 19.3212 10.6717 19.2775 10.451 19.2775C9.52228 19.2775 8.76941 20.0304 8.76941 20.9591C8.76941 21.8878 9.52228 22.6406 10.451 22.6406C11.3797 22.6406 12.136 21.8878 12.136 20.9591V5.90332H14.4682V11.7261H21.8532C22.7727 11.7215 23.5256 10.9652 23.5256 10.0445C23.5256 9.12389 22.7681 8.35955 21.844 8.35955C20.9199 8.35955 20.1589 9.11699 20.1589 10.0445C20.1589 10.2641 20.2026 10.471 20.2773 10.6652H17.8739C17.8429 10.4629 17.8256 10.256 17.8256 10.0445C17.8256 7.82623 19.6302 6.0263 21.844 6.0263C24.0578 6.0263 25.8577 7.82623 25.8577 10.0445H25.8589Z" fill="#2B2B2B"/>
<path d="M61.9953 5.9043H59.662V16.959H61.9953V5.9043Z" fill="#2B2B2B"/>
<path d="M41.6369 26.4247V30.1476H39.3001V26.4247C39.3001 25.6236 38.653 24.9719 37.8519 24.9719H21.8279C19.3544 24.9719 17.3429 22.9605 17.3429 20.4916V18.3262H19.6751V20.4916C19.6751 21.6755 20.6394 22.6398 21.8268 22.6398H37.8507C39.9369 22.6398 41.6357 24.3386 41.6357 26.4247H41.6369Z" fill="#2B2B2B"/>
<path d="M51.8023 16.7834H46.6173C45.2472 16.7834 44.1334 15.6685 44.1334 14.2996V12.7238C44.1334 11.3537 45.2484 10.2388 46.6173 10.2388H49.3127C49.3966 10.2388 49.4644 10.171 49.4644 10.0871V8.51133C49.4644 8.42742 49.3966 8.35961 49.3127 8.35961H44.1392V6.02637H49.3127C50.6828 6.02637 51.7977 7.14127 51.7977 8.51133V10.0871C51.7977 11.4572 50.6828 12.5709 49.3127 12.5709H46.6173C46.5334 12.5709 46.4656 12.6388 46.4656 12.7227V14.2985C46.4656 14.3824 46.5334 14.4502 46.6173 14.4502H51.8023V16.7834Z" fill="#2B2B2B"/>
<path d="M41.453 18.7432H31.9163V21.0764H41.453V18.7432Z" fill="#2B2B2B"/>
<path d="M80.0261 0.296875V16.9273H77.694V2.62897H6.39474V7.64602H9.8016V9.97811H8.52115C8.89586 10.5769 9.1154 11.2804 9.1154 12.0424V16.1526H6.78324V12.0424C6.78324 11.1838 6.08325 10.4884 5.22923 10.4884C4.37522 10.4884 3.67178 11.1838 3.67178 12.0424V16.179H1.33732V12.0424C1.33732 11.2815 1.55686 10.5769 1.93157 9.97811H0.651123V7.64602H4.06143V0.296875H80.025H80.0261Z" fill="#2B2B2B"/>
<path d="M77.6928 17.9883H80.0262V30.297H43.3622V27.9649H77.6928V17.9883Z" fill="#2B2B2B"/>
<path d="M29.7738 20.8072H24.1324V18.4739H27.4405V5.9043H29.7738V20.8072Z" fill="#2B2B2B"/>
<path d="M57.5988 5.90332V16.9581H55.262V14.7053H53.0839V12.372H55.262V10.4365H53.0839V8.10324H55.262V5.90332H57.5988Z" fill="#2B2B2B"/>
<path d="M74.1423 10.8009V16.9271H71.8101V10.8009C71.8101 9.45382 70.7147 8.35846 69.3676 8.35846C68.0205 8.35846 66.9297 9.45382 66.9297 10.8009V16.957H64.5975V10.8009C64.5975 8.16881 66.7366 6.02637 69.3676 6.02637C71.9986 6.02637 74.1423 8.16996 74.1423 10.8009Z" fill="#2B2B2B"/>
<path d="M35.999 8.35846H40.7438V6.02637H35.999C34.2692 6.02637 32.8657 7.52746 32.8657 9.37566V13.4376C32.8657 15.2812 34.2692 16.7823 35.999 16.7823H40.7438V14.4502H35.999C35.5634 14.4502 35.1979 13.9881 35.1979 13.4376V12.5709H40.7426V10.2388H35.1979V9.37681C35.1979 8.82626 35.5634 8.36076 35.999 8.36076V8.35846Z" fill="#2B2B2B"/>
<path d="M55.9654 22.0384C55.7597 22.0384 55.6091 21.9913 55.5137 21.8947C55.4172 21.7993 55.3689 21.6499 55.3689 21.4465V20.4511C55.3689 20.2327 55.4183 20.0752 55.5183 19.9764C55.6183 19.8775 55.7769 19.8281 55.9976 19.8281H57.1286V20.2683H56.1241C55.9988 20.2683 55.9356 20.3304 55.9356 20.4557V21.4556C55.9356 21.5039 55.9505 21.5419 55.9781 21.5694C56.0057 21.597 56.0448 21.612 56.093 21.612H56.5654C56.6229 21.612 56.6792 21.6028 56.7333 21.5855H57.1286V21.9959C56.9884 22.0223 56.8493 22.0361 56.7114 22.0361H55.9666L55.9654 22.0384Z" fill="#2B2B2B"/>
<path d="M59.2942 22.0298H58.7287V21.1345H57.9436V22.0298H57.3781V19.8311H57.9436V20.6942H58.7287V19.8311H59.2942V22.0298Z" fill="#2B2B2B"/>
<path d="M60.0643 22.0298H59.4517L60.2838 19.8311H60.9126L61.7447 22.0298H61.1321L60.9907 21.6367H60.2057L60.0643 22.0298ZM60.3471 21.2287H60.8493L60.5976 20.4908L60.3459 21.2287H60.3471Z" fill="#2B2B2B"/>
<path d="M63.8171 22.0298H63.2205L62.4665 20.7103V22.0298H61.901V19.8311H62.4975L63.2516 21.1505V19.8311H63.8171V22.0298Z" fill="#2B2B2B"/>
<path d="M64.7286 22.0517C64.5228 22.0517 64.3722 22.0034 64.2768 21.908C64.1803 21.8126 64.132 21.662 64.132 21.4574V20.4563C64.132 20.2379 64.1814 20.0782 64.2814 19.9793C64.3814 19.8805 64.5401 19.8311 64.7608 19.8311H65.8918V20.2713H64.8872C64.7619 20.2713 64.6987 20.3333 64.6987 20.4586V21.4586C64.6987 21.5069 64.7136 21.5448 64.7412 21.5724C64.7688 21.6 64.8079 21.6149 64.8562 21.6149H65.5159V21.1505H65.1079V20.7735H66.0814V21.9838C65.924 22.0057 65.7665 22.0172 65.6067 22.0172C65.4711 22.0402 65.324 22.0517 65.1676 22.0517H64.7309H64.7286Z" fill="#2B2B2B"/>
<path d="M67.8998 19.8311L68.2768 21.2448L68.6067 19.8311H69.2194L68.6228 22.0298H68.0263L67.6493 20.6632L67.2723 22.0298H66.6757L66.0792 19.8311H66.6918L67.0217 21.2448L67.3987 19.8311H67.901H67.8998Z" fill="#2B2B2B"/>
<path d="M71.3549 21.4331C71.3549 21.6526 71.3055 21.8124 71.2055 21.9124C71.1055 22.0124 70.9469 22.0618 70.7262 22.0618H69.9412C69.7216 22.0618 69.5619 22.0124 69.4619 21.9124C69.3619 21.8124 69.3124 21.6526 69.3124 21.4331V20.4285C69.3124 20.209 69.3619 20.0492 69.4619 19.9492C69.5619 19.8492 69.7205 19.7998 69.9412 19.7998H70.7262C70.9458 19.7998 71.1055 19.8492 71.2055 19.9492C71.3055 20.0492 71.3549 20.2078 71.3549 20.4285V21.4331ZM70.7894 20.4285C70.7894 20.3032 70.7262 20.24 70.6009 20.24H70.0676C69.9423 20.24 69.8791 20.3032 69.8791 20.4285V21.4331C69.8791 21.5584 69.9423 21.6216 70.0676 21.6216H70.6009C70.7262 21.6216 70.7894 21.5584 70.7894 21.4331V20.4285Z" fill="#2B2B2B"/>
<path d="M73.5848 22.0298H72.9883L72.2343 20.7103V22.0298H71.6688V19.8311H72.2653L73.0193 21.1505V19.8311H73.5848V22.0298Z" fill="#2B2B2B"/>
</g>
<defs>
<clipPath id="clip0_2462_23487">
<rect width="79.375" height="30" fill="white" transform="translate(0.651123 0.296875)"/>
</clipPath>
</defs>
</svg>
