<svg width="91" height="31" viewBox="0 0 91 31" fill="none" xmlns="http://www.w3.org/2000/svg">
<mask id="mask0_2462_23534" style="mask-type:luminance" maskUnits="userSpaceOnUse" x="68" y="0" width="23" height="23">
<path d="M77.8638 11.3306C77.8638 11.1001 77.9321 10.8747 78.0602 10.683C78.1883 10.4912 78.3704 10.3418 78.5834 10.2536C78.7964 10.1653 79.0308 10.1423 79.257 10.1872C79.4831 10.2322 79.6908 10.3433 79.8539 10.5063C80.0169 10.6693 80.1279 10.8771 80.1729 11.1032C80.2179 11.3293 80.1948 11.5637 80.1066 11.7767C80.0183 11.9898 79.8689 12.1718 79.6772 12.2999C79.4855 12.428 79.2601 12.4964 79.0295 12.4964C78.7206 12.4954 78.4247 12.3723 78.2063 12.1539C77.9879 11.9354 77.8648 11.6395 77.8638 11.3306ZM74.2821 1.39716C74.506 1.42825 74.7272 1.47649 74.9437 1.54147C75.3607 1.66441 75.7487 1.87032 76.0842 2.14685C76.4223 2.43037 76.692 2.78659 76.8732 3.18893C77.0732 3.64559 77.1717 4.14022 77.1619 4.63865C77.1669 5.26014 76.9696 5.86638 76.5996 6.36576C76.396 6.64815 76.1418 6.89029 75.8499 7.07985C75.9346 7.12143 76.0169 7.16774 76.0964 7.21854C76.3846 7.40229 76.6352 7.63923 76.8348 7.9167C77.0351 8.1954 77.1863 8.50632 77.2818 8.83601C77.3805 9.17804 77.4297 9.53242 77.428 9.8884C77.4382 10.4122 77.3285 10.9315 77.1075 11.4065C76.9054 11.8288 76.6134 12.2017 76.2519 12.4992C75.8905 12.7907 75.4771 13.011 75.0337 13.1486C74.5731 13.2932 74.0929 13.3659 73.6102 13.3642C72.8065 13.3788 72.0154 13.1643 71.3292 12.7457C70.627 12.286 70.1248 11.5775 69.9235 10.7627L69.8523 10.5153H72.1951C72.2944 10.7504 72.4394 10.9635 72.6215 11.1423C72.9191 11.3695 73.2904 11.4783 73.6636 11.4478C73.8897 11.4494 74.114 11.4074 74.3243 11.3241C74.5271 11.243 74.714 11.1265 74.8762 10.9801C75.0338 10.8359 75.1596 10.6604 75.2454 10.4647C75.3387 10.2492 75.385 10.0163 75.3813 9.78156C75.3991 9.46087 75.3218 9.14206 75.1592 8.86506C75.0153 8.64451 74.8137 8.46757 74.5763 8.35339C74.3075 8.22616 74.0193 8.14475 73.7236 8.11255C73.3955 8.07321 73.0653 8.05319 72.7349 8.05258H72.4247V6.13804H72.7349C73.1608 6.14662 73.5864 6.1105 74.0047 6.03027C74.2554 5.98432 74.4943 5.88874 74.7075 5.74914C74.848 5.65099 74.9552 5.51239 75.0149 5.3518C75.0844 5.15312 75.1183 4.94376 75.1152 4.7333C75.1325 4.53234 75.1056 4.33003 75.0363 4.1406C74.967 3.95117 74.857 3.77923 74.7141 3.63687C74.4209 3.38529 74.043 3.25463 73.657 3.2714C73.3447 3.26239 73.0392 3.36357 72.7939 3.55722C72.616 3.67738 72.4656 3.83388 72.3525 4.01641C72.2394 4.19893 72.1663 4.40334 72.138 4.61616L70.3181 4.60773C68.863 6.48338 68.0538 8.77954 68.0117 11.1531C67.9695 13.5266 68.6965 15.8501 70.084 17.7763C71.4715 19.7024 73.4451 21.1279 75.7098 21.8397C77.9745 22.5514 80.4087 22.5113 82.6487 21.7251C82.4644 21.6415 82.2902 21.5371 82.1295 21.414C81.6179 21.009 81.2084 20.4897 80.9338 19.8978C80.649 19.288 80.4551 18.6398 80.3584 17.9739C80.2608 17.3456 80.2101 16.711 80.2066 16.0753C80.2066 15.6667 80.2272 15.2318 80.2675 14.797C80.3082 14.3518 80.3831 13.9104 80.4914 13.4766C80.5978 13.0475 80.7434 12.629 80.9263 12.2265C81.1057 11.8272 81.3516 11.4612 81.6535 11.1441C81.9565 10.8299 82.3161 10.5755 82.7133 10.3944C83.6287 10.017 84.6562 10.017 85.5716 10.3944C85.9689 10.5754 86.3285 10.8297 86.6314 11.1441C86.9331 11.4614 87.179 11.8273 87.3586 12.2265C87.5413 12.6291 87.6868 13.0476 87.7935 13.4766C87.9012 13.9105 87.9758 14.3519 88.0165 14.797C88.0568 15.2393 88.0774 15.6685 88.0774 16.0762C88.0724 16.6482 88.0289 17.2193 87.9472 17.7855C89.3921 15.8046 90.1337 13.3978 90.0542 10.9472C89.9748 8.49668 89.0788 6.14293 87.5086 4.25983C85.9384 2.37673 83.7841 1.07226 81.3877 0.553603C78.9914 0.0349495 76.4904 0.331853 74.2821 1.39716Z" fill="white"/>
</mask>
<g mask="url(#mask0_2462_23534)">
<path d="M76.5715 -10.4269L57.2771 13.7852L81.4892 33.0795L100.784 8.86745L76.5715 -10.4269Z" fill="url(#paint0_linear_2462_23534)"/>
</g>
<mask id="mask1_2462_23534" style="mask-type:luminance" maskUnits="userSpaceOnUse" x="82" y="12" width="5" height="9">
<path d="M83.4527 12.1969C83.2505 12.3204 83.0778 12.4868 82.9467 12.6842C82.794 12.9135 82.6742 13.163 82.5906 13.4255C82.4956 13.7186 82.4223 14.0184 82.3713 14.3223C82.3198 14.6268 82.2864 14.9341 82.271 15.2425C82.256 15.5518 82.2495 15.8264 82.2495 16.0691C82.2495 16.4177 82.271 16.8394 82.3151 17.323C82.3557 17.7854 82.4481 18.2418 82.5906 18.6836C82.7112 19.073 82.9141 19.432 83.1857 19.736C83.4435 19.979 83.7844 20.1143 84.1387 20.1143C84.493 20.1143 84.8339 19.979 85.0918 19.736C85.3635 19.4321 85.5665 19.0732 85.6868 18.6836C85.8293 18.2418 85.9217 17.7854 85.9623 17.323C86.0064 16.8394 86.0279 16.4177 86.0279 16.0691C86.0279 15.8264 86.0204 15.5518 86.0055 15.2425C85.9901 14.9338 85.9567 14.6262 85.9052 14.3214C85.8542 14.0174 85.7809 13.7177 85.6859 13.4245C85.6019 13.1622 85.4821 12.9128 85.3298 12.6833C85.1986 12.486 85.0259 12.3197 84.8237 12.196C84.6125 12.0833 84.3767 12.0244 84.1373 12.0244C83.8979 12.0244 83.6621 12.0833 83.4509 12.196" fill="white"/>
</mask>
<g mask="url(#mask1_2462_23534)">
<path d="M83.7174 10.1823L78.307 16.9717L84.5607 21.9551L89.971 15.1658L83.7174 10.1823Z" fill="url(#paint1_linear_2462_23534)"/>
</g>
<mask id="mask2_2462_23534" style="mask-type:luminance" maskUnits="userSpaceOnUse" x="0" y="0" width="91" height="31">
<path d="M90.0463 0.296875H0.502686V30.2969H90.0463V0.296875Z" fill="white"/>
</mask>
<g mask="url(#mask2_2462_23534)">
<path d="M87.9434 17.7804C88.0253 17.2142 88.0688 16.6432 88.0737 16.0711C88.0737 15.6644 88.0531 15.2343 88.0128 14.792C87.9721 14.3468 87.8976 13.9054 87.7897 13.4716C87.683 13.0425 87.5375 12.6241 87.3549 12.2214C87.1753 11.8222 86.9295 11.4562 86.6277 11.1391C86.3248 10.8246 85.9652 10.5702 85.5678 10.3894C84.6527 10.0121 83.6256 10.0121 82.7105 10.3894C82.3131 10.5701 81.9535 10.8245 81.6507 11.1391C81.3486 11.456 81.1027 11.822 80.9235 12.2214C80.7409 12.6241 80.5954 13.0425 80.4886 13.4716C80.3806 13.9053 80.306 14.3468 80.2656 14.792C80.2253 15.2315 80.2047 15.6625 80.2047 16.0711C80.2081 16.7069 80.2588 17.3415 80.3565 17.9697C80.4534 18.6357 80.6472 19.2839 80.9319 19.8936C81.2063 20.4854 81.6155 21.0047 82.1267 21.4099C82.2876 21.5334 82.4621 21.6381 82.6468 21.722C84.7735 20.9799 86.6219 19.6044 87.9434 17.7804ZM85.9624 17.325C85.9215 17.7874 85.8291 18.2438 85.6868 18.6857C85.5663 19.0751 85.3634 19.4341 85.0918 19.7381C84.8339 19.981 84.493 20.1163 84.1387 20.1163C83.7844 20.1163 83.4435 19.981 83.1857 19.7381C82.914 19.4341 82.7111 19.0751 82.5906 18.6857C82.4485 18.2438 82.3561 17.7874 82.3151 17.325C82.271 16.8414 82.2495 16.4197 82.2495 16.0711C82.2495 15.8281 82.2567 15.5526 82.271 15.2446C82.2862 14.9361 82.3197 14.6288 82.3713 14.3243C82.4221 14.0201 82.4954 13.72 82.5906 13.4266C82.6739 13.1642 82.7935 12.9147 82.9458 12.6853C83.0771 12.4881 83.2498 12.3219 83.4518 12.198C83.6631 12.0854 83.8988 12.0266 84.1382 12.0266C84.3777 12.0266 84.6134 12.0854 84.8247 12.198C85.0267 12.3218 85.1994 12.4881 85.3307 12.6853C85.4831 12.9148 85.6029 13.1642 85.6868 13.4266C85.7818 13.7197 85.8551 14.0195 85.9061 14.3234C85.9576 14.6282 85.9911 14.9358 86.0064 15.2446C86.0214 15.5532 86.0289 15.8287 86.0289 16.0711C86.0289 16.4197 86.0055 16.8414 85.9624 17.325Z" fill="white"/>
<path d="M72.794 3.55381C73.0392 3.36031 73.3447 3.25914 73.657 3.26799C74.0436 3.25262 74.4216 3.38496 74.7141 3.63815C74.8571 3.78047 74.9671 3.9524 75.0364 4.14184C75.1057 4.33128 75.1326 4.53362 75.1152 4.73458C75.1183 4.94503 75.0844 5.15439 75.0149 5.35308C74.9552 5.51367 74.848 5.65227 74.7075 5.75042C74.4943 5.89002 74.2554 5.9856 74.0047 6.03156C73.5864 6.11195 73.1608 6.14807 72.7349 6.13932H72.4247V8.05573H72.7349C73.0654 8.05634 73.3955 8.07637 73.7236 8.11571C74.0193 8.14832 74.3075 8.23004 74.5763 8.35749C74.814 8.47156 75.0159 8.64851 75.1602 8.86915C75.3225 9.14592 75.3997 9.46434 75.3823 9.78472C75.3859 10.0198 75.3396 10.253 75.2464 10.4688C75.1604 10.6641 75.0347 10.8393 74.8772 10.9833C74.715 11.1298 74.5281 11.2462 74.3252 11.3272C74.115 11.4108 73.8907 11.4528 73.6645 11.4509C73.2915 11.4818 72.9202 11.3733 72.6225 11.1464C72.4404 10.9675 72.2955 10.7545 72.1961 10.5194H69.8533L69.9245 10.7668C70.1257 11.5817 70.6279 12.2902 71.3302 12.7498C72.0163 13.1683 72.8075 13.3829 73.6111 13.3683C74.0939 13.3698 74.574 13.2971 75.0346 13.1527C75.4781 13.0152 75.8915 12.7948 76.2529 12.5033C76.614 12.2058 76.9058 11.8328 77.1075 11.4106C77.3291 10.9357 77.439 10.4164 77.4289 9.89249C77.4307 9.53651 77.3814 9.18212 77.2827 8.8401C77.1872 8.51014 77.036 8.19892 76.8358 7.91985C76.5808 7.56458 76.2426 7.27724 75.8508 7.083C76.1427 6.89332 76.3969 6.65121 76.6005 6.36892C76.9706 5.86957 77.168 5.2633 77.1628 4.64181C77.1726 4.14307 77.0741 3.64815 76.8742 3.19115C76.6927 2.78899 76.423 2.43284 76.0851 2.14907C75.7494 1.87207 75.3612 1.66583 74.9437 1.54275C74.7272 1.47793 74.506 1.42968 74.2821 1.39844C72.728 2.14328 71.3698 3.24151 70.3162 4.60526L72.1361 4.61369C72.1644 4.40085 72.2375 4.19642 72.3505 4.01389C72.4636 3.83136 72.6141 3.67487 72.7921 3.55475" fill="white"/>
<path d="M79.0296 10.1602C78.799 10.1602 78.5736 10.2285 78.3819 10.3566C78.1902 10.4847 78.0408 10.6668 77.9525 10.8798C77.8643 11.0928 77.8412 11.3272 77.8862 11.5534C77.9311 11.7795 78.0422 11.9872 78.2052 12.1503C78.3683 12.3133 78.576 12.4243 78.8021 12.4693C79.0282 12.5143 79.2626 12.4912 79.4757 12.403C79.6887 12.3147 79.8708 12.1653 79.9989 11.9736C80.127 11.7819 80.1953 11.5565 80.1953 11.3259C80.1943 11.0171 80.0712 10.7211 79.8528 10.5027C79.6344 10.2843 79.3384 10.1611 79.0296 10.1602Z" fill="white"/>
<path d="M36.6914 0.296571C38.0062 0.259737 39.3135 0.505739 40.5249 1.01793C41.7364 1.53012 42.8237 2.29655 43.7132 3.26536C46.0664 5.98301 46.0664 9.29385 46.0664 13.1332V30.2966H41.3808V13.1351C41.3808 9.80739 41.5091 7.6061 40.2778 6.20979C39.3158 5.2815 38.0311 4.76273 36.6942 4.76273C35.3574 4.76273 34.0727 5.2815 33.1107 6.20979C31.8774 7.61547 32.0058 9.81021 32.0058 13.137V30.2966H27.3202V13.1351C27.3202 9.29292 27.3202 5.98114 29.6743 3.2663C30.5632 2.29793 31.6497 1.53168 32.8603 1.01934C34.0709 0.507009 35.3774 0.260532 36.6914 0.296571Z" fill="#F3830A"/>
<path d="M0.502686 23.5805V0.296875H5.17329V22.4288C5.1768 22.8596 5.267 23.2853 5.43852 23.6805C5.61004 24.0757 5.85937 24.4324 6.17165 24.7292C6.48393 25.026 6.85277 25.2569 7.25618 25.4081C7.65958 25.5593 8.08931 25.6278 8.51974 25.6094H19.2526V30.295H7.19559C5.41847 30.2895 3.71601 29.5797 2.46141 28.321C1.2068 27.0624 0.502429 25.3577 0.502686 23.5805Z" fill="#004E94"/>
<path d="M25.6287 0.296875H20.9413V30.2969H25.6287V0.296875Z" fill="#4B9E35"/>
<path d="M60.8672 24.3864C59.8872 25.3158 58.588 25.8339 57.2373 25.8339C55.8866 25.8339 54.5874 25.3158 53.6074 24.3864C52.6524 23.3162 52.4556 21.7756 52.4388 19.6258V11.1852C52.4482 8.92017 52.6262 7.313 53.6083 6.20627C54.5883 5.27682 55.8876 4.75871 57.2382 4.75871C58.5889 4.75871 59.8881 5.27682 60.8682 6.20627C61.3628 6.77766 61.6909 7.47399 61.8165 8.2192H66.5021C66.2953 6.38903 65.5445 4.66289 64.3468 3.26371C63.4164 2.32317 62.3088 1.5765 61.088 1.06691C59.8672 0.557313 58.5574 0.294922 57.2345 0.294922C55.9116 0.294922 54.6018 0.557313 53.381 1.06691C52.1602 1.5765 51.0525 2.32317 50.1222 3.26371C48.1543 5.50718 47.8104 8.16297 47.7513 11.1842L47.7569 19.6268C47.8291 22.5571 48.1993 25.1398 50.1222 27.3289C51.0526 28.2694 52.1602 29.0159 53.3811 29.5255C54.6019 30.035 55.9116 30.2973 57.2345 30.2973C58.5574 30.2973 59.8671 30.035 61.0879 29.5255C62.3087 29.0159 63.4164 28.2694 64.3468 27.3289C65.5444 25.9297 66.2951 24.2036 66.5021 22.3734H61.8165C61.6909 23.1187 61.3619 23.815 60.8672 24.3864Z" fill="#D42119"/>
</g>
<defs>
<linearGradient id="paint0_linear_2462_23534" x1="44.9418" y1="84.5556" x2="45.1348" y2="84.3135" gradientUnits="userSpaceOnUse">
<stop stop-color="#4B9E35"/>
<stop offset="1" stop-color="#004E94"/>
</linearGradient>
<linearGradient id="paint1_linear_2462_23534" x1="43.1406" y1="90.3432" x2="43.3462" y2="90.0852" gradientUnits="userSpaceOnUse">
<stop stop-color="#4B9E35"/>
<stop offset="1" stop-color="#004E94"/>
</linearGradient>
</defs>
</svg>
