<svg width="157" height="31" viewBox="0 0 157 31" fill="none" xmlns="http://www.w3.org/2000/svg">
<g clip-path="url(#clip0_2462_23560)">
<path d="M28.4335 6.15483C26.868 6.29548 25.7062 7.67746 25.8468 9.249C25.9875 10.8144 27.3695 11.9763 28.941 11.8356C30.5064 11.695 31.6683 10.3069 31.5276 8.74146C31.387 7.17603 30.005 6.01419 28.4335 6.16095V6.15483Z" fill="#00468D"/>
<path d="M11.2321 18.7153C11.2321 18.7153 11.2199 18.7031 11.2321 18.6908C11.3972 18.4707 12.8831 16.5995 15.2252 15.4805C8.0462 15.9513 8.33972 22.1702 8.33972 22.1702C13.8615 21.3814 15.0356 17.266 15.2741 15.9085C14.4975 16.3304 12.7425 17.3578 11.2321 18.7092V18.7153Z" fill="#009B91"/>
<path d="M11.8191 11.7871C11.8191 11.7871 11.8191 11.7749 11.8375 11.781C12.0576 11.8911 13.9655 12.8939 15.3413 14.7529C13.7392 8.56452 8.27245 9.81197 8.27245 9.81197C9.8868 14.5021 13.7209 14.8752 14.9683 14.869C14.4669 14.2575 13.2684 12.8939 11.8191 11.7871Z" fill="#ABCD03"/>
<path d="M24.9846 4.05748C21.2178 0.730945 16.069 -0.485933 11.2199 0.798209C10.6695 0.944968 10.1375 1.1223 9.61775 1.3241C3.45998 3.70893 -0.380214 9.88504 0.102868 16.3852C0.139558 16.8744 0.200708 17.3636 0.286317 17.8528C2.01685 23.0077 6.98831 26.7318 12.8587 26.7318C15.4208 26.7318 17.8179 26.0163 19.8481 24.7872C20.3373 24.4876 20.8081 24.1635 21.2484 23.8088C20.7653 24.1757 20.2517 24.4998 19.7074 24.7811C19.0348 25.1296 18.3132 25.417 17.555 25.6188C14.7482 26.3587 11.8925 26.0347 9.51379 24.6955C7.07392 23.3257 5.3067 20.9654 4.53622 18.0485C4.26104 17.0151 4.13263 15.9878 4.12651 14.9727C4.10205 11.2487 5.82036 7.76315 8.97568 5.44558C10.804 4.04525 13.195 3.15247 15.7144 2.92622C17.396 2.77334 19.0531 2.92622 20.5635 3.34203C21.9027 3.70893 23.1318 4.28374 24.1714 5.05422C24.4526 5.26213 24.844 5.21321 25.0641 4.94415C25.2843 4.67509 25.2476 4.27762 24.9908 4.05137L24.9846 4.05748Z" fill="url(#paint0_linear_2462_23560)"/>
<path d="M30.0601 13.9031C30.0417 13.6218 29.846 13.3894 29.5709 13.3222C27.7547 12.8635 26.1281 12.6373 24.6789 12.5822C19.5423 12.3682 16.7478 14.1354 15.5431 15.175C19.6279 13.4567 25.3943 15.4012 25.4433 15.6764C25.4799 15.8782 25.4127 16.3919 25.3699 16.6854C25.3699 16.6915 25.3699 16.6976 25.3699 16.7037C25.1192 18.6299 24.3426 20.4155 23.1807 21.9014C22.6181 22.623 21.9638 23.2712 21.2362 23.8277C20.7898 24.1823 20.325 24.5125 19.8358 24.8061C17.8057 26.0413 15.4147 26.7506 12.8464 26.7506C6.98219 26.7506 2.01073 23.0266 0.274078 17.8717C0.347458 18.2936 0.439182 18.7217 0.549252 19.1436C1.57657 23.0144 4.04701 26.2553 7.50808 28.2732C10.9691 30.2851 15.0111 30.8293 18.8819 29.8081C21.6703 29.0682 24.1713 27.5578 26.1098 25.4359C26.6907 24.7999 27.2044 24.1151 27.663 23.3996C28.6964 21.7853 29.4241 19.9875 29.7849 18.0918C29.7849 18.0918 29.7849 18.0918 29.7849 18.0857C29.7849 18.0674 29.791 18.0307 29.791 18.0307L29.8338 17.6638C30.1151 15.9822 30.109 14.698 30.0539 13.9214L30.0601 13.9031Z" fill="url(#paint1_linear_2462_23560)"/>
<path d="M42.8464 12.8201C42.7853 12.8201 42.7425 12.8079 42.7119 12.7834C42.6813 12.759 42.663 12.7101 42.663 12.6367V11.9396C42.663 11.8479 42.6813 11.7928 42.718 11.7745C42.7547 11.7561 42.7975 11.7439 42.8464 11.7439H44.6565V10.8022H42.8342C42.6874 11.1141 42.4918 11.4259 42.2594 11.7378C42.027 12.0435 41.758 12.3432 41.4522 12.6245C41.1465 12.9057 40.804 13.1626 40.431 13.4011C40.0519 13.6395 39.6544 13.8413 39.2203 14.0125C39.1102 14.0615 39.0429 14.0798 39.0124 14.0737C38.9818 14.0676 38.9512 14.037 38.9206 13.9759L38.5537 13.2176C38.5232 13.1503 38.5109 13.1014 38.517 13.077C38.5293 13.0464 38.5782 13.0158 38.6699 12.973C39.5138 12.6 40.1864 12.1597 40.6879 11.6522C41.1893 11.1446 41.5195 10.6126 41.6907 10.0562C41.7152 9.98279 41.7213 9.92775 41.7091 9.89718C41.6968 9.86049 41.6357 9.84214 41.5317 9.84214H39.0857C39.0001 9.84214 38.9512 9.8238 38.9329 9.781C38.9145 9.74431 38.9023 9.69539 38.9023 9.63424V8.9249C38.9023 8.85152 38.9145 8.8026 38.939 8.77203C38.9634 8.74145 39.0185 8.72922 39.0919 8.72922H42.4123C42.7119 8.72922 42.9137 8.77814 43.0238 8.8821C43.1277 8.98605 43.1828 9.15727 43.1828 9.40798C43.1828 9.46302 43.1828 9.51194 43.1828 9.57309C43.1828 9.62812 43.1766 9.68316 43.1705 9.73208H44.6626V8.40513C44.6626 8.33175 44.6748 8.28283 44.6993 8.25837C44.7237 8.23391 44.7727 8.22168 44.846 8.22168H45.8183C45.8917 8.22168 45.9406 8.23391 45.9651 8.25837C45.9895 8.28283 46.0018 8.33175 46.0018 8.40513V13.4867C46.0018 13.5662 45.9895 13.6151 45.9651 13.6334C45.9406 13.6518 45.8917 13.664 45.8183 13.664H44.846C44.7727 13.664 44.7237 13.6518 44.6993 13.6334C44.6748 13.6151 44.6626 13.5662 44.6626 13.4867V12.8385H42.8526L42.8464 12.8201ZM43.0788 17.6999C42.6569 17.6999 42.2655 17.6509 41.9109 17.5531C41.5562 17.4553 41.2443 17.3207 40.9814 17.1434C40.7184 16.9722 40.5105 16.7643 40.3638 16.5319C40.217 16.2995 40.1375 16.0366 40.1375 15.7553C40.1375 15.474 40.2109 15.2355 40.3638 15.0032C40.5105 14.7708 40.7184 14.569 40.9814 14.3917C41.2443 14.2205 41.5562 14.0798 41.9109 13.982C42.2655 13.8841 42.6569 13.8352 43.0788 13.8352C43.5007 13.8352 43.8615 13.8841 44.2223 13.9759C44.5831 14.0737 44.9011 14.2082 45.1701 14.3794C45.4453 14.5507 45.6593 14.7586 45.8244 14.9909C45.9895 15.2233 46.069 15.4801 46.069 15.7553C46.069 16.0305 45.9895 16.2934 45.8244 16.5319C45.6593 16.7704 45.4453 16.9722 45.1701 17.1434C44.8949 17.3146 44.5831 17.4553 44.2223 17.5531C43.8615 17.6509 43.4824 17.6999 43.0788 17.6999ZM43.0788 14.9114C42.5896 14.9114 42.2105 14.9971 41.9353 15.1744C41.6601 15.3517 41.5195 15.5535 41.5195 15.7859C41.5195 16.0183 41.6601 16.2017 41.9353 16.3729C42.2105 16.538 42.5957 16.6236 43.0788 16.6236C43.3051 16.6236 43.5191 16.5992 43.7148 16.5564C43.9104 16.5136 44.0755 16.4524 44.2223 16.3729C44.363 16.2995 44.4791 16.2078 44.5586 16.11C44.6381 16.006 44.6809 15.9021 44.6809 15.792C44.6809 15.6819 44.6381 15.5719 44.5586 15.4679C44.4791 15.364 44.363 15.2722 44.2223 15.1866C44.0817 15.1071 43.9104 15.0399 43.7148 14.9909C43.5191 14.942 43.3112 14.9176 43.0788 14.9176V14.9114Z" fill="#00468D"/>
<path d="M48.3193 13.6026C48.197 13.676 48.1114 13.7127 48.0686 13.7127C48.0258 13.7127 47.9769 13.6821 47.928 13.6149L47.4388 13.0034C47.3654 12.9116 47.3409 12.8444 47.3593 12.8016C47.3776 12.7588 47.4265 12.7099 47.506 12.6487C47.8546 12.4102 48.1603 12.1412 48.4111 11.8354C48.6618 11.5297 48.8758 11.2056 49.0409 10.8631C49.206 10.5207 49.3283 10.1599 49.4139 9.78078C49.4934 9.40166 49.5362 9.02253 49.5362 8.63729C49.5362 8.52722 49.5484 8.45995 49.579 8.43549C49.6096 8.41103 49.6707 8.40492 49.7563 8.41103L50.6736 8.44772C50.747 8.45384 50.7959 8.46607 50.8265 8.49053C50.857 8.51499 50.8693 8.56391 50.8693 8.63117C50.8693 9.14483 50.8203 9.6218 50.7225 10.0743C50.8081 10.2944 50.9243 10.5146 51.0772 10.7225C51.23 10.9304 51.3952 11.1261 51.5664 11.3095C51.7437 11.493 51.921 11.652 52.1045 11.7987C52.2879 11.9455 52.4592 12.0678 52.6181 12.1595C52.7099 12.2145 52.7527 12.2635 52.7527 12.3185C52.7527 12.343 52.7404 12.3735 52.716 12.4102C52.6915 12.4469 52.6732 12.4775 52.6548 12.5019L52.2757 13.1134C52.2268 13.1929 52.1779 13.2357 52.1412 13.2357C52.1045 13.2357 52.0372 13.2113 51.9455 13.1624C51.8171 13.0951 51.6703 13.0095 51.5175 12.8994C51.3646 12.7893 51.2056 12.667 51.0527 12.5325C50.8998 12.398 50.747 12.2451 50.6002 12.0739C50.4534 11.9088 50.325 11.7315 50.2027 11.548C49.7686 12.3796 49.1387 13.0584 48.3132 13.5904L48.3193 13.6026ZM51.8843 17.6997C51.4624 17.6997 51.0711 17.6507 50.7164 17.5529C50.3617 17.4551 50.0499 17.3205 49.7869 17.1432C49.524 16.972 49.3161 16.7641 49.1693 16.5317C49.0225 16.2993 48.9431 16.0364 48.9431 15.7551C48.9431 15.4738 49.0164 15.2353 49.1693 15.003C49.3161 14.7706 49.524 14.5688 49.7869 14.3915C50.0499 14.2202 50.3617 14.0796 50.7164 13.9818C51.0711 13.8839 51.4624 13.835 51.8843 13.835C52.3063 13.835 52.6671 13.8839 53.0278 13.9756C53.3886 14.0735 53.7066 14.208 53.9757 14.3792C54.2508 14.5505 54.4649 14.7584 54.6239 14.9907C54.7828 15.2231 54.8623 15.4799 54.8623 15.7551C54.8623 16.0303 54.7828 16.2932 54.6239 16.5317C54.4649 16.7702 54.2508 16.972 53.9757 17.1432C53.7005 17.3144 53.3886 17.4551 53.0278 17.5529C52.6671 17.6507 52.2879 17.6997 51.8843 17.6997ZM51.8843 14.9112C51.3952 14.9112 51.016 14.9968 50.7408 15.1742C50.4657 15.3515 50.325 15.5533 50.325 15.7857C50.325 16.018 50.4657 16.2015 50.7408 16.3727C51.016 16.5378 51.4013 16.6234 51.8843 16.6234C52.1106 16.6234 52.3246 16.599 52.5203 16.5562C52.716 16.5134 52.8811 16.4522 53.0217 16.3727C53.1624 16.2993 53.2724 16.2076 53.3519 16.1098C53.4314 16.0058 53.4742 15.9019 53.4742 15.7918C53.4742 15.6817 53.4314 15.5717 53.3519 15.4677C53.2724 15.3637 53.1563 15.272 53.0156 15.1864C52.875 15.1069 52.7038 15.0397 52.5081 14.9907C52.3124 14.9418 52.1045 14.9174 51.8843 14.9174V14.9112ZM55.9753 11.5908H54.7706V13.4008C54.7706 13.517 54.7095 13.5782 54.5933 13.5782H53.6088C53.4804 13.5782 53.4131 13.517 53.4131 13.3886V8.38657C53.4131 8.31319 53.4253 8.26427 53.4559 8.23981C53.4865 8.21535 53.5354 8.20312 53.6088 8.20312H54.5933C54.6667 8.20312 54.7095 8.21535 54.7339 8.23981C54.7584 8.26427 54.7706 8.31319 54.7706 8.38657V10.4718H55.9753C56.0364 10.4718 56.0792 10.4779 56.1159 10.4962C56.1526 10.5146 56.1709 10.5635 56.1709 10.6491V11.3951C56.1709 11.5235 56.1037 11.5908 55.9753 11.5908Z" fill="#00468D"/>
<path d="M62.0413 12.6732C61.7478 12.7465 61.4237 12.8077 61.0568 12.8566C60.696 12.9055 60.323 12.9483 59.9439 12.9728C59.5647 13.0034 59.204 13.0217 58.8554 13.0217C58.5069 13.0217 58.2072 13.0217 57.9565 12.9973C57.6813 12.9789 57.4918 12.9178 57.3817 12.8077C57.2716 12.7037 57.2166 12.5264 57.2166 12.2757V8.71067C57.2166 8.58225 57.2777 8.51499 57.4 8.51499H58.3662C58.5007 8.51499 58.568 8.58225 58.568 8.71067V11.6764C58.568 11.7376 58.5802 11.7804 58.5986 11.8048C58.6169 11.8293 58.6658 11.8415 58.7453 11.8415C58.9655 11.8476 59.2101 11.8415 59.4791 11.8415C59.7482 11.8293 60.0172 11.8171 60.2863 11.7926C60.5615 11.7681 60.8305 11.7376 61.1057 11.7009C61.3809 11.6642 61.6316 11.6214 61.864 11.5725C61.9435 11.5602 61.9924 11.5664 62.0168 11.5847C62.0413 11.6092 62.0596 11.6336 62.0658 11.6703L62.1942 12.4836C62.1942 12.5814 62.1453 12.6426 62.0413 12.667V12.6732ZM63.2276 17.4734H58.8371C58.672 17.4734 58.5435 17.4612 58.4457 17.4428C58.3418 17.4245 58.2684 17.3878 58.2133 17.3328C58.1583 17.2777 58.1216 17.2043 58.1033 17.1126C58.0849 17.0209 58.0727 16.9047 58.0727 16.758V14.6177C58.0727 14.3303 58.1216 14.1346 58.2256 14.0368C58.3234 13.939 58.513 13.89 58.7881 13.89H63.1909C63.356 13.89 63.4844 13.9023 63.5823 13.9267C63.6801 13.9512 63.7535 13.9879 63.8085 14.0429C63.8636 14.0979 63.9003 14.1713 63.9186 14.2692C63.9369 14.367 63.9492 14.4832 63.9492 14.6299V16.7702C63.9492 16.9169 63.9369 17.0331 63.9125 17.1249C63.888 17.2166 63.8513 17.29 63.7963 17.3389C63.7413 17.3939 63.6679 17.4306 63.5762 17.4489C63.4844 17.4673 63.3744 17.4795 63.2337 17.4795L63.2276 17.4734ZM62.5855 15.1191C62.5855 15.0397 62.5488 15.003 62.4816 15.003H59.5403C59.4547 15.003 59.4119 15.0458 59.4119 15.1314V16.2504C59.4119 16.3299 59.4547 16.3666 59.5403 16.3666H62.4693C62.5122 16.3666 62.5427 16.3666 62.5611 16.3544C62.5794 16.3421 62.5855 16.3054 62.5855 16.2443V15.1253V15.1191ZM65.1294 11.4869H63.9247V13.1746C63.9247 13.248 63.9125 13.2969 63.888 13.3213C63.8636 13.3458 63.8208 13.358 63.7474 13.358H62.7629C62.6345 13.358 62.5672 13.2908 62.5672 13.1624V8.38657C62.5672 8.26427 62.6345 8.20312 62.7629 8.20312H63.7474C63.8636 8.20312 63.9247 8.26427 63.9247 8.38657V10.3617H65.1294C65.1905 10.3617 65.2333 10.3678 65.27 10.3862C65.3067 10.4045 65.325 10.4534 65.325 10.539V11.2851C65.325 11.3646 65.3067 11.4135 65.27 11.4441C65.2333 11.4685 65.1844 11.4807 65.1294 11.4807V11.4869Z" fill="#00468D"/>
<path d="M74.1367 16.0244H65.7714C65.6858 16.0244 65.6308 16.006 65.6124 15.9632C65.588 15.9265 65.5757 15.8776 65.5757 15.8165V15.1071C65.5757 15.0338 65.588 14.9848 65.6124 14.9482C65.6369 14.9176 65.6858 14.8992 65.7714 14.8992H69.2753V13.1504H67.5937C67.3063 13.1504 67.1045 13.0831 66.9822 12.9486C66.8599 12.814 66.7987 12.6184 66.7987 12.3615V9.43246C66.7987 9.15117 66.8599 8.96161 66.9761 8.86988C67.0923 8.77816 67.2879 8.73535 67.557 8.73535H72.8954C73.0177 8.73535 73.0788 8.7965 73.0788 8.9188V9.66483C73.0788 9.7382 73.0666 9.78712 73.0421 9.81158C73.0177 9.83604 72.9687 9.84827 72.8954 9.84827H68.3275C68.2174 9.84827 68.1624 9.90331 68.1624 10.0073V11.8723C68.1624 11.9763 68.2174 12.0313 68.3275 12.0313H72.9443C73.091 12.0313 73.1705 12.0863 73.1705 12.1964V12.9363C73.1705 13.0709 73.0971 13.1442 72.9443 13.1442H70.6389V14.8931H74.1428C74.2773 14.8931 74.3446 14.9604 74.3446 15.101V15.8104C74.3446 15.9449 74.2773 16.0183 74.1428 16.0183L74.1367 16.0244Z" fill="#00468D"/>
<path d="M77.6039 13.3703C77.2553 13.3703 76.9312 13.3091 76.6377 13.1929C76.3442 13.0767 76.0935 12.9116 75.8795 12.6976C75.6654 12.4836 75.5003 12.239 75.3842 11.9516C75.268 11.6642 75.2068 11.3584 75.2068 11.0221C75.2068 10.7103 75.268 10.4106 75.3842 10.1232C75.5003 9.83582 75.6654 9.58511 75.8795 9.37108C76.0935 9.15706 76.3442 8.98584 76.6377 8.85743C76.9312 8.72901 77.2492 8.66786 77.6039 8.66786C77.9585 8.66786 78.2888 8.72901 78.5884 8.85743C78.888 8.98584 79.1449 9.15706 79.365 9.37108C79.5851 9.58511 79.7502 9.83582 79.8725 10.1232C79.9948 10.4106 80.0499 10.7103 80.0499 11.0221C80.0499 11.3584 79.9887 11.6642 79.8725 11.9516C79.7502 12.239 79.5851 12.4836 79.365 12.6976C79.1449 12.9116 78.888 13.0767 78.5884 13.1929C78.2888 13.3091 77.9647 13.3703 77.6039 13.3703ZM77.6039 9.85416C77.451 9.85416 77.3042 9.88474 77.1697 9.93977C77.0352 10.0009 76.919 10.0804 76.8212 10.1905C76.7233 10.3006 76.6438 10.429 76.5888 10.5757C76.5338 10.7225 76.5093 10.8815 76.5093 11.0527C76.5093 11.2239 76.5338 11.3829 76.5888 11.5297C76.6438 11.6764 76.7233 11.8048 76.8212 11.9149C76.919 12.025 77.0413 12.1045 77.1697 12.1656C77.3042 12.2268 77.4449 12.2512 77.6039 12.2512C77.928 12.2512 78.197 12.1412 78.4049 11.9149C78.6128 11.6887 78.7229 11.4012 78.7229 11.0527C78.7229 10.7041 78.619 10.4167 78.4049 10.1905C78.1909 9.96423 77.928 9.85416 77.6039 9.85416ZM82.6243 17.4673H77.5122C77.3715 17.4673 77.2553 17.4551 77.1636 17.4306C77.078 17.4061 77.0046 17.3695 76.9557 17.3083C76.9068 17.2472 76.8701 17.1738 76.8517 17.082C76.8334 16.9903 76.8212 16.8741 76.8212 16.7396V14.5199C76.8212 14.3854 76.8884 14.312 77.0168 14.312H77.983C78.1114 14.312 78.1787 14.3792 78.1787 14.5199V16.1893C78.1787 16.2871 78.2276 16.336 78.3316 16.336H82.6243C82.6732 16.336 82.7221 16.3483 82.7588 16.3727C82.7955 16.3972 82.8199 16.4461 82.8199 16.5134V17.29C82.8199 17.3817 82.8016 17.4367 82.7588 17.4489C82.7221 17.4612 82.6732 17.4673 82.6243 17.4673ZM82.3491 14.8623H81.3646C81.2912 14.8623 81.2423 14.8501 81.2178 14.8195C81.1934 14.7889 81.1811 14.74 81.1811 14.6666V8.38657C81.1811 8.26427 81.2423 8.20312 81.3646 8.20312H82.3491C82.4653 8.20312 82.5264 8.26427 82.5264 8.38657V14.6728C82.5264 14.7461 82.5142 14.7951 82.4897 14.8195C82.4653 14.844 82.4225 14.8562 82.3491 14.8562V14.8623Z" fill="#00468D"/>
<path d="M87.8709 10.111C87.8159 10.4412 87.7241 10.7714 87.6079 11.1138C87.4918 11.4563 87.345 11.7987 87.1677 12.1534C87.2472 12.3185 87.3389 12.4836 87.449 12.6487C87.559 12.8138 87.6752 12.9789 87.7975 13.1318C87.9198 13.2908 88.0482 13.4375 88.1827 13.5721C88.3173 13.7066 88.4457 13.8289 88.5802 13.9267C88.6414 13.9756 88.6719 14.0185 88.6719 14.0613C88.6719 14.1102 88.6475 14.1713 88.5802 14.2508L88.1155 14.8379C88.0543 14.9174 88.0054 14.954 87.9626 14.9479C87.9198 14.9479 87.8648 14.9112 87.7914 14.8562C87.6874 14.7706 87.5774 14.6666 87.4612 14.5505C87.345 14.4343 87.2288 14.3059 87.1126 14.1652C86.9964 14.0246 86.8803 13.8839 86.7702 13.7372C86.6601 13.5904 86.5623 13.4498 86.4767 13.3091C86.2199 13.6821 85.9263 14.0368 85.6083 14.3731C85.2904 14.7094 84.9479 15.0091 84.5749 15.2842C84.4893 15.3454 84.4282 15.3699 84.3976 15.3637C84.3609 15.3576 84.3181 15.3209 84.2569 15.2476L83.7433 14.6177C83.6516 14.5138 83.676 14.4037 83.8106 14.2936C84.1652 14.0123 84.4893 13.7066 84.7767 13.3764C85.0641 13.0462 85.3209 12.7099 85.5411 12.3613C85.7612 12.0127 85.9447 11.6703 86.0975 11.3218C86.2443 10.9732 86.3666 10.6369 86.4461 10.3128C86.4583 10.2578 86.4644 10.2088 86.4583 10.166C86.4522 10.1171 86.3972 10.0988 86.3055 10.0988H84.4526C84.3609 10.0988 84.312 10.0804 84.2997 10.0437C84.2875 10.007 84.2814 9.95812 84.2814 9.89085V9.19375C84.2814 9.12037 84.2936 9.07145 84.3181 9.03476C84.3425 9.00418 84.3915 8.98584 84.471 8.98584H87.1677C87.4612 8.98584 87.663 9.03476 87.773 9.13871C87.8831 9.24267 87.9382 9.40777 87.9382 9.63403C87.9382 9.70129 87.932 9.77467 87.9198 9.86639C87.9076 9.952 87.8953 10.0376 87.8831 10.1049L87.8709 10.111ZM92.078 17.6263H91.0935C91.0201 17.6263 90.9773 17.614 90.9528 17.5896C90.9284 17.5651 90.9161 17.5162 90.9161 17.4489V12.8505H90.1823V17.082C90.1823 17.1677 90.1701 17.2166 90.1457 17.2349C90.1212 17.2533 90.0784 17.2594 90.005 17.2594H89.1C89.0266 17.2594 88.9777 17.2533 88.9471 17.2349C88.9165 17.2166 88.9043 17.1677 88.9043 17.082V8.55168C88.9043 8.4783 88.9165 8.42938 88.9471 8.41103C88.9777 8.38657 89.0266 8.37434 89.1 8.37434H90.005C90.0784 8.37434 90.1212 8.38657 90.1457 8.41103C90.1701 8.43549 90.1823 8.48441 90.1823 8.55168V11.7376H90.9161V8.38046C90.9161 8.30708 90.9284 8.25816 90.9528 8.23981C90.9773 8.21535 91.0262 8.20312 91.0996 8.20312H92.0719C92.1452 8.20312 92.188 8.21535 92.2125 8.23981C92.237 8.26427 92.2492 8.31319 92.2492 8.38046V17.4489C92.2492 17.5223 92.237 17.5712 92.2125 17.5896C92.188 17.614 92.1452 17.6263 92.0719 17.6263H92.078Z" fill="#00468D"/>
<path d="M98.8106 13.3828C98.4253 13.4439 98.0156 13.4867 97.5815 13.5234C97.1473 13.5601 96.6948 13.5845 96.2301 13.6029C95.7653 13.6212 95.2884 13.6274 94.8053 13.6274C94.3222 13.6274 93.8452 13.6212 93.3683 13.609C93.2765 13.609 93.2215 13.5907 93.2032 13.5601C93.1848 13.5295 93.1726 13.4745 93.1726 13.4011V12.7407C93.1726 12.6673 93.1848 12.6184 93.2093 12.5878C93.2337 12.5572 93.2888 12.545 93.3621 12.5511C93.4967 12.5572 93.6373 12.5633 93.7718 12.5633H94.1693V9.70766H93.4967C93.356 9.70766 93.2826 9.63428 93.2826 9.49364V8.84545C93.2826 8.71092 93.356 8.63754 93.4967 8.63754H98.2419C98.3703 8.63754 98.4376 8.70481 98.4376 8.84545V9.50587C98.4376 9.64651 98.3703 9.71378 98.2419 9.71378H97.6793V12.4839C97.8505 12.4716 98.0095 12.4594 98.1685 12.4472C98.3275 12.4349 98.4865 12.4166 98.6516 12.386C98.7494 12.3616 98.8045 12.3921 98.8289 12.4839L98.9329 13.1504C98.9451 13.2421 98.9451 13.3033 98.9206 13.3277C98.9023 13.3522 98.8595 13.3766 98.8045 13.3889L98.8106 13.3828ZM98.0095 17.7244C97.5876 17.7244 97.1962 17.6755 96.8416 17.5898C96.4869 17.4981 96.175 17.3697 95.9121 17.2046C95.6491 17.0395 95.4412 16.8438 95.2945 16.6176C95.1477 16.3913 95.0682 16.1406 95.0682 15.8654C95.0682 15.5903 95.1416 15.364 95.2945 15.1377C95.4412 14.9176 95.6491 14.7219 95.9121 14.5568C96.175 14.3917 96.4869 14.2633 96.8416 14.1716C97.1962 14.0799 97.5876 14.0309 98.0095 14.0309C98.4314 14.0309 98.7922 14.0799 99.153 14.1655C99.5138 14.2572 99.8318 14.3856 100.101 14.5507C100.376 14.7158 100.59 14.9115 100.755 15.1377C100.92 15.364 101 15.6086 101 15.8715C101 16.1345 100.92 16.3852 100.755 16.6115C100.596 16.8377 100.376 17.0334 100.101 17.1985C99.8257 17.3636 99.5138 17.4981 99.153 17.5898C98.7922 17.6816 98.4131 17.7305 98.0095 17.7305V17.7244ZM96.3646 12.5572V9.70766H95.4901V12.5633H95.9304C96.0711 12.5633 96.2178 12.5633 96.3707 12.5511L96.3646 12.5572ZM98.0095 15.0705C97.7649 15.0705 97.5448 15.0949 97.3491 15.1377C97.1595 15.1867 96.9944 15.2417 96.8599 15.3212C96.7254 15.3946 96.6275 15.4802 96.5541 15.5841C96.4808 15.682 96.4502 15.7859 96.4502 15.8899C96.4502 16.0917 96.5908 16.2751 96.866 16.428C97.1473 16.587 97.5264 16.6665 98.0034 16.6665C98.2296 16.6665 98.4437 16.6481 98.6394 16.6053C98.835 16.5625 99.0001 16.5075 99.1469 16.4341C99.2875 16.3607 99.4037 16.2812 99.4832 16.1834C99.5627 16.0856 99.6055 15.9938 99.6055 15.896C99.6055 15.792 99.5627 15.6881 99.4832 15.5903C99.4037 15.4924 99.2875 15.4068 99.1469 15.3273C99.0062 15.2539 98.835 15.1928 98.6394 15.1439C98.4437 15.1011 98.2358 15.0766 98.0034 15.0766L98.0095 15.0705ZM98.6271 12.1108C98.5599 12.1108 98.5109 12.0986 98.4804 12.0742C98.4498 12.0497 98.4314 12.0008 98.4314 11.9335V11.3342C98.4314 11.2609 98.4498 11.2119 98.4804 11.1875C98.5109 11.163 98.5599 11.1508 98.6271 11.1508H99.5933V10.7166H98.6271C98.5599 10.7166 98.5109 10.7044 98.4804 10.6799C98.4498 10.6555 98.4314 10.6066 98.4314 10.5393V9.95226C98.4314 9.87276 98.4498 9.82385 98.4804 9.79939C98.5109 9.77493 98.5599 9.7627 98.6271 9.7627H99.5933V8.38683C99.5933 8.30122 99.6116 8.2523 99.6544 8.22784C99.6972 8.20338 99.74 8.19727 99.8012 8.19727H100.767C100.853 8.19727 100.902 8.21561 100.92 8.2523C100.939 8.28899 100.945 8.33179 100.945 8.38683V13.5662C100.945 13.6946 100.884 13.7619 100.761 13.7619H99.789C99.6667 13.7619 99.6055 13.7007 99.6055 13.5784V12.117H98.6394L98.6271 12.1108Z" fill="#00468D"/>
<path d="M103.079 13.6339C102.987 13.6951 102.926 13.7134 102.895 13.6951C102.865 13.6767 102.822 13.64 102.779 13.585L102.314 13.0224C102.259 12.9552 102.223 12.9001 102.198 12.8512C102.174 12.8023 102.204 12.7411 102.296 12.6678C102.645 12.4109 102.938 12.1297 103.177 11.83C103.415 11.5243 103.605 11.2063 103.751 10.87C103.898 10.5336 104.002 10.1912 104.069 9.83654C104.137 9.48187 104.167 9.12721 104.167 8.77254C104.167 8.68081 104.179 8.61966 104.204 8.5952C104.228 8.57074 104.29 8.55851 104.381 8.56463L105.286 8.61355C105.36 8.61966 105.409 8.63801 105.439 8.66247C105.47 8.68693 105.482 8.73585 105.482 8.80923C105.482 9.0844 105.464 9.35346 105.433 9.6164C105.402 9.87935 105.354 10.1362 105.299 10.3808C105.476 10.7905 105.696 11.1451 105.959 11.4264C106.228 11.7138 106.509 11.9645 106.815 12.1847C106.888 12.2397 106.919 12.2825 106.919 12.3253C106.919 12.362 106.895 12.4109 106.858 12.4599L106.418 13.1264C106.363 13.1998 106.314 13.2365 106.265 13.2365C106.216 13.2365 106.155 13.212 106.087 13.1692C105.99 13.108 105.886 13.0347 105.763 12.9429C105.647 12.8512 105.525 12.7473 105.402 12.6311C105.28 12.5149 105.158 12.3865 105.042 12.2458C104.926 12.1113 104.822 11.9707 104.73 11.8361C104.522 12.2091 104.277 12.5455 104.002 12.8451C103.727 13.1447 103.421 13.4016 103.079 13.6278V13.6339ZM107.353 17.6943C106.919 17.6943 106.503 17.6515 106.118 17.5597C105.727 17.4741 105.39 17.3457 105.097 17.1745C104.803 17.0094 104.571 16.8076 104.406 16.5691C104.235 16.3306 104.155 16.0677 104.155 15.7619C104.155 15.4562 104.241 15.2055 104.406 14.9731C104.577 14.7407 104.803 14.5389 105.097 14.3738C105.39 14.2087 105.733 14.0803 106.118 13.9886C106.509 13.903 106.919 13.8541 107.353 13.8541C107.763 13.8541 108.16 13.8969 108.552 13.9886C108.943 14.0742 109.285 14.2026 109.585 14.3677C109.885 14.5328 110.123 14.7285 110.307 14.967C110.49 15.2055 110.582 15.4684 110.582 15.7619C110.582 16.0555 110.49 16.3306 110.307 16.5691C110.123 16.8076 109.885 17.0033 109.585 17.1745C109.285 17.3396 108.943 17.468 108.552 17.5597C108.16 17.6515 107.763 17.6943 107.353 17.6943ZM107.353 14.9548C107.096 14.9548 106.852 14.9792 106.625 15.0159C106.399 15.0587 106.21 15.1199 106.045 15.1994C105.879 15.2789 105.757 15.3706 105.665 15.4684C105.574 15.5724 105.531 15.6763 105.531 15.7986C105.531 15.9209 105.574 16.0249 105.665 16.1227C105.757 16.2206 105.886 16.3062 106.045 16.3795C106.21 16.4529 106.399 16.508 106.625 16.5447C106.852 16.5813 107.09 16.6058 107.353 16.6058C107.561 16.6058 107.775 16.5936 107.989 16.563C108.209 16.5324 108.405 16.4835 108.582 16.4224C108.76 16.3612 108.906 16.2756 109.023 16.1716C109.139 16.0677 109.194 15.9454 109.194 15.8047C109.194 15.6886 109.145 15.5785 109.041 15.4745C108.943 15.3706 108.802 15.285 108.637 15.2055C108.466 15.126 108.27 15.0648 108.05 15.022C107.824 14.9792 107.592 14.9609 107.353 14.9609V14.9548ZM110.313 13.6339H109.347C109.224 13.6339 109.163 13.5728 109.163 13.4505V11.5243H108.46V13.1631C108.46 13.2426 108.448 13.2915 108.423 13.316C108.399 13.3404 108.356 13.3526 108.283 13.3526H107.359C107.286 13.3526 107.237 13.3465 107.206 13.3282C107.176 13.3098 107.164 13.2548 107.164 13.1692V8.5524C107.164 8.47902 107.176 8.4301 107.206 8.41176C107.237 8.3873 107.286 8.37507 107.359 8.37507H108.283C108.399 8.37507 108.46 8.43621 108.46 8.5524V10.4297H109.163V8.39341C109.163 8.32003 109.175 8.27111 109.206 8.24665C109.237 8.22219 109.285 8.20996 109.359 8.20996H110.313C110.386 8.20996 110.435 8.22219 110.46 8.24665C110.484 8.27111 110.496 8.32003 110.496 8.39341V13.4505C110.496 13.5239 110.484 13.5728 110.46 13.5972C110.435 13.6217 110.386 13.6339 110.313 13.6339Z" fill="#00468D"/>
<path d="M119.919 15.976H111.554C111.469 15.976 111.414 15.9577 111.395 15.9149C111.371 15.8782 111.358 15.8293 111.358 15.7681V15.0588C111.358 14.9854 111.371 14.9365 111.395 14.8998C111.42 14.8631 111.469 14.8509 111.554 14.8509H113.456V12.2153C113.456 12.142 113.468 12.093 113.493 12.0686C113.517 12.0441 113.572 12.0319 113.645 12.0319H114.612C114.691 12.0319 114.74 12.0441 114.764 12.0686C114.789 12.093 114.801 12.142 114.801 12.2153V14.8509H115.578V12.2153C115.578 12.142 115.59 12.093 115.614 12.0686C115.639 12.0441 115.694 12.0319 115.767 12.0319H116.721C116.807 12.0319 116.862 12.0441 116.886 12.0686C116.911 12.093 116.923 12.142 116.923 12.2153V14.8509H119.901C120.036 14.8509 120.103 14.9182 120.103 15.0588V15.7681C120.103 15.9088 120.036 15.976 119.901 15.976H119.919ZM118.806 13.5973C118.794 13.6952 118.77 13.7563 118.739 13.7747C118.709 13.793 118.641 13.7991 118.544 13.7869L117.687 13.7013C117.583 13.6891 117.528 13.6585 117.516 13.6096C117.504 13.5606 117.51 13.5056 117.516 13.4383C117.559 13.1999 117.602 12.9491 117.632 12.674C117.663 12.4049 117.694 12.1297 117.712 11.8484C117.73 11.5672 117.742 11.292 117.749 11.0107C117.749 10.7294 117.761 10.4665 117.761 10.2096C117.761 10.1118 117.749 10.0384 117.718 9.99562C117.687 9.95281 117.602 9.93447 117.449 9.93447H112.722C112.655 9.93447 112.606 9.92835 112.569 9.91001C112.533 9.89166 112.508 9.84274 112.508 9.75713V8.98053C112.508 8.90715 112.526 8.86435 112.569 8.846C112.606 8.82766 112.661 8.81543 112.722 8.81543H118.421C118.654 8.81543 118.831 8.87046 118.941 8.97442C119.057 9.08449 119.112 9.27405 119.112 9.54922C119.112 10.4114 119.082 11.1819 119.027 11.8607C118.972 12.5394 118.892 13.1142 118.8 13.5973H118.806Z" fill="#00468D"/>
<path d="M127.795 17.6266H126.842C126.707 17.6266 126.64 17.5593 126.64 17.4309V15.6147C126.64 15.5169 126.591 15.468 126.493 15.468H121.815C121.766 15.468 121.717 15.4558 121.681 15.4374C121.644 15.4191 121.625 15.3701 121.625 15.3029V14.5385C121.625 14.4468 121.644 14.3917 121.681 14.3795C121.717 14.3612 121.766 14.3551 121.815 14.3551H122.738V13.5479H120.702C120.623 13.5479 120.574 13.5357 120.549 13.5112C120.525 13.4867 120.513 13.4378 120.513 13.3644V12.6551C120.513 12.5817 120.525 12.5328 120.549 12.4961C120.574 12.4655 120.623 12.4472 120.708 12.4472H129.074C129.208 12.4472 129.275 12.5145 129.275 12.6551V13.3644C129.275 13.4439 129.257 13.4928 129.214 13.5173C129.177 13.5418 129.129 13.554 129.067 13.554H127.031V14.3612H127.294C127.435 14.3612 127.551 14.3734 127.643 14.3979C127.728 14.4223 127.795 14.459 127.844 14.5202C127.893 14.5813 127.924 14.6547 127.948 14.7525C127.967 14.8504 127.979 14.9604 127.979 15.1011V17.4492C127.979 17.5776 127.918 17.6449 127.795 17.6449V17.6266ZM124.885 11.9641C124.42 11.9641 123.992 11.9213 123.607 11.8296C123.221 11.744 122.885 11.6156 122.61 11.4566C122.329 11.2976 122.115 11.1019 121.962 10.8818C121.809 10.6616 121.736 10.4109 121.736 10.1419C121.736 9.87279 121.809 9.61596 121.962 9.39582C122.115 9.17569 122.329 8.98001 122.61 8.82102C122.891 8.66203 123.221 8.53362 123.607 8.44801C123.992 8.3624 124.42 8.31348 124.885 8.31348C125.349 8.31348 125.778 8.35628 126.163 8.44801C126.548 8.53362 126.878 8.66203 127.153 8.82102C127.429 8.98001 127.643 9.17569 127.789 9.39582C127.936 9.61596 128.016 9.86668 128.016 10.1419C128.016 10.417 127.942 10.6677 127.789 10.8879C127.643 11.108 127.429 11.2976 127.153 11.4566C126.878 11.6156 126.548 11.7379 126.163 11.8235C125.778 11.9091 125.349 11.958 124.885 11.958V11.9641ZM124.885 9.38971C124.322 9.38971 123.882 9.46309 123.582 9.61596C123.277 9.76884 123.124 9.94617 123.124 10.148C123.124 10.2397 123.16 10.3314 123.24 10.417C123.319 10.5026 123.436 10.5882 123.588 10.6555C123.741 10.7289 123.925 10.7839 124.145 10.8328C124.365 10.8818 124.61 10.9001 124.891 10.9001C125.441 10.9001 125.869 10.8206 126.175 10.6616C126.481 10.5026 126.634 10.3314 126.634 10.1419C126.634 9.94006 126.481 9.76272 126.175 9.60985C125.869 9.45697 125.441 9.38359 124.891 9.38359L124.885 9.38971ZM124.084 14.3428H125.692V13.5357H124.084V14.3428Z" fill="#00468D"/>
<path d="M130.7 14.0307C130.59 14.0857 130.511 14.1041 130.474 14.0857C130.431 14.0674 130.394 14.0307 130.364 13.9756L129.991 13.2908C129.936 13.1807 129.972 13.089 130.119 13.0156C130.468 12.8321 130.798 12.6242 131.11 12.3858C131.416 12.1473 131.697 11.9088 131.948 11.6581C132.198 11.4074 132.412 11.1628 132.59 10.9243C132.767 10.6797 132.901 10.4657 132.993 10.2639C133.042 10.1538 133.067 10.0743 133.06 10.0254C133.054 9.98258 132.999 9.95812 132.895 9.95812H130.676C130.584 9.95812 130.529 9.93977 130.517 9.90308C130.498 9.86639 130.492 9.81747 130.492 9.75021V9.04087C130.492 8.89412 130.559 8.82685 130.688 8.82685H133.972C134.363 8.82685 134.601 8.92469 134.693 9.11425C134.785 9.30382 134.767 9.56676 134.644 9.90308C134.546 10.1599 134.424 10.4229 134.271 10.6919C134.124 10.961 133.947 11.23 133.758 11.4991C134.014 11.7743 134.302 12.0189 134.62 12.239C134.932 12.4591 135.213 12.6426 135.464 12.7832C135.574 12.8505 135.592 12.93 135.525 13.0278L135.017 13.7433C134.981 13.7983 134.944 13.8228 134.907 13.8289C134.87 13.835 134.815 13.8167 134.748 13.78C134.644 13.7188 134.522 13.6454 134.381 13.5476C134.241 13.4498 134.094 13.3458 133.935 13.2235C133.776 13.1012 133.617 12.9728 133.458 12.8322C133.299 12.6915 133.146 12.5447 133.005 12.398C132.681 12.7343 132.327 13.0401 131.941 13.3213C131.556 13.6026 131.153 13.8411 130.712 14.0368L130.7 14.0307ZM137.555 17.4673H132.443C132.302 17.4673 132.186 17.4551 132.094 17.4306C132.009 17.4061 131.935 17.3695 131.886 17.3083C131.837 17.2472 131.801 17.1738 131.782 17.082C131.764 16.9903 131.752 16.8741 131.752 16.7396V14.5871C131.752 14.4526 131.819 14.3792 131.948 14.3792H132.914C133.042 14.3792 133.109 14.4465 133.109 14.5871V16.1893C133.109 16.2871 133.158 16.336 133.262 16.336H137.555C137.604 16.336 137.653 16.3483 137.689 16.3727C137.726 16.3972 137.751 16.4461 137.751 16.5134V17.29C137.751 17.3817 137.732 17.4367 137.689 17.4489C137.653 17.4612 137.604 17.4673 137.555 17.4673ZM137.286 14.9296H136.301C136.228 14.9296 136.179 14.9174 136.155 14.8868C136.13 14.8562 136.118 14.8073 136.118 14.7339V8.38657C136.118 8.26427 136.179 8.20312 136.301 8.20312H137.286C137.402 8.20312 137.463 8.26427 137.463 8.38657V14.74C137.463 14.8134 137.451 14.8623 137.427 14.8868C137.402 14.9112 137.359 14.9235 137.286 14.9235V14.9296Z" fill="#00468D"/>
<path d="M147.376 14.1961H139.016C138.925 14.1961 138.87 14.1777 138.851 14.1472C138.833 14.1166 138.821 14.0616 138.821 13.9821V13.3461C138.821 13.2727 138.833 13.2238 138.857 13.1932C138.882 13.1627 138.937 13.1504 139.01 13.1504H147.369C147.431 13.1504 147.48 13.1627 147.516 13.1871C147.553 13.2116 147.577 13.2666 147.577 13.3461V13.9821C147.577 14.1288 147.51 14.1961 147.369 14.1961H147.376ZM143.199 12.8202C142.789 12.8202 142.422 12.7835 142.104 12.7102C141.78 12.6368 141.511 12.5328 141.285 12.3983C141.059 12.2699 140.888 12.1109 140.771 11.9274C140.655 11.744 140.594 11.5422 140.594 11.3282C140.594 11.0469 140.704 10.7901 140.924 10.5638H139.793C139.665 10.5638 139.597 10.4965 139.597 10.3681V9.76886C139.597 9.69548 139.616 9.64656 139.646 9.6221C139.677 9.59764 139.732 9.58541 139.799 9.58541H146.599C146.672 9.58541 146.721 9.59764 146.752 9.6221C146.782 9.64656 146.795 9.69548 146.795 9.76886V10.3804C146.795 10.5027 146.727 10.5638 146.599 10.5638H145.462C145.688 10.8084 145.804 11.0591 145.804 11.3282C145.804 11.5422 145.743 11.744 145.627 11.9274C145.504 12.1109 145.333 12.2699 145.113 12.3983C144.887 12.5267 144.618 12.6307 144.294 12.7102C143.97 12.7835 143.609 12.8202 143.199 12.8202ZM143.199 17.7305C142.698 17.7305 142.257 17.6877 141.872 17.6021C141.487 17.5165 141.163 17.4003 140.9 17.2597C140.637 17.1129 140.435 16.9478 140.301 16.746C140.166 16.5503 140.099 16.3424 140.099 16.1284C140.099 15.9144 140.166 15.7065 140.301 15.5169C140.435 15.3212 140.637 15.1561 140.9 15.0094C141.163 14.8626 141.487 14.7525 141.872 14.6731C142.257 14.5936 142.704 14.5508 143.199 14.5508C143.694 14.5508 144.141 14.5936 144.526 14.6731C144.911 14.7525 145.235 14.8687 145.498 15.0094C145.761 15.1561 145.963 15.3212 146.098 15.5169C146.232 15.7126 146.299 15.9144 146.299 16.1284C146.299 16.3424 146.232 16.5503 146.098 16.746C145.963 16.9417 145.761 17.1129 145.498 17.2597C145.235 17.4064 144.911 17.5165 144.526 17.6021C144.141 17.6877 143.694 17.7305 143.199 17.7305ZM143.199 15.5536C142.6 15.5536 142.166 15.6148 141.884 15.7432C141.603 15.8655 141.462 16 141.462 16.1468C141.462 16.2935 141.603 16.428 141.884 16.5503C142.166 16.6726 142.6 16.7338 143.199 16.7338C143.798 16.7338 144.232 16.6726 144.514 16.5503C144.795 16.428 144.93 16.2935 144.93 16.1468C144.93 16 144.789 15.8655 144.514 15.7432C144.232 15.6209 143.798 15.5536 143.199 15.5536ZM144.679 9.20628H141.725C141.676 9.20628 141.628 9.19405 141.585 9.16959C141.542 9.14513 141.524 9.09621 141.524 9.0106V8.37465C141.524 8.28904 141.542 8.234 141.585 8.20954C141.628 8.18508 141.676 8.17285 141.725 8.17285H144.679C144.82 8.17285 144.893 8.24012 144.893 8.38076V8.99837C144.893 9.07175 144.881 9.12067 144.856 9.15736C144.832 9.18793 144.771 9.20628 144.679 9.20628ZM143.199 10.6005C142.789 10.6005 142.478 10.6678 142.27 10.8023C142.062 10.9368 141.952 11.0775 141.952 11.2303C141.952 11.3832 142.056 11.5239 142.27 11.6645C142.478 11.799 142.789 11.8724 143.199 11.8724C143.609 11.8724 143.921 11.8051 144.135 11.6645C144.349 11.5239 144.459 11.3832 144.459 11.2303C144.459 11.0775 144.355 10.9368 144.135 10.8023C143.921 10.6678 143.609 10.6005 143.199 10.6005Z" fill="#00468D"/>
<path d="M151.515 14.7466H150.592C150.458 14.7466 150.39 14.6794 150.39 14.551V13.3647C150.029 13.3769 149.669 13.383 149.32 13.3891C148.972 13.3891 148.623 13.3891 148.287 13.3769C148.207 13.3769 148.158 13.3585 148.134 13.328C148.109 13.2974 148.097 13.2424 148.097 13.169V12.5086C148.097 12.4352 148.109 12.3802 148.134 12.3496C148.158 12.319 148.207 12.3007 148.281 12.3068C149.204 12.319 150.133 12.3068 151.081 12.2823C152.023 12.2517 152.952 12.1784 153.851 12.0622C153.949 12.0499 154.01 12.0499 154.041 12.0622C154.071 12.0805 154.09 12.1233 154.102 12.2028L154.182 12.8632C154.194 12.9427 154.182 12.9917 154.151 13.0161C154.12 13.0406 154.071 13.0589 154.004 13.0711C153.643 13.1262 153.264 13.169 152.885 13.1996C152.5 13.2301 152.115 13.2668 151.717 13.2974V14.5571C151.717 14.6855 151.65 14.7528 151.515 14.7528V14.7466ZM151.136 11.946C150.806 11.946 150.5 11.9032 150.225 11.8115C149.95 11.7259 149.712 11.5974 149.504 11.4385C149.302 11.2795 149.143 11.0838 149.027 10.8636C148.91 10.6435 148.855 10.3928 148.855 10.1237C148.855 9.87302 148.91 9.64065 149.027 9.42663C149.143 9.21261 149.302 9.02304 149.504 8.86405C149.705 8.70506 149.95 8.58276 150.225 8.49104C150.5 8.39931 150.806 8.35651 151.136 8.35651C151.466 8.35651 151.772 8.40543 152.047 8.49104C152.323 8.58276 152.561 8.70506 152.763 8.86405C152.965 9.02304 153.124 9.20649 153.234 9.42663C153.344 9.64677 153.405 9.87302 153.405 10.1237C153.405 10.3928 153.35 10.6374 153.234 10.8636C153.118 11.0838 152.965 11.2795 152.763 11.4385C152.561 11.5974 152.323 11.7259 152.047 11.8115C151.772 11.8971 151.466 11.946 151.136 11.946ZM155.875 17.4861H150.225C150.091 17.4861 149.974 17.4739 149.889 17.4495C149.803 17.425 149.736 17.3883 149.687 17.3333C149.638 17.2844 149.601 17.211 149.583 17.1193C149.565 17.0275 149.553 16.9113 149.553 16.7768V15.3215C149.553 15.193 149.62 15.1258 149.748 15.1258H150.702C150.837 15.1258 150.904 15.193 150.904 15.3215V16.2142C150.904 16.3121 150.953 16.361 151.057 16.361H155.869C155.918 16.361 155.967 16.3732 156.004 16.3977C156.04 16.4221 156.065 16.4711 156.065 16.5383V17.3027C156.065 17.3944 156.047 17.4495 156.004 17.4617C155.967 17.4739 155.918 17.48 155.869 17.48L155.875 17.4861ZM151.136 9.42051C150.843 9.42051 150.604 9.49389 150.415 9.62842C150.225 9.76907 150.133 9.94029 150.133 10.1421C150.133 10.3622 150.225 10.5457 150.415 10.6863C150.604 10.827 150.843 10.9003 151.136 10.9003C151.43 10.9003 151.668 10.827 151.852 10.6863C152.035 10.5457 152.127 10.3622 152.127 10.1421C152.127 9.94029 152.035 9.76907 151.852 9.62842C151.668 9.48778 151.43 9.42051 151.136 9.42051ZM155.686 15.511H154.695C154.622 15.511 154.573 15.4988 154.548 15.4743C154.524 15.4499 154.512 15.4009 154.512 15.3215V14.5938H153.05C152.989 14.5938 152.946 14.5815 152.91 14.5571C152.873 14.5326 152.855 14.4837 152.855 14.4164V13.7377C152.855 13.6521 152.873 13.6031 152.916 13.5848C152.952 13.5665 153.001 13.5603 153.05 13.5603H154.512V8.37486C154.512 8.30148 154.524 8.25256 154.548 8.2281C154.573 8.20364 154.622 8.19141 154.695 8.19141H155.686C155.759 8.19141 155.808 8.20364 155.833 8.2281C155.857 8.25256 155.869 8.30148 155.869 8.37486V15.3215C155.869 15.4009 155.857 15.4499 155.833 15.4743C155.808 15.4988 155.759 15.511 155.686 15.511Z" fill="#00468D"/>
<path d="M40.3638 22.8855C40.2598 22.9283 40.0458 22.9711 39.8685 22.9711C39.5994 22.9711 39.3915 22.8916 39.2325 22.7387C39.0307 22.543 38.9206 22.1884 38.9268 21.7787C38.939 20.9164 39.4282 20.5557 39.9296 20.5557C40.1069 20.5557 40.2415 20.5924 40.3149 20.629L40.2354 21.0265C40.1681 20.9898 40.0825 20.9715 39.9663 20.9715C39.6544 20.9715 39.4037 21.1855 39.4037 21.8031C39.4037 22.3718 39.6239 22.5736 39.8379 22.5736C39.8807 22.5736 39.9113 22.5736 39.9296 22.5614V21.9866H39.7156V21.6074H40.3515V22.8732L40.3638 22.8855Z" fill="#00468D"/>
<path d="M41.6051 22.9466V22.0416L41.0853 20.5801H41.5806L41.7396 21.1488C41.7824 21.3016 41.8252 21.479 41.8619 21.6502H41.868C41.8986 21.479 41.9353 21.3078 41.9781 21.1365L42.1188 20.5801H42.5957L42.0637 22.0232V22.9466H41.6051Z" fill="#00468D"/>
<path d="M44.3935 21.907H43.8493V22.5491H44.4608V22.9527H43.3907V20.5801H44.4241V20.9837H43.8554V21.5279H44.3996V21.9131L44.3935 21.907Z" fill="#00468D"/>
<path d="M46.815 21.7239C46.815 22.6167 46.4971 22.9774 46.0507 22.9774C45.5126 22.9774 45.2985 22.4088 45.2985 21.7545C45.2985 21.1002 45.5554 20.5498 46.0813 20.5498C46.6561 20.5498 46.815 21.1796 46.815 21.7239ZM45.7755 21.7667C45.7755 22.3048 45.8795 22.58 46.0629 22.58C46.2464 22.58 46.332 22.2253 46.332 21.7483C46.332 21.3325 46.2708 20.9595 46.0629 20.9595C45.8795 20.9595 45.7755 21.2653 45.7755 21.7728V21.7667Z" fill="#00468D"/>
<path d="M47.7384 22.9468V20.5742H48.1603L48.5272 21.5037C48.6006 21.6871 48.7107 21.9929 48.7779 22.1947H48.7841C48.7718 21.944 48.7351 21.5343 48.7351 21.1001V20.5742H49.1387V22.9468H48.7168L48.356 22.0479C48.2765 21.8461 48.1726 21.5465 48.1175 21.3325H48.1114C48.1236 21.571 48.142 21.9379 48.142 22.4148V22.9468H47.7384Z" fill="#00468D"/>
<path d="M51.5052 22.8855C51.4013 22.9283 51.1872 22.9711 51.0099 22.9711C50.7409 22.9711 50.5329 22.8916 50.374 22.7387C50.1722 22.543 50.0621 22.1884 50.0682 21.7787C50.0804 20.9164 50.5696 20.5557 51.0711 20.5557C51.2484 20.5557 51.3829 20.5924 51.4563 20.629L51.3768 21.0265C51.3095 20.9898 51.2239 20.9715 51.1078 20.9715C50.7959 20.9715 50.5452 21.1855 50.5452 21.8031C50.5452 22.3718 50.7653 22.5736 50.9793 22.5736C51.0221 22.5736 51.0527 22.5736 51.0711 22.5614V21.9866H50.8632V21.6074H51.4991V22.8732L51.5052 22.8855Z" fill="#00468D"/>
<path d="M52.4286 22.4758C52.5264 22.5308 52.6854 22.5675 52.82 22.5675C53.0401 22.5675 53.144 22.4574 53.144 22.2984C53.144 22.1272 53.0401 22.0416 52.8383 21.9132C52.5142 21.7175 52.3919 21.4668 52.3919 21.2528C52.3919 20.8736 52.6426 20.5557 53.1379 20.5557C53.2908 20.5557 53.4437 20.5985 53.5109 20.6413L53.4376 21.0387C53.3703 20.9959 53.2663 20.9593 53.1379 20.9593C52.9423 20.9593 52.8444 21.0815 52.8444 21.2038C52.8444 21.3445 52.9117 21.4179 53.1685 21.5707C53.4804 21.7603 53.5966 21.9988 53.5966 22.2495C53.5966 22.6837 53.2786 22.965 52.8138 22.965C52.6243 22.965 52.4347 22.916 52.3613 22.8671L52.4286 22.4696V22.4758Z" fill="#00468D"/>
<path d="M54.8807 22.4085L54.7767 22.9527H54.3303L54.844 20.5801H55.3943L55.853 22.9527H55.4066L55.3026 22.4085H54.8746H54.8807ZM55.2659 22.0477L55.1864 21.5524C55.162 21.4056 55.1314 21.1732 55.1069 21.0142H55.0947C55.0702 21.1732 55.0336 21.4178 55.0091 21.5585L54.9235 22.0538H55.2598L55.2659 22.0477Z" fill="#00468D"/>
<path d="M56.7519 22.9468V20.5742H57.1738L57.5407 21.5037C57.6141 21.6871 57.7303 21.9929 57.7914 22.1947H57.7975C57.7853 21.944 57.7547 21.5343 57.7547 21.1001V20.5742H58.1583V22.9468H57.7364L57.3756 22.0479C57.2961 21.8461 57.186 21.5465 57.1371 21.3325H57.131C57.1432 21.571 57.1616 21.9379 57.1616 22.4148V22.9468H56.758H56.7519Z" fill="#00468D"/>
<path d="M60.5187 22.8855C60.4147 22.9283 60.2007 22.9711 60.0234 22.9711C59.7543 22.9711 59.5464 22.8916 59.3874 22.7387C59.1856 22.543 59.0755 22.1884 59.0817 21.7787C59.0939 20.9164 59.5831 20.5557 60.0906 20.5557C60.268 20.5557 60.4025 20.5924 60.4759 20.629L60.3964 21.0265C60.3291 20.9898 60.2435 20.9715 60.1273 20.9715C59.8155 20.9715 59.5647 21.1855 59.5647 21.8031C59.5647 22.3718 59.7849 22.5736 59.9989 22.5736C60.0417 22.5736 60.0723 22.5736 60.0906 22.5614V21.9866H59.8766V21.6074H60.5126V22.8732L60.5187 22.8855Z" fill="#00468D"/>
<path d="M61.4971 22.9468V20.5742H61.919L62.2859 21.5037C62.3593 21.6871 62.4693 21.9929 62.5366 22.1947H62.5427C62.5305 21.944 62.4938 21.5343 62.4938 21.1001V20.5742H62.8974V22.9468H62.4755L62.1147 22.0479C62.0352 21.8461 61.9312 21.5465 61.8762 21.3325H61.8701C61.8823 21.571 61.9007 21.9379 61.9007 22.4148V22.9468H61.4971Z" fill="#00468D"/>
<path d="M64.3222 22.4085L64.2182 22.9527H63.7718L64.2855 20.5801H64.8358L65.2945 22.9527H64.8481L64.7441 22.4085H64.3161H64.3222ZM64.7013 22.0477L64.6218 21.5524C64.5974 21.4056 64.5668 21.1732 64.5423 21.0142H64.5301C64.5056 21.1732 64.4689 21.4178 64.4445 21.5585L64.3589 22.0538H64.6952L64.7013 22.0477Z" fill="#00468D"/>
<path d="M67.6365 22.1208C67.6243 21.8945 67.6059 21.5888 67.6181 21.3381H67.6059C67.5631 21.5888 67.502 21.8823 67.453 22.0658L67.2512 22.9157H66.921L66.7254 22.0841C66.6826 21.8945 66.6153 21.601 66.5786 21.3442H66.5664C66.5603 21.601 66.548 21.9007 66.5297 22.133L66.493 22.9585H66.0955L66.2667 20.5859H66.7498L66.9394 21.442C67.0067 21.7417 67.0678 22.0046 67.1106 22.2737H67.1167C67.1534 22.0107 67.2023 21.7417 67.2696 21.442L67.453 20.5859H67.9361L68.0829 22.9585H67.6732L67.6304 22.1269L67.6365 22.1208Z" fill="#00468D"/>
<path d="M69.0674 20.6104C69.1836 20.5799 69.3548 20.5615 69.5382 20.5615C69.8379 20.5615 70.0458 20.6349 70.1986 20.7694C70.4004 20.9529 70.5105 21.2647 70.5105 21.7295C70.5105 22.1942 70.3882 22.5489 70.1803 22.7323C70.0213 22.8852 69.7889 22.9586 69.4587 22.9586C69.312 22.9586 69.1713 22.9464 69.0796 22.9341V20.6043L69.0674 20.6104ZM69.526 22.5856C69.526 22.5856 69.581 22.5917 69.6055 22.5917C69.8256 22.5917 70.0213 22.3716 70.0213 21.7173C70.0213 21.2342 69.8929 20.9345 69.6177 20.9345C69.5872 20.9345 69.5566 20.9345 69.526 20.9468V22.5795V22.5856Z" fill="#00468D"/>
<path d="M72.8281 21.7239C72.8281 22.6167 72.5101 22.9774 72.0637 22.9774C71.5256 22.9774 71.3116 22.4088 71.3116 21.7545C71.3116 21.1002 71.5684 20.5498 72.0943 20.5498C72.6691 20.5498 72.8281 21.1796 72.8281 21.7239ZM71.7886 21.7667C71.7886 22.3048 71.8925 22.58 72.076 22.58C72.2594 22.58 72.345 22.2253 72.345 21.7483C72.345 21.3325 72.2839 20.9595 72.076 20.9595C71.8925 20.9595 71.7886 21.2653 71.7886 21.7728V21.7667Z" fill="#00468D"/>
<path d="M75.4086 20.5801V22.9527H74.95V20.5801H75.4086Z" fill="#00468D"/>
<path d="M76.4543 22.9468V20.5742H76.8762L77.2431 21.5037C77.3165 21.6871 77.4327 21.9929 77.4999 22.1947H77.506C77.4938 21.944 77.4632 21.5343 77.4632 21.1001V20.5742H77.8668V22.9468H77.4449L77.0841 22.0479C77.0046 21.8461 76.8945 21.5465 76.8456 21.3325H76.8395C76.8517 21.571 76.8701 21.9379 76.8701 22.4148V22.9468H76.4665H76.4543Z" fill="#00468D"/>
<path d="M78.8513 22.4758C78.9492 22.5308 79.1082 22.5675 79.2427 22.5675C79.4628 22.5675 79.5668 22.4574 79.5668 22.2984C79.5668 22.1272 79.4628 22.0416 79.261 21.9132C78.937 21.7175 78.8146 21.4668 78.8146 21.2528C78.8146 20.8736 79.0654 20.5557 79.5668 20.5557C79.7197 20.5557 79.8725 20.5985 79.9398 20.6413L79.8664 21.0387C79.7992 20.9959 79.6952 20.9593 79.5607 20.9593C79.365 20.9593 79.2672 21.0815 79.2672 21.2038C79.2672 21.3445 79.3405 21.4179 79.5974 21.5707C79.9092 21.7603 80.0254 21.9988 80.0254 22.2495C80.0254 22.6837 79.7074 22.965 79.2427 22.965C79.0531 22.965 78.8636 22.916 78.7902 22.8671L78.8575 22.4696L78.8513 22.4758Z" fill="#00468D"/>
<path d="M81.1811 21.0023H80.7653V20.5742H82.0678V21.0023H81.6459V22.9468H81.1873V21.0023H81.1811Z" fill="#00468D"/>
<path d="M83.4009 20.5801V22.9527H82.9422V20.5801H83.4009Z" fill="#00468D"/>
<path d="M84.7033 21.0023H84.2875V20.5742H85.59V21.0023H85.1681V22.9468H84.7095V21.0023H84.7033Z" fill="#00468D"/>
<path d="M86.9108 20.5801V22.121C86.9108 22.4696 87.0148 22.5736 87.1371 22.5736C87.2716 22.5736 87.3634 22.4757 87.3634 22.121V20.5801H87.822V22.0416C87.822 22.6531 87.5957 22.9833 87.1371 22.9833C86.6418 22.9833 86.4461 22.6408 86.4461 22.0477V20.5862H86.9047L86.9108 20.5801Z" fill="#00468D"/>
<path d="M89.1122 21.0023H88.6964V20.5742H89.9989V21.0023H89.577V22.9468H89.1183V21.0023H89.1122Z" fill="#00468D"/>
<path d="M91.8762 21.907H91.332V22.5491H91.9435V22.9527H90.8733V20.5801H91.9068V20.9837H91.3381V21.5279H91.8823V21.9131L91.8762 21.907Z" fill="#00468D"/>
<path d="M94.0898 20.5801H95.1232V20.9837H94.5545V21.5952H95.0865V21.9804H94.5545V22.9588H94.0959V20.5862L94.0898 20.5801Z" fill="#00468D"/>
<path d="M97.502 21.7239C97.502 22.6167 97.184 22.9774 96.7376 22.9774C96.1995 22.9774 95.9916 22.4088 95.9916 21.7545C95.9916 21.1002 96.2484 20.5498 96.7743 20.5498C97.3491 20.5498 97.5081 21.1796 97.5081 21.7239H97.502ZM96.4624 21.7667C96.4624 22.3048 96.5664 22.58 96.7498 22.58C96.9333 22.58 97.0189 22.2253 97.0189 21.7483C97.0189 21.3325 96.9577 20.9595 96.7498 20.9595C96.5664 20.9595 96.4624 21.2653 96.4624 21.7728V21.7667Z" fill="#00468D"/>
<path d="M98.4253 20.6104C98.5721 20.5799 98.7555 20.5615 98.9267 20.5615C99.1775 20.5615 99.4037 20.5982 99.5627 20.7389C99.7095 20.8673 99.7462 21.0263 99.7462 21.2281C99.7462 21.4788 99.6239 21.7111 99.3793 21.8212C99.5382 21.8946 99.6239 22.0413 99.6667 22.2982C99.7156 22.5611 99.7767 22.8546 99.8195 22.9402H99.3365C99.3059 22.873 99.257 22.6345 99.2203 22.3716C99.1775 22.078 99.1041 21.9924 98.9512 21.9924H98.8839V22.9402H98.4253V20.6043V20.6104ZM98.8901 21.65H98.9696C99.1713 21.65 99.2875 21.491 99.2875 21.2831C99.2875 21.0752 99.208 20.9407 99.0001 20.9284C98.9634 20.9284 98.9145 20.9284 98.8901 20.9407V21.65Z" fill="#00468D"/>
<path d="M102.125 21.0023H101.709V20.5742H103.012V21.0023H102.59V22.9468H102.131V21.0023H102.125Z" fill="#00468D"/>
<path d="M104.143 22.4085L104.039 22.9527H103.592L104.106 20.5801H104.656L105.115 22.9527H104.669L104.565 22.4085H104.137H104.143ZM104.528 22.0477L104.449 21.5524C104.424 21.4056 104.394 21.1732 104.369 21.0142H104.357C104.332 21.1732 104.296 21.4178 104.271 21.5585L104.186 22.0538H104.522L104.528 22.0477Z" fill="#00468D"/>
<path d="M106.014 20.5801H106.473V22.5613H107.084V22.9527H106.014V20.5801Z" fill="#00468D"/>
<path d="M108.986 21.907H108.442V22.5491H109.053V22.9527H107.983V20.5801H109.016V20.9837H108.448V21.5279H108.992V21.9131L108.986 21.907Z" fill="#00468D"/>
<path d="M110.007 22.9468V20.5742H110.429L110.796 21.5037C110.869 21.6871 110.985 21.9929 111.053 22.1947H111.059C111.047 21.944 111.016 21.5343 111.016 21.1001V20.5742H111.42V22.9468H110.998L110.637 22.0479C110.557 21.8461 110.447 21.5465 110.398 21.3325H110.392C110.405 21.571 110.423 21.9379 110.423 22.4148V22.9468H110.019H110.007Z" fill="#00468D"/>
<path d="M112.71 21.0023H112.294V20.5742H113.597V21.0023H113.175V22.9468H112.716V21.0023H112.71Z" fill="#00468D"/>
<path d="M116.807 22.9469C116.77 22.898 116.74 22.8613 116.697 22.794C116.568 22.9041 116.385 22.9774 116.183 22.9774C115.773 22.9774 115.529 22.6839 115.529 22.3109C115.529 22.0235 115.663 21.8095 115.902 21.6627C115.78 21.4854 115.725 21.3081 115.725 21.143C115.725 20.8189 115.951 20.5498 116.318 20.5498C116.617 20.5498 116.837 20.7577 116.837 21.0818C116.837 21.2958 116.77 21.4915 116.428 21.7239V21.7361C116.532 21.889 116.685 22.1214 116.776 22.2375C116.856 22.0847 116.874 21.8584 116.88 21.6811H117.272C117.241 22.0052 117.131 22.3293 116.972 22.5188C117.051 22.6167 117.168 22.7695 117.308 22.9469H116.807ZM116.513 22.5249C116.391 22.3721 116.22 22.1275 116.085 21.9318C116.018 21.9991 115.951 22.1091 115.951 22.262C115.951 22.4638 116.073 22.6411 116.269 22.6411C116.379 22.6411 116.452 22.5983 116.513 22.5311V22.5249ZM116.134 21.1246C116.134 21.2591 116.171 21.357 116.25 21.4793C116.397 21.3631 116.452 21.2408 116.452 21.1063C116.452 20.9962 116.422 20.8617 116.299 20.8617C116.189 20.8617 116.128 20.984 116.128 21.1307L116.134 21.1246Z" fill="#00468D"/>
<path d="M119.357 20.5801H119.815V22.5613H120.427V22.9527H119.357V20.5801Z" fill="#00468D"/>
<path d="M121.791 20.5801V22.9527H121.332V20.5801H121.791Z" fill="#00468D"/>
<path d="M122.836 20.5801H123.87V20.9837H123.301V21.5952H123.833V21.9804H123.301V22.9588H122.842V20.5862L122.836 20.5801Z" fill="#00468D"/>
<path d="M125.851 21.907H125.307V22.5491H125.918V22.9527H124.848V20.5801H125.881V20.9837H125.313V21.5279H125.857V21.9131L125.851 21.907Z" fill="#00468D"/>
<path d="M126.866 20.5801H127.325V22.5613H127.936V22.9527H126.866V20.5801Z" fill="#00468D"/>
<path d="M130.144 21.7239C130.144 22.6167 129.826 22.9774 129.379 22.9774C128.841 22.9774 128.627 22.4088 128.627 21.7545C128.627 21.1002 128.884 20.5498 129.41 20.5498C129.985 20.5498 130.144 21.1796 130.144 21.7239ZM129.104 21.7667C129.104 22.3048 129.208 22.58 129.391 22.58C129.575 22.58 129.661 22.2253 129.661 21.7483C129.661 21.3325 129.599 20.9595 129.391 20.9595C129.208 20.9595 129.104 21.2653 129.104 21.7728V21.7667Z" fill="#00468D"/>
<path d="M131.073 22.9468V20.5742H131.495L131.862 21.5037C131.935 21.6871 132.045 21.9929 132.113 22.1947H132.119C132.107 21.944 132.07 21.5343 132.07 21.1001V20.5742H132.473V22.9468H132.051L131.691 22.0479C131.611 21.8461 131.507 21.5465 131.452 21.3325H131.446C131.458 21.571 131.477 21.9379 131.477 22.4148V22.9468H131.073Z" fill="#00468D"/>
<path d="M134.834 22.8855C134.73 22.9283 134.516 22.9711 134.338 22.9711C134.069 22.9711 133.862 22.8916 133.703 22.7387C133.501 22.543 133.391 22.1884 133.397 21.7787C133.409 20.9164 133.898 20.5557 134.4 20.5557C134.577 20.5557 134.712 20.5924 134.785 20.629L134.705 21.0265C134.638 20.9898 134.553 20.9715 134.436 20.9715C134.124 20.9715 133.874 21.1855 133.874 21.8031C133.874 22.3718 134.094 22.5736 134.308 22.5736C134.351 22.5736 134.381 22.5736 134.4 22.5614V21.9866H134.192V21.6074H134.828V22.8732L134.834 22.8855Z" fill="#00468D"/>
<path d="M138.014 21.907H137.469V22.5491H138.081V22.9527H137.011V20.5801H138.044V20.9837H137.475V21.5279H138.02V21.9131L138.014 21.907Z" fill="#00468D"/>
<path d="M139.029 20.6104C139.145 20.5799 139.316 20.5615 139.5 20.5615C139.799 20.5615 140.007 20.6349 140.16 20.7694C140.362 20.9529 140.472 21.2647 140.472 21.7295C140.472 22.1942 140.349 22.5489 140.142 22.7323C139.983 22.8852 139.75 22.9586 139.42 22.9586C139.273 22.9586 139.133 22.9464 139.041 22.9341V20.6043L139.029 20.6104ZM139.487 22.5856C139.487 22.5856 139.542 22.5917 139.567 22.5917C139.787 22.5917 139.983 22.3716 139.983 21.7173C139.983 21.2342 139.854 20.9345 139.579 20.9345C139.548 20.9345 139.518 20.9345 139.487 20.9468V22.5795V22.5856Z" fill="#00468D"/>
<path d="M141.835 20.5801V22.121C141.835 22.4696 141.939 22.5736 142.062 22.5736C142.196 22.5736 142.288 22.4757 142.288 22.121V20.5801H142.747V22.0416C142.747 22.6531 142.52 22.9833 142.062 22.9833C141.566 22.9833 141.371 22.6408 141.371 22.0477V20.5862H141.829L141.835 20.5801Z" fill="#00468D"/>
<path d="M144.923 22.916C144.856 22.9466 144.728 22.9711 144.563 22.9711C143.957 22.9711 143.67 22.4696 143.67 21.797C143.67 20.9042 144.165 20.5557 144.624 20.5557C144.783 20.5557 144.899 20.5862 144.942 20.6168L144.862 21.0021C144.807 20.9776 144.752 20.9593 144.648 20.9593C144.385 20.9593 144.153 21.1855 144.153 21.7725C144.153 22.3596 144.367 22.5614 144.648 22.5614C144.728 22.5614 144.813 22.543 144.868 22.5247L144.911 22.9099L144.923 22.916Z" fill="#00468D"/>
<path d="M146.238 22.4085L146.134 22.9527H145.688L146.202 20.5801H146.752L147.21 22.9527H146.764L146.66 22.4085H146.232H146.238ZM146.623 22.0477L146.544 21.5524C146.519 21.4056 146.489 21.1732 146.464 21.0142H146.452C146.428 21.1732 146.391 21.4178 146.367 21.5585L146.281 22.0538H146.617L146.623 22.0477Z" fill="#00468D"/>
<path d="M148.189 21.0023H147.773V20.5742H149.076V21.0023H148.654V22.9468H148.195V21.0023H148.189Z" fill="#00468D"/>
<path d="M150.409 20.5801V22.9527H149.95V20.5801H150.409Z" fill="#00468D"/>
<path d="M152.855 21.7239C152.855 22.6167 152.537 22.9774 152.09 22.9774C151.552 22.9774 151.344 22.4088 151.344 21.7545C151.344 21.1002 151.601 20.5498 152.127 20.5498C152.702 20.5498 152.861 21.1796 152.861 21.7239H152.855ZM151.821 21.7667C151.821 22.3048 151.925 22.58 152.109 22.58C152.292 22.58 152.378 22.2253 152.378 21.7483C152.378 21.3325 152.316 20.9595 152.109 20.9595C151.925 20.9595 151.821 21.2653 151.821 21.7728V21.7667Z" fill="#00468D"/>
<path d="M153.784 22.9468V20.5742H154.206L154.573 21.5037C154.646 21.6871 154.762 21.9929 154.824 22.1947H154.83C154.817 21.944 154.787 21.5343 154.787 21.1001V20.5742H155.191V22.9468H154.769L154.408 22.0479C154.328 21.8461 154.218 21.5465 154.169 21.3325H154.163C154.175 21.571 154.194 21.9379 154.194 22.4148V22.9468H153.79H153.784Z" fill="#00468D"/>
</g>
<defs>
<linearGradient id="paint0_linear_2462_23560" x1="12.6324" y1="1.55035" x2="12.6324" y2="27.9914" gradientUnits="userSpaceOnUse">
<stop stop-color="#00AAE8"/>
<stop offset="0.12" stop-color="#0082C4"/>
<stop offset="0.27" stop-color="#00569C"/>
<stop offset="0.35" stop-color="#00468D"/>
</linearGradient>
<linearGradient id="paint1_linear_2462_23560" x1="1.30824" y1="21.7363" x2="31.1982" y2="21.7363" gradientUnits="userSpaceOnUse">
<stop stop-color="#00AAE8"/>
<stop offset="0.17" stop-color="#008CCC"/>
<stop offset="0.39" stop-color="#006DB1"/>
<stop offset="0.61" stop-color="#00579D"/>
<stop offset="0.81" stop-color="#004A91"/>
<stop offset="1" stop-color="#00468D"/>
</linearGradient>
<clipPath id="clip0_2462_23560">
<rect width="156.011" height="30" fill="white" transform="translate(0.0600586 0.296875)"/>
</clipPath>
</defs>
</svg>
