<svg width="110" height="31" viewBox="0 0 110 31" fill="none" xmlns="http://www.w3.org/2000/svg">
<g clip-path="url(#clip0_2462_23930)">
<path d="M26.6586 22.0384H15.8737C15.3932 22.0384 15.2008 21.7035 15.4485 21.2921L18.6547 15.9459L22.8656 8.92219L27.2752 1.5657C27.5208 1.15642 27.3295 0.818362 26.85 0.818362H1.08848C0.607973 0.817298 0.215698 1.20957 0.215698 1.68796V7.36478C0.215698 7.84317 0.607973 8.23438 1.08848 8.23438H11.7586C12.238 8.23438 12.4294 8.56925 12.1827 8.9796L11.7182 9.75032L7.8741 16.1415L0.35815 28.6337C0.11258 29.0441 0.301807 29.3779 0.782318 29.3779H26.6576C27.137 29.3779 27.5314 28.9877 27.5314 28.5104V22.9091C27.5325 22.4296 27.1381 22.0384 26.6586 22.0384Z" fill="#2991C3"/>
<path d="M52.2574 21.737H40.2532C39.7727 21.737 39.3793 21.3447 39.3793 20.8674V19.3748C39.3793 18.8965 39.7727 18.5063 40.2532 18.5063H46.7337H52.0905C52.5689 18.5063 52.9633 18.114 52.9633 17.6367V12.2639C52.9633 11.7845 52.5689 11.3943 52.0905 11.3943H40.2532C39.7727 11.3943 39.3793 11.0021 39.3793 10.5247V9.55627V9.37661C39.3793 8.89822 39.7727 8.50701 40.2532 8.50701H52.1809C52.6603 8.50701 53.0547 8.1158 53.0547 7.63742V1.95847C53.0547 1.47902 52.6603 1.08887 52.1809 1.08887H31.9186C31.4371 1.08781 31.0448 1.47796 31.0448 1.95847V9.13635V16.7044V28.7777C31.0448 29.2551 31.4371 29.6473 31.9186 29.6473H52.2574C52.7369 29.6473 53.1313 29.2551 53.1313 28.7777V22.6045C53.1313 22.1271 52.7369 21.737 52.2574 21.737Z" fill="#2991C3"/>
<path d="M61.0617 16.209L67.8494 1.08887H57.377C56.9263 1.08887 56.5585 1.48114 56.5585 1.96272V18.2533C56.5585 19.0421 56.6074 19.7937 56.7031 20.5081C57.1028 23.5102 58.3434 25.8564 60.427 27.5446C61.3689 28.2909 62.4511 28.883 63.6704 29.3263L70.2456 16.2079H61.0617V16.209Z" fill="#227DA8"/>
<path d="M82.9611 18.3947C82.9611 17.7919 82.9547 1.96272 82.9547 1.96272C82.9547 1.48114 82.5869 1.08887 82.1351 1.08887H77.5298L70.2435 10.8947L77.7743 10.6544L63.7205 29.3454C65.4852 29.979 67.538 30.2979 69.881 30.2979C73.8686 30.2979 76.9621 29.271 79.2648 27.3543C79.792 26.9142 80.2438 26.4283 80.6319 25.9159C83.1056 22.6661 82.9611 18.3947 82.9611 18.3947Z" fill="#227DA8"/>
<path d="M106.083 14.0647C105.524 13.6735 104.615 13.2217 103.383 12.7146C102.458 12.334 101.356 11.9226 100.053 11.4782C97.8803 10.7171 96.7939 9.89424 96.7939 9.00551C96.7939 7.84037 97.7039 7.25675 99.5239 7.25675C101.424 7.25675 106 9.61252 106 9.61252C106.449 9.84427 106.884 9.64654 106.968 9.1756L108.077 2.92152C104.983 1.1717 101.858 0.297852 98.7085 0.297852C95.3949 0.297852 92.6117 1.07071 90.357 2.61855C87.8587 4.34285 86.6107 6.69969 86.6107 9.69119C86.6107 11.8684 87.4441 13.665 89.1132 15.0831C89.3481 15.284 89.6011 15.4754 89.8701 15.6614C90.9289 16.3971 92.9657 17.2964 95.9796 18.3616C98.1525 19.1472 99.239 19.9095 99.239 20.643C99.239 21.3776 98.8584 21.924 98.0983 22.278C97.4998 22.582 96.7822 22.7351 95.9402 22.7351C93.3325 22.7351 88.2659 19.9105 88.2659 19.9105C87.8258 19.6639 87.4059 19.8521 87.3346 20.3251L86.4321 26.256L86.3247 26.9555C89.4214 28.8829 93.1146 29.8471 97.4051 29.8471C100.718 29.8471 103.475 29.0615 105.675 27.4881C106.347 27.0161 106.923 26.492 107.41 25.9222C108.695 24.419 109.341 22.5842 109.341 20.4144C109.341 17.7025 108.255 15.5859 106.083 14.0647Z" fill="#2991C3"/>
</g>
<defs>
<clipPath id="clip0_2462_23930">
<rect width="109.126" height="30" fill="white" transform="translate(0.215576 0.296875)"/>
</clipPath>
</defs>
</svg>
