<svg width="108" height="31" viewBox="0 0 108 31" fill="none" xmlns="http://www.w3.org/2000/svg">
<g clip-path="url(#clip0_2458_137455)">
<path d="M90.1452 18.7593C91.149 18.7593 91.2847 17.7615 91.2847 17.7615L91.2711 13.6125L90.4267 13.633C91.0778 13.1873 91.0337 12.2992 91.0337 12.2992V8.91135H91.8103C92.0409 8.91135 92.7531 8.8702 92.7531 7.93752C92.7531 7.02542 91.8103 6.98427 91.8103 6.98427H90.9931V3.81934H88.8769V12.4295C88.4564 13.5953 87.829 13.6365 87.829 13.6365L81.8571 13.657H77.2078V15.3098H81.8571L89.0431 15.3304L89.0363 17.7615C89.1007 18.7936 90.1452 18.7593 90.1452 18.7593Z" fill="#00396F"/>
<path d="M108 17.2531C108 16.4679 107.057 16.4267 107.057 16.4267L106.766 16.3856C107.498 15.9398 107.288 14.6917 107.288 14.6917V5.77293C107.328 3.97272 106.135 4.09959 106.135 4.09959H94.2146V6.28041H105.151V14.9866C105.192 16.4267 104.168 16.3753 104.168 16.3753H102.954L102.957 10.2477L100.773 10.2614V16.3821H98.24L98.2604 10.282L96.1612 10.2649L96.1646 16.3753L93.9128 16.3684L93.8959 18.3401L106.989 18.3572C107.325 18.3161 108 18.0178 108 17.2531Z" fill="#00396F"/>
<path d="M76.9331 9.1612C77.2281 13.2485 81.7723 13.1868 81.7723 13.1868C81.7927 13.1868 81.8334 13.1868 81.8571 13.1868C86.13 13.1457 86.9066 9.43894 86.9066 9.43894C86.9066 7.13125 84.8753 6.21915 84.8753 6.21915H86.0893C86.5098 6.21915 86.927 6.00655 86.9066 5.41334C86.8659 4.82013 86.1538 4.7344 86.1538 4.7344H83.0101V3.50684H81.8571H80.8296V4.7344H77.6859C77.0145 4.69326 76.9331 5.38934 76.9331 5.38934C76.8924 6.17457 77.5604 6.23629 77.5604 6.23629H78.649C77.0992 6.8535 76.9331 9.1612 76.9331 9.1612ZM81.8571 7.02152H81.8775C83.4476 7.02152 84.7261 7.99535 84.7261 9.18177C84.7261 10.3682 83.4476 11.342 81.8775 11.342C81.8775 11.342 81.8775 11.342 81.8571 11.342C80.2666 11.3214 79.0085 10.3476 79.0085 9.18177C79.0085 7.99535 80.2632 7.0421 81.8571 7.02152Z" fill="#00396F"/>
<path d="M58.9799 6.15355H57.7218L57.7082 3.79785H55.5853V7.55257C55.5853 7.55257 55.314 8.80414 54.5578 8.80414H51.0377H46.0526V4.41507L43.672 4.40135L43.6415 9.26362C43.6415 9.26362 43.5194 10.7278 44.8182 10.7278H51.0411H54.3102C54.3102 10.7278 55.0868 10.7278 55.504 10.2203C55.504 10.2203 55.8804 11.6399 54.9817 12.1885H51.0445H44.4045V17.2291C44.4045 17.2291 44.4452 18.3367 45.5982 18.3367H51.0377L57.9592 18.3504V12.2125H57.247C57.247 12.2125 57.7082 12.2125 57.7286 11.345V7.89203L58.8816 7.85089C58.8816 7.85089 59.5531 7.83031 59.5531 6.91821C59.5463 6.91478 59.5598 6.15355 58.9799 6.15355ZM55.5446 16.365H51.0411H46.5376V14.2048H51.0411H55.5446V16.365Z" fill="#00396F"/>
<path d="M74.4609 17.4005V3.79785H72.2905L72.304 8.82128H70.6084V3.79785H68.4516L68.472 14.5408C68.4075 15.6861 67.1935 15.4735 67.1935 15.4735H63.0867L63.1071 6.15355L66.8781 6.15012C67.8819 6.15012 67.8412 5.32374 67.8412 5.32374C67.8412 4.45621 66.9188 4.37049 66.9188 4.37049L60.9265 4.34649V16.2964C60.9265 17.524 62.3508 17.3971 62.3508 17.3971H67.4207C68.0921 17.3765 68.4686 16.9102 68.4686 16.9102V17.3971C68.533 18.7756 69.5165 18.6247 69.5165 18.6247C70.4796 18.6247 70.605 17.3971 70.605 17.3971V10.5392H72.3244V17.404C72.3244 18.2304 72.9314 18.7584 73.5181 18.6521C74.4608 18.5047 74.4609 17.4005 74.4609 17.4005Z" fill="#00396F"/>
<path d="M38.8904 11.6198C38.8904 11.6198 38.9956 12.5765 38.3682 12.5319C38.3682 12.5319 36.442 11.8324 34.136 11.8118C34.1156 11.8118 34.1156 11.8118 34.1156 11.8118C34.1156 11.8118 29.195 11.9078 27.5807 14.2258C27.34 14.5721 27.167 14.9047 27.1772 15.3848C27.1772 15.3848 27.1602 15.9643 27.5807 16.6192C28.2319 17.6788 29.8834 19.0332 34.0546 18.9509C34.0546 18.9509 34.0749 18.9509 34.1393 18.9509C34.8718 18.9921 40.1316 19.0366 41.0303 15.4122C41.0303 15.4122 41.1965 14.2052 40.4436 13.9515C40.4436 13.9515 41.1558 13.7595 41.1965 12.7856L41.1795 3.80176L38.8904 3.80519V5.47852H36.503V7.193H38.9108V8.69832H36.503V10.3065H38.8904V11.6198ZM34.1326 17.4216C31.9554 17.4216 30.1716 16.5095 30.1716 15.4088C30.1716 14.3081 31.9181 13.4269 34.1326 13.4166V13.4371C36.3097 13.4371 38.0935 14.3047 38.0935 15.4054C38.0935 16.5129 36.3131 17.4216 34.1326 17.4216Z" fill="#00396F"/>
<path d="M27.5773 12.5725C27.8079 12.5725 27.9979 12.4868 27.9979 12.4868C30.9516 11.5336 32.8778 10.0934 34.136 8.6738C36.1062 6.42783 36.3979 4.26758 36.3979 4.26758H34.136H27.5773H27.1365V6.21523H27.5773H33.7154C31.3484 9.70934 28.5099 10.4431 27.557 10.7517C27.3264 10.8169 27.2213 10.8546 27.2213 10.8546C27.2213 10.8546 26.5939 11.1735 26.5498 11.681V11.7873C26.5498 11.873 26.5905 11.9553 26.6346 12.0616C26.8855 12.5074 27.262 12.5931 27.5773 12.5725Z" fill="#00396F"/>
<path d="M92.6649 26.8717C92.6649 26.8305 92.6853 26.786 92.6853 26.7242C92.6853 26.6591 92.6853 26.5974 92.6853 26.5768C92.6853 26.0899 92.6208 25.7504 92.4953 25.579C92.3699 25.3869 92.1393 25.2841 91.8035 25.1983C92.0952 25.1332 92.3054 24.9857 92.4547 24.7526C92.5801 24.54 92.6446 24.2005 92.6446 23.7582C92.6446 23.2061 92.5191 22.8255 92.2681 22.6129C92.0172 22.4003 91.5763 22.2974 90.9083 22.2734C90.8879 22.2734 90.8676 22.2734 90.8472 22.2734H89.1516V28.0547H90.3453V25.6818H90.8472C90.8676 25.6818 90.8879 25.6818 90.9083 25.6818C91.0982 25.6818 91.244 25.747 91.3288 25.8498C91.4339 25.9561 91.4746 26.1687 91.4983 26.4636C91.4983 26.5699 91.4983 26.7174 91.4983 26.9094C91.4983 27.482 91.539 27.8626 91.5831 28.0547H92.8412C92.7802 27.9072 92.7361 27.7358 92.7158 27.5472C92.6886 27.3586 92.6649 27.1254 92.6649 26.8717ZM91.305 24.5811C91.2202 24.6669 91.0948 24.7286 90.9083 24.7526C90.8235 24.7732 90.7421 24.7732 90.637 24.7732H90.3453V23.1855H90.6607C90.7658 23.1855 90.8506 23.1855 90.9116 23.2061C91.1015 23.2267 91.2474 23.2713 91.3322 23.3536C91.4373 23.4599 91.5017 23.6485 91.5017 23.9468C91.4915 24.2657 91.4305 24.4783 91.305 24.5811Z" fill="#00396F"/>
<path d="M96.1002 24.9855C96.0154 24.9204 95.8899 24.8381 95.7034 24.7318C95.0523 24.3306 94.72 23.9911 94.72 23.6722C94.72 23.4836 94.7844 23.3533 94.8895 23.247C94.9947 23.1408 95.1201 23.0756 95.31 23.0756C95.4999 23.0756 95.6458 23.1408 95.7509 23.2882C95.8357 23.4151 95.8764 23.6277 95.8764 23.902V23.9226H97.0701V23.7751C97.0701 23.2471 96.9243 22.8424 96.6292 22.5887C96.3342 22.3144 95.9171 22.1875 95.3507 22.1875C94.7844 22.1875 94.3469 22.3349 94.0316 22.6093C93.6958 22.9076 93.55 23.2882 93.55 23.7751C93.55 24.0289 93.5704 24.2414 93.6551 24.4095C93.7399 24.5775 93.8857 24.7489 94.096 24.941C94.1604 25.0267 94.2859 25.109 94.4317 25.2358C94.5979 25.3421 94.8081 25.4896 95.0828 25.661C95.1032 25.661 95.1235 25.6816 95.1439 25.7022C95.6458 26.0417 95.9205 26.3365 95.9205 26.6143C95.9205 26.8063 95.856 26.9743 95.7543 27.0806C95.6492 27.1869 95.5033 27.2521 95.3134 27.2521C95.0828 27.2521 94.9167 27.1869 94.8115 27.0601C94.7267 26.9332 94.6657 26.7206 94.6657 26.4257V26.2783H93.4517C93.4517 26.2988 93.4517 26.3434 93.4517 26.3846C93.4517 26.4257 93.4517 26.4703 93.4517 26.4908C93.4517 27.0635 93.5975 27.4852 93.8722 27.739C94.1435 28.0133 94.5843 28.1642 95.1914 28.1642C95.8187 28.1642 96.3003 28.0167 96.636 27.7184C96.9514 27.4441 97.1176 27.0189 97.1176 26.4668C97.1176 26.148 97.0531 25.8942 96.9073 25.661C96.7513 25.4519 96.48 25.2187 96.1002 24.9855Z" fill="#00396F"/>
<path d="M99.1387 22.2734H97.9653V28.0547H99.1387V22.2734Z" fill="#00396F"/>
<path d="M99.7695 23.2267H101.068V28.0581H102.303V23.2267H103.602V22.2734H99.7695V23.2267Z" fill="#00396F"/>
<path d="M105.758 24.6874L104.941 22.2734H103.622L105.111 25.8738V28.0581H106.325V25.8738L107.919 22.2734H106.681L105.758 24.6874Z" fill="#00396F"/>
<path d="M56.9486 22.2734H56.2364L54.6256 28.0547H55.8193L56.1347 26.762H56.952H57.7896L58.0609 28.0547H59.3157L57.7455 22.2734H56.9486ZM56.9486 25.8738H56.3416L56.9486 23.4599L56.9689 23.3741L57.5556 25.8738H56.9486Z" fill="#00396F"/>
<path d="M62.8765 25.8121C62.8358 26.0247 62.8121 26.2167 62.7917 26.4259C62.751 26.6179 62.7273 26.8305 62.7273 27.0191C62.6866 26.7448 62.6629 26.4911 62.6425 26.299C62.6018 26.107 62.5781 25.939 62.5577 25.8121L61.7405 22.2734H59.8956V28.0547H61.069L60.9842 24.1148C60.9842 24.1148 60.9842 24.0942 60.9842 24.0736C60.9842 23.4804 60.9639 23.0141 60.9198 22.6541L62.1779 28.0547H63.3106L64.5043 22.6541C64.4839 22.8461 64.4839 23.0792 64.4636 23.3124C64.4636 23.5456 64.4432 23.8199 64.4432 24.1182L64.4026 28.0581H65.5115V22.2734H63.6056L62.8765 25.8121Z" fill="#00396F"/>
<path d="M71.1918 25.747C71.1918 26.3608 71.1274 26.786 71.0256 26.9745C70.9205 27.1666 70.7102 27.2694 70.439 27.2694C70.1439 27.2694 69.937 27.1837 69.8319 27.0157C69.7268 26.8271 69.6657 26.4019 69.6657 25.7435V22.2734H68.472V26.0659C68.472 26.786 68.6382 27.314 68.9536 27.6535C69.269 27.9929 69.7505 28.161 70.4186 28.161C71.1104 28.161 71.6123 27.9689 71.904 27.6329C72.2193 27.2934 72.3652 26.7002 72.3652 25.8979V22.2734H71.1918V25.747Z" fill="#00396F"/>
<path d="M76.577 25.5995C76.577 25.939 76.577 26.2339 76.5974 26.5116C76.6177 26.786 76.6381 27.0397 76.6618 27.2969C76.5974 26.9574 76.516 26.6419 76.4108 26.3025C76.3057 25.9836 76.2006 25.6235 76.0751 25.2841L74.9865 22.2769H73.3723V28.0581H74.4812L74.3965 24.6257C74.3965 24.4131 74.3965 24.1799 74.3761 23.9056C74.3558 23.6313 74.3354 23.3124 74.3117 22.9524C74.4168 23.3536 74.5219 23.7136 74.6067 24.0531C74.7118 24.372 74.7966 24.6669 74.878 24.9L76.0514 28.0581H77.6012V22.2734H76.5126L76.577 25.5995Z" fill="#00396F"/>
<path d="M79.802 22.2734H78.6287V28.0547H79.802V22.2734Z" fill="#00396F"/>
<path d="M82.7558 25.3051C82.7151 25.5794 82.6507 25.8572 82.5897 26.1726C82.549 26.4915 82.5049 26.8276 82.4642 27.1876C82.4438 26.975 82.4032 26.7213 82.3591 26.447C82.3184 26.1726 82.2539 25.792 82.1488 25.3051L81.5621 22.2773H80.3243L81.7486 28.0586H83.1526L84.638 22.2773H83.4443L82.7558 25.3051Z" fill="#00396F"/>
<path d="M86.4013 25.4521H88.1207V24.5606H86.4013V23.1855H88.2665V22.2734H85.1873V28.0581H88.3513V27.1254H86.4013V25.4521Z" fill="#00396F"/>
<path d="M32.3522 24.6874L31.5146 22.2734H30.4904L30.3412 22.5066L30.3107 22.558L30.3412 22.6335L31.6841 25.8738V28.0581H32.8982V25.8738L34.5124 22.2734H33.2542L32.3522 24.6874Z" fill="#00396F"/>
<path d="M37.6967 25.747C37.6967 26.3608 37.6323 26.786 37.5306 26.9745C37.4254 27.1666 37.2152 27.2694 36.9439 27.2694C36.6488 27.2694 36.4623 27.1837 36.3368 27.0157C36.2317 26.8271 36.1707 26.4019 36.1707 25.7435V22.2734H34.9973V26.0659C34.9973 26.786 35.1431 27.314 35.4585 27.6535C35.7739 27.9929 36.2758 28.161 36.9235 28.161C37.6153 28.161 38.1172 27.9689 38.4123 27.6329C38.7277 27.2934 38.8735 26.7002 38.8735 25.8979V22.2734H37.7001V25.747H37.6967Z" fill="#00396F"/>
<path d="M43.0786 25.5995C43.0786 25.939 43.0989 26.2339 43.0989 26.5116C43.1193 26.786 43.1396 27.0397 43.1837 27.2969C43.0989 26.9574 43.0176 26.6419 42.9124 26.3025C42.8276 25.9836 42.7022 25.6235 42.5767 25.2841L41.4881 22.2769H39.8739V28.0581H40.9828L40.9184 24.6257C40.9184 24.4131 40.898 24.1799 40.8777 23.9056C40.8777 23.6313 40.8574 23.3124 40.8167 22.9524C40.9218 23.3536 41.0269 23.7136 41.132 24.0531C41.2168 24.372 41.3219 24.6669 41.4033 24.9L42.5564 28.0581H44.1265V22.2734H43.0176L43.0786 25.5995Z" fill="#00396F"/>
<path d="M47.0395 22.2119C46.663 22.2119 46.3273 22.2771 46.056 22.3799C45.8051 22.4862 45.5948 22.6542 45.449 22.8874C45.3032 23.1 45.198 23.3538 45.1336 23.6727C45.0726 24.0121 45.0488 24.4579 45.0488 25.0271C45.0488 25.874 45.0895 26.4878 45.1947 26.8719C45.2998 27.2525 45.4456 27.5508 45.6966 27.76C45.8424 27.8868 46.0323 27.9931 46.2832 28.0549C46.5138 28.12 46.8055 28.1406 47.1616 28.1406C47.3718 28.1406 47.6228 28.12 47.8941 28.0994C48.145 28.0789 48.4807 28.0137 48.8572 27.952V25.0305H47.1175V25.9186H47.7686V27.2113C47.6431 27.2525 47.538 27.2731 47.4329 27.2731C47.3481 27.2936 47.2667 27.2936 47.1819 27.2936C46.8258 27.2936 46.5749 27.1668 46.4257 26.9336C46.3002 26.6799 46.2358 26.0866 46.2358 25.154C46.2358 24.2659 46.3002 23.6932 46.4019 23.4155C46.5071 23.1617 46.7173 23.0349 47.0089 23.0349C47.2396 23.0349 47.4057 23.1 47.5109 23.268C47.616 23.4155 47.677 23.6692 47.677 23.9881V24.0738H48.8504V23.9881C48.8504 23.3949 48.7046 22.9697 48.3892 22.6542C48.0874 22.3594 47.6262 22.2119 47.0395 22.2119Z" fill="#00396F"/>
<path d="M53.008 25.5995C53.008 25.939 53.008 26.2339 53.0284 26.5116C53.0487 26.786 53.0691 27.0397 53.0894 27.2969C53.0284 26.9574 52.9436 26.6419 52.8385 26.3025C52.7334 25.9836 52.6282 25.6235 52.5028 25.2841L51.3938 22.2769H49.8033V28.0581H50.8919L50.8275 24.6257C50.8275 24.4131 50.8275 24.1799 50.8071 23.9056C50.7868 23.6313 50.7664 23.3124 50.7461 22.9524C50.8512 23.3536 50.936 23.7136 51.0377 24.0531C51.1429 24.372 51.2277 24.6669 51.309 24.9L52.4824 28.0581H54.0322V22.2734H52.9233L53.008 25.5995Z" fill="#00396F"/>
<path d="M29.2528 22.2734L27.7674 24.7937V22.2734H26.5703V28.0581H27.7674V25.2601L29.1069 28.0581H30.3413H30.4906L30.3413 27.7804L28.8356 24.9446L30.3108 22.558L30.1955 22.2734H29.2528Z" fill="#00396F"/>
<path d="M0.00339121 3.00576C5.14447 4.87454 8.02361 3.88014 11.4827 0.296875C14.9926 3.80813 19.0891 4.65509 23.6368 3.05376L23.6741 18.7893C23.6775 34.2093 0.145822 34.0139 0 18.9059L0.00339121 3.00576Z" fill="#00396F"/>
<path d="M1.24121 4.47645C5.21232 5.64915 8.4238 5.27882 11.5166 2.07617C14.6602 5.2171 18.7365 5.68001 22.4024 4.47645L22.4126 18.6415C22.4126 32.5562 1.36669 32.2065 1.2446 18.7169L1.24121 4.47645Z" fill="white"/>
<path d="M1.24121 4.47656L11.4623 20.2601L22.4024 4.47656L22.4126 18.6416C22.4126 32.6044 1.2446 32.5118 1.2446 18.717L1.24121 4.47656Z" fill="#96A8A7"/>
<path d="M21.29 22.2941L20.7372 22.1569L19.7233 22.3044L19.7979 21.9581L20.4693 21.9101L19.92 21.5123L19.9912 21.1797L20.8254 21.8346L21.3748 21.9718L21.29 22.2941Z" fill="white"/>
<path d="M20.7644 23.6033L19.6249 23.0444L19.4655 23.3564L19.2451 23.2432L19.686 22.3037L19.92 22.4272L19.7606 22.7358L20.9102 23.305L20.7644 23.6033Z" fill="white"/>
<path d="M19.1249 23.3904L18.9653 23.6494L20.2606 24.4652L20.4202 24.2062L19.1249 23.3904Z" fill="white"/>
<path d="M19.0518 25.2697L19.2587 25.0091L19.296 25.0469C19.357 25.0846 19.4181 25.1086 19.4418 25.1086C19.4893 25.1223 19.5266 25.0949 19.5639 25.0469C19.5876 25.0091 19.6114 24.9611 19.6012 24.9234C19.6012 24.8754 19.5774 24.8377 19.5401 24.8137C19.4927 24.776 19.3808 24.776 19.2214 24.8274L19.1976 24.8411C19.123 24.8651 19.0518 24.8891 19.0145 24.9028C18.9636 24.9166 18.9162 24.9268 18.8924 24.9268C18.8178 24.9406 18.7568 24.9406 18.7229 24.9406C18.6618 24.9166 18.6143 24.8788 18.5635 24.8411C18.4651 24.7794 18.4041 24.6662 18.4041 24.5565C18.3905 24.4331 18.4278 24.3199 18.5126 24.1965C18.6211 24.0867 18.7195 24.0113 18.8178 23.9873C18.9162 23.9873 19.0382 24.0113 19.1366 24.097L19.1739 24.121L18.9772 24.3679C18.9162 24.3302 18.8687 24.2925 18.8178 24.2925C18.7805 24.2925 18.733 24.3165 18.6957 24.3542C18.672 24.3919 18.6584 24.4296 18.672 24.4639C18.672 24.5017 18.6957 24.5497 18.733 24.5737C18.7941 24.6217 18.9297 24.6114 19.1129 24.5359C19.1637 24.5222 19.2112 24.4982 19.2214 24.4982C19.3299 24.4605 19.4418 24.4365 19.5028 24.4502C19.5639 24.4502 19.6487 24.4742 19.6995 24.5257C19.8216 24.6114 19.8827 24.7245 19.8962 24.8343C19.8962 24.944 19.8487 25.0811 19.7368 25.2183C19.6385 25.3417 19.5401 25.4172 19.4316 25.4275C19.3333 25.4515 19.2248 25.4035 19.1129 25.3177C19.1129 25.3177 19.0891 25.304 19.0891 25.2937C19.0891 25.2835 19.062 25.2835 19.0518 25.2697Z" fill="white"/>
<path d="M19.0383 25.6919C19.0146 25.6542 18.9637 25.6165 18.9162 25.5547C18.9162 25.5547 18.9027 25.541 18.8925 25.5307C18.8925 25.517 18.8687 25.5067 18.8687 25.5067C18.784 25.4073 18.7094 25.3456 18.6483 25.3353C18.611 25.3216 18.5398 25.3353 18.4516 25.3833C18.4991 25.3216 18.5127 25.2461 18.5127 25.1844C18.4991 25.109 18.4516 25.037 18.377 24.9375C18.2787 24.8381 18.1803 24.7764 18.082 24.7764C18.0074 24.7764 17.8853 24.8381 17.753 24.9478L17.4105 25.2564L18.4143 26.4188L18.6483 26.2097L18.2448 25.7262L18.3431 25.6508C18.3804 25.613 18.4415 25.589 18.4788 25.589C18.5161 25.6027 18.5771 25.6268 18.6246 25.6885C18.6246 25.7022 18.6619 25.7365 18.6992 25.7742C18.784 25.8839 18.8721 25.9594 18.906 25.9971L19.1638 25.7742C19.1231 25.7536 19.0756 25.7296 19.0383 25.6919ZM18.1464 25.493L18.0854 25.541L17.8175 25.2324L17.8785 25.1844C17.9396 25.1227 18.0006 25.0987 18.0481 25.085C18.0854 25.0987 18.1329 25.133 18.1837 25.1844C18.2346 25.2461 18.2583 25.2976 18.2448 25.3456C18.2448 25.3833 18.2075 25.445 18.1464 25.493Z" fill="white"/>
<path d="M17.4139 27.0632L16.6169 25.7533L17.3155 25.3213L17.4376 25.5202L17.0205 25.7773L17.2036 26.0997L17.597 25.8665L17.7191 26.0619L17.3257 26.2985L17.5597 26.6929L18.0107 26.422L18.1226 26.6312L17.4139 27.0632Z" fill="white"/>
<path d="M16.4474 27.5466L15.4301 26.3224L15.7251 26.175L16.2134 26.8436C16.2982 26.9431 16.3728 27.0151 16.3965 27.0768C16.4474 27.1522 16.4949 27.2002 16.5186 27.2517C16.4712 27.1659 16.4474 27.0768 16.4203 26.9911C16.3965 26.9156 16.383 26.8299 16.3694 26.7579L16.1727 25.9555L16.4678 25.8184L16.7899 27.3854L16.4474 27.5466Z" fill="white"/>
<path d="M15.5046 27.879L15.04 26.4217L15.3351 26.3223L15.8098 27.7933L15.5046 27.879Z" fill="white"/>
<path d="M14.0023 28.2874L13.6462 26.7786L14.0735 26.6792L14.5246 27.4096C14.5856 27.485 14.6331 27.5707 14.6704 27.6564C14.7179 27.7319 14.7687 27.8176 14.806 27.8896C14.7925 27.8279 14.7552 27.7525 14.745 27.6907C14.7213 27.6153 14.6975 27.5433 14.684 27.4541L14.4635 26.59L14.7586 26.5283L15.0875 28.0233L14.684 28.1228L14.2058 27.3684C14.1685 27.3204 14.121 27.245 14.0837 27.1695C14.0362 27.0838 13.9854 26.9981 13.9379 26.8986C13.9514 26.9844 13.9854 27.0701 13.9989 27.1455C14.0125 27.2073 14.0464 27.2827 14.0464 27.3204L14.2804 28.2119L14.0023 28.2874Z" fill="white"/>
<path d="M13.4496 26.8066L13.5242 27.7702C13.5479 27.9931 13.5106 28.1405 13.4496 28.2399C13.3648 28.3394 13.2427 28.4011 13.0596 28.4114C12.8764 28.4251 12.7408 28.3977 12.656 28.312C12.5814 28.2262 12.5204 28.0891 12.5102 27.9039L12.4254 26.8889L12.7205 26.8649L12.8052 27.7942C12.8188 27.9656 12.8425 28.0891 12.8798 28.1165C12.9171 28.1679 12.9782 28.1782 13.0494 28.1782C13.1104 28.1645 13.1715 28.1405 13.1952 28.0925C13.2088 28.0308 13.219 27.9313 13.2088 27.7599L13.1342 26.8306L13.4496 26.8066Z" fill="white"/>
<path d="M9.06128 28.2125L9.22067 26.666L9.69883 26.7277L9.80735 27.6913C9.81752 27.7153 9.83109 27.7667 9.83109 27.8147C9.81752 27.8627 9.83109 27.9382 9.83109 28.0136C9.83109 27.9656 9.85482 27.9142 9.85482 27.8524C9.86839 27.8044 9.89213 27.7427 9.89213 27.6913L10.1973 26.7757L10.6992 26.8237L10.5398 28.3565L10.2448 28.3325L10.3669 27.2832C10.3669 27.2078 10.3805 27.1358 10.3906 27.0741C10.3906 27.0123 10.4144 26.9609 10.4279 26.9129L9.94978 28.2982L9.65813 28.2742L9.47501 26.8032C9.46144 26.8889 9.46144 27.0261 9.45127 27.1872L9.46483 27.2009L9.36649 28.2399L9.06128 28.2125Z" fill="white"/>
<path d="M8.63403 26.3848L7.6438 27.626L7.94562 27.7632L8.13892 27.4683L8.5323 27.6466L8.48821 27.9895L8.8002 28.1267L9.00368 26.5425L8.63403 26.3848ZM8.60012 27.3449L8.30848 27.2214L8.70525 26.6728L8.60012 27.3449Z" fill="white"/>
<path d="M6.51453 26.9984L7.29111 25.668L7.65397 25.884L7.4912 26.7207C7.47763 26.8167 7.46068 26.9161 7.43694 27.0121C7.4132 27.0944 7.39624 27.1939 7.3725 27.2796C7.39285 27.2213 7.43015 27.1493 7.46068 27.0944C7.49459 27.0224 7.53189 26.9538 7.56919 26.8715L8.00327 26.1L8.25422 26.2509L7.48781 27.5848L7.12495 27.355L7.28094 26.4772C7.30129 26.4189 7.31485 26.3332 7.32842 26.2475C7.35216 26.1652 7.36911 26.052 7.40981 25.9491C7.35894 26.028 7.32503 26.1103 7.28772 26.1789C7.25381 26.2372 7.2199 26.3058 7.21312 26.3435L6.77226 27.1527L6.51453 26.9984Z" fill="white"/>
<path d="M6.71464 26.2647L6.25004 26.8956C6.14491 26.8476 6.06352 26.8133 6.01944 26.7688C5.96179 26.7242 5.90414 26.6933 5.84649 26.6625C5.77866 26.6042 5.71084 26.5459 5.68032 26.5047C5.63623 26.4499 5.59554 26.395 5.59893 26.347C5.5718 26.2578 5.58536 26.1481 5.62945 26.0761C5.67693 25.9835 5.75492 25.8292 5.88718 25.6441C5.97535 25.5172 6.06013 25.428 6.11778 25.3595C6.18561 25.3046 6.25004 25.2634 6.3043 25.2463C6.36873 25.2154 6.45691 25.2154 6.52812 25.236C6.59934 25.2566 6.68073 25.2909 6.75872 25.3629C6.89437 25.452 6.96898 25.5618 6.98254 25.6749C7.00628 25.8018 6.96559 25.9218 6.87742 26.0487L6.86385 26.059L6.60273 25.8669L6.61629 25.8567C6.67394 25.7881 6.70446 25.7161 6.70107 25.6681C6.70786 25.6201 6.67394 25.5652 6.62986 25.5241C6.57221 25.4795 6.50099 25.4726 6.43317 25.5275C6.37891 25.5721 6.267 25.6955 6.13474 25.8807C5.97535 26.0864 5.90075 26.227 5.8804 26.2853C5.87362 26.3607 5.91431 26.4259 5.99231 26.4842C6.01605 26.5013 6.02622 26.515 6.04996 26.515C6.06013 26.5425 6.10761 26.5459 6.13135 26.563L6.33482 26.2887L6.19917 26.1858L6.345 25.9904L6.71464 26.2647Z" fill="white"/>
<path d="M4.31702 25.2803L5.42255 24.2207L5.72437 24.5362L5.33099 25.3043C5.29708 25.39 5.25299 25.4723 5.19873 25.5511C5.15465 25.6334 5.11056 25.7157 5.06647 25.798C5.10717 25.7397 5.15126 25.6814 5.20552 25.6369C5.25977 25.5786 5.31403 25.51 5.37168 25.4551L6.00923 24.8345L6.20931 25.0505L5.10378 26.1135L4.81553 25.798L5.2123 24.9922C5.23943 24.9442 5.27334 24.8619 5.31743 24.7899C5.36151 24.7076 5.40899 24.6116 5.47681 24.5327C5.40899 24.6013 5.35473 24.6562 5.30047 24.7145C5.24621 24.7591 5.20551 24.8173 5.16482 24.8516L4.52727 25.4963L4.31702 25.2803Z" fill="white"/>
<path d="M5.27338 24.0866L4.51374 24.6799C4.34418 24.817 4.19497 24.8787 4.07289 24.865C3.96437 24.865 3.84228 24.7793 3.73037 24.6284C3.62185 24.4913 3.57099 24.3575 3.59472 24.2341C3.61846 24.1244 3.69307 23.9872 3.83889 23.8878L4.63244 23.2568L4.82913 23.5174L4.09662 24.0866C3.96098 24.1861 3.88976 24.2718 3.86602 24.3232C3.85246 24.3712 3.86602 24.433 3.9135 24.4947C3.96098 24.5564 4.02202 24.5804 4.05932 24.5804C4.13393 24.5701 4.22888 24.505 4.35436 24.409L5.07668 23.8398L5.27338 24.0866Z" fill="white"/>
<path d="M2.86218 23.2333L3.37426 22.9864L4.05928 22.208L4.2051 22.5166L3.74051 22.9967L4.41536 22.9247L4.56118 23.247L3.5099 23.271L3.008 23.5316L2.86218 23.2333Z" fill="white"/>
<path d="M2.31616 21.4944L3.79473 21.124L3.86934 21.4223L3.22162 21.5938L3.96768 21.8167L4.0389 22.1527L3.24535 21.8921L2.56033 22.523L2.47555 22.1527L3.09953 21.6315L2.38738 21.8064L2.31616 21.4944Z" fill="white"/>
<path d="M8.7561 5.94824H14.4398V7.88904H15.3961V9.02745H14.4669V10.3476H15.43V11.462H14.4906V13.3171H13.2664V7.19639H8.7561V5.94824Z" fill="#00396F"/>
<path d="M10.038 7.88867V14.0814H14.528V15.405H8.79346V7.88867H10.038Z" fill="#00396F"/>
<path d="M15.0536 16.7044L15.8234 15.8643C16.9731 16.9272 17.6954 18.4223 17.6954 20.0922C17.6954 23.3085 14.9926 25.9283 11.7031 25.9283C8.38989 25.9283 5.69727 23.3085 5.69727 20.0922C5.69727 18.484 6.36873 17.013 7.45731 15.974L8.25085 16.8038C7.40644 17.6679 6.87063 18.82 6.87063 20.0922C6.87063 22.6639 9.03422 24.7796 11.6997 24.7796C14.3516 24.7796 16.5051 22.6639 16.5051 20.0922C16.5085 18.7789 15.9591 17.5685 15.0536 16.7044Z" fill="#00396F"/>
</g>
<defs>
<clipPath id="clip0_2458_137455">
<rect width="108" height="30" fill="white" transform="translate(0 0.296875)"/>
</clipPath>
</defs>
</svg>
