<svg width="105" height="31" viewBox="0 0 105 31" fill="none" xmlns="http://www.w3.org/2000/svg">
<g clip-path="url(#clip0_2462_23518)">
<path d="M102.893 15.9127V14.6634C102.893 14.096 102.572 13.8232 102.048 13.8232H101.283V18.0373C101.085 18.1121 100.847 18.1649 100.575 18.2089C100.297 18.2529 99.9983 18.2749 99.6728 18.2749H96.7519V15.0549H100.042V14.1488H95.1376V18.1473C95.1376 18.464 95.2387 18.7191 95.4367 18.9127C95.6346 19.1018 95.903 19.1986 96.2461 19.1986H99.576C99.9103 19.1986 100.223 19.159 100.522 19.0842C100.816 19.0095 101.072 18.9127 101.283 18.8027V21.1297H102.897V16.8364H104.507V15.9171H102.897L102.893 15.9127Z" fill="#004B9C"/>
<path d="M82.5921 17.8525C82.6625 17.5314 82.6977 17.2367 82.6977 16.9639V14.7249C82.6977 14.1575 82.3766 13.8848 81.8531 13.8848H75.5408V14.7909H81.0921V17.0123C81.0921 17.2851 81.0789 17.5534 81.0569 17.8305C81.0349 18.1032 80.9865 18.3452 80.9118 18.5519H74.7666V19.4713H78.4792V23.8261H80.0892V19.4713H83.7886V18.5519H82.3458C82.4426 18.4068 82.5261 18.1736 82.5965 17.8525H82.5921Z" fill="#004B9C"/>
<path d="M63.0525 16.938C63.1273 16.6213 63.1669 16.3266 63.1669 16.0539V14.721C63.1669 14.1536 62.8458 13.8809 62.3223 13.8809H56.2915V14.787H61.5525V16.0891C61.5525 16.3662 61.5393 16.6389 61.5173 16.9117C61.4909 17.18 61.4426 17.4219 61.3634 17.6243H55.1918V18.5304H58.9176V20.1184H56.2563V21.0246H61.5305V23.8178H63.1405V20.9586C63.1405 20.3911 62.8194 20.1184 62.2959 20.1184H60.5276V18.5304H64.3238V17.6243H62.771C62.881 17.4835 62.9734 17.2504 63.0481 16.9336L63.0525 16.938Z" fill="#004B9C"/>
<path d="M69.0437 18.8467C69.4 18.6883 69.708 18.4728 69.9631 18.2045H71.9558V21.1253H73.5657V14.6634C73.5657 14.096 73.2446 13.8232 72.7211 13.8232H71.9558V14.8262H69.9983C69.7431 14.549 69.4308 14.3247 69.0657 14.1576C68.7006 13.9904 68.3047 13.9068 67.8824 13.9068C67.1346 13.9068 66.488 14.1576 65.9514 14.6634C65.4103 15.1693 65.142 15.7807 65.142 16.4977C65.142 17.2147 65.4103 17.8218 65.9514 18.3276C66.4924 18.8335 67.139 19.0842 67.8824 19.0842C68.2959 19.0842 68.6786 19.0051 69.0393 18.8467H69.0437ZM70.6185 16.1018C70.5921 15.9743 70.5613 15.8467 70.5217 15.7191H71.9514V17.3027H70.5085C70.5569 17.1664 70.5921 17.0344 70.6185 16.898C70.6405 16.7617 70.6537 16.6297 70.6537 16.4933C70.6537 16.357 70.6405 16.225 70.6185 16.0974V16.1018ZM67.0862 17.6766C66.8663 17.3511 66.7519 16.9596 66.7519 16.4977C66.7519 16.0359 66.8663 15.64 67.0862 15.3144C67.3106 14.9889 67.5745 14.8262 67.8868 14.8262C68.1992 14.8262 68.4763 14.9889 68.705 15.3144C68.9294 15.64 69.0437 16.0359 69.0437 16.4977C69.0437 16.9596 68.9294 17.3511 68.705 17.6766C68.4763 18.0021 68.208 18.1649 67.8868 18.1649C67.5657 18.1649 67.3106 18.0021 67.0862 17.6766Z" fill="#004B9C"/>
<path d="M68.5906 22.7838V21.0462C68.5906 20.4788 68.2695 20.2061 67.746 20.2061H66.9807V22.6298C66.9807 22.9641 67.0862 23.2237 67.2974 23.4172C67.5085 23.6063 67.7724 23.7031 68.0892 23.7031H73.922V22.7838H68.5862H68.5906Z" fill="#004B9C"/>
<path d="M97.9704 22.7837V21.1517C97.9704 20.5843 97.6493 20.3115 97.1258 20.3115H96.3604V22.6253C96.3604 22.9596 96.466 23.2191 96.6771 23.4127C96.8883 23.6018 97.1522 23.6986 97.4733 23.6986H103.161V22.7793H97.9748L97.9704 22.7837Z" fill="#004B9C"/>
<path d="M49.9 19.0936C50.3883 18.6538 50.6346 18.1215 50.6346 17.5013C50.6346 17.1582 50.551 16.8414 50.3883 16.5423C50.2255 16.2432 50.0056 15.9969 49.7285 15.7945H50.9821V14.8884H48.9411V14.5453C48.9411 13.9778 48.62 13.7051 48.0965 13.7051H47.3311V14.8884H45.29V15.7945H46.5525C46.2798 15.9969 46.0642 16.2432 45.8971 16.5423C45.7299 16.8414 45.6463 17.1626 45.6463 17.5013C45.6463 18.1215 45.8927 18.6538 46.3897 19.0936C46.8824 19.5335 47.4675 19.7535 48.1405 19.7535C48.8135 19.7535 49.4117 19.5335 49.9 19.0936ZM47.1727 17.5013C47.1727 17.1186 47.2739 16.7887 47.4719 16.5159C47.6698 16.2432 47.8941 16.1024 48.1405 16.1024C48.3868 16.1024 48.62 16.2388 48.8135 16.5159C49.0114 16.7887 49.1082 17.1186 49.1082 17.5013C49.1082 17.884 49.0114 18.2139 48.8135 18.491C48.62 18.7681 48.3956 18.9089 48.1405 18.9089C47.8853 18.9089 47.6698 18.7681 47.4719 18.491C47.2739 18.2095 47.1727 17.884 47.1727 17.5013Z" fill="#004B9C"/>
<path d="M92.727 13.8232H92.0584V16.5109H91.2358V14.6678C91.2358 14.1004 90.9103 13.8276 90.3868 13.8276H89.7182V19.6385C89.1859 19.4317 88.7461 19.0051 88.3942 18.3628C88.0423 17.7162 87.8663 16.964 87.8663 16.0974V15.0593H89.1683V14.1532H84.8707V15.0593H86.2783V16.0974C86.2783 17.0256 86.0848 17.8218 85.6977 18.4816C85.315 19.1414 84.8179 19.5505 84.2153 19.7133L84.9543 20.3335C85.4162 20.2719 85.8604 20.0344 86.3003 19.6297C86.7358 19.225 86.9953 18.8159 87.0745 18.4024C87.1625 18.8159 87.422 19.225 87.8575 19.6297C88.2886 20.0344 88.7329 20.2719 89.1859 20.3335L89.7094 19.8936V23.8306H91.227V17.4215H92.0496V23.8306H93.5672V14.6722C93.5672 14.1048 93.2461 13.832 92.7226 13.832L92.727 13.8232Z" fill="#004B9C"/>
<path d="M53.4367 16.093V14.6634C53.4367 14.096 53.1156 13.8233 52.5921 13.8233V13.8145H51.8267V21.1165H53.4367V17.0124H55.0511V16.093H53.4367Z" fill="#004B9C"/>
<path d="M48.7035 22.784V21.3324C48.7035 20.7649 48.3824 20.4922 47.8546 20.4922H47.0892V22.6168C47.0892 22.9511 47.1947 23.2151 47.4015 23.4042C47.6126 23.5978 47.8766 23.6901 48.1977 23.6901H53.7842V22.784H48.7035Z" fill="#004B9C"/>
<path d="M24.2329 13.0532C23.5467 13.0532 22.8824 13.4183 22.8824 14.4565V23.8216H24.9147C25.5613 23.8216 25.8165 23.5356 25.8165 22.955V19.955H30.4836C31.1302 19.955 31.3854 19.6691 31.3854 19.0884V17.5664H25.8165V15.411H30.9235C31.5701 15.411 31.8253 15.1251 31.8253 14.5444V13.0488H24.2285L24.2329 13.0532Z" fill="#004B9C"/>
<path d="M10.0906 22.4188V13.0537H8.07598C7.42935 13.0537 7.17422 13.3396 7.17422 13.9203V19.0405L2.68301 13.0537H1.37216C0.685947 13.0537 0.026123 13.4188 0.026123 14.4569V23.822H2.04079C2.68741 23.822 2.94255 23.5361 2.94255 22.9599V17.8352L7.53492 23.8264H8.7402C9.42642 23.8264 10.0862 23.4657 10.0862 22.4232L10.0906 22.4188Z" fill="#004B9C"/>
<path d="M29.3443 11.0126C29.4059 9.8733 29.6082 5.3733 29.6082 5.3733C29.617 5.17095 29.5906 5.06538 29.4411 4.95541C22.2006 -0.41116 15.4132 0.0419194 12.5452 2.85717C10.2886 5.07418 9.76073 8.86157 11.3531 12.2399C11.5247 12.6182 11.705 12.5566 11.617 12.1651C11.0892 9.83371 11.3839 7.52432 12.9895 5.89676C16.0247 2.82638 23.2607 5.38649 29.1772 11.061C29.2739 11.1402 29.3355 11.0962 29.3399 11.0082L29.3443 11.0126Z" fill="url(#paint0_linear_2462_23518)"/>
<path d="M35.1947 7.21593C33.7651 5.4344 30.9675 2.50918 27.7783 0.349358C27.62 0.234988 27.5276 0.305369 27.532 0.463727L27.2417 6.39775C27.2329 6.5605 27.2769 6.62209 27.3824 6.69687C28.5481 7.59423 29.6786 8.55757 30.7783 9.71006C35.4895 14.6499 39.4968 22.8406 35.7446 26.5928C32.837 29.5004 26.3927 28.6998 20.1947 24.3318C19.856 24.0898 19.7373 24.2658 19.9836 24.5165C26.4675 30.4549 33.6727 31.7394 37.7769 28.7086C42.8399 24.9696 41.5642 15.1294 35.1991 7.21153L35.1947 7.21593Z" fill="url(#paint1_linear_2462_23518)"/>
<path d="M20.3883 23.8215H22.9836C21.0613 21.8465 20.0144 20.6984 19.2666 19.7526C20.8326 18.996 21.5232 17.7336 21.5232 16.5371C21.5232 14.5576 20.2871 13.1632 17.9777 13.0576C17.8677 13.0532 13.6889 13.0576 11.7358 13.0576V23.8215H13.7504C14.3971 23.8215 14.6522 23.5356 14.6522 22.9594V18.4374C15.9806 20.2497 17.2123 21.8113 18.5848 23.1485C19.0158 23.584 19.834 23.8259 20.3839 23.8259L20.3883 23.8215ZM16.9748 17.8479H14.6566V15.2438C15.1625 15.2438 16.7196 15.2438 17.0364 15.2438C17.8413 15.2438 18.466 15.7673 18.466 16.5415C18.466 17.4169 17.7622 17.8479 16.9748 17.8479Z" fill="#004B9C"/>
</g>
<defs>
<linearGradient id="paint0_linear_2462_23518" x1="24.8366" y1="17.554" x2="11.7396" y2="4.33308" gradientUnits="userSpaceOnUse">
<stop stop-color="#00A2E8"/>
<stop offset="1" stop-color="#004DA0"/>
</linearGradient>
<linearGradient id="paint1_linear_2462_23518" x1="36.5557" y1="4.88983" x2="26.5291" y2="32.4362" gradientUnits="userSpaceOnUse">
<stop offset="0.13" stop-color="#AFCE00"/>
<stop offset="0.21" stop-color="#A6CA03"/>
<stop offset="0.34" stop-color="#8DC20C"/>
<stop offset="0.5" stop-color="#65B51C"/>
<stop offset="0.69" stop-color="#2FA331"/>
<stop offset="0.84" stop-color="#009344"/>
</linearGradient>
<clipPath id="clip0_2462_23518">
<rect width="104.477" height="30" fill="white" transform="translate(0.026123 0.296875)"/>
</clipPath>
</defs>
</svg>
