<svg width="172" height="31" viewBox="0 0 172 31" fill="none" xmlns="http://www.w3.org/2000/svg">
<g clip-path="url(#clip0_2462_23648)">
<path d="M86.4318 13.8931C84.8895 13.467 83.8208 12.5673 83.1917 11.4309C82.5896 12.7432 81.4938 13.7849 79.9042 14.2719L78.9572 12.6485C81.1624 11.9991 82.1229 10.3757 82.15 8.73192H79.451V7.10847H82.15V5.5459H84.1319V7.10847H86.8647V8.73192H84.1319C84.159 10.1998 85.1195 11.6879 87.3247 12.2832L86.4251 13.8931H86.4318ZM90.0913 17.3836C90.0913 19.122 88.3055 20.1299 85.4239 20.1299C82.5423 20.1299 80.743 19.122 80.743 17.3836C80.743 15.6451 82.5288 14.6237 85.4239 14.6237C88.3191 14.6237 90.0913 15.6519 90.0913 17.3836ZM88.1297 17.3836C88.1297 16.5921 87.1962 16.2336 85.4307 16.2336C83.6652 16.2336 82.7182 16.5989 82.7182 17.3836C82.7182 18.1682 83.6517 18.5335 85.4307 18.5335C87.2097 18.5335 88.1297 18.1682 88.1297 17.3836ZM91.7757 8.99573V10.7004H89.9425V14.3463H87.9606V5.58648H89.9425V8.99573H91.7757Z" fill="#727171"/>
<path d="M104.425 18.2228V19.88H94.177V15.5508H96.0981V13.6095C94.8805 13.6703 93.7306 13.6906 92.6956 13.6906L92.4386 12.0334C94.9617 12.0198 98.3168 11.986 101.232 11.5937L101.368 13.0751C100.285 13.278 99.1759 13.4065 98.0666 13.4877V16.234H96.159V18.2228H104.425ZM93.4397 8.685C93.4397 7.13596 94.867 6.08071 96.8896 6.08071C98.9121 6.08071 100.326 7.13596 100.326 8.685C100.326 10.234 98.8986 11.2758 96.8896 11.2758C94.8805 11.2758 93.4397 10.234 93.4397 8.685ZM95.3135 8.685C95.3135 9.39526 95.9561 9.76053 96.8896 9.76053C97.823 9.76053 98.4521 9.39526 98.4521 8.685C98.4521 7.97474 97.8095 7.59593 96.8896 7.59593C95.9696 7.59593 95.3135 7.97474 95.3135 8.685ZM102.139 14.0356V5.58691H104.121V16.6061H102.139V15.4561H99.5412V14.0356H102.139Z" fill="#727171"/>
<path d="M113.171 14.1168C111.67 13.5959 110.648 12.5542 110.053 11.2419C109.437 12.6963 108.342 13.8327 106.766 14.3874L105.717 12.7639C108.044 11.9725 109.018 10.0311 109.018 8.04238V6.47981H111.027V8.05591C111.027 9.90259 111.961 11.7357 114.193 12.4933L113.171 14.1168ZM109.884 18.2228H117.277V19.88H107.902V15.2194H109.884V18.216V18.2228ZM118.63 9.80112V11.526H116.797V16.234H114.815V5.58691H116.797V9.80112H118.63Z" fill="#727171"/>
<path d="M130.901 5.58691V13.4065H128.919V10.4843H126.727C126.355 12.0604 124.941 13.136 123.156 13.136C121.086 13.136 119.523 11.6816 119.523 9.66583C119.523 7.65005 121.086 6.18894 123.156 6.18894C124.908 6.18894 126.321 7.24419 126.714 8.79323H128.919V5.58691H130.901ZM124.914 9.65907C124.914 8.57 124.177 7.92062 123.162 7.92062C122.148 7.92062 121.424 8.57 121.424 9.65907C121.424 10.7481 122.161 11.3975 123.162 11.3975C124.163 11.3975 124.914 10.7481 124.914 9.65907ZM128.939 14.0356H130.901V19.9544H121.749V14.0356H123.71V15.4291H128.932V14.0356H128.939ZM128.939 17.0052H123.717V18.3175H128.939V17.0052Z" fill="#727171"/>
<path d="M140.384 14.3062C138.856 13.7989 137.8 12.7572 137.171 11.4652C136.556 12.8857 135.446 14.0086 133.843 14.5632L132.835 12.933C135.129 12.1754 136.136 10.2679 136.136 8.44824V8.27237H133.363V6.62863H140.878V8.27237H138.145V8.44824C138.145 10.1529 139.153 11.9387 141.386 12.7098L140.378 14.3062H140.384ZM144.599 18.2228V19.88H135.061V15.1585H137.043V18.2228H144.605H144.599ZM144.254 16.1055H142.258V5.58691H144.254V16.1055Z" fill="#727171"/>
<path d="M158.689 13.3723V14.9822H146.209V13.3723H158.689ZM158.039 8.21104H146.804V6.64847H151.451V5.45117H153.433V6.64847H158.039V8.21104ZM157.214 17.8909C157.214 19.379 155.462 20.1502 152.412 20.1502C149.361 20.1502 147.629 19.379 147.629 17.8909C147.629 16.4027 149.381 15.6316 152.412 15.6316C155.442 15.6316 157.214 16.4027 157.214 17.8909ZM152.445 8.58984C155.415 8.58984 157.079 9.3001 157.079 10.6936C157.079 12.087 155.415 12.7635 152.445 12.7635C149.476 12.7635 147.825 12.0532 147.825 10.6936C147.825 9.33392 149.489 8.58984 152.445 8.58984ZM155.192 17.8909C155.192 17.3565 154.339 17.1197 152.418 17.1197C150.497 17.1197 149.645 17.3565 149.645 17.8909C149.645 18.4252 150.497 18.662 152.418 18.662C154.339 18.662 155.192 18.4252 155.192 17.8909ZM152.445 9.99007C150.734 9.99007 149.943 10.193 149.943 10.6868C149.943 11.1468 150.741 11.3632 152.445 11.3632C154.15 11.3632 154.948 11.14 154.948 10.6868C154.948 10.1998 154.17 9.99007 152.445 9.99007Z" fill="#727171"/>
<path d="M171.561 18.2228V19.88H161.313V15.5508H163.235V13.6095C162.017 13.6703 160.867 13.6906 159.832 13.6906L159.575 12.0334C162.098 12.0198 165.453 11.986 168.369 11.5937L168.504 13.0751C167.422 13.278 166.312 13.4065 165.203 13.4877V16.234H163.295V18.2228H171.561ZM160.576 8.685C160.576 7.13596 162.003 6.08071 164.026 6.08071C166.049 6.08071 167.462 7.13596 167.462 8.685C167.462 10.234 166.035 11.2758 164.026 11.2758C162.017 11.2758 160.576 10.234 160.576 8.685ZM162.457 8.685C162.457 9.39526 163.099 9.76053 164.033 9.76053C164.966 9.76053 165.595 9.39526 165.595 8.685C165.595 7.97474 164.953 7.59593 164.033 7.59593C163.113 7.59593 162.457 7.97474 162.457 8.685ZM169.282 14.0356V5.58691H171.264V16.6061H169.282V15.4561H166.684V14.0356H169.282Z" fill="#727171"/>
<path d="M79.7351 24.9531C79.7351 23.6678 80.4386 22.917 81.2774 22.917C81.6967 22.917 82.035 23.1537 82.2514 23.4176L81.8997 23.9114C81.7373 23.722 81.5412 23.5867 81.2909 23.5867C80.7903 23.5867 80.4115 24.094 80.4115 24.9328C80.4115 25.7716 80.7497 26.2924 81.2774 26.2924C81.5615 26.2924 81.7847 26.1368 81.9606 25.9068L82.3123 26.3939C82.0417 26.7659 81.6832 26.9689 81.2571 26.9689C80.4183 26.9689 79.7418 26.2654 79.7418 24.9598L79.7351 24.9531Z" fill="#B5B5B6"/>
<path d="M83.0226 22.6865H83.6787V23.7485L83.6517 24.3032C83.8546 24.08 84.0981 23.8703 84.4431 23.8703C84.9843 23.8703 85.2142 24.31 85.2142 25.0541V26.894H84.5581V25.1488C84.5581 24.6955 84.4499 24.5332 84.2063 24.5332C84.0034 24.5332 83.8681 24.6482 83.6855 24.8647V26.894H83.0293V22.6865H83.0226Z" fill="#B5B5B6"/>
<path d="M85.9921 26.0897C85.9921 25.4606 86.425 25.1224 87.4329 25.0006C87.4262 24.7097 87.3179 24.4865 87.0068 24.4865C86.7768 24.4865 86.5468 24.6083 86.3168 24.7638L86.0801 24.2498C86.3777 24.0333 86.7362 23.8574 87.1285 23.8574C87.7644 23.8574 88.0891 24.3039 88.0891 25.1562V26.8811H87.5547L87.5073 26.5632H87.4938C87.2774 26.7864 87.0203 26.9555 86.7362 26.9555C86.2898 26.9555 85.9921 26.5835 85.9921 26.0829V26.0897ZM87.4329 26.0694V25.4741C86.8241 25.5688 86.6145 25.765 86.6145 26.0288C86.6145 26.2588 86.7565 26.3602 86.9459 26.3602C87.1353 26.3602 87.2706 26.252 87.4262 26.0694H87.4329Z" fill="#B5B5B6"/>
<path d="M88.9955 23.9387H89.5299L89.5773 24.331H89.5975C89.814 24.0807 90.071 23.8643 90.416 23.8643C90.9572 23.8643 91.1939 24.3039 91.1939 25.048V26.8879H90.5378V25.1427C90.5378 24.6895 90.4296 24.5272 90.186 24.5272C89.9831 24.5272 89.8478 24.6422 89.6652 24.8586V26.8879H89.009V23.9387H88.9955Z" fill="#B5B5B6"/>
<path d="M91.9245 27.4088C91.9245 27.1585 92.053 26.9488 92.283 26.8V26.7729C92.1545 26.6715 92.053 26.5159 92.053 26.2791C92.053 26.0559 92.1815 25.853 92.3304 25.7245V25.7042C92.1613 25.5554 91.9989 25.278 91.9989 24.933C91.9989 24.2363 92.4792 23.8643 93.0136 23.8643C93.1489 23.8643 93.2841 23.8981 93.3924 23.9387H94.2988V24.5069H93.8659C93.9335 24.6083 93.9809 24.7707 93.9809 24.9533C93.9809 25.6162 93.5479 25.9544 93.0136 25.9544C92.9121 25.9544 92.7971 25.9274 92.6889 25.8868C92.6145 25.9545 92.5806 26.0221 92.5806 26.1371C92.5806 26.2927 92.6821 26.3806 92.973 26.3806H93.3991C94.0012 26.3806 94.3326 26.6038 94.3326 27.1179C94.3326 27.7132 93.805 28.1664 92.973 28.1664C92.3845 28.1664 91.9245 27.9296 91.9245 27.4088ZM93.7103 27.2532C93.7103 27.0435 93.5615 26.9894 93.2909 26.9894H92.9865C92.8309 26.9894 92.7295 26.9759 92.6348 26.9488C92.5198 27.057 92.4724 27.172 92.4724 27.2938C92.4724 27.5441 92.7024 27.6861 93.0745 27.6861C93.4465 27.6861 93.7103 27.49 93.7103 27.26V27.2532ZM93.4059 24.933C93.4059 24.588 93.2368 24.3919 93.0136 24.3919C92.7903 24.3919 92.6212 24.588 92.6212 24.933C92.6212 25.278 92.7971 25.4742 93.0136 25.4742C93.23 25.4742 93.4059 25.278 93.4059 24.933Z" fill="#B5B5B6"/>
<path d="M94.7249 23.9385H95.3811L95.6516 25.3996C95.699 25.6837 95.7328 25.9678 95.7802 26.2587H95.8005C95.8478 25.9678 95.8952 25.6769 95.956 25.3996L96.2537 23.9385H96.8422L97.1533 25.3996C97.2142 25.6837 97.2548 25.9678 97.3089 26.2587H97.3292C97.3766 25.9678 97.4036 25.6837 97.4577 25.3996L97.7283 23.9385H98.3371L97.7215 26.8877H96.9436L96.6798 25.6025C96.6257 25.3252 96.5851 25.0546 96.5378 24.7434H96.5175C96.4701 25.0546 96.4295 25.3319 96.3822 25.6025L96.1251 26.8877H95.3743L94.7249 23.9385Z" fill="#B5B5B6"/>
<path d="M98.8647 25.4201C98.8647 24.4325 99.4397 23.8643 100.069 23.8643C100.698 23.8643 101.273 24.4325 101.273 25.4201C101.273 26.4077 100.698 26.9623 100.069 26.9623C99.4397 26.9623 98.8647 26.3941 98.8647 25.4201ZM100.603 25.4201C100.603 24.8654 100.407 24.5001 100.069 24.5001C99.7306 24.5001 99.5344 24.8654 99.5344 25.4201C99.5344 25.9747 99.7306 26.3333 100.069 26.3333C100.407 26.3333 100.603 25.9747 100.603 25.4201Z" fill="#B5B5B6"/>
<path d="M102.051 23.9387H102.592L102.639 24.331H102.66C102.876 24.0807 103.133 23.8643 103.478 23.8643C104.019 23.8643 104.249 24.3039 104.249 25.048V26.8879H103.593V25.1427C103.593 24.6895 103.485 24.5272 103.241 24.5272C103.038 24.5272 102.903 24.6422 102.72 24.8586V26.8879H102.064V23.9387H102.051Z" fill="#B5B5B6"/>
<path d="M106.448 22.9912H107.111V26.8875H106.448V22.9912Z" fill="#B5B5B6"/>
<path d="M108.098 23.9387H108.633L108.68 24.331H108.7C108.917 24.0807 109.174 23.8643 109.519 23.8643C110.06 23.8643 110.29 24.3039 110.29 25.048V26.8879H109.634V25.1427C109.634 24.6895 109.525 24.5272 109.282 24.5272C109.079 24.5272 108.944 24.6422 108.761 24.8586V26.8879H108.105V23.9387H108.098Z" fill="#B5B5B6"/>
<path d="M111.054 25.4193C111.054 24.452 111.568 23.8635 112.109 23.8635C112.393 23.8635 112.569 23.992 112.745 24.1882L112.718 23.7215V22.6865H113.374V26.894H112.84L112.786 26.5896H112.772C112.59 26.7993 112.339 26.9684 112.076 26.9684C111.453 26.9684 111.047 26.3866 111.047 25.4261L111.054 25.4193ZM112.718 26.0214V24.7226C112.569 24.5603 112.407 24.4994 112.251 24.4994C111.967 24.4994 111.731 24.8173 111.731 25.4058C111.731 25.9943 111.92 26.3258 112.251 26.3258C112.427 26.3258 112.576 26.2446 112.718 26.0214Z" fill="#B5B5B6"/>
<path d="M114.288 25.7852V23.9385H114.944V25.6837C114.944 26.1437 115.052 26.2992 115.295 26.2992C115.498 26.2992 115.634 26.191 115.803 25.9272V23.9385H116.459V26.8877H115.924L115.877 26.4684H115.857C115.64 26.766 115.397 26.9622 115.052 26.9622C114.517 26.9622 114.281 26.5157 114.281 25.7784L114.288 25.7852Z" fill="#B5B5B6"/>
<path d="M117.156 26.5429L117.453 26.0559C117.676 26.2588 117.893 26.3806 118.123 26.3806C118.373 26.3806 118.488 26.2521 118.488 26.0694C118.488 25.8462 118.231 25.7448 117.961 25.6298C117.643 25.4877 117.277 25.2577 117.277 24.7707C117.277 24.2363 117.643 23.8643 118.211 23.8643C118.576 23.8643 118.853 24.0469 119.063 24.2295L118.766 24.6963C118.59 24.5475 118.414 24.446 118.224 24.446C118.001 24.446 117.893 24.561 117.893 24.7301C117.893 24.9466 118.136 25.0277 118.4 25.1427C118.732 25.2915 119.097 25.4877 119.097 26.0356C119.097 26.5497 118.752 26.9691 118.096 26.9691C117.758 26.9691 117.386 26.7932 117.142 26.5497L117.156 26.5429Z" fill="#B5B5B6"/>
<path d="M119.834 25.8591V24.5535H119.483V23.9786L119.868 23.9448L119.943 23.1533H120.49V23.9448H121.106V24.5535H120.49V25.8591C120.49 26.1973 120.605 26.3529 120.829 26.3529C120.91 26.3529 121.011 26.319 121.072 26.292L121.18 26.8534C121.045 26.9075 120.869 26.9617 120.653 26.9617C120.058 26.9617 119.828 26.5152 119.828 25.8523L119.834 25.8591Z" fill="#B5B5B6"/>
<path d="M121.843 23.9387H122.378L122.425 24.4595H122.445C122.628 24.074 122.899 23.8643 123.156 23.8643C123.298 23.8643 123.372 23.8913 123.453 23.9251L123.338 24.5948C123.25 24.561 123.183 24.5475 123.081 24.5475C122.885 24.5475 122.648 24.703 122.506 25.1292V26.8879H121.85V23.9387H121.843Z" fill="#B5B5B6"/>
<path d="M123.961 28.0174L124.082 27.4221C124.13 27.4357 124.197 27.456 124.258 27.456C124.515 27.456 124.657 27.2665 124.732 27.0095L124.779 26.8336L123.805 23.9385H124.468L124.867 25.3049C124.941 25.5687 125.009 25.8528 125.077 26.1369H125.097C125.158 25.8663 125.219 25.5822 125.28 25.3049L125.625 23.9385H126.254L125.361 26.9757C125.144 27.6724 124.874 28.0715 124.312 28.0715C124.164 28.0715 124.069 28.0512 123.967 28.0106L123.961 28.0174Z" fill="#B5B5B6"/>
<path d="M128.182 22.9912H129.271C130.008 22.9912 130.569 23.2888 130.569 24.2156C130.569 25.1423 130.001 25.5076 129.291 25.5076H128.844V26.8943H128.182V22.998V22.9912ZM129.244 24.8852C129.704 24.8852 129.92 24.662 129.92 24.2088C129.92 23.7556 129.676 23.6068 129.223 23.6068H128.844V24.8852H129.244Z" fill="#B5B5B6"/>
<path d="M131.347 23.9387H131.888L131.936 24.4595H131.956C132.139 24.074 132.409 23.8643 132.666 23.8643C132.802 23.8643 132.883 23.8913 132.964 23.9251L132.849 24.5948C132.761 24.561 132.693 24.5475 132.592 24.5475C132.396 24.5475 132.159 24.703 132.017 25.1292V26.8879H131.361V23.9387H131.347Z" fill="#B5B5B6"/>
<path d="M133.316 25.4201C133.316 24.4325 133.891 23.8643 134.52 23.8643C135.149 23.8643 135.724 24.4325 135.724 25.4201C135.724 26.4077 135.149 26.9623 134.52 26.9623C133.891 26.9623 133.316 26.3941 133.316 25.4201ZM135.054 25.4201C135.054 24.8654 134.858 24.5001 134.52 24.5001C134.182 24.5001 133.985 24.8654 133.985 25.4201C133.985 25.9747 134.182 26.3333 134.52 26.3333C134.858 26.3333 135.054 25.9747 135.054 25.4201Z" fill="#B5B5B6"/>
<path d="M136.508 23.9387H137.05L137.097 24.331H137.117C137.327 24.074 137.564 23.8643 137.888 23.8643C138.247 23.8643 138.457 24.0537 138.578 24.3783C138.808 24.0942 139.052 23.8643 139.377 23.8643C139.911 23.8643 140.154 24.3039 140.154 25.048V26.8879H139.498V25.1427C139.498 24.6895 139.383 24.5272 139.147 24.5272C139.005 24.5272 138.842 24.6354 138.666 24.8586V26.8879H138.01V25.1427C138.01 24.6895 137.895 24.5272 137.658 24.5272C137.516 24.5272 137.354 24.6354 137.178 24.8586V26.8879H136.522V23.9387H136.508Z" fill="#B5B5B6"/>
<path d="M140.899 25.4201C140.899 24.4325 141.474 23.8643 142.103 23.8643C142.732 23.8643 143.307 24.4325 143.307 25.4201C143.307 26.4077 142.732 26.9623 142.103 26.9623C141.474 26.9623 140.899 26.3941 140.899 25.4201ZM142.637 25.4201C142.637 24.8654 142.441 24.5001 142.103 24.5001C141.764 24.5001 141.568 24.8654 141.568 25.4201C141.568 25.9747 141.764 26.3333 142.103 26.3333C142.441 26.3333 142.637 25.9747 142.637 25.4201Z" fill="#B5B5B6"/>
<path d="M144.057 25.8591V24.5535H143.706V23.9786L144.091 23.9448L144.166 23.1533H144.714V23.9448H145.329V24.5535H144.714V25.8591C144.714 26.1973 144.829 26.3529 145.052 26.3529C145.133 26.3529 145.235 26.319 145.295 26.292L145.404 26.8534C145.268 26.9075 145.092 26.9617 144.876 26.9617C144.281 26.9617 144.051 26.5152 144.051 25.8523L144.057 25.8591Z" fill="#B5B5B6"/>
<path d="M146.006 23.0385C146.006 22.7882 146.168 22.6191 146.398 22.6191C146.628 22.6191 146.79 22.7882 146.79 23.0385C146.79 23.2888 146.628 23.4579 146.398 23.4579C146.168 23.4579 146.006 23.2753 146.006 23.0385ZM146.073 23.9382H146.729V26.8875H146.073V23.9382Z" fill="#B5B5B6"/>
<path d="M147.501 25.4201C147.501 24.4325 148.076 23.8643 148.705 23.8643C149.334 23.8643 149.909 24.4325 149.909 25.4201C149.909 26.4077 149.334 26.9623 148.705 26.9623C148.076 26.9623 147.501 26.3941 147.501 25.4201ZM149.239 25.4201C149.239 24.8654 149.05 24.5001 148.705 24.5001C148.36 24.5001 148.17 24.8654 148.17 25.4201C148.17 25.9747 148.366 26.3333 148.705 26.3333C149.043 26.3333 149.239 25.9747 149.239 25.4201Z" fill="#B5B5B6"/>
<path d="M150.693 23.9387H151.228L151.275 24.331H151.295C151.512 24.0807 151.769 23.8643 152.114 23.8643C152.655 23.8643 152.892 24.3039 152.892 25.048V26.8879H152.236V25.1427C152.236 24.6895 152.127 24.5272 151.884 24.5272C151.681 24.5272 151.546 24.6422 151.363 24.8586V26.8879H150.707V23.9387H150.693Z" fill="#B5B5B6"/>
<path d="M156.639 25.8864H155.564L155.334 26.8875H154.664L155.726 22.9912H156.504L157.573 26.8875H156.876L156.646 25.8864H156.639ZM156.497 25.2843L156.396 24.8582C156.294 24.4523 156.2 24.0059 156.105 23.5797H156.085C155.997 24.0059 155.902 24.4523 155.8 24.8582L155.699 25.2843H156.49H156.497Z" fill="#B5B5B6"/>
<path d="M157.972 27.4088C157.972 27.1585 158.1 26.9488 158.33 26.8V26.7729C158.202 26.6715 158.1 26.5159 158.1 26.2791C158.1 26.0559 158.229 25.853 158.378 25.7245V25.7042C158.209 25.5554 158.046 25.278 158.046 24.933C158.046 24.2363 158.527 23.8643 159.061 23.8643C159.203 23.8643 159.331 23.8981 159.44 23.9387H160.346V24.5069H159.913C159.981 24.6083 160.028 24.7707 160.028 24.9533C160.028 25.6162 159.595 25.9544 159.061 25.9544C158.959 25.9544 158.844 25.9274 158.736 25.8868C158.662 25.9545 158.628 26.0221 158.628 26.1371C158.628 26.2927 158.729 26.3806 159.02 26.3806H159.446C160.049 26.3806 160.38 26.6038 160.38 27.1179C160.38 27.7132 159.852 28.1664 159.02 28.1664C158.432 28.1664 157.972 27.9296 157.972 27.4088ZM159.751 27.2532C159.751 27.0435 159.602 26.9894 159.331 26.9894H159.027C158.872 26.9894 158.77 26.9759 158.675 26.9488C158.56 27.057 158.513 27.172 158.513 27.2938C158.513 27.5441 158.743 27.6861 159.115 27.6861C159.487 27.6861 159.751 27.49 159.751 27.26V27.2532ZM159.446 24.933C159.446 24.588 159.277 24.3919 159.054 24.3919C158.831 24.3919 158.662 24.588 158.662 24.933C158.662 25.278 158.838 25.4742 159.054 25.4742C159.271 25.4742 159.446 25.278 159.446 24.933Z" fill="#B5B5B6"/>
<path d="M160.793 25.4201C160.793 24.4595 161.361 23.8643 161.963 23.8643C162.653 23.8643 163.011 24.4595 163.011 25.278C163.011 25.4201 162.998 25.5621 162.977 25.6298H161.435C161.489 26.1168 161.76 26.3671 162.132 26.3671C162.335 26.3671 162.518 26.2927 162.693 26.1641L162.917 26.6377C162.673 26.8406 162.355 26.9623 162.037 26.9623C161.341 26.9623 160.793 26.3874 160.793 25.4201ZM162.45 25.1157C162.45 24.7166 162.301 24.4595 161.976 24.4595C161.713 24.4595 161.483 24.6827 161.428 25.1157H162.45Z" fill="#B5B5B6"/>
<path d="M163.782 23.9387H164.317L164.364 24.331H164.384C164.601 24.0807 164.858 23.8643 165.203 23.8643C165.744 23.8643 165.974 24.3039 165.974 25.048V26.8879H165.318V25.1427C165.318 24.6895 165.21 24.5272 164.966 24.5272C164.763 24.5272 164.628 24.6422 164.445 24.8586V26.8879H163.789V23.9387H163.782Z" fill="#B5B5B6"/>
<path d="M166.725 25.4201C166.725 24.4325 167.327 23.8643 168.003 23.8643C168.315 23.8643 168.551 24.0063 168.734 24.1889L168.423 24.6895C168.294 24.561 168.179 24.4933 168.037 24.4933C167.658 24.4933 167.395 24.8586 167.395 25.4133C167.395 25.968 167.652 26.3265 168.017 26.3265C168.193 26.3265 168.369 26.225 168.504 26.0897L168.761 26.6038C168.524 26.8541 168.22 26.9623 167.943 26.9623C167.246 26.9623 166.718 26.3941 166.718 25.4201H166.725Z" fill="#B5B5B6"/>
<path d="M169.356 28.0174L169.478 27.4221C169.525 27.4357 169.593 27.456 169.654 27.456C169.911 27.456 170.053 27.2665 170.127 27.0095L170.175 26.8336L169.201 23.9385H169.864L170.263 25.3049C170.337 25.5687 170.405 25.8528 170.472 26.1369H170.493C170.554 25.8663 170.614 25.5822 170.675 25.3049L171.02 23.9385H171.649L170.756 26.9757C170.54 27.6724 170.269 28.0715 169.708 28.0715C169.559 28.0715 169.464 28.0512 169.363 28.0106L169.356 28.0174Z" fill="#B5B5B6"/>
<path d="M53.1105 4.65332H65.3134C70.0282 4.65332 73.8568 8.48196 73.8568 13.1967V16.261C73.8568 20.969 70.0282 24.8044 65.3134 24.8044H61.1398V18.6962H65.3134C66.6528 18.6962 67.7486 17.6071 67.7486 16.261V13.1967C67.7486 11.8574 66.6595 10.7616 65.3134 10.7616H53.1105V4.65332Z" fill="#3E3A39"/>
<path d="M34.982 11.1674V17.7897C34.982 19.1291 33.8929 20.2249 32.5468 20.2249H25.363C24.0169 20.2249 22.9279 19.1291 22.9279 17.7897V11.1674H16.8196V17.7897C16.8196 18.0941 16.8399 18.3918 16.867 18.6894H8.61445C7.2751 18.6894 6.17928 17.5936 6.17928 16.2542V13.19C6.17928 11.8506 7.26834 10.7548 8.61445 10.7548H12.7881V4.65332H8.61445C3.89968 4.65332 0.0710449 8.48196 0.0710449 13.1967V16.261C0.0710449 20.9758 3.89968 24.8044 8.61445 24.8044H20.4927C21.8794 25.7717 23.557 26.3399 25.363 26.3399H32.5468C37.2548 26.3399 41.0902 22.5113 41.0902 17.7965V11.1742H34.982V11.1674Z" fill="#3E3A39"/>
<path d="M31.9786 15.4694C31.9786 17.1402 30.6257 18.493 28.9617 18.493C27.2909 18.493 25.938 17.1402 25.938 15.4694V3.32055C25.938 1.64975 27.2909 0.296875 28.9617 0.296875C30.6325 0.296875 31.9786 1.64975 31.9786 3.32055V15.4694Z" fill="#009EA8"/>
<path d="M50.0868 15.4694C50.0868 17.1402 48.7339 18.493 47.0699 18.493C45.3991 18.493 44.0462 17.1402 44.0462 15.4694V3.32055C44.0462 1.64975 45.3991 0.296875 47.0699 0.296875C48.7407 0.296875 50.0868 1.64975 50.0868 3.32055V15.4694Z" fill="#E7B000"/>
<path d="M59.1376 27.2799C59.1376 28.9507 57.7847 30.2968 56.1139 30.2968C54.4431 30.2968 53.097 28.944 53.097 27.2799V15.1311C53.097 13.4603 54.4499 12.1074 56.1139 12.1074C57.7847 12.1074 59.1376 13.4603 59.1376 15.1311V27.2799Z" fill="#B21123"/>
</g>
<defs>
<clipPath id="clip0_2462_23648">
<rect width="171.572" height="30" fill="white" transform="translate(0.0710449 0.296875)"/>
</clipPath>
</defs>
</svg>
