<svg width="123" height="31" viewBox="0 0 123 31" fill="none" xmlns="http://www.w3.org/2000/svg">
<g clip-path="url(#clip0_2462_23834)">
<mask id="mask0_2462_23834" style="mask-type:luminance" maskUnits="userSpaceOnUse" x="0" y="0" width="123" height="31">
<path d="M122.699 0.296875H0.862305V30.2969H122.699V0.296875Z" fill="white"/>
</mask>
<g mask="url(#mask0_2462_23834)">
<path d="M28.2588 29.0183C28.2588 29.0568 28.2551 29.0862 28.2458 29.1064C28.2383 29.1266 28.2198 29.1431 28.1938 29.1596C28.034 29.2533 27.8612 29.3212 27.6773 29.3616C27.4934 29.402 27.289 29.4222 27.066 29.4222C26.7985 29.4222 26.5626 29.3781 26.3563 29.2882C26.1501 29.1982 25.9792 29.0733 25.8398 28.9099C25.7005 28.7465 25.5964 28.5482 25.524 28.315C25.4515 28.0818 25.4162 27.821 25.4162 27.5327C25.4162 27.2701 25.4478 27.0241 25.511 26.7945C25.5742 26.565 25.6708 26.363 25.799 26.1923C25.9271 26.0215 26.0888 25.8856 26.2839 25.7865C26.4771 25.6873 26.7074 25.6377 26.9713 25.6377C27.1348 25.6377 27.2927 25.6597 27.4432 25.7001C27.5936 25.7424 27.7274 25.8048 27.8445 25.8893C27.9615 25.9738 28.0582 26.0784 28.1325 26.2033C28.2068 26.3281 28.2495 26.4751 28.2606 26.6421H27.8538C27.8371 26.5246 27.8018 26.4255 27.746 26.341C27.6903 26.2566 27.6234 26.1886 27.5435 26.1353C27.4636 26.0821 27.3745 26.0417 27.276 26.016C27.1775 25.9903 27.0753 25.9774 26.9731 25.9774C26.7688 25.9774 26.596 26.0197 26.4511 26.1041C26.308 26.1886 26.1909 26.3024 26.1 26.4438C26.0089 26.587 25.9438 26.7523 25.9012 26.9396C25.8584 27.1269 25.838 27.3252 25.838 27.5327C25.838 27.7733 25.8621 27.9881 25.9086 28.1809C25.955 28.3737 26.0312 28.5372 26.1334 28.6693C26.2374 28.8016 26.3693 28.9044 26.5328 28.976C26.6944 29.0477 26.8914 29.0825 27.1218 29.0825C27.2723 29.0825 27.4116 29.0715 27.5379 29.0495C27.6642 29.0275 27.7628 28.9926 27.8333 28.9466C27.8463 28.9393 27.8575 28.9319 27.863 28.9228C27.8705 28.9136 27.8723 28.897 27.8723 28.875V27.8118H27.0437V27.4758H28.1622C28.2254 27.4758 28.257 27.507 28.257 27.5676V29.0183H28.2588Z" fill="#29518D"/>
<path d="M29.7024 30.2967H29.301L29.6931 29.3253L28.6638 26.8721H29.0893L29.9012 28.9324L30.7038 26.8721H31.12L29.7024 30.2967Z" fill="#29518D"/>
<path d="M33.5705 28.525C33.4906 28.839 33.3532 29.0685 33.1562 29.2099C32.9612 29.3532 32.7048 29.4229 32.3908 29.4229C32.1994 29.4229 32.0341 29.388 31.891 29.3164C31.7479 29.2448 31.6328 29.1494 31.5398 29.0281C31.447 28.907 31.3801 28.7674 31.3336 28.6076C31.2891 28.4497 31.2667 28.2844 31.2667 28.1118C31.2667 27.9429 31.2909 27.7795 31.3392 27.6216C31.3875 27.4637 31.4599 27.3222 31.5547 27.2011C31.6495 27.0798 31.7702 26.9826 31.9133 26.9091C32.0563 26.8356 32.2235 26.8008 32.4149 26.8008C32.623 26.8008 32.7995 26.8338 32.95 26.8981C33.0986 26.9624 33.2213 27.0542 33.316 27.1698C33.4107 27.2856 33.4813 27.4251 33.5241 27.5848C33.5668 27.7446 33.5891 27.919 33.5891 28.1063C33.5891 28.1688 33.5612 28.1982 33.5037 28.1982H31.6774C31.6774 28.3248 31.6922 28.4442 31.7219 28.5562C31.7517 28.6682 31.8 28.7637 31.865 28.8445C31.93 28.9253 32.0136 28.9896 32.1158 29.0355C32.218 29.0832 32.3406 29.1053 32.4837 29.1053C32.6546 29.1053 32.7958 29.0538 32.9091 28.9528C33.0225 28.85 33.1024 28.7068 33.1507 28.5231H33.5705V28.525ZM33.1897 27.8878C33.1729 27.6546 33.1024 27.4673 32.976 27.3241C32.8515 27.1809 32.6658 27.1111 32.4223 27.1111C32.309 27.1111 32.2087 27.1313 32.1214 27.1735C32.0341 27.2158 31.9616 27.2727 31.9003 27.3443C31.8408 27.4159 31.7925 27.4986 31.7573 27.5922C31.7219 27.6858 31.6996 27.785 31.6903 27.8878H33.1897Z" fill="#29518D"/>
<path d="M36.073 29.0178C35.9764 29.1371 35.852 29.2345 35.7015 29.3098C35.551 29.385 35.3707 29.4218 35.159 29.4218C34.9509 29.4218 34.7744 29.385 34.6239 29.3098C34.4753 29.2345 34.3507 29.1371 34.2523 29.016C34.1538 28.8947 34.0814 28.7552 34.0349 28.5955C33.9885 28.4375 33.9644 28.2741 33.9644 28.1089C33.9644 27.9436 33.9885 27.782 34.0349 27.6222C34.0814 27.4643 34.1538 27.3229 34.2523 27.2018C34.3507 27.0805 34.4753 26.9832 34.6239 26.9079C34.7725 26.8326 34.9509 26.7959 35.159 26.7959C35.367 26.7959 35.5454 26.8326 35.6977 26.9079C35.8501 26.9832 35.9745 27.0805 36.0749 27.2018C36.1733 27.3229 36.2477 27.4625 36.296 27.6222C36.3443 27.7801 36.3685 27.9436 36.3685 28.1089C36.3685 28.2741 36.3443 28.4357 36.296 28.5955C36.2477 28.7534 36.1733 28.8947 36.073 29.0178ZM35.5212 29.0178C35.6717 28.9241 35.7813 28.7956 35.852 28.6322C35.9226 28.4687 35.9578 28.2943 35.9578 28.1107C35.9578 27.995 35.943 27.8775 35.9133 27.7581C35.8835 27.6406 35.8352 27.5322 35.7702 27.4368C35.7052 27.3413 35.6216 27.2623 35.5212 27.2018C35.4209 27.1411 35.3002 27.1099 35.1608 27.1099C35.0196 27.1099 34.9007 27.1411 34.8004 27.2018C34.7 27.2623 34.6183 27.3413 34.557 27.4368C34.4957 27.5322 34.4493 27.6388 34.4195 27.7581C34.3898 27.8757 34.3749 27.9931 34.3749 28.1107C34.3749 28.2282 34.3898 28.3457 34.4195 28.4632C34.4493 28.5808 34.4957 28.6891 34.557 28.7846C34.6183 28.8801 34.7 28.9572 34.8004 29.0178C34.9007 29.0784 35.0215 29.1078 35.1608 29.1078C35.3002 29.1041 35.4209 29.0747 35.5212 29.0178Z" fill="#29518D"/>
<path d="M38.897 29.3428H38.5105V27.8077C38.5105 27.5653 38.466 27.3872 38.3768 27.2752C38.2876 27.1632 38.1371 27.1081 37.9235 27.1081C37.8398 27.1081 37.7563 27.1246 37.6745 27.1595C37.5927 27.1944 37.5184 27.244 37.4534 27.3101C37.3884 27.3762 37.3363 27.4607 37.2955 27.5598C37.2546 27.6608 37.236 27.7765 37.236 27.9087V29.3428H36.8756V26.8749H37.2472L37.2379 27.1907C37.3549 27.0456 37.4794 26.9428 37.6113 26.8841C37.7432 26.8253 37.8919 26.7959 38.0553 26.7959C38.3396 26.7959 38.5514 26.873 38.6889 27.0292C38.8282 27.1852 38.897 27.4092 38.897 27.7049V29.3428Z" fill="#29518D"/>
<path d="M41.6969 29.3073C41.6969 29.6304 41.604 29.8765 41.4163 30.0454C41.2287 30.2144 40.9574 30.2988 40.6045 30.2988C40.3072 30.2988 40.062 30.2437 39.8687 30.1335C39.6755 30.0234 39.5659 29.8435 39.5343 29.5937H39.9653C39.9728 29.6708 39.9969 29.7351 40.0378 29.7865C40.0787 29.8361 40.1306 29.8783 40.1938 29.9095C40.2552 29.9426 40.3239 29.9646 40.4 29.9775C40.4763 29.9903 40.5505 29.9977 40.6286 29.9977C40.859 29.9977 41.0355 29.9371 41.1581 29.8141C41.2807 29.691 41.342 29.5019 41.342 29.2448L41.3513 29.0061C41.2602 29.1494 41.1395 29.254 40.9872 29.3219C40.8348 29.3898 40.6806 29.4247 40.5227 29.4247C40.3258 29.4247 40.1586 29.3898 40.0229 29.3183C39.8873 29.2466 39.7777 29.1512 39.6922 29.0318C39.6067 28.9125 39.5455 28.7729 39.5064 28.6168C39.4674 28.4589 39.4489 28.2955 39.4489 28.1229C39.4489 27.9484 39.4692 27.7813 39.5083 27.6216C39.5491 27.4637 39.6123 27.3222 39.7015 27.2011C39.7907 27.0798 39.9022 26.9826 40.0378 26.9091C40.1734 26.8356 40.3369 26.8008 40.5264 26.8008C40.6304 26.8008 40.7215 26.81 40.8032 26.8283C40.8831 26.8466 40.9556 26.8724 41.0206 26.9054C41.0856 26.9403 41.1451 26.9789 41.1952 27.0248C41.2473 27.0707 41.2956 27.1221 41.3439 27.1809L41.329 26.8797H41.695V29.3073H41.6969ZM40.9333 29.0355C41.0838 28.9583 41.1915 28.8408 41.2547 28.6866C41.3179 28.5305 41.3494 28.3561 41.3494 28.1614C41.3494 28.0182 41.3365 27.8841 41.3085 27.7575C41.2826 27.6307 41.2361 27.5206 41.1729 27.4251C41.1097 27.3296 41.0262 27.2543 40.924 27.1992C40.8218 27.1441 40.6954 27.1166 40.545 27.1166C40.4075 27.1166 40.296 27.1496 40.2087 27.2139C40.1214 27.2782 40.0508 27.3608 39.9988 27.46C39.9449 27.5591 39.9077 27.6693 39.8891 27.7905C39.8687 27.9117 39.8594 28.031 39.8594 28.1467C39.8594 28.2734 39.8724 28.3946 39.8966 28.5085C39.9207 28.6242 39.9634 28.727 40.0211 28.817C40.0805 28.907 40.1548 28.9804 40.2459 29.0336C40.3388 29.0869 40.4483 29.1145 40.5803 29.1145C40.7234 29.1126 40.8404 29.0869 40.9333 29.0355Z" fill="#29518D"/>
<path d="M45.1377 29.2515C45.1377 29.3121 45.1099 29.3433 45.0523 29.3433H44.7308C44.6844 29.3433 44.651 29.3213 44.6305 29.2809L43.0699 26.7542L42.7838 26.2253L42.7931 26.8038V29.3452H42.4066V25.8085C42.4066 25.7479 42.4345 25.7167 42.4921 25.7167H42.8135C42.8563 25.7167 42.8897 25.7369 42.9138 25.7791L44.4745 28.3058L44.7606 28.8347L44.7513 28.2562V25.7148H45.1377V29.2515Z" fill="#29518D"/>
<path d="M47.33 29.3416L47.3152 29.0735C47.2409 29.1671 47.1331 29.248 46.9901 29.3159C46.847 29.3838 46.6946 29.4187 46.533 29.4187C46.4123 29.4187 46.2989 29.4022 46.1949 29.3673C46.089 29.3324 45.9979 29.2829 45.9199 29.2186C45.8419 29.1543 45.7787 29.0735 45.7341 28.9762C45.6895 28.8788 45.6672 28.7687 45.6672 28.6456C45.6672 28.4712 45.7118 28.3243 45.8029 28.2068C45.8939 28.0893 46.0184 27.9974 46.1782 27.9313C46.2618 27.8928 46.3528 27.8634 46.4531 27.8469C46.5535 27.8285 46.6537 27.8175 46.7541 27.812C46.8544 27.8065 46.9529 27.8046 47.0495 27.8065C47.1461 27.8083 47.2334 27.8083 47.3096 27.8083V27.6284C47.2929 27.4282 47.2334 27.2905 47.1331 27.2152C47.0328 27.1399 46.899 27.1032 46.7318 27.1032C46.5813 27.1032 46.455 27.1326 46.3528 27.1914C46.2506 27.2501 46.1893 27.3658 46.1689 27.5402H45.7527C45.7601 27.4099 45.7917 27.2997 45.8474 27.2042C45.905 27.1105 45.9775 27.0334 46.0686 26.971C46.1596 26.9104 46.2618 26.8645 46.377 26.8351C46.4921 26.8057 46.611 26.791 46.7355 26.791C47.0235 26.791 47.252 26.8608 47.4211 26.9967C47.5902 27.1344 47.6719 27.3493 47.67 27.6412V28.9633C47.67 29.0184 47.6719 29.0827 47.6756 29.1543C47.6793 29.2278 47.6849 29.2884 47.696 29.3361H47.33V29.3416ZM47.2948 28.4969C47.3152 28.3776 47.3245 28.2545 47.3245 28.1279C47.2613 28.1279 47.1851 28.126 47.0978 28.1223C47.0105 28.1187 46.9213 28.1205 46.8303 28.1242C46.7374 28.1297 46.6463 28.1407 46.5553 28.159C46.4624 28.1774 46.3807 28.2049 46.31 28.2435C46.2376 28.2821 46.18 28.3353 46.1373 28.4014C46.0945 28.4675 46.0722 28.552 46.0722 28.6511C46.0722 28.8164 46.1224 28.9339 46.2246 29.0019C46.3268 29.0699 46.4494 29.1047 46.5925 29.1047C46.7058 29.1047 46.8024 29.09 46.8841 29.0607C47.0105 29.0129 47.1071 28.9376 47.1702 28.8403C47.2334 28.7393 47.2743 28.6254 47.2948 28.4969Z" fill="#29518D"/>
<path d="M51.8948 29.3416H51.5195V27.8065C51.5195 27.5641 51.4786 27.386 51.3969 27.274C51.3152 27.162 51.1684 27.1069 50.9584 27.1069C50.8878 27.1069 50.8172 27.1216 50.7448 27.1473C50.6723 27.1748 50.6073 27.2152 50.5497 27.2684C50.4902 27.3217 50.4401 27.3897 50.3992 27.4704C50.3565 27.5512 50.3305 27.6449 50.3156 27.7514V29.3397H49.9496V27.8046C49.9496 27.5623 49.9069 27.3842 49.8214 27.2721C49.7359 27.1601 49.591 27.105 49.3866 27.105C49.3067 27.105 49.2269 27.1216 49.1451 27.1565C49.0652 27.1914 48.9946 27.2409 48.9315 27.307C48.8702 27.3731 48.82 27.4576 48.781 27.5568C48.742 27.6578 48.7234 27.7734 48.7234 27.9057V29.3397H48.363V26.8718H48.7345L48.7252 27.1877C48.8423 27.0426 48.9612 26.9398 49.0838 26.881C49.2065 26.8222 49.3476 26.7929 49.5074 26.7929C49.8994 26.7929 50.1484 26.9526 50.2543 27.274L50.2952 27.1859C50.4085 27.0408 50.5293 26.938 50.6538 26.8792C50.7782 26.8204 50.9213 26.791 51.0829 26.791C51.3579 26.791 51.5604 26.8682 51.6941 27.0242C51.8279 27.1803 51.8948 27.4044 51.8948 27.7V29.3416Z" fill="#29518D"/>
<path d="M54.6593 29.3451H54.2636V25.7002H54.6593V29.3451Z" fill="#29518D"/>
<path d="M57.528 29.3428H57.1416V27.8077C57.1416 27.5653 57.097 27.3872 57.0078 27.2752C56.9186 27.1632 56.7681 27.1081 56.5544 27.1081C56.4709 27.1081 56.3872 27.1246 56.3055 27.1595C56.2238 27.1944 56.1494 27.244 56.0844 27.3101C56.0194 27.3762 55.9674 27.4607 55.9265 27.5598C55.8856 27.6608 55.867 27.7765 55.867 27.9087V29.3428H55.5066V26.8749H55.8782L55.8689 27.1907C55.986 27.0456 56.1104 26.9428 56.2423 26.8841C56.3743 26.8253 56.5229 26.7959 56.6864 26.7959C56.9706 26.7959 57.1824 26.873 57.3218 27.0292C57.4611 27.1852 57.5299 27.4092 57.5299 27.7049V29.3428H57.528Z" fill="#29518D"/>
<path d="M59.3339 29.2959C59.3246 29.329 59.2968 29.3437 59.254 29.3437H58.9679C58.927 29.3437 58.901 29.3272 58.888 29.2959L57.8848 26.8721H58.3065L59.1147 28.9526L59.9229 26.8721H60.3446L59.3339 29.2959Z" fill="#29518D"/>
<path d="M62.7897 28.525C62.7095 28.839 62.5723 29.0685 62.3752 29.2099C62.1805 29.3532 61.9238 29.4229 61.6098 29.4229C61.4185 29.4229 61.2531 29.388 61.11 29.3164C60.967 29.2448 60.8518 29.1494 60.7589 29.0281C60.666 28.907 60.5991 28.7674 60.5526 28.6076C60.5081 28.4497 60.4858 28.2844 60.4858 28.1118C60.4858 27.9429 60.51 27.7795 60.5583 27.6216C60.6066 27.4637 60.679 27.3222 60.7738 27.2011C60.8685 27.0798 60.9893 26.9826 61.1323 26.9091C61.2754 26.8356 61.4426 26.8008 61.634 26.8008C61.842 26.8008 62.0204 26.8338 62.1688 26.8981C62.3176 26.9624 62.4401 27.0542 62.535 27.1698C62.6299 27.2856 62.7003 27.4251 62.7431 27.5848C62.786 27.7446 62.808 27.919 62.808 28.1063C62.808 28.1688 62.7805 28.1982 62.7229 28.1982H60.8964C60.8964 28.3248 60.9112 28.4442 60.941 28.5562C60.9707 28.6682 61.019 28.7637 61.084 28.8445C61.149 28.9253 61.2327 28.9896 61.3348 29.0355C61.437 29.0832 61.5597 29.1053 61.7027 29.1053C61.8736 29.1053 62.0148 29.0538 62.1303 28.9528C62.2435 28.85 62.3231 28.7068 62.3715 28.5231H62.7897V28.525ZM62.4088 27.8878C62.3917 27.6546 62.3213 27.4673 62.1952 27.3241C62.0706 27.1809 61.8848 27.1111 61.6414 27.1111C61.5281 27.1111 61.4277 27.1313 61.3404 27.1735C61.2531 27.2158 61.1806 27.2727 61.1193 27.3443C61.0599 27.4159 61.0116 27.4986 60.9762 27.5922C60.941 27.6858 60.9187 27.785 60.9094 27.8878H62.4088Z" fill="#29518D"/>
<path d="M64.7959 27.5206C64.7886 27.4398 64.7702 27.3718 64.7365 27.3186C64.7029 27.2654 64.6606 27.2231 64.6086 27.1919C64.5565 27.1607 64.499 27.1386 64.4316 27.1258C64.3667 27.1129 64.2982 27.1056 64.2235 27.1056C64.1567 27.1056 64.0918 27.1129 64.0306 27.1258C63.9694 27.1386 63.9137 27.1607 63.8653 27.1882C63.8169 27.2176 63.7778 27.2562 63.7502 27.302C63.7221 27.3498 63.7074 27.4086 63.7074 27.4802C63.7074 27.5683 63.7312 27.6326 63.7814 27.6767C63.8316 27.7207 63.902 27.7575 63.9951 27.7868C64.0882 27.8162 64.2014 27.8456 64.3374 27.875C64.4727 27.9044 64.6251 27.9503 64.7959 28.0108C64.9759 28.0659 65.1045 28.1431 65.1767 28.2422C65.2514 28.3414 65.2863 28.4608 65.2863 28.6003C65.2863 28.7435 65.2569 28.8666 65.1957 28.9694C65.1357 29.074 65.0543 29.1585 64.9539 29.2246C64.8535 29.2907 64.7365 29.3403 64.6049 29.3734C64.4727 29.4064 64.3355 29.4211 64.1904 29.4211C64.0808 29.4211 63.9676 29.4082 63.8543 29.3826C63.7404 29.3568 63.6369 29.3128 63.5439 29.2521C63.4508 29.1897 63.3731 29.1089 63.3094 29.0098C63.2482 28.9088 63.2133 28.7857 63.2078 28.6407H63.618C63.6253 28.738 63.6461 28.817 63.6829 28.8757C63.7202 28.9363 63.7667 28.9822 63.8261 29.0171C63.8837 29.0502 63.9504 29.074 64.0269 29.0869C64.1029 29.0998 64.1794 29.1071 64.2608 29.1071C64.3374 29.1071 64.4133 29.0998 64.4855 29.0832C64.5602 29.0667 64.6251 29.041 64.6808 29.0061C64.7384 28.9712 64.7831 28.9235 64.8186 28.8647C64.8535 28.8059 64.87 28.7343 64.87 28.6517C64.87 28.5636 64.8498 28.4938 64.8069 28.4424C64.7647 28.391 64.7084 28.3487 64.6398 28.3193C64.5694 28.2881 64.4892 28.2642 64.3967 28.244C64.3037 28.2239 64.2088 28.2037 64.1084 28.1816C64.0123 28.1596 63.9155 28.1339 63.8169 28.1063C63.7202 28.0788 63.6327 28.0402 63.5567 27.9925C63.4808 27.9448 63.4172 27.8823 63.3712 27.8052C63.3247 27.7299 63.3002 27.6307 63.3002 27.5114C63.3002 27.3792 63.3284 27.2672 63.3859 27.1754C63.4435 27.0854 63.5157 27.0119 63.6069 26.9568C63.6982 26.9017 63.7986 26.8613 63.91 26.8375C64.0214 26.8136 64.1329 26.8008 64.2443 26.8008C64.3686 26.8008 64.4837 26.8136 64.5933 26.8375C64.701 26.8613 64.7996 26.9017 64.8853 26.9568C64.9704 27.0119 65.0414 27.0854 65.0953 27.1772C65.151 27.269 65.1859 27.3847 65.2031 27.5243H64.7959V27.5206Z" fill="#29518D"/>
<path d="M66.9976 29.3708C66.9437 29.3873 66.8898 29.3983 66.8323 29.4075C66.7747 29.4149 66.7208 29.4204 66.667 29.4204C66.5757 29.4204 66.4925 29.4112 66.4141 29.3928C66.3363 29.3744 66.2678 29.3432 66.2114 29.2955C66.1539 29.2478 66.1098 29.1835 66.078 29.1008C66.0461 29.0182 66.0296 28.9117 66.0296 28.7832V27.1801H65.5337V26.8643H66.0296V26.1592H66.4012V26.8643H66.9682V27.1801H66.4012V28.7354C66.4012 28.8878 66.4312 28.9889 66.4888 29.0421C66.5463 29.0935 66.6223 29.1192 66.7172 29.1192C66.7766 29.1192 66.8286 29.1137 66.8696 29.1045C66.9125 29.0953 66.9547 29.0806 66.9976 29.0604V29.3708Z" fill="#29518D"/>
<path d="M70.9919 29.3416H70.6166V27.8065C70.6166 27.5641 70.5762 27.386 70.4941 27.274C70.4127 27.162 70.2658 27.1069 70.0558 27.1069C69.9853 27.1069 69.9143 27.1216 69.8421 27.1473C69.7698 27.1748 69.7043 27.2152 69.6468 27.2684C69.5874 27.3217 69.539 27.3897 69.4962 27.4704C69.4558 27.5512 69.4276 27.6449 69.4129 27.7514V29.3397H69.0468V27.8046C69.0468 27.5623 69.0039 27.3842 68.9188 27.2721C68.8331 27.1601 68.688 27.105 68.4841 27.105C68.4039 27.105 68.3243 27.1216 68.2423 27.1565C68.1627 27.1914 68.0917 27.2409 68.0286 27.307C67.9674 27.3731 67.9172 27.4576 67.878 27.5568C67.8394 27.6578 67.8204 27.7734 67.8204 27.9057V29.3397H67.4604V26.8718H67.8321L67.8223 27.1877C67.9398 27.0426 68.0586 26.9398 68.1811 26.881C68.3035 26.8222 68.4449 26.7929 68.6047 26.7929C68.9966 26.7929 69.2458 26.9526 69.3517 27.274L69.3927 27.1859C69.506 27.0408 69.6247 26.938 69.7509 26.8792C69.8758 26.8204 70.0184 26.791 70.18 26.791C70.4549 26.791 70.6576 26.8682 70.7917 27.0242C70.9251 27.1803 70.9919 27.4044 70.9919 27.7V29.3416Z" fill="#29518D"/>
<path d="M73.9961 28.525C73.9165 28.839 73.7788 29.0685 73.5823 29.2099C73.387 29.3532 73.1304 29.4229 72.8163 29.4229C72.6253 29.4229 72.46 29.388 72.3167 29.3164C72.1735 29.2448 72.0565 29.1494 71.9659 29.0281C71.8729 28.907 71.8061 28.7674 71.7596 28.6076C71.7149 28.4497 71.6923 28.2844 71.6923 28.1118C71.6923 27.9429 71.7167 27.7795 71.7651 27.6216C71.8135 27.4637 71.8857 27.3222 71.9806 27.2011C72.0755 27.0798 72.1961 26.9826 72.3388 26.9091C72.4821 26.8356 72.6492 26.8008 72.8408 26.8008C73.049 26.8008 73.2253 26.8338 73.3759 26.8981C73.5247 26.9624 73.6472 27.0542 73.7421 27.1698C73.8363 27.2856 73.9074 27.4251 73.9496 27.5848C73.9925 27.7446 74.0151 27.919 74.0151 28.1063C74.0151 28.1688 73.987 28.1982 73.9294 28.1982H72.1031C72.1031 28.3248 72.1178 28.4442 72.1478 28.5562C72.1772 28.6682 72.2255 28.7637 72.291 28.8445C72.3559 28.9253 72.4392 28.9896 72.5414 29.0355C72.6437 29.0832 72.7661 29.1053 72.9094 29.1053C73.0802 29.1053 73.2216 29.0538 73.3349 28.9528C73.4482 28.85 73.5284 28.7068 73.5761 28.5231H73.9961V28.525ZM73.6153 27.8878C73.5988 27.6546 73.5284 27.4673 73.4016 27.3241C73.2774 27.1809 73.0912 27.1111 72.8482 27.1111C72.7349 27.1111 72.6345 27.1313 72.547 27.1735C72.46 27.2158 72.3872 27.2727 72.3259 27.3443C72.2665 27.4159 72.2182 27.4986 72.1833 27.5922C72.1478 27.6858 72.1257 27.785 72.1159 27.8878H73.6153Z" fill="#29518D"/>
<path d="M76.6399 29.3428H76.2535V27.8077C76.2535 27.5653 76.2088 27.3872 76.1201 27.2752C76.0307 27.1632 75.8801 27.1081 75.6664 27.1081C75.5831 27.1081 75.4992 27.1246 75.4178 27.1595C75.3358 27.1944 75.2617 27.244 75.1968 27.3101C75.1313 27.3762 75.0792 27.4607 75.0388 27.5598C74.9978 27.6608 74.9788 27.7765 74.9788 27.9087V29.3428H74.6188V26.8749H74.9905L74.9807 27.1907C75.0982 27.0456 75.2225 26.9428 75.3541 26.8841C75.4864 26.8253 75.6352 26.7959 75.7986 26.7959C76.0827 26.7959 76.2945 26.873 76.4341 27.0292C76.5731 27.1852 76.6417 27.4092 76.6417 27.7049V29.3428H76.6399Z" fill="#29518D"/>
<path d="M78.5354 29.3708C78.4815 29.3873 78.4276 29.3983 78.37 29.4075C78.3119 29.4149 78.258 29.4204 78.2041 29.4204C78.1135 29.4204 78.0296 29.4112 77.9519 29.3928C77.8735 29.3744 77.8049 29.3432 77.7492 29.2955C77.6917 29.2478 77.6488 29.1835 77.6151 29.1008C77.5839 29.0182 77.5674 28.9117 77.5674 28.7832V27.1801H77.0709V26.8643H77.5674V26.1592H77.9384V26.8643H78.5054V27.1801H77.9384V28.7354C77.9384 28.8878 77.9684 28.9889 78.026 29.0421C78.0835 29.0935 78.16 29.1192 78.2543 29.1192C78.3137 29.1192 78.3658 29.1137 78.4068 29.1045C78.4496 29.0953 78.4925 29.0806 78.5354 29.0604V29.3708Z" fill="#29518D"/>
<path d="M83.6372 29.3192H83.1351L82.7188 28.8675C82.578 29.0328 82.4127 29.1632 82.2192 29.2568C82.0264 29.3505 81.8109 29.3982 81.569 29.3982C81.4723 29.3982 81.3835 29.3945 81.3015 29.389C81.22 29.3817 81.1417 29.3707 81.0713 29.3523C80.9984 29.3339 80.9298 29.3119 80.8631 29.2826C80.7964 29.2532 80.7272 29.2146 80.6568 29.1668C80.5362 29.0823 80.4413 28.9777 80.3727 28.851C80.3041 28.7243 80.2704 28.5682 80.2704 28.3846C80.2704 28.2708 80.2925 28.1624 80.3353 28.0596C80.3782 27.9567 80.4376 27.8558 80.5135 27.7584C80.59 27.6611 80.6776 27.5675 80.7792 27.4775C80.8815 27.3875 80.9929 27.2975 81.1141 27.2094C81.1215 27.2021 81.1288 27.1966 81.1362 27.1929C81.1435 27.1874 81.1509 27.1819 81.1582 27.1764C81.0247 27.0441 80.917 26.9119 80.8349 26.7834C80.7535 26.653 80.7125 26.5025 80.7125 26.3317C80.7125 26.2289 80.729 26.1315 80.7627 26.0433C80.7964 25.9552 80.8466 25.8781 80.9151 25.812C80.9837 25.7478 81.0676 25.6963 81.1662 25.6596C81.2641 25.6229 81.3798 25.6045 81.5096 25.6045C81.7937 25.6045 82.0055 25.6669 82.1451 25.79C82.2841 25.913 82.3533 26.0672 82.3533 26.2509C82.3533 26.361 82.3343 26.4621 82.2958 26.5538C82.2566 26.6457 82.2064 26.732 82.1433 26.8109C82.0802 26.8899 82.0074 26.9652 81.926 27.0349C81.8439 27.1047 81.7606 27.1727 81.6768 27.2369L82.6649 28.2873C82.7231 28.1514 82.769 28.0045 82.8064 27.8484C82.8437 27.6905 82.8621 27.5234 82.8621 27.3453H83.1982C83.2062 27.5785 83.1872 27.7988 83.1425 28.0045C83.1002 28.2101 83.0292 28.4011 82.9325 28.5756L83.6372 29.3192ZM81.3945 27.4279C81.2849 27.5087 81.1864 27.5858 81.0988 27.6556C81.0119 27.7272 80.939 27.7988 80.8778 27.8723C80.8184 27.9457 80.77 28.0229 80.737 28.1055C80.7033 28.1881 80.6868 28.2799 80.6868 28.3809C80.6868 28.4948 80.7107 28.594 80.7609 28.6766C80.8111 28.761 80.876 28.8308 80.9543 28.8877C81.0321 28.9447 81.1215 28.9869 81.22 29.0163C81.318 29.0457 81.4184 29.0604 81.5188 29.0604C81.7196 29.0604 81.8996 29.02 82.0613 28.9391C82.2211 28.8583 82.3588 28.7445 82.4721 28.5994L81.3945 27.4279ZM81.4411 26.9964C81.5207 26.9413 81.5935 26.8881 81.6584 26.8366C81.7233 26.7852 81.7809 26.7302 81.8292 26.6732C81.8776 26.6163 81.9149 26.5557 81.9388 26.4915C81.9627 26.4272 81.9762 26.3519 81.9762 26.2674C81.9762 26.1646 81.9407 26.0764 81.8702 26.003C81.7992 25.9295 81.6786 25.8928 81.5096 25.8928C81.3835 25.8928 81.2776 25.9314 81.1955 26.0067C81.1141 26.0819 81.0731 26.1811 81.0731 26.3004C81.0731 26.3684 81.0804 26.429 81.0951 26.4823C81.1104 26.5355 81.1325 26.5869 81.1607 26.6383C81.1882 26.6879 81.2237 26.7393 81.266 26.7907C81.307 26.8421 81.3572 26.9009 81.4147 26.9652L81.4411 26.9964Z" fill="#29518D"/>
<path d="M85.4077 29.3427C85.3496 29.3427 85.322 29.3115 85.322 29.2509V25.8116C85.322 25.751 85.3496 25.7197 85.4077 25.7197H86.6169C86.751 25.7197 86.8808 25.7399 87.0051 25.7803C87.13 25.8207 87.2396 25.8795 87.3339 25.9584C87.4269 26.0356 87.5028 26.1311 87.5592 26.2449C87.6167 26.3588 87.6443 26.4873 87.6443 26.6342C87.6443 26.7315 87.6277 26.8234 87.5941 26.9115C87.561 26.9996 87.5163 27.0786 87.4588 27.1502C87.4012 27.2218 87.3339 27.2824 87.2524 27.3338C87.1722 27.3852 87.0853 27.4238 86.9922 27.4495C87.2359 27.4954 87.4306 27.5945 87.5739 27.7507C87.7165 27.9067 87.7894 28.1124 87.7894 28.3676C87.7894 28.487 87.7686 28.6063 87.73 28.722C87.689 28.8395 87.6259 28.9424 87.5383 29.036C87.4514 29.1278 87.3375 29.2031 87.2004 29.26C87.0608 29.317 86.8937 29.3445 86.6965 29.3445H85.4077V29.3427ZM86.4461 27.2971C86.5465 27.2971 86.6426 27.2861 86.7375 27.2659C86.8306 27.2457 86.9145 27.209 86.9886 27.1594C87.0626 27.1098 87.122 27.0437 87.1667 26.9629C87.2114 26.8821 87.2334 26.7811 87.2334 26.6617C87.2334 26.5351 87.2096 26.4322 87.163 26.3533C87.1165 26.2743 87.0553 26.2118 86.9794 26.1678C86.9028 26.1237 86.8177 26.0944 86.721 26.0778C86.6243 26.0613 86.5257 26.0521 86.4253 26.0484H85.7083V27.2971H86.4461ZM86.4516 29.0066C86.6022 29.0103 86.7357 29.0011 86.8508 28.9827C86.9665 28.9625 87.0626 28.9277 87.1428 28.8744C87.2206 28.8212 87.28 28.7495 87.321 28.6578C87.362 28.5678 87.3804 28.454 87.3804 28.318C87.3804 28.1693 87.3547 28.0499 87.3008 27.9582C87.2469 27.8682 87.1704 27.7984 87.0718 27.7488C86.9739 27.7011 86.8563 27.668 86.721 27.6515C86.5851 27.635 86.4369 27.6276 86.2771 27.6276H85.7102V29.0066H86.4516Z" fill="#29518D"/>
<path d="M90.5353 29.3419H90.1692L90.1784 29.026C90.0577 29.1711 89.9335 29.2739 89.8031 29.3327C89.6733 29.3915 89.5263 29.4208 89.361 29.4208C89.0769 29.4208 88.8651 29.3437 88.7237 29.1876C88.5829 29.0315 88.5137 28.8075 88.5137 28.5118V26.8739H88.9V28.409C88.9 28.6514 88.9447 28.8295 89.0341 28.9416C89.1235 29.0536 89.2735 29.1087 89.4871 29.1087C89.571 29.1087 89.6549 29.0921 89.7382 29.0572C89.822 29.0242 89.8961 28.9727 89.961 28.9067C90.0259 28.8406 90.078 28.7561 90.119 28.6569C90.16 28.5559 90.1784 28.4403 90.1784 28.3062V26.8721H90.5353V29.3419Z" fill="#29518D"/>
<path d="M92.6421 27.5206C92.6348 27.4398 92.6164 27.3718 92.5827 27.3186C92.5491 27.2654 92.5068 27.2231 92.4548 27.1919C92.4027 27.1607 92.3452 27.1386 92.2778 27.1258C92.2129 27.1129 92.1444 27.1056 92.0697 27.1056C92.0029 27.1056 91.938 27.1129 91.8768 27.1258C91.8156 27.1386 91.7599 27.1607 91.7115 27.1882C91.6631 27.2176 91.624 27.2562 91.5964 27.302C91.5682 27.3498 91.5535 27.4086 91.5535 27.4802C91.5535 27.5683 91.5774 27.6326 91.6276 27.6767C91.6778 27.7207 91.7482 27.7575 91.8413 27.7868C91.9344 27.8162 92.0476 27.8456 92.1836 27.875C92.3189 27.9044 92.4713 27.9503 92.6421 28.0108C92.8221 28.0659 92.9507 28.1431 93.0229 28.2422C93.0976 28.3414 93.1325 28.4608 93.1325 28.6003C93.1325 28.7435 93.1031 28.8666 93.0413 28.9694C92.9819 29.074 92.9005 29.1585 92.8001 29.2246C92.6997 29.2907 92.5827 29.3403 92.4505 29.3734C92.3189 29.4064 92.1811 29.4211 92.0366 29.4211C91.927 29.4211 91.8138 29.4082 91.7005 29.3826C91.5866 29.3568 91.4825 29.3128 91.3901 29.2521C91.297 29.1897 91.2193 29.1089 91.1556 29.0098C91.0944 28.9088 91.0595 28.7857 91.0533 28.6407H91.4642C91.4715 28.738 91.4923 28.817 91.5291 28.8757C91.5664 28.9363 91.6129 28.9822 91.6723 29.0171C91.7299 29.0502 91.7966 29.074 91.8731 29.0869C91.9491 29.0998 92.0256 29.1071 92.107 29.1071C92.1836 29.1071 92.2595 29.0998 92.3317 29.0832C92.4064 29.0667 92.4713 29.041 92.527 29.0061C92.5846 28.9712 92.6293 28.9235 92.6642 28.8647C92.6997 28.8059 92.7162 28.7343 92.7162 28.6517C92.7162 28.5636 92.696 28.4938 92.6531 28.4424C92.6103 28.391 92.5546 28.3487 92.486 28.3193C92.4156 28.2881 92.3354 28.2642 92.2429 28.244C92.1499 28.2239 92.055 28.2037 91.9546 28.1816C91.8578 28.1596 91.7617 28.1339 91.6631 28.1063C91.5664 28.0788 91.4789 28.0402 91.4029 27.9925C91.327 27.9448 91.2633 27.8823 91.2174 27.8052C91.1709 27.7299 91.1464 27.6307 91.1464 27.5114C91.1464 27.3792 91.1746 27.2672 91.2321 27.1754C91.2897 27.0854 91.3619 27.0119 91.4531 26.9568C91.5444 26.9017 91.6442 26.8613 91.7562 26.8375C91.8676 26.8136 91.9791 26.8008 92.0905 26.8008C92.2148 26.8008 92.3299 26.8136 92.4395 26.8375C92.5472 26.8613 92.6458 26.9017 92.7315 26.9568C92.8166 27.0119 92.8876 27.0854 92.9415 27.1772C92.9972 27.269 93.0321 27.3847 93.0493 27.5243H92.6421V27.5206Z" fill="#29518D"/>
<path d="M94.1268 26.1378H93.7013V25.7246H94.1268V26.1378ZM94.106 29.3439H93.7197V26.8227H94.106V29.3439Z" fill="#29518D"/>
<path d="M96.8408 29.3428H96.4545V27.8077C96.4545 27.5653 96.4098 27.3872 96.321 27.2752C96.2317 27.1632 96.081 27.1081 95.8674 27.1081C95.7841 27.1081 95.7002 27.1246 95.6182 27.1595C95.5368 27.1944 95.4627 27.244 95.3972 27.3101C95.3323 27.3762 95.2802 27.4607 95.2392 27.5598C95.1988 27.6608 95.1798 27.7765 95.1798 27.9087V29.3428H94.8198V26.8749H95.1915L95.1817 27.1907C95.2992 27.0456 95.4235 26.9428 95.5551 26.8841C95.6874 26.8253 95.8362 26.7959 95.9996 26.7959C96.2837 26.7959 96.4955 26.873 96.6345 27.0292C96.7741 27.1852 96.8427 27.4092 96.8427 27.7049V29.3428H96.8408Z" fill="#29518D"/>
<path d="M99.6945 28.525C99.6149 28.839 99.4772 29.0685 99.28 29.2099C99.0853 29.3532 98.8288 29.4229 98.5147 29.4229C98.3237 29.4229 98.1584 29.388 98.0151 29.3164C97.8719 29.2448 97.7549 29.1494 97.6637 29.0281C97.5712 28.907 97.5039 28.7674 97.458 28.6076C97.4133 28.4497 97.3906 28.2844 97.3906 28.1118C97.3906 27.9429 97.4151 27.7795 97.4635 27.6216C97.5119 27.4637 97.5841 27.3222 97.679 27.2011C97.7733 27.0798 97.8945 26.9826 98.0372 26.9091C98.1804 26.8356 98.3476 26.8008 98.5392 26.8008C98.7474 26.8008 98.9237 26.8338 99.0743 26.8981C99.2225 26.9624 99.3455 27.0542 99.4398 27.1698C99.5347 27.2856 99.6057 27.4251 99.648 27.5848C99.6908 27.7446 99.7135 27.919 99.7135 28.1063C99.7135 28.1688 99.6853 28.1982 99.6278 28.1982H97.8014C97.8014 28.3248 97.8161 28.4442 97.8461 28.5562C97.8755 28.6682 97.9239 28.7637 97.9888 28.8445C98.0543 28.9253 98.1376 28.9896 98.2398 29.0355C98.3421 29.0832 98.4645 29.1053 98.6078 29.1053C98.7786 29.1053 98.92 29.0538 99.0333 28.9528C99.1465 28.85 99.2261 28.7068 99.2745 28.5231H99.6945V28.525ZM99.3137 27.8878C99.2972 27.6546 99.2261 27.4673 99.1 27.3241C98.9739 27.1809 98.7896 27.1111 98.5465 27.1111C98.4333 27.1111 98.3329 27.1313 98.2453 27.1735C98.1584 27.2158 98.0855 27.2727 98.0243 27.3443C97.9649 27.4159 97.9165 27.4986 97.881 27.5922C97.8461 27.6858 97.8235 27.785 97.8143 27.8878H99.3137Z" fill="#29518D"/>
<path d="M101.701 27.5206C101.693 27.4398 101.675 27.3718 101.641 27.3186C101.608 27.2654 101.566 27.2231 101.513 27.1919C101.461 27.1607 101.404 27.1386 101.337 27.1258C101.272 27.1129 101.203 27.1056 101.129 27.1056C101.062 27.1056 100.997 27.1129 100.936 27.1258C100.874 27.1386 100.819 27.1607 100.77 27.1882C100.722 27.2176 100.683 27.2562 100.655 27.302C100.627 27.3498 100.612 27.4086 100.612 27.4802C100.612 27.5683 100.637 27.6326 100.687 27.6767C100.737 27.7207 100.808 27.7575 100.901 27.7868C100.993 27.8162 101.106 27.8456 101.242 27.875C101.378 27.9044 101.53 27.9503 101.701 28.0108C101.881 28.0659 102.009 28.1431 102.082 28.2422C102.156 28.3414 102.192 28.4608 102.192 28.6003C102.192 28.7435 102.162 28.8666 102.101 28.9694C102.041 29.074 101.959 29.1585 101.859 29.2246C101.758 29.2907 101.641 29.3403 101.51 29.3734C101.378 29.4064 101.24 29.4211 101.095 29.4211C100.986 29.4211 100.872 29.4082 100.759 29.3826C100.646 29.3568 100.542 29.3128 100.449 29.2521C100.356 29.1897 100.278 29.1089 100.215 29.0098C100.154 28.9088 100.118 28.7857 100.113 28.6407H100.523C100.531 28.738 100.551 28.817 100.588 28.8757C100.625 28.9363 100.672 28.9822 100.731 29.0171C100.789 29.0502 100.856 29.074 100.932 29.0869C101.008 29.0998 101.084 29.1071 101.166 29.1071C101.242 29.1071 101.318 29.0998 101.391 29.0832C101.465 29.0667 101.53 29.041 101.586 29.0061C101.643 28.9712 101.688 28.9235 101.723 28.8647C101.758 28.8059 101.776 28.7343 101.776 28.6517C101.776 28.5636 101.755 28.4938 101.712 28.4424C101.67 28.391 101.614 28.3487 101.545 28.3193C101.474 28.2881 101.395 28.2642 101.302 28.244C101.209 28.2239 101.114 28.2037 101.014 28.1816C100.917 28.1596 100.82 28.1339 100.722 28.1063C100.625 28.0788 100.538 28.0402 100.462 27.9925C100.386 27.9448 100.323 27.8823 100.276 27.8052C100.23 27.7299 100.206 27.6307 100.206 27.5114C100.206 27.3792 100.233 27.2672 100.291 27.1754C100.348 27.0854 100.421 27.0119 100.512 26.9568C100.603 26.9017 100.703 26.8613 100.815 26.8375C100.926 26.8136 101.038 26.8008 101.149 26.8008C101.273 26.8008 101.389 26.8136 101.499 26.8375C101.607 26.8613 101.705 26.9017 101.79 26.9568C101.876 27.0119 101.946 27.0854 102 27.1772C102.056 27.269 102.091 27.3847 102.108 27.5243H101.701V27.5206Z" fill="#29518D"/>
<path d="M104.139 27.5206C104.131 27.4398 104.112 27.3718 104.079 27.3186C104.046 27.2654 104.003 27.2231 103.951 27.1919C103.899 27.1607 103.841 27.1386 103.775 27.1258C103.71 27.1129 103.641 27.1056 103.566 27.1056C103.5 27.1056 103.435 27.1129 103.374 27.1258C103.312 27.1386 103.256 27.1607 103.208 27.1882C103.16 27.2176 103.121 27.2562 103.092 27.302C103.065 27.3498 103.05 27.4086 103.05 27.4802C103.05 27.5683 103.074 27.6326 103.124 27.6767C103.175 27.7207 103.245 27.7575 103.338 27.7868C103.431 27.8162 103.544 27.8456 103.68 27.875C103.816 27.9044 103.968 27.9503 104.139 28.0108C104.319 28.0659 104.447 28.1431 104.52 28.2422C104.594 28.3414 104.629 28.4608 104.629 28.6003C104.629 28.7435 104.599 28.8666 104.538 28.9694C104.479 29.074 104.397 29.1585 104.297 29.2246C104.196 29.2907 104.079 29.3403 103.947 29.3734C103.816 29.4064 103.678 29.4211 103.533 29.4211C103.424 29.4211 103.31 29.4082 103.197 29.3826C103.083 29.3568 102.979 29.3128 102.887 29.2521C102.794 29.1897 102.715 29.1089 102.652 29.0098C102.591 28.9088 102.556 28.7857 102.55 28.6407H102.961C102.968 28.738 102.988 28.817 103.026 28.8757C103.063 28.9363 103.11 28.9822 103.169 29.0171C103.227 29.0502 103.293 29.074 103.37 29.0869C103.446 29.0998 103.522 29.1071 103.604 29.1071C103.68 29.1071 103.756 29.0998 103.828 29.0832C103.902 29.0667 103.968 29.041 104.024 29.0061C104.081 28.9712 104.126 28.9235 104.161 28.8647C104.196 28.8059 104.213 28.7343 104.213 28.6517C104.213 28.5636 104.193 28.4938 104.15 28.4424C104.107 28.391 104.051 28.3487 103.983 28.3193C103.912 28.2881 103.832 28.2642 103.739 28.244C103.647 28.2239 103.552 28.2037 103.451 28.1816C103.355 28.1596 103.258 28.1339 103.16 28.1063C103.063 28.0788 102.976 28.0402 102.9 27.9925C102.823 27.9448 102.76 27.8823 102.714 27.8052C102.668 27.7299 102.643 27.6307 102.643 27.5114C102.643 27.3792 102.671 27.2672 102.729 27.1754C102.786 27.0854 102.859 27.0119 102.95 26.9568C103.04 26.9017 103.141 26.8613 103.252 26.8375C103.364 26.8136 103.476 26.8008 103.587 26.8008C103.711 26.8008 103.827 26.8136 103.936 26.8375C104.044 26.8613 104.142 26.9017 104.228 26.9568C104.313 27.0119 104.384 27.0854 104.438 27.1772C104.493 27.269 104.529 27.3847 104.545 27.5243H104.139V27.5206Z" fill="#29518D"/>
<path d="M109.471 29.3433H109.06L108.7 28.3756H107.024L106.664 29.3433H106.253L107.623 25.7626C107.632 25.7295 107.661 25.7148 107.708 25.7148H108.014C108.065 25.7148 108.094 25.7314 108.106 25.7626L109.471 29.3433ZM108.573 28.0414L108.027 26.5596L107.862 26.0583L107.697 26.5596L107.15 28.0414H108.573Z" fill="#29518D"/>
<path d="M111.929 29.3073C111.929 29.6304 111.836 29.8765 111.649 30.0454C111.461 30.2144 111.189 30.2988 110.836 30.2988C110.539 30.2988 110.294 30.2437 110.101 30.1335C109.907 30.0234 109.798 29.8435 109.768 29.5937H110.199C110.207 29.6708 110.231 29.7351 110.272 29.7865C110.315 29.8361 110.365 29.8783 110.428 29.9095C110.489 29.9426 110.558 29.9646 110.634 29.9775C110.71 29.9903 110.784 29.9977 110.863 29.9977C111.093 29.9977 111.27 29.9371 111.392 29.8141C111.515 29.691 111.576 29.5019 111.576 29.2448L111.585 29.0061C111.494 29.1494 111.373 29.254 111.221 29.3219C111.069 29.3898 110.915 29.4247 110.757 29.4247C110.559 29.4247 110.392 29.3898 110.257 29.3183C110.121 29.2466 110.012 29.1512 109.926 29.0318C109.841 28.9125 109.779 28.7729 109.74 28.6168C109.701 28.4589 109.683 28.2955 109.683 28.1229C109.683 27.9484 109.703 27.7813 109.742 27.6216C109.783 27.4637 109.846 27.3222 109.936 27.2011C110.024 27.0798 110.136 26.9826 110.272 26.9091C110.407 26.8356 110.571 26.8008 110.76 26.8008C110.864 26.8008 110.956 26.81 111.037 26.8283C111.117 26.8466 111.189 26.8724 111.254 26.9054C111.319 26.9403 111.379 26.9789 111.431 27.0248C111.483 27.0707 111.531 27.1221 111.579 27.1809L111.565 26.8797H111.931V29.3073H111.929ZM111.167 29.0355C111.317 28.9583 111.425 28.8408 111.489 28.6866C111.552 28.5305 111.583 28.3561 111.583 28.1614C111.583 28.0182 111.57 27.8841 111.543 27.7575C111.516 27.6307 111.47 27.5206 111.407 27.4251C111.344 27.3296 111.26 27.2543 111.158 27.1992C111.056 27.1441 110.929 27.1166 110.779 27.1166C110.642 27.1166 110.53 27.1496 110.443 27.2139C110.356 27.2782 110.285 27.3608 110.233 27.46C110.179 27.5591 110.142 27.6693 110.123 27.7905C110.103 27.9117 110.094 28.031 110.094 28.1467C110.094 28.2734 110.106 28.3946 110.13 28.5085C110.157 28.6242 110.198 28.727 110.257 28.817C110.315 28.907 110.39 28.9804 110.482 29.0336C110.573 29.0869 110.684 29.1145 110.814 29.1145C110.956 29.1126 111.073 29.0869 111.167 29.0355Z" fill="#29518D"/>
<path d="M114.734 28.525C114.654 28.839 114.517 29.0685 114.32 29.2099C114.125 29.3532 113.869 29.4229 113.555 29.4229C113.363 29.4229 113.198 29.388 113.055 29.3164C112.912 29.2448 112.795 29.1494 112.703 29.0281C112.61 28.907 112.544 28.7674 112.497 28.6076C112.452 28.4497 112.43 28.2844 112.43 28.1118C112.43 27.9429 112.454 27.7795 112.503 27.6216C112.551 27.4637 112.624 27.3222 112.718 27.2011C112.813 27.0798 112.934 26.9826 113.077 26.9091C113.22 26.8356 113.387 26.8008 113.578 26.8008C113.787 26.8008 113.963 26.8338 114.113 26.8981C114.262 26.9624 114.385 27.0542 114.48 27.1698C114.575 27.2856 114.645 27.4251 114.688 27.5848C114.731 27.7446 114.753 27.919 114.753 28.1063C114.753 28.1688 114.725 28.1982 114.668 28.1982H112.841C112.841 28.3248 112.856 28.4442 112.885 28.5562C112.915 28.6682 112.964 28.7637 113.029 28.8445C113.093 28.9253 113.177 28.9896 113.28 29.0355C113.382 29.0832 113.504 29.1053 113.648 29.1053C113.818 29.1053 113.959 29.0538 114.073 28.9528C114.186 28.85 114.266 28.7068 114.314 28.5231H114.734V28.525ZM114.352 27.8878C114.335 27.6546 114.264 27.4673 114.138 27.3241C114.013 27.1809 113.828 27.1111 113.584 27.1111C113.471 27.1111 113.371 27.1313 113.283 27.1735C113.196 27.2158 113.123 27.2727 113.062 27.3443C113.003 27.4159 112.955 27.4986 112.919 27.5922C112.883 27.6858 112.861 27.785 112.852 27.8878H114.352Z" fill="#29518D"/>
<path d="M117.376 29.3428H116.99V27.8077C116.99 27.5653 116.945 27.3872 116.856 27.2752C116.767 27.1632 116.616 27.1081 116.403 27.1081C116.319 27.1081 116.236 27.1246 116.153 27.1595C116.072 27.1944 115.997 27.244 115.932 27.3101C115.868 27.3762 115.816 27.4607 115.774 27.5598C115.733 27.6608 115.715 27.7765 115.715 27.9087V29.3428H115.354V26.8749H115.726L115.717 27.1907C115.834 27.0456 115.959 26.9428 116.09 26.8841C116.223 26.8253 116.371 26.7959 116.534 26.7959C116.819 26.7959 117.031 26.873 117.17 27.0292C117.309 27.1852 117.378 27.4092 117.378 27.7049V29.3428H117.376Z" fill="#29518D"/>
<path d="M120.07 28.525C120.027 28.8298 119.914 29.0557 119.732 29.2026C119.55 29.3495 119.316 29.4229 119.032 29.4229C118.84 29.4229 118.675 29.388 118.531 29.3164C118.391 29.2448 118.272 29.1494 118.179 29.0281C118.086 28.907 118.015 28.7674 117.969 28.6076C117.922 28.4497 117.898 28.2844 117.898 28.1118C117.898 27.9429 117.922 27.7795 117.971 27.6216C118.019 27.4637 118.091 27.3222 118.188 27.2011C118.285 27.0798 118.405 26.9826 118.552 26.9091C118.697 26.8356 118.866 26.8008 119.056 26.8008C119.19 26.8008 119.316 26.821 119.436 26.8613C119.558 26.9017 119.661 26.9587 119.752 27.034C119.844 27.1092 119.916 27.2011 119.97 27.3112C120.024 27.4214 120.055 27.5462 120.063 27.6858H119.652C119.643 27.482 119.582 27.3351 119.472 27.247C119.362 27.157 119.206 27.1129 119.005 27.1129C118.898 27.1129 118.803 27.1386 118.718 27.1882C118.632 27.2378 118.56 27.3075 118.5 27.3975C118.441 27.4875 118.393 27.5922 118.359 27.7134C118.326 27.8346 118.309 27.9668 118.309 28.11C118.309 28.2532 118.326 28.3855 118.359 28.5066C118.393 28.6278 118.439 28.7343 118.5 28.8243C118.56 28.9143 118.632 28.9859 118.718 29.0355C118.803 29.0851 118.899 29.1108 119.005 29.1108C119.19 29.1108 119.338 29.0649 119.45 28.973C119.561 28.8813 119.63 28.7325 119.652 28.5287H120.07V28.525Z" fill="#29518D"/>
<path d="M121.239 30.2967H120.837L121.23 29.3253L120.202 26.8721H120.628L121.44 28.9324L122.242 26.8721H122.658L121.239 30.2967Z" fill="#29518D"/>
<path d="M31.4263 12.5913C31.4263 12.9292 31.4003 13.2432 31.3761 13.5425H33.0947V12.1543H34.7761V18.605H33.0947V17.3289H30.7482V15.8782H33.0947V14.9932H31.0492C30.7742 15.7552 30.3469 16.4052 29.7821 16.9542C28.803 17.9054 27.6102 18.5536 26.2168 18.9172L25.364 17.731C26.6683 17.3178 27.6734 16.7927 28.3756 16.1426C29.0538 15.5164 29.4551 14.8297 29.5815 14.0658H26.1926V12.5913H31.4263ZM34.5643 21.0931C34.5643 21.4806 34.477 21.8442 34.3135 22.1802C34.137 22.5052 33.9122 22.8064 33.6354 23.069C33.3604 23.3187 33.0334 23.5188 32.6563 23.6804C32.2679 23.831 31.8667 23.9044 31.4393 23.9044C31.0139 23.9044 30.6125 23.831 30.2354 23.6804C29.8453 23.5188 29.5071 23.3169 29.2322 23.069C28.9553 22.8064 28.7287 22.5071 28.567 22.1802C28.3905 21.8442 28.3162 21.4806 28.3162 21.0931C28.3162 20.7057 28.3905 20.344 28.567 20.0061C28.7287 19.6811 28.9553 19.3799 29.2322 19.1302C29.509 18.8805 29.8471 18.6675 30.2354 18.5041C30.6125 18.3535 31.0139 18.2801 31.4393 18.2801C31.8667 18.2801 32.2698 18.3553 32.6563 18.5041C33.0334 18.6675 33.3604 18.8805 33.6354 19.1302C33.9122 19.3799 34.1388 19.6811 34.3135 20.0061C34.4751 20.3422 34.5643 20.7057 34.5643 21.0931ZM32.8681 21.0931C32.8681 20.7186 32.7194 20.3935 32.4426 20.131C32.1528 19.8813 31.8146 19.7564 31.4375 19.7564C31.0492 19.7564 30.7111 19.8813 30.4361 20.131C30.1463 20.3935 30.0087 20.7186 30.0087 21.0931C30.0087 21.4678 30.1463 21.7927 30.4361 22.0553C30.7111 22.3051 31.0492 22.43 31.4375 22.43C31.8146 22.43 32.1528 22.3051 32.4426 22.0553C32.7194 21.7927 32.8681 21.4678 32.8681 21.0931Z" fill="#29518D"/>
<path d="M36.5022 17.9054V12.4665H38.1836V16.4419H40.2031C41.0577 16.4419 41.9718 16.3795 42.9528 16.2546V12.1543H44.6342V14.5672H46.141V16.0802H44.6342V18.5554H42.9528V17.7181C41.9978 17.843 41.0206 17.9054 39.9895 17.9054H36.5022ZM44.6361 23.3426H37.394V18.8933H44.6361V23.3426ZM42.9546 20.3422H39.0624V21.8919H42.9546V20.3422Z" fill="#29518D"/>
<path d="M75.2059 12.5913C75.2059 12.9292 75.1815 13.2432 75.1557 13.5425H76.8743V12.1543H78.5555V18.605H76.8743V17.3289H74.5276V15.8782H76.8743V14.9932H74.8288C74.5515 15.7552 74.1266 16.4052 73.5615 16.9542C72.5825 17.9054 71.3898 18.5536 69.9963 18.9172L69.1435 17.731C70.4494 17.3178 71.4529 16.7927 72.1551 16.1426C72.8335 15.5164 73.2345 14.8297 73.3606 14.0658H69.9719V12.5913H75.2059ZM78.3437 21.0931C78.3437 21.4806 78.2561 21.8442 78.0927 22.1802C77.9182 22.5052 77.6917 22.8064 77.4149 23.069C77.14 23.3187 76.8131 23.5188 76.4378 23.6804C76.049 23.831 75.6461 23.9044 75.2206 23.9044C74.7933 23.9044 74.3917 23.831 74.0145 23.6804C73.6245 23.5188 73.2866 23.3169 73.0117 23.069C72.7349 22.8064 72.5078 22.5071 72.3443 22.1802C72.1698 21.8442 72.0939 21.4806 72.0939 21.0931C72.0939 20.7057 72.1698 20.344 72.3443 20.0061C72.5078 19.6811 72.7349 19.3799 73.0117 19.1302C73.2866 18.8805 73.6245 18.6675 74.0145 18.5041C74.3898 18.3535 74.7915 18.2801 75.2206 18.2801C75.6461 18.2801 76.049 18.3553 76.4378 18.5041C76.8149 18.6675 77.1419 18.8805 77.4149 19.1302C77.6917 19.3799 77.9182 19.6811 78.0927 20.0061C78.2543 20.3422 78.3437 20.7057 78.3437 21.0931ZM76.649 21.0931C76.649 20.7186 76.499 20.3935 76.2241 20.131C75.9357 19.8813 75.5959 19.7564 75.2206 19.7564C74.8306 19.7564 74.4921 19.8813 74.2153 20.131C73.9276 20.3935 73.7898 20.7186 73.7898 21.0931C73.7898 21.4678 73.9276 21.7927 74.2153 22.0553C74.4921 22.3051 74.8306 22.43 75.2206 22.43C75.5959 22.43 75.9357 22.3051 76.2241 22.0553C76.499 21.7927 76.649 21.4678 76.649 21.0931Z" fill="#29518D"/>
<path d="M82.1096 15.1547V14.1172H80.2257V12.6409H85.3833V14.1172H83.7523V15.1419C83.7523 16.3171 83.9267 17.2425 84.3039 17.9164C84.6792 18.6161 85.1935 19.2293 85.8719 19.7674L84.8665 20.8177C84.0774 20.1677 83.4363 19.4057 82.9478 18.5297C82.3068 19.6297 81.6302 20.4413 80.9023 20.9793L79.7837 20.0043C80.5117 19.4167 81.0896 18.7042 81.5298 17.8779C81.907 17.1544 82.1096 16.2546 82.1096 15.1547ZM87.618 23.3426H85.987V16.9304H84.5806V15.4302H85.987V12.1543H87.618V23.3426ZM88.2204 12.1543H89.8778V23.3426H88.2204V12.1543Z" fill="#29518D"/>
<path d="M93.6431 14.3412V14.0787H91.4213V12.5895H97.6601V14.0787H95.3507V14.5286C95.3507 15.2411 95.5644 15.8543 96.0027 16.3538C96.5286 16.9781 97.2327 17.5162 98.1119 17.9532L97.2088 19.1284C96.0903 18.6032 95.2135 17.9146 94.5591 17.0902C94.485 17.1893 94.3956 17.2903 94.3215 17.3766C93.5433 18.2764 92.7144 18.9007 91.8615 19.2514L90.8195 18.0762C91.687 17.6759 92.4137 17.1251 93.0156 16.4126C93.4295 15.9186 93.6431 15.23 93.6431 14.3412ZM100.772 23.3426H93.3297V19.7674H95.0348V21.8681H100.772V23.3426ZM100.445 20.4174H98.7658V12.1543H100.445V20.4174Z" fill="#29518D"/>
<path d="M112.118 18.4048V19.7912H109.469C109.595 19.9528 109.696 20.129 109.794 20.3035C109.945 20.6267 110.032 20.9535 110.032 21.3024C110.032 21.6532 109.945 21.9781 109.794 22.3032C109.631 22.6153 109.419 22.8907 109.155 23.1405C108.891 23.3663 108.577 23.5518 108.226 23.7024C107.862 23.8272 107.472 23.9025 107.07 23.9025C106.656 23.9025 106.268 23.8291 105.917 23.7024C105.553 23.5518 105.238 23.3645 104.989 23.1405C104.713 22.8907 104.499 22.6153 104.349 22.3032C104.185 21.9781 104.111 21.6532 104.111 21.3024C104.111 20.9517 104.185 20.6267 104.349 20.3035C104.436 20.129 104.549 19.9528 104.676 19.7912H102.026V18.4048H112.118ZM111.165 14.141H109.333C109.482 14.3173 109.608 14.4917 109.721 14.6662C109.872 14.9545 109.947 15.2666 109.947 15.6027C109.947 15.9534 109.872 16.2656 109.721 16.541C109.558 16.8274 109.344 17.0919 109.081 17.3159C108.83 17.5417 108.529 17.7162 108.191 17.8411C107.839 17.9788 107.476 18.0412 107.074 18.0412C106.673 18.0412 106.298 17.9788 105.957 17.8411C105.606 17.7162 105.319 17.5417 105.068 17.3159C104.791 17.09 104.592 16.8274 104.439 16.541C104.276 16.2656 104.202 15.9534 104.202 15.6027C104.202 15.2666 104.276 14.9526 104.439 14.6662C104.54 14.4917 104.664 14.3173 104.817 14.141H102.972V12.7767H106.134V11.877H108.018V12.7767H111.167V14.141H111.165ZM108.365 21.2546C108.365 20.904 108.241 20.6046 107.99 20.3549C107.726 20.1052 107.425 19.9803 107.072 19.9803C106.721 19.9803 106.42 20.1052 106.169 20.3549C105.906 20.6046 105.781 20.9058 105.781 21.2546C105.781 21.6036 105.906 21.9047 106.169 22.1544C106.42 22.4041 106.721 22.5272 107.072 22.5272C107.425 22.5272 107.726 22.4041 107.99 22.1544C108.241 21.9047 108.365 21.6036 108.365 21.2546ZM108.315 15.5788C108.315 15.2666 108.191 15.0041 107.953 14.7782C107.7 14.5652 107.401 14.4532 107.072 14.4532C106.734 14.4532 106.446 14.5652 106.206 14.7782C105.954 15.0041 105.829 15.2666 105.829 15.5788C105.829 15.9038 105.954 16.1664 106.206 16.3665C106.445 16.5924 106.734 16.6916 107.072 16.6916C107.399 16.6916 107.7 16.5906 107.953 16.3665C108.191 16.1664 108.315 15.902 108.315 15.5788Z" fill="#29518D"/>
<path d="M117.127 18.7914V20.1796H115.457V18.7914H112.833V17.3665H117.302C118.531 17.3665 119.698 17.3169 120.804 17.2177V12.1552H122.472V21.1675H120.804V20.4679H118.468V19.1054H120.804V18.6317C119.725 18.7436 118.571 18.7932 117.315 18.7932H117.127V18.7914ZM119.777 14.5533C119.777 14.9169 119.7 15.2419 119.55 15.5155C119.386 15.8167 119.172 16.0793 118.922 16.3162C118.658 16.5549 118.346 16.7403 117.993 16.878C117.629 17.0286 117.252 17.091 116.85 17.091C116.449 17.091 116.059 17.0286 115.708 16.878C115.343 16.7403 115.031 16.553 114.781 16.3162C114.517 16.0793 114.316 15.8167 114.165 15.5155C114.002 15.2419 113.926 14.9169 113.926 14.5533C113.926 14.2045 114.002 13.8794 114.165 13.5783C114.316 13.3029 114.517 13.0403 114.781 12.8034C115.031 12.5647 115.345 12.3774 115.708 12.2286C116.059 12.0909 116.449 12.0156 116.85 12.0156C117.252 12.0156 117.629 12.0909 117.993 12.2286C118.346 12.3774 118.658 12.5647 118.922 12.8034C119.172 13.0403 119.386 13.3029 119.55 13.5783C119.7 13.8794 119.777 14.2045 119.777 14.5533ZM122.699 23.3417H114.842V20.5927H116.561V21.9167H122.699V23.3417ZM118.093 14.5533C118.093 14.2173 117.967 13.9419 117.716 13.7289C117.465 13.5287 117.175 13.4148 116.85 13.4148C116.525 13.4148 116.235 13.5269 115.983 13.7289C115.732 13.9419 115.607 14.2155 115.607 14.5533C115.607 14.9041 115.732 15.1667 115.983 15.3668C116.235 15.5798 116.523 15.679 116.85 15.679C117.175 15.679 117.465 15.578 117.716 15.3668C117.967 15.1667 118.093 14.9041 118.093 14.5533Z" fill="#29518D"/>
<path d="M15.1272 10.9013C15.1439 10.9032 15.1588 10.9032 15.1736 10.9032C15.5712 10.9032 15.8945 10.5855 15.8945 10.1944C15.8945 10.1595 15.8908 10.1265 15.887 10.0916L15.5433 7.75401C15.482 7.35372 15.1365 7.04338 14.7147 7.03419H14.7073C13.2879 7.00664 11.7625 7.17189 10.2093 7.55387C4.34213 8.9935 0.301214 12.9763 1.18371 16.4468C1.37507 17.196 1.78009 17.8608 2.35604 18.4281C2.35604 18.4245 2.35604 18.4245 2.35604 18.4208C2.22413 14.4508 7.15685 11.0703 13.3733 10.8702C13.9623 10.8518 14.5438 10.861 15.1105 10.8995L15.1272 10.9013Z" fill="#EA552A"/>
<path d="M11.913 17.9109C11.8703 17.9182 11.8257 17.9219 11.7811 17.9219C11.4002 17.9219 11.0844 17.6465 11.0324 17.2884L11.0286 17.2682L10.7778 15.5697L10.776 15.5568C10.7704 15.5201 10.7686 15.4834 10.7686 15.4466C10.7686 15.0941 11.0157 14.8003 11.3519 14.7213L11.3686 14.7176C11.4225 14.7048 11.4764 14.6919 11.5302 14.6809C15.8555 13.6912 19.6158 13.9666 19.9298 15.2961C20.1434 16.194 18.7315 17.3435 16.463 18.2983C16.515 18.2102 16.5354 18.1276 16.5187 18.0523C16.3924 17.5032 14.4174 17.4573 11.9316 17.9072L11.913 17.9109Z" fill="#004EA2"/>
<path d="M10.8837 21.0278C10.8038 20.5063 10.3598 20.1042 9.81356 20.0785L9.78944 20.0766C6.37091 19.9004 3.70855 18.5819 3.18648 16.6318C3.07501 17.1919 3.05457 17.763 3.13818 18.3359C3.54877 21.1343 6.14053 23.336 9.84142 23.6904L9.85819 23.6922C9.89162 23.6959 9.92689 23.6978 9.96221 23.6978C10.5902 23.6978 11.0992 23.1983 11.0992 22.5794C11.0992 22.5262 11.0955 22.4748 11.0881 22.4234L10.8837 21.0278Z" fill="#00A162"/>
<path d="M20.7342 17.1543C20.7045 16.9285 20.5094 16.7559 20.2716 16.7559C20.1434 16.7559 20.0264 16.8073 19.9427 16.8899L19.9372 16.8936C18.4639 18.3387 15.9186 19.501 12.9181 19.927L12.814 19.9417C12.5613 19.973 12.3663 20.186 12.3663 20.443C12.3663 20.4706 12.3681 20.4981 12.3737 20.5257L12.6877 22.6374C12.749 23.034 13.0964 23.337 13.5181 23.337C13.5479 23.337 13.5776 23.337 13.6074 23.3333H13.6148C13.7968 23.3131 13.9827 23.2911 14.1666 23.2654C16.4128 22.9459 18.4137 22.1563 19.9557 21.0803L20.0171 21.0343C20.6135 20.6047 20.9999 19.9124 20.9999 19.1283C20.9999 19.0108 20.9906 18.8933 20.9739 18.7794L20.7342 17.1543Z" fill="#F6AB00"/>
<path d="M10.2168 12.7831C10.867 12.6619 11.5025 12.594 12.1137 12.5738L12.1509 12.5719C12.5522 12.5719 12.8792 12.2506 12.8792 11.8558C12.8792 11.8209 12.8754 11.7841 12.8717 11.7493L12.8532 11.6171L12.541 9.52925L12.5317 9.46496C12.4797 9.11788 12.1769 8.85352 11.8109 8.85352L11.731 8.85719C10.9488 8.93427 10.1388 9.09774 9.32504 9.35476C5.27853 10.6328 2.67563 13.7343 3.50796 16.283C3.66402 16.7604 3.93156 17.1864 4.28642 17.5518C4.2827 17.5334 4.27713 17.5132 4.27341 17.4949C3.90184 15.576 6.56419 13.4662 10.2168 12.7831Z" fill="#004EA2"/>
<path d="M17.8192 21.1648C17.7523 20.7241 17.3677 20.3863 16.9014 20.3863C16.7918 20.3863 16.6859 20.4046 16.5893 20.4395L16.5577 20.4505C15.2925 20.8839 13.8879 21.1942 12.3979 21.3429C6.67372 21.9104 1.71687 19.9015 0.87339 16.7891C0.821369 17.7696 0.958853 18.7429 1.30628 19.6793C3.08242 24.4719 9.72251 26.5359 16.3849 24.4866L16.4035 24.4793C17.3157 24.2002 17.979 23.3647 17.979 22.3749C17.979 22.2684 17.9715 22.1656 17.9567 22.0628L17.8192 21.1648Z" fill="#29518D"/>
<path d="M46.9138 18.3438V19.7503H51.2725V23.3769H52.965V19.7503H57.3124V18.3438H46.9138Z" fill="#29518D"/>
<path d="M55.709 16.3217H50.1354V15.7377H55.501V14.333H50.1354V13.7124H55.6347V12.3076H48.5413V17.7393H55.709V16.3217Z" fill="#29518D"/>
<path d="M62.26 14.3158V14.1909H64.4023V12.7861H58.3491V14.1909H60.5172V14.3396C60.5172 16.365 59.7499 17.6632 58.0314 18.5483L57.9329 18.5979L58.9584 19.8723L59.0272 19.8337C60.1549 19.2112 61.0355 18.2655 61.4276 17.2666C61.9144 18.3041 62.9996 19.1965 63.8519 19.6078L63.921 19.6409L64.8798 18.3775L64.7794 18.328C63.0125 17.4723 62.26 16.2732 62.26 14.3158Z" fill="#29518D"/>
<path d="M67.1947 15.291V12.0684H65.5147V23.2383H67.1947V16.7214H68.9947V15.291H67.1947Z" fill="#29518D"/>
<path d="M17.3362 26.1064H16.175L14.0161 29.4227H15.0882L16.6042 27.0301L17.3418 29.4227H18.3915L17.3362 26.1064Z" fill="#29518D"/>
<path d="M4.60035 27.3331C4.65424 27.1495 4.74527 27.0374 4.88276 26.9916C4.95335 26.9677 5.0704 26.9567 5.23204 26.9567H7.45221L7.58599 26.1064H5.09641C4.83073 26.1064 4.6245 26.123 4.47959 26.1542C4.31982 26.1891 4.17304 26.2699 4.04671 26.3929C3.8925 26.5435 3.78474 26.7271 3.72343 26.9401C3.66212 27.1531 3.60452 27.4286 3.5525 27.7591C3.50977 28.0327 3.48376 28.2751 3.47633 28.4807C3.4689 28.6534 3.48562 28.8003 3.52464 28.9178C3.60824 29.1656 3.78845 29.3181 4.05971 29.3731C4.22877 29.408 4.44615 29.4264 4.70254 29.4264H7.10109L7.30913 28.1025L7.42062 27.4157H6.13126L6.01235 28.1355H6.45453L6.3895 28.5469H4.95893C4.82516 28.5469 4.72297 28.534 4.65237 28.5101C4.55205 28.4752 4.49631 28.4 4.48145 28.2769C4.46844 28.1668 4.47959 27.996 4.51489 27.7683C4.53904 27.5846 4.56877 27.4396 4.60035 27.3331Z" fill="#29518D"/>
<path d="M9.44394 26.1211L8.91447 29.4117H7.87592L8.40539 26.1211H9.44394Z" fill="#29518D"/>
<path d="M13.405 27.7003C13.4644 27.6837 13.5313 27.6507 13.6038 27.5993C13.6781 27.5479 13.7468 27.4689 13.81 27.3661C13.875 27.2614 13.9196 27.1255 13.9475 26.9584C13.9772 26.7693 13.968 26.6169 13.9177 26.5012C13.8676 26.3855 13.7914 26.301 13.6893 26.2459C13.5871 26.1909 13.4774 26.1578 13.3585 26.1431C13.2396 26.1284 13.1003 26.1211 12.9424 26.1211H10.1964L10.0775 26.8593H11.0677H11.1848H12.6953C12.7677 26.8593 12.8253 26.885 12.8681 26.9364C12.9108 26.9878 12.9257 27.0521 12.9126 27.1311C12.8977 27.2192 12.8606 27.289 12.7975 27.3422C12.7343 27.3936 12.6655 27.4193 12.5912 27.4193H11.183H10.9767H9.98646L9.84528 28.3025L9.66693 29.4117H12.4147C12.6247 29.4117 12.8012 29.4025 12.948 29.3823C13.0947 29.3621 13.2266 29.3217 13.3474 29.2611C13.4682 29.2005 13.5685 29.1068 13.6502 28.9838C13.732 28.8608 13.7895 28.6937 13.8211 28.488C13.8472 28.3246 13.8434 28.1905 13.81 28.0877C13.7747 27.9849 13.7245 27.9077 13.6595 27.8582C13.5945 27.8086 13.5276 27.7774 13.4589 27.7627C13.3901 27.748 13.3269 27.7407 13.2675 27.7407L13.2694 27.7278C13.3009 27.7241 13.3455 27.7168 13.405 27.7003ZM12.7064 28.5743C12.6488 28.6202 12.5782 28.6423 12.4965 28.6423H10.7965L10.8857 28.0822H12.5856C12.6674 28.0822 12.7287 28.1079 12.7714 28.1575C12.8142 28.2071 12.8291 28.2732 12.816 28.354C12.8012 28.4568 12.764 28.5284 12.7064 28.5743Z" fill="#29518D"/>
<path d="M118.23 3.32363H116.995V2.16699H116.503V3.71102H118.23V3.32363Z" fill="#231815"/>
<path d="M111.406 3.95582H111.898V2.12402H111.406V2.47267H110.869V2.86559H111.406V3.12016H110.869V3.51309H111.406V3.95582Z" fill="#231815"/>
<path d="M121.606 5.00079V4.05999H122.441V3.66706H120.654V2.62664H122.441V2.23926H120.156V4.05999H121.107V5.00079H119.918V5.39371H122.685V5.00079H121.606Z" fill="#231815"/>
<path d="M119.016 2.12402H118.523V3.90048H119.016V3.07036H119.453V2.68297H119.016V2.12402Z" fill="#231815"/>
<path d="M117.554 4.50718H118.523V5.15468H117.554V4.50718ZM117.057 5.5476H119.016V4.11426H117.057V5.5476Z" fill="#231815"/>
<path d="M110.853 5.29727C110.587 5.29727 110.371 5.08144 110.371 4.81027C110.371 4.5391 110.587 4.32326 110.853 4.32326C111.118 4.32326 111.334 4.5391 111.334 4.81027C111.334 5.08144 111.118 5.29727 110.853 5.29727ZM110.853 3.9082C110.305 3.9082 109.857 4.31219 109.857 4.81027C109.857 5.30834 110.305 5.71234 110.853 5.71234C111.401 5.71234 111.849 5.30834 111.849 4.81027C111.849 4.31219 111.401 3.9082 110.853 3.9082Z" fill="#231815"/>
<path d="M114.323 5.29727C114.057 5.29727 113.841 5.08144 113.841 4.81027C113.841 4.5391 114.057 4.32326 114.323 4.32326C114.589 4.32326 114.804 4.5391 114.804 4.81027C114.804 5.08144 114.589 5.29727 114.323 5.29727ZM114.323 3.9082C113.775 3.9082 113.327 4.31219 113.327 4.81027C113.327 5.30834 113.775 5.71234 114.323 5.71234C114.871 5.71234 115.319 5.30834 115.319 4.81027C115.319 4.31219 114.871 3.9082 114.323 3.9082Z" fill="#231815"/>
<path d="M110.632 2.98474C110.632 2.98474 110.764 2.63609 110.753 2.20996H109.115V2.60842H110.155C110.155 2.60842 110.194 3.40534 109.048 3.57136L109.248 3.91448C109.607 3.88127 110.338 3.69865 110.625 2.97921" fill="#231815"/>
<path d="M114.395 3.81845L114.594 3.4864C113.819 3.22629 113.825 2.45151 113.825 2.3685V2.19141H113.216V2.37403C113.216 2.44598 113.244 3.28717 112.452 3.58601L112.663 3.90699C112.663 3.90699 113.216 3.75204 113.531 3.20416C113.808 3.68563 114.389 3.82398 114.389 3.82398" fill="#231815"/>
<path d="M115.385 2.12402H114.893V3.95582H115.385V3.07036H115.822V2.68297H115.385V2.12402Z" fill="#231815"/>
<path d="M104.195 0.297454C102.961 0.275317 101.866 0.889608 101.223 1.83595C101.234 1.85255 101.245 1.86362 101.256 1.87469C101.262 1.88575 101.267 1.89129 101.273 1.89682C101.273 1.89682 101.278 1.89682 101.284 1.89682C101.329 1.90789 101.4 1.91896 101.456 1.96877C101.494 2.00197 101.517 2.04071 101.539 2.06838C101.544 2.07945 101.555 2.10158 101.561 2.10158C101.572 2.11265 101.589 2.12372 101.605 2.13479C101.633 2.15692 101.66 2.17906 101.693 2.20674C101.722 2.2344 101.738 2.25654 101.76 2.28421C101.777 2.30081 101.788 2.31742 101.804 2.33402C101.815 2.34509 101.832 2.36169 101.849 2.37276C101.871 2.3949 101.899 2.41703 101.926 2.45024C101.959 2.48898 101.981 2.52771 101.993 2.56092C101.998 2.57199 102.009 2.58859 102.009 2.59412C102.031 2.6218 102.053 2.64947 102.076 2.67714L102.109 2.72141C102.109 2.72141 102.131 2.74355 102.142 2.75462C102.17 2.77675 102.203 2.80442 102.23 2.84316C102.252 2.87083 102.269 2.8985 102.286 2.92617C102.297 2.94831 102.314 2.96491 102.325 2.98151C102.352 3.02026 102.369 3.05899 102.38 3.08666C102.385 3.10326 102.396 3.11987 102.402 3.13094C102.407 3.14201 102.419 3.15307 102.436 3.16414C102.458 3.18628 102.485 3.21395 102.513 3.25269C102.54 3.29143 102.551 3.33016 102.568 3.36337C102.568 3.37444 102.579 3.39104 102.585 3.39657C102.585 3.39657 102.596 3.40211 102.601 3.40764C102.634 3.42978 102.684 3.46298 102.718 3.51832C102.734 3.55153 102.751 3.5792 102.762 3.60687L102.828 3.65114C102.939 3.72309 102.983 3.68435 102.928 3.56814L102.308 2.16246C102.258 2.04071 102.275 2.02964 102.358 2.13479L103.277 3.3523C103.354 3.45745 103.415 3.43532 103.398 3.3025L103.271 1.77507C103.26 1.64225 103.282 1.63672 103.326 1.764L103.769 3.20288C103.813 3.33016 103.869 3.32463 103.891 3.19735L104.14 1.70866C104.168 1.57584 104.19 1.58138 104.195 1.70866L104.256 3.23055C104.262 3.36337 104.317 3.37444 104.383 3.26376L105.142 1.94663C105.208 1.83041 105.23 1.84148 105.191 1.96877L104.76 3.41871C104.721 3.546 104.771 3.5792 104.87 3.49066L106.01 2.50004C106.11 2.4115 106.127 2.43363 106.054 2.53878L105.396 3.45745C105.429 3.45745 105.462 3.45745 105.49 3.44085C105.546 3.41318 105.573 3.34123 105.628 3.31356C105.684 3.28589 105.756 3.29696 105.811 3.26929C105.867 3.24715 105.905 3.18074 105.961 3.15861C106.016 3.13647 106.077 3.11987 106.132 3.09773C106.193 3.0756 106.254 3.03685 106.315 3.02026C106.375 2.99812 106.442 2.99258 106.503 2.97044C106.564 2.95385 106.636 2.97598 106.697 2.95938C106.763 2.94278 106.808 2.87083 106.874 2.85423C106.934 2.83762 107.007 2.84869 107.062 2.8321C107.128 2.81549 107.189 2.82103 107.25 2.80442C107.316 2.78782 107.372 2.75462 107.433 2.74355C107.444 2.74355 107.455 2.74355 107.466 2.74355C107.045 1.36554 105.75 0.330659 104.195 0.297454Z" fill="#EA5529"/>
<path d="M103.664 7.08878C103.664 7.08878 103.664 7.08327 103.664 7.07776C103.664 7.07776 103.664 7.06668 103.658 7.06111C103.642 7.03344 103.62 6.98917 103.609 6.93939C103.609 6.91723 103.598 6.89513 103.592 6.87297C103.587 6.84529 103.576 6.81762 103.57 6.78444C103.558 6.74568 103.558 6.70693 103.558 6.67374C103.558 6.65715 103.558 6.63499 103.558 6.6239C103.553 6.59072 103.547 6.55754 103.542 6.52986C103.542 6.5077 103.536 6.4856 103.531 6.46901C103.531 6.45235 103.52 6.43576 103.509 6.41364C103.498 6.38596 103.487 6.35829 103.476 6.31956L103.465 6.28635L103.437 6.17013C103.437 6.17013 103.426 6.1314 103.415 6.10926C103.403 6.08158 103.392 6.05392 103.387 6.02624C103.37 5.9709 103.376 5.9211 103.376 5.8879C103.376 5.87683 103.376 5.86576 103.376 5.86022C103.37 5.83808 103.359 5.81595 103.354 5.79381C103.343 5.77167 103.337 5.74401 103.326 5.71633C103.326 5.71633 103.315 5.69973 103.31 5.68866C103.288 5.66099 103.26 5.62225 103.243 5.57245C103.243 5.55584 103.232 5.53924 103.221 5.52264C103.21 5.49497 103.193 5.46729 103.182 5.43409C103.171 5.40642 103.16 5.37875 103.149 5.35108L103.127 5.2902C103.105 5.22933 103.11 5.17399 103.11 5.13525C103.11 5.13525 103.11 5.12418 103.11 5.11865C103.105 5.10758 103.099 5.09097 103.088 5.07437C103.077 5.0467 103.061 5.01903 103.044 4.98583C103.044 4.97476 103.028 4.95816 103.022 4.94709C103.006 4.91942 102.983 4.89175 102.966 4.84747C102.955 4.81427 102.944 4.78659 102.933 4.75893C102.928 4.73679 102.922 4.71466 102.917 4.70359C102.906 4.67591 102.895 4.65378 102.889 4.62611C102.878 4.60397 102.873 4.5763 102.862 4.5597L102.833 4.49329C102.822 4.46562 102.811 4.43795 102.795 4.41027C102.795 4.39921 102.778 4.38261 102.767 4.37154C102.751 4.3494 102.723 4.3162 102.706 4.27746C102.684 4.23872 102.673 4.19444 102.668 4.16677C102.668 4.15571 102.668 4.14464 102.662 4.13357C102.662 4.13357 102.651 4.1225 102.646 4.1225C102.618 4.10036 102.574 4.06716 102.546 4.01182C102.518 3.96201 102.507 3.91221 102.502 3.87346C102.502 3.86239 102.502 3.85132 102.502 3.84579C102.485 3.81259 102.469 3.77938 102.463 3.75171C102.463 3.73511 102.452 3.72404 102.447 3.71297C102.447 3.71297 102.436 3.70744 102.43 3.70191C102.396 3.67977 102.352 3.6521 102.319 3.59676C102.297 3.55802 102.28 3.51928 102.269 3.4916C102.263 3.47501 102.258 3.4584 102.252 3.45287C102.247 3.4418 102.23 3.43073 102.219 3.41413C102.197 3.39199 102.175 3.36432 102.153 3.33665C102.125 3.29791 102.114 3.26471 102.098 3.23703C102.092 3.22044 102.081 3.20383 102.081 3.1983C102.065 3.17063 102.048 3.14849 102.031 3.12635C102.015 3.10422 102.004 3.08208 101.992 3.06548C101.987 3.05441 101.97 3.04334 101.954 3.03227C101.932 3.01014 101.899 2.988 101.877 2.95479L101.843 2.91052C101.843 2.91052 101.804 2.86072 101.782 2.83304C101.749 2.79431 101.733 2.75556 101.716 2.7279C101.716 2.71683 101.705 2.70022 101.699 2.69469C101.688 2.67808 101.666 2.66149 101.649 2.64488C101.627 2.62828 101.605 2.60615 101.583 2.58401C101.566 2.56187 101.55 2.54527 101.533 2.52313C101.517 2.50099 101.495 2.47886 101.478 2.46226C101.467 2.45119 101.45 2.43458 101.428 2.42352C101.406 2.40692 101.378 2.39031 101.356 2.36264C101.323 2.32944 101.301 2.2907 101.278 2.26303C101.278 2.25749 101.273 2.25196 101.267 2.24642C101.267 2.24642 101.262 2.24642 101.256 2.24642C101.212 2.24089 101.151 2.22982 101.096 2.18002C101.085 2.16895 101.074 2.16341 101.068 2.15234C100.814 2.62274 100.67 3.16509 100.659 3.73511C100.626 5.53924 101.954 7.04452 103.697 7.27699C103.697 7.2659 103.691 7.25482 103.686 7.23823C103.675 7.17737 103.686 7.12203 103.697 7.08327" fill="#00A161"/>
<path d="M103.354 4.85319C103.354 4.85319 103.37 4.8864 103.382 4.903C103.398 4.93067 103.415 4.96388 103.432 5.00261C103.454 5.06349 103.448 5.11883 103.448 5.15757C103.448 5.16311 103.448 5.16864 103.448 5.17418L103.465 5.21845C103.476 5.24611 103.487 5.27932 103.498 5.30699C103.498 5.31806 103.509 5.3402 103.52 5.3568C103.531 5.38447 103.547 5.41768 103.565 5.45641C103.565 5.45641 103.576 5.46748 103.581 5.47855C103.603 5.50622 103.631 5.54496 103.647 5.6003C103.653 5.6169 103.658 5.63904 103.669 5.66118C103.68 5.68885 103.691 5.72205 103.703 5.75526C103.719 5.8106 103.719 5.8604 103.714 5.89915C103.714 5.91022 103.714 5.92128 103.714 5.92681C103.714 5.94342 103.725 5.96002 103.73 5.98215C103.742 6.00983 103.753 6.04303 103.764 6.07624L103.797 6.19799L103.808 6.23119C103.808 6.23119 103.819 6.2644 103.824 6.281C103.836 6.30867 103.847 6.34188 103.858 6.38062C103.863 6.41382 103.869 6.44704 103.874 6.48023C103.874 6.50239 103.88 6.52449 103.885 6.54109C103.896 6.58535 103.896 6.62411 103.896 6.65735C103.896 6.67394 103.896 6.69604 103.896 6.70713C103.896 6.72372 103.907 6.74588 103.913 6.76798C103.918 6.79566 103.929 6.8289 103.935 6.86209C103.935 6.86209 103.94 6.87868 103.946 6.88976C103.963 6.92294 103.985 6.9617 103.996 7.01704C104.007 7.0779 103.996 7.13882 103.985 7.172C103.985 7.17751 103.985 7.18308 103.985 7.1886C103.985 7.19968 103.991 7.21627 103.996 7.22735C104.002 7.24945 104.013 7.27713 104.018 7.31037C104.029 7.31037 104.035 7.31037 104.04 7.31037C105.075 7.33247 106.016 6.90084 106.675 6.19799C105.457 5.26272 103.963 4.9362 103.326 4.83105C103.326 4.83659 103.332 4.84766 103.337 4.85319" fill="#004EA2"/>
<path d="M107.615 3.87439C107.615 3.60875 107.593 3.34865 107.544 3.09961C107.521 3.09961 107.499 3.10514 107.477 3.11068C107.416 3.12175 107.366 3.16049 107.305 3.17155C107.244 3.18262 107.189 3.19923 107.134 3.21583C107.073 3.23243 107.007 3.23243 106.951 3.24903C106.89 3.26564 106.824 3.2601 106.768 3.27671C106.708 3.29331 106.663 3.33758 106.608 3.35418C106.547 3.37632 106.481 3.37632 106.426 3.39846C106.364 3.42059 106.298 3.41506 106.243 3.43719C106.187 3.45933 106.138 3.50361 106.088 3.52574C106.033 3.54788 105.966 3.55895 105.911 3.58108C105.85 3.60875 105.805 3.66409 105.756 3.69177C105.701 3.71943 105.645 3.74711 105.595 3.77478C105.54 3.80798 105.479 3.82459 105.429 3.85779C105.374 3.891 105.341 3.94634 105.291 3.97954C105.235 4.01828 105.197 4.06809 105.153 4.10129C105.103 4.14557 105.036 4.16217 104.998 4.20091C104.959 4.23965 104.915 4.26178 104.876 4.28945L104.798 4.41674C104.782 4.47761 104.782 4.52188 104.76 4.48315L104.588 4.75432C105.297 4.97015 106.149 5.32987 106.907 5.91649C107.338 5.34647 107.604 4.63811 107.621 3.86332" fill="#F6AB00"/>
</g>
</g>
<defs>
<clipPath id="clip0_2462_23834">
<rect width="121.837" height="30" fill="white" transform="translate(0.862305 0.296875)"/>
</clipPath>
</defs>
</svg>
