<svg width="173" height="31" viewBox="0 0 173 31" fill="none" xmlns="http://www.w3.org/2000/svg">
<g clip-path="url(#clip0_2462_23631)">
<path d="M31.6645 15.8817C30.6442 15.1392 27.9519 14.3112 24.3729 14.4341C15.2596 14.7492 9.50106 18.0505 7.97863 19.1189C8.68376 22.917 11.1838 26.0901 14.5652 27.7193C15.1474 27.1691 15.8739 26.5922 16.7874 26.0206C20.6976 23.574 24.9338 16.651 24.9338 16.651C24.9338 16.651 29.3729 18.1307 26.734 23.8678C25.8259 25.8443 23.9989 27.495 21.8408 28.7236C27.4658 27.7354 31.7393 22.8315 31.7393 16.9287C31.7393 16.5869 31.7126 16.2396 31.6645 15.8924V15.8817Z" fill="url(#paint0_radial_2462_23631)"/>
<path d="M7.78632 16.8273C7.78632 16.8273 7.797 16.8059 7.80769 16.7952C11.8675 14.3914 21.0502 12.5164 26.4829 12.5164C28.1709 12.5164 29.6293 12.7461 30.8686 13.0719C29.9177 10.7696 28.4861 8.88389 28.187 8.44585C27.7169 9.62641 26.3226 10.8978 24.3835 10.4384C22.3803 9.96295 21.8462 8.95333 18.7906 7.44692C16.8782 6.50675 14.5491 6.48538 12.8397 7.14243C9.77884 9.31124 7.78098 12.8796 7.78098 16.9181C7.78098 16.8914 7.78098 16.8593 7.78098 16.8326C7.78098 16.8326 7.78098 16.8326 7.78632 16.8326V16.8273Z" fill="url(#paint1_radial_2462_23631)"/>
<path d="M42.5192 16.0206C42.1186 12.6553 33.5609 10.5399 23.0107 11.7899C13.7372 12.885 6.11431 16.9341 4.52777 19.3112C6.07158 17.8903 10.4786 15.2674 19.4316 14.3807C31.2051 13.2162 39.7895 15.4704 32.7329 21.2183C30.9915 22.6392 29.5598 23.3444 28.5449 23.6916C36.8889 22.057 42.8665 18.9053 42.5246 16.026L42.5192 16.0206Z" fill="url(#paint2_linear_2462_23631)"/>
<path d="M28.3953 6.30383C28.1015 3.87327 25.9808 2.38289 25.1314 1.90212C20.2115 -0.881003 12.5085 0.849767 6.62713 6.4534C2.7703 10.1286 0.537389 14.6692 0.179483 18.7825C0.126064 19.3968 0.441236 12.8957 8.2297 8.0346C11.2585 6.14357 13.3419 5.81772 16.0182 5.67348C21.1464 5.85511 21.2639 8.36045 24.3515 9.62648C26.36 10.4491 28.6944 8.78246 28.3953 6.30917V6.30383Z" fill="url(#paint3_linear_2462_23631)"/>
<path d="M26.7019 17.0148C24.3301 14.9475 21.3761 16.4913 19.4263 19.4774C16.5684 23.8524 12.0812 27.3674 6.01816 26.7584C0.297004 26.1868 0.14209 20.8289 0.14209 20.8289C0.270295 23.3289 1.125 25.5939 2.77029 27.3247C7.55662 32.346 17.5994 31.5715 24.9444 25.0971C27.5673 22.7841 28.6036 18.6762 26.7019 17.0202V17.0148Z" fill="url(#paint4_linear_2462_23631)"/>
<path d="M74.8843 10.2002V11.2645C74.8843 13.3372 74.0052 14.8842 72.2471 15.9054C70.9242 16.6853 69.2308 17.1033 67.171 17.168V15.1341C68.9895 15.0824 70.3813 14.729 71.3465 14.0784C72.1437 13.5311 72.5444 12.8804 72.5444 12.122H67.3779V10.2002H74.8886H74.8843ZM77.7283 17.2283C78.6719 18.0255 79.1416 19.0295 79.1416 20.236C79.1416 21.4426 78.6676 22.4293 77.7283 23.2265C76.8492 23.9806 75.8236 24.3598 74.6473 24.3598C73.4709 24.3598 72.4539 23.9806 71.5835 23.2265C70.6614 22.4293 70.2003 21.4296 70.2003 20.236C70.2003 19.0424 70.6614 18.0255 71.5835 17.2283C72.4539 16.4828 73.4752 16.1079 74.6473 16.1079C75.8193 16.1079 76.8449 16.4828 77.7283 17.2283ZM73.1434 18.7322C72.6823 19.1415 72.4539 19.6457 72.4539 20.2403C72.4539 20.835 72.6823 21.3305 73.1434 21.7528C73.5829 22.1536 74.0957 22.3518 74.6817 22.3518C75.2678 22.3518 75.7806 22.1536 76.2201 21.7528C76.6682 21.3434 76.8923 20.8393 76.8923 20.2403C76.8923 19.6414 76.6682 19.1286 76.2201 18.7322C75.7892 18.3443 75.2764 18.1504 74.6817 18.1504C74.0871 18.1504 73.5829 18.3443 73.1434 18.7322ZM77.4309 11.0706V10.2002H79.6501V16.6121H77.4309V15.5736H75.4315V13.8026H77.4309V12.8417H75.4315V11.0706H77.4309Z" fill="#231815"/>
<path d="M82.4984 10.2088H84.7219V14.2636H92.7626V10.2002H94.9818V12.5099H96.7787V14.5394H94.9818V17.099H92.7626V16.2889H83.5714C83.2051 16.2889 82.9379 16.207 82.7699 16.0433C82.5889 15.8494 82.5027 15.5262 82.5027 15.0694V10.2045L82.4984 10.2088ZM83.2482 17.8316H94.9818V22.7137C94.9818 23.1662 94.8827 23.4851 94.6844 23.679C94.5164 23.8384 94.2535 23.9203 93.8959 23.9203H84.3341C83.9678 23.9203 83.7006 23.8384 83.5283 23.679C83.3387 23.4851 83.2439 23.1619 83.2439 22.7137V17.8316H83.2482ZM92.7583 19.831H85.4372V21.9209H92.7583V19.831Z" fill="#231815"/>
<path d="M100.049 16.3788V18.9169H104.432V20.9335H98.8858C98.5281 20.9335 98.2653 20.8516 98.0972 20.6922C97.9162 20.4983 97.8301 20.1794 97.8301 19.727V10.1996H103.708V12.2206H100.049V14.4527H103.484V16.3788H100.049ZM104.199 14.3579H105.272V10.1953H107.344V23.9197H105.272V16.4348H104.199V14.3536V14.3579ZM108.18 10.1996H110.309V23.9154H108.18V10.1996Z" fill="#231815"/>
<path d="M122.84 12.1775H113.386V10.1953H125.063V20.968H126.089V22.9502H112.679V20.968H122.844V16.7063H113.468V14.7241H122.844V12.1732L122.84 12.1775Z" fill="#231815"/>
<path d="M140.628 17.3481H135.853V20.9806H141.446V22.9628H128.037V20.9806H133.63V17.3481H129.915C129.536 17.3481 129.269 17.2705 129.114 17.1111C128.924 16.9215 128.83 16.6026 128.83 16.1588V10.2295H131.079V15.3659H140.623V17.3481H140.628Z" fill="#231815"/>
<path d="M150.81 18.9174H154.081V10.2002H156.3V14.91H158.097V16.9267H156.3V23.9375H154.081V20.9341H143.726V18.9174H144.752V12.2168H143.726V10.2002H151.896V12.2168H150.81V18.9174ZM146.82 12.1781V18.7494H148.742V12.1781H146.82Z" fill="#231815"/>
<path d="M168.826 12.1775H159.372V10.1953H171.045V20.968H172.071V22.9502H158.661V20.968H168.822V16.7063H159.445V14.7241H168.822V12.1732L168.826 12.1775Z" fill="#231815"/>
<path d="M51.6368 11.1347C51.6455 12.2637 51.7704 13.0781 52.0074 13.5736C52.1841 13.9485 52.4426 14.1683 52.783 14.2329V15.3059C52.4642 15.28 52.1625 15.1594 51.8868 14.9396C51.5291 14.6638 51.2706 14.2717 51.1111 13.7546C50.9431 14.2631 50.6759 14.6595 50.3139 14.9396C50.0339 15.1594 49.7365 15.2843 49.4263 15.3059V14.2329C49.7624 14.164 50.0209 13.9442 50.2019 13.5736C50.4389 13.0738 50.5596 12.2637 50.5682 11.1347H49.4909V10.1953H52.7098V11.1347H51.6325H51.6368ZM54.5972 13.1341H54.1576V16.6072H53.1709V10.1996H54.1576V12.1818H54.5972V10.1996H55.6141V16.6072H54.5972V13.1341Z" fill="#231815"/>
<path d="M58.0746 12.6607H61.9053V10.2002H62.9611V11.5231H63.8186V12.4711H62.9611V14.5998H61.9053V13.6001H57.523C57.3463 13.6001 57.2214 13.5613 57.1395 13.488C57.0533 13.3975 57.0102 13.2467 57.0102 13.0356V10.2002H60.7462V11.1396H58.0746V12.6607ZM57.3679 14.255H58.4236V15.6426H63.0214V16.5819H57.885C57.7083 16.5819 57.5833 16.5431 57.5015 16.4699C57.411 16.3794 57.3679 16.2286 57.3679 16.0174V14.255Z" fill="#231815"/>
<path d="M53.438 18.5888H54.5498V17.5762H55.6141V20.739H54.5498V19.5239H53.438V19.9763C53.438 20.1875 53.3949 20.3383 53.3044 20.4288C53.2226 20.502 53.0976 20.5408 52.9209 20.5408H50.1631C49.9865 20.5408 49.8615 20.502 49.7882 20.4288C49.7021 20.3426 49.659 20.1918 49.659 19.9806V17.5848H50.7147V18.1622H52.3866V17.5848H53.4423V18.5931L53.438 18.5888ZM50.0123 21.1613H51.0594V21.6482H54.5627V21.1613H55.6184V23.3848C55.6184 23.5959 55.571 23.7425 55.4762 23.8329C55.3943 23.9062 55.2694 23.945 55.1013 23.945H50.5337C50.357 23.945 50.2321 23.9105 50.1502 23.8329C50.0597 23.7425 50.0166 23.5916 50.0166 23.3848V21.1613H50.0123ZM50.7104 19.6316H52.3823V19.0413H50.7104V19.6316ZM54.5584 22.5316H51.0551V23.0185H54.5584V22.5316Z" fill="#231815"/>
<path d="M60.1645 17.8097C60.5911 18.1716 60.8022 18.6241 60.8022 19.1756C60.8022 19.7272 60.5868 20.1667 60.1645 20.5287C59.7681 20.8691 59.3027 21.0415 58.777 21.0415C58.2513 21.0415 57.773 20.8691 57.3765 20.5287C56.9542 20.1667 56.7431 19.7186 56.7431 19.1756C56.7431 18.6327 56.9542 18.1673 57.3765 17.8097C57.773 17.4692 58.2383 17.2969 58.777 17.2969C59.3156 17.2969 59.7681 17.4692 60.1645 17.8097ZM57.3679 21.6189H58.4236V23.0236H63.0214V23.963H57.8764C57.6997 23.963 57.579 23.9242 57.5015 23.851C57.411 23.7605 57.3679 23.6097 57.3679 23.4028V21.6275V21.6189ZM58.1134 18.5336C57.9195 18.7102 57.8204 18.9257 57.8204 19.1799C57.8204 19.4342 57.9195 19.641 58.1134 19.8091C58.2987 19.9728 58.5184 20.059 58.777 20.059C59.0183 20.059 59.2294 19.9771 59.419 19.8091C59.6129 19.6324 59.712 19.4256 59.712 19.1799C59.712 18.9343 59.6129 18.7102 59.419 18.5336C59.2337 18.3698 59.0183 18.288 58.777 18.288C58.5227 18.288 58.2987 18.3698 58.1134 18.5336ZM61.9054 17.5813H62.9611V21.9679H61.9054V17.5813Z" fill="#231815"/>
</g>
<defs>
<radialGradient id="paint0_radial_2462_23631" cx="0" cy="0" r="1" gradientUnits="userSpaceOnUse" gradientTransform="translate(20.2756 11.683) scale(15.6509 15.6509)">
<stop stop-color="white"/>
<stop offset="0.17" stop-color="#FBFBFB"/>
<stop offset="0.34" stop-color="#EFEFEF"/>
<stop offset="0.51" stop-color="#DBDBDB"/>
<stop offset="0.68" stop-color="#C0C0C0"/>
<stop offset="0.84" stop-color="#9D9D9D"/>
<stop offset="1" stop-color="#737373"/>
</radialGradient>
<radialGradient id="paint1_radial_2462_23631" cx="0" cy="0" r="1" gradientUnits="userSpaceOnUse" gradientTransform="translate(20.2738 11.683) scale(15.6528 15.6528)">
<stop stop-color="white"/>
<stop offset="0.17" stop-color="#FBFBFB"/>
<stop offset="0.34" stop-color="#EFEFEF"/>
<stop offset="0.51" stop-color="#DBDBDB"/>
<stop offset="0.68" stop-color="#C0C0C0"/>
<stop offset="0.84" stop-color="#9D9D9D"/>
<stop offset="1" stop-color="#737373"/>
</radialGradient>
<linearGradient id="paint2_linear_2462_23631" x1="15.4145" y1="16.1756" x2="39.5224" y2="18.4886" gradientUnits="userSpaceOnUse">
<stop stop-color="#6FBA2C"/>
<stop offset="1" stop-color="#008842"/>
</linearGradient>
<linearGradient id="paint3_linear_2462_23631" x1="8.32051" y1="15.0859" x2="22.5566" y2="3.03994" gradientUnits="userSpaceOnUse">
<stop stop-color="#F39800"/>
<stop offset="0.26" stop-color="#E97A06"/>
<stop offset="0.81" stop-color="#D03116"/>
<stop offset="1" stop-color="#C8161D"/>
</linearGradient>
<linearGradient id="paint4_linear_2462_23631" x1="8.422" y1="26.6943" x2="21.0288" y2="15.2734" gradientUnits="userSpaceOnUse">
<stop stop-color="#00AFEC"/>
<stop offset="1" stop-color="#0055A2"/>
</linearGradient>
<clipPath id="clip0_2462_23631">
<rect width="172" height="30" fill="white" transform="translate(0.0710449 0.296875)"/>
</clipPath>
</defs>
</svg>
