<svg width="90" height="31" viewBox="0 0 90 31" fill="none" xmlns="http://www.w3.org/2000/svg">
<g clip-path="url(#clip0_2462_23793)">
<path d="M25.6792 24.424C25.6792 22.793 26.6454 21.793 27.9834 21.793C28.6848 21.793 29.144 22.1113 29.4341 22.4099L29.1158 22.7845C28.8595 22.5141 28.5271 22.2972 27.9975 22.2972C26.9412 22.2972 26.2679 23.1028 26.2679 24.4099C26.2679 25.7169 26.8933 26.5479 27.9975 26.5479C28.3806 26.5479 28.7553 26.4296 28.9637 26.2296V24.8409H27.8595V24.362H29.4989V26.4718C29.1722 26.8127 28.6229 27.0549 27.944 27.0549C26.6116 27.0549 25.6792 26.069 25.6792 24.424Z" fill="#2F2725"/>
<path d="M30.082 28.5274L30.2003 28.0683C30.2764 28.0964 30.3891 28.1246 30.4933 28.1246C30.9243 28.1246 31.2003 27.764 31.3693 27.2767L31.451 26.9837L29.9384 23.2119H30.5299L31.3271 25.3584C31.4454 25.6852 31.5778 26.0739 31.7017 26.4147H31.7355C31.8398 26.0739 31.9496 25.6852 32.0538 25.3584L32.7553 23.2119H33.3102L31.8792 27.3105C31.6285 28.026 31.2398 28.6006 30.5102 28.6006C30.344 28.6006 30.1975 28.5725 30.0792 28.5246L30.082 28.5274Z" fill="#2F2725"/>
<path d="M33.5693 25.0965C33.5693 23.874 34.3806 23.1162 35.2426 23.1162C36.1806 23.1162 36.7214 23.7894 36.7214 24.874C36.7214 24.9979 36.7158 25.1247 36.6933 25.2148H34.1299C34.1637 26.0486 34.6651 26.6035 35.4144 26.6035C35.7834 26.6035 36.0876 26.4852 36.3665 26.2993L36.575 26.674C36.2482 26.8824 35.8679 27.0571 35.3468 27.0571C34.3609 27.0571 33.5693 26.3275 33.5693 25.0993V25.0965ZM36.2229 24.8035C36.2229 23.9979 35.8623 23.5754 35.251 23.5754C34.6961 23.5754 34.2031 24.0261 34.1271 24.8035H36.2257H36.2229Z" fill="#2F2725"/>
<path d="M37.2088 25.0965C37.2088 23.8402 38.0144 23.1162 38.9299 23.1162C39.8454 23.1162 40.6595 23.8373 40.6595 25.0965C40.6595 26.3556 39.8482 27.0542 38.9299 27.0542C38.0116 27.0542 37.2088 26.3331 37.2088 25.0965ZM40.0764 25.0965C40.0764 24.2007 39.6032 23.5979 38.9299 23.5979C38.2567 23.5979 37.7919 24.2035 37.7919 25.0965C37.7919 25.9895 38.2567 26.5838 38.9299 26.5838C39.6032 26.5838 40.0764 25.9866 40.0764 25.0965Z" fill="#2F2725"/>
<path d="M41.5074 23.2149H41.9665L42.0229 23.7642H42.0454C42.406 23.4093 42.7947 23.1191 43.3102 23.1191C44.0961 23.1191 44.4567 23.6262 44.4567 24.5839V26.967H43.8877V24.6544C43.8877 23.9332 43.6651 23.6121 43.144 23.6121C42.7468 23.6121 42.4623 23.8206 42.0736 24.2234V26.967H41.5102V23.2177L41.5074 23.2149Z" fill="#2F2725"/>
<path d="M46.4707 28.0578C46.9158 28.0578 47.2313 27.9423 47.4172 27.7113C47.6031 27.4803 47.6961 27.1198 47.6961 26.6325V26.2691C47.5581 26.4803 47.3975 26.6268 47.2116 26.7085C47.0257 26.7902 46.8088 26.8296 46.5552 26.8296C46.3017 26.8296 46.082 26.7874 45.8905 26.7029C45.6989 26.6184 45.5383 26.5001 45.4144 26.348C45.2876 26.1958 45.1947 26.0127 45.1299 25.8015C45.0651 25.5902 45.0341 25.3536 45.0341 25.0944C45.0341 24.4888 45.1665 24.0212 45.4285 23.686C45.6905 23.3536 46.0707 23.1846 46.5637 23.1846C46.8144 23.1846 47.0369 23.2353 47.2257 23.3339C47.4144 23.4325 47.5609 23.5761 47.6623 23.762H47.6679L47.6876 23.2719H48.2567V26.5564C48.2567 26.8972 48.2228 27.1902 48.1581 27.4409C48.0905 27.6916 47.9862 27.8972 47.8426 28.0606C47.6989 28.224 47.5158 28.3451 47.2905 28.4212C47.0651 28.4972 46.7947 28.5367 46.4764 28.5367C46.2426 28.5367 46.0369 28.5141 45.8595 28.4691C45.682 28.424 45.5074 28.3592 45.3299 28.2719V27.762C45.3299 27.7057 45.3552 27.6944 45.4031 27.7282C45.6031 27.8437 45.7862 27.9254 45.9552 27.9761C46.1243 28.0268 46.2961 28.0522 46.4679 28.0522L46.4707 28.0578ZM47.6961 25.2494V24.7987C47.6961 24.6353 47.6679 24.4832 47.6088 24.3451C47.5524 24.2071 47.4764 24.086 47.3806 23.9846C47.2848 23.8832 47.1721 23.8043 47.0426 23.7451C46.913 23.6888 46.775 23.6578 46.6285 23.6578C46.3102 23.6578 46.0651 23.7789 45.8905 24.0212C45.7158 24.2634 45.6285 24.6184 45.6285 25.086C45.6285 25.4972 45.7186 25.8156 45.8989 26.0409C46.0792 26.2663 46.3214 26.3789 46.62 26.3789C46.9609 26.3789 47.2229 26.2747 47.4116 26.0634C47.6003 25.855 47.6933 25.5818 47.6933 25.2465L47.6961 25.2494Z" fill="#2F2725"/>
<path d="M49.2623 23.2149H49.7214L49.7778 23.7642H49.7975C50.158 23.4093 50.5468 23.1191 51.0623 23.1191C51.8482 23.1191 52.2087 23.6262 52.2087 24.5839V26.967H51.6397V24.6544C51.6397 23.9332 51.4172 23.6121 50.8961 23.6121C50.4989 23.6121 50.2144 23.8206 49.8256 24.2234V26.967H49.2623V23.2177V23.2149Z" fill="#2F2725"/>
<path d="M53.0482 25.9988C53.0482 25.179 53.7637 24.7762 55.375 24.5959C55.3806 24.0889 55.2229 23.5875 54.5778 23.5875C54.1271 23.5875 53.7243 23.8016 53.4398 24.0044L53.2116 23.6072C53.5384 23.3931 54.0651 23.1143 54.6708 23.1143C55.5806 23.1143 55.9412 23.734 55.9412 24.6354V26.9621H55.4764L55.4285 26.503H55.4088C55.0482 26.8072 54.6172 27.0523 54.144 27.0523C53.5243 27.0523 53.0539 26.6776 53.0539 25.9959L53.0482 25.9988ZM55.375 26.0748V24.9762C54.0482 25.1283 53.5975 25.4495 53.5975 25.9621C53.5975 26.4128 53.9102 26.5931 54.2933 26.5931C54.6764 26.5931 54.9947 26.4128 55.3778 26.072L55.375 26.0748Z" fill="#2F2725"/>
<path d="M57.0003 23.2148H57.4595L57.5158 23.7697H57.5355C57.8623 23.4092 58.2651 23.1162 58.7017 23.1162C59.2848 23.1162 59.5919 23.4007 59.7355 23.8458C60.1383 23.4148 60.5327 23.1162 60.9862 23.1162C61.7496 23.1162 62.1243 23.6233 62.1243 24.581V26.9641H61.5552V24.6514C61.5552 23.9303 61.3271 23.6092 60.8257 23.6092C60.5214 23.6092 60.2003 23.812 59.8397 24.2204V26.9641H59.2764V24.6514C59.2764 23.9303 59.0482 23.6092 58.5412 23.6092C58.2482 23.6092 57.9158 23.812 57.5609 24.2204V26.9641H56.9975V23.2148H57.0003Z" fill="#2F2725"/>
<path d="M64.6313 21.8799H65.2088V26.9644H64.6313V21.8799Z" fill="#2F2725"/>
<path d="M66.4031 23.2149H66.8623L66.9186 23.7642H66.9384C67.2989 23.4093 67.6876 23.1191 68.2031 23.1191C68.9891 23.1191 69.3496 23.6262 69.3496 24.5839V26.967H68.7806V24.6544C68.7806 23.9332 68.5581 23.6121 68.0369 23.6121C67.6398 23.6121 67.3552 23.8206 66.9665 24.2234V26.967H66.4031V23.2177V23.2149Z" fill="#2F2725"/>
<path d="M69.9947 26.5416L70.2792 26.1585C70.606 26.4289 70.9384 26.6092 71.4116 26.6092C71.9327 26.6092 72.1891 26.3303 72.1891 25.9838C72.1891 25.581 71.7384 25.4007 71.313 25.2486C70.7778 25.0542 70.1806 24.8035 70.1806 24.1641C70.1806 23.581 70.6454 23.1162 71.451 23.1162C71.8961 23.1162 72.3046 23.3049 72.5891 23.5331L72.3186 23.9021C72.0623 23.7134 71.7919 23.5697 71.451 23.5697C70.9496 23.5697 70.7215 23.8345 70.7215 24.1387C70.7215 24.5134 71.1384 24.6599 71.5693 24.812C72.1186 25.0261 72.7299 25.243 72.7299 25.9585C72.7299 26.5556 72.2567 27.0571 71.3891 27.0571C70.8538 27.0571 70.3468 26.8345 69.9947 26.5416Z" fill="#2F2725"/>
<path d="M73.4257 25.8322V23.6801H72.8567V23.2491L73.4454 23.2153L73.5074 22.1533H73.9863V23.2153H75.0201V23.6801H73.9863V25.8547C73.9863 26.3139 74.1243 26.5899 74.575 26.5899C74.713 26.5899 74.8877 26.5421 75.0116 26.4942L75.1215 26.9167C74.913 26.9871 74.6623 27.0547 74.4539 27.0547C73.668 27.0547 73.4201 26.5674 73.4201 25.8322H73.4257Z" fill="#2F2725"/>
<path d="M75.5862 22.0264C75.5862 21.7842 75.7609 21.6377 75.9947 21.6377C76.2172 21.6377 76.4032 21.7842 76.4032 22.0264C76.4032 22.249 76.2172 22.4095 75.9947 22.4095C75.7581 22.4095 75.5862 22.249 75.5862 22.0264ZM75.7102 23.2152H76.2736V26.9645H75.7102V23.2152Z" fill="#2F2725"/>
<path d="M77.5102 25.8322V23.6801H76.9412V23.2491L77.5327 23.2153L77.5947 22.1533H78.0736V23.2153H79.1074V23.6801H78.0736V25.8547C78.0736 26.3139 78.2116 26.5899 78.6623 26.5899C78.8003 26.5899 78.975 26.5421 79.0989 26.4942L79.2088 26.9167C79.0003 26.9871 78.7496 27.0547 78.5412 27.0547C77.7553 27.0547 77.5074 26.5674 77.5074 25.8322H77.5102Z" fill="#2F2725"/>
<path d="M79.7383 25.595V23.2119H80.3017V25.5246C80.3017 26.2457 80.5158 26.5584 81.0454 26.5584C81.4426 26.5584 81.7271 26.3584 82.1017 25.8992V23.2119H82.6651V26.9612H82.2003L82.1524 26.364H82.1327C81.7778 26.7725 81.4031 27.0514 80.882 27.0514C80.0961 27.0514 79.744 26.5499 79.744 25.5922L79.7383 25.595Z" fill="#2F2725"/>
<path d="M83.9045 25.8322V23.6801H83.3355V23.2491L83.9271 23.2153L83.989 22.1533H84.4679V23.2153H85.5017V23.6801H84.4679V25.8547C84.4679 26.3139 84.6059 26.5899 85.0566 26.5899C85.1947 26.5899 85.3693 26.5421 85.4933 26.4942L85.6031 26.9167C85.3947 26.9871 85.144 27.0547 84.9355 27.0547C84.1496 27.0547 83.9017 26.5674 83.9017 25.8322H83.9045Z" fill="#2F2725"/>
<path d="M85.7947 25.0965C85.7947 23.874 86.6059 23.1162 87.4679 23.1162C88.4059 23.1162 88.9468 23.7894 88.9468 24.874C88.9468 24.9979 88.9412 25.1247 88.9186 25.2148H86.3552C86.389 26.0486 86.8904 26.6035 87.6397 26.6035C88.0088 26.6035 88.313 26.4852 88.5919 26.2993L88.8003 26.674C88.4735 26.8824 88.0933 27.0571 87.5721 27.0571C86.5862 27.0571 85.7947 26.3275 85.7947 25.0993V25.0965ZM88.4482 24.8035C88.4482 23.9979 88.0876 23.5754 87.4764 23.5754C86.9214 23.5754 86.4285 24.0261 86.3524 24.8035H88.451H88.4482Z" fill="#2F2725"/>
<path d="M30.4454 11.3369C28.313 11.3369 26.5834 12.9454 26.5834 14.9285C26.5834 16.9116 28.313 18.52 30.4454 18.52C32.5778 18.52 34.3074 16.9116 34.3074 14.9285C34.3074 12.9454 32.5778 11.3369 30.4454 11.3369ZM30.4454 17.0524C29.2003 17.0524 28.1496 16.0693 28.1496 14.9285C28.1496 13.7876 29.2032 12.8073 30.4454 12.8073C31.6877 12.8073 32.7468 13.7876 32.7468 14.9285C32.7468 16.0693 31.6905 17.0524 30.4454 17.0524Z" fill="#291F1D"/>
<path d="M32.9383 2.6748V4.71706H29.5383V6.10861H32.9383V7.42692H29.5383V8.81847H32.9383V11.1706H34.482V2.6748H32.9383Z" fill="#291F1D"/>
<path d="M29.8623 3.29688H23.9299V4.76448H28.5552C27.1411 7.81237 24.1524 9.89969 23.9552 10.0349L24.9158 11.2236C25.5552 10.7588 28.6425 8.48561 30.1186 4.90814C30.1186 4.90814 30.2651 4.46307 30.2876 4.29969C30.2876 4.29969 30.3299 3.99265 30.3299 3.68842C30.3299 3.47152 30.1524 3.29688 29.8623 3.29688Z" fill="#291F1D"/>
<path d="M60.6003 2.6748V4.71706H57.2003V6.10861H60.6003V7.42692H57.2003V8.81847H60.6003V12.7142H62.144V2.6748H60.6003Z" fill="#291F1D"/>
<path d="M62.2201 17.8034V16.3358H55.268V12.5527H53.7271V17.426C53.7271 17.6344 53.8961 17.8034 54.1046 17.8034H62.2201Z" fill="#291F1D"/>
<path d="M54.1665 3.25781C52.2848 3.25781 50.7581 4.82964 50.7581 6.76767C50.7581 8.7057 52.2848 10.2775 54.1665 10.2775C56.0482 10.2775 57.575 8.7057 57.575 6.76767C57.575 4.82964 56.0482 3.25781 54.1665 3.25781ZM54.1665 8.81556C53.1158 8.81556 52.2961 7.85218 52.2961 6.77894C52.2961 5.7057 53.1186 4.72542 54.1665 4.72542C55.2144 4.72542 56.0369 5.70288 56.0369 6.77894C56.0369 7.855 55.2144 8.81556 54.1665 8.81556Z" fill="#291F1D"/>
<path d="M45.5158 11.1706H47.0595V7.46354H49.5327V6.07199H47.0595V2.6748H45.5158V11.1706Z" fill="#291F1D"/>
<path d="M39.0989 17.4125C39.0989 17.6294 39.2736 17.8041 39.4905 17.8041H47.1356V12.1787H39.0989V17.4125ZM45.5947 16.3365H40.6398V13.6435H45.5947V16.3365Z" fill="#291F1D"/>
<path d="M37.175 9.82671C37.175 10.038 37.3468 10.2098 37.5581 10.2098H39.1637C40.5356 10.2098 42.6679 10.1647 44.4933 9.94784V8.41263C42.5215 8.66615 40.0341 8.6915 38.7158 8.68305V3.18164H37.175V9.82671Z" fill="#291F1D"/>
<path d="M76.713 10.2148H64.3581V11.6824H69.7637L69.7553 17.8036H71.2989L71.3074 11.6824H76.713V10.2148Z" fill="#291F1D"/>
<path d="M74.2567 3.22656H66.4341V4.69417H73.0961C73.0426 5.84346 72.9158 7.69135 72.4257 9.4322H74.0032C74.5863 7.07163 74.6454 4.37304 74.6454 4.37304V3.61811C74.6454 3.40121 74.4708 3.22656 74.2539 3.22656H74.2567Z" fill="#291F1D"/>
<path d="M87.6426 2.6748V11.4354H84.7891V12.7903H87.6426V14.2607H89.1862V2.6748H87.6426Z" fill="#291F1D"/>
<path d="M89.2623 17.804V16.3364H82.3074V13.5674H80.7665V17.4096C80.7665 17.6265 80.944 17.804 81.1609 17.804H89.2651H89.2623Z" fill="#291F1D"/>
<path d="M81.3637 10.8466V12.7902H82.9045V10.8156C83.8144 10.7677 85.313 10.7142 86.8031 10.5931V9.13672C83.0285 9.42968 79.3383 9.35925 78.6989 9.35925H77.9412V10.8438H81.3637V10.8466Z" fill="#291F1D"/>
<path d="M82.2567 3.01758C80.5243 3.01758 79.1187 4.28518 79.1187 5.84575C79.1187 7.40631 80.5243 8.67392 82.2567 8.67392C83.9891 8.67392 85.3947 7.40631 85.3947 5.84575C85.3947 4.28518 83.9891 3.01758 82.2567 3.01758ZM82.2567 7.22885C81.3665 7.22885 80.6426 6.60913 80.6426 5.84575C80.6426 5.08237 81.3637 4.46265 82.2567 4.46265C83.1496 4.46265 83.8708 5.08237 83.8708 5.84575C83.8708 6.60913 83.1496 7.22885 82.2567 7.22885Z" fill="#291F1D"/>
<path d="M11.7074 30.2969C7.66793 30.2969 4.38061 27.0096 4.38061 22.9701C4.38061 22.3955 4.44821 21.8265 4.58061 21.2715H3.35525C2.92145 21.2715 2.57216 20.9222 2.57216 20.4884V5.92504H0.642578V4.35885H3.35244C3.78624 4.35885 4.13554 4.71096 4.13554 5.14195V19.7053H5.65103C5.913 19.7053 6.15525 19.8349 6.30173 20.0518C6.44821 20.2687 6.47638 20.5448 6.37497 20.7842C6.08765 21.4828 5.94399 22.218 5.94399 22.9673C5.94399 26.1419 8.52708 28.7279 11.7017 28.7279C14.8764 28.7279 17.4623 26.1448 17.4623 22.9673C17.4623 19.7898 14.9102 17.249 11.7722 17.2124C11.5102 17.2096 11.2679 17.0772 11.1243 16.8574C10.9806 16.6377 10.9581 16.3645 11.0595 16.1222L17.1158 1.86307H0.642578V0.296875H18.3017C18.5637 0.296875 18.8088 0.429269 18.9553 0.648988C19.1017 0.868706 19.1271 1.14476 19.0229 1.38702L12.9243 15.7504C16.3806 16.3363 19.0341 19.3645 19.0341 22.9701C19.0341 27.0096 15.7468 30.2969 11.7074 30.2969ZM11.7074 26.2349C9.90737 26.2349 8.44258 24.7701 8.44258 22.9701C8.44258 21.1701 9.90173 19.711 11.6961 19.7053C12.5778 19.7053 13.3975 20.0462 14.0144 20.6603C14.6313 21.2772 14.9722 22.0969 14.9722 22.9673C14.9722 24.7673 13.5074 26.2321 11.7074 26.2321V26.2349ZM11.7074 21.2743C10.7693 21.2772 10.0116 22.0405 10.0116 22.9729C10.0116 23.9053 10.7722 24.6687 11.7074 24.6687C12.6426 24.6687 13.4031 23.9081 13.4031 22.9729C13.4031 22.0377 12.6426 21.2743 11.7074 21.2743ZM7.42004 17.111C7.36934 17.111 7.31582 17.1053 7.2623 17.0941C6.8961 17.0208 6.63413 16.6997 6.63413 16.325V5.14195C6.63413 4.70814 6.98624 4.35885 7.41723 4.35885H12.1665C12.4285 4.35885 12.6736 4.49124 12.82 4.71096C12.9665 4.93068 12.9919 5.20673 12.8876 5.44899L8.13835 16.6349C8.01441 16.9279 7.72708 17.111 7.41723 17.111H7.42004ZM8.20314 5.92504V12.4772L10.9834 5.92504H8.20314Z" fill="#291F1D"/>
<path d="M11.7074 21.2739H3.35243C2.91863 21.2739 2.56934 20.9246 2.56934 20.4908V5.1415C2.56934 4.70769 2.92145 4.3584 3.35243 4.3584H7.41722C7.85103 4.3584 8.20032 4.71051 8.20032 5.1415V15.6401H11.7919V17.2063H7.41722C6.98342 17.2063 6.63412 16.857 6.63412 16.4232V5.9246H4.13553V19.7049H11.7045V21.2711L11.7074 21.2739Z" fill="#291F1D"/>
</g>
<defs>
<clipPath id="clip0_2462_23793">
<rect width="88.6197" height="30" fill="white" transform="translate(0.642578 0.296875)"/>
</clipPath>
</defs>
</svg>
