<svg width="98" height="31" viewBox="0 0 98 31" fill="none" xmlns="http://www.w3.org/2000/svg">
<g clip-path="url(#clip0_2462_23429)">
<path d="M41.3108 15.0445V11.3251H42.7156V15.0445H44.7061V11.3251H46.1212V15.0445H49.6667V16.345H38.7035V15.0445H41.3108ZM47.303 12.9377V7.19468H39.5899V5.86816H48.7907V12.9429H47.303V12.9377Z" fill="#595857"/>
<path d="M62.1849 13.5677V17.2611H60.7024V14.8474H52.7042V13.5729H54.6014L54.6169 12.1787H52.1029V10.8886H63.0661V12.1787H60.5366V13.5729H62.1849V13.5677ZM60.5314 7.7206C60.5314 8.09514 60.4536 8.44888 60.2929 8.78181C60.1322 9.11473 59.9249 9.41125 59.6657 9.66615C59.3962 9.91064 59.0852 10.1031 58.7275 10.2488C58.3698 10.3944 57.9914 10.4673 57.5923 10.4673C57.1932 10.4673 56.8096 10.3944 56.4467 10.2488C56.0839 10.1031 55.7729 9.90544 55.5033 9.66615C55.2441 9.40605 55.0368 9.10953 54.8761 8.78181C54.7154 8.44888 54.6377 8.10034 54.6377 7.7206C54.6377 7.34605 54.7154 6.99231 54.8761 6.65938C55.0368 6.32646 55.2441 6.02994 55.5033 5.77504C55.7729 5.52535 56.0839 5.32247 56.4467 5.17681C56.8096 5.03116 57.188 4.95312 57.5923 4.95312C57.9966 4.95312 58.3698 5.02595 58.7275 5.17681C59.0852 5.32247 59.3962 5.52535 59.6657 5.77504C59.9249 6.03514 60.1322 6.33166 60.2929 6.65938C60.4484 6.99231 60.5314 7.34085 60.5314 7.7206ZM55.9698 13.5677H59.1785V12.1735H55.9854L55.9698 13.5677ZM59.0748 7.7206C59.0748 7.32004 58.9297 6.97671 58.6394 6.6958C58.3491 6.41489 58.0018 6.27444 57.5871 6.27444C57.1776 6.27444 56.8251 6.41489 56.5297 6.6958C56.2342 6.97671 56.0891 7.32004 56.0891 7.7206C56.0891 8.12115 56.2342 8.46969 56.5297 8.7558C56.8251 9.04191 57.1776 9.18756 57.5871 9.18756C57.9966 9.18756 58.3491 9.04711 58.6394 8.7558C58.9245 8.46448 59.0748 8.12115 59.0748 7.7206Z" fill="#595857"/>
<path d="M65.6372 12.8231H76.6004V14.1392H71.8523V17.224H70.3698V14.1392H65.6372V12.8231ZM67.975 6.97082H74.2471V5.45703H75.7192V11.2157H66.5184V5.45703H67.975V6.97082ZM74.2523 8.26092H67.9802V9.90995H74.2523V8.26092Z" fill="#595857"/>
<path d="M42.9281 21.8594V26.1042H42.2491V22.6865L41.1449 26.1042H40.4866L39.3825 22.6865V26.1042H38.7035V21.8594H39.7506L40.8184 25.1679L41.8862 21.8594H42.9281Z" fill="#595857"/>
<path d="M44.5556 22.1922C44.5556 22.3118 44.5142 22.4107 44.4261 22.4991C44.3379 22.5875 44.2343 22.6291 44.115 22.6291C43.9958 22.6291 43.8921 22.5875 43.804 22.4991C43.7159 22.4107 43.6744 22.3066 43.6744 22.1922C43.6744 22.0725 43.7159 21.9633 43.804 21.8801C43.8921 21.7916 43.9958 21.75 44.115 21.75C44.2343 21.75 44.3431 21.7916 44.4261 21.8801C44.5142 21.9685 44.5556 22.0725 44.5556 22.1922ZM43.7729 23.0557H44.4675V26.1093H43.7729V23.0557Z" fill="#595857"/>
<path d="M45.9915 24.5697V26.1043H45.3073V23.0507H45.9708V23.4564C46.0485 23.316 46.1677 23.1963 46.3232 23.1079C46.4787 23.0195 46.6446 22.9727 46.8209 22.9727C47.1837 22.9727 47.4688 23.0975 47.6865 23.342C47.9042 23.5865 48.0131 23.9142 48.0131 24.3252V26.0991H47.3185V24.502C47.3185 24.1743 47.2666 23.935 47.163 23.779C47.0593 23.6229 46.8934 23.5449 46.6757 23.5449C46.5617 23.5449 46.4528 23.5813 46.344 23.6593C46.2351 23.7321 46.1574 23.8362 46.1003 23.9662C46.0278 24.1223 45.9915 24.32 45.9915 24.5697Z" fill="#595857"/>
<path d="M49.6097 22.1922C49.6097 22.3118 49.5683 22.4107 49.4801 22.4991C49.392 22.5875 49.2883 22.6291 49.1691 22.6291C49.0499 22.6291 48.941 22.5875 48.8581 22.4991C48.77 22.4107 48.7285 22.3066 48.7285 22.1922C48.7285 22.0725 48.77 21.9633 48.8581 21.8801C48.9462 21.7916 49.0499 21.75 49.1691 21.75C49.2883 21.75 49.392 21.7916 49.4801 21.8801C49.5683 21.9685 49.6097 22.0725 49.6097 22.1922ZM48.827 23.0557H49.5164V26.1093H48.827V23.0557Z" fill="#595857"/>
<path d="M50.0814 25.5369L50.5117 25.0948C50.6309 25.2612 50.7657 25.3913 50.9108 25.4849C51.0559 25.5733 51.2063 25.615 51.3669 25.615C51.5224 25.615 51.652 25.5837 51.7609 25.5213C51.8697 25.4589 51.9216 25.3757 51.9216 25.2664C51.9216 25.1624 51.8697 25.0792 51.7661 25.0167C51.6624 24.9595 51.5432 24.9023 51.398 24.8503C51.2322 24.7982 51.0611 24.741 50.8901 24.6734C50.6568 24.5902 50.4806 24.4809 50.3717 24.3457C50.2628 24.2104 50.2058 24.0596 50.2058 23.8879C50.2058 23.6382 50.325 23.4197 50.5583 23.2428C50.7916 23.066 51.0715 22.9775 51.3929 22.9775C51.7298 22.9775 52.0097 23.0608 52.2222 23.222C52.3311 23.3053 52.4192 23.4145 52.4814 23.5394L52.0564 23.9555C51.9993 23.8567 51.932 23.7786 51.8542 23.7162C51.7194 23.5966 51.5536 23.5394 51.3514 23.5394C51.2322 23.5394 51.1285 23.5706 51.0456 23.6278C50.9574 23.685 50.916 23.7578 50.916 23.8359C50.916 23.9243 50.9626 24.0023 51.0611 24.0596C51.1596 24.122 51.2996 24.1792 51.4913 24.2364C51.5587 24.2572 51.6417 24.2832 51.7298 24.3093C52.0253 24.4081 52.2481 24.5329 52.4037 24.689C52.554 24.8451 52.6317 25.0271 52.6317 25.2456C52.6317 25.4953 52.5125 25.7138 52.2689 25.9011C52.0253 26.0831 51.7142 26.1768 51.341 26.1768C51.0248 26.1768 50.7449 26.104 50.5013 25.9583C50.3406 25.8595 50.2006 25.719 50.0814 25.5369Z" fill="#595857"/>
<path d="M54.0675 22.0723V23.0554H54.731V23.6173H54.0675V25.1727C54.0675 25.3183 54.1038 25.4172 54.1764 25.4744C54.2489 25.5264 54.3474 25.5576 54.477 25.5576H54.731V26.1142H54.3111C53.9846 26.1142 53.7461 26.0414 53.5958 25.8957C53.4455 25.7501 53.3729 25.5316 53.3729 25.2455V23.6225H52.8494V23.0606H53.3729V22.0775H54.0675V22.0723Z" fill="#595857"/>
<path d="M55.3013 26.1043V23.0507H55.9492V23.5085C56.0529 23.3576 56.1721 23.2432 56.3172 23.16C56.4935 23.0559 56.6956 23.0039 56.9289 23.0039H56.9756V23.6229H56.903C56.6179 23.6229 56.3898 23.7114 56.2188 23.883C56.0633 24.0547 55.9855 24.32 55.9855 24.679V26.0991H55.3013V26.1043Z" fill="#595857"/>
<path d="M58.4373 25.9896L57.2451 23.0557H57.9604L58.7846 25.1365L59.6036 23.0557H60.3138L58.6239 27.2901H57.919L58.4373 25.9896Z" fill="#595857"/>
<path d="M63.683 26.1765C63.2372 26.1765 62.8588 26.0256 62.5426 25.7187C62.2264 25.4118 62.0709 25.032 62.0709 24.5846C62.0709 24.1321 62.2264 23.7523 62.5426 23.4454C62.8588 23.1385 63.2372 22.9824 63.683 22.9824C64.134 22.9824 64.5124 23.1385 64.8234 23.4454C65.1344 23.7523 65.2899 24.1321 65.2899 24.5846C65.2899 25.0372 65.1344 25.4118 64.8234 25.7187C64.5124 26.0256 64.134 26.1765 63.683 26.1765ZM63.683 25.6042C63.9318 25.6042 64.1495 25.5106 64.331 25.3129C64.5124 25.1204 64.6005 24.876 64.6005 24.5794C64.6005 24.2881 64.5124 24.0436 64.331 23.846C64.1495 23.6483 63.9318 23.5494 63.683 23.5494C63.4342 23.5494 63.2217 23.6483 63.0403 23.846C62.8588 24.0436 62.7707 24.2881 62.7707 24.5794C62.7707 24.876 62.8588 25.1204 63.0403 25.3129C63.2217 25.5106 63.4342 25.6042 63.683 25.6042Z" fill="#595857"/>
<path d="M66.0364 22.7284C66.0364 22.4423 66.1193 22.229 66.2748 22.0782C66.4355 21.9325 66.6791 21.8545 67.0057 21.8545H67.3426V22.4111H67.1405C67.0109 22.4111 66.9124 22.4371 66.8398 22.4943C66.7672 22.5516 66.7361 22.6504 66.7361 22.7961V23.051H67.3426V23.6128H66.7361V26.1045H66.0364V23.6128H65.5128V23.051H66.0364V22.7284Z" fill="#595857"/>
<path d="M72.5262 26.1042H69.7427V21.8594H72.5107V22.4524H70.4528V23.6801H72.464V24.2523H70.4528V25.5164H72.5262V26.1042Z" fill="#595857"/>
<path d="M74.5063 22.9781C74.8692 22.9781 75.175 23.1238 75.4342 23.4151V21.8545H76.1236V26.1045H75.4549V25.7196C75.2009 26.0265 74.8847 26.1774 74.5012 26.1774C74.0554 26.1774 73.6977 26.0161 73.423 25.704C73.1483 25.3867 73.0083 25.0121 73.0083 24.5855C73.0083 24.1538 73.1483 23.7792 73.423 23.4619C73.7029 23.1394 74.0657 22.9781 74.5063 22.9781ZM75.4342 24.778C75.4446 24.6428 75.4446 24.5127 75.4342 24.3879C75.4083 24.159 75.3253 23.9613 75.1802 23.8104C75.0195 23.6388 74.8174 23.5556 74.5789 23.5556C74.3146 23.5556 74.102 23.6544 73.9465 23.8521C73.791 24.0497 73.7133 24.2942 73.7133 24.5855C73.7133 24.8821 73.791 25.1266 73.9465 25.319C74.102 25.5115 74.3094 25.6103 74.5789 25.6103C74.8174 25.6103 75.0195 25.5271 75.1802 25.3554C75.3202 25.1942 75.4083 25.0069 75.4342 24.778Z" fill="#595857"/>
<path d="M78.9331 24.5903V23.0557H79.6225V26.1092H78.959V25.7087C78.8709 25.8595 78.762 25.974 78.6169 26.052C78.451 26.1405 78.28 26.1873 78.0985 26.1873C77.7409 26.1873 77.4558 26.0676 77.2381 25.8231C77.0203 25.5786 76.9115 25.2509 76.9115 24.8348V23.0609H77.5957V24.6631C77.5957 24.9856 77.6476 25.2249 77.7564 25.381C77.8653 25.537 78.026 25.6151 78.2437 25.6151C78.3525 25.6151 78.4614 25.5786 78.5702 25.5006C78.6791 25.4278 78.762 25.3237 78.819 25.1989C78.902 25.0428 78.9331 24.84 78.9331 24.5903Z" fill="#595857"/>
<path d="M80.2134 24.5798C80.2134 24.1428 80.3793 23.763 80.711 23.4509C81.0376 23.1336 81.4574 22.9775 81.9654 22.9775C82.3646 22.9775 82.7326 23.1076 83.0851 23.3625L82.8622 23.9035C82.5615 23.6694 82.2609 23.5498 81.9706 23.5498C81.6596 23.5498 81.4056 23.6486 81.2138 23.8463C81.0168 24.044 80.9235 24.2884 80.9235 24.5798C80.9235 24.8659 81.022 25.1104 81.2138 25.308C81.4108 25.5057 81.6596 25.6046 81.9706 25.6046C82.2661 25.6046 82.5667 25.4901 82.8777 25.256L83.1006 25.797C82.7637 26.0467 82.3905 26.1768 81.9706 26.1768C81.4626 26.1768 81.0479 26.0207 80.7162 25.7086C80.3793 25.3965 80.2134 25.0219 80.2134 24.5798Z" fill="#595857"/>
<path d="M85.0186 24.1376H85.7339C85.7339 23.9399 85.6562 23.7891 85.5059 23.6902C85.3503 23.5914 85.1274 23.5394 84.8372 23.5394H84.8164C84.5417 23.5394 84.2514 23.6018 83.9404 23.7318L83.7642 23.1908C84.0856 23.0504 84.438 22.9827 84.8216 22.9775H84.832C85.34 22.9775 85.7339 23.0764 86.0087 23.2741C86.2834 23.4717 86.4182 23.7839 86.4182 24.2156V26.1039H85.765V25.7658C85.6354 25.8959 85.4799 25.9947 85.2881 26.0675C85.1015 26.1404 84.9097 26.1716 84.7128 26.1716C84.3499 26.1716 84.0545 26.0727 83.8316 25.8803C83.6087 25.6878 83.4946 25.4485 83.4946 25.1676C83.4946 24.8555 83.6346 24.5954 83.9145 24.3925C84.1737 24.226 84.5417 24.1376 85.0186 24.1376ZM84.832 25.6306C85.0082 25.6306 85.1845 25.5889 85.3607 25.5005C85.5369 25.4121 85.6614 25.3132 85.7391 25.1988V24.6786H85.1274C84.7801 24.6786 84.5365 24.7202 84.4018 24.8139C84.267 24.9179 84.1996 25.0375 84.1996 25.178C84.1996 25.308 84.2566 25.4173 84.3707 25.5005C84.4795 25.5889 84.635 25.6306 84.832 25.6306Z" fill="#595857"/>
<path d="M88.108 22.0723V23.0554H88.7715V23.6173H88.108V25.1727C88.108 25.3183 88.1443 25.4172 88.2169 25.4744C88.2895 25.5264 88.3879 25.5576 88.5175 25.5576H88.7715V26.1142H88.3517C88.0251 26.1142 87.7866 26.0414 87.6363 25.8957C87.486 25.7501 87.4134 25.5316 87.4134 25.2455V23.6225H86.8899V23.0606H87.4134V22.0775H88.108V22.0723Z" fill="#595857"/>
<path d="M90.1502 22.1922C90.1502 22.3118 90.1088 22.4107 90.0207 22.4991C89.9325 22.5875 89.8289 22.6291 89.7096 22.6291C89.5852 22.6291 89.4816 22.5875 89.3986 22.4991C89.3105 22.4107 89.269 22.3066 89.269 22.1922C89.269 22.0725 89.3105 21.9633 89.3986 21.8801C89.4868 21.7916 89.5904 21.75 89.7096 21.75C89.8289 21.75 89.9325 21.7916 90.0207 21.8801C90.1036 21.9685 90.1502 22.0725 90.1502 22.1922ZM89.3623 23.0557H90.0518V26.1093H89.3623V23.0557Z" fill="#595857"/>
<path d="M92.2963 26.1765C91.8505 26.1765 91.4721 26.0256 91.1559 25.7187C90.8449 25.4118 90.6842 25.032 90.6842 24.5846C90.6842 24.1321 90.8397 23.7523 91.1559 23.4454C91.4669 23.1385 91.8505 22.9824 92.2963 22.9824C92.7473 22.9824 93.1257 23.1385 93.4367 23.4454C93.7477 23.7523 93.9032 24.1321 93.9032 24.5846C93.9032 25.0372 93.7477 25.4118 93.4367 25.7187C93.1257 26.0256 92.7473 26.1765 92.2963 26.1765ZM92.2963 25.6042C92.5503 25.6042 92.7628 25.5106 92.9442 25.3129C93.1257 25.1204 93.2138 24.876 93.2138 24.5794C93.2138 24.2881 93.1257 24.0436 92.9442 23.846C92.7628 23.6483 92.5503 23.5494 92.2963 23.5494C92.0475 23.5494 91.835 23.6483 91.6535 23.846C91.4721 24.0436 91.384 24.2881 91.384 24.5794C91.384 24.876 91.4721 25.1204 91.6535 25.3129C91.835 25.5106 92.0475 25.6042 92.2963 25.6042Z" fill="#595857"/>
<path d="M95.1835 24.5697V26.1043H94.4993V23.0507H95.1628V23.4564C95.2457 23.316 95.3597 23.1963 95.5152 23.1079C95.6708 23.0195 95.8366 22.9727 96.0129 22.9727C96.3757 22.9727 96.6608 23.0975 96.8785 23.342C97.0962 23.5865 97.2051 23.9142 97.2051 24.3252V26.0991H96.5157V24.502C96.5157 24.1743 96.4638 23.935 96.3602 23.779C96.2565 23.6229 96.0906 23.5449 95.8729 23.5449C95.7589 23.5449 95.65 23.5813 95.5412 23.6593C95.4323 23.7321 95.3494 23.8362 95.2975 23.9662C95.2198 24.1223 95.1835 24.32 95.1835 24.5697Z" fill="#595857"/>
<path d="M23.2772 14.6128C20.6802 12.8441 17.3575 13.5672 15.6107 16.2306C14.1541 18.4519 11.9511 18.7328 11.101 18.7328C8.32259 18.7328 6.42541 16.7716 5.8604 14.7429C5.85522 14.7221 5.85003 14.7064 5.84485 14.6856C5.83967 14.6648 5.83448 14.6388 5.8293 14.618C5.60641 13.7701 5.55457 13.3695 5.55457 12.4696C5.55457 7.61611 10.5152 2.21642 17.6582 2.21642C24.9722 2.21642 29.1553 7.80338 30.2335 10.909C30.218 10.8518 30.1972 10.7997 30.1817 10.7425C28.1031 4.66656 22.3597 0.296875 15.6003 0.296875C7.09927 0.296875 0.199951 7.21555 0.199951 15.7573C0.199951 23.3886 5.68416 29.9171 13.2936 29.9171C19.3584 29.9171 23.4379 26.5046 25.3091 21.7968C26.3355 19.227 25.6046 16.2046 23.2772 14.6128Z" fill="#003668"/>
<path d="M30.3269 11.2052C29.4301 8.17764 25.2107 2.21094 17.6531 2.21094C10.5101 2.21094 5.54944 7.61062 5.54944 12.4641C5.54944 13.364 5.60127 13.7698 5.82417 14.6125C5.73086 14.2432 5.68421 13.8738 5.68421 13.5097C5.68421 8.45855 10.7226 4.9576 15.9062 4.9576C22.9196 4.9576 28.6059 10.6642 28.6059 17.7025C28.6059 23.2219 25.444 27.9973 20.8461 30.2914V30.2966C26.7709 28.143 31.0059 22.4468 31.0059 15.757C31.0059 14.1704 30.7934 12.7762 30.3269 11.2052Z" fill="#E6002D"/>
</g>
<defs>
<clipPath id="clip0_2462_23429">
<rect width="97" height="30" fill="white" transform="translate(0.199951 0.296875)"/>
</clipPath>
</defs>
</svg>
