<svg width="316" height="48" viewBox="0 0 316 48" fill="none" xmlns="http://www.w3.org/2000/svg">
<g opacity="0.5">
<path d="M38.5145 8H33.7012V40H38.5145V8Z" fill="url(#paint0_linear_415_21227)"/>
<path d="M71.3681 13.2452H81.1415V8.30151H71.3681C66.767 8.30151 63.0306 12.0386 62.8103 16.7058H62.7695V17.1248V31.0509V31.4699H62.8103C63.0306 36.1371 66.767 39.8742 71.3681 39.8742H81.1415V34.9305H71.3681C69.2797 34.9305 67.591 33.1876 67.591 31.0509V25.0598H81.1415V20.1161H67.591V17.1248C67.5828 14.9881 69.2797 13.2452 71.3681 13.2452Z" fill="url(#paint1_linear_415_21227)"/>
<path d="M52.5062 21.3395H50.2872H48.9248C46.8363 21.3395 45.1476 19.5966 45.1476 17.4599V17.1248C45.1476 14.9797 46.8445 13.2452 48.9248 13.2452H58.6982V8.30151H48.9248C44.2584 8.30151 40.4649 12.1475 40.3507 16.9153H40.3262V17.4599C40.3262 22.3282 44.1849 26.2916 48.9248 26.2916H51.6333H52.5062C54.5947 26.2916 56.2834 28.0344 56.2834 30.1711V30.7158V31.0509C56.2834 33.196 54.5865 34.9305 52.5062 34.9305H41.3459V39.8742H52.5062C57.246 39.8742 61.1048 35.9108 61.1048 31.0425V30.7074V30.1711V29.6265H61.0477C60.7703 25.0179 57.0666 21.3395 52.5062 21.3395Z" fill="url(#paint2_linear_415_21227)"/>
<path d="M26.4485 30.8581C26.4485 33.0032 24.7516 34.7377 22.6713 34.7377H22.141H21.8147C19.7262 34.7377 18.0375 32.9948 18.0375 30.8581V8.05005H13.2242V30.8581C13.2242 33.0032 11.5274 34.7377 9.44705 34.7377H8.91678H8.59046C6.502 34.7377 4.81327 32.9948 4.81327 30.8581V8.05005H0V30.8581C0 35.7264 3.85878 39.6897 8.59862 39.6897H8.92494H9.45522H9.98549V39.6311C12.2045 39.4886 14.1951 38.5083 15.6472 36.9581C17.2135 38.634 19.3999 39.6897 21.8392 39.6897H22.1655H22.6958H23.226V39.6311C27.713 39.3462 31.2944 35.5421 31.2944 30.8581V8.05005H26.4811V30.8581H26.4485Z" fill="url(#paint3_linear_415_21227)"/>
<path d="M170.642 28.9309C170.357 28.3109 170.161 27.6238 170.055 26.9032C169.949 26.1993 169.9 25.529 169.9 24.9005C169.9 24.4732 169.924 24.0207 169.965 23.5515C170.006 23.0823 170.087 22.613 170.193 22.1606C170.308 21.7081 170.455 21.264 170.642 20.845C170.83 20.4093 171.083 20.0323 171.385 19.7055C171.695 19.3787 172.054 19.1189 172.47 18.9178C172.894 18.7167 173.383 18.6162 173.938 18.6162C174.493 18.6162 174.982 18.7167 175.407 18.9178C175.823 19.1105 176.19 19.3787 176.492 19.7055C176.793 20.0323 177.046 20.4093 177.234 20.845C177.422 21.264 177.568 21.7081 177.683 22.1606C177.789 22.613 177.87 23.0823 177.911 23.5515C177.952 24.0207 177.976 24.4732 177.976 24.9005C177.976 25.4619 177.927 26.0652 177.846 26.7021C179.192 24.7916 180 22.4454 180 19.9066C180 13.5049 174.942 8.30981 168.709 8.30981C166.963 8.30981 165.315 8.72877 163.838 9.45776C164.067 9.49128 164.295 9.54155 164.515 9.60858C164.956 9.74265 165.348 9.96051 165.682 10.2454C166.025 10.5387 166.294 10.9074 166.49 11.3431C166.686 11.7788 166.783 12.2983 166.783 12.8681C166.783 13.5468 166.588 14.1585 166.212 14.6864C165.992 14.988 165.739 15.2394 165.437 15.4405C165.527 15.4824 165.609 15.5326 165.69 15.5829C165.984 15.7756 166.245 16.027 166.449 16.3203C166.653 16.6052 166.808 16.932 166.906 17.2923C167.004 17.6442 167.053 18.0129 167.053 18.3983C167.053 19.0016 166.938 19.5379 166.726 19.9987C166.506 20.4596 166.212 20.845 165.853 21.1467C165.494 21.4483 165.07 21.6746 164.605 21.8338C164.14 21.9846 163.651 22.06 163.145 22.06C162.264 22.06 161.481 21.8421 160.804 21.4064C160.11 20.9623 159.629 20.2585 159.368 19.32L159.294 19.0603H161.693C161.815 19.3368 161.962 19.563 162.133 19.7222C162.362 19.9317 162.721 20.0406 163.202 20.0406C163.447 20.0406 163.667 19.9987 163.879 19.9066C164.091 19.8228 164.279 19.6971 164.442 19.5463C164.597 19.3954 164.728 19.2195 164.817 19.0016C164.907 18.7921 164.956 18.5491 164.956 18.281C164.956 17.8704 164.883 17.552 164.728 17.3174C164.573 17.0744 164.377 16.8984 164.132 16.7811C163.871 16.6471 163.577 16.5633 163.259 16.5298C162.916 16.4879 162.574 16.4627 162.248 16.4627H161.929V14.4434H162.248C162.778 14.4434 163.218 14.4015 163.553 14.326C163.863 14.2506 164.108 14.1585 164.271 14.0328C164.426 13.9155 164.524 13.7814 164.589 13.6138C164.654 13.4211 164.695 13.2032 164.695 12.9602C164.695 12.4324 164.564 12.0553 164.287 11.8039C164.002 11.5442 163.643 11.4185 163.202 11.4185C162.876 11.4185 162.574 11.5107 162.321 11.7201C161.652 12.2732 161.644 12.8346 161.644 12.8346L159.776 12.8262C158.299 14.7869 157.418 17.2336 157.418 19.8982C157.418 26.2999 162.476 31.4949 168.709 31.4949C170.006 31.4949 171.254 31.2603 172.412 30.8414C172.225 30.7492 172.045 30.6403 171.882 30.5146C171.352 30.104 170.936 29.5677 170.642 28.9309ZM168.692 21.1383C168.032 21.1383 167.493 20.5853 167.493 19.9066C167.493 19.2279 168.032 18.6748 168.692 18.6748C169.353 18.6748 169.892 19.2279 169.892 19.9066C169.892 20.5853 169.353 21.1383 168.692 21.1383Z" fill="url(#paint4_linear_415_21227)"/>
<path d="M175.742 23.0656C175.693 22.7388 175.611 22.4288 175.513 22.1188C175.424 21.8255 175.301 21.5658 175.146 21.3395C175.007 21.1217 174.828 20.9541 174.624 20.8284C174.428 20.7111 174.192 20.644 173.922 20.644C173.645 20.644 173.408 20.7027 173.221 20.8284C173.017 20.9541 172.846 21.13 172.699 21.3395C172.552 21.5658 172.43 21.8339 172.332 22.1188C172.234 22.4204 172.16 22.7388 172.103 23.0656C172.046 23.3924 172.013 23.7192 171.997 24.0376C171.981 24.3644 171.973 24.6493 171.973 24.909C171.973 25.2777 171.997 25.7218 172.038 26.2329C172.079 26.7273 172.177 27.2049 172.323 27.6658C172.462 28.1015 172.666 28.4702 172.935 28.7718C173.172 29.04 173.49 29.1656 173.914 29.1656C174.33 29.1656 174.648 29.0316 174.893 28.7718C175.162 28.4702 175.366 28.1015 175.505 27.6658C175.652 27.2049 175.742 26.7273 175.791 26.2329C175.831 25.7218 175.856 25.2777 175.856 24.909C175.856 24.6493 175.848 24.3644 175.831 24.0376C175.831 23.7192 175.799 23.3924 175.742 23.0656Z" fill="url(#paint5_linear_415_21227)"/>
<path d="M177.829 26.7021C177.91 26.0653 177.959 25.462 177.959 24.9006C177.959 24.4732 177.935 24.0208 177.894 23.5515C177.853 23.0823 177.772 22.6131 177.666 22.1606C177.551 21.7081 177.405 21.264 177.217 20.8451C177.021 20.4094 176.776 20.0323 176.475 19.7055C176.165 19.3787 175.806 19.119 175.39 18.9179C174.965 18.7168 174.476 18.6162 173.921 18.6162C173.366 18.6162 172.877 18.7168 172.453 18.9179C172.037 19.1106 171.669 19.3787 171.368 19.7055C171.066 20.0323 170.813 20.4094 170.625 20.8451C170.438 21.264 170.291 21.7081 170.176 22.1606C170.062 22.6131 169.989 23.0823 169.948 23.5515C169.907 24.0124 169.883 24.4649 169.883 24.9006C169.883 25.5206 169.932 26.191 170.038 26.9032C170.144 27.6238 170.34 28.3025 170.625 28.931C170.919 29.5678 171.335 30.104 171.849 30.5314C172.012 30.6654 172.192 30.766 172.379 30.8582C174.598 30.0705 176.491 28.6042 177.829 26.7021ZM175.797 26.2245C175.757 26.7189 175.659 27.1965 175.512 27.6573C175.373 28.093 175.169 28.4617 174.9 28.7634C174.663 29.0315 174.345 29.1572 173.921 29.1572C173.505 29.1572 173.187 29.0231 172.942 28.7634C172.673 28.4617 172.469 28.093 172.33 27.6573C172.183 27.1965 172.094 26.7189 172.045 26.2245C172.004 25.7134 171.979 25.2693 171.979 24.9006C171.979 24.6408 171.988 24.3559 172.004 24.0291C172.02 23.7107 172.053 23.384 172.11 23.0572C172.159 22.7304 172.24 22.412 172.338 22.1103C172.428 21.8254 172.55 21.5573 172.705 21.3311C172.844 21.1132 173.024 20.9456 173.228 20.8199C173.423 20.7026 173.66 20.6356 173.929 20.6356C174.207 20.6356 174.443 20.6942 174.631 20.8199C174.835 20.9456 175.006 21.1216 175.153 21.3311C175.3 21.5573 175.422 21.8254 175.52 22.1103C175.618 22.412 175.691 22.7304 175.748 23.0572C175.806 23.384 175.838 23.7107 175.855 24.0291C175.871 24.3559 175.879 24.6408 175.879 24.9006C175.863 25.2693 175.846 25.7134 175.797 26.2245Z" fill="white"/>
<path d="M162.304 11.7284C162.565 11.519 162.859 11.4268 163.185 11.4268C163.626 11.4268 163.985 11.5525 164.27 11.8122C164.547 12.0636 164.678 12.4407 164.678 12.9686C164.678 13.2115 164.645 13.4294 164.572 13.6221C164.515 13.7897 164.409 13.9238 164.254 14.0411C164.091 14.1668 163.846 14.2673 163.536 14.3344C163.21 14.4098 162.769 14.4517 162.231 14.4517H161.912V16.471H162.231C162.557 16.471 162.9 16.4962 163.242 16.5381C163.56 16.58 163.854 16.6638 164.115 16.7894C164.36 16.9068 164.556 17.0911 164.711 17.3257C164.866 17.5603 164.939 17.8787 164.939 18.2893C164.939 18.5574 164.89 18.8004 164.8 19.0099C164.711 19.2194 164.58 19.4037 164.425 19.5546C164.262 19.7054 164.074 19.8311 163.862 19.9149C163.65 19.9987 163.43 20.0489 163.185 20.0489C162.704 20.0489 162.345 19.94 162.116 19.7305C161.953 19.5713 161.806 19.3535 161.676 19.0686H159.277L159.351 19.3283C159.612 20.2668 160.101 20.9706 160.787 21.4147C161.456 21.8505 162.247 22.0683 163.128 22.0683C163.634 22.0683 164.123 21.9929 164.588 21.8421C165.053 21.6913 165.477 21.4566 165.836 21.155C166.204 20.8533 166.497 20.4595 166.709 20.007C166.93 19.5462 167.036 19.0099 167.036 18.4066C167.036 18.0212 166.987 17.6441 166.889 17.3006C166.791 16.9487 166.636 16.6219 166.432 16.3286C166.228 16.0353 165.975 15.7923 165.673 15.5912C165.592 15.541 165.51 15.4907 165.42 15.4488C165.714 15.2561 165.975 15.0047 166.195 14.6947C166.579 14.1668 166.766 13.5551 166.766 12.8764C166.766 12.2982 166.669 11.7871 166.473 11.3514C166.277 10.9157 166.008 10.547 165.665 10.2537C165.331 9.96881 164.939 9.75096 164.499 9.61689C164.278 9.54986 164.05 9.49958 163.821 9.46606C162.222 10.2537 160.827 11.41 159.759 12.8429L161.627 12.8512C161.627 12.8429 161.635 12.2815 162.304 11.7284Z" fill="white"/>
<path d="M168.691 21.1383C169.354 21.1383 169.891 20.5868 169.891 19.9065C169.891 19.2263 169.354 18.6748 168.691 18.6748C168.029 18.6748 167.492 19.2263 167.492 19.9065C167.492 20.5868 168.029 21.1383 168.691 21.1383Z" fill="white"/>
<path d="M125.3 8.30151C128.204 8.30151 130.823 9.44108 132.495 11.4269C134.91 14.2842 134.91 17.77 134.91 21.8171V39.8825H130.105V21.8171C130.105 18.3146 130.235 16.002 128.971 14.5272C128.131 13.5469 126.833 13.0022 125.3 13.0022C123.766 13.0022 122.461 13.5469 121.629 14.5272C120.364 16.002 120.495 18.3146 120.495 21.8171V39.8825H115.689V21.8171C115.689 17.7783 115.689 14.2842 118.104 11.4269C119.769 9.44108 122.395 8.30151 125.3 8.30151Z" fill="#F3981C"/>
<path d="M88.2051 32.8105V8.30151H92.9939V31.5956C92.9939 33.5395 94.5276 34.9472 96.4203 34.9472H107.426V39.8825H95.066C91.2725 39.8825 88.2051 36.6985 88.2051 32.8105Z" fill="#005FA4"/>
<path d="M113.959 8.30151H109.154V39.8825H113.959V8.30151Z" fill="#47AC49"/>
<path d="M150.077 33.6568C149.229 34.6372 147.907 35.1818 146.357 35.1818C144.807 35.1818 143.486 34.6372 142.637 33.6568C141.658 32.5257 141.454 30.9085 141.438 28.6461V19.7558C141.446 17.3678 141.626 15.6752 142.637 14.5105C143.486 13.5301 144.807 12.9855 146.357 12.9855C147.907 12.9855 149.229 13.5301 150.077 14.5105C150.575 15.0803 150.885 15.7841 151.048 16.6304H155.853C155.576 14.7116 154.972 12.9687 153.642 11.4102C151.954 9.44108 149.302 8.30151 146.357 8.30151C143.42 8.30151 140.761 9.44108 139.064 11.4269C137.041 13.7899 136.698 16.5885 136.633 19.7642L136.641 28.6545C136.714 31.738 137.098 34.4612 139.064 36.7655C140.753 38.7514 143.412 39.8909 146.357 39.8909C149.294 39.8909 151.954 38.7514 153.651 36.7655C154.98 35.207 155.584 33.4641 155.861 31.5453H151.056C150.893 32.3832 150.575 33.0871 150.077 33.6568Z" fill="#DE3923"/>
<path d="M199.08 4.27783V10.9302H197.468V9.80029H194.865V8.50537H197.468V7.40088H194.986C194.262 9.229 192.618 10.4922 190.079 11.1841L189.444 9.90186C192.098 9.20996 193.405 7.93408 193.634 6.34717H190.066V5.05225H195.398C195.398 5.42676 195.373 5.78857 195.316 6.13135H197.468V4.27783H199.08ZM191.285 13.4058C191.279 11.9775 192.859 11.0762 195.233 11.0698C197.576 11.0762 199.163 11.9775 199.169 13.4058C199.163 14.853 197.576 15.7671 195.233 15.7671C192.859 15.7671 191.279 14.853 191.285 13.4058ZM192.897 13.4058C192.897 14.123 193.767 14.4849 195.233 14.4849C196.668 14.4849 197.538 14.123 197.544 13.4058C197.538 12.6948 196.668 12.3267 195.233 12.3394C193.767 12.3267 192.897 12.6948 192.897 13.4058ZM209.744 4.27783V6.71533H211.306V8.03564H209.744V10.7905H208.119V4.27783H209.744ZM201.048 10.1685V4.82373H202.673V8.8418C204.076 8.81006 205.58 8.67676 207.18 8.36572L207.37 9.68604C205.466 10.0669 203.669 10.1685 202.038 10.1685H201.048ZM202.178 15.6782V11.311H209.744V15.6782H202.178ZM203.765 14.4087H208.157V12.5679H203.765V14.4087ZM221.805 4.26514V15.8179H220.269V10.0161H219.151V15.2593H217.666V4.45557H219.151V8.72119H220.269V4.26514H221.805ZM212.144 13.2026V5.59814H216.447V6.90576H213.769V11.8442C214.886 11.8252 215.876 11.7617 216.993 11.5649L217.107 12.8853C215.698 13.1519 214.467 13.1963 212.943 13.2026H212.144ZM229.904 5.29346V6.57568H223.049V5.29346H225.677V4.20166H227.289V5.29346H229.904ZM223.607 9.07666C223.607 7.80713 224.801 6.9502 226.477 6.94385C228.159 6.9502 229.32 7.80713 229.32 9.07666C229.32 10.3462 228.159 11.2031 226.477 11.2095C224.801 11.2031 223.607 10.3462 223.607 9.07666ZM224.433 13.2915V11.9966H232.215V15.8179H230.59V13.2915H224.433ZM225.194 9.07666C225.188 9.66699 225.702 9.97168 226.477 9.96533C227.257 9.97168 227.784 9.66699 227.784 9.07666C227.784 8.47998 227.257 8.1626 226.477 8.1626C225.702 8.1626 225.188 8.47998 225.194 9.07666ZM230.59 11.5142V4.26514H232.215V7.26123H233.776V8.58154H232.215V11.5142H230.59ZM243.869 5.26807V6.39795C243.863 7.80713 243.863 9.3877 243.438 11.7173L241.851 11.5776C242.225 9.45752 242.238 7.88965 242.244 6.55029H235.325V5.26807H243.869ZM234.284 14.4087V13.0884H236.531V9.45752H238.144V13.0884H239.413V9.45752H241.013V13.0884H244.821V14.4087H234.284ZM252.781 6.24561C252.775 7.72461 253.613 9.15918 255.485 9.76221L254.635 11.0317C253.372 10.6064 252.496 9.78125 251.994 8.72754C251.48 9.88281 250.56 10.7905 249.227 11.2476L248.325 9.96533C250.299 9.35596 251.144 7.80713 251.156 6.23291V4.97607H252.781V6.24561ZM250.179 15.6147V11.895H251.829V14.3198H258.113V15.6147H250.179ZM256.057 12.7329V4.26514H257.682V7.604H259.243V8.9751H257.682V12.7329H256.057ZM266.606 5.29346V6.57568H259.751V5.29346H262.379V4.20166H263.991V5.29346H266.606ZM260.31 9.07666C260.31 7.80713 261.503 6.9502 263.179 6.94385C264.861 6.9502 266.022 7.80713 266.022 9.07666C266.022 10.3462 264.861 11.2031 263.179 11.2095C261.503 11.2031 260.31 10.3462 260.31 9.07666ZM261.135 13.2915V11.9966H268.917V15.8179H267.292V13.2915H261.135ZM261.896 9.07666C261.89 9.66699 262.404 9.97168 263.179 9.96533C263.959 9.97168 264.486 9.66699 264.486 9.07666C264.486 8.47998 263.959 8.1626 263.179 8.1626C262.404 8.1626 261.89 8.47998 261.896 9.07666ZM267.292 11.5142V4.26514H268.917V7.26123H270.479V8.58154H268.917V11.5142H267.292ZM280.724 4.27783V12.7202H279.111V9.97803H276.471C275.912 10.5684 275.112 10.9302 274.211 10.9302C272.459 10.9302 271.126 9.66064 271.139 7.94678C271.126 6.20752 272.459 4.94434 274.211 4.93799C275.106 4.94434 275.906 5.2998 276.464 5.89014H279.111V4.27783H280.724ZM272.675 7.94678C272.668 8.91162 273.31 9.49561 274.211 9.49561C275.062 9.49561 275.715 8.91162 275.722 7.94678C275.715 6.96924 275.062 6.38525 274.211 6.38525C273.31 6.38525 272.668 6.96924 272.675 7.94678ZM273.056 15.6147V11.8696H274.681V14.3198H281.003V15.6147H273.056ZM277.163 7.18506C277.226 7.42627 277.258 7.68018 277.258 7.94678C277.258 8.20068 277.226 8.44824 277.169 8.68311H279.111V7.18506H277.163ZM291.819 4.58252V5.78857H290.309V7.31201H291.743V8.51807H283.225V7.31201H284.646V5.78857H283.148V4.58252H291.819ZM282.222 10.397V9.12744H292.759V10.397H282.222ZM283.44 12.2251V11.0571H291.477V13.9136H285.04V14.5483H291.781V15.7417H283.453V12.8091H289.877V12.2251H283.44ZM286.271 7.31201H288.684V5.78857H286.271V7.31201ZM303.385 4.27783V12.0347H301.849V8.37842H300.846V11.0825H299.335V4.48096H300.846V7.0708H301.849V4.27783H303.385ZM293.914 6.35986V5.06494H298.319V8.58154H295.488V9.71777C296.751 9.69873 297.697 9.62891 298.789 9.41943L298.929 10.689C297.602 10.9556 296.466 10.9873 294.727 10.9937H293.927V7.41357H296.758V6.35986H293.914ZM294.841 14.5103C297.31 14.1992 298.561 12.9487 298.561 11.73V11.5269H300.186V11.73C300.179 12.9487 301.423 14.1992 303.918 14.5103L303.271 15.7671C301.43 15.5068 300.084 14.7261 299.379 13.647C298.662 14.7261 297.316 15.5068 295.488 15.7671L294.841 14.5103ZM315.229 9.86377V11.146H304.692V9.86377H309.136V8.93701H305.695V7.64209H307.117V5.87744H305.619V4.58252H314.29V5.87744H312.779V7.64209H314.214V8.93701H310.761V9.86377H315.229ZM305.911 15.6909V11.9331H313.973V15.6909H305.911ZM307.511 14.396H312.386V13.2026H307.511V14.396ZM308.742 7.64209H311.154V5.87744H308.742V7.64209Z" fill="white"/>
<path d="M195.511 40.3499L189.49 19.4924H194.906L198.104 33.3206H198.276L201.906 19.4924H206.372L210.03 33.3494H210.174L213.401 19.4924H218.817L212.767 40.3499H208.042L204.24 27.5012H204.067L200.264 40.3499H195.511ZM225.789 19.4924V40.3499H220.891V19.4924H225.789ZM240.222 25.6863C240.092 24.1738 238.969 23.2664 236.966 23.2664C234.979 23.2664 233.956 24.1306 233.941 25.3118C233.913 26.6082 235.18 27.2419 237.053 27.6453L238.868 28.0774C242.886 28.9561 245.22 30.9583 245.234 34.3C245.22 38.2468 242.152 40.6235 236.966 40.6379C231.766 40.6235 228.41 38.29 228.324 33.4934H233.048C233.164 35.51 234.676 36.5471 236.909 36.5471C238.983 36.5471 240.222 35.6396 240.25 34.3C240.222 33.0901 239.156 32.4563 236.851 31.9377L234.662 31.4192C231.075 30.5837 228.871 28.7976 228.871 25.6575C228.857 21.7827 232.271 19.2043 236.995 19.2043C241.806 19.2043 244.903 21.8259 244.946 25.6863H240.222ZM255.404 40.3499H247.77V19.4924H255.404C261.771 19.4924 265.688 23.396 265.688 29.9211C265.688 36.4319 261.771 40.3499 255.404 40.3499ZM252.667 36.1438H255.231C258.803 36.1582 260.762 34.4441 260.762 29.9211C260.762 25.3838 258.803 23.6841 255.173 23.6697H252.667V36.1438ZM288.159 29.9211C288.174 36.792 283.838 40.6379 278.249 40.6379C272.631 40.6379 268.339 36.7632 268.339 29.9211C268.339 23.0359 272.631 19.2043 278.249 19.2043C283.838 19.2043 288.174 23.0359 288.159 29.9211ZM273.352 29.9211C273.352 34.0696 275.21 36.3167 278.249 36.3167C281.303 36.3167 283.161 34.0696 283.146 29.9211C283.161 25.7727 281.303 23.5112 278.249 23.5256C275.21 23.5112 273.352 25.7727 273.352 29.9211ZM291.069 19.4924H297.147L302.535 32.6292H302.765L308.152 19.4924H314.231V40.3499H309.449V27.386H309.276L304.206 40.2346H301.094L296.024 27.3284H295.851V40.3499H291.069V19.4924Z" fill="white"/>
</g>
<defs>
<linearGradient id="paint0_linear_415_21227" x1="1.43128" y1="23.5426" x2="78.349" y2="24.512" gradientUnits="userSpaceOnUse">
<stop stop-color="#005FA4"/>
<stop offset="1" stop-color="#47AC49"/>
</linearGradient>
<linearGradient id="paint1_linear_415_21227" x1="1.4378" y1="23.0941" x2="78.3561" y2="24.0635" gradientUnits="userSpaceOnUse">
<stop stop-color="#005FA4"/>
<stop offset="1" stop-color="#47AC49"/>
</linearGradient>
<linearGradient id="paint2_linear_415_21227" x1="1.43312" y1="23.4424" x2="78.3512" y2="24.4118" gradientUnits="userSpaceOnUse">
<stop stop-color="#005FA4"/>
<stop offset="1" stop-color="#47AC49"/>
</linearGradient>
<linearGradient id="paint3_linear_415_21227" x1="1.42995" y1="23.623" x2="78.3482" y2="24.5925" gradientUnits="userSpaceOnUse">
<stop stop-color="#005FA4"/>
<stop offset="1" stop-color="#47AC49"/>
</linearGradient>
<linearGradient id="paint4_linear_415_21227" x1="158.462" y1="11.5355" x2="174.805" y2="24.2152" gradientUnits="userSpaceOnUse">
<stop stop-color="#47AC49"/>
<stop offset="1" stop-color="#005FA4"/>
</linearGradient>
<linearGradient id="paint5_linear_415_21227" x1="158.124" y1="11.9723" x2="174.467" y2="24.6519" gradientUnits="userSpaceOnUse">
<stop stop-color="#47AC49"/>
<stop offset="1" stop-color="#005FA4"/>
</linearGradient>
</defs>
</svg>
