<svg width="81" height="80" viewBox="0 0 81 80" fill="none" xmlns="http://www.w3.org/2000/svg">
<path d="M78.4284 0H28.4608C27.5547 0 26.778 0.784314 26.778 1.69935C26.778 2.61438 27.5547 3.39869 28.4608 3.39869H76.875V51.7647H28.4608C27.5547 51.7647 26.778 52.549 26.778 53.4641C26.778 54.3791 27.5547 55.1634 28.4608 55.1634H78.4284C79.3346 55.1634 80.1113 54.3791 80.1113 53.4641V1.69935C80.1113 0.784314 79.3346 0 78.4284 0Z" fill="white"/>
<path d="M16.6809 51.634V43.2679C16.6809 42.3529 15.9042 41.5686 14.998 41.5686C14.0919 41.5686 13.3152 42.3529 13.3152 43.2679V51.634C13.3152 52.549 14.0919 53.3333 14.998 53.3333C15.9042 53.3333 16.6809 52.549 16.6809 51.634Z" fill="white"/>
<path d="M28.4608 38.3007C29.367 38.3007 30.1437 37.5163 30.1437 36.6013V31.634H45.1599C46.066 31.634 46.8427 30.8497 46.8427 29.9346V23.268C46.8427 22.3529 46.066 21.5686 45.1599 21.5686H26.1307C24.7068 20 23.024 18.6928 21.0822 17.9085C23.4123 16.0784 24.9657 13.2026 24.9657 9.93464C24.9657 4.44444 20.5644 0 14.9981 0C9.56117 0 5.03042 4.44444 5.03042 9.93464C5.03042 13.2026 6.58382 16.0784 8.91392 17.9085C3.73592 20.2614 0.111328 25.4902 0.111328 31.634V36.732C0.111328 37.6471 0.888027 38.4314 1.79418 38.4314H6.58382V51.7647C6.58382 52.6797 7.36052 53.4641 8.26667 53.4641C9.17282 53.4641 9.94952 52.6797 9.94952 51.7647V31.634C9.94952 30.719 9.17282 29.9346 8.26667 29.9346C7.36052 29.9346 6.58382 30.719 6.58382 31.634V34.902H3.34757V31.634C3.34757 25.2288 8.52557 20 14.9981 20C18.4932 20 21.9884 21.5686 24.189 24.3137C24.4479 24.7059 24.9657 24.9673 25.4835 24.9673H43.3476V28.2353H28.2019C27.1663 28.2353 26.3896 29.1503 26.5191 30.0654C26.5191 30.5882 26.6485 31.1111 26.6485 31.5033V34.7712H23.4123V31.5033C23.4123 30.5882 22.6356 29.8039 21.7295 29.8039C20.8233 29.8039 20.0466 30.5882 20.0466 31.5033V51.5033C20.0466 52.4183 20.8233 53.2026 21.7295 53.2026C22.6356 53.2026 23.4123 52.4183 23.4123 51.5033V38.3007H28.4608ZM8.39612 10.0654C8.39612 6.40523 11.3735 3.39869 15.1275 3.39869C18.7521 3.39869 21.8589 6.40523 21.8589 10.0654C21.8589 13.7255 18.8816 16.732 15.1275 16.732C11.3735 16.732 8.39612 13.7255 8.39612 10.0654Z" fill="white"/>
<path d="M31.6971 46.6666C31.6971 47.5817 32.4738 48.366 33.38 48.366H68.4609C69.367 48.366 70.1437 47.5817 70.1437 46.6666C70.1437 45.7516 69.367 44.9673 68.4609 44.9673H33.38C32.4738 44.9673 31.6971 45.7516 31.6971 46.6666Z" fill="white"/>
<path d="M38.299 8.36597H35.0627V11.6339H38.299V8.36597Z" fill="white"/>
<path d="M49.9495 8.36597H46.7133V11.6339H49.9495V8.36597Z" fill="white"/>
<path d="M61.6 8.36597H58.3638V11.6339H61.6V8.36597Z" fill="white"/>
<path d="M14.8686 67.8432C16.0337 66.6667 16.6809 65.0981 16.6809 63.268C16.6809 59.6079 13.7036 56.6013 9.94952 56.6013C6.32492 56.6013 3.21812 59.6079 3.21812 63.268C3.21812 65.0981 3.86537 66.6667 5.03042 67.8432C2.05308 69.5425 0.111328 72.8105 0.111328 76.6013V78.3007C0.111328 79.2157 0.888027 80 1.79418 80H18.3638C19.2699 80 20.0466 79.2157 20.0466 78.3007V76.6013C20.0466 72.9412 17.9754 69.6732 14.8686 67.8432ZM6.71327 63.268C6.71327 61.4379 8.13722 60 9.94952 60C11.7618 60 13.1858 61.4379 13.1858 63.268C13.1858 65.0981 11.7618 66.536 9.94952 66.536C8.26667 66.6667 6.71327 65.0981 6.71327 63.268ZM3.34757 76.6013C3.34757 72.9412 6.32492 69.9347 10.079 69.9347C13.7036 69.9347 16.8104 72.9412 16.8104 76.6013H3.34757Z" fill="white"/>
<path d="M44.9009 67.8432C46.066 66.6667 46.7132 65.0981 46.7132 63.268C46.7132 59.6079 43.7359 56.6013 39.9819 56.6013C36.3573 56.6013 33.2505 59.6079 33.2505 63.268C33.2505 65.0981 33.8977 66.6667 35.0628 67.8432C31.956 69.5425 29.8848 72.8105 29.8848 76.6013V78.3007C29.8848 79.2157 30.6615 80 31.5676 80H48.1372C49.0433 80 49.82 79.2157 49.82 78.3007V76.6013C49.9495 72.9412 47.8783 69.6732 44.9009 67.8432ZM36.7456 63.268C36.7456 61.4379 38.1696 60 39.9819 60C41.7941 60 43.2181 61.4379 43.2181 63.268C43.2181 65.0981 41.7941 66.536 39.9819 66.536C38.1696 66.536 36.7456 65.0981 36.7456 63.268ZM33.3799 76.6013C33.3799 72.9412 36.3573 69.9347 40.1113 69.9347C43.7359 69.9347 46.8427 72.9412 46.8427 76.6013H33.3799Z" fill="white"/>
<path d="M74.9334 67.8432C76.0984 66.6667 76.7457 65.0981 76.7457 63.268C76.7457 59.6079 73.7683 56.6013 70.0143 56.6013C66.2602 56.6013 63.2829 59.6079 63.2829 63.268C63.2829 65.0981 63.9301 66.6667 65.0952 67.8432C61.9884 69.5425 60.0466 72.8105 60.0466 76.6013V78.3007C60.0466 79.2157 60.8233 80 61.7295 80H78.2991C79.2052 80 79.9819 79.2157 79.9819 78.3007V76.6013C80.1114 72.9412 78.0402 69.6732 74.9334 67.8432ZM66.778 63.268C66.778 61.4379 68.202 60 70.0143 60C71.8266 60 73.2505 61.4379 73.2505 63.268C73.2505 65.0981 71.8266 66.536 70.0143 66.536C68.202 66.6667 66.778 65.0981 66.778 63.268ZM63.4123 76.6013C63.4123 72.9412 66.3897 69.9347 70.1437 69.9347C73.8978 69.9347 76.8751 72.9412 76.8751 76.6013H63.4123Z" fill="white"/>
</svg>
