<svg width="80" height="80" viewBox="0 0 80 80" fill="none" xmlns="http://www.w3.org/2000/svg">
<path d="M23.1715 22.2222C27.055 20.3922 30.0324 16.3399 30.0324 11.634C30.0324 5.22876 24.8544 0 18.3819 0C11.9094 0 6.73139 5.22876 6.73139 11.634C6.73139 16.3399 9.44984 20.3922 13.5922 22.2222C5.82524 24.0523 0 30.1961 0 37.5163V51.634C0 52.549 0.776699 53.3333 1.68285 53.3333H8.41424V78.3007C8.41424 79.2157 9.19094 80 10.0971 80C11.0032 80 11.7799 79.2157 11.7799 78.3007V46.6667C11.7799 45.7516 11.0032 44.9673 10.0971 44.9673C9.19094 44.9673 8.41424 45.7516 8.41424 46.6667V49.9346H3.3657V37.3856C3.3657 30.4575 10.0971 24.8366 18.3819 24.8366C26.6667 24.8366 33.3981 30.4575 33.3981 37.3856V49.9346H28.479V46.6667C28.479 45.7516 27.7023 44.9673 26.7961 44.9673C25.89 44.9673 25.1133 45.7516 25.1133 46.6667V78.3007C25.1133 79.2157 25.89 80 26.7961 80C27.7023 80 28.479 79.2157 28.479 78.3007V53.3333H35.2104C36.1165 53.3333 36.8932 52.549 36.8932 51.634V37.5163C36.6343 30.1961 30.9385 24.0523 23.1715 22.2222ZM9.96764 11.634C9.96764 7.05882 13.7217 3.26797 18.3819 3.26797C22.9126 3.26797 26.7961 7.05882 26.7961 11.634C26.7961 16.2092 23.0421 20 18.3819 20C13.5922 20 9.96764 16.2092 9.96764 11.634Z" fill="white"/>
<path d="M18.2524 58.3005C17.3463 58.3005 16.5696 59.0849 16.5696 59.9999V78.3005C16.5696 79.2156 17.3463 79.9999 18.2524 79.9999C19.1586 79.9999 19.9353 79.2156 19.9353 78.3005V59.9999C19.9353 59.0849 19.1586 58.3005 18.2524 58.3005Z" fill="white"/>
<path d="M19.8058 36.7319H16.5696V39.9999H19.8058V36.7319Z" fill="white"/>
<path d="M59.9353 40C48.932 40 39.8705 49.0196 39.8705 60C39.8705 70.9804 48.932 80 59.9353 80C70.9385 80 80 70.9804 80 60C80 49.0196 70.9385 40 59.9353 40ZM76.6343 58.3007H61.6181V43.3987C69.5146 44.183 75.8576 50.4575 76.6343 58.3007ZM43.2362 60C43.2362 51.3726 49.8382 44.3137 58.2524 43.3987V60C58.2524 60.2614 58.2524 60.3922 58.3819 60.6536C58.3819 60.7843 57.8641 59.8693 66.5372 75.2941C64.5955 76.2091 62.2654 76.6013 59.9353 76.6013C50.7443 76.6013 43.2362 69.1503 43.2362 60ZM69.5146 73.7255L62.7832 61.6993H76.5048C76.1165 66.6667 73.2686 70.9804 69.5146 73.7255Z" fill="white"/>
<path d="M48.2848 11.634H71.5857C72.4919 11.634 73.2686 10.8497 73.2686 9.9347C73.2686 9.01966 72.4919 8.23535 71.5857 8.23535H48.2848C47.3786 8.23535 46.6019 9.01966 46.6019 9.9347C46.6019 10.9804 47.3786 11.634 48.2848 11.634Z" fill="white"/>
<path d="M48.2848 21.6992H64.8544C65.7605 21.6992 66.5372 20.9149 66.5372 19.9999C66.5372 19.0849 65.7605 18.3005 64.8544 18.3005H48.2848C47.3786 18.3005 46.6019 19.0849 46.6019 19.9999C46.6019 20.9149 47.3786 21.6992 48.2848 21.6992Z" fill="white"/>
<path d="M48.2848 31.634H71.5857C72.4919 31.634 73.2686 30.8497 73.2686 29.9347C73.2686 29.0197 72.4919 28.2354 71.5857 28.2354H48.2848C47.3786 28.2354 46.6019 29.0197 46.6019 29.9347C46.6019 30.9804 47.3786 31.634 48.2848 31.634Z" fill="white"/>
</svg>
