<svg width="81" height="80" viewBox="0 0 81 80" fill="none" xmlns="http://www.w3.org/2000/svg">
<path d="M21.5339 29.7069C23.864 27.8827 25.4174 25.0163 25.4174 21.759C25.4174 16.2867 21.0161 11.8567 15.4498 11.8567C10.0129 11.8567 5.48214 16.2867 5.48214 21.759C5.48214 25.0163 7.03554 27.8827 9.36564 29.7069C4.18764 32.0521 0.563049 37.2639 0.563049 43.3876V56.6775C0.563049 57.5896 1.33975 58.3713 2.2459 58.3713H7.03554V78.3062C7.03554 79.2183 7.81224 80 8.71839 80C9.62454 80 10.4012 79.2183 10.4012 78.3062V51.5961C10.4012 50.684 9.62454 49.9023 8.71839 49.9023C7.81224 49.9023 7.03554 50.684 7.03554 51.5961V54.9837H3.7993V43.2573C3.7993 36.873 8.97729 31.6612 15.4498 31.6612C21.9223 31.6612 27.1003 36.873 27.1003 43.2573V54.9837H23.864V51.7264C23.864 50.8143 23.0873 50.0326 22.1812 50.0326C21.275 50.0326 20.4983 50.8143 20.4983 51.7264V78.3062C20.4983 79.2183 21.275 80 22.1812 80C23.0873 80 23.864 79.2183 23.864 78.3062V58.2411H28.7831C29.6893 58.2411 30.466 57.4593 30.466 56.5472V43.2573C30.5954 37.2639 26.7119 31.9218 21.5339 29.7069ZM8.84784 21.759C8.84784 18.1108 11.8252 15.114 15.5792 15.114C19.2038 15.114 22.3106 18.1108 22.3106 21.759C22.3106 25.4072 19.3333 28.4039 15.5792 28.4039C11.8252 28.4039 8.84784 25.4072 8.84784 21.759Z" fill="white"/>
<path d="M15.4498 63.1921C14.5436 63.1921 13.7669 63.9739 13.7669 64.8859V78.1759C13.7669 79.0879 14.5436 79.8697 15.4498 79.8697C16.3559 79.8697 17.1326 79.0879 17.1326 78.1759V64.8859C17.1326 63.9739 16.3559 63.1921 15.4498 63.1921Z" fill="white"/>
<path d="M17.0032 41.6938H13.7669V44.9512H17.0032V41.6938Z" fill="white"/>
<path d="M71.631 29.7069C73.9611 27.8827 75.5145 25.0163 75.5145 21.759C75.5145 16.2867 71.1132 11.8567 65.5469 11.8567C60.11 11.8567 55.5792 16.2867 55.5792 21.759C55.5792 25.0163 57.1326 27.8827 59.4627 29.7069C54.2847 32.0521 50.5307 37.2639 50.5307 43.3876V56.6775C50.5307 57.5896 51.3074 58.3713 52.2136 58.3713H57.1326V78.3062C57.1326 79.2183 57.9093 80 58.8155 80C59.7216 80 60.4983 79.2183 60.4983 78.3062V51.5961C60.4983 50.684 59.7216 49.9023 58.8155 49.9023C57.9093 49.9023 57.1326 50.684 57.1326 51.5961V54.9837H53.8964V43.2573C53.8964 36.873 59.0744 31.6612 65.5469 31.6612C72.0194 31.6612 77.1974 36.873 77.1974 43.2573V54.9837H73.7022V51.7264C73.7022 50.8143 72.9255 50.0326 72.0194 50.0326C71.1132 50.0326 70.466 50.8143 70.466 51.7264V78.3062C70.466 79.2183 71.2427 80 72.1488 80C73.055 80 73.8317 79.2183 73.8317 78.3062V58.2411H78.7508C79.6569 58.2411 80.4336 57.4593 80.4336 56.5472V43.2573C80.5631 37.2639 76.9385 31.9218 71.631 29.7069ZM58.8155 21.759C58.8155 18.1108 61.7928 15.114 65.5469 15.114C69.1715 15.114 72.2783 18.1108 72.2783 21.759C72.2783 25.4072 69.3009 28.4039 65.5469 28.4039C61.7928 28.4039 58.8155 25.4072 58.8155 21.759Z" fill="white"/>
<path d="M65.5469 63.1921C64.6407 63.1921 63.864 63.9739 63.864 64.8859V78.1759C63.864 79.0879 64.6407 79.8697 65.5469 79.8697C66.453 79.8697 67.2297 79.0879 67.2297 78.1759V64.8859C67.2297 63.9739 66.453 63.1921 65.5469 63.1921Z" fill="white"/>
<path d="M67.1003 41.6938H63.864V44.9512H67.1003V41.6938Z" fill="white"/>
<path d="M50.4013 28.4039C51.3074 28.4039 52.0841 27.6221 52.0841 26.7101C52.0841 25.798 51.3074 25.0163 50.4013 25.0163H48.7184V23.7134C51.8252 21.2378 53.6375 17.329 53.6375 13.2899C53.7669 5.99348 47.6828 0 40.4336 0C33.055 0 27.1003 5.99348 27.1003 13.2899C27.1003 17.329 28.9126 21.1075 32.0194 23.7134V25.0163H30.3365C29.4304 25.0163 28.6537 25.798 28.6537 26.7101C28.6537 27.6221 29.4304 28.4039 30.3365 28.4039H32.0194V31.6612C32.0194 32.5733 32.7961 33.355 33.7022 33.355H35.3851V38.3062C35.3851 39.2182 36.1618 40 37.0679 40H43.7993C44.7055 40 45.4822 39.2182 45.4822 38.3062V33.355H47.165C48.0712 33.355 48.8479 32.5733 48.8479 31.6612V28.4039H50.4013ZM34.7378 21.6287C32.0194 19.8046 30.466 16.6775 30.466 13.4202C30.466 7.94788 34.8673 3.51792 40.4336 3.51792C46 3.51792 50.4013 7.94788 50.4013 13.4202C50.4013 16.6775 48.8479 19.6743 46.1294 21.6287C45.7411 21.8892 45.4822 22.4104 45.4822 22.9316V25.0163H42.2459V15.114C42.2459 14.202 41.4692 13.4202 40.5631 13.4202C39.6569 13.4202 38.8802 14.202 38.8802 15.114V25.0163H35.644V22.9316C35.5145 22.4104 35.2556 21.8892 34.7378 21.6287ZM42.2459 36.7427H39.0097V33.4853H42.2459V36.7427ZM45.4822 30.0977C41.7281 30.0977 38.7508 30.0977 35.5145 30.0977V28.4039H45.4822V30.0977Z" fill="white"/>
</svg>
