<svg width="80" height="80" viewBox="0 0 80 80" fill="none" xmlns="http://www.w3.org/2000/svg">
<path d="M18.2524 58.3005C17.3463 58.3005 16.5696 59.0849 16.5696 59.9999V78.3005C16.5696 79.2156 17.3463 79.9999 18.2524 79.9999C19.1586 79.9999 19.9353 79.2156 19.9353 78.3005V59.9999C19.9353 59.0849 19.1586 58.3005 18.2524 58.3005Z" fill="white"/>
<path d="M19.8058 36.7319H16.5696V39.9999H19.8058V36.7319Z" fill="white"/>
<path d="M71.5857 16.732C76.1165 16.732 80 12.9412 80 8.36601C80 3.79085 76.2459 0 71.5857 0C67.055 0 63.1715 3.79085 63.1715 8.36601C63.1715 12.9412 67.055 16.732 71.5857 16.732ZM71.5857 3.39869C74.3042 3.39869 76.5048 5.62092 76.5048 8.36601C76.5048 11.1111 74.3042 13.3333 71.5857 13.3333C68.8673 13.3333 66.6667 11.1111 66.6667 8.36601C66.6667 5.62092 68.8673 3.39869 71.5857 3.39869Z" fill="white"/>
<path d="M71.5857 31.634C67.055 31.634 63.1715 35.4249 63.1715 40C63.1715 44.5752 66.9256 48.3661 71.5857 48.3661C76.1165 48.3661 80 44.5752 80 40C80 35.4249 76.2459 31.634 71.5857 31.634ZM71.5857 44.9674C68.8673 44.9674 66.6667 42.7451 66.6667 40C66.6667 37.2549 68.8673 35.0327 71.5857 35.0327C74.3042 35.0327 76.5048 37.2549 76.5048 40C76.5048 42.7451 74.4336 44.9674 71.5857 44.9674Z" fill="white"/>
<path d="M71.5857 63.2681C67.055 63.2681 63.1715 67.0589 63.1715 71.6341C63.1715 76.2092 66.9256 80.0001 71.5857 80.0001C76.1165 80.0001 80 76.2092 80 71.6341C80 67.0589 76.2459 63.2681 71.5857 63.2681ZM71.5857 76.6014C68.8673 76.6014 66.6667 74.3792 66.6667 71.6341C66.6667 68.889 68.8673 66.6668 71.5857 66.6668C74.3042 66.6668 76.5048 68.889 76.5048 71.6341C76.6343 74.3792 74.4336 76.6014 71.5857 76.6014Z" fill="white"/>
<path d="M56.5696 10.0654C57.4757 10.0654 58.2524 9.28105 58.2524 8.36601C58.2524 7.45098 57.4757 6.66667 56.5696 6.66667H44.9191C44.0129 6.66667 43.2363 7.45098 43.2363 8.36601V38.3007H36.6343V37.5163C36.6343 30.1961 30.8091 24.183 23.1715 22.2222C27.055 20.3922 30.0324 16.3399 30.0324 11.634C30.0324 5.22876 24.8544 0 18.3819 0C11.9094 0 6.73139 5.22876 6.73139 11.634C6.73139 16.3399 9.44984 20.3922 13.5922 22.2222C5.82524 24.0523 0 30.1961 0 37.5163V51.634C0 52.549 0.776699 53.3333 1.68285 53.3333H8.41424V78.3007C8.41424 79.2157 9.19094 80 10.0971 80C11.0032 80 11.7799 79.2157 11.7799 78.3007V46.6667C11.7799 45.7516 11.0032 44.9673 10.0971 44.9673C9.19094 44.9673 8.41424 45.7516 8.41424 46.6667V49.9346H3.3657V37.3856C3.3657 30.4575 10.0971 24.8366 18.3819 24.8366C26.6667 24.8366 33.3981 30.4575 33.3981 37.3856V49.9346H28.479V46.6667C28.479 45.7516 27.7023 44.9673 26.7961 44.9673C25.89 44.9673 25.1133 45.7516 25.1133 46.6667V78.3007C25.1133 79.2157 25.89 80 26.7961 80C27.7023 80 28.479 79.2157 28.479 78.3007V53.3333H35.2104C36.1165 53.3333 36.8932 52.549 36.8932 51.634V41.6993H43.2363V71.634C43.2363 72.549 44.0129 73.3333 44.9191 73.3333H56.5696C57.4757 73.3333 58.2524 72.549 58.2524 71.634C58.2524 70.719 57.4757 69.9346 56.5696 69.9346H46.6019V41.6993H56.5696C57.4757 41.6993 58.2524 40.915 58.2524 40C58.2524 39.085 57.4757 38.3007 56.5696 38.3007H46.6019V10.0654H56.5696ZM9.96764 11.634C9.96764 7.05882 13.7217 3.26797 18.3819 3.26797C23.0421 3.26797 26.7961 7.05882 26.7961 11.634C26.7961 16.2092 23.0421 20 18.3819 20C13.5922 20 9.96764 16.2092 9.96764 11.634Z" fill="white"/>
</svg>
