<svg width="316" height="46" viewBox="0 0 316 46" fill="none" xmlns="http://www.w3.org/2000/svg">
<path d="M38.5145 7H33.7012V39H38.5145V7Z" fill="url(#paint0_linear_339_9025)"/>
<path d="M71.3681 12.2452H81.1415V7.30151H71.3681C66.767 7.30151 63.0306 11.0386 62.8103 15.7058H62.7695V16.1248V30.0509V30.4699H62.8103C63.0306 35.1371 66.767 38.8742 71.3681 38.8742H81.1415V33.9305H71.3681C69.2797 33.9305 67.591 32.1876 67.591 30.0509V24.0598H81.1415V19.1161H67.591V16.1248C67.5828 13.9881 69.2797 12.2452 71.3681 12.2452Z" fill="url(#paint1_linear_339_9025)"/>
<path d="M52.5062 20.3395H50.2872H48.9248C46.8363 20.3395 45.1476 18.5966 45.1476 16.4599V16.1248C45.1476 13.9797 46.8445 12.2452 48.9248 12.2452H58.6982V7.30151H48.9248C44.2584 7.30151 40.4649 11.1475 40.3507 15.9153H40.3262V16.4599C40.3262 21.3282 44.1849 25.2916 48.9248 25.2916H51.6333H52.5062C54.5947 25.2916 56.2834 27.0344 56.2834 29.1711V29.7158V30.0509C56.2834 32.196 54.5865 33.9305 52.5062 33.9305H41.3459V38.8742H52.5062C57.246 38.8742 61.1048 34.9108 61.1048 30.0425V29.7074V29.1711V28.6265H61.0477C60.7703 24.0179 57.0666 20.3395 52.5062 20.3395Z" fill="url(#paint2_linear_339_9025)"/>
<path d="M26.4485 29.8581C26.4485 32.0032 24.7516 33.7377 22.6713 33.7377H22.141H21.8147C19.7262 33.7377 18.0375 31.9948 18.0375 29.8581V7.05005H13.2242V29.8581C13.2242 32.0032 11.5274 33.7377 9.44705 33.7377H8.91678H8.59046C6.502 33.7377 4.81327 31.9948 4.81327 29.8581V7.05005H0V29.8581C0 34.7264 3.85878 38.6897 8.59862 38.6897H8.92494H9.45522H9.98549V38.6311C12.2045 38.4886 14.1951 37.5083 15.6472 35.9581C17.2135 37.634 19.3999 38.6897 21.8392 38.6897H22.1655H22.6958H23.226V38.6311C27.713 38.3462 31.2944 34.5421 31.2944 29.8581V7.05005H26.4811V29.8581H26.4485Z" fill="url(#paint3_linear_339_9025)"/>
<path d="M170.642 27.9309C170.357 27.3109 170.161 26.6238 170.055 25.9032C169.949 25.1993 169.9 24.529 169.9 23.9005C169.9 23.4732 169.924 23.0207 169.965 22.5515C170.006 22.0823 170.087 21.613 170.193 21.1606C170.308 20.7081 170.455 20.264 170.642 19.845C170.83 19.4093 171.083 19.0323 171.385 18.7055C171.695 18.3787 172.054 18.1189 172.47 17.9178C172.894 17.7167 173.383 17.6162 173.938 17.6162C174.493 17.6162 174.982 17.7167 175.407 17.9178C175.823 18.1105 176.19 18.3787 176.492 18.7055C176.793 19.0323 177.046 19.4093 177.234 19.845C177.422 20.264 177.568 20.7081 177.683 21.1606C177.789 21.613 177.87 22.0823 177.911 22.5515C177.952 23.0207 177.976 23.4732 177.976 23.9005C177.976 24.4619 177.927 25.0652 177.846 25.7021C179.192 23.7916 180 21.4454 180 18.9066C180 12.5049 174.942 7.30981 168.709 7.30981C166.963 7.30981 165.315 7.72877 163.838 8.45776C164.067 8.49128 164.295 8.54155 164.515 8.60858C164.956 8.74265 165.348 8.96051 165.682 9.2454C166.025 9.53867 166.294 9.90735 166.49 10.3431C166.686 10.7788 166.783 11.2983 166.783 11.8681C166.783 12.5468 166.588 13.1585 166.212 13.6864C165.992 13.988 165.739 14.2394 165.437 14.4405C165.527 14.4824 165.609 14.5326 165.69 14.5829C165.984 14.7756 166.245 15.027 166.449 15.3203C166.653 15.6052 166.808 15.932 166.906 16.2923C167.004 16.6442 167.053 17.0129 167.053 17.3983C167.053 18.0016 166.938 18.5379 166.726 18.9987C166.506 19.4596 166.212 19.845 165.853 20.1467C165.494 20.4483 165.07 20.6746 164.605 20.8338C164.14 20.9846 163.651 21.06 163.145 21.06C162.264 21.06 161.481 20.8421 160.804 20.4064C160.11 19.9623 159.629 19.2585 159.368 18.32L159.294 18.0603H161.693C161.815 18.3368 161.962 18.563 162.133 18.7222C162.362 18.9317 162.721 19.0406 163.202 19.0406C163.447 19.0406 163.667 18.9987 163.879 18.9066C164.091 18.8228 164.279 18.6971 164.442 18.5463C164.597 18.3954 164.728 18.2195 164.817 18.0016C164.907 17.7921 164.956 17.5491 164.956 17.281C164.956 16.8704 164.883 16.552 164.728 16.3174C164.573 16.0744 164.377 15.8984 164.132 15.7811C163.871 15.6471 163.577 15.5633 163.259 15.5298C162.916 15.4879 162.574 15.4627 162.248 15.4627H161.929V13.4434H162.248C162.778 13.4434 163.218 13.4015 163.553 13.326C163.863 13.2506 164.108 13.1585 164.271 13.0328C164.426 12.9155 164.524 12.7814 164.589 12.6138C164.654 12.4211 164.695 12.2032 164.695 11.9602C164.695 11.4324 164.564 11.0553 164.287 10.8039C164.002 10.5442 163.643 10.4185 163.202 10.4185C162.876 10.4185 162.574 10.5107 162.321 10.7201C161.652 11.2732 161.644 11.8346 161.644 11.8346L159.776 11.8262C158.299 13.7869 157.418 16.2336 157.418 18.8982C157.418 25.2999 162.476 30.4949 168.709 30.4949C170.006 30.4949 171.254 30.2603 172.412 29.8414C172.225 29.7492 172.045 29.6403 171.882 29.5146C171.352 29.104 170.936 28.5677 170.642 27.9309ZM168.692 20.1383C168.032 20.1383 167.493 19.5853 167.493 18.9066C167.493 18.2279 168.032 17.6748 168.692 17.6748C169.353 17.6748 169.892 18.2279 169.892 18.9066C169.892 19.5853 169.353 20.1383 168.692 20.1383Z" fill="url(#paint4_linear_339_9025)"/>
<path d="M175.742 22.0656C175.693 21.7388 175.611 21.4288 175.513 21.1188C175.424 20.8255 175.301 20.5658 175.146 20.3395C175.007 20.1217 174.828 19.9541 174.624 19.8284C174.428 19.7111 174.192 19.644 173.922 19.644C173.645 19.644 173.408 19.7027 173.221 19.8284C173.017 19.9541 172.846 20.13 172.699 20.3395C172.552 20.5658 172.43 20.8339 172.332 21.1188C172.234 21.4204 172.16 21.7388 172.103 22.0656C172.046 22.3924 172.013 22.7192 171.997 23.0376C171.981 23.3644 171.973 23.6493 171.973 23.909C171.973 24.2777 171.997 24.7218 172.038 25.2329C172.079 25.7273 172.177 26.2049 172.323 26.6658C172.462 27.1015 172.666 27.4702 172.935 27.7718C173.172 28.04 173.49 28.1656 173.914 28.1656C174.33 28.1656 174.648 28.0316 174.893 27.7718C175.162 27.4702 175.366 27.1015 175.505 26.6658C175.652 26.2049 175.742 25.7273 175.791 25.2329C175.831 24.7218 175.856 24.2777 175.856 23.909C175.856 23.6493 175.848 23.3644 175.831 23.0376C175.831 22.7192 175.799 22.3924 175.742 22.0656Z" fill="url(#paint5_linear_339_9025)"/>
<path d="M177.829 25.7021C177.91 25.0653 177.959 24.462 177.959 23.9006C177.959 23.4732 177.935 23.0208 177.894 22.5515C177.853 22.0823 177.772 21.6131 177.666 21.1606C177.551 20.7081 177.405 20.264 177.217 19.8451C177.021 19.4094 176.776 19.0323 176.475 18.7055C176.165 18.3787 175.806 18.119 175.39 17.9179C174.965 17.7168 174.476 17.6162 173.921 17.6162C173.366 17.6162 172.877 17.7168 172.453 17.9179C172.037 18.1106 171.669 18.3787 171.368 18.7055C171.066 19.0323 170.813 19.4094 170.625 19.8451C170.438 20.264 170.291 20.7081 170.176 21.1606C170.062 21.6131 169.989 22.0823 169.948 22.5515C169.907 23.0124 169.883 23.4649 169.883 23.9006C169.883 24.5206 169.932 25.191 170.038 25.9032C170.144 26.6238 170.34 27.3025 170.625 27.931C170.919 28.5678 171.335 29.104 171.849 29.5314C172.012 29.6654 172.192 29.766 172.379 29.8582C174.598 29.0705 176.491 27.6042 177.829 25.7021ZM175.797 25.2245C175.757 25.7189 175.659 26.1965 175.512 26.6573C175.373 27.093 175.169 27.4617 174.9 27.7634C174.663 28.0315 174.345 28.1572 173.921 28.1572C173.505 28.1572 173.187 28.0231 172.942 27.7634C172.673 27.4617 172.469 27.093 172.33 26.6573C172.183 26.1965 172.094 25.7189 172.045 25.2245C172.004 24.7134 171.979 24.2693 171.979 23.9006C171.979 23.6408 171.988 23.3559 172.004 23.0291C172.02 22.7107 172.053 22.384 172.11 22.0572C172.159 21.7304 172.24 21.412 172.338 21.1103C172.428 20.8254 172.55 20.5573 172.705 20.3311C172.844 20.1132 173.024 19.9456 173.228 19.8199C173.423 19.7026 173.66 19.6356 173.929 19.6356C174.207 19.6356 174.443 19.6942 174.631 19.8199C174.835 19.9456 175.006 20.1216 175.153 20.3311C175.3 20.5573 175.422 20.8254 175.52 21.1103C175.618 21.412 175.691 21.7304 175.748 22.0572C175.806 22.384 175.838 22.7107 175.855 23.0291C175.871 23.3559 175.879 23.6408 175.879 23.9006C175.863 24.2693 175.846 24.7134 175.797 25.2245Z" fill="white"/>
<path d="M162.304 10.7284C162.565 10.519 162.859 10.4268 163.185 10.4268C163.626 10.4268 163.985 10.5525 164.27 10.8122C164.547 11.0636 164.678 11.4407 164.678 11.9686C164.678 12.2115 164.645 12.4294 164.572 12.6221C164.515 12.7897 164.409 12.9238 164.254 13.0411C164.091 13.1668 163.846 13.2673 163.536 13.3344C163.21 13.4098 162.769 13.4517 162.231 13.4517H161.912V15.471H162.231C162.557 15.471 162.9 15.4962 163.242 15.5381C163.56 15.58 163.854 15.6638 164.115 15.7894C164.36 15.9068 164.556 16.0911 164.711 16.3257C164.866 16.5603 164.939 16.8787 164.939 17.2893C164.939 17.5574 164.89 17.8004 164.8 18.0099C164.711 18.2194 164.58 18.4037 164.425 18.5546C164.262 18.7054 164.074 18.8311 163.862 18.9149C163.65 18.9987 163.43 19.0489 163.185 19.0489C162.704 19.0489 162.345 18.94 162.116 18.7305C161.953 18.5713 161.806 18.3535 161.676 18.0686H159.277L159.351 18.3283C159.612 19.2668 160.101 19.9706 160.787 20.4147C161.456 20.8505 162.247 21.0683 163.128 21.0683C163.634 21.0683 164.123 20.9929 164.588 20.8421C165.053 20.6913 165.477 20.4566 165.836 20.155C166.204 19.8533 166.497 19.4595 166.709 19.007C166.93 18.5462 167.036 18.0099 167.036 17.4066C167.036 17.0212 166.987 16.6441 166.889 16.3006C166.791 15.9487 166.636 15.6219 166.432 15.3286C166.228 15.0353 165.975 14.7923 165.673 14.5912C165.592 14.541 165.51 14.4907 165.42 14.4488C165.714 14.2561 165.975 14.0047 166.195 13.6947C166.579 13.1668 166.766 12.5551 166.766 11.8764C166.766 11.2982 166.669 10.7871 166.473 10.3514C166.277 9.91566 166.008 9.54698 165.665 9.25371C165.331 8.96881 164.939 8.75096 164.499 8.61689C164.278 8.54986 164.05 8.49958 163.821 8.46606C162.222 9.25371 160.827 10.41 159.759 11.8429L161.627 11.8512C161.627 11.8429 161.635 11.2815 162.304 10.7284Z" fill="white"/>
<path d="M168.691 20.1383C169.354 20.1383 169.891 19.5868 169.891 18.9065C169.891 18.2263 169.354 17.6748 168.691 17.6748C168.029 17.6748 167.492 18.2263 167.492 18.9065C167.492 19.5868 168.029 20.1383 168.691 20.1383Z" fill="white"/>
<path d="M125.3 7.30151C128.204 7.30151 130.823 8.44108 132.495 10.4269C134.91 13.2842 134.91 16.77 134.91 20.8171V38.8825H130.105V20.8171C130.105 17.3146 130.235 15.002 128.971 13.5272C128.131 12.5469 126.833 12.0022 125.3 12.0022C123.766 12.0022 122.461 12.5469 121.629 13.5272C120.364 15.002 120.495 17.3146 120.495 20.8171V38.8825H115.689V20.8171C115.689 16.7783 115.689 13.2842 118.104 10.4269C119.769 8.44108 122.395 7.30151 125.3 7.30151Z" fill="#F3981C"/>
<path d="M88.2051 31.8105V7.30151H92.9939V30.5956C92.9939 32.5395 94.5276 33.9472 96.4203 33.9472H107.426V38.8825H95.066C91.2725 38.8825 88.2051 35.6985 88.2051 31.8105Z" fill="#005FA4"/>
<path d="M113.959 7.30151H109.154V38.8825H113.959V7.30151Z" fill="#47AC49"/>
<path d="M150.077 32.6568C149.229 33.6372 147.907 34.1818 146.357 34.1818C144.807 34.1818 143.486 33.6372 142.637 32.6568C141.658 31.5257 141.454 29.9085 141.438 27.6461V18.7558C141.446 16.3678 141.626 14.6752 142.637 13.5105C143.486 12.5301 144.807 11.9855 146.357 11.9855C147.907 11.9855 149.229 12.5301 150.077 13.5105C150.575 14.0803 150.885 14.7841 151.048 15.6304H155.853C155.576 13.7116 154.972 11.9687 153.642 10.4102C151.954 8.44108 149.302 7.30151 146.357 7.30151C143.42 7.30151 140.761 8.44108 139.064 10.4269C137.041 12.7899 136.698 15.5885 136.633 18.7642L136.641 27.6545C136.714 30.738 137.098 33.4612 139.064 35.7655C140.753 37.7514 143.412 38.8909 146.357 38.8909C149.294 38.8909 151.954 37.7514 153.651 35.7655C154.98 34.207 155.584 32.4641 155.861 30.5453H151.056C150.893 31.3832 150.575 32.0871 150.077 32.6568Z" fill="#DE3923"/>
<path d="M199.08 3.27783V9.93018H197.468V8.80029H194.865V7.50537H197.468V6.40088H194.986C194.262 8.229 192.618 9.49219 190.079 10.1841L189.444 8.90186C192.098 8.20996 193.405 6.93408 193.634 5.34717H190.066V4.05225H195.398C195.398 4.42676 195.373 4.78857 195.316 5.13135H197.468V3.27783H199.08ZM191.285 12.4058C191.279 10.9775 192.859 10.0762 195.233 10.0698C197.576 10.0762 199.163 10.9775 199.169 12.4058C199.163 13.853 197.576 14.7671 195.233 14.7671C192.859 14.7671 191.279 13.853 191.285 12.4058ZM192.897 12.4058C192.897 13.123 193.767 13.4849 195.233 13.4849C196.668 13.4849 197.538 13.123 197.544 12.4058C197.538 11.6948 196.668 11.3267 195.233 11.3394C193.767 11.3267 192.897 11.6948 192.897 12.4058ZM209.744 3.27783V5.71533H211.306V7.03564H209.744V9.79053H208.119V3.27783H209.744ZM201.048 9.16846V3.82373H202.673V7.8418C204.076 7.81006 205.58 7.67676 207.18 7.36572L207.37 8.68604C205.466 9.06689 203.669 9.16846 202.038 9.16846H201.048ZM202.178 14.6782V10.311H209.744V14.6782H202.178ZM203.765 13.4087H208.157V11.5679H203.765V13.4087ZM221.805 3.26514V14.8179H220.269V9.01611H219.151V14.2593H217.666V3.45557H219.151V7.72119H220.269V3.26514H221.805ZM212.144 12.2026V4.59814H216.447V5.90576H213.769V10.8442C214.886 10.8252 215.876 10.7617 216.993 10.5649L217.107 11.8853C215.698 12.1519 214.467 12.1963 212.943 12.2026H212.144ZM229.904 4.29346V5.57568H223.049V4.29346H225.677V3.20166H227.289V4.29346H229.904ZM223.607 8.07666C223.607 6.80713 224.801 5.9502 226.477 5.94385C228.159 5.9502 229.32 6.80713 229.32 8.07666C229.32 9.34619 228.159 10.2031 226.477 10.2095C224.801 10.2031 223.607 9.34619 223.607 8.07666ZM224.433 12.2915V10.9966H232.215V14.8179H230.59V12.2915H224.433ZM225.194 8.07666C225.188 8.66699 225.702 8.97168 226.477 8.96533C227.257 8.97168 227.784 8.66699 227.784 8.07666C227.784 7.47998 227.257 7.1626 226.477 7.1626C225.702 7.1626 225.188 7.47998 225.194 8.07666ZM230.59 10.5142V3.26514H232.215V6.26123H233.776V7.58154H232.215V10.5142H230.59ZM243.869 4.26807V5.39795C243.863 6.80713 243.863 8.3877 243.438 10.7173L241.851 10.5776C242.225 8.45752 242.238 6.88965 242.244 5.55029H235.325V4.26807H243.869ZM234.284 13.4087V12.0884H236.531V8.45752H238.144V12.0884H239.413V8.45752H241.013V12.0884H244.821V13.4087H234.284ZM252.781 5.24561C252.775 6.72461 253.613 8.15918 255.485 8.76221L254.635 10.0317C253.372 9.60645 252.496 8.78125 251.994 7.72754C251.48 8.88281 250.56 9.79053 249.227 10.2476L248.325 8.96533C250.299 8.35596 251.144 6.80713 251.156 5.23291V3.97607H252.781V5.24561ZM250.179 14.6147V10.895H251.829V13.3198H258.113V14.6147H250.179ZM256.057 11.7329V3.26514H257.682V6.604H259.243V7.9751H257.682V11.7329H256.057ZM266.606 4.29346V5.57568H259.751V4.29346H262.379V3.20166H263.991V4.29346H266.606ZM260.31 8.07666C260.31 6.80713 261.503 5.9502 263.179 5.94385C264.861 5.9502 266.022 6.80713 266.022 8.07666C266.022 9.34619 264.861 10.2031 263.179 10.2095C261.503 10.2031 260.31 9.34619 260.31 8.07666ZM261.135 12.2915V10.9966H268.917V14.8179H267.292V12.2915H261.135ZM261.896 8.07666C261.89 8.66699 262.404 8.97168 263.179 8.96533C263.959 8.97168 264.486 8.66699 264.486 8.07666C264.486 7.47998 263.959 7.1626 263.179 7.1626C262.404 7.1626 261.89 7.47998 261.896 8.07666ZM267.292 10.5142V3.26514H268.917V6.26123H270.479V7.58154H268.917V10.5142H267.292ZM280.724 3.27783V11.7202H279.111V8.97803H276.471C275.912 9.56836 275.112 9.93018 274.211 9.93018C272.459 9.93018 271.126 8.66064 271.139 6.94678C271.126 5.20752 272.459 3.94434 274.211 3.93799C275.106 3.94434 275.906 4.2998 276.464 4.89014H279.111V3.27783H280.724ZM272.675 6.94678C272.668 7.91162 273.31 8.49561 274.211 8.49561C275.062 8.49561 275.715 7.91162 275.722 6.94678C275.715 5.96924 275.062 5.38525 274.211 5.38525C273.31 5.38525 272.668 5.96924 272.675 6.94678ZM273.056 14.6147V10.8696H274.681V13.3198H281.003V14.6147H273.056ZM277.163 6.18506C277.226 6.42627 277.258 6.68018 277.258 6.94678C277.258 7.20068 277.226 7.44824 277.169 7.68311H279.111V6.18506H277.163ZM291.819 3.58252V4.78857H290.309V6.31201H291.743V7.51807H283.225V6.31201H284.646V4.78857H283.148V3.58252H291.819ZM282.222 9.39697V8.12744H292.759V9.39697H282.222ZM283.44 11.2251V10.0571H291.477V12.9136H285.04V13.5483H291.781V14.7417H283.453V11.8091H289.877V11.2251H283.44ZM286.271 6.31201H288.684V4.78857H286.271V6.31201ZM303.385 3.27783V11.0347H301.849V7.37842H300.846V10.0825H299.335V3.48096H300.846V6.0708H301.849V3.27783H303.385ZM293.914 5.35986V4.06494H298.319V7.58154H295.488V8.71777C296.751 8.69873 297.697 8.62891 298.789 8.41943L298.929 9.68896C297.602 9.95557 296.466 9.9873 294.727 9.99365H293.927V6.41357H296.758V5.35986H293.914ZM294.841 13.5103C297.31 13.1992 298.561 11.9487 298.561 10.73V10.5269H300.186V10.73C300.179 11.9487 301.423 13.1992 303.918 13.5103L303.271 14.7671C301.43 14.5068 300.084 13.7261 299.379 12.647C298.662 13.7261 297.316 14.5068 295.488 14.7671L294.841 13.5103ZM315.229 8.86377V10.146H304.692V8.86377H309.136V7.93701H305.695V6.64209H307.117V4.87744H305.619V3.58252H314.29V4.87744H312.779V6.64209H314.214V7.93701H310.761V8.86377H315.229ZM305.911 14.6909V10.9331H313.973V14.6909H305.911ZM307.511 13.396H312.386V12.2026H307.511V13.396ZM308.742 6.64209H311.154V4.87744H308.742V6.64209Z" fill="white"/>
<path d="M195.511 39.3499L189.49 18.4924H194.906L198.104 32.3206H198.276L201.906 18.4924H206.372L210.03 32.3494H210.174L213.401 18.4924H218.817L212.767 39.3499H208.042L204.24 26.5012H204.067L200.264 39.3499H195.511ZM225.789 18.4924V39.3499H220.891V18.4924H225.789ZM240.222 24.6863C240.092 23.1738 238.969 22.2664 236.966 22.2664C234.979 22.2664 233.956 23.1306 233.941 24.3118C233.913 25.6082 235.18 26.2419 237.053 26.6453L238.868 27.0774C242.886 27.9561 245.22 29.9583 245.234 33.3C245.22 37.2468 242.152 39.6235 236.966 39.6379C231.766 39.6235 228.41 37.29 228.324 32.4934H233.048C233.164 34.51 234.676 35.5471 236.909 35.5471C238.983 35.5471 240.222 34.6396 240.25 33.3C240.222 32.0901 239.156 31.4563 236.851 30.9377L234.662 30.4192C231.075 29.5837 228.871 27.7976 228.871 24.6575C228.857 20.7827 232.271 18.2043 236.995 18.2043C241.806 18.2043 244.903 20.8259 244.946 24.6863H240.222ZM255.404 39.3499H247.77V18.4924H255.404C261.771 18.4924 265.688 22.396 265.688 28.9211C265.688 35.4319 261.771 39.3499 255.404 39.3499ZM252.667 35.1438H255.231C258.803 35.1582 260.762 33.4441 260.762 28.9211C260.762 24.3838 258.803 22.6841 255.173 22.6697H252.667V35.1438ZM288.159 28.9211C288.174 35.792 283.838 39.6379 278.249 39.6379C272.631 39.6379 268.339 35.7632 268.339 28.9211C268.339 22.0359 272.631 18.2043 278.249 18.2043C283.838 18.2043 288.174 22.0359 288.159 28.9211ZM273.352 28.9211C273.352 33.0696 275.21 35.3167 278.249 35.3167C281.303 35.3167 283.161 33.0696 283.146 28.9211C283.161 24.7727 281.303 22.5112 278.249 22.5256C275.21 22.5112 273.352 24.7727 273.352 28.9211ZM291.069 18.4924H297.147L302.535 31.6292H302.765L308.152 18.4924H314.231V39.3499H309.449V26.386H309.276L304.206 39.2346H301.094L296.024 26.3284H295.851V39.3499H291.069V18.4924Z" fill="white"/>
<defs>
<linearGradient id="paint0_linear_339_9025" x1="1.43128" y1="22.5426" x2="78.349" y2="23.512" gradientUnits="userSpaceOnUse">
<stop stop-color="#005FA4"/>
<stop offset="1" stop-color="#47AC49"/>
</linearGradient>
<linearGradient id="paint1_linear_339_9025" x1="1.4378" y1="22.0941" x2="78.3561" y2="23.0635" gradientUnits="userSpaceOnUse">
<stop stop-color="#005FA4"/>
<stop offset="1" stop-color="#47AC49"/>
</linearGradient>
<linearGradient id="paint2_linear_339_9025" x1="1.43312" y1="22.4424" x2="78.3512" y2="23.4118" gradientUnits="userSpaceOnUse">
<stop stop-color="#005FA4"/>
<stop offset="1" stop-color="#47AC49"/>
</linearGradient>
<linearGradient id="paint3_linear_339_9025" x1="1.42995" y1="22.623" x2="78.3482" y2="23.5925" gradientUnits="userSpaceOnUse">
<stop stop-color="#005FA4"/>
<stop offset="1" stop-color="#47AC49"/>
</linearGradient>
<linearGradient id="paint4_linear_339_9025" x1="158.462" y1="10.5355" x2="174.805" y2="23.2152" gradientUnits="userSpaceOnUse">
<stop stop-color="#47AC49"/>
<stop offset="1" stop-color="#005FA4"/>
</linearGradient>
<linearGradient id="paint5_linear_339_9025" x1="158.124" y1="10.9723" x2="174.467" y2="23.6519" gradientUnits="userSpaceOnUse">
<stop stop-color="#47AC49"/>
<stop offset="1" stop-color="#005FA4"/>
</linearGradient>
</defs>
</svg>
