<svg width="26" height="25" viewBox="0 0 26 25" fill="none" xmlns="http://www.w3.org/2000/svg">
<g clip-path="url(#clip0_2870_83876)">
<path d="M20.4134 10.2772L20.3332 10.2011C20.3196 10.1883 20.304 10.1777 20.2793 10.1654L20.2572 10.1544L20.2412 10.1354C19.8657 9.69066 19.2556 9.47474 18.6692 9.62769L20.4134 10.2772ZM20.4134 10.2772L20.4958 10.2035M20.4134 10.2772L20.4958 10.2035M20.4958 10.2035C20.6748 10.0434 20.8914 9.92454 21.1308 9.86077C21.9509 9.64429 22.7962 10.136 23.0129 10.9558L23.013 10.9559L23.013 10.9561L23.0131 10.9563L23.0135 10.958L23.0152 10.9645L23.0219 10.9902L23.0479 11.0897L23.1452 11.4613C23.2281 11.7783 23.3448 12.2236 23.4795 12.7373C23.7489 13.7648 24.0907 15.0655 24.3799 16.1588C24.9247 18.2206 24.9418 19.6318 24.8106 20.5264C24.7449 20.9739 24.6423 21.2915 24.5505 21.4966C24.5045 21.5994 24.4618 21.6726 24.4289 21.7192C24.4132 21.7414 24.4009 21.756 24.3927 21.7644L24.391 21.7649L24.3319 21.7805L24.1073 21.8398L23.3004 22.0529L20.8073 22.7114C18.9644 23.1982 17.0389 23.7068 16.7084 23.7943C16.6543 23.8086 16.5825 23.805 16.4884 23.7727C16.3945 23.7405 16.2858 23.6821 16.1635 23.5972C15.9187 23.4273 15.6347 23.1621 15.326 22.8275C14.7093 22.1593 14.0101 21.2322 13.3502 20.29C12.691 19.3486 12.0736 18.3958 11.6208 17.678C11.3945 17.3192 11.2094 17.0193 11.081 16.8092C11.0167 16.7041 10.9667 16.6215 10.9327 16.5652L10.894 16.5009L10.8841 16.4845L10.8817 16.4803L10.8811 16.4793L10.8809 16.4791L10.7778 16.5405L10.8809 16.479L10.8772 16.4728L10.8728 16.4672C10.3273 15.7604 9.9756 15.1734 9.85957 14.6806C9.80219 14.4368 9.80357 14.2206 9.86427 14.0254C9.92488 13.8305 10.0475 13.6475 10.2472 13.4746L10.2474 13.4744C10.5637 13.1995 10.9542 13.2507 11.349 13.4404C11.7053 13.6116 12.0306 13.8803 12.2447 14.0572C12.2644 14.0735 12.2831 14.089 12.3009 14.1035L12.301 14.1036L12.3201 14.1258L12.3921 14.2101L12.6471 14.509L13.4176 15.4132L14.1867 16.3161L14.44 16.6135L14.5109 16.6968L14.5296 16.7187L14.5344 16.7243L14.5356 16.7258L14.5359 16.7261L14.536 16.7262L14.6274 16.6484L14.536 16.7263L14.743 16.6161L12.1518 7.34448C12.1517 7.34424 12.1516 7.34399 12.1516 7.34375C11.987 6.72214 12.3579 6.08355 12.9817 5.91902L12.9819 5.91897C13.6038 5.75388 14.2428 6.12485 14.4074 6.74895L14.4074 6.74902L15.2501 9.93563L15.3044 10.1408L15.4522 9.98856C15.6427 9.79241 15.8883 9.64798 16.1647 9.57379C16.755 9.41715 17.3677 9.62991 17.7413 10.0779L17.83 10.1843M20.4958 10.2035L17.83 10.1843M17.83 10.1843L17.9227 10.0813M17.83 10.1843L17.9227 10.0813M17.9227 10.0813C18.1196 9.86219 18.3776 9.70388 18.6691 9.6277L17.9227 10.0813ZM24.3849 21.7716C24.385 21.7715 24.3855 21.771 24.3867 21.7702C24.3855 21.7712 24.3849 21.7716 24.3849 21.7716Z" fill="white" stroke="#111111" stroke-width="0.24"/>
<path d="M15.2969 9.61523L16.5394 14.3247" stroke="#111111" stroke-linecap="round" stroke-linejoin="round"/>
<path d="M21.1 9.7448C20.842 9.8135 20.6086 9.94151 20.4158 10.114C20.391 10.0906 20.3645 10.0738 20.3329 10.058C19.9292 9.57983 19.2724 9.34633 18.6388 9.51158C18.3246 9.5937 18.0461 9.7645 17.8334 10.001C17.431 9.5184 16.7707 9.28875 16.1337 9.45785C15.8369 9.53752 15.5721 9.69291 15.3661 9.90495L14.5234 6.71835C14.3419 6.03012 13.6371 5.62087 12.9511 5.80298C12.2629 5.98449 11.8537 6.68927 12.0358 7.37527L14.6274 16.6484C14.6274 16.6484 12.3924 14.024 12.3847 14.0171C11.9737 13.6805 10.9111 12.7385 10.1687 13.3838C9.3145 14.1233 9.68404 15.1234 10.7778 16.5405C10.7778 16.5405 15.3884 24.2661 16.7389 23.9104C17.399 23.7356 24.4418 21.8756 24.4418 21.8756C24.5736 21.8396 25.5919 20.2761 24.4959 16.1281C23.9175 13.9418 23.129 10.9254 23.129 10.9254C22.8955 10.0412 21.9842 9.51126 21.1 9.7448Z" stroke="#111111" stroke-linecap="round" stroke-linejoin="round"/>
<path d="M17.8594 10.0352L18.8326 13.719" stroke="#111111" stroke-linecap="round" stroke-linejoin="round"/>
<path d="M20.4141 10.1289L21.2157 13.1584" stroke="#111111" stroke-linecap="round" stroke-linejoin="round"/>
<path d="M12.0039 3H2.00391" stroke="#114493" stroke-linecap="round" stroke-linejoin="round"/>
<path d="M4.21484 5.24368L1.55716 2.93599L4.21484 0.839844" stroke="#114493" stroke-linecap="round" stroke-linejoin="round"/>
</g>
<defs>
<clipPath id="clip0_2870_83876">
<rect width="25" height="25" fill="white" transform="translate(0.5 0.00195312)"/>
</clipPath>
</defs>
</svg>
