<svg width="260" height="163" viewBox="0 0 260 163" fill="none" xmlns="http://www.w3.org/2000/svg">
<g clip-path="url(#clip0_2215_97091)">
<path d="M249.531 56.9955C247.55 53.4815 244.241 51.1746 239.694 50.1366C236.258 49.3538 233.411 49.6297 233.383 49.6331C233.142 49.6572 232.901 49.5814 232.718 49.4228C232.535 49.2641 232.425 49.0365 232.415 48.7951C232.232 44.8398 231.015 41.8431 228.799 39.8879C225.556 37.0326 221.185 37.3567 221.144 37.3567C220.899 37.3774 220.654 37.2947 220.475 37.1257C220.293 36.9602 220.189 36.7222 220.189 36.4774C220.189 28.7564 219.372 14.9972 213.892 9.58659C204.555 0.372402 191.147 1.34141 181.875 2.87251C181.847 2.87596 181.823 2.8794 181.796 2.88285C181.73 2.8863 175.099 3.43115 171.883 7.63823C169.491 10.7694 169.987 14.242 170.597 16.2351C172.407 13.3005 174.757 11.4108 177.68 10.528C177.684 10.528 177.69 10.528 177.694 10.5246H177.701C177.708 10.5246 177.715 10.5246 177.722 10.5211C177.742 10.5142 177.763 10.5108 177.78 10.5073C177.79 10.5073 177.801 10.5073 177.811 10.5039C177.828 10.5039 177.846 10.497 177.866 10.497C177.88 10.497 177.894 10.497 177.908 10.497C177.921 10.497 177.939 10.497 177.952 10.497C177.97 10.497 177.987 10.497 178.001 10.497C178.014 10.497 178.025 10.497 178.039 10.497C178.059 10.497 178.077 10.5004 178.094 10.5039C178.101 10.5039 178.111 10.5039 178.118 10.5039C178.118 10.5039 178.121 10.5039 178.125 10.5039C178.142 10.5073 178.159 10.5108 178.18 10.5177C178.19 10.5177 178.201 10.5246 178.214 10.5246C178.228 10.528 178.239 10.5349 178.252 10.5384C178.266 10.5452 178.283 10.5487 178.297 10.5556C178.304 10.5556 178.307 10.559 178.314 10.5625C178.387 10.5935 178.456 10.6349 178.518 10.6866C178.521 10.6901 178.525 10.6935 178.531 10.697C178.549 10.7108 178.566 10.7246 178.58 10.7418C178.618 10.7797 178.652 10.8211 178.683 10.866C178.683 10.866 178.687 10.8694 178.687 10.8728C178.697 10.8901 178.707 10.9039 178.718 10.9211C178.721 10.928 178.728 10.9384 178.731 10.9453C178.738 10.9591 178.745 10.9694 178.749 10.9832C178.756 10.997 178.762 11.0108 178.769 11.0246C178.773 11.0349 178.776 11.0453 178.78 11.0522C178.787 11.0694 178.793 11.0901 178.8 11.1073C178.8 11.1073 178.8 11.1108 178.8 11.1142C178.8 11.1211 178.8 11.128 178.807 11.1349C178.814 11.1556 178.818 11.1729 178.821 11.1936C178.821 11.2039 178.824 11.2142 178.828 11.228C178.828 11.2453 178.835 11.2625 178.835 11.2798C178.835 11.2936 178.835 11.3073 178.835 11.3211C178.835 11.3349 178.835 11.3487 178.835 11.3625C178.835 11.3798 178.835 11.397 178.835 11.4142C178.835 11.4246 178.835 11.4384 178.835 11.4487C178.835 11.4694 178.831 11.4867 178.828 11.5074C178.828 11.5143 178.828 11.5212 178.828 11.528C178.79 11.735 177.997 16.4869 182.788 20.325C188.741 25.0976 199.812 22.7527 199.922 22.7285C200.353 22.6354 200.787 22.8734 200.939 23.2906L202.001 26.2149C202.862 25.9045 203.779 25.7493 204.706 25.7666C208.849 25.839 212.172 29.2322 212.117 33.3324C212.089 35.3049 211.293 37.1464 209.873 38.5257C209.184 39.1947 208.384 39.7154 207.522 40.0706C207.536 40.1293 207.543 40.1879 207.546 40.25L208.074 57.8024L228.065 61.9612C236.144 63.6406 243.176 68.1994 248.005 74.8445C248.694 73.8721 249.762 72.172 250.541 70.0029C252.179 65.4476 251.844 61.0715 249.549 56.9989L249.531 56.9955Z" fill="black"/>
<path d="M141.623 117.464C140.73 117.57 139.172 117.722 137.49 117.739C133.813 117.777 131.545 117.153 130.562 115.836C130.101 115.219 129.711 114.143 130.462 112.539C130.49 112.481 130.521 112.422 130.552 112.363C129.594 111.556 127.957 109.753 128.787 107.36C128.929 106.956 129.101 106.577 129.297 106.215C128.546 105.791 126.961 104.673 126.771 102.728C126.592 100.894 128.487 98.9421 128.87 98.5662C131.235 96.2558 134.412 94.6316 138.214 93.7557C136.222 92.228 134.685 90.8038 133.599 89.4865L122.139 105.384L120.708 104.353L125.802 97.2868C125.72 97.2489 125.64 97.2006 125.568 97.1386L97.0392 71.3582L90.5799 78.6688C90.5592 78.6895 90.5385 78.7067 90.5179 78.7274C93.4924 81.5241 95.4054 83.3276 95.4571 83.3759C95.8087 83.707 95.8293 84.2622 95.4984 84.6173L88.7635 91.859C88.5911 92.0452 88.3533 92.1418 88.1189 92.1418C87.9052 92.1418 87.6881 92.0625 87.5192 91.9073L82.7833 87.5002L72.3086 99.3559L116.562 139.53C120.343 142.965 125.234 144.672 130.331 144.337C135.429 144.003 140.051 141.671 143.353 137.771L150.454 129.388C144.391 124.747 142.247 119.45 141.623 117.474V117.464Z" fill="#6099FF"/>
<path d="M81.497 86.2899L81.4832 86.2761C81.452 86.321 81.4174 86.3695 81.3828 86.4145L81.4935 86.2864L81.497 86.2899Z" fill="white"/>
<path d="M133.567 84.5588C133.17 85.445 133.725 86.6071 134.259 87.4244C135.366 89.1141 137.496 91.097 140.584 93.3177C141.504 93.1867 142.459 93.097 143.438 93.0488C148.033 92.8143 151.597 93.5384 151.745 93.5695C152.22 93.6695 152.527 94.135 152.431 94.6109C152.331 95.0868 151.865 95.3937 151.39 95.2971C151.252 95.2695 137.551 92.5591 130.103 99.8318C129.144 100.77 128.465 101.939 128.527 102.56C128.655 103.873 130.047 104.632 130.337 104.773C135.9 98.6455 151.204 100.525 151.927 100.618C152.41 100.68 152.751 101.122 152.689 101.604C152.627 102.087 152.186 102.428 151.703 102.366C151.655 102.36 146.916 101.766 141.894 102.218C137.444 102.618 131.847 103.935 130.454 107.942C129.982 109.298 130.992 110.422 131.636 110.974C133.546 109.198 137.148 108.094 142.387 107.691C147.15 107.322 151.5 107.667 151.683 107.68C152.169 107.718 152.531 108.146 152.489 108.629C152.451 109.115 152.024 109.474 151.541 109.436C146.806 109.053 134.073 109.001 132.064 113.288C131.602 114.274 131.888 114.657 131.981 114.781C133.081 116.253 138.582 116.157 142.139 115.619C142.597 115.55 143.031 115.85 143.131 116.301C143.135 116.322 143.648 118.56 145.499 121.464C147.192 124.116 150.387 127.881 155.995 130.806L163.112 104.291C161.279 101.101 158.145 96.4282 153.627 92.2832C148.577 87.6485 142.852 84.5932 136.613 83.2001C135.955 83.0518 134.077 83.4242 133.57 84.5588H133.567Z" fill="white"/>
<path d="M173.159 49.7538C172.467 50.0193 171.019 50.6952 169.592 52.0987C167.176 54.4713 165.856 57.8059 165.652 62.0095C166.552 61.7888 167.458 61.5922 168.375 61.4233L181.611 58.9818L181.314 53.1643C178.137 52.7781 175.407 51.6367 173.156 49.7504L173.159 49.7538Z" fill="black"/>
<path d="M202.914 38.6223C203.431 38.781 203.968 38.8637 204.516 38.8741C206.067 38.9017 207.529 38.3258 208.635 37.2568C209.718 36.2085 210.321 34.8049 210.341 33.3083C210.383 30.1772 207.836 27.5874 204.661 27.5288C203.693 27.5115 202.734 27.7357 201.883 28.1771C201.88 28.1771 201.876 28.1771 201.873 28.1805C201.859 28.1874 201.845 28.1943 201.831 28.1978C201.818 28.2047 201.804 28.2116 201.787 28.215C201.783 28.215 201.78 28.215 201.776 28.2185C201.773 28.2185 201.769 28.2185 201.766 28.2185C201.721 28.2357 201.673 28.246 201.628 28.2564C201.628 28.2564 201.628 28.2564 201.625 28.2564C201.58 28.2633 201.535 28.2667 201.487 28.2667C201.483 28.2667 201.48 28.2667 201.476 28.2667C201.476 28.2667 201.473 28.2667 201.47 28.2667C201.432 28.2667 201.394 28.2633 201.352 28.2564C201.342 28.2564 201.335 28.2564 201.325 28.2529C201.287 28.246 201.252 28.2392 201.214 28.2288C201.214 28.2288 201.211 28.2288 201.208 28.2288C201.17 28.2185 201.135 28.2012 201.097 28.184C201.09 28.1805 201.08 28.1771 201.073 28.1736C201.039 28.1564 201.004 28.1357 200.973 28.115C200.973 28.115 200.966 28.1116 200.963 28.1081C200.932 28.0874 200.904 28.0633 200.877 28.0391C200.87 28.0322 200.863 28.0288 200.859 28.0219C200.832 27.9943 200.804 27.9667 200.78 27.9357C200.777 27.9288 200.77 27.9219 200.766 27.915C200.746 27.8874 200.728 27.8598 200.711 27.8322C200.708 27.8253 200.701 27.815 200.697 27.8081C200.697 27.8046 200.694 27.8012 200.691 27.7943C200.673 27.7633 200.66 27.7288 200.646 27.6943C200.646 27.6943 200.646 27.6909 200.646 27.6874L199.519 24.5873C198.405 24.7769 196.175 25.0907 193.535 25.0838C188.455 25.0735 184.463 23.9321 181.668 21.694C177.68 18.4974 177.011 14.6972 176.98 12.6592C172.958 14.4627 170.304 18.9146 168.88 26.2149C168.577 27.7771 168.384 29.3564 168.305 30.9048C168.281 31.3772 167.881 31.7531 167.412 31.7427C167.402 31.7427 167.395 31.7427 167.384 31.7427C166.44 31.7427 165.606 32.3911 165.399 33.298C165.147 34.3808 165.844 35.4739 166.954 35.7291C167.164 35.7774 167.381 35.7946 167.598 35.7774C168.06 35.7395 168.477 36.0705 168.543 36.5326C169.249 41.5294 171.007 45.364 173.764 47.9365C176.715 50.6884 180.737 51.8746 185.721 51.4643C186.769 51.3781 188.975 51.2298 188.999 51.2263C189.485 51.1918 189.906 51.5608 189.937 52.0471C189.971 52.5333 189.602 52.954 189.116 52.985C189.096 52.985 186.9 53.1368 185.866 53.2195C185.173 53.2781 184.494 53.3057 183.832 53.3057C183.581 53.3057 183.329 53.2988 183.084 53.2919L183.384 59.2094C184.277 59.7681 186.841 61.213 190.336 61.8992C195.989 63.013 201.359 61.7268 206.302 58.0818L205.775 40.5431C205.395 40.6017 205.009 40.6328 204.62 40.6328C204.575 40.6328 204.527 40.6328 204.482 40.6328C203.772 40.619 203.072 40.5086 202.4 40.3052C201.935 40.1638 201.673 39.6707 201.814 39.2051C201.955 38.7396 202.448 38.4775 202.914 38.6189V38.6223ZM174.888 26.1942C176.019 26.0977 177.011 26.9356 177.111 28.0667C177.208 29.1978 176.37 30.191 175.24 30.291C174.109 30.3875 173.116 29.5496 173.016 28.4185C172.92 27.2874 173.757 26.2942 174.888 26.1942ZM178.917 37.9844C177.856 41.0604 175.436 41.8466 173.785 41.8466C173.461 41.8466 173.165 41.8156 172.913 41.7673C172.434 41.6742 172.124 41.2087 172.22 40.7328C172.313 40.2569 172.775 39.9465 173.251 40.0396C173.554 40.0948 176.191 40.4845 177.253 37.412C177.411 36.9533 177.914 36.7085 178.373 36.8671C178.831 37.0257 179.076 37.5292 178.917 37.9878V37.9844ZM201.566 33.629C201.394 33.1738 201.621 32.6635 202.076 32.4911C204.454 31.5841 206.867 31.8841 206.967 31.8979C207.45 31.96 207.791 32.4048 207.725 32.8876C207.663 33.3704 207.222 33.7083 206.74 33.6463C206.698 33.6428 204.644 33.398 202.703 34.1394C202.6 34.1773 202.493 34.198 202.39 34.198C202.035 34.198 201.7 33.9808 201.566 33.6325V33.629Z" fill="white"/>
<path d="M81.4974 86.2899L81.3867 86.4179C81.4213 86.373 81.4525 86.3245 81.4871 86.2795L81.5009 86.2934L81.4974 86.2899Z" fill="black"/>
<path d="M82.4272 84.8174C82.5134 84.8553 82.5961 84.907 82.6719 84.9725L88.0799 90.0072L93.6154 84.0553C90.7718 81.3758 78.9632 70.2616 68.8159 60.8163C67.8646 60.7025 66.6858 60.537 65.4381 60.2922C61.3709 59.4921 58.679 58.2783 57.4313 56.6851C56.7247 55.7817 56.4696 54.7747 56.673 53.685C56.8729 52.6194 57.383 51.7504 58.1895 51.0849L54.6497 47.7882C53.919 48.8055 53.1159 49.7883 52.2404 50.7297C51.2374 51.8056 50.1758 52.7919 49.0625 53.6885L58.0103 62.0164C58.0482 62.0509 58.0792 62.0923 58.1103 62.1302C61.9672 60.4129 66.186 61.3233 67.8715 62.744C69.0055 63.7027 69.6397 64.4096 69.8741 65.0096C71.7974 65.3614 74.3721 66.62 74.9374 69.6753C76.0438 69.5822 77.1743 69.8581 78.1567 70.4857C79.5733 71.3927 80.5487 72.9582 80.9451 74.9307C81.6482 75.1169 82.7512 75.5549 83.5474 76.548C84.3402 77.5412 84.64 78.824 84.4401 80.3654C84.3746 80.8655 83.6405 82.7862 82.4341 84.8174H82.4272Z" fill="black"/>
<path d="M59.7589 52.1298C59.0006 52.5677 58.556 53.1815 58.4009 54.0057C58.2906 54.5885 58.4215 55.0954 58.8145 55.592C60.8136 58.1438 68.3792 59.1025 71.1263 59.2577C71.6123 59.2853 71.9846 59.7025 71.957 60.1887C71.9398 60.5025 71.7605 60.7681 71.502 60.9095C77.7993 66.7787 84.5273 73.0927 89.246 77.524C89.2529 77.5171 89.2563 77.5067 89.2632 77.4964L93.2856 72.9445C90.311 67.0856 87.4468 62.9268 84.2757 59.8749C81.2426 56.9541 77.851 54.9264 73.2874 53.3091C67.4279 51.2332 62.1199 50.7711 59.7589 52.1298Z" fill="white"/>
<path d="M49.4976 9.37623C44.1999 4.44499 37.3753 1.76556 30.1819 1.76556C29.8337 1.76556 29.4856 1.77246 29.1341 1.78281C21.5546 2.05523 14.5335 5.26571 9.36684 10.8211C4.20358 16.3765 1.50821 23.6113 1.78051 31.1944C2.0528 38.7775 5.26174 45.8019 10.8145 50.9711C16.2742 56.0541 23.2194 58.568 30.1474 58.568C36.1034 58.568 42.0456 56.7093 47.0262 53.0298C47.0331 53.0229 47.0366 53.016 47.04 53.0126C47.1158 52.9298 47.2089 52.8677 47.3054 52.8195C48.5911 51.8435 49.8112 50.7469 50.9452 49.5262C61.6095 38.0602 60.9615 20.0491 49.501 9.37623H49.4976ZM48.0292 46.8089C43.5863 51.5849 37.5511 54.3437 31.0367 54.5781C30.7368 54.5885 30.4369 54.5954 30.1371 54.5954C23.9501 54.5954 18.0837 52.2918 13.5271 48.0503C3.67278 38.8775 3.1144 23.3906 12.2863 13.5316C16.7291 8.75552 22.7644 5.99678 29.2788 5.76228C35.7966 5.52779 42.0146 7.84513 46.7884 12.2901C51.5622 16.7352 54.3196 22.7733 54.554 29.2909C54.7883 35.8118 52.4721 42.0328 48.0292 46.8089Z" fill="black"/>
<path d="M247.226 76.8239C242.652 70.0236 235.714 65.3579 227.693 63.6889L207.409 59.468C202.639 63.0026 197.985 64.0475 194.153 64.0475C192.591 64.0475 191.164 63.8751 189.923 63.6268C186.022 62.844 183.251 61.2302 182.341 60.6439L168.695 63.1578C167.492 63.3785 166.306 63.6475 165.134 63.9579C165.034 64.0096 164.921 64.0406 164.803 64.0475C160.309 65.2752 156.038 67.158 152.068 69.6684C146.966 72.8962 142.592 77.0136 139.063 81.9103L139.008 81.9862C144.716 83.6001 149.979 86.5795 154.677 90.8556L155.118 83.5759C155.118 83.5759 155.118 83.5759 155.118 83.5725V83.4863H155.125V83.4587C155.177 82.8863 155.638 82.6069 156.059 82.6311C156.404 82.6518 156.897 82.9173 156.883 83.5656V83.6139C156.883 83.6139 156.883 83.6139 156.883 83.6208L156.345 92.4625C159.595 95.7385 162.049 99.1731 163.749 101.925L164.776 98.1007C164.9 97.6352 165.376 97.3558 165.841 97.4731L206.547 107.742L212.483 82.3517C212.593 81.8793 213.068 81.5827 213.541 81.6931C214.013 81.8034 214.309 82.2793 214.199 82.7518L208.257 108.17L215.519 110.001C215.991 110.122 216.277 110.598 216.157 111.07C216.036 111.543 215.557 111.829 215.088 111.708L166.251 99.3869L156.476 135.806L213.227 149.999C218.28 151.265 223.571 150.562 228.124 148.027C232.674 145.489 236.055 141.361 237.641 136.395L248.05 103.818C248.198 103.356 248.694 103.097 249.156 103.246C249.621 103.394 249.877 103.891 249.728 104.353L239.319 136.93C237.596 142.323 233.925 146.81 228.979 149.565C225.642 151.424 221.94 152.375 218.197 152.375C216.395 152.375 214.582 152.155 212.796 151.706L155.177 137.295C154.946 137.237 154.749 137.092 154.632 136.889C154.511 136.685 154.48 136.44 154.539 136.213L155.532 132.509C155.456 132.492 155.383 132.468 155.311 132.43C154.198 131.854 153.171 131.25 152.223 130.623L149.455 162.986H258.228L252.434 91.7004C252.003 86.383 250.201 81.2345 247.223 76.8067L247.226 76.8239Z" fill="#6099FF"/>
<path d="M80.5495 87.3623C80.4288 87.4209 80.2978 87.4485 80.1669 87.4485C79.9739 87.4485 79.7808 87.3864 79.6188 87.2589C79.2362 86.9554 79.1742 86.4002 79.4775 86.0209C81.418 83.5759 82.5934 80.531 82.683 80.1275C82.814 79.093 82.6416 78.2654 82.166 77.6653C81.6042 76.9515 80.7287 76.6894 80.3151 76.5998C79.3776 77.1205 75.8343 79.2827 73.9455 83.2587C73.7938 83.5759 73.4801 83.7622 73.1492 83.7622C73.0217 83.7622 72.8942 83.7346 72.7701 83.6759C72.3324 83.4656 72.1428 82.9414 72.353 82.5C74.328 78.3481 77.8058 76.0101 79.1914 75.2066C78.8088 73.3652 77.9127 72.4341 77.1923 71.9755C76.3685 71.4478 75.3931 71.2892 74.5004 71.5375C73.8352 71.9341 69.4164 74.6652 67.7654 78.3033C67.6172 78.6275 67.2966 78.8206 66.9623 78.8206C66.8417 78.8206 66.7176 78.7964 66.5969 78.7413C66.1523 78.5412 65.9593 78.0171 66.1592 77.5722C67.8447 73.8583 71.8291 71.1202 73.2285 70.2443C72.8218 67.2304 69.7818 66.7511 69.0097 66.6787C68.1618 67.0408 64.1222 68.9512 61.799 73.4962C61.5784 73.9307 61.0477 74.0997 60.6134 73.879C60.1791 73.6583 60.0102 73.1272 60.2308 72.6927C62.578 68.0994 66.397 65.9442 67.9205 65.2338C67.7068 64.9889 67.3414 64.62 66.721 64.0924C65.4388 63.0096 59.7034 61.5267 55.7534 66.0097C51.8448 70.4444 53.6716 73.8204 54.6504 75.6342C55.4777 77.1619 64.5254 88.2796 74.9278 93.7212L80.5426 87.3658L80.5495 87.3623Z" fill="white"/>
<path d="M45.5854 13.5834C41.3597 9.6487 35.9173 7.51068 30.1749 7.51068C29.8958 7.51068 29.62 7.51413 29.3408 7.52447C23.2952 7.74173 17.6942 10.3039 13.5753 14.7351C9.45642 19.1663 7.30564 24.939 7.52279 30.9875C7.73993 37.0361 10.3009 42.6398 14.73 46.7641C19.1591 50.8884 24.929 53.0367 30.9746 52.8195C37.0202 52.6022 42.6212 50.0401 46.7401 45.6088C55.2467 36.4602 54.7297 22.0941 45.5889 13.5834H45.5854Z" fill="white"/>
<path d="M183.483 36.0843C186.034 35.9814 188.018 33.8292 187.915 31.2773C187.812 28.7255 185.661 26.7402 183.111 26.8432C180.56 26.9461 178.576 29.0982 178.678 31.6501C178.781 34.202 180.932 36.1872 183.483 36.0843Z" fill="#FDCECA"/>
<path d="M202.703 34.1394C204.643 33.398 206.698 33.6428 206.739 33.6463C207.222 33.7083 207.663 33.3704 207.725 32.8876C207.787 32.4048 207.449 31.9634 206.966 31.8979C206.867 31.8841 204.45 31.5807 202.076 32.4911C201.621 32.6635 201.393 33.1738 201.565 33.629C201.7 33.9808 202.034 34.1946 202.389 34.1946C202.493 34.1946 202.599 34.1773 202.703 34.136V34.1394Z" fill="black"/>
<path d="M178.372 36.8636C177.914 36.705 177.41 36.9498 177.252 37.4085C176.19 40.481 173.554 40.0914 173.25 40.0362C172.775 39.9431 172.313 40.2534 172.22 40.7293C172.127 41.2086 172.437 41.6707 172.912 41.7638C173.164 41.8121 173.457 41.8432 173.784 41.8432C175.439 41.8432 177.855 41.0569 178.917 37.9809C179.075 37.5223 178.831 37.0188 178.372 36.8602V36.8636Z" fill="black"/>
<path d="M175.242 30.2875C176.373 30.1909 177.211 29.1943 177.114 28.0632C177.018 26.9322 176.021 26.0942 174.891 26.1907C173.76 26.2873 172.923 27.2839 173.019 28.415C173.116 29.5461 174.112 30.384 175.242 30.2875Z" fill="black"/>
<path d="M254.192 91.5728C253.754 86.1726 251.972 80.9379 249.042 76.386C249.742 75.4756 251.151 73.4376 252.158 70.6582C253.978 65.6476 253.599 60.6233 251.065 56.13C248.863 52.2194 245.064 49.5538 240.084 48.4193C237.533 47.84 235.303 47.7951 234.114 47.8296C233.769 43.7984 232.37 40.681 229.94 38.5534C227.079 36.0464 223.595 35.6291 221.94 35.5877C221.816 18.5353 218.18 11.3591 215.122 8.33828C210.935 4.20362 205.565 1.60696 199.164 0.617266C194.159 -0.155181 188.417 0.0137918 181.616 1.13453C180.951 1.1897 174.071 1.86904 170.476 6.57269C166.799 11.3832 168.798 16.78 169.484 18.3042C168.501 20.4181 167.729 22.9389 167.157 25.8873C166.885 27.2805 166.699 28.684 166.595 30.0737C165.182 30.3771 164.021 31.4737 163.686 32.9083C163.218 34.9394 164.507 36.9774 166.561 37.4533C166.678 37.4809 166.795 37.5016 166.912 37.5188C167.667 42.0983 169.301 45.7571 171.772 48.4331C170.88 48.8607 169.653 49.5849 168.433 50.7677C166.42 52.7126 164.034 56.3093 163.866 62.4785C159.371 63.7544 155.1 65.6648 151.119 68.1822C145.829 71.5306 141.289 75.8032 137.625 80.8827L137.225 81.4379C137.205 81.4655 137.191 81.4931 137.177 81.5241C137.115 81.5103 137.053 81.4931 136.991 81.4793C135.73 81.1965 132.886 81.7586 131.955 83.838C131.418 85.0381 131.607 86.4174 132.521 87.9692L126.809 95.8903C126.789 95.8696 126.775 95.8454 126.751 95.8247L97.5601 69.4478C97.3843 69.2891 97.1568 69.2098 96.919 69.2202C96.6846 69.234 96.464 69.3409 96.3089 69.5167L94.5338 71.5237C88.757 60.3405 83.0905 54.9127 73.8704 51.6436C71.9334 50.9573 69.9584 50.4228 68.1109 50.0711C67.7835 50.0194 67.456 49.9469 67.1251 49.8987C67.0389 49.8849 66.9528 49.8676 66.8666 49.8538C66.7322 49.8435 66.5978 49.8159 66.4633 49.7883C66.4151 49.7849 66.3703 49.778 66.322 49.778C66.2083 49.7745 66.0911 49.7607 65.9739 49.7366C65.8981 49.7262 65.8257 49.7193 65.7499 49.7124C63.2958 49.4538 61.3001 49.609 59.7938 50.1711L55.637 46.302C63.2475 34.2773 61.4793 18.1215 50.6944 8.0831C44.8039 2.59321 37.121 -0.268979 29.0728 0.0206887C21.0212 0.310356 13.5693 3.72084 8.07855 9.61765C2.5913 15.5179 -0.269521 23.2044 0.0200077 31.2565C0.309536 39.312 3.71839 46.7675 9.61236 52.2574C15.4098 57.6576 22.7859 60.3267 30.1448 60.3267C36.2938 60.3267 42.4325 58.4576 47.6268 54.7609L56.4953 63.0165C55.7715 63.5061 55.0752 64.1062 54.4341 64.8338C53.5 65.8959 52.8452 66.9166 52.4005 67.8891C52.4005 67.8891 52.4005 67.8891 52.4005 67.8925C52.4005 67.8994 52.3971 67.9063 52.3936 67.9132C52.3936 67.9132 52.3936 67.9167 52.3936 67.9201C52.373 67.9649 52.3523 68.0167 52.335 68.0615C52.335 68.0615 52.335 68.0718 52.3316 68.0718C52.3247 68.0822 52.3178 68.0925 52.3075 68.1029C52.2902 68.1581 52.2696 68.2132 52.2385 68.2615C52.2178 68.3236 52.1972 68.3857 52.1696 68.4477C52.0731 68.6788 51.9766 68.9202 51.9387 69.1684C51.9249 69.2512 51.9111 69.334 51.887 69.4167C51.8697 69.4822 51.8525 69.5443 51.8353 69.6098C51.8284 69.6995 51.8008 69.7823 51.7629 69.8581C51.1666 72.8652 52.435 75.217 53.1071 76.4619C53.6965 77.555 56.3919 80.9551 60.2971 84.7898C63.4888 87.9244 68.3384 92.166 73.736 95.0695L70.4168 98.8249C70.0962 99.1869 70.1273 99.7387 70.4857 100.063L115.383 140.82C119.182 144.268 124 146.123 129.077 146.123C129.532 146.123 129.991 146.11 130.453 146.079C136.029 145.713 141.093 143.161 144.705 138.896L150.32 132.268L147.693 162.997H149.462L152.229 130.633C153.177 131.257 154.204 131.864 155.318 132.44C155.39 132.478 155.462 132.502 155.538 132.519L154.542 136.223C154.48 136.451 154.514 136.695 154.635 136.899C154.756 137.102 154.952 137.251 155.18 137.306L212.799 151.717C214.585 152.162 216.398 152.386 218.2 152.386C221.944 152.386 225.645 151.434 228.982 149.575C233.925 146.82 237.599 142.334 239.322 136.94L249.731 104.363C249.88 103.901 249.625 103.404 249.159 103.256C248.697 103.108 248.201 103.363 248.053 103.829L237.644 136.406C236.058 141.371 232.677 145.503 228.127 148.037C223.577 150.575 218.287 151.275 213.23 150.01L156.479 135.816L166.254 99.3973L215.091 111.719C215.564 111.836 216.043 111.553 216.16 111.081C216.277 110.608 215.991 110.129 215.522 110.012L208.26 108.18L214.202 82.7621C214.312 82.2862 214.019 81.8138 213.544 81.7035C213.072 81.5931 212.596 81.8862 212.486 82.3621L206.55 107.753L165.844 97.4834C165.379 97.3662 164.903 97.6455 164.779 98.111L163.752 101.935C162.053 99.1835 159.598 95.7454 156.348 92.4729L156.886 83.6311C156.886 83.6311 156.886 83.6277 156.886 83.6242V83.5759C156.9 82.9276 156.407 82.6621 156.062 82.6414C155.642 82.6173 155.18 82.8966 155.128 83.469V83.4966C155.128 83.4966 155.128 83.4966 155.128 83.5001L155.121 83.5863C155.121 83.5863 155.121 83.5863 155.121 83.5897L154.68 90.8694C149.982 86.5933 144.719 83.6173 139.011 82L139.066 81.9242C142.596 77.0274 146.973 72.91 152.071 69.6823C156.041 67.1718 160.308 65.289 164.807 64.0613C164.927 64.0544 165.037 64.0199 165.137 63.9717C166.309 63.6613 167.498 63.3923 168.698 63.1716L182.344 60.6577C183.254 61.2405 186.025 62.8578 189.927 63.6406C191.167 63.8889 192.591 64.0613 194.156 64.0613C197.989 64.0613 202.642 63.0165 207.412 59.4818L227.693 63.7027C235.717 65.3717 242.652 70.0374 247.226 76.8377C250.204 81.2655 252.003 86.414 252.437 91.7315L258.231 163.017H259.999L254.192 91.5901V91.5728ZM58.4014 54.0057C58.5565 53.1816 59.0011 52.5677 59.7594 52.1298C62.117 50.7711 67.4284 51.2332 73.2879 53.3091C77.8549 54.9265 81.2431 56.9507 84.2762 59.8749C87.4473 62.9302 90.315 67.0856 93.2861 72.9445L89.2637 77.4964C89.2637 77.4964 89.2534 77.5136 89.243 77.524C84.5244 73.0893 77.7963 66.7787 71.4991 60.9095C71.7541 60.7681 71.9368 60.5026 71.954 60.1887C71.9816 59.7025 71.6094 59.2853 71.1234 59.2577C68.3763 59.1025 60.8106 58.1438 58.8115 55.592C58.422 55.092 58.2911 54.5885 58.3979 54.0057H58.4014ZM47.3028 52.816C47.2063 52.8609 47.1166 52.9264 47.0374 53.0091C47.0305 53.016 47.027 53.0229 47.0236 53.0264C42.043 56.7093 36.1008 58.5645 30.1448 58.5645C23.2168 58.5645 16.2715 56.0506 10.8118 50.9677C5.25909 45.7985 2.05015 38.7741 1.77786 31.191C1.50556 23.6079 4.20094 16.3731 9.36764 10.8177C14.5378 5.26574 21.5554 2.05526 29.1349 1.78283C29.483 1.76904 29.8345 1.76559 30.1827 1.76559C37.3795 1.76559 44.2041 4.44501 49.4984 9.37626C60.9589 20.0457 61.6068 38.0568 50.9426 49.5262C49.8051 50.747 48.585 51.8436 47.3028 52.8195V52.816ZM49.0572 53.6816C50.1705 52.785 51.2321 51.7987 52.2351 50.7228C53.1106 49.7814 53.9137 48.7986 54.6444 47.7813L58.1842 51.078C57.3777 51.7436 56.8675 52.6126 56.6676 53.6781C56.4643 54.7678 56.7193 55.7748 57.4259 56.6783C58.6736 58.2714 61.369 59.4853 65.4328 60.2853C66.6805 60.5301 67.8593 60.6991 68.8106 60.8095C78.9579 70.2547 90.7665 81.3724 93.6101 84.0518L88.0746 90.0038L82.6666 84.9691C82.5942 84.9001 82.508 84.8519 82.4219 84.8139C83.6248 82.7828 84.3624 80.862 84.4279 80.362C84.6278 78.824 84.3279 77.5378 83.5352 76.5446C82.739 75.548 81.636 75.1135 80.9329 74.9273C80.5365 72.9548 79.5611 71.3892 78.1444 70.4823C77.1621 69.8547 76.0316 69.5753 74.9252 69.6719C74.3599 66.6166 71.7851 65.3579 69.8619 65.0062C69.6309 64.4062 68.9967 63.6992 67.8593 62.7406C66.1738 61.3164 61.9584 60.406 58.098 62.1268C58.067 62.0854 58.036 62.0475 57.9981 62.013L49.0503 53.685L49.0572 53.6816ZM54.6582 75.6308C53.6758 73.8169 51.8525 70.4444 55.7611 66.0062C59.7111 61.5233 65.4465 63.0061 66.7287 64.0889C67.3492 64.6131 67.7145 64.9821 67.9282 65.2303C66.4082 65.9407 62.5857 68.0994 60.2385 72.6893C60.0179 73.1238 60.1868 73.6548 60.6211 73.8755C61.0554 74.0962 61.5862 73.9273 61.8068 73.4928C64.1299 68.9477 68.1695 67.0373 69.0174 66.6752C69.7895 66.7477 72.8295 67.227 73.2362 70.2409C71.8369 71.1168 67.8524 73.8548 66.1669 77.5688C65.967 78.0136 66.1635 78.5344 66.6047 78.7378C66.7218 78.793 66.8459 78.8171 66.97 78.8171C67.3044 78.8171 67.6249 78.624 67.7731 78.2999C69.4241 74.6618 73.8463 71.9272 74.5081 71.5341C75.3974 71.2858 76.3728 71.4444 77.2 71.972C77.9204 72.4341 78.8166 73.3617 79.1991 75.2032C77.8101 76.0067 74.3358 78.3447 72.3608 82.4966C72.1505 82.938 72.3401 83.4622 72.7778 83.6725C72.8985 83.7311 73.0294 83.7587 73.157 83.7587C73.4879 83.7587 73.8015 83.5725 73.9532 83.2552C75.842 79.2792 79.3853 77.1171 80.3228 76.5963C80.7399 76.686 81.6119 76.9481 82.1737 77.6619C82.6494 78.2619 82.8217 79.0896 82.6907 80.1241C82.6011 80.5275 81.4223 83.5759 79.4852 86.0174C79.1819 86.4002 79.2474 86.952 79.6265 87.2554C79.7885 87.383 79.9816 87.4451 80.1746 87.4451C80.3056 87.4451 80.4365 87.414 80.5572 87.3589L74.9424 93.7143C64.54 88.2727 55.4923 77.155 54.6651 75.6273L54.6582 75.6308ZM143.357 137.761C140.055 141.661 135.43 143.992 130.335 144.327C125.241 144.661 120.35 142.954 116.566 139.52L72.3125 99.3456L82.7872 87.4899L87.5231 91.897C87.692 92.0556 87.9091 92.1315 88.1228 92.1315C88.3607 92.1315 88.595 92.0384 88.7674 91.8521L95.5023 84.6105C95.8332 84.2553 95.8126 83.7001 95.461 83.369C95.4093 83.3208 93.4963 81.5172 90.5218 78.7206C90.5425 78.6999 90.5666 78.6826 90.5838 78.6619L97.0431 71.3513L125.572 97.1317C125.644 97.1972 125.724 97.242 125.806 97.28L120.712 104.346L122.142 105.377L133.603 89.4796C134.689 90.7969 136.229 92.2211 138.218 93.7488C134.416 94.6247 131.238 96.2523 128.874 98.5593C128.491 98.9318 126.596 100.887 126.775 102.722C126.964 104.666 128.55 105.784 129.301 106.208C129.101 106.57 128.929 106.949 128.791 107.353C127.961 109.746 129.598 111.546 130.556 112.356C130.525 112.415 130.494 112.474 130.466 112.532C129.712 114.139 130.104 115.212 130.566 115.829C131.549 117.146 133.817 117.77 137.494 117.733C139.173 117.715 140.734 117.564 141.627 117.457C142.251 119.433 144.395 124.729 150.458 129.371L143.357 137.754V137.761ZM153.625 92.2832C158.144 96.4317 161.277 101.101 163.111 104.291L155.993 130.806C150.382 127.881 147.19 124.116 145.498 121.464C143.647 118.56 143.133 116.322 143.126 116.301C143.026 115.846 142.592 115.55 142.134 115.619C138.577 116.157 133.072 116.253 131.976 114.781C131.883 114.657 131.597 114.274 132.059 113.288C134.068 109.001 146.801 109.053 151.536 109.436C152.019 109.474 152.446 109.112 152.484 108.629C152.522 108.143 152.16 107.718 151.678 107.68C151.495 107.667 147.145 107.322 142.382 107.691C137.143 108.094 133.541 109.198 131.631 110.974C130.987 110.422 129.98 109.298 130.449 107.942C131.842 103.935 137.439 102.618 141.889 102.218C146.911 101.766 151.65 102.359 151.698 102.366C152.181 102.428 152.622 102.087 152.684 101.604C152.746 101.122 152.405 100.68 151.922 100.618C151.199 100.525 135.895 98.649 130.332 104.773C130.042 104.629 128.653 103.873 128.522 102.56C128.46 101.942 129.139 100.77 130.098 99.8318C137.546 92.5591 151.247 95.2661 151.385 95.2971C151.86 95.3937 152.326 95.0868 152.426 94.6109C152.526 94.135 152.219 93.666 151.74 93.5695C151.592 93.5384 148.028 92.8177 143.433 93.0488C142.451 93.097 141.499 93.1901 140.579 93.3177C137.487 91.0969 135.361 89.1141 134.254 87.4244C133.72 86.6071 133.165 85.4484 133.562 84.5587C134.068 83.4242 135.95 83.0518 136.605 83.2001C142.847 84.5932 148.572 87.6485 153.618 92.2832H153.625ZM168.377 61.4233C167.461 61.5923 166.554 61.7888 165.654 62.0095C165.858 57.8059 167.178 54.4747 169.594 52.0988C171.021 50.6952 172.469 50.0194 173.161 49.7538C175.412 51.6401 178.142 52.7815 181.32 53.1678L181.616 58.9853L168.381 61.4267L168.377 61.4233ZM202.4 40.312C203.073 40.5155 203.776 40.6259 204.482 40.6396C204.527 40.6396 204.575 40.6396 204.62 40.6396C205.01 40.6396 205.396 40.6086 205.775 40.55L206.302 58.0887C201.359 61.7336 195.993 63.0199 190.337 61.9061C186.842 61.2198 184.281 59.7715 183.385 59.2163L183.085 53.2988C183.333 53.3057 183.581 53.3126 183.833 53.3126C184.494 53.3126 185.17 53.285 185.866 53.2264C186.9 53.1402 189.096 52.9919 189.117 52.9919C189.603 52.9574 189.968 52.5401 189.937 52.0539C189.902 51.5677 189.482 51.1987 188.999 51.2332C188.979 51.2332 186.769 51.3849 185.721 51.4711C180.741 51.8815 176.719 50.6952 173.765 47.9434C171.007 45.3709 169.249 41.5328 168.543 36.5395C168.477 36.0774 168.06 35.7463 167.598 35.7843C167.381 35.8015 167.164 35.7843 166.954 35.736C165.847 35.4808 165.148 34.3877 165.399 33.3049C165.61 32.4014 166.44 31.7496 167.385 31.7496C167.395 31.7496 167.402 31.7496 167.412 31.7496C167.881 31.76 168.281 31.3875 168.305 30.9116C168.384 29.3599 168.577 27.7839 168.881 26.2218C170.301 18.9215 172.958 14.4696 176.98 12.6661C177.012 14.7041 177.677 18.5042 181.668 21.7009C184.46 23.9389 188.455 25.0804 193.535 25.0907C196.176 25.0976 198.406 24.7838 199.519 24.5941L200.646 27.6943C200.646 27.6943 200.646 27.6977 200.649 27.7012C200.663 27.7357 200.677 27.7667 200.694 27.8012C200.694 27.8046 200.698 27.8081 200.701 27.815C200.705 27.8219 200.711 27.8322 200.715 27.8391C200.732 27.8667 200.749 27.8977 200.77 27.9219C200.774 27.9288 200.78 27.9357 200.784 27.9426C200.808 27.9736 200.836 28.0012 200.863 28.0288C200.87 28.0357 200.877 28.0391 200.88 28.046C200.908 28.0702 200.936 28.0943 200.967 28.115C200.967 28.115 200.973 28.1184 200.977 28.1219C201.008 28.1426 201.042 28.1633 201.077 28.1805C201.084 28.1839 201.094 28.1874 201.101 28.1908C201.135 28.2081 201.173 28.2219 201.211 28.2357C201.211 28.2357 201.215 28.2357 201.218 28.2357C201.253 28.246 201.291 28.2564 201.328 28.2598C201.339 28.2598 201.346 28.2598 201.356 28.2633C201.394 28.2702 201.432 28.2702 201.47 28.2736C201.47 28.2736 201.473 28.2736 201.477 28.2736C201.48 28.2736 201.484 28.2736 201.487 28.2736C201.532 28.2736 201.577 28.2702 201.625 28.2633C201.625 28.2633 201.625 28.2633 201.628 28.2633C201.673 28.2564 201.721 28.2426 201.766 28.2253C201.77 28.2253 201.773 28.2253 201.777 28.2253C201.78 28.2253 201.783 28.2253 201.787 28.2219C201.801 28.215 201.818 28.2081 201.832 28.2046C201.845 28.1977 201.859 28.1908 201.873 28.1874C201.876 28.1874 201.88 28.1874 201.883 28.1839C202.731 27.7426 203.693 27.5184 204.661 27.5356C207.836 27.5908 210.383 30.184 210.342 33.3152C210.321 34.8153 209.714 36.2153 208.636 37.2636C207.533 38.3327 206.068 38.9085 204.517 38.881C203.972 38.8706 203.431 38.7878 202.914 38.6292C202.449 38.4878 201.956 38.7499 201.814 39.2155C201.673 39.681 201.935 40.1741 202.4 40.3155V40.312ZM228.051 61.9612L208.06 57.8024L207.533 40.25C207.533 40.1879 207.522 40.1293 207.508 40.0707C208.374 39.712 209.17 39.1948 209.859 38.5258C211.279 37.1498 212.075 35.3049 212.103 33.3324C212.158 29.2357 208.832 25.839 204.692 25.7666C203.765 25.7494 202.848 25.9045 201.987 26.2149L200.925 23.2906C200.774 22.8768 200.339 22.6354 199.908 22.7285C199.798 22.7527 188.731 25.0976 182.775 20.325C177.987 16.4869 178.776 11.735 178.814 11.5281C178.814 11.5212 178.814 11.5143 178.814 11.5074C178.814 11.4867 178.821 11.4694 178.821 11.4488C178.821 11.4384 178.821 11.4246 178.821 11.4143C178.821 11.397 178.821 11.3798 178.821 11.3625C178.821 11.3488 178.821 11.335 178.821 11.3212C178.821 11.3074 178.821 11.2936 178.821 11.2798C178.821 11.2625 178.818 11.2453 178.814 11.2281C178.814 11.2177 178.814 11.2074 178.807 11.1936C178.804 11.1729 178.797 11.1556 178.793 11.135C178.793 11.1281 178.794 11.1212 178.787 11.1143C178.787 11.1143 178.787 11.1108 178.787 11.1074C178.78 11.0901 178.773 11.0694 178.766 11.0522C178.762 11.0418 178.759 11.0315 178.756 11.0246C178.749 11.0108 178.742 10.997 178.735 10.9832C178.728 10.9694 178.725 10.9591 178.718 10.9453C178.714 10.9384 178.707 10.928 178.704 10.9211C178.694 10.9039 178.683 10.8867 178.673 10.8729C178.673 10.8729 178.669 10.8694 178.669 10.866C178.638 10.8211 178.604 10.7798 178.566 10.7418C178.549 10.728 178.535 10.7108 178.518 10.697C178.514 10.6936 178.511 10.6901 178.504 10.6867C178.442 10.6384 178.376 10.597 178.301 10.5625C178.294 10.5625 178.29 10.5556 178.283 10.5556C178.27 10.5487 178.252 10.5453 178.239 10.5384C178.225 10.5349 178.214 10.528 178.201 10.5246C178.19 10.5246 178.18 10.5177 178.166 10.5177C178.149 10.5142 178.132 10.5073 178.111 10.5039C178.111 10.5039 178.108 10.5039 178.104 10.5039C178.097 10.5039 178.087 10.5039 178.08 10.5039C178.063 10.5039 178.042 10.497 178.025 10.497C178.011 10.497 178.001 10.497 177.987 10.497C177.97 10.497 177.956 10.497 177.939 10.497C177.925 10.497 177.908 10.497 177.894 10.497C177.88 10.497 177.866 10.497 177.853 10.497C177.835 10.497 177.818 10.5004 177.797 10.5039C177.787 10.5039 177.777 10.5039 177.766 10.5073C177.746 10.5108 177.725 10.5177 177.708 10.5211C177.701 10.5211 177.694 10.5211 177.687 10.5246H177.68C177.677 10.5246 177.67 10.5246 177.666 10.528C174.744 11.4108 172.393 13.3006 170.583 16.2352C169.973 14.242 169.477 10.7694 171.869 7.63825C175.085 3.43463 181.716 2.88633 181.782 2.88288C181.809 2.88288 181.834 2.87943 181.861 2.87253C191.136 1.34143 204.544 0.372427 213.878 9.58661C219.359 14.9937 220.175 28.7564 220.175 36.4774C220.175 36.7222 220.279 36.9602 220.461 37.1257C220.644 37.2912 220.885 37.3774 221.13 37.3568C221.175 37.3568 225.542 37.0326 228.785 39.8879C231.005 41.8397 232.222 44.8364 232.401 48.7952C232.411 49.0366 232.522 49.2642 232.704 49.4228C232.887 49.5814 233.128 49.6573 233.37 49.6331C233.397 49.6331 236.248 49.3538 239.681 50.1366C244.227 51.1746 247.536 53.4816 249.518 56.9955C251.813 61.0681 252.148 65.4441 250.51 69.9995C249.731 72.1686 248.666 73.8686 247.974 74.8411C243.148 68.196 236.113 63.6372 228.034 61.9578L228.051 61.9612Z" fill="black"/>
<path d="M54.5545 29.2944C54.3201 22.7734 51.5627 16.7352 46.7889 12.2936C42.0152 7.84862 35.7972 5.53128 29.2794 5.76578C22.7615 6.00027 16.7262 8.75901 12.2868 13.5351C3.1184 23.3941 3.67333 38.881 13.5276 48.0538C18.0808 52.2919 23.9472 54.5989 30.1376 54.5989C30.4375 54.5989 30.7373 54.592 31.0372 54.5816C37.555 54.3471 43.5903 51.5884 48.0298 46.8123C52.4727 42.0363 54.7889 35.8153 54.5545 29.2944ZM46.7372 45.6088C42.6149 50.0401 37.0174 52.5988 30.9717 52.8195C24.9261 53.0367 19.1562 50.8849 14.7271 46.7641C10.298 42.6398 7.73706 37.0395 7.51992 30.9875C7.30277 24.939 9.45356 19.1663 13.5724 14.7351C17.6913 10.3039 23.2923 7.74517 29.338 7.52447C29.6171 7.51413 29.8963 7.51068 30.1721 7.51068C35.9144 7.51068 41.3568 9.6487 45.5826 13.5833C54.7268 22.0941 55.2439 36.4636 46.7338 45.6088H46.7372Z" fill="black"/>
<path d="M52.3986 68.0891V68.1166C52.3986 68.0718 52.4089 68.0235 52.4158 67.9787C52.4055 68.058 52.3813 68.127 52.3572 68.2029C52.3365 68.2546 52.3434 68.2408 52.3744 68.1615C52.3676 68.1787 52.3572 68.196 52.3503 68.2167C52.3365 68.2442 52.3227 68.2684 52.3124 68.296C52.2297 68.4649 52.1435 68.6374 52.0918 68.8201C52.0505 68.9684 52.0263 69.1236 51.9987 69.2753C51.985 69.3512 51.9677 69.427 51.947 69.4995C51.9367 69.5374 51.9229 69.5788 51.9091 69.6167C51.8885 69.6684 51.8953 69.6546 51.9264 69.5788C51.9195 69.596 51.9091 69.6167 51.8988 69.6339C51.7782 69.8753 51.8264 70.2064 52.0849 70.3409C52.3193 70.465 52.664 70.4133 52.7915 70.1547C52.8811 69.9753 52.9432 69.7891 52.9811 69.5926C53.0155 69.427 53.0362 69.2546 53.0845 69.0925C53.0948 69.0546 53.1086 69.0132 53.1224 68.9753C53.1293 68.9581 53.1569 68.8891 53.1224 68.9684C53.0879 69.0477 53.1189 68.9787 53.1258 68.9615C53.1603 68.8891 53.1948 68.8201 53.2292 68.7477C53.3361 68.527 53.4016 68.327 53.4257 68.0856C53.4395 67.9615 53.3602 67.8063 53.2741 67.7201C53.1844 67.6304 53.0362 67.5614 52.9087 67.5683C52.7812 67.5752 52.6364 67.6166 52.5433 67.7201C52.4468 67.827 52.4055 67.9408 52.3917 68.0856L52.3986 68.0891Z" fill="black"/>
<path d="M52.0176 69.0236C52.0176 69.065 52.0176 69.1064 52.0107 69.1478L52.028 69.0098C52.0176 69.0685 52.0038 69.1202 51.9797 69.1754L52.0314 69.0512C51.9418 69.2616 51.8246 69.4547 51.7901 69.6857C51.7557 69.9168 51.7246 70.1685 51.6936 70.4065C51.6764 70.5272 51.7626 70.6892 51.8453 70.772C51.9349 70.8617 52.0831 70.9306 52.2106 70.9237C52.3382 70.9168 52.4829 70.8754 52.576 70.772L52.6553 70.6685C52.7035 70.5892 52.7242 70.4996 52.7242 70.4065C52.7449 70.2409 52.769 70.0754 52.7897 69.9099L52.7725 70.0478C52.7897 69.9306 52.8069 69.8202 52.8517 69.7099L52.8 69.834C52.8552 69.7064 52.9241 69.5823 52.9758 69.4512C53.0275 69.3202 53.0517 69.1685 53.0482 69.0236C53.0448 68.7547 52.8138 68.4926 52.5312 68.5064C52.2486 68.5202 52.0107 68.734 52.0142 69.0236H52.0176Z" fill="black"/>
<path d="M52.0822 68.9201C52.0822 68.9201 52.0822 68.9408 52.0822 68.9477L52.0994 68.8098C52.0959 68.8408 52.0856 68.8719 52.0718 68.8994L52.1235 68.7753C52.0925 68.8512 52.0442 68.9167 52.0098 68.9926C51.9753 69.0684 51.9408 69.1408 51.9167 69.2201C51.9029 69.265 51.8926 69.3064 51.8754 69.3512L51.9271 69.227C51.9202 69.2477 51.9098 69.265 51.8995 69.2822C51.8616 69.3408 51.8409 69.4064 51.8374 69.4753C51.8237 69.5443 51.8237 69.6133 51.8478 69.6822C51.865 69.7512 51.896 69.8098 51.9408 69.8581C51.9788 69.9133 52.027 69.9581 52.0856 69.9926C52.2062 70.0547 52.351 70.0891 52.4854 70.0443L52.6095 69.9926C52.6888 69.9478 52.7474 69.8857 52.7956 69.8064C52.8439 69.734 52.8749 69.6478 52.899 69.565C52.9128 69.5202 52.9232 69.4753 52.9404 69.4305L52.8887 69.5546C52.9163 69.4891 52.9576 69.4271 52.9887 69.365C53.0231 69.296 53.0542 69.227 53.0783 69.1546C53.1024 69.0822 53.1093 68.9994 53.1162 68.9236C53.1162 68.8512 53.1024 68.7856 53.0714 68.7236C53.0507 68.6581 53.0162 68.6029 52.9645 68.5581C52.9163 68.5063 52.8611 68.4718 52.7991 68.4512C52.737 68.4201 52.6716 68.4029 52.5992 68.4063C52.4648 68.4132 52.3269 68.4546 52.2338 68.5581L52.1545 68.6615C52.1063 68.7408 52.0856 68.8305 52.0856 68.9236L52.0822 68.9201Z" fill="black"/>
</g>
<defs>
<clipPath id="clip0_2215_97091">
<rect width="260" height="163" fill="white"/>
</clipPath>
</defs>
</svg>
