<svg width="24" height="24" viewBox="0 0 24 24" fill="none" xmlns="http://www.w3.org/2000/svg">
<path d="M21 8V20.993C21.0009 21.1243 20.976 21.2545 20.9266 21.3762C20.8772 21.4979 20.8043 21.6087 20.7121 21.7022C20.6199 21.7957 20.5101 21.8701 20.3892 21.9212C20.2682 21.9723 20.1383 21.9991 20.007 22H3.993C3.72981 22 3.47739 21.8955 3.2912 21.7095C3.105 21.5235 3.00027 21.2712 3 21.008V2.992C3 2.455 3.449 2 4.002 2H14.997L21 8ZM19 9H14V4H5V20H19V9Z" fill="#114493"/>
<path d="M6.85742 16.5V12.2578H8.52148C9.48535 12.2578 10.0391 12.8525 10.0391 13.6875C10.0391 14.5342 9.47656 15.1172 8.49805 15.1172H7.73633V16.5H6.85742ZM7.73633 14.4082H8.35742C8.87891 14.4082 9.13379 14.1152 9.13086 13.6875C9.13379 13.2656 8.87891 12.9814 8.35742 12.9785H7.73633V14.4082ZM12.0898 16.5H10.5957V12.2578H12.1074C13.3848 12.2578 14.167 13.0518 14.1641 14.373C14.167 15.7002 13.3848 16.5 12.0898 16.5ZM11.4746 15.7441H12.0547C12.8633 15.7441 13.2852 15.3252 13.2852 14.373C13.2852 13.4297 12.8633 13.0137 12.0605 13.0137H11.4746V15.7441ZM14.8027 16.5V12.2578H17.5977V12.9844H15.6816V14.0156H17.416V14.7422H15.6816V16.5H14.8027Z" fill="#114493"/>
</svg>
