<svg width="428" height="302" viewBox="0 0 428 302" fill="none" xmlns="http://www.w3.org/2000/svg">
<g clip-path="url(#clip0_3504_131048)">
<rect width="428" height="302" fill="#F4F5F6"/>
<path d="M123.267 138.559H119.609V162.876H123.267V138.559Z" fill="#888888"/>
<path d="M148.231 142.545H155.658V138.789H148.231C144.735 138.789 141.896 141.628 141.728 145.175H141.697V145.493V156.076V156.394H141.728C141.896 159.941 144.735 162.78 148.231 162.78H155.658V159.024H148.231C146.644 159.024 145.361 157.699 145.361 156.076V151.523H155.658V147.766H145.361V145.493C145.355 143.87 146.644 142.545 148.231 142.545Z" fill="#888888"/>
<path d="M133.899 148.696H132.213H131.178C129.591 148.696 128.307 147.372 128.307 145.748V145.493C128.307 143.863 129.597 142.545 131.178 142.545H138.604V138.789H131.178C127.632 138.789 124.749 141.711 124.662 145.334H124.644V145.748C124.644 149.447 127.576 152.459 131.178 152.459H133.236H133.899C135.486 152.459 136.769 153.783 136.769 155.407V155.821V156.076C136.769 157.706 135.48 159.024 133.899 159.024H125.418V162.78H133.899C137.501 162.78 140.433 159.769 140.433 156.069V155.815V155.407V154.993H140.39C140.179 151.491 137.365 148.696 133.899 148.696Z" fill="#888888"/>
<path d="M114.098 155.929C114.098 157.559 112.809 158.877 111.228 158.877H110.825H110.577C108.99 158.877 107.707 157.553 107.707 155.929V138.597H104.049V155.929C104.049 157.559 102.76 158.877 101.179 158.877H100.776H100.528C98.9408 158.877 97.6576 157.553 97.6576 155.929V138.597H94V155.929C94 159.629 96.9323 162.64 100.534 162.64H100.782H101.185H101.588V162.596C103.274 162.488 104.787 161.743 105.89 160.565C107.081 161.838 108.742 162.64 110.595 162.64H110.843H111.246H111.649V162.596C115.059 162.379 117.78 159.489 117.78 155.929V138.597H114.123V155.929H114.098Z" fill="#888888"/>
<path d="M223.671 154.465C223.454 153.994 223.305 153.471 223.225 152.924C223.144 152.389 223.107 151.88 223.107 151.402C223.107 151.077 223.126 150.733 223.157 150.377C223.188 150.02 223.25 149.664 223.33 149.32C223.417 148.976 223.529 148.639 223.671 148.32C223.814 147.989 224.006 147.703 224.235 147.454C224.471 147.206 224.744 147.009 225.06 146.856C225.382 146.703 225.754 146.627 226.176 146.627C226.597 146.627 226.969 146.703 227.291 146.856C227.608 147.002 227.887 147.206 228.116 147.454C228.345 147.703 228.538 147.989 228.68 148.32C228.823 148.639 228.934 148.976 229.021 149.32C229.102 149.664 229.164 150.02 229.195 150.377C229.226 150.733 229.244 151.077 229.244 151.402C229.244 151.829 229.207 152.287 229.145 152.771C230.168 151.319 230.782 149.536 230.782 147.607C230.782 142.743 226.938 138.795 222.202 138.795C220.875 138.795 219.623 139.113 218.501 139.667C218.674 139.693 218.848 139.731 219.015 139.782C219.35 139.884 219.648 140.049 219.902 140.266C220.162 140.488 220.367 140.769 220.516 141.1C220.664 141.431 220.739 141.826 220.739 142.259C220.739 142.774 220.59 143.239 220.305 143.64C220.138 143.87 219.945 144.061 219.716 144.213C219.784 144.245 219.846 144.283 219.908 144.322C220.131 144.468 220.33 144.659 220.485 144.882C220.64 145.098 220.757 145.347 220.832 145.621C220.906 145.888 220.943 146.168 220.943 146.461C220.943 146.919 220.857 147.327 220.695 147.677C220.528 148.027 220.305 148.32 220.032 148.549C219.759 148.779 219.437 148.951 219.084 149.072C218.73 149.186 218.358 149.244 217.974 149.244C217.304 149.244 216.709 149.078 216.195 148.747C215.668 148.409 215.302 147.875 215.104 147.161L215.048 146.964H216.87C216.963 147.174 217.075 147.346 217.205 147.467C217.379 147.626 217.652 147.709 218.017 147.709C218.203 147.709 218.371 147.677 218.532 147.607C218.693 147.543 218.836 147.448 218.96 147.333C219.077 147.219 219.177 147.085 219.245 146.919C219.313 146.76 219.35 146.576 219.35 146.372C219.35 146.06 219.294 145.818 219.177 145.64C219.059 145.455 218.91 145.321 218.724 145.232C218.526 145.13 218.303 145.067 218.061 145.041C217.8 145.009 217.54 144.99 217.292 144.99H217.05V143.456H217.292C217.695 143.456 218.03 143.424 218.284 143.367C218.52 143.309 218.705 143.239 218.829 143.144C218.947 143.055 219.022 142.953 219.071 142.825C219.121 142.679 219.152 142.513 219.152 142.329C219.152 141.928 219.053 141.641 218.842 141.45C218.625 141.253 218.352 141.157 218.017 141.157C217.769 141.157 217.54 141.227 217.348 141.386C216.839 141.807 216.833 142.233 216.833 142.233L215.414 142.227C214.292 143.717 213.622 145.576 213.622 147.601C213.622 152.465 217.466 156.413 222.202 156.413C223.188 156.413 224.136 156.235 225.016 155.916C224.874 155.846 224.737 155.764 224.613 155.668C224.21 155.356 223.894 154.949 223.671 154.465ZM222.189 148.543C221.687 148.543 221.278 148.123 221.278 147.607C221.278 147.091 221.687 146.671 222.189 146.671C222.692 146.671 223.101 147.091 223.101 147.607C223.101 148.123 222.692 148.543 222.189 148.543Z" fill="#888888"/>
<path d="M227.547 150.008C227.509 149.759 227.447 149.524 227.373 149.288C227.305 149.065 227.212 148.868 227.094 148.696C226.989 148.53 226.852 148.403 226.697 148.308C226.549 148.218 226.369 148.167 226.164 148.167C225.953 148.167 225.774 148.212 225.631 148.308C225.476 148.403 225.346 148.537 225.234 148.696C225.123 148.868 225.03 149.072 224.955 149.288C224.881 149.517 224.825 149.759 224.782 150.008C224.738 150.256 224.714 150.504 224.701 150.746C224.689 150.994 224.683 151.211 224.683 151.408C224.683 151.689 224.701 152.026 224.732 152.414C224.763 152.79 224.838 153.153 224.949 153.503C225.055 153.834 225.21 154.114 225.414 154.344C225.594 154.547 225.836 154.643 226.158 154.643C226.474 154.643 226.716 154.541 226.902 154.344C227.107 154.114 227.262 153.834 227.367 153.503C227.478 153.153 227.547 152.79 227.584 152.414C227.615 152.026 227.633 151.689 227.633 151.408C227.633 151.211 227.627 150.994 227.615 150.746C227.615 150.504 227.59 150.256 227.547 150.008Z" fill="#888888"/>
<path d="M229.133 152.771C229.195 152.287 229.232 151.829 229.232 151.402C229.232 151.077 229.213 150.733 229.182 150.377C229.151 150.02 229.089 149.664 229.009 149.32C228.922 148.976 228.81 148.639 228.668 148.32C228.519 147.989 228.333 147.703 228.104 147.454C227.868 147.206 227.595 147.009 227.279 146.856C226.957 146.703 226.585 146.627 226.163 146.627C225.742 146.627 225.37 146.703 225.047 146.856C224.731 147.002 224.452 147.206 224.223 147.454C223.994 147.703 223.801 147.989 223.659 148.32C223.516 148.639 223.405 148.976 223.318 149.32C223.231 149.664 223.175 150.02 223.144 150.377C223.113 150.727 223.095 151.071 223.095 151.402C223.095 151.873 223.132 152.383 223.212 152.924C223.293 153.471 223.442 153.987 223.659 154.465C223.882 154.949 224.198 155.356 224.589 155.681C224.713 155.783 224.849 155.859 224.992 155.929C226.678 155.331 228.116 154.216 229.133 152.771ZM227.589 152.408C227.558 152.784 227.484 153.147 227.372 153.497C227.267 153.828 227.112 154.108 226.907 154.337C226.728 154.541 226.486 154.637 226.163 154.637C225.847 154.637 225.605 154.535 225.419 154.337C225.215 154.108 225.06 153.828 224.955 153.497C224.843 153.147 224.775 152.784 224.738 152.408C224.707 152.02 224.688 151.682 224.688 151.402C224.688 151.205 224.694 150.988 224.707 150.74C224.719 150.498 224.744 150.25 224.787 150.001C224.824 149.753 224.886 149.511 224.961 149.282C225.029 149.065 225.122 148.861 225.24 148.69C225.345 148.524 225.481 148.397 225.636 148.301C225.785 148.212 225.965 148.161 226.17 148.161C226.38 148.161 226.56 148.206 226.703 148.301C226.858 148.397 226.988 148.53 227.099 148.69C227.211 148.861 227.304 149.065 227.378 149.282C227.453 149.511 227.509 149.753 227.552 150.001C227.595 150.25 227.62 150.498 227.633 150.74C227.645 150.988 227.651 151.205 227.651 151.402C227.639 151.682 227.626 152.02 227.589 152.408Z" fill="#F4F5F6"/>
<path d="M217.336 141.393C217.534 141.233 217.758 141.163 218.006 141.163C218.34 141.163 218.613 141.259 218.83 141.456C219.041 141.647 219.14 141.934 219.14 142.335C219.14 142.52 219.115 142.685 219.059 142.832C219.016 142.959 218.935 143.061 218.818 143.15C218.694 143.245 218.508 143.322 218.272 143.373C218.024 143.43 217.689 143.462 217.28 143.462H217.038V144.996H217.28C217.528 144.996 217.789 145.016 218.049 145.047C218.291 145.079 218.514 145.143 218.712 145.238C218.898 145.328 219.047 145.468 219.165 145.646C219.283 145.824 219.338 146.066 219.338 146.378C219.338 146.582 219.301 146.767 219.233 146.926C219.165 147.085 219.066 147.225 218.948 147.34C218.824 147.454 218.681 147.55 218.52 147.613C218.359 147.677 218.192 147.715 218.006 147.715C217.64 147.715 217.367 147.633 217.193 147.473C217.069 147.352 216.958 147.187 216.859 146.97H215.036L215.092 147.168C215.29 147.881 215.662 148.416 216.183 148.753C216.691 149.084 217.293 149.25 217.962 149.25C218.347 149.25 218.718 149.192 219.072 149.078C219.425 148.963 219.748 148.785 220.02 148.556C220.299 148.327 220.522 148.027 220.684 147.683C220.851 147.333 220.932 146.926 220.932 146.467C220.932 146.174 220.894 145.888 220.82 145.627C220.746 145.359 220.628 145.111 220.473 144.888C220.318 144.665 220.126 144.481 219.896 144.328C219.834 144.29 219.772 144.251 219.704 144.22C219.927 144.073 220.126 143.882 220.293 143.647C220.584 143.245 220.727 142.781 220.727 142.265C220.727 141.826 220.653 141.437 220.504 141.106C220.355 140.775 220.151 140.495 219.89 140.272C219.636 140.055 219.338 139.89 219.004 139.788C218.836 139.737 218.663 139.699 218.489 139.673C217.274 140.272 216.214 141.151 215.402 142.239L216.822 142.246C216.822 142.239 216.828 141.813 217.336 141.393Z" fill="#F4F5F6"/>
<path d="M222.19 148.543C222.693 148.543 223.101 148.124 223.101 147.607C223.101 147.09 222.693 146.671 222.19 146.671C221.686 146.671 221.278 147.09 221.278 147.607C221.278 148.124 221.686 148.543 222.19 148.543Z" fill="#888888"/>
<path d="M189.216 138.789C191.423 138.789 193.413 139.654 194.684 141.164C196.519 143.335 196.519 145.984 196.519 149.059V162.787H192.867V149.059C192.867 146.397 192.966 144.64 192.006 143.519C191.367 142.774 190.381 142.361 189.216 142.361C188.05 142.361 187.058 142.774 186.426 143.519C185.465 144.64 185.564 146.397 185.564 149.059V162.787H181.913V149.059C181.913 145.99 181.913 143.335 183.748 141.164C185.013 139.654 187.009 138.789 189.216 138.789Z" fill="#888888"/>
<path d="M161.027 157.413V138.789H164.666V156.49C164.666 157.967 165.832 159.037 167.27 159.037H175.633V162.787H166.241C163.358 162.787 161.027 160.367 161.027 157.413Z" fill="#888888"/>
<path d="M180.598 138.789H176.946V162.787H180.598V138.789Z" fill="#888888"/>
<path d="M208.043 158.056C207.398 158.801 206.394 159.215 205.216 159.215C204.038 159.215 203.034 158.801 202.389 158.056C201.645 157.196 201.49 155.967 201.478 154.248V147.493C201.484 145.678 201.62 144.392 202.389 143.507C203.034 142.762 204.038 142.348 205.216 142.348C206.394 142.348 207.398 142.762 208.043 143.507C208.421 143.94 208.656 144.475 208.78 145.118H212.432C212.221 143.659 211.762 142.335 210.752 141.151C209.468 139.654 207.454 138.789 205.216 138.789C202.984 138.789 200.963 139.654 199.674 141.164C198.136 142.959 197.876 145.086 197.826 147.499L197.832 154.255C197.888 156.598 198.18 158.667 199.674 160.418C200.957 161.927 202.978 162.793 205.216 162.793C207.447 162.793 209.468 161.927 210.758 160.418C211.768 159.234 212.227 157.909 212.438 156.451H208.787C208.663 157.088 208.421 157.623 208.043 158.056Z" fill="#888888"/>
<path d="M245.28 135.47V140.525H244.055V139.666H242.077V138.682H244.055V137.843H242.169C241.619 139.232 240.37 140.192 238.44 140.718L237.958 139.743C239.974 139.218 240.968 138.248 241.141 137.042H238.43V136.058H242.482C242.482 136.343 242.463 136.618 242.42 136.878H244.055V135.47H245.28ZM239.357 142.406C239.352 141.321 240.553 140.636 242.357 140.631C244.137 140.636 245.343 141.321 245.347 142.406C245.343 143.506 244.137 144.2 242.357 144.2C240.553 144.2 239.352 143.506 239.357 142.406ZM240.582 142.406C240.582 142.951 241.243 143.226 242.357 143.226C243.447 143.226 244.108 142.951 244.113 142.406C244.108 141.866 243.447 141.586 242.357 141.596C241.243 141.586 240.582 141.866 240.582 142.406ZM253.384 135.47V137.322H254.57V138.325H253.384V140.419H252.149V135.47H253.384ZM246.775 139.946V135.885H248.01V138.938C249.076 138.914 250.219 138.813 251.435 138.576L251.579 139.579C250.132 139.869 248.767 139.946 247.528 139.946H246.775ZM247.634 144.133V140.814H253.384V144.133H247.634ZM248.84 143.168H252.178V141.769H248.84V143.168ZM262.548 135.46V144.239H261.381V139.83H260.532V143.815H259.403V135.605H260.532V138.846H261.381V135.46H262.548ZM255.207 142.252V136.473H258.477V137.467H256.442V141.219C257.291 141.205 258.043 141.157 258.892 141.007L258.979 142.011C257.908 142.213 256.972 142.247 255.815 142.252H255.207ZM268.703 136.242V137.216H263.494V136.242H265.491V135.412H266.716V136.242H268.703ZM263.918 139.116C263.918 138.152 264.825 137.501 266.098 137.496C267.377 137.501 268.259 138.152 268.259 139.116C268.259 140.081 267.377 140.732 266.098 140.737C264.825 140.732 263.918 140.081 263.918 139.116ZM264.545 142.319V141.335H270.459V144.239H269.224V142.319H264.545ZM265.124 139.116C265.119 139.565 265.51 139.797 266.098 139.792C266.692 139.797 267.092 139.565 267.092 139.116C267.092 138.663 266.692 138.422 266.098 138.422C265.51 138.422 265.119 138.663 265.124 139.116ZM269.224 140.969V135.46H270.459V137.737H271.645V138.74H270.459V140.969H269.224ZM279.315 136.222V137.081C279.31 138.152 279.31 139.353 278.987 141.123L277.781 141.017C278.066 139.406 278.075 138.214 278.08 137.197H272.822V136.222H279.315ZM272.031 143.168V142.165H273.739V139.406H274.964V142.165H275.929V139.406H277.144V142.165H280.038V143.168H272.031ZM286.087 136.965C286.082 138.089 286.719 139.179 288.142 139.637L287.496 140.602C286.536 140.279 285.87 139.652 285.489 138.851C285.098 139.729 284.399 140.419 283.386 140.766L282.701 139.792C284.201 139.329 284.843 138.152 284.852 136.955V136H286.087V136.965ZM284.11 144.085V141.258H285.364V143.101H290.139V144.085H284.11ZM288.576 141.895V135.46H289.811V137.997H290.998V139.039H289.811V141.895H288.576ZM296.593 136.242V137.216H291.383V136.242H293.38V135.412H294.606V136.242H296.593ZM291.808 139.116C291.808 138.152 292.715 137.501 293.988 137.496C295.266 137.501 296.149 138.152 296.149 139.116C296.149 140.081 295.266 140.732 293.988 140.737C292.715 140.732 291.808 140.081 291.808 139.116ZM292.435 142.319V141.335H298.349V144.239H297.114V142.319H292.435ZM293.014 139.116C293.009 139.565 293.4 139.797 293.988 139.792C294.582 139.797 294.982 139.565 294.982 139.116C294.982 138.663 294.582 138.422 293.988 138.422C293.4 138.422 293.009 138.663 293.014 139.116ZM297.114 140.969V135.46H298.349V137.737H299.535V138.74H298.349V140.969H297.114ZM307.321 135.47V141.885H306.095V139.801H304.089C303.664 140.25 303.057 140.525 302.372 140.525C301.04 140.525 300.027 139.56 300.037 138.258C300.027 136.936 301.04 135.976 302.372 135.971C303.052 135.976 303.659 136.246 304.084 136.695H306.095V135.47H307.321ZM301.204 138.258C301.199 138.991 301.687 139.435 302.372 139.435C303.018 139.435 303.515 138.991 303.52 138.258C303.515 137.515 303.018 137.071 302.372 137.071C301.687 137.071 301.199 137.515 301.204 138.258ZM301.494 144.085V141.239H302.729V143.101H307.533V144.085H301.494ZM304.615 137.679C304.663 137.862 304.687 138.055 304.687 138.258C304.687 138.451 304.663 138.639 304.619 138.817H306.095V137.679H304.615ZM315.752 135.701V136.618H314.604V137.775H315.694V138.692H309.221V137.775H310.301V136.618H309.163V135.701H315.752ZM308.459 140.12V139.155H316.466V140.12H308.459ZM309.385 141.509V140.621H315.492V142.792H310.601V143.274H315.723V144.181H309.395V141.953H314.276V141.509H309.385ZM311.536 137.775H313.369V136.618H311.536V137.775ZM324.541 135.47V141.364H323.373V138.586H322.611V140.641H321.463V135.624H322.611V137.592H323.373V135.47H324.541ZM317.344 137.052V136.068H320.691V138.74H318.54V139.604C319.5 139.589 320.219 139.536 321.048 139.377L321.155 140.342C320.146 140.544 319.283 140.568 317.961 140.573H317.354V137.853H319.505V137.052H317.344ZM318.048 143.245C319.924 143.009 320.875 142.059 320.875 141.133V140.978H322.11V141.133C322.105 142.059 323.05 143.009 324.946 143.245L324.454 144.2C323.055 144.003 322.032 143.409 321.497 142.589C320.952 143.409 319.929 144.003 318.54 144.2L318.048 143.245ZM333.541 139.715V140.689H325.534V139.715H328.911V139.01H326.296V138.026H327.377V136.685H326.239V135.701H332.828V136.685H331.68V138.026H332.77V139.01H330.146V139.715H333.541ZM326.46 144.143V141.287H332.586V144.143H326.46ZM327.676 143.159H331.38V142.252H327.676V143.159ZM328.612 138.026H330.445V136.685H328.612V138.026Z" fill="#888888"/>
<path d="M242.568 163.084L237.992 147.234H242.108L244.538 157.742H244.669L247.428 147.234H250.821L253.601 157.764H253.71L256.162 147.234H260.278L255.681 163.084H252.09L249.201 153.32H249.069L246.18 163.084H242.568ZM265.576 147.234V163.084H261.854V147.234H265.576ZM276.543 151.941C276.445 150.792 275.591 150.102 274.07 150.102C272.559 150.102 271.782 150.759 271.771 151.657C271.749 152.642 272.712 153.123 274.135 153.43L275.514 153.758C278.568 154.426 280.341 155.947 280.352 158.487C280.341 161.486 278.01 163.292 274.07 163.303C270.118 163.292 267.568 161.519 267.502 157.874H271.092C271.18 159.406 272.329 160.194 274.026 160.194C275.602 160.194 276.543 159.505 276.565 158.487C276.543 157.567 275.733 157.086 273.982 156.692L272.318 156.298C269.593 155.663 267.918 154.305 267.918 151.919C267.907 148.975 270.501 147.016 274.091 147.016C277.747 147.016 280.101 149.008 280.133 151.941H276.543ZM288.08 163.084H282.279V147.234H288.08C292.918 147.234 295.895 150.201 295.895 155.159C295.895 160.107 292.918 163.084 288.08 163.084ZM286 159.888H287.949C290.663 159.899 292.152 158.596 292.152 155.159C292.152 151.711 290.663 150.42 287.905 150.409H286V159.888ZM312.971 155.159C312.982 160.38 309.687 163.303 305.44 163.303C301.171 163.303 297.909 160.358 297.909 155.159C297.909 149.927 301.171 147.016 305.44 147.016C309.687 147.016 312.982 149.927 312.971 155.159ZM301.719 155.159C301.719 158.312 303.131 160.019 305.44 160.019C307.761 160.019 309.173 158.312 309.162 155.159C309.173 152.007 307.761 150.288 305.44 150.299C303.131 150.288 301.719 152.007 301.719 155.159ZM315.182 147.234H319.801L323.895 157.217H324.07L328.164 147.234H332.783V163.084H329.149V153.233H329.017L325.164 162.996H322.8L318.947 153.189H318.816V163.084H315.182V147.234Z" fill="#888888"/>
</g>
<defs>
<clipPath id="clip0_3504_131048">
<rect width="428" height="302" fill="white"/>
</clipPath>
</defs>
</svg>
