<svg width="35" height="34" viewBox="0 0 35 34" fill="none" xmlns="http://www.w3.org/2000/svg">
<g clip-path="url(#clip0_920_90899)">
<path d="M13.3054 25.4141C12.8894 25.5741 12.9014 25.9741 12.5334 25.9061C12.4094 25.8861 12.2934 25.7821 12.2454 25.6421C12.1974 25.4981 12.0854 25.1621 11.7134 25.0661C11.1854 24.9261 10.3174 25.6261 9.95344 26.0421C9.49344 24.9781 8.60944 24.5141 7.85344 24.5981C7.56544 24.6301 7.36144 24.8901 7.39344 25.1781C7.42544 25.4661 7.68544 25.6741 7.97344 25.6381C8.79344 25.5381 9.11744 26.6981 9.27344 27.4461C9.37744 27.9581 10.0934 28.0141 10.2774 27.5181C10.4734 26.9861 10.8654 26.5181 11.3614 26.2181C11.5654 26.5901 11.9334 26.8621 12.3534 26.9381C12.8494 27.0261 13.3694 26.8341 13.6894 26.4461C14.0974 26.5741 14.4814 26.6981 14.9054 26.6781C15.3974 26.6581 15.8854 26.4221 16.2374 26.0301C16.5894 25.6381 16.7774 25.1301 16.7454 24.6381C16.7294 24.3501 16.4734 24.1301 16.1934 24.1461C15.9054 24.1621 15.6854 24.4101 15.7014 24.6981C15.7294 25.1501 15.3094 25.6141 14.8574 25.6301C14.3134 25.6541 13.7934 25.2261 13.3054 25.4141Z" fill="#114493"/>
<path d="M17.8018 28.9419H7.30183C7.01383 28.9419 6.77783 29.1779 6.77783 29.4659C6.77783 29.7539 7.01383 29.9899 7.30183 29.9899H17.8018C18.0898 29.9899 18.3258 29.7539 18.3258 29.4659C18.3258 29.1779 18.0898 28.9419 17.8018 28.9419Z" fill="#114493"/>
<path d="M10.2137 10.7861C11.0737 10.7861 11.7697 10.0861 11.7697 9.23007C11.7697 8.37407 11.0697 7.67407 10.2137 7.67407C9.35771 7.67407 8.65771 8.37407 8.65771 9.23007C8.65771 10.0861 9.35771 10.7861 10.2137 10.7861ZM10.2137 8.72207C10.4937 8.72207 10.7257 8.95007 10.7257 9.23407C10.7257 9.51807 10.4977 9.74607 10.2137 9.74607C9.92971 9.74607 9.70171 9.51807 9.70171 9.23407C9.70171 8.95007 9.92971 8.72207 10.2137 8.72207Z" fill="#114493"/>
<path d="M7.94959 14.418C8.23759 14.418 8.47359 14.182 8.47359 13.894C8.47359 12.934 9.25359 12.15 10.2176 12.15C11.1816 12.15 11.9616 12.93 11.9616 13.894C11.9616 14.182 12.1976 14.418 12.4856 14.418C12.7736 14.418 13.0096 14.182 13.0096 13.894C13.0096 12.358 11.7576 11.106 10.2216 11.106C8.68559 11.106 7.43359 12.358 7.43359 13.894C7.43359 14.182 7.66959 14.418 7.95759 14.418H7.94959Z" fill="#114493"/>
<path d="M14.5458 15.1861V6.90608C14.5458 6.61808 14.3098 6.38208 14.0218 6.38208H6.40584C6.11784 6.38208 5.88184 6.61808 5.88184 6.90608V15.1861C5.88184 15.4741 6.11784 15.7101 6.40584 15.7101H14.0178C14.3058 15.7101 14.5418 15.4741 14.5418 15.1861H14.5458ZM13.4978 14.6621H6.92984V7.43008H13.4978V14.6621Z" fill="#114493"/>
<path d="M16.7535 7.93008H23.1815C23.4695 7.93008 23.7055 7.69408 23.7055 7.40608C23.7055 7.11808 23.4695 6.88208 23.1815 6.88208H16.7535C16.4655 6.88208 16.2295 7.11808 16.2295 7.40608C16.2295 7.69408 16.4655 7.93008 16.7535 7.93008Z" fill="#114493"/>
<path d="M16.7535 11.57H23.1815C23.4695 11.57 23.7055 11.334 23.7055 11.046C23.7055 10.758 23.4695 10.522 23.1815 10.522H16.7535C16.4655 10.522 16.2295 10.758 16.2295 11.046C16.2295 11.334 16.4655 11.57 16.7535 11.57Z" fill="#114493"/>
<path d="M16.7535 15.206H23.1815C23.4695 15.206 23.7055 14.97 23.7055 14.682C23.7055 14.394 23.4695 14.158 23.1815 14.158H16.7535C16.4655 14.158 16.2295 14.394 16.2295 14.682C16.2295 14.97 16.4655 15.206 16.7535 15.206Z" fill="#114493"/>
<path d="M34.4778 14.25C34.4498 14.114 34.3658 13.994 34.2498 13.922L33.3258 13.322L33.5658 12.95C34.2498 11.898 33.9498 10.486 32.8978 9.80204L32.3778 9.46604C31.3258 8.78204 29.9178 9.07404 29.2298 10.134L26.0018 15.102V4.02604C26.0018 3.73804 25.7658 3.50204 25.4778 3.50204H22.4538V0.970045C22.4538 0.682045 22.2178 0.446045 21.9298 0.446045H1.03377C0.745766 0.446045 0.509766 0.682045 0.509766 0.970045V26.018C0.509766 26.306 0.745766 26.542 1.03377 26.542H3.58977V33.034C3.58977 33.322 3.82577 33.558 4.11377 33.558H25.4858C25.7738 33.558 26.0098 33.322 26.0098 33.034V24.238C26.0098 24.238 26.0098 24.23 26.0098 24.226L29.4698 18.898C29.4898 18.898 29.5098 18.898 29.5298 18.89C29.6658 18.862 29.7858 18.778 29.8578 18.662L32.7618 14.194L33.2498 14.51L30.8418 18.218C30.6858 18.462 30.7538 18.782 30.9938 18.942C31.2378 19.098 31.5618 19.03 31.7178 18.79L34.4098 14.646C34.4858 14.53 34.5098 14.39 34.4818 14.254L34.4778 14.25ZM3.58577 25.494H1.55377V1.49004H21.4098V3.49804H4.10977C3.82177 3.49804 3.58577 3.73404 3.58577 4.02204V25.49V25.494ZM4.63377 32.506V4.54604H24.9618V16.794C24.9618 16.87 24.9778 16.938 25.0058 17.002L21.4418 22.49C21.3138 22.686 21.3418 22.934 21.4858 23.106L18.4498 27.79C18.2938 28.034 18.3618 28.354 18.6018 28.514L19.2818 28.954C19.5098 29.102 19.8178 29.05 19.9818 28.83C20.7218 27.85 21.9858 27.478 22.1738 27.426C23.7018 27.234 24.4418 26.166 24.7418 25.25C24.8098 25.29 24.8818 25.31 24.9578 25.318V32.502H4.63377V32.506ZM23.8138 24.662C23.3618 26.79 21.9098 25.87 19.9458 27.398L22.3378 23.71L23.8138 24.658V24.662ZM24.8458 24.082L22.5978 22.622L26.2738 16.962L28.5218 18.422L24.8458 24.082ZM29.2618 17.654C29.2098 17.618 26.6258 15.942 26.6778 15.974L30.1058 10.698C30.4818 10.118 31.2498 9.97405 31.8098 10.338L32.3298 10.674C32.8978 11.042 33.0618 11.806 32.6898 12.378C31.4538 14.278 30.5818 15.626 29.2618 17.658V17.654Z" fill="#114493"/>
</g>
<defs>
<clipPath id="clip0_920_90899">
<rect width="33.98" height="33.108" fill="white" transform="translate(0.509766 0.446045)"/>
</clipPath>
</defs>
</svg>
