<svg width="86" height="86" viewBox="0 0 86 86" fill="none" xmlns="http://www.w3.org/2000/svg">
<g clip-path="url(#clip0_949_103689)">
<path d="M84.4149 47.0304H77.4149C76.6949 47.0304 76.1049 47.6204 76.1049 48.3404V49.4104C67.5349 47.1904 67.8749 46.4604 65.7449 45.5204C65.7649 45.4404 65.7949 45.3704 65.7949 45.2804V7.5404C65.7949 5.7704 65.1049 4.1004 63.8549 2.8504C62.6049 1.6004 60.9349 0.9104 59.1649 0.9104H19.8649C19.5149 0.9104 19.1849 1.0504 18.9449 1.2904L1.1549 19.0704C0.914902 19.3104 0.774902 19.6504 0.774902 19.9904V78.4604C0.774902 82.1204 3.7549 85.1004 7.4149 85.1004H59.1549C62.8149 85.1004 65.7949 82.1204 65.7949 78.4604V77.6704C66.7249 78.0604 67.8349 78.2804 68.8549 77.8204C69.7249 77.4304 70.3049 76.6504 70.6149 75.5104C71.5249 75.8004 72.6449 75.9304 73.6649 75.4204C74.9249 74.7804 75.6049 73.4104 75.6849 71.3304C75.6949 71.0004 75.5849 70.6804 75.3749 70.4304L75.2549 70.2804C75.4649 70.2304 75.7749 70.2204 76.1149 70.2404V74.4004C76.1149 75.1204 76.7049 75.7104 77.4249 75.7104H84.4249C85.1449 75.7104 85.7349 75.1204 85.7349 74.4004V48.3404C85.7349 47.6204 85.1449 47.0304 84.4249 47.0304H84.4149ZM18.5549 5.3604V18.6804H5.2349L18.5549 5.3604ZM59.1549 82.4904H7.4149C5.1949 82.4904 3.3949 80.6904 3.3949 78.4704V21.3004H19.8749C20.5949 21.3004 21.1849 20.7104 21.1849 19.9904V3.5104H59.1649C60.2349 3.5104 61.2449 3.9304 62.0049 4.6904C62.7649 5.4504 63.1849 6.4604 63.1849 7.5304V44.5404C60.2749 43.6004 56.1549 42.8504 53.5049 44.8504L45.0049 51.7704L43.0749 51.1204V48.3304C43.0749 47.6104 42.4849 47.0204 41.7649 47.0204H34.7649C34.0449 47.0204 33.4549 47.6104 33.4549 48.3304V74.3904C33.4549 75.1104 34.0449 75.7004 34.7649 75.7004H41.7649C42.4849 75.7004 43.0749 75.1104 43.0749 74.3904V70.9204C44.7349 71.5804 52.7049 78.8304 55.9149 80.0904C56.2049 80.2304 57.0749 80.6104 58.0549 80.6104C58.5849 80.6104 59.1349 80.5004 59.6449 80.1804C60.0149 79.9504 60.4249 79.5704 60.7049 78.9304C61.4149 79.2104 62.2649 79.4104 63.1049 79.2704C62.7249 81.1004 61.1049 82.4804 59.1649 82.4804L59.1549 82.4904ZM40.4449 73.0904H36.0549V49.6404H40.4449V73.0904ZM72.4749 73.0804C72.0149 73.3104 70.9549 72.9004 70.3349 72.5204L68.0749 69.2504C67.6649 68.6604 66.8549 68.5104 66.2549 68.9204C65.6649 69.3304 65.5149 70.1404 65.9249 70.7404L68.2049 74.0404C68.1249 75.0504 67.8649 75.4004 67.7549 75.4504C67.3949 75.6104 66.2549 75.1104 65.4349 74.4304C65.4349 74.4304 65.4149 74.4304 65.4149 74.4204L63.0949 71.0704C62.6849 70.4804 61.8749 70.3304 61.2749 70.7404C60.6849 71.1504 60.5349 71.9604 60.9449 72.5604L63.2149 75.8404C63.0949 76.3704 62.9249 76.6304 62.7749 76.7004C62.3449 76.8904 61.3149 76.4404 60.6749 75.9904L58.3249 72.5904C57.9149 72.0004 57.1049 71.8504 56.5049 72.2604C55.9149 72.6704 55.7649 73.4804 56.1749 74.0804L58.4249 77.3304C58.3949 77.7804 58.2849 77.9604 58.2549 77.9804C56.9549 78.8004 47.5849 70.9904 46.3349 69.9704C45.3949 68.9904 44.0249 68.4504 43.0649 68.1804V56.4304C43.6549 57.8104 44.9349 58.8404 45.3249 59.1304C51.8549 63.1704 59.0049 55.8004 59.3449 55.7604L73.0349 71.7304C72.9549 72.4604 72.7549 72.9604 72.4849 73.1004L72.4749 73.0804ZM73.4949 68.2404C60.3549 52.9804 61.0849 53.6104 60.6049 53.3804C59.8949 53.0604 58.2049 52.8304 56.9849 54.2304C56.9249 54.2904 51.2249 59.6804 46.8049 56.9604C46.1849 56.4904 45.3449 55.5204 45.3749 54.9804C45.3849 54.7404 45.6849 54.5104 45.9449 54.3604C46.0849 54.2704 52.8849 48.7204 55.1149 46.9104C57.5049 45.1004 63.2349 47.2004 65.2449 48.1604C67.3449 49.7804 73.5749 51.4604 76.1149 52.1004V67.6104C75.2749 67.5804 74.2749 67.6904 73.5049 68.2404H73.4949ZM83.1149 73.0904H78.7249V49.6404H83.1149V73.0904Z" fill="#111111"/>
<path d="M29.5458 12.7903H57.3558C58.0758 12.7903 58.6658 12.1147 58.6658 11.2903C58.6658 10.4659 58.0758 9.79028 57.3558 9.79028H29.5458C28.8258 9.79028 28.2358 10.4659 28.2358 11.2903C28.2358 12.1147 28.8258 12.7903 29.5458 12.7903Z" fill="#111111"/>
<path d="M29.5458 21.6804H57.3558C58.0758 21.6804 58.6658 21.0048 58.6658 20.1804C58.6658 19.356 58.0758 18.6804 57.3558 18.6804H29.5458C28.8258 18.6804 28.2358 19.356 28.2358 20.1804C28.2358 21.0048 28.8258 21.6804 29.5458 21.6804Z" fill="#111111"/>
<path d="M9.21576 30.5703H57.3558C58.0758 30.5703 58.6658 29.8947 58.6658 29.0703C58.6658 28.2459 58.0758 27.5703 57.3558 27.5703H9.21576C8.49576 27.5703 7.90576 28.2459 7.90576 29.0703C7.90576 29.8947 8.49576 30.5703 9.21576 30.5703Z" fill="#111111"/>
<path d="M9.21576 39.4604H57.3558C58.0758 39.4604 58.6658 38.7849 58.6658 37.9604C58.6658 37.136 58.0758 36.4604 57.3558 36.4604H9.21576C8.49576 36.4604 7.90576 37.136 7.90576 37.9604C7.90576 38.7849 8.49576 39.4604 9.21576 39.4604Z" fill="#111111"/>
<path d="M29.5958 45.3604H9.21576C8.49576 45.3604 7.90576 46.0359 7.90576 46.8604C7.90576 47.6848 8.49576 48.3604 9.21576 48.3604H29.6058C30.3258 48.3604 30.9158 47.6848 30.9158 46.8604C30.9158 46.0359 30.3258 45.3604 29.6058 45.3604H29.5958Z" fill="#111111"/>
<path d="M29.5958 54.2505H9.21576C8.49576 54.2505 7.90576 54.9261 7.90576 55.7505C7.90576 56.5749 8.49576 57.2505 9.21576 57.2505H29.6058C30.3258 57.2505 30.9158 56.5749 30.9158 55.7505C30.9158 54.9261 30.3258 54.2505 29.6058 54.2505H29.5958Z" fill="#111111"/>
<path d="M29.5958 63.1404H9.21576C8.49576 63.1404 7.90576 63.816 7.90576 64.6404C7.90576 65.4648 8.49576 66.1404 9.21576 66.1404H29.6058C30.3258 66.1404 30.9158 65.4648 30.9158 64.6404C30.9158 63.816 30.3258 63.1404 29.6058 63.1404H29.5958Z" fill="#111111"/>
<path d="M29.5958 72.0303H9.21576C8.49576 72.0303 7.90576 72.7059 7.90576 73.5303C7.90576 74.3547 8.49576 75.0303 9.21576 75.0303H29.6058C30.3258 75.0303 30.9158 74.3547 30.9158 73.5303C30.9158 72.7059 30.3258 72.0303 29.6058 72.0303H29.5958Z" fill="#111111"/>
</g>
<defs>
<clipPath id="clip0_949_103689">
<rect width="84.95" height="84.2" fill="white" transform="translate(0.774902 0.900391)"/>
</clipPath>
</defs>
</svg>
