<svg width="72" height="86" viewBox="0 0 72 86" fill="none" xmlns="http://www.w3.org/2000/svg">
<g id="_&#229;&#175;&#131;&#226;&#145;&#184;&#226;&#148;&#129;_&#239;&#167;&#143;&#226;&#145;&#164;&#235;&#177;&#182;" clip-path="url(#clip0_949_103681)">
<path id="Vector" d="M65.6202 0.525391H16.0502C12.7702 0.525391 10.1002 3.19539 10.1002 6.47539V9.35539H6.88018C3.60018 9.35539 0.930176 12.0254 0.930176 15.3054V79.5254C0.930176 82.8054 3.60018 85.4754 6.88018 85.4754H56.4502C59.7302 85.4754 62.4002 82.8054 62.4002 79.5254V76.6354H65.6202C68.9002 76.6354 71.5702 73.9654 71.5702 70.6854V6.47539C71.5702 3.19539 68.9002 0.525391 65.6202 0.525391ZM59.7802 79.5254C59.7802 81.3654 58.2802 82.8654 56.4402 82.8654H6.88018C5.04018 82.8654 3.54018 81.3654 3.54018 79.5254V15.3054C3.54018 13.4654 5.04018 11.9654 6.88018 11.9654H11.3802C11.3802 11.9654 11.4002 11.9654 11.4102 11.9654H56.4502C58.2802 11.9654 59.7902 13.4554 59.7902 15.2954V79.5154L59.7802 79.5254ZM68.9602 70.6854C68.9602 72.5254 67.4602 74.0254 65.6202 74.0254H62.4002V15.3154C62.4002 12.0354 59.7402 9.35539 56.4502 9.35539H12.7102V6.47539C12.7102 4.63539 14.2102 3.13539 16.0502 3.13539H65.6202C67.4602 3.13539 68.9602 4.63539 68.9602 6.47539V70.6854Z" fill="#111111"/>
<path id="Vector_2" d="M51.3902 15.4854C48.7702 15.4854 46.6502 17.6154 46.6502 20.2254C46.6502 21.0454 46.8802 21.8054 47.2402 22.4754L40.6302 28.9854C39.9402 28.5954 39.1602 28.3554 38.3102 28.3554C37.4002 28.3554 36.5702 28.6254 35.8402 29.0654L29.8702 23.5754C30.1702 22.9554 30.3502 22.2654 30.3502 21.5254C30.3502 18.9054 28.2202 16.7854 25.6102 16.7854C23.0002 16.7854 20.8702 18.9154 20.8702 21.5254C20.8702 22.3154 21.0802 23.0454 21.4202 23.6954L14.2802 30.5354C13.5902 30.1354 12.8002 29.8954 11.9402 29.8954C9.3202 29.8954 7.2002 32.0254 7.2002 34.6354C7.2002 37.2454 9.3302 39.3754 11.9402 39.3754C14.5502 39.3754 16.6802 37.2454 16.6802 34.6354C16.6802 33.8254 16.4602 33.0753 16.1002 32.4053L23.2102 25.5854C23.9202 26.0054 24.7302 26.2554 25.6102 26.2554C26.5402 26.2554 27.4002 25.9754 28.1302 25.5154L34.0702 30.9854C33.7502 31.6254 33.5602 32.3354 33.5602 33.0854C33.5602 35.7054 35.6902 37.8254 38.3002 37.8254C40.9102 37.8254 43.0402 35.6954 43.0402 33.0854C43.0402 32.2654 42.8102 31.5154 42.4502 30.8454L49.0602 24.3354C49.7502 24.7254 50.5302 24.9654 51.3802 24.9654C54.0002 24.9654 56.1202 22.8354 56.1202 20.2254C56.1202 17.6154 53.9902 15.4854 51.3802 15.4854H51.3902ZM11.9402 36.7654C10.7702 36.7654 9.8102 35.8054 9.8102 34.6354C9.8102 33.4654 10.7702 32.5054 11.9402 32.5054C13.1102 32.5054 14.0702 33.4754 14.0702 34.6354C14.0702 35.7954 13.1102 36.7654 11.9402 36.7654ZM23.4802 21.5254C23.4802 20.3554 24.4402 19.3954 25.6102 19.3954C26.7802 19.3954 27.7402 20.3554 27.7402 21.5254C27.7402 22.6954 26.7802 23.6554 25.6102 23.6554C24.4402 23.6554 23.4802 22.6954 23.4802 21.5254ZM38.3102 35.2254C37.1402 35.2254 36.1802 34.2654 36.1802 33.0954C36.1802 31.9254 37.1402 30.9654 38.3102 30.9654C39.4802 30.9654 40.4402 31.9254 40.4402 33.0954C40.4402 34.2654 39.4802 35.2254 38.3102 35.2254ZM51.3902 22.3554C50.2202 22.3554 49.2602 21.3954 49.2602 20.2254C49.2602 19.0554 50.2202 18.0954 51.3902 18.0954C52.5602 18.0954 53.5202 19.0554 53.5202 20.2254C53.5202 21.3954 52.5602 22.3554 51.3902 22.3554Z" fill="#111111"/>
<path id="Vector_3" d="M53.6102 46.1055H9.72016C9.00016 46.1055 8.41016 46.6955 8.41016 47.4155C8.41016 48.1355 8.99016 48.7255 9.72016 48.7255H53.6102C54.3302 48.7255 54.9202 48.1355 54.9202 47.4155C54.9202 46.6955 54.3402 46.1055 53.6102 46.1055Z" fill="#111111"/>
<path id="Vector_4" d="M53.6101 55.3555H34.8701C34.1501 55.3555 33.5601 55.9455 33.5601 56.6655C33.5601 57.3855 34.1401 57.9755 34.8701 57.9755H53.6101C54.3301 57.9755 54.9201 57.3855 54.9201 56.6655C54.9201 55.9455 54.3401 55.3555 53.6101 55.3555Z" fill="#111111"/>
<path id="Vector_5" d="M53.6101 64.6055H34.8701C34.1501 64.6055 33.5601 65.1955 33.5601 65.9155C33.5601 66.6355 34.1401 67.2255 34.8701 67.2255H53.6101C54.3301 67.2255 54.9201 66.6355 54.9201 65.9155C54.9201 65.1955 54.3401 64.6055 53.6101 64.6055Z" fill="#111111"/>
<path id="Vector_6" d="M53.6101 73.8555H34.8701C34.1501 73.8555 33.5601 74.4455 33.5601 75.1655C33.5601 75.8855 34.1401 76.4755 34.8701 76.4755H53.6101C54.3301 76.4755 54.9201 75.8855 54.9201 75.1655C54.9201 74.4455 54.3401 73.8555 53.6101 73.8555Z" fill="#111111"/>
<path id="Vector_7" d="M19.4902 54.8354C13.3802 54.8354 8.41016 59.8054 8.41016 65.9154C8.41016 72.0254 13.4202 76.9954 19.4902 76.9954C25.5602 76.9954 30.3502 72.2255 30.5502 66.2854C30.9602 60.6154 26.0902 54.8454 19.4902 54.8454V54.8354ZM27.8802 64.8754H20.8002V57.5654C24.5102 58.1454 27.4202 61.1354 27.8802 64.8754ZM18.1802 57.5654V65.6455L12.7802 71.0454C11.6902 69.6154 11.0302 67.8454 11.0302 65.9154C11.0302 61.6954 14.1402 58.1954 18.1802 57.5654ZM19.4902 74.3754C17.7002 74.3754 16.0402 73.8154 14.6702 72.8554L20.0302 67.4954H27.8002C27.0602 71.4054 23.6202 74.3754 19.4902 74.3754Z" fill="#111111"/>
</g>
<defs>
<clipPath id="clip0_949_103681">
<rect width="70.64" height="84.95" fill="white" transform="translate(0.930176 0.525391)"/>
</clipPath>
</defs>
</svg>
