<svg width="85" height="84" viewBox="0 0 85 84" fill="none" xmlns="http://www.w3.org/2000/svg">
<g clip-path="url(#clip0_949_103663)">
<path d="M32.0143 63.2777C30.9743 63.7082 31.0043 64.7846 30.0843 64.6016C29.7743 64.5478 29.4843 64.2679 29.3643 63.8912C29.2443 63.5037 28.9643 62.5996 28.0343 62.3413C26.7143 61.9646 24.5443 63.8481 23.6343 64.9675C22.4843 62.1045 20.2743 60.856 18.3843 61.082C17.6643 61.1681 17.1543 61.8677 17.2343 62.6427C17.3143 63.4176 17.9643 63.9773 18.6843 63.8804C20.7343 63.6114 21.5443 66.7327 21.9343 68.7454C22.1943 70.1231 23.9843 70.2738 24.4443 68.9392C24.9343 67.5077 25.9143 66.2484 27.1543 65.4411C27.6643 66.4421 28.5843 67.174 29.6343 67.3785C30.8743 67.6153 32.1743 67.0987 32.9743 66.0546C33.9943 66.399 34.9543 66.7327 36.0143 66.6789C37.2443 66.6251 38.4643 65.99 39.3443 64.9352C40.2243 63.8804 40.6943 62.5135 40.6143 61.1896C40.5743 60.4147 39.9343 59.8227 39.2343 59.8657C38.5143 59.9088 37.9643 60.5761 38.0043 61.3511C38.0743 62.5673 37.0243 63.8159 35.8943 63.8589C34.5343 63.9235 33.2343 62.7718 32.0143 63.2777Z" fill="#111111"/>
<path d="M43.2548 71.8555H17.0048C16.2848 71.8555 15.6948 72.531 15.6948 73.3555C15.6948 74.1799 16.2848 74.8555 17.0048 74.8555H43.2548C43.9748 74.8555 44.5648 74.1799 44.5648 73.3555C44.5648 72.531 43.9748 71.8555 43.2548 71.8555Z" fill="#111111"/>
<path d="M24.285 26.4655C26.435 26.4655 28.175 24.7155 28.175 22.5755C28.175 20.4355 26.425 18.6855 24.285 18.6855C22.145 18.6855 20.395 20.4355 20.395 22.5755C20.395 24.7155 22.145 26.4655 24.285 26.4655ZM24.285 21.3055C24.985 21.3055 25.565 21.8755 25.565 22.5855C25.565 23.2955 24.995 23.8655 24.285 23.8655C23.575 23.8655 23.005 23.2955 23.005 22.5855C23.005 21.8755 23.575 21.3055 24.285 21.3055Z" fill="#111111"/>
<path d="M18.625 35.5454C19.345 35.5454 19.935 34.9554 19.935 34.2354C19.935 31.8354 21.885 29.8754 24.295 29.8754C26.705 29.8754 28.655 31.8254 28.655 34.2354C28.655 34.9554 29.245 35.5454 29.965 35.5454C30.685 35.5454 31.275 34.9554 31.275 34.2354C31.275 30.3954 28.145 27.2654 24.305 27.2654C20.465 27.2654 17.335 30.3954 17.335 34.2354C17.335 34.9554 17.925 35.5454 18.645 35.5454H18.625Z" fill="#111111"/>
<path d="M35.1148 37.4656V16.7656C35.1148 16.0456 34.5248 15.4556 33.8048 15.4556H14.7648C14.0448 15.4556 13.4548 16.0456 13.4548 16.7656V37.4656C13.4548 38.1856 14.0448 38.7756 14.7648 38.7756H33.7948C34.5148 38.7756 35.1048 38.1856 35.1048 37.4656H35.1148ZM32.4948 36.1556H16.0748V18.0756H32.4948V36.1556Z" fill="#111111"/>
<path d="M40.6357 19.7056H56.7057C57.4257 19.7056 58.0157 19.03 58.0157 18.2056C58.0157 17.3811 57.4257 16.7056 56.7057 16.7056H40.6357C39.9157 16.7056 39.3257 17.3811 39.3257 18.2056C39.3257 19.03 39.9157 19.7056 40.6357 19.7056Z" fill="#111111"/>
<path d="M40.6357 28.8054H56.7057C57.4257 28.8054 58.0157 28.1298 58.0157 27.3054C58.0157 26.481 57.4257 25.8054 56.7057 25.8054H40.6357C39.9157 25.8054 39.3257 26.481 39.3257 27.3054C39.3257 28.1298 39.9157 28.8054 40.6357 28.8054Z" fill="#111111"/>
<path d="M40.6357 37.8955H56.7057C57.4257 37.8955 58.0157 37.2199 58.0157 36.3955C58.0157 35.5711 57.4257 34.8955 56.7057 34.8955H40.6357C39.9157 34.8955 39.3257 35.5711 39.3257 36.3955C39.3257 37.2199 39.9157 37.8955 40.6357 37.8955Z" fill="#111111"/>
<path d="M84.9449 35.1255C84.8749 34.7855 84.6649 34.4855 84.3749 34.3055L82.0649 32.8055L82.6649 31.8755C84.3749 29.2455 83.6249 25.7155 80.9949 24.0055L79.6949 23.1655C77.0649 21.4555 73.5449 22.1855 71.8249 24.8355L63.7549 37.2555V9.56548C63.7549 8.84548 63.1649 8.25548 62.4449 8.25548H54.8849V1.92548C54.8849 1.20548 54.2949 0.615479 53.5749 0.615479H1.3349C0.614902 0.615479 0.0249023 1.20548 0.0249023 1.92548V64.5455C0.0249023 65.2655 0.614902 65.8555 1.3349 65.8555H7.7249V82.0855C7.7249 82.8055 8.3149 83.3955 9.0349 83.3955H62.4649C63.1849 83.3955 63.7749 82.8055 63.7749 82.0855V60.0955C63.7749 60.0955 63.7749 60.0755 63.7749 60.0655L72.4249 46.7455C72.4749 46.7455 72.5249 46.7455 72.5749 46.7255C72.9149 46.6555 73.2149 46.4455 73.3949 46.1555L80.6549 34.9855L81.8749 35.7755L75.8549 45.0455C75.4649 45.6555 75.6349 46.4555 76.2349 46.8555C76.8449 47.2455 77.6549 47.0755 78.0449 46.4755L84.7749 36.1155C84.9649 35.8255 85.0249 35.4755 84.9549 35.1355L84.9449 35.1255ZM7.7149 63.2355H2.6349V3.22548H52.2749V8.24548H9.0249C8.3049 8.24548 7.7149 8.83548 7.7149 9.55548V63.2255V63.2355ZM10.3349 80.7655V10.8655H61.1549V41.4855C61.1549 41.6755 61.1949 41.8455 61.2649 42.0055L52.3549 55.7255C52.0349 56.2155 52.1049 56.8355 52.4649 57.2655L44.8749 68.9755C44.4849 69.5855 44.6549 70.3855 45.2549 70.7855L46.9549 71.8855C47.5249 72.2555 48.2949 72.1255 48.7049 71.5755C50.5549 69.1255 53.7149 68.1955 54.1849 68.0655C58.0049 67.5855 59.8549 64.9155 60.6049 62.6255C60.7749 62.7255 60.9549 62.7755 61.1449 62.7955V80.7555H10.3349V80.7655ZM58.2849 61.1555C57.1549 66.4755 53.5249 64.1755 48.6149 67.9955L54.5949 58.7755L58.2849 61.1455V61.1555ZM60.8649 59.7055L55.2449 56.0555L64.4349 41.9055L70.0549 45.5555L60.8649 59.7055ZM71.9049 43.6355C71.7749 43.5455 65.3149 39.3555 65.4449 39.4355L74.0149 26.2455C74.9549 24.7955 76.8749 24.4355 78.2749 25.3455L79.5749 26.1855C80.9949 27.1055 81.4049 29.0155 80.4749 30.4455C77.3849 35.1955 75.2049 38.5655 71.9049 43.6455V43.6355Z" fill="#111111"/>
</g>
<defs>
<clipPath id="clip0_949_103663">
<rect width="84.95" height="82.77" fill="white" transform="translate(0.0249023 0.615479)"/>
</clipPath>
</defs>
</svg>
