<svg width="30" height="34" viewBox="0 0 30 34" fill="none" xmlns="http://www.w3.org/2000/svg">
<g clip-path="url(#clip0_920_90891)">
<path d="M26.7481 0.0100098H6.92007C5.60807 0.0100098 4.54007 1.07801 4.54007 2.39001V3.54201H3.25207C1.94007 3.54201 0.87207 4.61001 0.87207 5.92201V31.61C0.87207 32.922 1.94007 33.99 3.25207 33.99H23.0801C24.3921 33.99 25.4601 32.922 25.4601 31.61V30.454H26.7481C28.0601 30.454 29.1281 29.386 29.1281 28.074V2.39001C29.1281 1.07801 28.0601 0.0100098 26.7481 0.0100098ZM24.4121 31.61C24.4121 32.346 23.8121 32.946 23.0761 32.946H3.25207C2.51607 32.946 1.91607 32.346 1.91607 31.61V5.92201C1.91607 5.18601 2.51607 4.58601 3.25207 4.58601H5.05207C5.05207 4.58601 5.06007 4.58601 5.06407 4.58601H23.0801C23.8121 4.58601 24.4161 5.18201 24.4161 5.91801V31.606L24.4121 31.61ZM28.0841 28.074C28.0841 28.81 27.4841 29.41 26.7481 29.41H25.4601V5.92601C25.4601 4.61401 24.3961 3.54201 23.0801 3.54201H5.58407V2.39001C5.58407 1.65401 6.18407 1.05401 6.92007 1.05401H26.7481C27.4841 1.05401 28.0841 1.65401 28.0841 2.39001V28.074Z" fill="#114493"/>
<path d="M21.0559 5.9939C20.0079 5.9939 19.1599 6.8459 19.1599 7.8899C19.1599 8.2179 19.2519 8.5219 19.3959 8.7899L16.7519 11.3939C16.4759 11.2379 16.1639 11.1419 15.8239 11.1419C15.4599 11.1419 15.1279 11.2499 14.8359 11.4259L12.4479 9.2299C12.5679 8.9819 12.6399 8.7059 12.6399 8.4099C12.6399 7.3619 11.7879 6.5139 10.7439 6.5139C9.69988 6.5139 8.84788 7.3659 8.84788 8.4099C8.84788 8.7259 8.93188 9.0179 9.06788 9.2779L6.21188 12.0139C5.93588 11.8539 5.61988 11.7579 5.27588 11.7579C4.22788 11.7579 3.37988 12.6099 3.37988 13.6539C3.37988 14.6979 4.23188 15.5499 5.27588 15.5499C6.31988 15.5499 7.17188 14.6979 7.17188 13.6539C7.17188 13.3299 7.08388 13.0299 6.93988 12.7619L9.78388 10.0339C10.0679 10.2019 10.3919 10.3019 10.7439 10.3019C11.1159 10.3019 11.4599 10.1899 11.7519 10.0059L14.1279 12.1939C13.9999 12.4499 13.9239 12.7339 13.9239 13.0339C13.9239 14.0819 14.7759 14.9299 15.8199 14.9299C16.8639 14.9299 17.7159 14.0779 17.7159 13.0339C17.7159 12.7059 17.6239 12.4059 17.4799 12.1379L20.1239 9.5339C20.3999 9.6899 20.7119 9.7859 21.0519 9.7859C22.0999 9.7859 22.9479 8.9339 22.9479 7.8899C22.9479 6.8459 22.0959 5.9939 21.0519 5.9939H21.0559ZM5.27588 14.5059C4.80788 14.5059 4.42388 14.1219 4.42388 13.6539C4.42388 13.1859 4.80788 12.8019 5.27588 12.8019C5.74388 12.8019 6.12788 13.1899 6.12788 13.6539C6.12788 14.1179 5.74388 14.5059 5.27588 14.5059ZM9.89188 8.4099C9.89188 7.9419 10.2759 7.5579 10.7439 7.5579C11.2119 7.5579 11.5959 7.9419 11.5959 8.4099C11.5959 8.8779 11.2119 9.2619 10.7439 9.2619C10.2759 9.2619 9.89188 8.8779 9.89188 8.4099ZM15.8239 13.8899C15.3559 13.8899 14.9719 13.5059 14.9719 13.0379C14.9719 12.5699 15.3559 12.1859 15.8239 12.1859C16.2919 12.1859 16.6759 12.5699 16.6759 13.0379C16.6759 13.5059 16.2919 13.8899 15.8239 13.8899ZM21.0559 8.7419C20.5879 8.7419 20.2039 8.3579 20.2039 7.8899C20.2039 7.4219 20.5879 7.0379 21.0559 7.0379C21.5239 7.0379 21.9079 7.4219 21.9079 7.8899C21.9079 8.3579 21.5239 8.7419 21.0559 8.7419Z" fill="#114493"/>
<path d="M21.9443 18.2419H4.38826C4.10026 18.2419 3.86426 18.4779 3.86426 18.7659C3.86426 19.0539 4.09626 19.2899 4.38826 19.2899H21.9443C22.2323 19.2899 22.4683 19.0539 22.4683 18.7659C22.4683 18.4779 22.2363 18.2419 21.9443 18.2419Z" fill="#114493"/>
<path d="M21.9438 21.9419H14.4478C14.1598 21.9419 13.9238 22.1779 13.9238 22.4659C13.9238 22.7539 14.1558 22.9899 14.4478 22.9899H21.9438C22.2318 22.9899 22.4678 22.7539 22.4678 22.4659C22.4678 22.1779 22.2358 21.9419 21.9438 21.9419Z" fill="#114493"/>
<path d="M21.9438 25.6421H14.4478C14.1598 25.6421 13.9238 25.8781 13.9238 26.1661C13.9238 26.4541 14.1558 26.6901 14.4478 26.6901H21.9438C22.2318 26.6901 22.4678 26.4541 22.4678 26.1661C22.4678 25.8781 22.2358 25.6421 21.9438 25.6421Z" fill="#114493"/>
<path d="M21.9438 29.342H14.4478C14.1598 29.342 13.9238 29.578 13.9238 29.866C13.9238 30.154 14.1558 30.39 14.4478 30.39H21.9438C22.2318 30.39 22.4678 30.154 22.4678 29.866C22.4678 29.578 22.2358 29.342 21.9438 29.342Z" fill="#114493"/>
<path d="M8.29626 21.7339C5.85226 21.7339 3.86426 23.7219 3.86426 26.1659C3.86426 28.6099 5.86826 30.5979 8.29626 30.5979C10.7243 30.5979 12.6403 28.6899 12.7203 26.3139C12.8843 24.0459 10.9363 21.7379 8.29626 21.7379V21.7339ZM11.6523 25.7499H8.82026V22.8259C10.3043 23.0579 11.4683 24.2539 11.6523 25.7499ZM7.77226 22.8259V26.0579L5.61226 28.2179C5.17626 27.6459 4.91226 26.9379 4.91226 26.1659C4.91226 24.4779 6.15626 23.0779 7.77226 22.8259ZM8.29626 29.5499C7.58026 29.5499 6.91626 29.3259 6.36826 28.9419L8.51226 26.7979H11.6203C11.3243 28.3619 9.94826 29.5499 8.29626 29.5499Z" fill="#114493"/>
</g>
<defs>
<clipPath id="clip0_920_90891">
<rect width="28.256" height="33.98" fill="white" transform="translate(0.87207 0.0100098)"/>
</clipPath>
</defs>
</svg>
