<svg width="85" height="85" viewBox="0 0 85 85" fill="none" xmlns="http://www.w3.org/2000/svg">
<g clip-path="url(#clip0_949_103714)">
<path d="M69.295 45.6455C72.125 45.6455 74.425 43.3455 74.425 40.5155C74.425 37.6855 72.125 35.3855 69.295 35.3855C66.465 35.3855 64.165 37.6855 64.165 40.5155C64.165 43.3455 66.465 45.6455 69.295 45.6455ZM69.295 37.9855C70.685 37.9855 71.815 39.1155 71.815 40.5055C71.815 41.8955 70.685 43.0255 69.295 43.0255C67.905 43.0255 66.775 41.8955 66.775 40.5055C66.775 39.1155 67.905 37.9855 69.295 37.9855Z" fill="#111111"/>
<path d="M77.705 58.2954C78.425 58.2954 79.015 57.7054 79.015 56.9854V53.5554C79.015 49.4254 75.655 46.0654 71.465 46.0654C70.975 46.0654 70.525 46.3454 70.305 46.7754L69.295 48.7554L68.285 46.7754C68.065 46.3354 67.575 46.0654 67.085 46.0654C62.945 46.0654 59.585 49.4254 59.585 53.5554V56.9854C59.585 57.7054 60.165 58.2954 60.895 58.2954H77.725H77.705ZM62.185 53.5554C62.185 51.1254 63.975 49.0954 66.345 48.7354L68.125 52.2254C68.565 53.1054 70.005 53.1054 70.455 52.2254L72.235 48.7254C74.585 49.0754 76.405 51.1054 76.405 53.5554V55.6754H75.955L75.655 53.3854C75.565 52.6654 74.905 52.1554 74.195 52.2554C73.475 52.3454 72.975 53.0054 73.065 53.7254L73.315 55.6754H65.265L65.515 53.7254C65.605 53.0054 65.105 52.3554 64.385 52.2554C63.665 52.1554 63.015 52.6654 62.925 53.3854L62.625 55.6754H62.175V53.5554H62.185Z" fill="#111111"/>
<path d="M42.5951 14.9054C45.5751 14.9054 48.0051 12.4754 48.0051 9.49545C48.0051 6.51545 45.5851 4.08545 42.5951 4.08545C39.6051 4.08545 37.1851 6.51545 37.1851 9.49545C37.1851 12.4754 39.6151 14.9054 42.5951 14.9054ZM42.5951 6.70545C44.1351 6.70545 45.3851 7.95545 45.3851 9.49545C45.3851 11.0354 44.1351 12.2854 42.5951 12.2854C41.0551 12.2854 39.8051 11.0354 39.8051 9.49545C39.8051 7.95545 41.0551 6.70545 42.5951 6.70545Z" fill="#111111"/>
<path d="M44.9149 16.2854C44.4249 16.2854 43.9749 16.5654 43.7549 16.9954L42.5949 19.2754L41.4349 16.9954C41.2149 16.5554 40.7249 16.2854 40.2249 16.2854C35.8449 16.2854 32.2749 19.8454 32.2749 24.2254V27.9054C32.2749 28.6254 32.8549 29.2154 33.5849 29.2154H51.6149C52.3349 29.2154 52.9249 28.6254 52.9249 27.9054V24.2254C52.9249 19.8454 49.3649 16.2854 44.9249 16.2854H44.9149ZM50.2949 26.5854H34.8749V24.2154C34.8749 21.5354 36.8649 19.3154 39.4749 18.9454L41.4149 22.7454C41.8549 23.6254 43.2949 23.6254 43.7449 22.7454L45.6849 18.9354C48.2849 19.2854 50.2949 21.5154 50.2949 24.2054V26.5754V26.5854Z" fill="#111111"/>
<path d="M74.7853 62.0554C71.9553 62.0554 69.6553 64.3554 69.6553 67.1854C69.6553 70.0154 71.9553 72.3154 74.7853 72.3154C77.6153 72.3154 79.9153 70.0154 79.9153 67.1854C79.9153 64.3554 77.6153 62.0554 74.7853 62.0554ZM74.7853 69.7054C73.3953 69.7054 72.2653 68.5754 72.2653 67.1854C72.2653 65.7954 73.3953 64.6654 74.7853 64.6654C76.1753 64.6654 77.3053 65.7954 77.3053 67.1854C77.3053 68.5754 76.1753 69.7054 74.7853 69.7054Z" fill="#111111"/>
<path d="M76.9449 72.7454C76.4549 72.7454 76.0049 73.0254 75.7749 73.4554L74.7649 75.4354L73.7549 73.4554C73.5349 73.0154 73.0449 72.7454 72.5549 72.7454C68.4149 72.7454 65.0449 76.1054 65.0449 80.2454V83.6754C65.0449 84.3954 65.6249 84.9854 66.3549 84.9854H83.1849C83.9049 84.9854 84.4949 84.3954 84.4949 83.6754V80.2454C84.4949 76.1154 81.1349 72.7454 76.9349 72.7454H76.9449ZM81.8849 82.3654H81.4349L81.1349 80.0754C81.0449 79.3554 80.3849 78.8554 79.6749 78.9454C78.9549 79.0354 78.4549 79.6954 78.5449 80.4054L78.7949 82.3554H70.7449L70.9949 80.4054C71.0849 79.6854 70.5849 79.0354 69.8649 78.9454C69.1449 78.8454 68.4949 79.3554 68.4049 80.0754L68.1049 82.3654H67.6549V80.2454C67.6549 77.8154 69.4449 75.7854 71.8149 75.4254L73.5949 78.9154C74.0349 79.7954 75.4749 79.7954 75.9249 78.9154L77.7049 75.4154C80.0549 75.7654 81.8749 77.7954 81.8749 80.2454V82.3654H81.8849Z" fill="#111111"/>
<path d="M15.7052 45.6455C18.5352 45.6455 20.8352 43.3455 20.8352 40.5155C20.8352 37.6855 18.5352 35.3855 15.7052 35.3855C12.8752 35.3855 10.5752 37.6855 10.5752 40.5155C10.5752 43.3455 12.8752 45.6455 15.7052 45.6455ZM15.7052 37.9855C17.0952 37.9855 18.2252 39.1155 18.2252 40.5055C18.2252 41.8955 17.0952 43.0255 15.7052 43.0255C14.3152 43.0255 13.1852 41.8955 13.1852 40.5055C13.1852 39.1155 14.3152 37.9855 15.7052 37.9855Z" fill="#111111"/>
<path d="M25.4253 56.9854V53.5554C25.4253 49.4254 22.0553 46.0654 17.8753 46.0654C17.3853 46.0654 16.9353 46.3454 16.7153 46.7754L15.7053 48.7554L14.6953 46.7754C14.4753 46.3354 13.9653 46.0654 13.4653 46.0654C9.33533 46.0654 5.96533 49.4254 5.96533 53.5554V56.9854C5.96533 57.7054 6.54533 58.2954 7.27533 58.2954H24.1053C24.8253 58.2954 25.4153 57.7054 25.4153 56.9854H25.4253ZM22.8153 55.6854H22.3653L22.0653 53.3954C21.9753 52.6754 21.3153 52.1654 20.6053 52.2654C19.8853 52.3554 19.3853 53.0154 19.4753 53.7254L19.7253 55.6754H11.6753L11.9253 53.7254C12.0153 53.0054 11.5153 52.3554 10.7953 52.2554C10.0753 52.1554 9.42533 52.6654 9.33533 53.3854L9.03533 55.6754H8.58533V53.5554C8.58533 51.1254 10.3753 49.0954 12.7553 48.7354L14.5353 52.2254C14.7553 52.6654 15.2053 52.9354 15.7053 52.9354C16.2053 52.9354 16.6453 52.6554 16.8653 52.2254L18.6453 48.7254C20.9953 49.0754 22.8053 51.1054 22.8053 53.5554V55.6754L22.8153 55.6854Z" fill="#111111"/>
<path d="M15.3552 67.1854C15.3552 64.3554 13.0552 62.0554 10.2252 62.0554C7.39521 62.0554 5.09521 64.3554 5.09521 67.1854C5.09521 70.0154 7.39521 72.3154 10.2252 72.3154C13.0552 72.3154 15.3552 70.0154 15.3552 67.1854ZM7.69521 67.1854C7.69521 65.7954 8.82522 64.6654 10.2152 64.6654C11.6052 64.6654 12.7352 65.7954 12.7352 67.1854C12.7352 68.5754 11.6052 69.7054 10.2152 69.7054C8.82522 69.7054 7.69521 68.5754 7.69521 67.1854Z" fill="#111111"/>
<path d="M12.3951 72.7454C11.9051 72.7454 11.4551 73.0254 11.2351 73.4554L10.2251 75.4354L9.21512 73.4554C8.99512 73.0154 8.48512 72.7454 7.99512 72.7454C3.86512 72.7454 0.495117 76.1054 0.495117 80.2454V83.6754C0.495117 84.3954 1.07512 84.9854 1.80512 84.9854H18.6351C19.3551 84.9854 19.9451 84.3954 19.9451 83.6754V80.2454C19.9451 76.1154 16.5751 72.7454 12.3951 72.7454ZM17.3251 82.3654H16.8751L16.5751 80.0754C16.4851 79.3554 15.8351 78.8554 15.1151 78.9454C14.3951 79.0354 13.8951 79.6954 13.9851 80.4154L14.2351 82.3654H6.19512L6.44512 80.4154C6.53512 79.6954 6.03512 79.0454 5.31512 78.9454C4.59512 78.8454 3.94512 79.3554 3.85512 80.0754L3.55512 82.3654H3.10512V80.2454C3.10512 77.8154 4.89512 75.7854 7.27512 75.4254L9.05512 78.9154C9.49512 79.7954 10.9351 79.7954 11.3851 78.9154L13.1651 75.4154C15.5151 75.7654 17.3251 77.7954 17.3251 80.2454V82.3654Z" fill="#111111"/>
<path d="M21.2153 34.0154H63.9653C64.6853 34.0154 65.2753 33.4254 65.2753 32.7054V1.33539C65.2753 0.615391 64.6953 0.0253906 63.9653 0.0253906H21.2153C20.4953 0.0253906 19.9053 0.615391 19.9053 1.33539V32.7054C19.9053 33.4254 20.4853 34.0154 21.2153 34.0154ZM22.5253 2.63539H62.6653V31.3954H22.5253V2.63539Z" fill="#111111"/>
<path d="M56.055 45.1654C55.655 42.8954 53.685 41.2454 51.385 41.2454H33.795C31.495 41.2454 29.525 42.8954 29.125 45.1654L23.065 79.4054C22.815 80.7854 23.195 82.2054 24.105 83.2754C25.005 84.3554 26.335 84.9754 27.735 84.9754H57.4349C58.8449 84.9754 60.1649 84.3554 61.0649 83.2754C61.9649 82.1954 62.3449 80.7854 62.0949 79.4054L56.035 45.1554L56.055 45.1654ZM59.075 81.5954C58.665 82.0754 58.075 82.3554 57.445 82.3554H27.745C27.115 82.3554 26.515 82.0754 26.115 81.5954C25.715 81.1154 25.545 80.4754 25.655 79.8554L31.715 45.6154C31.895 44.5954 32.775 43.8554 33.815 43.8554H51.405C52.435 43.8554 53.3149 44.5954 53.5049 45.6154L59.5649 79.8554C59.6749 80.4754 59.5049 81.1054 59.1049 81.5954H59.075Z" fill="#111111"/>
</g>
<defs>
<clipPath id="clip0_949_103714">
<rect width="84.01" height="84.95" fill="white" transform="translate(0.495117 0.0253906)"/>
</clipPath>
</defs>
</svg>
