<svg width="84" height="86" viewBox="0 0 84 86" fill="none" xmlns="http://www.w3.org/2000/svg">
<g clip-path="url(#clip0_949_103673)">
<path d="M42.7347 16.0054H42.6847V12.9254C43.5247 13.0454 44.3047 13.3654 45.0347 13.8754L46.1047 12.3654C45.0347 11.6354 43.8947 11.2254 42.6947 11.1354V10.2954H41.6447V11.1154C40.5847 11.1754 39.7247 11.4954 39.0647 12.0954C38.4047 12.6954 38.0747 13.4654 38.0747 14.4154C38.0747 15.3654 38.3647 16.0754 38.9347 16.5554C39.5047 17.0354 40.4147 17.4254 41.6547 17.7254V20.9054C40.6847 20.7554 39.7347 20.2754 38.8147 19.4754L37.6147 20.9054C38.8047 21.9454 40.1547 22.5354 41.6547 22.6954V23.8954H42.7047V22.7154C43.8247 22.6654 44.7147 22.3354 45.3947 21.7354C46.0747 21.1354 46.4147 20.3554 46.4147 19.3954C46.4147 18.4354 46.1147 17.7054 45.5247 17.2054C44.9347 16.7054 44.0147 16.3054 42.7547 16.0054H42.7347ZM41.6347 15.7054C41.0247 15.5054 40.6047 15.3054 40.3847 15.0854C40.1647 14.8754 40.0547 14.5854 40.0547 14.2154C40.0547 13.8454 40.1947 13.5454 40.4747 13.2954C40.7547 13.0454 41.1347 12.9054 41.6347 12.8654V15.7054ZM43.9347 20.4954C43.6247 20.7454 43.2147 20.8954 42.6847 20.9554V18.0054C43.3447 18.2054 43.7847 18.4154 44.0247 18.6354C44.2647 18.8554 44.3847 19.1654 44.3847 19.5454C44.3847 19.9254 44.2347 20.2454 43.9247 20.4954H43.9347Z" fill="#111111"/>
<path d="M79.1847 26.9053C76.6547 26.9053 74.5947 28.9753 74.5947 31.5153V45.7653L72.5247 48.1553C71.8947 46.2453 70.0247 44.5353 67.6447 44.6953C66.3947 44.7853 65.2347 45.4053 64.4547 46.3853L56.4147 56.5953C55.7447 57.5453 55.3947 58.6653 55.3947 59.8353V71.4853H53.8447C52.9947 71.4853 52.3047 72.1753 52.3047 73.0253V84.0953C52.3047 84.8153 52.8847 85.4053 53.6147 85.4053H75.7047C76.4247 85.4053 77.0147 84.8153 77.0147 84.0953V73.0253C77.0147 72.1753 76.3247 71.4853 75.4747 71.4853H73.3947C73.4347 70.6153 73.1747 65.5953 73.9847 64.3153L83.1947 51.7053C83.5847 51.0953 83.7947 50.3853 83.7947 49.6553V31.5153C83.7947 28.9753 81.7347 26.9053 79.1947 26.9053H79.1847ZM74.3947 82.7953H54.9247V74.1053H74.3947V82.7953ZM81.0247 50.2353L71.8147 62.8553C71.0147 64.0953 70.7747 66.8853 70.7747 67.7553V71.4953H58.0047V59.8453C58.0047 59.2153 58.1947 58.6153 58.5147 58.1653L66.5147 48.0053C66.8447 47.5953 67.3147 47.3453 67.8447 47.3053C69.6247 47.1853 71.0447 49.7353 69.5947 51.4953L68.2047 53.1753C67.7447 53.7253 67.8147 54.5453 68.3647 55.0053C68.9147 55.4653 69.7247 55.4053 70.1947 54.8653L76.8547 47.1653C77.0847 46.8953 77.2147 46.5453 77.2147 46.1853V31.5153C77.2147 30.4153 78.1047 29.5153 79.1947 29.5153C80.2847 29.5153 81.1747 30.4153 81.1747 31.5153C81.1047 50.2053 81.3147 49.7853 81.0347 50.2353H81.0247Z" fill="#111111"/>
<path d="M30.1548 71.5653H28.6048C28.3248 60.7053 29.3148 59.1253 27.5348 56.6153L19.5348 46.4553C17.9048 44.3753 14.8448 44.1853 12.9348 45.9753L12.8248 46.0853C12.1848 46.6953 11.7248 47.4353 11.4648 48.2253L9.39484 45.8353V31.5853C9.39484 29.0453 7.33484 26.9753 4.79484 26.9753C2.25484 26.9753 0.214844 29.0353 0.214844 31.5853V49.7253C0.214844 50.4553 0.424844 51.1653 0.864844 51.8453L9.98484 64.3253C10.2948 64.8153 10.6148 66.7753 10.6148 67.8153V71.5553H8.53484C7.68484 71.5553 6.99484 72.2453 6.99484 73.0953V84.1653C6.99484 84.8853 7.57484 85.4753 8.30484 85.4753H30.3948C31.1148 85.4753 31.7048 84.8853 31.7048 84.1653V73.0953C31.7048 72.2453 31.0148 71.5553 30.1648 71.5553L30.1548 71.5653ZM12.1348 62.8553L3.01484 50.3653C2.89484 50.1753 2.82484 49.9553 2.82484 49.7253V31.5853C2.82484 30.4853 3.71484 29.5853 4.80484 29.5853C5.89484 29.5853 6.78484 30.4853 6.78484 31.5853V46.2553C6.78484 46.6153 6.91484 46.9653 7.15484 47.2353L13.8148 54.9353C14.2848 55.4753 15.1048 55.5353 15.6448 55.0753C16.1948 54.6153 16.2648 53.7953 15.8048 53.2453L14.4148 51.5653C13.5348 50.5053 13.6348 48.9353 14.6348 47.9853L14.7448 47.8753C15.5148 47.1453 16.7948 47.1953 17.4848 48.0753C25.0848 58.0953 25.9848 58.0353 25.9848 59.9153V71.5653H13.2248V67.8253C13.2248 66.9553 12.9748 64.1653 12.1348 62.8553ZM29.0848 82.8653H9.60484V74.1753H29.0748V82.8653H29.0848Z" fill="#111111"/>
<path d="M25.465 76.6753C24.445 76.6753 23.625 77.4953 23.625 78.5153C23.625 79.5353 24.445 80.3553 25.465 80.3553C26.485 80.3553 27.305 79.5353 27.305 78.5153C27.305 77.4953 26.485 76.6753 25.465 76.6753Z" fill="#111111"/>
<path d="M58.5348 76.6753C57.5148 76.6753 56.6948 77.4953 56.6948 78.5153C56.6948 79.5353 57.5148 80.3553 58.5348 80.3553C59.5548 80.3553 60.3748 79.5353 60.3748 78.5153C60.3748 77.4953 59.5548 76.6753 58.5348 76.6753Z" fill="#111111"/>
<path d="M13.2048 33.6554H70.7848C71.5048 33.6554 72.0948 33.0654 72.0948 32.3454V1.83539C72.0948 1.11539 71.5148 0.525391 70.7848 0.525391H62.5148C62.5148 0.525391 62.4948 0.525391 62.4848 0.525391C62.4748 0.525391 62.4648 0.525391 62.4548 0.525391H21.5448C21.5448 0.525391 21.5248 0.525391 21.5148 0.525391C21.5048 0.525391 21.4948 0.525391 21.4848 0.525391H13.2148C12.4948 0.525391 11.9048 1.11539 11.9048 1.83539V32.3454C11.9048 33.0654 12.4848 33.6554 13.2148 33.6554H13.2048ZM69.4748 22.8354C65.2148 23.4154 61.8448 26.7854 61.2648 31.0354H22.7248C22.1448 26.7854 18.7648 23.4154 14.5148 22.8354V11.3454C18.7648 10.7654 22.1348 7.39539 22.7248 3.13539H61.2748C61.8548 7.39539 65.2248 10.7654 69.4748 11.3454V22.8354ZM14.5148 25.4854C17.3248 26.0154 19.5448 28.2354 20.0848 31.0354H14.5148V25.4854ZM63.9148 31.0354C64.4548 28.2254 66.6648 26.0154 69.4748 25.4854V31.0354H63.9148ZM69.4748 8.70539C66.6648 8.17539 64.4548 5.95539 63.9148 3.14539H69.4748V8.70539ZM20.0748 3.14539C19.5348 5.95539 17.3248 8.17539 14.5148 8.70539V3.14539H20.0748Z" fill="#111111"/>
<path d="M41.9951 4.82544C36.4451 4.82544 31.9351 10.3254 31.9351 17.0954C31.9351 23.8654 36.4451 29.3654 41.9951 29.3654C47.5451 29.3654 52.0551 23.8654 52.0551 17.0954C52.0551 10.3254 47.5451 4.82544 41.9951 4.82544ZM41.9951 26.7454C37.8951 26.7454 34.5551 22.4154 34.5551 17.0954C34.5551 11.7754 37.8951 7.44544 41.9951 7.44544C46.0951 7.44544 49.4351 11.7754 49.4351 17.0954C49.4351 22.4154 46.0951 26.7454 41.9951 26.7454Z" fill="#111111"/>
</g>
<defs>
<clipPath id="clip0_949_103673">
<rect width="83.57" height="84.95" fill="white" transform="translate(0.214844 0.525391)"/>
</clipPath>
</defs>
</svg>
