<svg width="86" height="86" viewBox="0 0 86 86" fill="none" xmlns="http://www.w3.org/2000/svg">
<g clip-path="url(#clip0_795_69875)">
<path d="M66.6608 54.505H66.5908V50.385C67.7208 50.545 68.7608 50.965 69.7208 51.655L71.1508 49.635C69.7208 48.655 68.2008 48.105 66.5908 47.995V46.875H65.1908V47.975C63.7708 48.045 62.6208 48.485 61.7408 49.295C60.8608 50.095 60.4108 51.135 60.4108 52.395C60.4108 53.655 60.7908 54.615 61.5608 55.255C62.3308 55.895 63.5408 56.415 65.1908 56.815V61.065C63.8908 60.865 62.6308 60.225 61.4008 59.155L59.8008 61.065C61.3908 62.455 63.1908 63.245 65.1908 63.455V65.055H66.5908V63.475C68.0808 63.405 69.2808 62.965 70.1808 62.155C71.0908 61.355 71.5408 60.315 71.5408 59.035C71.5408 57.755 71.1508 56.785 70.3608 56.115C69.5708 55.445 68.3408 54.905 66.6608 54.515V54.505ZM65.1908 54.105C64.3708 53.845 63.8208 53.565 63.5208 53.285C63.2308 53.005 63.0808 52.615 63.0808 52.125C63.0808 51.635 63.2708 51.225 63.6408 50.895C64.0108 50.565 64.5308 50.375 65.1908 50.315V54.105ZM68.2608 60.505C67.8508 60.845 67.3008 61.045 66.5908 61.115V57.165C67.4708 57.425 68.0708 57.715 68.3908 58.005C68.7108 58.305 68.8708 58.715 68.8708 59.225C68.8708 59.735 68.6708 60.165 68.2608 60.495V60.505Z" fill="#111111"/>
<path d="M84.8702 22.8449L62.9402 0.914902C62.7302 0.704902 62.4002 0.524902 62.0102 0.524902H24.9102C24.1902 0.524902 23.6002 1.1149 23.6002 1.8349V28.8249H2.05023C1.33023 28.8249 0.740234 29.4149 0.740234 30.1349V84.1749C0.740234 84.8949 1.33023 85.4849 2.05023 85.4849H46.9502C47.6702 85.4849 48.2602 84.8949 48.2602 84.1749V75.9849H83.9602C84.6802 75.9849 85.2702 75.3949 85.2702 74.6749V23.7849C85.2702 23.4549 85.1402 23.1049 84.8802 22.8449H84.8702ZM63.3202 4.9849L80.8002 22.4649H63.3202V4.9849ZM45.6402 82.8649H3.35023V31.4349H45.6402V82.8649ZM48.2602 73.3649V30.1249C48.2602 29.4049 47.6702 28.8149 46.9502 28.8149H26.2102V3.1349H60.7002V23.7749C60.7002 24.4949 61.2902 25.0849 62.0102 25.0849H82.6502V73.3749H48.2602V73.3649Z" fill="#111111"/>
<path d="M8.47992 48.4049H40.5199C41.2399 48.4049 41.8299 47.8149 41.8299 47.0949V36.5549C41.8299 35.8349 41.2399 35.2449 40.5199 35.2449H8.47992C7.75992 35.2449 7.16992 35.8349 7.16992 36.5549V47.0949C7.16992 47.8149 7.75992 48.4049 8.47992 48.4049ZM9.78992 37.8649H39.2099V45.7949H9.78992V37.8649Z" fill="#111111"/>
<path d="M13.9798 54.645H9.31977C8.59977 54.645 8.00977 55.235 8.00977 55.955C8.00977 56.675 8.59977 57.265 9.31977 57.265H13.9798C14.6998 57.265 15.2898 56.675 15.2898 55.955C15.2898 55.235 14.6998 54.645 13.9798 54.645Z" fill="#111111"/>
<path d="M25.9895 54.645H21.3295C20.6095 54.645 20.0195 55.235 20.0195 55.955C20.0195 56.675 20.6095 57.265 21.3295 57.265H25.9895C26.7095 57.265 27.2995 56.675 27.2995 55.955C27.2995 55.235 26.7095 54.645 25.9895 54.645Z" fill="#111111"/>
<path d="M39.6809 54.645H35.0209C34.3009 54.645 33.7109 55.235 33.7109 55.955C33.7109 56.675 34.3009 57.265 35.0209 57.265H39.6809C40.4009 57.265 40.9909 56.675 40.9909 55.955C40.9909 55.235 40.4009 54.645 39.6809 54.645Z" fill="#111111"/>
<path d="M13.9798 65.0249H9.31977C8.59977 65.0249 8.00977 65.6149 8.00977 66.3349C8.00977 67.0549 8.59977 67.6449 9.31977 67.6449H13.9798C14.6998 67.6449 15.2898 67.0549 15.2898 66.3349C15.2898 65.6149 14.6998 65.0249 13.9798 65.0249Z" fill="#111111"/>
<path d="M25.9895 65.0249H21.3295C20.6095 65.0249 20.0195 65.6149 20.0195 66.3349C20.0195 67.0549 20.6095 67.6449 21.3295 67.6449H25.9895C26.7095 67.6449 27.2995 67.0549 27.2995 66.3349C27.2995 65.6149 26.7095 65.0249 25.9895 65.0249Z" fill="#111111"/>
<path d="M39.6809 65.0249H35.0209C34.3009 65.0249 33.7109 65.6149 33.7109 66.3349C33.7109 67.0549 34.3009 67.6449 35.0209 67.6449H39.6809C40.4009 67.6449 40.9909 67.0549 40.9909 66.3349C40.9909 65.6149 40.4009 65.0249 39.6809 65.0249Z" fill="#111111"/>
<path d="M13.9798 75.395H9.31977C8.59977 75.395 8.00977 75.985 8.00977 76.705C8.00977 77.425 8.59977 78.015 9.31977 78.015H13.9798C14.6998 78.015 15.2898 77.425 15.2898 76.705C15.2898 75.985 14.6998 75.395 13.9798 75.395Z" fill="#111111"/>
<path d="M25.9895 75.395H21.3295C20.6095 75.395 20.0195 75.985 20.0195 76.705C20.0195 77.425 20.6095 78.015 21.3295 78.015H25.9895C26.7095 78.015 27.2995 77.425 27.2995 76.705C27.2995 75.985 26.7095 75.395 25.9895 75.395Z" fill="#111111"/>
<path d="M39.6809 75.395H35.0209C34.3009 75.395 33.7109 75.985 33.7109 76.705C33.7109 77.425 34.3009 78.015 35.0209 78.015H39.6809C40.4009 78.015 40.9909 77.425 40.9909 76.705C40.9909 75.985 40.4009 75.395 39.6809 75.395Z" fill="#111111"/>
<path d="M65.6704 42.6848C58.3504 42.6848 52.4004 48.6348 52.4004 55.9548C52.4004 63.2748 58.3504 69.2248 65.6704 69.2248C72.9904 69.2248 78.9404 63.2748 78.9404 55.9548C78.9404 48.6348 72.9904 42.6848 65.6704 42.6848ZM65.6704 66.6148C59.7904 66.6148 55.0104 61.8348 55.0104 55.9548C55.0104 50.0748 59.7904 45.2948 65.6704 45.2948C71.5504 45.2948 76.3304 50.0748 76.3304 55.9548C76.3304 61.8348 71.5504 66.6148 65.6704 66.6148Z" fill="#111111"/>
<path d="M31.5893 11.965H54.2793C54.9993 11.965 55.5893 11.375 55.5893 10.655C55.5893 9.93497 54.9993 9.34497 54.2793 9.34497H31.5893C30.8693 9.34497 30.2793 9.93497 30.2793 10.655C30.2793 11.375 30.8693 11.965 31.5893 11.965Z" fill="#111111"/>
<path d="M55.5893 19.8549C55.5893 19.1349 54.9993 18.5449 54.2793 18.5449H31.5893C30.8693 18.5449 30.2793 19.1349 30.2793 19.8549C30.2793 20.5749 30.8693 21.1649 31.5893 21.1649H54.2793C54.9993 21.1649 55.5893 20.5749 55.5893 19.8549Z" fill="#111111"/>
</g>
<defs>
<clipPath id="clip0_795_69875">
<rect width="84.52" height="84.95" fill="white" transform="translate(0.740234 0.524902)"/>
</clipPath>
</defs>
</svg>
