<svg width="34" height="34" viewBox="0 0 34 34" fill="none" xmlns="http://www.w3.org/2000/svg">
<g clip-path="url(#clip0_920_90909)">
<path d="M3.46218 17.324L9.23018 18.14C9.78218 18.216 10.0542 17.48 9.57818 17.18C9.49818 17.128 7.68618 15.932 8.27018 12.436C9.21418 12.28 11.5182 11.644 12.8942 9.10798C13.4902 10.084 14.6102 11.404 16.2782 11.408C16.3222 13.5 16.0782 16.6 15.1782 17.444C14.7982 17.8 15.1182 18.432 15.6262 18.34C21.0702 17.228 21.5622 17.548 21.6782 16.896C21.7182 16.68 21.6182 16.464 21.4262 16.352C21.3382 16.3 19.3182 15.072 19.5382 11.94C19.5622 11.776 20.1342 7.84398 17.8942 5.21998C16.6422 3.75198 14.7742 2.99598 12.3422 2.97998C9.91418 2.99598 8.05018 3.74798 6.79418 5.21998C4.55418 7.84798 5.12618 11.776 5.14618 11.9C5.37418 15.072 3.35018 16.304 3.26618 16.352C2.83818 16.6 2.96218 17.252 3.45418 17.324H3.46218ZM6.19018 11.788C6.18618 11.752 5.66618 8.15598 7.59818 5.89998C8.64618 4.67598 10.2462 4.04798 12.3462 4.03198C17.0182 4.05998 19.0702 7.32798 18.5062 11.828C18.3382 14.196 19.2422 15.68 19.9902 16.492L16.6022 17.104C17.4822 14.968 17.3302 11.308 17.3062 10.816C17.2902 10.5 17.0022 10.272 16.6942 10.328C14.5582 10.704 13.3662 7.74398 13.3542 7.71598C13.2742 7.51598 13.0662 7.37998 12.8622 7.38398C12.6462 7.38398 12.4502 7.51998 12.3782 7.72398C11.0942 11.212 7.93418 11.432 7.80218 11.44C7.56218 11.452 7.36218 11.624 7.31818 11.856C6.81018 14.336 7.33818 15.944 7.94218 16.9L4.75418 16.448C5.49418 15.628 6.37018 14.14 6.20218 11.784L6.19018 11.788Z" fill="#114493"/>
<path d="M16.3659 19.2921C16.1339 19.2561 15.9179 19.3681 15.8139 19.5721C14.2779 22.6041 10.4059 22.5761 8.8859 19.5721C8.7819 19.3681 8.5619 19.2561 8.3339 19.2921C5.3299 19.7801 1.2779 21.3721 0.865903 24.3961C0.361904 28.0601 -0.186096 32.5961 0.0779035 33.3921C0.149904 33.6041 0.349903 33.7521 0.573904 33.7521H24.1179C24.3419 33.7521 24.5419 33.6081 24.6139 33.3921C24.8779 32.6001 24.3299 28.0601 23.8259 24.3961C23.4139 21.3641 19.3419 19.7801 16.3579 19.2921H16.3659ZM1.0459 32.7041C1.0379 31.6001 1.3659 28.4481 1.9059 24.5361C2.2379 22.1121 5.7779 20.8881 8.1499 20.3921C10.1459 23.7081 14.5579 23.7081 16.5579 20.3921C18.9299 20.8881 22.4659 22.1121 22.8019 24.5361C23.3379 28.4481 23.6659 31.6001 23.6579 32.7041H1.0459Z" fill="#114493"/>
<path d="M12.3502 29.5962C11.8302 29.5962 11.4102 30.0162 11.4102 30.5362C11.4102 31.0562 11.8302 31.4762 12.3502 31.4762C12.8702 31.4762 13.2902 31.0562 13.2902 30.5362C13.2902 30.0162 12.8702 29.5962 12.3502 29.5962Z" fill="#114493"/>
<path d="M12.3502 26.78C11.8302 26.78 11.4102 27.2 11.4102 27.72C11.4102 28.24 11.8302 28.66 12.3502 28.66C12.8702 28.66 13.2902 28.24 13.2902 27.72C13.2902 27.2 12.8702 26.78 12.3502 26.78Z" fill="#114493"/>
<path d="M12.3502 23.9641C11.8302 23.9641 11.4102 24.3841 11.4102 24.9041C11.4102 25.4241 11.8302 25.8441 12.3502 25.8441C12.8702 25.8441 13.2902 25.4241 13.2902 24.9041C13.2902 24.3841 12.8702 23.9641 12.3502 23.9641Z" fill="#114493"/>
<path d="M27.2984 0.248047C23.6104 0.248047 20.6104 3.24805 20.6104 6.93605C20.6104 8.16005 20.9424 9.35205 21.5664 10.388L21.1584 13.288C21.1104 13.632 21.4024 13.924 21.7464 13.88L25.4944 13.38C26.0824 13.548 26.6904 13.632 27.2984 13.632C30.9864 13.632 33.9864 10.628 33.9864 6.93605C33.9864 3.24405 30.9864 0.248047 27.2984 0.248047ZM27.2984 12.588C26.7504 12.588 26.2104 12.508 25.6864 12.352C25.6144 12.332 25.5344 12.324 25.4624 12.336L22.2904 12.76L22.6304 10.356C22.6464 10.232 22.6184 10.104 22.5504 10C21.9664 9.09205 21.6544 8.03605 21.6544 6.94805C21.6544 3.83605 24.1864 1.30405 27.2984 1.30405C30.4104 1.30405 32.9424 3.83605 32.9424 6.94805C32.9424 10.06 30.4104 12.596 27.2984 12.596V12.588Z" fill="#114493"/>
<path d="M31.0102 4.36401C30.4222 4.36401 29.9462 4.84001 29.9462 5.42801C29.9462 5.56801 29.9742 5.69601 30.0222 5.82001L28.7102 7.44001C28.6502 7.42801 28.5902 7.42001 28.5302 7.42001C28.4702 7.42001 28.4142 7.42801 28.3582 7.43601L27.2062 6.01601C27.2382 5.91201 27.2622 5.80401 27.2622 5.69201C27.2622 5.10401 26.7862 4.62801 26.1982 4.62801C25.6102 4.62801 25.1342 5.10401 25.1342 5.69201C25.1342 5.75201 25.1422 5.81201 25.1542 5.87201L23.9462 6.93201C23.8342 6.89201 23.7182 6.86801 23.5982 6.86801C23.0102 6.86801 22.5342 7.34401 22.5342 7.93201C22.5342 8.52001 23.0102 8.99601 23.5982 8.99601C24.1862 8.99601 24.6622 8.52001 24.6622 7.93201C24.6622 7.85601 24.6542 7.78401 24.6382 7.71201L25.8142 6.68001C25.9342 6.72801 26.0622 6.75601 26.1982 6.75601C26.2822 6.75601 26.3622 6.74401 26.4382 6.72801L27.5422 8.09201C27.4942 8.21601 27.4662 8.34801 27.4662 8.48801C27.4662 9.07601 27.9422 9.55201 28.5302 9.55201C29.1182 9.55201 29.5942 9.07601 29.5942 8.48801C29.5942 8.35201 29.5662 8.22001 29.5182 8.10001L30.8342 6.47601C30.8902 6.48401 30.9502 6.49201 31.0102 6.49201C31.5982 6.49201 32.0742 6.01601 32.0742 5.42801C32.0742 4.84001 31.5982 4.36401 31.0102 4.36401Z" fill="#114493"/>
</g>
<defs>
<clipPath id="clip0_920_90909">
<rect width="33.972" height="33.504" fill="white" transform="translate(0.0141602 0.248047)"/>
</clipPath>
</defs>
</svg>
