<svg width="148" height="126" viewBox="0 0 148 126" fill="none" xmlns="http://www.w3.org/2000/svg">
<g clip-path="url(#clip0_2418_106556)">
<path d="M87.9687 55.616L89.6674 56.855C87.3512 58.0395 84.9027 58.9451 82.3732 59.5528L80.9743 68.4457H76.9775L78.3764 59.4729C81.7309 58.6476 84.9343 57.2988 87.8688 55.4761" fill="white"/>
<path d="M45.3428 12.6703L46.9815 11.0316L52.617 15.1683C51.8775 15.548 51.1381 15.9477 50.4187 16.3873L45.3428 12.6703Z" fill="white"/>
<path d="M55.614 56.855L49.9785 60.9717L48.3398 59.333L53.4158 55.616C54.1352 56.0556 54.8746 56.4753 55.614 56.855Z" fill="white"/>
<path d="M67.7052 27.7782C68.3732 27.7752 69.0407 27.8152 69.7036 27.8981C65.5851 28.3704 61.7841 30.341 59.0248 33.4348C56.2655 36.5286 54.7406 40.5292 54.7406 44.6747C54.7406 48.8202 56.2655 52.8209 59.0248 55.9146C61.7841 59.0084 65.5851 60.9791 69.7036 61.4513C69.0407 61.5342 68.3732 61.5743 67.7052 61.5712C63.3245 61.4205 59.1736 59.5744 56.1279 56.4221C53.0822 53.2699 51.3799 49.058 51.3799 44.6747C51.3799 40.2915 53.0822 36.0796 56.1279 32.9273C59.1736 29.7751 63.3245 27.9289 67.7052 27.7782Z" fill="white"/>
<path d="M67.7051 61.5711C68.3731 61.5742 69.0406 61.5341 69.7035 61.4512C70.3664 61.5333 71.0339 61.5733 71.7019 61.5711C76.0825 61.4205 80.2334 59.5743 83.2791 56.4221C86.3248 53.2698 88.0272 49.0579 88.0272 44.6747C88.0272 40.2914 86.3248 36.0795 83.2791 32.9272C80.2334 29.775 76.0825 27.9288 71.7019 27.7782C71.0339 27.776 70.3664 27.816 69.7035 27.8981C69.0406 27.8152 68.3731 27.7751 67.7051 27.7782C63.3244 27.9288 59.1735 29.775 56.1278 32.9272C53.0821 36.0795 51.3798 40.2914 51.3798 44.6747C51.3798 49.0579 53.0821 53.2698 56.1278 56.4221C59.1735 59.5743 63.3244 61.4205 67.7051 61.5711ZM43.3046 61.9508C41.4818 59.0163 40.133 55.8129 39.3078 52.4584L30.335 51.0595V38.2898L39.3078 36.8909C40.133 33.5364 41.4818 30.333 43.3046 27.3985L37.9489 20.0643L45.343 12.6703L50.4189 16.4872C51.1383 16.0476 51.8777 15.6479 52.6171 15.2682L54.3158 16.4872C57.2499 14.6639 60.4535 13.315 63.8082 12.4904L65.2071 3.51758H74.0999L75.4788 12.4904C78.8411 13.3111 82.0518 14.6601 84.9912 16.4872L86.6699 15.2682C87.4293 15.6479 88.1487 16.0476 88.8681 16.4872L93.9641 12.7702L101.358 20.1643L95.9824 27.4984C97.8052 30.4329 99.154 33.6363 99.9792 36.9908L108.952 38.3897V51.0595L99.9792 52.4584C99.154 55.8129 97.8052 59.0163 95.9824 61.9508L101.358 69.285L93.9641 76.679L88.8481 72.962C88.1287 73.4017 87.4093 73.8213 86.6499 74.201L84.9712 72.962C82.0315 74.7885 78.8209 76.1375 75.4589 76.9588L74.08 85.9316H65.2071L63.8082 76.9588C60.4537 76.1336 57.2503 74.7848 54.3158 72.962L52.6171 74.201C51.8777 73.8213 51.1383 73.4017 50.4189 72.962L45.343 76.679L37.9489 69.285L43.3046 61.9508Z" fill="#6099FF"/>
<path fill-rule="evenodd" clip-rule="evenodd" d="M64.0438 3.35851C64.1322 2.78458 64.626 2.36096 65.2067 2.36096H77.9765C78.5572 2.36096 79.0511 2.78458 79.1395 3.35851L80.4004 11.5452C83.3397 12.341 86.1591 13.5275 88.783 15.0729L95.4634 10.1447C95.9318 9.79917 96.5824 9.848 96.994 10.2596L106.007 19.2723C106.417 19.6828 106.467 20.3312 106.124 20.7995L101.232 27.4808C102.778 30.1054 103.965 32.9256 104.761 35.866L112.948 37.1269C113.522 37.2153 113.945 37.7091 113.945 38.2898V51.0596C113.945 51.6398 113.522 52.1334 112.949 52.2223L104.701 53.5025C103.905 56.4432 102.718 59.2638 101.172 61.8887L106.064 68.5699C106.407 69.0382 106.357 69.6866 105.947 70.0971L96.934 79.1098C96.5224 79.5215 95.8715 79.5702 95.4031 79.2244L88.7811 74.3355C86.1551 75.8749 83.3372 77.0608 80.4006 77.8623L79.1395 86.0509C79.0511 86.6248 78.5572 87.0484 77.9765 87.0484H65.2067C64.626 87.0484 64.1322 86.6248 64.0438 86.0509L62.7826 77.8623C59.8444 77.0604 57.0251 75.8736 54.3979 74.333L47.7147 79.2084C47.2465 79.5501 46.5991 79.4997 46.1892 79.0899L37.1765 70.0771C36.7666 69.6672 36.7163 69.0199 37.0579 68.5516L41.9333 61.8684C40.3925 59.2409 39.2057 56.4212 38.4037 53.4826L30.2938 52.2223C29.7206 52.1332 29.2979 51.6397 29.2979 51.0596V38.2898C29.2979 37.7091 29.7215 37.2153 30.2954 37.1269L38.484 35.8657C39.2854 32.9295 40.471 30.1119 42.0102 27.4862L37.0628 20.8046C36.716 20.3362 36.7643 19.6845 37.1765 19.2723L46.1892 10.2596C46.6008 9.848 47.2514 9.79917 47.7198 10.1447L54.4003 15.0729C57.0241 13.5275 59.8435 12.341 62.7829 11.5452L64.0438 3.35851ZM66.216 4.71428L64.9908 12.6696C64.9184 13.1394 64.5705 13.5195 64.1089 13.633C60.8745 14.4288 57.7857 15.7293 54.9563 17.4868C54.5472 17.7409 54.0245 17.7201 53.6369 17.4341L47.1374 12.6395L39.5576 20.2193L44.3698 26.7183C44.6562 27.1051 44.6782 27.6274 44.4252 28.0369C42.674 30.8718 41.3732 33.9611 40.5692 37.1948C40.4548 37.6551 40.0752 38.0017 39.6065 38.0739L31.6512 39.2991V50.0517L39.5281 51.2758C39.9962 51.3485 40.375 51.6949 40.4893 52.1546C41.2933 55.3883 42.5941 58.4776 44.3453 61.3125C44.5966 61.7194 44.5767 62.238 44.2948 62.6244L39.5525 69.125L47.1413 76.7138L53.642 71.9715C54.0283 71.6896 54.5469 71.6697 54.9538 71.9211C57.7887 73.6722 60.8781 74.973 64.1117 75.777C64.572 75.8915 64.9186 76.271 64.9908 76.7398L66.216 84.6951H76.9672L78.1925 76.7398C78.2647 76.271 78.6112 75.8915 79.0715 75.777C82.3052 74.973 85.3946 73.6722 88.2294 71.9211C88.6384 71.6684 89.1599 71.69 89.5467 71.9755L95.9861 76.7297L103.569 69.1463L98.8097 62.646C98.5261 62.2587 98.5062 61.7379 98.7596 61.33C100.517 58.5006 101.818 55.4118 102.613 52.1774C102.727 51.7163 103.106 51.3686 103.575 51.2957L111.592 50.0515V39.2991L103.637 38.0739C103.167 38.0015 102.787 37.6536 102.673 37.192C101.878 33.9576 100.577 30.8688 98.8195 28.0394C98.5662 27.6315 98.586 27.1107 98.8697 26.7234L103.629 20.2231L96.0458 12.6395L89.5463 17.4341C89.1588 17.7201 88.6361 17.7409 88.227 17.4868C85.3975 15.7293 82.3087 14.4288 79.0743 13.633C78.6127 13.5195 78.2648 13.1394 78.1925 12.6696L76.9672 4.71428H66.216ZM64.6768 28.015C67.9738 26.6493 71.6016 26.292 75.1017 26.9882C78.6017 27.6844 81.8167 29.4029 84.3401 31.9263C86.8634 34.4496 88.5819 37.6646 89.2781 41.1647C89.9743 44.6647 89.617 48.2926 88.2513 51.5895C86.8857 54.8865 84.573 57.7044 81.6059 59.687C78.6387 61.6697 75.1502 62.7279 71.5816 62.7279C66.7963 62.7279 62.2069 60.8269 58.8232 57.4431C55.4394 54.0594 53.5385 49.47 53.5385 44.6847C53.5385 41.1161 54.5967 37.6276 56.5793 34.6605C58.5619 31.6933 61.3799 29.3806 64.6768 28.015ZM74.6426 29.2963C71.599 28.6909 68.4443 29.0016 65.5774 30.1892C62.7104 31.3767 60.26 33.3877 58.536 35.9679C56.812 38.5481 55.8918 41.5815 55.8918 44.6847C55.8918 48.8459 57.5448 52.8367 60.4872 55.7791C63.4296 58.7215 67.4204 60.3745 71.5816 60.3745C74.6848 60.3745 77.7183 59.4544 80.2984 57.7303C82.8786 56.0063 84.8896 53.5559 86.0772 50.6889C87.2647 47.822 87.5754 44.6673 86.97 41.6238C86.3646 38.5802 84.8703 35.7846 82.676 33.5903C80.4818 31.396 77.6861 29.9017 74.6426 29.2963Z" fill="#111111"/>
<path d="M113.568 65.3082V60.1124L117.225 59.5528C117.548 58.1898 118.088 56.8876 118.824 55.6959L116.666 52.7383L120.323 49.0612L123.301 51.2395C124.497 50.5122 125.798 49.973 127.157 49.6408L127.717 46.0037H132.813L133.393 49.6408C134.747 49.9694 136.042 50.5089 137.229 51.2395L140.207 49.0612L143.884 52.7383L141.706 55.6959C142.433 56.8921 142.972 58.1929 143.305 59.5528L146.942 60.1124V65.3082L143.305 65.8678C142.972 67.2277 142.433 68.5285 141.706 69.7247L143.884 72.7023L140.267 76.4393L137.289 74.2611C136.11 75.0079 134.813 75.5486 133.452 75.8598L132.813 79.4169H127.697L127.138 75.7798C125.772 75.4649 124.468 74.9246 123.281 74.1811L120.303 76.4393L116.646 72.7822L118.824 69.7247C118.095 68.5318 117.562 67.2296 117.245 65.8678L113.568 65.3082Z" fill="#9099B6"/>
<path fill-rule="evenodd" clip-rule="evenodd" d="M126.554 45.8248C126.642 45.2508 127.136 44.827 127.717 44.827H132.813C133.391 44.827 133.884 45.2474 133.975 45.8185L134.435 48.7052C135.377 48.9892 136.288 49.3685 137.153 49.8371L139.512 48.1116C139.981 47.769 140.629 47.8189 141.039 48.2292L144.716 51.9063C145.127 52.3176 145.176 52.9677 144.831 53.4361L143.107 55.7773C143.574 56.647 143.953 57.5611 144.238 58.506L147.12 58.9494C147.694 59.0377 148.118 59.5316 148.118 60.1124V65.3082C148.118 65.889 147.694 66.3829 147.12 66.4712L144.238 66.9147C143.952 67.8604 143.573 68.7753 143.106 69.6458L144.834 72.0076C145.172 72.4701 145.128 73.109 144.729 73.5207L141.112 77.2577C140.704 77.6798 140.046 77.7359 139.572 77.389L137.22 75.6686C136.351 76.1487 135.431 76.531 134.477 76.8088L133.971 79.6252C133.87 80.1857 133.382 80.5936 132.813 80.5936H127.697C127.116 80.5936 126.622 80.1699 126.534 79.5959L126.092 76.722C125.145 76.4445 124.231 76.0661 123.365 75.5935L121.014 77.3769C120.545 77.7322 119.887 77.6871 119.471 77.2714L115.814 73.6143C115.407 73.2079 115.354 72.5675 115.687 72.0995L117.428 69.6558C116.959 68.7837 116.583 67.865 116.304 66.9148L113.391 66.4715C112.816 66.384 112.392 65.8897 112.392 65.3082V60.1124C112.392 59.5313 112.816 59.0372 113.39 58.9493L116.287 58.506C116.569 57.5571 116.949 56.6402 117.422 55.7702L115.715 53.4319C115.374 52.9646 115.424 52.3187 115.831 51.9085L119.489 48.2315C119.899 47.8192 120.548 47.7683 121.018 48.1116L123.379 49.8393C124.25 49.372 125.165 48.9928 126.111 48.7072L126.554 45.8248ZM128.726 47.1803L128.32 49.8197C128.248 50.2903 127.899 50.6708 127.437 50.7838C126.194 51.0875 125.005 51.5802 123.912 52.2449C123.505 52.4921 122.99 52.4701 122.606 52.1892L120.444 50.6079L118.208 52.856L119.775 55.0023C120.057 55.3887 120.077 55.9074 119.825 56.3143C119.155 57.3987 118.664 58.5837 118.37 59.824C118.26 60.2906 117.877 60.6434 117.403 60.716L114.745 61.1227V64.2971L117.422 64.7045C117.898 64.777 118.282 65.1323 118.391 65.6014C118.679 66.8406 119.165 68.0255 119.828 69.111C120.074 69.5133 120.056 70.0235 119.782 70.4074L118.182 72.6542L120.409 74.8818L122.569 73.2436C122.959 72.9482 123.49 72.9244 123.905 73.1838C124.982 73.8579 126.164 74.3478 127.402 74.6333C127.871 74.7415 128.227 75.1249 128.3 75.6009L128.706 78.2403H131.829L132.294 75.6516C132.378 75.1874 132.73 74.8179 133.19 74.7128C134.42 74.4314 135.594 73.9425 136.66 73.2671C137.068 73.0082 137.594 73.0258 137.984 73.3114L140.134 74.8845L142.349 72.5966L140.756 70.4194C140.475 70.0354 140.453 69.52 140.7 69.1134C141.365 68.0202 141.858 66.8314 142.161 65.5885C142.274 65.126 142.655 64.7772 143.126 64.7048L145.765 64.2988V61.1219L143.126 60.7158C142.655 60.6434 142.274 60.2946 142.161 59.8321C141.858 58.5893 141.365 57.4004 140.7 56.3072C140.452 55.8995 140.475 55.3824 140.758 54.9982L142.337 52.855L140.088 50.6062L137.924 52.1892C137.538 52.4714 137.02 52.4922 136.613 52.2416C135.53 51.5757 134.35 51.0839 133.115 50.7843C132.654 50.6724 132.305 50.2945 132.23 49.8259L131.809 47.1803H128.726Z" fill="#111111"/>
<path d="M122.381 62.7104C122.381 61.1294 122.85 59.5839 123.728 58.2694C124.606 56.9549 125.855 55.9303 127.315 55.3253C128.776 54.7203 130.383 54.562 131.934 54.8704C133.485 55.1788 134.909 55.9401 136.027 57.0581C137.145 58.176 137.906 59.6003 138.214 61.1509C138.523 62.7015 138.365 64.3088 137.76 65.7694C137.155 67.2301 136.13 68.4785 134.815 69.3568C133.501 70.2352 131.955 70.704 130.374 70.704C128.254 70.704 126.221 69.8618 124.722 68.3627C123.223 66.8636 122.381 64.8304 122.381 62.7104Z" fill="white"/>
<path d="M82.8528 86.711H65.2669C63.8041 86.711 62.4012 86.1299 61.3668 85.0955C60.3324 84.0612 59.7513 82.6583 59.7513 81.1954C59.7513 79.7326 60.3324 78.3297 61.3668 77.2953C62.4012 76.2609 63.8041 75.6798 65.2669 75.6798H82.8528L94.9831 74.0811C96.6619 73.8619 98.3684 74.015 99.9813 74.5296C101.594 75.0442 103.074 75.9077 104.316 77.0587L121.602 93.0459L100.958 113.609L84.1518 98.2018H57.7329C55.8098 98.207 53.9166 97.7261 52.2291 96.8038C50.5416 95.8814 49.1146 94.5475 48.0806 92.926L37.7089 76.699C37.0718 75.4839 36.8998 74.078 37.2253 72.7451C37.5509 71.4122 38.3515 70.2438 39.477 69.4591C40.6025 68.6744 41.9757 68.3273 43.3389 68.4829C44.7022 68.6385 45.9618 69.286 46.8816 70.3041L57.8129 84.8725H60.9703" fill="white"/>
<path fill-rule="evenodd" clip-rule="evenodd" d="M43.2054 69.6521C42.1268 69.529 41.0404 69.8037 40.1498 70.4245C39.2593 71.0454 38.6259 71.9698 38.3683 73.0244C38.1145 74.0636 38.2429 75.1588 38.7291 76.1105L49.0727 92.2936C50 93.7479 51.2799 94.9442 52.7933 95.7714C54.3068 96.5987 56.0048 97.03 57.7296 97.0253L57.7328 97.0253L84.1517 97.0253C84.4461 97.0253 84.7298 97.1357 84.9468 97.3346L100.925 111.982L119.903 93.0776L103.516 77.9218C102.401 76.8882 101.072 76.1128 99.6236 75.6507C98.1754 75.1887 96.6434 75.0512 95.1361 75.2479C95.1359 75.248 95.1364 75.2479 95.1361 75.2479L83.0065 76.8466C82.9555 76.8533 82.9041 76.8566 82.8527 76.8566H65.2668C64.1161 76.8566 63.0124 77.3138 62.1987 78.1275C61.385 78.9412 60.9279 80.0448 60.9279 81.1956C60.9279 82.3463 61.385 83.45 62.1987 84.2637C63.0124 85.0774 64.116 85.5345 65.2668 85.5345H82.8527C83.5026 85.5345 84.0294 86.0613 84.0294 86.7112C84.0294 87.361 83.5026 87.8878 82.8527 87.8878H65.2668C63.5501 87.8878 61.9013 87.2282 60.6595 86.0493H57.8128C57.4425 86.0493 57.0938 85.875 56.8716 85.5788L45.9744 71.0558C45.2497 70.2718 44.2673 69.7733 43.2054 69.6521ZM59.0592 83.696C58.7421 82.9087 58.5746 82.0608 58.5746 81.1956C58.5746 79.4207 59.2796 77.7185 60.5347 76.4634C61.7897 75.2084 63.4919 74.5033 65.2668 74.5033H82.7755L94.8306 72.9145C96.6807 72.6729 98.5613 72.8416 100.339 73.4088C102.116 73.9758 103.747 74.9271 105.115 76.1952C105.114 76.195 105.115 76.1955 105.115 76.1952L122.401 92.1823C122.636 92.3998 122.772 92.7039 122.778 93.0243C122.784 93.3447 122.659 93.6536 122.432 93.8797L101.789 114.443C101.343 114.887 100.627 114.902 100.163 114.477L83.694 99.3786H57.7343C55.6135 99.3841 53.5257 98.8536 51.6647 97.8364C49.8032 96.819 48.229 95.3475 47.0884 93.5588L36.7174 77.3329C36.6993 77.3045 36.6824 77.2754 36.6668 77.2456C35.8966 75.7767 35.6887 74.0773 36.0822 72.4661C36.4757 70.8549 37.4434 69.4426 38.804 68.494C40.1645 67.5455 41.8244 67.1259 43.4722 67.314C45.1201 67.502 46.6428 68.2848 47.7546 69.5155C47.7785 69.542 47.8013 69.5695 47.8227 69.5981L58.4009 83.696H59.0592Z" fill="#111111"/>
<path d="M117.67 86.7536L94.4033 112.082L107.708 124.303L130.974 98.9748L117.67 86.7536Z" fill="white"/>
<path d="M114.387 90.3281L94.4033 112.091L107.713 124.301L127.697 102.538" fill="#D6D9E6"/>
<path d="M114.387 90.3281L94.4033 112.091L107.713 124.301L127.697 102.538" stroke="#111111" stroke-width="1.19" stroke-linecap="round" stroke-linejoin="round"/>
<path fill-rule="evenodd" clip-rule="evenodd" d="M15.6065 18.9877C16.2563 18.9877 16.7831 19.5145 16.7831 20.1643V27.5009H24.1396C24.7895 27.5009 25.3163 28.0277 25.3163 28.6775C25.3163 29.3274 24.7895 29.8542 24.1396 29.8542H16.7831V37.2507C16.7831 37.9005 16.2563 38.4273 15.6065 38.4273C14.9566 38.4273 14.4298 37.9005 14.4298 37.2507V29.8542H7.05331C6.40346 29.8542 5.87665 29.3274 5.87665 28.6775C5.87665 28.0277 6.40346 27.5009 7.05331 27.5009H14.4298V20.1643C14.4298 19.5145 14.9566 18.9877 15.6065 18.9877ZM10.4706 54.3993C11.1204 54.3993 11.6472 54.9262 11.6472 55.576V62.9325H19.0037C19.6536 62.9325 20.1804 63.4593 20.1804 64.1092C20.1804 64.759 19.6536 65.2858 19.0037 65.2858H11.6472V72.6423C11.6472 73.2922 11.1204 73.819 10.4706 73.819C9.82072 73.819 9.29392 73.2922 9.29392 72.6423V65.2858H1.9374C1.28755 65.2858 0.760742 64.759 0.760742 64.1092C0.760742 63.4593 1.28755 62.9325 1.9374 62.9325H9.29392V55.576C9.29392 54.9262 9.82072 54.3993 10.4706 54.3993Z" fill="#6099FF"/>
<path fill-rule="evenodd" clip-rule="evenodd" d="M93.6078 112.949C93.1292 112.509 93.0976 111.765 93.5372 111.286L116.803 85.9576C117.243 85.4791 117.987 85.4475 118.466 85.8871L131.77 98.1083C132.249 98.5479 132.281 99.2922 131.841 99.7708L108.575 125.099C108.135 125.578 107.391 125.609 106.912 125.17L93.6078 112.949ZM96.0663 112.011L107.638 122.641L129.312 99.0454L117.741 88.4162L96.0663 112.011Z" fill="#111111"/>
</g>
<defs>
<clipPath id="clip0_2418_106556">
<rect width="147.082" height="125" fill="white" transform="translate(0.917969 0.5)"/>
</clipPath>
</defs>
</svg>
