<svg width="136" height="120" viewBox="0 0 136 120" fill="none" xmlns="http://www.w3.org/2000/svg">
<g clip-path="url(#clip0_2418_106320)">
<path d="M134.813 5.64648H6.88867V99.5729H134.813V5.64648Z" fill="white"/>
<path fill-rule="evenodd" clip-rule="evenodd" d="M5.80078 5.64645C5.80078 5.04571 6.28778 4.55872 6.88852 4.55872H134.813C135.413 4.55872 135.9 5.04571 135.9 5.64645V99.5729C135.9 100.174 135.413 100.661 134.813 100.661H6.88852C6.28778 100.661 5.80078 100.174 5.80078 99.5729V5.64645ZM7.97625 6.73418V98.4852H133.725V6.73418H7.97625Z" fill="#111111"/>
<path d="M127.672 1.18628H1.21875V92.4556H127.672V1.18628Z" fill="white"/>
<path fill-rule="evenodd" clip-rule="evenodd" d="M0.130859 1.18624C0.130859 0.585506 0.617855 0.0985107 1.21859 0.0985107H127.672C128.272 0.0985107 128.759 0.585506 128.759 1.18624V92.4555C128.759 93.0563 128.272 93.5433 127.672 93.5433H1.21859C0.617855 93.5433 0.130859 93.0563 0.130859 92.4555V1.18624ZM2.30633 2.27398V91.3678H126.584V2.27398H2.30633Z" fill="#111111"/>
<path d="M104.824 82.5623H24.1595C24.1532 79.242 22.8314 76.0594 20.4836 73.7115C18.1357 71.3637 14.9532 70.0419 11.6328 70.0356V23.5825C13.2778 23.5825 14.9068 23.2585 16.4266 22.6289C17.9464 21.9994 19.3273 21.0767 20.4905 19.9135C21.6537 18.7503 22.5764 17.3694 23.206 15.8495C23.8355 14.3297 24.1595 12.7008 24.1595 11.0558H104.824C104.824 14.3781 106.144 17.5643 108.493 19.9135C110.842 22.2627 114.028 23.5825 117.35 23.5825V70.0356C114.03 70.0419 110.848 71.3637 108.5 73.7115C106.152 76.0594 104.83 79.242 104.824 82.5623Z" fill="#6099FF"/>
<path d="M54.1719 79.9526V118.814L64.4447 112.195L74.7175 118.814V79.9526H54.1719Z" fill="white"/>
<path fill-rule="evenodd" clip-rule="evenodd" d="M53.084 79.9525C53.084 79.3517 53.571 78.8647 54.1717 78.8647H74.7174C75.3181 78.8647 75.8051 79.3517 75.8051 79.9525V118.814C75.8051 119.212 75.5876 119.578 75.2381 119.769C74.8886 119.959 74.4629 119.944 74.1282 119.728L64.4446 113.488L54.7609 119.728C54.4262 119.944 54.0005 119.959 53.651 119.769C53.3015 119.578 53.084 119.212 53.084 118.814V79.9525ZM55.2595 81.0402V116.819L63.8554 111.28C64.2142 111.049 64.675 111.049 65.0337 111.28L73.6297 116.819V81.0402H55.2595Z" fill="#111111"/>
<path d="M83.8749 78.4816C83.8749 74.6386 82.7353 70.8819 80.6002 67.6866C78.4652 64.4912 75.4305 62.0008 71.8801 60.5301C68.3296 59.0594 64.4227 58.6747 60.6536 59.4244C56.8844 60.1741 53.4222 62.0247 50.7048 64.7421C47.9874 67.4595 46.1368 70.9217 45.387 74.6909C44.6373 78.4601 45.0221 82.3669 46.4927 85.9174C47.9634 89.4679 50.4539 92.5025 53.6492 94.6376C56.8446 96.7727 60.6013 97.9122 64.4443 97.9122C69.5976 97.9122 74.5398 95.8651 78.1838 92.2211C81.8277 88.5772 83.8749 83.635 83.8749 78.4816Z" fill="white"/>
<path fill-rule="evenodd" clip-rule="evenodd" d="M57.4316 61.5399C48.0722 65.4167 43.6277 76.1467 47.5045 85.506C51.3812 94.8654 62.1112 99.3099 71.4706 95.4331C80.8299 91.5564 85.2745 80.8264 81.3977 71.467C77.5209 62.1077 66.7909 57.6632 57.4316 61.5399ZM45.4946 86.3386C41.1581 75.8692 46.1297 63.8666 56.5991 59.5301C67.0684 55.1935 79.071 60.1651 83.4076 70.6345C87.7441 81.1039 82.7725 93.1064 72.3031 97.443C61.8337 101.78 49.8312 96.8079 45.4946 86.3386Z" fill="#111111"/>
<path d="M74.5754 78.4815C74.5707 76.4789 73.9726 74.5226 72.8566 72.8598C71.7406 71.197 70.1568 69.9022 68.3053 69.1391C66.4538 68.376 64.4176 68.1788 62.4541 68.5723C60.4905 68.9659 58.6876 69.9326 57.2732 71.3503C55.8588 72.768 54.8964 74.5731 54.5074 76.5376C54.1184 78.5021 54.3204 80.5378 55.0879 82.3875C55.8553 84.2372 57.1538 85.818 58.8192 86.9301C60.4846 88.0422 62.4423 88.6357 64.4449 88.6357C65.7773 88.6357 67.0965 88.3729 68.3272 87.8623C69.5578 87.3517 70.6756 86.6034 71.6167 85.6602C72.5577 84.717 73.3034 83.5974 73.8111 82.3656C74.3188 81.1337 74.5785 79.8139 74.5754 78.4815Z" fill="white"/>
<path fill-rule="evenodd" clip-rule="evenodd" d="M62.2401 67.5059C64.4145 67.0701 66.6693 67.2885 68.7196 68.1335C70.7699 68.9786 72.5238 70.4124 73.7596 72.2537C74.9954 74.0951 75.6578 76.2614 75.663 78.4791C75.6664 79.9545 75.3788 81.4161 74.8166 82.7802C74.2544 84.1442 73.4286 85.384 72.3865 86.4285C71.3445 87.473 70.1066 88.3017 68.7439 88.8671C67.3811 89.4325 65.9202 89.7236 64.4448 89.7236C62.2271 89.7235 60.0592 89.0663 58.215 87.8348C56.3707 86.6032 54.9329 84.8527 54.083 82.8044C53.2332 80.7561 53.0095 78.5018 53.4402 76.3264C53.8709 74.151 54.9368 72.1521 56.503 70.5821C58.0693 69.0122 60.0657 67.9417 62.2401 67.5059ZM67.8906 70.1449C66.2379 69.4637 64.4204 69.2876 62.6677 69.6389C60.9149 69.9902 59.3057 70.8531 58.0431 72.1186C56.7806 73.3841 55.9215 74.9954 55.5742 76.749C55.227 78.5025 55.4074 80.3196 56.0924 81.9707C56.7774 83.6218 57.9365 85.0329 59.4231 86.0256C60.9097 87.0183 62.6572 87.5481 64.4448 87.5481C65.6341 87.5481 66.8117 87.3135 67.9102 86.8577C69.0087 86.402 70.0065 85.734 70.8465 84.892C71.6864 84.0501 72.3521 83.0507 72.8053 81.9512C73.2585 80.8516 73.4903 79.6735 73.4875 78.4842C73.4833 76.6966 72.9494 74.9503 71.9533 73.4661C70.9571 71.9818 69.5433 70.826 67.8906 70.1449Z" fill="#111111"/>
<path d="M101.072 33.7138C101.072 33.4875 101.159 33.3178 101.333 33.2047C101.507 33.0829 101.734 33.022 102.012 33.022H105.093C105.641 33.022 106.159 33.0785 106.646 33.1917C107.142 33.2961 107.577 33.4701 107.951 33.7138C108.325 33.9574 108.621 34.275 108.839 34.6666C109.056 35.0582 109.165 35.5325 109.165 36.0894V36.1677C109.165 36.7246 109.061 37.1989 108.852 37.5905C108.643 37.982 108.36 38.2997 108.003 38.5433C107.647 38.787 107.224 38.9654 106.737 39.0785C106.259 39.1916 105.745 39.2482 105.197 39.2482H103.343V41.9109C103.343 42.085 103.313 42.2329 103.252 42.3547C103.191 42.4853 103.109 42.5897 103.004 42.668C102.9 42.755 102.778 42.8159 102.639 42.8507C102.508 42.8942 102.373 42.916 102.234 42.916C102.086 42.916 101.942 42.8942 101.803 42.8507C101.664 42.8159 101.538 42.755 101.425 42.668C101.32 42.5897 101.233 42.4853 101.164 42.3547C101.103 42.2329 101.072 42.085 101.072 41.9109V33.7138ZM103.343 34.6275V37.7601H105.197C105.728 37.7601 106.145 37.6383 106.45 37.3947C106.755 37.151 106.907 36.7725 106.907 36.2591V36.0763C106.907 35.5716 106.724 35.2061 106.359 34.9799C106.002 34.7449 105.549 34.6275 105.001 34.6275H103.343Z" fill="white"/>
<path d="M96.8652 33.9879C96.8652 33.6572 96.9827 33.4136 97.2177 33.2569C97.4613 33.1003 97.7311 33.022 98.0269 33.022C98.1662 33.022 98.301 33.0437 98.4316 33.0872C98.5708 33.122 98.6926 33.1786 98.7971 33.2569C98.9015 33.3352 98.9841 33.4353 99.0451 33.5571C99.106 33.679 99.1364 33.8225 99.1364 33.9879V41.9109C99.1364 42.085 99.106 42.2329 99.0451 42.3547C98.9841 42.4853 98.9015 42.5897 98.7971 42.668C98.6926 42.755 98.5708 42.8159 98.4316 42.8507C98.301 42.8942 98.1662 42.916 98.0269 42.916C97.879 42.916 97.7354 42.8942 97.5962 42.8507C97.457 42.8159 97.3308 42.755 97.2177 42.668C97.1132 42.5897 97.0262 42.4853 96.9566 42.3547C96.8957 42.2329 96.8652 42.085 96.8652 41.9109V33.9879Z" fill="white"/>
<path d="M92.5946 38.5955H88.9398V41.7282C88.9398 41.937 88.9093 42.1154 88.8484 42.2634C88.7875 42.4113 88.7048 42.5331 88.6004 42.6288C88.496 42.7246 88.3742 42.7942 88.2349 42.8377C88.1044 42.8899 87.9695 42.916 87.8303 42.916C87.5344 42.916 87.269 42.8203 87.0341 42.6288C86.7991 42.4374 86.6816 42.1372 86.6816 41.7282V34.1967C86.6816 33.7964 86.7991 33.5006 87.0341 33.3091C87.269 33.1177 87.5344 33.022 87.8303 33.022C87.9695 33.022 88.1044 33.0481 88.2349 33.1003C88.3742 33.1438 88.496 33.2134 88.6004 33.3091C88.7048 33.4049 88.7875 33.5267 88.8484 33.6746C88.9093 33.8225 88.9398 33.9966 88.9398 34.1967V36.9639H92.5946V34.1967C92.5946 33.7877 92.7077 33.4919 92.9339 33.3091C93.1602 33.1177 93.4212 33.022 93.7171 33.022C94.0043 33.022 94.2653 33.1177 94.5003 33.3091C94.7352 33.5006 94.8527 33.7964 94.8527 34.1967V41.7282C94.8527 42.1372 94.7352 42.4374 94.5003 42.6288C94.2653 42.8203 94.0043 42.916 93.7171 42.916C93.4212 42.916 93.1602 42.8203 92.9339 42.6288C92.7077 42.4374 92.5946 42.1372 92.5946 41.7282V38.5955Z" fill="white"/>
<path d="M80.9428 41.3627C81.2038 41.3627 81.4475 41.3409 81.6737 41.2974C81.9087 41.2539 82.1088 41.1843 82.2741 41.0886C82.4395 40.9929 82.57 40.871 82.6657 40.7231C82.7614 40.5752 82.8093 40.4011 82.8093 40.201C82.8093 39.9747 82.7527 39.7789 82.6396 39.6136C82.5352 39.4483 82.3916 39.3047 82.2089 39.1829C82.0261 39.0523 81.8173 38.9392 81.5823 38.8435C81.3474 38.7478 81.1037 38.6564 80.8514 38.5694C80.4598 38.4302 80.0552 38.2822 79.6375 38.1256C79.2285 37.9603 78.8543 37.7688 78.5149 37.5513C78.1843 37.325 77.9102 37.0596 77.6926 36.755C77.4838 36.4505 77.3793 36.085 77.3793 35.6586C77.3793 35.1365 77.5055 34.7058 77.7579 34.3664C78.0102 34.0183 78.3322 33.7442 78.7238 33.544C79.1154 33.3352 79.5548 33.1873 80.0421 33.1003C80.5294 33.0132 81.008 32.9697 81.4779 32.9697C81.7129 32.9697 81.9739 32.9828 82.2611 33.0089C82.5482 33.0263 82.8267 33.0611 83.0965 33.1133C83.3749 33.1655 83.6316 33.2308 83.8666 33.3091C84.1102 33.3874 84.2973 33.4831 84.4279 33.5963C84.5323 33.6833 84.6019 33.7877 84.6367 33.9095C84.6802 34.0227 84.702 34.1271 84.702 34.2228C84.6933 34.4316 84.6411 34.597 84.5453 34.7188C84.4496 34.8319 84.3321 34.9102 84.1929 34.9538C84.0624 34.9973 83.9144 35.0147 83.7491 35.006C83.5925 34.9973 83.4489 34.9668 83.3184 34.9146C82.9964 34.8102 82.6918 34.7232 82.4047 34.6535C82.1175 34.5839 81.8086 34.5491 81.4779 34.5491C80.9471 34.5491 80.5077 34.6274 80.1596 34.7841C79.8202 34.932 79.6505 35.18 79.6505 35.5281C79.6505 35.7282 79.7071 35.9023 79.8202 36.0502C79.9333 36.1981 80.0813 36.333 80.264 36.4548C80.4554 36.568 80.673 36.6724 80.9166 36.7681C81.169 36.8638 81.4301 36.9552 81.6998 37.0422L82.4177 37.2902C82.7484 37.412 83.0704 37.5513 83.3836 37.7079C83.7056 37.8645 83.9884 38.0516 84.2321 38.2692C84.4844 38.4867 84.6846 38.7391 84.8325 39.0262C84.9891 39.3134 85.0674 39.6484 85.0674 40.0313C85.0674 40.536 84.9674 40.9755 84.7672 41.3496C84.5671 41.7238 84.2843 42.0327 83.9188 42.2764C83.562 42.52 83.1356 42.6984 82.6396 42.8115C82.1436 42.9334 81.5997 42.9943 81.008 42.9943C80.1378 42.9943 79.4025 42.8899 78.8021 42.681C78.2017 42.4722 77.7622 42.2285 77.4838 41.9501C77.3967 41.8804 77.3315 41.7978 77.288 41.7021C77.2445 41.6063 77.2184 41.5106 77.2097 41.4149C77.1922 41.2583 77.2096 41.119 77.2619 40.9972C77.3141 40.8754 77.3837 40.7753 77.4707 40.697C77.5664 40.6187 77.6709 40.5621 77.784 40.5273C77.8971 40.4838 78.0146 40.462 78.1364 40.462C78.2669 40.462 78.3975 40.4838 78.528 40.5273C78.6672 40.5708 78.7847 40.6317 78.8804 40.71C79.0196 40.8058 79.1545 40.8928 79.285 40.9711C79.4156 41.0494 79.5592 41.119 79.7158 41.1799C79.8724 41.2322 80.0508 41.2757 80.251 41.3105C80.4511 41.3453 80.6817 41.3627 80.9428 41.3627Z" fill="white"/>
<path d="M71.2841 38.8174V41.9109C71.2841 42.085 71.2493 42.2329 71.1797 42.3547C71.1101 42.4853 71.0231 42.5897 70.9187 42.668C70.8142 42.755 70.6968 42.8159 70.5662 42.8507C70.4357 42.8942 70.3052 42.916 70.1747 42.916C70.0441 42.916 69.9093 42.8942 69.77 42.8507C69.6395 42.8159 69.5177 42.755 69.4045 42.668C69.3001 42.5897 69.2131 42.4853 69.1435 42.3547C69.0739 42.2329 69.0391 42.085 69.0391 41.9109V33.766C69.0391 33.5136 69.1087 33.3265 69.2479 33.2047C69.3958 33.0829 69.5829 33.022 69.8092 33.022H72.733C73.2377 33.022 73.7163 33.0655 74.1688 33.1525C74.63 33.2395 75.0347 33.3918 75.3827 33.6093C75.7308 33.8269 76.0049 34.1141 76.2051 34.4708C76.4139 34.8276 76.5183 35.2801 76.5183 35.8283C76.5183 36.1938 76.4661 36.5245 76.3617 36.8203C76.2573 37.1162 76.1137 37.3773 75.9309 37.6035C75.7482 37.8298 75.535 38.0256 75.2914 38.1909C75.0477 38.3562 74.791 38.4824 74.5212 38.5694L76.2181 41.3497C76.3834 41.602 76.4487 41.8631 76.4139 42.1328C76.3791 42.4026 76.2225 42.6158 75.944 42.7724C75.7874 42.8594 75.6307 42.9073 75.4741 42.916C75.3262 42.9334 75.1869 42.9204 75.0564 42.8768C74.9346 42.8333 74.8215 42.7681 74.717 42.6811C74.6126 42.594 74.5256 42.494 74.456 42.3808L72.3284 38.8174H71.2841ZM71.2841 34.6275V37.2511H72.6808C73.1681 37.2511 73.5597 37.1554 73.8556 36.9639C74.1514 36.7725 74.2993 36.4331 74.2993 35.9458C74.2993 35.4498 74.1514 35.1061 73.8556 34.9146C73.5684 34.7232 73.1768 34.6275 72.6808 34.6275H71.2841Z" fill="white"/>
<path d="M63.1527 41.2844H66.6247C66.9554 41.2844 67.2077 41.3671 67.3818 41.5324C67.5645 41.6977 67.6559 41.8935 67.6559 42.1198C67.6559 42.2068 67.6341 42.2938 67.5906 42.3808C67.5558 42.4766 67.4949 42.5636 67.4079 42.6419C67.3209 42.7202 67.2121 42.7855 67.0816 42.8377C66.9597 42.8899 66.8075 42.916 66.6247 42.916H61.8604C61.5559 42.916 61.3166 42.8377 61.1425 42.6811C60.9772 42.5244 60.8945 42.3025 60.8945 42.0154V33.8443C60.8945 33.6006 60.9859 33.4049 61.1686 33.2569C61.3601 33.1003 61.595 33.022 61.8735 33.022H66.6508C66.9815 33.022 67.2295 33.1046 67.3948 33.27C67.5689 33.4266 67.6559 33.6181 67.6559 33.8443C67.6559 34.027 67.5776 34.2054 67.4209 34.3795C67.2643 34.5448 67.0076 34.6275 66.6508 34.6275H63.1527V37.1597H66.207C66.5377 37.1597 66.7814 37.238 66.938 37.3947C67.0946 37.5513 67.1729 37.7427 67.1729 37.969C67.1729 38.1517 67.099 38.3301 66.951 38.5042C66.8118 38.6695 66.5638 38.7522 66.207 38.7522H63.1527V41.2844Z" fill="white"/>
<path d="M51.4355 33.6746C51.4355 33.4658 51.5095 33.3048 51.6574 33.1917C51.8141 33.0785 52.0186 33.022 52.2709 33.022H55.2731C55.7517 33.022 56.2085 33.0655 56.6436 33.1525C57.0787 33.2395 57.4616 33.3875 57.7923 33.5963C58.1316 33.7964 58.397 34.0618 58.5885 34.3925C58.7886 34.7232 58.8887 35.1365 58.8887 35.6325C58.8887 36.1285 58.7886 36.5506 58.5885 36.8987C58.3883 37.238 58.1229 37.5121 57.7923 37.721C57.975 37.7906 58.149 37.882 58.3144 37.9951C58.4884 38.1082 58.6363 38.2474 58.7582 38.4128C58.8887 38.5781 58.9931 38.7696 59.0714 38.9871C59.1498 39.2047 59.1889 39.457 59.1889 39.7442V39.9661C59.1889 40.5056 59.0975 40.9624 58.9148 41.3366C58.7321 41.7108 58.4797 42.0154 58.1577 42.2503C57.8445 42.4853 57.4703 42.6549 57.0352 42.7594C56.6001 42.8638 56.1346 42.916 55.6386 42.916H52.5059C52.1752 42.916 51.9141 42.8333 51.7227 42.668C51.5313 42.5027 51.4355 42.2808 51.4355 42.0023V33.6746ZM55.3253 41.2844C55.8387 41.2844 56.2346 41.1843 56.5131 40.9842C56.7916 40.784 56.9308 40.4316 56.9308 39.9269V39.8355C56.9308 39.4091 56.7916 39.0872 56.5131 38.8696C56.2346 38.6434 55.8387 38.5303 55.3253 38.5303H53.7067V41.2844H55.3253ZM53.7067 37.0422H55.1948C55.6734 37.0422 56.0301 36.9117 56.2651 36.6507C56.5087 36.3896 56.6306 36.0633 56.6306 35.6717C56.6306 35.3062 56.5 35.0408 56.239 34.8755C55.9866 34.7101 55.6299 34.6275 55.1687 34.6275H53.7067V37.0422Z" fill="white"/>
<path d="M47.2136 36.5593C46.9178 36.9857 46.6132 37.4512 46.2999 37.9559C45.9954 38.4606 45.7039 38.9218 45.4254 39.3395C45.3036 39.5049 45.173 39.618 45.0338 39.6789C44.8946 39.7311 44.7423 39.7572 44.577 39.7572C44.4377 39.7572 44.2898 39.7268 44.1332 39.6659C43.9765 39.6049 43.8504 39.4918 43.7546 39.3265L41.9925 36.494V41.9109C41.9925 42.2677 41.875 42.5244 41.6401 42.6811C41.4138 42.8377 41.1571 42.916 40.87 42.916C40.722 42.916 40.5785 42.8942 40.4392 42.8507C40.3087 42.8159 40.1912 42.755 40.0868 42.668C39.9824 42.5897 39.8954 42.4853 39.8257 42.3547C39.7648 42.2329 39.7344 42.085 39.7344 41.9109V34.0009C39.7344 33.679 39.8475 33.4353 40.0737 33.27C40.3087 33.1046 40.5741 33.022 40.87 33.022C41.0527 33.022 41.218 33.035 41.366 33.0611C41.5139 33.0785 41.6488 33.122 41.7706 33.1917C41.8924 33.2526 42.0099 33.3396 42.123 33.4527C42.2362 33.5658 42.3493 33.7094 42.4624 33.8835L44.577 37.1989L46.7698 33.8835C46.9874 33.5615 47.2049 33.3396 47.4225 33.2178C47.6487 33.0872 47.9533 33.022 48.3362 33.022C48.6494 33.022 48.9149 33.1046 49.1324 33.27C49.3499 33.4353 49.4587 33.679 49.4587 34.0009V41.9109C49.4587 42.085 49.4239 42.2329 49.3543 42.3547C49.2934 42.4853 49.2107 42.5897 49.1063 42.668C49.0019 42.755 48.88 42.8159 48.7408 42.8507C48.6103 42.8942 48.4754 42.916 48.3362 42.916C48.1969 42.916 48.0577 42.8942 47.9185 42.8507C47.788 42.8159 47.6705 42.755 47.5661 42.668C47.4616 42.5897 47.3746 42.4853 47.305 42.3547C47.2441 42.2329 47.2136 42.085 47.2136 41.9109V36.5593Z" fill="white"/>
<path d="M33.848 41.2844H37.32C37.6507 41.2844 37.9031 41.3671 38.0771 41.5324C38.2598 41.6977 38.3512 41.8935 38.3512 42.1198C38.3512 42.2068 38.3294 42.2938 38.2859 42.3808C38.2511 42.4766 38.1902 42.5636 38.1032 42.6419C38.0162 42.7202 37.9074 42.7855 37.7769 42.8377C37.6551 42.8899 37.5028 42.916 37.32 42.916H32.5558C32.2512 42.916 32.0119 42.8377 31.8378 42.6811C31.6725 42.5244 31.5898 42.3025 31.5898 42.0154V33.8443C31.5898 33.6006 31.6812 33.4049 31.864 33.2569C32.0554 33.1003 32.2903 33.022 32.5688 33.022H37.3461C37.6768 33.022 37.9248 33.1046 38.0901 33.27C38.2642 33.4266 38.3512 33.6181 38.3512 33.8443C38.3512 34.027 38.2729 34.2054 38.1163 34.3795C37.9596 34.5448 37.7029 34.6275 37.3461 34.6275H33.848V37.1597H36.9023C37.233 37.1597 37.4767 37.238 37.6333 37.3947C37.7899 37.5513 37.8682 37.7427 37.8682 37.969C37.8682 38.1517 37.7943 38.3301 37.6463 38.5042C37.5071 38.6695 37.2591 38.7522 36.9023 38.7522H33.848V41.2844Z" fill="white"/>
<path d="M27.3543 36.5593C27.0584 36.9857 26.7538 37.4512 26.4406 37.9559C26.136 38.4606 25.8445 38.9218 25.566 39.3395C25.4442 39.5049 25.3137 39.618 25.1744 39.6789C25.0352 39.7311 24.8829 39.7572 24.7176 39.7572C24.5784 39.7572 24.4304 39.7268 24.2738 39.6659C24.1172 39.6049 23.991 39.4918 23.8953 39.3265L22.1331 36.494V41.9109C22.1331 42.2677 22.0157 42.5244 21.7807 42.6811C21.5545 42.8377 21.2978 42.916 21.0106 42.916C20.8627 42.916 20.7191 42.8942 20.5799 42.8507C20.4493 42.8159 20.3318 42.755 20.2274 42.668C20.123 42.5897 20.036 42.4853 19.9664 42.3547C19.9055 42.2329 19.875 42.085 19.875 41.9109V34.0009C19.875 33.679 19.9881 33.4353 20.2144 33.27C20.4493 33.1046 20.7147 33.022 21.0106 33.022C21.1933 33.022 21.3587 33.035 21.5066 33.0611C21.6545 33.0785 21.7894 33.122 21.9112 33.1917C22.0331 33.2526 22.1505 33.3396 22.2637 33.4527C22.3768 33.5658 22.4899 33.7094 22.603 33.8835L24.7176 37.1989L26.9105 33.8835C27.128 33.5615 27.3456 33.3396 27.5631 33.2178C27.7894 33.0872 28.0939 33.022 28.4768 33.022C28.7901 33.022 29.0555 33.1046 29.273 33.27C29.4906 33.4353 29.5993 33.679 29.5993 34.0009V41.9109C29.5993 42.085 29.5645 42.2329 29.4949 42.3547C29.434 42.4853 29.3513 42.5897 29.2469 42.668C29.1425 42.755 29.0207 42.8159 28.8814 42.8507C28.7509 42.8942 28.616 42.916 28.4768 42.916C28.3376 42.916 28.1983 42.8942 28.0591 42.8507C27.9286 42.8159 27.8111 42.755 27.7067 42.668C27.6023 42.5897 27.5152 42.4853 27.4456 42.3547C27.3847 42.2329 27.3543 42.085 27.3543 41.9109V36.5593Z" fill="white"/>
</g>
<defs>
<clipPath id="clip0_2418_106320">
<rect width="135.967" height="120" fill="white" transform="translate(0.0332031)"/>
</clipPath>
</defs>
</svg>
