<svg width="125" height="116" viewBox="0 0 125 116" fill="none" xmlns="http://www.w3.org/2000/svg">
<path d="M15.9341 48.4815L22.933 11.3874C23.0691 10.6573 23.4897 10.0112 24.1022 9.59116C24.4055 9.38319 24.7468 9.23699 25.1066 9.16092C25.4663 9.08484 25.8376 9.08038 26.1991 9.14778C26.5606 9.21518 26.9053 9.35313 27.2135 9.55374C27.5217 9.75436 27.7874 10.0137 27.9954 10.317C28.2033 10.6203 28.3495 10.9616 28.4256 11.3214C28.5017 11.6812 28.5062 12.0524 28.4388 12.4139L21.4399 49.508C21.3298 50.1591 20.9932 50.7503 20.4894 51.1772C19.9857 51.6041 19.3473 51.8392 18.687 51.8409H18.1737C17.8038 51.7846 17.449 51.6546 17.1301 51.4587C16.8113 51.2629 16.535 51.0051 16.3175 50.7006C16.1 50.3961 15.9457 50.0511 15.8639 49.686C15.782 49.3208 15.7741 48.943 15.8408 48.5748" fill="#6099FF"/>
<path fill-rule="evenodd" clip-rule="evenodd" d="M26.0158 10.1308C25.7834 10.0875 25.5447 10.0904 25.3134 10.1393C25.0821 10.1882 24.8627 10.2822 24.6677 10.4159C24.2739 10.6859 24.0035 11.1013 23.916 11.5707L23.9156 11.5728L16.9167 48.6669C16.9148 48.677 16.9127 48.6871 16.9105 48.6972C16.8582 48.9339 16.8543 49.1786 16.899 49.4169C16.9436 49.6551 17.0359 49.8819 17.1704 50.0835C17.3048 50.2852 17.4787 50.4576 17.6814 50.5905C17.862 50.7089 18.0623 50.7936 18.2725 50.8409L18.6843 50.841C18.6847 50.841 18.6851 50.8409 18.6855 50.8409C19.1095 50.8395 19.5194 50.6884 19.8429 50.4143C20.1667 50.1399 20.3831 49.7598 20.4538 49.3413L20.4572 49.3226L27.4557 12.2306C27.4557 12.2303 27.4558 12.23 27.4558 12.2297C27.499 11.9976 27.4961 11.7592 27.4472 11.5282C27.3983 11.2969 27.3043 11.0775 27.1706 10.8825C27.0369 10.6875 26.8661 10.5208 26.668 10.3918C26.4698 10.2629 26.2482 10.1742 26.0158 10.1308ZM24.8997 8.18255C25.3879 8.07931 25.8918 8.07325 26.3824 8.16472C26.873 8.25619 27.3408 8.4434 27.759 8.71565C28.1773 8.98791 28.5378 9.33988 28.8201 9.75148C29.1023 10.1631 29.3007 10.6262 29.404 11.1145C29.5072 11.6028 29.5133 12.1066 29.4218 12.5972L29.4214 12.5993L22.4241 49.6847C22.273 50.5644 21.817 51.3629 21.1359 51.9401C20.4523 52.5195 19.5858 52.8385 18.6896 52.8409L18.687 52.8409H18.1737C18.1145 52.8409 18.0555 52.8357 17.9972 52.8253C17.4935 52.7349 17.0132 52.5438 16.5852 52.2633C16.1571 51.9828 15.7902 51.6187 15.5063 51.1929C15.2224 50.7671 15.0275 50.2884 14.9332 49.7854C14.8399 49.2878 14.847 48.7767 14.954 48.282L21.9499 11.2041C21.95 11.2038 21.95 11.2034 21.9501 11.203C22.135 10.2126 22.7057 9.33621 23.5366 8.76643C23.9482 8.48419 24.4114 8.28579 24.8997 8.18255Z" fill="#111111"/>
<path d="M25.1026 20.7891H63.6665V3.01196H25.1026C22.7452 3.01196 20.4844 3.94844 18.8175 5.61537C17.1505 7.2823 16.2141 9.54314 16.2141 11.9005C16.2141 14.2579 17.1505 16.5188 18.8175 18.1857C20.4844 19.8526 22.7452 20.7891 25.1026 20.7891Z" fill="white"/>
<path fill-rule="evenodd" clip-rule="evenodd" d="M18.1103 4.90826C19.9648 3.05379 22.48 2.01196 25.1026 2.01196H63.6665C64.2187 2.01196 64.6665 2.45968 64.6665 3.01196V20.7891C64.6665 21.3414 64.2187 21.7891 63.6665 21.7891H25.1026C22.48 21.7891 19.9648 20.7473 18.1103 18.8928C16.2559 17.0384 15.2141 14.5232 15.2141 11.9005C15.2141 9.27793 16.2559 6.76273 18.1103 4.90826ZM25.1026 4.01196C23.0104 4.01196 21.004 4.84308 19.5246 6.32247C18.0452 7.80187 17.2141 9.80836 17.2141 11.9005C17.2141 13.9927 18.0452 15.9992 19.5246 17.4786C21.004 18.958 23.0104 19.7891 25.1026 19.7891H62.6665V4.01196H25.1026Z" fill="#111111"/>
<path d="M59.4905 17.3131L78.3641 36.1868L90.9854 23.6354L72.0651 4.7618C70.3821 3.1872 68.1532 2.3279 65.8488 2.36518C63.5443 2.40245 61.3444 3.33338 59.7132 4.96159C58.082 6.58979 57.1469 8.78795 57.1054 11.0923C57.0638 13.3967 57.919 15.6272 59.4905 17.3131Z" fill="#6099FF"/>
<path fill-rule="evenodd" clip-rule="evenodd" d="M65.8326 1.36531C68.3963 1.32384 70.8759 2.27982 72.7483 4.03156C72.7561 4.03886 72.7638 4.04628 72.7714 4.05382L91.6917 22.9275C91.8799 23.1153 91.9856 23.3703 91.9854 23.6362C91.9852 23.9021 91.8791 24.157 91.6906 24.3445L79.0692 36.8958C78.6784 37.2845 78.0468 37.2836 77.657 36.8939L58.7834 18.0202C58.7751 18.012 58.7669 18.0035 58.759 17.995C57.0107 16.1193 56.0593 13.638 56.1056 11.0743C56.1518 8.51066 57.192 6.0652 59.0067 4.25382C60.8215 2.44244 63.2689 1.40678 65.8326 1.36531ZM71.3706 5.48144C69.8782 4.09074 67.905 3.33205 65.8649 3.36505C63.8197 3.39813 61.8673 4.22433 60.4196 5.66935C58.9719 7.11437 58.1421 9.06523 58.1052 11.1104C58.0685 13.1498 58.8231 15.124 60.2104 16.6188L78.3661 34.7745L89.5684 23.6344L71.3706 5.48144Z" fill="#111111"/>
<path d="M113.965 50.6746H55.9677V107.902H113.965V50.6746Z" fill="white"/>
<path fill-rule="evenodd" clip-rule="evenodd" d="M54.9677 50.6746C54.9677 50.1223 55.4154 49.6746 55.9677 49.6746H113.965C114.517 49.6746 114.965 50.1223 114.965 50.6746V107.902C114.965 108.454 114.517 108.902 113.965 108.902H55.9677C55.4154 108.902 54.9677 108.454 54.9677 107.902V50.6746ZM56.9677 51.6746V106.902H112.965V51.6746H56.9677Z" fill="#111111"/>
<path d="M103.583 50.6746H55.9677V107.925H103.583" fill="#D6D9E6"/>
<path fill-rule="evenodd" clip-rule="evenodd" d="M54.9677 50.6746C54.9677 50.1223 55.4154 49.6746 55.9677 49.6746H103.583C104.136 49.6746 104.583 50.1223 104.583 50.6746C104.583 51.2268 104.136 51.6746 103.583 51.6746H56.9677V106.925H103.583C104.136 106.925 104.583 107.373 104.583 107.925C104.583 108.478 104.136 108.925 103.583 108.925H55.9677C55.4154 108.925 54.9677 108.478 54.9677 107.925V50.6746Z" fill="#111111"/>
<path d="M123.833 96.564H46.0992V113.851H123.833V96.564Z" fill="white"/>
<path fill-rule="evenodd" clip-rule="evenodd" d="M45.0992 96.564C45.0992 96.0117 45.547 95.564 46.0992 95.564H123.833C124.386 95.564 124.833 96.0117 124.833 96.564V113.851C124.833 114.403 124.386 114.851 123.833 114.851H46.0992C45.547 114.851 45.0992 114.403 45.0992 113.851V96.564ZM47.0992 97.564V112.851H122.833V97.564H47.0992Z" fill="#111111"/>
<path d="M84.9664 72.8377C88.1158 72.8377 91.1362 71.5866 93.3631 69.3596C95.5901 67.1327 96.8411 64.1123 96.8411 60.9629V29.8179C96.8411 26.6685 95.5901 23.6481 93.3631 21.4212C91.1362 19.1942 88.1158 17.9431 84.9664 17.9431C81.817 17.9431 78.7966 19.1942 76.5697 21.4212C74.3427 23.6481 73.0916 26.6685 73.0916 29.8179V60.9629C73.0916 64.1123 74.3427 67.1327 76.5697 69.3596C78.7966 71.5866 81.817 72.8377 84.9664 72.8377Z" fill="white"/>
<path fill-rule="evenodd" clip-rule="evenodd" d="M75.8625 20.714C78.277 18.2996 81.5518 16.9431 84.9664 16.9431C88.381 16.9431 91.6557 18.2996 94.0702 20.714C96.4847 23.1285 97.8411 26.4033 97.8411 29.8179V60.9629C97.8411 64.3775 96.4847 67.6522 94.0702 70.0667C91.6557 72.4812 88.381 73.8377 84.9664 73.8377C81.5518 73.8377 78.277 72.4812 75.8625 70.0667C73.4481 67.6522 72.0916 64.3775 72.0916 60.9629V29.8179C72.0916 26.4033 73.4481 23.1285 75.8625 20.714ZM84.9664 18.9431C82.0822 18.9431 79.3162 20.0888 77.2768 22.1283C75.2373 24.1677 74.0916 26.9337 74.0916 29.8179V60.9629C74.0916 63.8471 75.2373 66.6131 77.2768 68.6525C79.3162 70.6919 82.0822 71.8377 84.9664 71.8377C87.8505 71.8377 90.6166 70.6919 92.656 68.6525C94.6954 66.6131 95.8411 63.8471 95.8411 60.9629V29.8179C95.8411 26.9337 94.6954 24.1677 92.656 22.1283C90.6166 20.0888 87.8505 18.9431 84.9664 18.9431Z" fill="#111111"/>
<path d="M80.767 29.4444C80.767 28.6139 81.0133 27.802 81.4747 27.1114C81.9362 26.4208 82.592 25.8826 83.3593 25.5648C84.1267 25.2469 84.971 25.1638 85.7856 25.3258C86.6002 25.4878 87.3484 25.8878 87.9357 26.4751C88.523 27.0624 88.923 27.8106 89.085 28.6252C89.247 29.4398 89.1639 30.2841 88.846 31.0515C88.5282 31.8188 87.99 32.4746 87.2994 32.9361C86.6088 33.3975 85.7969 33.6438 84.9664 33.6438C83.8526 33.6438 82.7845 33.2013 81.997 32.4138C81.2095 31.6263 80.767 30.5582 80.767 29.4444Z" fill="#6099FF"/>
<path d="M80.767 29.4444C80.767 28.6139 81.0133 27.802 81.4747 27.1114C81.9362 26.4208 82.592 25.8826 83.3593 25.5648C84.1267 25.2469 84.971 25.1638 85.7856 25.3258C86.6002 25.4878 87.3484 25.8878 87.9357 26.4751C88.523 27.0624 88.923 27.8106 89.085 28.6252C89.247 29.4398 89.1639 30.2841 88.846 31.0515C88.5282 31.8188 87.99 32.4746 87.2994 32.9361C86.6088 33.3975 85.7969 33.6438 84.9664 33.6438C83.8526 33.6438 82.7845 33.2013 81.997 32.4138C81.2095 31.6263 80.767 30.5582 80.767 29.4444Z" stroke="#111111" stroke-width="2" stroke-linecap="round" stroke-linejoin="round"/>
<path d="M80.767 61.3361C80.767 60.5055 81.0133 59.6936 81.4747 59.003C81.9362 58.3125 82.592 57.7742 83.3593 57.4564C84.1267 57.1385 84.971 57.0554 85.7856 57.2174C86.6002 57.3794 87.3484 57.7794 87.9357 58.3667C88.523 58.954 88.923 59.7022 89.085 60.5168C89.247 61.3314 89.1639 62.1757 88.846 62.9431C88.5282 63.7104 87.99 64.3662 87.2994 64.8277C86.6088 65.2891 85.7969 65.5354 84.9664 65.5354C83.8526 65.5354 82.7845 65.093 81.997 64.3054C81.2095 63.5179 80.767 62.4498 80.767 61.3361Z" fill="#6099FF"/>
<path fill-rule="evenodd" clip-rule="evenodd" d="M85.5905 58.1982C84.9699 58.0747 84.3266 58.1381 83.742 58.3803C83.1574 58.6224 82.6578 59.0325 82.3062 59.5586C81.9547 60.0847 81.767 60.7033 81.767 61.3361C81.767 62.1846 82.1041 62.9983 82.7041 63.5983C83.3041 64.1983 84.1178 64.5354 84.9664 64.5354C85.5991 64.5354 86.2177 64.3477 86.7438 63.9962C87.2699 63.6446 87.68 63.145 87.9222 62.5604C88.1643 61.9758 88.2277 61.3325 88.1042 60.7119C87.9808 60.0913 87.6761 59.5212 87.2286 59.0738C86.7812 58.6263 86.2111 58.3216 85.5905 58.1982ZM82.9767 56.5325C83.9267 56.139 84.9721 56.036 85.9807 56.2366C86.9893 56.4372 87.9157 56.9324 88.6428 57.6596C89.37 58.3867 89.8652 59.3131 90.0658 60.3217C90.2664 61.3303 90.1634 62.3757 89.7699 63.3257C89.3764 64.2758 88.71 65.0878 87.8549 65.6591C86.9999 66.2304 85.9947 66.5354 84.9664 66.5354C83.5874 66.5354 82.2649 65.9876 81.2899 65.0125C80.3148 64.0375 79.767 62.715 79.767 61.3361C79.767 60.3077 80.072 59.3025 80.6433 58.4475C81.2146 57.5924 82.0266 56.926 82.9767 56.5325Z" fill="#111111"/>
<path d="M22.1398 11.9006C22.1399 11.2207 22.3408 10.556 22.7172 9.98977C23.0936 9.42358 23.6287 8.98111 24.2556 8.71785C24.8824 8.45458 25.573 8.38224 26.2408 8.50989C26.9086 8.63754 27.5239 8.95951 28.0094 9.43541C28.495 9.91132 28.8292 10.52 28.9702 11.1851C29.1113 11.8502 29.0528 12.5421 28.8022 13.1741C28.5515 13.8061 28.1199 14.35 27.5614 14.7377C27.0028 15.1254 26.3423 15.3396 25.6625 15.3533C25.2033 15.3627 24.7467 15.2802 24.3197 15.1109C23.8927 14.9415 23.5038 14.6887 23.1757 14.3671C22.8476 14.0456 22.587 13.6618 22.4091 13.2382C22.2313 12.8147 22.1397 12.3599 22.1398 11.9006Z" fill="#6099FF"/>
<path fill-rule="evenodd" clip-rule="evenodd" d="M26.0531 9.49211C25.5787 9.40143 25.0881 9.45282 24.6428 9.63983C24.1975 9.82685 23.8173 10.1412 23.5499 10.5434C23.2826 10.9456 23.1399 11.4178 23.1398 11.9008C23.1397 12.2271 23.2048 12.5502 23.3311 12.851C23.4575 13.1519 23.6426 13.4245 23.8757 13.653C24.1087 13.8814 24.385 14.061 24.6884 14.1813C24.9917 14.3016 25.316 14.3602 25.6423 14.3535C26.1251 14.3438 26.5944 14.1916 26.9911 13.9162C27.3879 13.6408 27.6945 13.2544 27.8726 12.8055C28.0506 12.3565 28.0922 11.865 27.992 11.3925C27.8918 10.92 27.6544 10.4877 27.3094 10.1496C26.9645 9.81151 26.5275 9.58279 26.0531 9.49211ZM23.8684 7.79586C24.6767 7.45635 25.5674 7.36305 26.4286 7.52768C27.2898 7.6923 28.0832 8.10751 28.7094 8.72125C29.3356 9.33498 29.7666 10.1199 29.9485 10.9777C30.1304 11.8354 30.055 12.7277 29.7317 13.5427C29.4085 14.3578 28.8519 15.0593 28.1316 15.5592C27.4113 16.0592 26.5594 16.3354 25.6828 16.3531C25.0905 16.3651 24.5018 16.2588 23.9511 16.0404C23.4004 15.8221 22.8988 15.496 22.4757 15.0813C22.0526 14.6666 21.7165 14.1717 21.4871 13.6255C21.2577 13.0793 21.1396 12.4928 21.1398 11.9004C21.14 11.0236 21.399 10.1663 21.8844 9.43616C22.3698 8.70599 23.06 8.13537 23.8684 7.79586Z" fill="#111111"/>
<path fill-rule="evenodd" clip-rule="evenodd" d="M8.77447 49.2867C9.00337 49.0128 9.36091 48.8817 9.7126 48.9427L26.5332 51.8589C26.8854 51.9199 27.1782 52.1643 27.3012 52.4998L31.6405 64.3279C31.7635 64.6631 31.6984 65.0384 31.4698 65.3127L23.3978 74.9945C23.0441 75.4187 22.4135 75.4758 21.9893 75.1222C21.5651 74.7685 21.508 74.1379 21.8616 73.7137L29.5642 64.4751L25.6225 53.7308L9.93923 51.0118L2.60727 59.7848L6.74808 71.0941C6.93797 71.6127 6.67148 72.187 6.15287 72.3769C5.63425 72.5668 5.0599 72.3003 4.87001 71.7817L0.530705 59.9303C0.407877 59.5948 0.473338 59.2193 0.702432 58.9452L8.77447 49.2867Z" fill="#111111"/>
<path d="M14.1377 50.2546C14.2902 49.4956 14.6627 48.7983 15.2088 48.2496C15.755 47.701 16.4505 47.3252 17.2088 47.1692C17.9671 47.0133 18.7545 47.084 19.4728 47.3725C20.1912 47.6611 20.8087 48.1547 21.2483 48.7919C21.688 49.4291 21.9304 50.1816 21.9452 50.9556C21.96 51.7296 21.7466 52.4909 21.3317 53.1444C20.9167 53.7979 20.3186 54.3149 19.6118 54.6307C18.905 54.9466 18.1209 55.0473 17.3572 54.9205C16.8354 54.8338 16.3364 54.6431 15.8899 54.3596C15.4433 54.0761 15.0584 53.7056 14.758 53.2702C14.4576 52.8349 14.2479 52.3435 14.1413 51.8255C14.0348 51.3074 14.0335 50.7732 14.1377 50.2546Z" fill="#6099FF"/>
<path fill-rule="evenodd" clip-rule="evenodd" d="M19.1001 48.3005C18.5639 48.0851 17.9762 48.0323 17.4103 48.1487C16.8443 48.2651 16.3252 48.5456 15.9176 48.9551C15.51 49.3646 15.2319 49.8851 15.1181 50.4515C15.0404 50.8386 15.0413 51.2373 15.1208 51.624C15.2004 52.0107 15.3569 52.3774 15.5811 52.7023C15.8053 53.0272 16.0926 53.3037 16.4259 53.5154C16.7592 53.727 17.1316 53.8693 17.521 53.934C18.091 54.0287 18.6763 53.9535 19.2038 53.7177C19.7313 53.482 20.1778 53.0962 20.4875 52.6084C20.7972 52.1206 20.9564 51.5525 20.9454 50.9748C20.9343 50.3971 20.7534 49.8354 20.4253 49.3599C20.0971 48.8843 19.6362 48.5158 19.1001 48.3005ZM17.0073 46.1897C17.9579 45.9942 18.945 46.0828 19.8456 46.4446C20.7461 46.8063 21.5203 47.4252 22.0714 48.224C22.6226 49.0228 22.9264 49.9662 22.945 50.9365C22.9636 51.9068 22.6961 52.8611 22.1759 53.6804C21.6557 54.4997 20.9058 55.1477 20.0198 55.5437C19.1337 55.9397 18.1507 56.066 17.1933 55.907C16.5392 55.7983 15.9136 55.5592 15.3539 55.2038C14.7941 54.8484 14.3115 54.3839 13.9349 53.8382C13.5584 53.2924 13.2954 52.6764 13.1618 52.0269C13.0283 51.3775 13.0267 50.7077 13.1573 50.0576C13.3484 49.1062 13.8154 48.232 14.5001 47.5442C15.1847 46.8563 16.0567 46.3853 17.0073 46.1897Z" fill="#111111"/>
</svg>
