<svg width="125" height="126" viewBox="0 0 125 126" fill="none" xmlns="http://www.w3.org/2000/svg">
<path d="M116.016 70.4908V51.26L106.303 49.5118C105.223 45.4543 103.589 41.5651 101.447 37.9539L107.129 29.9411L93.5315 16.3435L85.4216 21.8797C81.8103 19.7376 77.9211 18.1035 73.8637 17.0234L72.1154 7.31091H52.8847L51.1364 17.0234C47.079 18.1035 43.1897 19.7376 39.5785 21.8797L31.5657 16.2464L17.8711 29.9411L23.5043 37.9539C21.3623 41.5651 19.7281 45.4543 18.6481 49.5118L8.93555 51.26V70.4908L18.6481 72.239C19.7281 76.2965 21.3623 80.1857 23.5043 83.7969L17.8711 91.9069L31.4686 105.504L39.5785 99.8711C43.1897 102.013 47.079 103.647 51.1364 104.727L52.8847 114.44H72.1154L73.8637 104.727C77.9211 103.647 81.8103 102.013 85.4216 99.8711L93.5315 105.504L107.129 91.9069L101.496 83.7969C103.638 80.1857 105.272 76.2965 106.352 72.239L116.016 70.4908Z" fill="#D6D9E7"/>
<path fill-rule="evenodd" clip-rule="evenodd" d="M46.361 33.0348C46.5396 32.7253 46.8698 32.5347 47.2272 32.5347H77.773C78.1303 32.5347 78.4605 32.7253 78.6391 33.0348L87.8174 48.9391C87.9961 49.2486 87.9959 49.6299 87.8171 49.9393L78.6388 65.8193C78.3624 66.2974 77.7507 66.461 77.2726 66.1846C76.7944 65.9083 76.6308 65.2966 76.9072 64.8184L85.7965 49.4385L77.1955 34.5347H47.8046L39.2036 49.4385L48.0929 64.8184C48.3693 65.2966 48.2057 65.9083 47.7276 66.1846C47.2494 66.461 46.6377 66.2974 46.3614 65.8193L37.183 49.9393C37.0042 49.6299 37.0041 49.2486 37.1827 48.9391L46.361 33.0348Z" fill="#111111"/>
<path d="M73.1097 2.01758V26.833H51.9121V2.01758" fill="white"/>
<path fill-rule="evenodd" clip-rule="evenodd" d="M51.9121 1.01758C52.4644 1.01758 52.9121 1.46529 52.9121 2.01758V25.833H72.1097V2.01758C72.1097 1.46529 72.5574 1.01758 73.1097 1.01758C73.6619 1.01758 74.1097 1.46529 74.1097 2.01758V26.833C74.1097 27.3853 73.6619 27.833 73.1097 27.833H51.9121C51.3598 27.833 50.9121 27.3853 50.9121 26.833V2.01758C50.9121 1.46529 51.3598 1.01758 51.9121 1.01758Z" fill="#111111"/>
<path d="M108.1 123.982H16.9963C14.9364 123.982 12.8967 123.577 10.9936 122.788C9.09051 122 7.36134 120.845 5.90478 119.388C4.44823 117.932 3.29283 116.203 2.50455 114.299C1.71627 112.396 1.31055 110.357 1.31055 108.297C1.31055 106.237 1.71627 104.197 2.50455 102.294C3.29283 100.391 4.44823 98.6619 5.90478 97.2053C7.36134 95.7488 9.09051 94.5934 10.9936 93.8051C12.8967 93.0168 14.9364 92.6111 16.9963 92.6111H108.1C112.26 92.6111 116.249 94.2637 119.191 97.2053C122.133 100.147 123.785 104.137 123.785 108.297C123.785 112.457 122.133 116.447 119.191 119.388C116.249 122.33 112.26 123.982 108.1 123.982Z" fill="white"/>
<path fill-rule="evenodd" clip-rule="evenodd" d="M16.9963 93.6111C15.0677 93.6111 13.158 93.9909 11.3763 94.729C9.59452 95.467 7.97558 96.5487 6.61189 97.9124C5.2482 99.2761 4.16646 100.895 3.42843 102.677C2.6904 104.459 2.31055 106.368 2.31055 108.297C2.31055 110.225 2.6904 112.135 3.42843 113.917C4.16646 115.699 5.2482 117.317 6.61189 118.681C7.97558 120.045 9.59452 121.127 11.3763 121.865C13.158 122.603 15.0677 122.982 16.9963 122.982H108.1C111.994 122.982 115.73 121.435 118.484 118.681C121.238 115.927 122.785 112.192 122.785 108.297C122.785 104.402 121.238 100.667 118.484 97.9124C115.73 95.1583 111.994 93.6111 108.1 93.6111H16.9963ZM10.6109 92.8812C12.6353 92.0427 14.8051 91.6111 16.9963 91.6111H108.1C112.525 91.6111 116.769 93.369 119.898 96.4982C123.027 99.6274 124.785 103.871 124.785 108.297C124.785 112.722 123.027 116.966 119.898 120.095C116.769 123.225 112.525 124.982 108.1 124.982H16.9963C14.8051 124.982 12.6353 124.551 10.6109 123.712C8.58651 122.874 6.74709 121.645 5.19768 120.095C3.64827 118.546 2.41921 116.707 1.58067 114.682C0.742136 112.658 0.310547 110.488 0.310547 108.297C0.310547 106.106 0.742136 103.936 1.58067 101.911C2.41921 99.887 3.64827 98.0476 5.19768 96.4982C6.74709 94.9488 8.58651 93.7197 10.6109 92.8812Z" fill="#111111"/>
<path d="M25.3732 108.297C25.378 107.027 25.0055 105.784 24.303 104.726C23.6005 103.668 22.5996 102.843 21.4273 102.355C20.255 101.867 18.9641 101.738 17.7184 101.984C16.4726 102.231 15.3282 102.842 14.4303 103.74C13.5323 104.638 12.9213 105.782 12.6747 107.028C12.4282 108.274 12.5572 109.565 13.0453 110.737C13.5335 111.909 14.3589 112.91 15.4168 113.613C16.4746 114.315 17.7173 114.688 18.9872 114.683C19.8258 114.683 20.6563 114.518 21.431 114.197C22.2058 113.876 22.9098 113.405 23.5028 112.812C24.0958 112.219 24.5662 111.515 24.8871 110.741C25.208 109.966 25.3732 109.135 25.3732 108.297Z" fill="#6099FF"/>
<path fill-rule="evenodd" clip-rule="evenodd" d="M17.5242 101.003C18.9643 100.718 20.4565 100.867 21.8117 101.432C23.1669 101.996 24.3239 102.95 25.136 104.173C25.9478 105.396 26.3784 106.831 26.3732 108.299C26.3727 110.257 25.5946 112.135 24.2099 113.519C22.8252 114.904 20.9473 115.682 18.9891 115.683C17.5218 115.688 16.0859 115.257 14.8636 114.446C13.6407 113.634 12.6865 112.476 12.1222 111.121C11.5578 109.766 11.4087 108.274 11.6938 106.834C11.9788 105.394 12.6851 104.071 13.7232 103.033C14.7612 101.995 16.0841 101.288 17.5242 101.003ZM21.0429 103.278C20.0534 102.866 18.9639 102.757 17.9125 102.965C16.8611 103.173 15.8952 103.689 15.1374 104.447C14.3795 105.205 13.8638 106.171 13.6557 107.222C13.4476 108.273 13.5565 109.363 13.9685 110.352C14.3805 111.342 15.0771 112.187 15.97 112.78C16.8628 113.372 17.9117 113.687 18.9834 113.683L18.9872 113.683C20.4157 113.683 21.7856 113.115 22.7957 112.105C23.8058 111.095 24.3732 109.725 24.3732 108.297L24.3732 108.293C24.3773 107.221 24.0629 106.172 23.47 105.28C22.877 104.387 22.0323 103.69 21.0429 103.278Z" fill="#111111"/>
<path d="M54.3888 108.297C54.3936 107.028 54.0218 105.786 53.3203 104.729C52.6189 103.671 51.6194 102.846 50.4485 102.357C49.2777 101.868 47.988 101.738 46.7429 101.982C45.4979 102.227 44.3534 102.835 43.4545 103.731C42.5556 104.627 41.9426 105.769 41.6933 107.013C41.444 108.257 41.5695 109.547 42.054 110.72C42.5384 111.893 43.36 112.895 44.4147 113.601C45.4694 114.306 46.7097 114.683 47.9786 114.683C49.6745 114.683 51.3013 114.011 52.5027 112.814C53.7042 111.617 54.3824 109.992 54.3888 108.297Z" fill="#6099FF"/>
<path fill-rule="evenodd" clip-rule="evenodd" d="M46.5502 101.001C47.9895 100.718 49.4803 100.869 50.8339 101.434C52.1874 101.999 53.3428 102.954 54.1536 104.176C54.9645 105.398 55.3944 106.834 55.3888 108.3C55.3814 110.261 54.5974 112.138 53.2085 113.522C51.8196 114.906 49.939 115.683 47.9786 115.683C46.5118 115.683 45.078 115.247 43.8587 114.432C42.6395 113.616 41.6898 112.457 41.1297 111.102C40.5697 109.746 40.4246 108.255 40.7128 106.816C41.001 105.378 41.7096 104.058 42.7487 103.023C43.7879 101.987 45.1109 101.284 46.5502 101.001ZM50.0632 103.28C49.075 102.867 47.9865 102.757 46.9357 102.964C45.8849 103.17 44.9189 103.684 44.1603 104.439C43.4016 105.195 42.8843 106.159 42.6738 107.209C42.4634 108.259 42.5693 109.348 42.9782 110.338C43.3871 111.328 44.0805 112.174 44.9707 112.769C45.8608 113.365 46.9077 113.683 47.9786 113.683C49.4099 113.683 50.7829 113.115 51.797 112.105C52.811 111.095 53.3834 109.724 53.3888 108.293C53.3929 107.222 53.079 106.174 52.487 105.281C51.895 104.389 51.0515 103.692 50.0632 103.28Z" fill="#111111"/>
<path d="M83.4064 108.297C83.4112 107.028 83.0393 105.786 82.3379 104.729C81.6365 103.671 80.637 102.846 79.4661 102.357C78.2952 101.868 77.0056 101.738 75.7605 101.982C74.5155 102.227 73.371 102.835 72.4721 103.731C71.5731 104.627 70.9602 105.769 70.7109 107.013C70.4616 108.257 70.5871 109.547 71.0716 110.72C71.556 111.893 72.3776 112.895 73.4323 113.601C74.487 114.306 75.7273 114.683 76.9961 114.683C78.6921 114.683 80.3189 114.011 81.5203 112.814C82.7218 111.617 83.4 109.992 83.4064 108.297Z" fill="#6099FF"/>
<path fill-rule="evenodd" clip-rule="evenodd" d="M75.5678 101.001C77.0071 100.718 78.4979 100.869 79.8514 101.434C81.205 101.999 82.3603 102.954 83.1712 104.176C83.9821 105.398 84.412 106.834 84.4064 108.3C84.399 110.261 83.615 112.138 82.2261 113.522C80.8372 114.906 78.9566 115.683 76.9961 115.683C75.5293 115.683 74.0955 115.247 72.8763 114.432C71.6571 113.616 70.7073 112.457 70.1473 111.102C69.5873 109.746 69.4422 108.255 69.7304 106.816C70.0186 105.378 70.7271 104.058 71.7663 103.023C72.8055 101.987 74.1285 101.284 75.5678 101.001ZM79.0808 103.28C78.0926 102.867 77.0041 102.757 75.9533 102.964C74.9025 103.17 73.9365 103.684 73.1778 104.439C72.4191 105.195 71.9018 106.159 71.6914 107.209C71.481 108.259 71.5869 109.348 71.9958 110.338C72.4047 111.328 73.0981 112.174 73.9883 112.769C74.8784 113.365 75.9252 113.683 76.9962 113.683C78.4275 113.683 79.8005 113.115 80.8146 112.105C81.8286 111.095 82.401 109.724 82.4064 108.293C82.4105 107.222 82.0966 106.174 81.5046 105.281C80.9126 104.389 80.069 103.692 79.0808 103.28Z" fill="#111111"/>
<path d="M112.422 108.297C112.427 107.028 112.055 105.786 111.354 104.729C110.652 103.671 109.653 102.846 108.482 102.357C107.311 101.868 106.021 101.738 104.776 101.982C103.531 102.227 102.387 102.835 101.488 103.731C100.589 104.627 99.9758 105.769 99.7265 107.013C99.4772 108.257 99.6027 109.547 100.087 110.72C100.572 111.893 101.393 112.895 102.448 113.601C103.503 114.306 104.743 114.683 106.012 114.683C107.708 114.683 109.334 114.011 110.536 112.814C111.737 111.617 112.416 109.992 112.422 108.297Z" fill="#6099FF"/>
<path fill-rule="evenodd" clip-rule="evenodd" d="M104.583 101.001C106.023 100.718 107.514 100.869 108.867 101.434C110.221 101.999 111.376 102.954 112.187 104.176C112.998 105.398 113.428 106.834 113.422 108.3C113.415 110.261 112.631 112.138 111.242 113.522C109.853 114.906 107.972 115.683 106.012 115.683C104.545 115.683 103.111 115.247 101.892 114.432C100.673 113.616 99.723 112.457 99.1629 111.102C98.6029 109.746 98.4578 108.255 98.746 106.816C99.0342 105.378 99.7428 104.058 100.782 103.023C101.821 101.987 103.144 101.284 104.583 101.001ZM108.096 103.28C107.108 102.867 106.02 102.757 104.969 102.964C103.918 103.17 102.952 103.684 102.193 104.439C101.435 105.195 100.917 106.159 100.707 107.209C100.497 108.259 100.603 109.348 101.011 110.338C101.42 111.328 102.114 112.174 103.004 112.769C103.894 113.365 104.941 113.683 106.012 113.683C107.443 113.683 108.816 113.115 109.83 112.105C110.844 111.095 111.417 109.724 111.422 108.293C111.426 107.222 111.112 106.174 110.52 105.281C109.928 104.389 109.085 103.692 108.096 103.28Z" fill="#111111"/>
<path d="M37.3438 60.3413H6.99219V84.3555H37.3438V60.3413Z" fill="white"/>
<path fill-rule="evenodd" clip-rule="evenodd" d="M5.99219 60.3413C5.99219 59.789 6.4399 59.3413 6.99219 59.3413H37.3438C37.8961 59.3413 38.3438 59.789 38.3438 60.3413V84.3555C38.3438 84.9078 37.8961 85.3555 37.3438 85.3555H6.99219C6.4399 85.3555 5.99219 84.9078 5.99219 84.3555V60.3413ZM7.99219 61.3413V83.3555H36.3438V61.3413H7.99219Z" fill="#111111"/>
<path d="M13.209 60.3413H37.3446V84.3312H13.209" fill="#9099B6"/>
<path fill-rule="evenodd" clip-rule="evenodd" d="M12.209 60.3413C12.209 59.789 12.6567 59.3413 13.209 59.3413H37.3446C37.8969 59.3413 38.3446 59.789 38.3446 60.3413V84.3312C38.3446 84.8835 37.8969 85.3312 37.3446 85.3312H13.209C12.6567 85.3312 12.209 84.8835 12.209 84.3312C12.209 83.7789 12.6567 83.3312 13.209 83.3312H36.3446V61.3413H13.209C12.6567 61.3413 12.209 60.8936 12.209 60.3413Z" fill="#111111"/>
<path d="M77.6758 60.3413H47.3242V84.3555H77.6758V60.3413Z" fill="white"/>
<path d="M54 60.8037H78V84.8037H54" fill="#9099B6"/>
<path d="M53.5391 60.3413H77.6746V84.3312H53.5391" stroke="#111111" stroke-width="1.11" stroke-linecap="round" stroke-linejoin="round"/>
<path d="M118.006 60.3413H87.6543V84.3555H118.006V60.3413Z" fill="white"/>
<path fill-rule="evenodd" clip-rule="evenodd" d="M86.6543 60.3413C86.6543 59.789 87.102 59.3413 87.6543 59.3413H118.006C118.558 59.3413 119.006 59.789 119.006 60.3413V84.3555C119.006 84.9078 118.558 85.3555 118.006 85.3555H87.6543C87.102 85.3555 86.6543 84.9078 86.6543 84.3555V60.3413ZM88.6543 61.3413V83.3555H117.006V61.3413H88.6543Z" fill="#111111"/>
<path d="M93.8457 60.3413H118.006V84.3312H93.8457" fill="#9099B6"/>
<path fill-rule="evenodd" clip-rule="evenodd" d="M92.8457 60.3413C92.8457 59.789 93.2934 59.3413 93.8457 59.3413H118.006C118.558 59.3413 119.006 59.789 119.006 60.3413V84.3312C119.006 84.8835 118.558 85.3312 118.006 85.3312H93.8457C93.2934 85.3312 92.8457 84.8835 92.8457 84.3312C92.8457 83.7789 93.2934 83.3312 93.8457 83.3312H117.006V61.3413H93.8457C93.2934 61.3413 92.8457 60.8936 92.8457 60.3413Z" fill="#111111"/>
<path d="M71.022 33.8018C71.022 32.1161 70.5222 30.4684 69.5857 29.0668C68.6492 27.6653 67.3181 26.5729 65.7608 25.9278C64.2035 25.2827 62.4898 25.114 60.8366 25.4428C59.1833 25.7717 57.6647 26.5834 56.4728 27.7753C55.2809 28.9672 54.4692 30.4858 54.1403 32.1391C53.8115 33.7923 53.9803 35.506 54.6253 37.0633C55.2704 38.6206 56.3628 39.9517 57.7643 40.8882C59.1659 41.8247 60.8137 42.3245 62.4993 42.3245C64.7597 42.3245 66.9275 41.4266 68.5258 39.8283C70.1241 38.2299 71.022 36.0622 71.022 33.8018Z" fill="#6099FF"/>
<path fill-rule="evenodd" clip-rule="evenodd" d="M60.6415 24.462C62.4887 24.0946 64.4034 24.2832 66.1435 25.0039C67.8835 25.7247 69.3708 26.9452 70.4172 28.5112C71.4635 30.0772 72.022 31.9184 72.022 33.8018C72.022 35.0523 71.7757 36.2906 71.2971 37.446C70.8186 38.6013 70.1171 39.6511 69.2329 40.5354C68.3486 41.4196 67.2988 42.1211 66.1435 42.5996C64.9881 43.0782 63.7498 43.3245 62.4993 43.3245C60.6159 43.3245 58.7748 42.766 57.2088 41.7196C55.6427 40.6733 54.4222 39.186 53.7014 37.446C52.9807 35.7059 52.7921 33.7912 53.1595 31.944C53.527 30.0968 54.4339 28.4 55.7657 27.0682C57.0975 25.7364 58.7943 24.8295 60.6415 24.462ZM65.3781 26.8517C64.0035 26.2823 62.4909 26.1333 61.0317 26.4236C59.5724 26.7139 58.232 27.4303 57.1799 28.4824C56.1279 29.5345 55.4114 30.8749 55.1211 32.3342C54.8308 33.7934 54.9798 35.306 55.5492 36.6806C56.1186 38.0552 57.0828 39.2301 58.3199 40.0567C59.557 40.8833 61.0114 41.3245 62.4993 41.3245C63.4872 41.3245 64.4654 41.1299 65.3781 40.7519C66.2908 40.3738 67.1201 39.8197 67.8187 39.1212C68.5172 38.4226 69.0713 37.5933 69.4494 36.6806C69.8274 35.7679 70.022 34.7897 70.022 33.8018C70.022 32.3139 69.5808 30.8595 68.7542 29.6224C67.9276 28.3853 66.7527 27.4211 65.3781 26.8517Z" fill="#111111"/>
<path d="M65.5591 33.8018C65.5591 33.2111 65.384 32.6337 65.0558 32.1425C64.7276 31.6514 64.2612 31.2686 63.7155 31.0425C63.1697 30.8165 62.5692 30.7573 61.9899 30.8726C61.4105 30.9878 60.8784 31.2723 60.4607 31.6899C60.043 32.1076 59.7586 32.6398 59.6433 33.2191C59.5281 33.7985 59.5872 34.399 59.8133 34.9447C60.0393 35.4904 60.4221 35.9569 60.9133 36.285C61.4044 36.6132 61.9818 36.7884 62.5725 36.7884C63.3646 36.7884 64.1243 36.4737 64.6844 35.9136C65.2445 35.3535 65.5591 34.5939 65.5591 33.8018Z" fill="#111111"/>
<path fill-rule="evenodd" clip-rule="evenodd" d="M46.3242 60.3413C46.3242 59.789 46.7719 59.3413 47.3242 59.3413H77.6758C78.2281 59.3413 78.6758 59.789 78.6758 60.3413V84.3555C78.6758 84.9078 78.2281 85.3555 77.6758 85.3555H47.3242C46.7719 85.3555 46.3242 84.9078 46.3242 84.3555V60.3413ZM48.3242 61.3413V83.3555H76.6758V61.3413H48.3242Z" fill="#111111"/>
</svg>
