<svg width="152" height="120" viewBox="0 0 152 120" fill="none" xmlns="http://www.w3.org/2000/svg">
<g clip-path="url(#clip0_2418_107381)">
<path d="M98.2086 3.23218L45.5316 25.7698V39.9478C45.5316 76.1952 67.5342 107.003 98.2086 118.885C128.95 107.003 150.885 76.1952 150.885 39.9478V25.7698L98.2086 3.23218Z" fill="white"/>
<path d="M98.2085 13.8435L55.1842 32.2347V42.7122C55.1842 72.3165 73.0181 97.5515 98.2085 107.182C123.265 97.5515 141.233 72.3165 141.233 42.7122V32.2347L98.2085 13.8435Z" fill="#EBECF4"/>
<path d="M98.2085 107.182C123.265 97.5515 141.233 72.3165 141.233 42.7122V32.2347L98.2085 13.8435" fill="#6099FF"/>
<path d="M98.2085 107.182C123.265 97.5515 141.233 72.3165 141.233 42.7122V32.2347L98.2085 13.8435" stroke="#111111" stroke-width="1.18" stroke-linecap="round" stroke-linejoin="round"/>
<path d="M118.495 54.9506C118.623 52.2066 118.194 49.465 117.233 46.8917C116.271 44.3184 114.798 41.9669 112.901 39.9795C111.005 37.9921 108.725 36.41 106.199 35.3291C103.674 34.2482 100.956 33.6909 98.2085 33.6909C95.4615 33.6909 92.743 34.2482 90.2176 35.3291C87.6921 36.41 85.4123 37.9921 83.5159 39.9795C81.6195 41.9669 80.146 44.3184 79.1845 46.8917C78.2231 49.465 77.7938 52.2066 77.9224 54.9506C77.7938 57.6946 78.2231 60.4362 79.1845 63.0095C80.146 65.5828 81.6195 67.9343 83.5159 69.9217C85.4123 71.9091 87.6921 73.4911 90.2176 74.572C92.743 75.6529 95.4615 76.2103 98.2085 76.2103C100.956 76.2103 103.674 75.6529 106.199 74.572C108.725 73.4911 111.005 71.9091 112.901 69.9217C114.798 67.9343 116.271 65.5828 117.233 63.0095C118.194 60.4362 118.623 57.6946 118.495 54.9506Z" fill="white"/>
<path fill-rule="evenodd" clip-rule="evenodd" d="M97.7323 2.11909C98.0365 1.98895 98.3806 1.98895 98.6848 2.11909L151.362 24.6567C151.807 24.8473 152.096 25.2852 152.096 25.7698V39.9478C152.096 76.6878 129.86 107.95 98.645 120.015C98.3639 120.123 98.0523 120.123 97.7712 120.014C66.625 107.95 44.3209 76.6891 44.3209 39.9478V25.7698C44.3209 25.2852 44.6098 24.8473 45.0554 24.6567L97.7323 2.11909ZM98.2085 4.54913L46.7424 26.5687V39.9478C46.7424 75.5288 68.2343 105.764 98.209 117.585C128.248 105.764 149.675 75.5304 149.675 39.9478V26.5687L98.2085 4.54913Z" fill="#111111"/>
<path fill-rule="evenodd" clip-rule="evenodd" d="M97.7326 12.7303C98.0366 12.6003 98.3805 12.6003 98.6844 12.7303L141.709 31.1215C142.154 31.312 142.444 31.75 142.444 32.2348V42.7122C142.444 72.8082 124.176 98.4986 98.6429 108.312C98.364 108.419 98.0553 108.419 97.7762 108.313C72.1047 98.4986 53.9734 72.8052 53.9734 42.7122V32.2348C53.9734 31.75 54.2626 31.312 54.7083 31.1215L97.7326 12.7303ZM98.2085 15.1603L56.3949 33.034V42.7122C56.3949 71.6573 73.7266 96.3141 98.2074 105.883C122.562 96.3128 140.022 71.6536 140.022 42.7122V33.034L98.2085 15.1603Z" fill="#111111"/>
<path fill-rule="evenodd" clip-rule="evenodd" d="M98.2085 2.02148C98.8772 2.02148 99.4193 2.56355 99.4193 3.23223V13.0632C99.4193 13.7319 98.8772 14.2739 98.2085 14.2739C97.5399 14.2739 96.9978 13.7319 96.9978 13.0632V3.23223C96.9978 2.56355 97.5399 2.02148 98.2085 2.02148ZM98.2085 110.987C98.8772 110.987 99.4193 111.529 99.4193 112.197V118.885C99.4193 119.554 98.8772 120.096 98.2085 120.096C97.5399 120.096 96.9978 119.554 96.9978 118.885V112.197C96.9978 111.529 97.5399 110.987 98.2085 110.987Z" fill="#111111"/>
<path fill-rule="evenodd" clip-rule="evenodd" d="M96.9981 33.7C97.0137 33.0315 97.5683 32.5023 98.2368 32.5179C104.06 32.654 109.592 35.0955 113.617 39.3064C117.632 43.5072 119.821 49.1265 119.706 54.9355C119.836 57.8292 119.381 60.7196 118.367 63.4333C117.348 66.1601 115.787 68.6517 113.777 70.7576C111.768 72.8635 109.352 74.5399 106.676 75.6852C104 76.8306 101.119 77.4211 98.2085 77.4211C95.2977 77.4211 92.4172 76.8306 89.7412 75.6852C87.0652 74.5399 84.6494 72.8635 82.6399 70.7576C80.6304 68.6517 79.0691 66.1601 78.0504 63.4333C77.0316 60.7066 76.5767 57.8016 76.713 54.894C76.7443 54.226 77.3112 53.71 77.9791 53.7413C78.6471 53.7726 79.1632 54.3395 79.1318 55.0074C79.0108 57.5878 79.4146 60.166 80.3187 62.5859C81.2228 65.0057 82.6085 67.217 84.3918 69.086C86.1751 70.9549 88.3191 72.4426 90.694 73.4591C93.0688 74.4755 95.6253 74.9996 98.2085 74.9996C100.792 74.9996 103.348 74.4755 105.723 73.4591C108.098 72.4426 110.242 70.9549 112.025 69.086C113.809 67.217 115.194 65.0057 116.098 62.5859C117.002 60.166 117.406 57.5878 117.285 55.0074C117.284 54.9798 117.284 54.9521 117.284 54.9244C117.397 49.742 115.448 44.7267 111.867 40.9796C108.285 37.2325 103.362 35.0599 98.1802 34.9387C97.5117 34.9231 96.9825 34.3685 96.9981 33.7ZM109.835 47.9903C110.318 48.4527 110.335 49.2191 109.873 49.7021L95.873 64.3259C95.6446 64.5645 95.3286 64.6995 94.9983 64.6994C94.668 64.6994 94.352 64.5644 94.1237 64.3258L86.1876 56.033C85.7253 55.5499 85.7421 54.7835 86.2252 54.3212C86.7083 53.8589 87.4747 53.8757 87.937 54.3588L94.9986 61.7377L108.123 48.0276C108.586 47.5446 109.352 47.5279 109.835 47.9903Z" fill="#111111"/>
<path fill-rule="evenodd" clip-rule="evenodd" d="M12.6504 0.0600221C13.319 0.047765 13.8709 0.579807 13.8831 1.24837L13.9838 6.7369L19.4719 6.63628C20.1404 6.62402 20.6924 7.15606 20.7046 7.82463C20.7169 8.49319 20.1848 9.04511 19.5163 9.05736L14.0281 9.15798L14.1283 14.6238C14.1406 15.2924 13.6086 15.8443 12.94 15.8565C12.2714 15.8688 11.7195 15.3368 11.7073 14.6682L11.6071 9.20237L6.14082 9.30258C5.47225 9.31484 4.92034 8.78279 4.90808 8.11423C4.89583 7.44567 5.42787 6.89375 6.09643 6.8815L11.5627 6.78128L11.462 1.29276C11.4498 0.624193 11.9818 0.072279 12.6504 0.0600221ZM28.0757 29.1293C28.7747 29.1145 29.4698 29.2377 30.121 29.492C30.7733 29.7467 31.3688 30.1279 31.8732 30.6136C32.3777 31.0992 32.7812 31.6798 33.0604 32.322C33.3392 32.9631 33.4887 33.6529 33.5004 34.3518C33.5225 35.4068 33.2312 36.4447 32.6634 37.3341C32.095 38.2244 31.2751 38.926 30.3076 39.3498C29.3401 39.7737 28.2685 39.9008 27.2287 39.7151C26.1889 39.5294 25.2276 39.0392 24.4667 38.3066C23.7058 37.574 23.1794 36.632 22.9544 35.5999C22.7294 34.5679 22.8158 33.4923 23.2026 32.5094C23.5895 31.5266 24.2595 30.6806 25.1276 30.0789C25.9948 29.4778 27.0208 29.1473 28.0757 29.1293ZM29.2402 31.7477C28.8853 31.609 28.5064 31.542 28.1254 31.5503L28.1188 31.5504C27.5421 31.5599 26.9811 31.7404 26.5071 32.069C26.033 32.3976 25.6671 32.8596 25.4559 33.3963C25.2446 33.9331 25.1974 34.5205 25.3203 35.0841C25.4432 35.6476 25.7306 36.1621 26.1462 36.5621C26.5617 36.9622 27.0867 37.2299 27.6545 37.3314C28.2223 37.4328 28.8075 37.3633 29.3359 37.1319C29.8642 36.9004 30.312 36.5173 30.6224 36.0311C30.9328 35.5449 31.0918 34.9775 31.0794 34.4008L31.0793 34.3942C31.0732 34.0132 30.9918 33.6372 30.8398 33.2877C30.6879 32.9382 30.4683 32.6223 30.1938 32.358C29.9193 32.0937 29.5952 31.8863 29.2402 31.7477ZM8.48172 47.3645C9.15028 47.3522 9.7022 47.8843 9.71445 48.5528L9.81508 54.0414L15.3032 53.9408C15.9718 53.9285 16.5237 54.4605 16.5359 55.1291C16.5482 55.7977 16.0161 56.3496 15.3476 56.3618L9.85946 56.4625L9.95967 61.9283C9.97193 62.5968 9.43989 63.1488 8.77132 63.161C8.10276 63.1733 7.55084 62.6412 7.53859 61.9727L7.43838 56.5068L1.97214 56.6071C1.30358 56.6193 0.751661 56.0873 0.739404 55.4187C0.727147 54.7501 1.25919 54.1982 1.92775 54.186L7.39399 54.0858L7.29337 48.5972C7.28111 47.9287 7.81316 47.3768 8.48172 47.3645Z" fill="#6099FF"/>
</g>
<defs>
<clipPath id="clip0_2418_107381">
<rect width="151.343" height="120" fill="white" transform="translate(0.656982)"/>
</clipPath>
</defs>
</svg>
