<svg width="116" height="130" viewBox="0 0 116 130" fill="none" xmlns="http://www.w3.org/2000/svg">
<g clip-path="url(#clip0_2418_107513)">
<path d="M85.4789 101.437L90.9194 105.3L93.8572 102.362L89.4777 99.3154C88.1364 100.093 86.7564 100.801 85.3429 101.437" fill="white"/>
<path d="M53.2169 11.4249L55.0667 1.11523H47.8853L46.0355 11.4249C43.2337 12.1722 40.5029 13.1644 37.8748 14.39L40.9759 16.539C44.8018 14.2798 48.9209 12.5589 53.2169 11.4249Z" fill="white"/>
<path d="M40.9758 99.3154L37.902 101.437C40.5251 102.675 43.257 103.667 46.0627 104.402L47.9124 114.739H55.0939L53.2441 104.402C48.9398 103.28 44.8113 101.568 40.9758 99.3154Z" fill="white"/>
<path d="M65.2675 26.1413C64.068 26.1369 62.8692 26.2005 61.6768 26.3317C69.4551 27.1872 76.6441 30.8829 81.8661 36.7108C87.0882 42.5386 89.9759 50.0885 89.9759 57.9137C89.9759 65.7388 87.0882 73.2888 81.8661 79.1166C76.6441 84.9444 69.4551 88.6402 61.6768 89.4956C65.9647 89.9669 70.3037 89.5601 74.4293 88.2999C78.5549 87.0398 82.3807 84.9528 85.6735 82.166C88.9663 79.3793 91.6571 75.9512 93.582 72.0907C95.5068 68.2302 96.6254 64.0181 96.8695 59.7113C97.1136 55.4045 96.4781 51.093 95.0018 47.0398C93.5254 42.9865 91.2392 39.2763 88.2824 36.1354C85.3255 32.9944 81.7601 30.4884 77.8033 28.7702C73.8465 27.052 69.5812 26.1575 65.2675 26.1413Z" fill="white"/>
<path d="M23.8928 82.2327C21.6288 78.4125 19.9162 74.2914 18.806 69.9917L8.46908 68.1419V47.713L18.806 45.8632C19.9114 41.5533 21.6241 37.4225 23.8928 33.5949L17.8811 24.9718L29.3877 13.6012L25.1441 10.5273L10.6997 24.9718L16.7114 33.5949C14.4452 37.427 12.724 41.5561 11.5973 45.8632L1.28766 47.713V68.1419L11.5973 69.9917C12.729 74.2884 14.45 78.4079 16.7114 82.2327L10.6997 90.8831L25.1441 105.3L29.3877 102.362L17.8811 90.8831L23.8928 82.2327Z" fill="white"/>
<path d="M93.9933 13.6012L91.0554 10.5273L85.6149 14.3901C87.0288 15.0357 88.4088 15.753 89.7497 16.5391L93.9933 13.6012Z" fill="white"/>
<path d="M65.3109 90.5055C64.1108 90.5007 62.912 90.4281 61.7202 90.2878C60.5285 90.4297 59.3296 90.5024 58.1295 90.5055C49.8603 90.2635 42.0109 86.8086 36.2473 80.874C30.4838 74.9393 27.2599 66.9923 27.2599 58.7195C27.2599 50.4468 30.4838 42.4997 36.2473 36.5651C42.0109 30.6305 49.8603 27.1755 58.1295 26.9336C59.329 26.9277 60.5279 26.9913 61.7202 27.124C66.0282 26.6177 70.3942 26.9981 74.5498 28.2418C78.7053 29.4855 82.5624 31.5662 85.884 34.356C89.2055 37.1457 91.9211 40.5855 93.8639 44.4638C95.8066 48.3421 96.9354 52.5768 97.1807 56.9075C97.4261 61.2382 96.7828 65.5734 95.2905 69.6462C93.7982 73.7191 91.4884 77.4436 88.5033 80.5907C85.5181 83.7377 81.9206 86.2408 77.9321 87.9459C73.9437 89.6509 69.6485 90.522 65.3109 90.5055ZM99.5314 83.0248C101.784 79.1988 103.496 75.0794 104.618 70.7838L114.955 68.934V48.4506L104.618 46.6009C103.501 42.2949 101.789 38.1657 99.5314 34.3326L105.516 25.7095L94.0366 14.3389L89.657 17.2768C88.3161 16.4907 86.9361 15.7734 85.5222 15.1278L82.4484 17.2768C78.6281 15.0127 74.507 13.3002 70.2073 12.1899L68.2215 1.85303H55.11L53.2602 12.1899C48.9614 13.3026 44.8406 15.015 41.0192 17.2768L37.9453 15.1278C36.558 15.7806 35.2251 16.4879 33.8378 17.2768L29.431 14.3389L17.9244 25.7095L23.9361 34.3326C21.6674 38.1602 19.9547 42.291 18.8493 46.6009L8.51239 48.4506V68.8796L18.8493 70.7294C19.9595 75.029 21.6721 79.1502 23.9361 82.9704L17.9244 91.6208L29.431 103.1L33.8106 100.053C35.1435 100.842 36.5308 101.522 37.9181 102.175L41.0192 100.053C44.8546 102.306 48.9831 104.018 53.2874 105.14L55.1372 115.477H68.2215L70.0985 105.14C74.3941 104.018 78.5135 102.306 82.3395 100.053L85.4134 102.175C86.8269 101.539 88.2069 100.831 89.5482 100.053L93.9277 103.1L105.407 91.6208L99.5314 83.0248Z" fill="#6099FF"/>
<path fill-rule="evenodd" clip-rule="evenodd" d="M46.8628 0.960808C46.9381 0.514901 47.3242 0.188477 47.7764 0.188477H68.1782C68.6224 0.188477 69.0041 0.503675 69.0881 0.93984L70.9644 10.681C74.9469 11.7808 78.7746 13.3791 82.3566 15.438L90.5202 9.66187C90.8889 9.40096 91.3921 9.44397 91.7112 9.7637L106.128 24.2081C106.445 24.5252 106.489 25.0231 106.234 25.3911L100.585 33.5307C102.636 37.1216 104.227 40.9569 105.318 44.9458L115.075 46.6918C115.517 46.7708 115.838 47.1551 115.838 47.6039V68.0057C115.838 68.4507 115.522 68.8329 115.085 68.916L105.211 70.7931C104.119 74.776 102.528 78.605 100.476 82.189L106.126 90.3556C106.381 90.7238 106.336 91.2215 106.019 91.5381L91.6018 105.955C91.2852 106.272 90.7876 106.317 90.4194 106.062L82.2528 100.412C78.6703 102.463 74.8431 104.054 70.862 105.146L69.0899 114.905C69.0099 115.346 68.6261 115.666 68.1782 115.666H47.8853C47.4365 115.666 47.0522 115.344 46.9731 114.903L45.2273 105.146C41.2367 104.059 37.4006 102.468 33.8114 100.413L25.6724 106.061C25.3045 106.317 24.8065 106.272 24.4895 105.956L10.0451 91.5387C9.72886 91.2231 9.68287 90.7268 9.93566 90.3585L15.6152 82.0833C13.5552 78.5009 11.9559 74.6726 10.8553 70.6894L1.12167 68.9173C0.681172 68.8371 0.361023 68.4534 0.361023 68.0057V47.7127C0.361023 47.2641 0.682419 46.8799 1.124 46.8007L10.8554 45.0547C11.9556 41.065 13.5541 37.2298 15.6132 33.6398L9.93952 25.5015C9.68276 25.1332 9.72697 24.6338 10.0444 24.3163L24.4889 9.87189C24.8063 9.55442 25.3057 9.51021 25.674 9.76698L33.8117 15.4403C37.3981 13.3782 41.2318 11.7799 45.2209 10.6839L46.8628 0.960808ZM48.5597 2.04172L46.9492 11.5791C46.8885 11.9385 46.6227 12.229 46.27 12.3212C42.0462 13.4261 37.9969 15.1141 34.2389 17.3364C33.9265 17.5212 33.535 17.5065 33.2373 17.299L25.2507 11.731L11.9035 25.0781L17.4715 33.0648C17.6788 33.3622 17.6937 33.7532 17.5095 34.0654C15.2914 37.8264 13.6035 41.8756 12.4935 46.0985C12.4018 46.4474 12.116 46.7113 11.761 46.775L2.21426 48.4879V67.2325L11.7633 68.971C12.1172 69.0354 12.4018 69.2988 12.4934 69.6466C13.6033 73.8607 15.2912 77.9009 17.509 81.6521C17.6925 81.9624 17.6793 82.3509 17.4754 82.648L11.8999 90.7716L25.2512 104.098L33.2389 98.5543C33.536 98.3481 33.9259 98.3336 34.2375 98.5171C37.9964 100.731 42.0456 102.41 46.2682 103.505C46.6185 103.596 46.8839 103.883 46.9476 104.239L48.6608 113.813H67.4047L69.1435 104.237C69.2079 103.882 69.4721 103.597 69.8209 103.506C74.0337 102.405 78.0738 100.726 81.8261 98.517C82.1373 98.3339 82.5265 98.3481 82.8234 98.5535L90.838 104.098L104.162 90.7743L98.6173 82.7597C98.4118 82.4627 98.3976 82.0735 98.5808 81.7624C100.79 78.0101 102.469 73.97 103.57 69.7572C103.66 69.4111 103.942 69.1479 104.293 69.0811L113.985 67.2386V48.3794L104.412 46.6663C104.056 46.6026 103.769 46.3377 103.678 45.9879C102.578 41.7662 100.899 37.717 98.6891 33.9552C98.5062 33.6437 98.5209 33.2543 98.7268 32.9576L104.27 24.9699L90.9521 11.6265L82.9402 17.2953C82.6421 17.5062 82.2478 17.5223 81.9334 17.3365C78.1822 15.1186 74.1421 13.4308 69.928 12.3208C69.5835 12.2301 69.3215 11.9499 69.2541 11.6L67.413 2.04172H48.5597ZM69.9307 29.4351C64.2916 27.1049 58.0885 26.498 52.1046 27.6909C46.1208 28.8838 40.6246 31.8231 36.3101 36.1376C31.9957 40.4521 29.0564 45.9482 27.8635 51.9321C26.6705 57.9159 27.2775 64.119 29.6076 69.7582C31.9378 75.3973 35.8866 80.2195 40.9556 83.6159C46.0245 87.0123 51.9861 88.8305 58.0877 88.8409L58.0885 88.8409C62.1526 88.8514 66.1786 88.0586 69.9353 86.5082C73.692 84.9578 77.1053 82.6803 79.9791 79.8065C82.8528 76.9328 85.1303 73.5195 86.6807 69.7628C88.2312 66.0061 89.0239 61.98 89.0135 57.916L89.0135 57.9152C89.003 51.8136 87.1848 45.8519 83.7884 40.783C80.3921 35.7141 75.5698 31.7652 69.9307 29.4351ZM51.7423 25.8734C58.0853 24.6089 64.6608 25.2523 70.6385 27.7223C76.6161 30.1923 81.7278 34.3782 85.328 39.7514C88.9281 45.1244 90.8555 51.4436 90.8667 57.9112C90.8778 62.2194 90.0374 66.4874 88.3938 70.4698C86.7502 74.4522 84.3359 78.0706 81.2895 81.117C78.2431 84.1633 74.6247 86.5777 70.6423 88.2213C66.6599 89.8649 62.392 90.7052 58.0838 90.6942C51.6162 90.6829 45.297 88.7556 39.924 85.1555C34.5508 81.5552 30.3649 76.4436 27.8948 70.4659C25.4248 64.4883 24.7815 57.9128 26.046 51.5697C27.3105 45.2267 30.4262 39.4006 34.9997 34.8272C39.5732 30.2537 45.3993 27.138 51.7423 25.8734Z" fill="#111111"/>
<path d="M80.5553 78.2879C80.5499 80.8531 79.7843 83.3591 78.3553 85.4893C76.9262 87.6195 74.8979 89.2784 72.5264 90.2563C70.155 91.2342 67.5469 91.4873 65.0317 90.9836C62.5165 90.4798 60.207 89.2419 58.3951 87.4262C56.5832 85.6104 55.3501 83.2984 54.8516 80.7821C54.3531 78.2659 54.6117 75.6583 55.5946 73.2889C56.5774 70.9195 58.2405 68.8946 60.3738 67.4701C62.507 66.0455 65.0146 65.2852 67.5797 65.2852C69.2824 65.2816 70.9691 65.6139 72.5432 66.263C74.1173 66.9121 75.5479 67.8653 76.7532 69.068C77.9584 70.2707 78.9146 71.6994 79.567 73.2721C80.2194 74.8448 80.5553 76.5308 80.5553 78.2335" fill="white"/>
<path fill-rule="evenodd" clip-rule="evenodd" d="M62.9617 67.1738C56.8138 69.7203 53.8943 76.7686 56.4409 82.9164C58.9874 89.0643 66.0356 91.9838 72.1835 89.4372C78.3314 86.8907 81.2508 79.8425 78.7043 73.6946C76.1578 67.5467 69.1096 64.6273 62.9617 67.1738ZM54.7287 83.6256C51.7905 76.5321 55.159 68.3998 62.2525 65.4616C69.346 62.5234 77.4783 65.8919 80.4165 72.9854C83.3547 80.0789 79.9862 88.2112 72.8927 91.1494C65.7992 94.0876 57.6669 90.7191 54.7287 83.6256Z" fill="#111111"/>
<path d="M98.4 118.602H36.7595C35.0269 118.602 33.3114 118.261 31.7107 117.598C30.11 116.935 28.6556 115.963 27.4305 114.738C26.2054 113.513 25.2336 112.058 24.5706 110.458C23.9076 108.857 23.5663 107.141 23.5663 105.409V96.9216C23.5663 95.1891 23.9076 93.4735 24.5706 91.8728C25.2336 90.2722 26.2054 88.8177 27.4305 87.5927C28.6556 86.3676 30.11 85.3958 31.7107 84.7327C33.3114 84.0697 35.0269 83.7285 36.7595 83.7285H98.4C100.142 83.7141 101.869 84.0448 103.482 84.7013C105.095 85.3579 106.563 86.3274 107.799 87.554C109.036 88.7805 110.018 90.2398 110.687 91.8476C111.357 93.4553 111.702 95.1799 111.702 96.9216V105.409C111.702 107.141 111.361 108.857 110.698 110.458C110.035 112.058 109.063 113.513 107.838 114.738C106.613 115.963 105.158 116.935 103.558 117.598C101.957 118.261 100.241 118.602 98.5088 118.602" fill="white"/>
<path fill-rule="evenodd" clip-rule="evenodd" d="M36.7595 84.655C29.9849 84.655 24.493 90.1469 24.493 96.9215V105.409C24.493 112.183 29.9849 117.675 36.7595 117.675H98.4C105.175 117.675 110.667 112.183 110.667 105.409V96.9215C110.667 90.1469 105.175 84.655 98.4 84.655H36.7595ZM22.6398 96.9215C22.6398 89.1234 28.9614 82.8018 36.7595 82.8018H98.4C106.198 82.8018 112.52 89.1234 112.52 96.9215V105.409C112.52 113.207 106.198 119.528 98.4 119.528H36.7595C28.9614 119.528 22.6398 113.207 22.6398 105.409V96.9215Z" fill="#111111"/>
<path d="M111.321 93.9297V108.374C111.328 111.075 110.264 113.668 108.362 115.586C106.46 117.503 103.875 118.588 101.175 118.602H34.0665C31.3658 118.588 28.781 117.503 26.8789 115.586C24.9769 113.668 23.9128 111.075 23.92 108.374V93.9297" fill="#9099B6"/>
<path d="M111.321 93.9297V108.374C111.328 111.075 110.264 113.668 108.362 115.586C106.46 117.503 103.875 118.588 101.175 118.602H34.0665C31.3658 118.588 28.781 117.503 26.8789 115.586C24.9769 113.668 23.9128 111.075 23.92 108.374V93.9297" stroke="#111111" stroke-width="2" stroke-linecap="round" stroke-linejoin="round"/>
<path d="M99.7057 73.7183H35.481V128.585H99.7057V73.7183Z" fill="white"/>
<path fill-rule="evenodd" clip-rule="evenodd" d="M34.5544 73.7181C34.5544 73.2064 34.9692 72.7915 35.481 72.7915H99.7057C100.217 72.7915 100.632 73.2064 100.632 73.7181V128.585C100.632 129.097 100.217 129.512 99.7057 129.512H35.481C34.9692 129.512 34.5544 129.097 34.5544 128.585V73.7181ZM36.4076 74.6447V127.659H98.7791V74.6447H36.4076Z" fill="#111111"/>
<path d="M99.7057 80.9541V128.585H35.481V80.9541" fill="#D6D9E7"/>
<path d="M99.7057 80.9541V128.585H35.481V80.9541" stroke="#111111" stroke-width="2" stroke-linecap="round" stroke-linejoin="round"/>
<path d="M67.5797 65.2853V58.1039V65.2853ZM74.3803 56.8254H60.7791C59.5383 56.8254 58.3482 56.3324 57.4707 55.455C56.5933 54.5775 56.1003 53.3875 56.1003 52.1466C56.1003 50.9057 56.5933 49.7156 57.4707 48.8382C58.3482 47.9607 59.5383 47.4678 60.7791 47.4678H74.3803C75.6212 47.4678 76.8113 47.9607 77.6887 48.8382C78.5662 49.7156 79.0591 50.9057 79.0591 52.1466C79.0591 53.3875 78.5662 54.5775 77.6887 55.455C76.8113 56.3324 75.6212 56.8254 74.3803 56.8254Z" fill="#6099FF"/>
<path fill-rule="evenodd" clip-rule="evenodd" d="M60.7792 48.3947C59.7841 48.3947 58.8297 48.7901 58.126 49.4937C57.4223 50.1974 57.027 51.1518 57.027 52.1469C57.027 53.1421 57.4223 54.0964 58.126 54.8001C58.8297 55.5038 59.7841 55.8991 60.7792 55.8991H74.3804C75.3755 55.8991 76.3299 55.5038 77.0336 54.8001C77.7372 54.0964 78.1325 53.1421 78.1325 52.1469C78.1325 51.1518 77.7372 50.1974 77.0336 49.4937C76.3299 48.7901 75.3755 48.3947 74.3804 48.3947H60.7792ZM56.8156 48.1833C57.8668 47.1321 59.2925 46.5415 60.7792 46.5415H74.3804C75.867 46.5415 77.2928 47.1321 78.344 48.1833C79.3952 49.2345 79.9858 50.6603 79.9858 52.1469C79.9858 53.6336 79.3952 55.0593 78.344 56.1106C77.2928 57.1618 75.867 57.7523 74.3804 57.7523H68.4372C68.4818 57.8608 68.5064 57.9797 68.5064 58.1042V65.2857C68.5064 65.7974 68.0915 66.2123 67.5798 66.2123C67.068 66.2123 66.6532 65.7974 66.6532 65.2857V58.1042C66.6532 57.9797 66.6777 57.8608 66.7223 57.7523H60.7792C59.2925 57.7523 57.8668 57.1618 56.8156 56.1106C55.7643 55.0593 55.1738 53.6336 55.1738 52.1469C55.1738 50.6603 55.7643 49.2345 56.8156 48.1833Z" fill="#111111"/>
<path d="M60.616 97.5201C60.6106 96.908 60.4242 96.3111 60.0802 95.8048C59.7362 95.2984 59.25 94.9052 58.6829 94.6746C58.1158 94.4441 57.4931 94.3865 56.8934 94.5092C56.2937 94.6319 55.7436 94.9294 55.3127 95.3642C54.8817 95.7989 54.589 96.3515 54.4716 96.9523C54.3541 97.5531 54.4171 98.1752 54.6526 98.7403C54.8881 99.3053 55.2855 99.7881 55.7949 100.128C56.3043 100.467 56.9027 100.648 57.5149 100.648C58.3373 100.648 59.1261 100.322 59.7077 99.7401C60.2892 99.1586 60.616 98.3698 60.616 97.5474" fill="#111111"/>
<path d="M80.7729 97.5201C80.7675 96.908 80.5811 96.3111 80.2371 95.8048C79.8931 95.2984 79.4069 94.9052 78.8398 94.6746C78.2727 94.4441 77.6501 94.3865 77.0503 94.5092C76.4506 94.6319 75.9006 94.9294 75.4696 95.3642C75.0386 95.7989 74.746 96.3515 74.6285 96.9523C74.511 97.5531 74.574 98.1752 74.8095 98.7403C75.045 99.3053 75.4425 99.7881 75.9518 100.128C76.4612 100.467 77.0596 100.648 77.6718 100.648C78.4943 100.648 79.283 100.322 79.8646 99.7401C80.4462 99.1586 80.7729 98.3698 80.7729 97.5474" fill="#111111"/>
<path d="M70.3544 114.957H64.9139C62.4657 114.957 60.1173 113.986 58.3836 112.258C56.6499 110.529 55.6723 108.184 55.6651 105.735H79.6032C79.596 108.184 78.6184 110.529 76.8847 112.258C75.1509 113.986 72.8026 114.957 70.3544 114.957Z" fill="white"/>
<path fill-rule="evenodd" clip-rule="evenodd" d="M55.009 105.081C55.1828 104.907 55.4189 104.809 55.6651 104.809H79.6032C79.8494 104.809 80.0855 104.907 80.2594 105.081C80.4332 105.255 80.5305 105.492 80.5298 105.738C80.5219 108.431 79.4464 111.012 77.5389 112.914C75.6315 114.816 73.0479 115.883 70.3544 115.883H64.9139C62.2204 115.883 59.6368 114.816 57.7294 112.914C55.822 111.012 54.7465 108.431 54.7385 105.738C54.7378 105.492 54.8351 105.255 55.009 105.081ZM56.6465 106.662C56.8611 108.522 57.6989 110.266 59.0379 111.601C60.5979 113.157 62.711 114.03 64.9139 114.03H70.3544C72.5574 114.03 74.6704 113.157 76.2304 111.601C77.5695 110.266 78.4072 108.522 78.6218 106.662H56.6465Z" fill="#111111"/>
<path d="M48.6741 105.735C48.6741 105.063 48.4747 104.405 48.1011 103.846C47.7274 103.287 47.1964 102.851 46.5751 102.594C45.9537 102.336 45.2701 102.269 44.6105 102.4C43.9509 102.532 43.345 102.855 42.8695 103.331C42.3939 103.806 42.0701 104.412 41.9389 105.072C41.8077 105.731 41.875 106.415 42.1324 107.036C42.3897 107.658 42.8256 108.189 43.3847 108.562C43.9439 108.936 44.6013 109.136 45.2738 109.136C46.1756 109.136 47.0405 108.777 47.6782 108.14C48.3159 107.502 48.6741 106.637 48.6741 105.735Z" fill="white"/>
<path d="M93.3132 105.735C93.3131 105.061 93.113 104.403 92.7382 103.843C92.3633 103.283 91.8306 102.848 91.2077 102.591C90.5848 102.335 89.8998 102.269 89.2394 102.402C88.5791 102.536 87.9733 102.862 87.4989 103.341C87.0244 103.819 86.7027 104.427 86.5746 105.089C86.4465 105.75 86.5177 106.435 86.7793 107.055C87.0408 107.676 87.4809 108.205 88.0436 108.576C88.6064 108.946 89.2664 109.141 89.9401 109.135C90.8419 109.135 91.7068 108.777 92.3444 108.14C92.9821 107.502 93.3404 106.637 93.3404 105.735" fill="white"/>
</g>
<defs>
<clipPath id="clip0_2418_107513">
<rect width="115.828" height="130" fill="white" transform="translate(0.172363)"/>
</clipPath>
</defs>
</svg>
