<svg width="158" height="136" viewBox="0 0 158 136" fill="none" xmlns="http://www.w3.org/2000/svg">
<g clip-path="url(#clip0_2418_107265)">
<path fill-rule="evenodd" clip-rule="evenodd" d="M104.143 19.9082C104.83 19.9082 105.387 20.4654 105.387 21.1527V25.024H109.235C109.922 25.024 110.479 25.5812 110.479 26.2685C110.479 26.9558 109.922 27.513 109.235 27.513H105.387V31.3359C105.387 32.0232 104.83 32.5804 104.143 32.5804C103.456 32.5804 102.898 32.0232 102.898 31.3359V27.513H99.0271C98.3398 27.513 97.7827 26.9558 97.7827 26.2685C97.7827 25.5812 98.3398 25.024 99.0271 25.024H102.898V21.1527C102.898 20.4654 103.456 19.9082 104.143 19.9082ZM18.1435 84.6442C18.8308 84.6442 19.388 85.2014 19.388 85.8887V89.7358H23.2594C23.9467 89.7358 24.5038 90.293 24.5038 90.9803C24.5038 91.6676 23.9467 92.2248 23.2594 92.2248H19.388V96.0961C19.388 96.7834 18.8308 97.3406 18.1435 97.3406C17.4562 97.3406 16.899 96.7834 16.899 96.0961V92.2248H13.0277C12.3404 92.2248 11.7832 91.6676 11.7832 90.9803C11.7832 90.293 12.3404 89.7358 13.0277 89.7358H16.899V85.8887C16.899 85.2014 17.4562 84.6442 18.1435 84.6442Z" fill="#6099FF"/>
<path d="M38.9695 56.1868C39.0185 55.776 39.0185 55.3609 38.9695 54.9502C38.9735 53.8402 38.6786 52.7495 38.1158 51.7928C37.5529 50.836 36.7429 50.0484 35.7706 49.5127C34.7984 48.977 33.6999 48.7129 32.5904 48.7482C31.4809 48.7834 30.4014 49.1168 29.4652 49.7132C28.3694 47.5049 26.5597 45.7316 24.3295 44.6812C22.0994 43.6307 19.5797 43.3646 17.1793 43.9261C14.7789 44.4876 12.6387 45.8437 11.1059 47.7744C9.57307 49.7051 8.73763 52.0971 8.73511 54.5623C8.69811 55.087 8.69811 55.6136 8.73511 56.1383C6.92284 56.3458 5.26062 57.2449 4.09499 58.648C2.92936 60.0511 2.35027 61.8499 2.47845 63.6695C2.60664 65.4891 3.4322 67.1891 4.78304 68.4149C6.13387 69.6407 7.90571 70.2978 9.72918 70.2493H37.3693C39.1229 70.2318 40.808 69.5663 42.1004 68.3809C43.3928 67.1955 44.201 65.5739 44.3696 63.8284C44.5381 62.0828 44.055 60.3366 43.0133 58.9258C41.9716 57.515 40.4449 56.5394 38.727 56.1868" fill="white"/>
<path fill-rule="evenodd" clip-rule="evenodd" d="M16.8962 42.7147C19.5698 42.0893 22.3762 42.3856 24.8602 43.5557C26.9616 44.5455 28.7279 46.1115 29.9611 48.0596C30.781 47.7223 31.658 47.5331 32.5512 47.5047C33.884 47.4623 35.2037 47.7795 36.3716 48.4231C37.5395 49.0666 38.5126 50.0127 39.1888 51.1621C39.8521 52.2897 40.2056 53.5721 40.2142 54.8794C40.2305 55.031 40.2414 55.1831 40.2469 55.3353C41.7426 55.8999 43.0542 56.8859 44.0148 58.1869C45.239 59.8448 45.8067 61.8969 45.6086 63.9483C45.4106 65.9997 44.4607 67.9053 42.942 69.2983C41.4232 70.6914 39.4428 71.4735 37.382 71.494L37.3696 71.4941V71.4941H9.74541C7.60749 71.5466 5.5311 70.7742 3.94708 69.3368C2.35879 67.8955 1.38811 65.8968 1.23739 63.7573C1.08667 61.6179 1.76755 59.5028 3.13808 57.8531C4.26254 56.4995 5.78003 55.545 7.46553 55.111C7.46934 54.9133 7.47786 54.7156 7.49109 54.5182C7.50357 51.7877 8.43326 49.1401 10.1316 47.001C11.8388 44.8505 14.2226 43.3401 16.8962 42.7147ZM37.7588 55.4056C37.6116 55.5877 37.5145 55.8129 37.4893 56.0613C37.4247 56.6967 37.8516 57.2777 38.4771 57.4062C39.894 57.697 41.1533 58.5017 42.0125 59.6654C42.8717 60.829 43.2702 62.2693 43.1312 63.7091C42.9922 65.1489 42.3255 66.4864 41.2595 67.4641C40.195 68.4405 38.8074 68.9893 37.3631 69.0051H9.72953C9.71848 69.0051 9.70744 69.0053 9.69639 69.0056C8.19346 69.0456 6.73307 68.504 5.61969 67.4936C4.5063 66.4833 3.82586 65.0822 3.7202 63.5824C3.61455 62.0827 4.09185 60.6 5.05258 59.4436C6.01332 58.2871 7.38336 57.5461 8.87706 57.375C9.53893 57.2992 10.0237 56.7156 9.97685 56.0511C9.94396 55.5847 9.94396 55.1166 9.97685 54.6502C9.97888 54.6215 9.97991 54.5927 9.97994 54.5639C9.98217 52.3793 10.7225 50.2595 12.0809 48.5486C13.4392 46.8376 15.3359 45.6358 17.4631 45.1382C19.5903 44.6406 21.8232 44.8764 23.7996 45.8073C25.7759 46.7383 27.3797 48.3097 28.3507 50.2667C28.5077 50.583 28.7916 50.8177 29.1318 50.9124C29.4719 51.0071 29.8363 50.9528 30.1341 50.7631C30.8819 50.2868 31.7441 50.0205 32.6303 49.9924C33.5165 49.9642 34.3939 50.1751 35.1704 50.603C35.9469 51.0309 36.5939 51.6599 37.0435 52.4241C37.4931 53.1883 37.7286 54.0594 37.7254 54.946C37.7252 54.9969 37.7281 55.0477 37.7341 55.0982C37.7463 55.2004 37.7546 55.3029 37.7588 55.4056Z" fill="#111111"/>
<path d="M136.122 67.6304L55.8691 22L56.4753 114.303L136.122 67.6304Z" fill="#6099FF"/>
<path fill-rule="evenodd" clip-rule="evenodd" d="M55.2402 20.9267C55.6237 20.7019 56.0981 20.6987 56.4846 20.9185L136.738 66.5489C137.124 66.7687 137.364 67.178 137.367 67.6226C137.37 68.0672 137.136 68.4796 136.752 68.7044L57.1048 115.377C56.7212 115.602 56.2469 115.605 55.8604 115.385C55.474 115.166 55.2341 114.756 55.2312 114.312L54.625 22.0085C54.6221 21.5639 54.8566 21.1515 55.2402 20.9267ZM57.1281 24.1475L57.7059 112.14L133.633 67.647L57.1281 24.1475Z" fill="#111111"/>
<path d="M49.6627 16.3517C51.3549 13.0398 54.0283 10.331 57.3176 8.59518C60.6069 6.8594 64.3518 6.18129 68.0409 6.65346C66.6357 5.18911 64.997 3.9683 63.1918 3.04086C61.069 1.8237 58.7204 1.0518 56.2894 0.772241C53.8584 0.492686 51.3959 0.71134 49.0521 1.41486C46.7084 2.11839 44.5326 3.29203 42.6574 4.86419C40.7823 6.43635 39.247 8.37407 38.1454 10.5591C37.0438 12.7442 36.399 15.1308 36.2501 17.5733C36.1013 20.0158 36.4517 22.463 37.2798 24.7656C38.108 27.0682 39.3966 29.178 41.0671 30.9662C42.7375 32.7544 44.7547 34.1835 46.9957 35.1664C48.8213 36.0766 50.7895 36.6671 52.8147 36.9121C50.2311 34.2296 48.5412 30.8132 47.9768 27.132C47.4125 23.4507 48.0014 19.685 49.6627 16.3517Z" fill="white"/>
<path d="M71.1685 27.1163C72.8365 23.7863 73.4313 20.0212 72.8712 16.3392C72.3111 12.6572 70.6236 9.23927 68.0408 6.55592C64.3415 6.07895 60.5854 6.7636 57.2923 8.51513C53.9992 10.2667 51.3319 12.9985 49.6596 16.3325C47.9873 19.6665 47.3926 23.4379 47.9578 27.1247C48.523 30.8116 50.2202 34.2316 52.8145 36.9115C56.5009 37.3892 60.2448 36.7133 63.5314 34.9767C66.818 33.24 69.486 30.5279 71.1685 27.2132" fill="#EBECF4"/>
<path fill-rule="evenodd" clip-rule="evenodd" d="M48.9739 0.807184C52.5847 -0.391579 56.4696 -0.494057 60.1385 0.512679C63.8074 1.51941 67.0959 3.59026 69.5892 6.46394C72.0825 9.33762 73.6687 12.8854 74.1479 16.6596C74.6271 20.4337 73.9777 24.2651 72.2818 27.6705C71.1529 29.9447 69.5849 31.9728 67.6683 33.638C65.7514 35.3034 63.5237 36.5728 61.1137 37.3729C58.7038 38.173 56.1592 38.488 53.6269 38.2997C51.0948 38.1114 48.6251 37.4237 46.3602 36.2763C42.9644 34.5613 40.1527 31.8791 38.2795 28.5679C36.4063 25.2565 35.5557 21.4645 35.8353 17.6702C36.1148 13.876 37.5118 10.2495 39.8501 7.24841C42.1884 4.24729 45.3632 2.00595 48.9739 0.807184ZM59.4799 2.91292C56.2851 2.03629 52.9023 2.12553 49.7582 3.16937C46.6141 4.21321 43.8496 6.16488 41.8135 8.77816C39.7774 11.3914 38.5609 14.5492 38.3175 17.8531C38.0741 21.157 38.8147 24.459 40.4459 27.3424C42.0771 30.2258 44.5257 32.5616 47.4829 34.0549L47.4844 34.0556C49.4564 35.0548 51.6068 35.6537 53.8114 35.8176C56.0161 35.9815 58.2314 35.7073 60.3295 35.0107C62.4276 34.3141 64.3671 33.209 66.0359 31.7591C67.7048 30.3091 69.07 28.5431 70.0529 26.5629L70.0536 26.5614C71.5305 23.596 72.096 20.2595 71.6788 16.9731C71.2615 13.6866 69.8802 10.5974 67.7092 8.09506C65.5382 5.59277 62.6746 3.78955 59.4799 2.91292Z" fill="#111111"/>
<path d="M45.2982 112.898C46.9835 109.586 49.652 106.876 52.9379 105.14C56.2237 103.403 59.9662 102.726 63.6522 103.2C61.6646 101.095 59.1989 99.4997 56.4639 98.5499C53.7289 97.6 50.8053 97.3233 47.9407 97.7432C45.0761 98.1632 42.3549 99.2674 40.0076 100.962C37.6603 102.657 35.7562 104.893 34.4564 107.48C33.1567 110.067 32.4996 112.929 32.5409 115.824C32.5822 118.719 33.3206 121.562 34.6937 124.11C36.0667 126.659 38.0339 128.84 40.4285 130.467C42.8232 132.094 45.5748 133.121 48.4502 133.459C45.8666 130.776 44.1767 127.36 43.6123 123.678C43.048 119.997 43.6369 116.231 45.2982 112.898Z" fill="white"/>
<path d="M66.8038 123.664C68.4722 120.332 69.065 116.565 68.5004 112.882C67.9358 109.199 66.2416 105.782 63.6518 103.103C59.9546 102.632 56.2023 103.321 52.9136 105.075C49.6249 106.829 46.9621 109.561 45.2931 112.894C43.6242 116.226 43.0315 119.995 43.5969 123.679C44.1624 127.363 45.8581 130.78 48.4498 133.459C52.1358 133.933 55.8783 133.255 59.1641 131.519C62.45 129.783 65.1185 127.073 66.8038 123.76" fill="#EBECF4"/>
<path fill-rule="evenodd" clip-rule="evenodd" d="M44.6107 97.3541C48.2214 96.1553 52.1063 96.0528 55.7752 97.0596C59.4441 98.0663 62.7326 100.137 65.2259 103.011C67.7192 105.884 69.3055 109.432 69.7846 113.206C70.2638 116.981 69.6144 120.812 67.9185 124.217C66.7896 126.492 65.2216 128.52 63.305 130.185C61.3881 131.85 59.1604 133.12 56.7505 133.92C54.3405 134.72 51.7959 135.035 49.2636 134.847C46.7316 134.658 44.2619 133.971 41.9969 132.823C38.6012 131.108 35.7894 128.426 33.9163 125.115C32.043 121.803 31.1925 118.011 31.472 114.217C31.7515 110.423 33.1485 106.796 35.4868 103.795C37.8251 100.794 40.9999 98.5528 44.6107 97.3541ZM55.1166 99.4598C51.9218 98.5832 48.539 98.6724 45.3949 99.7162C42.2508 100.76 39.4863 102.712 37.4502 105.325C35.4141 107.938 34.1976 111.096 33.9542 114.4C33.7108 117.704 34.4514 121.006 36.0826 123.889C37.7138 126.773 40.1624 129.108 43.1196 130.602L43.1211 130.603C45.0931 131.602 47.2435 132.201 49.4482 132.364C51.6528 132.528 53.8681 132.254 55.9662 131.558C58.0643 130.861 60.0038 129.756 61.6726 128.306C63.3415 126.856 64.7067 125.09 65.6896 123.11L65.6903 123.108C67.1672 120.143 67.7327 116.806 67.3155 113.52C66.8982 110.233 65.517 107.144 63.3459 104.642C61.1749 102.14 58.3113 100.336 55.1166 99.4598Z" fill="#111111"/>
<path d="M132.582 69.1335C134.27 65.8235 136.939 63.1155 140.224 61.3797C143.509 59.6438 147.25 58.9647 150.936 59.4352C149.116 57.5429 146.904 56.0712 144.456 55.1233C142.008 54.1754 139.382 53.7741 136.762 53.9476C134.142 54.121 131.592 54.8651 129.29 56.1276C126.988 57.39 124.989 59.1405 123.435 61.2563C121.88 63.3721 120.807 65.8021 120.29 68.3763C119.773 70.9504 119.825 73.6064 120.443 76.1583C121.06 78.7103 122.227 81.0964 123.864 83.1497C125.5 85.203 127.565 86.8738 129.915 88.0451C131.739 88.9585 133.708 89.5491 135.734 89.7908C133.127 87.1024 131.422 83.6682 130.857 79.9659C130.292 76.2635 130.895 72.4772 132.582 69.1335Z" fill="white"/>
<path d="M154.088 79.8263C155.756 76.4948 156.349 72.7274 155.785 69.0445C155.22 65.3615 153.526 61.9448 150.936 59.266C147.224 58.7761 143.452 59.4565 140.145 61.2124C136.838 62.9682 134.162 65.712 132.489 69.0613C130.815 72.4106 130.229 76.1985 130.81 79.897C131.392 83.5956 133.113 87.0205 135.734 89.6943C139.42 90.1721 143.164 89.4961 146.451 87.7595C149.737 86.0228 152.405 83.3107 154.088 79.9961" fill="#EBECF4"/>
<path fill-rule="evenodd" clip-rule="evenodd" d="M131.894 53.5181C135.505 52.3194 139.389 52.2169 143.058 53.2236C146.727 54.2304 150.016 56.3012 152.509 59.1749C155.002 62.0486 156.589 65.5963 157.068 69.3705C157.547 73.1446 156.898 76.9761 155.202 80.3815C154.073 82.6556 152.505 84.6837 150.588 86.3489C148.671 88.0143 146.444 89.2837 144.034 90.0838C141.624 90.8839 139.079 91.1989 136.547 91.0106C134.015 90.8224 131.545 90.1347 129.28 88.9872C125.884 87.2722 123.073 84.59 121.199 81.2788C119.326 77.9675 118.476 74.1754 118.755 70.3812C119.035 66.5869 120.432 62.9605 122.77 59.9594C125.108 56.9582 128.283 54.7169 131.894 53.5181ZM142.4 55.6239C139.205 54.7472 135.822 54.8365 132.678 55.8803C129.534 56.9241 126.77 58.8758 124.733 61.4891C122.697 64.1024 121.481 67.2602 121.237 70.564C120.994 73.8679 121.735 77.1699 123.366 80.0533C124.997 82.9368 127.446 85.2725 130.403 86.7658L130.404 86.7666C132.376 87.7658 134.527 88.3646 136.731 88.5285C138.936 88.6924 141.151 88.4182 143.249 87.7216C145.348 87.025 147.287 85.9199 148.956 84.47C150.625 83.0201 151.99 81.2541 152.973 79.2738L152.974 79.2723C154.45 76.3069 155.016 72.9705 154.599 69.684C154.181 66.3976 152.8 63.3083 150.629 60.806C148.458 58.3037 145.595 56.5005 142.4 55.6239Z" fill="#111111"/>
<path d="M60.1811 23.8383C60.0309 23.8383 59.9041 23.8007 59.8008 23.7256C59.6975 23.6458 59.6411 23.5448 59.6318 23.4228C59.613 23.2443 59.5355 23.1035 59.3993 23.0002C59.2632 22.8922 59.0613 22.8382 58.7936 22.8382C58.2677 22.8382 57.9931 23.1105 57.9696 23.6552C57.9555 24.0167 57.9485 24.3665 57.9485 24.7046C57.9531 25.038 57.9602 25.3737 57.9696 25.7118C57.979 25.9888 58.0518 26.1907 58.1879 26.3175C58.3241 26.4443 58.526 26.5076 58.7936 26.5076C59.0707 26.5076 59.2702 26.4536 59.3923 26.3457C59.5191 26.2377 59.5942 26.071 59.6177 25.8456C59.6271 25.7282 59.6881 25.6296 59.8008 25.5498C59.9135 25.47 60.0379 25.4301 60.1741 25.4301C60.5403 25.4301 60.7234 25.6155 60.7234 25.9865C60.7234 26.179 60.6765 26.3597 60.5826 26.5288C60.4934 26.6978 60.3642 26.8457 60.1952 26.9725C60.0262 27.0993 59.8219 27.1979 59.5825 27.2683C59.3477 27.3434 59.0847 27.381 58.7936 27.381C58.5166 27.381 58.2583 27.3505 58.0189 27.2894C57.7794 27.2331 57.5705 27.1368 57.392 27.0007C57.2136 26.8692 57.0704 26.6978 56.9624 26.4865C56.8591 26.2752 56.8028 26.017 56.7934 25.7118C56.7746 24.9934 56.7746 24.3008 56.7934 23.6341C56.8028 23.3382 56.8615 23.0847 56.9695 22.8734C57.0775 22.6621 57.2207 22.4907 57.3991 22.3593C57.5822 22.2231 57.7912 22.1245 58.0259 22.0634C58.2607 21.9977 58.5072 21.9648 58.7655 21.9648C59.0519 21.9648 59.3148 22.0001 59.5543 22.0705C59.7984 22.1409 60.0074 22.2372 60.1811 22.3593C60.3548 22.4766 60.4887 22.6175 60.5826 22.7818C60.6812 22.9415 60.7305 23.1129 60.7305 23.296C60.7305 23.6575 60.5474 23.8383 60.1811 23.8383Z" fill="black"/>
<path d="M55.5327 23.8383C55.3824 23.8383 55.2556 23.8007 55.1524 23.7256C55.0491 23.6458 54.9927 23.5448 54.9833 23.4228C54.9645 23.2443 54.8871 23.1035 54.7509 23.0002C54.6147 22.8922 54.4128 22.8382 54.1452 22.8382C53.6193 22.8382 53.3446 23.1105 53.3211 23.6552C53.3071 24.0167 53.3 24.3665 53.3 24.7046C53.3047 25.038 53.3118 25.3737 53.3211 25.7118C53.3305 25.9888 53.4033 26.1907 53.5395 26.3175C53.6756 26.4443 53.8775 26.5076 54.1452 26.5076C54.4222 26.5076 54.6218 26.4536 54.7439 26.3457C54.8706 26.2377 54.9458 26.071 54.9692 25.8456C54.9786 25.7282 55.0397 25.6296 55.1524 25.5498C55.265 25.47 55.3895 25.4301 55.5256 25.4301C55.8919 25.4301 56.075 25.6155 56.075 25.9865C56.075 26.179 56.028 26.3597 55.9341 26.5288C55.8449 26.6978 55.7158 26.8457 55.5468 26.9725C55.3777 27.0993 55.1735 27.1979 54.934 27.2683C54.6992 27.3434 54.4363 27.381 54.1452 27.381C53.8682 27.381 53.6099 27.3505 53.3704 27.2894C53.131 27.2331 52.922 27.1368 52.7436 27.0007C52.5652 26.8692 52.422 26.6978 52.314 26.4865C52.2107 26.2752 52.1543 26.017 52.1449 25.7118C52.1262 24.9934 52.1262 24.3008 52.1449 23.6341C52.1543 23.3382 52.213 23.0847 52.321 22.8734C52.429 22.6621 52.5722 22.4907 52.7507 22.3593C52.9338 22.2231 53.1427 22.1245 53.3775 22.0634C53.6123 21.9977 53.8588 21.9648 54.117 21.9648C54.4034 21.9648 54.6664 22.0001 54.9058 22.0705C55.15 22.1409 55.3589 22.2372 55.5327 22.3593C55.7064 22.4766 55.8402 22.6175 55.9341 22.7818C56.0327 22.9415 56.082 23.1129 56.082 23.296C56.082 23.6575 55.8989 23.8383 55.5327 23.8383Z" fill="black"/>
<path d="M49.9043 22.529C49.9043 22.3506 49.9677 22.2191 50.0945 22.1346C50.2259 22.0501 50.3715 22.0078 50.5311 22.0078C50.6063 22.0078 50.679 22.0196 50.7495 22.043C50.8246 22.0618 50.8903 22.0923 50.9467 22.1346C51.003 22.1768 51.0476 22.2308 51.0805 22.2966C51.1134 22.3623 51.1298 22.4398 51.1298 22.529V26.8042C51.1298 26.8981 51.1134 26.9779 51.0805 27.0436C51.0476 27.1141 51.003 27.1704 50.9467 27.2127C50.8903 27.2596 50.8246 27.2925 50.7495 27.3113C50.679 27.3347 50.6063 27.3465 50.5311 27.3465C50.4513 27.3465 50.3738 27.3347 50.2987 27.3113C50.2236 27.2925 50.1555 27.2596 50.0945 27.2127C50.0381 27.1704 49.9912 27.1141 49.9536 27.0436C49.9207 26.9779 49.9043 26.8981 49.9043 26.8042V22.529Z" fill="black"/>
<path d="M63.0143 16.683C63.1552 16.683 63.282 16.7253 63.3947 16.8098C63.512 16.8896 63.5754 17.0375 63.5848 17.2535H66.6908C66.7002 17.0328 66.7613 16.8826 66.8739 16.8027C66.9866 16.7229 67.1158 16.683 67.2613 16.683C67.3364 16.683 67.4045 16.6924 67.4656 16.7112C67.5313 16.73 67.5876 16.7628 67.6346 16.8098C67.6863 16.8567 67.7262 16.9201 67.7543 17C67.7825 17.0798 67.7966 17.1784 67.7966 17.2958V18.9509C67.7966 19.0213 67.7919 19.0847 67.7825 19.1411C67.7731 19.2021 67.7473 19.2537 67.705 19.296C67.6675 19.343 67.6111 19.3782 67.536 19.4016C67.4609 19.4298 67.3576 19.4439 67.2261 19.4439H63.0495C62.9181 19.4439 62.8148 19.4298 62.7396 19.4016C62.6645 19.3782 62.6058 19.343 62.5636 19.296C62.526 19.2537 62.5025 19.2021 62.4931 19.1411C62.4837 19.0847 62.479 19.0213 62.479 18.9509V17.2958C62.479 17.061 62.5307 16.9013 62.634 16.8168C62.7373 16.7276 62.8641 16.683 63.0143 16.683ZM62.1621 14.88C62.1621 14.5983 62.1926 14.3611 62.2537 14.1686C62.3194 13.9714 62.4157 13.8118 62.5424 13.6897C62.6739 13.5676 62.8382 13.4807 63.0355 13.4291C63.2374 13.3728 63.4768 13.3446 63.7538 13.3446C64.0262 13.3446 64.2633 13.3728 64.4652 13.4291C64.6671 13.4807 64.8314 13.5676 64.9582 13.6897C65.0897 13.8118 65.1859 13.9714 65.247 14.1686C65.3127 14.3611 65.3456 14.5983 65.3456 14.88C65.3456 15.1758 65.3127 15.4223 65.247 15.6195C65.1859 15.8167 65.0897 15.974 64.9582 16.0914C64.8314 16.2041 64.6671 16.2839 64.4652 16.3309C64.2633 16.3778 64.0262 16.4013 63.7538 16.4013C63.4768 16.4013 63.2374 16.3755 63.0355 16.3238C62.8382 16.2675 62.6739 16.1806 62.5424 16.0632C62.4157 15.9411 62.3194 15.7838 62.2537 15.5913C62.1926 15.3988 62.1621 15.1617 62.1621 14.88ZM66.6556 15.3237H66.1978C66.0663 15.3237 65.9607 15.312 65.8809 15.2885C65.801 15.2603 65.7377 15.2227 65.6907 15.1758C65.6484 15.1288 65.6203 15.0772 65.6062 15.0208C65.5921 14.9598 65.5851 14.8941 65.5851 14.8236C65.5851 14.7673 65.5921 14.7109 65.6062 14.6546C65.6203 14.5936 65.6484 14.5396 65.6907 14.4926C65.7377 14.4457 65.801 14.4081 65.8809 14.3799C65.9607 14.3517 66.0663 14.3377 66.1978 14.3377H66.6556V13.9292C66.6556 13.6944 66.712 13.5347 66.8246 13.4502C66.942 13.361 67.0758 13.3164 67.2261 13.3164C67.3012 13.3164 67.3717 13.3258 67.4374 13.3446C67.5078 13.3634 67.5689 13.3962 67.6205 13.4432C67.6722 13.4901 67.7144 13.5535 67.7473 13.6333C67.7802 13.7132 67.7966 13.8118 67.7966 13.9292V15.8238C67.7966 15.9458 67.7802 16.0468 67.7473 16.1266C67.7144 16.2064 67.6722 16.2698 67.6205 16.3168C67.5689 16.3637 67.5078 16.3966 67.4374 16.4154C67.3717 16.4342 67.3012 16.4435 67.2261 16.4435C67.151 16.4435 67.0782 16.4342 67.0078 16.4154C66.942 16.3966 66.881 16.3637 66.8246 16.3168C66.773 16.2698 66.7307 16.2064 66.6979 16.1266C66.6697 16.0468 66.6556 15.9458 66.6556 15.8238V15.3237ZM66.6908 18.155H63.5848V18.5424H66.6908V18.155ZM63.3101 14.88C63.3101 14.9974 63.3148 15.0936 63.3242 15.1687C63.3383 15.2439 63.3594 15.3049 63.3876 15.3519C63.4205 15.3941 63.4651 15.4246 63.5214 15.4434C63.5825 15.4622 63.6599 15.4716 63.7538 15.4716C63.8478 15.4716 63.9229 15.4622 63.9792 15.4434C64.0403 15.4246 64.0849 15.3941 64.113 15.3519C64.1459 15.3049 64.167 15.2439 64.1764 15.1687C64.1905 15.0936 64.1976 14.9974 64.1976 14.88C64.1976 14.7626 64.1905 14.6663 64.1764 14.5912C64.167 14.5161 64.1459 14.455 64.113 14.4081C64.0849 14.3611 64.0403 14.3283 63.9792 14.3095C63.9229 14.2907 63.8478 14.2813 63.7538 14.2813C63.6599 14.2813 63.5825 14.2907 63.5214 14.3095C63.4651 14.3283 63.4205 14.3611 63.3876 14.4081C63.3594 14.455 63.3383 14.5161 63.3242 14.5912C63.3148 14.6663 63.3101 14.7626 63.3101 14.88Z" fill="black"/>
<path d="M56.7508 18.4649H60.2794C60.4109 18.4649 60.5189 18.479 60.6034 18.5072C60.6879 18.5353 60.7536 18.5706 60.8006 18.6128C60.8476 18.6598 60.8781 18.7114 60.8922 18.7678C60.9109 18.8288 60.9203 18.8875 60.9203 18.9438C60.9203 19.0143 60.9109 19.0777 60.8922 19.134C60.8781 19.1951 60.8476 19.2467 60.8006 19.289C60.7536 19.3359 60.6879 19.3711 60.6034 19.3946C60.5189 19.4228 60.4109 19.4369 60.2794 19.4369H56.1803C56.0488 19.4369 55.9456 19.4228 55.8704 19.3946C55.7953 19.3711 55.7366 19.3359 55.6943 19.289C55.6568 19.2467 55.6333 19.1951 55.6239 19.134C55.6145 19.0777 55.6098 19.0143 55.6098 18.9438V17.7888C55.6098 17.554 55.6662 17.3944 55.7789 17.3098C55.8962 17.2206 56.0301 17.176 56.1803 17.176C56.2554 17.176 56.3259 17.1854 56.3916 17.2042C56.462 17.223 56.5231 17.2558 56.5747 17.3028C56.6264 17.3498 56.6686 17.4131 56.7015 17.493C56.7344 17.5728 56.7508 17.6714 56.7508 17.7888V18.4649ZM56.6029 13.9644C56.6029 13.847 56.6193 13.7484 56.6522 13.6686C56.6851 13.5887 56.7273 13.5254 56.779 13.4784C56.8353 13.4314 56.8987 13.3986 56.9691 13.3798C57.0396 13.361 57.1124 13.3516 57.1875 13.3516C57.2626 13.3516 57.3354 13.361 57.4058 13.3798C57.4763 13.3986 57.5373 13.4314 57.5889 13.4784C57.6453 13.5254 57.6899 13.5887 57.7228 13.6686C57.7556 13.7484 57.7721 13.847 57.7721 13.9644V14.225C57.7721 14.4034 57.7861 14.5607 57.8143 14.6969C57.8472 14.833 57.8988 14.9621 57.9693 15.0842C58.0397 15.2016 58.1336 15.3166 58.251 15.4293C58.3731 15.5373 58.5233 15.6547 58.7018 15.7815C58.852 15.8895 58.9506 16.0116 58.9976 16.1477C59.0492 16.2839 59.0281 16.4271 58.9342 16.5774C58.8825 16.6572 58.8191 16.7182 58.744 16.7605C58.6736 16.798 58.5961 16.8192 58.5116 16.8239C58.4599 16.8239 58.4059 16.8192 58.3496 16.8098C58.2933 16.7957 58.2393 16.7699 58.1876 16.7323C57.9763 16.5727 57.7932 16.4177 57.6382 16.2675C57.4833 16.1172 57.3471 15.967 57.2297 15.8167C57.1217 15.9764 56.9903 16.1336 56.8353 16.2886C56.6851 16.4388 56.5113 16.5844 56.3141 16.7253C56.2578 16.7675 56.1921 16.8004 56.1169 16.8239C56.0418 16.8427 55.9667 16.8544 55.8916 16.8591C55.8117 16.8638 55.7296 16.8497 55.645 16.8168C55.5605 16.784 55.4901 16.7206 55.4338 16.6267C55.3398 16.4764 55.3164 16.3332 55.3633 16.197C55.415 16.0609 55.5159 15.9388 55.6662 15.8308C55.8446 15.704 55.9925 15.5843 56.1099 15.4716C56.2273 15.3542 56.3212 15.2345 56.3916 15.1124C56.462 14.9856 56.5137 14.8518 56.5466 14.7109C56.5794 14.5654 56.5982 14.4034 56.6029 14.225V13.9644ZM59.5892 13.9292C59.5892 13.6944 59.6455 13.5347 59.7582 13.4502C59.8756 13.361 60.0094 13.3164 60.1597 13.3164C60.2348 13.3164 60.3052 13.3258 60.371 13.3446C60.4414 13.3634 60.5024 13.3962 60.5541 13.4432C60.6057 13.4901 60.648 13.5535 60.6809 13.6333C60.7137 13.7132 60.7302 13.8118 60.7302 13.9292V14.7743H61.2443C61.3758 14.7743 61.4838 14.7908 61.5683 14.8236C61.6528 14.8518 61.7185 14.8894 61.7655 14.9363C61.8125 14.9833 61.843 15.0373 61.8571 15.0983C61.8758 15.1547 61.8852 15.211 61.8852 15.2673C61.8852 15.3378 61.8758 15.4035 61.8571 15.4646C61.843 15.5256 61.8125 15.5796 61.7655 15.6265C61.7185 15.6688 61.6528 15.704 61.5683 15.7322C61.4838 15.7604 61.3758 15.7744 61.2443 15.7744H60.7302V16.7464C60.7302 16.8685 60.7137 16.9694 60.6809 17.0493C60.648 17.1291 60.6057 17.1925 60.5541 17.2394C60.5024 17.2864 60.4414 17.3192 60.371 17.338C60.3052 17.3568 60.2348 17.3662 60.1597 17.3662C60.0845 17.3662 60.0118 17.3568 59.9413 17.338C59.8756 17.3192 59.8146 17.2864 59.7582 17.2394C59.7066 17.1925 59.6643 17.1291 59.6314 17.0493C59.6033 16.9694 59.5892 16.8685 59.5892 16.7464V13.9292Z" fill="black"/>
<path d="M50.6814 13.3375C51.2073 13.3375 51.6134 13.462 51.8999 13.7108C52.191 13.955 52.353 14.3118 52.3858 14.7814C52.3905 14.8424 52.3929 14.8894 52.3929 14.9222C52.3929 14.9551 52.3929 14.9856 52.3929 15.0138C52.3929 15.042 52.3929 15.0725 52.3929 15.1054C52.3929 15.1335 52.3905 15.1781 52.3858 15.2392C52.3764 15.7134 52.2238 16.0679 51.928 16.3027C51.6322 16.5375 51.2167 16.6548 50.6814 16.6548C50.1367 16.6548 49.7235 16.5351 49.4418 16.2956C49.1601 16.0562 49.0052 15.704 48.977 15.2392C48.9723 15.1781 48.9676 15.1312 48.9629 15.0983C48.9629 15.0654 48.9629 15.0349 48.9629 15.0068C48.9629 14.9786 48.9629 14.9504 48.9629 14.9222C48.9676 14.8894 48.9723 14.8424 48.977 14.7814C49.0005 14.3118 49.1507 13.955 49.4277 13.7108C49.7095 13.462 50.1274 13.3375 50.6814 13.3375ZM53.4141 13.9292C53.4141 13.6944 53.4705 13.5347 53.5832 13.4502C53.7006 13.361 53.8344 13.3164 53.9846 13.3164C54.0598 13.3164 54.1302 13.3258 54.1959 13.3446C54.2663 13.3634 54.3274 13.3962 54.379 13.4432C54.4307 13.4901 54.4729 13.5535 54.5058 13.6333C54.5387 13.7132 54.5551 13.8118 54.5551 13.9292V18.7396C54.5551 18.8617 54.5387 18.9626 54.5058 19.0424C54.4729 19.1223 54.4307 19.1857 54.379 19.2326C54.3274 19.2796 54.2663 19.3124 54.1959 19.3312C54.1302 19.35 54.0598 19.3594 53.9846 19.3594C53.9095 19.3594 53.8367 19.35 53.7663 19.3312C53.7006 19.3124 53.6395 19.2796 53.5832 19.2326C53.5315 19.1857 53.4893 19.1223 53.4564 19.0424C53.4282 18.9626 53.4141 18.8617 53.4141 18.7396V13.9292ZM48.7305 17.5564C48.7305 17.4859 48.7375 17.4225 48.7516 17.3662C48.7704 17.3052 48.8032 17.2535 48.8502 17.2112C48.8972 17.1643 48.9629 17.1291 49.0474 17.1056C49.1319 17.0774 49.2399 17.0633 49.3714 17.0633H52.245C52.3764 17.0633 52.4844 17.0774 52.569 17.1056C52.6535 17.1291 52.7192 17.1643 52.7662 17.2112C52.8131 17.2535 52.8436 17.3052 52.8577 17.3662C52.8765 17.4225 52.8859 17.4859 52.8859 17.5564C52.8859 17.6127 52.8765 17.6714 52.8577 17.7324C52.8436 17.7888 52.8131 17.8404 52.7662 17.8874C52.7192 17.9296 52.6535 17.9649 52.569 17.993C52.4844 18.0212 52.3764 18.0353 52.245 18.0353H51.3998V18.7396C51.3998 18.8617 51.3834 18.9626 51.3505 19.0424C51.3176 19.1223 51.2754 19.1857 51.2237 19.2326C51.1721 19.2796 51.111 19.3124 51.0406 19.3312C50.9749 19.35 50.9044 19.3594 50.8293 19.3594C50.7542 19.3594 50.6814 19.35 50.611 19.3312C50.5452 19.3124 50.4842 19.2796 50.4279 19.2326C50.3762 19.1857 50.3339 19.1223 50.3011 19.0424C50.2729 18.9626 50.2588 18.8617 50.2588 18.7396V18.0353H49.3714C49.2399 18.0353 49.1319 18.0212 49.0474 17.993C48.9629 17.9649 48.8972 17.9296 48.8502 17.8874C48.8032 17.8404 48.7704 17.7888 48.7516 17.7324C48.7375 17.6714 48.7305 17.6127 48.7305 17.5564ZM51.2449 14.7532C51.2449 14.6546 51.2214 14.5748 51.1744 14.5137C51.1322 14.4527 51.0805 14.4081 51.0195 14.3799C50.9584 14.347 50.895 14.3259 50.8293 14.3165C50.7683 14.3071 50.719 14.3024 50.6814 14.3024C50.6438 14.3024 50.5945 14.3095 50.5335 14.3236C50.4725 14.333 50.4114 14.3541 50.3504 14.387C50.2893 14.4198 50.2353 14.4691 50.1884 14.5349C50.1461 14.5959 50.1227 14.6757 50.118 14.7743C50.1133 14.8401 50.1086 14.8894 50.1039 14.9222C50.1039 14.9551 50.1039 14.9856 50.1039 15.0138C50.1039 15.042 50.1039 15.0725 50.1039 15.1054C50.1086 15.1335 50.1133 15.1781 50.118 15.2392C50.118 15.3472 50.1391 15.4317 50.1813 15.4927C50.2236 15.5491 50.2753 15.5937 50.3363 15.6265C50.3973 15.6594 50.4584 15.6805 50.5194 15.6899C50.5852 15.6946 50.6392 15.697 50.6814 15.697C50.719 15.697 50.7683 15.6946 50.8293 15.6899C50.8904 15.6805 50.9514 15.6594 51.0124 15.6265C51.0735 15.5937 51.1251 15.5491 51.1674 15.4927C51.2143 15.4317 51.2402 15.3472 51.2449 15.2392C51.2496 15.1734 51.2519 15.1241 51.2519 15.0913C51.2519 15.0537 51.2519 15.0208 51.2519 14.9927C51.2519 14.9645 51.2519 14.934 51.2519 14.9011C51.2519 14.8682 51.2496 14.8189 51.2449 14.7532Z" fill="black"/>
<path d="M43.3606 19.4439C43.1399 19.4392 42.9521 19.3993 42.7972 19.3242C42.6422 19.2537 42.5178 19.1598 42.4239 19.0425C42.33 18.9298 42.2619 18.7983 42.2196 18.648C42.1774 18.5025 42.1562 18.3475 42.1562 18.1832C42.1562 18.0189 42.175 17.8616 42.2126 17.7113C42.2502 17.5611 42.3135 17.4272 42.4028 17.3098C42.4967 17.1925 42.6211 17.1009 42.776 17.0352C42.9357 16.9647 43.1352 16.9272 43.3747 16.9225H46.3892C46.6286 16.9225 46.8258 16.9577 46.9808 17.0281C47.1404 17.0986 47.2648 17.1925 47.3541 17.3098C47.448 17.4225 47.5137 17.5564 47.5513 17.7113C47.5888 17.8616 47.6076 18.0189 47.6076 18.1832C47.6076 18.3475 47.5865 18.5025 47.5442 18.648C47.502 18.7983 47.4315 18.9298 47.3329 19.0425C47.239 19.1598 47.1146 19.2537 46.9596 19.3242C46.8094 19.3993 46.6239 19.4392 46.4032 19.4439H43.3606ZM43.2691 14.1898H44.0861V13.9996C44.0861 13.7648 44.1424 13.6052 44.2551 13.5207C44.3725 13.4314 44.5063 13.3868 44.6566 13.3868C44.7317 13.3868 44.7998 13.3962 44.8608 13.415C44.9265 13.4338 44.9829 13.4667 45.0298 13.5136C45.0815 13.5606 45.1214 13.624 45.1496 13.7038C45.1777 13.7836 45.1918 13.8822 45.1918 13.9996V15.9928C45.1918 16.0632 45.1871 16.129 45.1777 16.19C45.1684 16.2463 45.1425 16.298 45.1003 16.3449C45.0627 16.3872 45.0064 16.4224 44.9312 16.4506C44.8561 16.4741 44.7528 16.4858 44.6213 16.4858H42.7338C42.6023 16.4858 42.499 16.4741 42.4239 16.4506C42.3488 16.4224 42.2901 16.3872 42.2478 16.3449C42.2102 16.298 42.1868 16.2463 42.1774 16.19C42.168 16.129 42.1633 16.0632 42.1633 15.9928V13.9996C42.1633 13.7648 42.2149 13.6052 42.3182 13.5207C42.4215 13.4314 42.5483 13.3868 42.6986 13.3868C42.7737 13.3868 42.8441 13.3962 42.9099 13.415C42.9803 13.4338 43.0413 13.4667 43.093 13.5136C43.1446 13.5606 43.1869 13.624 43.2198 13.7038C43.2526 13.7836 43.2691 13.8822 43.2691 13.9996V14.1898ZM46.206 13.9292C46.206 13.6944 46.2624 13.5347 46.3751 13.4502C46.4925 13.361 46.6263 13.3164 46.7765 13.3164C46.8517 13.3164 46.9221 13.3258 46.9878 13.3446C47.0583 13.3634 47.1193 13.3962 47.1709 13.4432C47.2226 13.4901 47.2648 13.5535 47.2977 13.6333C47.3306 13.7132 47.347 13.8118 47.347 13.9292V14.4503H47.8612C47.9926 14.4503 48.1006 14.4644 48.1851 14.4926C48.2697 14.5208 48.3354 14.5583 48.3824 14.6053C48.4293 14.6476 48.4598 14.6992 48.4739 14.7602C48.4927 14.8166 48.5021 14.8729 48.5021 14.9293C48.5021 14.9997 48.4927 15.0654 48.4739 15.1265C48.4598 15.1828 48.4293 15.2345 48.3824 15.2814C48.3354 15.3237 48.2697 15.3589 48.1851 15.3871C48.1006 15.4106 47.9926 15.4223 47.8612 15.4223H47.347V16.0632C47.347 16.1853 47.3306 16.2862 47.2977 16.3661C47.2648 16.4459 47.2226 16.5093 47.1709 16.5562C47.1193 16.6032 47.0583 16.6361 46.9878 16.6548C46.9221 16.6736 46.8517 16.683 46.7765 16.683C46.7014 16.683 46.6286 16.6736 46.5582 16.6548C46.4925 16.6361 46.4314 16.6032 46.3751 16.5562C46.3234 16.5093 46.2812 16.4459 46.2483 16.3661C46.2201 16.2862 46.206 16.1853 46.206 16.0632V13.9292ZM46.0863 18.486C46.2225 18.4767 46.3211 18.4555 46.3821 18.4227C46.4432 18.3898 46.4737 18.31 46.4737 18.1832C46.4737 18.0517 46.4432 17.9696 46.3821 17.9367C46.3211 17.9038 46.2225 17.8827 46.0863 17.8733H43.6776C43.5414 17.8827 43.4428 17.9038 43.3818 17.9367C43.3207 17.9696 43.2902 18.0517 43.2902 18.1832C43.2902 18.31 43.3207 18.3898 43.3818 18.4227C43.4428 18.4555 43.5414 18.4767 43.6776 18.486H46.0863ZM44.0861 15.0913H43.2691V15.5843H44.0861V15.0913Z" fill="black"/>
<path d="M142.686 77.1015C142.544 77.1015 142.423 77.0659 142.325 76.9946C142.227 76.9189 142.174 76.8231 142.165 76.7073C142.147 76.5381 142.074 76.4044 141.945 76.3064C141.815 76.204 141.624 76.1527 141.37 76.1527C140.871 76.1527 140.61 76.4111 140.588 76.9278C140.575 77.2708 140.568 77.6027 140.568 77.9234C140.573 78.2397 140.579 78.5582 140.588 78.8789C140.597 79.1417 140.666 79.3332 140.795 79.4535C140.924 79.5738 141.116 79.6339 141.37 79.6339C141.633 79.6339 141.822 79.5827 141.938 79.4802C142.058 79.3778 142.129 79.2196 142.152 79.0058C142.161 78.8945 142.219 78.8009 142.325 78.7252C142.432 78.6495 142.55 78.6116 142.68 78.6116C143.027 78.6116 143.201 78.7876 143.201 79.1395C143.201 79.3221 143.156 79.4936 143.067 79.654C142.982 79.8143 142.86 79.9546 142.7 80.0749C142.539 80.1952 142.345 80.2887 142.118 80.3555C141.896 80.4268 141.646 80.4624 141.37 80.4624C141.107 80.4624 140.862 80.4335 140.635 80.3756C140.408 80.3221 140.21 80.2308 140.04 80.1016C139.871 79.9769 139.735 79.8143 139.633 79.6139C139.535 79.4134 139.481 79.1684 139.472 78.8789C139.455 78.1973 139.455 77.5403 139.472 76.9078C139.481 76.6271 139.537 76.3866 139.639 76.1862C139.742 75.9857 139.878 75.8231 140.047 75.6984C140.221 75.5692 140.419 75.4757 140.642 75.4178C140.864 75.3554 141.098 75.3242 141.343 75.3242C141.615 75.3242 141.864 75.3576 142.092 75.4244C142.323 75.4913 142.521 75.5826 142.686 75.6984C142.851 75.8098 142.978 75.9434 143.067 76.0993C143.161 76.2507 143.207 76.4133 143.207 76.5871C143.207 76.9301 143.034 77.1015 142.686 77.1015Z" fill="black"/>
<path d="M138.276 77.1015C138.134 77.1015 138.013 77.0659 137.915 76.9946C137.817 76.9189 137.764 76.8231 137.755 76.7073C137.737 76.5381 137.664 76.4044 137.534 76.3064C137.405 76.204 137.214 76.1527 136.96 76.1527C136.461 76.1527 136.2 76.4111 136.178 76.9278C136.165 77.2708 136.158 77.6027 136.158 77.9234C136.162 78.2397 136.169 78.5582 136.178 78.8789C136.187 79.1417 136.256 79.3332 136.385 79.4535C136.514 79.5738 136.706 79.6339 136.96 79.6339C137.223 79.6339 137.412 79.5827 137.528 79.4802C137.648 79.3778 137.719 79.2196 137.742 79.0058C137.75 78.8945 137.808 78.8009 137.915 78.7252C138.022 78.6495 138.14 78.6116 138.269 78.6116C138.617 78.6116 138.791 78.7876 138.791 79.1395C138.791 79.3221 138.746 79.4936 138.657 79.654C138.572 79.8143 138.45 79.9546 138.289 80.0749C138.129 80.1952 137.935 80.2887 137.708 80.3555C137.485 80.4268 137.236 80.4624 136.96 80.4624C136.697 80.4624 136.452 80.4335 136.225 80.3756C135.998 80.3221 135.799 80.2308 135.63 80.1016C135.461 79.9769 135.325 79.8143 135.223 79.6139C135.125 79.4134 135.071 79.1684 135.062 78.8789C135.044 78.1973 135.044 77.5403 135.062 76.9078C135.071 76.6271 135.127 76.3866 135.229 76.1862C135.332 75.9857 135.468 75.8231 135.637 75.6984C135.811 75.5692 136.009 75.4757 136.231 75.4178C136.454 75.3554 136.688 75.3242 136.933 75.3242C137.205 75.3242 137.454 75.3576 137.681 75.4244C137.913 75.4913 138.111 75.5826 138.276 75.6984C138.441 75.8098 138.568 75.9434 138.657 76.0993C138.75 76.2507 138.797 76.4133 138.797 76.5871C138.797 76.9301 138.624 77.1015 138.276 77.1015Z" fill="black"/>
<path d="M132.936 75.8597C132.936 75.6904 132.996 75.5657 133.116 75.4855C133.241 75.4053 133.379 75.3652 133.53 75.3652C133.601 75.3652 133.671 75.3764 133.737 75.3986C133.809 75.4165 133.871 75.4454 133.924 75.4855C133.978 75.5256 134.02 75.5768 134.051 75.6392C134.083 75.7015 134.098 75.775 134.098 75.8597V79.9155C134.098 80.0045 134.083 80.0803 134.051 80.1426C134.02 80.2095 133.978 80.2629 133.924 80.303C133.871 80.3475 133.809 80.3787 133.737 80.3965C133.671 80.4188 133.601 80.43 133.53 80.43C133.454 80.43 133.381 80.4188 133.31 80.3965C133.238 80.3787 133.174 80.3475 133.116 80.303C133.062 80.2629 133.018 80.2095 132.982 80.1426C132.951 80.0803 132.936 80.0045 132.936 79.9155V75.8597Z" fill="black"/>
<path d="M152.636 70.6152C152.435 70.5707 152.242 70.5038 152.055 70.4148C151.867 70.3257 151.687 70.2232 151.513 70.1074C151.344 69.9871 151.186 69.8579 151.039 69.7199C150.892 69.5818 150.761 69.4415 150.645 69.2989C150.524 69.437 150.391 69.5729 150.244 69.7065C150.097 69.8401 149.943 69.9649 149.783 70.0807C149.622 70.192 149.458 70.29 149.288 70.3747C149.119 70.4593 148.952 70.5239 148.787 70.5684C148.725 70.5862 148.656 70.5996 148.58 70.6085C148.509 70.613 148.438 70.6085 148.366 70.5952C148.291 70.5773 148.219 70.5439 148.152 70.4949C148.086 70.4459 148.037 70.3702 148.005 70.2678C147.956 70.1074 147.97 69.9715 148.046 69.8602C148.121 69.7444 148.242 69.6553 148.406 69.5929C148.593 69.5216 148.781 69.4348 148.968 69.3323C149.159 69.2299 149.335 69.1163 149.495 68.9916C149.656 68.8624 149.789 68.7243 149.896 68.5773C150.008 68.4258 150.075 68.2699 150.097 68.1096H148.887C148.763 68.1096 148.66 68.0962 148.58 68.0695C148.5 68.0428 148.438 68.0093 148.393 67.9693C148.348 67.9247 148.317 67.8757 148.299 67.8223C148.286 67.7644 148.279 67.7087 148.279 67.6552C148.279 67.5884 148.286 67.5283 148.299 67.4748C148.317 67.4169 148.348 67.3679 148.393 67.3278C148.438 67.2833 148.5 67.2499 148.58 67.2276C148.66 67.2009 148.763 67.1875 148.887 67.1875H152.335C152.46 67.1875 152.562 67.2009 152.643 67.2276C152.723 67.2499 152.785 67.2833 152.83 67.3278C152.874 67.3679 152.903 67.4169 152.916 67.4748C152.934 67.5283 152.943 67.5884 152.943 67.6552C152.943 67.7087 152.934 67.7644 152.916 67.8223C152.903 67.8757 152.874 67.9247 152.83 67.9693C152.785 68.0093 152.723 68.0428 152.643 68.0695C152.562 68.0962 152.46 68.1096 152.335 68.1096H151.219C151.237 68.2699 151.293 68.4281 151.386 68.584C151.484 68.7399 151.605 68.8846 151.747 69.0183C151.89 69.1519 152.052 69.27 152.235 69.3724C152.418 69.4749 152.605 69.5528 152.796 69.6063C152.965 69.6553 153.092 69.7332 153.177 69.8401C153.266 69.947 153.293 70.0829 153.257 70.2477C153.217 70.4214 153.115 70.5373 152.95 70.5952C152.901 70.613 152.85 70.6241 152.796 70.6286C152.743 70.633 152.689 70.6286 152.636 70.6152ZM147.691 72.319C147.691 72.2522 147.698 72.1899 147.711 72.1319C147.729 72.0785 147.76 72.0295 147.805 71.9849C147.85 71.9449 147.912 71.9115 147.992 71.8847C148.072 71.8625 148.175 71.8513 148.299 71.8513H150.083V70.8223C150.083 70.5996 150.137 70.4482 150.244 70.368C150.355 70.2833 150.482 70.241 150.625 70.241C150.696 70.241 150.763 70.2499 150.825 70.2678C150.892 70.2856 150.95 70.3168 150.999 70.3613C151.048 70.4058 151.088 70.466 151.119 70.5417C151.15 70.6174 151.166 70.711 151.166 70.8223V71.8513H152.943C153.068 71.8513 153.17 71.8625 153.251 71.8847C153.331 71.9115 153.393 71.9449 153.438 71.9849C153.482 72.0295 153.511 72.0785 153.525 72.1319C153.542 72.1899 153.551 72.2522 153.551 72.319C153.551 72.3725 153.542 72.4259 153.525 72.4794C153.511 72.5373 153.482 72.5863 153.438 72.6264C153.393 72.6709 153.331 72.7066 153.251 72.7333C153.17 72.76 153.068 72.7734 152.943 72.7734H148.299C148.175 72.7734 148.072 72.76 147.992 72.7333C147.912 72.7066 147.85 72.6709 147.805 72.6264C147.76 72.5863 147.729 72.5373 147.711 72.4794C147.698 72.4259 147.691 72.3725 147.691 72.319Z" fill="black"/>
<path d="M141.203 67.6938C141.203 67.6269 141.21 67.5668 141.223 67.5134C141.241 67.4555 141.272 67.4065 141.316 67.3664C141.361 67.3218 141.423 67.2884 141.504 67.2661C141.584 67.2394 141.686 67.226 141.811 67.226H143.562C143.686 67.226 143.789 67.2394 143.869 67.2661C143.949 67.2884 144.011 67.3218 144.056 67.3664C144.101 67.4065 144.129 67.4555 144.143 67.5134C144.161 67.5668 144.17 67.6269 144.17 67.6938C144.17 67.7472 144.161 67.8029 144.143 67.8608C144.129 67.9143 144.101 67.9633 144.056 68.0078C144.011 68.0479 143.949 68.0813 143.869 68.108C143.789 68.1348 143.686 68.1481 143.562 68.1481H143.254V69.7183C143.254 69.9054 143.254 70.0858 143.254 70.2595C143.259 70.4333 143.281 70.6025 143.321 70.7673C143.366 70.9277 143.439 71.0881 143.541 71.2484C143.644 71.4043 143.795 71.558 143.996 71.7095C144.138 71.8164 144.232 71.9322 144.276 72.0569C144.325 72.1861 144.305 72.3219 144.216 72.4645C144.167 72.5402 144.107 72.5959 144.036 72.6315C143.969 72.6716 143.896 72.6939 143.815 72.6983C143.766 72.6983 143.715 72.6917 143.662 72.6783C143.608 72.6694 143.557 72.6471 143.508 72.6115C143.343 72.4823 143.198 72.3442 143.074 72.1972C142.949 72.0547 142.84 71.9077 142.746 71.7562C142.662 71.8988 142.564 72.0413 142.452 72.1839C142.341 72.3309 142.21 72.4712 142.058 72.6048C142.009 72.6493 141.947 72.6805 141.871 72.6983C141.8 72.7162 141.729 72.7273 141.657 72.7318C141.582 72.7362 141.504 72.7228 141.423 72.6917C141.343 72.6605 141.276 72.6003 141.223 72.5113C141.134 72.3687 141.114 72.2351 141.163 72.1104C141.212 71.9856 141.305 71.8676 141.443 71.7562C141.648 71.5914 141.802 71.4288 141.904 71.2685C142.007 71.1037 142.078 70.9388 142.118 70.774C142.163 70.6048 142.185 70.4333 142.185 70.2595C142.185 70.0858 142.185 69.9054 142.185 69.7183V68.1481H141.811C141.686 68.1481 141.584 68.1348 141.504 68.108C141.423 68.0813 141.361 68.0479 141.316 68.0078C141.272 67.9633 141.241 67.9143 141.223 67.8608C141.21 67.8029 141.203 67.7472 141.203 67.6938ZM144.57 70.2996H144.163C144.038 70.2996 143.938 70.2885 143.862 70.2662C143.786 70.2395 143.726 70.2061 143.682 70.166C143.642 70.1214 143.615 70.0724 143.602 70.019C143.588 69.9611 143.582 69.8987 143.582 69.8319C143.582 69.7785 143.588 69.725 143.602 69.6715C143.615 69.6136 143.642 69.5646 143.682 69.5245C143.726 69.48 143.786 69.4444 143.862 69.4176C143.938 69.3909 144.038 69.3775 144.163 69.3775H144.57V67.7004C144.57 67.4777 144.617 67.3263 144.711 67.2461C144.809 67.1615 144.92 67.1191 145.045 67.1191C145.165 67.1191 145.272 67.1615 145.366 67.2461C145.464 67.3263 145.513 67.4777 145.513 67.7004V72.264C145.513 72.3799 145.499 72.4756 145.472 72.5513C145.446 72.6271 145.41 72.6872 145.366 72.7318C145.325 72.7763 145.276 72.8075 145.219 72.8253C145.161 72.8431 145.103 72.852 145.045 72.852C144.982 72.852 144.922 72.8431 144.864 72.8253C144.807 72.8075 144.755 72.7763 144.711 72.7318C144.671 72.6872 144.637 72.6271 144.611 72.5513C144.584 72.4756 144.57 72.3799 144.57 72.264V70.2996ZM145.98 67.7004C145.98 67.4777 146.027 67.3263 146.121 67.2461C146.219 67.1615 146.33 67.1191 146.455 67.1191C146.575 67.1191 146.682 67.1615 146.775 67.2461C146.873 67.3263 146.922 67.4777 146.922 67.7004V72.264C146.922 72.3799 146.909 72.4756 146.882 72.5513C146.856 72.6271 146.82 72.6872 146.775 72.7318C146.735 72.7763 146.686 72.8075 146.628 72.8253C146.571 72.8431 146.513 72.852 146.455 72.852C146.392 72.852 146.332 72.8431 146.274 72.8253C146.216 72.8075 146.165 72.7763 146.121 72.7318C146.081 72.6872 146.047 72.6271 146.02 72.5513C145.994 72.4756 145.98 72.3799 145.98 72.264V67.7004Z" fill="black"/>
<path d="M136.016 70.9226C135.892 70.9226 135.794 70.9092 135.722 70.8825C135.651 70.8557 135.595 70.8201 135.555 70.7756C135.52 70.7266 135.497 70.6731 135.489 70.6152C135.48 70.5528 135.475 70.4883 135.475 70.4214V67.7154C135.475 67.604 135.489 67.5149 135.515 67.4481C135.546 67.3768 135.587 67.3234 135.636 67.2877C135.689 67.2476 135.747 67.2209 135.809 67.2075C135.876 67.1942 135.945 67.1875 136.016 67.1875H139.805C139.916 67.1875 140.005 67.2009 140.072 67.2276C140.139 67.2543 140.19 67.29 140.226 67.3345C140.262 67.379 140.284 67.428 140.293 67.4815C140.306 67.5349 140.313 67.5906 140.313 67.6485C140.313 67.6975 140.306 67.7488 140.293 67.8022C140.284 67.8512 140.262 67.9002 140.226 67.9492C140.19 67.9938 140.139 68.0316 140.072 68.0628C140.005 68.0895 139.916 68.1029 139.805 68.1029H136.558V68.5907H139.805C139.916 68.5907 140.005 68.604 140.072 68.6307C140.139 68.6575 140.19 68.6931 140.226 68.7377C140.262 68.7822 140.284 68.8312 140.293 68.8846C140.306 68.9381 140.313 68.9938 140.313 69.0517C140.313 69.1007 140.306 69.1519 140.293 69.2054C140.284 69.2544 140.262 69.3034 140.226 69.3524C140.19 69.3969 140.139 69.4348 140.072 69.466C140.005 69.4927 139.916 69.506 139.805 69.506H136.558V70.0072H139.872C139.983 70.0072 140.072 70.0228 140.139 70.0539C140.206 70.0807 140.257 70.1185 140.293 70.1675C140.328 70.2121 140.351 70.2611 140.36 70.3145C140.373 70.368 140.38 70.417 140.38 70.4615C140.38 70.5194 140.373 70.5773 140.36 70.6352C140.351 70.6887 140.328 70.7377 140.293 70.7822C140.257 70.8223 140.206 70.8557 140.139 70.8825C140.072 70.9092 139.983 70.9226 139.872 70.9226H136.016ZM134.994 72.319C134.994 72.2522 135.001 72.1899 135.014 72.1319C135.032 72.0785 135.063 72.0295 135.108 71.9849C135.152 71.9449 135.215 71.9115 135.295 71.8847C135.375 71.8625 135.477 71.8513 135.602 71.8513H140.246C140.371 71.8513 140.473 71.8625 140.553 71.8847C140.633 71.9115 140.696 71.9449 140.74 71.9849C140.785 72.0295 140.814 72.0785 140.827 72.1319C140.845 72.1899 140.854 72.2522 140.854 72.319C140.854 72.3725 140.845 72.4259 140.827 72.4794C140.814 72.5373 140.785 72.5863 140.74 72.6264C140.696 72.6709 140.633 72.7066 140.553 72.7333C140.473 72.76 140.371 72.7734 140.246 72.7734H135.602C135.477 72.7734 135.375 72.76 135.295 72.7333C135.215 72.7066 135.152 72.6709 135.108 72.6264C135.063 72.5863 135.032 72.5373 135.014 72.4794C135.001 72.4259 134.994 72.3725 134.994 72.319Z" fill="black"/>
<path d="M131.13 67.186C131.255 67.186 131.353 67.2015 131.424 67.2327C131.496 67.2595 131.549 67.2973 131.585 67.3463C131.625 67.3953 131.649 67.451 131.658 67.5134C131.667 67.5713 131.672 67.6336 131.672 67.7004V72.2173C131.672 72.2841 131.667 72.3442 131.658 72.3977C131.649 72.4556 131.625 72.5046 131.585 72.5447C131.549 72.5892 131.496 72.6226 131.424 72.6449C131.353 72.6716 131.255 72.685 131.13 72.685H129.406C129.282 72.685 129.184 72.6716 129.112 72.6449C129.041 72.6226 128.986 72.5892 128.945 72.5447C128.91 72.5046 128.888 72.4556 128.879 72.3977C128.87 72.3442 128.865 72.2841 128.865 72.2173V67.7004C128.865 67.6336 128.87 67.5713 128.879 67.5134C128.888 67.451 128.91 67.3953 128.945 67.3463C128.986 67.2973 129.041 67.2595 129.112 67.2327C129.184 67.2015 129.282 67.186 129.406 67.186H131.13ZM132.6 67.7004C132.6 67.4777 132.654 67.3263 132.761 67.2461C132.872 67.1615 132.999 67.1191 133.142 67.1191C133.213 67.1191 133.28 67.128 133.342 67.1459C133.409 67.1637 133.467 67.1949 133.516 67.2394C133.565 67.284 133.605 67.3441 133.636 67.4198C133.667 67.4955 133.683 67.5891 133.683 67.7004V69.3041H134.104C134.228 69.3041 134.331 69.3174 134.411 69.3441C134.491 69.3709 134.554 69.4065 134.598 69.451C134.643 69.4911 134.672 69.5401 134.685 69.598C134.703 69.6515 134.712 69.705 134.712 69.7584C134.712 69.8252 134.703 69.8876 134.685 69.9455C134.672 69.9989 134.643 70.0479 134.598 70.0925C134.554 70.1326 134.491 70.166 134.411 70.1927C134.331 70.215 134.228 70.2261 134.104 70.2261H133.683V72.264C133.683 72.3799 133.667 72.4756 133.636 72.5513C133.605 72.6271 133.565 72.6872 133.516 72.7318C133.467 72.7763 133.409 72.8075 133.342 72.8253C133.28 72.8431 133.213 72.852 133.142 72.852C133.07 72.852 133.001 72.8431 132.934 72.8253C132.872 72.8075 132.814 72.7763 132.761 72.7318C132.712 72.6872 132.672 72.6271 132.64 72.5513C132.614 72.4756 132.6 72.3799 132.6 72.264V67.7004ZM130.616 68.108H129.921V71.7629H130.616V68.108Z" fill="black"/>
<path d="M127.241 70.5781C127.041 70.5335 126.847 70.4667 126.66 70.3776C126.473 70.2886 126.293 70.1861 126.119 70.0703C125.95 69.95 125.791 69.8208 125.644 69.6827C125.497 69.5447 125.366 69.4043 125.25 69.2618C125.13 69.3999 124.996 69.5358 124.849 69.6694C124.702 69.803 124.549 69.9277 124.388 70.0436C124.228 70.1549 124.063 70.2529 123.894 70.3376C123.725 70.4222 123.557 70.4868 123.393 70.5313C123.33 70.5491 123.261 70.5625 123.186 70.5714C123.114 70.5759 123.043 70.5714 122.972 70.558C122.896 70.5402 122.825 70.5068 122.758 70.4578C122.691 70.4088 122.642 70.3331 122.611 70.2306C122.562 70.0703 122.575 69.9344 122.651 69.8231C122.727 69.7072 122.847 69.6182 123.012 69.5558C123.203 69.4845 123.399 69.3954 123.6 69.2885C123.8 69.1772 123.981 69.0547 124.141 68.921C124.306 68.7874 124.439 68.6426 124.542 68.4867C124.649 68.3264 124.705 68.1616 124.709 67.9923V67.9188V67.7317C124.709 67.6203 124.725 67.5268 124.756 67.4511C124.787 67.3753 124.827 67.3152 124.876 67.2707C124.929 67.2261 124.99 67.1949 125.056 67.1771C125.123 67.1593 125.192 67.1504 125.264 67.1504C125.335 67.1504 125.404 67.1593 125.471 67.1771C125.537 67.1949 125.595 67.2261 125.644 67.2707C125.698 67.3152 125.74 67.3753 125.771 67.4511C125.803 67.5268 125.818 67.6203 125.818 67.7317V67.9923C125.823 68.1616 125.869 68.3286 125.958 68.4934C126.052 68.6538 126.172 68.8052 126.319 68.9478C126.466 69.0859 126.633 69.2106 126.82 69.3219C127.007 69.4288 127.201 69.5113 127.402 69.5692C127.571 69.6182 127.698 69.6961 127.783 69.803C127.872 69.9099 127.898 70.0458 127.863 70.2106C127.823 70.3843 127.72 70.5001 127.555 70.558C127.506 70.5759 127.455 70.587 127.402 70.5915C127.348 70.5959 127.295 70.5915 127.241 70.5781ZM122.297 72.3153C122.297 72.2485 122.304 72.1862 122.317 72.1282C122.335 72.0748 122.366 72.0258 122.41 71.9812C122.455 71.9412 122.517 71.9077 122.598 71.881C122.678 71.8587 122.78 71.8476 122.905 71.8476H127.549C127.673 71.8476 127.776 71.8587 127.856 71.881C127.936 71.9077 127.999 71.9412 128.043 71.9812C128.088 72.0258 128.117 72.0748 128.13 72.1282C128.148 72.1862 128.157 72.2485 128.157 72.3153C128.157 72.3688 128.148 72.4222 128.13 72.4757C128.117 72.5336 128.088 72.5826 128.043 72.6227C127.999 72.6672 127.936 72.7029 127.856 72.7296C127.776 72.7563 127.673 72.7697 127.549 72.7697H122.905C122.78 72.7697 122.678 72.7563 122.598 72.7296C122.517 72.7029 122.455 72.6672 122.41 72.6227C122.366 72.5826 122.335 72.5336 122.317 72.4757C122.304 72.4222 122.297 72.3688 122.297 72.3153Z" fill="black"/>
<path d="M62.9914 119.309C62.8324 119.309 62.6982 119.269 62.5888 119.19C62.4795 119.105 62.4199 118.999 62.4099 118.869C62.39 118.681 62.308 118.531 62.1639 118.422C62.0198 118.308 61.8061 118.251 61.5228 118.251C60.9661 118.251 60.6754 118.539 60.6505 119.115C60.6356 119.498 60.6282 119.868 60.6282 120.226C60.6331 120.579 60.6406 120.934 60.6505 121.292C60.6605 121.585 60.7375 121.799 60.8816 121.933C61.0258 122.068 61.2395 122.135 61.5228 122.135C61.816 122.135 62.0272 122.078 62.1565 121.963C62.2906 121.849 62.3702 121.672 62.395 121.434C62.405 121.31 62.4696 121.205 62.5888 121.121C62.7081 121.036 62.8398 120.994 62.984 120.994C63.3716 120.994 63.5655 121.19 63.5655 121.583C63.5655 121.787 63.5158 121.978 63.4164 122.157C63.3219 122.336 63.1852 122.493 63.0063 122.627C62.8274 122.761 62.6112 122.865 62.3577 122.94C62.1092 123.019 61.8309 123.059 61.5228 123.059C61.2295 123.059 60.9562 123.027 60.7027 122.962C60.4492 122.903 60.2281 122.801 60.0392 122.657C59.8504 122.517 59.6988 122.336 59.5845 122.112C59.4751 121.889 59.4155 121.615 59.4055 121.292C59.3857 120.532 59.3857 119.799 59.4055 119.093C59.4155 118.78 59.4776 118.512 59.5919 118.288C59.7062 118.064 59.8578 117.883 60.0467 117.744C60.2405 117.6 60.4617 117.495 60.7102 117.431C60.9587 117.361 61.2196 117.326 61.493 117.326C61.7961 117.326 62.0744 117.363 62.3279 117.438C62.5864 117.513 62.8075 117.614 62.9914 117.744C63.1753 117.868 63.317 118.017 63.4164 118.191C63.5207 118.36 63.5729 118.541 63.5729 118.735C63.5729 119.118 63.3791 119.309 62.9914 119.309Z" fill="black"/>
<path d="M58.0715 119.309C57.9125 119.309 57.7783 119.269 57.6689 119.19C57.5596 119.105 57.4999 118.999 57.49 118.869C57.4701 118.681 57.3881 118.531 57.244 118.422C57.0999 118.308 56.8861 118.251 56.6028 118.251C56.0462 118.251 55.7555 118.539 55.7306 119.115C55.7157 119.498 55.7082 119.868 55.7082 120.226C55.7132 120.579 55.7207 120.934 55.7306 121.292C55.7405 121.585 55.8176 121.799 55.9617 121.933C56.1058 122.068 56.3196 122.135 56.6028 122.135C56.8961 122.135 57.1073 122.078 57.2365 121.963C57.3707 121.849 57.4502 121.672 57.4751 121.434C57.485 121.31 57.5496 121.205 57.6689 121.121C57.7882 121.036 57.9199 120.994 58.064 120.994C58.4517 120.994 58.6455 121.19 58.6455 121.583C58.6455 121.787 58.5958 121.978 58.4964 122.157C58.402 122.336 58.2653 122.493 58.0864 122.627C57.9075 122.761 57.6913 122.865 57.4378 122.94C57.1893 123.019 56.911 123.059 56.6028 123.059C56.3096 123.059 56.0363 123.027 55.7828 122.962C55.5293 122.903 55.3082 122.801 55.1193 122.657C54.9304 122.517 54.7788 122.336 54.6645 122.112C54.5552 121.889 54.4956 121.615 54.4856 121.292C54.4657 120.532 54.4657 119.799 54.4856 119.093C54.4956 118.78 54.5577 118.512 54.672 118.288C54.7863 118.064 54.9379 117.883 55.1267 117.744C55.3206 117.6 55.5417 117.495 55.7902 117.431C56.0388 117.361 56.2997 117.326 56.573 117.326C56.8762 117.326 57.1545 117.363 57.408 117.438C57.6664 117.513 57.8876 117.614 58.0715 117.744C58.2554 117.868 58.397 118.017 58.4964 118.191C58.6008 118.36 58.653 118.541 58.653 118.735C58.653 119.118 58.4592 119.309 58.0715 119.309Z" fill="black"/>
<path d="M52.1133 117.923C52.1133 117.734 52.1804 117.595 52.3146 117.505C52.4537 117.416 52.6078 117.371 52.7768 117.371C52.8563 117.371 52.9333 117.384 53.0079 117.408C53.0874 117.428 53.157 117.461 53.2166 117.505C53.2763 117.55 53.3235 117.607 53.3583 117.677C53.3931 117.746 53.4105 117.828 53.4105 117.923V122.448C53.4105 122.547 53.3931 122.632 53.3583 122.701C53.3235 122.776 53.2763 122.836 53.2166 122.88C53.157 122.93 53.0874 122.965 53.0079 122.985C52.9333 123.01 52.8563 123.022 52.7768 123.022C52.6923 123.022 52.6103 123.01 52.5308 122.985C52.4512 122.965 52.3792 122.93 52.3146 122.88C52.2549 122.836 52.2052 122.776 52.1655 122.701C52.1307 122.632 52.1133 122.547 52.1133 122.448V117.923Z" fill="black"/>
<path d="M45.725 123.604C45.5858 123.604 45.4765 123.589 45.3969 123.559C45.3174 123.534 45.2553 123.497 45.2106 123.447C45.1708 123.402 45.146 123.348 45.136 123.283C45.1261 123.224 45.1211 123.156 45.1211 123.082V121.494C45.1211 121.245 45.1758 121.076 45.2851 120.987C45.3945 120.893 45.5286 120.845 45.6877 120.845C45.7672 120.845 45.8418 120.855 45.9113 120.875C45.9859 120.895 46.0505 120.93 46.1052 120.98C46.1598 121.029 46.2046 121.096 46.2394 121.181C46.2742 121.26 46.2915 121.362 46.2915 121.487H49.3258C49.3258 121.243 49.3854 121.076 49.5047 120.987C49.6289 120.893 49.7706 120.845 49.9296 120.845C50.0091 120.845 50.0812 120.855 50.1458 120.875C50.2154 120.895 50.275 120.93 50.3247 120.98C50.3794 121.029 50.4217 121.096 50.4515 121.181C50.4813 121.265 50.4962 121.37 50.4962 121.494V123.082C50.4962 123.156 50.4912 123.224 50.4813 123.283C50.4714 123.348 50.444 123.402 50.3993 123.447C50.3595 123.497 50.2999 123.534 50.2204 123.559C50.1408 123.589 50.0315 123.604 49.8923 123.604H45.725ZM44.5918 118.534C44.5918 118.46 44.5993 118.398 44.6142 118.348C44.634 118.293 44.6688 118.249 44.7185 118.214C44.7682 118.174 44.8378 118.147 44.9273 118.132C45.0167 118.112 45.131 118.102 45.2702 118.102H47.8646C48.0037 118.102 48.118 118.112 48.2075 118.132C48.297 118.147 48.3665 118.174 48.4162 118.214C48.4659 118.249 48.4982 118.293 48.5132 118.348C48.533 118.398 48.543 118.46 48.543 118.534C48.543 118.644 48.5107 118.733 48.4461 118.803C48.3864 118.867 48.2597 118.907 48.0659 118.922C48.1354 119.061 48.1702 119.21 48.1702 119.369C48.1702 119.822 48.041 120.152 47.7826 120.361C47.5291 120.565 47.124 120.666 46.5674 120.666C46.0107 120.666 45.6032 120.557 45.3448 120.338C45.0913 120.115 44.9645 119.792 44.9645 119.369C44.9645 119.195 44.9969 119.046 45.0615 118.922C44.8726 118.902 44.7459 118.86 44.6813 118.795C44.6216 118.731 44.5918 118.644 44.5918 118.534ZM49.2214 117.766C49.2214 117.518 49.281 117.349 49.4003 117.259C49.5246 117.165 49.6662 117.118 49.8252 117.118C49.9048 117.118 49.9793 117.128 50.0489 117.148C50.1234 117.168 50.1881 117.202 50.2427 117.252C50.2974 117.302 50.3421 117.369 50.3769 117.453C50.4117 117.538 50.4291 117.642 50.4291 117.766V118.333H50.8988C51.0379 118.333 51.1522 118.35 51.2417 118.385C51.3312 118.415 51.4008 118.455 51.4505 118.504C51.5002 118.554 51.5325 118.611 51.5474 118.676C51.5672 118.736 51.5772 118.795 51.5772 118.855C51.5772 118.929 51.5672 118.999 51.5474 119.064C51.5325 119.128 51.5002 119.185 51.4505 119.235C51.4008 119.28 51.3312 119.317 51.2417 119.347C51.1522 119.377 51.0379 119.392 50.8988 119.392H50.4291V120.018C50.4291 120.147 50.4117 120.251 50.3769 120.331C50.3421 120.406 50.2974 120.465 50.2427 120.51C50.1881 120.55 50.1234 120.577 50.0489 120.592C49.9793 120.607 49.9048 120.614 49.8252 120.614C49.7457 120.614 49.6687 120.607 49.5941 120.592C49.5246 120.577 49.4599 120.55 49.4003 120.51C49.3456 120.465 49.3009 120.406 49.2661 120.331C49.2363 120.251 49.2214 120.147 49.2214 120.018V117.766ZM45.136 117.386C45.136 117.242 45.1783 117.138 45.2628 117.073C45.3522 117.004 45.5361 116.969 45.8144 116.969H47.3203C47.5987 116.969 47.7801 117.004 47.8646 117.073C47.954 117.138 47.9988 117.242 47.9988 117.386C47.9988 117.51 47.954 117.61 47.8646 117.684C47.7801 117.754 47.5987 117.789 47.3203 117.789H45.8144C45.5361 117.789 45.3522 117.754 45.2628 117.684C45.1783 117.61 45.136 117.51 45.136 117.386ZM49.3258 122.366H46.2915V122.724H49.3258V122.366ZM46.1275 119.369C46.1275 119.419 46.1325 119.469 46.1424 119.518C46.1574 119.568 46.1797 119.615 46.2095 119.66C46.2443 119.7 46.2891 119.735 46.3437 119.764C46.4034 119.789 46.4779 119.802 46.5674 119.802C46.6618 119.802 46.7364 119.789 46.791 119.764C46.8507 119.735 46.8954 119.7 46.9252 119.66C46.96 119.615 46.9824 119.568 46.9923 119.518C47.0023 119.469 47.0072 119.419 47.0072 119.369C47.0072 119.32 47.0023 119.27 46.9923 119.22C46.9824 119.166 46.96 119.118 46.9252 119.079C46.8954 119.039 46.8507 119.006 46.791 118.982C46.7364 118.952 46.6618 118.937 46.5674 118.937C46.4779 118.937 46.4034 118.952 46.3437 118.982C46.2891 119.006 46.2443 119.039 46.2095 119.079C46.1797 119.118 46.1574 119.166 46.1424 119.22C46.1325 119.27 46.1275 119.32 46.1275 119.369Z" fill="black"/>
<path d="M43.627 119.913C43.7513 119.913 43.8507 119.927 43.9252 119.957C43.9998 119.987 44.0569 120.024 44.0967 120.069C44.1365 120.114 44.1613 120.163 44.1713 120.218C44.1862 120.273 44.1936 120.328 44.1936 120.382C44.1936 120.452 44.1862 120.516 44.1713 120.576C44.1613 120.631 44.1365 120.678 44.0967 120.718C44.0569 120.757 43.9998 120.79 43.9252 120.815C43.8507 120.839 43.7513 120.852 43.627 120.852H42.807V121.284C42.9958 121.309 43.1524 121.356 43.2766 121.426C43.4059 121.49 43.5078 121.572 43.5823 121.672C43.6569 121.771 43.709 121.886 43.7389 122.015C43.7687 122.144 43.7836 122.283 43.7836 122.432C43.7836 122.77 43.6867 123.046 43.4928 123.26C43.304 123.474 42.976 123.588 42.5088 123.603H39.2882C39.0546 123.598 38.8558 123.563 38.6918 123.498C38.5278 123.439 38.3961 123.357 38.2967 123.252C38.1973 123.153 38.1252 123.034 38.0805 122.895C38.0357 122.755 38.0134 122.601 38.0134 122.432C38.0134 122.283 38.0283 122.144 38.0581 122.015C38.0929 121.881 38.1476 121.764 38.2221 121.664C38.3016 121.565 38.406 121.483 38.5352 121.418C38.6694 121.354 38.8359 121.309 39.0347 121.284V120.852H38.2072C38.083 120.852 37.9836 120.839 37.909 120.815C37.8345 120.79 37.7773 120.757 37.7375 120.718C37.6978 120.678 37.6704 120.631 37.6555 120.576C37.6456 120.516 37.6406 120.452 37.6406 120.382C37.6406 120.328 37.6456 120.273 37.6555 120.218C37.6704 120.163 37.6978 120.114 37.7375 120.069C37.7773 120.024 37.8345 119.987 37.909 119.957C37.9836 119.927 38.083 119.913 38.2072 119.913H43.627ZM38.0879 118.287C38.0879 117.954 38.2147 117.688 38.4681 117.49C38.7266 117.291 39.1043 117.191 39.6013 117.191H42.2255C42.7225 117.191 43.0977 117.291 43.3512 117.49C43.6096 117.688 43.7389 117.954 43.7389 118.287V118.541C43.7389 118.879 43.6246 119.132 43.3959 119.301C43.1673 119.47 42.7896 119.557 42.2628 119.562H39.5715C39.0447 119.557 38.6645 119.47 38.4309 119.301C38.2022 119.132 38.0879 118.879 38.0879 118.541V118.287ZM39.2956 118.421C39.2956 118.536 39.3677 118.608 39.5118 118.638C39.656 118.663 39.8349 118.675 40.0486 118.675H41.7782C41.9919 118.675 42.1708 118.663 42.3149 118.638C42.4591 118.608 42.5311 118.536 42.5311 118.421V118.332C42.5311 118.272 42.5113 118.225 42.4715 118.19C42.4367 118.156 42.3845 118.131 42.3149 118.116C42.2454 118.096 42.1634 118.086 42.0689 118.086C41.9745 118.081 41.8701 118.079 41.7558 118.079H40.071C39.9567 118.079 39.8523 118.081 39.7579 118.086C39.6634 118.086 39.5814 118.096 39.5118 118.116C39.4423 118.131 39.3876 118.156 39.3478 118.19C39.313 118.225 39.2956 118.272 39.2956 118.332V118.421ZM42.1733 122.701C42.3174 122.701 42.4218 122.681 42.4864 122.641C42.551 122.606 42.5833 122.537 42.5833 122.432C42.5833 122.328 42.551 122.258 42.4864 122.224C42.4218 122.184 42.3174 122.164 42.1733 122.164H39.6237C39.4795 122.164 39.3752 122.184 39.3106 122.224C39.2459 122.258 39.2136 122.328 39.2136 122.432C39.2136 122.537 39.2459 122.606 39.3106 122.641C39.3752 122.681 39.4795 122.701 39.6237 122.701H42.1733ZM40.2424 121.262H41.5993V120.852H40.2424V121.262Z" fill="black"/>
<path d="M58.5136 111.758C58.3894 111.758 58.29 111.748 58.2154 111.728C58.1409 111.703 58.0837 111.671 58.0439 111.631C58.0042 111.586 57.9768 111.537 57.9619 111.482C57.952 111.427 57.947 111.365 57.947 111.296C57.947 111.241 57.952 111.186 57.9619 111.132C57.9768 111.077 58.0042 111.03 58.0439 110.99C58.0837 110.945 58.1409 110.91 58.2154 110.886C58.29 110.856 58.3894 110.841 58.5136 110.841H63.9334C64.0577 110.841 64.1571 110.856 64.2316 110.886C64.3062 110.91 64.3633 110.945 64.4031 110.99C64.4429 111.03 64.4677 111.077 64.4777 111.132C64.4926 111.186 64.5 111.241 64.5 111.296C64.5 111.365 64.4926 111.427 64.4777 111.482C64.4677 111.537 64.4429 111.586 64.4031 111.631C64.3633 111.671 64.3062 111.703 64.2316 111.728C64.1571 111.748 64.0577 111.758 63.9334 111.758H58.5136ZM59.0727 110.341C58.9336 110.341 58.8242 110.329 58.7447 110.304C58.6652 110.274 58.6031 110.237 58.5583 110.192C58.5186 110.147 58.4937 110.095 58.4838 110.036C58.4738 109.971 58.4689 109.901 58.4689 109.827V108.82C58.4689 108.572 58.5285 108.403 58.6478 108.314C58.772 108.219 58.9137 108.172 59.0727 108.172C59.1523 108.172 59.2268 108.182 59.2964 108.202C59.3709 108.222 59.4355 108.256 59.4902 108.306C59.5449 108.356 59.5896 108.423 59.6244 108.507C59.6592 108.592 59.6766 108.696 59.6766 108.82V109.409H63.3967C63.5209 109.409 63.6203 109.424 63.6949 109.454C63.7694 109.479 63.8266 109.514 63.8663 109.559C63.9061 109.603 63.9309 109.653 63.9409 109.708C63.9558 109.762 63.9633 109.814 63.9633 109.864C63.9633 109.929 63.9558 109.991 63.9409 110.051C63.9309 110.105 63.9061 110.155 63.8663 110.2C63.8266 110.244 63.7694 110.279 63.6949 110.304C63.6203 110.329 63.5209 110.341 63.3967 110.341H59.0727ZM59.5648 114.658C59.3312 114.653 59.1324 114.616 58.9684 114.546C58.8044 114.481 58.6726 114.394 58.5732 114.285C58.4738 114.176 58.4018 114.049 58.357 113.905C58.3123 113.761 58.29 113.604 58.29 113.435C58.29 113.266 58.3098 113.11 58.3496 112.965C58.3894 112.816 58.4565 112.687 58.5509 112.578C58.6503 112.468 58.782 112.381 58.946 112.317C59.115 112.252 59.3262 112.217 59.5797 112.213H62.7704C63.0239 112.213 63.2327 112.245 63.3967 112.309C63.5656 112.374 63.6974 112.464 63.7918 112.578C63.8912 112.687 63.9608 112.816 64.0005 112.965C64.0403 113.11 64.0602 113.266 64.0602 113.435C64.0602 113.604 64.0378 113.761 63.9931 113.905C63.9483 114.049 63.8738 114.176 63.7694 114.285C63.67 114.394 63.5383 114.481 63.3743 114.546C63.2153 114.616 63.0189 114.653 62.7854 114.658H59.5648ZM62.4499 113.756C62.594 113.746 62.6984 113.721 62.763 113.681C62.8276 113.646 62.8599 113.564 62.8599 113.435C62.8599 113.306 62.8276 113.224 62.763 113.189C62.6984 113.149 62.594 113.125 62.4499 113.115H59.9002C59.7561 113.125 59.6517 113.149 59.5871 113.189C59.5225 113.224 59.4902 113.306 59.4902 113.435C59.4902 113.564 59.5225 113.646 59.5871 113.681C59.6517 113.721 59.7561 113.746 59.9002 113.756H62.4499Z" fill="black"/>
<path d="M50.8598 108.813C50.8598 108.738 50.8672 108.671 50.8821 108.612C50.902 108.547 50.9368 108.492 50.9865 108.448C51.0362 108.398 51.1058 108.361 51.1952 108.336C51.2847 108.306 51.399 108.291 51.5382 108.291H53.8641C54.0033 108.291 54.1176 108.306 54.2071 108.336C54.2965 108.361 54.3661 108.398 54.4158 108.448C54.4655 108.492 54.4978 108.547 54.5127 108.612C54.5326 108.671 54.5426 108.738 54.5426 108.813C54.5426 108.873 54.5326 108.935 54.5127 108.999C54.4978 109.059 54.4655 109.114 54.4158 109.163C54.3661 109.208 54.2965 109.245 54.2071 109.275C54.1176 109.305 54.0033 109.32 53.8641 109.32H53.3945V111.37C53.3945 111.579 53.4119 111.77 53.4467 111.944C53.4864 112.118 53.5485 112.282 53.633 112.436C53.7225 112.585 53.8343 112.732 53.9685 112.876C54.1077 113.015 54.2767 113.154 54.4755 113.294C54.6345 113.408 54.7389 113.537 54.7886 113.681C54.8432 113.825 54.8209 113.977 54.7215 114.136C54.6668 114.22 54.5997 114.283 54.5202 114.322C54.4456 114.367 54.3636 114.392 54.2742 114.397C54.2195 114.397 54.1623 114.389 54.1027 114.374C54.0431 114.365 53.9859 114.34 53.9312 114.3C53.6927 114.136 53.4814 113.955 53.2976 113.756C53.1186 113.557 52.9596 113.348 52.8204 113.129C52.6862 113.368 52.5297 113.587 52.3508 113.786C52.1768 113.984 51.9805 114.153 51.7618 114.292C51.6276 114.377 51.4785 114.424 51.3145 114.434C51.23 114.439 51.143 114.424 51.0536 114.389C50.9641 114.355 50.8896 114.288 50.8299 114.188C50.7305 114.029 50.7057 113.877 50.7554 113.733C50.8101 113.589 50.9169 113.46 51.0759 113.346C51.2747 113.207 51.4412 113.065 51.5754 112.921C51.7146 112.772 51.8264 112.618 51.9109 112.459C52.0004 112.299 52.0625 112.131 52.0973 111.952C52.1371 111.773 52.1569 111.579 52.1569 111.37V109.32H51.5382C51.399 109.32 51.2847 109.305 51.1952 109.275C51.1058 109.245 51.0362 109.208 50.9865 109.163C50.9368 109.114 50.902 109.059 50.8821 108.999C50.8672 108.935 50.8598 108.873 50.8598 108.813ZM55.7503 108.82C55.7503 108.572 55.8099 108.403 55.9292 108.314C56.0534 108.219 56.1951 108.172 56.3541 108.172C56.4336 108.172 56.5082 108.182 56.5778 108.202C56.6523 108.222 56.7169 108.256 56.7716 108.306C56.8263 108.356 56.871 108.423 56.9058 108.507C56.9406 108.592 56.958 108.696 56.958 108.82V113.912C56.958 114.041 56.9406 114.148 56.9058 114.233C56.871 114.317 56.8263 114.384 56.7716 114.434C56.7169 114.484 56.6523 114.519 56.5778 114.538C56.5082 114.558 56.4336 114.568 56.3541 114.568C56.2746 114.568 56.1976 114.558 56.123 114.538C56.0534 114.519 55.9888 114.484 55.9292 114.434C55.8745 114.384 55.8298 114.317 55.795 114.233C55.7652 114.148 55.7503 114.041 55.7503 113.912V108.82Z" fill="black"/>
<path d="M45.397 114.657C45.1635 114.652 44.9647 114.615 44.8006 114.546C44.6366 114.481 44.5049 114.394 44.4055 114.285C44.3061 114.175 44.2341 114.049 44.1893 113.904C44.1446 113.76 44.1222 113.604 44.1222 113.435C44.1222 113.266 44.1421 113.109 44.1819 112.965C44.2216 112.816 44.2887 112.687 44.3832 112.577C44.4826 112.468 44.6143 112.381 44.7783 112.317C44.9473 112.252 45.1585 112.217 45.412 112.212H48.6027C48.8562 112.212 49.0649 112.244 49.2289 112.309C49.3979 112.374 49.5296 112.463 49.6241 112.577C49.7235 112.687 49.793 112.816 49.8328 112.965C49.8726 113.109 49.8924 113.266 49.8924 113.435C49.8924 113.604 49.8701 113.76 49.8253 113.904C49.7806 114.049 49.7061 114.175 49.6017 114.285C49.5023 114.394 49.3706 114.481 49.2066 114.546C49.0475 114.615 48.8512 114.652 48.6176 114.657H45.397ZM44.3459 111.75C44.2216 111.75 44.1222 111.74 44.0477 111.72C43.9731 111.695 43.916 111.663 43.8762 111.623C43.8365 111.579 43.8091 111.529 43.7942 111.474C43.7843 111.419 43.7793 111.357 43.7793 111.288C43.7793 111.233 43.7843 111.178 43.7942 111.124C43.8091 111.069 43.8365 111.022 43.8762 110.982C43.916 110.937 43.9731 110.903 44.0477 110.878C44.1222 110.848 44.2216 110.833 44.3459 110.833H45.8071V110.184C45.8071 110.06 45.822 109.961 45.8518 109.886C45.8866 109.807 45.9313 109.747 45.986 109.707C46.0456 109.663 46.1102 109.633 46.1798 109.618C46.2544 109.603 46.3314 109.595 46.4109 109.595C46.4905 109.595 46.565 109.603 46.6346 109.618C46.7091 109.633 46.7737 109.663 46.8284 109.707C46.8831 109.747 46.9278 109.807 46.9626 109.886C46.9974 109.961 47.0148 110.06 47.0148 110.184V110.833H49.7657C49.89 110.833 49.9894 110.848 50.0639 110.878C50.1385 110.903 50.1956 110.937 50.2354 110.982C50.2751 111.022 50.3 111.069 50.3099 111.124C50.3248 111.178 50.3323 111.233 50.3323 111.288C50.3323 111.357 50.3248 111.419 50.3099 111.474C50.3 111.529 50.2751 111.579 50.2354 111.623C50.1956 111.663 50.1385 111.695 50.0639 111.72C49.9894 111.74 49.89 111.75 49.7657 111.75H44.3459ZM49.1469 108.246C49.2811 108.246 49.3855 108.261 49.4601 108.291C49.5346 108.316 49.5918 108.353 49.6315 108.403C49.6713 108.447 49.6961 108.505 49.7061 108.574C49.716 108.644 49.721 108.723 49.721 108.813V109.185C49.721 109.369 49.7086 109.556 49.6837 109.745C49.6589 109.933 49.6166 110.102 49.557 110.252C49.5271 110.331 49.4824 110.393 49.4228 110.438C49.3631 110.478 49.2985 110.505 49.2289 110.52C49.1594 110.535 49.0873 110.542 49.0127 110.542C48.9432 110.537 48.8786 110.53 48.8189 110.52C48.6897 110.495 48.5828 110.445 48.4983 110.371C48.4188 110.291 48.3915 110.174 48.4163 110.02C48.4412 109.886 48.4586 109.779 48.4685 109.7C48.4785 109.62 48.4834 109.521 48.4834 109.402V109.2H44.9647C44.8255 109.2 44.7112 109.19 44.6217 109.171C44.5323 109.146 44.4627 109.113 44.413 109.074C44.3633 109.029 44.3285 108.977 44.3086 108.917C44.2937 108.857 44.2862 108.79 44.2862 108.716C44.2862 108.656 44.2937 108.599 44.3086 108.544C44.3285 108.485 44.3633 108.432 44.413 108.388C44.4627 108.343 44.5323 108.308 44.6217 108.283C44.7112 108.259 44.8255 108.246 44.9647 108.246H49.1469ZM48.2822 113.755C48.4263 113.745 48.5307 113.721 48.5953 113.681C48.6599 113.646 48.6922 113.564 48.6922 113.435C48.6922 113.306 48.6599 113.224 48.5953 113.189C48.5307 113.149 48.4263 113.124 48.2822 113.114H45.7325C45.5884 113.124 45.484 113.149 45.4194 113.189C45.3548 113.224 45.3225 113.306 45.3225 113.435C45.3225 113.564 45.3548 113.646 45.4194 113.681C45.484 113.721 45.5884 113.745 45.7325 113.755H48.2822Z" fill="black"/>
<path d="M41.5102 108.82C41.5102 108.572 41.5699 108.403 41.6892 108.314C41.8134 108.219 41.9551 108.172 42.1141 108.172C42.1936 108.172 42.2682 108.182 42.3377 108.202C42.4123 108.222 42.4769 108.256 42.5316 108.306C42.5862 108.356 42.631 108.423 42.6658 108.507C42.7006 108.592 42.718 108.696 42.718 108.82V111.743C42.718 111.872 42.7006 111.979 42.6658 112.063C42.631 112.148 42.5862 112.215 42.5316 112.265C42.4769 112.314 42.4123 112.349 42.3377 112.369C42.2682 112.389 42.1936 112.399 42.1141 112.399C42.0346 112.399 41.9575 112.389 41.883 112.369C41.8134 112.349 41.7488 112.314 41.6892 112.265C41.6345 112.215 41.5898 112.148 41.555 112.063C41.5251 111.979 41.5102 111.872 41.5102 111.743V108.82ZM38.2822 113.622H42.2781C42.4173 113.622 42.5316 113.636 42.621 113.666C42.7105 113.696 42.7801 113.733 42.8298 113.778C42.8795 113.828 42.9118 113.882 42.9267 113.942C42.9466 114.007 42.9565 114.069 42.9565 114.128C42.9565 114.203 42.9466 114.27 42.9267 114.33C42.9118 114.394 42.8795 114.449 42.8298 114.494C42.7801 114.543 42.7105 114.581 42.621 114.606C42.5316 114.635 42.4173 114.65 42.2781 114.65H37.6783C37.5392 114.65 37.4298 114.635 37.3503 114.606C37.2708 114.581 37.2087 114.543 37.1639 114.494C37.1242 114.449 37.0993 114.394 37.0894 114.33C37.0794 114.27 37.0745 114.203 37.0745 114.128V112.906C37.0745 112.657 37.1341 112.488 37.2534 112.399C37.3776 112.304 37.5193 112.257 37.6783 112.257C37.7579 112.257 37.8324 112.267 37.902 112.287C37.9765 112.307 38.0411 112.342 38.0958 112.391C38.1505 112.441 38.1952 112.508 38.23 112.593C38.2648 112.677 38.2822 112.782 38.2822 112.906V113.622ZM36.7539 110.043C36.7539 109.452 36.8881 108.997 37.1565 108.679C37.4298 108.361 37.8573 108.202 38.4387 108.202C39.0202 108.202 39.4452 108.361 39.7136 108.679C39.9869 108.997 40.1236 109.452 40.1236 110.043C40.1236 110.674 39.9869 111.139 39.7136 111.437C39.4452 111.73 39.0202 111.877 38.4387 111.877C37.8523 111.877 37.4249 111.72 37.1565 111.407C36.8881 111.094 36.7539 110.639 36.7539 110.043ZM37.9691 110.043C37.9691 110.167 37.9741 110.282 37.984 110.386C37.9989 110.49 38.0213 110.58 38.0511 110.654C38.0859 110.729 38.1331 110.789 38.1927 110.833C38.2573 110.873 38.3393 110.893 38.4387 110.893C38.5382 110.893 38.6177 110.873 38.6773 110.833C38.7419 110.789 38.7891 110.729 38.819 110.654C38.8537 110.58 38.8761 110.49 38.8861 110.386C38.901 110.282 38.9084 110.167 38.9084 110.043C38.9084 109.919 38.901 109.805 38.8861 109.7C38.8761 109.596 38.8537 109.506 38.819 109.432C38.7891 109.357 38.7419 109.3 38.6773 109.26C38.6177 109.216 38.5382 109.193 38.4387 109.193C38.3393 109.193 38.2573 109.216 38.1927 109.26C38.1331 109.3 38.0859 109.357 38.0511 109.432C38.0213 109.506 37.9989 109.596 37.984 109.7C37.9741 109.805 37.9691 109.919 37.9691 110.043Z" fill="black"/>
</g>
<defs>
<clipPath id="clip0_2418_107265">
<rect width="158" height="135" fill="white" transform="translate(0 0.5)"/>
</clipPath>
</defs>
</svg>
