<svg width="125" height="118" viewBox="0 0 125 118" fill="none" xmlns="http://www.w3.org/2000/svg">
<g clip-path="url(#clip0_2418_106622)">
<path d="M99.7536 61.231C99.7556 58.9918 100.491 56.8148 101.848 55.0332C103.204 53.2516 105.107 51.9633 107.265 51.3655C106.373 51.1244 105.454 50.9963 104.529 50.9844C101.812 50.9844 99.2055 52.0639 97.2839 53.9855C95.3623 55.9072 94.2827 58.5134 94.2827 61.231C94.2827 63.9486 95.3623 66.5549 97.2839 68.4765C99.2055 70.3981 101.812 71.4776 104.529 71.4776C105.454 71.4769 106.375 71.3486 107.265 71.0965C105.107 70.4987 103.204 69.2105 101.848 67.4288C100.491 65.6472 99.7556 63.4703 99.7536 61.231Z" fill="white"/>
<path d="M114.776 61.2309C114.774 58.9917 114.038 56.8148 112.682 55.0331C111.325 53.2515 109.423 51.9633 107.265 51.3655C105.1 51.9547 103.188 53.2398 101.826 55.0226C100.463 56.8055 99.7251 58.9871 99.7251 61.2309C99.7251 63.4748 100.463 65.6564 101.826 67.4393C103.188 69.2221 105.1 70.5072 107.265 71.0964C109.423 70.4986 111.325 69.2104 112.682 67.4288C114.038 65.6471 114.774 63.4702 114.776 61.2309Z" fill="#D6D9E6"/>
<path d="M63.0941 97.2848C63.1001 95.7544 63.7122 94.2888 64.7964 93.2088C65.8806 92.1288 67.3486 91.5224 68.8789 91.5224H62.3767C61.5882 91.4733 60.798 91.5861 60.0549 91.854C59.3117 92.122 58.6313 92.5393 58.0556 93.0802C57.4798 93.6211 57.021 94.2743 56.7074 94.9993C56.3937 95.7244 56.2319 96.506 56.2319 97.296C56.2319 98.086 56.3937 98.8676 56.7074 99.5926C57.021 100.318 57.4798 100.971 58.0556 101.512C58.6313 102.053 59.3117 102.47 60.0549 102.738C60.798 103.006 61.5882 103.119 62.3767 103.07H68.8789C67.3447 103.07 65.8733 102.46 64.7885 101.375C63.7036 100.29 63.0941 98.819 63.0941 97.2848Z" fill="white"/>
<path d="M80.7176 91.6121L92.87 79.4596C93.9852 78.3427 95.3099 77.4568 96.7681 76.8527C98.2263 76.2486 99.7894 75.9383 101.368 75.9395H94.8656C93.2872 75.9383 91.7241 76.2486 90.2659 76.8527C88.8077 77.4568 87.483 78.3427 86.3678 79.4596L74.2153 91.6121H80.7176Z" fill="white"/>
<path d="M123.879 116.007V87.9574C123.879 84.77 122.613 81.7132 120.359 79.4594C118.105 77.2056 115.048 75.9395 111.861 75.9395" fill="#D6D9E6"/>
<path d="M111.861 75.9395H101.458C99.8792 75.9383 98.3161 76.2486 96.8579 76.8527C95.3997 77.4568 94.075 78.3427 92.9598 79.4596L80.7177 91.6121H68.8791C68.0906 91.5629 67.3005 91.6758 66.5573 91.9437C65.8141 92.2116 65.1337 92.6289 64.558 93.1699C63.9823 93.7108 63.5235 94.3639 63.2098 95.089C62.8962 95.814 62.7344 96.5957 62.7344 97.3856C62.7344 98.1756 62.8962 98.9572 63.2098 99.6823C63.5235 100.407 63.9823 101.06 64.558 101.601C65.1337 102.142 65.8141 102.56 66.5573 102.828C67.3005 103.095 68.0906 103.208 68.8791 103.159H76.0988C79.7203 103.133 83.1883 101.693 85.7625 99.1457L88.6997 96.2309V116.074H124" fill="#D6D9E6"/>
<path fill-rule="evenodd" clip-rule="evenodd" d="M95.483 89.4477C95.8736 89.8382 95.8736 90.4714 95.483 90.8619L89.4068 96.9381C89.0163 97.3286 88.3831 97.3286 87.9926 96.9381C87.6021 96.5476 87.6021 95.9144 87.9926 95.5239L94.0688 89.4477C94.4594 89.0572 95.0925 89.0572 95.483 89.4477Z" fill="#111111"/>
<path fill-rule="evenodd" clip-rule="evenodd" d="M94.9528 76.9395C93.5062 76.9362 92.0732 77.2195 90.7367 77.7731C89.4002 78.3268 88.1867 79.1398 87.1661 80.1651L87.1645 80.1668L75.012 92.3192C74.8245 92.5068 74.5701 92.6121 74.3049 92.6121H62.3767C62.3559 92.6121 62.3351 92.6115 62.3144 92.6102C61.6623 92.5695 61.0087 92.6629 60.394 92.8845C59.7793 93.1061 59.2165 93.4512 58.7403 93.8987C58.2641 94.3461 57.8846 94.8863 57.6252 95.486C57.3658 96.0858 57.2319 96.7322 57.2319 97.3857C57.2319 98.0391 57.3658 98.6856 57.6252 99.2853C57.8846 99.885 58.2641 100.425 58.7403 100.873C59.2165 101.32 59.7793 101.665 60.394 101.887C61.0087 102.108 61.6623 102.202 62.3144 102.161C62.3351 102.16 62.3559 102.159 62.3767 102.159H76.0986L76.0998 102.159C77.7624 102.161 79.4092 101.836 80.9459 101.201C82.4826 100.566 83.8792 99.6351 85.0558 98.4605L87.9924 95.5239C88.2784 95.2379 88.7085 95.1523 89.0822 95.3071C89.4559 95.4619 89.6995 95.8265 89.6995 96.231V116.007C89.6995 116.559 89.2518 117.007 88.6995 117.007C88.1472 117.007 87.6995 116.559 87.6995 116.007V98.6452L86.4694 99.8753C85.1068 101.236 83.4889 102.315 81.7093 103.05C79.9297 103.784 78.0228 104.162 76.0974 104.159L76.1683 104.159L76.0986 104.159H76.0974H62.4066C62.4173 104.159 62.4281 104.158 62.4389 104.157L62.4066 104.159C61.4925 104.212 60.5772 104.079 59.7157 103.768C58.8441 103.454 58.0461 102.965 57.3708 102.33C56.6956 101.696 56.1574 100.93 55.7896 100.079C55.4217 99.229 55.2319 98.3122 55.2319 97.3857C55.2319 96.4591 55.4217 95.5424 55.7896 94.692C56.1574 93.8416 56.6956 93.0756 57.3708 92.4411C58.0461 91.8067 58.8441 91.3172 59.7157 91.003C60.5772 90.6924 62.4389 90.6141 62.4066 90.6121H62.3767L62.4389 90.6141C62.4281 90.6134 62.4173 90.6128 62.4066 90.6121H73.8907L85.7486 78.7542L85.7503 78.7526L85.7493 78.7535C86.9561 77.5412 88.391 76.58 89.9713 75.9254C91.5515 75.2708 93.2458 74.9357 94.9562 74.9395H111.861C115.314 74.9395 118.625 76.311 121.066 78.7524C123.507 81.1937 124.879 84.5049 124.879 87.9574V116.007C124.879 116.559 124.431 117.007 123.879 117.007C123.327 117.007 122.879 116.559 122.879 116.007V87.9574C122.879 85.0353 121.718 82.2328 119.652 80.1666C117.586 78.1003 114.783 76.9395 111.861 76.9395H94.9551L94.9528 76.9395Z" fill="#111111"/>
<path fill-rule="evenodd" clip-rule="evenodd" d="M100.998 52.6884C96.2797 54.6427 94.0392 60.0517 95.9935 64.7697C97.9477 69.4877 103.357 71.7282 108.075 69.7739C112.793 67.8197 115.033 62.4107 113.079 57.6926C111.125 52.9746 105.716 50.7341 100.998 52.6884ZM94.1457 65.5351C91.7687 59.7965 94.4938 53.2176 100.232 50.8406C105.971 48.4637 112.55 51.1887 114.927 56.9273C117.304 62.6658 114.579 69.2447 108.84 71.6217C103.102 73.9987 96.5227 71.2736 94.1457 65.5351Z" fill="#111111"/>
<path d="M15.695 60.8946C15.697 58.6553 16.4325 56.4784 17.789 54.6968C19.1455 52.9151 21.0482 51.6269 23.2062 51.0291C22.3162 50.777 21.3957 50.6487 20.4708 50.6479C17.7532 50.6479 15.1469 51.7275 13.2253 53.6491C11.3037 55.5707 10.2241 58.177 10.2241 60.8946C10.2241 63.6122 11.3037 66.2184 13.2253 68.14C15.1469 70.0617 17.7532 71.1412 20.4708 71.1412C21.3957 71.1404 22.3162 71.0122 23.2062 70.7601C21.0482 70.1623 19.1455 68.874 17.789 67.0924C16.4325 65.3108 15.697 63.1338 15.695 60.8946Z" fill="white"/>
<path d="M30.7173 60.8945C30.7153 58.6553 29.9798 56.4783 28.6233 54.6967C27.2669 52.9151 25.3641 51.6268 23.2061 51.0291C21.041 51.6182 19.1298 52.9033 17.7672 54.6862C16.4047 56.469 15.6665 58.6506 15.6665 60.8945C15.6665 63.1384 16.4047 65.32 17.7672 67.1028C19.1298 68.8857 21.041 70.1708 23.2061 70.76C25.3641 70.1622 27.2669 68.874 28.6233 67.0923C29.9798 65.3107 30.7153 63.1338 30.7173 60.8945Z" fill="#6099FF"/>
<path d="M18.6099 75.6033H13.139C9.95556 75.6033 6.90214 76.8664 4.64898 79.1153C2.39583 81.3643 1.12703 84.4153 1.12109 87.5988V115.648H6.59195V87.5988C6.59789 84.4153 7.86668 81.3643 10.1198 79.1153C12.373 76.8664 15.4264 75.6033 18.6099 75.6033Z" fill="white"/>
<path d="M62.6232 91.2533H50.6949L38.5425 79.1008C36.2823 76.8594 33.2278 75.6021 30.0447 75.603H18.6097C17.0326 75.6001 15.4703 75.9082 14.0124 76.5097C12.5544 77.1112 11.2294 77.9943 10.1131 79.1085C8.99686 80.2227 8.11127 81.5461 7.50704 83.0029C6.90281 84.4597 6.59179 86.0214 6.5918 87.5986V115.648H36.3003V95.8721L39.2375 98.8093C39.999 99.5737 40.8497 100.244 41.7712 100.805C43.9174 102.12 46.3843 102.818 48.9012 102.823H62.6232C63.3829 102.823 64.1351 102.673 64.8369 102.382C65.5388 102.092 66.1765 101.666 66.7136 101.128C67.2508 100.591 67.6769 99.9536 67.9676 99.2518C68.2583 98.5499 68.4079 97.7977 68.4079 97.038C68.4079 96.2784 68.2583 95.5261 67.9676 94.8243C67.6769 94.1225 67.2508 93.4848 66.7136 92.9476C66.1765 92.4104 65.5388 91.9843 64.8369 91.6936C64.1351 91.4029 63.3829 91.2533 62.6232 91.2533Z" fill="#6099FF"/>
<path fill-rule="evenodd" clip-rule="evenodd" d="M18.2768 49.8641C20.4584 49.4301 22.7197 49.6528 24.7748 50.5041C26.8298 51.3553 28.5863 52.7968 29.8221 54.6463C31.0579 56.4958 31.7175 58.6702 31.7175 60.8946L31.7175 60.8968C31.711 63.877 30.5242 66.7333 28.4169 68.8406C26.3096 70.948 23.4533 72.1347 20.4731 72.1412L20.4709 72.1412C18.2465 72.1412 16.0721 71.4816 14.2226 70.2458C12.3731 69.01 10.9316 67.2535 10.0803 65.1985C9.2291 63.1434 9.00638 60.8821 9.44033 58.7005C9.87429 56.5188 10.9454 54.5149 12.5183 52.942C14.0912 51.3691 16.0951 50.298 18.2768 49.8641ZM24.0094 52.3518C22.3198 51.652 20.4606 51.4688 18.6669 51.8256C16.8733 52.1824 15.2257 53.0631 13.9325 54.3562C12.6393 55.6494 11.7587 57.297 11.4019 59.0907C11.0451 60.8843 11.2282 62.7435 11.9281 64.4331C12.6279 66.1227 13.8131 67.5669 15.3337 68.5829C16.854 69.5987 18.6412 70.141 20.4696 70.1412C22.9206 70.1356 25.2696 69.1595 27.0027 67.4264C28.7358 65.6933 29.7119 63.3443 29.7175 60.8933C29.7173 59.0649 29.175 57.2777 28.1592 55.7574C27.1431 54.2368 25.699 53.0517 24.0094 52.3518ZM13.1399 74.6031L13.1409 74.6031L30.0446 74.6031C33.4915 74.6022 36.7993 75.9636 39.2468 78.3908L39.2497 78.3938L51.1093 90.2533H62.6233C63.5143 90.2533 64.3966 90.4288 65.2197 90.7698C66.0429 91.1108 66.7909 91.6105 67.4209 92.2405C68.0509 92.8706 68.5507 93.6185 68.8916 94.4417C69.2326 95.2648 69.4081 96.1471 69.4081 97.0381C69.4081 97.9291 69.2326 98.8113 68.8916 99.6345C68.5507 100.458 68.0509 101.206 67.4209 101.836C66.7909 102.466 66.0429 102.965 65.2197 103.306C64.3966 103.647 63.5143 103.823 62.6233 103.823H48.9003C45.0093 103.819 41.2792 102.269 38.53 99.5159L37.3005 98.2864V115.648C37.3005 116.2 36.8528 116.648 36.3005 116.648C35.7482 116.648 35.3005 116.2 35.3005 115.648V96.2864L29.5171 90.503C29.1266 90.1125 29.1266 89.4794 29.5171 89.0888C29.9076 88.6983 30.5408 88.6983 30.9313 89.0888L39.9448 98.1023C42.3194 100.481 45.5417 101.819 48.9025 101.823H62.6233C63.2517 101.823 63.8739 101.699 64.4544 101.459C65.0349 101.218 65.5624 100.866 66.0067 100.421C66.451 99.9771 66.8034 99.4496 67.0439 98.8691C67.2843 98.2886 67.4081 97.6664 67.4081 97.0381C67.4081 96.4097 67.2843 95.7875 67.0439 95.207C66.8034 94.6265 66.451 94.0991 66.0067 93.6548C65.5624 93.2104 65.0349 92.858 64.4544 92.6175C63.8739 92.3771 63.2517 92.2533 62.6233 92.2533H50.6951C50.4299 92.2533 50.1755 92.148 49.988 91.9604L37.8385 79.8109L37.8371 79.8096C35.7645 77.7548 32.9638 76.6022 30.0452 76.6031H13.139L13.1372 76.6031C11.6915 76.6004 10.2595 76.8828 8.92305 77.4342C7.58664 77.9856 6.37208 78.7951 5.34887 79.8163C4.32566 80.8376 3.5139 82.0507 2.96004 83.3861C2.40618 84.7215 2.12109 86.1529 2.12109 87.5986V115.648C2.12109 116.2 1.67338 116.648 1.12109 116.648C0.568809 116.648 0.121094 116.2 0.121094 115.648V87.5986C0.121091 85.89 0.458033 84.1981 1.11264 82.6198C1.76724 81.0416 2.72666 79.6079 3.93598 78.4008C5.14529 77.1938 6.58078 76.237 8.16027 75.5854C9.73945 74.9338 11.4316 74.6001 13.1399 74.6031Z" fill="#111111"/>
<path d="M91.7043 1.99329H33.4083C29.9593 1.99329 26.6515 3.3634 24.2127 5.80221C21.7739 8.24103 20.4038 11.5488 20.4038 14.9978V26.9933C20.4038 28.7011 20.7402 30.3921 21.3937 31.9699C22.0473 33.5477 23.0052 34.9813 24.2127 36.1888C26.6515 38.6277 29.9593 39.9978 33.4083 39.9978H35.0451V51.2085L46.2558 39.9978H78.8791L90.0899 51.2085V39.9978H91.7267C95.1718 39.9918 98.4738 38.6191 100.908 36.1809C103.342 33.7428 104.709 30.4384 104.709 26.9933V14.9978C104.709 11.5488 103.339 8.24103 100.9 5.80221C98.461 3.3634 95.1533 1.99329 91.7043 1.99329Z" fill="white"/>
<path fill-rule="evenodd" clip-rule="evenodd" d="M23.5056 5.09511C26.132 2.46876 29.6941 0.993286 33.4083 0.993286H91.7043C95.4185 0.993286 98.9806 2.46875 101.607 5.09511C104.233 7.72146 105.709 11.2836 105.709 14.9978V26.9933C105.709 30.7033 104.237 34.2618 101.615 36.8874C98.9943 39.5131 95.4384 40.9914 91.7284 40.9978H91.0899V51.2085C91.0899 51.613 90.8463 51.9776 90.4726 52.1324C90.0989 52.2872 89.6688 52.2016 89.3828 51.9156L78.4649 40.9978H46.67L35.7522 51.9156C35.4662 52.2016 35.0361 52.2872 34.6624 52.1324C34.2887 51.9776 34.0451 51.613 34.0451 51.2085V40.9978H33.4083C29.6941 40.9978 26.132 39.5223 23.5056 36.896C22.2052 35.5955 21.1736 34.0517 20.4698 32.3526C19.766 30.6535 19.4038 28.8324 19.4038 26.9933V14.9978C19.4038 11.2836 20.8793 7.72146 23.5056 5.09511ZM33.4083 2.99329C30.2245 2.99329 27.1711 4.25804 24.9198 6.50932C22.6686 8.7606 21.4038 11.814 21.4038 14.9978V26.9933C21.4038 28.5697 21.7143 30.1308 22.3176 31.5872C22.9209 33.0437 23.8051 34.367 24.9198 35.4817C27.1711 37.733 30.2245 38.9978 33.4083 38.9978H35.0451C35.5973 38.9978 36.0451 39.4455 36.0451 39.9978V48.7943L45.5487 39.2907C45.7363 39.1031 45.9906 38.9978 46.2558 38.9978H78.8791C79.1444 38.9978 79.3987 39.1031 79.5863 39.2907L89.0899 48.7943V39.9978C89.0899 39.4455 89.5376 38.9978 90.0899 38.9978H91.725C94.9052 38.9923 97.9532 37.7251 100.2 35.4744C102.447 33.2237 103.709 30.1735 103.709 26.9933V14.9978C103.709 11.814 102.444 8.76059 100.193 6.50932C97.9414 4.25804 94.888 2.99329 91.7043 2.99329H33.4083Z" fill="#111111"/>
<path fill-rule="evenodd" clip-rule="evenodd" d="M62.4998 10.4032C61.8976 10.4032 61.3018 10.5267 60.7493 10.7661C60.1967 11.0054 59.6992 11.3556 59.2873 11.7949C58.8754 12.2342 58.558 12.7533 58.3547 13.3201C58.1514 13.8869 58.0666 14.4894 58.1053 15.0903C58.1067 15.1117 58.1074 15.1332 58.1074 15.1547V25.3654H66.8922V15.1547C66.8922 15.1332 66.8929 15.1117 66.8942 15.0903C66.933 14.4894 66.8481 13.8869 66.6448 13.3201C66.4415 12.7533 66.1241 12.2342 65.7123 11.7949C65.3004 11.3556 64.8028 11.0054 64.2503 10.7661C63.6977 10.5267 63.1019 10.4032 62.4998 10.4032ZM59.9543 8.93088C60.7578 8.58279 61.6241 8.4032 62.4998 8.4032C63.3754 8.4032 64.2418 8.58279 65.0453 8.93088C65.8488 9.27896 66.5724 9.78815 67.1713 10.427C67.7702 11.0658 68.2317 11.8206 68.5274 12.6449C68.8192 13.4586 68.9433 14.3228 68.8922 15.1855V26.3654C68.8922 26.9177 68.4444 27.3654 67.8922 27.3654H57.1074C56.5551 27.3654 56.1074 26.9177 56.1074 26.3654V15.1855C56.0563 14.3228 56.1803 13.4586 56.4722 12.6449C56.7678 11.8206 57.2294 11.0658 57.8283 10.427C58.4272 9.78815 59.1508 9.27896 59.9543 8.93088Z" fill="#111111"/>
<path d="M72.6231 20.1547H52.3765V32.8677H72.6231V20.1547Z" fill="#6099FF"/>
<path fill-rule="evenodd" clip-rule="evenodd" d="M51.3765 20.1547C51.3765 19.6024 51.8242 19.1547 52.3765 19.1547H72.6231C73.1754 19.1547 73.6231 19.6024 73.6231 20.1547V32.8677C73.6231 33.42 73.1754 33.8677 72.6231 33.8677H52.3765C51.8242 33.8677 51.3765 33.42 51.3765 32.8677V20.1547ZM53.3765 21.1547V31.8677H71.6231V21.1547H53.3765Z" fill="#111111"/>
</g>
<defs>
<clipPath id="clip0_2418_106622">
<rect width="125" height="116.256" fill="white" transform="translate(0 0.872192)"/>
</clipPath>
</defs>
</svg>
