<svg width="125" height="124" viewBox="0 0 125 124" fill="none" xmlns="http://www.w3.org/2000/svg">
<g clip-path="url(#clip0_2418_106398)">
<path d="M49.2982 107.588H41.9785V122.252H49.2982V107.588Z" fill="white"/>
<path d="M27.5362 96.9282V81.4046H22.1078C21.6085 81.4009 21.1206 81.2552 20.7012 80.9843C20.2818 80.7135 19.9481 80.3288 19.7394 79.8752C19.5307 79.4217 19.4554 78.918 19.5225 78.4233C19.5896 77.9285 19.7962 77.4631 20.1182 77.0815L27.4871 68.4109C29.2425 66.3565 30.209 63.7442 30.2135 61.042C30.218 51.44 33.7977 42.1837 40.2549 35.0771C46.7121 27.9706 55.5841 23.523 65.1418 22.6013H64.2575C58.9797 22.2245 53.6808 22.9357 48.6892 24.691C43.6976 26.4462 39.1197 29.208 35.2392 32.8052C31.3588 36.4023 28.2586 40.7582 26.1308 45.6027C24.0029 50.4472 22.8928 55.6772 22.8693 60.9683C22.8647 63.6705 21.8982 66.2828 20.1428 68.3372L12.774 77.0078C12.4301 77.3858 12.2038 77.8559 12.123 78.3605C12.0421 78.8651 12.1101 79.3823 12.3186 79.8488C12.5271 80.3154 12.8671 80.711 13.297 80.9873C13.7269 81.2636 14.228 81.4086 14.739 81.4046H20.2165V96.9282C20.2165 99.7555 21.3396 102.467 23.3388 104.466C25.338 106.465 28.0494 107.588 30.8767 107.588H38.2456C35.4183 107.588 32.7068 106.465 30.7076 104.466C28.7084 102.467 27.5853 99.7555 27.5853 96.9282" fill="white"/>
<path d="M93.806 82.1906C97.4422 76.6233 99.58 70.2118 100.013 63.5763C100.445 56.9408 99.1581 50.3059 96.2755 44.3136C93.393 38.3213 89.0127 33.1743 83.5584 29.3707C78.1042 25.567 71.7605 23.2353 65.1412 22.6013C55.5918 23.5161 46.7241 27.9507 40.2636 35.0423C33.8031 42.1339 30.2118 51.3752 30.1884 60.9684C30.1839 63.6706 29.2173 66.2829 27.4619 68.3372L20.0931 77.0079C19.7461 77.389 19.5188 77.8636 19.4395 78.3729C19.3602 78.8821 19.4323 79.4034 19.647 79.872C19.8616 80.3405 20.2093 80.7356 20.6467 81.0081C21.0842 81.2806 21.5921 81.4185 22.1073 81.4046H27.5602V96.9283C27.5602 99.7556 28.6833 102.467 30.6825 104.466C32.6817 106.465 35.3932 107.589 38.2204 107.589H49.3228V122.326H85.9705V109.062C85.9129 99.5531 88.6457 90.2359 93.8306 82.2643" fill="#D6D9E6"/>
<path d="M85.971 122.253V108.989C85.9135 99.4794 88.6463 90.1622 93.8311 82.1906C97.1264 77.1578 99.201 71.4251 99.8897 65.4491C100.578 59.473 99.8622 53.4187 97.7981 47.7683C95.7339 42.1179 92.379 37.0275 88.0004 32.9026C83.6218 28.7776 78.3404 25.732 72.5771 24.0084C66.8137 22.2848 60.7274 21.9307 54.803 22.9744C48.8787 24.0181 43.2798 26.4307 38.4524 30.0201C33.625 33.6095 29.7024 38.2765 26.997 43.6494C24.2916 49.0223 22.8782 54.9528 22.8693 60.9684C22.8647 63.6705 21.8982 66.2828 20.1428 68.3372L12.774 77.0079C12.4301 77.3859 12.2038 77.8559 12.123 78.3605C12.0421 78.8651 12.1101 79.3823 12.3186 79.8489C12.5271 80.3154 12.8671 80.711 13.297 80.9874C13.7269 81.2637 14.228 81.4087 14.739 81.4046H20.2165V96.9283C20.2165 99.7555 21.3396 102.467 23.3388 104.466C25.338 106.465 28.0494 107.589 30.8767 107.589H41.9791V122.326" stroke="#111111" stroke-width="2" stroke-linecap="round" stroke-linejoin="round"/>
<path d="M60.8921 11.1059C54.8615 10.6995 48.8116 11.534 43.1162 13.5578C37.4208 15.5815 32.2009 18.7516 27.7788 22.8721C23.3567 26.9926 19.8265 31.976 17.4062 37.5146C14.9859 43.0531 13.7269 49.029 13.707 55.0733C13.7056 58.1713 12.5996 61.1672 10.5875 63.5229L2.16245 73.348C1.78899 73.7812 1.54845 74.3129 1.46971 74.8795C1.39097 75.446 1.47736 76.0232 1.71852 76.5418C1.95969 77.0604 2.34537 77.4985 2.82931 77.8033C3.31324 78.1082 3.87487 78.2669 4.44679 78.2605H10.6612V95.9949C10.6596 98.592 11.4813 101.123 13.0084 103.223C14.5354 105.324 16.689 106.887 19.1599 107.687C20.4476 108.083 21.8096 108.175 23.1391 107.957C32.6203 106.508 42.6174 102.43 47.0632 92.1385C56.1514 71.1865 68.5311 49.5712 101.101 46.5745C99.2102 37.0741 94.2512 28.4576 86.9867 22.0496C79.7222 15.6416 70.5543 11.7967 60.8921 11.1059Z" fill="white"/>
<path d="M60.8921 11.1059C54.8615 10.6995 48.8116 11.534 43.1162 13.5578C37.4208 15.5815 32.2009 18.7516 27.7788 22.8721C23.3567 26.9926 19.8265 31.976 17.4062 37.5146C14.9859 43.0531 13.7269 49.029 13.707 55.0733C13.7056 58.1713 12.5996 61.1672 10.5875 63.5229L2.16245 73.348C1.78899 73.7812 1.54845 74.3129 1.46971 74.8795C1.39097 75.446 1.47736 76.0232 1.71852 76.5418C1.95969 77.0604 2.34537 77.4985 2.82931 77.8033C3.31324 78.1082 3.87487 78.2669 4.44679 78.2605H10.6612V95.9949C10.6596 98.592 11.4813 101.123 13.0084 103.223C14.5354 105.324 16.689 106.887 19.1599 107.687C20.4476 108.083 21.8096 108.175 23.1391 107.957C32.6203 106.508 42.6174 102.43 47.0632 92.1385C56.1514 71.1865 68.5311 49.5712 101.101 46.5745C99.2102 37.0741 94.2512 28.4576 86.9867 22.0496C79.7222 15.6416 70.5543 11.7967 60.8921 11.1059Z" stroke="#111111" stroke-width="2" stroke-linecap="round" stroke-linejoin="round"/>
<path d="M114.071 29.1104C114.621 27.6553 114.714 26.067 114.337 24.5577C113.96 23.0485 113.132 21.6903 111.962 20.6647C110.792 19.6392 109.337 18.9953 107.792 18.819C106.246 18.6427 104.683 18.9425 103.313 19.6783C101.943 15.2273 99.0198 11.4164 95.0758 8.93968C91.1319 6.46301 86.4296 5.48535 81.8253 6.18477C77.221 6.88419 73.0212 9.21415 69.9906 12.7503C66.9601 16.2864 65.3005 20.7935 65.3142 25.4506C65.3115 26.5788 65.4101 27.705 65.6089 28.8157C62.3532 29.0675 59.3238 30.5783 57.1638 33.0272C55.0038 35.4762 53.8832 38.6705 54.0399 41.9322C54.2594 45.1964 55.7208 48.2525 58.1237 50.4727C60.5266 52.6929 63.6886 53.9085 66.9599 53.8697H68.9986C69.9552 53.8877 70.8856 54.1847 71.6758 54.7241C72.466 55.2635 73.0815 56.0219 73.4466 56.9062C73.8118 57.7905 73.9109 58.7622 73.7316 59.702C73.5523 60.6418 73.1025 61.5087 72.4374 62.1965L65.2405 69.3934C64.6412 69.996 64.3058 70.812 64.3081 71.6618C64.3104 72.5117 64.6502 73.3259 65.2528 73.9252C65.8554 74.5245 66.6714 74.8599 67.5212 74.8576C68.3711 74.8553 69.1853 74.5155 69.7846 73.9129L82.066 61.6315C82.8896 60.8111 83.4388 59.7556 83.638 58.6103C83.8687 57.2981 84.5538 56.109 85.5733 55.2512C86.5927 54.3934 87.8815 53.9218 89.2138 53.9188H110.755C114.055 53.9552 117.241 52.7159 119.648 50.4595C122.055 48.2032 123.498 45.1041 123.675 41.8094C123.773 38.8854 122.843 36.0196 121.049 33.709C119.254 31.3985 116.707 29.7889 113.85 29.1595" fill="#6099FF"/>
<path d="M114.071 29.1104C114.621 27.6553 114.714 26.067 114.337 24.5577C113.96 23.0485 113.132 21.6903 111.962 20.6647C110.792 19.6392 109.337 18.9953 107.792 18.819C106.246 18.6427 104.683 18.9425 103.313 19.6783C101.943 15.2273 99.0198 11.4164 95.0758 8.93968C91.1319 6.46301 86.4296 5.48535 81.8253 6.18477C77.221 6.88419 73.0212 9.21415 69.9906 12.7503C66.9601 16.2864 65.3005 20.7935 65.3142 25.4506C65.3115 26.5788 65.4101 27.705 65.6089 28.8157C62.3532 29.0675 59.3238 30.5783 57.1638 33.0272C55.0038 35.4762 53.8832 38.6705 54.0399 41.9322C54.2594 45.1964 55.7208 48.2525 58.1237 50.4727C60.5266 52.6929 63.6886 53.9085 66.9599 53.8697H68.9986C69.9552 53.8877 70.8856 54.1847 71.6758 54.7241C72.466 55.2635 73.0814 56.0219 73.4466 56.9062C73.8118 57.7905 73.9109 58.7622 73.7316 59.702C73.5523 60.6418 73.1025 61.5087 72.4374 62.1965L65.2405 69.3934C64.6412 69.996 64.3058 70.812 64.3081 71.6618C64.3104 72.5117 64.6502 73.3259 65.2528 73.9252C65.8554 74.5245 66.6713 74.8599 67.5212 74.8576C68.3711 74.8553 69.1853 74.5155 69.7846 73.9129L82.066 61.6315C82.8896 60.8111 83.4388 59.7556 83.638 58.6103C83.8687 57.2981 84.5538 56.109 85.5732 55.2512C86.5927 54.3934 87.8815 53.9218 89.2138 53.9188H110.755C114.055 53.9552 117.241 52.7159 119.648 50.4595C122.055 48.2032 123.498 45.1041 123.675 41.8094C123.795 38.9075 122.902 36.0543 121.15 33.7378C119.398 31.4214 116.896 29.7856 114.071 29.1104Z" stroke="#111111" stroke-width="2" stroke-linecap="round" stroke-linejoin="round"/>
<path d="M84.7417 12.6288C81.3411 12.6288 78.0799 13.9796 75.6753 16.3842C73.2708 18.7887 71.9199 22.05 71.9199 25.4506" stroke="#111111" stroke-width="2" stroke-linecap="round" stroke-linejoin="round"/>
<path d="M29.476 63.0561C29.476 65.7826 28.1741 67.9687 26.553 67.9687C24.9319 67.9687 23.6055 65.7335 23.6055 63.0561C23.6055 60.3788 24.9319 58.1436 26.553 58.1436C28.1741 58.1436 29.476 60.3788 29.476 63.0561Z" fill="#111111"/>
<path d="M80.8117 86.9803C80.8117 85.654 80.4184 84.3576 79.6816 83.2549C78.9447 82.1521 77.8975 81.2926 76.6722 80.7851C75.4469 80.2776 74.0986 80.1448 72.7978 80.4035C71.4971 80.6622 70.3022 81.3009 69.3644 82.2387C68.4266 83.1765 67.788 84.3713 67.5292 85.6721C67.2705 86.9729 67.4033 88.3211 67.9108 89.5464C68.4184 90.7717 69.2778 91.819 70.3806 92.5558C71.4833 93.2927 72.7798 93.6859 74.106 93.6859C75.8845 93.6859 77.5901 92.9795 78.8476 91.7219C80.1052 90.4644 80.8117 88.7587 80.8117 86.9803Z" fill="#53566A"/>
<path d="M80.8117 86.9803C80.8117 85.654 80.4184 84.3576 79.6816 83.2549C78.9447 82.1521 77.8975 81.2926 76.6722 80.7851C75.4469 80.2776 74.0986 80.1448 72.7978 80.4035C71.4971 80.6622 70.3022 81.3009 69.3644 82.2387C68.4266 83.1765 67.788 84.3713 67.5292 85.6721C67.2705 86.9729 67.4033 88.3211 67.9108 89.5464C68.4184 90.7717 69.2778 91.819 70.3806 92.5558C71.4833 93.2927 72.7798 93.6859 74.106 93.6859C75.8845 93.6859 77.5901 92.9795 78.8476 91.7219C80.1052 90.4644 80.8117 88.7587 80.8117 86.9803Z" stroke="#111111" stroke-width="2" stroke-linecap="round" stroke-linejoin="round"/>
<path d="M92.5044 102.553L73.9103 90.6892C73.5398 90.4598 73.2185 90.1591 72.9651 89.8045C72.7117 89.4499 72.5312 89.0486 72.4342 88.6237C72.3372 88.1988 72.3255 87.7589 72.3998 87.3295C72.4741 86.9 72.633 86.4897 72.8671 86.1221C73.1013 85.7546 73.4062 85.4372 73.764 85.1884C74.1218 84.9396 74.5255 84.7643 74.9516 84.6728C75.3777 84.5813 75.8177 84.5752 76.2461 84.6551C76.6746 84.735 77.0829 84.8991 77.4474 85.138L96.066 97.0019C96.4305 97.2357 96.7453 97.5391 96.9926 97.8946C97.2398 98.2502 97.4146 98.6509 97.507 99.074C97.5994 99.4971 97.6075 99.9343 97.531 100.361C97.4544 100.787 97.2946 101.194 97.0608 101.558C96.8269 101.923 96.5235 102.238 96.168 102.485C95.8124 102.732 95.4117 102.907 94.9886 102.999C94.5655 103.092 94.1283 103.1 93.7021 103.023C93.2758 102.947 92.8689 102.787 92.5044 102.553Z" fill="white"/>
<path d="M92.5044 102.553L73.9103 90.6892C73.5398 90.4598 73.2185 90.1591 72.9651 89.8045C72.7117 89.4499 72.5312 89.0486 72.4342 88.6237C72.3372 88.1988 72.3255 87.7589 72.3998 87.3295C72.4741 86.9 72.633 86.4897 72.8671 86.1221C73.1013 85.7546 73.4062 85.4372 73.764 85.1884C74.1218 84.9396 74.5255 84.7643 74.9516 84.6728C75.3777 84.5813 75.8177 84.5752 76.2461 84.6551C76.6746 84.735 77.0829 84.8991 77.4474 85.138L96.066 97.0019C96.4305 97.2357 96.7453 97.5391 96.9926 97.8946C97.2398 98.2502 97.4146 98.6509 97.507 99.074C97.5994 99.4971 97.6075 99.9343 97.531 100.361C97.4544 100.787 97.2946 101.194 97.0608 101.558C96.8269 101.923 96.5235 102.238 96.168 102.485C95.8124 102.732 95.4117 102.907 94.9886 102.999C94.5655 103.092 94.1283 103.1 93.7021 103.023C93.2758 102.947 92.8689 102.787 92.5044 102.553Z" stroke="#111111" stroke-width="2" stroke-linecap="round" stroke-linejoin="round"/>
<path d="M1.44922 19.5064H17.3413M1.44922 10.7129H10.6357M1.44922 1.94397H35.395" stroke="#6099FF" stroke-width="2" stroke-linecap="round" stroke-linejoin="round"/>
<path d="M32.3999 44.978L38.3933 50.9713H47.8745L61.7033 64.8001M33.1614 42.2515C33.1614 41.5606 32.9562 40.8853 32.5718 40.3112C32.1875 39.7371 31.6413 39.2901 31.0025 39.0268C30.3637 38.7636 29.6612 38.6959 28.9839 38.8325C28.3067 38.9691 27.6852 39.3037 27.1984 39.794C26.7116 40.2842 26.3814 40.908 26.2496 41.5862C26.1178 42.2644 26.1904 42.9665 26.4582 43.6034C26.7259 44.2403 27.1768 44.7833 27.7536 45.1636C28.3304 45.5439 29.0072 45.7443 29.698 45.7394C30.1549 45.7394 30.6073 45.649 31.0291 45.4735C31.4509 45.2979 31.8338 45.0406 32.1557 44.7164C32.4776 44.3921 32.7322 44.0074 32.9048 43.5844C33.0774 43.1614 33.1646 42.7084 33.1614 42.2515Z" stroke="#111111" stroke-width="2" stroke-linecap="round" stroke-linejoin="round"/>
</g>
<defs>
<clipPath id="clip0_2418_106398">
<rect width="125" height="123.01" fill="white" transform="translate(0 0.494751)"/>
</clipPath>
</defs>
</svg>
