<svg width="125" height="120" viewBox="0 0 125 120" fill="none" xmlns="http://www.w3.org/2000/svg">
<g clip-path="url(#clip0_2418_109146)">
<path d="M123.913 1.46777H42.3145V73.2335H123.913V1.46777Z" fill="white"/>
<path fill-rule="evenodd" clip-rule="evenodd" d="M41.3145 1.46777C41.3145 0.915489 41.7622 0.467773 42.3145 0.467773H123.913C124.465 0.467773 124.913 0.915489 124.913 1.46777V73.2335C124.913 73.7858 124.465 74.2335 123.913 74.2335H42.3145C41.7622 74.2335 41.3145 73.7858 41.3145 73.2335V1.46777ZM43.3145 2.46777V72.2335H122.913V2.46777H43.3145Z" fill="#111111"/>
<path d="M49.6948 89.4512C49.6985 88.0845 50.1252 86.7525 50.9165 85.6382C51.7077 84.5238 52.8246 83.6818 54.1137 83.2278C53.4058 82.9868 52.6636 82.8618 51.9158 82.8577C50.1671 82.8577 48.49 83.5523 47.2535 84.7889C46.0169 86.0254 45.3223 87.7025 45.3223 89.4512C45.3223 91.1999 46.0169 92.877 47.2535 94.1136C48.49 95.3501 50.1671 96.0448 51.9158 96.0448C52.6636 96.0406 53.4058 95.9156 54.1137 95.6746C52.8246 95.2206 51.7077 94.3786 50.9165 93.2643C50.1252 92.1499 49.6985 90.8179 49.6948 89.4512Z" fill="white"/>
<path d="M58.5094 89.4514C58.5074 88.0875 58.084 86.7575 57.2972 85.6435C56.5103 84.5295 55.3984 83.6858 54.1136 83.228C52.8233 83.6796 51.7053 84.5211 50.9142 85.6361C50.1232 86.7511 49.6982 88.0843 49.6982 89.4514C49.6982 90.8185 50.1232 92.1518 50.9142 93.2667C51.7053 94.3817 52.8233 95.2232 54.1136 95.6748C55.3984 95.217 56.5103 94.3734 57.2972 93.2593C58.084 92.1453 58.5074 90.8153 58.5094 89.4514Z" fill="#D6D9E6"/>
<path d="M50.4581 99.8623H46.0624C43.7838 99.8623 41.5983 100.766 39.985 102.375C38.3716 103.984 37.4622 106.167 37.4561 108.445V118.371H41.8518V108.353C41.8822 106.091 42.8023 103.931 44.413 102.342C46.0237 100.753 48.1954 99.8621 50.4581 99.8623Z" fill="white"/>
<path d="M57.8381 99.8623H50.4579C48.1794 99.8623 45.9938 100.766 44.3805 102.375C42.7671 103.984 41.8577 106.167 41.8516 108.445V118.371H66.3518V108.353C66.3277 106.105 65.4222 103.955 63.8301 102.368C62.238 100.78 60.0865 99.8804 57.8381 99.8623Z" fill="#D6D9E6"/>
<path fill-rule="evenodd" clip-rule="evenodd" d="M50.4131 81.9566C51.8931 81.6635 53.4267 81.8166 54.8196 82.3964C56.2124 82.9762 57.4017 83.9566 58.2366 85.2132C59.0715 86.4698 59.5144 87.9461 59.5092 89.4548C59.5021 91.4657 58.7002 93.3921 57.2783 94.814C55.8564 96.2359 53.93 97.0378 51.9191 97.0449C50.4104 97.0501 48.9341 96.6072 47.6775 95.7723C46.4209 94.9374 45.4405 93.7481 44.8607 92.3553C44.2809 90.9624 44.1278 89.4288 44.4209 87.9488C44.7139 86.4688 45.4399 85.1092 46.5067 84.0424C47.5735 82.9756 48.9331 82.2496 50.4131 81.9566ZM54.051 84.2428C53.0239 83.8153 51.8929 83.7024 50.8016 83.9185C49.7102 84.1346 48.7076 84.6699 47.9209 85.4566C47.1342 86.2433 46.5989 87.2459 46.3828 88.3373C46.1667 89.4286 46.2796 90.5596 46.7071 91.5867C47.1347 92.6138 47.8576 93.4908 48.7843 94.1065C49.7109 94.7222 50.7996 95.0488 51.9121 95.0449C53.395 95.0397 54.8156 94.4484 55.8641 93.3998C56.9127 92.3513 57.504 90.9307 57.5092 89.4478C57.5131 88.3353 57.1865 87.2467 56.5708 86.32C55.9551 85.3933 55.0781 84.6704 54.051 84.2428ZM46.0623 100.862C44.0626 100.862 42.1432 101.649 40.7196 103.054C39.2976 104.457 38.4846 106.363 38.4561 108.36V118.37C38.4561 118.923 38.0083 119.37 37.4561 119.37C36.9038 119.37 36.4561 118.923 36.4561 118.37V108.339C36.49 105.814 37.5171 103.404 39.315 101.63C41.1129 99.8563 43.5369 98.862 46.0624 98.8622C46.0624 98.8622 46.0624 98.8622 46.0624 98.8622H57.8382C60.3799 98.8622 62.8174 99.8719 64.6146 101.669C66.4118 103.466 67.4214 105.904 67.4214 108.445V118.37C67.4214 118.923 66.9737 119.37 66.4214 119.37C65.8692 119.37 65.4214 118.923 65.4214 118.37V108.445C65.4214 106.434 64.6225 104.505 63.2004 103.083C61.7782 101.661 59.8494 100.862 57.8382 100.862H46.0623Z" fill="#111111"/>
<path d="M78.4748 89.4514C78.4767 88.0875 78.9001 86.7575 79.6869 85.6435C80.4738 84.5294 81.5857 83.6858 82.8705 83.228C82.1269 82.9703 81.3438 82.845 80.5569 82.8578C78.8082 82.8578 77.1311 83.5525 75.8946 84.789C74.6581 86.0256 73.9634 87.7027 73.9634 89.4514C73.9634 91.2001 74.6581 92.8772 75.8946 94.1137C77.1311 95.3503 78.8082 96.0449 80.5569 96.0449C81.3438 96.0577 82.1269 95.9324 82.8705 95.6748C81.5857 95.217 80.4738 94.3733 79.6869 93.2593C78.9001 92.1452 78.4767 90.8153 78.4748 89.4514Z" fill="white"/>
<path d="M87.2893 89.4514C87.2857 88.0847 86.8589 86.7527 86.0677 85.6384C85.2765 84.524 84.1596 83.682 82.8705 83.228C81.5802 83.6796 80.4621 84.5211 79.6711 85.6361C78.88 86.7511 78.4551 88.0843 78.4551 89.4514C78.4551 90.8185 78.88 92.1518 79.6711 93.2667C80.4621 94.3817 81.5802 95.2232 82.8705 95.6748C84.1596 95.2208 85.2765 94.3788 86.0677 93.2645C86.8589 92.1501 87.2857 90.8181 87.2893 89.4514Z" fill="#D6D9E6"/>
<path d="M79.2152 99.8623H74.8427C72.5641 99.8623 70.3786 100.766 68.7652 102.375C67.1519 103.984 66.2425 106.167 66.2363 108.445V118.371H70.632V108.353C70.6564 106.093 71.5715 103.933 73.1785 102.343C74.7855 100.754 76.9548 99.8622 79.2152 99.8623Z" fill="white"/>
<path d="M86.5263 99.8623H79.2155C76.9391 99.8623 74.7559 100.767 73.1463 102.376C71.5366 103.986 70.6323 106.169 70.6323 108.445V118.371H95.1326V108.353C95.1022 106.091 94.182 103.931 92.5713 102.342C90.9606 100.753 88.7889 99.8621 86.5263 99.8623Z" fill="#D6D9E6"/>
<path fill-rule="evenodd" clip-rule="evenodd" d="M79.1934 81.9566C80.6733 81.6635 82.207 81.8166 83.5999 82.3964C84.9927 82.9762 86.182 83.9566 87.0169 85.2132C87.8518 86.4698 88.2947 87.9461 88.2894 89.4548C88.2824 91.4657 87.4805 93.3921 86.0586 94.814C84.6367 96.2359 82.7102 97.0378 80.6994 97.0449C79.1907 97.0501 77.7144 96.6072 76.4578 95.7723C75.2011 94.9374 74.2208 93.7481 73.641 92.3553C73.0612 90.9624 72.9081 89.4288 73.2012 87.9488C73.4942 86.4688 74.2202 85.1092 75.287 84.0424C76.3538 82.9756 77.7134 82.2496 79.1934 81.9566ZM82.8313 84.2428C81.8041 83.8153 80.6732 83.7024 79.5818 83.9185C78.4905 84.1346 77.4879 84.6699 76.7012 85.4566C75.9145 86.2433 75.3792 87.2459 75.1631 88.3373C74.947 89.4286 75.0599 90.5596 75.4874 91.5867C75.915 92.6138 76.6379 93.4908 77.5646 94.1065C78.4912 94.7222 79.5799 95.0488 80.6924 95.0449C82.1752 95.0397 83.5959 94.4484 84.6444 93.3998C85.6929 92.3513 86.2843 90.9307 86.2895 89.4478C86.2933 88.3353 85.9667 87.2467 85.3511 86.32C84.7354 85.3933 83.8584 84.6704 82.8313 84.2428ZM74.8426 100.862C72.8428 100.862 70.9235 101.649 69.4999 103.054C68.0779 104.457 67.2649 106.363 67.2363 108.36V118.37C67.2363 118.923 66.7886 119.37 66.2363 119.37C65.684 119.37 65.2363 118.923 65.2363 118.37V108.339C65.2703 105.814 66.2974 103.404 68.0953 101.63C69.8931 99.8563 72.3171 98.862 74.8427 98.8622C74.8426 98.8622 74.8427 98.8622 74.8427 98.8622H86.4103C88.9536 98.8622 91.3931 99.8707 93.1939 101.667C94.9947 103.463 96.0098 105.899 96.0166 108.443L96.0166 108.445L96.0166 118.37C96.0166 118.923 95.5689 119.37 95.0166 119.37C94.4644 119.37 94.0166 118.923 94.0166 118.37V108.447C94.0109 106.433 93.2071 104.505 91.7816 103.083C90.3557 101.661 88.4241 100.862 86.4103 100.862H74.8426Z" fill="#111111"/>
<path d="M107.255 89.4512C107.254 88.0865 107.676 86.755 108.463 85.6403C109.25 84.5256 110.364 83.6827 111.651 83.2278C110.943 82.9868 110.201 82.8618 109.453 82.8577C107.704 82.8577 106.027 83.5523 104.791 84.7889C103.554 86.0254 102.859 87.7025 102.859 89.4512C102.859 91.1999 103.554 92.877 104.791 94.1136C106.027 95.3501 107.704 96.0448 109.453 96.0448C110.201 96.0406 110.943 95.9156 111.651 95.6746C110.364 95.2197 109.25 94.3768 108.463 93.2621C107.676 92.1474 107.254 90.8159 107.255 89.4512Z" fill="white"/>
<path d="M116.07 89.4514C116.066 88.0847 115.639 86.7527 114.848 85.6384C114.057 84.524 112.94 83.682 111.651 83.228C110.36 83.6796 109.242 84.5211 108.451 85.6361C107.66 86.7511 107.235 88.0843 107.235 89.4514C107.235 90.8185 107.66 92.1518 108.451 93.2667C109.242 94.3817 110.36 95.2232 111.651 95.6748C112.94 95.2208 114.057 94.3788 114.848 93.2645C115.639 92.1501 116.066 90.8181 116.07 89.4514Z" fill="#7C88A7"/>
<path d="M107.996 99.8623H103.6C101.323 99.8623 99.1402 100.767 97.5306 102.376C95.9209 103.986 95.0166 106.169 95.0166 108.445V118.371H99.4817V108.353C99.5059 106.105 100.411 103.955 102.003 102.368C103.596 100.78 105.747 99.8804 107.996 99.8623Z" fill="white"/>
<path d="M115.306 99.8623H107.996C105.747 99.8804 103.596 100.78 102.004 102.368C100.412 103.955 99.5061 106.105 99.4819 108.353V118.371H123.89V108.353C123.865 106.093 122.95 103.933 121.343 102.343C119.736 100.754 117.567 99.8622 115.306 99.8623Z" fill="#7C88A7"/>
<path fill-rule="evenodd" clip-rule="evenodd" d="M107.983 81.9546C109.463 81.6638 110.995 81.8184 112.386 82.399C113.778 82.9796 114.965 83.96 115.799 85.216C116.633 86.4721 117.075 87.9473 117.07 89.4549C117.063 91.4703 116.257 93.4008 114.829 94.8235C113.402 96.2461 111.468 97.0449 109.453 97.0449C107.945 97.0449 106.472 96.5975 105.219 95.7594C103.966 94.9213 102.989 93.7302 102.414 92.3368C101.838 90.9435 101.689 89.4107 101.985 87.9325C102.281 86.4542 103.009 85.0971 104.077 84.033C105.145 82.9688 106.504 82.2455 107.983 81.9546ZM111.616 84.2447C110.59 83.8166 109.46 83.7026 108.369 83.9171C107.279 84.1316 106.276 84.6649 105.488 85.4497C104.701 86.2344 104.164 87.2352 103.946 88.3252C103.727 89.4153 103.837 90.5456 104.262 91.5731C104.687 92.6005 105.406 93.4789 106.331 94.0969C107.255 94.715 108.341 95.0449 109.453 95.0449C110.939 95.0449 112.365 94.4559 113.418 93.4068C114.47 92.3577 115.065 90.9341 115.07 89.4479C115.074 88.3362 114.748 87.2483 114.133 86.3221C113.518 85.3958 112.642 84.6729 111.616 84.2447ZM103.6 100.862C101.603 100.862 99.6861 101.65 98.2663 103.054C96.8478 104.458 96.0395 106.363 96.0166 108.358V118.37C96.0166 118.923 95.5689 119.37 95.0166 119.37C94.4643 119.37 94.0166 118.923 94.0166 118.37V108.342C94.0438 105.818 95.0655 103.407 96.8598 101.632C98.654 99.8576 101.076 98.8621 103.6 98.8622C103.6 98.8622 103.6 98.8622 103.6 98.8622H115.306C117.85 98.8622 120.289 99.8708 122.09 101.667C123.891 103.463 124.906 105.899 124.913 108.443L124.913 108.445L124.913 118.37C124.913 118.923 124.465 119.37 123.913 119.37C123.36 119.37 122.913 118.923 122.913 118.37V108.447C122.907 106.433 122.103 104.505 120.678 103.083C119.252 101.661 117.32 100.862 115.306 100.862H103.6Z" fill="#111111"/>
<path d="M30.3306 39.2245H55.1085C55.9654 39.1724 56.8239 39.2963 57.6312 39.5884C58.4385 39.8806 59.1774 40.3348 59.8026 40.9232C60.4278 41.5115 60.9259 42.2216 61.2665 43.0097C61.607 43.7978 61.7827 44.6472 61.7827 45.5057C61.7827 46.3642 61.607 47.2136 61.2665 48.0017C60.9259 48.7898 60.4278 49.4999 59.8026 50.0882C59.1774 50.6766 58.4385 51.1308 57.6312 51.423C56.8239 51.7151 55.9654 51.839 55.1085 51.7869H33.4307" fill="#6099FF"/>
<path d="M18.7165 24.3486C18.7171 22.3806 19.3299 20.4616 20.4698 18.8573C21.6098 17.2531 23.2205 16.0432 25.0787 15.3952C24.0639 15.0222 22.9904 14.8341 21.9092 14.84C20.5333 14.8547 19.177 15.1679 17.934 15.7579C16.6909 16.3478 15.5908 17.2005 14.7094 18.2571C13.828 19.3137 13.1864 20.549 12.8289 21.8777C12.4715 23.2064 12.4066 24.5968 12.6389 25.953C12.8711 27.3092 13.3949 28.5989 14.1742 29.7329C14.9534 30.8669 15.9694 31.8183 17.1521 32.5214C18.3349 33.2246 19.6561 33.6626 21.0246 33.8053C22.3931 33.9481 23.7763 33.7921 25.0787 33.3482C23.2224 32.6901 21.6148 31.4745 20.4759 29.8676C19.337 28.2608 18.7225 26.3412 18.7165 24.3717" fill="white"/>
<path d="M31.4178 24.3486C31.4222 22.3826 30.8141 20.4641 29.6781 18.8596C28.5421 17.255 26.9345 16.0442 25.0787 15.3953C23.2247 16.0507 21.6196 17.2647 20.4842 18.8702C19.3489 20.4758 18.7393 22.3938 18.7393 24.3602C18.7393 26.3266 19.3489 28.2446 20.4842 29.8501C21.6196 31.4557 23.2247 32.6697 25.0787 33.3251C26.9326 32.6661 28.5371 31.4495 29.672 29.8423C30.807 28.2352 31.4168 26.3161 31.4178 24.3486Z" fill="#6099FF"/>
<path d="M19.8039 39.2246H13.4879C11.8606 39.2216 10.2486 39.5395 8.7442 40.1602C7.23983 40.7808 5.87263 41.692 4.72083 42.8417C3.56903 43.9913 2.65525 45.3568 2.03178 46.86C1.40832 48.3632 1.0874 49.9746 1.0874 51.602V75.2926H7.42647V51.602C7.42647 48.3193 8.73052 45.1711 11.0517 42.8499C13.3729 40.5287 16.5212 39.2246 19.8039 39.2246Z" fill="white"/>
<path d="M33.3147 39.2246H19.8037C16.521 39.2246 13.3727 40.5287 11.0515 42.8499C8.73031 45.1711 7.42627 48.3193 7.42627 51.602V75.2925H33.3147" fill="#6099FF"/>
<path fill-rule="evenodd" clip-rule="evenodd" d="M19.859 14.0419C21.8975 13.6364 24.0104 13.8445 25.9306 14.6399C27.8508 15.4353 29.4921 16.7822 30.6468 18.5103C31.8015 20.2384 32.4178 22.2702 32.4178 24.3486C32.4178 27.1356 31.3106 29.8085 29.3399 31.7793C27.3691 33.75 24.6962 34.8572 21.9092 34.8572C19.8308 34.8572 17.799 34.2409 16.0709 33.0862C14.3428 31.9315 12.9959 30.2902 12.2005 28.37C11.4051 26.4499 11.197 24.3369 11.6025 22.2985C12.008 20.26 13.0088 18.3875 14.4785 16.9179C15.9481 15.4482 17.8206 14.4474 19.859 14.0419ZM25.1653 16.4877C23.6105 15.8437 21.8997 15.6752 20.2492 16.0035C18.5987 16.3318 17.0826 17.1421 15.8927 18.3321C14.7027 19.522 13.8924 21.0381 13.5641 22.6886C13.2357 24.3391 13.4042 26.0499 14.0482 27.6047C14.6922 29.1594 15.7828 30.4883 17.182 31.4232C18.5813 32.3582 20.2263 32.8572 21.9092 32.8572C24.1658 32.8572 26.33 31.9607 27.9257 30.3651C29.5213 28.7694 30.4178 26.6052 30.4178 24.3486C30.4178 22.6657 29.9188 21.0207 28.9838 19.6214C28.0489 18.2222 26.72 17.1316 25.1653 16.4877ZM13.4861 40.2246C11.9902 40.2218 10.5084 40.514 9.12558 41.0845C7.74276 41.655 6.48602 42.4926 5.42728 43.5494C4.36854 44.6062 3.52858 45.8613 2.95548 47.2431C2.38239 48.6249 2.0874 50.1061 2.0874 51.602V75.2925C2.0874 75.8448 1.63969 76.2925 1.0874 76.2925C0.535118 76.2925 0.0874023 75.8448 0.0874023 75.2925V51.602C0.0873992 49.8431 0.434242 48.1015 1.10808 46.4769C1.78192 44.8522 2.76953 43.3764 4.01438 42.1339C5.25924 40.8913 6.7369 39.9065 8.36281 39.2357C9.98839 38.565 11.7303 38.2214 13.4887 38.2246C13.4891 38.2246 13.4894 38.2246 13.4898 38.2246L55.1315 38.2246C55.1417 38.2246 55.1519 38.2247 55.1622 38.225C55.1721 38.2254 55.1821 38.2258 55.1921 38.2264C57.0463 38.339 58.7877 39.1549 60.0608 40.5077C61.334 41.8605 62.0429 43.6481 62.0429 45.5058C62.0429 47.3635 61.334 49.1511 60.0608 50.5039C58.7877 51.8567 57.0463 52.6726 55.1921 52.7852C55.1719 52.7864 55.1517 52.787 55.1315 52.787H33.4305C32.8783 52.787 32.4305 52.3393 32.4305 51.787C32.4305 51.2348 32.8783 50.787 33.4305 50.787H55.0998C56.4347 50.6986 57.687 50.1079 58.6044 49.1332C59.5284 48.1514 60.0429 46.854 60.0429 45.5058C60.0429 44.1576 59.5284 42.8602 58.6044 41.8784C57.687 40.9037 56.4347 40.313 55.0998 40.2246H13.4879L13.4861 40.2246Z" fill="#111111"/>
<path d="M32.8751 73.2104H10.9429V118.324H32.8751V73.2104Z" fill="#6099FF"/>
<path fill-rule="evenodd" clip-rule="evenodd" d="M75.1458 14.5112C75.4198 14.5182 75.6789 14.6374 75.8626 14.8409L89.9177 30.4161L105.53 14.8038C105.921 14.4132 106.554 14.4132 106.944 14.8038C107.335 15.1943 107.335 15.8274 106.944 16.218L90.5876 32.5746C90.3938 32.7684 90.1289 32.8742 89.8549 32.8672C89.5808 32.8602 89.3217 32.741 89.1381 32.5375L75.083 16.9623L59.4706 32.5746C59.0801 32.9651 58.4469 32.9651 58.0564 32.5746C57.6659 32.1841 57.6659 31.5509 58.0564 31.1604L74.4131 14.8038C74.6069 14.6099 74.8718 14.5042 75.1458 14.5112ZM10.9429 51.0878C11.4952 51.0878 11.9429 51.5355 11.9429 52.0878V118.37C11.9429 118.923 11.4952 119.37 10.9429 119.37C10.3906 119.37 9.94287 118.923 9.94287 118.37V52.0878C9.94287 51.5355 10.3906 51.0878 10.9429 51.0878ZM32.8751 51.0878C33.4274 51.0878 33.8751 51.5355 33.8751 52.0878V118.37C33.8751 118.923 33.4274 119.37 32.8751 119.37C32.3228 119.37 31.8751 118.923 31.8751 118.37V52.0878C31.8751 51.5355 32.3228 51.0878 32.8751 51.0878ZM21.909 85.1661C22.4613 85.1661 22.909 85.6138 22.909 86.1661V118.37C22.909 118.923 22.4613 119.37 21.909 119.37C21.3567 119.37 20.909 118.923 20.909 118.37V86.1661C20.909 85.6138 21.3567 85.1661 21.909 85.1661Z" fill="#111111"/>
<path d="M62.3264 31.8675C62.3264 31.1629 62.1174 30.474 61.7259 29.8881C61.3344 29.3022 60.778 28.8456 60.127 28.5759C59.4759 28.3062 58.7596 28.2357 58.0684 28.3731C57.3773 28.5106 56.7425 28.8499 56.2442 29.3482C55.7459 29.8465 55.4066 30.4813 55.2691 31.1725C55.1317 31.8636 55.2022 32.5799 55.4719 33.231C55.7416 33.882 56.1982 34.4384 56.7841 34.8299C57.37 35.2214 58.0589 35.4304 58.7635 35.4304C59.7084 35.4304 60.6147 35.055 61.2828 34.3868C61.951 33.7187 62.3264 32.8124 62.3264 31.8675Z" fill="#6099FF"/>
<path fill-rule="evenodd" clip-rule="evenodd" d="M57.8734 27.3924C58.7585 27.2163 59.6759 27.3067 60.5096 27.652C61.3434 27.9974 62.056 28.5822 62.5574 29.3326C63.0588 30.0829 63.3264 30.9651 63.3264 31.8675C63.3264 33.0777 62.8456 34.2382 61.9899 35.0939C61.1342 35.9496 59.9737 36.4304 58.7635 36.4304C57.8611 36.4304 56.9789 36.1628 56.2285 35.6614C55.4782 35.16 54.8934 34.4474 54.548 33.6136C54.2027 32.7799 54.1123 31.8625 54.2884 30.9774C54.4644 30.0923 54.899 29.2792 55.5371 28.6411C56.1752 28.003 56.9883 27.5684 57.8734 27.3924ZM59.7443 29.4998C59.276 29.3058 58.7607 29.255 58.2635 29.3539C57.7664 29.4528 57.3097 29.6969 56.9513 30.0553C56.5929 30.4137 56.3488 30.8704 56.2499 31.3675C56.151 31.8647 56.2018 32.38 56.3958 32.8483C56.5897 33.3166 56.9182 33.7168 57.3397 33.9984C57.7611 34.2801 58.2566 34.4304 58.7635 34.4304C59.4432 34.4304 60.0951 34.1603 60.5757 33.6797C61.0563 33.1991 61.3264 32.5472 61.3264 31.8675C61.3264 31.3606 61.176 30.8651 60.8944 30.4437C60.6128 30.0222 60.2126 29.6937 59.7443 29.4998Z" fill="#111111"/>
<path d="M78.6599 15.511C78.6599 14.8063 78.4509 14.1175 78.0594 13.5316C77.6679 12.9456 77.1115 12.489 76.4605 12.2193C75.8094 11.9497 75.0931 11.8791 74.4019 12.0166C73.7108 12.1541 73.076 12.4934 72.5777 12.9917C72.0794 13.4899 71.7401 14.1248 71.6026 14.8159C71.4652 15.507 71.5357 16.2234 71.8054 16.8744C72.075 17.5254 72.5317 18.0819 73.1176 18.4733C73.7035 18.8648 74.3924 19.0738 75.097 19.0738C76.0419 19.0738 76.9482 18.6984 77.6163 18.0303C78.2845 17.3621 78.6599 16.4559 78.6599 15.511Z" fill="#6099FF"/>
<path fill-rule="evenodd" clip-rule="evenodd" d="M74.2069 11.0358C75.092 10.8597 76.0094 10.9501 76.8431 11.2954C77.6769 11.6408 78.3895 12.2256 78.8909 12.976C79.3922 13.7263 79.6599 14.6085 79.6599 15.511C79.6599 16.7211 79.1791 17.8817 78.3234 18.7374C77.4677 19.5931 76.3072 20.0738 75.097 20.0738C74.1946 20.0738 73.3124 19.8062 72.562 19.3048C71.8117 18.8034 71.2269 18.0908 70.8815 17.2571C70.5362 16.4233 70.4458 15.5059 70.6219 14.6208C70.7979 13.7357 71.2325 12.9227 71.8706 12.2845C72.5087 11.6464 73.3217 11.2119 74.2069 11.0358ZM76.0778 13.1432C75.6095 12.9492 75.0942 12.8985 74.597 12.9974C74.0999 13.0963 73.6432 13.3403 73.2848 13.6988C72.9264 14.0572 72.6823 14.5138 72.5834 15.011C72.4845 15.5081 72.5353 16.0234 72.7293 16.4917C72.9232 16.96 73.2517 17.3603 73.6732 17.6419C74.0946 17.9235 74.5901 18.0738 75.097 18.0738C75.7767 18.0738 76.4286 17.8038 76.9092 17.3232C77.3898 16.8425 77.6599 16.1907 77.6599 15.511C77.6599 15.0041 77.5095 14.5086 77.2279 14.0871C76.9463 13.6657 76.5461 13.3372 76.0778 13.1432Z" fill="#111111"/>
<path d="M93.4435 31.8675C93.4435 31.1629 93.2346 30.474 92.8431 29.8881C92.4516 29.3022 91.8952 28.8456 91.2441 28.5759C90.5931 28.3062 89.8768 28.2357 89.1856 28.3731C88.4945 28.5106 87.8597 28.8499 87.3614 29.3482C86.8631 29.8465 86.5238 30.4813 86.3863 31.1725C86.2489 31.8636 86.3194 32.5799 86.5891 33.231C86.8587 33.882 87.3154 34.4384 87.9013 34.8299C88.4872 35.2214 89.176 35.4304 89.8807 35.4304C90.8256 35.4304 91.7319 35.055 92.4 34.3868C93.0682 33.7187 93.4435 32.8124 93.4435 31.8675Z" fill="#6099FF"/>
<path fill-rule="evenodd" clip-rule="evenodd" d="M88.9905 27.3924C89.8756 27.2163 90.7931 27.3067 91.6268 27.652C92.4606 27.9974 93.1732 28.5822 93.6746 29.3326C94.1759 30.0829 94.4435 30.9651 94.4435 31.8675C94.4435 33.0777 93.9628 34.2382 93.1071 35.0939C92.2514 35.9496 91.0908 36.4304 89.8807 36.4304C88.9783 36.4304 88.0961 36.1628 87.3457 35.6614C86.5954 35.16 86.0105 34.4474 85.6652 33.6136C85.3198 32.7799 85.2295 31.8625 85.4055 30.9774C85.5816 30.0923 86.0162 29.2792 86.6543 28.6411C87.2924 28.003 88.1054 27.5684 88.9905 27.3924ZM90.8615 29.4998C90.3932 29.3058 89.8779 29.255 89.3807 29.3539C88.8836 29.4528 88.4269 29.6969 88.0685 30.0553C87.7101 30.4137 87.466 30.8704 87.3671 31.3675C87.2682 31.8647 87.319 32.38 87.513 32.8483C87.7069 33.3166 88.0354 33.7168 88.4569 33.9984C88.8783 34.2801 89.3738 34.4304 89.8807 34.4304C90.5604 34.4304 91.2123 34.1603 91.6929 33.6797C92.1735 33.1991 92.4435 32.5472 92.4435 31.8675C92.4435 31.3606 92.2932 30.8651 92.0116 30.4437C91.73 30.0222 91.3298 29.6937 90.8615 29.4998Z" fill="#111111"/>
<path d="M109.8 15.511C109.8 14.8063 109.591 14.1175 109.2 13.5316C108.808 12.9456 108.252 12.489 107.601 12.2193C106.95 11.9497 106.233 11.8791 105.542 12.0166C104.851 12.1541 104.216 12.4934 103.718 12.9917C103.22 13.4899 102.88 14.1248 102.743 14.8159C102.605 15.507 102.676 16.2234 102.946 16.8744C103.215 17.5254 103.672 18.0819 104.258 18.4733C104.844 18.8648 105.532 19.0738 106.237 19.0738C107.182 19.0738 108.088 18.6984 108.756 18.0303C109.425 17.3621 109.8 16.4559 109.8 15.511Z" fill="#6099FF"/>
<path fill-rule="evenodd" clip-rule="evenodd" d="M105.347 11.0358C106.232 10.8597 107.15 10.9501 107.983 11.2954C108.817 11.6408 109.53 12.2256 110.031 12.976C110.532 13.7263 110.8 14.6085 110.8 15.511C110.8 16.7211 110.319 17.8817 109.464 18.7374C108.608 19.5931 107.447 20.0738 106.237 20.0738C105.335 20.0738 104.453 19.8062 103.702 19.3048C102.952 18.8034 102.367 18.0908 102.022 17.2571C101.676 16.4233 101.586 15.5059 101.762 14.6208C101.938 13.7357 102.373 12.9227 103.011 12.2845C103.649 11.6464 104.462 11.2119 105.347 11.0358ZM107.218 13.1432C106.75 12.9492 106.234 12.8985 105.737 12.9974C105.24 13.0963 104.783 13.3403 104.425 13.6988C104.067 14.0572 103.822 14.5138 103.724 15.011C103.625 15.5081 103.675 16.0234 103.869 16.4917C104.063 16.96 104.392 17.3603 104.813 17.6419C105.235 17.9235 105.73 18.0738 106.237 18.0738C106.917 18.0738 107.569 17.8038 108.049 17.3232C108.53 16.8425 108.8 16.1907 108.8 15.511C108.8 15.0041 108.65 14.5086 108.368 14.0871C108.086 13.6657 107.686 13.3372 107.218 13.1432Z" fill="#111111"/>
<path d="M56.5195 61.8045H110.911M79.0533 54.4243H110.911M73.2232 47.0442H110.911" stroke="white" stroke-width="1.26" stroke-linecap="round" stroke-linejoin="round"/>
</g>
<defs>
<clipPath id="clip0_2418_109146">
<rect width="125" height="119.239" fill="white" transform="translate(0 0.380371)"/>
</clipPath>
</defs>
</svg>
