<svg width="1228" height="239" viewBox="0 0 1228 239" fill="none" xmlns="http://www.w3.org/2000/svg">
<rect x="0.5" y="42.5" width="339" height="196" rx="4.5" fill="white"/>
<rect x="0.5" y="42.5" width="339" height="196" rx="4.5" stroke="#114493"/>
<path d="M42.1562 104.328V118.328H40.6562V104.328H42.1562ZM30.6562 114.578C34.375 112.805 36.1953 110.281 36.4844 107.016H31.3281V105.828H37.9844C37.9844 109.93 36.2422 113.477 31.4375 115.781L30.6562 114.578ZM48.0588 104.969C49.9025 104.953 51.3322 106.023 51.6369 107.594H54.3713V104.328H55.8556V111.844H54.3713V108.812H51.6447C51.3556 110.422 49.9181 111.5 48.0588 111.5C45.9181 111.5 44.3791 110.148 44.3869 108.219C44.3791 106.312 45.9181 104.953 48.0588 104.969ZM45.8088 108.219C45.8009 109.414 46.7384 110.25 48.0588 110.25C49.3556 110.25 50.2775 109.414 50.2775 108.219C50.2775 107.016 49.3556 106.195 48.0588 106.203C46.7384 106.195 45.8009 107.016 45.8088 108.219ZM46.7306 118.156V112.516H48.1994V114.141H54.3713V112.516H55.8556V118.156H46.7306ZM48.1994 116.938H54.3713V115.312H48.1994V116.938ZM69.4456 104.328V118.359H67.9613V104.328H69.4456ZM58.3363 110.281C58.3363 107.289 59.8441 105.383 61.9613 105.375C64.0394 105.383 65.5706 107.289 65.5706 110.281C65.5706 113.305 64.0394 115.211 61.9613 115.203C59.8441 115.211 58.3363 113.305 58.3363 110.281ZM59.7738 110.281C59.7659 112.508 60.6566 113.875 61.9613 113.875C63.2425 113.875 64.1331 112.508 64.1331 110.281C64.1331 108.086 63.2425 106.711 61.9613 106.703C60.6566 106.711 59.7659 108.086 59.7738 110.281ZM80.1569 106.844C80.1491 108.633 81.3913 110.328 83.5319 111.047L82.7819 112.203C81.1959 111.656 80.0319 110.562 79.4225 109.188C78.8131 110.695 77.5944 111.891 75.9538 112.469L75.1569 111.312C77.3444 110.57 78.6647 108.758 78.6725 106.828V106.453H75.5944V105.25H83.1725V106.453H80.1569V106.844ZM77.0163 114.656V113.453H86.2663V118.328H84.7819V114.656H77.0163ZM84.7819 112.766V104.328H86.2663V107.922H88.2975V109.172H86.2663V112.766H84.7819ZM93.9031 106.422C93.8953 108.383 95.1688 110.133 97.2938 110.828L96.4813 111.984C94.9422 111.422 93.8094 110.344 93.2 108.938C92.5984 110.539 91.3797 111.797 89.6844 112.406L88.8875 111.219C91.1219 110.453 92.4188 108.586 92.4344 106.484V105.109H93.9031V106.422ZM91.1844 115.656C91.1766 113.961 92.9734 112.977 95.9188 112.984C98.8484 112.977 100.645 113.961 100.653 115.656C100.645 117.344 98.8484 118.305 95.9188 118.297C92.9734 118.305 91.1766 117.344 91.1844 115.656ZM92.6531 115.656C92.6453 116.586 93.8641 117.133 95.9188 117.125C97.9578 117.133 99.1766 116.586 99.1844 115.656C99.1766 114.695 97.9578 114.141 95.9188 114.141C93.8641 114.141 92.6453 114.695 92.6531 115.656ZM96.1688 108.391V107.172H99.1219V104.328H100.606V112.594H99.1219V108.391H96.1688ZM118.364 104.328V118.328H116.942V104.328H118.364ZM106.146 114.469C108.13 113.273 109.138 110.727 109.146 108.234V107.109H106.567V105.906H112.974V107.109H110.567V108.234C110.567 110.625 111.536 113.023 113.505 114.156L112.614 115.25C111.278 114.453 110.364 113.023 109.872 111.336C109.372 113.164 108.419 114.727 107.052 115.578L106.146 114.469ZM111.942 110.5V109.281H114.114V104.625H115.521V117.625H114.114V110.5H111.942ZM132.767 110.469V111.578H127.126V112.75H131.173V115.906H123.017V117.062H131.564V118.188H121.564V114.875H129.704V113.828H121.548V112.75H125.658V111.578H120.033V110.469H132.767ZM120.658 108.797C123.337 108.648 125.228 107.828 125.533 106.641H121.298V105.5H125.658V104.266H127.126V105.5H131.501V106.641H127.243C127.54 107.828 129.431 108.648 132.142 108.797L131.689 109.922C129.251 109.742 127.267 109.031 126.392 107.805C125.517 109.031 123.533 109.742 121.079 109.922L120.658 108.797ZM144.685 104.344V108.844H146.716V110.078H144.685V114.812H143.201V104.344H144.685ZM133.701 107.172V105.969H137.138V104.328H138.622V105.969H142.044V107.172H133.701ZM134.466 110.484C134.458 108.883 135.841 107.836 137.872 107.844C139.88 107.836 141.263 108.883 141.263 110.484C141.263 112.07 139.88 113.102 137.872 113.109C135.841 113.102 134.458 112.07 134.466 110.484ZM135.81 118.031V113.984H137.294V116.828H145.279V118.031H135.81ZM135.904 110.484C135.888 111.398 136.685 111.961 137.872 111.953C139.06 111.961 139.857 111.398 139.872 110.484C139.857 109.562 139.06 108.992 137.872 108.984C136.685 108.992 135.888 109.562 135.904 110.484ZM162.709 104.344V114.594H161.224V104.344H162.709ZM151.177 111.438C153.373 110.625 154.67 108.609 154.677 106.5V105.109H156.193V106.5C156.185 108.547 157.482 110.422 159.646 111.172L158.881 112.359C157.263 111.758 156.068 110.57 155.443 109.055C154.826 110.68 153.615 111.977 151.974 112.609L151.177 111.438ZM153.552 118.031V113.625H155.052V116.828H163.131V118.031H153.552ZM169.674 107.312C169.674 108.961 171.025 110.5 173.158 111.094L172.455 112.25C170.83 111.789 169.611 110.789 168.971 109.492C168.361 110.938 167.143 112.086 165.471 112.609L164.768 111.469C166.893 110.789 168.205 109.117 168.205 107.312V107.141H165.158V105.953H168.205V104.266H169.689V105.953H172.721V107.141H169.674V107.312ZM167.018 115.703C167.01 114.062 168.814 113.133 171.752 113.125C174.682 113.133 176.478 114.062 176.486 115.703C176.478 117.352 174.682 118.305 171.752 118.297C168.814 118.305 167.01 117.352 167.018 115.703ZM168.486 115.703C168.478 116.609 169.697 117.148 171.752 117.156C173.807 117.148 175.01 116.609 175.018 115.703C175.01 114.797 173.807 114.281 171.752 114.281C169.697 114.281 168.478 114.797 168.486 115.703ZM172.283 109.469V108.25H174.955V104.328H176.439V112.812H174.955V109.469H172.283ZM183.482 107.891C183.482 110.453 184.92 113.008 187.061 113.969L186.154 115.156C184.568 114.359 183.365 112.781 182.748 110.867C182.131 112.883 180.912 114.586 179.295 115.422L178.357 114.219C180.529 113.18 181.975 110.484 181.982 107.891V105.5H183.482V107.891ZM185.514 110.188V108.984H188.639V104.328H190.107V118.359H188.639V110.188H185.514ZM204.901 110.75V111.891H192.088V110.75H204.901ZM193.604 113.938V112.875H203.322V115.953H195.104V117.109H203.76V118.156H193.619V114.969H201.854V113.938H193.604ZM193.697 105.734V104.688H203.291V107.719H195.197V108.781H203.526V109.828H193.729V106.734H201.807V105.734H193.697ZM220.424 104.328V109.75H222.674V111H220.424V118.328H218.94V104.328H220.424ZM210.049 115V105.5H211.518V109.094H215.221V105.5H216.69V115H210.049ZM211.518 113.781H215.221V110.266H211.518V113.781ZM234.186 104.328V107.859H236.217V109.078H234.186V112.906H232.702V104.328H234.186ZM223.796 112.031V105.281H230.296V106.469H225.28V108.047H230.03V109.219H225.28V110.828C227.85 110.828 229.382 110.758 231.171 110.453L231.327 111.641C229.413 111.984 227.764 112.039 224.889 112.031H223.796ZM224.983 115.766C224.975 114.148 226.78 113.227 229.686 113.219C232.569 113.227 234.35 114.148 234.342 115.766C234.35 117.383 232.569 118.305 229.686 118.297C226.78 118.305 224.975 117.383 224.983 115.766ZM226.467 115.766C226.46 116.656 227.639 117.172 229.686 117.156C231.686 117.172 232.874 116.656 232.874 115.766C232.874 114.883 231.686 114.383 229.686 114.375C227.639 114.383 226.46 114.883 226.467 115.766ZM243.229 105.172C246.167 105.172 248.401 106.727 248.401 109.078C248.401 111.445 246.167 112.992 243.229 112.984C240.3 112.992 238.065 111.445 238.073 109.078C238.065 106.727 240.3 105.172 243.229 105.172ZM236.854 116.516V115.281H249.667V116.516H236.854ZM239.495 109.078C239.487 110.711 241.081 111.766 243.229 111.766C245.37 111.766 246.956 110.711 246.964 109.078C246.956 107.453 245.37 106.367 243.229 106.375C241.081 106.367 239.487 107.453 239.495 109.078ZM263.335 115.406V116.656H250.523V115.406H256.163V112.953H252.085V108.5H260.304V106.531H252.054V105.312H261.773V109.688H253.554V111.734H262.101V112.953H257.632V115.406H263.335ZM279.312 105.672V107.172C279.296 108.93 279.296 110.773 278.796 113.453L277.343 113.297C277.835 110.766 277.835 108.891 277.827 107.172V106.875H269.249V105.672H279.312ZM267.937 116.438V115.203H270.952V110.672H272.437V115.203H274.452V110.672H275.906V115.203H280.702V116.438H267.937ZM293.589 104.328V118.328H292.167V111.156H290.371V117.609H288.98V104.609H290.371V109.938H292.167V104.328H293.589ZM282.261 114.766V105.984H283.746V113.461C285.035 113.445 286.449 113.344 288.042 113.031L288.199 114.328C286.277 114.672 284.675 114.773 283.167 114.766H282.261ZM42.1875 123.344V133.656H40.7031V130.016H37.2266C36.5703 130.805 35.5547 131.281 34.3906 131.281C32.2812 131.281 30.7109 129.805 30.7188 127.75C30.7109 125.68 32.2812 124.203 34.3906 124.188C35.5469 124.195 36.5547 124.672 37.2109 125.453H40.7031V123.344H42.1875ZM32.1406 127.75C32.1328 129.07 33.0781 129.977 34.3906 129.969C35.6484 129.977 36.6094 129.07 36.6094 127.75C36.6094 126.43 35.6484 125.523 34.3906 125.516C33.0781 125.523 32.1328 126.43 32.1406 127.75ZM33.0938 137.031V132.578H34.5781V135.828H42.5625V137.031H33.0938ZM37.8672 126.656C37.9766 127 38.0312 127.359 38.0312 127.75C38.0312 128.125 37.9766 128.484 37.875 128.812H40.7031V126.656H37.8672ZM55.3244 124.203V125.438C55.3244 126.766 55.3244 128.211 54.9338 130.203H56.9494V131.422H51.2775V137.344H49.7775V131.422H44.1838V130.203H53.4338C53.8478 128.203 53.8478 126.742 53.8556 125.438V125.422H45.7463V124.203H55.3244ZM62.7269 127.453C62.7191 129.664 64.18 132.133 66.305 133.141L65.4613 134.297C63.8909 133.547 62.6409 131.969 62.0081 130.141C61.3675 132.133 60.055 133.859 58.4613 134.656L57.5863 133.484C59.7113 132.461 61.2503 129.82 61.2581 127.453V125.969H58.1019V124.734H65.7738V125.969H62.7269V127.453ZM67.2738 137.328V123.328H68.7581V128.875H71.0081V130.125H68.7581V137.328H67.2738ZM84.3169 129.75V130.891H71.5044V129.75H84.3169ZM73.02 132.938V131.875H82.7388V134.953H74.52V136.109H83.1763V137.156H73.0356V133.969H81.27V132.938H73.02ZM73.1138 124.734V123.688H82.7075V126.719H74.6138V127.781H82.9419V128.828H73.145V125.734H81.2231V124.734H73.1138ZM100.981 123.328V137.328H99.5594V130.031H97.825V136.641H96.4188V123.594H97.825V128.812H99.5594V123.328H100.981ZM89.4031 133.641V124.906H94.8406V133.641H89.4031ZM90.8094 132.453H93.45V126.078H90.8094V132.453ZM107.806 126.234C107.798 127.914 109.181 129.461 111.353 130.062L110.649 131.219C109.009 130.758 107.759 129.742 107.11 128.43C106.485 129.891 105.235 131.031 103.556 131.562L102.821 130.391C104.985 129.742 106.329 128.047 106.321 126.234V126.156H103.212V124.969H106.321V123.328H107.821V124.969H110.899V126.156H107.806V126.234ZM104.743 134.719C104.743 133.086 106.548 132.141 109.509 132.141C112.446 132.141 114.251 133.086 114.259 134.719C114.251 136.367 112.446 137.305 109.509 137.297C106.548 137.305 104.743 136.367 104.743 134.719ZM106.243 134.719C106.243 135.633 107.431 136.148 109.509 136.156C111.579 136.148 112.798 135.633 112.79 134.719C112.798 133.828 111.579 133.305 109.509 133.312C107.431 133.305 106.243 133.828 106.243 134.719ZM112.728 131.875V123.344H114.212V131.875H112.728Z" fill="#111111"/>
<path d="M33.9062 164.266C32.9375 164.258 32.1484 163.469 32.1406 162.484C32.1484 161.516 32.9375 160.727 33.9062 160.719C34.8906 160.727 35.6797 161.516 35.6875 162.484C35.6797 163.469 34.8906 164.258 33.9062 164.266Z" fill="#111111"/>
<path d="M58.125 154.344V164.594H56.6406V154.344H58.125ZM46.5938 161.438C48.7891 160.625 50.0859 158.609 50.0938 156.5V155.109H51.6094V156.5C51.6016 158.547 52.8984 160.422 55.0625 161.172L54.2969 162.359C52.6797 161.758 51.4844 160.57 50.8594 159.055C50.2422 160.68 49.0312 161.977 47.3906 162.609L46.5938 161.438ZM48.9688 168.031V163.625H50.4688V166.828H58.5469V168.031H48.9688ZM65.09 157.312C65.09 158.961 66.4416 160.5 68.5744 161.094L67.8713 162.25C66.2463 161.789 65.0275 160.789 64.3869 159.492C63.7775 160.938 62.5588 162.086 60.8869 162.609L60.1838 161.469C62.3088 160.789 63.6213 159.117 63.6213 157.312V157.141H60.5744V155.953H63.6213V154.266H65.1056V155.953H68.1369V157.141H65.09V157.312ZM62.4338 165.703C62.4259 164.062 64.2306 163.133 67.1681 163.125C70.0978 163.133 71.8947 164.062 71.9025 165.703C71.8947 167.352 70.0978 168.305 67.1681 168.297C64.2306 168.305 62.4259 167.352 62.4338 165.703ZM63.9025 165.703C63.8947 166.609 65.1134 167.148 67.1681 167.156C69.2228 167.148 70.4259 166.609 70.4338 165.703C70.4259 164.797 69.2228 164.281 67.1681 164.281C65.1134 164.281 63.8947 164.797 63.9025 165.703ZM67.6994 159.469V158.25H70.3713V154.328H71.8556V162.812H70.3713V159.469H67.6994ZM78.8988 157.891C78.8988 160.453 80.3363 163.008 82.4769 163.969L81.5706 165.156C79.9847 164.359 78.7816 162.781 78.1644 160.867C77.5472 162.883 76.3284 164.586 74.7113 165.422L73.7738 164.219C75.9456 163.18 77.3909 160.484 77.3988 157.891V155.5H78.8988V157.891ZM80.93 160.188V158.984H84.055V154.328H85.5238V168.359H84.055V160.188H80.93ZM96.1569 156.844C96.1491 158.633 97.3913 160.328 99.5319 161.047L98.7819 162.203C97.1959 161.656 96.0319 160.562 95.4225 159.188C94.8131 160.695 93.5944 161.891 91.9538 162.469L91.1569 161.312C93.3444 160.57 94.6647 158.758 94.6725 156.828V156.453H91.5944V155.25H99.1725V156.453H96.1569V156.844ZM93.0163 164.656V163.453H102.266V168.328H100.782V164.656H93.0163ZM100.782 162.766V154.328H102.266V157.922H104.298V159.172H102.266V162.766H100.782ZM109.903 156.422C109.895 158.383 111.169 160.133 113.294 160.828L112.481 161.984C110.942 161.422 109.809 160.344 109.2 158.938C108.598 160.539 107.38 161.797 105.684 162.406L104.888 161.219C107.122 160.453 108.419 158.586 108.434 156.484V155.109H109.903V156.422ZM107.184 165.656C107.177 163.961 108.973 162.977 111.919 162.984C114.848 162.977 116.645 163.961 116.653 165.656C116.645 167.344 114.848 168.305 111.919 168.297C108.973 168.305 107.177 167.344 107.184 165.656ZM108.653 165.656C108.645 166.586 109.864 167.133 111.919 167.125C113.958 167.133 115.177 166.586 115.184 165.656C115.177 164.695 113.958 164.141 111.919 164.141C109.864 164.141 108.645 164.695 108.653 165.656ZM112.169 158.391V157.172H115.122V154.328H116.606V162.594H115.122V158.391H112.169ZM127.849 161.5V162.938H122.833V161.5H127.849ZM144.591 154.328V168.328H143.091V154.328H144.591ZM133.091 164.578C136.81 162.805 138.63 160.281 138.919 157.016H133.763V155.828H140.419C140.419 159.93 138.677 163.477 133.872 165.781L133.091 164.578ZM150.494 154.969C152.338 154.953 153.767 156.023 154.072 157.594H156.806V154.328H158.291V161.844H156.806V158.812H154.08C153.791 160.422 152.353 161.5 150.494 161.5C148.353 161.5 146.814 160.148 146.822 158.219C146.814 156.312 148.353 154.953 150.494 154.969ZM148.244 158.219C148.236 159.414 149.173 160.25 150.494 160.25C151.791 160.25 152.713 159.414 152.713 158.219C152.713 157.016 151.791 156.195 150.494 156.203C149.173 156.195 148.236 157.016 148.244 158.219ZM149.166 168.156V162.516H150.634V164.141H156.806V162.516H158.291V168.156H149.166ZM150.634 166.938H156.806V165.312H150.634V166.938Z" fill="#111111"/>
<path d="M33.9062 188.266C32.9375 188.258 32.1484 187.469 32.1406 186.484C32.1484 185.516 32.9375 184.727 33.9062 184.719C34.8906 184.727 35.6797 185.516 35.6875 186.484C35.6797 187.469 34.8906 188.258 33.9062 188.266Z" fill="#111111"/>
<path d="M58.1875 178.344V188.594H56.7031V183.328H54.0312V182.125H56.7031V178.344H58.1875ZM46.5312 185.672C48.6797 184.945 50.0234 183.102 50.0156 181.172V180.625H46.9844V179.406H54.5312V180.625H51.5312V181.172C51.5234 182.914 52.7891 184.672 54.9062 185.375L54.1406 186.562C52.5703 186.016 51.4062 184.891 50.7969 183.5C50.1875 185.047 48.9609 186.281 47.2969 186.875L46.5312 185.672ZM49.0938 192.031V187.672H50.5781V190.828H58.5625V192.031H49.0938ZM72.9806 185.406V186.609H67.4181V189.328H65.9494V186.609H60.1681V185.406H72.9806ZM61.7619 192.031V188H63.2463V190.828H71.5588V192.031H61.7619ZM61.8088 183.953V178.984H71.3244V183.953H61.8088ZM63.2619 182.781H69.8556V180.156H63.2619V182.781ZM84.7581 178.328V183.906H86.93V185.141H84.7581V192.312H83.2738V178.328H84.7581ZM73.8675 188.578C77.3753 186.828 79.2816 184.297 79.5863 181.031H74.5706V179.797H81.1019C81.0863 183.844 79.305 187.461 74.6956 189.734L73.8675 188.578ZM103.313 178.328V192.328H101.891V185.031H100.157V191.641H98.7506V178.594H100.157V183.812H101.891V178.328H103.313ZM91.735 188.641V179.906H97.1725V188.641H91.735ZM93.1413 187.453H95.7819V181.078H93.1413V187.453ZM110.138 181.234C110.13 182.914 111.513 184.461 113.684 185.062L112.981 186.219C111.341 185.758 110.091 184.742 109.442 183.43C108.817 184.891 107.567 186.031 105.888 186.562L105.153 185.391C107.317 184.742 108.661 183.047 108.653 181.234V181.156H105.544V179.969H108.653V178.328H110.153V179.969H113.231V181.156H110.138V181.234ZM107.075 189.719C107.075 188.086 108.88 187.141 111.841 187.141C114.778 187.141 116.583 188.086 116.591 189.719C116.583 191.367 114.778 192.305 111.841 192.297C108.88 192.305 107.075 191.367 107.075 189.719ZM108.575 189.719C108.575 190.633 109.763 191.148 111.841 191.156C113.911 191.148 115.13 190.633 115.122 189.719C115.13 188.828 113.911 188.305 111.841 188.312C109.763 188.305 108.575 188.828 108.575 189.719ZM115.059 186.875V178.344H116.544V186.875H115.059ZM127.849 185.5V186.938H122.833V185.5H127.849ZM141.31 179.75V180.938H132.966V179.75H136.404V178.266H137.888V179.75H141.31ZM133.732 184.109C133.724 182.578 135.115 181.578 137.138 181.562C139.154 181.578 140.529 182.578 140.529 184.109C140.529 185.648 139.154 186.656 137.138 186.656C135.115 186.656 133.724 185.648 133.732 184.109ZM134.701 189V187.797H143.951V192.328H142.466V189H134.701ZM135.169 184.109C135.154 184.977 135.951 185.5 137.138 185.5C138.326 185.5 139.122 184.977 139.138 184.109C139.122 183.25 138.326 182.711 137.138 182.703C135.951 182.711 135.154 183.25 135.169 184.109ZM142.466 187.078V178.328H143.951V182.125H145.982V183.359H143.951V187.078H142.466ZM157.994 179.672V181.172C157.978 182.93 157.978 184.773 157.478 187.453L156.025 187.297C156.517 184.766 156.517 182.891 156.509 181.172V180.875H147.931V179.672H157.994ZM146.619 190.438V189.203H149.634V184.672H151.119V189.203H153.134V184.672H154.588V189.203H159.384V190.438H146.619Z" fill="#111111"/>
<rect x="11" width="318" height="76" rx="38" fill="#0E419C"/>
<rect x="19" y="8" width="60" height="60" rx="30" fill="white"/>
<g clip-path="url(#clip0_920_90595)">
<path d="M47.3054 46.4141C46.8894 46.5741 46.9014 46.9741 46.5334 46.9061C46.4094 46.8861 46.2934 46.7821 46.2454 46.6421C46.1974 46.4981 46.0854 46.1621 45.7134 46.0661C45.1854 45.9261 44.3174 46.6261 43.9534 47.0421C43.4934 45.9781 42.6094 45.5141 41.8534 45.5981C41.5654 45.6301 41.3614 45.8901 41.3934 46.1781C41.4254 46.4661 41.6854 46.6741 41.9734 46.6381C42.7934 46.5381 43.1174 47.6981 43.2734 48.4461C43.3774 48.9581 44.0934 49.0141 44.2774 48.5181C44.4734 47.9861 44.8654 47.5181 45.3614 47.2181C45.5654 47.5901 45.9334 47.8621 46.3534 47.9381C46.8494 48.0261 47.3694 47.8341 47.6894 47.4461C48.0974 47.5741 48.4814 47.6981 48.9054 47.6781C49.3974 47.6581 49.8854 47.4221 50.2374 47.0301C50.5894 46.6381 50.7774 46.1301 50.7454 45.6381C50.7294 45.3501 50.4734 45.1301 50.1934 45.1461C49.9054 45.1621 49.6854 45.4101 49.7014 45.6981C49.7294 46.1501 49.3094 46.6141 48.8574 46.6301C48.3134 46.6541 47.7934 46.2261 47.3054 46.4141Z" fill="#114493"/>
<path d="M51.8018 49.9419H41.3018C41.0138 49.9419 40.7778 50.1779 40.7778 50.4659C40.7778 50.7539 41.0138 50.9899 41.3018 50.9899H51.8018C52.0898 50.9899 52.3258 50.7539 52.3258 50.4659C52.3258 50.1779 52.0898 49.9419 51.8018 49.9419Z" fill="#114493"/>
<path d="M44.2137 31.7861C45.0737 31.7861 45.7697 31.0861 45.7697 30.2301C45.7697 29.3741 45.0697 28.6741 44.2137 28.6741C43.3577 28.6741 42.6577 29.3741 42.6577 30.2301C42.6577 31.0861 43.3577 31.7861 44.2137 31.7861ZM44.2137 29.7221C44.4937 29.7221 44.7257 29.9501 44.7257 30.2341C44.7257 30.5181 44.4977 30.7461 44.2137 30.7461C43.9297 30.7461 43.7017 30.5181 43.7017 30.2341C43.7017 29.9501 43.9297 29.7221 44.2137 29.7221Z" fill="#114493"/>
<path d="M41.9496 35.418C42.2376 35.418 42.4736 35.182 42.4736 34.894C42.4736 33.934 43.2536 33.15 44.2176 33.15C45.1816 33.15 45.9616 33.93 45.9616 34.894C45.9616 35.182 46.1976 35.418 46.4856 35.418C46.7736 35.418 47.0096 35.182 47.0096 34.894C47.0096 33.358 45.7576 32.106 44.2216 32.106C42.6856 32.106 41.4336 33.358 41.4336 34.894C41.4336 35.182 41.6696 35.418 41.9576 35.418H41.9496Z" fill="#114493"/>
<path d="M48.5458 36.1861V27.9061C48.5458 27.6181 48.3098 27.3821 48.0218 27.3821H40.4058C40.1178 27.3821 39.8818 27.6181 39.8818 27.9061V36.1861C39.8818 36.4741 40.1178 36.7101 40.4058 36.7101H48.0178C48.3058 36.7101 48.5418 36.4741 48.5418 36.1861H48.5458ZM47.4978 35.6621H40.9298V28.4301H47.4978V35.6621Z" fill="#114493"/>
<path d="M50.7535 28.9301H57.1815C57.4695 28.9301 57.7055 28.6941 57.7055 28.4061C57.7055 28.1181 57.4695 27.8821 57.1815 27.8821H50.7535C50.4655 27.8821 50.2295 28.1181 50.2295 28.4061C50.2295 28.6941 50.4655 28.9301 50.7535 28.9301Z" fill="#114493"/>
<path d="M50.7535 32.57H57.1815C57.4695 32.57 57.7055 32.334 57.7055 32.046C57.7055 31.758 57.4695 31.522 57.1815 31.522H50.7535C50.4655 31.522 50.2295 31.758 50.2295 32.046C50.2295 32.334 50.4655 32.57 50.7535 32.57Z" fill="#114493"/>
<path d="M50.7535 36.206H57.1815C57.4695 36.206 57.7055 35.97 57.7055 35.682C57.7055 35.394 57.4695 35.158 57.1815 35.158H50.7535C50.4655 35.158 50.2295 35.394 50.2295 35.682C50.2295 35.97 50.4655 36.206 50.7535 36.206Z" fill="#114493"/>
<path d="M68.4778 35.25C68.4498 35.114 68.3658 34.994 68.2498 34.922L67.3258 34.322L67.5658 33.95C68.2498 32.898 67.9498 31.486 66.8978 30.802L66.3778 30.466C65.3258 29.782 63.9178 30.074 63.2298 31.134L60.0018 36.102V25.026C60.0018 24.738 59.7658 24.502 59.4778 24.502H56.4538V21.97C56.4538 21.682 56.2178 21.446 55.9298 21.446H35.0338C34.7458 21.446 34.5098 21.682 34.5098 21.97V47.018C34.5098 47.306 34.7458 47.542 35.0338 47.542H37.5898V54.034C37.5898 54.322 37.8258 54.558 38.1138 54.558H59.4858C59.7738 54.558 60.0098 54.322 60.0098 54.034V45.238C60.0098 45.238 60.0098 45.23 60.0098 45.226L63.4698 39.898C63.4898 39.898 63.5098 39.898 63.5298 39.89C63.6658 39.862 63.7858 39.778 63.8578 39.662L66.7618 35.194L67.2498 35.51L64.8418 39.218C64.6858 39.462 64.7538 39.782 64.9938 39.942C65.2378 40.098 65.5618 40.03 65.7178 39.79L68.4098 35.646C68.4858 35.53 68.5098 35.39 68.4818 35.254L68.4778 35.25ZM37.5858 46.494H35.5538V22.49H55.4098V24.498H38.1098C37.8218 24.498 37.5858 24.734 37.5858 25.022V46.49V46.494ZM38.6338 53.506V25.546H58.9618V37.794C58.9618 37.87 58.9778 37.938 59.0058 38.002L55.4418 43.49C55.3138 43.686 55.3418 43.934 55.4858 44.106L52.4498 48.79C52.2938 49.034 52.3618 49.354 52.6018 49.514L53.2818 49.954C53.5098 50.102 53.8178 50.05 53.9818 49.83C54.7218 48.85 55.9858 48.478 56.1738 48.426C57.7018 48.234 58.4418 47.166 58.7418 46.25C58.8098 46.29 58.8818 46.31 58.9578 46.318V53.502H38.6338V53.506ZM57.8138 45.662C57.3618 47.79 55.9098 46.87 53.9458 48.398L56.3378 44.71L57.8138 45.658V45.662ZM58.8458 45.082L56.5978 43.622L60.2738 37.962L62.5218 39.422L58.8458 45.082ZM63.2618 38.654C63.2098 38.618 60.6258 36.942 60.6778 36.974L64.1058 31.698C64.4818 31.118 65.2498 30.974 65.8098 31.338L66.3298 31.674C66.8978 32.042 67.0618 32.806 66.6898 33.378C65.4538 35.278 64.5818 36.626 63.2618 38.658V38.654Z" fill="#114493"/>
</g>
<path d="M112.464 29.1016V41.9922H110.277V29.1016H112.464ZM97.7766 37.832C100.638 36.8262 102.103 34.3359 102.093 31.7969V30.0781H104.339V31.7969C104.329 34.2578 105.775 36.582 108.577 37.5195L107.464 39.2383C105.452 38.5352 104.017 37.1289 103.236 35.3223C102.454 37.2559 100.989 38.7988 98.9094 39.5508L97.7766 37.832ZM100.784 46.3867V40.7617H102.972V44.6289H112.952V46.3867H100.784ZM121.19 32.8516C121.18 34.7852 122.694 36.6895 125.467 37.4414L124.452 39.1211C122.42 38.5645 120.955 37.3828 120.145 35.8496C119.373 37.5781 117.909 38.9453 115.799 39.5703L114.784 37.8906C117.547 37.0508 119.022 34.9805 119.022 32.8516V32.7539H115.33V31.0352H119.022V29.0039H121.209V31.0352H124.881V32.7539H121.19V32.8516ZM117.655 43.3984C117.635 41.2988 119.94 40.1172 123.651 40.1172C127.381 40.1172 129.676 41.2988 129.686 43.3984C129.676 45.498 127.381 46.7188 123.651 46.7188C119.94 46.7188 117.635 45.498 117.655 43.3984ZM119.803 43.3984C119.793 44.4434 121.2 45.0391 123.651 45.0391C126.151 45.0391 127.518 44.4434 127.518 43.3984C127.518 42.3438 126.151 41.7871 123.651 41.7773C121.2 41.7871 119.793 42.3438 119.803 43.3984ZM124.354 35.6836V33.9258H127.459V29.082H129.627V39.7656H127.459V35.6836H124.354ZM138.451 33.3203C138.441 36.6016 140.013 39.8242 142.826 41.0547L141.517 42.793C139.525 41.8164 138.119 39.9414 137.367 37.627C136.595 40.0684 135.15 42.0996 133.119 43.125L131.752 41.3672C134.632 40.0195 136.234 36.6211 136.244 33.3203V30.5078H138.451V33.3203ZM140.873 36.543V34.7852H144.584V29.082H146.732V46.7578H144.584V36.543H140.873ZM159.887 32.1484C159.887 34.3262 161.283 36.4648 164.066 37.3828L162.973 39.0625C160.99 38.3984 159.594 37.0801 158.822 35.4297C158.041 37.2363 156.576 38.6719 154.516 39.375L153.363 37.6953C156.205 36.748 157.699 34.4629 157.699 32.1484V31.9336H153.969V30.1953H163.559V31.9336H159.887V32.1484ZM155.727 42.2852V40.5469H167.484V46.7383H165.316V42.2852H155.727ZM165.316 39.7266V29.082H167.484V33.4961H169.945V35.3125H167.484V39.7266H165.316ZM177.109 31.6211C177.099 34.0234 178.505 36.2207 181.269 37.0898L180.097 38.7891C178.173 38.1055 176.825 36.8164 176.073 35.1465C175.292 37.0703 173.818 38.584 171.679 39.3359L170.527 37.5781C173.446 36.6211 174.911 34.2676 174.921 31.7188V30.0391H177.109V31.6211ZM173.456 43.3398C173.437 41.1914 175.732 39.9316 179.452 39.9414C183.193 39.9316 185.478 41.1914 185.488 43.3398C185.478 45.4883 183.193 46.7188 179.452 46.7188C175.732 46.7188 173.437 45.4883 173.456 43.3398ZM175.605 43.3398C175.595 44.4141 177.001 45.0098 179.452 45.0195C181.923 45.0098 183.32 44.4141 183.32 43.3398C183.32 42.2266 181.923 41.6309 179.452 41.6211C177.001 41.6309 175.595 42.2266 175.605 43.3398ZM179.745 34.2773V32.5H183.261V29.082H185.429V39.4727H183.261V34.2773H179.745ZM198.642 30.1953L194.091 47.1289H191.904L196.474 30.1953H198.642ZM218.574 29.1016V41.9922H216.406V35.5273H213.281V33.7695H216.406V29.1016H218.574ZM203.75 38.1836C206.562 37.2559 208.066 34.9512 208.066 32.5977V32.1289H204.395V30.3711H213.926V32.1289H210.273V32.6172C210.273 34.7363 211.699 36.9336 214.434 37.832L213.34 39.5703C211.367 38.8965 209.971 37.5488 209.199 35.8789C208.428 37.7344 206.953 39.2188 204.863 39.9414L203.75 38.1836ZM206.992 46.3867V40.8594H209.16V44.6289H219.023V46.3867H206.992ZM236.988 37.9102V39.6484H230.171V42.8906H228.023V39.6484H220.855V37.9102H236.988ZM222.808 46.3867V41.2695H224.976V44.6289H235.21V46.3867H222.808ZM222.905 36.2695V29.8828H234.917V36.2695H222.905ZM225.015 34.5703H232.769V31.582H225.015V34.5703ZM251.788 29.082V35.9766H254.405V37.793H251.788V46.6992H249.62V29.082H251.788ZM237.862 41.875C242.159 39.7266 244.483 36.7383 244.913 32.7148H238.819V30.918H247.12C247.11 36.1035 244.961 40.6641 239.092 43.5547L237.862 41.875ZM270.279 29.082V46.7383H268.189V37.6953H266.314V45.8789H264.263V29.3945H266.314V35.8984H268.189V29.082H270.279ZM255.591 42.1875V30.9961H262.525V42.1875H255.591ZM257.623 40.4688H260.494V32.7148H257.623V40.4688ZM282.598 31.0547V32.7734H278.829C278.839 34.7363 280.382 36.6504 283.204 37.4023L282.188 39.082C280.128 38.5449 278.634 37.334 277.804 35.7812C277.012 37.5098 275.509 38.877 273.399 39.4922L272.345 37.8125C275.147 36.9922 276.651 34.9023 276.661 32.7734H272.891V31.0547H276.661V29.1016H278.848V31.0547H282.598ZM274.825 43.418C274.825 41.3281 277.12 40.1074 280.86 40.1172C284.581 40.1074 286.876 41.3281 286.876 43.418C286.876 45.5078 284.581 46.7188 280.86 46.7188C277.12 46.7188 274.825 45.5078 274.825 43.418ZM277.012 43.418C277.012 44.4727 278.37 45.0391 280.86 45.0391C283.341 45.0391 284.737 44.4727 284.747 43.418C284.737 42.373 283.341 41.7969 280.86 41.7969C278.37 41.7969 277.012 42.373 277.012 43.418ZM284.649 39.8047V29.1016H286.837V39.8047H284.649Z" fill="white"/>
<path d="M432 119.5L422 113.726V125.274L432 119.5ZM353.026 120.5C353.578 120.5 354.026 120.052 354.026 119.5C354.026 118.948 353.578 118.5 353.026 118.5V120.5ZM357.128 118.5C356.576 118.5 356.128 118.948 356.128 119.5C356.128 120.052 356.576 120.5 357.128 120.5V118.5ZM359.179 120.5C359.732 120.5 360.179 120.052 360.179 119.5C360.179 118.948 359.732 118.5 359.179 118.5V120.5ZM363.282 118.5C362.73 118.5 362.282 118.948 362.282 119.5C362.282 120.052 362.73 120.5 363.282 120.5V118.5ZM365.333 120.5C365.886 120.5 366.333 120.052 366.333 119.5C366.333 118.948 365.886 118.5 365.333 118.5V120.5ZM369.436 118.5C368.884 118.5 368.436 118.948 368.436 119.5C368.436 120.052 368.884 120.5 369.436 120.5V118.5ZM371.487 120.5C372.039 120.5 372.487 120.052 372.487 119.5C372.487 118.948 372.039 118.5 371.487 118.5V120.5ZM375.59 118.5C375.037 118.5 374.59 118.948 374.59 119.5C374.59 120.052 375.037 120.5 375.59 120.5V118.5ZM377.641 120.5C378.193 120.5 378.641 120.052 378.641 119.5C378.641 118.948 378.193 118.5 377.641 118.5V120.5ZM381.744 118.5C381.191 118.5 380.744 118.948 380.744 119.5C380.744 120.052 381.191 120.5 381.744 120.5V118.5ZM383.795 120.5C384.347 120.5 384.795 120.052 384.795 119.5C384.795 118.948 384.347 118.5 383.795 118.5V120.5ZM387.897 118.5C387.345 118.5 386.897 118.948 386.897 119.5C386.897 120.052 387.345 120.5 387.897 120.5V118.5ZM389.949 120.5C390.501 120.5 390.949 120.052 390.949 119.5C390.949 118.948 390.501 118.5 389.949 118.5V120.5ZM394.051 118.5C393.499 118.5 393.051 118.948 393.051 119.5C393.051 120.052 393.499 120.5 394.051 120.5V118.5ZM396.103 120.5C396.655 120.5 397.103 120.052 397.103 119.5C397.103 118.948 396.655 118.5 396.103 118.5V120.5ZM400.205 118.5C399.653 118.5 399.205 118.948 399.205 119.5C399.205 120.052 399.653 120.5 400.205 120.5V118.5ZM402.256 120.5C402.809 120.5 403.256 120.052 403.256 119.5C403.256 118.948 402.809 118.5 402.256 118.5V120.5ZM406.359 118.5C405.807 118.5 405.359 118.948 405.359 119.5C405.359 120.052 405.807 120.5 406.359 120.5V118.5ZM408.41 120.5C408.963 120.5 409.41 120.052 409.41 119.5C409.41 118.948 408.963 118.5 408.41 118.5V120.5ZM412.513 118.5C411.961 118.5 411.513 118.948 411.513 119.5C411.513 120.052 411.961 120.5 412.513 120.5V118.5ZM414.564 120.5C415.116 120.5 415.564 120.052 415.564 119.5C415.564 118.948 415.116 118.5 414.564 118.5V120.5ZM418.667 118.5C418.114 118.5 417.667 118.948 417.667 119.5C417.667 120.052 418.114 120.5 418.667 120.5V118.5ZM420.718 120.5C421.27 120.5 421.718 120.052 421.718 119.5C421.718 118.948 421.27 118.5 420.718 118.5V120.5ZM424.821 118.5C424.268 118.5 423.821 118.948 423.821 119.5C423.821 120.052 424.268 120.5 424.821 120.5V118.5ZM426.872 120.5C427.424 120.5 427.872 120.052 427.872 119.5C427.872 118.948 427.424 118.5 426.872 118.5V120.5ZM430.974 118.5C430.422 118.5 429.974 118.948 429.974 119.5C429.974 120.052 430.422 120.5 430.974 120.5V118.5ZM352 120.5H353.026V118.5H352V120.5ZM357.128 120.5H359.179V118.5H357.128V120.5ZM363.282 120.5H365.333V118.5H363.282V120.5ZM369.436 120.5H371.487V118.5H369.436V120.5ZM375.59 120.5H377.641V118.5H375.59V120.5ZM381.744 120.5H383.795V118.5H381.744V120.5ZM387.897 120.5H389.949V118.5H387.897V120.5ZM394.051 120.5H396.103V118.5H394.051V120.5ZM400.205 120.5H402.256V118.5H400.205V120.5ZM406.359 120.5H408.41V118.5H406.359V120.5ZM412.513 120.5H414.564V118.5H412.513V120.5ZM418.667 120.5H420.718V118.5H418.667V120.5ZM424.821 120.5H426.872V118.5H424.821V120.5Z" fill="#D3D3D3"/>
<rect x="444.5" y="42.5" width="339" height="196" rx="4.5" fill="white"/>
<rect x="444.5" y="42.5" width="339" height="196" rx="4.5" stroke="#114493"/>
<path d="M475.156 117V105.688H476.875V115.516H481.984V117H475.156ZM485.309 105.688V117H483.59V105.688H485.309ZM496.571 105.688V117H494.993L489.258 108.734H489.164V117H487.446V105.688H489.039L494.774 113.969H494.883V105.688H496.571ZM506.379 109.375C506.106 107.914 504.895 107.102 503.458 107.109C501.504 107.102 500.059 108.602 500.051 111.344C500.059 114.102 501.512 115.586 503.458 115.578C504.879 115.586 506.083 114.789 506.379 113.344L508.114 113.359C507.754 115.594 505.934 117.156 503.442 117.156C500.497 117.156 498.348 114.961 498.348 111.344C498.348 107.727 500.512 105.531 503.442 105.531C505.833 105.531 507.731 106.945 508.114 109.375H506.379ZM517.419 117.156C515.075 117.156 513.411 115.898 513.341 114.047H515.091C515.153 115.039 516.138 115.672 517.403 115.672C518.77 115.672 519.763 114.93 519.763 113.828C519.763 112.711 518.833 111.914 517.216 111.906H516.247V110.5H517.216C518.505 110.508 519.403 109.789 519.403 108.703C519.403 107.672 518.63 106.969 517.434 106.969C516.302 106.969 515.286 107.602 515.247 108.625H513.591C513.638 106.781 515.341 105.531 517.45 105.531C519.677 105.531 521.075 106.938 521.059 108.609C521.075 109.898 520.278 110.82 519.059 111.125V111.203C520.606 111.422 521.505 112.461 521.497 113.891C521.505 115.773 519.763 117.156 517.419 117.156ZM523.993 117.109C523.384 117.102 522.876 116.609 522.884 116C522.876 115.391 523.384 114.891 523.993 114.891C524.595 114.891 525.095 115.391 525.103 116C525.095 116.609 524.595 117.102 523.993 117.109ZM530.458 117.156C527.841 117.156 526.302 115.047 526.302 111.344C526.302 107.664 527.857 105.531 530.458 105.531C533.052 105.531 534.607 107.664 534.614 111.344C534.607 115.047 533.075 117.156 530.458 117.156ZM528.021 111.344C528.013 114.164 528.927 115.672 530.458 115.672C531.982 115.672 532.896 114.164 532.896 111.344C532.896 108.531 531.974 106.992 530.458 106.984C528.935 106.992 528.021 108.531 528.021 111.344ZM544.357 107.891C544.341 110.367 545.787 112.906 547.872 113.922L546.951 115.109C545.427 114.312 544.247 112.75 543.63 110.883C543.005 112.867 541.779 114.547 540.185 115.375L539.263 114.172C541.412 113.141 542.865 110.453 542.872 107.891V105.5H544.357V107.891ZM548.919 118.328V104.328H550.404V109.906H552.654V111.172H550.404V118.328H548.919ZM557.041 104.969C558.884 104.953 560.314 106.023 560.619 107.594H563.353V104.328H564.838V111.844H563.353V108.812H560.627C560.338 110.422 558.9 111.5 557.041 111.5C554.9 111.5 553.361 110.148 553.369 108.219C553.361 106.312 554.9 104.953 557.041 104.969ZM554.791 108.219C554.783 109.414 555.72 110.25 557.041 110.25C558.338 110.25 559.259 109.414 559.259 108.219C559.259 107.016 558.338 106.195 557.041 106.203C555.72 106.195 554.783 107.016 554.791 108.219ZM555.713 118.156V112.516H557.181V114.141H563.353V112.516H564.838V118.156H555.713ZM557.181 116.938H563.353V115.312H557.181V116.938ZM577.834 104.312V108.375H579.881V109.609H577.834V114.453H576.349V104.312H577.834ZM567.459 112.031V105.516H573.709V106.719H568.927V110.797C571.654 110.805 573.185 110.719 574.943 110.359L575.115 111.562C573.224 111.938 571.568 112.031 568.568 112.031H567.459ZM568.959 118.031V113.406H570.443V116.828H578.427V118.031H568.959ZM591.389 105.141C591.397 106.812 593.631 108.422 596.295 108.75L595.748 109.922C593.514 109.594 591.545 108.492 590.639 106.977C589.748 108.508 587.779 109.594 585.529 109.922L584.951 108.75C587.639 108.422 589.865 106.844 589.873 105.141V104.562H591.389V105.141ZM584.248 112.125V110.938H597.014V112.125H584.248ZM585.764 115.812C585.764 114.195 587.576 113.312 590.623 113.312C593.631 113.312 595.443 114.195 595.451 115.812C595.443 117.414 593.631 118.32 590.623 118.328C587.576 118.32 585.764 117.414 585.764 115.812ZM587.264 115.812C587.256 116.695 588.482 117.172 590.623 117.156C592.732 117.172 593.967 116.695 593.967 115.812C593.967 114.938 592.732 114.453 590.623 114.453C588.482 114.453 587.256 114.938 587.264 115.812ZM609.526 104.344V114.516H608.041V104.344H609.526ZM598.198 108.75C598.205 106.727 599.815 105.289 601.932 105.281C604.041 105.289 605.651 106.727 605.651 108.75C605.651 110.805 604.041 112.234 601.932 112.234C599.815 112.234 598.205 110.805 598.198 108.75ZM599.651 108.75C599.643 110.07 600.627 110.938 601.932 110.938C603.213 110.938 604.198 110.07 604.198 108.75C604.198 107.461 603.213 106.578 601.932 106.578C600.627 106.578 599.643 107.461 599.651 108.75ZM600.369 118.031V113.484H601.869V116.828H609.948V118.031H600.369ZM627.378 105.875V107.094H615.987V105.875H620.971V104.266H622.44V105.875H627.378ZM615.331 114.609V113.391H628.143V114.609H622.44V118.344H620.971V114.609H615.331ZM617.049 110.172C617.042 108.641 618.792 107.805 621.706 107.812C624.612 107.805 626.362 108.641 626.362 110.172C626.362 111.664 624.612 112.508 621.706 112.516C618.792 112.508 617.042 111.664 617.049 110.172ZM618.581 110.172C618.581 110.953 619.698 111.398 621.706 111.391C623.706 111.398 624.823 110.953 624.831 110.172C624.823 109.367 623.706 108.922 621.706 108.922C619.698 108.922 618.581 109.367 618.581 110.172ZM637.87 108.453C637.862 110.664 639.323 113.133 641.448 114.141L640.604 115.297C639.034 114.547 637.784 112.969 637.151 111.141C636.511 113.133 635.198 114.859 633.604 115.656L632.729 114.484C634.854 113.461 636.393 110.82 636.401 108.453V106.969H633.245V105.734H640.917V106.969H637.87V108.453ZM642.417 118.328V104.328H643.901V109.875H646.151V111.125H643.901V118.328H642.417ZM659.46 111.406V112.609H653.898V115.328H652.429V112.609H646.648V111.406H659.46ZM648.241 118.031V114H649.726V116.828H658.038V118.031H648.241ZM648.288 109.953V104.984H657.804V109.953H648.288ZM649.741 108.781H656.335V106.156H649.741V108.781ZM671.468 105.219V110.969H664.812V105.219H671.468ZM665.734 117.141C668.281 116.891 670.273 115.617 670.374 114.359H666.296V113.234H670.406V111.922H671.874V113.234H675.999V114.359H671.906C672.007 115.578 673.952 116.859 676.499 117.141L675.999 118.281C673.804 118.016 671.992 117.078 671.148 115.844C670.288 117.094 668.452 118.016 666.249 118.281L665.734 117.141ZM666.265 109.812H669.999V106.406H666.265V109.812ZM674.202 112.328V104.328H675.671V112.328H674.202ZM688.804 105.438C688.797 109.148 686.992 111.844 682.414 113.359L681.82 112.188C684.101 111.445 685.547 110.438 686.367 109.203L682.008 109.562L681.773 108.359L686.914 108.141C687.086 107.664 687.195 107.164 687.242 106.641H682.476V105.438H688.804ZM684.195 118.031V113.688H685.695V116.828H693.554V118.031H684.195ZM688.758 109.938V108.719H691.679V104.344H693.164V114.703H691.679V109.938H688.758ZM706.832 104.328V111.531H705.348V107.938H702.394V106.734H705.348V104.328H706.832ZM695.113 110.406C697.301 109.711 698.605 107.969 698.613 106V104.781H700.082V106C700.082 107.781 701.363 109.438 703.473 110.109L702.691 111.266C701.152 110.734 699.988 109.68 699.371 108.344C698.762 109.852 697.566 111.023 695.91 111.594L695.113 110.406ZM697.676 113.359V112.188H706.832V115.672H699.16V116.969H707.316V118.156H697.707V114.547H705.363V113.359H697.676ZM716.359 105.344V106.531H711.125V108.078H715.969V109.25H711.125V110.844C713.922 110.859 715.555 110.812 717.453 110.484L717.609 111.688C715.586 112.016 713.844 112.07 710.781 112.062H709.625V105.344H716.359ZM710.984 115.719C710.984 114.086 712.773 113.141 715.75 113.141C718.68 113.141 720.508 114.086 720.516 115.719C720.508 117.367 718.68 118.305 715.75 118.297C712.773 118.305 710.984 117.367 710.984 115.719ZM712.469 115.719C712.461 116.633 713.664 117.148 715.75 117.156C717.797 117.148 719.039 116.633 719.031 115.719C719.039 114.828 717.797 114.305 715.75 114.312C713.664 114.305 712.461 114.828 712.469 115.719ZM718.953 112.953V104.344H720.438V112.953H718.953ZM737.836 104.328V111.531H736.367V104.328H737.836ZM726.289 110.281C728.477 109.555 729.813 107.719 729.821 105.781V104.703H731.336V105.781C731.328 107.656 732.672 109.359 734.821 110.031L734.086 111.188C732.453 110.656 731.227 109.555 730.594 108.133C729.961 109.664 728.711 110.883 727.039 111.453L726.289 110.281ZM728.649 113.375V112.203H737.852V115.703H730.133V117H738.321V118.188H728.696V114.578H736.383V113.375H728.649ZM745.051 107.891C745.036 110.445 746.582 113.023 748.754 113.984L747.864 115.156C746.254 114.391 744.981 112.82 744.325 110.906C743.676 112.961 742.387 114.648 740.707 115.469L739.801 114.219C742.004 113.242 743.551 110.562 743.551 107.891V105.5H745.051V107.891ZM750.02 118.359V104.328H751.504V118.359H750.02Z" fill="#111111"/>
<rect x="455" width="318" height="76" rx="38" fill="#0E419C"/>
<rect x="463" y="8" width="60" height="60" rx="30" fill="white"/>
<g clip-path="url(#clip1_920_90595)">
<path d="M479.462 38.324L485.23 39.14C485.782 39.216 486.054 38.48 485.578 38.18C485.498 38.128 483.686 36.932 484.27 33.436C485.214 33.28 487.518 32.644 488.894 30.108C489.49 31.084 490.61 32.404 492.278 32.408C492.322 34.5 492.078 37.6 491.178 38.444C490.798 38.8 491.118 39.432 491.626 39.34C497.07 38.228 497.562 38.548 497.678 37.896C497.718 37.68 497.618 37.464 497.426 37.352C497.338 37.3 495.318 36.072 495.538 32.94C495.562 32.776 496.134 28.844 493.894 26.22C492.642 24.752 490.774 23.996 488.342 23.98C485.914 23.996 484.05 24.748 482.794 26.22C480.554 28.848 481.126 32.776 481.146 32.9C481.374 36.072 479.35 37.304 479.266 37.352C478.838 37.6 478.962 38.252 479.454 38.324H479.462ZM482.19 32.788C482.186 32.752 481.666 29.156 483.598 26.9C484.646 25.676 486.246 25.048 488.346 25.032C493.018 25.06 495.07 28.328 494.506 32.828C494.338 35.196 495.242 36.68 495.99 37.492L492.602 38.104C493.482 35.968 493.33 32.308 493.306 31.816C493.29 31.5 493.002 31.272 492.694 31.328C490.558 31.704 489.366 28.744 489.354 28.716C489.274 28.516 489.066 28.38 488.862 28.384C488.646 28.384 488.45 28.52 488.378 28.724C487.094 32.212 483.934 32.432 483.802 32.44C483.562 32.452 483.362 32.624 483.318 32.856C482.81 35.336 483.338 36.944 483.942 37.9L480.754 37.448C481.494 36.628 482.37 35.14 482.202 32.784L482.19 32.788Z" fill="#114493"/>
<path d="M492.366 40.2921C492.134 40.2561 491.918 40.3681 491.814 40.5721C490.278 43.6041 486.406 43.5761 484.886 40.5721C484.782 40.3681 484.562 40.2561 484.334 40.2921C481.33 40.7801 477.278 42.3721 476.866 45.3961C476.362 49.0601 475.814 53.5961 476.078 54.3921C476.15 54.6041 476.35 54.7521 476.574 54.7521H500.118C500.342 54.7521 500.542 54.6081 500.614 54.3921C500.878 53.6001 500.33 49.0601 499.826 45.3961C499.414 42.3641 495.342 40.7801 492.358 40.2921H492.366ZM477.046 53.7041C477.038 52.6001 477.366 49.4481 477.906 45.5361C478.238 43.1121 481.778 41.8881 484.15 41.3921C486.146 44.7081 490.558 44.7081 492.558 41.3921C494.93 41.8881 498.466 43.1121 498.802 45.5361C499.338 49.4481 499.666 52.6001 499.658 53.7041H477.046Z" fill="#114493"/>
<path d="M488.35 50.5962C487.83 50.5962 487.41 51.0162 487.41 51.5362C487.41 52.0562 487.83 52.4762 488.35 52.4762C488.87 52.4762 489.29 52.0562 489.29 51.5362C489.29 51.0162 488.87 50.5962 488.35 50.5962Z" fill="#114493"/>
<path d="M488.35 47.78C487.83 47.78 487.41 48.2 487.41 48.72C487.41 49.24 487.83 49.66 488.35 49.66C488.87 49.66 489.29 49.24 489.29 48.72C489.29 48.2 488.87 47.78 488.35 47.78Z" fill="#114493"/>
<path d="M488.35 44.9641C487.83 44.9641 487.41 45.3841 487.41 45.9041C487.41 46.4241 487.83 46.8441 488.35 46.8441C488.87 46.8441 489.29 46.4241 489.29 45.9041C489.29 45.3841 488.87 44.9641 488.35 44.9641Z" fill="#114493"/>
<path d="M503.298 21.248C499.61 21.248 496.61 24.248 496.61 27.936C496.61 29.16 496.942 30.352 497.566 31.388L497.158 34.288C497.11 34.632 497.402 34.924 497.746 34.88L501.494 34.38C502.082 34.548 502.69 34.632 503.298 34.632C506.986 34.632 509.986 31.628 509.986 27.936C509.986 24.244 506.986 21.248 503.298 21.248ZM503.298 33.588C502.75 33.588 502.21 33.508 501.686 33.352C501.614 33.332 501.534 33.324 501.462 33.336L498.29 33.76L498.63 31.356C498.646 31.232 498.618 31.104 498.55 31C497.966 30.092 497.654 29.036 497.654 27.948C497.654 24.836 500.186 22.304 503.298 22.304C506.41 22.304 508.942 24.836 508.942 27.948C508.942 31.06 506.41 33.596 503.298 33.596V33.588Z" fill="#114493"/>
<path d="M507.01 25.364C506.422 25.364 505.946 25.84 505.946 26.428C505.946 26.568 505.974 26.696 506.022 26.82L504.71 28.44C504.65 28.428 504.59 28.42 504.53 28.42C504.47 28.42 504.414 28.428 504.358 28.436L503.206 27.016C503.238 26.912 503.262 26.804 503.262 26.692C503.262 26.104 502.786 25.628 502.198 25.628C501.61 25.628 501.134 26.104 501.134 26.692C501.134 26.752 501.142 26.812 501.154 26.872L499.946 27.932C499.834 27.892 499.718 27.868 499.598 27.868C499.01 27.868 498.534 28.344 498.534 28.932C498.534 29.52 499.01 29.996 499.598 29.996C500.186 29.996 500.662 29.52 500.662 28.932C500.662 28.856 500.654 28.784 500.638 28.712L501.814 27.68C501.934 27.728 502.062 27.756 502.198 27.756C502.282 27.756 502.362 27.744 502.438 27.728L503.542 29.092C503.494 29.216 503.466 29.348 503.466 29.488C503.466 30.076 503.942 30.552 504.53 30.552C505.118 30.552 505.594 30.076 505.594 29.488C505.594 29.352 505.566 29.22 505.518 29.1L506.834 27.476C506.89 27.484 506.95 27.492 507.01 27.492C507.598 27.492 508.074 27.016 508.074 26.428C508.074 25.84 507.598 25.364 507.01 25.364Z" fill="#114493"/>
</g>
<path d="M556.487 29.082V46.7383H554.3V29.082H556.487ZM541.858 41.875C546.487 39.6777 548.616 36.6895 549.007 32.6758H542.757V30.957H551.214C551.214 36.2109 549.173 40.6738 542.991 43.6133L541.858 41.875ZM567.986 29.6484C567.986 31.5332 570.398 33.252 574.08 33.6523L573.357 35.293C570.359 34.9512 567.986 33.7598 566.854 32.041C565.721 33.7598 563.348 34.9512 560.389 35.293L559.646 33.6523C563.348 33.252 565.75 31.5332 565.76 29.6484V29.1797H567.986V29.6484ZM558.826 37.8906V36.1719H574.92V37.8906H567.928V39.2578H572.908V43.6328H562.869V44.9219H573.396V46.582H560.74V42.0703H570.779V40.918H560.721V39.2578H565.76V37.8906H558.826ZM582.239 34.1016C582.23 36.8262 583.87 39.9316 586.654 41.2305L585.443 42.9492C583.45 42.0117 581.976 40.1172 581.185 37.9102C580.384 40.332 578.841 42.4023 576.81 43.3789L575.54 41.6797C578.353 40.3418 580.062 37.041 580.071 34.1016V32.6172H576.224V30.8203H585.931V32.6172H582.239V34.1016ZM587.571 46.7383V29.082H589.739V35.957H592.454V37.7734H589.739V46.7383H587.571ZM609.11 37.9102V39.6484H602.293V42.8906H600.145V39.6484H592.977V37.9102H609.11ZM594.93 46.3867V41.2695H597.098V44.6289H607.332V46.3867H594.93ZM595.028 36.2695V29.8828H607.039V36.2695H595.028ZM597.137 34.5703H604.891V31.582H597.137V34.5703ZM624.042 30.1758V37.5195H615.526V30.1758H624.042ZM616.581 45.0195C619.97 44.7266 622.137 43.2227 622.333 41.8164H617.304V40.1758H622.382V38.6328H624.569V40.1758H629.667V41.8164H624.628C624.823 43.1836 626.952 44.6777 630.331 45.0195L629.589 46.6797C626.727 46.377 624.559 45.2539 623.485 43.7891C622.401 45.2734 620.204 46.3672 617.323 46.6797L616.581 45.0195ZM617.675 35.8203H621.893V31.8945H617.675V35.8203ZM627.147 39.1406V29.082H629.296V39.1406H627.147ZM645.517 30.4492C645.517 35.2637 643.32 38.6328 637.45 40.5469L636.611 38.8477C639.316 37.9688 641.034 36.8262 642.04 35.4395L636.904 35.8594L636.571 34.1406L642.861 33.8867C643.046 33.3594 643.163 32.793 643.222 32.207H637.47V30.4492H645.517ZM639.599 46.3867V40.8594H641.786V44.6289H651.513V46.3867H639.599ZM645.439 36.3086V34.5312H648.876V29.1016H651.044V42.1484H648.876V36.3086H645.439ZM668.129 29.082V38.125H665.961V33.6523H662.446V31.9141H665.961V29.082H668.129ZM653.246 36.4844C656.088 35.625 657.563 33.4473 657.563 31.0742V29.668H659.75V31.0742C659.741 33.252 661.166 35.3125 663.911 36.1523L662.758 37.832C660.844 37.1973 659.457 35.9473 658.676 34.3457C657.914 36.1328 656.459 37.5391 654.379 38.2227L653.246 36.4844ZM656.508 40.5859V38.8867H668.129V43.457H658.657V44.8047H668.696V46.5234H656.528V41.8359H665.981V40.5859H656.508ZM679.941 30.3516V32.0703H673.613V33.75H679.433V35.4492H673.613V37.1484C676.914 37.1582 678.925 37.1094 681.25 36.7188L681.464 38.4375C678.935 38.8574 676.718 38.916 672.91 38.9062H671.406V30.3516H679.941ZM673.144 43.418C673.134 41.3281 675.41 40.1074 679.179 40.1172C682.88 40.1074 685.214 41.3281 685.214 43.418C685.214 45.5078 682.88 46.7188 679.179 46.7188C675.41 46.7188 673.134 45.5078 673.144 43.418ZM675.312 43.418C675.293 44.4727 676.67 45.0391 679.179 45.0391C681.63 45.0391 683.046 44.4727 683.046 43.418C683.046 42.373 681.63 41.7969 679.179 41.7969C676.67 41.7969 675.293 42.373 675.312 43.418ZM682.949 39.8633V29.1016H685.136V39.8633H682.949ZM706.729 29.082V38.0859H704.58V29.082H706.729ZM692.041 36.3672C694.902 35.459 696.406 33.1934 696.396 30.8789V29.5117H698.643V30.8789C698.633 33.125 700.127 35.2246 702.92 36.0742L701.865 37.7539C699.814 37.1191 698.35 35.8105 697.549 34.1309C696.748 35.957 695.244 37.3926 693.135 38.0664L692.041 36.3672ZM695.049 40.5859V38.9062H706.768V43.4961H697.217V44.8633H707.295V46.582H695.088V41.875H704.6V40.5859H695.049ZM715.825 33.3203C715.806 36.5625 717.515 39.8047 720.376 41.0352L719.087 42.7734C717.056 41.8359 715.571 39.9707 714.751 37.666C713.941 40.1465 712.417 42.1777 710.279 43.1836L708.95 41.3672C711.89 40.0977 713.609 36.7285 713.618 33.3203V30.5078H715.825V33.3203ZM721.646 46.7578V29.082H723.833V46.7578H721.646Z" fill="white"/>
<path d="M876 119.5L866 113.726V125.274L876 119.5ZM797.026 120.5C797.578 120.5 798.026 120.052 798.026 119.5C798.026 118.948 797.578 118.5 797.026 118.5V120.5ZM801.128 118.5C800.576 118.5 800.128 118.948 800.128 119.5C800.128 120.052 800.576 120.5 801.128 120.5V118.5ZM803.179 120.5C803.732 120.5 804.179 120.052 804.179 119.5C804.179 118.948 803.732 118.5 803.179 118.5V120.5ZM807.282 118.5C806.73 118.5 806.282 118.948 806.282 119.5C806.282 120.052 806.73 120.5 807.282 120.5V118.5ZM809.333 120.5C809.886 120.5 810.333 120.052 810.333 119.5C810.333 118.948 809.886 118.5 809.333 118.5V120.5ZM813.436 118.5C812.884 118.5 812.436 118.948 812.436 119.5C812.436 120.052 812.884 120.5 813.436 120.5V118.5ZM815.487 120.5C816.039 120.5 816.487 120.052 816.487 119.5C816.487 118.948 816.039 118.5 815.487 118.5V120.5ZM819.59 118.5C819.037 118.5 818.59 118.948 818.59 119.5C818.59 120.052 819.037 120.5 819.59 120.5V118.5ZM821.641 120.5C822.193 120.5 822.641 120.052 822.641 119.5C822.641 118.948 822.193 118.5 821.641 118.5V120.5ZM825.744 118.5C825.191 118.5 824.744 118.948 824.744 119.5C824.744 120.052 825.191 120.5 825.744 120.5V118.5ZM827.795 120.5C828.347 120.5 828.795 120.052 828.795 119.5C828.795 118.948 828.347 118.5 827.795 118.5V120.5ZM831.897 118.5C831.345 118.5 830.897 118.948 830.897 119.5C830.897 120.052 831.345 120.5 831.897 120.5V118.5ZM833.949 120.5C834.501 120.5 834.949 120.052 834.949 119.5C834.949 118.948 834.501 118.5 833.949 118.5V120.5ZM838.051 118.5C837.499 118.5 837.051 118.948 837.051 119.5C837.051 120.052 837.499 120.5 838.051 120.5V118.5ZM840.103 120.5C840.655 120.5 841.103 120.052 841.103 119.5C841.103 118.948 840.655 118.5 840.103 118.5V120.5ZM844.205 118.5C843.653 118.5 843.205 118.948 843.205 119.5C843.205 120.052 843.653 120.5 844.205 120.5V118.5ZM846.256 120.5C846.809 120.5 847.256 120.052 847.256 119.5C847.256 118.948 846.809 118.5 846.256 118.5V120.5ZM850.359 118.5C849.807 118.5 849.359 118.948 849.359 119.5C849.359 120.052 849.807 120.5 850.359 120.5V118.5ZM852.41 120.5C852.963 120.5 853.41 120.052 853.41 119.5C853.41 118.948 852.963 118.5 852.41 118.5V120.5ZM856.513 118.5C855.961 118.5 855.513 118.948 855.513 119.5C855.513 120.052 855.961 120.5 856.513 120.5V118.5ZM858.564 120.5C859.116 120.5 859.564 120.052 859.564 119.5C859.564 118.948 859.116 118.5 858.564 118.5V120.5ZM862.667 118.5C862.114 118.5 861.667 118.948 861.667 119.5C861.667 120.052 862.114 120.5 862.667 120.5V118.5ZM864.718 120.5C865.27 120.5 865.718 120.052 865.718 119.5C865.718 118.948 865.27 118.5 864.718 118.5V120.5ZM868.821 118.5C868.268 118.5 867.821 118.948 867.821 119.5C867.821 120.052 868.268 120.5 868.821 120.5V118.5ZM870.872 120.5C871.424 120.5 871.872 120.052 871.872 119.5C871.872 118.948 871.424 118.5 870.872 118.5V120.5ZM874.974 118.5C874.422 118.5 873.974 118.948 873.974 119.5C873.974 120.052 874.422 120.5 874.974 120.5V118.5ZM796 120.5H797.026V118.5H796V120.5ZM801.128 120.5H803.179V118.5H801.128V120.5ZM807.282 120.5H809.333V118.5H807.282V120.5ZM813.436 120.5H815.487V118.5H813.436V120.5ZM819.59 120.5H821.641V118.5H819.59V120.5ZM825.744 120.5H827.795V118.5H825.744V120.5ZM831.897 120.5H833.949V118.5H831.897V120.5ZM838.051 120.5H840.103V118.5H838.051V120.5ZM844.205 120.5H846.256V118.5H844.205V120.5ZM850.359 120.5H852.41V118.5H850.359V120.5ZM856.513 120.5H858.564V118.5H856.513V120.5ZM862.667 120.5H864.718V118.5H862.667V120.5ZM868.821 120.5H870.872V118.5H868.821V120.5Z" fill="#D3D3D3"/>
<rect x="888.5" y="42.5" width="339" height="196" rx="4.5" fill="white"/>
<rect x="888.5" y="42.5" width="339" height="196" rx="4.5" stroke="#114493"/>
<path d="M923.391 108.453C923.383 110.664 924.844 113.133 926.969 114.141L926.125 115.297C924.555 114.547 923.305 112.969 922.672 111.141C922.031 113.133 920.719 114.859 919.125 115.656L918.25 114.484C920.375 113.461 921.914 110.82 921.922 108.453V106.969H918.766V105.734H926.438V106.969H923.391V108.453ZM927.938 118.328V104.328H929.422V109.875H931.672V111.125H929.422V118.328H927.938ZM944.981 111.406V112.609H939.418V115.328H937.949V112.609H932.168V111.406H944.981ZM933.762 118.031V114H935.246V116.828H943.559V118.031H933.762ZM933.809 109.953V104.984H943.324V109.953H933.809ZM935.262 108.781H941.856V106.156H935.262V108.781ZM956.911 105.438C956.903 109.148 955.098 111.844 950.52 113.359L949.926 112.188C952.208 111.445 953.653 110.438 954.473 109.203L950.114 109.562L949.879 108.359L955.02 108.141C955.192 107.664 955.301 107.164 955.348 106.641H950.583V105.438H956.911ZM952.301 118.031V113.688H953.801V116.828H961.661V118.031H952.301ZM956.864 109.938V108.719H959.786V104.344H961.27V114.703H959.786V109.938H956.864ZM974.938 104.328V111.531H973.454V107.938H970.501V106.734H973.454V104.328H974.938ZM963.219 110.406C965.407 109.711 966.712 107.969 966.719 106V104.781H968.188V106C968.188 107.781 969.469 109.438 971.579 110.109L970.798 111.266C969.258 110.734 968.094 109.68 967.477 108.344C966.868 109.852 965.673 111.023 964.016 111.594L963.219 110.406ZM965.782 113.359V112.188H974.938V115.672H967.266V116.969H975.423V118.156H965.813V114.547H973.469V113.359H965.782ZM984.466 105.344V106.531H979.231V108.078H984.075V109.25H979.231V110.844C982.028 110.859 983.661 110.812 985.559 110.484L985.716 111.688C983.692 112.016 981.95 112.07 978.888 112.062H977.731V105.344H984.466ZM979.091 115.719C979.091 114.086 980.88 113.141 983.856 113.141C986.786 113.141 988.614 114.086 988.622 115.719C988.614 117.367 986.786 118.305 983.856 118.297C980.88 118.305 979.091 117.367 979.091 115.719ZM980.575 115.719C980.567 116.633 981.77 117.148 983.856 117.156C985.903 117.148 987.145 116.633 987.138 115.719C987.145 114.828 985.903 114.305 983.856 114.312C981.77 114.305 980.567 114.828 980.575 115.719ZM987.059 112.953V104.344H988.544V112.953H987.059ZM998.599 104.953C1000.65 104.953 1002.08 106.078 1002.1 107.75C1002.08 109.172 1001 110.211 999.38 110.469V111.719C1000.61 111.648 1001.86 111.531 1003.02 111.359L1003.13 112.453C1000.19 112.984 996.896 113.039 994.489 113.031L994.333 111.828C995.38 111.836 996.607 111.828 997.896 111.781V110.484C996.224 110.25 995.107 109.195 995.114 107.75C995.107 106.078 996.544 104.953 998.599 104.953ZM996.317 118.031V114.109H997.802V116.812H1005.86V118.031H996.317ZM996.505 107.75C996.489 108.742 997.364 109.391 998.599 109.391C999.841 109.391 1000.69 108.742 1000.69 107.75C1000.69 106.734 999.841 106.094 998.599 106.094C997.364 106.094 996.489 106.734 996.505 107.75ZM1003.88 115.047V104.344H1005.36V108.969H1007.36V110.219H1005.36V115.047H1003.88ZM1020.83 115.406V116.656H1008.02V115.406H1011.52V112.938H1009.58V108.484H1017.8V106.531H1009.55V105.312H1019.27V109.688H1011.05V111.719H1019.6V112.938H1017.47V115.406H1020.83ZM1012.95 115.406H1016.02V112.938H1012.95V115.406ZM1037.48 105.875V107.094H1026.09V105.875H1031.07V104.266H1032.54V105.875H1037.48ZM1025.43 114.609V113.391H1038.24V114.609H1032.54V118.344H1031.07V114.609H1025.43ZM1027.15 110.172C1027.14 108.641 1028.89 107.805 1031.81 107.812C1034.71 107.805 1036.46 108.641 1036.46 110.172C1036.46 111.664 1034.71 112.508 1031.81 112.516C1028.89 112.508 1027.14 111.664 1027.15 110.172ZM1028.68 110.172C1028.68 110.953 1029.8 111.398 1031.81 111.391C1033.81 111.398 1034.92 110.953 1034.93 110.172C1034.92 109.367 1033.81 108.922 1031.81 108.922C1029.8 108.922 1028.68 109.367 1028.68 110.172ZM1047.06 104.797C1049.17 104.812 1050.73 106.102 1050.74 107.938C1050.73 109.781 1049.17 111.062 1047.06 111.062C1044.93 111.062 1043.38 109.781 1043.38 107.938C1043.38 106.102 1044.93 104.812 1047.06 104.797ZM1044.83 107.938C1044.82 109.094 1045.78 109.859 1047.06 109.859C1048.35 109.859 1049.3 109.094 1049.3 107.938C1049.3 106.797 1048.35 106.031 1047.06 106.047C1045.78 106.031 1044.82 106.797 1044.83 107.938ZM1045.5 113.281V112.094H1054.71V115.625H1046.99V116.969H1055.17V118.156H1045.55V114.516H1053.24V113.281H1045.5ZM1053.22 111.453V104.328H1054.71V111.453H1053.22ZM1069.53 112.219V113.422H1063.84V118.312H1062.39V113.422H1056.76V112.219H1069.53ZM1057.48 109.984C1060.09 109.625 1062.26 108.07 1062.31 106.344H1057.95V105.156H1068.33V106.344H1064C1064.02 108.07 1066.18 109.625 1068.83 109.984L1068.28 111.156C1065.98 110.797 1064 109.664 1063.15 108.07C1062.29 109.664 1060.31 110.797 1058.04 111.156L1057.48 109.984ZM1074.4 104.797C1076.51 104.812 1078.06 106.102 1078.07 107.938C1078.06 109.781 1076.51 111.062 1074.4 111.062C1072.27 111.062 1070.72 109.781 1070.71 107.938C1070.72 106.102 1072.27 104.812 1074.4 104.797ZM1072.17 107.938C1072.16 109.094 1073.11 109.859 1074.4 109.859C1075.68 109.859 1076.63 109.094 1076.63 107.938C1076.63 106.797 1075.68 106.031 1074.4 106.047C1073.11 106.031 1072.16 106.797 1072.17 107.938ZM1072.84 113.281V112.094H1082.04V115.625H1074.32V116.969H1082.51V118.156H1072.88V114.516H1080.57V113.281H1072.84ZM1080.56 111.453V104.328H1082.04V111.453H1080.56ZM1099.44 104.328V118.359H1097.96V104.328H1099.44ZM1088.33 110.281C1088.33 107.289 1089.84 105.383 1091.96 105.375C1094.03 105.383 1095.57 107.289 1095.57 110.281C1095.57 113.305 1094.03 115.211 1091.96 115.203C1089.84 115.211 1088.33 113.305 1088.33 110.281ZM1089.77 110.281C1089.76 112.508 1090.65 113.875 1091.96 113.875C1093.24 113.875 1094.13 112.508 1094.13 110.281C1094.13 108.086 1093.24 106.711 1091.96 106.703C1090.65 106.711 1089.76 108.086 1089.77 110.281ZM1113.5 104.328V118.328H1112.08V111.156H1110.28V117.609H1108.89V104.609H1110.28V109.938H1112.08V104.328H1113.5ZM1102.17 114.766V105.984H1103.65V113.461C1104.94 113.445 1106.36 113.344 1107.95 113.031L1108.11 114.328C1106.19 114.672 1104.58 114.773 1103.08 114.766H1102.17ZM1130.6 104.328V111.453H1129.12V110.109H1125.57V108.953H1129.12V107.438H1125.74C1124.87 109.609 1122.76 111.047 1119.66 111.766L1119.15 110.547C1122.51 109.805 1124.32 108.242 1124.56 106.188H1119.88V104.969H1126.19C1126.19 105.422 1126.16 105.852 1126.08 106.266H1129.12V104.328H1130.6ZM1121.44 113.219V112.047H1130.6V115.594H1122.94V117H1131.02V118.188H1121.48V114.469H1129.12V113.219H1121.44ZM1140.39 105.828V106.688C1140.39 107.867 1140.39 109.672 1139.99 112.172L1138.52 112.062C1138.88 109.828 1138.92 108.195 1138.93 107.031H1133.24V105.828H1140.39ZM1132.46 114.109C1133.33 114.102 1134.31 114.094 1135.33 114.07V109.828H1136.8V114.023C1138.28 113.961 1139.81 113.867 1141.21 113.688L1141.28 114.797C1138.37 115.266 1135.11 115.328 1132.63 115.312L1132.46 114.109ZM1142 118.328V104.328H1143.5V110.109H1145.64V111.375H1143.5V118.328H1142ZM1159.08 115.359V116.594H1146.26V115.359H1151.91V112.484H1147.73V105.281H1149.22V107.688H1156.09V105.281H1157.56V112.484H1153.37V115.359H1159.08ZM1149.22 111.281H1156.09V108.891H1149.22V111.281ZM1171.26 105.672V107.047C1171.25 108.773 1171.25 110.711 1170.73 113.578L1169.23 113.422C1169.77 110.711 1169.77 108.727 1169.78 107.047V106.875H1161.28V105.672H1171.26ZM1159.93 116.438V115.203H1164.79V110.266H1166.26V115.203H1172.7V116.438H1159.93ZM1178.65 107.891C1178.65 110.453 1180.09 113.008 1182.23 113.969L1181.32 115.156C1179.73 114.359 1178.53 112.781 1177.91 110.867C1177.3 112.883 1176.08 114.586 1174.46 115.422L1173.52 114.219C1175.7 113.18 1177.14 110.484 1177.15 107.891V105.5H1178.65V107.891ZM1180.68 110.188V108.984H1183.8V104.328H1185.27V118.359H1183.8V110.188H1180.68ZM930.531 123.328V137.328H929.109V123.328H930.531ZM918.312 133.469C920.297 132.273 921.305 129.727 921.312 127.234V126.109H918.734V124.906H925.141V126.109H922.734V127.234C922.734 129.625 923.703 132.023 925.672 133.156L924.781 134.25C923.445 133.453 922.531 132.023 922.039 130.336C921.539 132.164 920.586 133.727 919.219 134.578L918.312 133.469ZM924.109 129.5V128.281H926.281V123.625H927.688V136.625H926.281V129.5H924.109ZM944.934 129.469V130.578H939.293V131.75H943.34V134.906H935.184V136.062H943.731V137.188H933.731V133.875H941.871V132.828H933.715V131.75H937.824V130.578H932.199V129.469H944.934ZM932.824 127.797C935.504 127.648 937.395 126.828 937.699 125.641H933.465V124.5H937.824V123.266H939.293V124.5H943.668V125.641H939.41C939.707 126.828 941.598 127.648 944.309 127.797L943.856 128.922C941.418 128.742 939.434 128.031 938.559 126.805C937.684 128.031 935.699 128.742 933.246 128.922L932.824 127.797ZM946.836 131.312C946.836 128.539 947.578 126.234 948.977 124.266H950.508C949.422 125.719 948.563 128.688 948.555 131.312C948.563 133.938 949.422 136.898 950.508 138.359H948.977C947.578 136.391 946.836 134.086 946.836 131.312ZM956.286 127.453C956.278 129.664 957.739 132.133 959.864 133.141L959.02 134.297C957.45 133.547 956.2 131.969 955.567 130.141C954.926 132.133 953.614 133.859 952.02 134.656L951.145 133.484C953.27 132.461 954.809 129.82 954.817 127.453V125.969H951.661V124.734H959.333V125.969H956.286V127.453ZM960.833 137.328V123.328H962.317V128.875H964.567V130.125H962.317V137.328H960.833ZM977.876 130.406V131.609H972.313V134.328H970.844V131.609H965.063V130.406H977.876ZM966.657 137.031V133H968.141V135.828H976.454V137.031H966.657ZM966.704 128.953V123.984H976.219V128.953H966.704ZM968.157 127.781H974.751V125.156H968.157V127.781ZM985.122 123.562C988.278 123.555 990.114 124.406 990.122 125.969C990.114 127.539 988.278 128.391 985.122 128.391C981.966 128.391 980.114 127.539 980.122 125.969C980.114 124.406 981.966 123.555 985.122 123.562ZM978.747 130.438V129.25H991.513V130.438H978.747ZM980.278 132.625V131.516H989.903V134.797H981.747V136.047H990.294V137.188H980.294V133.719H988.434V132.625H980.278ZM981.669 125.969C981.661 126.836 982.895 127.281 985.122 127.281C987.364 127.281 988.598 126.836 988.591 125.969C988.598 125.141 987.364 124.656 985.122 124.656C982.895 124.656 981.661 125.141 981.669 125.969ZM1000.75 123.969C1002.86 123.961 1004.39 125.141 1004.4 126.875C1004.39 128.594 1002.86 129.781 1000.75 129.766C998.653 129.781 997.138 128.594 997.146 126.875C997.138 125.141 998.653 123.961 1000.75 123.969ZM996.146 130.859C998.732 130.859 1002.3 130.805 1005.36 130.344L1005.47 131.453C1004.19 131.695 1002.87 131.844 1001.58 131.93V136.891H1000.1V132.016C998.739 132.078 997.458 132.086 996.349 132.094L996.146 130.859ZM998.583 126.875C998.567 127.891 999.482 128.562 1000.75 128.547C1002.06 128.562 1002.97 127.891 1002.97 126.875C1002.97 125.852 1002.06 125.164 1000.75 125.172C999.482 125.164 998.567 125.852 998.583 126.875ZM1006.33 137.328V123.344H1007.8V137.328H1006.33ZM1016.75 125.641V126.844H1009.8V125.641H1012.55V123.734H1014.02V125.641H1016.75ZM1010.25 130.906C1010.24 129.023 1011.52 127.688 1013.28 127.688C1015.06 127.688 1016.32 129.023 1016.33 130.906C1016.32 132.82 1015.06 134.164 1013.28 134.156C1011.52 134.164 1010.24 132.82 1010.25 130.906ZM1011.56 130.906C1011.56 132.094 1012.27 132.891 1013.28 132.891C1014.29 132.891 1015.02 132.094 1015.02 130.906C1015.02 129.742 1014.29 128.93 1013.28 128.922C1012.27 128.93 1011.56 129.742 1011.56 130.906ZM1017.39 136.672V123.641H1018.8V129.156H1020.41V123.328H1021.81V137.328H1020.41V130.375H1018.8V136.672H1017.39ZM1039.29 123.328V137.328H1037.87V130.031H1036.13V136.641H1034.73V123.594H1036.13V128.812H1037.87V123.328H1039.29ZM1027.71 133.641V124.906H1033.15V133.641H1027.71ZM1029.12 132.453H1031.76V126.078H1029.12V132.453ZM1046.11 126.234C1046.11 127.914 1047.49 129.461 1049.66 130.062L1048.96 131.219C1047.32 130.758 1046.07 129.742 1045.42 128.43C1044.79 129.891 1043.54 131.031 1041.86 131.562L1041.13 130.391C1043.29 129.742 1044.64 128.047 1044.63 126.234V126.156H1041.52V124.969H1044.63V123.328H1046.13V124.969H1049.21V126.156H1046.11V126.234ZM1043.05 134.719C1043.05 133.086 1044.86 132.141 1047.82 132.141C1050.76 132.141 1052.56 133.086 1052.57 134.719C1052.56 136.367 1050.76 137.305 1047.82 137.297C1044.86 137.305 1043.05 136.367 1043.05 134.719ZM1044.55 134.719C1044.55 135.633 1045.74 136.148 1047.82 136.156C1049.89 136.148 1051.11 135.633 1051.1 134.719C1051.11 133.828 1049.89 133.305 1047.82 133.312C1045.74 133.305 1044.55 133.828 1044.55 134.719ZM1051.04 131.875V123.344H1052.52V131.875H1051.04ZM1062.74 127.812V129.016H1060V130.789C1061.24 130.727 1062.48 130.641 1063.63 130.516L1063.74 131.609C1060.75 132.016 1057.48 132.102 1054.85 132.094L1054.64 130.906C1055.84 130.898 1057.17 130.883 1058.53 130.844V129.016H1055.89V124.219H1062.61V125.422H1057.38V127.812H1062.74ZM1056.96 137.031V133.078H1058.44V135.828H1066.63V137.031H1056.96ZM1064.71 133.828V123.328H1066.19V133.828H1064.71ZM1083.67 123.344V133.594H1082.18V128.328H1079.51V127.125H1082.18V123.344H1083.67ZM1072.01 130.672C1074.16 129.945 1075.5 128.102 1075.49 126.172V125.625H1072.46V124.406H1080.01V125.625H1077.01V126.172C1077 127.914 1078.27 129.672 1080.38 130.375L1079.62 131.562C1078.05 131.016 1076.88 129.891 1076.28 128.5C1075.67 130.047 1074.44 131.281 1072.78 131.875L1072.01 130.672ZM1074.57 137.031V132.672H1076.06V135.828H1084.04V137.031H1074.57ZM1098.46 130.406V131.609H1092.9V134.328H1091.43V131.609H1085.65V130.406H1098.46ZM1087.24 137.031V133H1088.73V135.828H1097.04V137.031H1087.24ZM1087.29 128.953V123.984H1096.8V128.953H1087.29ZM1088.74 127.781H1095.33V125.156H1088.74V127.781ZM1110.24 123.328V128.906H1112.41V130.141H1110.24V137.312H1108.75V123.328H1110.24ZM1099.35 133.578C1102.85 131.828 1104.76 129.297 1105.07 126.031H1100.05V124.797H1106.58C1106.57 128.844 1104.78 132.461 1100.17 134.734L1099.35 133.578ZM1123.9 123.328V128.906H1126.08V130.141H1123.9V137.312H1122.42V123.328H1123.9ZM1113.01 133.578C1116.52 131.828 1118.43 129.297 1118.73 126.031H1113.72V124.797H1120.25C1120.23 128.844 1118.45 132.461 1113.84 134.734L1113.01 133.578ZM1135.3 125.844C1135.3 127.633 1136.54 129.328 1138.68 130.047L1137.93 131.203C1136.34 130.656 1135.18 129.562 1134.57 128.188C1133.96 129.695 1132.74 130.891 1131.1 131.469L1130.3 130.312C1132.49 129.57 1133.81 127.758 1133.82 125.828V125.453H1130.74V124.25H1138.32V125.453H1135.3V125.844ZM1132.16 133.656V132.453H1141.41V137.328H1139.93V133.656H1132.16ZM1139.93 131.766V123.328H1141.41V126.922H1143.44V128.172H1141.41V131.766H1139.93ZM1149.05 125.422C1149.04 127.383 1150.32 129.133 1152.44 129.828L1151.63 130.984C1150.09 130.422 1148.96 129.344 1148.35 127.938C1147.75 129.539 1146.53 130.797 1144.83 131.406L1144.03 130.219C1146.27 129.453 1147.57 127.586 1147.58 125.484V124.109H1149.05V125.422ZM1146.33 134.656C1146.32 132.961 1148.12 131.977 1151.07 131.984C1154 131.977 1155.79 132.961 1155.8 134.656C1155.79 136.344 1154 137.305 1151.07 137.297C1148.12 137.305 1146.32 136.344 1146.33 134.656ZM1147.8 134.656C1147.79 135.586 1149.01 136.133 1151.07 136.125C1153.1 136.133 1154.32 135.586 1154.33 134.656C1154.32 133.695 1153.1 133.141 1151.07 133.141C1149.01 133.141 1147.79 133.695 1147.8 134.656ZM1151.32 127.391V126.172H1154.27V123.328H1155.75V131.594H1154.27V127.391H1151.32ZM1161.45 131.312C1161.45 134.086 1160.71 136.391 1159.31 138.359H1157.78C1158.87 136.906 1159.73 133.938 1159.73 131.312C1159.73 128.688 1158.87 125.727 1157.78 124.266H1159.31C1160.71 126.234 1161.45 128.539 1161.45 131.312Z" fill="#111111"/>
<path d="M930.156 154.328V161.562H928.656V154.328H930.156ZM918.75 159.953C919.281 159.953 919.859 159.945 920.453 159.938V156.422H919.125V155.25H926.734V156.422H925.391V159.734C926.07 159.688 926.742 159.625 927.375 159.547L927.438 160.625C924.641 161.047 921.383 161.148 918.922 161.141L918.75 159.953ZM920.859 163.375V162.203H930.156V165.672H922.359V167H930.641V168.188H920.906V164.594H928.688V163.375H920.859ZM921.875 159.906C922.562 159.883 923.266 159.859 923.969 159.82V156.422H921.875V159.906ZM939.356 155.562C939.348 157.422 941.621 159.164 944.371 159.531L943.793 160.75C941.504 160.383 939.496 159.195 938.582 157.547C937.668 159.195 935.66 160.383 933.387 160.75L932.793 159.531C935.535 159.164 937.801 157.445 937.809 155.562V154.797H939.356V155.562ZM932.184 163.344V162.125H944.949V163.344H939.262V168.328H937.809V163.344H932.184ZM950.758 157.297C950.758 158.953 952.11 160.422 954.243 161.016L953.555 162.188C951.914 161.719 950.68 160.727 950.039 159.438C949.43 160.836 948.203 161.93 946.539 162.453L945.821 161.281C947.961 160.664 949.289 159.062 949.289 157.297V157.078H946.243V155.891H949.289V154.266H950.774V155.891H953.805V157.078H950.758V157.297ZM948.289 168.156V163.266H957.524V168.156H948.289ZM949.758 166.953H956.071V164.469H949.758V166.953ZM953.414 159.391V158.172H956.039V154.328H957.524V162.594H956.039V159.391H953.414ZM972.317 162.562V163.734H966.598V168.328H965.145V163.734H959.504V162.562H972.317ZM961.098 160.969V154.891H962.567V156.719H969.223V154.891H970.708V160.969H961.098ZM962.567 159.781H969.223V157.906H962.567V159.781ZM981.981 157.891C981.981 160.453 983.419 163.008 985.559 163.969L984.653 165.156C983.067 164.359 981.864 162.781 981.247 160.867C980.63 162.883 979.411 164.586 977.794 165.422L976.856 164.219C979.028 163.18 980.473 160.484 980.481 157.891V155.5H981.981V157.891ZM984.013 160.188V158.984H987.138V154.328H988.606V168.359H987.138V160.188H984.013ZM1003.4 162.641V163.812H1000.18V168.328H998.681V163.812H995.306V168.328H993.821V163.812H990.587V162.641H1003.4ZM992.103 156.047V154.828H1001.88V158.578H993.634V160.125H1002.18V161.328H992.149V157.469H1000.37V156.047H992.103ZM1009.61 167.109C1009 167.102 1008.49 166.609 1008.5 166C1008.49 165.391 1009 164.891 1009.61 164.891C1010.21 164.891 1010.71 165.391 1010.72 166C1010.71 166.609 1010.21 167.102 1009.61 167.109ZM1008.52 159.828C1008.51 159.219 1009.02 158.719 1009.63 158.719C1010.23 158.719 1010.73 159.219 1010.74 159.828C1010.73 160.438 1010.23 160.93 1009.63 160.938C1009.02 160.93 1008.51 160.438 1008.52 159.828ZM1020.95 158.453C1020.94 160.664 1022.4 163.133 1024.53 164.141L1023.68 165.297C1022.11 164.547 1020.86 162.969 1020.23 161.141C1019.59 163.133 1018.28 164.859 1016.68 165.656L1015.81 164.484C1017.93 163.461 1019.47 160.82 1019.48 158.453V156.969H1016.32V155.734H1023.99V156.969H1020.95V158.453ZM1025.49 168.328V154.328H1026.98V159.875H1029.23V161.125H1026.98V168.328H1025.49ZM1042.54 161.406V162.609H1036.97V165.328H1035.51V162.609H1029.72V161.406H1042.54ZM1031.32 168.031V164H1032.8V166.828H1041.11V168.031H1031.32ZM1031.36 159.953V154.984H1040.88V159.953H1031.36ZM1032.82 158.781H1039.41V156.156H1032.82V158.781ZM1048.28 158.453C1048.28 160.664 1049.74 163.133 1051.86 164.141L1051.02 165.297C1049.45 164.547 1048.2 162.969 1047.56 161.141C1046.92 163.133 1045.61 164.859 1044.02 165.656L1043.14 164.484C1045.27 163.461 1046.81 160.82 1046.81 158.453V156.969H1043.66V155.734H1051.33V156.969H1048.28V158.453ZM1052.83 168.328V154.328H1054.31V159.875H1056.56V161.125H1054.31V168.328H1052.83ZM1069.89 165.406V166.656H1057.08V165.406H1060.58V162.938H1058.64V158.484H1066.86V156.531H1058.61V155.312H1068.33V159.688H1060.11V161.719H1068.65V162.938H1066.53V165.406H1069.89ZM1062.01 165.406H1065.08V162.938H1062.01V165.406ZM1073.26 165.922L1072.01 170.234H1070.68L1071.51 165.922H1073.26ZM1090.41 154.328V168.328H1088.99V161.062H1087.25V167.656H1085.86V154.703H1087.25V159.859H1088.99V154.328H1090.41ZM1078.38 164.328C1081.49 162.562 1082.79 160.18 1083.03 157.328H1078.97V156.109H1084.47C1084.46 159.789 1083.24 163.102 1079.24 165.359L1078.38 164.328ZM1103.7 154.344V164.516H1102.22V154.344H1103.7ZM1092.37 158.75C1092.38 156.727 1093.99 155.289 1096.11 155.281C1098.22 155.289 1099.83 156.727 1099.83 158.75C1099.83 160.805 1098.22 162.234 1096.11 162.234C1093.99 162.234 1092.38 160.805 1092.37 158.75ZM1093.83 158.75C1093.82 160.07 1094.8 160.938 1096.11 160.938C1097.39 160.938 1098.37 160.07 1098.37 158.75C1098.37 157.461 1097.39 156.578 1096.11 156.578C1094.8 156.578 1093.82 157.461 1093.83 158.75ZM1094.55 168.031V163.484H1096.05V166.828H1104.12V168.031H1094.55ZM1117.43 154.328V162.656H1115.95V159.109H1113.34V157.891H1115.95V154.328H1117.43ZM1105.76 161.391C1107.93 160.633 1109.27 158.742 1109.26 156.812V156.5H1106.23V155.297H1113.78V156.5H1110.78V156.797C1110.77 158.57 1112.03 160.297 1114.15 161.016L1113.39 162.188C1111.82 161.648 1110.66 160.523 1110.05 159.141C1109.44 160.703 1108.21 161.961 1106.54 162.578L1105.76 161.391ZM1108.01 165.688C1108 164.023 1109.8 163.055 1112.74 163.047C1115.67 163.055 1117.47 164.023 1117.48 165.688C1117.47 167.352 1115.67 168.32 1112.74 168.328C1109.8 168.32 1108 167.352 1108.01 165.688ZM1109.48 165.688C1109.47 166.633 1110.69 167.172 1112.74 167.156C1114.78 167.172 1116 166.633 1116.01 165.688C1116 164.734 1114.78 164.195 1112.74 164.203C1110.69 164.195 1109.47 164.734 1109.48 165.688ZM1132.24 165.359V166.594H1119.43V165.359H1125.07V162.484H1120.9V155.281H1122.38V157.688H1129.26V155.281H1130.73V162.484H1126.54V165.359H1132.24ZM1122.38 161.281H1129.26V158.891H1122.38V161.281ZM1140.27 155.562C1140.26 157.422 1142.53 159.164 1145.28 159.531L1144.71 160.75C1142.42 160.383 1140.41 159.195 1139.5 157.547C1138.58 159.195 1136.57 160.383 1134.3 160.75L1133.71 159.531C1136.45 159.164 1138.71 157.445 1138.72 155.562V154.797H1140.27V155.562ZM1133.1 163.344V162.125H1145.86V163.344H1140.18V168.328H1138.72V163.344H1133.1ZM1151.95 156.562C1151.95 158.305 1153.31 159.914 1155.47 160.547L1154.72 161.703C1153.09 161.203 1151.85 160.141 1151.21 158.766C1150.59 160.242 1149.34 161.398 1147.66 161.953L1146.91 160.781C1149.09 160.117 1150.44 158.398 1150.45 156.562V156.406H1147.31V155.203H1155.03V156.406H1151.95V156.562ZM1149.22 168.156V162.562H1150.67V164.125H1156.91V162.562H1158.37V168.156H1149.22ZM1150.67 166.953H1156.91V165.297H1150.67V166.953ZM1156.89 161.906V154.328H1158.37V161.906H1156.89ZM1175.77 154.328V168.359H1174.29V154.328H1175.77ZM1164.66 160.281C1164.66 157.289 1166.17 155.383 1168.29 155.375C1170.37 155.383 1171.9 157.289 1171.9 160.281C1171.9 163.305 1170.37 165.211 1168.29 165.203C1166.17 165.211 1164.66 163.305 1164.66 160.281ZM1166.1 160.281C1166.09 162.508 1166.98 163.875 1168.29 163.875C1169.57 163.875 1170.46 162.508 1170.46 160.281C1170.46 158.086 1169.57 156.711 1168.29 156.703C1166.98 156.711 1166.09 158.086 1166.1 160.281ZM1190.61 161.156V162.359H1177.85V161.156H1180.91V159.273C1179.82 158.836 1179.21 158.133 1179.22 157.203C1179.21 155.539 1181.14 154.57 1184.22 154.578C1187.29 154.57 1189.21 155.539 1189.22 157.203C1189.21 158.133 1188.61 158.836 1187.52 159.281V161.156H1190.61ZM1179.36 165.797C1179.36 164.195 1181.18 163.312 1184.22 163.312C1187.23 163.312 1189.04 164.195 1189.05 165.797C1189.04 167.414 1187.23 168.297 1184.22 168.297C1181.18 168.297 1179.36 167.414 1179.36 165.797ZM1180.75 157.203C1180.75 158.141 1182.04 158.664 1184.22 158.672C1186.39 158.664 1187.7 158.141 1187.69 157.203C1187.7 156.266 1186.39 155.727 1184.22 155.719C1182.04 155.727 1180.75 156.266 1180.75 157.203ZM1180.86 165.797C1180.86 166.672 1182.08 167.172 1184.22 167.156C1186.33 167.172 1187.57 166.672 1187.57 165.797C1187.57 164.938 1186.33 164.453 1184.22 164.453C1182.08 164.453 1180.86 164.938 1180.86 165.797ZM1182.41 161.156H1186.05V159.664C1185.5 159.75 1184.89 159.797 1184.22 159.797C1183.57 159.797 1182.96 159.75 1182.41 159.672V161.156ZM931.297 180.141V181.328H918.516V180.141H924.188V178.656H920.109V173.969H929.719V175.141H921.578V177.469H929.812V178.656H925.625V180.141H931.297ZM920.031 184.781C920.031 183.156 921.852 182.242 924.891 182.234C927.906 182.242 929.711 183.156 929.719 184.781C929.711 186.406 927.906 187.32 924.891 187.328C921.852 187.32 920.031 186.406 920.031 184.781ZM921.531 184.781C921.523 185.68 922.75 186.172 924.891 186.156C927 186.172 928.234 185.68 928.234 184.781C928.234 183.898 927 183.391 924.891 183.391C922.75 183.391 921.523 183.898 921.531 184.781ZM936.746 174.328C938.957 174.32 940.551 175.688 940.559 177.656C940.551 179.625 938.957 180.992 936.746 181C934.543 180.992 932.926 179.625 932.934 177.656C932.926 175.688 934.543 174.32 936.746 174.328ZM932.262 183.109C934.809 183.109 938.34 183.086 941.403 182.641L941.512 183.719C938.348 184.328 934.949 184.344 932.449 184.344L932.262 183.109ZM934.403 177.656C934.387 178.898 935.387 179.703 936.746 179.703C938.106 179.703 939.106 178.898 939.106 177.656C939.106 176.43 938.106 175.609 936.746 175.609C935.387 175.609 934.387 176.43 934.403 177.656ZM942.278 187.359V173.328H943.762V187.359H942.278ZM950.899 176.891C950.899 179.453 952.336 182.008 954.477 182.969L953.571 184.156C951.985 183.359 950.782 181.781 950.164 179.867C949.547 181.883 948.328 183.586 946.711 184.422L945.774 183.219C947.946 182.18 949.391 179.484 949.399 176.891V174.5H950.899V176.891ZM952.93 179.188V177.984H956.055V173.328H957.524V187.359H956.055V179.188H952.93ZM962.036 184.922L960.786 189.234H959.458L960.286 184.922H962.036ZM980.388 179.469V180.578H974.747V181.75H978.794V184.906H970.638V186.062H979.184V187.188H969.184V183.875H977.325V182.828H969.169V181.75H973.278V180.578H967.653V179.469H980.388ZM968.278 177.797C970.958 177.648 972.848 176.828 973.153 175.641H968.919V174.5H973.278V173.266H974.747V174.5H979.122V175.641H974.864C975.161 176.828 977.052 177.648 979.763 177.797L979.309 178.922C976.872 178.742 974.888 178.031 974.013 176.805C973.138 178.031 971.153 178.742 968.7 178.922L968.278 177.797ZM986.196 175.906C986.188 177.688 987.431 179.312 989.556 179.984L988.853 181.141C987.259 180.633 986.095 179.578 985.478 178.25C984.868 179.781 983.642 180.992 981.962 181.578L981.196 180.391C983.384 179.672 984.704 177.867 984.712 175.922V175.531H981.634V174.328H989.212V175.531H986.196V175.906ZM983.087 184.672C983.087 183.031 984.876 182.07 987.79 182.078C990.673 182.07 992.431 183.031 992.431 184.672C992.431 186.336 990.673 187.305 987.79 187.297C984.876 187.305 983.087 186.336 983.087 184.672ZM984.571 184.672C984.563 185.609 985.767 186.133 987.79 186.125C989.798 186.133 990.985 185.609 990.978 184.672C990.985 183.758 989.798 183.242 987.79 183.25C985.767 183.242 984.563 183.758 984.571 184.672ZM990.821 181.734V173.328H992.306V176.797H994.337V178.016H992.306V181.734H990.821ZM1006.58 173.344V183.594H1005.1V173.344H1006.58ZM995.052 180.438C997.247 179.625 998.544 177.609 998.552 175.5V174.109H1000.07V175.5C1000.06 177.547 1001.36 179.422 1003.52 180.172L1002.75 181.359C1001.14 180.758 999.942 179.57 999.317 178.055C998.7 179.68 997.489 180.977 995.849 181.609L995.052 180.438ZM997.427 187.031V182.625H998.927V185.828H1007V187.031H997.427ZM1013.55 176.312C1013.55 177.961 1014.9 179.5 1017.03 180.094L1016.33 181.25C1014.7 180.789 1013.49 179.789 1012.85 178.492C1012.24 179.938 1011.02 181.086 1009.35 181.609L1008.64 180.469C1010.77 179.789 1012.08 178.117 1012.08 176.312V176.141H1009.03V174.953H1012.08V173.266H1013.56V174.953H1016.6V176.141H1013.55V176.312ZM1010.89 184.703C1010.88 183.062 1012.69 182.133 1015.63 182.125C1018.56 182.133 1020.35 183.062 1020.36 184.703C1020.35 186.352 1018.56 187.305 1015.63 187.297C1012.69 187.305 1010.88 186.352 1010.89 184.703ZM1012.36 184.703C1012.35 185.609 1013.57 186.148 1015.63 186.156C1017.68 186.148 1018.88 185.609 1018.89 184.703C1018.88 183.797 1017.68 183.281 1015.63 183.281C1013.57 183.281 1012.35 183.797 1012.36 184.703ZM1016.16 178.469V177.25H1018.83V173.328H1020.31V181.812H1018.83V178.469H1016.16ZM1027.36 176.891C1027.36 179.453 1028.79 182.008 1030.93 182.969L1030.03 184.156C1028.44 183.359 1027.24 181.781 1026.62 179.867C1026.01 181.883 1024.79 183.586 1023.17 184.422L1022.23 183.219C1024.4 182.18 1025.85 179.484 1025.86 176.891V174.5H1027.36V176.891ZM1029.39 179.188V177.984H1032.51V173.328H1033.98V187.359H1032.51V179.188H1029.39ZM1047.11 174.219V179.969H1040.46V174.219H1047.11ZM1041.38 186.141C1043.93 185.891 1045.92 184.617 1046.02 183.359H1041.94V182.234H1046.05V180.922H1047.52V182.234H1051.65V183.359H1047.55C1047.65 184.578 1049.6 185.859 1052.15 186.141L1051.65 187.281C1049.45 187.016 1047.64 186.078 1046.79 184.844C1045.94 186.094 1044.1 187.016 1041.9 187.281L1041.38 186.141ZM1041.91 178.812H1045.65V175.406H1041.91V178.812ZM1049.85 181.328V173.328H1051.32V181.328H1049.85ZM1069.9 180.469V181.672H1057.14V180.469H1062.78V178.953H1058.81V173.656H1060.28V175.172H1066.76V173.656H1068.25V178.953H1064.25V180.469H1069.9ZM1058.56 184.109V182.922H1068.34V187.328H1066.84V184.109H1058.56ZM1060.28 177.766H1066.76V176.281H1060.28V177.766ZM1082.48 173.328V181.594H1080.99V179.516H1077.95V180.656H1071.45V174.375H1077.95V175.531H1080.99V173.328H1082.48ZM1072.92 179.469H1076.49V175.562H1072.92V179.469ZM1073.06 184.656C1073.05 182.961 1074.85 181.977 1077.79 181.984C1080.72 181.977 1082.52 182.961 1082.53 184.656C1082.52 186.344 1080.72 187.305 1077.79 187.297C1074.85 187.305 1073.05 186.344 1073.06 184.656ZM1074.53 184.656C1074.52 185.594 1075.74 186.148 1077.79 186.156C1079.83 186.148 1081.05 185.594 1081.06 184.656C1081.05 183.672 1079.83 183.133 1077.79 183.125C1075.74 183.133 1074.52 183.672 1074.53 184.656ZM1077.95 178.312H1080.99V176.719H1077.95V178.312ZM1089.52 176.891C1089.52 179.453 1090.96 182.008 1093.1 182.969L1092.19 184.156C1090.61 183.359 1089.4 181.781 1088.79 179.867C1088.17 181.883 1086.95 183.586 1085.33 184.422L1084.4 183.219C1086.57 182.18 1088.01 179.484 1088.02 176.891V174.5H1089.52V176.891ZM1091.55 179.188V177.984H1094.68V173.328H1096.15V187.359H1094.68V179.188H1091.55ZM1106.75 176.891C1106.73 179.367 1108.18 181.906 1110.26 182.922L1109.34 184.109C1107.82 183.312 1106.64 181.75 1106.02 179.883C1105.4 181.867 1104.17 183.547 1102.58 184.375L1101.65 183.172C1103.8 182.141 1105.26 179.453 1105.26 176.891V174.5H1106.75V176.891ZM1111.31 187.328V173.328H1112.8V178.906H1115.05V180.172H1112.8V187.328H1111.31ZM1118.7 173.859V175.516H1125.18V173.859H1126.67V179.516H1122.67V180.891H1128.32V182.109H1115.56V180.891H1121.2V179.516H1117.23V173.859H1118.7ZM1117.17 187.031V183.109H1118.67V185.828H1126.89V187.031H1117.17ZM1118.7 178.312H1125.18V176.672H1118.7V178.312ZM1131.74 184.922L1130.49 189.234H1129.16L1129.99 184.922H1131.74ZM1149.01 173.344V184.016H1147.53V181.125H1145.28V179.938H1147.53V178.203H1145.28V176.984H1147.53V173.344H1149.01ZM1137.36 176.172V174.969H1140.64V173.328H1142.11V174.969H1145.23V176.172H1137.36ZM1138.14 179.531C1138.14 177.93 1139.47 176.836 1141.36 176.844C1143.24 176.836 1144.59 177.93 1144.59 179.531C1144.59 181.141 1143.24 182.234 1141.36 182.234C1139.47 182.234 1138.14 181.141 1138.14 179.531ZM1139.53 179.531C1139.52 180.484 1140.27 181.078 1141.36 181.078C1142.43 181.078 1143.19 180.484 1143.2 179.531C1143.19 178.609 1142.43 178.016 1141.36 178C1140.27 178.016 1139.52 178.609 1139.53 179.531ZM1139.87 187.031V183.078H1141.37V185.828H1149.33V187.031H1139.87ZM1155.9 175.906C1155.89 177.688 1157.14 179.312 1159.26 179.984L1158.56 181.141C1156.96 180.633 1155.8 179.578 1155.18 178.25C1154.57 179.781 1153.35 180.992 1151.67 181.578L1150.9 180.391C1153.09 179.672 1154.41 177.867 1154.42 175.922V175.531H1151.34V174.328H1158.92V175.531H1155.9V175.906ZM1152.79 184.672C1152.79 183.031 1154.58 182.07 1157.5 182.078C1160.38 182.07 1162.14 183.031 1162.14 184.672C1162.14 186.336 1160.38 187.305 1157.5 187.297C1154.58 187.305 1152.79 186.336 1152.79 184.672ZM1154.28 184.672C1154.27 185.609 1155.47 186.133 1157.5 186.125C1159.5 186.133 1160.69 185.609 1160.68 184.672C1160.69 183.758 1159.5 183.242 1157.5 183.25C1155.47 183.242 1154.27 183.758 1154.28 184.672ZM1160.53 181.734V173.328H1162.01V176.797H1164.04V178.016H1162.01V181.734H1160.53ZM1171.16 182.047C1174.05 182.047 1175.8 183.016 1175.8 184.672C1175.8 186.352 1174.05 187.32 1171.16 187.328C1168.25 187.32 1166.46 186.352 1166.46 184.672C1166.46 183.016 1168.25 182.047 1171.16 182.047ZM1165.23 180.703V174.203H1166.68V176.219H1170.35V174.203H1171.82V180.703H1165.23ZM1166.68 179.516H1170.35V177.391H1166.68V179.516ZM1167.95 184.672C1167.94 185.609 1169.14 186.141 1171.16 186.141C1173.17 186.141 1174.36 185.609 1174.35 184.672C1174.36 183.742 1173.17 183.219 1171.16 183.219C1169.14 183.219 1167.94 183.742 1167.95 184.672ZM1174.2 181.688V173.328H1175.68V176.75H1177.71V178.016H1175.68V181.688H1174.2ZM1191.14 180.406V181.609H1185.58V184.328H1184.11V181.609H1178.33V180.406H1191.14ZM1179.93 187.031V183H1181.41V185.828H1189.72V187.031H1179.93ZM1179.97 178.953V173.984H1189.49V178.953H1179.97ZM1181.43 177.781H1188.02V175.156H1181.43V177.781ZM923.375 195.891C923.359 198.367 924.805 200.906 926.891 201.922L925.969 203.109C924.445 202.312 923.266 200.75 922.648 198.883C922.023 200.867 920.797 202.547 919.203 203.375L918.281 202.172C920.43 201.141 921.883 198.453 921.891 195.891V193.5H923.375V195.891ZM927.938 206.328V192.328H929.422V197.906H931.672V199.172H929.422V206.328H927.938ZM937.371 195.25C937.371 197.062 938.707 198.766 940.871 199.453L940.106 200.609C938.496 200.078 937.285 198.977 936.645 197.578C936.02 199.102 934.77 200.305 933.106 200.891L932.34 199.719C934.52 198.977 935.863 197.164 935.871 195.25V194.641H932.731V193.438H940.449V194.641H937.371V195.25ZM934.637 206.031V201.594H936.137V204.828H944.215V206.031H934.637ZM942.309 202.562V192.344H943.793V202.562H942.309Z" fill="#111111"/>
<rect x="899" width="318" height="76" rx="38" fill="#0E419C"/>
<rect x="907" y="8" width="60" height="60" rx="30" fill="white"/>
<g clip-path="url(#clip2_920_90595)">
<path d="M948.748 21.01H928.92C927.608 21.01 926.54 22.078 926.54 23.39V24.542H925.252C923.94 24.542 922.872 25.61 922.872 26.922V52.61C922.872 53.922 923.94 54.99 925.252 54.99H945.08C946.392 54.99 947.46 53.922 947.46 52.61V51.454H948.748C950.06 51.454 951.128 50.386 951.128 49.074V23.39C951.128 22.078 950.06 21.01 948.748 21.01ZM946.412 52.61C946.412 53.346 945.812 53.946 945.076 53.946H925.252C924.516 53.946 923.916 53.346 923.916 52.61V26.922C923.916 26.186 924.516 25.586 925.252 25.586H927.052C927.052 25.586 927.06 25.586 927.064 25.586H945.08C945.812 25.586 946.416 26.182 946.416 26.918V52.606L946.412 52.61ZM950.084 49.074C950.084 49.81 949.484 50.41 948.748 50.41H947.46V26.926C947.46 25.614 946.396 24.542 945.08 24.542H927.584V23.39C927.584 22.654 928.184 22.054 928.92 22.054H948.748C949.484 22.054 950.084 22.654 950.084 23.39V49.074Z" fill="#114493"/>
<path d="M943.056 26.9939C942.008 26.9939 941.16 27.8459 941.16 28.8899C941.16 29.2179 941.252 29.5219 941.396 29.7899L938.752 32.3939C938.476 32.2379 938.164 32.1419 937.824 32.1419C937.46 32.1419 937.128 32.2499 936.836 32.4259L934.448 30.2299C934.568 29.9819 934.64 29.7059 934.64 29.4099C934.64 28.3619 933.788 27.5139 932.744 27.5139C931.7 27.5139 930.848 28.3659 930.848 29.4099C930.848 29.7259 930.932 30.0179 931.068 30.2779L928.212 33.0139C927.936 32.8539 927.62 32.7579 927.276 32.7579C926.228 32.7579 925.38 33.6099 925.38 34.6539C925.38 35.6979 926.232 36.5499 927.276 36.5499C928.32 36.5499 929.172 35.6979 929.172 34.6539C929.172 34.3299 929.084 34.0299 928.94 33.7619L931.784 31.0339C932.068 31.2019 932.392 31.3019 932.744 31.3019C933.116 31.3019 933.46 31.1899 933.752 31.0059L936.128 33.1939C936 33.4499 935.924 33.7339 935.924 34.0339C935.924 35.0819 936.776 35.9299 937.82 35.9299C938.864 35.9299 939.716 35.0779 939.716 34.0339C939.716 33.7059 939.624 33.4059 939.48 33.1379L942.124 30.5339C942.4 30.6899 942.712 30.7859 943.052 30.7859C944.1 30.7859 944.948 29.9339 944.948 28.8899C944.948 27.8459 944.096 26.9939 943.052 26.9939H943.056ZM927.276 35.5059C926.808 35.5059 926.424 35.1219 926.424 34.6539C926.424 34.1859 926.808 33.8019 927.276 33.8019C927.744 33.8019 928.128 34.1899 928.128 34.6539C928.128 35.1179 927.744 35.5059 927.276 35.5059ZM931.892 29.4099C931.892 28.9419 932.276 28.5579 932.744 28.5579C933.212 28.5579 933.596 28.9419 933.596 29.4099C933.596 29.8779 933.212 30.2619 932.744 30.2619C932.276 30.2619 931.892 29.8779 931.892 29.4099ZM937.824 34.8899C937.356 34.8899 936.972 34.5059 936.972 34.0379C936.972 33.5699 937.356 33.1859 937.824 33.1859C938.292 33.1859 938.676 33.5699 938.676 34.0379C938.676 34.5059 938.292 34.8899 937.824 34.8899ZM943.056 29.7419C942.588 29.7419 942.204 29.3579 942.204 28.8899C942.204 28.4219 942.588 28.0379 943.056 28.0379C943.524 28.0379 943.908 28.4219 943.908 28.8899C943.908 29.3579 943.524 29.7419 943.056 29.7419Z" fill="#114493"/>
<path d="M943.944 39.2419H926.388C926.1 39.2419 925.864 39.4779 925.864 39.7659C925.864 40.0539 926.096 40.2899 926.388 40.2899H943.944C944.232 40.2899 944.468 40.0539 944.468 39.7659C944.468 39.4779 944.236 39.2419 943.944 39.2419Z" fill="#114493"/>
<path d="M943.944 42.9419H936.448C936.16 42.9419 935.924 43.1779 935.924 43.4659C935.924 43.7539 936.156 43.9899 936.448 43.9899H943.944C944.232 43.9899 944.468 43.7539 944.468 43.4659C944.468 43.1779 944.236 42.9419 943.944 42.9419Z" fill="#114493"/>
<path d="M943.944 46.6421H936.448C936.16 46.6421 935.924 46.8781 935.924 47.1661C935.924 47.4541 936.156 47.6901 936.448 47.6901H943.944C944.232 47.6901 944.468 47.4541 944.468 47.1661C944.468 46.8781 944.236 46.6421 943.944 46.6421Z" fill="#114493"/>
<path d="M943.944 50.342H936.448C936.16 50.342 935.924 50.578 935.924 50.866C935.924 51.154 936.156 51.39 936.448 51.39H943.944C944.232 51.39 944.468 51.154 944.468 50.866C944.468 50.578 944.236 50.342 943.944 50.342Z" fill="#114493"/>
<path d="M930.296 42.7339C927.852 42.7339 925.864 44.7219 925.864 47.1659C925.864 49.6099 927.868 51.5979 930.296 51.5979C932.724 51.5979 934.64 49.6899 934.72 47.3139C934.884 45.0459 932.936 42.7379 930.296 42.7379V42.7339ZM933.652 46.7499H930.82V43.8259C932.304 44.0579 933.468 45.2539 933.652 46.7499ZM929.772 43.8259V47.0579L927.612 49.2179C927.176 48.6459 926.912 47.9379 926.912 47.1659C926.912 45.4779 928.156 44.0779 929.772 43.8259ZM930.296 50.5499C929.58 50.5499 928.916 50.3259 928.368 49.9419L930.512 47.7979H933.62C933.324 49.3619 931.948 50.5499 930.296 50.5499Z" fill="#114493"/>
</g>
<path d="M1000.7 29.082V38.0273H998.532V36.4844H994.274V34.8242H998.532V33.0859H994.499C993.405 35.7812 990.817 37.5391 986.911 38.418L986.149 36.6406C990.3 35.7715 992.37 33.9453 992.673 31.6016H987.126V29.8438H995.095C995.095 30.4004 995.046 30.9277 994.968 31.4258H998.532V29.082H1000.7ZM989.079 40.4297V38.7109H1000.7V43.3594H991.266V44.8242H1001.17V46.5625H989.098V41.7383H998.532V40.4297H989.079ZM1012.86 30.918V32.168C1012.86 33.7402 1012.86 35.9668 1012.38 39.0039L1010.23 38.8281C1010.66 36.1523 1010.71 34.1699 1010.71 32.6562H1003.78V30.918H1012.86ZM1002.84 41.2891C1003.89 41.2793 1005.05 41.2695 1006.26 41.2402V35.957H1008.41V41.1719C1010.21 41.0938 1012.05 40.9668 1013.74 40.7617L1013.86 42.3828C1010.22 42.9785 1006.17 43.0469 1003.06 43.0273L1002.84 41.2891ZM1014.66 46.7383V29.082H1016.85V36.2695H1019.41V38.1055H1016.85V46.7383H1014.66ZM1036.22 42.832V44.6094H1020.09V42.832H1027.04V39.3945H1021.86V30.2539H1024.03V33.1445H1032.21V30.2539H1034.38V39.3945H1029.19V42.832H1036.22ZM1024.03 37.6367H1032.21V34.8828H1024.03V37.6367ZM1051.58 30.7031V32.4023C1051.56 34.5996 1051.56 37.0508 1050.88 40.7422L1048.69 40.5078C1049.39 37.0703 1049.39 34.5605 1049.4 32.4414H1038.85V30.7031H1051.58ZM1037.17 44.4531V42.6758H1043.11V36.543H1045.26V42.6758H1053.26V44.4531H1037.17ZM1060.78 33.3203C1060.77 36.6016 1062.34 39.8242 1065.15 41.0547L1063.85 42.793C1061.85 41.8164 1060.45 39.9414 1059.69 37.627C1058.92 40.0684 1057.48 42.0996 1055.45 43.125L1054.08 41.3672C1056.96 40.0195 1058.56 36.6211 1058.57 33.3203V30.5078H1060.78V33.3203ZM1063.2 36.543V34.7852H1066.91V29.082H1069.06V46.7578H1066.91V36.543H1063.2ZM1091.08 29.082V46.7383H1089.01V29.082H1091.08ZM1075.57 41.7188C1078.12 40.166 1079.25 36.9824 1079.25 33.9062V32.7344H1076.18V30.9766H1084.19V32.7344H1081.34V33.9062C1081.34 36.8848 1082.4 39.873 1084.93 41.3281L1083.64 42.9297C1082.01 41.9629 1080.93 40.2832 1080.31 38.2715C1079.69 40.4492 1078.56 42.3047 1076.9 43.3398L1075.57 41.7188ZM1082.9 36.9922V35.2344H1085.44V29.4141H1087.49V45.8789H1085.44V36.9922H1082.9ZM1109.03 36.7188V38.3203H1102.07V39.6094H1107.05V43.75H1097.01V44.9609H1107.54V46.582H1094.89V42.2656H1104.93V41.1719H1094.87V39.6094H1099.93V38.3203H1093.01V36.7188H1109.03ZM1093.71 34.5117C1097.2 34.3359 1099.25 33.3984 1099.7 32.1484H1094.55V30.5273H1099.93V29.043H1102.07V30.5273H1107.48V32.1484H1102.3C1102.73 33.3984 1104.78 34.3359 1108.3 34.5117L1107.66 36.1328C1104.49 35.9375 1102.11 35.0781 1101 33.6523C1099.89 35.0781 1097.52 35.9375 1094.32 36.1328L1093.71 34.5117Z" fill="white"/>
<defs>
<clipPath id="clip0_920_90595">
<rect width="33.98" height="33.108" fill="white" transform="translate(34.5098 21.446)"/>
</clipPath>
<clipPath id="clip1_920_90595">
<rect width="33.972" height="33.504" fill="white" transform="translate(476.014 21.248)"/>
</clipPath>
<clipPath id="clip2_920_90595">
<rect width="28.256" height="33.98" fill="white" transform="translate(922.872 21.01)"/>
</clipPath>
</defs>
</svg>
