<svg width="1362" height="311" viewBox="0 0 1362 311" fill="none" xmlns="http://www.w3.org/2000/svg">
<rect x="1.5" y="1.00049" width="278" height="67" rx="33.5" stroke="#114493" stroke-width="2"/>
<rect x="12.5" y="12.0005" width="45" height="45" rx="22.5" fill="#114493"/>
<path d="M37.5664 26.0317V43.0005H34.9648V28.6099H34.8711L30.8164 31.2583V28.7974L35.0352 26.0317H37.5664Z" fill="white"/>
<path d="M130.624 29.8208C130.605 32.9751 132.187 36.1587 134.921 37.4771L133.593 39.2153C131.679 38.2485 130.302 36.3833 129.55 34.1372C128.779 36.5396 127.333 38.5317 125.312 39.5474L123.984 37.8091C126.825 36.4614 128.446 33.0825 128.456 29.8208V27.0083H130.624V29.8208ZM135.976 43.2388V25.5825H138.144V32.4966H140.859V34.3521H138.144V43.2388H135.976ZM146.303 26.3638C148.588 26.354 150.385 27.6724 150.825 29.606H154.018V25.5825H156.186V35.0552H154.018V31.3638H150.844C150.424 33.3462 148.608 34.6841 146.303 34.6841C143.598 34.6841 141.635 32.9458 141.635 30.5044C141.635 28.0923 143.598 26.354 146.303 26.3638ZM143.705 30.5044C143.705 31.9204 144.78 32.8579 146.303 32.8481C147.787 32.8579 148.852 31.9204 148.862 30.5044C148.852 29.0884 147.787 28.1704 146.303 28.1802C144.78 28.1704 143.705 29.0884 143.705 30.5044ZM144.545 43.0239V35.8755H146.694V37.7505H154.018V35.8755H156.186V43.0239H144.545ZM146.694 41.2661H154.018V39.4302H146.694V41.2661ZM173.232 25.5825V43.2388H171.045V25.5825H173.232ZM158.603 38.3755C163.232 36.1782 165.361 33.1899 165.752 29.1763H159.502V27.4575H167.959C167.959 32.7114 165.918 37.1743 159.736 40.1138L158.603 38.3755ZM186.645 26.9888V28.5903H176.196V26.9888H180.317V25.4849H182.485V26.9888H186.645ZM175.649 35.3872C177.055 35.3872 178.657 35.3872 180.317 35.3384V34.3032C178.315 34.0591 177.065 33.1216 177.075 31.7544C177.065 30.1138 178.794 29.0884 181.43 29.0981C183.999 29.0884 185.766 30.1138 185.766 31.7544C185.766 33.1313 184.468 34.0688 182.485 34.313V35.2603C183.979 35.1821 185.473 35.0649 186.88 34.8794L187.036 36.3638C183.247 37.0083 179.077 37.0571 175.942 37.0669L175.649 35.3872ZM178.149 39.9185V38.2192H190.298V43.2388H188.11V39.9185H178.149ZM179.165 31.7544C179.155 32.4771 180.034 32.9067 181.43 32.8872C182.768 32.9067 183.686 32.4771 183.696 31.7544C183.686 30.9731 182.768 30.5532 181.43 30.563C180.034 30.5532 179.155 30.9731 179.165 31.7544ZM188.11 37.4966V25.6216H190.298V37.4966H188.11Z" fill="#114493"/>
<path fill-rule="evenodd" clip-rule="evenodd" d="M331.75 35.0005H300.5V34.0005H331.75V35.0005Z" fill="#114493"/>
<path d="M340.5 34.5005L331.75 39.5005V29.5005L340.5 34.5005Z" fill="#114493"/>
<rect x="361.5" y="1.00049" width="278" height="67" rx="33.5" stroke="#114493" stroke-width="2"/>
<rect x="372.5" y="12.0005" width="45" height="45" rx="22.5" fill="#114493"/>
<path d="M389.363 43.0005V41.1255L395.246 35.1958C397.109 33.2622 398.035 32.1841 398.035 30.6958C398.035 29.02 396.676 27.9536 394.895 27.9536C393.008 27.9536 391.812 29.1489 391.801 30.9536H389.363C389.34 27.8481 391.707 25.7974 394.941 25.7974C398.211 25.7974 400.473 27.8716 400.496 30.6255C400.473 32.5239 399.582 34.0356 396.395 37.1646L392.949 40.6567V40.7974H400.777V43.0005H389.363Z" fill="white"/>
<path d="M462.743 28.7075C462.723 31.022 464.188 33.2388 466.962 34.1372L465.829 35.856C463.876 35.1919 462.479 33.8638 461.708 32.1646C460.927 34.0396 459.471 35.5044 457.411 36.2271L456.2 34.5083C459.1 33.561 460.555 31.1978 460.555 28.688V26.6763H462.743V28.7075ZM459.032 42.8872V37.2817H461.259V41.1294H471.044V42.8872H459.032ZM468.173 38.5513V25.5825H470.341V30.7974H472.802V32.6333H470.341V38.5513H468.173ZM478.402 26.3638C480.688 26.354 482.484 27.6724 482.924 29.606H486.117V25.5825H488.285V35.0552H486.117V31.3638H482.943C482.523 33.3462 480.707 34.6841 478.402 34.6841C475.697 34.6841 473.734 32.9458 473.734 30.5044C473.734 28.0923 475.697 26.354 478.402 26.3638ZM475.805 30.5044C475.805 31.9204 476.879 32.8579 478.402 32.8481C479.887 32.8579 480.951 31.9204 480.961 30.5044C480.951 29.0884 479.887 28.1704 478.402 28.1802C476.879 28.1704 475.805 29.0884 475.805 30.5044ZM476.645 43.0239V35.8755H478.793V37.7505H486.117V35.8755H488.285V43.0239H476.645ZM478.793 41.2661H486.117V39.4302H478.793V41.2661ZM495.976 30.9731C495.976 33.7075 497.099 36.4614 499.57 37.7896L498.359 39.3911C496.718 38.522 495.605 36.9692 494.97 35.1138C494.345 37.1157 493.232 38.8345 491.581 39.8013L490.312 38.1606C492.812 36.7153 493.915 33.7661 493.925 30.9731V30.4263H490.917V28.6685H493.925V26.2075H495.976V28.6685H498.925V30.4263H495.976V30.9731ZM497.831 34.1567V32.3599H500.136V25.9146H502.187V42.3794H500.136V34.1567H497.831ZM503.71 43.2388V25.5825H505.78V43.2388H503.71ZM521.416 27.0474C521.406 29.2642 523.896 31.52 527.666 32.0083L526.806 33.7661C523.808 33.3169 521.425 31.8423 520.273 29.8501C519.121 31.8423 516.748 33.3169 513.779 33.7661L512.92 32.0083C516.65 31.52 519.13 29.2837 519.13 27.0474V26.1489H521.416V27.0474ZM512.216 37.0864V35.2896H528.31V37.0864H521.298V43.2388H519.15V37.0864H512.216ZM545.434 39.313V41.0903H529.302V39.313H533.032V34.8501C531.626 34.0396 530.776 32.77 530.786 31.2075C530.776 28.395 533.53 26.5396 537.329 26.5396C541.147 26.5396 543.921 28.395 543.911 31.2075C543.921 32.7505 543.091 33.9907 541.723 34.8013V39.313H545.434ZM532.915 31.2075C532.905 33.0142 534.692 34.1665 537.329 34.1567C539.956 34.1665 541.782 33.0142 541.782 31.2075C541.782 29.3716 539.956 28.2485 537.329 28.2583C534.692 28.2485 532.905 29.3716 532.915 31.2075ZM535.18 39.313H539.516V35.6313C538.843 35.7778 538.11 35.856 537.329 35.856C536.567 35.856 535.845 35.7778 535.18 35.6411V39.313ZM562.52 39.3325V41.1099H546.387V39.3325H553.359V35.27H555.527V39.3325H562.52ZM547.09 34.2935C550.605 33.7075 553.223 31.3247 553.281 28.7856H547.734V27.0083H561.133V28.7856H555.566C555.635 31.3247 558.252 33.6489 561.875 34.1958L561.016 35.9146C558.037 35.3774 555.586 33.7954 554.443 31.5884C553.311 33.8247 550.889 35.4556 547.949 36.0122L547.09 34.2935ZM569.78 29.8208C569.761 32.9751 571.343 36.1587 574.077 37.4771L572.749 39.2153C570.835 38.2485 569.458 36.3833 568.706 34.1372C567.935 36.5396 566.489 38.5317 564.468 39.5474L563.14 37.8091C565.982 36.4614 567.603 33.0825 567.613 29.8208V27.0083H569.78V29.8208ZM575.132 43.2388V25.5825H577.3V32.4966H580.015V34.3521H577.3V43.2388H575.132Z" fill="#114493"/>
<path fill-rule="evenodd" clip-rule="evenodd" d="M691.75 35.0005H660.5V34.0005H691.75V35.0005Z" fill="#114493"/>
<path d="M700.5 34.5005L691.75 39.5005V29.5005L700.5 34.5005Z" fill="#114493"/>
<rect x="721.5" y="1.00049" width="278" height="67" rx="33.5" stroke="#114493" stroke-width="2"/>
<rect x="732.5" y="12.0005" width="45" height="45" rx="22.5" fill="#114493"/>
<path d="M755.035 43.2349C751.52 43.2349 749.023 41.3481 748.918 38.5708H751.543C751.637 40.0591 753.113 41.0083 755.012 41.0083C757.062 41.0083 758.551 39.895 758.551 38.2427C758.551 36.5669 757.156 35.3716 754.73 35.3599H753.277V33.2505H754.73C756.664 33.2622 758.012 32.1841 758.012 30.5552C758.012 29.0083 756.852 27.9536 755.059 27.9536C753.359 27.9536 751.836 28.9028 751.777 30.438H749.293C749.363 27.6724 751.918 25.7974 755.082 25.7974C758.422 25.7974 760.52 27.9067 760.496 30.4146C760.52 32.3481 759.324 33.731 757.496 34.188V34.3052C759.816 34.6333 761.164 36.1919 761.152 38.3364C761.164 41.1606 758.551 43.2349 755.035 43.2349Z" fill="white"/>
<path d="M860.448 39.313V41.0903H844.316V39.313H851.269V35.4653H846.093V26.9497H858.593V35.4653H853.417V39.313H860.448ZM848.222 33.7661H856.445V28.688H848.222V33.7661ZM871.811 26.6372V28.3755H868.1C868.129 30.4458 869.653 32.438 872.436 33.2192L871.342 34.9185C869.301 34.313 867.827 33.0337 867.026 31.4028C866.225 33.1606 864.721 34.5474 862.612 35.2114L861.518 33.5122C864.34 32.6821 865.864 30.5728 865.912 28.3755H862.104V26.6372H871.811ZM864.428 43.0239V35.9341H866.577V37.7505H873.94V35.9341H876.108V43.0239H864.428ZM866.577 41.2661H873.94V39.4302H866.577V41.2661ZM873.92 35.1528V25.5825H876.108V35.1528H873.92ZM886.435 36.6177C890.273 36.6274 892.695 37.8384 892.705 39.938C892.695 41.9888 890.273 43.2192 886.435 43.2192C882.636 43.2192 880.185 41.9888 880.185 39.938C880.185 37.8384 882.636 36.6274 886.435 36.6177ZM878.525 35.3481V33.5903H884.736V30.3872H886.884V33.5903H894.541V35.3481H878.525ZM880.361 28.1411V26.4224H892.587V27.8872C892.597 29.2837 892.597 30.7681 892.099 32.5747L889.951 32.3794C890.39 30.6704 890.42 29.4204 890.42 28.1411H880.361ZM882.373 39.938C882.353 40.9731 883.886 41.5396 886.435 41.5396C888.994 41.5396 890.537 40.9731 890.556 39.938C890.537 38.8638 888.994 38.2583 886.435 38.2583C883.886 38.2583 882.353 38.8638 882.373 39.938ZM909.985 27.2036V28.9028C909.966 31.1001 909.966 33.5513 909.282 37.2427L907.095 37.0083C907.788 33.5708 907.788 31.061 907.798 28.9419H897.251V27.2036H909.985ZM895.571 40.9536V39.1763H901.509V33.0435H903.657V39.1763H911.665V40.9536H895.571Z" fill="#114493"/>
<path fill-rule="evenodd" clip-rule="evenodd" d="M1051.75 35.0005H1020.5V34.0005H1051.75V35.0005Z" fill="#114493"/>
<path d="M1060.5 34.5005L1051.75 39.5005V29.5005L1060.5 34.5005Z" fill="#114493"/>
<rect x="1081.5" y="1.00049" width="278" height="67" rx="33.5" stroke="#114493" stroke-width="2"/>
<rect x="1092.5" y="12.0005" width="45" height="45" rx="22.5" fill="#114493"/>
<path d="M1108.51 39.6958V37.6099L1116.01 26.0317H1119.2V37.5161H1121.52V39.6958H1119.2V43.0005H1116.76V39.6958H1108.51ZM1111.23 37.5161H1116.76V29.1021H1116.57L1111.23 37.3755V37.5161Z" fill="white"/>
<path d="M1208.73 25.5825V43.2388H1206.66V25.5825H1208.73ZM1193.32 37.9653C1196.98 35.8071 1198.66 33.0435 1198.99 29.4888H1194.26V27.731H1201.14C1201.14 28.6196 1201.08 29.4888 1200.95 30.3286H1203.01V26.0122H1205.08V42.3989H1203.01V36.5005H1200.26V34.7231H1203.01V32.106H1200.58C1199.74 35.0356 1197.9 37.5552 1194.59 39.5083L1193.32 37.9653ZM1221.66 26.9888V28.5903H1211.21V26.9888H1215.33V25.4849H1217.5V26.9888H1221.66ZM1210.66 35.3872C1212.07 35.3872 1213.67 35.3872 1215.33 35.3384V34.3032C1213.33 34.0591 1212.08 33.1216 1212.09 31.7544C1212.08 30.1138 1213.81 29.0884 1216.44 29.0981C1219.01 29.0884 1220.78 30.1138 1220.78 31.7544C1220.78 33.1313 1219.48 34.0688 1217.5 34.313V35.2603C1218.99 35.1821 1220.49 35.0649 1221.89 34.8794L1222.05 36.3638C1218.26 37.0083 1214.09 37.0571 1210.96 37.0669L1210.66 35.3872ZM1213.16 39.9185V38.2192H1225.31V43.2388H1223.12V39.9185H1213.16ZM1214.18 31.7544C1214.17 32.4771 1215.05 32.9067 1216.44 32.8872C1217.78 32.9067 1218.7 32.4771 1218.71 31.7544C1218.7 30.9731 1217.78 30.5532 1216.44 30.563C1215.05 30.5532 1214.17 30.9731 1214.18 31.7544ZM1223.12 37.4966V25.6216H1225.31V37.4966H1223.12ZM1234.19 29.8208C1234.18 33.1021 1235.76 36.3247 1238.57 37.5552L1237.26 39.2935C1235.27 38.3169 1233.86 36.4419 1233.11 34.1274C1232.34 36.5688 1230.89 38.6001 1228.86 39.6255L1227.49 37.8677C1230.38 36.52 1231.98 33.1216 1231.99 29.8208V27.0083H1234.19V29.8208ZM1236.62 33.0435V31.2856H1240.33V25.5825H1242.47V43.2583H1240.33V33.0435H1236.62ZM1264.09 25.5825V35.2114H1261.92V31.4419H1258.87V29.645H1261.92V25.5825H1264.09ZM1249.26 33.8052C1252.06 32.8677 1253.56 30.5825 1253.58 28.2583H1249.91V26.481H1259.44V28.2583H1255.79C1255.81 30.3774 1257.23 32.5649 1259.95 33.4731L1258.85 35.1528C1256.88 34.479 1255.48 33.1411 1254.71 31.481C1253.94 33.3267 1252.48 34.811 1250.38 35.5239L1249.26 33.8052ZM1252.45 43.0239V35.9536H1254.61V37.7896H1261.92V35.9536H1264.09V43.0239H1252.45ZM1254.61 41.2661H1261.92V39.4888H1254.61V41.2661ZM1275.59 27.0474C1275.58 29.2642 1278.07 31.52 1281.84 32.0083L1280.98 33.7661C1277.98 33.3169 1275.6 31.8423 1274.44 29.8501C1273.29 31.8423 1270.92 33.3169 1267.95 33.7661L1267.09 32.0083C1270.82 31.52 1273.3 29.2837 1273.3 27.0474V26.1489H1275.59V27.0474ZM1266.39 37.0864V35.2896H1282.48V37.0864H1275.47V43.2388H1273.32V37.0864H1266.39Z" fill="#114493"/>
<path fill-rule="evenodd" clip-rule="evenodd" d="M1223.5 106.25V75.0005H1224.5V106.25H1223.5Z" fill="#114493"/>
<path d="M1224 115L1219 106.25H1229L1224 115Z" fill="#114493"/>
<rect x="1.5" y="122" width="278" height="67" rx="33.5" stroke="#114493" stroke-width="2"/>
<rect x="12.5" y="133" width="45" height="45" rx="22.5" fill="#114493"/>
<path d="M35.0117 164.235C31.3203 164.235 28.7539 162.243 28.7773 159.477C28.7539 157.297 30.3125 155.516 32.3164 155.211V155.118C30.5703 154.719 29.4102 153.172 29.4102 151.321C29.4102 148.708 31.7656 146.797 35.0117 146.797C38.2109 146.797 40.5781 148.708 40.5898 151.321C40.5781 153.172 39.3945 154.719 37.6836 155.118V155.211C39.6641 155.516 41.2344 157.297 41.2461 159.477C41.2344 162.243 38.6445 164.235 35.0117 164.235ZM31.4023 159.29C31.3672 160.954 32.7734 162.102 35.0117 162.102C37.2148 162.102 38.6211 160.954 38.6211 159.29C38.6211 157.543 37.0977 156.266 35.0117 156.266C32.9023 156.266 31.3672 157.543 31.4023 159.29ZM31.918 151.555C31.9297 153.137 33.1953 154.239 35.0117 154.227C36.7812 154.239 38.0703 153.149 38.0586 151.555C38.0703 149.973 36.8281 148.895 35.0117 148.907C33.1484 148.895 31.9297 149.973 31.918 151.555Z" fill="white"/>
<path d="M131.906 148.418V149.668C131.906 151.241 131.906 153.467 131.418 156.504L129.269 156.329C129.699 153.653 129.748 151.67 129.757 150.157H122.824V148.418H131.906ZM121.886 158.79C122.931 158.78 124.093 158.77 125.304 158.741V153.458H127.453V158.672C129.25 158.594 131.095 158.467 132.785 158.262L132.902 159.883C129.259 160.479 125.216 160.547 122.101 160.528L121.886 158.79ZM133.703 164.239V146.583H135.89V153.77H138.449V155.606H135.89V164.239H133.703ZM154.323 146.583V164.239H152.253V146.583H154.323ZM138.815 159.219C141.364 157.667 142.487 154.483 142.487 151.407V150.235H139.421V148.477H147.429V150.235H144.577V151.407C144.577 154.385 145.641 157.374 148.171 158.829L146.882 160.43C145.251 159.463 144.167 157.784 143.552 155.772C142.927 157.95 141.804 159.805 140.143 160.84L138.815 159.219ZM146.139 154.493V152.735H148.679V146.915H150.729V163.379H148.679V154.493H146.139ZM167.185 149.708C167.175 152.051 168.581 154.336 171.325 155.274L170.134 156.973C168.23 156.26 166.872 154.883 166.12 153.145C165.368 155.088 163.923 156.612 161.853 157.383L160.7 155.665C163.542 154.708 164.988 152.266 164.997 149.688V147.676H167.185V149.708ZM163.904 163.887V158.282H166.111V162.129H175.935V163.887H163.904ZM169.861 152.266V150.489H173.376V146.602H175.544V159.708H173.376V152.266H169.861ZM192.629 146.583V157.071H190.461V152.754H187.454V150.977H190.461V146.583H192.629ZM177.786 155.313C180.627 154.336 182.121 151.963 182.121 149.629V149.493H178.45V147.735H187.981V149.493H184.329V149.61C184.329 151.758 185.754 153.926 188.489 154.844L187.395 156.563C185.432 155.899 184.045 154.551 183.264 152.891C182.493 154.766 181.018 156.29 178.918 157.032L177.786 155.313ZM180.657 160.879C180.637 158.76 182.932 157.52 186.653 157.52C190.393 157.52 192.678 158.76 192.688 160.879C192.678 162.999 190.393 164.229 186.653 164.239C182.932 164.229 180.637 162.999 180.657 160.879ZM182.805 160.879C182.795 161.973 184.202 162.569 186.653 162.559C189.123 162.569 190.52 161.973 190.52 160.879C190.52 159.776 189.123 159.18 186.653 159.18C184.202 159.18 182.795 159.776 182.805 160.879Z" fill="#114493"/>
<path fill-rule="evenodd" clip-rule="evenodd" d="M309.25 155H340.5V156H309.25V155Z" fill="#114493"/>
<path d="M300.5 155.5L309.25 150.5V160.5L300.5 155.5Z" fill="#114493"/>
<rect x="361.5" y="122" width="278" height="67" rx="33.5" stroke="#114493" stroke-width="2"/>
<rect x="372.5" y="133" width="45" height="45" rx="22.5" fill="#114493"/>
<path d="M390.371 164L397.941 149.375V149.235H389.199V147.032H400.613V149.329L393.066 164H390.371Z" fill="white"/>
<path d="M479.809 150.821C479.789 153.975 481.371 157.159 484.105 158.477L482.777 160.215C480.863 159.249 479.486 157.383 478.734 155.137C477.963 157.54 476.518 159.532 474.496 160.547L473.168 158.809C476.01 157.461 477.631 154.083 477.641 150.821V148.008H479.809V150.821ZM485.16 164.239V146.583H487.328V153.497H490.043V155.352H487.328V164.239H485.16ZM495.487 147.364C497.773 147.354 499.57 148.672 500.009 150.606H503.202V146.583H505.37V156.055H503.202V152.364H500.029C499.609 154.346 497.792 155.684 495.487 155.684C492.782 155.684 490.82 153.946 490.82 151.504C490.82 149.092 492.782 147.354 495.487 147.364ZM492.89 151.504C492.89 152.92 493.964 153.858 495.487 153.848C496.972 153.858 498.036 152.92 498.046 151.504C498.036 150.088 496.972 149.17 495.487 149.18C493.964 149.17 492.89 150.088 492.89 151.504ZM493.73 164.024V156.875H495.878V158.75H503.202V156.875H505.37V164.024H493.73ZM495.878 162.266H503.202V160.43H495.878V162.266ZM521.596 146.583V151.543H524.077V153.34H521.596V159.356H519.428V146.583H521.596ZM508.412 156.368V148.047H516.323V149.786H510.561V154.59C513.881 154.59 515.727 154.483 517.827 154.043L518.061 155.801C515.746 156.26 513.696 156.368 509.838 156.368H508.412ZM510.287 163.887V158.008H512.455V162.129H522.299V163.887H510.287ZM539.165 147.813V149.571H537.602V154.581C538.247 154.532 538.891 154.473 539.497 154.395V152.813H541.919V151.29H539.497V149.551H541.919V146.583H544.087V157.403H541.919V154.551H539.546L539.634 155.997C536.264 156.553 532.368 156.612 529.555 156.622L529.321 154.825C529.936 154.825 530.61 154.825 531.313 154.815V149.571H529.77V147.813H539.165ZM532.114 160.977C532.095 158.897 534.37 157.715 538.11 157.715C541.88 157.715 544.136 158.897 544.145 160.977C544.136 163.008 541.88 164.219 538.11 164.219C534.37 164.219 532.095 163.008 532.114 160.977ZM533.423 154.786C534.106 154.766 534.809 154.737 535.512 154.708V149.571H533.423V154.786ZM534.262 160.977C534.253 162.002 535.639 162.54 538.11 162.54C540.591 162.54 541.977 162.002 541.977 160.977C541.977 159.932 540.591 159.375 538.11 159.375C535.639 159.375 534.253 159.932 534.262 160.977ZM560.215 146.583V153.477H562.832V155.293H560.215V164.2H558.047V146.583H560.215ZM546.289 159.375C550.586 157.227 552.91 154.239 553.34 150.215H547.246V148.418H555.547C555.537 153.604 553.389 158.165 547.52 161.055L546.289 159.375Z" fill="#114493"/>
<path fill-rule="evenodd" clip-rule="evenodd" d="M669.25 155H700.5V156H669.25V155Z" fill="#114493"/>
<path d="M660.5 155.5L669.25 150.5V160.5L660.5 155.5Z" fill="#114493"/>
<rect x="721.5" y="122" width="278" height="67" rx="33.5" stroke="#114493" stroke-width="2"/>
<rect x="732.5" y="133" width="45" height="45" rx="22.5" fill="#114493"/>
<path d="M755.164 164.235C752.023 164.211 748.742 162.348 748.742 156.079C748.754 150.172 751.309 146.797 755.375 146.797C758.504 146.797 760.672 148.743 761.07 151.438H758.516C758.176 150.055 757.086 149.059 755.375 149.047C752.75 149.059 751.227 151.333 751.227 155.165H751.414C752.34 153.723 753.934 152.879 755.773 152.868C758.797 152.879 761.234 155.2 761.234 158.446C761.234 161.739 758.809 164.258 755.164 164.235ZM751.531 158.516C751.543 160.403 753.055 162.067 755.141 162.079C757.191 162.067 758.727 160.473 758.727 158.493C758.727 156.547 757.25 154.965 755.211 154.977C753.137 154.965 751.555 156.629 751.531 158.516Z" fill="white"/>
<path d="M848.468 149.708C848.459 152.051 849.865 154.336 852.609 155.274L851.418 156.973C849.513 156.26 848.156 154.883 847.404 153.145C846.652 155.088 845.207 156.612 843.136 157.383L841.984 155.665C844.826 154.708 846.271 152.266 846.281 149.688V147.676H848.468V149.708ZM845.187 163.887V158.282H847.394V162.129H857.218V163.887H845.187ZM851.144 152.266V150.489H854.66V146.602H856.828V159.708H854.66V152.266H851.144ZM873.913 146.583V157.071H871.745V152.754H868.737V150.977H871.745V146.583H873.913ZM859.069 155.313C861.911 154.336 863.405 151.963 863.405 149.629V149.493H859.733V147.735H869.264V149.493H865.612V149.61C865.612 151.758 867.038 153.926 869.772 154.844L868.679 156.563C866.716 155.899 865.329 154.551 864.548 152.891C863.776 154.766 862.302 156.29 860.202 157.032L859.069 155.313ZM861.94 160.879C861.921 158.76 864.216 157.52 867.936 157.52C871.677 157.52 873.962 158.76 873.971 160.879C873.962 162.999 871.677 164.229 867.936 164.239C864.216 164.229 861.921 162.999 861.94 160.879ZM864.089 160.879C864.079 161.973 865.485 162.569 867.936 162.559C870.407 162.569 871.804 161.973 871.804 160.879C871.804 159.776 870.407 159.18 867.936 159.18C865.485 159.18 864.079 159.776 864.089 160.879ZM890.622 147.813V149.571H889.06V154.581C889.704 154.532 890.349 154.473 890.954 154.395V152.813H893.376V151.29H890.954V149.551H893.376V146.583H895.544V157.403H893.376V154.551H891.003L891.091 155.997C887.722 156.553 883.825 156.612 881.013 156.622L880.779 154.825C881.394 154.825 882.068 154.825 882.771 154.815V149.571H881.228V147.813H890.622ZM883.571 160.977C883.552 158.897 885.827 157.715 889.568 157.715C893.337 157.715 895.593 158.897 895.603 160.977C895.593 163.008 893.337 164.219 889.568 164.219C885.827 164.219 883.552 163.008 883.571 160.977ZM884.88 154.786C885.564 154.766 886.267 154.737 886.97 154.708V149.571H884.88V154.786ZM885.72 160.977C885.71 162.002 887.097 162.54 889.568 162.54C892.048 162.54 893.435 162.002 893.435 160.977C893.435 159.932 892.048 159.375 889.568 159.375C887.097 159.375 885.71 159.932 885.72 160.977ZM911.672 146.583V153.477H914.289V155.293H911.672V164.2H909.504V146.583H911.672ZM897.746 159.375C902.043 157.227 904.368 154.239 904.797 150.215H898.704V148.418H907.004C906.995 153.604 904.846 158.165 898.977 161.055L897.746 159.375Z" fill="#114493"/>
<path fill-rule="evenodd" clip-rule="evenodd" d="M1029.25 155H1060.5V156H1029.25V155Z" fill="#114493"/>
<path d="M1020.5 155.5L1029.25 150.5V160.5L1020.5 155.5Z" fill="#114493"/>
<rect x="1081.5" y="122" width="278" height="67" rx="33.5" stroke="#114493" stroke-width="2"/>
<rect x="1092.5" y="133" width="45" height="45" rx="22.5" fill="#114493"/>
<path d="M1114.99 164.235C1111.78 164.235 1109.36 162.278 1109.25 159.571H1111.75C1111.89 161.012 1113.28 162.067 1114.99 162.079C1117.05 162.067 1118.53 160.579 1118.53 158.563C1118.53 156.5 1117 155 1114.87 154.977C1113.51 154.977 1112.47 155.434 1111.89 156.477H1109.46L1110.56 147.032H1120.17V149.235H1112.69L1112.13 153.993H1112.29C1113 153.313 1114.19 152.856 1115.48 152.844C1118.68 152.856 1121.04 155.223 1121.04 158.493C1121.04 161.833 1118.53 164.235 1114.99 164.235Z" fill="white"/>
<path d="M1218.98 146.583V155.586H1216.84V146.583H1218.98ZM1204.3 153.868C1207.16 152.959 1208.66 150.694 1208.65 148.379V147.012H1210.9V148.379C1210.89 150.625 1212.38 152.725 1215.17 153.575L1214.12 155.254C1212.07 154.62 1210.6 153.311 1209.8 151.631C1209 153.458 1207.5 154.893 1205.39 155.567L1204.3 153.868ZM1207.3 158.086V156.407H1219.02V160.997H1209.47V162.364H1219.55V164.083H1207.34V159.375H1216.85V158.086H1207.3ZM1229.15 148.497V150.235H1224.12V153.125H1228.84V154.825H1224.12V158.262C1226.3 158.243 1227.82 158.165 1229.6 157.891L1229.78 159.668C1227.72 160.02 1225.99 160.088 1223.24 160.079H1222.05V148.497H1229.15ZM1230.68 163.379V146.895H1232.73V153.516H1234.55V146.583H1236.64V164.239H1234.55V155.274H1232.73V163.379H1230.68ZM1254.62 160.333V162.11H1238.49V160.333H1245.46V156.27H1247.63V160.333H1254.62ZM1239.19 155.293C1242.7 154.708 1245.32 152.325 1245.38 149.786H1239.83V148.008H1253.23V149.786H1247.67C1247.73 152.325 1250.35 154.649 1253.97 155.196L1253.11 156.915C1250.14 156.377 1247.69 154.795 1246.54 152.588C1245.41 154.825 1242.99 156.456 1240.05 157.012L1239.19 155.293ZM1261.88 150.821C1261.86 153.975 1263.44 157.159 1266.18 158.477L1264.85 160.215C1262.93 159.249 1261.56 157.383 1260.81 155.137C1260.03 157.54 1258.59 159.532 1256.57 160.547L1255.24 158.809C1258.08 157.461 1259.7 154.083 1259.71 150.821V148.008H1261.88V150.821ZM1267.23 164.239V146.583H1269.4V153.497H1272.11V155.352H1269.4V164.239H1267.23Z" fill="#114493"/>
<path fill-rule="evenodd" clip-rule="evenodd" d="M151.5 227.25V196H152.5V227.25H151.5Z" fill="#114493"/>
<path d="M152 236L147 227.25H157L152 236Z" fill="#114493"/>
<rect x="3" y="243" width="278" height="67" rx="33.5" stroke="#114493" stroke-width="2"/>
<rect x="14" y="254" width="45" height="45" rx="22.5" fill="#114493"/>
<path d="M36.3594 267.797C39.4766 267.821 42.7461 269.696 42.7578 275.907C42.7578 281.86 40.1914 285.235 36.125 285.235C32.9961 285.235 30.8164 283.301 30.4062 280.547H32.9609C33.3125 281.977 34.4141 282.973 36.125 282.985C38.7383 282.973 40.2734 280.7 40.2969 276.821H40.0859C39.1719 278.25 37.5781 279.118 35.75 279.118C32.7031 279.118 30.2656 276.786 30.2656 273.54C30.2656 270.305 32.668 267.774 36.3594 267.797ZM32.7734 273.493C32.7852 275.461 34.25 277.02 36.3125 277.008C38.3633 277.02 39.9453 275.344 39.9453 273.469C39.9453 271.629 38.4336 269.954 36.3594 269.954C34.3086 269.954 32.7617 271.547 32.7734 273.493Z" fill="white"/>
<path d="M135.718 269.204V270.922H125.855V269.204H129.8V267.446H131.968V269.204H135.718ZM126.773 274.75C126.763 272.846 128.443 271.557 130.855 271.547C133.257 271.557 134.986 272.846 134.995 274.75C134.986 276.665 133.257 277.934 130.855 277.934C128.443 277.934 126.763 276.665 126.773 274.75ZM128.804 274.75C128.794 275.737 129.605 276.352 130.855 276.352C132.105 276.352 132.964 275.737 132.964 274.75C132.964 273.774 132.105 273.188 130.855 273.188C129.605 273.188 128.794 273.774 128.804 274.75ZM128.843 285.024V278.754H131.011V280.239H138.452V278.754H140.601V285.024H128.843ZM131.011 283.325H138.452V281.879H131.011V283.325ZM135.816 276.684V274.946H138.433V273.227H135.835V271.469H138.433V267.583H140.601V278.071H138.433V276.684H135.816ZM159.229 270.043V271.801H156.827V273.833H159.229V275.649H156.827V278.012H154.659V267.583H156.827V270.043H159.229ZM143.096 272.836C143.086 270.356 145.137 268.579 147.862 268.598C150.577 268.579 152.608 270.356 152.627 272.836C152.608 275.356 150.577 277.104 147.862 277.114C145.137 277.104 143.086 275.356 143.096 272.836ZM145.069 280.532V278.774H156.827V285.239H154.659V280.532H145.069ZM145.225 272.836C145.215 274.34 146.338 275.268 147.862 275.258C149.366 275.268 150.489 274.34 150.498 272.836C150.489 271.362 149.366 270.444 147.862 270.434C146.338 270.444 145.215 271.362 145.225 272.836ZM165.377 272.973C165.377 275.708 166.5 278.461 168.97 279.79L167.759 281.391C166.119 280.522 165.005 278.969 164.371 277.114C163.746 279.116 162.632 280.834 160.982 281.801L159.712 280.161C162.212 278.715 163.316 275.766 163.326 272.973V272.426H160.318V270.668H163.326V268.208H165.377V270.668H168.326V272.426H165.377V272.973ZM167.232 276.157V274.36H169.537V267.915H171.587V284.379H169.537V276.157H167.232ZM173.111 285.239V267.583H175.181V285.239H173.111ZM191.856 267.583V276.528H189.688V274.985H185.43V273.325H189.688V271.586H185.655C184.561 274.282 181.973 276.04 178.067 276.918L177.305 275.141C181.456 274.272 183.526 272.446 183.829 270.102H178.282V268.344H186.251C186.251 268.901 186.202 269.428 186.124 269.926H189.688V267.583H191.856ZM180.235 278.93V277.211H191.856V281.86H182.423V283.325H192.325V285.063H180.255V280.239H189.688V278.93H180.235Z" fill="#114493"/>
<path fill-rule="evenodd" clip-rule="evenodd" d="M333.25 277H302V276H333.25V277Z" fill="#114493"/>
<path d="M342 276.5L333.25 281.5V271.5L342 276.5Z" fill="#114493"/>
<rect x="363" y="243" width="278" height="67" rx="33.5" stroke="#114493" stroke-width="2"/>
<rect x="374" y="254" width="45" height="45" rx="22.5" fill="#114493"/>
<path d="M391.78 268.032V285H389.179V270.61H389.085L385.03 273.258V270.797L389.249 268.032H391.78ZM401.759 285.235C397.833 285.235 395.525 282.071 395.525 276.516C395.525 270.997 397.857 267.797 401.759 267.797C405.65 267.797 407.982 270.997 407.993 276.516C407.982 282.071 405.685 285.235 401.759 285.235ZM398.103 276.516C398.091 280.747 399.462 283.008 401.759 283.008C404.044 283.008 405.415 280.747 405.415 276.516C405.415 272.297 404.032 269.989 401.759 269.977C399.474 269.989 398.103 272.297 398.103 276.516Z" fill="white"/>
<path d="M493.406 269.418V270.668C493.406 272.241 493.406 274.467 492.918 277.504L490.769 277.329C491.199 274.653 491.248 272.67 491.257 271.157H484.324V269.418H493.406ZM483.386 279.79C484.431 279.78 485.593 279.77 486.804 279.741V274.458H488.953V279.672C490.75 279.594 492.595 279.467 494.285 279.262L494.402 280.883C490.759 281.479 486.716 281.547 483.601 281.528L483.386 279.79ZM495.203 285.239V267.583H497.39V274.77H499.949V276.606H497.39V285.239H495.203ZM515.823 267.583V285.239H513.753V267.583H515.823ZM500.315 280.219C502.864 278.667 503.987 275.483 503.987 272.407V271.235H500.921V269.477H508.929V271.235H506.077V272.407C506.077 275.385 507.141 278.374 509.671 279.829L508.382 281.43C506.751 280.463 505.667 278.784 505.052 276.772C504.427 278.95 503.304 280.805 501.643 281.84L500.315 280.219ZM507.639 275.493V273.735H510.179V267.915H512.229V284.379H510.179V275.493H507.639ZM531.458 269.047C531.448 271.264 533.939 273.52 537.708 274.008L536.849 275.766C533.851 275.317 531.468 273.842 530.316 271.85C529.163 273.842 526.79 275.317 523.821 275.766L522.962 274.008C526.693 273.52 529.173 271.284 529.173 269.047V268.149H531.458V269.047ZM522.259 279.086V277.29H538.353V279.086H531.341V285.239H529.193V279.086H522.259ZM554.442 267.583V278.676H552.371V273.872H550.653V278.09H548.621V267.934H550.653V272.114H552.371V267.583H554.442ZM539.246 271.196V269.497H542.586V267.739H544.735V269.497H548.036V271.196H539.246ZM539.871 274.965C539.852 273.129 541.454 271.909 543.661 271.918C545.907 271.909 547.489 273.129 547.508 274.965C547.489 276.801 545.907 278.012 543.661 278.012C541.454 278.012 539.852 276.801 539.871 274.965ZM541.805 274.965C541.805 275.874 542.557 276.45 543.661 276.45C544.774 276.45 545.536 275.874 545.536 274.965C545.536 274.057 544.774 273.481 543.661 273.481C542.557 273.481 541.805 274.057 541.805 274.965ZM542.43 282.075C542.42 280.043 544.705 278.901 548.485 278.891C552.254 278.901 554.53 280.043 554.539 282.075C554.53 284.067 552.254 285.219 548.485 285.219C544.705 285.219 542.42 284.067 542.43 282.075ZM544.598 282.075C544.588 283.042 545.965 283.569 548.485 283.559C550.995 283.569 552.342 283.042 552.352 282.075C552.342 281.049 550.995 280.532 548.485 280.551C545.965 280.532 544.588 281.049 544.598 282.075Z" fill="#114493"/>
<path fill-rule="evenodd" clip-rule="evenodd" d="M693.25 277H662V276H693.25V277Z" fill="#114493"/>
<path d="M702 276.5L693.25 281.5V271.5L702 276.5Z" fill="#114493"/>
<rect x="723" y="243" width="278" height="67" rx="33.5" stroke="#114493" stroke-width="2"/>
<rect x="734" y="254" width="45" height="45" rx="22.5" fill="#114493"/>
<path d="M753.807 268.032V285H751.206V270.61H751.112L747.057 273.258V270.797L751.276 268.032H753.807ZM764.325 268.032V285H761.724V270.61H761.63L757.575 273.258V270.797L761.794 268.032H764.325Z" fill="white"/>
<path d="M859.636 275.688V277.446H852.644V278.93C855.798 279.135 857.673 280.229 857.683 282.055C857.673 284.086 855.369 285.219 851.57 285.219C847.713 285.219 845.418 284.086 845.418 282.055C845.418 280.229 847.293 279.125 850.496 278.92V277.446H843.543V275.688H859.636ZM844.324 273.168C847.566 272.866 849.685 271.547 850.046 270.102H845.007V268.364H858.191V270.102H853.103C853.455 271.557 855.554 272.866 858.875 273.168L858.113 274.887C854.9 274.555 852.527 273.276 851.57 271.489C850.613 273.276 848.269 274.555 845.066 274.887L844.324 273.168ZM847.625 282.055C847.615 283.032 849.002 283.569 851.57 283.559C854.099 283.569 855.496 283.032 855.515 282.055C855.496 281.079 854.099 280.561 851.57 280.551C849.002 280.561 847.615 281.079 847.625 282.055ZM874.554 267.583V272.661H877.014V274.477H874.554V280.317H872.346V267.583H874.554ZM860.569 276.762C864.612 275.59 867.005 273.393 867.376 270.708H861.311V268.93H869.749C869.759 273.618 866.692 276.967 861.468 278.481L860.569 276.762ZM863.206 284.887V279.008H865.413V283.129H875.218V284.887H863.206ZM897.044 267.583V277.836H894.876V273.559H891.829V271.782H894.876V267.583H897.044ZM882.22 276.079C885.032 275.151 886.536 272.807 886.536 270.473V270.336H882.864V268.579H892.396V270.336H888.743V270.493C888.743 272.612 890.169 274.799 892.904 275.727L891.81 277.446C889.837 276.772 888.441 275.424 887.669 273.754C886.888 275.61 885.423 277.084 883.333 277.778L882.22 276.079ZM885.306 285.024V278.598H897.044V285.024H885.306ZM887.474 283.266H894.915V280.317H887.474V283.266ZM908.485 268.657C908.475 273.208 905.477 276.401 900.34 277.836L899.461 276.137C903.416 275.063 905.76 272.993 906.161 270.415H900.418V268.657H908.485ZM902.508 285.004V278.247H914.129V285.004H902.508ZM904.637 283.286H911.981V279.965H904.637V283.286ZM908.563 273.696V271.918H911.961V267.602H914.129V277.543H911.961V273.696H908.563Z" fill="#114493"/>
<path fill-rule="evenodd" clip-rule="evenodd" d="M1053.25 277H1022V276H1053.25V277Z" fill="#114493"/>
<path d="M1062 276.5L1053.25 281.5V271.5L1062 276.5Z" fill="#114493"/>
<rect x="1083" y="243" width="278" height="67" rx="33.5" stroke="#114493" stroke-width="2"/>
<rect x="1094" y="254" width="45" height="45" rx="22.5" fill="#114493"/>
<path d="M1112.05 268.032V285H1109.45V270.61H1109.35L1105.3 273.258V270.797L1109.52 268.032H1112.05ZM1116.12 285V283.125L1122.01 277.196C1123.87 275.262 1124.79 274.184 1124.79 272.696C1124.79 271.02 1123.43 269.954 1121.65 269.954C1119.77 269.954 1118.57 271.149 1118.56 272.954H1116.12C1116.1 269.848 1118.47 267.797 1121.7 267.797C1124.97 267.797 1127.23 269.872 1127.26 272.625C1127.23 274.524 1126.34 276.036 1123.15 279.165L1119.71 282.657V282.797H1127.54V285H1116.12Z" fill="white"/>
<path d="M1192.7 267.583V276.528H1190.53V274.985H1186.27V273.325H1190.53V271.586H1186.5C1185.41 274.282 1182.82 276.04 1178.91 276.918L1178.15 275.141C1182.3 274.272 1184.37 272.446 1184.67 270.102H1179.13V268.344H1187.09C1187.09 268.901 1187.05 269.428 1186.97 269.926H1190.53V267.583H1192.7ZM1181.08 278.93V277.211H1192.7V281.86H1183.27V283.325H1193.17V285.063H1181.1V280.239H1190.53V278.93H1181.08ZM1204.86 269.418V270.668C1204.86 272.241 1204.86 274.467 1204.38 277.504L1202.23 277.329C1202.66 274.653 1202.71 272.67 1202.71 271.157H1195.78V269.418H1204.86ZM1194.84 279.79C1195.89 279.78 1197.05 279.77 1198.26 279.741V274.458H1200.41V279.672C1202.21 279.594 1204.05 279.467 1205.74 279.262L1205.86 280.883C1202.22 281.479 1198.17 281.547 1195.06 281.528L1194.84 279.79ZM1206.66 285.239V267.583H1208.85V274.77H1211.41V276.606H1208.85V285.239H1206.66ZM1228.22 281.333V283.11H1212.09V281.333H1219.04V277.895H1213.86V268.754H1216.03V271.645H1224.21V268.754H1226.38V277.895H1221.19V281.333H1228.22ZM1216.03 276.137H1224.21V273.383H1216.03V276.137ZM1243.58 269.204V270.903C1243.56 273.1 1243.56 275.551 1242.88 279.243L1240.69 279.008C1241.39 275.571 1241.39 273.061 1241.4 270.942H1230.85V269.204H1243.58ZM1229.17 282.954V281.176H1235.11V275.043H1237.26V281.176H1245.26V282.954H1229.17ZM1252.78 271.821C1252.77 275.102 1254.34 278.325 1257.15 279.555L1255.85 281.293C1253.85 280.317 1252.45 278.442 1251.69 276.127C1250.92 278.569 1249.48 280.6 1247.45 281.625L1246.08 279.868C1248.96 278.52 1250.56 275.122 1250.57 271.821V269.008H1252.78V271.821ZM1255.2 275.043V273.286H1258.91V267.583H1261.06V285.258H1258.91V275.043H1255.2ZM1283.08 267.583V285.239H1281.01V267.583H1283.08ZM1267.57 280.219C1270.12 278.667 1271.25 275.483 1271.25 272.407V271.235H1268.18V269.477H1276.19V271.235H1273.34V272.407C1273.34 275.385 1274.4 278.374 1276.93 279.829L1275.64 281.43C1274.01 280.463 1272.93 278.784 1272.31 276.772C1271.69 278.95 1270.56 280.805 1268.9 281.84L1267.57 280.219ZM1274.9 275.493V273.735H1277.44V267.915H1279.49V284.379H1277.44V275.493H1274.9ZM1301.03 275.219V276.821H1294.07V278.11H1299.05V282.25H1289.01V283.461H1299.54V285.083H1286.89V280.766H1296.93V279.672H1286.87V278.11H1291.93V276.821H1285.01V275.219H1301.03ZM1285.71 273.012C1289.2 272.836 1291.25 271.899 1291.7 270.649H1286.55V269.028H1291.93V267.543H1294.07V269.028H1299.48V270.649H1294.3C1294.73 271.899 1296.78 272.836 1300.3 273.012L1299.66 274.633C1296.49 274.438 1294.11 273.579 1293 272.153C1291.89 273.579 1289.52 274.438 1286.32 274.633L1285.71 273.012Z" fill="#114493"/>
</svg>
