<svg width="236" height="1026" viewBox="0 0 236 1026" fill="none" xmlns="http://www.w3.org/2000/svg">
<rect x="1" y="1" width="234" height="64" rx="32" stroke="#114493" stroke-width="2"/>
<rect x="8" y="8" width="50" height="50" rx="25" fill="#114493"/>
<path d="M36.208 22.7891V44H32.9561V26.0117H32.8389L27.7705 29.3223V26.2461L33.0439 22.7891H36.208Z" fill="white"/>
<path d="M95.2944 28.2656C95.2788 30.1172 96.4506 31.8906 98.6694 32.6094L97.7631 33.9844C96.2006 33.4531 95.0834 32.3906 94.4663 31.0312C93.8413 32.5312 92.6772 33.7031 91.0288 34.2812L90.06 32.9062C92.3803 32.1484 93.5444 30.2578 93.5444 28.25V26.6406H95.2944V28.2656ZM92.3256 39.6094V35.125H94.1069V38.2031H101.935V39.6094H92.3256ZM99.6381 36.1406V25.7656H101.373V29.9375H103.341V31.4062H101.373V36.1406H99.6381ZM107.822 26.3906C109.65 26.3828 111.088 27.4375 111.439 28.9844H113.994V25.7656H115.728V33.3438H113.994V30.3906H111.455C111.119 31.9766 109.666 33.0469 107.822 33.0469C105.658 33.0469 104.088 31.6562 104.088 29.7031C104.088 27.7734 105.658 26.3828 107.822 26.3906ZM105.744 29.7031C105.744 30.8359 106.603 31.5859 107.822 31.5781C109.009 31.5859 109.861 30.8359 109.869 29.7031C109.861 28.5703 109.009 27.8359 107.822 27.8438C106.603 27.8359 105.744 28.5703 105.744 29.7031ZM106.416 39.7188V34H108.134V35.5H113.994V34H115.728V39.7188H106.416ZM108.134 38.3125H113.994V36.8438H108.134V38.3125ZM121.881 30.0781C121.881 32.2656 122.779 34.4688 124.756 35.5312L123.787 36.8125C122.474 36.1172 121.584 34.875 121.076 33.3906C120.576 34.9922 119.685 36.3672 118.365 37.1406L117.349 35.8281C119.349 34.6719 120.232 32.3125 120.24 30.0781V29.6406H117.834V28.2344H120.24V26.2656H121.881V28.2344H124.24V29.6406H121.881V30.0781ZM123.365 32.625V31.1875H125.209V26.0312H126.849V39.2031H125.209V32.625H123.365ZM128.068 39.8906V25.7656H129.724V39.8906H128.068ZM142.232 26.9375C142.225 28.7109 144.217 30.5156 147.232 30.9062L146.545 32.3125C144.147 31.9531 142.24 30.7734 141.318 29.1797C140.397 30.7734 138.498 31.9531 136.123 32.3125L135.436 30.9062C138.42 30.5156 140.404 28.7266 140.404 26.9375V26.2188H142.232V26.9375ZM134.873 34.9688V33.5312H147.748V34.9688H142.139V39.8906H140.42V34.9688H134.873ZM161.448 36.75V38.1719H148.541V36.75H151.526V33.1797C150.401 32.5312 149.721 31.5156 149.729 30.2656C149.721 28.0156 151.924 26.5312 154.963 26.5312C158.018 26.5312 160.237 28.0156 160.229 30.2656C160.237 31.5 159.573 32.4922 158.479 33.1406V36.75H161.448ZM151.432 30.2656C151.424 31.7109 152.854 32.6328 154.963 32.625C157.065 32.6328 158.526 31.7109 158.526 30.2656C158.526 28.7969 157.065 27.8984 154.963 27.9062C152.854 27.8984 151.424 28.7969 151.432 30.2656ZM153.244 36.75H156.713V33.8047C156.174 33.9219 155.588 33.9844 154.963 33.9844C154.354 33.9844 153.776 33.9219 153.244 33.8125V36.75ZM175.116 36.7656V38.1875H162.209V36.7656H167.788V33.5156H169.522V36.7656H175.116ZM162.772 32.7344C165.584 32.2656 167.678 30.3594 167.725 28.3281H163.288V26.9062H174.006V28.3281H169.553C169.608 30.3594 171.702 32.2188 174.6 32.6562L173.913 34.0312C171.53 33.6016 169.569 32.3359 168.655 30.5703C167.748 32.3594 165.811 33.6641 163.459 34.1094L162.772 32.7344ZM180.924 29.1562C180.909 31.6797 182.174 34.2266 184.362 35.2812L183.299 36.6719C181.768 35.8984 180.667 34.4062 180.065 32.6094C179.448 34.5312 178.292 36.125 176.674 36.9375L175.612 35.5469C177.885 34.4688 179.182 31.7656 179.19 29.1562V26.9062H180.924V29.1562ZM185.206 39.8906V25.7656H186.94V31.2969H189.112V32.7812H186.94V39.8906H185.206Z" fill="#114493"/>
<path fill-rule="evenodd" clip-rule="evenodd" d="M117.5 99.25V78H118.5V99.25H117.5Z" fill="#114493"/>
<path d="M118 108L113 99.25H123L118 108Z" fill="#114493"/>
<rect x="1" y="121" width="234" height="64" rx="32" stroke="#114493" stroke-width="2"/>
<rect x="8" y="128" width="50" height="50" rx="25" fill="#114493"/>
<path d="M25.9541 164V161.656L33.3076 154.244C35.6367 151.827 36.7939 150.479 36.7939 148.619C36.7939 146.524 35.0947 145.191 32.8682 145.191C30.5098 145.191 29.0156 146.686 29.001 148.941H25.9541C25.9248 145.06 28.8838 142.496 32.9268 142.496C37.0137 142.496 39.8408 145.089 39.8701 148.531C39.8408 150.904 38.7275 152.794 34.7432 156.705L30.4365 161.07V161.246H40.2217V164H25.9541Z" fill="white"/>
<path d="M125.459 156.75V158.172H112.552V156.75H118.115V153.672H113.974V146.859H123.974V153.672H119.834V156.75H125.459ZM115.677 152.312H122.256V148.25H115.677V152.312ZM134.549 146.609V148H131.58C131.603 149.656 132.822 151.25 135.049 151.875L134.174 153.234C132.541 152.75 131.361 151.727 130.721 150.422C130.08 151.828 128.877 152.938 127.189 153.469L126.314 152.109C128.572 151.445 129.791 149.758 129.83 148H126.783V146.609H134.549ZM128.642 159.719V154.047H130.361V155.5H136.252V154.047H137.986V159.719H128.642ZM130.361 158.312H136.252V156.844H130.361V158.312ZM136.236 153.422V145.766H137.986V153.422H136.236ZM146.248 154.594C149.318 154.602 151.256 155.57 151.264 157.25C151.256 158.891 149.318 159.875 146.248 159.875C143.209 159.875 141.248 158.891 141.248 157.25C141.248 155.57 143.209 154.602 146.248 154.594ZM139.92 153.578V152.172H144.889V149.609H146.607V152.172H152.732V153.578H139.92ZM141.389 147.812V146.438H151.17V147.609C151.178 148.727 151.178 149.914 150.779 151.359L149.061 151.203C149.412 149.836 149.436 148.836 149.436 147.812H141.389ZM142.998 157.25C142.982 158.078 144.209 158.531 146.248 158.531C148.295 158.531 149.529 158.078 149.545 157.25C149.529 156.391 148.295 155.906 146.248 155.906C144.209 155.906 142.982 156.391 142.998 157.25ZM165.088 147.062V148.422C165.072 150.18 165.072 152.141 164.526 155.094L162.776 154.906C163.33 152.156 163.33 150.148 163.338 148.453H154.901V147.062H165.088ZM153.557 158.062V156.641H158.307V151.734H160.026V156.641H166.432V158.062H153.557Z" fill="#114493"/>
<path fill-rule="evenodd" clip-rule="evenodd" d="M117.5 219.25V198H118.5V219.25H117.5Z" fill="#114493"/>
<path d="M118 228L113 219.25H123L118 228Z" fill="#114493"/>
<rect x="1" y="241" width="234" height="64" rx="32" stroke="#114493" stroke-width="2"/>
<rect x="8" y="248" width="50" height="50" rx="25" fill="#114493"/>
<path d="M33.0439 284.293C28.6494 284.293 25.5293 281.935 25.3975 278.463H28.6787C28.7959 280.323 30.6416 281.51 33.0146 281.51C35.5781 281.51 37.4385 280.118 37.4385 278.053C37.4385 275.958 35.6953 274.464 32.6631 274.449H30.8467V271.812H32.6631C35.0801 271.827 36.7646 270.479 36.7646 268.443C36.7646 266.51 35.3145 265.191 33.0732 265.191C30.9492 265.191 29.0449 266.378 28.9717 268.297H25.8662C25.9541 264.84 29.1475 262.496 33.1025 262.496C37.2773 262.496 39.8994 265.133 39.8701 268.268C39.8994 270.685 38.4053 272.413 36.1201 272.984V273.131C39.0205 273.541 40.7051 275.489 40.6904 278.17C40.7051 281.7 37.4385 284.293 33.0439 284.293Z" fill="white"/>
<path d="M116.088 265.766V279.891H114.431V265.766H116.088ZM103.759 275.672C106.681 273.945 108.025 271.734 108.291 268.891H104.509V267.484H110.009C110.009 268.195 109.963 268.891 109.861 269.562H111.509V266.109H113.166V279.219H111.509V274.5H109.306V273.078H111.509V270.984H109.564C108.892 273.328 107.423 275.344 104.775 276.906L103.759 275.672ZM126.428 266.891V268.172H118.068V266.891H121.365V265.688H123.099V266.891H126.428ZM117.631 273.609C118.756 273.609 120.037 273.609 121.365 273.57V272.742C119.763 272.547 118.763 271.797 118.771 270.703C118.763 269.391 120.146 268.57 122.256 268.578C124.31 268.57 125.724 269.391 125.724 270.703C125.724 271.805 124.685 272.555 123.099 272.75V273.508C124.295 273.445 125.49 273.352 126.615 273.203L126.74 274.391C123.709 274.906 120.373 274.945 117.865 274.953L117.631 273.609ZM119.631 277.234V275.875H129.349V279.891H127.599V277.234H119.631ZM120.443 270.703C120.435 271.281 121.138 271.625 122.256 271.609C123.326 271.625 124.06 271.281 124.068 270.703C124.06 270.078 123.326 269.742 122.256 269.75C121.138 269.742 120.435 270.078 120.443 270.703ZM127.599 275.297V265.797H129.349V275.297H127.599ZM136.455 269.156C136.447 271.781 137.705 274.359 139.955 275.344L138.908 276.734C137.314 275.953 136.189 274.453 135.588 272.602C134.971 274.555 133.814 276.18 132.189 277L131.096 275.594C133.4 274.516 134.682 271.797 134.689 269.156V266.906H136.455V269.156ZM138.393 271.734V270.328H141.361V265.766H143.08V279.906H141.361V271.734H138.393ZM160.369 265.766V273.469H158.635V270.453H156.198V269.016H158.635V265.766H160.369ZM148.51 272.344C150.744 271.594 151.948 269.766 151.963 267.906H149.026V266.484H156.651V267.906H153.729C153.744 269.602 154.885 271.352 157.057 272.078L156.182 273.422C154.604 272.883 153.487 271.812 152.869 270.484C152.252 271.961 151.08 273.148 149.401 273.719L148.51 272.344ZM151.057 279.719V274.062H152.791V275.531H158.635V274.062H160.369V279.719H151.057ZM152.791 278.312H158.635V276.891H152.791V278.312ZM169.569 266.938C169.561 268.711 171.553 270.516 174.569 270.906L173.881 272.312C171.483 271.953 169.577 270.773 168.655 269.18C167.733 270.773 165.834 271.953 163.459 272.312L162.772 270.906C165.756 270.516 167.741 268.727 167.741 266.938V266.219H169.569V266.938ZM162.209 274.969V273.531H175.084V274.969H169.475V279.891H167.756V274.969H162.209Z" fill="#114493"/>
<path fill-rule="evenodd" clip-rule="evenodd" d="M117.5 339.25V318H118.5V339.25H117.5Z" fill="#114493"/>
<path d="M118 348L113 339.25H123L118 348Z" fill="#114493"/>
<rect x="1" y="361" width="234" height="64" rx="32" stroke="#114493" stroke-width="2"/>
<rect x="8" y="368" width="50" height="50" rx="25" fill="#114493"/>
<path d="M24.8848 399.869V397.262L34.2598 382.789H38.2441V397.145H41.1445V399.869H38.2441V404H35.1973V399.869H24.8848ZM28.2832 397.145H35.1973V386.627H34.9629L28.2832 396.969V397.145Z" fill="white"/>
<path d="M115.875 388.266C115.867 390.141 116.992 391.969 119.187 392.719L118.234 394.078C116.711 393.508 115.625 392.406 115.023 391.016C114.422 392.57 113.265 393.789 111.609 394.406L110.687 393.031C112.961 392.266 114.117 390.312 114.125 388.25V386.641H115.875V388.266ZM113.25 399.609V395.125H115.015V398.203H122.875V399.609H113.25ZM118.015 390.312V388.891H120.828V385.781H122.562V396.266H120.828V390.312H118.015ZM136.23 385.766V394.156H134.496V390.703H132.09V389.281H134.496V385.766H136.23ZM124.355 392.75C126.629 391.969 127.824 390.07 127.824 388.203V388.094H124.887V386.688H132.512V388.094H129.59V388.188C129.59 389.906 130.73 391.641 132.918 392.375L132.043 393.75C130.472 393.219 129.363 392.141 128.738 390.812C128.121 392.312 126.941 393.531 125.262 394.125L124.355 392.75ZM126.652 397.203C126.637 395.508 128.472 394.516 131.449 394.516C134.441 394.516 136.269 395.508 136.277 397.203C136.269 398.898 134.441 399.883 131.449 399.891C128.472 399.883 126.637 398.898 126.652 397.203ZM128.371 397.203C128.363 398.078 129.488 398.555 131.449 398.547C133.426 398.555 134.543 398.078 134.543 397.203C134.543 396.32 133.426 395.844 131.449 395.844C129.488 395.844 128.363 396.32 128.371 397.203ZM149.598 386.75V388.156H148.348V392.164C148.863 392.125 149.379 392.078 149.863 392.016V390.75H151.801V389.531H149.863V388.141H151.801V385.766H153.535V394.422H151.801V392.141H149.902L149.973 393.297C147.277 393.742 144.16 393.789 141.91 393.797L141.723 392.359C142.215 392.359 142.754 392.359 143.317 392.352V388.156H142.082V386.75H149.598ZM143.957 397.281C143.942 395.617 145.762 394.672 148.754 394.672C151.77 394.672 153.574 395.617 153.582 397.281C153.574 398.906 151.77 399.875 148.754 399.875C145.762 399.875 143.942 398.906 143.957 397.281ZM145.004 392.328C145.551 392.312 146.113 392.289 146.676 392.266V388.156H145.004V392.328ZM145.676 397.281C145.668 398.102 146.777 398.531 148.754 398.531C150.738 398.531 151.848 398.102 151.848 397.281C151.848 396.445 150.738 396 148.754 396C146.777 396 145.668 396.445 145.676 397.281ZM166.438 385.766V391.281H168.532V392.734H166.438V399.859H164.703V385.766H166.438ZM155.297 396C158.735 394.281 160.594 391.891 160.938 388.672H156.063V387.234H162.703C162.696 391.383 160.977 395.031 156.282 397.344L155.297 396Z" fill="#114493"/>
<path fill-rule="evenodd" clip-rule="evenodd" d="M117.5 459.25V438H118.5V459.25H117.5Z" fill="#114493"/>
<path d="M118 468L113 459.25H123L118 468Z" fill="#114493"/>
<rect x="1" y="481" width="234" height="64" rx="32" stroke="#114493" stroke-width="2"/>
<rect x="8" y="488" width="50" height="50" rx="25" fill="#114493"/>
<path d="M32.9854 524.293C28.9717 524.293 25.9541 521.847 25.8076 518.463H28.9424C29.1182 520.265 30.8467 521.583 32.9854 521.598C35.5635 521.583 37.4092 519.723 37.4092 517.203C37.4092 514.625 35.5049 512.75 32.8389 512.721C31.1396 512.721 29.8359 513.292 29.1182 514.596H26.0713L27.4482 502.789H39.46V505.543H30.1143L29.4111 511.49H29.6162C30.4951 510.641 31.9893 510.069 33.6006 510.055C37.5996 510.069 40.5439 513.028 40.5439 517.115C40.5439 521.29 37.4092 524.293 32.9854 524.293Z" fill="white"/>
<path d="M108.947 509.156C108.931 511.68 110.197 514.227 112.384 515.281L111.322 516.672C109.791 515.898 108.689 514.406 108.088 512.609C107.47 514.531 106.314 516.125 104.697 516.938L103.634 515.547C105.908 514.469 107.205 511.766 107.213 509.156V506.906H108.947V509.156ZM113.228 519.891V505.766H114.963V511.297H117.134V512.781H114.963V519.891H113.228ZM121.49 506.391C123.318 506.383 124.756 507.438 125.107 508.984H127.662V505.766H129.396V513.344H127.662V510.391H125.123C124.787 511.977 123.334 513.047 121.49 513.047C119.326 513.047 117.756 511.656 117.756 509.703C117.756 507.773 119.326 506.383 121.49 506.391ZM119.412 509.703C119.412 510.836 120.271 511.586 121.49 511.578C122.678 511.586 123.529 510.836 123.537 509.703C123.529 508.57 122.678 507.836 121.49 507.844C120.271 507.836 119.412 508.57 119.412 509.703ZM120.084 519.719V514H121.803V515.5H127.662V514H129.396V519.719H120.084ZM121.803 518.312H127.662V516.844H121.803V518.312ZM142.377 505.766V509.734H144.361V511.172H142.377V515.984H140.643V505.766H142.377ZM131.83 513.594V506.938H138.158V508.328H133.549V512.172C136.205 512.172 137.682 512.086 139.361 511.734L139.549 513.141C137.697 513.508 136.057 513.594 132.971 513.594H131.83ZM133.33 519.609V514.906H135.064V518.203H142.939V519.609H133.33ZM156.432 506.75V508.156H155.182V512.164C155.698 512.125 156.213 512.078 156.698 512.016V510.75H158.635V509.531H156.698V508.141H158.635V505.766H160.369V514.422H158.635V512.141H156.737L156.807 513.297C154.112 513.742 150.994 513.789 148.744 513.797L148.557 512.359C149.049 512.359 149.588 512.359 150.151 512.352V508.156H148.916V506.75H156.432ZM150.791 517.281C150.776 515.617 152.596 514.672 155.588 514.672C158.604 514.672 160.408 515.617 160.416 517.281C160.408 518.906 158.604 519.875 155.588 519.875C152.596 519.875 150.776 518.906 150.791 517.281ZM151.838 512.328C152.385 512.312 152.948 512.289 153.51 512.266V508.156H151.838V512.328ZM152.51 517.281C152.502 518.102 153.612 518.531 155.588 518.531C157.573 518.531 158.682 518.102 158.682 517.281C158.682 516.445 157.573 516 155.588 516C153.612 516 152.502 516.445 152.51 517.281ZM173.272 505.766V511.281H175.366V512.734H173.272V519.859H171.538V505.766H173.272ZM162.131 516C165.569 514.281 167.428 511.891 167.772 508.672H162.897V507.234H169.538C169.53 511.383 167.811 515.031 163.116 517.344L162.131 516Z" fill="#114493"/>
<path fill-rule="evenodd" clip-rule="evenodd" d="M117.5 579.25V558H118.5V579.25H117.5Z" fill="#114493"/>
<path d="M118 588L113 579.25H123L118 588Z" fill="#114493"/>
<rect x="1" y="601" width="234" height="64" rx="32" stroke="#114493" stroke-width="2"/>
<rect x="8" y="608" width="50" height="50" rx="25" fill="#114493"/>
<path d="M33.2051 644.293C29.2793 644.264 25.1777 641.935 25.1777 634.098C25.1924 626.715 28.3857 622.496 33.4688 622.496C37.3799 622.496 40.0898 624.928 40.5879 628.297H37.3945C36.9697 626.568 35.6074 625.323 33.4688 625.309C30.1875 625.323 28.2832 628.165 28.2832 632.955H28.5176C29.6748 631.153 31.667 630.099 33.9668 630.084C37.7461 630.099 40.793 632.999 40.793 637.057C40.793 641.173 37.7607 644.322 33.2051 644.293ZM28.6641 637.145C28.6787 639.503 30.5684 641.583 33.1758 641.598C35.7393 641.583 37.6582 639.591 37.6582 637.115C37.6582 634.684 35.8125 632.706 33.2637 632.721C30.6709 632.706 28.6934 634.786 28.6641 637.145Z" fill="white"/>
<path d="M118.625 627.234V628.234C118.625 629.492 118.625 631.273 118.234 633.703L116.515 633.562C116.859 631.422 116.898 629.836 116.906 628.625H111.359V627.234H118.625ZM110.609 635.531C111.445 635.523 112.375 635.516 113.343 635.492V631.266H115.062V635.438C116.5 635.375 117.976 635.273 119.328 635.109L119.422 636.406C116.507 636.883 113.273 636.938 110.781 636.922L110.609 635.531ZM120.062 639.891V625.766H121.812V631.516H123.859V632.984H121.812V639.891H120.062ZM136.558 625.766V639.891H134.902V625.766H136.558ZM124.152 635.875C126.191 634.633 127.09 632.086 127.09 629.625V628.688H124.637V627.281H131.043V628.688H128.762V629.625C128.762 632.008 129.613 634.398 131.637 635.562L130.605 636.844C129.301 636.07 128.433 634.727 127.941 633.117C127.441 634.859 126.543 636.344 125.215 637.172L124.152 635.875ZM130.012 632.094V630.688H132.043V626.031H133.683V639.203H132.043V632.094H130.012ZM146.848 628.266C146.84 630.141 147.965 631.969 150.16 632.719L149.207 634.078C147.684 633.508 146.598 632.406 145.996 631.016C145.395 632.57 144.238 633.789 142.582 634.406L141.66 633.031C143.934 632.266 145.09 630.312 145.098 628.25V626.641H146.848V628.266ZM144.223 639.609V635.125H145.988V638.203H153.848V639.609H144.223ZM148.988 630.312V628.891H151.801V625.781H153.535V636.266H151.801V630.312H148.988ZM167.203 625.766V634.156H165.469V630.703H163.063V629.281H165.469V625.766H167.203ZM155.328 632.75C157.602 631.969 158.797 630.07 158.797 628.203V628.094H155.86V626.688H163.485V628.094H160.563V628.188C160.563 629.906 161.703 631.641 163.891 632.375L163.016 633.75C161.446 633.219 160.336 632.141 159.711 630.812C159.094 632.312 157.914 633.531 156.235 634.125L155.328 632.75ZM157.625 637.203C157.61 635.508 159.446 634.516 162.422 634.516C165.414 634.516 167.243 635.508 167.25 637.203C167.243 638.898 165.414 639.883 162.422 639.891C159.446 639.883 157.61 638.898 157.625 637.203ZM159.344 637.203C159.336 638.078 160.461 638.555 162.422 638.547C164.399 638.555 165.516 638.078 165.516 637.203C165.516 636.32 164.399 635.844 162.422 635.844C160.461 635.844 159.336 636.32 159.344 637.203Z" fill="#114493"/>
<path fill-rule="evenodd" clip-rule="evenodd" d="M117.5 699.25V678H118.5V699.25H117.5Z" fill="#114493"/>
<path d="M118 708L113 699.25H123L118 708Z" fill="#114493"/>
<rect x="1" y="721" width="234" height="64" rx="32" stroke="#114493" stroke-width="2"/>
<rect x="8" y="728" width="50" height="50" rx="25" fill="#114493"/>
<path d="M27.2139 764L36.6768 745.719V745.543H25.749V742.789H40.0166V745.66L30.583 764H27.2139Z" fill="white"/>
<path d="M120.474 747.062V748.438H112.584V747.062H115.74V745.656H117.474V747.062H120.474ZM113.318 751.5C113.31 749.977 114.654 748.945 116.584 748.938C118.506 748.945 119.888 749.977 119.896 751.5C119.888 753.031 118.506 754.047 116.584 754.047C114.654 754.047 113.31 753.031 113.318 751.5ZM114.943 751.5C114.935 752.289 115.584 752.781 116.584 752.781C117.584 752.781 118.271 752.289 118.271 751.5C118.271 750.719 117.584 750.25 116.584 750.25C115.584 750.25 114.935 750.719 114.943 751.5ZM114.974 759.719V754.703H116.709V755.891H122.662V754.703H124.381V759.719H114.974ZM116.709 758.359H122.662V757.203H116.709V758.359ZM120.552 753.047V751.656H122.646V750.281H120.568V748.875H122.646V745.766H124.381V754.156H122.646V753.047H120.552ZM139.283 747.734V749.141H137.361V750.766H139.283V752.219H137.361V754.109H135.627V745.766H137.361V747.734H139.283ZM126.377 749.969C126.369 747.984 128.01 746.562 130.189 746.578C132.361 746.562 133.986 747.984 134.002 749.969C133.986 751.984 132.361 753.383 130.189 753.391C128.01 753.383 126.369 751.984 126.377 749.969ZM127.955 756.125V754.719H137.361V759.891H135.627V756.125H127.955ZM128.08 749.969C128.072 751.172 128.971 751.914 130.189 751.906C131.392 751.914 132.291 751.172 132.299 749.969C132.291 748.789 131.392 748.055 130.189 748.047C128.971 748.055 128.072 748.789 128.08 749.969ZM144.201 750.078C144.201 752.266 145.1 754.469 147.076 755.531L146.107 756.812C144.795 756.117 143.904 754.875 143.397 753.391C142.897 754.992 142.006 756.367 140.686 757.141L139.67 755.828C141.67 754.672 142.553 752.312 142.561 750.078V749.641H140.154V748.234H142.561V746.266H144.201V748.234H146.561V749.641H144.201V750.078ZM145.686 752.625V751.188H147.529V746.031H149.17V759.203H147.529V752.625H145.686ZM150.389 759.891V745.766H152.045V759.891H150.389ZM165.385 745.766V752.922H163.651V751.688H160.244V750.359H163.651V748.969H160.424C159.549 751.125 157.479 752.531 154.354 753.234L153.744 751.812C157.065 751.117 158.721 749.656 158.963 747.781H154.526V746.375H160.901C160.901 746.82 160.862 747.242 160.799 747.641H163.651V745.766H165.385ZM156.088 754.844V753.469H165.385V757.188H157.838V758.359H165.76V759.75H156.104V755.891H163.651V754.844H156.088Z" fill="#114493"/>
<path fill-rule="evenodd" clip-rule="evenodd" d="M117.5 819.25V798H118.5V819.25H117.5Z" fill="#114493"/>
<path d="M118 828L113 819.25H123L118 828Z" fill="#114493"/>
<rect x="1" y="841" width="234" height="64" rx="32" stroke="#114493" stroke-width="2"/>
<rect x="8" y="848" width="50" height="50" rx="25" fill="#114493"/>
<path d="M33.0146 884.293C28.4004 884.293 25.1924 881.803 25.2217 878.346C25.1924 875.621 27.1406 873.395 29.6455 873.014V872.896C27.4629 872.398 26.0127 870.465 26.0127 868.15C26.0127 864.884 28.957 862.496 33.0146 862.496C37.0137 862.496 39.9727 864.884 39.9873 868.15C39.9727 870.465 38.4932 872.398 36.3545 872.896V873.014C38.8301 873.395 40.793 875.621 40.8076 878.346C40.793 881.803 37.5557 884.293 33.0146 884.293ZM28.5029 878.111C28.459 880.191 30.2168 881.627 33.0146 881.627C35.7686 881.627 37.5264 880.191 37.5264 878.111C37.5264 875.929 35.6221 874.332 33.0146 874.332C30.3779 874.332 28.459 875.929 28.5029 878.111ZM29.1475 868.443C29.1621 870.421 30.7441 871.798 33.0146 871.783C35.2266 871.798 36.8379 870.436 36.8232 868.443C36.8379 866.466 35.2852 865.118 33.0146 865.133C30.6855 865.118 29.1621 866.466 29.1475 868.443Z" fill="white"/>
<path d="M118.625 867.234V868.234C118.625 869.492 118.625 871.273 118.234 873.703L116.515 873.562C116.859 871.422 116.898 869.836 116.906 868.625H111.359V867.234H118.625ZM110.609 875.531C111.445 875.523 112.375 875.516 113.343 875.492V871.266H115.062V875.438C116.5 875.375 117.976 875.273 119.328 875.109L119.422 876.406C116.507 876.883 113.273 876.938 110.781 876.922L110.609 875.531ZM120.062 879.891V865.766H121.812V871.516H123.859V872.984H121.812V879.891H120.062ZM136.558 865.766V879.891H134.902V865.766H136.558ZM124.152 875.875C126.191 874.633 127.09 872.086 127.09 869.625V868.688H124.637V867.281H131.043V868.688H128.762V869.625C128.762 872.008 129.613 874.398 131.637 875.562L130.605 876.844C129.301 876.07 128.433 874.727 127.941 873.117C127.441 874.859 126.543 876.344 125.215 877.172L124.152 875.875ZM130.012 872.094V870.688H132.043V866.031H133.683V879.203H132.043V872.094H130.012ZM149.067 866.938C149.059 868.711 151.051 870.516 154.067 870.906L153.379 872.312C150.981 871.953 149.074 870.773 148.152 869.18C147.231 870.773 145.332 871.953 142.957 872.312L142.27 870.906C145.254 870.516 147.238 868.727 147.238 866.938V866.219H149.067V866.938ZM141.707 874.969V873.531H154.582V874.969H148.973V879.891H147.254V874.969H141.707ZM167.453 865.766V874.641H165.797V870.797H164.422V874.172H162.797V866.047H164.422V869.391H165.797V865.766H167.453ZM155.297 868.656V867.297H157.969V865.891H159.688V867.297H162.328V868.656H155.297ZM155.797 871.672C155.782 870.203 157.063 869.227 158.828 869.234C160.625 869.227 161.891 870.203 161.907 871.672C161.891 873.141 160.625 874.109 158.828 874.109C157.063 874.109 155.782 873.141 155.797 871.672ZM157.344 871.672C157.344 872.398 157.946 872.859 158.828 872.859C159.719 872.859 160.328 872.398 160.328 871.672C160.328 870.945 159.719 870.484 158.828 870.484C157.946 870.484 157.344 870.945 157.344 871.672ZM157.844 877.359C157.836 875.734 159.664 874.82 162.688 874.812C165.703 874.82 167.524 875.734 167.532 877.359C167.524 878.953 165.703 879.875 162.688 879.875C159.664 879.875 157.836 878.953 157.844 877.359ZM159.578 877.359C159.571 878.133 160.672 878.555 162.688 878.547C164.696 878.555 165.774 878.133 165.782 877.359C165.774 876.539 164.696 876.125 162.688 876.141C160.672 876.125 159.571 876.539 159.578 877.359Z" fill="#114493"/>
<path fill-rule="evenodd" clip-rule="evenodd" d="M117.5 939.25V918H118.5V939.25H117.5Z" fill="#114493"/>
<path d="M118 948L113 939.25H123L118 948Z" fill="#114493"/>
<rect x="1" y="961" width="234" height="64" rx="32" stroke="#114493" stroke-width="2"/>
<rect x="8" y="968" width="50" height="50" rx="25" fill="#114493"/>
<path d="M32.8242 982.496C36.7207 982.525 40.8076 984.869 40.8223 992.633C40.8223 1000.07 37.6143 1004.29 32.5312 1004.29C28.6201 1004.29 25.8955 1001.88 25.3828 998.434H28.5762C29.0156 1000.22 30.3926 1001.47 32.5312 1001.48C35.7979 1001.47 37.7168 998.624 37.7461 993.775H37.4824C36.3398 995.562 34.3477 996.646 32.0625 996.646C28.2539 996.646 25.207 993.731 25.207 989.674C25.207 985.631 28.21 982.467 32.8242 982.496ZM28.3418 989.615C28.3564 992.076 30.1875 994.024 32.7656 994.01C35.3291 994.024 37.3066 991.93 37.3066 989.586C37.3066 987.286 35.417 985.191 32.8242 985.191C30.2607 985.191 28.3271 987.184 28.3418 989.615Z" fill="white"/>
<path d="M102.06 985.766V992.922H100.326V991.688H96.9194V990.359H100.326V988.969H97.0991C96.2241 991.125 94.1538 992.531 91.0288 993.234L90.4194 991.812C93.7397 991.117 95.3959 989.656 95.6381 987.781H91.2006V986.375H97.5756C97.5756 986.82 97.5366 987.242 97.4741 987.641H100.326V985.766H102.06ZM92.7631 994.844V993.469H102.06V997.188H94.5131V998.359H102.435V999.75H92.7788V995.891H100.326V994.844H92.7631ZM111.791 987.234V988.234C111.791 989.492 111.791 991.273 111.4 993.703L109.681 993.562C110.025 991.422 110.064 989.836 110.072 988.625H104.525V987.234H111.791ZM103.775 995.531C104.611 995.523 105.541 995.516 106.509 995.492V991.266H108.228V995.438C109.666 995.375 111.142 995.273 112.494 995.109L112.588 996.406C109.673 996.883 106.439 996.938 103.947 996.922L103.775 995.531ZM113.228 999.891V985.766H114.978V991.516H117.025V992.984H114.978V999.891H113.228ZM130.474 996.766V998.188H117.568V996.766H123.131V994.016H118.99V986.703H120.724V989.016H127.271V986.703H129.006V994.016H124.849V996.766H130.474ZM120.724 992.609H127.271V990.406H120.724V992.609ZM142.768 987.062V988.422C142.752 990.18 142.752 992.141 142.205 995.094L140.455 994.906C141.01 992.156 141.01 990.148 141.018 988.453H132.58V987.062H142.768ZM131.236 998.062V996.641H135.986V991.734H137.705V996.641H144.111V998.062H131.236ZM150.123 989.156C150.115 991.781 151.373 994.359 153.623 995.344L152.576 996.734C150.982 995.953 149.857 994.453 149.256 992.602C148.639 994.555 147.482 996.18 145.857 997L144.764 995.594C147.068 994.516 148.35 991.797 148.357 989.156V986.906H150.123V989.156ZM152.061 991.734V990.328H155.029V985.766H156.748V999.906H155.029V991.734H152.061ZM174.366 985.766V999.891H172.709V985.766H174.366ZM161.959 995.875C163.998 994.633 164.897 992.086 164.897 989.625V988.688H162.444V987.281H168.85V988.688H166.569V989.625C166.569 992.008 167.42 994.398 169.444 995.562L168.413 996.844C167.108 996.07 166.241 994.727 165.748 993.117C165.248 994.859 164.35 996.344 163.022 997.172L161.959 995.875ZM167.819 992.094V990.688H169.85V986.031H171.491V999.203H169.85V992.094H167.819ZM188.721 991.875V993.156H183.159V994.188H187.143V997.5H179.112V998.469H187.534V999.766H177.409V996.312H185.44V995.438H177.393V994.188H181.44V993.156H175.909V991.875H188.721ZM176.471 990.109C179.26 989.969 180.901 989.219 181.26 988.219H177.143V986.922H181.44V985.734H183.159V986.922H187.487V988.219H183.338C183.682 989.219 185.323 989.969 188.143 990.109L187.628 991.406C185.088 991.25 183.19 990.562 182.299 989.422C181.409 990.562 179.518 991.25 176.956 991.406L176.471 990.109Z" fill="#114493"/>
</svg>
