<svg width="980" height="315" viewBox="0 0 980 315" fill="none" xmlns="http://www.w3.org/2000/svg">
<rect x="1" y="1" width="278" height="67" rx="33.5" stroke="#114493" stroke-width="2"/>
<rect x="12" y="12" width="45" height="45" rx="22.5" fill="#114493"/>
<path d="M37.0664 26.0312V43H34.4648V28.6094H34.3711L30.3164 31.2578V28.7969L34.5352 26.0312H37.0664Z" fill="white"/>
<path d="M102.243 28.707C102.223 31.0215 103.688 33.2383 106.462 34.1367L105.329 35.8555C103.376 35.1914 101.979 33.8633 101.208 32.1641C100.427 34.0391 98.9715 35.5039 96.9109 36.2266L95.7 34.5078C98.6004 33.5605 100.055 31.1973 100.055 28.6875V26.6758H102.243V28.707ZM98.532 42.8867V37.2812H100.759V41.1289H110.544V42.8867H98.532ZM107.673 38.5508V25.582H109.841V30.7969H112.302V32.6328H109.841V38.5508H107.673ZM117.902 26.3633C120.188 26.3535 121.984 27.6719 122.424 29.6055H125.617V25.582H127.785V35.0547H125.617V31.3633H122.443C122.023 33.3457 120.207 34.6836 117.902 34.6836C115.197 34.6836 113.234 32.9453 113.234 30.5039C113.234 28.0918 115.197 26.3535 117.902 26.3633ZM115.305 30.5039C115.305 31.9199 116.379 32.8574 117.902 32.8477C119.387 32.8574 120.451 31.9199 120.461 30.5039C120.451 29.0879 119.387 28.1699 117.902 28.1797C116.379 28.1699 115.305 29.0879 115.305 30.5039ZM116.145 43.0234V35.875H118.293V37.75H125.617V35.875H127.785V43.0234H116.145ZM118.293 41.2656H125.617V39.4297H118.293V41.2656ZM135.476 30.9727C135.476 33.707 136.599 36.4609 139.07 37.7891L137.859 39.3906C136.218 38.5215 135.105 36.9688 134.47 35.1133C133.845 37.1152 132.732 38.834 131.081 39.8008L129.812 38.1602C132.312 36.7148 133.415 33.7656 133.425 30.9727V30.4258H130.417V28.668H133.425V26.207H135.476V28.668H138.425V30.4258H135.476V30.9727ZM137.331 34.1562V32.3594H139.636V25.9141H141.687V42.3789H139.636V34.1562H137.331ZM143.21 43.2383V25.582H145.28V43.2383H143.21ZM160.916 27.0469C160.906 29.2637 163.396 31.5195 167.166 32.0078L166.306 33.7656C163.308 33.3164 160.925 31.8418 159.773 29.8496C158.621 31.8418 156.248 33.3164 153.279 33.7656L152.42 32.0078C156.15 31.5195 158.63 29.2832 158.63 27.0469V26.1484H160.916V27.0469ZM151.716 37.0859V35.2891H167.81V37.0859H160.798V43.2383H158.65V37.0859H151.716ZM184.934 39.3125V41.0898H168.802V39.3125H172.532V34.8496C171.126 34.0391 170.276 32.7695 170.286 31.207C170.276 28.3945 173.03 26.5391 176.829 26.5391C180.647 26.5391 183.421 28.3945 183.411 31.207C183.421 32.75 182.591 33.9902 181.223 34.8008V39.3125H184.934ZM172.415 31.207C172.405 33.0137 174.192 34.166 176.829 34.1562C179.456 34.166 181.282 33.0137 181.282 31.207C181.282 29.3711 179.456 28.248 176.829 28.2578C174.192 28.248 172.405 29.3711 172.415 31.207ZM174.68 39.3125H179.016V35.6309C178.343 35.7773 177.61 35.8555 176.829 35.8555C176.067 35.8555 175.345 35.7773 174.68 35.6406V39.3125ZM202.02 39.332V41.1094H185.887V39.332H192.859V35.2695H195.027V39.332H202.02ZM186.59 34.293C190.105 33.707 192.723 31.3242 192.781 28.7852H187.234V27.0078H200.633V28.7852H195.066C195.135 31.3242 197.752 33.6484 201.375 34.1953L200.516 35.9141C197.537 35.377 195.086 33.7949 193.943 31.5879C192.811 33.8242 190.389 35.4551 187.449 36.0117L186.59 34.293ZM209.28 29.8203C209.261 32.9746 210.843 36.1582 213.577 37.4766L212.249 39.2148C210.335 38.248 208.958 36.3828 208.206 34.1367C207.435 36.5391 205.989 38.5312 203.968 39.5469L202.64 37.8086C205.482 36.4609 207.103 33.082 207.113 29.8203V27.0078H209.28V29.8203ZM214.632 43.2383V25.582H216.8V32.4961H219.515V34.3516H216.8V43.2383H214.632Z" fill="#114493"/>
<path fill-rule="evenodd" clip-rule="evenodd" d="M321.25 35H300V34H321.25V35Z" fill="#114493"/>
<path d="M330 34.5L321.25 39.5V29.5L330 34.5Z" fill="#114493"/>
<rect x="351" y="1" width="278" height="67" rx="33.5" stroke="#114493" stroke-width="2"/>
<rect x="362" y="12" width="45" height="45" rx="22.5" fill="#114493"/>
<path d="M378.863 43V41.125L384.746 35.1953C386.609 33.2617 387.535 32.1836 387.535 30.6953C387.535 29.0195 386.176 27.9531 384.395 27.9531C382.508 27.9531 381.312 29.1484 381.301 30.9531H378.863C378.84 27.8477 381.207 25.7969 384.441 25.7969C387.711 25.7969 389.973 27.8711 389.996 30.625C389.973 32.5234 389.082 34.0352 385.895 37.1641L382.449 40.6562V40.7969H390.277V43H378.863Z" fill="white"/>
<path d="M489.948 39.3125V41.0898H473.816V39.3125H480.769V35.4648H475.593V26.9492H488.093V35.4648H482.917V39.3125H489.948ZM477.722 33.7656H485.945V28.6875H477.722V33.7656ZM501.311 26.6367V28.375H497.6C497.629 30.4453 499.153 32.4375 501.936 33.2188L500.842 34.918C498.801 34.3125 497.327 33.0332 496.526 31.4023C495.725 33.1602 494.221 34.5469 492.112 35.2109L491.018 33.5117C493.84 32.6816 495.364 30.5723 495.412 28.375H491.604V26.6367H501.311ZM493.928 43.0234V35.9336H496.077V37.75H503.44V35.9336H505.608V43.0234H493.928ZM496.077 41.2656H503.44V39.4297H496.077V41.2656ZM503.42 35.1523V25.582H505.608V35.1523H503.42ZM515.935 36.6172C519.773 36.627 522.195 37.8379 522.205 39.9375C522.195 41.9883 519.773 43.2188 515.935 43.2188C512.136 43.2188 509.685 41.9883 509.685 39.9375C509.685 37.8379 512.136 36.627 515.935 36.6172ZM508.025 35.3477V33.5898H514.236V30.3867H516.384V33.5898H524.041V35.3477H508.025ZM509.861 28.1406V26.4219H522.087V27.8867C522.097 29.2832 522.097 30.7676 521.599 32.5742L519.451 32.3789C519.89 30.6699 519.92 29.4199 519.92 28.1406H509.861ZM511.873 39.9375C511.853 40.9727 513.386 41.5391 515.935 41.5391C518.494 41.5391 520.037 40.9727 520.056 39.9375C520.037 38.8633 518.494 38.2578 515.935 38.2578C513.386 38.2578 511.853 38.8633 511.873 39.9375ZM539.485 27.2031V28.9023C539.466 31.0996 539.466 33.5508 538.782 37.2422L536.595 37.0078C537.288 33.5703 537.288 31.0605 537.298 28.9414H526.751V27.2031H539.485ZM525.071 40.9531V39.1758H531.009V33.043H533.157V39.1758H541.165V40.9531H525.071Z" fill="#114493"/>
<path fill-rule="evenodd" clip-rule="evenodd" d="M671.25 35H650V34H671.25V35Z" fill="#114493"/>
<path d="M680 34.5L671.25 39.5V29.5L680 34.5Z" fill="#114493"/>
<rect x="701" y="1" width="278" height="67" rx="33.5" stroke="#114493" stroke-width="2"/>
<rect x="712" y="12" width="45" height="45" rx="22.5" fill="#114493"/>
<path d="M734.535 43.2344C731.02 43.2344 728.523 41.3477 728.418 38.5703H731.043C731.137 40.0586 732.613 41.0078 734.512 41.0078C736.562 41.0078 738.051 39.8945 738.051 38.2422C738.051 36.5664 736.656 35.3711 734.23 35.3594H732.777V33.25H734.23C736.164 33.2617 737.512 32.1836 737.512 30.5547C737.512 29.0078 736.352 27.9531 734.559 27.9531C732.859 27.9531 731.336 28.9023 731.277 30.4375H728.793C728.863 27.6719 731.418 25.7969 734.582 25.7969C737.922 25.7969 740.02 27.9062 739.996 30.4141C740.02 32.3477 738.824 33.7305 736.996 34.1875V34.3047C739.316 34.6328 740.664 36.1914 740.652 38.3359C740.664 41.1602 738.051 43.2344 734.535 43.2344Z" fill="white"/>
<path d="M828.234 25.582V43.2383H826.164V25.582H828.234ZM812.824 37.9648C816.477 35.8066 818.156 33.043 818.488 29.4883H813.762V27.7305H820.637C820.637 28.6191 820.578 29.4883 820.451 30.3281H822.512V26.0117H824.582V42.3984H822.512V36.5H819.758V34.7227H822.512V32.1055H820.08C819.24 35.0352 817.404 37.5547 814.094 39.5078L812.824 37.9648ZM841.159 26.9883V28.5898H830.71V26.9883H834.831V25.4844H836.999V26.9883H841.159ZM830.163 35.3867C831.57 35.3867 833.171 35.3867 834.831 35.3379V34.3027C832.829 34.0586 831.579 33.1211 831.589 31.7539C831.579 30.1133 833.308 29.0879 835.945 29.0977C838.513 29.0879 840.28 30.1133 840.28 31.7539C840.28 33.1309 838.982 34.0684 836.999 34.3125V35.2598C838.493 35.1816 839.987 35.0645 841.394 34.8789L841.55 36.3633C837.761 37.0078 833.591 37.0566 830.456 37.0664L830.163 35.3867ZM832.663 39.918V38.2188H844.812V43.2383H842.624V39.918H832.663ZM833.679 31.7539C833.669 32.4766 834.548 32.9062 835.945 32.8867C837.282 32.9062 838.2 32.4766 838.21 31.7539C838.2 30.9727 837.282 30.5527 835.945 30.5625C834.548 30.5527 833.669 30.9727 833.679 31.7539ZM842.624 37.4961V25.6211H844.812V37.4961H842.624ZM853.694 29.8203C853.684 33.1016 855.256 36.3242 858.069 37.5547L856.76 39.293C854.768 38.3164 853.362 36.4414 852.61 34.127C851.838 36.5684 850.393 38.5996 848.362 39.625L846.995 37.8672C849.875 36.5195 851.477 33.1211 851.487 29.8203V27.0078H853.694V29.8203ZM856.116 33.043V31.2852H859.827V25.582H861.975V43.2578H859.827V33.043H856.116ZM883.587 25.582V35.2109H881.419V31.4414H878.372V29.6445H881.419V25.582H883.587ZM868.762 33.8047C871.555 32.8672 873.059 30.582 873.079 28.2578H869.407V26.4805H878.938V28.2578H875.286C875.305 30.377 876.731 32.5645 879.446 33.4727L878.352 35.1523C876.38 34.4785 874.983 33.1406 874.212 31.4805C873.44 33.3262 871.975 34.8105 869.876 35.5234L868.762 33.8047ZM871.946 43.0234V35.9531H874.114V37.7891H881.419V35.9531H883.587V43.0234H871.946ZM874.114 41.2656H881.419V39.4883H874.114V41.2656ZM895.086 27.0469C895.076 29.2637 897.566 31.5195 901.336 32.0078L900.477 33.7656C897.479 33.3164 895.096 31.8418 893.943 29.8496C892.791 31.8418 890.418 33.3164 887.449 33.7656L886.59 32.0078C890.32 31.5195 892.801 29.2832 892.801 27.0469V26.1484H895.086V27.0469ZM885.887 37.0859V35.2891H901.98V37.0859H894.969V43.2383H892.82V37.0859H885.887Z" fill="#114493"/>
<path fill-rule="evenodd" clip-rule="evenodd" d="M844.5 102.25V81H845.5V102.25H844.5Z" fill="#114493"/>
<path d="M845 111L840 102.25H850L845 111Z" fill="#114493"/>
<rect x="1" y="124" width="278" height="67" rx="33.5" stroke="#114493" stroke-width="2"/>
<rect x="12" y="135" width="45" height="45" rx="22.5" fill="#114493"/>
<path d="M34.6641 166.234C31.5234 166.211 28.2422 164.348 28.2422 158.078C28.2539 152.172 30.8086 148.797 34.875 148.797C38.0039 148.797 40.1719 150.742 40.5703 153.438H38.0156C37.6758 152.055 36.5859 151.059 34.875 151.047C32.25 151.059 30.7266 153.332 30.7266 157.164H30.9141C31.8398 155.723 33.4336 154.879 35.2734 154.867C38.2969 154.879 40.7344 157.199 40.7344 160.445C40.7344 163.738 38.3086 166.258 34.6641 166.234ZM31.0312 160.516C31.043 162.402 32.5547 164.066 34.6406 164.078C36.6914 164.066 38.2266 162.473 38.2266 160.492C38.2266 158.547 36.75 156.965 34.7109 156.977C32.6367 156.965 31.0547 158.629 31.0312 160.516Z" fill="white"/>
<path d="M131.406 150.418V151.668C131.406 153.24 131.406 155.467 130.918 158.504L128.769 158.328C129.199 155.652 129.248 153.67 129.257 152.156H122.324V150.418H131.406ZM121.386 160.789C122.431 160.779 123.593 160.77 124.804 160.74V155.457H126.953V160.672C128.75 160.594 130.595 160.467 132.285 160.262L132.402 161.883C128.759 162.479 124.716 162.547 121.601 162.527L121.386 160.789ZM133.203 166.238V148.582H135.39V155.77H137.949V157.605H135.39V166.238H133.203ZM153.823 148.582V166.238H151.753V148.582H153.823ZM138.315 161.219C140.864 159.666 141.987 156.482 141.987 153.406V152.234H138.921V150.477H146.929V152.234H144.077V153.406C144.077 156.385 145.141 159.373 147.671 160.828L146.382 162.43C144.751 161.463 143.667 159.783 143.052 157.771C142.427 159.949 141.304 161.805 139.643 162.84L138.315 161.219ZM145.639 156.492V154.734H148.179V148.914H150.229V165.379H148.179V156.492H145.639ZM166.685 151.707C166.675 154.051 168.081 156.336 170.825 157.273L169.634 158.973C167.73 158.26 166.372 156.883 165.62 155.145C164.868 157.088 163.423 158.611 161.353 159.383L160.2 157.664C163.042 156.707 164.488 154.266 164.497 151.688V149.676H166.685V151.707ZM163.404 165.887V160.281H165.611V164.129H175.435V165.887H163.404ZM169.361 154.266V152.488H172.876V148.602H175.044V161.707H172.876V154.266H169.361ZM192.129 148.582V159.07H189.961V154.754H186.954V152.977H189.961V148.582H192.129ZM177.286 157.312C180.127 156.336 181.621 153.963 181.621 151.629V151.492H177.95V149.734H187.481V151.492H183.829V151.609C183.829 153.758 185.254 155.926 187.989 156.844L186.895 158.562C184.932 157.898 183.545 156.551 182.764 154.891C181.993 156.766 180.518 158.289 178.418 159.031L177.286 157.312ZM180.157 162.879C180.137 160.76 182.432 159.52 186.153 159.52C189.893 159.52 192.178 160.76 192.188 162.879C192.178 164.998 189.893 166.229 186.153 166.238C182.432 166.229 180.137 164.998 180.157 162.879ZM182.305 162.879C182.295 163.973 183.702 164.568 186.153 164.559C188.623 164.568 190.02 163.973 190.02 162.879C190.02 161.775 188.623 161.18 186.153 161.18C183.702 161.18 182.295 161.775 182.305 162.879Z" fill="#114493"/>
<path fill-rule="evenodd" clip-rule="evenodd" d="M308.75 157H330V158H308.75V157Z" fill="#114493"/>
<path d="M300 157.5L308.75 152.5V162.5L300 157.5Z" fill="#114493"/>
<rect x="351" y="124" width="278" height="67" rx="33.5" stroke="#114493" stroke-width="2"/>
<rect x="362" y="135" width="45" height="45" rx="22.5" fill="#114493"/>
<path d="M384.488 166.234C381.277 166.234 378.863 164.277 378.746 161.57H381.254C381.395 163.012 382.777 164.066 384.488 164.078C386.551 164.066 388.027 162.578 388.027 160.562C388.027 158.5 386.504 157 384.371 156.977C383.012 156.977 381.969 157.434 381.395 158.477H378.957L380.059 149.031H389.668V151.234H382.191L381.629 155.992H381.793C382.496 155.312 383.691 154.855 384.98 154.844C388.18 154.855 390.535 157.223 390.535 160.492C390.535 163.832 388.027 166.234 384.488 166.234Z" fill="white"/>
<path d="M469.309 152.82C469.289 155.975 470.871 159.158 473.605 160.477L472.277 162.215C470.363 161.248 468.986 159.383 468.234 157.137C467.463 159.539 466.018 161.531 463.996 162.547L462.668 160.809C465.51 159.461 467.131 156.082 467.141 152.82V150.008H469.309V152.82ZM474.66 166.238V148.582H476.828V155.496H479.543V157.352H476.828V166.238H474.66ZM484.987 149.363C487.273 149.354 489.07 150.672 489.509 152.605H492.702V148.582H494.87V158.055H492.702V154.363H489.529C489.109 156.346 487.292 157.684 484.987 157.684C482.282 157.684 480.32 155.945 480.32 153.504C480.32 151.092 482.282 149.354 484.987 149.363ZM482.39 153.504C482.39 154.92 483.464 155.857 484.987 155.848C486.472 155.857 487.536 154.92 487.546 153.504C487.536 152.088 486.472 151.17 484.987 151.18C483.464 151.17 482.39 152.088 482.39 153.504ZM483.23 166.023V158.875H485.378V160.75H492.702V158.875H494.87V166.023H483.23ZM485.378 164.266H492.702V162.43H485.378V164.266ZM511.096 148.582V153.543H513.577V155.34H511.096V161.355H508.928V148.582H511.096ZM497.912 158.367V150.047H505.823V151.785H500.061V156.59C503.381 156.59 505.227 156.482 507.327 156.043L507.561 157.801C505.246 158.26 503.196 158.367 499.338 158.367H497.912ZM499.787 165.887V160.008H501.955V164.129H511.799V165.887H499.787ZM528.665 149.812V151.57H527.102V156.58C527.747 156.531 528.391 156.473 528.997 156.395V154.812H531.419V153.289H528.997V151.551H531.419V148.582H533.587V159.402H531.419V156.551H529.046L529.134 157.996C525.764 158.553 521.868 158.611 519.055 158.621L518.821 156.824C519.436 156.824 520.11 156.824 520.813 156.814V151.57H519.27V149.812H528.665ZM521.614 162.977C521.595 160.896 523.87 159.715 527.61 159.715C531.38 159.715 533.636 160.896 533.645 162.977C533.636 165.008 531.38 166.219 527.61 166.219C523.87 166.219 521.595 165.008 521.614 162.977ZM522.923 156.785C523.606 156.766 524.309 156.736 525.012 156.707V151.57H522.923V156.785ZM523.762 162.977C523.753 164.002 525.139 164.539 527.61 164.539C530.091 164.539 531.477 164.002 531.477 162.977C531.477 161.932 530.091 161.375 527.61 161.375C525.139 161.375 523.753 161.932 523.762 162.977ZM549.715 148.582V155.477H552.332V157.293H549.715V166.199H547.547V148.582H549.715ZM535.789 161.375C540.086 159.227 542.41 156.238 542.84 152.215H536.746V150.418H545.047C545.037 155.604 542.889 160.164 537.02 163.055L535.789 161.375Z" fill="#114493"/>
<path fill-rule="evenodd" clip-rule="evenodd" d="M658.75 157H680V158H658.75V157Z" fill="#114493"/>
<path d="M650 157.5L658.75 152.5V162.5L650 157.5Z" fill="#114493"/>
<rect x="701" y="124" width="278" height="67" rx="33.5" stroke="#114493" stroke-width="2"/>
<rect x="712" y="135" width="45" height="45" rx="22.5" fill="#114493"/>
<path d="M728.008 162.695V160.609L735.508 149.031H738.695V160.516H741.016V162.695H738.695V166H736.258V162.695H728.008ZM730.727 160.516H736.258V152.102H736.07L730.727 160.375V160.516Z" fill="white"/>
<path d="M827.968 151.707C827.959 154.051 829.365 156.336 832.109 157.273L830.918 158.973C829.013 158.26 827.656 156.883 826.904 155.145C826.152 157.088 824.707 158.611 822.636 159.383L821.484 157.664C824.326 156.707 825.771 154.266 825.781 151.688V149.676H827.968V151.707ZM824.687 165.887V160.281H826.894V164.129H836.718V165.887H824.687ZM830.644 154.266V152.488H834.16V148.602H836.328V161.707H834.16V154.266H830.644ZM853.413 148.582V159.07H851.245V154.754H848.237V152.977H851.245V148.582H853.413ZM838.569 157.312C841.411 156.336 842.905 153.963 842.905 151.629V151.492H839.233V149.734H848.764V151.492H845.112V151.609C845.112 153.758 846.538 155.926 849.272 156.844L848.179 158.562C846.216 157.898 844.829 156.551 844.048 154.891C843.276 156.766 841.802 158.289 839.702 159.031L838.569 157.312ZM841.44 162.879C841.421 160.76 843.716 159.52 847.436 159.52C851.177 159.52 853.462 160.76 853.471 162.879C853.462 164.998 851.177 166.229 847.436 166.238C843.716 166.229 841.421 164.998 841.44 162.879ZM843.589 162.879C843.579 163.973 844.985 164.568 847.436 164.559C849.907 164.568 851.304 163.973 851.304 162.879C851.304 161.775 849.907 161.18 847.436 161.18C844.985 161.18 843.579 161.775 843.589 162.879ZM870.122 149.812V151.57H868.56V156.58C869.204 156.531 869.849 156.473 870.454 156.395V154.812H872.876V153.289H870.454V151.551H872.876V148.582H875.044V159.402H872.876V156.551H870.503L870.591 157.996C867.222 158.553 863.325 158.611 860.513 158.621L860.279 156.824C860.894 156.824 861.568 156.824 862.271 156.814V151.57H860.728V149.812H870.122ZM863.071 162.977C863.052 160.896 865.327 159.715 869.068 159.715C872.837 159.715 875.093 160.896 875.103 162.977C875.093 165.008 872.837 166.219 869.068 166.219C865.327 166.219 863.052 165.008 863.071 162.977ZM864.38 156.785C865.064 156.766 865.767 156.736 866.47 156.707V151.57H864.38V156.785ZM865.22 162.977C865.21 164.002 866.597 164.539 869.068 164.539C871.548 164.539 872.935 164.002 872.935 162.977C872.935 161.932 871.548 161.375 869.068 161.375C866.597 161.375 865.21 161.932 865.22 162.977ZM891.172 148.582V155.477H893.789V157.293H891.172V166.199H889.004V148.582H891.172ZM877.246 161.375C881.543 159.227 883.868 156.238 884.297 152.215H878.204V150.418H886.504C886.495 155.604 884.346 160.164 878.477 163.055L877.246 161.375Z" fill="#114493"/>
<path fill-rule="evenodd" clip-rule="evenodd" d="M144.5 225.25V204H145.5V225.25H144.5Z" fill="#114493"/>
<path d="M145 234L140 225.25H150L145 234Z" fill="#114493"/>
<rect x="1" y="247" width="278" height="67" rx="33.5" stroke="#114493" stroke-width="2"/>
<rect x="12" y="258" width="45" height="45" rx="22.5" fill="#114493"/>
<path d="M29.8711 289L37.4414 274.375V274.234H28.6992V272.031H40.1133V274.328L32.5664 289H29.8711Z" fill="white"/>
<path d="M133.718 273.203V274.922H123.855V273.203H127.8V271.445H129.968V273.203H133.718ZM124.773 278.75C124.763 276.846 126.443 275.557 128.855 275.547C131.257 275.557 132.986 276.846 132.995 278.75C132.986 280.664 131.257 281.934 128.855 281.934C126.443 281.934 124.763 280.664 124.773 278.75ZM126.804 278.75C126.794 279.736 127.605 280.352 128.855 280.352C130.105 280.352 130.964 279.736 130.964 278.75C130.964 277.773 130.105 277.188 128.855 277.188C127.605 277.188 126.794 277.773 126.804 278.75ZM126.843 289.023V282.754H129.011V284.238H136.452V282.754H138.601V289.023H126.843ZM129.011 287.324H136.452V285.879H129.011V287.324ZM133.816 280.684V278.945H136.433V277.227H133.835V275.469H136.433V271.582H138.601V282.07H136.433V280.684H133.816ZM157.229 274.043V275.801H154.827V277.832H157.229V279.648H154.827V282.012H152.659V271.582H154.827V274.043H157.229ZM141.096 276.836C141.086 274.355 143.137 272.578 145.862 272.598C148.577 272.578 150.608 274.355 150.627 276.836C150.608 279.355 148.577 281.104 145.862 281.113C143.137 281.104 141.086 279.355 141.096 276.836ZM143.069 284.531V282.773H154.827V289.238H152.659V284.531H143.069ZM143.225 276.836C143.215 278.34 144.338 279.268 145.862 279.258C147.366 279.268 148.489 278.34 148.498 276.836C148.489 275.361 147.366 274.443 145.862 274.434C144.338 274.443 143.215 275.361 143.225 276.836ZM163.377 276.973C163.377 279.707 164.5 282.461 166.97 283.789L165.759 285.391C164.119 284.521 163.005 282.969 162.371 281.113C161.746 283.115 160.632 284.834 158.982 285.801L157.712 284.16C160.212 282.715 161.316 279.766 161.326 276.973V276.426H158.318V274.668H161.326V272.207H163.377V274.668H166.326V276.426H163.377V276.973ZM165.232 280.156V278.359H167.537V271.914H169.587V288.379H167.537V280.156H165.232ZM171.111 289.238V271.582H173.181V289.238H171.111ZM189.856 271.582V280.527H187.688V278.984H183.43V277.324H187.688V275.586H183.655C182.561 278.281 179.973 280.039 176.067 280.918L175.305 279.141C179.456 278.271 181.526 276.445 181.829 274.102H176.282V272.344H184.251C184.251 272.9 184.202 273.428 184.124 273.926H187.688V271.582H189.856ZM178.235 282.93V281.211H189.856V285.859H180.423V287.324H190.325V289.062H178.255V284.238H187.688V282.93H178.235Z" fill="#114493"/>
<path fill-rule="evenodd" clip-rule="evenodd" d="M321.25 281H300V280H321.25V281Z" fill="#114493"/>
<path d="M330 280.5L321.25 285.5V275.5L330 280.5Z" fill="#114493"/>
<rect x="351" y="247" width="278" height="67" rx="33.5" stroke="#114493" stroke-width="2"/>
<rect x="362" y="258" width="45" height="45" rx="22.5" fill="#114493"/>
<path d="M384.512 289.234C380.82 289.234 378.254 287.242 378.277 284.477C378.254 282.297 379.812 280.516 381.816 280.211V280.117C380.07 279.719 378.91 278.172 378.91 276.32C378.91 273.707 381.266 271.797 384.512 271.797C387.711 271.797 390.078 273.707 390.09 276.32C390.078 278.172 388.895 279.719 387.184 280.117V280.211C389.164 280.516 390.734 282.297 390.746 284.477C390.734 287.242 388.145 289.234 384.512 289.234ZM380.902 284.289C380.867 285.953 382.273 287.102 384.512 287.102C386.715 287.102 388.121 285.953 388.121 284.289C388.121 282.543 386.598 281.266 384.512 281.266C382.402 281.266 380.867 282.543 380.902 284.289ZM381.418 276.555C381.43 278.137 382.695 279.238 384.512 279.227C386.281 279.238 387.57 278.148 387.559 276.555C387.57 274.973 386.328 273.895 384.512 273.906C382.648 273.895 381.43 274.973 381.418 276.555Z" fill="white"/>
<path d="M481.406 273.418V274.668C481.406 276.24 481.406 278.467 480.918 281.504L478.769 281.328C479.199 278.652 479.248 276.67 479.257 275.156H472.324V273.418H481.406ZM471.386 283.789C472.431 283.779 473.593 283.77 474.804 283.74V278.457H476.953V283.672C478.75 283.594 480.595 283.467 482.285 283.262L482.402 284.883C478.759 285.479 474.716 285.547 471.601 285.527L471.386 283.789ZM483.203 289.238V271.582H485.39V278.77H487.949V280.605H485.39V289.238H483.203ZM503.823 271.582V289.238H501.753V271.582H503.823ZM488.315 284.219C490.864 282.666 491.987 279.482 491.987 276.406V275.234H488.921V273.477H496.929V275.234H494.077V276.406C494.077 279.385 495.141 282.373 497.671 283.828L496.382 285.43C494.751 284.463 493.667 282.783 493.052 280.771C492.427 282.949 491.304 284.805 489.643 285.84L488.315 284.219ZM495.639 279.492V277.734H498.179V271.914H500.229V288.379H498.179V279.492H495.639ZM519.458 273.047C519.448 275.264 521.939 277.52 525.708 278.008L524.849 279.766C521.851 279.316 519.468 277.842 518.316 275.85C517.163 277.842 514.79 279.316 511.821 279.766L510.962 278.008C514.693 277.52 517.173 275.283 517.173 273.047V272.148H519.458V273.047ZM510.259 283.086V281.289H526.353V283.086H519.341V289.238H517.193V283.086H510.259ZM542.442 271.582V282.676H540.371V277.871H538.653V282.09H536.621V271.934H538.653V276.113H540.371V271.582H542.442ZM527.246 275.195V273.496H530.586V271.738H532.735V273.496H536.036V275.195H527.246ZM527.871 278.965C527.852 277.129 529.454 275.908 531.661 275.918C533.907 275.908 535.489 277.129 535.508 278.965C535.489 280.801 533.907 282.012 531.661 282.012C529.454 282.012 527.852 280.801 527.871 278.965ZM529.805 278.965C529.805 279.873 530.557 280.449 531.661 280.449C532.774 280.449 533.536 279.873 533.536 278.965C533.536 278.057 532.774 277.48 531.661 277.48C530.557 277.48 529.805 278.057 529.805 278.965ZM530.43 286.074C530.42 284.043 532.705 282.9 536.485 282.891C540.254 282.9 542.53 284.043 542.539 286.074C542.53 288.066 540.254 289.219 536.485 289.219C532.705 289.219 530.42 288.066 530.43 286.074ZM532.598 286.074C532.588 287.041 533.965 287.568 536.485 287.559C538.995 287.568 540.342 287.041 540.352 286.074C540.342 285.049 538.995 284.531 536.485 284.551C533.965 284.531 532.588 285.049 532.598 286.074Z" fill="#114493"/>
<path fill-rule="evenodd" clip-rule="evenodd" d="M671.25 281H650V280H671.25V281Z" fill="#114493"/>
<path d="M680 280.5L671.25 285.5V275.5L680 280.5Z" fill="#114493"/>
<rect x="701" y="247" width="278" height="67" rx="33.5" stroke="#114493" stroke-width="2"/>
<rect x="712" y="258" width="45" height="45" rx="22.5" fill="#114493"/>
<path d="M734.359 271.797C737.477 271.82 740.746 273.695 740.758 279.906C740.758 285.859 738.191 289.234 734.125 289.234C730.996 289.234 728.816 287.301 728.406 284.547H730.961C731.312 285.977 732.414 286.973 734.125 286.984C736.738 286.973 738.273 284.699 738.297 280.82H738.086C737.172 282.25 735.578 283.117 733.75 283.117C730.703 283.117 728.266 280.785 728.266 277.539C728.266 274.305 730.668 271.773 734.359 271.797ZM730.773 277.492C730.785 279.461 732.25 281.02 734.312 281.008C736.363 281.02 737.945 279.344 737.945 277.469C737.945 275.629 736.434 273.953 734.359 273.953C732.309 273.953 730.762 275.547 730.773 277.492Z" fill="white"/>
<path d="M810.7 271.582V280.527H808.532V278.984H804.274V277.324H808.532V275.586H804.499C803.405 278.281 800.817 280.039 796.911 280.918L796.149 279.141C800.3 278.271 802.37 276.445 802.673 274.102H797.126V272.344H805.095C805.095 272.9 805.046 273.428 804.968 273.926H808.532V271.582H810.7ZM799.079 282.93V281.211H810.7V285.859H801.266V287.324H811.169V289.062H799.098V284.238H808.532V282.93H799.079ZM822.863 273.418V274.668C822.863 276.24 822.863 278.467 822.375 281.504L820.227 281.328C820.656 278.652 820.705 276.67 820.715 275.156H813.781V273.418H822.863ZM812.844 283.789C813.889 283.779 815.051 283.77 816.262 283.74V278.457H818.41V283.672C820.207 283.594 822.053 283.467 823.742 283.262L823.859 284.883C820.217 285.479 816.174 285.547 813.059 285.527L812.844 283.789ZM824.66 289.238V271.582H826.848V278.77H829.406V280.605H826.848V289.238H824.66ZM846.218 285.332V287.109H830.085V285.332H837.038V281.895H831.862V272.754H834.03V275.645H842.214V272.754H844.382V281.895H839.187V285.332H846.218ZM834.03 280.137H842.214V277.383H834.03V280.137ZM861.584 273.203V274.902C861.565 277.1 861.565 279.551 860.881 283.242L858.694 283.008C859.387 279.57 859.387 277.061 859.397 274.941H848.85V273.203H861.584ZM847.17 286.953V285.176H853.108V279.043H855.256V285.176H863.264V286.953H847.17ZM870.779 275.82C870.769 279.102 872.341 282.324 875.154 283.555L873.845 285.293C871.853 284.316 870.447 282.441 869.695 280.127C868.923 282.568 867.478 284.6 865.447 285.625L864.08 283.867C866.961 282.52 868.562 279.121 868.572 275.82V273.008H870.779V275.82ZM873.201 279.043V277.285H876.912V271.582H879.06V289.258H876.912V279.043H873.201ZM901.082 271.582V289.238H899.012V271.582H901.082ZM885.574 284.219C888.123 282.666 889.246 279.482 889.246 276.406V275.234H886.18V273.477H894.188V275.234H891.336V276.406C891.336 279.385 892.4 282.373 894.93 283.828L893.641 285.43C892.01 284.463 890.926 282.783 890.311 280.771C889.686 282.949 888.562 284.805 886.902 285.84L885.574 284.219ZM892.898 279.492V277.734H895.438V271.914H897.488V288.379H895.438V279.492H892.898ZM919.027 279.219V280.82H912.073V282.109H917.054V286.25H907.015V287.461H917.542V289.082H904.886V284.766H914.925V283.672H904.866V282.109H909.925V280.82H903.011V279.219H919.027ZM903.714 277.012C907.2 276.836 909.251 275.898 909.7 274.648H904.554V273.027H909.925V271.543H912.073V273.027H917.484V274.648H912.298C912.728 275.898 914.779 276.836 918.304 277.012L917.659 278.633C914.486 278.438 912.113 277.578 910.999 276.152C909.886 277.578 907.523 278.438 904.32 278.633L903.714 277.012Z" fill="#114493"/>
</svg>
