<svg width="236" height="620" viewBox="0 0 236 620" fill="none" xmlns="http://www.w3.org/2000/svg">
<rect x="0.5" y="26.5" width="235" height="149" rx="4.5" fill="white"/>
<rect x="0.5" y="26.5" width="235" height="149" rx="4.5" stroke="#114493"/>
<path d="M30.6367 69.9121V82.1621H29.3242V69.9121H30.6367ZM20.5742 78.8809C23.8281 77.3291 25.4209 75.1211 25.6738 72.2637H21.1621V71.2246H26.9863C26.9863 74.8135 25.4619 77.917 21.2578 79.9336L20.5742 78.8809ZM35.9414 70.4727C37.5547 70.459 38.8057 71.3955 39.0723 72.7695H41.4648V69.9121H42.7637V76.4883H41.4648V73.8359H39.0791C38.8262 75.2441 37.5684 76.1875 35.9414 76.1875C34.0684 76.1875 32.7217 75.0049 32.7285 73.3164C32.7217 71.6484 34.0684 70.459 35.9414 70.4727ZM33.9727 73.3164C33.9658 74.3623 34.7861 75.0938 35.9414 75.0938C37.0762 75.0938 37.8828 74.3623 37.8828 73.3164C37.8828 72.2637 37.0762 71.5459 35.9414 71.5527C34.7861 71.5459 33.9658 72.2637 33.9727 73.3164ZM34.7793 82.0117V77.0762H36.0645V78.498H41.4648V77.0762H42.7637V82.0117H34.7793ZM36.0645 80.9453H41.4648V79.5234H36.0645V80.9453ZM54.7949 69.9121V82.1895H53.4961V69.9121H54.7949ZM45.0742 75.1211C45.0742 72.5029 46.3936 70.835 48.2461 70.8281C50.0645 70.835 51.4043 72.5029 51.4043 75.1211C51.4043 77.7666 50.0645 79.4346 48.2461 79.4277C46.3936 79.4346 45.0742 77.7666 45.0742 75.1211ZM46.332 75.1211C46.3252 77.0693 47.1045 78.2656 48.2461 78.2656C49.3672 78.2656 50.1465 77.0693 50.1465 75.1211C50.1465 73.2002 49.3672 71.9971 48.2461 71.9902C47.1045 71.9971 46.3252 73.2002 46.332 75.1211ZM64.4473 72.1133C64.4404 73.6787 65.5273 75.1621 67.4004 75.791L66.7441 76.8027C65.3564 76.3242 64.3379 75.3672 63.8047 74.1641C63.2715 75.4834 62.2051 76.5293 60.7695 77.0352L60.0723 76.0234C61.9863 75.374 63.1416 73.7881 63.1484 72.0996V71.7715H60.4551V70.7188H67.0859V71.7715H64.4473V72.1133ZM61.6992 78.9492V77.8965H69.793V82.1621H68.4941V78.9492H61.6992ZM68.4941 77.2949V69.9121H69.793V73.0566H71.5703V74.1504H69.793V77.2949H68.4941ZM76.6152 71.7441C76.6084 73.46 77.7227 74.9912 79.582 75.5996L78.8711 76.6113C77.5244 76.1191 76.5332 75.1758 76 73.9453C75.4736 75.3467 74.4072 76.4473 72.9238 76.9805L72.2266 75.9414C74.1816 75.2715 75.3164 73.6377 75.3301 71.7988V70.5957H76.6152V71.7441ZM74.2363 79.8242C74.2295 78.3408 75.8018 77.4795 78.3789 77.4863C80.9424 77.4795 82.5146 78.3408 82.5215 79.8242C82.5146 81.3008 80.9424 82.1416 78.3789 82.1348C75.8018 82.1416 74.2295 81.3008 74.2363 79.8242ZM75.5215 79.8242C75.5146 80.6377 76.5811 81.1162 78.3789 81.1094C80.1631 81.1162 81.2295 80.6377 81.2363 79.8242C81.2295 78.9834 80.1631 78.498 78.3789 78.498C76.5811 78.498 75.5146 78.9834 75.5215 79.8242ZM78.5977 73.4668V72.4004H81.1816V69.9121H82.4805V77.1445H81.1816V73.4668H78.5977ZM98.2988 69.9121V82.1621H97.0547V69.9121H98.2988ZM87.6074 78.7852C89.3438 77.7393 90.2256 75.5107 90.2324 73.3301V72.3457H87.9766V71.293H93.582V72.3457H91.4766V73.3301C91.4766 75.4219 92.3242 77.5205 94.0469 78.5117L93.2676 79.4688C92.0986 78.7715 91.2988 77.5205 90.8682 76.0439C90.4307 77.6436 89.5967 79.0107 88.4004 79.7559L87.6074 78.7852ZM92.6797 75.3125V74.2461H94.5801V70.1719H95.8105V81.5469H94.5801V75.3125H92.6797ZM111.041 75.2852V76.2559H106.105V77.2812H109.646V80.043H102.51V81.0547H109.988V82.0391H101.238V79.1406H108.361V78.2246H101.225V77.2812H104.82V76.2559H99.8984V75.2852H111.041ZM100.445 73.8223C102.79 73.6924 104.444 72.9746 104.711 71.9355H101.006V70.9375H104.82V69.8574H106.105V70.9375H109.934V71.9355H106.208C106.468 72.9746 108.122 73.6924 110.494 73.8223L110.098 74.8066C107.965 74.6494 106.229 74.0273 105.463 72.9541C104.697 74.0273 102.961 74.6494 100.814 74.8066L100.445 73.8223ZM121.609 69.9258V73.8633H123.387V74.9434H121.609V79.0859H120.311V69.9258H121.609ZM111.998 72.4004V71.3477H115.006V69.9121H116.305V71.3477H119.299V72.4004H111.998ZM112.668 75.2988C112.661 73.8975 113.871 72.9814 115.648 72.9883C117.405 72.9814 118.615 73.8975 118.615 75.2988C118.615 76.6865 117.405 77.5889 115.648 77.5957C113.871 77.5889 112.661 76.6865 112.668 75.2988ZM113.844 81.9023V78.3613H115.143V80.8496H122.129V81.9023H113.844ZM113.926 75.2988C113.912 76.0986 114.609 76.5908 115.648 76.584C116.688 76.5908 117.385 76.0986 117.398 75.2988C117.385 74.4922 116.688 73.9932 115.648 73.9863C114.609 73.9932 113.912 74.4922 113.926 75.2988ZM137.66 69.9258V78.8945H136.361V69.9258H137.66ZM127.57 76.1328C129.491 75.4219 130.626 73.6582 130.633 71.8125V70.5957H131.959V71.8125C131.952 73.6035 133.087 75.2441 134.98 75.9004L134.311 76.9395C132.896 76.4131 131.85 75.374 131.303 74.0479C130.763 75.4697 129.703 76.6045 128.268 77.1582L127.57 76.1328ZM129.648 81.9023V78.0469H130.961V80.8496H138.029V81.9023H129.648ZM143.895 72.5234C143.895 73.9658 145.077 75.3125 146.943 75.832L146.328 76.8438C144.906 76.4404 143.84 75.5654 143.279 74.4307C142.746 75.6953 141.68 76.7002 140.217 77.1582L139.602 76.1602C141.461 75.5654 142.609 74.1025 142.609 72.5234V72.373H139.943V71.334H142.609V69.8574H143.908V71.334H146.561V72.373H143.895V72.5234ZM141.57 79.8652C141.563 78.4297 143.143 77.6162 145.713 77.6094C148.276 77.6162 149.849 78.4297 149.855 79.8652C149.849 81.3076 148.276 82.1416 145.713 82.1348C143.143 82.1416 141.563 81.3076 141.57 79.8652ZM142.855 79.8652C142.849 80.6582 143.915 81.1299 145.713 81.1367C147.511 81.1299 148.563 80.6582 148.57 79.8652C148.563 79.0723 147.511 78.6211 145.713 78.6211C143.915 78.6211 142.849 79.0723 142.855 79.8652ZM146.178 74.4102V73.3438H148.516V69.9121H149.814V77.3359H148.516V74.4102H146.178ZM156.117 73.0293C156.117 75.2715 157.375 77.5068 159.248 78.3477L158.455 79.3867C157.067 78.6895 156.015 77.3086 155.475 75.6338C154.935 77.3975 153.868 78.8877 152.453 79.6191L151.633 78.5664C153.533 77.6572 154.798 75.2988 154.805 73.0293V70.9375H156.117V73.0293ZM157.895 75.0391V73.9863H160.629V69.9121H161.914V82.1895H160.629V75.0391H157.895ZM174.998 75.5312V76.5293H163.787V75.5312H174.998ZM165.113 78.3203V77.3906H173.617V80.084H166.426V81.0957H174V82.0117H165.127V79.2227H172.332V78.3203H165.113ZM165.195 71.1426V70.2266H173.59V72.8789H166.508V73.8086H173.795V74.7246H165.223V72.0176H172.291V71.1426H165.195ZM188.861 69.9121V74.6562H190.83V75.75H188.861V82.1621H187.562V69.9121H188.861ZM179.783 79.25V70.9375H181.068V74.082H184.309V70.9375H185.594V79.25H179.783ZM181.068 78.1836H184.309V75.1074H181.068V78.1836ZM201.043 69.9121V73.002H202.82V74.0684H201.043V77.418H199.744V69.9121H201.043ZM191.951 76.6523V70.7461H197.639V71.7852H193.25V73.166H197.406V74.1914H193.25V75.5996C195.499 75.5996 196.839 75.5381 198.404 75.2715L198.541 76.3105C196.866 76.6113 195.424 76.6592 192.908 76.6523H191.951ZM192.99 79.9199C192.983 78.5049 194.562 77.6982 197.105 77.6914C199.628 77.6982 201.187 78.5049 201.18 79.9199C201.187 81.335 199.628 82.1416 197.105 82.1348C194.562 82.1416 192.983 81.335 192.99 79.9199ZM194.289 79.9199C194.282 80.6992 195.314 81.1504 197.105 81.1367C198.855 81.1504 199.895 80.6992 199.895 79.9199C199.895 79.1475 198.855 78.71 197.105 78.7031C195.314 78.71 194.282 79.1475 194.289 79.9199ZM209.096 70.6504C211.666 70.6504 213.621 72.0107 213.621 74.0684C213.621 76.1396 211.666 77.4932 209.096 77.4863C206.532 77.4932 204.577 76.1396 204.584 74.0684C204.577 72.0107 206.532 70.6504 209.096 70.6504ZM203.518 80.5762V79.4961H214.729V80.5762H203.518ZM205.828 74.0684C205.821 75.4971 207.216 76.4199 209.096 76.4199C210.969 76.4199 212.356 75.4971 212.363 74.0684C212.356 72.6465 210.969 71.6963 209.096 71.7031C207.216 71.6963 205.821 72.6465 205.828 74.0684ZM31.6621 98.6055V99.6992H20.4512V98.6055H25.3867V96.459H21.8184V92.5625H29.0098V90.8398H21.791V89.7734H30.2949V93.6016H23.1035V95.3926H30.582V96.459H26.6719V98.6055H31.6621ZM45.9219 90.0879V91.4004C45.9082 92.9385 45.9082 94.5518 45.4707 96.8965L44.1992 96.7598C44.6299 94.5449 44.6299 92.9043 44.623 91.4004V91.1406H37.1172V90.0879H45.9219ZM35.9688 99.5078V98.4277H38.6074V94.4629H39.9062V98.4277H41.6699V94.4629H42.9414V98.4277H47.1387V99.5078H35.9688ZM58.5547 88.9121V101.162H57.3105V94.8867H55.7383V100.533H54.5215V89.1582H55.7383V93.8203H57.3105V88.9121H58.5547ZM48.6426 98.0449V90.3613H49.9414V96.9033C51.0693 96.8896 52.3066 96.8008 53.7012 96.5273L53.8379 97.6621C52.1562 97.9629 50.7549 98.0518 49.4355 98.0449H48.6426ZM73.7988 88.9258V97.9492H72.5V94.7637H69.458C68.8838 95.4541 67.9951 95.8711 66.9766 95.8711C65.1309 95.8711 63.7568 94.5791 63.7637 92.7812C63.7568 90.9697 65.1309 89.6777 66.9766 89.6641C67.9883 89.6709 68.8701 90.0879 69.4443 90.7715H72.5V88.9258H73.7988ZM65.0078 92.7812C65.001 93.9365 65.8281 94.7295 66.9766 94.7227C68.0771 94.7295 68.918 93.9365 68.918 92.7812C68.918 91.626 68.0771 90.833 66.9766 90.8262C65.8281 90.833 65.001 91.626 65.0078 92.7812ZM65.8418 100.902V97.0059H67.1406V99.8496H74.127V100.902H65.8418ZM70.0186 91.8242C70.1143 92.125 70.1621 92.4395 70.1621 92.7812C70.1621 93.1094 70.1143 93.4238 70.0254 93.7109H72.5V91.8242H70.0186ZM85.4336 89.6777V90.7578C85.4336 91.9199 85.4336 93.1846 85.0918 94.9277H86.8555V95.9941H81.8926V101.176H80.5801V95.9941H75.6855V94.9277H83.7793C84.1416 93.1777 84.1416 91.8994 84.1484 90.7578V90.7441H77.0527V89.6777H85.4336ZM92.0508 92.5215C92.0439 94.4561 93.3223 96.6162 95.1816 97.498L94.4434 98.5098C93.0693 97.8535 91.9756 96.4727 91.4219 94.873C90.8613 96.6162 89.7129 98.127 88.3184 98.8242L87.5527 97.7988C89.4121 96.9033 90.7588 94.5928 90.7656 92.5215V91.2227H88.0039V90.1426H94.7168V91.2227H92.0508V92.5215ZM96.0293 101.162V88.9121H97.3281V93.7656H99.2969V94.8594H97.3281V101.162H96.0293ZM111.082 94.5312V95.5293H99.8711V94.5312H111.082ZM101.197 97.3203V96.3906H109.701V99.084H102.51V100.096H110.084V101.012H101.211V98.2227H108.416V97.3203H101.197ZM101.279 90.1426V89.2266H109.674V91.8789H102.592V92.8086H109.879V93.7246H101.307V91.0176H108.375V90.1426H101.279ZM125.943 88.9121V101.162H124.699V94.7773H123.182V100.561H121.951V89.1445H123.182V93.7109H124.699V88.9121H125.943ZM115.812 97.9355V90.293H120.57V97.9355H115.812ZM117.043 96.8965H119.354V91.3184H117.043V96.8965ZM132.055 91.4551C132.048 92.9248 133.258 94.2783 135.158 94.8047L134.543 95.8164C133.107 95.4131 132.014 94.5244 131.446 93.376C130.899 94.6543 129.806 95.6523 128.336 96.1172L127.693 95.0918C129.587 94.5244 130.763 93.041 130.756 91.4551V91.3867H128.035V90.3477H130.756V88.9121H132.068V90.3477H134.762V91.3867H132.055V91.4551ZM129.375 98.8789C129.375 97.4502 130.954 96.623 133.545 96.623C136.115 96.623 137.694 97.4502 137.701 98.8789C137.694 100.321 136.115 101.142 133.545 101.135C130.954 101.142 129.375 100.321 129.375 98.8789ZM130.688 98.8789C130.688 99.6787 131.727 100.13 133.545 100.137C135.356 100.13 136.423 99.6787 136.416 98.8789C136.423 98.0996 135.356 97.6416 133.545 97.6484C131.727 97.6416 130.688 98.0996 130.688 98.8789ZM136.361 96.3906V88.9258H137.66V96.3906H136.361Z" fill="#111111"/>
<path d="M23.9062 128.266C22.9375 128.258 22.1484 127.469 22.1406 126.484C22.1484 125.516 22.9375 124.727 23.9062 124.719C24.8906 124.727 25.6797 125.516 25.6875 126.484C25.6797 127.469 24.8906 128.258 23.9062 128.266Z" fill="#111111"/>
<path d="M46.6094 118.926V127.895H45.3105V118.926H46.6094ZM36.5195 125.133C38.4404 124.422 39.5752 122.658 39.582 120.812V119.596H40.9082V120.812C40.9014 122.604 42.0361 124.244 43.9297 124.9L43.2598 125.939C41.8447 125.413 40.7988 124.374 40.252 123.048C39.7119 124.47 38.6523 125.604 37.2168 126.158L36.5195 125.133ZM38.5977 130.902V127.047H39.9102V129.85H46.9785V130.902H38.5977ZM52.8438 121.523C52.8438 122.966 54.0264 124.312 55.8926 124.832L55.2773 125.844C53.8555 125.44 52.7891 124.565 52.2285 123.431C51.6953 124.695 50.6289 125.7 49.166 126.158L48.5508 125.16C50.4102 124.565 51.5586 123.103 51.5586 121.523V121.373H48.8926V120.334H51.5586V118.857H52.8574V120.334H55.5098V121.373H52.8438V121.523ZM50.5195 128.865C50.5127 127.43 52.0918 126.616 54.6621 126.609C57.2256 126.616 58.7979 127.43 58.8047 128.865C58.7979 130.308 57.2256 131.142 54.6621 131.135C52.0918 131.142 50.5127 130.308 50.5195 128.865ZM51.8047 128.865C51.7979 129.658 52.8643 130.13 54.6621 130.137C56.46 130.13 57.5127 129.658 57.5195 128.865C57.5127 128.072 56.46 127.621 54.6621 127.621C52.8643 127.621 51.7979 128.072 51.8047 128.865ZM55.127 123.41V122.344H57.4648V118.912H58.7637V126.336H57.4648V123.41H55.127ZM65.0664 122.029C65.0664 124.271 66.3242 126.507 68.1973 127.348L67.4043 128.387C66.0166 127.689 64.9639 126.309 64.4238 124.634C63.8838 126.397 62.8174 127.888 61.4023 128.619L60.582 127.566C62.4824 126.657 63.7471 124.299 63.7539 122.029V119.938H65.0664V122.029ZM66.8438 124.039V122.986H69.5781V118.912H70.8633V131.189H69.5781V124.039H66.8438ZM80.4473 121.113C80.4404 122.679 81.5273 124.162 83.4004 124.791L82.7441 125.803C81.3564 125.324 80.3379 124.367 79.8047 123.164C79.2715 124.483 78.2051 125.529 76.7695 126.035L76.0723 125.023C77.9863 124.374 79.1416 122.788 79.1484 121.1V120.771H76.4551V119.719H83.0859V120.771H80.4473V121.113ZM77.6992 127.949V126.896H85.793V131.162H84.4941V127.949H77.6992ZM84.4941 126.295V118.912H85.793V122.057H87.5703V123.15H85.793V126.295H84.4941ZM92.6152 120.744C92.6084 122.46 93.7227 123.991 95.582 124.6L94.8711 125.611C93.5244 125.119 92.5332 124.176 92 122.945C91.4736 124.347 90.4072 125.447 88.9238 125.98L88.2266 124.941C90.1816 124.271 91.3164 122.638 91.3301 120.799V119.596H92.6152V120.744ZM90.2363 128.824C90.2295 127.341 91.8018 126.479 94.3789 126.486C96.9424 126.479 98.5146 127.341 98.5215 128.824C98.5146 130.301 96.9424 131.142 94.3789 131.135C91.8018 131.142 90.2295 130.301 90.2363 128.824ZM91.5215 128.824C91.5146 129.638 92.5811 130.116 94.3789 130.109C96.1631 130.116 97.2295 129.638 97.2363 128.824C97.2295 127.983 96.1631 127.498 94.3789 127.498C92.5811 127.498 91.5146 127.983 91.5215 128.824ZM94.5977 122.467V121.4H97.1816V118.912H98.4805V126.145H97.1816V122.467H94.5977ZM108.598 125.188V126.445H104.209V125.188H108.598ZM123.527 118.912V131.162H122.215V118.912H123.527ZM113.465 127.881C116.719 126.329 118.312 124.121 118.564 121.264H114.053V120.225H119.877C119.877 123.813 118.353 126.917 114.148 128.934L113.465 127.881ZM128.832 119.473C130.445 119.459 131.696 120.396 131.963 121.77H134.355V118.912H135.654V125.488H134.355V122.836H131.97C131.717 124.244 130.459 125.188 128.832 125.188C126.959 125.188 125.612 124.005 125.619 122.316C125.612 120.648 126.959 119.459 128.832 119.473ZM126.863 122.316C126.856 123.362 127.677 124.094 128.832 124.094C129.967 124.094 130.773 123.362 130.773 122.316C130.773 121.264 129.967 120.546 128.832 120.553C127.677 120.546 126.856 121.264 126.863 122.316ZM127.67 131.012V126.076H128.955V127.498H134.355V126.076H135.654V131.012H127.67ZM128.955 129.945H134.355V128.523H128.955V129.945Z" fill="#111111"/>
<path d="M23.9062 149.266C22.9375 149.258 22.1484 148.469 22.1406 147.484C22.1484 146.516 22.9375 145.727 23.9062 145.719C24.8906 145.727 25.6797 146.516 25.6875 147.484C25.6797 148.469 24.8906 149.258 23.9062 149.266Z" fill="#111111"/>
<path d="M46.6641 139.926V148.895H45.3652V144.287H43.0273V143.234H45.3652V139.926H46.6641ZM36.4648 146.338C38.3447 145.702 39.5205 144.089 39.5137 142.4V141.922H36.8613V140.855H43.4648V141.922H40.8398V142.4C40.833 143.925 41.9404 145.463 43.793 146.078L43.123 147.117C41.749 146.639 40.7305 145.654 40.1973 144.438C39.6641 145.791 38.5908 146.871 37.1348 147.391L36.4648 146.338ZM38.707 151.902V148.088H40.0059V150.85H46.9922V151.902H38.707ZM59.748 146.105V147.158H54.8809V149.537H53.5957V147.158H48.5371V146.105H59.748ZM49.9316 151.902V148.375H51.2305V150.85H58.5039V151.902H49.9316ZM49.9727 144.834V140.486H58.2988V144.834H49.9727ZM51.2441 143.809H57.0137V141.512H51.2441V143.809ZM70.1934 139.912V144.793H72.0938V145.873H70.1934V152.148H68.8945V139.912H70.1934ZM60.6641 148.881C63.7334 147.35 65.4014 145.135 65.668 142.277H61.2793V141.197H66.9941C66.9805 144.738 65.4219 147.903 61.3887 149.893L60.6641 148.881ZM86.709 139.912V152.162H85.4648V145.777H83.9473V151.561H82.7168V140.145H83.9473V144.711H85.4648V139.912H86.709ZM76.5781 148.936V141.293H81.3359V148.936H76.5781ZM77.8086 147.896H80.1191V142.318H77.8086V147.896ZM92.8203 142.455C92.8135 143.925 94.0234 145.278 95.9238 145.805L95.3086 146.816C93.873 146.413 92.7793 145.524 92.2119 144.376C91.665 145.654 90.5713 146.652 89.1016 147.117L88.459 146.092C90.3525 145.524 91.5283 144.041 91.5215 142.455V142.387H88.8008V141.348H91.5215V139.912H92.834V141.348H95.5273V142.387H92.8203V142.455ZM90.1406 149.879C90.1406 148.45 91.7197 147.623 94.3105 147.623C96.8809 147.623 98.46 148.45 98.4668 149.879C98.46 151.321 96.8809 152.142 94.3105 152.135C91.7197 152.142 90.1406 151.321 90.1406 149.879ZM91.4531 149.879C91.4531 150.679 92.4922 151.13 94.3105 151.137C96.1221 151.13 97.1885 150.679 97.1816 149.879C97.1885 149.1 96.1221 148.642 94.3105 148.648C92.4922 148.642 91.4531 149.1 91.4531 149.879ZM97.127 147.391V139.926H98.4258V147.391H97.127ZM108.598 146.188V147.445H104.209V146.188H108.598ZM120.656 141.156V142.195H113.355V141.156H116.363V139.857H117.662V141.156H120.656ZM114.025 144.971C114.019 143.631 115.235 142.756 117.006 142.742C118.77 142.756 119.973 143.631 119.973 144.971C119.973 146.317 118.77 147.199 117.006 147.199C115.235 147.199 114.019 146.317 114.025 144.971ZM114.873 149.25V148.197H122.967V152.162H121.668V149.25H114.873ZM115.283 144.971C115.27 145.729 115.967 146.188 117.006 146.188C118.045 146.188 118.742 145.729 118.756 144.971C118.742 144.219 118.045 143.747 117.006 143.74C115.967 143.747 115.27 144.219 115.283 144.971ZM121.668 147.568V139.912H122.967V143.234H124.744V144.314H122.967V147.568H121.668ZM135.395 141.088V142.4C135.381 143.938 135.381 145.552 134.943 147.896L133.672 147.76C134.103 145.545 134.103 143.904 134.096 142.4V142.141H126.59V141.088H135.395ZM125.441 150.508V149.428H128.08V145.463H129.379V149.428H131.143V145.463H132.414V149.428H136.611V150.508H125.441Z" fill="#111111"/>
<rect x="9" width="218" height="52" rx="26" fill="#0E419C"/>
<rect x="14" y="5" width="42" height="42" rx="21" fill="white"/>
<g clip-path="url(#clip0_920_90850)">
<path d="M34.0641 31.8896C33.7729 32.0016 33.7813 32.2816 33.5237 32.234C33.4369 32.22 33.3557 32.1472 33.3221 32.0492C33.2885 31.9484 33.2101 31.7132 32.9497 31.646C32.5801 31.548 31.9725 32.038 31.7177 32.3292C31.3957 31.5844 30.7769 31.2596 30.2477 31.3184C30.0461 31.3408 29.9033 31.5228 29.9257 31.7244C29.9481 31.926 30.1301 32.0716 30.3317 32.0464C30.9057 31.9764 31.1325 32.7884 31.2417 33.312C31.3145 33.6704 31.8157 33.7096 31.9445 33.3624C32.0817 32.99 32.3561 32.6624 32.7033 32.4524C32.8461 32.7128 33.1037 32.9032 33.3977 32.9564C33.7449 33.018 34.1089 32.8836 34.3329 32.612C34.6185 32.7016 34.8873 32.7884 35.1841 32.7744C35.5285 32.7604 35.8701 32.5952 36.1165 32.3208C36.3629 32.0464 36.4945 31.6908 36.4721 31.3464C36.4609 31.1448 36.2817 30.9908 36.0857 31.002C35.8841 31.0132 35.7301 31.1868 35.7413 31.3884C35.7609 31.7048 35.4669 32.0296 35.1505 32.0408C34.7697 32.0576 34.4057 31.758 34.0641 31.8896Z" fill="#114493"/>
<path d="M37.2114 34.3591H29.8614C29.6598 34.3591 29.4946 34.5243 29.4946 34.7259C29.4946 34.9275 29.6598 35.0927 29.8614 35.0927H37.2114C37.413 35.0927 37.5782 34.9275 37.5782 34.7259C37.5782 34.5243 37.413 34.3591 37.2114 34.3591Z" fill="#114493"/>
<path d="M31.8997 21.6501C32.5017 21.6501 32.9889 21.1601 32.9889 20.5609C32.9889 19.9617 32.4989 19.4717 31.8997 19.4717C31.3005 19.4717 30.8105 19.9617 30.8105 20.5609C30.8105 21.1601 31.3005 21.6501 31.8997 21.6501ZM31.8997 20.2053C32.0957 20.2053 32.2581 20.3649 32.2581 20.5637C32.2581 20.7625 32.0985 20.9221 31.8997 20.9221C31.7009 20.9221 31.5413 20.7625 31.5413 20.5637C31.5413 20.3649 31.7009 20.2053 31.8997 20.2053Z" fill="#114493"/>
<path d="M30.3148 24.1924C30.5164 24.1924 30.6816 24.0272 30.6816 23.8256C30.6816 23.1536 31.2276 22.6048 31.9024 22.6048C32.5772 22.6048 33.1232 23.1508 33.1232 23.8256C33.1232 24.0272 33.2884 24.1924 33.49 24.1924C33.6916 24.1924 33.8568 24.0272 33.8568 23.8256C33.8568 22.7504 32.9804 21.874 31.9052 21.874C30.83 21.874 29.9536 22.7504 29.9536 23.8256C29.9536 24.0272 30.1188 24.1924 30.3204 24.1924H30.3148Z" fill="#114493"/>
<path d="M34.9325 24.7302V18.9342C34.9325 18.7326 34.7673 18.5674 34.5657 18.5674H29.2345C29.0329 18.5674 28.8677 18.7326 28.8677 18.9342V24.7302C28.8677 24.9318 29.0329 25.097 29.2345 25.097H34.5629C34.7645 25.097 34.9297 24.9318 34.9297 24.7302H34.9325ZM34.1989 24.3634H29.6013V19.301H34.1989V24.3634Z" fill="#114493"/>
<path d="M36.4776 19.6508H40.9772C41.1788 19.6508 41.344 19.4856 41.344 19.284C41.344 19.0824 41.1788 18.9172 40.9772 18.9172H36.4776C36.276 18.9172 36.1108 19.0824 36.1108 19.284C36.1108 19.4856 36.276 19.6508 36.4776 19.6508Z" fill="#114493"/>
<path d="M36.4776 22.1987H40.9772C41.1788 22.1987 41.344 22.0335 41.344 21.8319C41.344 21.6303 41.1788 21.4651 40.9772 21.4651H36.4776C36.276 21.4651 36.1108 21.6303 36.1108 21.8319C36.1108 22.0335 36.276 22.1987 36.4776 22.1987Z" fill="#114493"/>
<path d="M36.4776 24.7439H40.9772C41.1788 24.7439 41.344 24.5787 41.344 24.3771C41.344 24.1755 41.1788 24.0103 40.9772 24.0103H36.4776C36.276 24.0103 36.1108 24.1755 36.1108 24.3771C36.1108 24.5787 36.276 24.7439 36.4776 24.7439Z" fill="#114493"/>
<path d="M48.8845 24.0749C48.8649 23.9797 48.8061 23.8957 48.7249 23.8453L48.0781 23.4253L48.2461 23.1649C48.7249 22.4285 48.5149 21.4401 47.7785 20.9613L47.4145 20.7261C46.6781 20.2473 45.6925 20.4517 45.2109 21.1937L42.9513 24.6713V16.9181C42.9513 16.7165 42.7861 16.5513 42.5845 16.5513H40.4677V14.7789C40.4677 14.5773 40.3025 14.4121 40.1009 14.4121H25.4737C25.2721 14.4121 25.1069 14.5773 25.1069 14.7789V32.3125C25.1069 32.5141 25.2721 32.6793 25.4737 32.6793H27.2629V37.2237C27.2629 37.4253 27.4281 37.5905 27.6297 37.5905H42.5901C42.7917 37.5905 42.9569 37.4253 42.9569 37.2237V31.0665C42.9569 31.0665 42.9569 31.0609 42.9569 31.0581L45.3789 27.3285C45.3929 27.3285 45.4069 27.3285 45.4209 27.3229C45.5161 27.3033 45.6001 27.2445 45.6505 27.1633L47.6833 24.0357L48.0249 24.2569L46.3393 26.8525C46.2301 27.0233 46.2777 27.2473 46.4457 27.3593C46.6165 27.4685 46.8433 27.4209 46.9525 27.2529L48.8369 24.3521C48.8901 24.2709 48.9069 24.1729 48.8873 24.0777L48.8845 24.0749ZM27.2601 31.9457H25.8377V15.1429H39.7369V16.5485H27.6269C27.4253 16.5485 27.2601 16.7137 27.2601 16.9153V31.9429V31.9457ZM27.9937 36.8541V17.2821H42.2233V25.8557C42.2233 25.9089 42.2345 25.9565 42.2541 26.0013L39.7593 29.8429C39.6697 29.9801 39.6893 30.1537 39.7901 30.2741L37.6649 33.5529C37.5557 33.7237 37.6033 33.9477 37.7713 34.0597L38.2473 34.3677C38.4069 34.4713 38.6225 34.4349 38.7373 34.2809C39.2553 33.5949 40.1401 33.3345 40.2717 33.2981C41.3413 33.1637 41.8593 32.4161 42.0693 31.7749C42.1169 31.8029 42.1673 31.8169 42.2205 31.8225V36.8513H27.9937V36.8541ZM41.4197 31.3633C41.1033 32.8529 40.0869 32.2089 38.7121 33.2785L40.3865 30.6969L41.4197 31.3605V31.3633ZM42.1421 30.9573L40.5685 29.9353L43.1417 25.9733L44.7153 26.9953L42.1421 30.9573ZM45.2333 26.4577C45.1969 26.4325 43.3881 25.2593 43.4245 25.2817L45.8241 21.5885C46.0873 21.1825 46.6249 21.0817 47.0169 21.3365L47.3809 21.5717C47.7785 21.8293 47.8933 22.3641 47.6329 22.7645C46.7677 24.0945 46.1573 25.0381 45.2333 26.4605V26.4577Z" fill="#114493"/>
</g>
<path d="M73.5713 18.7812V29.0938H71.8213V18.7812H73.5713ZM61.8213 25.7656C64.1103 24.9609 65.2822 22.9688 65.2744 20.9375V19.5625H67.0713V20.9375C67.0634 22.9062 68.2197 24.7656 70.4619 25.5156L69.5713 26.8906C67.9619 26.3281 66.8134 25.2031 66.1884 23.7578C65.5634 25.3047 64.3916 26.5391 62.7275 27.1406L61.8213 25.7656ZM64.2275 32.6094V28.1094H65.9775V31.2031H73.9619V32.6094H64.2275ZM80.5519 21.7812C80.5441 23.3281 81.755 24.8516 83.9738 25.4531L83.1613 26.7969C81.5363 26.3516 80.3644 25.4062 79.7159 24.1797C79.0988 25.5625 77.9269 26.6562 76.2394 27.1562L75.4269 25.8125C77.6378 25.1406 78.8175 23.4844 78.8175 21.7812V21.7031H75.8644V20.3281H78.8175V18.7031H80.5675V20.3281H83.505V21.7031H80.5519V21.7812ZM77.7238 30.2188C77.7081 28.5391 79.5519 27.5938 82.5206 27.5938C85.505 27.5938 87.3409 28.5391 87.3488 30.2188C87.3409 31.8984 85.505 32.875 82.5206 32.875C79.5519 32.875 77.7081 31.8984 77.7238 30.2188ZM79.4425 30.2188C79.4347 31.0547 80.5597 31.5312 82.5206 31.5312C84.5206 31.5312 85.6144 31.0547 85.6144 30.2188C85.6144 29.375 84.5206 28.9297 82.5206 28.9219C80.5597 28.9297 79.4347 29.375 79.4425 30.2188ZM83.0831 24.0469V22.6406H85.5675V18.7656H87.3019V27.3125H85.5675V24.0469H83.0831ZM94.3606 22.1562C94.3528 24.7812 95.6106 27.3594 97.8606 28.3438L96.8138 29.7344C95.22 28.9531 94.095 27.4531 93.4934 25.6016C92.8763 27.5547 91.72 29.1797 90.095 30L89.0013 28.5938C91.3059 27.5156 92.5872 24.7969 92.595 22.1562V19.9062H94.3606V22.1562ZM96.2981 24.7344V23.3281H99.2669V18.7656H100.986V32.9062H99.2669V24.7344H96.2981ZM111.509 21.2188C111.509 22.9609 112.627 24.6719 114.853 25.4062L113.978 26.75C112.392 26.2188 111.275 25.1641 110.658 23.8438C110.033 25.2891 108.861 26.4375 107.213 27L106.291 25.6562C108.564 24.8984 109.759 23.0703 109.759 21.2188V21.0469H106.775V19.6562H114.447V21.0469H111.509V21.2188ZM108.181 29.3281V27.9375H117.588V32.8906H115.853V29.3281H108.181ZM115.853 27.2812V18.7656H117.588V22.2969H119.556V23.75H117.588V27.2812H115.853ZM125.287 20.7969C125.279 22.7188 126.404 24.4766 128.615 25.1719L127.678 26.5312C126.138 25.9844 125.06 24.9531 124.459 23.6172C123.834 25.1562 122.654 26.3672 120.943 26.9688L120.021 25.5625C122.357 24.7969 123.529 22.9141 123.537 20.875V19.5312H125.287V20.7969ZM122.365 30.1719C122.349 28.4531 124.185 27.4453 127.162 27.4531C130.154 27.4453 131.982 28.4531 131.99 30.1719C131.982 31.8906 130.154 32.875 127.162 32.875C124.185 32.875 122.349 31.8906 122.365 30.1719ZM124.084 30.1719C124.076 31.0312 125.201 31.5078 127.162 31.5156C129.138 31.5078 130.256 31.0312 130.256 30.1719C130.256 29.2812 129.138 28.8047 127.162 28.7969C125.201 28.8047 124.076 29.2812 124.084 30.1719ZM127.396 22.9219V21.5H130.209V18.7656H131.943V27.0781H130.209V22.9219H127.396ZM142.514 19.6562L138.873 33.2031H137.123L140.779 19.6562H142.514ZM158.459 18.7812V29.0938H156.725V23.9219H154.225V22.5156H156.725V18.7812H158.459ZM146.6 26.0469C148.85 25.3047 150.053 23.4609 150.053 21.5781V21.2031H147.116V19.7969H154.741V21.2031H151.819V21.5938C151.819 23.2891 152.959 25.0469 155.147 25.7656L154.272 27.1562C152.694 26.6172 151.577 25.5391 150.959 24.2031C150.342 25.6875 149.162 26.875 147.491 27.4531L146.6 26.0469ZM149.194 32.6094V28.1875H150.928V31.2031H158.819V32.6094H149.194ZM173.19 25.8281V27.2188H167.737V29.8125H166.018V27.2188H160.284V25.8281H173.19ZM161.846 32.6094V28.5156H163.581V31.2031H171.768V32.6094H161.846ZM161.924 24.5156V19.4062H171.534V24.5156H161.924ZM163.612 23.1562H169.815V20.7656H163.612V23.1562ZM185.03 18.7656V24.2812H187.124V25.7344H185.03V32.8594H183.296V18.7656H185.03ZM173.889 29C177.327 27.2812 179.186 24.8906 179.53 21.6719H174.655V20.2344H181.296C181.288 24.3828 179.569 28.0312 174.874 30.3438L173.889 29ZM199.823 18.7656V32.8906H198.151V25.6562H196.651V32.2031H195.011V19.0156H196.651V24.2188H198.151V18.7656H199.823ZM188.073 29.25V20.2969H193.62V29.25H188.073ZM189.698 27.875H191.995V21.6719H189.698V27.875ZM209.679 20.3438V21.7188H206.663C206.671 23.2891 207.905 24.8203 210.163 25.4219L209.351 26.7656C207.702 26.3359 206.507 25.3672 205.843 24.125C205.21 25.5078 204.007 26.6016 202.319 27.0938L201.476 25.75C203.718 25.0938 204.921 23.4219 204.929 21.7188H201.913V20.3438H204.929V18.7812H206.679V20.3438H209.679ZM203.46 30.2344C203.46 28.5625 205.296 27.5859 208.288 27.5938C211.265 27.5859 213.101 28.5625 213.101 30.2344C213.101 31.9062 211.265 32.875 208.288 32.875C205.296 32.875 203.46 31.9062 203.46 30.2344ZM205.21 30.2344C205.21 31.0781 206.296 31.5312 208.288 31.5312C210.272 31.5312 211.39 31.0781 211.397 30.2344C211.39 29.3984 210.272 28.9375 208.288 28.9375C206.296 28.9375 205.21 29.3984 205.21 30.2344ZM211.319 27.3438V18.7812H213.069V27.3438H211.319Z" fill="white"/>
<path d="M118 219L123.774 209L112.226 209L118 219ZM117 189.033C117 189.586 117.448 190.033 118 190.033C118.552 190.033 119 189.586 119 189.033L117 189.033ZM119 193.167C119 192.614 118.552 192.167 118 192.167C117.448 192.167 117 192.614 117 193.167L119 193.167ZM117 195.233C117 195.786 117.448 196.233 118 196.233C118.552 196.233 119 195.786 119 195.233L117 195.233ZM119 199.367C119 198.814 118.552 198.367 118 198.367C117.448 198.367 117 198.814 117 199.367L119 199.367ZM117 201.433C117 201.986 117.448 202.433 118 202.433C118.552 202.433 119 201.986 119 201.433L117 201.433ZM119 205.567C119 205.014 118.552 204.567 118 204.567C117.448 204.567 117 205.014 117 205.567L119 205.567ZM117 207.633C117 208.186 117.448 208.633 118 208.633C118.552 208.633 119 208.186 119 207.633L117 207.633ZM119 211.767C119 211.214 118.552 210.767 118 210.767C117.448 210.767 117 211.214 117 211.767L119 211.767ZM117 213.833C117 214.386 117.448 214.833 118 214.833C118.552 214.833 119 214.386 119 213.833L117 213.833ZM119 217.967C119 217.414 118.552 216.967 118 216.967C117.448 216.967 117 217.414 117 217.967L119 217.967ZM117 188L117 189.033L119 189.033L119 188L117 188ZM117 193.167L117 195.233L119 195.233L119 193.167L117 193.167ZM117 199.367L117 201.433L119 201.433L119 199.367L117 199.367ZM117 205.567L117 207.633L119 207.633L119 205.567L117 205.567ZM117 211.767L117 213.833L119 213.833L119 211.767L117 211.767Z" fill="#D3D3D3"/>
<rect x="0.5" y="257.5" width="235" height="97" rx="4.5" fill="white"/>
<rect x="0.5" y="257.5" width="235" height="97" rx="4.5" stroke="#114493"/>
<path d="M21.0117 312V302.102H22.5156V310.701H26.9863V312H21.0117ZM30.0352 302.102V312H28.5312V302.102H30.0352ZM40.0293 302.102V312H38.6484L33.6309 304.768H33.5488V312H32.0449V302.102H33.4395L38.457 309.348H38.5527V302.102H40.0293ZM48.752 305.328C48.5127 304.05 47.4531 303.339 46.1953 303.346C44.4863 303.339 43.2217 304.651 43.2148 307.051C43.2217 309.464 44.4932 310.763 46.1953 310.756C47.4395 310.763 48.4922 310.065 48.752 308.801L50.2695 308.814C49.9551 310.77 48.3623 312.137 46.1816 312.137C43.6045 312.137 41.7246 310.216 41.7246 307.051C41.7246 303.886 43.6182 301.965 46.1816 301.965C48.2734 301.965 49.9346 303.202 50.2695 305.328H48.752ZM58.6914 312.137C56.6406 312.137 55.1846 311.036 55.123 309.416H56.6543C56.709 310.284 57.5703 310.838 58.6777 310.838C59.874 310.838 60.7422 310.188 60.7422 309.225C60.7422 308.247 59.9287 307.55 58.5137 307.543H57.666V306.312H58.5137C59.6416 306.319 60.4277 305.69 60.4277 304.74C60.4277 303.838 59.751 303.223 58.7051 303.223C57.7139 303.223 56.8252 303.776 56.791 304.672H55.3418C55.3828 303.059 56.873 301.965 58.7188 301.965C60.667 301.965 61.8906 303.195 61.877 304.658C61.8906 305.786 61.1934 306.593 60.127 306.859V306.928C61.4805 307.119 62.2666 308.028 62.2598 309.279C62.2666 310.927 60.7422 312.137 58.6914 312.137ZM64.584 312.096C64.0508 312.089 63.6064 311.658 63.6133 311.125C63.6064 310.592 64.0508 310.154 64.584 310.154C65.1104 310.154 65.5479 310.592 65.5547 311.125C65.5479 311.658 65.1104 312.089 64.584 312.096ZM70.3809 312.137C68.0908 312.137 66.7441 310.291 66.7441 307.051C66.7441 303.831 68.1045 301.965 70.3809 301.965C72.6504 301.965 74.0107 303.831 74.0176 307.051C74.0107 310.291 72.6709 312.137 70.3809 312.137ZM68.248 307.051C68.2412 309.519 69.041 310.838 70.3809 310.838C71.7139 310.838 72.5137 309.519 72.5137 307.051C72.5137 304.59 71.707 303.243 70.3809 303.236C69.0479 303.243 68.248 304.59 68.248 307.051ZM82.8223 304.029C82.8086 306.196 84.0732 308.418 85.8984 309.307L85.0918 310.346C83.7588 309.648 82.7266 308.281 82.1865 306.647C81.6396 308.384 80.5664 309.854 79.1719 310.578L78.3652 309.525C80.2451 308.623 81.5166 306.271 81.5234 304.029V301.938H82.8223V304.029ZM86.8145 313.162V300.912H88.1133V305.793H90.082V306.9H88.1133V313.162H86.8145ZM94.0605 301.473C95.6738 301.459 96.9248 302.396 97.1914 303.77H99.584V300.912H100.883V307.488H99.584V304.836H97.1982C96.9453 306.244 95.6875 307.188 94.0605 307.188C92.1875 307.188 90.8408 306.005 90.8477 304.316C90.8408 302.648 92.1875 301.459 94.0605 301.473ZM92.0918 304.316C92.085 305.362 92.9053 306.094 94.0605 306.094C95.1953 306.094 96.002 305.362 96.002 304.316C96.002 303.264 95.1953 302.546 94.0605 302.553C92.9053 302.546 92.085 303.264 92.0918 304.316ZM92.8984 313.012V308.076H94.1836V309.498H99.584V308.076H100.883V313.012H92.8984ZM94.1836 311.945H99.584V310.523H94.1836V311.945ZM112.395 300.898V304.453H114.186V305.533H112.395V309.771H111.096V300.898H112.395ZM103.316 307.652V301.951H108.785V303.004H104.602V306.572C106.987 306.579 108.327 306.504 109.865 306.189L110.016 307.242C108.361 307.57 106.912 307.652 104.287 307.652H103.316ZM104.629 312.902V308.855H105.928V311.85H112.914V312.902H104.629ZM124.535 301.623C124.542 303.086 126.497 304.494 128.828 304.781L128.35 305.807C126.395 305.52 124.672 304.556 123.879 303.229C123.1 304.569 121.377 305.52 119.408 305.807L118.902 304.781C121.254 304.494 123.202 303.113 123.209 301.623V301.117H124.535V301.623ZM118.287 307.734V306.695H129.457V307.734H118.287ZM119.613 310.961C119.613 309.546 121.199 308.773 123.865 308.773C126.497 308.773 128.083 309.546 128.09 310.961C128.083 312.362 126.497 313.155 123.865 313.162C121.199 313.155 119.613 312.362 119.613 310.961ZM120.926 310.961C120.919 311.733 121.992 312.15 123.865 312.137C125.711 312.15 126.791 311.733 126.791 310.961C126.791 310.195 125.711 309.771 123.865 309.771C121.992 309.771 120.919 310.195 120.926 310.961ZM140.545 300.926V309.826H139.246V300.926H140.545ZM130.633 304.781C130.64 303.011 132.048 301.753 133.9 301.746C135.746 301.753 137.154 303.011 137.154 304.781C137.154 306.579 135.746 307.83 133.9 307.83C132.048 307.83 130.64 306.579 130.633 304.781ZM131.904 304.781C131.897 305.937 132.759 306.695 133.9 306.695C135.021 306.695 135.883 305.937 135.883 304.781C135.883 303.653 135.021 302.881 133.9 302.881C132.759 302.881 131.897 303.653 131.904 304.781ZM132.533 312.902V308.924H133.846V311.85H140.914V312.902H132.533ZM156.445 302.266V303.332H146.479V302.266H150.84V300.857H152.125V302.266H156.445ZM145.904 309.908V308.842H157.115V309.908H152.125V313.176H150.84V309.908H145.904ZM147.408 306.025C147.401 304.686 148.933 303.954 151.482 303.961C154.025 303.954 155.557 304.686 155.557 306.025C155.557 307.331 154.025 308.069 151.482 308.076C148.933 308.069 147.401 307.331 147.408 306.025ZM148.748 306.025C148.748 306.709 149.726 307.099 151.482 307.092C153.232 307.099 154.21 306.709 154.217 306.025C154.21 305.321 153.232 304.932 151.482 304.932C149.726 304.932 148.748 305.321 148.748 306.025ZM165.906 304.521C165.899 306.456 167.178 308.616 169.037 309.498L168.299 310.51C166.925 309.854 165.831 308.473 165.277 306.873C164.717 308.616 163.568 310.127 162.174 310.824L161.408 309.799C163.268 308.903 164.614 306.593 164.621 304.521V303.223H161.859V302.143H168.572V303.223H165.906V304.521ZM169.885 313.162V300.912H171.184V305.766H173.152V306.859H171.184V313.162H169.885ZM184.938 307.105V308.158H180.07V310.537H178.785V308.158H173.727V307.105H184.938ZM175.121 312.902V309.375H176.42V311.85H183.693V312.902H175.121ZM175.162 305.834V301.486H183.488V305.834H175.162ZM176.434 304.809H182.203V302.512H176.434V304.809ZM195.725 301.691V306.723H189.9V301.691H195.725ZM190.707 312.123C192.936 311.904 194.679 310.79 194.768 309.689H191.199V308.705H194.795V307.557H196.08V308.705H199.689V309.689H196.107C196.196 310.756 197.898 311.877 200.127 312.123L199.689 313.121C197.769 312.889 196.183 312.068 195.444 310.988C194.692 312.082 193.086 312.889 191.158 313.121L190.707 312.123ZM191.172 305.711H194.439V302.73H191.172V305.711ZM198.117 307.912V300.912H199.402V307.912H198.117ZM26.8496 320.883C26.8428 324.13 25.2637 326.488 21.2578 327.814L20.7383 326.789C22.7344 326.14 23.999 325.258 24.7168 324.178L20.9023 324.492L20.6973 323.439L25.1953 323.248C25.3457 322.831 25.4414 322.394 25.4824 321.936H21.3125V320.883H26.8496ZM22.8164 331.902V328.102H24.1289V330.85H31.0059V331.902H22.8164ZM26.8086 324.82V323.754H29.3652V319.926H30.6641V328.99H29.3652V324.82H26.8086ZM42.7637 319.912V326.215H41.4648V323.07H38.8809V322.018H41.4648V319.912H42.7637ZM32.5098 325.23C34.4238 324.622 35.5654 323.098 35.5723 321.375V320.309H36.8574V321.375C36.8574 322.934 37.9785 324.383 39.8242 324.971L39.1406 325.982C37.7939 325.518 36.7754 324.595 36.2354 323.426C35.7021 324.745 34.6562 325.771 33.207 326.27L32.5098 325.23ZM34.752 327.814V326.789H42.7637V329.838H36.0508V330.973H43.1875V332.012H34.7793V328.854H41.4785V327.814H34.752ZM51.2402 320.801V321.84H46.6602V323.193H50.8984V324.219H46.6602V325.613C49.1074 325.627 50.5361 325.586 52.1973 325.299L52.334 326.352C50.5635 326.639 49.0391 326.687 46.3594 326.68H45.3477V320.801H51.2402ZM46.5371 329.879C46.5371 328.45 48.1025 327.623 50.707 327.623C53.2705 327.623 54.8701 328.45 54.877 329.879C54.8701 331.321 53.2705 332.142 50.707 332.135C48.1025 332.142 46.5371 331.321 46.5371 329.879ZM47.8359 329.879C47.8291 330.679 48.8818 331.13 50.707 331.137C52.498 331.13 53.585 330.679 53.5781 329.879C53.585 329.1 52.498 328.642 50.707 328.648C48.8818 328.642 47.8291 329.1 47.8359 329.879ZM53.5098 327.459V319.926H54.8086V327.459H53.5098ZM70.3125 319.912V326.215H69.0273V319.912H70.3125ZM60.209 325.121C62.123 324.485 63.292 322.879 63.2988 321.184V320.24H64.625V321.184C64.6182 322.824 65.7939 324.314 67.6738 324.902L67.0312 325.914C65.6025 325.449 64.5293 324.485 63.9756 323.241C63.4219 324.581 62.3281 325.647 60.8652 326.146L60.209 325.121ZM62.2734 327.828V326.803H70.3262V329.865H63.5723V331H70.7363V332.039H62.3145V328.881H69.041V327.828H62.2734ZM76.7656 323.029C76.752 325.265 78.1055 327.521 80.0059 328.361L79.2266 329.387C77.8184 328.717 76.7041 327.343 76.1299 325.668C75.5625 327.466 74.4346 328.942 72.9648 329.66L72.1719 328.566C74.0996 327.712 75.4531 325.367 75.4531 323.029V320.938H76.7656V323.029ZM81.1133 332.189V319.912H82.4121V332.189H81.1133Z" fill="#111111"/>
<rect x="9" y="231" width="218" height="52" rx="26" fill="#0E419C"/>
<rect x="14" y="236" width="42" height="42" rx="21" fill="white"/>
<g clip-path="url(#clip1_920_90850)">
<path d="M25.5234 257.227L29.561 257.798C29.9474 257.851 30.1378 257.336 29.8046 257.126C29.7486 257.09 28.4802 256.252 28.889 253.805C29.5498 253.696 31.1626 253.251 32.1258 251.476C32.543 252.159 33.327 253.083 34.4946 253.086C34.5254 254.55 34.3546 256.72 33.7246 257.311C33.4586 257.56 33.6826 258.002 34.0382 257.938C37.849 257.16 38.1934 257.384 38.2746 256.927C38.3026 256.776 38.2326 256.625 38.0982 256.546C38.0366 256.51 36.6226 255.65 36.7766 253.458C36.7934 253.343 37.1938 250.591 35.6258 248.754C34.7494 247.726 33.4418 247.197 31.7394 247.186C30.0398 247.197 28.735 247.724 27.8558 248.754C26.2878 250.594 26.6882 253.343 26.7022 253.43C26.8618 255.65 25.445 256.513 25.3862 256.546C25.0866 256.72 25.1734 257.176 25.5178 257.227H25.5234ZM27.433 253.352C27.4302 253.326 27.0662 250.809 28.4186 249.23C29.1522 248.373 30.2722 247.934 31.7422 247.922C35.0126 247.942 36.449 250.23 36.0542 253.38C35.9366 255.037 36.5694 256.076 37.093 256.644L34.7214 257.073C35.3374 255.578 35.231 253.016 35.2142 252.671C35.203 252.45 35.0014 252.29 34.7858 252.33C33.2906 252.593 32.4562 250.521 32.4478 250.501C32.3918 250.361 32.2462 250.266 32.1034 250.269C31.9522 250.269 31.815 250.364 31.7646 250.507C30.8658 252.948 28.6538 253.102 28.5614 253.108C28.3934 253.116 28.2534 253.237 28.2226 253.399C27.867 255.135 28.2366 256.261 28.6594 256.93L26.4278 256.614C26.9458 256.04 27.559 254.998 27.4414 253.349L27.433 253.352Z" fill="#114493"/>
<path d="M34.5561 258.605C34.3937 258.579 34.2425 258.658 34.1697 258.801C33.0945 260.923 30.3841 260.903 29.3201 258.801C29.2473 258.658 29.0933 258.579 28.9337 258.605C26.8309 258.946 23.9945 260.061 23.7061 262.177C23.3533 264.742 22.9697 267.917 23.1545 268.475C23.2049 268.623 23.3449 268.727 23.5017 268.727H39.9825C40.1393 268.727 40.2793 268.626 40.3297 268.475C40.5145 267.92 40.1309 264.742 39.7781 262.177C39.4897 260.055 36.6393 258.946 34.5505 258.605H34.5561ZM23.8321 267.993C23.8265 267.22 24.0561 265.014 24.4341 262.275C24.6665 260.579 27.1445 259.722 28.8049 259.375C30.2021 261.696 33.2905 261.696 34.6905 259.375C36.3509 259.722 38.8261 260.579 39.0613 262.275C39.4365 265.014 39.6661 267.22 39.6605 267.993H23.8321Z" fill="#114493"/>
<path d="M31.7449 265.817C31.3809 265.817 31.0869 266.111 31.0869 266.475C31.0869 266.839 31.3809 267.133 31.7449 267.133C32.1089 267.133 32.4029 266.839 32.4029 266.475C32.4029 266.111 32.1089 265.817 31.7449 265.817Z" fill="#114493"/>
<path d="M31.7449 263.846C31.3809 263.846 31.0869 264.14 31.0869 264.504C31.0869 264.868 31.3809 265.162 31.7449 265.162C32.1089 265.162 32.4029 264.868 32.4029 264.504C32.4029 264.14 32.1089 263.846 31.7449 263.846Z" fill="#114493"/>
<path d="M31.7449 261.875C31.3809 261.875 31.0869 262.169 31.0869 262.533C31.0869 262.897 31.3809 263.191 31.7449 263.191C32.1089 263.191 32.4029 262.897 32.4029 262.533C32.4029 262.169 32.1089 261.875 31.7449 261.875Z" fill="#114493"/>
<path d="M42.2085 245.274C39.6269 245.274 37.5269 247.374 37.5269 249.955C37.5269 250.812 37.7593 251.646 38.1961 252.372L37.9105 254.402C37.8769 254.642 38.0813 254.847 38.3221 254.816L40.9457 254.466C41.3573 254.584 41.7829 254.642 42.2085 254.642C44.7901 254.642 46.8901 252.54 46.8901 249.955C46.8901 247.371 44.7901 245.274 42.2085 245.274ZM42.2085 253.912C41.8249 253.912 41.4469 253.856 41.0801 253.746C41.0297 253.732 40.9737 253.727 40.9233 253.735L38.7029 254.032L38.9409 252.349C38.9521 252.262 38.9325 252.173 38.8849 252.1C38.4761 251.464 38.2577 250.725 38.2577 249.964C38.2577 247.785 40.0301 246.013 42.2085 246.013C44.3869 246.013 46.1593 247.785 46.1593 249.964C46.1593 252.142 44.3869 253.917 42.2085 253.917V253.912Z" fill="#114493"/>
<path d="M44.8067 248.155C44.3951 248.155 44.0619 248.488 44.0619 248.899C44.0619 248.997 44.0815 249.087 44.1151 249.174L43.1967 250.308C43.1547 250.299 43.1127 250.294 43.0707 250.294C43.0287 250.294 42.9895 250.299 42.9503 250.305L42.1439 249.311C42.1663 249.238 42.1831 249.163 42.1831 249.084C42.1831 248.673 41.8499 248.339 41.4383 248.339C41.0267 248.339 40.6935 248.673 40.6935 249.084C40.6935 249.126 40.6991 249.168 40.7075 249.21L39.8619 249.952C39.7835 249.924 39.7023 249.907 39.6183 249.907C39.2067 249.907 38.8735 250.241 38.8735 250.652C38.8735 251.064 39.2067 251.397 39.6183 251.397C40.0299 251.397 40.3631 251.064 40.3631 250.652C40.3631 250.599 40.3575 250.549 40.3463 250.498L41.1695 249.776C41.2535 249.809 41.3431 249.829 41.4383 249.829C41.4971 249.829 41.5531 249.821 41.6063 249.809L42.3791 250.764C42.3455 250.851 42.3259 250.943 42.3259 251.041C42.3259 251.453 42.6591 251.786 43.0707 251.786C43.4823 251.786 43.8155 251.453 43.8155 251.041C43.8155 250.946 43.7959 250.854 43.7623 250.77L44.6835 249.633C44.7227 249.639 44.7647 249.644 44.8067 249.644C45.2183 249.644 45.5515 249.311 45.5515 248.899C45.5515 248.488 45.2183 248.155 44.8067 248.155Z" fill="#114493"/>
</g>
<path d="M73.3897 249.766V263.891H71.6397V249.766H73.3897ZM61.6866 260C65.3897 258.242 67.0928 255.852 67.4053 252.641H62.4053V251.266H69.1709C69.1709 255.469 67.5381 259.039 62.5928 261.391L61.6866 260ZM82.5891 250.219C82.5891 251.727 84.5187 253.102 87.4641 253.422L86.8859 254.734C84.4875 254.461 82.5891 253.508 81.6828 252.133C80.7766 253.508 78.8781 254.461 76.5109 254.734L75.9172 253.422C78.8781 253.102 80.8 251.727 80.8078 250.219V249.844H82.5891V250.219ZM75.2609 256.812V255.438H88.1359V256.812H82.5422V257.906H86.5266V261.406H78.4953V262.438H86.9172V263.766H76.7922V260.156H84.8234V259.234H76.7766V257.906H80.8078V256.812H75.2609ZM93.9916 253.781C93.9837 255.961 95.2962 258.445 97.5228 259.484L96.5541 260.859C94.9603 260.109 93.7806 258.594 93.1478 256.828C92.5072 258.766 91.2728 260.422 89.6478 261.203L88.6322 259.844C90.8822 258.773 92.2494 256.133 92.2572 253.781V252.594H89.1791V251.156H96.9447V252.594H93.9916V253.781ZM98.2572 263.891V249.766H99.9916V255.266H102.163V256.719H99.9916V263.891H98.2572ZM115.488 256.828V258.219H110.035V260.812H108.316V258.219H102.582V256.828H115.488ZM104.144 263.609V259.516H105.878V262.203H114.066V263.609H104.144ZM104.222 255.516V250.406H113.832V255.516H104.222ZM105.91 254.156H112.113V251.766H105.91V254.156ZM127.433 250.641V256.516H120.621V250.641H127.433ZM121.465 262.516C124.176 262.281 125.91 261.078 126.066 259.953H122.043V258.641H126.105V257.406H127.855V258.641H131.933V259.953H127.902C128.058 261.047 129.762 262.242 132.465 262.516L131.871 263.844C129.582 263.602 127.847 262.703 126.988 261.531C126.121 262.719 124.363 263.594 122.058 263.844L121.465 262.516ZM122.34 255.156H125.715V252.016H122.34V255.156ZM129.918 257.812V249.766H131.637V257.812H129.918ZM144.613 250.859C144.613 254.711 142.856 257.406 138.16 258.938L137.488 257.578C139.652 256.875 141.027 255.961 141.832 254.852L137.723 255.188L137.457 253.812L142.488 253.609C142.637 253.188 142.731 252.734 142.777 252.266H138.176V250.859H144.613ZM139.879 263.609V259.188H141.629V262.203H149.41V263.609H139.879ZM144.551 255.547V254.125H147.301V249.781H149.035V260.219H147.301V255.547H144.551ZM162.703 249.766V257H160.969V253.422H158.157V252.031H160.969V249.766H162.703ZM150.797 255.688C153.071 255 154.25 253.258 154.25 251.359V250.234H156V251.359C155.993 253.102 157.133 254.75 159.328 255.422L158.407 256.766C156.875 256.258 155.766 255.258 155.141 253.977C154.532 255.406 153.368 256.531 151.703 257.078L150.797 255.688ZM153.407 258.969V257.609H162.703V261.266H155.125V262.344H163.157V263.719H153.422V259.969H160.985V258.969H153.407ZM172.153 250.781V252.156H167.09V253.5H171.747V254.859H167.09V256.219C169.731 256.227 171.34 256.188 173.2 255.875L173.372 257.25C171.348 257.586 169.575 257.633 166.528 257.625H165.325V250.781H172.153ZM166.715 261.234C166.707 259.562 168.528 258.586 171.543 258.594C174.504 258.586 176.372 259.562 176.372 261.234C176.372 262.906 174.504 263.875 171.543 263.875C168.528 263.875 166.707 262.906 166.715 261.234ZM168.45 261.234C168.434 262.078 169.536 262.531 171.543 262.531C173.504 262.531 174.637 262.078 174.637 261.234C174.637 260.398 173.504 259.938 171.543 259.938C169.536 259.938 168.434 260.398 168.45 261.234ZM174.559 258.391V249.781H176.309V258.391H174.559ZM193.583 249.766V256.969H191.864V249.766H193.583ZM181.833 255.594C184.122 254.867 185.325 253.055 185.317 251.203V250.109H187.114V251.203C187.106 253 188.302 254.68 190.536 255.359L189.692 256.703C188.052 256.195 186.88 255.148 186.239 253.805C185.598 255.266 184.395 256.414 182.708 256.953L181.833 255.594ZM184.239 258.969V257.625H193.614V261.297H185.973V262.391H194.036V263.766H184.27V260H191.88V258.969H184.239ZM200.86 253.156C200.845 255.75 202.212 258.344 204.501 259.328L203.47 260.719C201.845 259.969 200.657 258.477 200.001 256.633C199.353 258.617 198.134 260.242 196.423 261.047L195.36 259.594C197.712 258.578 199.087 255.883 199.095 253.156V250.906H200.86V253.156ZM205.517 263.906V249.766H207.267V263.906H205.517Z" fill="white"/>
<path d="M118 400L123.774 390L112.226 390L118 400ZM117 367.917C117 368.469 117.448 368.917 118 368.917C118.552 368.917 119 368.469 119 367.917L117 367.917ZM119 371.583C119 371.031 118.552 370.583 118 370.583C117.448 370.583 117 371.031 117 371.583L119 371.583ZM117 373.417C117 373.969 117.448 374.417 118 374.417C118.552 374.417 119 373.969 119 373.417L117 373.417ZM119 377.083C119 376.531 118.552 376.083 118 376.083C117.448 376.083 117 376.531 117 377.083L119 377.083ZM117 378.917C117 379.469 117.448 379.917 118 379.917C118.552 379.917 119 379.469 119 378.917L117 378.917ZM119 382.583C119 382.031 118.552 381.583 118 381.583C117.448 381.583 117 382.031 117 382.583L119 382.583ZM117 384.417C117 384.969 117.448 385.417 118 385.417C118.552 385.417 119 384.969 119 384.417L117 384.417ZM119 388.083C119 387.531 118.552 387.083 118 387.083C117.448 387.083 117 387.531 117 388.083L119 388.083ZM117 389.917C117 390.469 117.448 390.917 118 390.917C118.552 390.917 119 390.469 119 389.917L117 389.917ZM119 393.583C119 393.031 118.552 392.583 118 392.583C117.448 392.583 117 393.031 117 393.583L119 393.583ZM117 395.417C117 395.969 117.448 396.417 118 396.417C118.552 396.417 119 395.969 119 395.417L117 395.417ZM119 399.083C119 398.531 118.552 398.083 118 398.083C117.448 398.083 117 398.531 117 399.083L119 399.083ZM117 367L117 367.917L119 367.917L119 367L117 367ZM117 371.583L117 373.417L119 373.417L119 371.583L117 371.583ZM117 377.083L117 378.917L119 378.917L119 377.083L117 377.083ZM117 382.583L117 384.417L119 384.417L119 382.583L117 382.583ZM117 388.083L117 389.917L119 389.917L119 388.083L117 388.083ZM117 393.583L117 395.417L119 395.417L119 393.583L117 393.583Z" fill="#D3D3D3"/>
<rect x="0.5" y="438.5" width="235" height="181" rx="4.5" fill="white"/>
<rect x="0.5" y="438.5" width="235" height="181" rx="4.5" stroke="#114493"/>
<path d="M24.7168 485.521C24.71 487.456 25.9883 489.616 27.8477 490.498L27.1094 491.51C25.7354 490.854 24.6416 489.473 24.0879 487.873C23.5273 489.616 22.3789 491.127 20.9844 491.824L20.2188 490.799C22.0781 489.903 23.4248 487.593 23.4316 485.521V484.223H20.6699V483.143H27.3828V484.223H24.7168V485.521ZM28.6953 494.162V481.912H29.9941V486.766H31.9629V487.859H29.9941V494.162H28.6953ZM43.748 488.105V489.158H38.8809V491.537H37.5957V489.158H32.5371V488.105H43.748ZM33.9316 493.902V490.375H35.2305V492.85H42.5039V493.902H33.9316ZM33.9727 486.834V482.486H42.2988V486.834H33.9727ZM35.2441 485.809H41.0137V483.512H35.2441V485.809ZM54.4668 482.883C54.46 486.13 52.8809 488.488 48.875 489.814L48.3555 488.789C50.3516 488.14 51.6162 487.258 52.334 486.178L48.5195 486.492L48.3145 485.439L52.8125 485.248C52.9629 484.831 53.0586 484.394 53.0996 483.936H48.9297V482.883H54.4668ZM50.4336 493.902V490.102H51.7461V492.85H58.623V493.902H50.4336ZM54.4258 486.82V485.754H56.9824V481.926H58.2812V490.99H56.9824V486.82H54.4258ZM70.3809 481.912V488.215H69.082V485.07H66.498V484.018H69.082V481.912H70.3809ZM60.127 487.23C62.041 486.622 63.1826 485.098 63.1895 483.375V482.309H64.4746V483.375C64.4746 484.934 65.5957 486.383 67.4414 486.971L66.7578 487.982C65.4111 487.518 64.3926 486.595 63.8525 485.426C63.3193 486.745 62.2734 487.771 60.8242 488.27L60.127 487.23ZM62.3691 489.814V488.789H70.3809V491.838H63.668V492.973H70.8047V494.012H62.3965V490.854H69.0957V489.814H62.3691ZM78.8574 482.801V483.84H74.2773V485.193H78.5156V486.219H74.2773V487.613C76.7246 487.627 78.1533 487.586 79.8145 487.299L79.9512 488.352C78.1807 488.639 76.6562 488.687 73.9766 488.68H72.9648V482.801H78.8574ZM74.1543 491.879C74.1543 490.45 75.7197 489.623 78.3242 489.623C80.8877 489.623 82.4873 490.45 82.4941 491.879C82.4873 493.321 80.8877 494.142 78.3242 494.135C75.7197 494.142 74.1543 493.321 74.1543 491.879ZM75.4531 491.879C75.4463 492.679 76.499 493.13 78.3242 493.137C80.1152 493.13 81.2021 492.679 81.1953 491.879C81.2021 491.1 80.1152 490.642 78.3242 490.648C76.499 490.642 75.4463 491.1 75.4531 491.879ZM81.127 489.459V481.926H82.4258V489.459H81.127ZM91.5039 482.459C93.2949 482.459 94.5527 483.443 94.5664 484.906C94.5527 486.15 93.6094 487.06 92.1875 487.285V488.379C93.2676 488.317 94.3613 488.215 95.373 488.064L95.4688 489.021C92.8984 489.486 90.0137 489.534 87.9082 489.527L87.7715 488.475C88.6875 488.481 89.7607 488.475 90.8887 488.434V487.299C89.4258 487.094 88.4482 486.171 88.4551 484.906C88.4482 483.443 89.7061 482.459 91.5039 482.459ZM89.5078 493.902V490.471H90.8066V492.836H97.8613V493.902H89.5078ZM89.6719 484.906C89.6582 485.774 90.4238 486.342 91.5039 486.342C92.5908 486.342 93.3359 485.774 93.3359 484.906C93.3359 484.018 92.5908 483.457 91.5039 483.457C90.4238 483.457 89.6582 484.018 89.6719 484.906ZM96.125 491.291V481.926H97.4238V485.973H99.1738V487.066H97.4238V491.291H96.125ZM111.096 491.605V492.699H99.8848V491.605H102.947V489.445H101.252V485.549H108.443V483.84H101.225V482.773H109.729V486.602H102.537V488.379H110.016V489.445H108.156V491.605H111.096ZM104.205 491.605H106.885V489.445H104.205V491.605ZM125.943 483.266V484.332H115.977V483.266H120.338V481.857H121.623V483.266H125.943ZM115.402 490.908V489.842H126.613V490.908H121.623V494.176H120.338V490.908H115.402ZM116.906 487.025C116.899 485.686 118.431 484.954 120.98 484.961C123.523 484.954 125.055 485.686 125.055 487.025C125.055 488.331 123.523 489.069 120.98 489.076C118.431 489.069 116.899 488.331 116.906 487.025ZM118.246 487.025C118.246 487.709 119.224 488.099 120.98 488.092C122.73 488.099 123.708 487.709 123.715 487.025C123.708 486.321 122.73 485.932 120.98 485.932C119.224 485.932 118.246 486.321 118.246 487.025ZM134.611 482.322C136.457 482.336 137.817 483.464 137.824 485.07C137.817 486.684 136.457 487.805 134.611 487.805C132.745 487.805 131.392 486.684 131.385 485.07C131.392 483.464 132.745 482.336 134.611 482.322ZM132.656 485.07C132.649 486.082 133.483 486.752 134.611 486.752C135.732 486.752 136.566 486.082 136.566 485.07C136.566 484.072 135.732 483.402 134.611 483.416C133.483 483.402 132.649 484.072 132.656 485.07ZM133.244 489.746V488.707H141.297V491.797H134.543V492.973H141.707V494.012H133.285V490.826H140.012V489.746H133.244ZM139.998 488.146V481.912H141.297V488.146H139.998ZM154.408 488.816V489.869H149.432V494.148H148.16V489.869H143.238V488.816H154.408ZM143.867 486.861C146.15 486.547 148.051 485.187 148.092 483.676H144.277V482.637H153.355V483.676H149.568C149.589 485.187 151.476 486.547 153.793 486.861L153.314 487.887C151.305 487.572 149.568 486.581 148.823 485.187C148.071 486.581 146.342 487.572 144.359 487.887L143.867 486.861ZM158.811 482.322C160.656 482.336 162.017 483.464 162.023 485.07C162.017 486.684 160.656 487.805 158.811 487.805C156.944 487.805 155.591 486.684 155.584 485.07C155.591 483.464 156.944 482.336 158.811 482.322ZM156.855 485.07C156.849 486.082 157.683 486.752 158.811 486.752C159.932 486.752 160.766 486.082 160.766 485.07C160.766 484.072 159.932 483.402 158.811 483.416C157.683 483.402 156.849 484.072 156.855 485.07ZM157.443 489.746V488.707H165.496V491.797H158.742V492.973H165.906V494.012H157.484V490.826H164.211V489.746H157.443ZM164.197 488.146V481.912H165.496V488.146H164.197ZM181 481.912V494.189H179.701V481.912H181ZM171.279 487.121C171.279 484.503 172.599 482.835 174.451 482.828C176.27 482.835 177.609 484.503 177.609 487.121C177.609 489.767 176.27 491.435 174.451 491.428C172.599 491.435 171.279 489.767 171.279 487.121ZM172.537 487.121C172.53 489.069 173.31 490.266 174.451 490.266C175.572 490.266 176.352 489.069 176.352 487.121C176.352 485.2 175.572 483.997 174.451 483.99C173.31 483.997 172.53 485.2 172.537 487.121ZM193.441 481.912V494.162H192.197V487.887H190.625V493.533H189.408V482.158H190.625V486.82H192.197V481.912H193.441ZM183.529 491.045V483.361H184.828V489.903C185.956 489.89 187.193 489.801 188.588 489.527L188.725 490.662C187.043 490.963 185.642 491.052 184.322 491.045H183.529ZM208.686 481.912V488.146H207.387V486.971H204.283V485.959H207.387V484.633H204.434C203.675 486.533 201.822 487.791 199.115 488.42L198.664 487.354C201.604 486.704 203.189 485.337 203.401 483.539H199.307V482.473H204.83C204.83 482.869 204.796 483.245 204.728 483.607H207.387V481.912H208.686ZM200.674 489.691V488.666H208.686V491.77H201.986V493H209.055V494.039H200.701V490.785H207.387V489.691H200.674ZM27.2734 502.225V502.977C27.2666 504.009 27.2666 505.588 26.918 507.775L25.6328 507.68C25.9473 505.725 25.9814 504.296 25.9883 503.277H21.0117V502.225H27.2734ZM20.3281 509.471C21.0938 509.464 21.9482 509.457 22.8438 509.437V505.725H24.1289V509.396C25.4277 509.341 26.7607 509.259 27.9844 509.102L28.0527 510.072C25.5029 510.482 22.6523 510.537 20.4785 510.523L20.3281 509.471ZM28.6816 513.162V500.912H29.9941V505.971H31.8672V507.078H29.9941V513.162H28.6816ZM43.7617 510.564V511.645H32.5508V510.564H37.4863V508.049H33.8359V501.746H35.1348V503.852H41.1504V501.746H42.4355V508.049H38.7715V510.564H43.7617ZM35.1348 506.996H41.1504V504.904H35.1348V506.996ZM54.5625 502.088V503.291C54.5557 504.802 54.5557 506.497 54.0977 509.006L52.7852 508.869C53.2568 506.497 53.2568 504.761 53.2637 503.291V503.141H45.8262V502.088H54.5625ZM44.6504 511.508V510.428H48.9023V506.107H50.1875V510.428H55.8203V511.508H44.6504ZM61.166 504.029C61.166 506.271 62.4238 508.507 64.2969 509.348L63.5039 510.387C62.1162 509.689 61.0635 508.309 60.5234 506.634C59.9834 508.397 58.917 509.888 57.502 510.619L56.6816 509.566C58.582 508.657 59.8467 506.299 59.8535 504.029V501.938H61.166V504.029ZM62.9434 506.039V504.986H65.6777V500.912H66.9629V513.189H65.6777V506.039H62.9434ZM82.7812 500.912V513.162H81.5371V500.912H82.7812ZM72.0898 509.785C73.8262 508.739 74.708 506.511 74.7148 504.33V503.346H72.459V502.293H78.0645V503.346H75.959V504.33C75.959 506.422 76.8066 508.521 78.5293 509.512L77.75 510.469C76.5811 509.771 75.7812 508.521 75.3506 507.044C74.9131 508.644 74.0791 510.011 72.8828 510.756L72.0898 509.785ZM77.1621 506.312V505.246H79.0625V501.172H80.293V512.547H79.0625V506.312H77.1621ZM95.5234 506.285V507.256H90.5879V508.281H94.1289V511.043H86.9922V512.055H94.4707V513.039H85.7207V510.141H92.8438V509.225H85.707V508.281H89.3027V507.256H84.3809V506.285H95.5234ZM84.9277 504.822C87.2725 504.692 88.9268 503.975 89.1934 502.936H85.4883V501.938H89.3027V500.857H90.5879V501.938H94.416V502.936H90.6904C90.9502 503.975 92.6045 504.692 94.9766 504.822L94.5801 505.807C92.4473 505.649 90.7109 505.027 89.9453 503.954C89.1797 505.027 87.4434 505.649 85.2969 505.807L84.9277 504.822ZM97.3281 507.898C97.3281 505.472 97.9775 503.455 99.2012 501.732H100.541C99.5908 503.004 98.8389 505.602 98.832 507.898C98.8389 510.195 99.5908 512.786 100.541 514.064H99.2012C97.9775 512.342 97.3281 510.325 97.3281 507.898ZM105.736 504.521C105.729 506.456 107.008 508.616 108.867 509.498L108.129 510.51C106.755 509.854 105.661 508.473 105.107 506.873C104.547 508.616 103.398 510.127 102.004 510.824L101.238 509.799C103.098 508.903 104.444 506.593 104.451 504.521V503.223H101.689V502.143H108.402V503.223H105.736V504.521ZM109.715 513.162V500.912H111.014V505.766H112.982V506.859H111.014V513.162H109.715ZM124.768 507.105V508.158H119.9V510.537H118.615V508.158H113.557V507.105H124.768ZM114.951 512.902V509.375H116.25V511.85H123.523V512.902H114.951ZM114.992 505.834V501.486H123.318V505.834H114.992ZM116.264 504.809H122.033V502.512H116.264V504.809ZM131.248 501.117C134.01 501.11 135.616 501.855 135.623 503.223C135.616 504.597 134.01 505.342 131.248 505.342C128.486 505.342 126.866 504.597 126.873 503.223C126.866 501.855 128.486 501.11 131.248 501.117ZM125.67 507.133V506.094H136.84V507.133H125.67ZM127.01 509.047V508.076H135.432V510.947H128.295V512.041H135.773V513.039H127.023V510.004H134.146V509.047H127.01ZM128.227 503.223C128.22 503.981 129.3 504.371 131.248 504.371C133.21 504.371 134.29 503.981 134.283 503.223C134.29 502.498 133.21 502.074 131.248 502.074C129.3 502.074 128.22 502.498 128.227 503.223ZM145.207 501.473C147.053 501.466 148.386 502.498 148.393 504.016C148.386 505.52 147.053 506.559 145.207 506.545C143.368 506.559 142.042 505.52 142.049 504.016C142.042 502.498 143.368 501.466 145.207 501.473ZM141.174 507.502C143.437 507.502 146.561 507.454 149.24 507.051L149.336 508.021C148.215 508.233 147.06 508.363 145.932 508.438V512.779H144.633V508.514C143.443 508.568 142.322 508.575 141.352 508.582L141.174 507.502ZM143.307 504.016C143.293 504.904 144.093 505.492 145.207 505.479C146.349 505.492 147.148 504.904 147.148 504.016C147.148 503.12 146.349 502.519 145.207 502.525C144.093 502.519 143.293 503.12 143.307 504.016ZM150.088 513.162V500.926H151.373V513.162H150.088ZM159.344 502.936V503.988H153.26V502.936H155.666V501.268H156.951V502.936H159.344ZM153.656 507.543C153.649 505.896 154.771 504.727 156.309 504.727C157.86 504.727 158.968 505.896 158.975 507.543C158.968 509.218 157.86 510.394 156.309 510.387C154.771 510.394 153.649 509.218 153.656 507.543ZM154.805 507.543C154.798 508.582 155.427 509.279 156.309 509.279C157.19 509.279 157.826 508.582 157.826 507.543C157.826 506.524 157.19 505.813 156.309 505.807C155.427 505.813 154.798 506.524 154.805 507.543ZM159.904 512.588V501.186H161.135V506.012H162.543V500.912H163.773V513.162H162.543V507.078H161.135V512.588H159.904ZM179.346 500.912V513.162H178.102V506.777H176.584V512.561H175.354V501.145H176.584V505.711H178.102V500.912H179.346ZM169.215 509.936V502.293H173.973V509.936H169.215ZM170.445 508.896H172.756V503.318H170.445V508.896ZM185.457 503.455C185.45 504.925 186.66 506.278 188.561 506.805L187.945 507.816C186.51 507.413 185.416 506.524 184.849 505.376C184.302 506.654 183.208 507.652 181.738 508.117L181.096 507.092C182.989 506.524 184.165 505.041 184.158 503.455V503.387H181.438V502.348H184.158V500.912H185.471V502.348H188.164V503.387H185.457V503.455ZM182.777 510.879C182.777 509.45 184.356 508.623 186.947 508.623C189.518 508.623 191.097 509.45 191.104 510.879C191.097 512.321 189.518 513.142 186.947 513.135C184.356 513.142 182.777 512.321 182.777 510.879ZM184.09 510.879C184.09 511.679 185.129 512.13 186.947 512.137C188.759 512.13 189.825 511.679 189.818 510.879C189.825 510.1 188.759 509.642 186.947 509.648C185.129 509.642 184.09 510.1 184.09 510.879ZM189.764 508.391V500.926H191.062V508.391H189.764ZM200.141 504.836V505.889H197.748V507.44C198.835 507.386 199.915 507.311 200.92 507.201L201.016 508.158C198.404 508.514 195.54 508.589 193.236 508.582L193.059 507.543C194.104 507.536 195.267 507.522 196.463 507.488V505.889H194.152V501.691H200.031V502.744H195.451V504.836H200.141ZM195.082 512.902V509.443H196.381V511.85H203.545V512.902H195.082ZM201.863 510.1V500.912H203.162V510.1H201.863ZM30.6641 519.926V528.895H29.3652V524.287H27.0273V523.234H29.3652V519.926H30.6641ZM20.4648 526.338C22.3447 525.702 23.5205 524.089 23.5137 522.4V521.922H20.8613V520.855H27.4648V521.922H24.8398V522.4C24.833 523.925 25.9404 525.463 27.793 526.078L27.123 527.117C25.749 526.639 24.7305 525.654 24.1973 524.438C23.6641 525.791 22.5908 526.871 21.1348 527.391L20.4648 526.338ZM22.707 531.902V528.088H24.0059V530.85H30.9922V531.902H22.707ZM43.748 526.105V527.158H38.8809V529.537H37.5957V527.158H32.5371V526.105H43.748ZM33.9316 531.902V528.375H35.2305V530.85H42.5039V531.902H33.9316ZM33.9727 524.834V520.486H42.2988V524.834H33.9727ZM35.2441 523.809H41.0137V521.512H35.2441V523.809ZM54.1934 519.912V524.793H56.0938V525.873H54.1934V532.148H52.8945V519.912H54.1934ZM44.6641 528.881C47.7334 527.35 49.4014 525.135 49.668 522.277H45.2793V521.197H50.9941C50.9805 524.738 49.4219 527.903 45.3887 529.893L44.6641 528.881ZM66.293 519.912V524.793H68.1934V525.873H66.293V532.148H64.9941V519.912H66.293ZM56.7637 528.881C59.833 527.35 61.501 525.135 61.7676 522.277H57.3789V521.197H63.0938C63.0801 524.738 61.5215 527.903 57.4883 529.893L56.7637 528.881ZM76.5469 522.113C76.54 523.679 77.627 525.162 79.5 525.791L78.8438 526.803C77.4561 526.324 76.4375 525.367 75.9043 524.164C75.3711 525.483 74.3047 526.529 72.8691 527.035L72.1719 526.023C74.0859 525.374 75.2412 523.788 75.248 522.1V521.771H72.5547V520.719H79.1855V521.771H76.5469V522.113ZM73.7988 528.949V527.896H81.8926V532.162H80.5938V528.949H73.7988ZM80.5938 527.295V519.912H81.8926V523.057H83.6699V524.15H81.8926V527.295H80.5938ZM88.7148 521.744C88.708 523.46 89.8223 524.991 91.6816 525.6L90.9707 526.611C89.624 526.119 88.6328 525.176 88.0996 523.945C87.5732 525.347 86.5068 526.447 85.0234 526.98L84.3262 525.941C86.2812 525.271 87.416 523.638 87.4297 521.799V520.596H88.7148V521.744ZM86.3359 529.824C86.3291 528.341 87.9014 527.479 90.4785 527.486C93.042 527.479 94.6143 528.341 94.6211 529.824C94.6143 531.301 93.042 532.142 90.4785 532.135C87.9014 532.142 86.3291 531.301 86.3359 529.824ZM87.6211 529.824C87.6143 530.638 88.6807 531.116 90.4785 531.109C92.2627 531.116 93.3291 530.638 93.3359 529.824C93.3291 528.983 92.2627 528.498 90.4785 528.498C88.6807 528.498 87.6143 528.983 87.6211 529.824ZM90.6973 523.467V522.4H93.2812V519.912H94.5801V527.145H93.2812V523.467H90.6973ZM99.707 526.898C99.707 529.325 99.0576 531.342 97.834 533.064H96.4941C97.4443 531.793 98.1963 529.195 98.2031 526.898C98.1963 524.602 97.4443 522.011 96.4941 520.732H97.834C99.0576 522.455 99.707 524.472 99.707 526.898Z" fill="#111111"/>
<path d="M30.6367 546.912V553.242H29.3242V546.912H30.6367ZM20.6562 551.834C21.1211 551.834 21.627 551.827 22.1465 551.82V548.744H20.9844V547.719H27.6426V548.744H26.4668V551.643C27.0615 551.602 27.6494 551.547 28.2031 551.479L28.2578 552.422C25.8105 552.791 22.96 552.88 20.8066 552.873L20.6562 551.834ZM22.502 554.828V553.803H30.6367V556.838H23.8145V558H31.0605V559.039H22.543V555.895H29.3516V554.828H22.502ZM23.3906 551.793C23.9922 551.772 24.6074 551.752 25.2227 551.718V548.744H23.3906V551.793ZM38.8262 547.992C38.8193 549.619 40.8086 551.144 43.2148 551.465L42.709 552.531C40.7061 552.21 38.9492 551.171 38.1494 549.729C37.3496 551.171 35.5928 552.21 33.6035 552.531L33.084 551.465C35.4834 551.144 37.4658 549.64 37.4727 547.992V547.322H38.8262V547.992ZM32.5508 554.801V553.734H43.7207V554.801H38.7441V559.162H37.4727V554.801H32.5508ZM48.9434 549.51C48.9434 550.959 50.126 552.244 51.9922 552.764L51.3906 553.789C49.9551 553.379 48.875 552.511 48.3145 551.383C47.7812 552.606 46.708 553.563 45.252 554.021L44.623 552.996C46.4961 552.456 47.6582 551.055 47.6582 549.51V549.318H44.9922V548.279H47.6582V546.857H48.957V548.279H51.6094V549.318H48.9434V549.51ZM46.7832 559.012V554.732H54.8633V559.012H46.7832ZM48.0684 557.959H53.5918V555.785H48.0684V557.959ZM51.2676 551.342V550.275H53.5645V546.912H54.8633V554.145H53.5645V551.342H51.2676ZM67.9473 554.117V555.143H62.9434V559.162H61.6719V555.143H56.7363V554.117H67.9473ZM58.1309 552.723V547.404H59.416V549.004H65.2402V547.404H66.5391V552.723H58.1309ZM59.416 551.684H65.2402V550.043H59.416V551.684ZM76.6836 550.029C76.6836 552.271 77.9414 554.507 79.8145 555.348L79.0215 556.387C77.6338 555.689 76.5811 554.309 76.041 552.634C75.501 554.397 74.4346 555.888 73.0195 556.619L72.1992 555.566C74.0996 554.657 75.3643 552.299 75.3711 550.029V547.938H76.6836V550.029ZM78.4609 552.039V550.986H81.1953V546.912H82.4805V559.189H81.1953V552.039H78.4609ZM95.5645 554.186V555.211H92.748V559.162H91.4355V555.211H88.4824V559.162H87.1836V555.211H84.3535V554.186H95.5645ZM85.6797 548.416V547.35H94.2383V550.631H87.0195V551.984H94.498V553.037H85.7207V549.66H92.9121V548.416H85.6797ZM101.279 558.096C100.746 558.089 100.302 557.658 100.309 557.125C100.302 556.592 100.746 556.154 101.279 556.154C101.806 556.154 102.243 556.592 102.25 557.125C102.243 557.658 101.806 558.089 101.279 558.096ZM100.322 551.725C100.315 551.191 100.76 550.754 101.293 550.754C101.819 550.754 102.257 551.191 102.264 551.725C102.257 552.258 101.819 552.688 101.293 552.695C100.76 552.688 100.315 552.258 100.322 551.725ZM111.479 550.521C111.472 552.456 112.75 554.616 114.609 555.498L113.871 556.51C112.497 555.854 111.403 554.473 110.85 552.873C110.289 554.616 109.141 556.127 107.746 556.824L106.98 555.799C108.84 554.903 110.187 552.593 110.193 550.521V549.223H107.432V548.143H114.145V549.223H111.479V550.521ZM115.457 559.162V546.912H116.756V551.766H118.725V552.859H116.756V559.162H115.457ZM130.51 553.105V554.158H125.643V556.537H124.357V554.158H119.299V553.105H130.51ZM120.693 558.902V555.375H121.992V557.85H129.266V558.902H120.693ZM120.734 551.834V547.486H129.061V551.834H120.734ZM122.006 550.809H127.775V548.512H122.006V550.809ZM135.678 550.521C135.671 552.456 136.949 554.616 138.809 555.498L138.07 556.51C136.696 555.854 135.603 554.473 135.049 552.873C134.488 554.616 133.34 556.127 131.945 556.824L131.18 555.799C133.039 554.903 134.386 552.593 134.393 550.521V549.223H131.631V548.143H138.344V549.223H135.678V550.521ZM139.656 559.162V546.912H140.955V551.766H142.924V552.859H140.955V559.162H139.656ZM154.723 556.605V557.699H143.512V556.605H146.574V554.445H144.879V550.549H152.07V548.84H144.852V547.773H153.355V551.602H146.164V553.379H153.643V554.445H151.783V556.605H154.723ZM147.832 556.605H150.512V554.445H147.832V556.605ZM157.812 557.057L156.719 560.83H155.557L156.281 557.057H157.812ZM173.098 546.912V559.162H171.854V552.805H170.336V558.574H169.119V547.24H170.336V551.752H171.854V546.912H173.098ZM162.57 555.662C165.291 554.117 166.433 552.032 166.638 549.537H163.09V548.471H167.902C167.896 551.69 166.829 554.589 163.322 556.564L162.57 555.662ZM184.869 546.926V555.826H183.57V546.926H184.869ZM174.957 550.781C174.964 549.011 176.372 547.753 178.225 547.746C180.07 547.753 181.479 549.011 181.479 550.781C181.479 552.579 180.07 553.83 178.225 553.83C176.372 553.83 174.964 552.579 174.957 550.781ZM176.229 550.781C176.222 551.937 177.083 552.695 178.225 552.695C179.346 552.695 180.207 551.937 180.207 550.781C180.207 549.653 179.346 548.881 178.225 548.881C177.083 548.881 176.222 549.653 176.229 550.781ZM176.857 558.902V554.924H178.17V557.85H185.238V558.902H176.857ZM197.023 546.912V554.199H195.725V551.096H193.441V550.029H195.725V546.912H197.023ZM186.811 553.092C188.711 552.429 189.88 550.774 189.873 549.086V548.812H187.221V547.76H193.824V548.812H191.199V549.072C191.192 550.624 192.3 552.135 194.152 552.764L193.482 553.789C192.108 553.317 191.097 552.333 190.563 551.123C190.03 552.49 188.957 553.591 187.494 554.131L186.811 553.092ZM188.779 556.852C188.772 555.396 190.345 554.548 192.922 554.541C195.485 554.548 197.058 555.396 197.064 556.852C197.058 558.308 195.485 559.155 192.922 559.162C190.345 559.155 188.772 558.308 188.779 556.852ZM190.064 556.852C190.058 557.679 191.124 558.15 192.922 558.137C194.706 558.15 195.772 557.679 195.779 556.852C195.772 556.018 194.706 555.546 192.922 555.553C191.124 555.546 190.058 556.018 190.064 556.852ZM210.121 556.564V557.645H198.91V556.564H203.846V554.049H200.195V547.746H201.494V549.852H207.51V547.746H208.795V554.049H205.131V556.564H210.121ZM201.494 552.996H207.51V550.904H201.494V552.996ZM26.7266 566.992C26.7197 568.619 28.709 570.144 31.1152 570.465L30.6094 571.531C28.6064 571.21 26.8496 570.171 26.0498 568.729C25.25 570.171 23.4932 571.21 21.5039 571.531L20.9844 570.465C23.3838 570.144 25.3662 568.64 25.373 566.992V566.322H26.7266V566.992ZM20.4512 573.801V572.734H31.6211V573.801H26.6445V578.162H25.373V573.801H20.4512ZM37.0898 567.867C37.0898 569.392 38.2793 570.8 40.166 571.354L39.5098 572.365C38.0811 571.928 37.001 570.998 36.4404 569.795C35.8936 571.087 34.7998 572.099 33.3301 572.584L32.6738 571.559C34.5811 570.978 35.7705 569.474 35.7773 567.867V567.73H33.0293V566.678H39.7832V567.73H37.0898V567.867ZM34.6973 578.012V573.117H35.9688V574.484H41.4238V573.117H42.709V578.012H34.6973ZM35.9688 576.959H41.4238V575.51H35.9688V576.959ZM41.4102 572.543V565.912H42.709V572.543H41.4102ZM58.2129 565.912V578.189H56.9141V565.912H58.2129ZM48.4922 571.121C48.4922 568.503 49.8115 566.835 51.6641 566.828C53.4824 566.835 54.8223 568.503 54.8223 571.121C54.8223 573.767 53.4824 575.435 51.6641 575.428C49.8115 575.435 48.4922 573.767 48.4922 571.121ZM49.75 571.121C49.7432 573.069 50.5225 574.266 51.6641 574.266C52.7852 574.266 53.5645 573.069 53.5645 571.121C53.5645 569.2 52.7852 567.997 51.6641 567.99C50.5225 567.997 49.7432 569.2 49.75 571.121ZM71.3379 571.887V572.939H60.168V571.887H62.8477V570.239C61.8975 569.856 61.3643 569.241 61.3711 568.428C61.3643 566.972 63.0527 566.124 65.7461 566.131C68.4326 566.124 70.1143 566.972 70.1211 568.428C70.1143 569.241 69.5811 569.856 68.6309 570.246V571.887H71.3379ZM61.4941 575.947C61.4941 574.546 63.0801 573.773 65.7461 573.773C68.3779 573.773 69.9639 574.546 69.9707 575.947C69.9639 577.362 68.3779 578.135 65.7461 578.135C63.0801 578.135 61.4941 577.362 61.4941 575.947ZM62.7109 568.428C62.7041 569.248 63.8389 569.706 65.7461 569.713C67.6396 569.706 68.7881 569.248 68.7812 568.428C68.7881 567.607 67.6396 567.136 65.7461 567.129C63.8389 567.136 62.7041 567.607 62.7109 568.428ZM62.8066 575.947C62.7998 576.713 63.873 577.15 65.7461 577.137C67.5918 577.15 68.6719 576.713 68.6719 575.947C68.6719 575.195 67.5918 574.771 65.7461 574.771C63.873 574.771 62.7998 575.195 62.8066 575.947ZM64.1602 571.887H67.3457V570.581C66.8672 570.656 66.3271 570.697 65.7461 570.697C65.1719 570.697 64.6387 570.656 64.1602 570.588V571.887ZM86.8691 571.873V572.912H75.6855V571.873H80.6484V570.574H77.0801V566.473H85.4883V567.498H78.3652V569.535H85.5703V570.574H81.9062V571.873H86.8691ZM77.0117 575.934C77.0117 574.512 78.6045 573.712 81.2637 573.705C83.9023 573.712 85.4814 574.512 85.4883 575.934C85.4814 577.355 83.9023 578.155 81.2637 578.162C78.6045 578.155 77.0117 577.355 77.0117 575.934ZM78.3242 575.934C78.3174 576.72 79.3906 577.15 81.2637 577.137C83.1094 577.15 84.1895 576.72 84.1895 575.934C84.1895 575.161 83.1094 574.717 81.2637 574.717C79.3906 574.717 78.3174 575.161 78.3242 575.934ZM91.7773 566.787C93.7119 566.78 95.1064 567.977 95.1133 569.699C95.1064 571.422 93.7119 572.618 91.7773 572.625C89.8496 572.618 88.4346 571.422 88.4414 569.699C88.4346 567.977 89.8496 566.78 91.7773 566.787ZM87.8535 574.471C90.082 574.471 93.1719 574.45 95.8516 574.061L95.9473 575.004C93.1787 575.537 90.2051 575.551 88.0176 575.551L87.8535 574.471ZM89.7266 569.699C89.7129 570.786 90.5879 571.49 91.7773 571.49C92.9668 571.49 93.8418 570.786 93.8418 569.699C93.8418 568.626 92.9668 567.908 91.7773 567.908C90.5879 567.908 89.7129 568.626 89.7266 569.699ZM96.6172 578.189V565.912H97.916V578.189H96.6172ZM104.301 569.029C104.301 571.271 105.559 573.507 107.432 574.348L106.639 575.387C105.251 574.689 104.198 573.309 103.658 571.634C103.118 573.397 102.052 574.888 100.637 575.619L99.8164 574.566C101.717 573.657 102.981 571.299 102.988 569.029V566.938H104.301V569.029ZM106.078 571.039V569.986H108.812V565.912H110.098V578.189H108.812V571.039H106.078ZM114.186 576.057L113.092 579.83H111.93L112.654 576.057H114.186ZM130.523 571.285V572.256H125.588V573.281H129.129V576.043H121.992V577.055H129.471V578.039H120.721V575.141H127.844V574.225H120.707V573.281H124.303V572.256H119.381V571.285H130.523ZM119.928 569.822C122.272 569.692 123.927 568.975 124.193 567.936H120.488V566.938H124.303V565.857H125.588V566.938H129.416V567.936H125.69C125.95 568.975 127.604 569.692 129.977 569.822L129.58 570.807C127.447 570.649 125.711 570.027 124.945 568.954C124.18 570.027 122.443 570.649 120.297 570.807L119.928 569.822ZM135.746 568.168C135.739 569.727 136.826 571.148 138.686 571.736L138.07 572.748C136.676 572.304 135.657 571.381 135.117 570.219C134.584 571.559 133.511 572.618 132.041 573.131L131.371 572.092C133.285 571.463 134.44 569.884 134.447 568.182V567.84H131.754V566.787H138.385V567.84H135.746V568.168ZM133.025 575.838C133.025 574.402 134.591 573.562 137.141 573.568C139.663 573.562 141.201 574.402 141.201 575.838C141.201 577.294 139.663 578.142 137.141 578.135C134.591 578.142 133.025 577.294 133.025 575.838ZM134.324 575.838C134.317 576.658 135.37 577.116 137.141 577.109C138.897 577.116 139.937 576.658 139.93 575.838C139.937 575.038 138.897 574.587 137.141 574.594C135.37 574.587 134.317 575.038 134.324 575.838ZM139.793 573.268V565.912H141.092V568.947H142.869V570.014H141.092V573.268H139.793ZM153.725 565.926V574.895H152.426V565.926H153.725ZM143.635 572.133C145.556 571.422 146.69 569.658 146.697 567.812V566.596H148.023V567.812C148.017 569.604 149.151 571.244 151.045 571.9L150.375 572.939C148.96 572.413 147.914 571.374 147.367 570.048C146.827 571.47 145.768 572.604 144.332 573.158L143.635 572.133ZM145.713 577.902V574.047H147.025V576.85H154.094V577.902H145.713ZM159.959 568.523C159.959 569.966 161.142 571.312 163.008 571.832L162.393 572.844C160.971 572.44 159.904 571.565 159.344 570.431C158.811 571.695 157.744 572.7 156.281 573.158L155.666 572.16C157.525 571.565 158.674 570.103 158.674 568.523V568.373H156.008V567.334H158.674V565.857H159.973V567.334H162.625V568.373H159.959V568.523ZM157.635 575.865C157.628 574.43 159.207 573.616 161.777 573.609C164.341 573.616 165.913 574.43 165.92 575.865C165.913 577.308 164.341 578.142 161.777 578.135C159.207 578.142 157.628 577.308 157.635 575.865ZM158.92 575.865C158.913 576.658 159.979 577.13 161.777 577.137C163.575 577.13 164.628 576.658 164.635 575.865C164.628 575.072 163.575 574.621 161.777 574.621C159.979 574.621 158.913 575.072 158.92 575.865ZM162.242 570.41V569.344H164.58V565.912H165.879V573.336H164.58V570.41H162.242ZM172.182 569.029C172.182 571.271 173.439 573.507 175.312 574.348L174.52 575.387C173.132 574.689 172.079 573.309 171.539 571.634C170.999 573.397 169.933 574.888 168.518 575.619L167.697 574.566C169.598 573.657 170.862 571.299 170.869 569.029V566.938H172.182V569.029ZM173.959 571.039V569.986H176.693V565.912H177.979V578.189H176.693V571.039H173.959ZM189.75 566.691V571.723H183.926V566.691H189.75ZM184.732 577.123C186.961 576.904 188.704 575.79 188.793 574.689H185.225V573.705H188.82V572.557H190.105V573.705H193.715V574.689H190.133C190.222 575.756 191.924 576.877 194.152 577.123L193.715 578.121C191.794 577.889 190.208 577.068 189.47 575.988C188.718 577.082 187.111 577.889 185.184 578.121L184.732 577.123ZM185.197 570.711H188.465V567.73H185.197V570.711ZM192.143 572.912V565.912H193.428V572.912H192.143ZM209.971 572.16V573.213H198.801V572.16H203.736V570.834H200.264V566.199H201.549V567.525H207.223V566.199H208.521V570.834H205.021V572.16H209.971ZM200.045 575.346V574.307H208.604V578.162H207.291V575.346H200.045ZM201.549 569.795H207.223V568.496H201.549V569.795ZM30.6641 584.912V592.145H29.3652V590.326H26.6992V591.324H21.0117V585.828H26.6992V586.84H29.3652V584.912H30.6641ZM22.2969 590.285H25.4277V586.867H22.2969V590.285ZM22.4199 594.824C22.4131 593.341 23.9854 592.479 26.5625 592.486C29.126 592.479 30.6982 593.341 30.7051 594.824C30.6982 596.301 29.126 597.142 26.5625 597.135C23.9854 597.142 22.4131 596.301 22.4199 594.824ZM23.7051 594.824C23.6982 595.645 24.7646 596.13 26.5625 596.137C28.3467 596.13 29.4131 595.645 29.4199 594.824C29.4131 593.963 28.3467 593.491 26.5625 593.484C24.7646 593.491 23.6982 593.963 23.7051 594.824ZM26.6992 589.273H29.3652V587.879H26.6992V589.273ZM36.9668 588.029C36.9668 590.271 38.2246 592.507 40.0977 593.348L39.3047 594.387C37.917 593.689 36.8643 592.309 36.3242 590.634C35.7842 592.397 34.7178 593.888 33.3027 594.619L32.4824 593.566C34.3828 592.657 35.6475 590.299 35.6543 588.029V585.938H36.9668V588.029ZM38.7441 590.039V588.986H41.4785V584.912H42.7637V597.189H41.4785V590.039H38.7441ZM52.3203 588.029C52.3066 590.196 53.5713 592.418 55.3965 593.307L54.5898 594.346C53.2568 593.648 52.2246 592.281 51.6846 590.647C51.1377 592.384 50.0645 593.854 48.6699 594.578L47.8633 593.525C49.7432 592.623 51.0146 590.271 51.0215 588.029V585.938H52.3203V588.029ZM56.3125 597.162V584.912H57.6113V589.793H59.5801V590.9H57.6113V597.162H56.3125ZM62.916 585.377V586.826H68.5898V585.377H69.8887V590.326H66.3887V591.529H71.3379V592.596H60.168V591.529H65.1035V590.326H61.6309V585.377H62.916ZM61.5762 596.902V593.471H62.8887V595.85H70.0801V596.902H61.5762ZM62.916 589.273H68.5898V587.838H62.916V589.273ZM74.4688 595.057L73.375 598.83H72.2129L72.9375 595.057H74.4688ZM89.8633 584.926V594.264H88.5645V591.734H86.5957V590.695H88.5645V589.178H86.5957V588.111H88.5645V584.926H89.8633ZM79.6641 587.4V586.348H82.5352V584.912H83.8203V586.348H86.5547V587.4H79.6641ZM80.3477 590.34C80.3477 588.938 81.5098 587.981 83.1641 587.988C84.8115 587.981 85.9873 588.938 85.9941 590.34C85.9873 591.748 84.8115 592.705 83.1641 592.705C81.5098 592.705 80.3477 591.748 80.3477 590.34ZM81.5645 590.34C81.5576 591.174 82.2139 591.693 83.1641 591.693C84.1006 591.693 84.7637 591.174 84.7773 590.34C84.7637 589.533 84.1006 589.014 83.1641 589C82.2139 589.014 81.5576 589.533 81.5645 590.34ZM81.8652 596.902V593.443H83.1777V595.85H90.1367V596.902H81.8652ZM96.0293 587.168C96.0225 588.727 97.1094 590.148 98.9688 590.736L98.3535 591.748C96.959 591.304 95.9404 590.381 95.4004 589.219C94.8672 590.559 93.7939 591.618 92.3242 592.131L91.6543 591.092C93.5684 590.463 94.7236 588.884 94.7305 587.182V586.84H92.0371V585.787H98.668V586.84H96.0293V587.168ZM93.3086 594.838C93.3086 593.402 94.874 592.562 97.4238 592.568C99.9463 592.562 101.484 593.402 101.484 594.838C101.484 596.294 99.9463 597.142 97.4238 597.135C94.874 597.142 93.3086 596.294 93.3086 594.838ZM94.6074 594.838C94.6006 595.658 95.6533 596.116 97.4238 596.109C99.1807 596.116 100.22 595.658 100.213 594.838C100.22 594.038 99.1807 593.587 97.4238 593.594C95.6533 593.587 94.6006 594.038 94.6074 594.838ZM100.076 592.268V584.912H101.375V587.947H103.152V589.014H101.375V592.268H100.076ZM109.523 592.541C112.046 592.541 113.584 593.389 113.584 594.838C113.584 596.308 112.046 597.155 109.523 597.162C106.974 597.155 105.408 596.308 105.408 594.838C105.408 593.389 106.974 592.541 109.523 592.541ZM104.328 591.365V585.678H105.6V587.441H108.812V585.678H110.098V591.365H104.328ZM105.6 590.326H108.812V588.467H105.6V590.326ZM106.707 594.838C106.7 595.658 107.753 596.123 109.523 596.123C111.28 596.123 112.319 595.658 112.312 594.838C112.319 594.024 111.28 593.566 109.523 593.566C107.753 593.566 106.7 594.024 106.707 594.838ZM112.176 592.227V584.912H113.475V587.906H115.252V589.014H113.475V592.227H112.176ZM127.146 591.105V592.158H122.279V594.537H120.994V592.158H115.936V591.105H127.146ZM117.33 596.902V593.375H118.629V595.85H125.902V596.902H117.33ZM117.371 589.834V585.486H125.697V589.834H117.371ZM118.643 588.809H124.412V586.512H118.643V588.809ZM132.301 588.029C132.287 590.196 133.552 592.418 135.377 593.307L134.57 594.346C133.237 593.648 132.205 592.281 131.665 590.647C131.118 592.384 130.045 593.854 128.65 594.578L127.844 593.525C129.724 592.623 130.995 590.271 131.002 588.029V585.938H132.301V588.029ZM136.293 597.162V584.912H137.592V589.793H139.561V590.9H137.592V597.162H136.293ZM144.688 587.469C144.688 589.055 145.856 590.545 147.75 591.146L147.08 592.158C145.672 591.693 144.612 590.729 144.052 589.506C143.505 590.839 142.411 591.892 140.955 592.404L140.285 591.379C142.192 590.729 143.368 589.144 143.375 587.469V586.936H140.627V585.883H147.381V586.936H144.688V587.469ZM142.295 596.902V593.02H143.607V595.85H150.676V596.902H142.295ZM149.008 593.867V584.926H150.307V593.867H149.008Z" fill="#111111"/>
<rect x="9" y="412" width="218" height="52" rx="26" fill="#0E419C"/>
<rect x="14" y="417" width="42" height="42" rx="21" fill="white"/>
<g clip-path="url(#clip2_920_90850)">
<path d="M43.2236 426.107H29.344C28.4256 426.107 27.678 426.855 27.678 427.773V428.579H26.7764C25.858 428.579 25.1104 429.327 25.1104 430.245V448.227C25.1104 449.145 25.858 449.893 26.7764 449.893H40.656C41.5744 449.893 42.322 449.145 42.322 448.227V447.418H43.2236C44.142 447.418 44.8896 446.67 44.8896 445.752V427.773C44.8896 426.855 44.142 426.107 43.2236 426.107ZM41.5884 448.227C41.5884 448.742 41.1684 449.162 40.6532 449.162H26.7764C26.2612 449.162 25.8412 448.742 25.8412 448.227V430.245C25.8412 429.73 26.2612 429.31 26.7764 429.31H28.0364C28.0364 429.31 28.042 429.31 28.0448 429.31H40.656C41.1684 429.31 41.5912 429.727 41.5912 430.243V448.224L41.5884 448.227ZM44.1588 445.752C44.1588 446.267 43.7388 446.687 43.2236 446.687H42.322V430.248C42.322 429.33 41.5772 428.579 40.656 428.579H28.4088V427.773C28.4088 427.258 28.8288 426.838 29.344 426.838H43.2236C43.7388 426.838 44.1588 427.258 44.1588 427.773V445.752Z" fill="#114493"/>
<path d="M39.2389 430.295C38.5053 430.295 37.9117 430.892 37.9117 431.623C37.9117 431.852 37.9761 432.065 38.0769 432.253L36.2261 434.075C36.0329 433.966 35.8145 433.899 35.5765 433.899C35.3217 433.899 35.0893 433.975 34.8849 434.098L33.2133 432.561C33.2973 432.387 33.3477 432.194 33.3477 431.987C33.3477 431.253 32.7513 430.659 32.0205 430.659C31.2897 430.659 30.6933 431.256 30.6933 431.987C30.6933 432.208 30.7521 432.412 30.8473 432.594L28.8481 434.509C28.6549 434.397 28.4337 434.33 28.1929 434.33C27.4593 434.33 26.8657 434.927 26.8657 435.657C26.8657 436.388 27.4621 436.985 28.1929 436.985C28.9237 436.985 29.5201 436.388 29.5201 435.657C29.5201 435.431 29.4585 435.221 29.3577 435.033L31.3485 433.123C31.5473 433.241 31.7741 433.311 32.0205 433.311C32.2809 433.311 32.5217 433.233 32.7261 433.104L34.3893 434.635C34.2997 434.815 34.2465 435.013 34.2465 435.223C34.2465 435.957 34.8429 436.551 35.5737 436.551C36.3045 436.551 36.9009 435.954 36.9009 435.223C36.9009 434.994 36.8365 434.784 36.7357 434.596L38.5865 432.773C38.7797 432.883 38.9981 432.95 39.2361 432.95C39.9697 432.95 40.5633 432.353 40.5633 431.623C40.5633 430.892 39.9669 430.295 39.2361 430.295H39.2389ZM28.1929 436.254C27.8653 436.254 27.5965 435.985 27.5965 435.657C27.5965 435.33 27.8653 435.061 28.1929 435.061C28.5205 435.061 28.7893 435.333 28.7893 435.657C28.7893 435.982 28.5205 436.254 28.1929 436.254ZM31.4241 431.987C31.4241 431.659 31.6929 431.39 32.0205 431.39C32.3481 431.39 32.6169 431.659 32.6169 431.987C32.6169 432.314 32.3481 432.583 32.0205 432.583C31.6929 432.583 31.4241 432.314 31.4241 431.987ZM35.5765 435.823C35.2489 435.823 34.9801 435.554 34.9801 435.226C34.9801 434.899 35.2489 434.63 35.5765 434.63C35.9041 434.63 36.1729 434.899 36.1729 435.226C36.1729 435.554 35.9041 435.823 35.5765 435.823ZM39.2389 432.219C38.9113 432.219 38.6425 431.95 38.6425 431.623C38.6425 431.295 38.9113 431.026 39.2389 431.026C39.5665 431.026 39.8353 431.295 39.8353 431.623C39.8353 431.95 39.5665 432.219 39.2389 432.219Z" fill="#114493"/>
<path d="M39.8606 438.869H27.5714C27.3698 438.869 27.2046 439.034 27.2046 439.236C27.2046 439.438 27.367 439.603 27.5714 439.603H39.8606C40.0622 439.603 40.2274 439.438 40.2274 439.236C40.2274 439.034 40.065 438.869 39.8606 438.869Z" fill="#114493"/>
<path d="M39.8606 441.459H34.6134C34.4118 441.459 34.2466 441.624 34.2466 441.826C34.2466 442.027 34.409 442.193 34.6134 442.193H39.8606C40.0622 442.193 40.2274 442.027 40.2274 441.826C40.2274 441.624 40.065 441.459 39.8606 441.459Z" fill="#114493"/>
<path d="M39.8606 444.049H34.6134C34.4118 444.049 34.2466 444.215 34.2466 444.416C34.2466 444.618 34.409 444.783 34.6134 444.783H39.8606C40.0622 444.783 40.2274 444.618 40.2274 444.416C40.2274 444.215 40.065 444.049 39.8606 444.049Z" fill="#114493"/>
<path d="M39.8606 446.639H34.6134C34.4118 446.639 34.2466 446.804 34.2466 447.006C34.2466 447.208 34.409 447.373 34.6134 447.373H39.8606C40.0622 447.373 40.2274 447.208 40.2274 447.006C40.2274 446.804 40.065 446.639 39.8606 446.639Z" fill="#114493"/>
<path d="M30.307 441.313C28.5962 441.313 27.2046 442.705 27.2046 444.416C27.2046 446.127 28.6074 447.518 30.307 447.518C32.0066 447.518 33.3478 446.183 33.4038 444.519C33.5186 442.932 32.155 441.316 30.307 441.316V441.313ZM32.6562 444.125H30.6738V442.078C31.7126 442.24 32.5274 443.077 32.6562 444.125ZM29.9402 442.078V444.34L28.4282 445.852C28.123 445.452 27.9382 444.956 27.9382 444.416C27.9382 443.234 28.809 442.254 29.9402 442.078ZM30.307 446.785C29.8058 446.785 29.341 446.628 28.9574 446.359L30.4582 444.858H32.6338C32.4266 445.953 31.4634 446.785 30.307 446.785Z" fill="#114493"/>
</g>
<path d="M73.56 430.766V437.922H71.8256V436.688H68.4194V435.359H71.8256V433.969H68.5991C67.7241 436.125 65.6538 437.531 62.5288 438.234L61.9194 436.812C65.2397 436.117 66.8959 434.656 67.1381 432.781H62.7006V431.375H69.0756C69.0756 431.82 69.0366 432.242 68.9741 432.641H71.8256V430.766H73.56ZM64.2631 439.844V438.469H73.56V442.188H66.0131V443.359H73.935V444.75H64.2788V440.891H71.8256V439.844H64.2631ZM83.2906 432.234V433.234C83.2906 434.492 83.2906 436.273 82.9 438.703L81.1813 438.562C81.525 436.422 81.5641 434.836 81.5719 433.625H76.025V432.234H83.2906ZM75.275 440.531C76.1109 440.523 77.0406 440.516 78.0094 440.492V436.266H79.7281V440.438C81.1656 440.375 82.6422 440.273 83.9938 440.109L84.0875 441.406C81.1734 441.883 77.9391 441.938 75.4469 441.922L75.275 440.531ZM84.7281 444.891V430.766H86.4781V436.516H88.525V437.984H86.4781V444.891H84.7281ZM101.974 441.766V443.188H89.0681V441.766H94.6306V439.016H90.49V431.703H92.2244V434.016H98.7713V431.703H100.506V439.016H96.3494V441.766H101.974ZM92.2244 437.609H98.7713V435.406H92.2244V437.609ZM114.268 432.062V433.422C114.252 435.18 114.252 437.141 113.705 440.094L111.955 439.906C112.51 437.156 112.51 435.148 112.518 433.453H104.08V432.062H114.268ZM102.736 443.062V441.641H107.486V436.734H109.205V441.641H115.611V443.062H102.736ZM121.623 434.156C121.615 436.781 122.873 439.359 125.123 440.344L124.076 441.734C122.483 440.953 121.358 439.453 120.756 437.602C120.139 439.555 118.983 441.18 117.358 442L116.264 440.594C118.568 439.516 119.85 436.797 119.858 434.156V431.906H121.623V434.156ZM123.561 436.734V435.328H126.529V430.766H128.248V444.906H126.529V436.734H123.561ZM145.866 430.766V444.891H144.209V430.766H145.866ZM133.459 440.875C135.498 439.633 136.397 437.086 136.397 434.625V433.688H133.944V432.281H140.35V433.688H138.069V434.625C138.069 437.008 138.92 439.398 140.944 440.562L139.913 441.844C138.608 441.07 137.741 439.727 137.248 438.117C136.748 439.859 135.85 441.344 134.522 442.172L133.459 440.875ZM139.319 437.094V435.688H141.35V431.031H142.991V444.203H141.35V437.094H139.319ZM160.221 436.875V438.156H154.659V439.188H158.643V442.5H150.612V443.469H159.034V444.766H148.909V441.312H156.94V440.438H148.893V439.188H152.94V438.156H147.409V436.875H160.221ZM147.971 435.109C150.76 434.969 152.401 434.219 152.76 433.219H148.643V431.922H152.94V430.734H154.659V431.922H158.987V433.219H154.838C155.182 434.219 156.823 434.969 159.643 435.109L159.128 436.406C156.588 436.25 154.69 435.562 153.799 434.422C152.909 435.562 151.018 436.25 148.456 436.406L147.971 435.109Z" fill="white"/>
<defs>
<clipPath id="clip0_920_90850">
<rect width="23.786" height="23.1756" fill="white" transform="translate(25.1069 14.4121)"/>
</clipPath>
<clipPath id="clip1_920_90850">
<rect width="23.7804" height="23.4528" fill="white" transform="translate(23.1099 245.273)"/>
</clipPath>
<clipPath id="clip2_920_90850">
<rect width="19.7792" height="23.786" fill="white" transform="translate(25.1104 426.107)"/>
</clipPath>
</defs>
</svg>
