<svg width="236" height="1266" viewBox="0 0 236 1266" fill="none" xmlns="http://www.w3.org/2000/svg">
<rect x="1" y="1" width="234" height="54" rx="27" stroke="#114493" stroke-width="2"/>
<rect x="8" y="8" width="40" height="40" rx="20" fill="#114493"/>
<path d="M30.5664 19.5312V36.5H27.9648V22.1094H27.8711L23.8164 24.7578V22.2969L28.0352 19.5312H30.5664Z" fill="white"/>
<path d="M109.862 24.4883C109.844 27.3271 111.268 30.1924 113.729 31.3789L112.534 32.9434C110.811 32.0732 109.572 30.3945 108.895 28.373C108.201 30.5352 106.9 32.3281 105.081 33.2422L103.885 31.6777C106.443 30.4648 107.902 27.4238 107.911 24.4883V21.957H109.862V24.4883ZM114.678 36.5645V20.6738H116.629V26.8965H119.073V28.5664H116.629V36.5645H114.678ZM123.973 21.377C126.029 21.3682 127.647 22.5547 128.042 24.2949H130.916V20.6738H132.867V29.1992H130.916V25.877H128.06C127.682 27.6611 126.047 28.8652 123.973 28.8652C121.538 28.8652 119.772 27.3008 119.772 25.1035C119.772 22.9326 121.538 21.3682 123.973 21.377ZM121.635 25.1035C121.635 26.3779 122.602 27.2217 123.973 27.2129C125.309 27.2217 126.267 26.3779 126.276 25.1035C126.267 23.8291 125.309 23.0029 123.973 23.0117C122.602 23.0029 121.635 23.8291 121.635 25.1035ZM122.391 36.3711V29.9375H124.324V31.625H130.916V29.9375H132.867V36.3711H122.391ZM124.324 34.7891H130.916V33.1367H124.324V34.7891ZM148.209 20.6738V36.5645H146.24V20.6738H148.209ZM135.043 32.1875C139.209 30.21 141.125 27.5205 141.476 23.9082H135.851V22.3613H143.463C143.463 27.0898 141.626 31.1064 136.062 33.752L135.043 32.1875ZM160.281 21.9395V23.3809H150.876V21.9395H154.585V20.5859H156.537V21.9395H160.281ZM150.384 29.498C151.65 29.498 153.091 29.498 154.585 29.4541V28.5225C152.784 28.3027 151.659 27.459 151.667 26.2285C151.659 24.752 153.214 23.8291 155.587 23.8379C157.899 23.8291 159.49 24.752 159.49 26.2285C159.49 27.4678 158.321 28.3115 156.537 28.5312V29.3838C157.881 29.3135 159.226 29.208 160.492 29.041L160.632 30.377C157.222 30.957 153.469 31.001 150.648 31.0098L150.384 29.498ZM152.634 33.5762V32.0469H163.568V36.5645H161.599V33.5762H152.634ZM153.548 26.2285C153.54 26.8789 154.331 27.2656 155.587 27.248C156.792 27.2656 157.618 26.8789 157.626 26.2285C157.618 25.5254 156.792 25.1475 155.587 25.1562C154.331 25.1475 153.54 25.5254 153.548 26.2285ZM161.599 31.3965V20.709H163.568V31.3965H161.599Z" fill="#114493"/>
<path fill-rule="evenodd" clip-rule="evenodd" d="M117.5 89.25V68H118.5V89.25H117.5Z" fill="#114493"/>
<path d="M118 98L113 89.25H123L118 98Z" fill="#114493"/>
<rect x="1" y="111" width="234" height="54" rx="27" stroke="#114493" stroke-width="2"/>
<rect x="8" y="118" width="40" height="40" rx="20" fill="#114493"/>
<path d="M22.3633 146.5V144.625L28.2461 138.695C30.1094 136.762 31.0352 135.684 31.0352 134.195C31.0352 132.52 29.6758 131.453 27.8945 131.453C26.0078 131.453 24.8125 132.648 24.8008 134.453H22.3633C22.3398 131.348 24.707 129.297 27.9414 129.297C31.2109 129.297 33.4727 131.371 33.4961 134.125C33.4727 136.023 32.582 137.535 29.3945 140.664L25.9492 144.156V144.297H33.7773V146.5H22.3633Z" fill="white"/>
<path d="M84.7687 133.486C84.7511 135.569 86.0695 137.564 88.5655 138.373L87.546 139.92C85.7882 139.322 84.5314 138.127 83.837 136.598C83.1339 138.285 81.8243 139.604 79.9698 140.254L78.88 138.707C81.4904 137.854 82.7999 135.728 82.7999 133.469V131.658H84.7687V133.486ZM81.4288 146.248V141.203H83.4327V144.666H92.2394V146.248H81.4288ZM89.6554 142.346V130.674H91.6066V135.367H93.8214V137.02H91.6066V142.346H89.6554ZM98.8621 131.377C100.919 131.368 102.536 132.555 102.931 134.295H105.805V130.674H107.757V139.199H105.805V135.877H102.949C102.571 137.661 100.936 138.865 98.8621 138.865C96.4275 138.865 94.6609 137.301 94.6609 135.104C94.6609 132.933 96.4275 131.368 98.8621 131.377ZM96.5242 135.104C96.5242 136.378 97.491 137.222 98.8621 137.213C100.198 137.222 101.156 136.378 101.165 135.104C101.156 133.829 100.198 133.003 98.8621 133.012C97.491 133.003 96.5242 133.829 96.5242 135.104ZM97.2801 146.371V139.938H99.2137V141.625H105.805V139.938H107.757V146.371H97.2801ZM99.2137 144.789H105.805V143.137H99.2137V144.789ZM114.678 135.525C114.678 137.986 115.689 140.465 117.913 141.66L116.823 143.102C115.346 142.319 114.344 140.922 113.773 139.252C113.21 141.054 112.208 142.601 110.723 143.471L109.581 141.994C111.831 140.693 112.824 138.039 112.833 135.525V135.033H110.125V133.451H112.833V131.236H114.678V133.451H117.333V135.033H114.678V135.525ZM116.348 138.391V136.773H118.422V130.973H120.268V145.791H118.422V138.391H116.348ZM121.639 146.564V130.674H123.502V146.564H121.639ZM137.574 131.992C137.565 133.987 139.806 136.018 143.199 136.457L142.426 138.039C139.727 137.635 137.583 136.308 136.546 134.515C135.509 136.308 133.373 137.635 130.701 138.039L129.928 136.457C133.285 136.018 135.517 134.005 135.517 131.992V131.184H137.574V131.992ZM129.295 141.027V139.41H143.779V141.027H137.469V146.564H135.535V141.027H129.295ZM159.191 143.031V144.631H144.671V143.031H148.029V139.015C146.763 138.285 145.999 137.143 146.007 135.736C145.999 133.205 148.477 131.535 151.896 131.535C155.333 131.535 157.829 133.205 157.82 135.736C157.829 137.125 157.082 138.241 155.851 138.971V143.031H159.191ZM147.923 135.736C147.915 137.362 149.523 138.399 151.896 138.391C154.26 138.399 155.904 137.362 155.904 135.736C155.904 134.084 154.26 133.073 151.896 133.082C149.523 133.073 147.915 134.084 147.923 135.736ZM149.962 143.031H153.865V139.718C153.258 139.85 152.599 139.92 151.896 139.92C151.21 139.92 150.56 139.85 149.962 139.727V143.031ZM174.568 143.049V144.648H160.048V143.049H166.323V139.393H168.275V143.049H174.568ZM160.681 138.514C163.845 137.986 166.2 135.842 166.253 133.557H161.261V131.957H173.32V133.557H168.31C168.371 135.842 170.727 137.934 173.988 138.426L173.214 139.973C170.533 139.489 168.327 138.065 167.299 136.079C166.279 138.092 164.1 139.56 161.454 140.061L160.681 138.514ZM181.102 134.488C181.085 137.327 182.509 140.192 184.97 141.379L183.774 142.943C182.052 142.073 180.812 140.395 180.136 138.373C179.441 140.535 178.141 142.328 176.321 143.242L175.126 141.678C177.683 140.465 179.142 137.424 179.151 134.488V131.957H181.102V134.488ZM185.919 146.564V130.674H187.87V136.896H190.313V138.566H187.87V146.564H185.919Z" fill="#114493"/>
<path fill-rule="evenodd" clip-rule="evenodd" d="M117.5 199.25V178H118.5V199.25H117.5Z" fill="#114493"/>
<path d="M118 208L113 199.25H123L118 208Z" fill="#114493"/>
<rect x="1" y="221" width="234" height="54" rx="27" stroke="#114493" stroke-width="2"/>
<rect x="8" y="228" width="40" height="40" rx="20" fill="#114493"/>
<path d="M28.0352 256.734C24.5195 256.734 22.0234 254.848 21.918 252.07H24.543C24.6367 253.559 26.1133 254.508 28.0117 254.508C30.0625 254.508 31.5508 253.395 31.5508 251.742C31.5508 250.066 30.1562 248.871 27.7305 248.859H26.2773V246.75H27.7305C29.6641 246.762 31.0117 245.684 31.0117 244.055C31.0117 242.508 29.8516 241.453 28.0586 241.453C26.3594 241.453 24.8359 242.402 24.7773 243.938H22.293C22.3633 241.172 24.918 239.297 28.082 239.297C31.4219 239.297 33.5195 241.406 33.4961 243.914C33.5195 245.848 32.3242 247.23 30.4961 247.688V247.805C32.8164 248.133 34.1641 249.691 34.1523 251.836C34.1641 254.66 31.5508 256.734 28.0352 256.734Z" fill="white"/>
<path d="M118.704 253.031V254.631H104.184V253.031H110.442V249.568H105.784V241.904H117.034V249.568H112.375V253.031H118.704ZM107.7 248.039H115.1V243.469H107.7V248.039ZM128.93 241.623V243.188H125.59C125.616 245.051 126.987 246.844 129.492 247.547L128.508 249.076C126.671 248.531 125.344 247.38 124.623 245.912C123.902 247.494 122.549 248.742 120.651 249.34L119.666 247.811C122.206 247.063 123.577 245.165 123.621 243.188H120.194V241.623H128.93ZM122.285 256.371V249.99H124.219V251.625H130.846V249.99H132.797V256.371H122.285ZM124.219 254.789H130.846V253.137H124.219V254.789ZM130.828 249.287V240.674H132.797V249.287H130.828ZM142.092 250.605C145.546 250.614 147.725 251.704 147.734 253.594C147.725 255.439 145.546 256.547 142.092 256.547C138.673 256.547 136.467 255.439 136.467 253.594C136.467 251.704 138.673 250.614 142.092 250.605ZM134.973 249.463V247.881H140.562V244.998H142.496V247.881H149.387V249.463H134.973ZM136.625 242.977V241.43H147.629V242.748C147.638 244.005 147.638 245.341 147.189 246.967L145.256 246.791C145.651 245.253 145.678 244.128 145.678 242.977H136.625ZM138.435 253.594C138.418 254.525 139.798 255.035 142.092 255.035C144.394 255.035 145.783 254.525 145.801 253.594C145.783 252.627 144.394 252.082 142.092 252.082C139.798 252.082 138.418 252.627 138.435 253.594ZM163.287 242.133V243.662C163.269 245.64 163.269 247.846 162.654 251.168L160.685 250.957C161.309 247.863 161.309 245.604 161.318 243.697H151.826V242.133H163.287ZM150.314 254.508V252.908H155.658V247.389H157.591V252.908H164.798V254.508H150.314Z" fill="#114493"/>
<path fill-rule="evenodd" clip-rule="evenodd" d="M117.5 309.25V288H118.5V309.25H117.5Z" fill="#114493"/>
<path d="M118 318L113 309.25H123L118 318Z" fill="#114493"/>
<rect x="1" y="331" width="234" height="54" rx="27" stroke="#114493" stroke-width="2"/>
<rect x="8" y="338" width="40" height="40" rx="20" fill="#114493"/>
<path d="M21.5078 363.195V361.109L29.0078 349.531H32.1953V361.016H34.5156V363.195H32.1953V366.5H29.7578V363.195H21.5078ZM24.2266 361.016H29.7578V352.602H29.5703L24.2266 360.875V361.016Z" fill="white"/>
<path d="M108.161 350.674V366.564H106.298V350.674H108.161ZM94.2918 361.818C97.5789 359.876 99.0906 357.389 99.3895 354.189H95.1355V352.607H101.323C101.323 353.407 101.27 354.189 101.156 354.945H103.011V351.061H104.874V365.809H103.011V360.5H100.532V358.9H103.011V356.545H100.822C100.066 359.182 98.4139 361.449 95.4344 363.207L94.2918 361.818ZM119.793 351.939V353.381H110.389V351.939H114.098V350.586H116.049V351.939H119.793ZM109.897 359.498C111.163 359.498 112.604 359.498 114.098 359.454V358.522C112.296 358.303 111.171 357.459 111.18 356.229C111.171 354.752 112.727 353.829 115.1 353.838C117.412 353.829 119.002 354.752 119.002 356.229C119.002 357.468 117.833 358.312 116.049 358.531V359.384C117.394 359.313 118.739 359.208 120.004 359.041L120.145 360.377C116.735 360.957 112.982 361.001 110.161 361.01L109.897 359.498ZM112.147 363.576V362.047H123.081V366.564H121.112V363.576H112.147ZM113.061 356.229C113.052 356.879 113.843 357.266 115.1 357.248C116.304 357.266 117.13 356.879 117.139 356.229C117.13 355.525 116.304 355.147 115.1 355.156C113.843 355.147 113.052 355.525 113.061 356.229ZM121.112 361.396V350.709H123.081V361.396H121.112ZM131.074 354.488C131.066 357.441 132.481 360.342 135.012 361.449L133.834 363.014C132.041 362.135 130.776 360.447 130.099 358.364C129.404 360.562 128.104 362.39 126.276 363.312L125.045 361.73C127.638 360.518 129.079 357.459 129.088 354.488V351.957H131.074V354.488ZM133.254 357.389V355.807H136.594V350.674H138.527V366.582H136.594V357.389H133.254ZM157.978 350.674V359.34H156.027V355.947H153.285V354.33H156.027V350.674H157.978ZM144.636 358.074C147.15 357.23 148.503 355.174 148.521 353.082H145.216V351.482H153.794V353.082H150.507C150.525 354.989 151.808 356.958 154.251 357.775L153.267 359.287C151.492 358.681 150.235 357.477 149.541 355.982C148.846 357.644 147.528 358.979 145.638 359.621L144.636 358.074ZM147.501 366.371V360.008H149.453V361.66H156.027V360.008H157.978V366.371H147.501ZM149.453 364.789H156.027V363.189H149.453V364.789ZM168.327 351.992C168.319 353.987 170.56 356.018 173.952 356.457L173.179 358.039C170.481 357.635 168.336 356.308 167.299 354.515C166.262 356.308 164.126 357.635 161.454 358.039L160.681 356.457C164.038 356.018 166.271 354.005 166.271 351.992V351.184H168.327V351.992ZM160.048 361.027V359.41H174.532V361.027H168.222V366.564H166.288V361.027H160.048Z" fill="#114493"/>
<path fill-rule="evenodd" clip-rule="evenodd" d="M117.5 419.25V398H118.5V419.25H117.5Z" fill="#114493"/>
<path d="M118 428L113 419.25H123L118 428Z" fill="#114493"/>
<rect x="1" y="441" width="234" height="54" rx="27" stroke="#114493" stroke-width="2"/>
<rect x="8" y="448" width="40" height="40" rx="20" fill="#114493"/>
<path d="M27.9883 476.734C24.7773 476.734 22.3633 474.777 22.2461 472.07H24.7539C24.8945 473.512 26.2773 474.566 27.9883 474.578C30.0508 474.566 31.5273 473.078 31.5273 471.062C31.5273 469 30.0039 467.5 27.8711 467.477C26.5117 467.477 25.4688 467.934 24.8945 468.977H22.457L23.5586 459.531H33.168V461.734H25.6914L25.1289 466.492H25.293C25.9961 465.812 27.1914 465.355 28.4805 465.344C31.6797 465.355 34.0352 467.723 34.0352 470.992C34.0352 474.332 31.5273 476.734 27.9883 476.734Z" fill="white"/>
<path d="M117.385 460.674V468.777H115.452V460.674H117.385ZM104.166 467.23C106.742 466.413 108.095 464.374 108.086 462.291V461.061H110.108V462.291C110.099 464.312 111.444 466.202 113.958 466.967L113.008 468.479C111.163 467.907 109.844 466.729 109.124 465.218C108.403 466.861 107.049 468.153 105.151 468.76L104.166 467.23ZM106.874 471.027V469.516H117.42V473.646H108.825V474.877H117.895V476.424H106.909V472.188H115.469V471.027H106.874ZM126.539 462.396V463.961H122.004V466.562H126.258V468.092H122.004V471.186C123.973 471.168 125.335 471.098 126.944 470.852L127.102 472.451C125.247 472.768 123.692 472.829 121.213 472.82H120.141V462.396H126.539ZM127.91 475.791V460.955H129.756V466.914H131.391V460.674H133.272V476.564H131.391V468.496H129.756V475.791H127.91ZM149.457 473.049V474.648H134.937V473.049H141.213V469.393H143.164V473.049H149.457ZM135.57 468.514C138.734 467.986 141.09 465.842 141.142 463.557H136.15V461.957H148.209V463.557H143.199C143.261 465.842 145.616 467.934 148.877 468.426L148.103 469.973C145.423 469.489 143.217 468.065 142.188 466.079C141.169 468.092 138.989 469.56 136.344 470.061L135.57 468.514ZM155.992 464.488C155.974 467.327 157.398 470.192 159.859 471.379L158.664 472.943C156.941 472.073 155.702 470.395 155.025 468.373C154.331 470.535 153.03 472.328 151.21 473.242L150.015 471.678C152.573 470.465 154.032 467.424 154.041 464.488V461.957H155.992V464.488ZM160.808 476.564V460.674H162.759V466.896H165.203V468.566H162.759V476.564H160.808Z" fill="#114493"/>
<path fill-rule="evenodd" clip-rule="evenodd" d="M117.5 529.25V508H118.5V529.25H117.5Z" fill="#114493"/>
<path d="M118 538L113 529.25H123L118 538Z" fill="#114493"/>
<rect x="1" y="551" width="234" height="54" rx="27" stroke="#114493" stroke-width="2"/>
<rect x="8" y="558" width="40" height="40" rx="20" fill="#114493"/>
<path d="M28.1641 586.734C25.0234 586.711 21.7422 584.848 21.7422 578.578C21.7539 572.672 24.3086 569.297 28.375 569.297C31.5039 569.297 33.6719 571.242 34.0703 573.938H31.5156C31.1758 572.555 30.0859 571.559 28.375 571.547C25.75 571.559 24.2266 573.832 24.2266 577.664H24.4141C25.3398 576.223 26.9336 575.379 28.7734 575.367C31.7969 575.379 34.2344 577.699 34.2344 580.945C34.2344 584.238 31.8086 586.758 28.1641 586.734ZM24.5312 581.016C24.543 582.902 26.0547 584.566 28.1406 584.578C30.1914 584.566 31.7266 582.973 31.7266 580.992C31.7266 579.047 30.25 577.465 28.2109 577.477C26.1367 577.465 24.5547 579.129 24.5312 581.016Z" fill="white"/>
<path d="M107.922 573.486C107.913 575.596 109.178 577.652 111.648 578.496L110.576 580.025C108.862 579.384 107.64 578.145 106.964 576.58C106.287 578.329 104.986 579.7 103.123 580.395L102.086 578.848C104.643 577.986 105.944 575.789 105.953 573.469V571.658H107.922V573.486ZM104.968 586.248V581.203H106.955V584.666H115.797V586.248H104.968ZM110.33 575.789V574.189H113.494V570.691H115.445V582.486H113.494V575.789H110.33ZM130.822 570.674V580.113H128.87V576.229H126.163V574.629H128.87V570.674H130.822ZM117.462 578.531C120.02 577.652 121.365 575.517 121.365 573.416V573.293H118.06V571.711H126.638V573.293H123.351V573.398C123.351 575.332 124.634 577.283 127.095 578.109L126.111 579.656C124.344 579.059 123.096 577.846 122.393 576.352C121.699 578.039 120.371 579.41 118.482 580.078L117.462 578.531ZM120.046 583.541C120.029 581.634 122.094 580.518 125.443 580.518C128.809 580.518 130.866 581.634 130.874 583.541C130.866 585.448 128.809 586.556 125.443 586.564C122.094 586.556 120.029 585.448 120.046 583.541ZM121.98 583.541C121.971 584.525 123.237 585.062 125.443 585.053C127.666 585.062 128.923 584.525 128.923 583.541C128.923 582.548 127.666 582.012 125.443 582.012C123.237 582.012 121.971 582.548 121.98 583.541ZM145.86 571.781V573.363H144.454V577.872C145.034 577.828 145.614 577.775 146.159 577.705V576.281H148.339V574.91H146.159V573.346H148.339V570.674H150.29V580.412H148.339V577.846H146.203L146.282 579.146C143.25 579.647 139.743 579.7 137.212 579.709L137.001 578.092C137.554 578.092 138.161 578.092 138.794 578.083V573.363H137.405V571.781H145.86ZM139.514 583.629C139.497 581.757 141.545 580.693 144.911 580.693C148.303 580.693 150.334 581.757 150.342 583.629C150.334 585.457 148.303 586.547 144.911 586.547C141.545 586.547 139.497 585.457 139.514 583.629ZM140.692 578.057C141.307 578.039 141.94 578.013 142.573 577.986V573.363H140.692V578.057ZM141.448 583.629C141.439 584.552 142.687 585.035 144.911 585.035C147.143 585.035 148.391 584.552 148.391 583.629C148.391 582.688 147.143 582.188 144.911 582.188C142.687 582.188 141.439 582.688 141.448 583.629ZM164.805 570.674V576.879H167.161V578.514H164.805V586.529H162.854V570.674H164.805ZM152.272 582.188C156.139 580.254 158.231 577.564 158.618 573.943H153.133V572.326H160.604C160.595 576.993 158.661 581.098 153.379 583.699L152.272 582.188Z" fill="#114493"/>
<path fill-rule="evenodd" clip-rule="evenodd" d="M117.5 639.25V618H118.5V639.25H117.5Z" fill="#114493"/>
<path d="M118 648L113 639.25H123L118 648Z" fill="#114493"/>
<rect x="1" y="661" width="234" height="54" rx="27" stroke="#114493" stroke-width="2"/>
<rect x="8" y="668" width="40" height="40" rx="20" fill="#114493"/>
<path d="M23.3711 696.5L30.9414 681.875V681.734H22.1992V679.531H33.6133V681.828L26.0664 696.5H23.3711Z" fill="white"/>
<path d="M100.128 684.488C100.11 687.327 101.534 690.192 103.995 691.379L102.8 692.943C101.077 692.073 99.8377 690.395 99.1609 688.373C98.4666 690.535 97.1658 692.328 95.3465 693.242L94.1512 691.678C96.7088 690.465 98.1678 687.424 98.1766 684.488V681.957H100.128V684.488ZM104.944 696.564V680.674H106.895V686.896H109.339V688.566H106.895V696.564H104.944ZM114.239 681.377C116.295 681.368 117.913 682.555 118.308 684.295H121.182V680.674H123.133V689.199H121.182V685.877H118.326C117.948 687.661 116.313 688.865 114.239 688.865C111.804 688.865 110.038 687.301 110.038 685.104C110.038 682.933 111.804 681.368 114.239 681.377ZM111.901 685.104C111.901 686.378 112.868 687.222 114.239 687.213C115.575 687.222 116.533 686.378 116.541 685.104C116.533 683.829 115.575 683.003 114.239 683.012C112.868 683.003 111.901 683.829 111.901 685.104ZM112.657 696.371V689.938H114.59V691.625H121.182V689.938H123.133V696.371H112.657ZM114.59 694.789H121.182V693.137H114.59V694.789ZM137.736 680.674V685.139H139.969V686.756H137.736V692.17H135.785V680.674H137.736ZM125.871 689.48V681.992H132.99V683.557H127.805V687.881C130.793 687.881 132.454 687.784 134.344 687.389L134.555 688.971C132.472 689.384 130.626 689.48 127.154 689.48H125.871ZM127.559 696.248V690.957H129.51V694.666H138.369V696.248H127.559ZM153.548 681.781V683.363H152.142V687.872C152.722 687.828 153.302 687.775 153.847 687.705V686.281H156.027V684.91H153.847V683.346H156.027V680.674H157.978V690.412H156.027V687.846H153.891L153.97 689.146C150.938 689.647 147.431 689.7 144.9 689.709L144.689 688.092C145.243 688.092 145.849 688.092 146.482 688.083V683.363H145.093V681.781H153.548ZM147.203 693.629C147.185 691.757 149.233 690.693 152.599 690.693C155.992 690.693 158.022 691.757 158.031 693.629C158.022 695.457 155.992 696.547 152.599 696.547C149.233 696.547 147.185 695.457 147.203 693.629ZM148.38 688.057C148.996 688.039 149.628 688.013 150.261 687.986V683.363H148.38V688.057ZM149.136 693.629C149.127 694.552 150.376 695.035 152.599 695.035C154.832 695.035 156.08 694.552 156.08 693.629C156.08 692.688 154.832 692.188 152.599 692.188C150.376 692.188 149.127 692.688 149.136 693.629ZM172.493 680.674V686.879H174.849V688.514H172.493V696.529H170.542V680.674H172.493ZM159.96 692.188C163.827 690.254 165.919 687.564 166.306 683.943H160.821V682.326H168.292C168.283 686.993 166.35 691.098 161.068 693.699L159.96 692.188Z" fill="#114493"/>
<path fill-rule="evenodd" clip-rule="evenodd" d="M117.5 749.25V728H118.5V749.25H117.5Z" fill="#114493"/>
<path d="M118 758L113 749.25H123L118 758Z" fill="#114493"/>
<rect x="1" y="771" width="234" height="54" rx="27" stroke="#114493" stroke-width="2"/>
<rect x="8" y="778" width="40" height="40" rx="20" fill="#114493"/>
<path d="M28.0117 806.734C24.3203 806.734 21.7539 804.742 21.7773 801.977C21.7539 799.797 23.3125 798.016 25.3164 797.711V797.617C23.5703 797.219 22.4102 795.672 22.4102 793.82C22.4102 791.207 24.7656 789.297 28.0117 789.297C31.2109 789.297 33.5781 791.207 33.5898 793.82C33.5781 795.672 32.3945 797.219 30.6836 797.617V797.711C32.6641 798.016 34.2344 799.797 34.2461 801.977C34.2344 804.742 31.6445 806.734 28.0117 806.734ZM24.4023 801.789C24.3672 803.453 25.7734 804.602 28.0117 804.602C30.2148 804.602 31.6211 803.453 31.6211 801.789C31.6211 800.043 30.0977 798.766 28.0117 798.766C25.9023 798.766 24.3672 800.043 24.4023 801.789ZM24.918 794.055C24.9297 795.637 26.1953 796.738 28.0117 796.727C29.7812 796.738 31.0703 795.648 31.0586 794.055C31.0703 792.473 29.8281 791.395 28.0117 791.406C26.1484 791.395 24.9297 792.473 24.918 794.055Z" fill="white"/>
<path d="M111.015 792.326V793.451C111.015 794.866 111.015 796.87 110.576 799.604L108.642 799.445C109.029 797.037 109.073 795.253 109.082 793.891H102.841V792.326H111.015ZM101.998 801.66C102.938 801.651 103.984 801.643 105.074 801.616V796.861H107.007V801.555C108.625 801.484 110.286 801.37 111.806 801.186L111.912 802.645C108.633 803.181 104.995 803.242 102.191 803.225L101.998 801.66ZM112.632 806.564V790.674H114.601V797.143H116.904V798.795H114.601V806.564H112.632ZM131.191 790.674V806.564H129.327V790.674H131.191ZM117.234 802.047C119.528 800.649 120.538 797.784 120.538 795.016V793.961H117.779V792.379H124.986V793.961H122.419V795.016C122.419 797.696 123.377 800.386 125.654 801.695L124.493 803.137C123.026 802.267 122.05 800.755 121.496 798.944C120.934 800.904 119.923 802.574 118.429 803.506L117.234 802.047ZM123.826 797.793V796.211H126.111V790.973H127.956V805.791H126.111V797.793H123.826ZM142.766 793.486C142.757 795.596 144.023 797.652 146.493 798.496L145.421 800.025C143.707 799.384 142.485 798.145 141.808 796.58C141.132 798.329 139.831 799.7 137.967 800.395L136.93 798.848C139.488 797.986 140.789 795.789 140.798 793.469V791.658H142.766V793.486ZM139.813 806.248V801.203H141.799V804.666H150.641V806.248H139.813ZM145.174 795.789V794.189H148.339V790.691H150.29V802.486H148.339V795.789H145.174ZM165.666 790.674V800.113H163.715V796.229H161.008V794.629H163.715V790.674H165.666ZM152.307 798.531C154.865 797.652 156.209 795.517 156.209 793.416V793.293H152.905V791.711H161.483V793.293H158.196V793.398C158.196 795.332 159.479 797.283 161.94 798.109L160.955 799.656C159.189 799.059 157.941 797.846 157.238 796.352C156.543 798.039 155.216 799.41 153.327 800.078L152.307 798.531ZM154.891 803.541C154.873 801.634 156.939 800.518 160.287 800.518C163.654 800.518 165.71 801.634 165.719 803.541C165.71 805.448 163.654 806.556 160.287 806.564C156.939 806.556 154.873 805.448 154.891 803.541ZM156.825 803.541C156.816 804.525 158.081 805.062 160.287 805.053C162.511 805.062 163.768 804.525 163.768 803.541C163.768 802.548 162.511 802.012 160.287 802.012C158.081 802.012 156.816 802.548 156.825 803.541Z" fill="#114493"/>
<path fill-rule="evenodd" clip-rule="evenodd" d="M117.5 859.25V838H118.5V859.25H117.5Z" fill="#114493"/>
<path d="M118 868L113 859.25H123L118 868Z" fill="#114493"/>
<rect x="1" y="881" width="234" height="54" rx="27" stroke="#114493" stroke-width="2"/>
<rect x="8" y="888" width="40" height="40" rx="20" fill="#114493"/>
<path d="M27.8594 899.297C30.9766 899.32 34.2461 901.195 34.2578 907.406C34.2578 913.359 31.6914 916.734 27.625 916.734C24.4961 916.734 22.3164 914.801 21.9062 912.047H24.4609C24.8125 913.477 25.9141 914.473 27.625 914.484C30.2383 914.473 31.7734 912.199 31.7969 908.32H31.5859C30.6719 909.75 29.0781 910.617 27.25 910.617C24.2031 910.617 21.7656 908.285 21.7656 905.039C21.7656 901.805 24.168 899.273 27.8594 899.297ZM24.2734 904.992C24.2852 906.961 25.75 908.52 27.8125 908.508C29.8633 908.52 31.4453 906.844 31.4453 904.969C31.4453 903.129 29.9336 901.453 27.8594 901.453C25.8086 901.453 24.2617 903.047 24.2734 904.992Z" fill="white"/>
<path d="M113.096 902.133V903.68H104.219V902.133H107.77V900.551H109.721V902.133H113.096ZM105.045 907.125C105.037 905.411 106.548 904.251 108.719 904.242C110.881 904.251 112.437 905.411 112.446 907.125C112.437 908.848 110.881 909.99 108.719 909.99C106.548 909.99 105.037 908.848 105.045 907.125ZM106.874 907.125C106.865 908.013 107.594 908.566 108.719 908.566C109.844 908.566 110.618 908.013 110.618 907.125C110.618 906.246 109.844 905.719 108.719 905.719C107.594 905.719 106.865 906.246 106.874 907.125ZM106.909 916.371V910.729H108.86V912.064H115.557V910.729H117.491V916.371H106.909ZM108.86 914.842H115.557V913.541H108.86V914.842ZM113.184 908.865V907.301H115.54V905.754H113.202V904.172H115.54V900.674H117.491V910.113H115.54V908.865H113.184ZM134.256 902.889V904.471H132.094V906.299H134.256V907.934H132.094V910.061H130.143V900.674H132.094V902.889H134.256ZM119.736 905.402C119.728 903.17 121.573 901.57 124.026 901.588C126.469 901.57 128.297 903.17 128.315 905.402C128.297 907.67 126.469 909.243 124.026 909.252C121.573 909.243 119.728 907.67 119.736 905.402ZM121.512 912.328V910.746H132.094V916.564H130.143V912.328H121.512ZM121.652 905.402C121.644 906.756 122.654 907.591 124.026 907.582C125.379 907.591 126.39 906.756 126.399 905.402C126.39 904.075 125.379 903.249 124.026 903.24C122.654 903.249 121.644 904.075 121.652 905.402ZM139.789 905.525C139.789 907.986 140.8 910.465 143.023 911.66L141.933 913.102C140.457 912.319 139.455 910.922 138.884 909.252C138.321 911.054 137.319 912.601 135.834 913.471L134.691 911.994C136.941 910.693 137.934 908.039 137.943 905.525V905.033H135.236V903.451H137.943V901.236H139.789V903.451H142.443V905.033H139.789V905.525ZM141.459 908.391V906.773H143.533V900.973H145.379V915.791H143.533V908.391H141.459ZM146.75 916.564V900.674H148.613V916.564H146.75ZM163.621 900.674V908.725H161.669V907.336H157.837V905.842H161.669V904.277H158.04C157.055 906.703 154.726 908.285 151.21 909.076L150.525 907.477C154.26 906.694 156.124 905.051 156.396 902.941H151.404V901.359H158.576C158.576 901.86 158.532 902.335 158.461 902.783H161.669V900.674H163.621ZM153.162 910.887V909.34H163.621V913.523H155.13V914.842H164.042V916.406H153.179V912.064H161.669V910.887H153.162Z" fill="#114493"/>
<path fill-rule="evenodd" clip-rule="evenodd" d="M117.5 969.25V948H118.5V969.25H117.5Z" fill="#114493"/>
<path d="M118 978L113 969.25H123L118 978Z" fill="#114493"/>
<rect x="1" y="991" width="234" height="54" rx="27" stroke="#114493" stroke-width="2"/>
<rect x="8" y="998" width="40" height="40" rx="20" fill="#114493"/>
<path d="M23.2802 1009.53V1026.5H20.6786V1012.11H20.5848L16.5302 1014.76V1012.3L20.7489 1009.53H23.2802ZM33.2589 1026.73C29.3331 1026.73 27.0245 1023.57 27.0245 1018.02C27.0245 1012.5 29.3566 1009.3 33.2589 1009.3C37.1495 1009.3 39.4816 1012.5 39.4933 1018.02C39.4816 1023.57 37.1847 1026.73 33.2589 1026.73ZM29.6027 1018.02C29.5909 1022.25 30.962 1024.51 33.2589 1024.51C35.5441 1024.51 36.9152 1022.25 36.9152 1018.02C36.9152 1013.8 35.5323 1011.49 33.2589 1011.48C30.9738 1011.49 29.6027 1013.8 29.6027 1018.02Z" fill="white"/>
<path d="M111.015 1012.33V1013.45C111.015 1014.87 111.015 1016.87 110.576 1019.6L108.642 1019.45C109.029 1017.04 109.073 1015.25 109.082 1013.89H102.841V1012.33H111.015ZM101.998 1021.66C102.938 1021.65 103.984 1021.64 105.074 1021.62V1016.86H107.007V1021.55C108.625 1021.48 110.286 1021.37 111.806 1021.19L111.912 1022.64C108.633 1023.18 104.995 1023.24 102.191 1023.22L101.998 1021.66ZM112.632 1026.56V1010.67H114.601V1017.14H116.904V1018.79H114.601V1026.56H112.632ZM131.191 1010.67V1026.56H129.327V1010.67H131.191ZM117.234 1022.05C119.528 1020.65 120.538 1017.78 120.538 1015.02V1013.96H117.779V1012.38H124.986V1013.96H122.419V1015.02C122.419 1017.7 123.377 1020.39 125.654 1021.7L124.493 1023.14C123.026 1022.27 122.05 1020.75 121.496 1018.94C120.934 1020.9 119.923 1022.57 118.429 1023.51L117.234 1022.05ZM123.826 1017.79V1016.21H126.111V1010.97H127.956V1025.79H126.111V1017.79H123.826ZM145.262 1011.99C145.254 1013.99 147.495 1016.02 150.887 1016.46L150.114 1018.04C147.416 1017.63 145.271 1016.31 144.234 1014.51C143.197 1016.31 141.061 1017.63 138.389 1018.04L137.616 1016.46C140.973 1016.02 143.206 1014 143.206 1011.99V1011.18H145.262V1011.99ZM136.983 1021.03V1019.41H151.467V1021.03H145.157V1026.56H143.223V1021.03H136.983ZM165.948 1010.67V1020.66H164.084V1016.33H162.537V1020.13H160.709V1010.99H162.537V1014.75H164.084V1010.67H165.948ZM152.272 1013.93V1012.4H155.278V1010.81H157.211V1012.4H160.182V1013.93H152.272ZM152.834 1017.32C152.817 1015.67 154.258 1014.57 156.244 1014.58C158.266 1014.57 159.69 1015.67 159.707 1017.32C159.69 1018.97 158.266 1020.06 156.244 1020.06C154.258 1020.06 152.817 1018.97 152.834 1017.32ZM154.575 1017.32C154.575 1018.14 155.251 1018.65 156.244 1018.65C157.246 1018.65 157.932 1018.14 157.932 1017.32C157.932 1016.5 157.246 1015.98 156.244 1015.98C155.251 1015.98 154.575 1016.5 154.575 1017.32ZM155.137 1023.72C155.128 1021.89 157.185 1020.86 160.586 1020.85C163.979 1020.86 166.027 1021.89 166.036 1023.72C166.027 1025.51 163.979 1026.55 160.586 1026.55C157.185 1026.55 155.128 1025.51 155.137 1023.72ZM157.088 1023.72C157.079 1024.59 158.319 1025.06 160.586 1025.05C162.845 1025.06 164.058 1024.59 164.067 1023.72C164.058 1022.79 162.845 1022.33 160.586 1022.35C158.319 1022.33 157.079 1022.79 157.088 1023.72Z" fill="#114493"/>
<path fill-rule="evenodd" clip-rule="evenodd" d="M117.5 1079.25V1058H118.5V1079.25H117.5Z" fill="#114493"/>
<path d="M118 1088L113 1079.25H123L118 1088Z" fill="#114493"/>
<rect x="1" y="1101" width="234" height="54" rx="27" stroke="#114493" stroke-width="2"/>
<rect x="8" y="1108" width="40" height="40" rx="20" fill="#114493"/>
<path d="M25.3075 1119.53V1136.5H22.7059V1122.11H22.6122L18.5575 1124.76V1122.3L22.7762 1119.53H25.3075ZM35.8253 1119.53V1136.5H33.2238V1122.11H33.13L29.0753 1124.76V1122.3L33.2941 1119.53H35.8253Z" fill="white"/>
<path d="M116.623 1127.97V1129.55H110.33V1130.89C113.169 1131.07 114.856 1132.06 114.865 1133.7C114.856 1135.53 112.782 1136.55 109.363 1136.55C105.891 1136.55 103.826 1135.53 103.826 1133.7C103.826 1132.06 105.513 1131.06 108.396 1130.88V1129.55H102.138V1127.97H116.623ZM102.841 1125.7C105.759 1125.43 107.667 1124.24 107.992 1122.94H103.457V1121.38H115.322V1122.94H110.743C111.059 1124.25 112.949 1125.43 115.937 1125.7L115.252 1127.25C112.36 1126.95 110.224 1125.8 109.363 1124.19C108.502 1125.8 106.392 1126.95 103.509 1127.25L102.841 1125.7ZM105.812 1133.7C105.803 1134.58 107.051 1135.06 109.363 1135.05C111.639 1135.06 112.896 1134.58 112.914 1133.7C112.896 1132.82 111.639 1132.35 109.363 1132.35C107.051 1132.35 105.803 1132.82 105.812 1133.7ZM130.048 1120.67V1125.24H132.263V1126.88H130.048V1132.13H128.062V1120.67H130.048ZM117.462 1128.94C121.101 1127.88 123.254 1125.9 123.588 1123.49H118.13V1121.89H125.724C125.733 1126.11 122.973 1129.12 118.271 1130.48L117.462 1128.94ZM119.835 1136.25V1130.96H121.822V1134.67H130.646V1136.25H119.835ZM150.29 1120.67V1129.9H148.339V1126.05H145.596V1124.45H148.339V1120.67H150.29ZM136.948 1128.32C139.479 1127.49 140.833 1125.38 140.833 1123.28V1123.15H137.528V1121.57H146.106V1123.15H142.819V1123.29C142.819 1125.2 144.102 1127.17 146.563 1128L145.579 1129.55C143.803 1128.94 142.547 1127.73 141.852 1126.23C141.149 1127.9 139.831 1129.23 137.95 1129.85L136.948 1128.32ZM139.725 1136.37V1130.59H150.29V1136.37H139.725ZM141.676 1134.79H148.374V1132.13H141.676V1134.79ZM160.586 1121.64C160.577 1125.74 157.879 1128.61 153.256 1129.9L152.465 1128.37C156.025 1127.41 158.134 1125.54 158.494 1123.22H153.327V1121.64H160.586ZM155.207 1136.35V1130.27H165.666V1136.35H155.207ZM157.123 1134.81H163.733V1131.82H157.123V1134.81ZM160.657 1126.18V1124.58H163.715V1120.69H165.666V1129.64H163.715V1126.18H160.657Z" fill="#114493"/>
<path fill-rule="evenodd" clip-rule="evenodd" d="M117.5 1189.25V1168H118.5V1189.25H117.5Z" fill="#114493"/>
<path d="M118 1198L113 1189.25H123L118 1198Z" fill="#114493"/>
<rect x="1" y="1211" width="234" height="54" rx="27" stroke="#114493" stroke-width="2"/>
<rect x="8" y="1218" width="40" height="40" rx="20" fill="#114493"/>
<path d="M23.5497 1229.53V1246.5H20.9481V1232.11H20.8544L16.7997 1234.76V1232.3L21.0184 1229.53H23.5497ZM27.6222 1246.5V1244.62L33.505 1238.7C35.3683 1236.76 36.2941 1235.68 36.2941 1234.2C36.2941 1232.52 34.9347 1231.45 33.1534 1231.45C31.2667 1231.45 30.0714 1232.65 30.0597 1234.45H27.6222C27.5988 1231.35 29.9659 1229.3 33.2003 1229.3C36.4698 1229.3 38.7316 1231.37 38.755 1234.12C38.7316 1236.02 37.8409 1237.54 34.6534 1240.66L31.2081 1244.16V1244.3H39.0363V1246.5H27.6222Z" fill="white"/>
<path d="M92.38 1230.67V1238.72H90.4288V1237.34H86.5968V1235.84H90.4288V1234.28H86.7989C85.8146 1236.7 83.4855 1238.29 79.9698 1239.08L79.2843 1237.48C83.0196 1236.69 84.8829 1235.05 85.1554 1232.94H80.1632V1231.36H87.3351C87.3351 1231.86 87.2911 1232.33 87.2208 1232.78H90.4288V1230.67H92.38ZM81.921 1240.89V1239.34H92.38V1243.52H83.8898V1244.84H92.8019V1246.41H81.9386V1242.06H90.4288V1240.89H81.921ZM103.327 1232.33V1233.45C103.327 1234.87 103.327 1236.87 102.888 1239.6L100.954 1239.45C101.341 1237.04 101.385 1235.25 101.393 1233.89H95.1531V1232.33H103.327ZM94.3094 1241.66C95.2498 1241.65 96.2957 1241.64 97.3855 1241.62V1236.86H99.3191V1241.55C100.936 1241.48 102.597 1241.37 104.118 1241.19L104.223 1242.64C100.945 1243.18 97.3064 1243.24 94.5027 1243.22L94.3094 1241.66ZM104.944 1246.56V1230.67H106.913V1237.14H109.216V1238.79H106.913V1246.56H104.944ZM124.346 1243.05V1244.65H109.827V1243.05H116.084V1239.96H111.426V1231.73H113.377V1234.33H120.743V1231.73H122.694V1239.96H118.018V1243.05H124.346ZM113.377 1238.37H120.743V1235.89H113.377V1238.37ZM138.176 1232.13V1233.66C138.158 1235.64 138.158 1237.85 137.543 1241.17L135.574 1240.96C136.198 1237.86 136.198 1235.6 136.207 1233.7H126.715V1232.13H138.176ZM125.203 1244.51V1242.91H130.547V1237.39H132.481V1242.91H139.688V1244.51H125.203ZM146.451 1234.49C146.442 1237.44 147.857 1240.34 150.389 1241.45L149.211 1243.01C147.418 1242.13 146.152 1240.45 145.475 1238.36C144.781 1240.56 143.48 1242.39 141.652 1243.31L140.422 1241.73C143.014 1240.52 144.456 1237.46 144.465 1234.49V1231.96H146.451V1234.49ZM148.631 1237.39V1235.81H151.971V1230.67H153.904V1246.58H151.971V1237.39H148.631ZM173.724 1230.67V1246.56H171.861V1230.67H173.724ZM159.767 1242.05C162.061 1240.65 163.071 1237.78 163.071 1235.02V1233.96H160.312V1232.38H167.519V1233.96H164.952V1235.02C164.952 1237.7 165.91 1240.39 168.187 1241.7L167.027 1243.14C165.559 1242.27 164.583 1240.75 164.029 1238.94C163.467 1240.9 162.456 1242.57 160.962 1243.51L159.767 1242.05ZM166.359 1237.79V1236.21H168.644V1230.97H170.489V1245.79H168.644V1237.79H166.359ZM189.874 1237.55V1238.99H183.616V1240.15H188.099V1243.88H179.063V1244.96H188.538V1246.42H177.147V1242.54H186.182V1241.55H177.13V1240.15H181.682V1238.99H175.46V1237.55H189.874ZM176.093 1235.56C179.23 1235.4 181.076 1234.56 181.48 1233.43H176.849V1231.97H181.682V1230.64H183.616V1231.97H188.485V1233.43H183.818C184.205 1234.56 186.051 1235.4 189.224 1235.56L188.643 1237.02C185.787 1236.84 183.651 1236.07 182.649 1234.79C181.647 1236.07 179.52 1236.84 176.638 1237.02L176.093 1235.56Z" fill="#114493"/>
</svg>
