<svg width="133" height="120" viewBox="0 0 133 120" fill="none" xmlns="http://www.w3.org/2000/svg">
<path d="M5.09162 44.8653C5.51308 43.5503 6.22255 42.3965 7.15912 41.4996C6.0165 40.8853 5.02371 39.9627 4.26275 38.8088C3.84129 40.1238 3.13188 41.2777 2.19531 42.1746C3.33793 42.7889 4.33066 43.7115 5.09162 44.8653Z" fill="white"/>
<path d="M0.522242 43.0879C2.28065 43.6461 3.74408 45.0802 4.54016 47.0235L4.71577 47.451C4.83284 47.7359 5.10912 47.9181 5.41116 47.9181C5.44394 47.9181 5.47905 47.9181 5.51417 47.9111C5.85368 47.8644 6.11826 47.5958 6.15806 47.2548L6.21191 46.797C6.45542 44.7135 7.48097 42.9407 9.0263 41.9341C9.26981 41.7752 9.39857 41.4926 9.35877 41.2053C9.31896 40.918 9.11761 40.6798 8.84132 40.5934C7.08291 40.0351 5.61955 38.601 4.82346 36.6577L4.64786 36.2303C4.51908 35.9126 4.19124 35.7258 3.85174 35.7702C3.51223 35.8169 3.24765 36.0855 3.20785 36.4265L3.154 36.8843C2.91049 38.9677 1.88494 40.7428 0.339604 41.7472C0.0960964 41.906 -0.0326636 42.1886 0.0071406 42.4759C0.0469448 42.7632 0.248298 43.0015 0.524586 43.0879H0.522242ZM4.26617 38.8089C5.02479 39.9627 6.01758 40.8853 7.16254 41.4996C6.22597 42.3965 5.5165 43.5527 5.09505 44.8654C4.33643 43.7115 3.34369 42.7889 2.19874 42.1746C3.13531 41.2777 3.84472 40.1239 4.26617 38.8089Z" fill="black"/>
<path d="M92.3838 26.0183C93.1073 24.8411 94.0696 23.8881 95.1935 23.2388C94.2288 22.3723 93.4842 21.2395 93.0206 19.9385C92.2971 21.1157 91.3348 22.0686 90.2109 22.718C91.1756 23.5845 91.9202 24.7173 92.3838 26.0183Z" fill="white"/>
<path d="M88.3679 23.206C89.9437 24.1636 91.0254 25.9037 91.3344 27.9801L91.4024 28.4356C91.4539 28.7743 91.7254 29.0359 92.0673 29.0709C92.093 29.0732 92.1188 29.0756 92.1446 29.0756C92.456 29.0756 92.7369 28.8841 92.8493 28.5874L93.0109 28.1553C93.7437 26.1887 95.1627 24.7078 96.9024 24.0959C97.1763 24.0001 97.3706 23.7549 97.3987 23.4676C97.4291 23.1803 97.291 22.9 97.0428 22.7505C95.467 21.7929 94.3853 20.0528 94.0762 17.9764L94.0083 17.5209C93.9568 17.1822 93.6852 16.9206 93.3434 16.8856C93.0016 16.8505 92.6808 17.0491 92.5613 17.3691L92.3998 17.8012C91.6669 19.7678 90.248 21.2487 88.5083 21.8606C88.2344 21.9564 88.0424 22.2016 88.012 22.4889C87.9815 22.7762 88.1197 23.0565 88.3679 23.206ZM93.0226 19.9383C93.4862 21.2393 94.2308 22.3698 95.1954 23.2387C94.0716 23.888 93.1092 24.8433 92.3857 26.0182C91.9221 24.7172 91.1776 23.5867 90.2129 22.7178C91.3368 22.0685 92.2991 21.1132 93.0226 19.9383Z" fill="black"/>
<path d="M12.4764 23.6756L12.9025 27.3239L15.354 24.5841C15.6443 24.2595 16.0916 24.11 16.52 24.1964L20.1305 24.9205L18.2761 21.7486C18.056 21.3726 18.0537 20.9031 18.2667 20.5224L20.072 17.3225L16.4732 18.1002C16.0471 18.1937 15.5975 18.0512 15.3025 17.7312L12.8089 15.0288L12.439 18.6818C12.3945 19.1163 12.1205 19.497 11.7248 19.6792L8.37891 21.2114L11.7482 22.6922C12.1486 22.8674 12.4272 23.2458 12.4787 23.6779L12.4764 23.6756Z" fill="#FFA241"/>
<path d="M7.23291 22.3442L11.0049 24.0002L11.4826 28.083C11.5388 28.5712 11.8666 28.9682 12.3372 29.1154C12.4637 29.1551 12.5901 29.1738 12.7165 29.1738C13.0607 29.1738 13.3908 29.0289 13.632 28.7603L16.3762 25.6936L20.4175 26.5041C20.9021 26.6022 21.3798 26.413 21.6678 26.0112C21.9557 25.6118 21.9792 25.098 21.731 24.6729L19.6565 21.1203L21.6771 17.5373C21.9183 17.1075 21.8878 16.596 21.5952 16.199C21.3025 15.8019 20.8202 15.622 20.3378 15.7272L16.3106 16.5984L13.5196 13.5736C13.1848 13.2116 12.6861 13.0831 12.2201 13.2396C11.7519 13.3961 11.4311 13.7955 11.3819 14.286L10.9675 18.3758L7.22119 20.0902C6.77164 20.2958 6.49767 20.7279 6.50001 21.2207C6.5047 21.7135 6.7857 22.141 7.2376 22.3395L7.23291 22.3442ZM11.7261 19.6791C12.1218 19.497 12.3957 19.1162 12.4402 18.6818L12.8101 15.0288L15.3038 17.7312C15.5988 18.0512 16.0484 18.1936 16.4745 18.1002L20.0732 17.3224L18.268 20.5223C18.0549 20.9031 18.0573 21.3725 18.2774 21.7486L20.1318 24.9205L16.5213 24.1964C16.0928 24.11 15.6456 24.2595 15.3553 24.5841L12.9038 27.3239L12.4777 23.6755C12.4262 23.2434 12.1476 22.865 11.7472 22.6899L8.37784 21.209L11.7237 19.6768L11.7261 19.6791Z" fill="black"/>
<path d="M78.8763 43.1924C78.8763 47.6957 77.5464 47.6489 71.7467 45.8481C67.6867 44.5868 66.043 46.7497 66.043 42.2441C66.043 37.7386 66.2584 33.2354 70.5104 33.2354C74.7624 33.2354 78.8763 38.6892 78.8763 43.1924Z" fill="black"/>
<path d="M122.399 90.2412C122.099 90.2039 121.685 90.2179 121.416 90.4912C121.135 90.7761 121.036 91.3227 121.135 92.0304C121.315 93.301 122.32 93.6537 122.537 93.7167C125.099 94.0204 129.419 96.0548 130.699 97.5706C130.732 97.6104 130.763 97.6501 130.795 97.6898C131.311 96.8583 131.915 95.4148 131.105 94.0181C129.828 91.8202 123.881 90.4234 122.397 90.2436L122.399 90.2412Z" fill="white"/>
<path d="M122.12 88.7223C122.12 88.7223 122.131 88.727 122.139 88.727C122.284 88.727 122.431 88.734 122.581 88.7504C123.607 88.8742 128.224 89.8038 130.888 91.7004C131.656 90.2873 131.181 88.9512 130.774 88.4748C130.748 88.4444 130.706 88.407 130.654 88.365C130.593 88.3323 130.535 88.2902 130.483 88.2412C129.891 87.8418 128.542 87.1528 126.812 86.5198C123.447 85.2889 122.239 85.5224 122.033 85.5832C121.176 85.8284 121.012 86.4847 121.024 86.9916C121.045 87.7974 121.546 88.5915 122.12 88.7247V88.7223Z" fill="white"/>
<path d="M129.553 98.5319C128.593 97.3967 124.612 95.4441 122.311 95.1942C122.004 95.1615 121.802 95.2572 121.641 95.5142C121.292 96.0677 121.304 97.1445 121.667 97.7307C122.362 98.8542 124.015 99.3914 125.223 99.7815C125.439 99.8515 125.645 99.9099 125.851 99.959C126.254 100.055 126.504 100.459 126.408 100.861C126.312 101.262 125.907 101.512 125.504 101.416C125.256 101.358 125.013 101.29 124.757 101.206C124.687 101.183 124.615 101.16 124.544 101.136V106.459C126.439 106.004 131.025 104.35 130.784 101.821C130.651 100.414 130.26 99.3704 129.55 98.5319H129.553Z" fill="white"/>
<path d="M79.9624 68.1171C79.946 68.1171 79.9296 68.1124 79.9109 68.1101C79.8921 68.1101 79.8711 68.1078 79.8523 68.1031C79.8313 68.0984 79.8102 68.0937 79.7915 68.0867C79.7727 68.0821 79.7517 68.0774 79.7329 68.0704C79.7119 68.0634 79.6908 68.0517 79.6697 68.0424C79.6533 68.0354 79.6369 68.0284 79.6205 68.019C79.5831 67.998 79.548 67.9746 79.5152 67.9489L75.111 64.3987C74.919 64.6883 74.6872 64.9546 74.4156 65.1951C75.1063 66.9773 74.6403 68.8715 73.2331 70.0254C73.2542 70.0651 73.2776 70.1024 73.2987 70.1445C73.8817 71.2703 73.9871 72.4942 73.5961 73.592C73.1957 74.7155 72.3176 75.596 71.0603 76.1402C71.0509 76.1449 71.0416 76.1472 71.0322 76.1519C70.8074 76.2383 69.3792 76.7662 67.9369 76.7662C67.2415 76.7662 66.5437 76.6447 65.9747 76.2897C65.8858 76.2337 65.7921 76.1683 65.6985 76.0912C65.5088 76.5186 65.2676 76.9834 64.9539 77.4459C64.0899 78.7282 62.5515 80.1973 59.9853 80.3935C60.2827 81.2601 60.7861 82.9605 60.8189 84.6235C60.8611 86.7933 55.162 94.6786 49.6269 101.05C45.0681 106.301 36.3089 115.532 28.8843 118.381C28.0624 118.697 27.2335 118.965 26.4023 119.189H79.9999C79.9741 119.115 79.96 119.035 79.96 118.951V68.1171H79.9624Z" fill="#6099FF"/>
<path d="M84.4487 66.7738L83.7228 63.95L81.5195 66.671L84.4487 66.7738Z" fill="white"/>
<path d="M67.8185 50.1673L64.4 47.4111L61.2812 51.3188L62.0024 51.9003C63.7 50.889 65.6457 50.3097 67.8185 50.1673Z" fill="#FFA241"/>
<path d="M121.864 82.8131C122.063 83.453 122.592 83.9622 122.962 84.0393C124.423 84.1304 126.217 84.7073 127.327 85.1137C128.305 85.4711 129.858 86.1157 130.926 86.7511C131.096 86.5455 131.277 86.2536 131.326 85.8868C131.406 85.2959 131.136 84.6302 130.527 83.9085C129.228 82.3693 126.432 81.1057 124.166 81.0309C123.218 81.0006 122.468 81.1944 122.112 81.5635C121.794 81.8951 121.71 82.3156 121.864 82.8131Z" fill="white"/>
<path d="M65.1875 46.1192L70.2122 50.1716C73.4644 50.3328 80.5565 51.1012 81.9965 54.7169C82.411 55.7563 82.3946 56.6345 81.9474 57.3212C81.6032 57.8514 81.0623 58.1854 80.4207 58.4026L84.5534 61.7333C84.5815 61.7567 84.6072 61.7823 84.633 61.808C84.6376 61.8127 84.6423 61.8174 84.647 61.8244C84.6704 61.8524 84.6915 61.8804 84.7126 61.9085C84.7126 61.9108 84.7173 61.9155 84.7173 61.9178C84.736 61.9482 84.7524 61.9785 84.7664 62.0089C84.7664 62.0112 84.7688 62.0159 84.7711 62.0183C84.7852 62.051 84.7969 62.086 84.8062 62.1187C84.8062 62.121 84.8086 62.1257 84.8086 62.128L85.4244 64.5268H99.7445C97.4967 61.2568 92.9942 55.9758 88.9365 53.187C85.5766 50.877 80.5379 48.8473 74.3635 47.315C70.4065 46.334 67.1356 45.8459 66.1826 45.7151C65.8525 45.8576 65.5223 45.9907 65.1875 46.1145V46.1192Z" fill="#6099FF"/>
<path d="M61.8758 45.5075L58.8601 49.2306C58.8367 49.2586 58.8343 49.2866 58.8367 49.3076C58.839 49.3287 58.8461 49.3543 58.8741 49.3777L60.1151 50.3774L63.2315 46.4698L62.021 45.4934C61.9765 45.4584 61.9109 45.4654 61.8735 45.5098L61.8758 45.5075Z" fill="white"/>
<path d="M77.0042 57.3426C78.2919 57.2865 80.2353 57.2024 80.6872 56.5087C80.8534 56.2518 80.8253 55.836 80.6005 55.2731C79.6687 52.9304 74.2413 51.7579 69.2775 51.6388C65.9339 51.5594 63.1523 52.5264 61.0075 54.514C58.6099 56.7376 52.0539 65.667 51.9884 65.7581C51.9416 65.8235 51.883 65.8795 51.8175 65.9263L47.5303 68.9556C47.3313 69.0958 47.2494 69.3457 47.3243 69.5793C48.0712 71.8706 50.4524 77.5323 56.4114 80.5968C56.6244 80.7065 56.882 80.6668 57.0529 80.4987L58.4578 79.1206C58.6076 78.9735 58.816 78.894 59.0267 78.9057C63.7962 79.1697 64.7632 74.246 64.803 74.0358C64.803 74.0335 64.803 74.0288 64.8053 74.0264C64.8077 74.0101 64.8124 73.9961 64.817 73.9821C64.817 73.9751 64.8217 73.9657 64.8241 73.9587C64.8288 73.9424 64.8358 73.926 64.8405 73.9097C64.8405 73.905 64.8451 73.898 64.8475 73.8933C64.8545 73.877 64.8615 73.8606 64.8685 73.8443C64.8709 73.8396 64.8732 73.8326 64.8756 73.8279C64.8826 73.8116 64.892 73.7975 64.9014 73.7812C64.9037 73.7765 64.9083 73.7695 64.913 73.7648C64.9224 73.7508 64.9318 73.7368 64.9411 73.7251C64.9458 73.7181 64.9505 73.7111 64.9552 73.7065C64.9646 73.6948 64.9739 73.6831 64.9833 73.6714C64.9903 73.6644 64.995 73.6574 65.002 73.6504C65.0114 73.6411 65.0207 73.6317 65.0324 73.6224C65.0395 73.6154 65.0488 73.6084 65.0559 73.6014C65.0652 73.592 65.0769 73.585 65.0886 73.5757C65.0933 73.571 65.098 73.5687 65.1027 73.564C65.1074 73.5593 65.1144 73.557 65.1191 73.5523C65.1238 73.55 65.1261 73.5476 65.1308 73.5453C67.0274 72.2093 69.1346 73.0665 69.2236 73.1038C69.6053 73.265 69.7855 73.7041 69.6263 74.0848C69.4648 74.4656 69.0246 74.6454 68.6429 74.4866C68.5938 74.4679 67.4816 74.0311 66.3858 74.5473C66.4865 74.8159 66.6434 74.9444 66.7698 75.0215C67.608 75.5423 69.4835 75.1429 70.4809 74.7622C71.3402 74.3861 71.9279 73.8092 72.1831 73.0922C72.4337 72.3891 72.3564 71.588 71.9678 70.8359C70.7736 68.5329 67.3973 68.2526 64.8709 68.7104C64.4635 68.7851 64.0725 68.5142 63.9975 68.1078C63.9226 67.7014 64.1942 67.3113 64.6016 67.2366C67.1257 66.7788 70.3873 67.003 72.3166 68.8389C73.2836 68.0167 73.5201 66.662 72.8622 65.3961C71.6681 63.0931 68.2941 62.8128 65.7653 63.2706C65.3579 63.3453 64.9669 63.0744 64.892 62.668C64.8171 62.2615 65.0886 61.8715 65.496 61.7967C68.2168 61.3039 71.7991 61.6029 73.6395 63.8615C74.3794 63.03 74.5035 61.8271 73.9111 60.6826C72.717 58.3796 69.3407 58.0993 66.8143 58.5571C66.4069 58.6319 66.0159 58.3609 65.9409 57.9545C65.866 57.5481 66.1376 57.158 66.545 57.0833C68.6476 56.7026 71.263 56.7937 73.1923 57.8961C73.8175 57.763 75.2902 57.457 75.9856 57.4033C76.3017 57.3799 76.6459 57.3636 77.0088 57.3472L77.0042 57.3426Z" fill="white"/>
<path d="M58.1071 81.5662C57.7114 81.9539 57.1916 82.1548 56.6647 82.1548C56.344 82.1548 56.0208 82.0801 55.7211 81.9259C49.2682 78.6069 46.6996 72.5084 45.8942 70.0395C45.6132 69.18 45.9223 68.2504 46.6598 67.7295L47.1726 67.3675C46.2665 66.7299 44.7071 65.8797 43.513 66.174C40.3778 66.9471 17.5864 85.8966 14.6596 89.3067C14.5121 89.4795 14.3014 89.5683 14.0884 89.5683C13.9151 89.5683 13.7418 89.5099 13.599 89.3885C13.2829 89.1198 13.2477 88.6457 13.517 88.3327C14.9195 86.6977 21.2671 81.1294 27.9683 75.6592C28.2211 75.4537 28.4834 75.2388 28.7527 75.0192C28.7527 74.9982 28.7503 74.9795 28.7503 74.9585V65.4452C28.7503 65.0318 29.0875 64.6955 29.5019 64.6955C29.9163 64.6955 30.2535 65.0318 30.2535 65.4452V73.807C34.9808 70.0092 41.2512 65.1883 43.1524 64.7188C44.2482 64.4479 45.5219 64.6978 46.9385 65.4639C47.6222 65.8329 48.17 66.2347 48.458 66.4589L50.844 64.7725C51.612 63.7285 57.5896 55.633 59.9802 53.414C60.2167 53.1945 60.4602 52.9866 60.7084 52.7904L57.9221 50.5435C57.5873 50.2749 57.3789 49.8918 57.3344 49.4667C57.2899 49.0416 57.4117 48.6235 57.6833 48.2895L58.3974 47.4066C58.2803 47.4066 58.1609 47.4113 58.0462 47.4113C54.7542 47.4113 52.0849 46.6218 50.5747 46.0449C50.4061 46.2878 50.2516 46.4887 50.1228 46.6429C50.4342 47.3599 50.9446 48.794 50.9798 50.5178C51.0266 52.7974 50.2259 56.016 46.1588 58.4078C44.1241 59.606 42.2486 60.0217 40.6236 60.0217C39.1509 60.0217 37.8865 59.6807 36.8961 59.2673C35.1635 58.5456 33.9811 57.5039 33.5057 57.039C30.5626 56.8802 28.3686 55.9553 26.9872 54.2899C26.2707 53.4257 25.8797 52.4868 25.6714 51.6412C21.7144 53.3603 18.8953 55.0514 16.8419 56.9363C12.262 61.1359 7.67986 69.9555 4.58684 80.5268C1.60153 90.7245 0.695377 100.207 2.22198 105.274C3.73454 110.298 7.09452 114.299 11.6837 116.543C16.6592 118.977 22.7329 119.138 28.3452 116.985C33.5455 114.99 40.8883 108.824 48.4932 100.072C55.6369 91.8479 59.3363 85.663 59.3176 84.6563C59.2918 83.3086 58.8938 81.8815 58.6222 81.0617L58.1047 81.5685L58.1071 81.5662Z" fill="#6099FF"/>
<path d="M78.4751 58.7603C78.0068 58.8 77.5315 58.821 77.0726 58.8397C76.7214 58.856 76.3912 58.87 76.0985 58.8911C75.7848 58.9144 75.2252 59.0102 74.668 59.1176C74.8857 59.3815 75.0801 59.6688 75.2463 59.9888C75.7544 60.9698 75.8972 62.0045 75.7122 62.9528L79.88 66.3139L83.0268 62.4296L78.4751 58.7603Z" fill="#FFA241"/>
<path d="M120.387 98.5187C119.727 97.4513 119.717 95.7439 120.368 94.7139C120.462 94.5667 120.57 94.4336 120.684 94.3145C120.214 93.866 119.783 93.205 119.645 92.2357C119.432 90.7245 119.905 89.8813 120.34 89.4375C120.368 89.4072 120.399 89.3792 120.429 89.3535C119.888 88.7579 119.537 87.9193 119.516 87.0271C119.486 85.8523 120.05 84.8853 121.015 84.3808C120.757 84.0468 120.551 83.6637 120.425 83.2573C120.108 82.2459 120.329 81.2486 121.024 80.5245C121.495 80.034 122.181 79.721 123.038 79.5926V66.0269H85.8042L86.1485 67.3699C86.207 67.5988 86.1531 67.8417 86.0056 68.0262C85.8628 68.2037 85.6474 68.3065 85.4203 68.3065C85.4109 68.3065 85.4038 68.3065 85.3945 68.3065L81.4609 68.1687V118.199H123.038V100.628C123.038 100.614 123.038 100.6 123.038 100.586C122.017 100.147 121.003 99.5231 120.38 98.5164L120.387 98.5187Z" fill="white"/>
<path d="M25.4608 50.0991C25.4351 49.4521 25.4983 49.0177 25.5054 48.971C25.5686 48.5622 25.9525 48.2819 26.3623 48.345C26.772 48.4081 27.053 48.7888 26.9921 49.1975C26.9898 49.2209 26.6667 51.5519 28.1652 53.3457C29.3101 54.7168 31.2301 55.4595 33.8736 55.553C34.0796 55.56 34.2739 55.6511 34.4097 55.8052C34.4191 55.8169 35.5945 57.1109 37.5379 57.905C40.0924 58.9491 42.7406 58.6851 45.4051 57.1156C51.9447 53.2687 48.7182 47.1258 48.5777 46.8665C48.4138 46.5652 48.477 46.1915 48.7276 45.9579C48.7393 45.9486 50.1019 44.6383 50.802 41.8891C51.9353 37.4513 50.5398 32.5907 49.0741 29.1479C48.9172 29.1479 48.7627 29.1386 48.6058 29.1222C47.2501 28.9798 46.0326 28.3211 45.1733 27.2654C44.3163 26.2096 43.9206 24.8829 44.0635 23.5306C44.2063 22.1782 44.8666 20.9636 45.9249 20.1088C46.9832 19.2539 48.3131 18.8592 49.6688 19.0017C50.0341 19.039 50.3876 19.1161 50.7295 19.2259L50.8372 16.8341C50.8536 16.4581 51.1486 16.1521 51.5255 16.1217L57.262 15.6476C57.3768 15.1571 57.5617 14.3957 57.7842 13.6225C58.4281 11.392 58.9221 10.5791 59.6667 10.5161C59.8915 10.4974 60.4487 10.5394 60.7695 11.3452C61.3384 12.7747 61.5703 14.4868 61.6592 15.4327L76.4032 15.5191C77.1126 11.6232 76.6139 8.58912 74.9117 6.494C72.4392 3.44591 68.2176 3.39453 68.1754 3.39453C68.0911 3.39453 68.0068 3.38051 67.9272 3.35015C66.3491 2.78958 60.7344 1.00745 54.7122 1.62874C51.7222 1.93705 48.7674 2.91805 46.1684 4.46428C43.5109 6.04554 41.2842 8.18738 39.7271 10.6585C36.4234 15.9045 35.749 22.6967 35.5289 28.0268C35.5055 28.5687 35.4962 29.1176 35.4962 29.6618C35.4962 29.8697 35.4095 30.0658 35.2597 30.2083C35.1075 30.3508 34.9038 30.4232 34.6978 30.4092C34.5409 30.3999 30.7829 30.2317 28.2658 33.9197C25.7675 37.5798 26.669 40.6863 26.7088 40.8171C26.7674 41.0086 26.7463 41.2165 26.6526 41.3916C26.559 41.5668 26.3974 41.7 26.2054 41.756C26.1727 41.7654 22.712 42.8515 21.0613 46.3737C19.9913 48.6557 20.4502 50.9516 20.9091 52.29C22.2484 51.5543 23.7563 50.8279 25.4585 50.1015L25.4608 50.0991Z" fill="black"/>
<path d="M76.1639 17.0163L60.9611 16.9275C60.5607 16.9252 60.2329 16.6098 60.2142 16.2104C60.2142 16.1894 60.1275 14.3816 59.6546 12.7256C59.308 13.6529 58.8936 15.1687 58.6127 16.5024C58.5448 16.8271 58.2708 17.0676 57.9406 17.0933L52.3119 17.5581L52.1831 20.3937C52.1644 20.7954 51.8319 21.1084 51.4339 21.1084C51.4222 21.1084 51.4104 21.1084 51.3987 21.1084C51.277 21.1037 51.1646 21.0687 51.0639 21.0126C51.0311 20.9986 50.9984 20.9846 50.9679 20.9659C50.5231 20.7043 50.0337 20.5432 49.5139 20.4894C48.5586 20.389 47.6197 20.667 46.8728 21.2696C46.1259 21.8722 45.6599 22.7317 45.5592 23.6847C45.4586 24.6376 45.7372 25.5743 46.3413 26.3193C46.9454 27.0644 47.807 27.5292 48.7623 27.6297C49.0034 27.6554 49.247 27.6554 49.4881 27.632C49.4928 27.632 49.4975 27.632 49.5022 27.632C49.5233 27.632 49.542 27.6297 49.5631 27.6297C49.5654 27.6297 49.5701 27.6297 49.5724 27.6297C49.5935 27.6297 49.6169 27.6297 49.638 27.6343C49.6403 27.6343 49.6427 27.6343 49.645 27.6343C49.6661 27.6367 49.6895 27.6413 49.7106 27.6437C49.7129 27.6437 49.7153 27.6437 49.7199 27.6437C49.741 27.6484 49.7621 27.653 49.7832 27.66C49.7832 27.66 49.7879 27.66 49.7902 27.66C49.8113 27.667 49.8323 27.674 49.8534 27.6834C49.8534 27.6834 49.8558 27.6834 49.8581 27.6834C49.8792 27.6927 49.9003 27.7021 49.919 27.7138C49.9401 27.7254 49.9587 27.7371 49.9798 27.7511C49.9985 27.7651 50.0197 27.7792 50.0361 27.7932C50.0548 27.8072 50.0712 27.8235 50.0876 27.8399C50.0876 27.8399 50.0899 27.8422 50.0923 27.8446C50.1063 27.8586 50.1203 27.8749 50.1344 27.8913C50.1391 27.8959 50.1414 27.9006 50.1438 27.9053C50.1555 27.9193 50.1648 27.9333 50.1765 27.9473C50.1835 27.9567 50.1882 27.966 50.1929 27.973C50.1999 27.9847 50.2069 27.994 50.214 28.0057C50.221 28.0197 50.228 28.0337 50.235 28.0478C50.2374 28.0548 50.2421 28.0594 50.2444 28.0664C50.2444 28.0688 50.2468 28.0735 50.2491 28.0758C50.2491 28.0758 50.2491 28.0781 50.2491 28.0805C51.8928 31.7989 53.5669 37.2901 52.2206 42.3703C51.9747 43.2952 51.6633 44.0753 51.3449 44.7176C53.0354 45.3366 56.0418 46.1401 59.6686 45.8271L60.7012 44.5518C61.2584 43.8651 62.2723 43.7577 62.9607 44.3135L63.8059 44.9956C64.2859 44.8414 64.7636 44.6686 65.2366 44.4771L65.2108 39.7519C64.0003 39.9762 62.764 40.0929 61.5418 40.0929C61.3709 40.0929 61.1999 40.0929 61.029 40.0859C60.919 40.0836 60.8089 40.0789 60.6988 40.0743C60.2844 40.0556 59.9637 39.7029 59.9848 39.2895C60.0035 38.876 60.3594 38.5584 60.7714 38.5771C60.8721 38.5817 60.9705 38.5864 61.0712 38.5888C65.857 38.7172 71.8277 36.8487 74.3775 32.3875C76.1195 29.3394 76.8008 24.8362 76.4004 19.0016C76.3536 18.3336 76.274 17.6609 76.1616 17.0046L76.1639 17.0163ZM51.3308 24.5699C51.1974 24.8245 50.9352 24.9693 50.6659 24.9693C50.5488 24.9693 50.4271 24.9413 50.317 24.8829C49.1486 24.2686 47.8234 24.2663 47.8117 24.2686H47.807C47.3949 24.2686 47.0577 23.9369 47.0554 23.5258C47.053 23.1124 47.3832 22.7738 47.7976 22.7714C47.8655 22.7714 49.5022 22.7621 51.0171 23.5585C51.3847 23.7524 51.5252 24.2055 51.3308 24.5699ZM60.535 21.5989C60.5256 20.8258 61.1438 20.1928 61.9188 20.1811C62.6938 20.1718 63.3283 20.7884 63.34 21.5615C63.3517 22.3346 62.7312 22.9676 61.9562 22.9793C61.1812 22.9886 60.5467 22.372 60.535 21.5989ZM67.6833 28.8699C67.2642 28.9587 66.8708 28.9961 66.5032 28.9961C64.0939 28.9961 62.7781 27.3541 62.7172 27.2723C62.462 26.9453 62.5205 26.4758 62.8483 26.2212C63.1738 25.9667 63.6444 26.025 63.8996 26.3474C63.9558 26.4174 65.1616 27.8679 67.3742 27.4031C67.7793 27.3167 68.1797 27.5759 68.264 27.9824C68.3506 28.3864 68.0907 28.7858 67.6833 28.8699ZM69.3364 25.6093C69.0624 25.9199 68.5871 25.9503 68.2757 25.6794C67.873 25.3267 67.4749 25.5789 67.3227 25.7027C67.1823 25.8242 67.009 25.8849 66.8358 25.8849C66.625 25.8849 66.4166 25.7961 66.2668 25.6256C65.9951 25.3127 66.0326 24.8362 66.3464 24.5652C66.8568 24.1238 68.1235 23.5515 69.2685 24.5536C69.5799 24.8268 69.6103 25.301 69.3364 25.6116V25.6093ZM71.9541 23.1918C71.1791 23.2012 70.5445 22.5846 70.5328 21.8114C70.5235 21.0383 71.1416 20.4054 71.9166 20.3937C72.6916 20.3843 73.3261 21.001 73.3378 21.7741C73.3472 22.5472 72.7291 23.1802 71.9541 23.1918Z" fill="white"/>
<path d="M61.2174 24.9699C61.2174 26.6376 59.8594 27.99 58.1876 27.99C56.5158 27.99 55.1602 26.6353 55.1602 24.9676C55.1602 23.2999 56.5182 21.9475 58.1899 21.9475C59.8617 21.9475 61.2174 23.3022 61.2174 24.9699Z" fill="#FFD0D2"/>
<path d="M89.2064 76.2122C88.9769 76.2122 88.7615 76.107 88.6187 75.9295L86.8111 73.6592C86.5536 73.3346 86.6074 72.8628 86.9329 72.6058C87.2583 72.3489 87.7313 72.4026 87.9889 72.7273L89.1854 74.2291L91.5127 71.0736C91.7586 70.7396 92.2292 70.6695 92.564 70.9148C92.8988 71.16 92.9691 71.6295 92.7232 71.9635L89.8129 75.9085C89.6747 76.0954 89.4546 76.2098 89.2228 76.2145C89.2181 76.2145 89.2134 76.2145 89.2087 76.2145L89.2064 76.2122Z" fill="#6099FF"/>
<path d="M89.2064 85.6234C88.9769 85.6234 88.7615 85.5183 88.6187 85.3408L86.8111 83.0728C86.5536 82.7481 86.6074 82.2763 86.9329 82.0194C87.2583 81.7625 87.7313 81.8162 87.9889 82.1409L89.1854 83.6427L91.5127 80.4872C91.7586 80.1532 92.2292 80.0831 92.564 80.3284C92.8988 80.5736 92.9691 81.0431 92.7232 81.3771L89.8129 85.3221C89.6747 85.5089 89.4546 85.6234 89.2228 85.6281C89.2181 85.6281 89.2134 85.6281 89.2087 85.6281L89.2064 85.6234Z" fill="#6099FF"/>
<path d="M89.2064 112.668C88.9769 112.668 88.7615 112.563 88.6187 112.386L86.8111 110.115C86.5536 109.791 86.6074 109.319 86.9329 109.062C87.2583 108.805 87.7313 108.859 87.9889 109.183L89.1854 110.685L91.5127 107.53C91.7586 107.196 92.2292 107.126 92.564 107.371C92.8988 107.616 92.9691 108.086 92.7232 108.42L89.8129 112.365C89.6747 112.551 89.4546 112.666 89.2228 112.671C89.2181 112.671 89.2134 112.671 89.2087 112.671L89.2064 112.668Z" fill="#6099FF"/>
<path d="M87.3984 94.4409C87.5904 94.4409 87.7824 94.3685 87.9299 94.2213L91.2922 90.8673C91.5849 90.5753 91.5849 90.1012 91.2922 89.8069C90.9995 89.5149 90.5219 89.5149 90.2292 89.8069L86.8669 93.1609C86.5742 93.4529 86.5742 93.927 86.8669 94.2213C87.0144 94.3685 87.2064 94.4409 87.3984 94.4409Z" fill="#FFA241"/>
<path d="M90.7607 94.4409C90.9527 94.4409 91.1447 94.3685 91.2922 94.2213C91.5849 93.9294 91.5849 93.4552 91.2922 93.1609L87.9299 89.8069C87.6372 89.5149 87.1596 89.5149 86.8669 89.8069C86.5742 90.0988 86.5742 90.573 86.8669 90.8673L90.2292 94.2213C90.3767 94.3685 90.5687 94.4409 90.7607 94.4409Z" fill="#FFA241"/>
<path d="M87.3984 103.258C87.5904 103.258 87.7824 103.185 87.9299 103.038L91.2922 99.6842C91.5849 99.3922 91.5849 98.9181 91.2922 98.6238C90.9995 98.3318 90.5219 98.3318 90.2292 98.6238L86.8669 101.978C86.5742 102.27 86.5742 102.744 86.8669 103.038C87.0144 103.185 87.2064 103.258 87.3984 103.258Z" fill="#FFA241"/>
<path d="M90.7607 103.258C90.9527 103.258 91.1447 103.185 91.2922 103.038C91.5849 102.746 91.5849 102.272 91.2922 101.978L87.9299 98.6238C87.6372 98.3318 87.1619 98.3318 86.8669 98.6238C86.5742 98.9157 86.5742 99.3899 86.8669 99.6842L90.2292 103.038C90.3767 103.185 90.5687 103.258 90.7607 103.258Z" fill="#FFA241"/>
<path d="M98.3505 74.6172H116.248C116.663 74.6172 117 74.2809 117 73.8674C117 73.454 116.663 73.1177 116.248 73.1177H98.3505C97.9361 73.1177 97.599 73.454 97.599 73.8674C97.599 74.2809 97.9361 74.6172 98.3505 74.6172Z" fill="#C4C4C4"/>
<path d="M98.3505 83.7168H116.248C116.663 83.7168 117 83.3805 117 82.967C117 82.5536 116.663 82.2173 116.248 82.2173H98.3505C97.9361 82.2173 97.599 82.5536 97.599 82.967C97.599 83.3805 97.9361 83.7168 98.3505 83.7168Z" fill="#C4C4C4"/>
<path d="M98.3505 92.8164H116.248C116.663 92.8164 117 92.4801 117 92.0667C117 91.6532 116.663 91.3169 116.248 91.3169H98.3505C97.9361 91.3169 97.599 91.6532 97.599 92.0667C97.599 92.4801 97.9361 92.8164 98.3505 92.8164Z" fill="#C4C4C4"/>
<path d="M98.3505 101.916H116.248C116.663 101.916 117 101.58 117 101.166C117 100.753 116.663 100.417 116.248 100.417H98.3505C97.9361 100.417 97.599 100.753 97.599 101.166C97.599 101.58 97.9361 101.916 98.3505 101.916Z" fill="#C4C4C4"/>
<path d="M98.3505 111.016H116.248C116.663 111.016 117 110.679 117 110.266C117 109.852 116.663 109.516 116.248 109.516H98.3505C97.9361 109.516 97.599 109.852 97.599 110.266C97.599 110.679 97.9361 111.016 98.3505 111.016Z" fill="#C4C4C4"/>
<path d="M63.3364 21.5617C63.327 20.7885 62.6902 20.1719 61.9152 20.1813C61.1402 20.1906 60.522 20.8259 60.5314 21.599C60.5407 22.3721 61.1776 22.9888 61.9526 22.9794C62.7276 22.9701 63.3457 22.3348 63.3364 21.5617Z" fill="black"/>
<path d="M71.9152 20.3966C71.1402 20.4059 70.522 21.0412 70.5314 21.8144C70.5407 22.5875 71.1776 23.2041 71.9526 23.1948C72.7276 23.1854 73.3457 22.5501 73.3364 21.777C73.327 21.0039 72.6902 20.3872 71.9152 20.3966Z" fill="black"/>
<path d="M19.6019 119.988C19.8524 119.998 20.103 120 20.3512 120C22.3788 120 24.4065 119.727 26.4084 119.189H14.4297C16.0874 119.661 17.8153 119.93 19.5995 119.988H19.6019Z" fill="black"/>
<path d="M80.7157 119.701H123.795C124.128 119.701 124.409 119.486 124.507 119.189H80.0039C80.1046 119.486 80.3855 119.701 80.7157 119.701Z" fill="black"/>
<path d="M124.546 107.952C124.574 107.954 124.604 107.959 124.632 107.959C124.688 107.959 124.745 107.952 124.801 107.94C125.124 107.866 132.696 106.074 132.282 101.681C132.19 100.704 131.98 99.8449 131.645 99.0882C131.891 98.7682 132.261 98.2216 132.551 97.5373C133.195 96.0167 133.143 94.5382 132.403 93.2629C132.296 93.0784 132.167 92.8986 132.022 92.7257C133.279 90.7567 132.787 88.7317 132.073 87.7133C132.385 87.342 132.708 86.8071 132.808 86.1157C132.958 85.081 132.577 84.0136 131.673 82.9438C129.952 80.9048 126.857 79.7229 124.541 79.5524V65.2813C124.541 64.8679 124.204 64.5315 123.789 64.5315H101.541C99.4222 61.1962 94.4162 55.142 89.7848 51.9561C82.2291 46.7592 69.7563 44.7155 66.7359 44.2834L66.7078 39.4275C67.5906 39.1939 68.4475 38.9019 69.26 38.5563C71.2127 37.7201 72.8587 36.5896 74.1301 35.2279C74.657 35.5782 75.5327 36.2603 76.3077 37.3417C77.8998 39.5676 78.1597 43.1716 77.4198 46.4532C77.3285 46.8573 77.5837 47.2591 77.9888 47.3478C78.045 47.3595 78.0988 47.3665 78.155 47.3665C78.4992 47.3665 78.8083 47.1306 78.8879 46.7802C79.9416 42.1065 78.7849 38.1872 77.4831 36.4004C76.6472 35.2536 75.7223 34.4968 75.0877 34.06C75.3008 33.7611 75.4998 33.4551 75.6801 33.1398C77.572 29.8301 78.3166 25.0419 77.8952 18.9107C77.846 18.1843 77.757 17.4532 77.6329 16.7409C77.6329 16.7315 77.6282 16.7222 77.6259 16.7128C77.6305 16.7082 77.6352 16.7011 77.6376 16.6965C77.6446 16.6871 77.6493 16.6755 77.6563 16.6661C77.6634 16.6568 77.6703 16.6451 77.675 16.6357C77.6844 16.6217 77.6914 16.6054 77.6985 16.589C77.7008 16.582 77.7055 16.5774 77.7078 16.5703C77.7289 16.5236 77.7429 16.4746 77.7547 16.4255C78.7263 11.7775 78.1621 8.1198 76.0782 5.55053C73.3973 2.24552 69.1429 1.92786 68.3164 1.8975C66.5205 1.2692 60.7536 -0.50126 54.5582 0.136385C51.3528 0.468054 48.1848 1.51678 45.3986 3.17513C42.5373 4.87551 40.1373 7.18785 38.4562 9.85989C34.9651 15.4048 34.2557 22.447 34.0286 27.9639C34.0145 28.2839 34.0052 28.6085 34.0005 28.9309C32.5277 29.0476 29.3224 29.7063 27.0231 33.0767C24.8034 36.328 24.9158 39.2663 25.1218 40.565C23.8832 41.0928 21.1953 42.5503 19.7014 45.7385C18.3341 48.6535 19.0248 51.5381 19.5891 53.0539C18.1233 53.9462 16.8847 54.8618 15.8287 55.8311C11.0569 60.2082 6.31549 69.2824 3.14755 80.106C0.0849674 90.5676 -0.818785 100.375 0.785089 105.705C2.4194 111.131 6.05563 115.459 11.0241 117.888C12.1176 118.423 13.2555 118.858 14.4262 119.189H26.4049C27.2361 118.965 28.065 118.696 28.8868 118.381C36.3115 115.531 45.0707 106.301 49.6295 101.05C55.1646 94.6784 60.8636 86.7931 60.8215 84.6232C60.7887 82.9602 60.2853 81.2621 59.9879 80.3933C62.5518 80.1971 64.0925 78.7279 64.9565 77.4456C65.2679 76.9831 65.5114 76.516 65.701 76.0909C65.7947 76.168 65.8883 76.2334 65.9773 76.2894C66.5463 76.6421 67.244 76.7659 67.9394 76.7659C69.3817 76.7659 70.81 76.2381 71.0348 76.1516C71.0441 76.147 71.0535 76.1446 71.0628 76.14C72.3202 75.5957 73.1982 74.7152 73.5986 73.5917C73.9896 72.4939 73.8843 71.27 73.3013 70.1442C73.2802 70.1045 73.2568 70.0648 73.2357 70.0251C74.6429 68.8713 75.1112 66.977 74.4181 65.1949C74.6897 64.9543 74.9215 64.688 75.1135 64.3984L79.5177 67.9487C79.5505 67.9744 79.5856 67.9977 79.6231 68.0187C79.6395 68.0281 79.6559 68.0327 79.6723 68.0421C79.6933 68.0514 79.7144 68.0631 79.7355 68.0701C79.7542 68.0771 79.7729 68.0818 79.794 68.0865C79.8151 68.0911 79.8338 68.0982 79.8549 68.1028C79.8736 68.1075 79.8947 68.1075 79.9134 68.1098C79.9298 68.1098 79.9462 68.1145 79.9649 68.1168V118.951C79.9649 119.035 79.979 119.114 80.0047 119.189H124.508C124.534 119.114 124.548 119.035 124.548 118.951V107.952H124.546ZM124.546 106.462V101.139C124.618 101.162 124.691 101.186 124.759 101.209C125.014 101.291 125.257 101.361 125.506 101.419C125.908 101.515 126.313 101.265 126.409 100.863C126.505 100.462 126.255 100.057 125.852 99.9617C125.646 99.9127 125.44 99.8543 125.225 99.7842C124.016 99.3918 122.363 98.8569 121.668 97.7335C121.305 97.1472 121.293 96.0705 121.642 95.5169C121.804 95.26 122.005 95.1642 122.312 95.1969C124.614 95.4468 128.594 97.3995 129.554 98.5346C130.263 99.3731 130.654 100.417 130.788 101.823C131.027 104.353 126.442 106.007 124.548 106.462H124.546ZM130.797 97.6844C130.764 97.6447 130.734 97.605 130.701 97.5653C129.42 96.0494 125.098 94.015 122.539 93.7114C122.324 93.6507 121.317 93.2956 121.137 92.025C121.036 91.3173 121.137 90.7708 121.417 90.4858C121.684 90.2149 122.099 90.2009 122.401 90.2359C123.883 90.4134 129.83 91.8125 131.109 94.0104C131.919 95.4048 131.315 96.8482 130.8 97.6821L130.797 97.6844ZM121.019 86.9893C121.008 86.4824 121.172 85.8261 122.029 85.5808C122.237 85.5224 123.443 85.2889 126.807 86.5175C128.538 87.1504 129.886 87.8395 130.479 88.2389C130.53 88.2879 130.586 88.33 130.65 88.3627C130.704 88.4047 130.743 88.4421 130.769 88.4724C131.174 88.9489 131.652 90.2849 130.884 91.698C128.219 89.8014 123.602 88.8718 122.576 88.748C122.427 88.7294 122.279 88.7224 122.134 88.7247C122.127 88.7247 122.122 88.72 122.115 88.72C121.542 88.5869 121.038 87.7927 121.019 86.9869V86.9893ZM124.166 81.0309C126.433 81.1056 129.226 82.3693 130.528 83.9085C131.137 84.6302 131.406 85.2959 131.326 85.8868C131.277 86.2535 131.097 86.5455 130.926 86.751C129.858 86.1134 128.306 85.4711 127.327 85.1137C126.217 84.7073 124.424 84.1327 122.963 84.0393C122.593 83.9645 122.064 83.453 121.865 82.813C121.71 82.3155 121.794 81.8974 122.113 81.5634C122.469 81.1944 123.218 80.9982 124.166 81.0309ZM74.3643 47.3198C80.5386 48.8497 85.5773 50.8794 88.9373 53.1917C92.9926 55.9806 97.4975 61.2616 99.7453 64.5315H85.4252L84.8093 62.1328C84.8093 62.1328 84.807 62.1258 84.807 62.1234C84.7976 62.0884 84.7859 62.0557 84.7719 62.023C84.7719 62.0207 84.7695 62.016 84.7672 62.0137C84.7531 61.981 84.7368 61.9506 84.718 61.9226C84.718 61.9202 84.7133 61.9156 84.7133 61.9132C84.6946 61.8829 84.6712 61.8548 84.6478 61.8291C84.6431 61.8245 84.6384 61.8198 84.6337 61.8128C84.6103 61.7871 84.5846 61.7614 84.5541 61.738L80.4215 58.4073C81.0631 58.1901 81.6039 57.8561 81.9481 57.3259C82.3953 56.6392 82.4117 55.761 81.9973 54.7216C80.5573 51.1036 73.4652 50.3352 70.2129 50.1763L65.1883 46.1239C65.5231 46.0001 65.8556 45.8647 66.1834 45.7245C67.1363 45.8576 70.4073 46.3435 74.3643 47.3245V47.3198ZM84.4488 66.7738L81.5197 66.671L83.7253 63.95L84.4488 66.7738ZM64.3992 47.4109L67.8177 50.167C65.6448 50.3095 63.6991 50.8887 62.0016 51.9001L61.2804 51.3185L64.3992 47.4109ZM60.112 50.3772L58.8711 49.3775C58.843 49.3542 58.8359 49.3262 58.8336 49.3075C58.8313 49.2888 58.8336 49.2584 58.857 49.2304L61.8728 45.5073C61.9102 45.4629 61.9758 45.4559 62.0203 45.4909L63.2308 46.4673L60.1144 50.3749L60.112 50.3772ZM74.3783 32.397C71.8285 36.8582 65.8579 38.7268 61.072 38.5983C60.9713 38.596 60.873 38.5913 60.7723 38.5866C60.3602 38.5679 60.0066 38.8856 59.9856 39.299C59.9668 39.7124 60.2853 40.0628 60.6997 40.0838C60.8098 40.0885 60.9198 40.0931 61.0299 40.0955C61.2008 40.1002 61.3717 40.1025 61.5426 40.1025C62.7649 40.1025 64.0011 39.9857 65.2116 39.7615L65.2374 44.4866C64.7645 44.6781 64.2868 44.8533 63.8068 45.0051L62.9616 44.3231C62.2732 43.7672 61.2593 43.8746 60.7021 44.5613L59.6695 45.8366C56.045 46.1496 53.0362 45.3438 51.3457 44.7272C51.6642 44.0825 51.9756 43.3047 52.2214 42.3798C53.5677 37.2997 51.8937 31.8084 50.25 28.09C50.25 28.09 50.25 28.0877 50.25 28.0853C50.25 28.083 50.2476 28.0783 50.2453 28.076C50.2429 28.069 50.2383 28.0643 50.2359 28.0573C50.2289 28.0433 50.2218 28.0293 50.2148 28.0153C50.2078 28.0036 50.2008 27.9919 50.1938 27.9826C50.1891 27.9732 50.1821 27.9639 50.1774 27.9569C50.168 27.9429 50.1563 27.9288 50.1446 27.9148C50.1423 27.9102 50.1376 27.9055 50.1352 27.9008C50.1212 27.8845 50.1071 27.8681 50.0931 27.8541C50.0931 27.8541 50.0908 27.8518 50.0884 27.8494C50.072 27.8331 50.0556 27.8167 50.0369 27.8027C50.0181 27.7887 49.9994 27.7723 49.9807 27.7607C49.9619 27.7467 49.9409 27.735 49.9198 27.7233C49.8987 27.7116 49.88 27.7023 49.8589 27.6929C49.8589 27.6929 49.8566 27.6929 49.8543 27.6929C49.8332 27.6836 49.8121 27.6766 49.7911 27.6696C49.7911 27.6696 49.7864 27.6696 49.784 27.6696C49.763 27.6626 49.7419 27.6579 49.7208 27.6532C49.7185 27.6532 49.7161 27.6532 49.7114 27.6532C49.6904 27.6486 49.6693 27.6462 49.6459 27.6439C49.6435 27.6439 49.6412 27.6439 49.6388 27.6439C49.6178 27.6439 49.5943 27.6415 49.5733 27.6392C49.5709 27.6392 49.5663 27.6392 49.564 27.6392C49.5429 27.6392 49.5241 27.6392 49.5031 27.6416C49.4984 27.6416 49.4937 27.6416 49.489 27.6416C49.2502 27.6649 49.0067 27.6626 48.7631 27.6392C47.8078 27.5388 46.9486 27.074 46.3422 26.3289C45.7381 25.5838 45.4594 24.6495 45.5601 23.6942C45.6608 22.7413 46.1267 21.8841 46.8736 21.2791C47.6205 20.6765 48.5571 20.3986 49.5147 20.499C50.0345 20.5527 50.5239 20.7139 50.9688 20.9755C50.9992 20.9942 51.032 21.0082 51.0648 21.0222C51.1631 21.0782 51.2778 21.1133 51.3996 21.1179C51.4113 21.1179 51.423 21.1179 51.4347 21.1179C51.8351 21.1179 52.1676 20.805 52.184 20.4032L52.3128 17.5677L57.9415 17.1029C58.2717 17.0749 58.5456 16.8343 58.6135 16.512C58.8968 15.1783 59.3089 13.6624 59.6554 12.7351C60.1284 14.3911 60.2151 16.199 60.2151 16.22C60.2315 16.6194 60.5616 16.9347 60.962 16.9371L76.1648 17.0258C76.2772 17.6821 76.3592 18.3548 76.4036 19.0228C76.804 24.8551 76.125 29.3583 74.3807 32.4087L74.3783 32.397ZM21.0641 46.3715C22.7148 42.8493 26.1755 41.7632 26.2083 41.7538C26.4003 41.6978 26.5595 41.5646 26.6555 41.3895C26.7491 41.2143 26.7702 41.0064 26.7117 40.8149C26.6718 40.6841 25.7704 37.5776 28.2687 33.9176C30.7857 30.2295 34.5437 30.3977 34.7006 30.407C34.9089 30.421 35.1103 30.3486 35.2625 30.2061C35.4147 30.0637 35.499 29.8675 35.499 29.6596C35.499 29.1154 35.5107 28.5642 35.5318 28.0246C35.7519 22.6945 36.4262 15.9047 39.73 10.6564C41.2847 8.1852 43.5137 6.04336 46.1712 4.4621C48.7725 2.91586 51.7274 1.93487 54.7151 1.62656C60.7372 1.00526 66.3519 2.7874 67.9301 3.34797C68.0097 3.376 68.094 3.39001 68.1783 3.39235C68.2204 3.39235 72.4396 3.44373 74.9145 6.49182C76.6143 8.58694 77.1154 11.621 76.406 15.5169L61.6621 15.4305C61.5731 14.4846 61.3413 12.7725 60.7723 11.3431C60.4515 10.5372 59.8943 10.4952 59.6695 10.5139C58.9249 10.577 58.4309 11.3898 57.787 13.6204C57.5646 14.3935 57.3796 15.1526 57.2649 15.6454L51.5284 16.1196C51.1514 16.1499 50.8564 16.4559 50.84 16.8319L50.7323 19.2237C50.3905 19.1116 50.0369 19.0368 49.6716 18.9995C48.316 18.857 46.9884 19.2517 45.9277 20.1066C44.8694 20.9615 44.2067 22.1784 44.0662 23.5284C43.9234 24.8808 44.3191 26.2051 45.1761 27.2632C46.033 28.3189 47.253 28.9799 48.6086 29.12C48.7632 29.1364 48.92 29.1434 49.0769 29.1457C50.5426 32.5909 51.9358 37.4491 50.8049 41.887C50.1048 44.6337 48.7398 45.9441 48.7304 45.9557C48.4799 46.187 48.4166 46.563 48.5805 46.8643C48.721 47.1236 51.9475 53.2665 45.4079 57.1134C42.7434 58.6806 40.0952 58.9469 37.5407 57.9028C35.5973 57.1087 34.4219 55.8147 34.4126 55.803C34.2768 55.6489 34.0825 55.5578 33.8764 55.5508C31.233 55.4574 29.313 54.7146 28.168 53.3436C26.6695 51.5497 26.9926 49.2187 26.995 49.1954C27.0558 48.7866 26.7749 48.4059 26.3651 48.3428C25.9554 48.2798 25.5713 48.56 25.5081 48.9688C25.5011 49.0132 25.4379 49.4499 25.4637 50.0969C23.7614 50.8233 22.2559 51.5474 20.9143 52.2855C20.4554 50.9471 19.9964 48.6535 21.0665 46.3692L21.0641 46.3715ZM48.4963 100.069C40.8937 108.821 33.5509 114.987 28.3483 116.982C22.7359 119.135 16.6623 118.974 11.6868 116.541C7.09758 114.296 3.73994 110.295 2.22504 105.271C0.698434 100.205 1.60459 90.7217 4.5899 80.5241C7.68292 69.9527 12.265 61.1331 16.8449 56.9335C18.8983 55.0509 21.7174 53.3576 25.6744 51.6385C25.8828 52.484 26.2738 53.4253 26.9903 54.2872C28.3717 55.9525 30.5633 56.8775 33.5088 57.0363C33.9841 57.5011 35.1665 58.5428 36.8992 59.2645C37.8896 59.678 39.1563 60.019 40.6267 60.019C42.2517 60.019 44.1272 59.6032 46.1619 58.405C50.2289 56.0109 51.0273 52.7923 50.9828 50.515C50.9477 48.7913 50.4349 47.3572 50.1259 46.6401C50.2546 46.4859 50.4092 46.2851 50.5777 46.0422C52.0856 46.6191 54.7549 47.4085 58.0493 47.4085C58.1663 47.4085 58.2834 47.4086 58.4005 47.4039L57.6863 48.2868C57.4171 48.6208 57.293 49.0389 57.3375 49.464C57.3819 49.8891 57.5903 50.2721 57.9252 50.5407L60.7114 52.7877C60.4632 52.9839 60.2198 53.1917 59.9833 53.4113C57.5927 55.6279 51.6127 63.7257 50.847 64.7698L48.4611 66.4562C48.1731 66.2319 47.6252 65.8302 46.9415 65.4611C45.525 64.6974 44.2489 64.4451 43.1555 64.7161C41.2542 65.1855 34.9839 70.0088 30.2565 73.8043V65.4425C30.2565 65.029 29.9194 64.6927 29.505 64.6927C29.0905 64.6927 28.7534 65.029 28.7534 65.4425V74.9558C28.7534 74.9768 28.7534 74.9955 28.7557 75.0165C28.4841 75.236 28.2218 75.4509 27.9713 75.6565C21.2702 81.129 14.9226 86.695 13.5201 88.33C13.2508 88.6453 13.2859 89.1171 13.602 89.3857C13.7449 89.5071 13.9181 89.5655 14.0914 89.5655C14.3021 89.5655 14.5129 89.4768 14.6627 89.3039C17.5895 85.8938 40.3832 66.9443 43.516 66.1712C44.7078 65.8769 46.2672 66.7271 47.1757 67.3647L46.6629 67.7268C45.9254 68.2476 45.6163 69.1772 45.8972 70.0368C46.7027 72.5056 49.2712 78.6041 55.7242 81.9231C56.0239 82.0773 56.347 82.152 56.6678 82.152C57.1946 82.152 57.7144 81.9488 58.1101 81.5634L58.6276 81.0566C58.8969 81.8764 59.2949 83.3012 59.323 84.6512C59.3417 85.6603 55.6423 91.8428 48.4986 100.067L48.4963 100.069ZM73.1889 57.8888C71.2595 56.7864 68.6441 56.6953 66.5415 57.076C66.1341 57.1507 65.8626 57.5408 65.9375 57.9472C66.0124 58.3536 66.4034 58.6246 66.8108 58.5498C69.3396 58.092 72.7136 58.3723 73.9077 60.6753C74.5001 61.8198 74.3783 63.0227 73.6361 63.8542C71.7957 61.5956 68.2157 61.2966 65.4926 61.7894C65.0852 61.8642 64.8136 62.2542 64.8885 62.6607C64.9635 63.0671 65.3545 63.338 65.7619 63.2633C68.2906 62.8055 71.667 63.0857 72.8588 65.3887C73.5167 66.6547 73.2802 68.0094 72.3132 68.8316C70.3839 66.9957 67.1223 66.7715 64.5982 67.2293C64.1908 67.304 63.9192 67.6941 63.9941 68.1005C64.069 68.5069 64.46 68.7778 64.8675 68.7031C67.3962 68.2453 70.7725 68.5256 71.9643 70.8286C72.3553 71.5807 72.4302 72.3818 72.1797 73.0849C71.9245 73.8019 71.3345 74.3788 70.4775 74.7549C69.48 75.1333 67.6046 75.535 66.7664 75.0141C66.6399 74.9347 66.483 74.8063 66.3823 74.54C67.4781 74.0238 68.5927 74.4606 68.6395 74.4793C69.0212 74.6404 69.4637 74.4606 69.6229 74.0775C69.7845 73.6968 69.6042 73.2577 69.2202 73.0965C69.1312 73.0592 67.0239 72.202 65.1274 73.538C65.1227 73.5403 65.1203 73.5427 65.1157 73.545C65.111 73.5497 65.1039 73.552 65.0993 73.5567C65.0946 73.5613 65.0899 73.5637 65.0852 73.5684C65.0735 73.5777 65.0641 73.5847 65.0524 73.594C65.0454 73.6011 65.036 73.6081 65.029 73.6151C65.0196 73.6244 65.008 73.6338 64.9986 73.6431C64.9916 73.6501 64.9845 73.6571 64.9798 73.6641C64.9705 73.6758 64.9611 73.6875 64.9518 73.6991C64.9471 73.7062 64.9424 73.7108 64.9377 73.7178C64.9283 73.7319 64.919 73.7435 64.9096 73.7575C64.9049 73.7622 64.9026 73.7692 64.8979 73.7739C64.8886 73.7879 64.8792 73.8043 64.8721 73.8206C64.8698 73.8253 64.8675 73.8323 64.8651 73.837C64.8581 73.8533 64.8487 73.8697 64.844 73.886C64.844 73.8907 64.8394 73.8977 64.837 73.9024C64.83 73.9187 64.8253 73.9351 64.8206 73.9514C64.8206 73.9584 64.8159 73.9678 64.8136 73.9748C64.8089 73.9888 64.8066 74.0051 64.8019 74.0191C64.8019 74.0215 64.8019 74.0261 64.7995 74.0285C64.7597 74.2387 63.7928 79.1647 59.0233 78.8984C58.8125 78.8867 58.6065 78.9638 58.4543 79.1133L57.0495 80.4914C56.8785 80.6595 56.621 80.6992 56.4079 80.5895C50.4513 77.5274 48.0701 71.8656 47.3209 69.572C47.2459 69.3407 47.3278 69.0885 47.5269 68.9483L51.814 65.9189C51.8796 65.8722 51.9381 65.8162 51.9849 65.7508C52.0505 65.6597 58.6065 56.7303 61.0041 54.5067C63.1489 52.5191 65.9305 51.5521 69.274 51.6315C74.2378 51.7506 79.6629 52.9208 80.5971 55.2658C80.8219 55.8287 80.85 56.2445 80.6838 56.5014C80.2319 57.1951 78.2885 57.2815 77.0007 57.3353C76.6378 57.3516 76.2959 57.3656 75.9775 57.3913C75.2844 57.445 73.8093 57.751 73.1842 57.8841L73.1889 57.8888ZM79.876 66.3137L75.7083 62.9526C75.8956 62.0043 75.7527 60.9696 75.2423 59.9886C75.0761 59.671 74.8817 59.3813 74.664 59.1174C75.2212 59.01 75.7808 58.9142 76.0946 58.8908C76.3872 58.8675 76.7174 58.8535 77.0686 58.8394C77.5299 58.8184 78.0052 58.7997 78.4711 58.76L83.0229 62.4294L79.876 66.3137ZM123.042 100.63V118.201H81.4658V68.1706L85.3994 68.3084C85.3994 68.3084 85.4181 68.3084 85.4252 68.3084C85.6523 68.3084 85.8677 68.2056 86.0105 68.0281C86.158 67.8436 86.2118 67.6006 86.1533 67.3717L85.8091 66.0287H123.042V79.5945C122.185 79.7229 121.499 80.0359 121.029 80.5264C120.331 81.2505 120.113 82.2455 120.429 83.2592C120.556 83.6656 120.762 84.0486 121.019 84.3826C120.052 84.8871 119.49 85.8541 119.521 87.029C119.544 87.9212 119.896 88.7597 120.434 89.3553C120.404 89.3834 120.373 89.4114 120.345 89.4394C119.91 89.8809 119.437 90.7264 119.65 92.2376C119.786 93.2069 120.216 93.8702 120.689 94.3163C120.572 94.4331 120.467 94.5663 120.373 94.7158C119.722 95.7458 119.729 97.4509 120.392 98.5206C121.015 99.5273 122.026 100.151 123.049 100.59C123.049 100.604 123.049 100.618 123.049 100.632L123.042 100.63Z" fill="black"/>
<path d="M51.0165 23.5587C49.5016 22.7622 47.8649 22.7692 47.797 22.7715C47.3826 22.7762 47.0501 23.1125 47.0547 23.526C47.0571 23.937 47.3943 24.2687 47.8064 24.2687H47.8111C47.8111 24.2687 49.1457 24.2687 50.3164 24.883C50.4288 24.9414 50.5482 24.9694 50.6652 24.9694C50.9345 24.9694 51.1967 24.8246 51.3302 24.57C51.5245 24.2033 51.3841 23.7502 51.0165 23.5587Z" fill="black"/>
<path d="M67.3706 27.4032C65.1579 27.868 63.9521 26.4175 63.8959 26.3474C63.6407 26.0251 63.1701 25.9667 62.8446 26.2213C62.5168 26.4759 62.4583 26.9477 62.7135 27.2724C62.7767 27.3518 64.0926 28.9961 66.4996 28.9961C66.8672 28.9961 67.2605 28.9587 67.6797 28.87C68.0847 28.7835 68.3446 28.3865 68.2603 27.9824C68.1737 27.5783 67.7756 27.3191 67.3706 27.4032Z" fill="black"/>
<path d="M69.2617 24.5517C68.1168 23.5497 66.8501 24.1219 66.3396 24.5634C66.0259 24.8343 65.9884 25.3108 66.26 25.6238C66.4099 25.7943 66.6183 25.8831 66.829 25.8831C67.0023 25.8831 67.1755 25.8223 67.316 25.7009C67.4682 25.5771 67.8662 25.3248 68.269 25.6775C68.5804 25.9508 69.0557 25.9204 69.3296 25.6074C69.6036 25.2968 69.5731 24.8226 69.2617 24.5494V24.5517Z" fill="black"/>
<path d="M106.142 53.6103C108.378 55.0257 111.422 55.7101 114.709 55.5419C114.723 55.5419 114.735 55.5419 114.749 55.5419C114.946 55.5419 115.135 55.619 115.276 55.7568C115.426 55.904 115.508 56.1072 115.501 56.3174C115.477 56.9433 115.449 57.6254 115.423 58.2443L118.427 55.0865C118.521 54.9884 118.638 54.9183 118.769 54.8809C122.939 53.7084 125.943 51.2302 127.009 48.0817C127.287 47.2595 127.407 46.3673 127.364 45.4354C127.236 42.5858 125.611 39.5541 123.225 37.7112C120.769 35.8123 116.966 34.9224 113.054 35.3265C109.057 35.7399 105.631 37.3795 103.655 39.825C101.93 41.9598 101.206 44.5244 101.623 47.0447C102.058 49.6746 103.704 52.0687 106.142 53.6103Z" fill="black"/>
<path d="M113.265 50.6321C113.244 50.6321 113.225 50.6321 113.204 50.6321C112.785 50.6134 112.398 50.3962 112.164 50.0505L108.622 44.8185C108.212 44.2136 108.371 43.3891 108.98 42.9803C109.586 42.5716 110.413 42.7304 110.823 43.3377L113.365 47.0958L118.121 41.2963C118.584 40.731 119.42 40.647 119.989 41.1094C120.556 41.5719 120.64 42.4057 120.177 42.9733L114.293 50.1509C114.04 50.4592 113.663 50.6367 113.265 50.6367V50.6321Z" fill="white"/>
<path d="M105.332 54.8762C107.638 56.336 110.675 57.1044 113.962 57.0647C113.901 58.5969 113.829 60.1618 113.826 60.1805C113.812 60.4935 113.992 60.7831 114.283 60.9046C114.379 60.9443 114.477 60.9653 114.578 60.9653C114.779 60.9653 114.978 60.8836 115.123 60.7318L119.371 56.2659C123.922 54.9322 127.217 52.1317 128.425 48.5604C128.762 47.5608 128.91 46.4863 128.858 45.3675C128.711 42.0976 126.856 38.6267 124.138 36.5269C121.342 34.3664 117.242 33.3854 112.892 33.8362C108.502 34.2893 104.706 36.1299 102.48 38.8837C100.48 41.3572 99.6489 44.3422 100.136 47.2898C100.642 50.3402 102.536 53.1057 105.334 54.8762H105.332ZM103.648 39.8249C105.624 37.3795 109.05 35.7398 113.046 35.3264C116.959 34.9223 120.759 35.8145 123.218 37.7111C125.604 39.554 127.226 42.5857 127.357 45.4353C127.399 46.3696 127.28 47.2595 127.001 48.0816C125.936 51.2301 122.932 53.7083 118.762 54.8808C118.631 54.9182 118.514 54.9883 118.42 55.0864L115.416 58.2442C115.442 57.6276 115.47 56.9433 115.493 56.3173C115.5 56.1071 115.421 55.9039 115.268 55.7567C115.128 55.6189 114.938 55.5418 114.742 55.5418C114.728 55.5418 114.716 55.5418 114.702 55.5418C111.412 55.71 108.371 55.0257 106.135 53.6102C103.697 52.0687 102.051 49.6746 101.616 47.0446C101.199 44.5244 101.92 41.9598 103.648 39.8249Z" fill="black"/>
</svg>
