<svg width="157" height="144" viewBox="0 0 157 144" fill="none" xmlns="http://www.w3.org/2000/svg">
<g clip-path="url(#clip0_2059_242189)">
<path d="M66.3539 46.3845C66.9106 46.9466 67.6788 47.2203 68.6364 47.1999C69.7053 47.1766 70.5125 46.8475 71.0386 46.2214C71.5953 45.5604 71.7595 44.678 71.8013 44.0723L65.3379 44.2179C65.452 44.8469 65.722 45.7438 66.3539 46.3845Z" fill="#F9D0D2"/>
<path d="M47.328 58.9212C45.9613 59.9813 45.0149 60.9365 44.6196 61.647C44.6085 61.7053 44.589 61.7606 44.564 61.813C44.7031 62.3605 45.6969 64.2301 48.7421 68.1848C50.788 70.8436 53.1261 73.5956 54.2813 74.7197C55.2221 74.1197 57.911 71.1901 60.2743 68.3595C58.1643 67.1655 52.4386 63.7933 49.0538 60.5433C48.9035 60.4006 48.8283 60.2055 48.8228 60.0104C48.8116 59.958 48.8061 59.9056 48.8061 59.8502V57.8438C48.3913 58.1262 47.8708 58.499 47.328 58.9183V58.9212Z" fill="#6099FF"/>
<path d="M79.506 29.2965C78.2367 23.5305 73.9723 20.8426 72.3105 19.998C70.5541 24.9545 66.5792 28.4404 60.7644 30.1061C57.2516 31.1108 54.0505 31.1836 52.6949 31.1574L52.4221 33.426C52.4221 33.426 52.4166 33.4522 52.4138 33.4638C52.411 33.4871 52.4054 33.5104 52.3999 33.5308C52.3943 33.557 52.3859 33.5803 52.3748 33.6065C52.3665 33.6269 52.3609 33.6444 52.3525 33.6619C52.3386 33.691 52.3247 33.7172 52.308 33.7405C52.3024 33.7521 52.2969 33.7638 52.2913 33.7725C52.2913 33.7754 52.2857 33.7783 52.283 33.7842C52.2635 33.8104 52.2412 33.8366 52.2189 33.8599C52.2078 33.8715 52.1994 33.8803 52.1911 33.8919C52.1577 33.921 52.1243 33.9502 52.0853 33.9735C52.0798 33.9764 52.077 33.9793 52.0714 33.9822C52.0352 34.0026 51.999 34.023 51.9601 34.0375C51.9489 34.0433 51.935 34.0433 51.9239 34.0492C51.8933 34.0579 51.8626 34.0696 51.8292 34.0754C51.8125 34.0754 51.7958 34.0783 51.7791 34.0812C51.7569 34.0812 51.7318 34.087 51.7095 34.087C51.704 34.087 51.6984 34.087 51.6928 34.087C51.6845 34.087 51.6761 34.087 51.6678 34.087C51.6511 34.087 51.6372 34.087 51.6205 34.0841C51.5954 34.0812 51.5704 34.0754 51.5481 34.0696C51.5481 34.0696 51.5481 34.0696 51.5453 34.0696C51.4507 34.0463 51.3644 34.0026 51.2892 33.9472C50.7103 33.5075 50.0283 33.2221 49.3129 33.126C48.1772 32.9746 47.0527 33.2949 46.1452 34.0259C45.2378 34.7597 44.6588 35.8168 44.5141 37.005C44.2135 39.4599 45.878 41.711 48.2218 42.0255C48.6254 42.0809 49.029 42.0751 49.427 42.011C49.4326 42.011 49.4382 42.011 49.4437 42.011C49.4577 42.011 49.4688 42.0081 49.4827 42.0081C49.4938 42.0081 49.5078 42.0081 49.5189 42.0081C49.5245 42.0081 49.53 42.0081 49.5356 42.0081C49.5356 42.0081 49.5467 42.0081 49.5523 42.0081C49.5662 42.0081 49.5801 42.0081 49.5941 42.0081C49.6052 42.0081 49.6135 42.0081 49.6247 42.011C49.6386 42.011 49.6525 42.0139 49.6664 42.0168C49.6776 42.0168 49.6859 42.0197 49.697 42.0226C49.711 42.0256 49.7221 42.0285 49.736 42.0343C49.7471 42.0372 49.7555 42.0401 49.7666 42.043C49.7778 42.0459 49.7889 42.0518 49.8028 42.0576C49.814 42.0605 49.8223 42.0663 49.8334 42.0721C49.8446 42.078 49.8557 42.0838 49.8668 42.0896C49.8752 42.0954 49.8863 42.1013 49.8947 42.1042C49.9058 42.11 49.9169 42.1187 49.9281 42.1246C49.9364 42.1304 49.9448 42.1362 49.9531 42.142C49.9643 42.1508 49.9754 42.1595 49.9865 42.1682C49.9949 42.1741 50.0005 42.1799 50.0088 42.1857C50.0199 42.1945 50.0311 42.2061 50.0394 42.2148C50.045 42.2207 50.0506 42.2265 50.0561 42.2323C50.0673 42.244 50.0756 42.2556 50.0867 42.2673C50.0923 42.2731 50.0979 42.2789 50.1034 42.2876C50.1118 42.2993 50.1201 42.3109 50.1313 42.3255C50.1368 42.3313 50.1396 42.3401 50.1452 42.3459C50.1535 42.3575 50.1591 42.3721 50.1675 42.3837C50.173 42.3925 50.1758 42.4012 50.1814 42.41C50.1869 42.4216 50.1925 42.4333 50.1981 42.4478C50.2036 42.4595 50.2064 42.4682 50.212 42.4798C50.2148 42.4915 50.2203 42.5031 50.2231 42.5148C50.2287 42.5264 50.2315 42.541 50.2343 42.5526C50.2343 42.5643 50.2398 42.573 50.2426 42.5847C50.2454 42.5992 50.2482 42.6138 50.251 42.6284C50.251 42.6342 50.251 42.6371 50.2538 42.6429C50.2538 42.6487 50.2538 42.6546 50.2538 42.6604C50.2538 42.675 50.2565 42.6866 50.2565 42.7012C50.2565 42.7128 50.2565 42.7274 50.2565 42.739C50.2565 42.7449 50.2565 42.7507 50.2565 42.7565L50.2482 59.6499C53.6998 62.8678 59.5981 66.2779 61.2821 67.2244C62.4373 66.0188 65.978 62.2213 67.5368 59.4489C67.5284 59.4023 67.5228 59.3528 67.5228 59.3033V56.7057C66.0865 57.0814 64.5083 57.3842 62.7685 57.6288C62.7351 57.6347 62.7045 57.6347 62.6739 57.6347C62.3176 57.6347 62.0114 57.3609 61.9613 56.9824C61.9084 56.5717 62.1868 56.1932 62.5793 56.1378C64.5333 55.8641 66.3537 55.5088 68.0267 55.0167C68.0267 55.0167 68.0294 55.0167 68.0322 55.0167C76.3689 52.5734 81.0007 46.8248 79.8177 31.734C79.7537 30.9186 79.6507 30.1032 79.5088 29.3053L79.506 29.2965ZM51.1445 38.1728C51.0137 38.4203 50.7687 38.5601 50.5154 38.5601C50.3957 38.5601 50.276 38.531 50.1675 38.464C48.8035 37.669 47.2475 37.634 47.2308 37.634C46.8356 37.6282 46.5182 37.2846 46.5238 36.871C46.5294 36.4604 46.8495 36.1284 47.242 36.1284H47.2503C47.3283 36.1284 49.1765 36.1634 50.8661 37.1477C51.2141 37.3486 51.3366 37.8088 51.1445 38.1699V38.1728ZM68.7504 40.188C69.2709 39.6492 70.6042 38.9066 71.9153 39.9579C72.2298 40.2113 72.2882 40.6831 72.0461 41.0121C71.8039 41.3412 71.353 41.4024 71.0384 41.149C70.3982 40.6335 69.8248 41.1898 69.7636 41.2567C69.6244 41.4023 69.4407 41.4752 69.257 41.4752C69.0733 41.4752 68.8868 41.3994 68.7448 41.2509C68.4665 40.9568 68.4692 40.4792 68.7504 40.188ZM61.8444 37.1477C61.7971 36.2158 62.4791 35.4208 63.3698 35.3713C64.2605 35.3218 65.0204 36.0353 65.0677 36.9671C65.1151 37.899 64.4331 38.694 63.5424 38.7436C62.6516 38.7931 61.8917 38.0796 61.8444 37.1477ZM72.1268 47.2034C71.3224 48.1644 70.1588 48.6711 68.6669 48.7031C68.6195 48.7031 68.575 48.7031 68.5277 48.7031C67.2306 48.7031 66.1589 48.2838 65.3433 47.4538C63.8458 45.9307 63.8152 43.5836 63.8152 43.4845C63.8152 43.0739 64.1269 42.7361 64.5194 42.7274L72.4998 42.5468C72.8728 42.5381 73.1873 42.8264 73.2291 43.2137C73.2402 43.3098 73.4713 45.59 72.1268 47.1975V47.2034ZM75.0523 38.4232C74.1616 38.4727 73.4017 37.7593 73.3543 36.8274C73.307 35.8955 73.989 35.1005 74.8797 35.051C75.7705 35.0014 76.5304 35.7149 76.5777 36.6468C76.625 37.5787 75.943 38.3737 75.0523 38.4232Z" fill="white"/>
<path d="M15.9052 141.613L70.02 142.481V110.66L22.5634 111.178H22.5551C22.1626 111.178 21.8397 110.846 21.8369 110.433C21.8342 110.016 22.1515 109.676 22.5495 109.673L30.7276 109.583C30.7136 109.521 30.7025 109.457 30.7025 109.393V91.2797C30.7025 90.8632 31.0254 90.5283 31.4207 90.5283C31.8159 90.5283 32.1388 90.8662 32.1388 91.2797V109.393C32.1388 109.454 32.1305 109.513 32.1193 109.568L70.7326 109.146H70.7409C70.766 109.146 70.791 109.146 70.8133 109.149C70.8189 109.149 70.8245 109.149 70.83 109.149C70.8467 109.149 70.8662 109.154 70.8829 109.157C70.8913 109.157 70.8996 109.163 70.908 109.163C70.9219 109.166 70.9358 109.169 70.9525 109.175C70.9608 109.178 70.972 109.181 70.9803 109.186C70.9942 109.192 71.0054 109.195 71.0193 109.201C71.0276 109.204 71.0388 109.21 71.0471 109.216C71.0583 109.221 71.0694 109.227 71.0833 109.233C71.0917 109.239 71.1 109.245 71.1084 109.251C71.1195 109.256 71.1306 109.265 71.1418 109.271C71.1501 109.277 71.1585 109.283 71.1668 109.288C71.178 109.297 71.1891 109.303 71.1974 109.312C71.2058 109.318 71.2114 109.326 71.2197 109.332C71.2281 109.341 71.2392 109.35 71.2476 109.358C71.2559 109.367 71.2615 109.373 71.267 109.382C71.2754 109.39 71.2837 109.402 71.2921 109.411C71.2977 109.419 71.3032 109.428 71.3088 109.434C71.3171 109.446 71.3255 109.454 71.3311 109.466C71.3366 109.475 71.3422 109.484 71.3478 109.492C71.3533 109.504 71.3617 109.516 71.3672 109.527C71.3728 109.536 71.3756 109.548 71.3812 109.556C71.3867 109.568 71.3923 109.58 71.3979 109.591C71.4034 109.603 71.4062 109.612 71.409 109.623C71.4146 109.635 71.4173 109.647 71.4229 109.661C71.4257 109.673 71.4285 109.684 71.4313 109.696C71.434 109.708 71.4368 109.722 71.4396 109.734C71.4396 109.746 71.4424 109.757 71.4452 109.769C71.4452 109.783 71.4507 109.795 71.4507 109.81C71.4507 109.821 71.4507 109.833 71.4507 109.845C71.4507 109.856 71.4507 109.871 71.4507 109.882C71.4507 109.882 71.4507 109.885 71.4507 109.888C71.4507 109.888 71.4507 109.888 71.4507 109.891V114.123C73.5913 112.568 76.1271 111.012 79.0053 109.484C81.9892 107.899 89.4686 106.079 95.1581 106.079C95.1526 102.063 94.7935 89.3198 94.7907 89.1917C94.7796 88.7752 95.0913 88.4287 95.4894 88.417C95.8847 88.4083 96.2187 88.7316 96.2298 89.148C96.2326 89.279 96.5945 102.133 96.6 106.123C97.9194 106.204 99.0969 106.408 100.035 106.769C101.477 107.32 102.423 108.479 102.565 109.865C102.696 111.164 102.095 112.419 100.995 113.144C99.8735 113.884 97.7218 114.577 96.0934 115.037C99.506 116.432 102.835 118.028 103.768 119.263C105.385 121.403 104.978 122.952 104.589 123.683C104.141 124.528 103.311 125.101 102.281 125.329C102.663 125.896 102.988 126.616 102.974 127.411L116.427 132.056C121.502 133.809 127.021 133.136 131.575 130.212C136.129 127.288 139.202 122.443 140.004 116.915L147.967 62.1465L116.227 57.7754L109.802 101.295C109.741 101.705 109.376 101.988 108.981 101.924C108.589 101.86 108.319 101.475 108.38 101.065L111.197 81.9724L108.308 77.578C103.011 69.5201 94.6376 64.3132 85.3434 63.2939L74.1925 62.0708C74.2649 63.4075 73.9671 65.3994 73.3046 68.0262C72.7813 70.0996 71.7486 73.4748 71.1947 74.1242C71.0082 74.3455 70.7716 74.4445 70.4821 74.4445C70.0089 74.4445 69.3909 74.1795 68.6087 73.7631C67.796 73.3292 66.716 72.671 65.4021 71.8061C63.8405 70.7781 62.304 69.6948 61.5246 69.1357C60.9178 69.8608 59.7404 71.2528 58.5296 72.5924C57.5024 73.7282 56.6451 74.6105 55.9882 75.2104C55.4844 75.6706 54.7829 76.3112 54.1566 76.3112C53.9562 76.3112 53.7614 76.2442 53.586 76.087C52.4225 75.0444 49.6779 71.8265 47.3397 68.76C44.6202 65.1955 43.5931 63.4017 43.2479 62.429L33.6893 64.9655C21.8091 68.1193 12.5817 77.8052 9.60606 90.2459L1.87618 122.568C0.782245 127.14 1.73143 131.904 4.48157 135.64C7.23171 139.374 11.3931 141.549 15.8996 141.61L15.9052 141.613Z" fill="#6099FF"/>
<path d="M36.8792 62.5763L43.4038 60.8435C44.5729 58.8225 47.9967 56.5772 48.8067 56.0618L48.8123 43.5599C48.7983 43.5599 48.7816 43.5599 48.7677 43.5599C48.5228 43.5599 48.2778 43.5425 48.0329 43.5104C44.9014 43.0911 42.6801 40.0828 43.0809 36.8067C43.4818 33.5305 46.3544 31.2037 49.4887 31.6259C50.0565 31.7017 50.6104 31.8706 51.1282 32.1152L51.3481 30.2864C51.3954 29.8903 51.7322 29.602 52.1108 29.6311C52.1497 29.634 56.0968 29.8874 60.4196 28.6439C66.1036 27.0073 69.7278 23.6816 71.1947 18.7572C71.2532 18.562 71.384 18.399 71.5593 18.3087C71.7347 18.2184 71.9379 18.2039 72.1216 18.2708C72.3694 18.3611 77.4103 20.2919 79.9239 25.9473C80.3303 21.2529 79.4201 17.601 77.2071 15.0675C73.0374 10.2945 65.5608 11.0341 65.4857 11.04C65.3827 11.0516 65.2797 11.04 65.1795 11.0021C62.0369 9.88093 58.4684 9.65669 54.5714 10.3381C54.3459 10.3789 54.0982 10.4255 53.8338 10.4808C48.6675 11.5671 44.3753 13.5939 41.074 16.5061C37.4805 19.6745 35.1618 23.833 34.1764 28.8652C33.9092 30.231 33.7505 31.7075 33.706 33.2509L33.4165 43.426C33.4137 43.5629 33.372 43.6968 33.3024 43.8104C33.2523 43.889 28.4256 51.8916 32.0414 58.374C33.0546 60.1912 34.658 61.592 36.8041 62.5326C36.8291 62.5442 36.857 62.5588 36.8792 62.5734V62.5763Z" fill="black"/>
<path d="M77.0706 51.2421C75.1193 53.5281 72.5195 55.1619 68.9565 56.2859V58.3856C70.34 58.703 72.9788 59.4311 73.7749 60.5202L79.1499 61.1114C79.1666 61.0619 79.1916 61.0153 79.2195 60.9687C82.1923 56.2335 80.4915 51.478 78.8465 48.6328C78.3315 49.588 77.7386 50.4558 77.0706 51.2421Z" fill="black"/>
<path d="M68.9259 59.9189C67.4228 62.7524 63.9545 66.5353 62.5293 68.0351C65.6441 70.2629 69.1291 72.5169 70.2453 72.8896C70.5876 72.1354 71.3253 70.0183 71.9488 67.5255C72.8729 63.827 72.8924 61.9225 72.628 61.4158C72.4053 61.0255 70.7407 60.3616 68.9259 59.916V59.9189Z" fill="#6099FF"/>
<path d="M148.404 4.79883H139.77V7.27998C139.77 7.69642 139.447 8.03131 139.052 8.03131H121.596V23.3143H148.404V4.79883Z" fill="black"/>
<path d="M84.8755 118.221C84.9841 118.239 84.9924 118.241 86.6876 118.905C90.0445 120.219 98.963 123.705 100.772 123.914C101.95 124.051 102.957 123.676 103.333 122.962C103.703 122.263 103.458 121.285 102.64 120.204C102.32 119.782 100.873 118.524 94.3256 115.955C90.6625 114.52 87.1831 113.372 87.1497 113.361C86.7711 113.235 86.5595 112.813 86.6792 112.417C86.7989 112.021 87.2025 111.8 87.5811 111.925C88.1879 112.123 90.7738 112.985 93.7216 114.109C94.2811 113.978 98.6318 112.93 100.23 111.878C100.861 111.462 101.209 110.754 101.137 110.029C101.053 109.214 100.474 108.544 99.5448 108.189C95.1662 106.514 83.7844 108.646 79.6619 110.833C75.7204 112.924 73.0649 114.75 71.5312 115.918C71.5062 115.935 71.4811 115.95 71.4561 115.964V139.215C78.6682 137.523 82.1643 132.304 82.2005 132.252C82.3703 131.993 82.6765 131.873 82.9688 131.949C83.7927 132.164 84.6083 132.389 85.3988 132.607C90.1113 133.906 94.1809 135.03 95.4808 132.919C95.7536 132.479 95.8343 132.086 95.7341 131.719C95.5504 131.052 94.7905 130.539 94.4648 130.368C89.9109 129.043 82.5095 126.66 82.0947 126.529C81.7162 126.407 81.5019 125.985 81.6188 125.589C81.7357 125.193 82.1393 124.969 82.5178 125.091C87.133 126.576 96.2908 129.459 97.9136 129.73C99.8843 130.059 100.987 129.439 101.493 127.712C101.755 126.826 100.873 125.801 100.397 125.373C98.3701 125.015 92.1071 122.627 86.1866 120.312C85.3988 120.003 84.7141 119.735 84.5804 119.689C84.2269 119.593 83.9959 119.229 84.0544 118.841C84.1184 118.431 84.4858 118.154 84.8783 118.218L84.8755 118.221Z" fill="white"/>
<path d="M119.497 48.9487C119.489 48.9807 118.737 52.286 119.711 56.5785C119.725 56.6338 119.731 56.6892 119.731 56.7445L142.793 59.9217C142.812 59.8955 142.829 59.8722 142.848 59.8489C147.224 55.1894 154.553 48.3604 154.904 48.0343C155.711 47.2072 155.783 45.8909 155.071 44.9707C154.33 44.0126 152.969 43.8495 152.039 44.6038L145.156 50.2009C144.841 50.4572 144.39 50.396 144.145 50.0699C143.9 49.7408 143.959 49.269 144.271 49.0127L151.154 43.4156C151.413 43.2059 151.694 43.037 151.987 42.9118C152.026 42.8448 152.073 42.7807 152.131 42.7254L153.195 41.7731C153.698 41.3188 153.996 40.6607 154.01 39.9647C154.024 39.2687 153.751 38.5989 153.264 38.1242C152.457 37.3408 151.221 37.2535 150.322 37.9204L148.449 39.3095L148.44 39.3153L140.502 45.1978C140.376 45.291 140.232 45.3376 140.087 45.3376C139.861 45.3376 139.639 45.227 139.5 45.0202C139.271 44.6824 139.347 44.2106 139.672 43.9718L147.608 38.0922L149.078 36.9885C149.57 36.6186 149.885 36.0449 149.941 35.413C149.996 34.7811 149.788 34.155 149.37 33.6977C148.655 32.9173 147.519 32.7979 146.67 33.4094L143.578 35.6431C143.533 35.6809 143.488 35.7188 143.441 35.7566L143.135 36.0013C143.071 36.0508 143.001 36.0857 142.929 36.1119L135.77 41.2839C135.644 41.3742 135.502 41.4179 135.361 41.4179C135.132 41.4179 134.907 41.3043 134.768 41.0917C134.542 40.751 134.623 40.2821 134.951 40.0462L142.678 34.4636C143.06 34.1142 143.299 33.6366 143.352 33.1037C143.411 32.5212 143.241 31.9534 142.876 31.5078C142.2 30.6866 141.053 30.5352 140.204 31.1496L126.339 41.7091C126.325 41.7207 126.308 41.7265 126.295 41.7382C126.281 41.7469 126.269 41.7557 126.256 41.7615C126.222 41.779 126.189 41.7964 126.155 41.8081C126.15 41.8081 126.144 41.8139 126.139 41.8139C126.097 41.8285 126.055 41.8372 126.013 41.843C126.002 41.843 125.994 41.843 125.983 41.843C125.961 41.843 125.938 41.8489 125.913 41.8489C125.902 41.8489 125.891 41.8489 125.88 41.8489C125.871 41.8489 125.863 41.8489 125.855 41.8489C125.816 41.8459 125.777 41.8401 125.738 41.8285C125.729 41.8285 125.724 41.8226 125.716 41.8226C125.677 41.811 125.64 41.7964 125.604 41.779C125.601 41.779 125.599 41.779 125.596 41.7761C125.557 41.7557 125.521 41.7324 125.485 41.7033C125.482 41.7033 125.479 41.7003 125.473 41.6974C125.437 41.6683 121.677 38.663 118.275 37.964C116.839 37.6699 115.447 38.2844 114.729 39.5308C113.894 40.981 114.186 42.8273 115.425 43.9165C117.109 45.3959 118.47 46.6626 119.419 48.3954C119.511 48.5643 119.539 48.7623 119.494 48.9516L119.497 48.9487ZM130.358 53.9896C134.999 50.297 141.621 51.325 141.902 51.3716C142.294 51.4357 142.562 51.8201 142.5 52.2307C142.439 52.6413 142.072 52.9209 141.679 52.8597C141.618 52.851 135.377 51.89 131.227 55.1894C131.096 55.2913 130.943 55.3438 130.793 55.3438C130.576 55.3438 130.361 55.2418 130.219 55.0467C129.98 54.7147 130.041 54.243 130.356 53.9925L130.358 53.9896Z" fill="white"/>
<path d="M84.5859 119.695C84.6168 119.704 84.6364 119.707 84.6476 119.71C84.628 119.707 84.6056 119.701 84.5859 119.695Z" fill="#FFD0D2"/>
<path d="M138.331 4.04525C138.331 3.62882 138.654 3.29392 139.049 3.29392H146.537V1.50586H123.069V6.52932H138.331V4.04817V4.04525Z" fill="white"/>
<path d="M98.5594 11.4092C96.3826 11.4092 94.6123 9.55712 94.6123 7.27982C94.6123 5.00252 96.3826 3.15039 98.5594 3.15039C100.736 3.15039 102.506 5.00252 102.506 7.27982C102.506 9.55712 100.736 11.4092 98.5594 11.4092ZM98.5594 4.65306C97.1759 4.65306 96.0514 5.82957 96.0514 7.27691C96.0514 8.72425 97.1759 9.90075 98.5594 9.90075C99.9428 9.90075 101.067 8.72425 101.067 7.27691C101.067 5.82957 99.9428 4.65306 98.5594 4.65306Z" fill="#6099FF"/>
<path d="M18.3656 53.1726H5.44716C5.04911 53.1726 4.729 52.8348 4.729 52.4213C4.729 52.0077 5.05189 51.6699 5.44716 51.6699H18.3656C18.7636 51.6699 19.0837 52.0077 19.0837 52.4213C19.0837 52.8348 18.7608 53.1726 18.3656 53.1726Z" fill="#6099FF"/>
<path d="M14.6829 57.9109H5.44716C5.04911 57.9109 4.729 57.5731 4.729 57.1595C4.729 56.746 5.05189 56.4082 5.44716 56.4082H14.6829C15.081 56.4082 15.4011 56.746 15.4011 57.1595C15.4011 57.5731 15.0782 57.9109 14.6829 57.9109Z" fill="#6099FF"/>
<path d="M62.3707 40.617C62.5321 42.6235 61.1098 44.3883 59.1891 44.5601C57.2713 44.729 55.5844 43.2409 55.4202 41.2315C55.2588 39.225 56.6811 37.4603 58.6018 37.2885C60.5196 37.1196 62.2065 38.6077 62.3707 40.617Z" fill="#FDCECA"/>
<path d="M65.0679 36.9635C65.0206 36.0316 64.2607 35.3182 63.37 35.3677C62.4793 35.4172 61.7973 36.2122 61.8446 37.1441C61.8919 38.076 62.6518 38.7894 63.5426 38.7399C64.4333 38.6904 65.1153 37.8954 65.0679 36.9635Z" fill="black"/>
<path d="M74.8802 35.0493C73.9895 35.0988 73.3075 35.8938 73.3549 36.8257C73.4022 37.7576 74.1621 38.4711 75.0528 38.4216C75.9436 38.3721 76.6255 37.577 76.5782 36.6452C76.5309 35.7133 75.771 34.9998 74.8802 35.0493Z" fill="black"/>
<path d="M50.8663 37.1482C49.1767 36.1639 47.3284 36.1289 47.2505 36.1289H47.2422C46.8497 36.1289 46.5296 36.458 46.524 36.8715C46.5184 37.285 46.8358 37.6287 47.231 37.6345C47.2477 37.6345 48.8037 37.6723 50.1677 38.4645C50.279 38.5285 50.3987 38.5606 50.5156 38.5606C50.7689 38.5606 51.0138 38.4208 51.1447 38.1732C51.3367 37.8092 51.2143 37.352 50.8663 37.1511V37.1482Z" fill="black"/>
<path d="M69.2568 41.4745C69.4405 41.4745 69.6215 41.4017 69.7634 41.2561C69.8274 41.192 70.3981 40.6329 71.0383 41.1483C71.3528 41.4017 71.8037 41.3405 72.0459 41.0114C72.2881 40.6824 72.2296 40.2106 71.9151 39.9572C70.6068 38.903 69.2735 39.6456 68.7502 40.1873C68.4691 40.4785 68.4663 40.9561 68.7446 41.2502C68.8866 41.3987 69.0703 41.4745 69.2568 41.4745Z" fill="black"/>
<path d="M72.4996 42.5488L64.5192 42.7294C64.1267 42.7381 63.8122 43.0759 63.815 43.4865C63.815 43.5856 63.8484 45.9327 65.3431 47.4558C66.1587 48.2858 67.2304 48.7051 68.5275 48.7051C68.572 48.7051 68.6194 48.7051 68.6667 48.7051C70.1614 48.6702 71.325 48.1664 72.1266 47.2054C73.4711 45.5979 73.24 43.3176 73.2289 43.2215C73.1871 42.8342 72.8726 42.5459 72.4996 42.5547V42.5488ZM71.0382 46.2181C70.5122 46.8443 69.7049 47.1733 68.6361 47.1966C67.6785 47.217 66.9103 46.9433 66.3536 46.3812C65.7217 45.7435 65.4517 44.8436 65.3376 44.2146L71.8009 44.069C71.7592 44.6718 71.595 45.5542 71.0382 46.2181Z" fill="black"/>
<path d="M15.8852 143.121L70.7265 144.001C70.7265 144.001 70.7348 144.001 70.7376 144.001C70.9269 144.001 71.1078 143.922 71.2414 143.785C71.3778 143.643 71.4557 143.45 71.4557 143.249V140.727C71.4725 140.727 71.4919 140.733 71.5086 140.733C71.5587 140.733 71.6116 140.727 71.6645 140.716C78.3367 139.187 82.036 134.912 83.0798 133.534C83.7395 133.709 84.3936 133.89 85.0283 134.064C90.2808 135.515 94.818 136.764 96.6858 133.738C97.3148 132.716 97.2619 131.845 97.1088 131.295C97.0894 131.222 97.0643 131.149 97.0393 131.079C97.3065 131.144 97.5236 131.193 97.6823 131.219C98.0942 131.289 98.4756 131.321 98.8263 131.321C100.961 131.321 102.05 130.145 102.604 128.878L115.976 133.497C117.98 134.19 120.051 134.53 122.111 134.53C125.676 134.53 129.211 133.505 132.329 131.505C137.245 128.348 140.56 123.118 141.428 117.151L149.501 61.6218C149.528 61.4209 149.481 61.217 149.364 61.0569C149.247 60.8967 149.075 60.7889 148.883 60.7627L144.568 60.1687C149.041 55.5005 155.794 49.2161 155.867 49.1491C155.875 49.1433 155.88 49.1345 155.889 49.1287C157.244 47.7542 157.372 45.5613 156.184 44.0266C155.686 43.383 155.018 42.9549 154.297 42.7569C155.006 42.0347 155.421 41.0446 155.443 40.002C155.466 38.8779 155.026 37.7946 154.238 37.0287C153.428 36.2424 152.351 35.8901 151.302 35.9949C151.332 35.8493 151.354 35.7037 151.368 35.5552C151.463 34.4893 151.112 33.4322 150.402 32.6605C149.197 31.3442 147.282 31.1403 145.846 32.1771L144.796 32.9342C144.81 32.0518 144.518 31.2102 143.961 30.5317C142.801 29.1222 140.827 28.863 139.369 29.926C139.366 29.9289 139.36 29.9318 139.357 29.9347L125.91 40.1738C124.772 39.3206 121.607 37.119 118.548 36.4929C116.51 36.0764 114.525 36.9646 113.493 38.7585C112.287 40.8495 112.711 43.5053 114.495 45.0721C115.981 46.3796 117.198 47.5037 118.03 48.9045C117.855 49.848 117.443 52.7951 118.219 56.543L115.714 56.1965C115.327 56.1441 114.968 56.4236 114.91 56.8284L111.516 79.8169L109.493 76.7388C103.956 68.3198 95.2077 62.877 85.4931 61.8111L80.7222 61.2869C82.1445 58.7766 82.5983 56.0334 82.0666 53.1213C81.6045 50.5935 80.48 48.4531 79.5892 47.064C81.2065 43.1646 81.7521 38.0567 81.2455 31.6063C81.1814 30.7822 81.0757 29.958 80.9365 29.1484C82.139 22.5408 81.2399 17.462 78.2643 14.0548C73.9164 9.07499 66.6931 9.43609 65.4934 9.5322C62.1587 8.37316 58.4037 8.14601 54.3314 8.85949C54.0892 8.90026 53.8248 8.95268 53.5465 9.01092C48.1408 10.1496 43.6315 12.2842 40.1437 15.3594C36.2969 18.7521 33.8139 23.196 32.7645 28.566C32.4806 30.0163 32.3136 31.5772 32.2663 33.208L31.9824 43.1821C31.6428 43.7703 30.6045 45.6924 29.9059 48.2609C28.798 52.3437 29.1042 56.1033 30.7966 59.1348C31.7152 60.7802 33.0373 62.1227 34.7381 63.1449L33.3407 63.5147C20.9484 66.8054 11.3202 76.9106 8.21652 89.8871L0.486625 122.209C-0.715864 127.233 0.327963 132.463 3.3481 136.563C6.36824 140.663 10.9388 143.054 15.8852 143.118V143.121ZM84.0513 118.846C83.9928 119.23 84.2238 119.594 84.5774 119.693C84.711 119.74 85.3957 120.008 86.1835 120.316C92.104 122.631 98.367 125.019 100.393 125.378C100.867 125.806 101.749 126.831 101.49 127.716C100.984 129.443 99.8785 130.063 97.9105 129.734C96.2877 129.46 87.1299 126.58 82.5148 125.095C82.1362 124.973 81.7326 125.197 81.6157 125.593C81.4988 125.989 81.7131 126.411 82.0917 126.534C82.5036 126.668 89.9078 129.047 94.4617 130.372C94.7874 130.544 95.5473 131.056 95.731 131.723C95.8312 132.09 95.7505 132.483 95.4777 132.923C94.1778 135.031 90.1083 133.91 85.3957 132.611C84.608 132.393 83.7924 132.169 82.9657 131.953C82.6734 131.877 82.3672 132 82.1974 132.256C82.164 132.308 78.6651 137.527 71.453 139.219V115.968C71.478 115.954 71.5031 115.939 71.5281 115.922C73.0619 114.757 75.7173 112.928 79.6588 110.837C83.7813 108.65 95.1632 106.518 99.5417 108.193C100.471 108.548 101.05 109.218 101.134 110.033C101.206 110.756 100.861 111.463 100.226 111.883C98.6287 112.934 94.278 113.982 93.7185 114.113C90.7707 112.989 88.182 112.127 87.578 111.929C87.1994 111.804 86.7958 112.025 86.6761 112.421C86.5565 112.817 86.768 113.24 87.1466 113.365C87.18 113.377 90.6622 114.524 94.3225 115.96C100.869 118.525 102.317 119.786 102.637 120.208C103.453 121.289 103.7 122.267 103.33 122.966C102.951 123.68 101.947 124.052 100.769 123.919C98.9599 123.709 90.0414 120.223 86.6845 118.91C84.9893 118.246 84.981 118.246 84.8724 118.225C84.4799 118.161 84.1125 118.438 84.0485 118.848L84.0513 118.846ZM84.6497 119.708C84.6497 119.708 84.6191 119.702 84.5885 119.693C84.608 119.699 84.6302 119.702 84.6497 119.708ZM115.427 43.9159C114.189 42.8268 113.896 40.9834 114.731 39.5303C115.45 38.2839 116.841 37.6694 118.278 37.9635C121.679 38.6624 125.437 41.6678 125.476 41.6969C125.479 41.6969 125.481 41.6998 125.487 41.7027C125.523 41.7289 125.559 41.7551 125.598 41.7755C125.601 41.7755 125.604 41.7755 125.607 41.7784C125.643 41.7959 125.679 41.8105 125.718 41.8221C125.726 41.8221 125.732 41.8279 125.74 41.8279C125.779 41.8367 125.818 41.8454 125.857 41.8483C125.866 41.8483 125.874 41.8483 125.882 41.8483C125.893 41.8483 125.905 41.8483 125.916 41.8483C125.938 41.8483 125.96 41.8454 125.985 41.8425C125.996 41.8425 126.005 41.8425 126.016 41.8425C126.058 41.8367 126.099 41.8279 126.141 41.8134C126.147 41.8134 126.152 41.8076 126.158 41.8076C126.191 41.7959 126.225 41.7784 126.258 41.761C126.272 41.7522 126.283 41.7435 126.297 41.7377C126.311 41.7289 126.328 41.7202 126.342 41.7085L140.206 31.1491C141.055 30.5317 142.205 30.6861 142.879 31.5073C143.243 31.9528 143.413 32.5178 143.355 33.1031C143.302 33.6361 143.062 34.1137 142.681 34.4631L134.954 40.0457C134.628 40.2816 134.545 40.7504 134.77 41.0912C134.909 41.3038 135.135 41.4173 135.363 41.4173C135.505 41.4173 135.647 41.3736 135.772 41.2834L142.931 36.1114C143.004 36.0852 143.073 36.0502 143.137 36.0007L143.444 35.7561C143.491 35.7182 143.536 35.6804 143.58 35.6425L146.673 33.4089C147.522 32.7944 148.657 32.9168 149.373 33.6972C149.793 34.1544 150.002 34.7805 149.943 35.4125C149.888 36.0444 149.573 36.6181 149.08 36.9879L147.611 38.0917L139.675 43.9713C139.352 44.2101 139.274 44.6818 139.502 45.0197C139.641 45.2264 139.864 45.3371 140.089 45.3371C140.234 45.3371 140.379 45.2934 140.504 45.1973L148.443 39.3148L148.451 39.3089L150.325 37.9198C151.224 37.253 152.462 37.3403 153.267 38.1237C153.754 38.5984 154.027 39.2682 154.013 39.9642C153.999 40.6602 153.701 41.3183 153.197 41.7726L152.134 42.7249C152.073 42.7802 152.028 42.8414 151.989 42.9113C151.697 43.0365 151.418 43.2025 151.157 43.4151L144.273 49.0122C143.959 49.2685 143.903 49.7402 144.148 50.0693C144.393 50.3984 144.844 50.4566 145.158 50.2004L152.042 44.6032C152.972 43.8461 154.333 44.0091 155.073 44.9701C155.786 45.8904 155.714 47.2038 154.906 48.0337C154.556 48.3599 147.226 55.1889 142.851 59.8483C142.828 59.8716 142.812 59.8978 142.795 59.9211L119.733 56.744C119.733 56.6886 119.728 56.6333 119.714 56.578C118.743 52.2884 119.494 48.9802 119.5 48.9481C119.544 48.7589 119.519 48.5608 119.424 48.3919C118.475 46.6592 117.111 45.3924 115.43 43.913L115.427 43.9159ZM79.219 60.9695C79.1912 61.0161 79.1689 61.0627 79.1495 61.1122L73.7744 60.521C72.9756 59.4319 70.3396 58.7038 68.9561 58.3864V56.2868C72.5191 55.1627 75.1189 53.526 77.0702 51.2429C77.741 50.4566 78.3311 49.5888 78.846 48.6336C80.4911 51.4788 82.1919 56.2343 79.219 60.9695ZM71.9484 67.5306C71.3249 70.0205 70.5901 72.1376 70.2449 72.8947C69.1287 72.522 65.6437 70.268 62.5289 68.0402C63.9541 66.5404 67.4196 62.7576 68.9255 59.924C70.7404 60.3696 72.4049 61.0336 72.6276 61.4238C72.8921 61.9305 72.8726 63.8321 71.9484 67.5335V67.5306ZM68.0292 55.0083C68.0292 55.0083 68.0264 55.0083 68.0237 55.0083C66.3507 55.4976 64.5303 55.8558 62.5763 56.1295C62.1838 56.1848 61.9054 56.5634 61.9583 56.974C62.0056 57.3526 62.3146 57.6263 62.6709 57.6263C62.7015 57.6263 62.7349 57.6263 62.7655 57.6205C64.5025 57.3788 66.0835 57.073 67.5198 56.6974V59.295C67.5198 59.3445 67.5254 59.3911 67.5337 59.4406C65.9777 62.213 62.4343 66.0104 61.2791 67.2161C59.5951 66.2696 53.694 62.8595 50.2452 59.6416L50.2535 42.7482C50.2535 42.7482 50.2535 42.7365 50.2535 42.7307C50.2535 42.7191 50.2535 42.7045 50.2535 42.6928C50.2535 42.6783 50.2535 42.6637 50.2507 42.6521C50.2507 42.6463 50.2507 42.6404 50.2507 42.6346C50.2507 42.6288 50.2507 42.6259 50.248 42.62C50.248 42.6055 50.2424 42.5909 50.2396 42.5764C50.2396 42.5647 50.234 42.556 50.2313 42.5443C50.2285 42.5298 50.2229 42.5181 50.2201 42.5065C50.2173 42.4948 50.2118 42.4832 50.209 42.4715C50.2062 42.4599 50.2006 42.4511 50.1951 42.4395C50.1895 42.4278 50.1839 42.4162 50.1784 42.4016C50.1728 42.3929 50.17 42.3842 50.1645 42.3754C50.1561 42.3638 50.1505 42.3492 50.1422 42.3376C50.1366 42.3288 50.1338 42.323 50.1283 42.3172C50.1199 42.3055 50.1116 42.291 50.1004 42.2793C50.0949 42.2735 50.0893 42.2677 50.0837 42.2589C50.0754 42.2473 50.0643 42.2356 50.0531 42.224C50.0476 42.2182 50.042 42.2123 50.0364 42.2065C50.0253 42.1949 50.0141 42.1861 50.0058 42.1774C49.9974 42.1716 49.9919 42.1657 49.9835 42.1599C49.9724 42.1512 49.9613 42.1424 49.9501 42.1337C49.9418 42.1279 49.9334 42.1221 49.9251 42.1162C49.9139 42.1104 49.9028 42.1017 49.8917 42.0959C49.8833 42.09 49.8722 42.0842 49.8638 42.0813C49.8527 42.0755 49.8416 42.0696 49.8304 42.0638C49.8193 42.058 49.811 42.0551 49.7998 42.0493C49.7887 42.0434 49.7775 42.0405 49.7636 42.0347C49.7525 42.0318 49.7441 42.0289 49.733 42.026C49.7191 42.023 49.708 42.0201 49.694 42.0143C49.6829 42.0143 49.6746 42.0114 49.6634 42.0085C49.6495 42.0085 49.6356 42.0027 49.6217 42.0027C49.6105 42.0027 49.6022 42.0027 49.591 41.9998C49.5771 41.9998 49.5632 41.9998 49.5493 41.9998C49.5437 41.9998 49.5382 41.9998 49.5326 41.9998C49.5326 41.9998 49.5215 41.9998 49.5159 41.9998C49.5048 41.9998 49.4908 41.9998 49.4797 41.9998C49.4658 41.9998 49.4519 41.9998 49.4407 42.0027C49.4352 42.0027 49.4296 42.0027 49.424 42.0027C49.026 42.0667 48.6224 42.0726 48.2188 42.0172C45.8722 41.7027 44.2105 39.4516 44.5111 36.9967C44.6558 35.8085 45.2348 34.7485 46.1422 34.0175C47.0497 33.2837 48.1742 32.9663 49.3099 33.1177C50.0253 33.2138 50.71 33.4963 51.2862 33.9389C51.3614 33.9972 51.4477 34.0379 51.5423 34.0612C51.5423 34.0612 51.5423 34.0612 51.5451 34.0612C51.5701 34.0671 51.5924 34.0729 51.6175 34.0758C51.6342 34.0758 51.6481 34.0758 51.6648 34.0787C51.6731 34.0787 51.6815 34.0787 51.6898 34.0787C51.6954 34.0787 51.701 34.0787 51.7065 34.0787C51.7316 34.0787 51.7539 34.0758 51.7761 34.0729C51.7928 34.0729 51.8095 34.0729 51.8262 34.0671C51.8596 34.0612 51.8903 34.0525 51.9209 34.0408C51.932 34.0379 51.9459 34.035 51.9571 34.0292C51.996 34.0146 52.0322 33.9972 52.0684 33.9739C52.074 33.9739 52.0768 33.968 52.0823 33.9651C52.1185 33.9418 52.1547 33.9127 52.1881 33.8836C52.1992 33.8749 52.2076 33.8632 52.2159 33.8516C52.2382 33.8283 52.2605 33.8021 52.2799 33.7758C52.2827 33.7729 52.2855 33.77 52.2883 33.7642C52.2966 33.7525 52.2994 33.7438 52.305 33.7322C52.3217 33.706 52.3356 33.6797 52.3495 33.6535C52.3579 33.6361 52.3662 33.6157 52.3718 33.5982C52.3802 33.5749 52.3885 33.5487 52.3969 33.5225C52.4024 33.4992 52.408 33.4788 52.4108 33.4555C52.4108 33.4439 52.4163 33.4293 52.4191 33.4176L52.6919 31.1491C54.0475 31.1724 57.2486 31.1025 60.7614 30.0978C66.5762 28.435 70.5511 24.9491 72.3075 19.9897C73.9693 20.8342 78.2337 23.5222 79.503 29.2882C79.6449 30.0861 79.7479 30.9016 79.8119 31.717C80.9949 46.8048 76.3631 52.5563 68.0264 54.9996L68.0292 55.0083ZM48.8228 60.0143C48.8284 60.2094 48.9063 60.4045 49.0538 60.5472C52.4386 63.7972 58.1616 67.1665 60.2743 68.3634C57.911 71.1911 55.2221 74.1208 54.2813 74.7236C53.1261 73.5995 50.788 70.8475 48.7421 68.1887C45.6969 64.234 44.7032 62.3644 44.564 61.8169C44.589 61.7645 44.6085 61.7092 44.6196 61.6509C45.0149 60.9404 45.9641 59.9852 47.328 58.9252C47.868 58.5058 48.3913 58.1331 48.8061 57.8506V59.8571C48.8061 59.9124 48.8117 59.9648 48.8228 60.0172V60.0143ZM32.0408 58.3777C28.425 51.8982 33.2545 43.8956 33.3018 43.814C33.3741 43.6975 33.4131 43.5665 33.4159 43.4296L33.7054 33.2546C33.7499 31.7111 33.9086 30.2347 34.1758 28.8689C35.1612 23.8367 37.4799 19.6781 41.0734 16.5097C44.3747 13.5976 48.6669 11.5707 53.8332 10.4845C54.0948 10.4291 54.3453 10.3825 54.5708 10.3418C58.4678 9.66033 62.0363 9.88457 65.1789 11.0057C65.2763 11.0407 65.3821 11.0523 65.4851 11.0436C65.5602 11.0349 73.0396 10.2952 77.2065 15.0711C79.4195 17.6047 80.3297 21.2594 79.9233 25.9509C77.4097 20.2955 72.3688 18.3647 72.121 18.2745C71.9373 18.2075 71.7341 18.2191 71.5587 18.3123C71.3834 18.4026 71.2526 18.5657 71.1941 18.7608C69.7272 23.6852 66.103 27.0109 60.419 28.6475C56.0962 29.891 52.1491 29.6377 52.1102 29.6348C51.7316 29.6056 51.3948 29.8969 51.3475 30.29L51.1276 32.1188C50.6098 31.8742 50.0559 31.7053 49.4881 31.6296C46.3538 31.2073 43.4812 33.5341 43.0804 36.8103C42.6795 40.0865 44.9008 43.0947 48.0323 43.5141C48.2772 43.5461 48.5222 43.5636 48.7671 43.5636C48.781 43.5636 48.7977 43.5636 48.8117 43.5636L48.8061 56.0654C47.9961 56.578 44.5723 58.8232 43.4032 60.8472L36.8786 62.5799C36.8536 62.5654 36.8285 62.5508 36.8035 62.5391C34.6574 61.5956 33.054 60.1978 32.0408 58.3806V58.3777ZM1.88118 122.576L9.61107 90.2541C12.5867 77.8163 21.8141 68.1276 33.6943 64.9737L43.2529 62.4372C43.5981 63.4099 44.6252 65.2038 47.3447 68.7682C49.6829 71.8318 52.4247 75.0497 53.591 76.0952C53.7691 76.2524 53.9612 76.3194 54.1616 76.3194C54.7879 76.3194 55.4894 75.6817 55.9932 75.2186C56.6501 74.6187 57.5047 73.7364 58.5346 72.6006C59.7454 71.261 60.9228 69.869 61.5297 69.1439C62.3118 69.703 63.8456 70.7864 65.4071 71.8143C66.7209 72.6793 67.801 73.3374 68.6138 73.7713C69.3987 74.1907 70.0139 74.4528 70.4871 74.4528C70.7766 74.4528 71.0104 74.3537 71.1997 74.1324C71.7508 73.483 72.7835 70.1078 73.3096 68.0344C73.9721 65.4076 74.2699 63.4157 74.1975 62.079L85.3484 63.3021C94.6454 64.3243 103.016 69.5283 108.313 77.5862L111.202 81.9807L108.385 101.073C108.324 101.483 108.594 101.868 108.986 101.932C109.379 101.996 109.746 101.713 109.807 101.303L116.232 57.7836L147.972 62.1547L140.009 116.924C139.204 122.451 136.134 127.297 131.58 130.22C127.026 133.144 121.507 133.817 116.432 132.064L102.979 127.419C102.993 126.624 102.668 125.905 102.286 125.337C103.319 125.11 104.148 124.536 104.594 123.691C104.981 122.96 105.39 121.411 103.773 119.271C102.84 118.036 99.5083 116.44 96.0984 115.045C97.7268 114.588 99.8785 113.892 101 113.152C102.1 112.427 102.704 111.169 102.57 109.873C102.428 108.487 101.485 107.328 100.04 106.778C99.1019 106.419 97.9244 106.216 96.605 106.131C96.6022 102.141 96.2404 89.2872 96.2348 89.1562C96.2237 88.7398 95.8897 88.4194 95.4944 88.4252C95.0964 88.4369 94.7846 88.7834 94.7957 89.1999C94.7985 89.328 95.1576 102.072 95.1632 106.087C89.4736 106.087 81.9942 107.91 79.0103 109.492C76.1321 111.018 73.5963 112.576 71.4557 114.131V109.899C71.4557 109.899 71.4557 109.899 71.4557 109.897C71.4557 109.897 71.4557 109.894 71.4557 109.891C71.4557 109.879 71.4557 109.864 71.4557 109.853C71.4557 109.841 71.4557 109.83 71.4557 109.818C71.4557 109.803 71.453 109.792 71.4502 109.777C71.4502 109.765 71.4474 109.754 71.4446 109.742C71.4446 109.731 71.439 109.716 71.4363 109.704C71.4335 109.693 71.4307 109.681 71.4279 109.669C71.4251 109.658 71.4196 109.646 71.414 109.632C71.4112 109.62 71.4056 109.611 71.4029 109.599C71.3973 109.588 71.3917 109.576 71.3862 109.565C71.3806 109.556 71.3778 109.544 71.3722 109.535C71.3667 109.524 71.3583 109.512 71.3528 109.5C71.3472 109.492 71.3416 109.483 71.3361 109.474C71.3277 109.463 71.3194 109.451 71.3138 109.442C71.3082 109.433 71.3027 109.425 71.2971 109.419C71.2887 109.407 71.2804 109.399 71.272 109.39C71.2665 109.381 71.2581 109.375 71.2526 109.367C71.2442 109.358 71.2331 109.349 71.2247 109.34C71.2164 109.334 71.2108 109.326 71.2025 109.32C71.1913 109.311 71.183 109.302 71.1718 109.297C71.1635 109.291 71.1551 109.285 71.1468 109.279C71.1357 109.27 71.1245 109.265 71.1134 109.259C71.105 109.253 71.0967 109.247 71.0883 109.241C71.0772 109.235 71.0661 109.23 71.0521 109.224C71.0438 109.218 71.0327 109.215 71.0243 109.209C71.0132 109.203 70.9993 109.201 70.9853 109.195C70.977 109.192 70.9659 109.186 70.9575 109.183C70.9436 109.177 70.9297 109.174 70.913 109.171C70.9046 109.171 70.8963 109.166 70.8879 109.166C70.8712 109.163 70.8517 109.16 70.835 109.157C70.8295 109.157 70.8239 109.157 70.8183 109.157C70.7933 109.157 70.771 109.154 70.7459 109.154H70.7376L32.1243 109.576C32.1383 109.521 32.1438 109.463 32.1438 109.401V91.2879C32.1438 90.8714 31.8209 90.5366 31.4257 90.5366C31.0304 90.5366 30.7075 90.8744 30.7075 91.2879V109.401C30.7075 109.468 30.7159 109.53 30.7326 109.591L22.5545 109.681C22.1565 109.687 21.8392 110.025 21.8419 110.441C21.8447 110.855 22.1676 111.187 22.5601 111.187H22.5684L70.025 110.668V142.489L15.9102 141.621C11.4037 141.563 7.24228 139.388 4.49214 135.652C1.742 131.918 0.792815 127.154 1.88675 122.579L1.88118 122.576Z" fill="black"/>
<path d="M130.795 55.3432C130.946 55.3432 131.099 55.2937 131.23 55.1889C135.377 51.8894 141.618 52.8504 141.682 52.8592C142.074 52.9233 142.442 52.6408 142.503 52.2302C142.564 51.8195 142.294 51.4351 141.905 51.3711C141.626 51.3245 135.004 50.2965 130.361 53.9891C130.044 54.2395 129.983 54.7113 130.225 55.0433C130.367 55.2384 130.581 55.3403 130.798 55.3403L130.795 55.3432Z" fill="black"/>
<path d="M120.878 24.8203H149.122C149.52 24.8203 149.841 24.4824 149.841 24.0689V4.04498C149.841 3.62854 149.518 3.29364 149.122 3.29364H147.976V0.751335C147.976 0.334897 147.653 0 147.257 0H122.35C121.952 0 121.632 0.337809 121.632 0.751335V6.52613H120.878C120.48 6.52613 120.16 6.86394 120.16 7.27746V24.066C120.16 24.4824 120.483 24.8173 120.878 24.8173V24.8203ZM123.068 1.50558H146.536V3.29364H139.049C138.651 3.29364 138.331 3.63145 138.331 4.04498V6.52613H123.068V1.50558ZM121.596 8.03171H139.052C139.45 8.03171 139.77 7.6939 139.77 7.28038V4.79922H148.404V23.3176H121.596V8.03171Z" fill="black"/>
</g>
<defs>
<clipPath id="clip0_2059_242189">
<rect width="157" height="144" fill="white"/>
</clipPath>
</defs>
</svg>
