<svg width="160" height="145" viewBox="0 0 160 145" fill="none" xmlns="http://www.w3.org/2000/svg">
<path d="M153.871 54.212C153.364 52.6231 152.511 51.2289 151.384 50.1451C152.759 49.4028 153.953 48.288 154.868 46.8938C155.375 48.4828 156.229 49.877 157.355 50.9607C155.981 51.703 154.787 52.8178 153.871 54.212Z" fill="white"/>
<path d="M159.372 52.0647C157.256 52.7392 155.496 54.4721 154.538 56.8203L154.327 57.3368C154.186 57.6811 153.854 57.9012 153.49 57.9012C153.451 57.9012 153.409 57.9012 153.366 57.8927C152.958 57.8363 152.64 57.5117 152.592 57.0997L152.527 56.5465C152.234 54.029 151 51.8869 149.141 50.6705C148.848 50.4786 148.693 50.1371 148.741 49.7899C148.789 49.4428 149.031 49.1549 149.364 49.0505C151.479 48.3759 153.24 46.6431 154.197 44.2949L154.409 43.7784C154.564 43.3946 154.958 43.1688 155.366 43.2224C155.775 43.2789 156.093 43.6034 156.141 44.0155L156.206 44.5687C156.499 47.0862 157.732 49.2311 159.591 50.4447C159.884 50.6366 160.039 50.9781 159.991 51.3253C159.944 51.6724 159.701 51.9603 159.369 52.0647H159.372ZM154.868 46.8942C153.955 48.2885 152.761 49.4033 151.383 50.1455C152.51 51.2293 153.364 52.6263 153.871 54.2125C154.783 52.8182 155.978 51.7034 157.355 50.9612C156.228 49.8774 155.375 48.4832 154.868 46.8942Z" fill="black"/>
<path d="M48.8587 31.439C47.9883 30.0165 46.8306 28.865 45.4786 28.0804C46.6391 27.0334 47.5348 25.6646 48.0926 24.0925C48.9629 25.515 50.1206 26.6665 51.4727 27.4511C50.3122 28.4981 49.4164 29.867 48.8587 31.439Z" fill="white"/>
<path d="M53.6918 28.0406C51.7962 29.1978 50.4948 31.3004 50.123 33.8094L50.0413 34.3598C49.9794 34.769 49.6527 35.0851 49.2414 35.1274C49.2104 35.1303 49.1794 35.1331 49.1485 35.1331C48.7738 35.1331 48.4358 34.9017 48.3006 34.5432L48.1063 34.0211C47.2246 31.6447 45.5176 29.8554 43.4248 29.1159C43.0952 29.0002 42.8615 28.7039 42.8277 28.3567C42.7911 28.0096 42.9573 27.6709 43.2558 27.4903C45.1515 26.3332 46.4528 24.2305 46.8246 21.7215L46.9063 21.1712C46.9683 20.7619 47.295 20.4458 47.7062 20.4035C48.1175 20.3612 48.5034 20.6011 48.6471 20.9877L48.8414 21.5098C49.723 23.8862 51.43 25.6756 53.5229 26.415C53.8524 26.5307 54.0834 26.8271 54.12 27.1742C54.1566 27.5213 53.9904 27.86 53.6918 28.0406ZM48.0922 24.0922C47.5345 25.6643 46.6387 27.0303 45.4782 28.0802C46.8303 28.8648 47.9879 30.0191 48.8583 31.4387C49.416 29.8667 50.3118 28.5007 51.4723 27.4508C50.1202 26.6662 48.9625 25.5119 48.0922 24.0922Z" fill="black"/>
<path d="M144.989 28.6078L144.476 33.0163L141.527 29.7057C141.178 29.3134 140.64 29.1328 140.124 29.2372L135.781 30.1121L138.012 26.2794C138.276 25.825 138.279 25.2578 138.023 24.7977L135.851 20.9312L140.18 21.871C140.693 21.9839 141.234 21.8117 141.589 21.4251L144.589 18.1597L145.034 22.5737C145.087 23.0987 145.417 23.5587 145.893 23.7789L149.918 25.6303L145.865 27.4196C145.383 27.6313 145.048 28.0885 144.986 28.6106L144.989 28.6078Z" fill="#FFA241"/>
<path d="M151.302 26.999L146.764 29L146.19 33.9334C146.122 34.5233 145.728 35.003 145.161 35.1809C145.009 35.2288 144.857 35.2514 144.705 35.2514C144.291 35.2514 143.894 35.0764 143.604 34.7519L140.302 31.0462L135.441 32.0255C134.858 32.1441 134.283 31.9155 133.937 31.43C133.59 30.9474 133.562 30.3265 133.861 29.8128L136.356 25.5201L133.925 21.1907C133.635 20.6714 133.672 20.0533 134.024 19.5735C134.376 19.0937 134.956 18.8764 135.537 19.0034L140.381 20.0561L143.739 16.4013C144.142 15.9638 144.742 15.8086 145.302 15.9977C145.866 16.1868 146.251 16.6694 146.311 17.2621L146.809 22.2039L151.316 24.2755C151.857 24.5238 152.186 25.046 152.184 25.6415C152.178 26.237 151.84 26.7535 151.296 26.9934L151.302 26.999ZM145.897 23.7788C145.421 23.5586 145.091 23.0986 145.037 22.5736L144.592 18.1596L141.593 21.425C141.238 21.8116 140.697 21.9838 140.184 21.8709L135.855 20.9311L138.027 24.7976C138.283 25.2576 138.28 25.8249 138.015 26.2793L135.784 30.112L140.128 29.2371C140.643 29.1327 141.181 29.3133 141.531 29.7056L144.48 33.0162L144.992 28.6077C145.054 28.0856 145.39 27.6284 145.871 27.4167L149.925 25.6274L145.899 23.7759L145.897 23.7788Z" fill="black"/>
<path d="M65.1122 52.1909C65.1122 57.6323 66.7121 57.5758 73.6892 55.3998C78.5734 53.8758 80.5508 56.4893 80.5508 51.045C80.5508 45.6008 80.2916 40.1594 75.1764 40.1594C70.0612 40.1594 65.1122 46.7495 65.1122 52.1909Z" fill="black"/>
<path d="M12.7508 109.042C13.1113 108.997 13.6099 109.014 13.9338 109.344C14.2718 109.688 14.3901 110.348 14.2718 111.204C14.0549 112.739 12.8465 113.165 12.5845 113.241C9.50302 113.608 4.30616 116.066 2.7654 117.898C2.72596 117.946 2.6893 117.994 2.64987 118.042C2.03018 117.037 1.30344 115.293 2.27804 113.605C3.81316 110.95 10.9678 109.262 12.7536 109.045L12.7508 109.042Z" fill="white"/>
<path d="M13.0913 107.206C13.0913 107.206 13.0771 107.212 13.0687 107.212C12.8941 107.212 12.7166 107.22 12.5364 107.24C11.3026 107.39 5.748 108.513 2.54255 110.805C1.61865 109.097 2.19045 107.483 2.68056 106.907C2.71155 106.87 2.76225 106.825 2.82422 106.774C2.89746 106.735 2.96787 106.684 3.02984 106.625C3.74247 106.142 5.3649 105.31 7.44648 104.545C11.4941 103.057 12.9476 103.34 13.1954 103.413C14.2264 103.709 14.4236 104.502 14.4095 105.115C14.3841 106.089 13.7814 107.048 13.0913 107.209V107.206Z" fill="white"/>
<path d="M4.14512 119.06C5.29999 117.688 10.0884 115.328 12.8573 115.027C13.2263 114.987 13.4686 115.103 13.6629 115.413C14.0826 116.082 14.0685 117.383 13.6319 118.092C12.7953 119.449 10.8067 120.098 9.35329 120.57C9.09415 120.654 8.84629 120.725 8.59842 120.784C8.11394 120.9 7.81251 121.388 7.928 121.873C8.04348 122.359 8.53081 122.661 9.01529 122.545C9.31387 122.475 9.60679 122.393 9.91382 122.291C9.99832 122.263 10.0856 122.235 10.1701 122.206V128.638C7.89137 128.088 2.37338 126.09 2.66351 123.033C2.82406 121.334 3.29447 120.073 4.14794 119.06H4.14512Z" fill="white"/>
<path d="M63.8052 82.308C63.8249 82.308 63.8446 82.3024 63.8671 82.2996C63.8896 82.2996 63.915 82.2968 63.9375 82.2911C63.9629 82.2855 63.9882 82.2798 64.0108 82.2713C64.0333 82.2657 64.0587 82.2601 64.0812 82.2516C64.1065 82.2431 64.1319 82.229 64.1572 82.2177C64.177 82.2093 64.1967 82.2008 64.2164 82.1895C64.2615 82.1641 64.3037 82.1359 64.3431 82.1048L69.6415 77.8149C69.8724 78.1649 70.1513 78.4866 70.478 78.7773C69.6471 80.9308 70.2076 83.2196 71.9005 84.6139C71.8751 84.6618 71.847 84.707 71.8216 84.7578C71.1202 86.1181 70.9935 87.597 71.4639 88.9235C71.9455 90.281 73.0018 91.345 74.5144 92.0026C74.5257 92.0083 74.5369 92.0111 74.5482 92.0167C74.8186 92.1212 76.5368 92.759 78.2719 92.759C79.1085 92.759 79.9479 92.6123 80.6324 92.1833C80.7394 92.1155 80.8521 92.0365 80.9648 91.9434C81.1929 92.4599 81.483 93.0215 81.8605 93.5803C82.8999 95.1297 84.7505 96.905 87.8377 97.142C87.4799 98.1891 86.8743 100.244 86.8349 102.253C86.7842 104.875 93.6402 114.403 100.299 122.102C105.783 128.447 116.321 139.601 125.253 143.044C126.241 143.425 127.238 143.75 128.238 144.02H63.76C63.791 143.93 63.808 143.834 63.808 143.733V82.308H63.8052Z" fill="#6099FF"/>
<path d="M58.4059 80.6851L59.2792 77.2729L61.9297 80.5609L58.4059 80.6851Z" fill="white"/>
<path d="M78.4129 60.6186L82.5254 57.2883L86.2773 62.01L85.4098 62.7128C83.3676 61.4907 81.0269 60.7908 78.4129 60.6186Z" fill="#FFA241"/>
<path d="M13.394 100.066C13.1545 100.839 12.5179 101.454 12.0729 101.548C10.3152 101.658 8.15761 102.355 6.82247 102.846C5.64507 103.278 3.77753 104.057 2.4931 104.824C2.28747 104.576 2.0706 104.223 2.01144 103.78C1.91568 103.066 2.23965 102.262 2.972 101.39C4.53529 99.5296 7.89847 98.0027 10.6251 97.9124C11.7659 97.8757 12.6672 98.11 13.0954 98.5559C13.4785 98.9567 13.5799 99.4647 13.394 100.066Z" fill="white"/>
<path d="M81.5781 55.7273L75.5334 60.624C71.6209 60.8187 63.089 61.7472 61.3567 66.1162C60.8582 67.3721 60.8779 68.4333 61.4159 69.263C61.8299 69.9037 62.4806 70.3073 63.2524 70.5698L58.2808 74.5944C58.247 74.6226 58.2161 74.6536 58.1851 74.6847C58.1795 74.6903 58.1738 74.696 58.1682 74.7044C58.14 74.7383 58.1146 74.7722 58.0893 74.806C58.0893 74.8088 58.0837 74.8145 58.0837 74.8173C58.0611 74.854 58.0414 74.8907 58.0245 74.9274C58.0245 74.9302 58.0217 74.9359 58.0189 74.9387C58.002 74.9782 57.9879 75.0205 57.9766 75.06C57.9766 75.0629 57.9738 75.0685 57.9738 75.0713L57.233 77.9698H40.0058C42.7099 74.0186 48.1264 67.6374 53.0079 64.2676C57.0499 61.4763 63.1115 59.0237 70.5393 57.1723C75.2996 55.9869 79.2346 55.3971 80.381 55.239C80.7782 55.4112 81.1753 55.572 81.5781 55.7216V55.7273Z" fill="#6099FF"/>
<path d="M85.5618 54.9882L89.1897 59.4869C89.2179 59.5208 89.2207 59.5546 89.2179 59.58C89.2151 59.6054 89.2066 59.6365 89.1728 59.6647L87.68 60.8726L83.9309 56.1509L85.3871 54.9712C85.4406 54.9289 85.5195 54.9374 85.5646 54.991L85.5618 54.9882Z" fill="white"/>
<path d="M67.3635 69.2891C65.8143 69.2214 63.4764 69.1198 62.9327 68.2816C62.7328 67.9711 62.7666 67.4687 63.037 66.7886C64.1581 63.9578 70.6872 62.541 76.6588 62.3971C80.6811 62.3011 84.0274 63.4695 86.6075 65.8713C89.4919 68.5581 97.3788 79.3478 97.4576 79.4579C97.514 79.5369 97.5844 79.6046 97.6633 79.6611L102.821 83.3216C103.06 83.4909 103.159 83.7929 103.069 84.0752C102.17 86.8438 99.3054 93.6851 92.1368 97.3879C91.8804 97.5206 91.5706 97.4726 91.365 97.2694L89.6749 95.6042C89.4947 95.4264 89.244 95.3305 88.9905 95.3446C83.2528 95.6635 82.0895 89.7141 82.0416 89.4601C82.0416 89.4573 82.0416 89.4516 82.0388 89.4488C82.036 89.429 82.0303 89.4121 82.0247 89.3952C82.0247 89.3867 82.019 89.3754 82.0162 89.367C82.0106 89.3472 82.0021 89.3274 81.9965 89.3077C81.9965 89.302 81.9909 89.2936 81.9881 89.2879C81.9796 89.2682 81.9712 89.2484 81.9627 89.2287C81.9599 89.223 81.9571 89.2146 81.9543 89.2089C81.9458 89.1892 81.9345 89.1722 81.9232 89.1525C81.9204 89.1468 81.9148 89.1384 81.9092 89.1327C81.8979 89.1158 81.8866 89.0988 81.8754 89.0847C81.8697 89.0763 81.8641 89.0678 81.8585 89.0622C81.8472 89.048 81.836 89.0339 81.8247 89.0198C81.8162 89.0114 81.8106 89.0029 81.8021 88.9944C81.7909 88.9831 81.7796 88.9718 81.7656 88.9606C81.7571 88.9521 81.7458 88.9436 81.7374 88.9352C81.7261 88.9239 81.712 88.9154 81.698 88.9041C81.6923 88.8985 81.6867 88.8956 81.681 88.89C81.6754 88.8843 81.6669 88.8815 81.6613 88.8759C81.6557 88.8731 81.6528 88.8702 81.6472 88.8674C79.3656 87.2531 76.8306 88.2888 76.7235 88.334C76.2644 88.5287 76.0475 89.0593 76.2391 89.5194C76.4334 89.9794 76.9629 90.1967 77.4221 90.0048C77.4812 89.9822 78.8192 89.4545 80.1375 90.0782C80.0163 90.4027 79.8276 90.558 79.6755 90.6511C78.6671 91.2805 76.4109 90.7979 75.211 90.3378C74.1772 89.8834 73.4702 89.1863 73.1632 88.3199C72.8618 87.4704 72.9547 86.5023 73.4223 85.5935C74.8589 82.8108 78.9206 82.4721 81.9599 83.0253C82.45 83.1156 82.9204 82.7882 83.0105 82.2971C83.1007 81.806 82.7739 81.3347 82.2838 81.2444C79.2473 80.6912 75.3236 80.9622 73.0026 83.1805C71.8393 82.187 71.5548 80.5501 72.3463 79.0204C73.7828 76.2376 77.8418 75.8989 80.8839 76.4521C81.374 76.5424 81.8444 76.215 81.9345 75.724C82.0247 75.2329 81.698 74.7616 81.2078 74.6712C77.9348 74.0757 73.6251 74.437 71.4112 77.1662C70.5211 76.1614 70.3718 74.7079 71.0844 73.325C72.5209 70.5422 76.5827 70.2035 79.622 70.7567C80.1121 70.847 80.5825 70.5196 80.6726 70.0286C80.7628 69.5375 80.4361 69.0662 79.9459 68.9758C77.4165 68.5158 74.2702 68.6259 71.9492 69.958C71.1971 69.7971 69.4254 69.4274 68.5888 69.3625C68.2085 69.3343 67.7944 69.3145 67.3578 69.2948L67.3635 69.2891Z" fill="white"/>
<path d="M90.095 98.559C90.571 99.0275 91.1964 99.2702 91.8301 99.2702C92.216 99.2702 92.6048 99.1799 92.9653 98.9936C100.728 94.9831 103.818 87.6141 104.787 84.6309C105.125 83.5923 104.753 82.4691 103.866 81.8397L103.249 81.4022C104.339 80.6317 106.215 79.6044 107.652 79.96C111.423 80.8942 138.842 103.792 142.363 107.912C142.54 108.121 142.794 108.228 143.05 108.228C143.258 108.228 143.467 108.158 143.639 108.011C144.019 107.686 144.061 107.113 143.737 106.735C142.05 104.76 134.414 98.0312 126.352 91.4214C126.048 91.173 125.733 90.9134 125.409 90.6481C125.409 90.6227 125.411 90.6001 125.411 90.5747V79.0795C125.411 78.5799 125.006 78.1735 124.507 78.1735C124.009 78.1735 123.603 78.5799 123.603 79.0795V89.1833C117.916 84.5943 110.373 78.769 108.086 78.2017C106.767 77.8744 105.235 78.1763 103.531 79.1021C102.708 79.548 102.049 80.0334 101.703 80.3044L98.8325 78.2667C97.9086 77.0051 90.7175 67.223 87.8416 64.5418C87.5571 64.2765 87.2642 64.0253 86.9656 63.7883L90.3175 61.0732C90.7203 60.7486 90.971 60.2858 91.0245 59.7721C91.078 59.2585 90.9316 58.7533 90.6048 58.3497L89.7457 57.2829C89.8865 57.2829 90.0302 57.2885 90.1682 57.2885C94.1286 57.2885 97.3397 56.3346 99.1565 55.6375C99.3593 55.931 99.5452 56.1737 99.7001 56.36C99.3255 57.2264 98.7115 58.9593 98.6692 61.0422C98.6129 63.7967 99.5762 67.6859 104.469 70.5759C106.917 72.0237 109.173 72.5261 111.128 72.5261C112.899 72.5261 114.42 72.114 115.612 71.6145C117.696 70.7424 119.119 69.4837 119.691 68.922C123.231 68.7301 125.871 67.6125 127.532 65.6002C128.394 64.5559 128.865 63.4214 129.115 62.3997C133.876 64.4769 137.267 66.5202 139.737 68.7978C145.247 73.8723 150.759 84.5293 154.48 97.3031C158.072 109.625 159.162 121.084 157.325 127.205C155.506 133.276 151.463 138.111 145.943 140.823C139.957 143.764 132.65 143.959 125.899 141.356C119.643 138.946 110.809 131.495 101.661 120.92C93.0667 110.983 88.6162 103.509 88.6387 102.293C88.6697 100.664 89.1486 98.94 89.4753 97.9494L90.0978 98.5618L90.095 98.559Z" fill="#6099FF"/>
<path d="M65.5918 71.002C66.1552 71.0499 66.727 71.0753 67.2791 71.0979C67.7016 71.1177 68.0988 71.1346 68.4509 71.16C68.8283 71.1882 69.5015 71.3039 70.1719 71.4338C69.9099 71.7527 69.6761 72.0998 69.4761 72.4865C68.8649 73.6719 68.6931 74.9221 68.9156 76.068L63.9018 80.1293L60.1161 75.4358L65.5918 71.002Z" fill="#FFA241"/>
<path d="M15.1716 119.044C15.9659 117.754 15.9772 115.691 15.1941 114.446C15.0814 114.268 14.9518 114.108 14.8138 113.964C15.38 113.422 15.8983 112.623 16.0645 111.452C16.3208 109.626 15.7519 108.607 15.228 108.071C15.1941 108.034 15.1575 108 15.1209 107.969C15.7715 107.249 16.1941 106.236 16.2195 105.158C16.2561 103.738 15.5772 102.57 14.4167 101.96C14.7265 101.557 14.9744 101.094 15.1265 100.603C15.5068 99.3808 15.242 98.1756 14.4054 97.3007C13.8392 96.7081 13.014 96.3299 11.9831 96.1746V79.7827H56.775L56.3609 81.4055C56.2904 81.6821 56.3553 81.9757 56.5327 82.1986C56.7045 82.4131 56.9637 82.5373 57.2369 82.5373C57.2482 82.5373 57.2567 82.5373 57.2679 82.5373L62 82.3708V142.824H11.9831V121.592C11.9831 121.575 11.9831 121.558 11.9831 121.541C13.2112 121.011 14.4308 120.257 15.18 119.041L15.1716 119.044Z" fill="white"/>
<path d="M129.369 60.5364C129.4 59.7546 129.323 59.2297 129.315 59.1732C129.239 58.6793 128.777 58.3406 128.284 58.4168C127.791 58.493 127.453 58.9531 127.526 59.447C127.529 59.4752 127.918 62.2919 126.115 64.4594C124.738 66.1161 122.428 67.0136 119.248 67.1265C119 67.1349 118.766 67.245 118.603 67.4313C118.592 67.4454 117.178 69.0089 114.84 69.9685C111.767 71.2301 108.581 70.9112 105.375 69.0146C97.5082 64.3663 101.39 56.9436 101.559 56.6303C101.756 56.2663 101.68 55.8147 101.378 55.5325C101.364 55.5212 99.7251 53.9379 98.8829 50.616C97.5196 45.2536 99.1983 39.3804 100.962 35.2204C101.15 35.2204 101.336 35.2091 101.525 35.1893C103.156 35.0172 104.621 34.2213 105.654 32.9456C106.685 31.6699 107.161 30.0668 106.989 28.4327C106.818 26.7986 106.023 25.331 104.75 24.2981C103.477 23.2651 101.877 22.7881 100.246 22.9603C99.8067 23.0054 99.3814 23.0986 98.9701 23.2312L98.8406 20.3412C98.8209 19.8868 98.466 19.5171 98.0125 19.4804L91.1114 18.9075C90.9734 18.3148 90.7509 17.3947 90.4833 16.4605C89.7087 13.7652 89.1144 12.7831 88.2186 12.7069C87.9482 12.6843 87.2778 12.7351 86.892 13.7088C86.2075 15.436 85.9286 17.5048 85.8216 18.6478L68.0845 18.7522C67.231 14.0446 67.831 10.3785 69.8788 7.84687C72.8532 4.16377 77.9318 4.10168 77.9825 4.10168C78.0839 4.10168 78.1854 4.08475 78.2811 4.04806C80.1796 3.37071 86.9342 1.21729 94.1788 1.96802C97.7758 2.34057 101.331 3.52593 104.457 5.39429C107.654 7.30499 110.333 9.89304 112.206 12.879C116.18 19.2179 116.992 27.4252 117.257 33.8657C117.285 34.5204 117.296 35.1837 117.296 35.8413C117.296 36.0925 117.4 36.3295 117.58 36.5017C117.764 36.6738 118.009 36.7613 118.256 36.7444C118.445 36.7331 122.966 36.5299 125.994 40.9863C129 45.4089 127.915 49.1625 127.867 49.3206C127.797 49.552 127.822 49.8032 127.935 50.0149C128.047 50.2265 128.242 50.3874 128.473 50.4551C128.512 50.4664 132.675 51.7788 134.661 56.0348C135.948 58.7922 135.396 61.5665 134.844 63.1837C133.233 62.2947 131.419 61.417 129.371 60.5392L129.369 60.5364Z" fill="black"/>
<path d="M68.3768 20.5615L86.6659 20.4543C87.1476 20.4514 87.5419 20.0704 87.5644 19.5878C87.5644 19.5624 87.6687 17.378 88.2377 15.377C88.6546 16.4974 89.1531 18.3291 89.4911 19.9406C89.5728 20.3329 89.9024 20.6236 90.2996 20.6547L97.071 21.2163L97.2259 24.6426C97.2484 25.128 97.6484 25.5062 98.1272 25.5062C98.1413 25.5062 98.1554 25.5062 98.1695 25.5062C98.316 25.5005 98.4512 25.4582 98.5723 25.3905C98.6117 25.3735 98.6512 25.3566 98.6878 25.334C99.223 25.0179 99.8117 24.8232 100.437 24.7583C101.586 24.6369 102.716 24.9728 103.614 25.7009C104.513 26.4291 105.073 27.4677 105.194 28.6192C105.316 29.7707 104.98 30.9024 104.254 31.8027C103.527 32.7031 102.49 33.2647 101.341 33.3861C101.051 33.4171 100.758 33.4171 100.468 33.3889C100.462 33.3889 100.457 33.3889 100.451 33.3889C100.426 33.3889 100.403 33.3861 100.378 33.3861C100.375 33.3861 100.369 33.3861 100.367 33.3861C100.341 33.3861 100.313 33.3861 100.288 33.3917C100.285 33.3917 100.282 33.3917 100.279 33.3917C100.254 33.3945 100.226 33.4002 100.2 33.403C100.198 33.403 100.195 33.403 100.189 33.403C100.164 33.4086 100.138 33.4143 100.113 33.4227C100.113 33.4227 100.107 33.4227 100.105 33.4227C100.079 33.4312 100.054 33.4397 100.029 33.451C100.029 33.451 100.026 33.451 100.023 33.451C99.9976 33.4623 99.9722 33.4735 99.9497 33.4877C99.9243 33.5018 99.9018 33.5159 99.8765 33.5328C99.854 33.5497 99.8285 33.5667 99.8088 33.5836C99.7863 33.6005 99.7666 33.6203 99.7469 33.6401C99.7469 33.6401 99.744 33.6429 99.7412 33.6457C99.7243 33.6626 99.7074 33.6824 99.6905 33.7021C99.6849 33.7078 99.6821 33.7134 99.6793 33.7191C99.6652 33.736 99.654 33.753 99.6399 33.7699C99.6314 33.7812 99.6258 33.7925 99.6201 33.8009C99.6117 33.815 99.6033 33.8263 99.5948 33.8404C99.5864 33.8574 99.5779 33.8743 99.5694 33.8912C99.5666 33.8997 99.561 33.9054 99.5582 33.9138C99.5582 33.9166 99.5553 33.9223 99.5525 33.9251C99.5525 33.9251 99.5525 33.9279 99.5525 33.9308C97.5752 38.4239 95.5612 45.0591 97.1809 51.1976C97.4766 52.3152 97.8512 53.2579 98.2343 54.034C96.2006 54.7819 92.5839 55.7528 88.2208 55.3746L86.9786 53.8336C86.3082 53.0039 85.0885 52.874 84.2604 53.5457L83.2436 54.3699C82.6662 54.1836 82.0915 53.9747 81.5225 53.7433L81.5535 48.0338C83.0098 48.3047 84.497 48.4458 85.9674 48.4458C86.173 48.4458 86.3786 48.4458 86.5842 48.4374C86.7166 48.4346 86.849 48.4289 86.9814 48.4233C87.48 48.4007 87.8658 47.9745 87.8405 47.475C87.8179 46.9754 87.3898 46.5916 86.8941 46.6142C86.773 46.6198 86.6546 46.6255 86.5335 46.6283C80.7761 46.7835 73.5934 44.5257 70.5259 39.1351C68.4303 35.452 67.6106 30.0106 68.0923 22.9605C68.1486 22.1533 68.2444 21.3405 68.3796 20.5474L68.3768 20.5615ZM98.2512 29.6888C98.4118 29.9965 98.7272 30.1715 99.0511 30.1715C99.192 30.1715 99.3384 30.1376 99.4708 30.067C100.876 29.3248 102.471 29.3219 102.485 29.3248H102.49C102.986 29.3248 103.392 28.924 103.395 28.4273C103.397 27.9277 103 27.5185 102.502 27.5157C102.42 27.5157 100.451 27.5044 98.6286 28.4668C98.1864 28.701 98.0174 29.2486 98.2512 29.6888ZM87.1786 26.0989C87.1898 25.1647 86.4462 24.3998 85.5138 24.3857C84.5815 24.3744 83.8182 25.1195 83.8041 26.0537C83.79 26.9879 84.5364 27.7527 85.4688 27.7669C86.4011 27.7781 87.1645 27.0331 87.1786 26.0989ZM78.579 34.8847C79.0832 34.9919 79.5565 35.0371 79.9987 35.0371C82.8971 35.0371 84.4801 33.053 84.5533 32.9542C84.8604 32.5591 84.7899 31.9918 84.3956 31.6842C84.0041 31.3766 83.4379 31.4471 83.1309 31.8366C83.0633 31.9213 81.6127 33.6739 78.9509 33.1123C78.4636 33.0079 77.9819 33.3211 77.8805 33.8122C77.7763 34.3005 78.0889 34.7831 78.579 34.8847ZM76.5904 30.9448C76.92 31.3201 77.4918 31.3568 77.8664 31.0294C78.3509 30.6033 78.8297 30.9081 79.0128 31.0577C79.1818 31.2044 79.3902 31.2778 79.5987 31.2778C79.8522 31.2778 80.1029 31.1705 80.2832 30.9645C80.6099 30.5863 80.5648 30.0106 80.1874 29.6832C79.5733 29.1498 78.0495 28.4583 76.6721 29.6691C76.2975 29.9993 76.2608 30.5722 76.5904 30.9476V30.9448ZM73.4413 28.0237C74.3736 28.035 75.137 27.2899 75.1511 26.3557C75.1623 25.4215 74.4187 24.6567 73.4863 24.6426C72.554 24.6313 71.7907 25.3764 71.7766 26.3105C71.7654 27.2447 72.5089 28.0096 73.4413 28.0237Z" fill="white"/>
<path d="M86.3537 30.1718C86.3537 32.187 87.9874 33.8211 89.9986 33.8211C92.0097 33.8211 93.6406 32.1841 93.6406 30.169C93.6406 28.1539 92.0069 26.5198 89.9958 26.5198C87.9846 26.5198 86.3537 28.1567 86.3537 30.1718Z" fill="#FFD0D2"/>
<path d="M21.2999 92.0899C21.0239 92.0899 20.7647 91.9629 20.5929 91.7484L18.4184 89.0051C18.1085 88.6128 18.1733 88.0427 18.5649 87.7323C18.9564 87.4218 19.5254 87.4867 19.8352 87.879L21.2746 89.6938L24.0744 85.8808C24.3702 85.4772 24.9364 85.3926 25.3391 85.6889C25.7419 85.9853 25.8264 86.5525 25.5307 86.9561L22.0295 91.723C21.8633 91.9488 21.5985 92.0871 21.3196 92.0927C21.314 92.0927 21.3084 92.0927 21.3027 92.0927L21.2999 92.0899Z" fill="#6099FF"/>
<path d="M21.2999 103.462C21.0239 103.462 20.7647 103.335 20.5929 103.12L18.4184 100.38C18.1085 99.9873 18.1733 99.4172 18.5649 99.1068C18.9564 98.7963 19.5254 98.8612 19.8352 99.2535L21.2746 101.068L24.0744 97.2553C24.3702 96.8517 24.9364 96.7671 25.3391 97.0634C25.7419 97.3598 25.8264 97.927 25.5307 98.3306L22.0295 103.098C21.8633 103.323 21.5985 103.462 21.3196 103.467C21.314 103.467 21.3084 103.467 21.3027 103.467L21.2999 103.462Z" fill="#6099FF"/>
<path d="M21.2999 136.141C21.0239 136.141 20.7647 136.014 20.5929 135.8L18.4184 133.056C18.1085 132.664 18.1733 132.094 18.5649 131.784C18.9564 131.473 19.5254 131.538 19.8352 131.93L21.2746 133.745L24.0744 129.932C24.3702 129.529 24.9364 129.444 25.3391 129.74C25.7419 130.037 25.8264 130.604 25.5307 131.007L22.0295 135.774C21.8633 136 21.5985 136.138 21.3196 136.144C21.314 136.144 21.3084 136.144 21.3027 136.144L21.2999 136.141Z" fill="#6099FF"/>
<path d="M23.171 114.116C22.94 114.116 22.7091 114.028 22.5316 113.851L18.4867 109.798C18.1346 109.445 18.1346 108.872 18.4867 108.517C18.8388 108.164 19.4134 108.164 19.7655 108.517L23.8104 112.569C24.1625 112.922 24.1625 113.495 23.8104 113.851C23.633 114.028 23.402 114.116 23.171 114.116Z" fill="#FFA241"/>
<path d="M19.1261 114.116C18.8952 114.116 18.6642 114.028 18.4867 113.851C18.1346 113.498 18.1346 112.925 18.4867 112.569L22.5316 108.517C22.8837 108.164 23.4583 108.164 23.8104 108.517C24.1625 108.869 24.1625 109.442 23.8104 109.798L19.7655 113.851C19.5881 114.028 19.3571 114.116 19.1261 114.116Z" fill="#FFA241"/>
<path d="M23.171 124.77C22.94 124.77 22.7091 124.682 22.5316 124.504L18.4867 120.452C18.1346 120.099 18.1346 119.526 18.4867 119.17C18.8388 118.818 19.4134 118.818 19.7655 119.17L23.8104 123.223C24.1625 123.576 24.1625 124.149 23.8104 124.504C23.633 124.682 23.402 124.77 23.171 124.77Z" fill="#FFA241"/>
<path d="M19.1261 124.77C18.8952 124.77 18.6642 124.682 18.4867 124.504C18.1346 124.152 18.1346 123.579 18.4867 123.223L22.5316 119.17C22.8837 118.818 23.4555 118.818 23.8104 119.17C24.1625 119.523 24.1625 120.096 23.8104 120.452L19.7655 124.504C19.5881 124.682 19.3571 124.77 19.1261 124.77Z" fill="#FFA241"/>
<path d="M54.8573 88.9545H33.3261C32.8275 88.9545 32.4219 88.5481 32.4219 88.0485C32.4219 87.549 32.8275 87.1426 33.3261 87.1426H54.8573C55.3559 87.1426 55.7615 87.549 55.7615 88.0485C55.7615 88.5481 55.3559 88.9545 54.8573 88.9545Z" fill="#C4C4C4"/>
<path d="M54.8573 100.331H33.3261C32.8275 100.331 32.4219 99.925 32.4219 99.4255C32.4219 98.9259 32.8275 98.5195 33.3261 98.5195H54.8573C55.3559 98.5195 55.7615 98.9259 55.7615 99.4255C55.7615 99.925 55.3559 100.331 54.8573 100.331Z" fill="#C4C4C4"/>
<path d="M54.8573 111.711H33.3261C32.8275 111.711 32.4219 111.304 32.4219 110.805C32.4219 110.305 32.8275 109.899 33.3261 109.899H54.8573C55.3559 109.899 55.7615 110.305 55.7615 110.805C55.7615 111.304 55.3559 111.711 54.8573 111.711Z" fill="#C4C4C4"/>
<path d="M54.8573 123.091H33.3261C32.8275 123.091 32.4219 122.684 32.4219 122.185C32.4219 121.685 32.8275 121.279 33.3261 121.279H54.8573C55.3559 121.279 55.7615 121.685 55.7615 122.185C55.7615 122.684 55.3559 123.091 54.8573 123.091Z" fill="#C4C4C4"/>
<path d="M54.8573 134.47H33.3261C32.8275 134.47 32.4219 134.064 32.4219 133.564C32.4219 133.065 32.8275 132.658 33.3261 132.658H54.8573C55.3559 132.658 55.7615 133.065 55.7615 133.564C55.7615 134.064 55.3559 134.47 54.8573 134.47Z" fill="#C4C4C4"/>
<path d="M83.8051 26.0538C83.8164 25.1197 84.5825 24.3746 85.5148 24.3859C86.4472 24.3972 87.1908 25.1648 87.1796 26.099C87.1683 27.0332 86.4021 27.7783 85.4698 27.767C84.5374 27.7557 83.7938 26.988 83.8051 26.0538Z" fill="black"/>
<path d="M73.4875 24.6459C74.4198 24.6572 75.1635 25.4248 75.1522 26.359C75.141 27.2932 74.3748 28.0383 73.4424 28.027C72.5101 28.0157 71.7665 27.248 71.7778 26.3139C71.789 25.3797 72.5551 24.6346 73.4875 24.6459Z" fill="black"/>
<path d="M136.422 144.986C136.121 144.997 135.82 145 135.521 145C133.082 145 130.642 144.67 128.234 144.021H142.645C140.65 144.591 138.572 144.915 136.425 144.986H136.422Z" fill="black"/>
<path d="M62.8977 144.639H11.0723C10.6723 144.639 10.3343 144.379 10.216 144.021H63.7539C63.6328 144.379 63.2948 144.639 62.8977 144.639Z" fill="black"/>
<path d="M10.1675 130.442C10.1337 130.445 10.0972 130.451 10.0634 130.451C9.99574 130.451 9.92815 130.442 9.86055 130.428C9.47183 130.338 0.362488 128.173 0.861053 122.864C0.970901 121.685 1.22441 120.646 1.6272 119.732C1.33144 119.345 0.886368 118.684 0.537079 117.858C-0.237518 116.02 -0.175522 114.234 0.714584 112.693C0.844147 112.47 0.999039 112.252 1.17368 112.044C-0.338913 109.664 0.252609 107.217 1.11171 105.987C0.737091 105.538 0.348404 104.892 0.22728 104.056C0.0470123 102.806 0.506104 101.516 1.59337 100.224C3.66368 97.7599 7.38741 96.3318 10.1732 96.1258V78.8816C10.1732 78.382 10.5788 77.9756 11.0774 77.9756H37.8421C40.3912 73.9454 46.4135 66.63 51.985 62.7803C61.0747 56.5007 76.0795 54.0312 79.7131 53.5091L79.7469 47.6415C78.6849 47.3593 77.654 47.0065 76.6766 46.5888C74.3275 45.5784 72.3473 44.2124 70.8178 42.567C70.184 42.9904 69.1305 43.8145 68.1982 45.1212C66.2828 47.8109 65.9701 52.1657 66.8602 56.131C66.9701 56.6193 66.6631 57.1047 66.1758 57.212C66.1082 57.2261 66.0434 57.2345 65.9758 57.2345C65.5617 57.2345 65.1899 56.9495 65.0941 56.5261C63.8266 50.8787 65.2181 46.1429 66.7842 43.9838C67.7897 42.5981 68.9024 41.6837 69.6658 41.1559C69.4094 40.7946 69.17 40.4249 68.9531 40.0439C66.6772 36.0447 65.7814 30.259 66.2884 22.8504C66.3476 21.9727 66.4546 21.0893 66.6039 20.2285C66.6039 20.2172 66.6096 20.206 66.6124 20.1947C66.6068 20.189 66.6011 20.1806 66.5983 20.1749C66.5898 20.1636 66.5842 20.1495 66.5757 20.1382C66.5673 20.1269 66.5589 20.1128 66.5533 20.1015C66.542 20.0846 66.5335 20.0648 66.5251 20.0451C66.5222 20.0366 66.5166 20.031 66.5138 20.0225C66.4884 19.9661 66.4715 19.9068 66.4575 19.8475C65.2885 14.2311 65.9673 9.81142 68.4742 6.70689C71.6994 2.71334 76.8175 2.3295 77.8118 2.29281C79.9722 1.53361 86.9099 -0.605689 94.363 0.164799C98.2191 0.565565 102.03 1.83278 105.382 3.83661C108.824 5.89125 111.711 8.68532 113.734 11.914C117.934 18.6142 118.787 27.1234 119.06 33.7897C119.077 34.1763 119.088 34.5686 119.094 34.9581C120.866 35.0992 124.722 35.8951 127.488 39.9677C130.158 43.8963 130.023 47.4468 129.775 49.016C131.265 49.6538 134.499 51.4149 136.296 55.2674C137.941 58.7896 137.11 62.2752 136.431 64.1068C138.194 65.185 139.684 66.2913 140.955 67.4625C146.695 72.7515 152.399 83.7162 156.21 96.7947C159.895 109.436 160.982 121.287 159.052 127.727C157.086 134.283 152.712 139.513 146.735 142.448C145.419 143.095 144.05 143.619 142.642 144.02H128.232C127.232 143.749 126.234 143.425 125.246 143.044C116.314 139.601 105.776 128.447 100.292 122.102C93.6335 114.403 86.7775 104.875 86.8282 102.253C86.8676 100.244 87.4733 98.1917 87.831 97.1419C84.7466 96.9048 82.8932 95.1296 81.8538 93.5801C81.4791 93.0213 81.1862 92.4568 80.9581 91.9432C80.8454 92.0363 80.7327 92.1153 80.6257 92.1831C79.9412 92.6092 79.1018 92.7588 78.2652 92.7588C76.5301 92.7588 74.8119 92.121 74.5415 92.0166C74.5302 92.0109 74.519 92.0081 74.5077 92.0024C72.9951 91.3448 71.9389 90.2808 71.4572 88.9233C70.9868 87.5968 71.1135 86.118 71.8149 84.7576C71.8403 84.7096 71.8684 84.6616 71.8938 84.6137C70.2009 83.2195 69.6376 80.9306 70.4713 78.7771C70.1446 78.4865 69.8657 78.1647 69.6348 77.8148L64.3364 82.1046C64.297 82.1357 64.2548 82.1639 64.2097 82.1893C64.19 82.2006 64.1703 82.2062 64.1506 82.2175C64.1252 82.2288 64.0998 82.2429 64.0745 82.2514C64.052 82.2599 64.0294 82.2655 64.0041 82.2712C63.9787 82.2768 63.9562 82.2853 63.9308 82.2909C63.9083 82.2966 63.883 82.2966 63.8604 82.2994C63.8407 82.2994 63.821 82.305 63.7985 82.3078V143.732C63.7985 143.834 63.7816 143.93 63.7506 144.02H10.2126C10.1817 143.93 10.1647 143.834 10.1647 143.732V130.442H10.1675ZM10.1675 128.642V122.21C10.0802 122.238 9.99292 122.266 9.91124 122.294C9.6042 122.393 9.31128 122.478 9.01271 122.548C8.52823 122.664 8.04089 122.362 7.92542 121.876C7.80992 121.391 8.11136 120.903 8.59584 120.787C8.8437 120.728 9.09157 120.657 9.35071 120.573C10.8041 120.098 12.7928 119.452 13.6293 118.095C14.0659 117.386 14.08 116.085 13.6603 115.416C13.466 115.106 13.2237 114.99 12.8547 115.03C10.0859 115.332 5.29741 117.691 4.14253 119.063C3.28906 120.076 2.81866 121.337 2.65811 123.036C2.3708 126.093 7.88596 128.091 10.1647 128.642H10.1675ZM2.64684 118.035C2.68626 117.987 2.72293 117.939 2.76236 117.891C4.30312 116.06 9.50279 113.602 12.5815 113.235C12.8407 113.161 14.0518 112.732 14.2687 111.197C14.3899 110.342 14.2688 109.681 13.9307 109.337C13.6096 109.01 13.1111 108.993 12.7477 109.035C10.9647 109.25 3.8102 110.94 2.27225 113.596C1.29765 115.281 2.02432 117.025 2.64401 118.033L2.64684 118.035ZM14.4096 105.112C14.4237 104.5 14.2265 103.707 13.1955 103.41C12.9448 103.34 11.4942 103.057 7.44658 104.542C5.36501 105.307 3.74257 106.139 3.02994 106.622C2.96797 106.681 2.90038 106.732 2.82433 106.772C2.75954 106.822 2.71164 106.868 2.68066 106.904C2.19336 107.48 1.61874 109.094 2.54265 110.802C5.74811 108.51 11.3027 107.387 12.5365 107.237C12.7167 107.215 12.8942 107.206 13.0688 107.209C13.0772 107.209 13.0829 107.203 13.0914 107.203C13.7815 107.042 14.387 106.083 14.4096 105.109V105.112ZM10.6239 97.9123C7.89726 98.0027 4.53691 99.5295 2.97079 101.389C2.23843 102.262 1.91447 103.066 2.01024 103.78C2.0694 104.223 2.28627 104.576 2.4919 104.824C3.77634 104.054 5.64388 103.278 6.82127 102.846C8.1564 102.355 10.314 101.66 12.0717 101.547C12.5167 101.457 13.1533 100.839 13.3928 100.066C13.5787 99.4646 13.4772 98.9594 13.0942 98.5558C12.666 98.1099 11.7647 97.8728 10.6239 97.9123ZM70.5361 57.1781C63.1083 59.0267 57.0467 61.4793 53.0047 64.2733C48.1261 67.6432 42.7067 74.0244 40.0026 77.9756H57.2298L57.9706 75.0771C57.9706 75.0771 57.9734 75.0686 57.9734 75.0658C57.9847 75.0235 57.9988 74.984 58.0157 74.9445C58.0157 74.9416 58.0185 74.936 58.0213 74.9332C58.0382 74.8937 58.0579 74.857 58.0805 74.8231C58.0805 74.8203 58.0861 74.8146 58.0861 74.8118C58.1086 74.7751 58.1368 74.7413 58.165 74.7102C58.1706 74.7046 58.1762 74.6989 58.1819 74.6905C58.2101 74.6594 58.241 74.6284 58.2776 74.6001L63.2492 70.5755C62.4774 70.3131 61.8267 69.9095 61.4127 69.2688C60.8747 68.4391 60.855 67.3779 61.3535 66.1219C63.0858 61.7502 71.6177 60.8217 75.5302 60.6298L81.5749 55.7331C81.1721 55.5835 80.7721 55.4198 80.3778 55.2505C79.2314 55.4113 75.2964 55.9984 70.5361 57.1837V57.1781ZM58.4044 80.685L61.9281 80.5608L59.2747 77.2729L58.4044 80.685ZM82.5242 57.2882L78.4117 60.6185C81.0257 60.7906 83.3664 61.4906 85.4085 62.7126L86.2761 62.0099L82.5242 57.2882ZM87.6817 60.8725L89.1745 59.6645C89.2083 59.6363 89.2168 59.6024 89.2196 59.5799C89.2224 59.5573 89.2196 59.5206 89.1914 59.4867L85.5635 54.988C85.5184 54.9344 85.4395 54.9259 85.386 54.9682L83.9298 56.1479L87.6789 60.8697L87.6817 60.8725ZM70.5192 39.1464C73.5866 44.537 80.7694 46.7948 86.5268 46.6396C86.6479 46.6368 86.7662 46.6311 86.8873 46.6255C87.3831 46.6029 87.8084 46.9868 87.8338 47.4863C87.8563 47.9859 87.4732 48.4092 86.9747 48.4346C86.8423 48.4402 86.7099 48.4459 86.5775 48.4487C86.3718 48.4544 86.1662 48.4572 85.9606 48.4572C84.4903 48.4572 83.0031 48.3161 81.5468 48.0451L81.5158 53.7546C82.0848 53.9861 82.6594 54.1977 83.2368 54.3812L84.2537 53.5571C85.0818 52.8854 86.3015 53.0152 86.9719 53.8449L88.214 55.3859C92.5743 55.7641 96.1939 54.7904 98.2276 54.0453C97.8445 53.2664 97.4699 52.3265 97.1741 51.2089C95.5545 45.0704 97.5684 38.4352 99.5458 33.9421C99.5458 33.9421 99.5458 33.9393 99.5458 33.9364C99.5458 33.9336 99.5486 33.928 99.5514 33.9252C99.5542 33.9167 99.5599 33.911 99.5627 33.9026C99.5712 33.8856 99.5796 33.8687 99.5881 33.8518C99.5965 33.8377 99.6049 33.8236 99.6134 33.8123C99.619 33.801 99.6275 33.7897 99.6331 33.7812C99.6444 33.7643 99.6584 33.7474 99.6725 33.7304C99.6753 33.7248 99.681 33.7191 99.6838 33.7135C99.7007 33.6937 99.7177 33.674 99.7346 33.657C99.7346 33.657 99.7373 33.6542 99.7401 33.6514C99.7598 33.6316 99.7796 33.6119 99.8022 33.5949C99.8247 33.578 99.8472 33.5583 99.8698 33.5441C99.8923 33.5272 99.9176 33.5131 99.943 33.499C99.9683 33.4849 99.9909 33.4736 100.016 33.4623C100.016 33.4623 100.019 33.4623 100.022 33.4623C100.047 33.451 100.073 33.4425 100.098 33.4341C100.098 33.4341 100.104 33.4341 100.106 33.4341C100.132 33.4256 100.157 33.42 100.182 33.4143C100.185 33.4143 100.188 33.4143 100.194 33.4143C100.219 33.4087 100.244 33.4059 100.273 33.403C100.275 33.403 100.278 33.403 100.281 33.403C100.306 33.403 100.335 33.4002 100.36 33.3974C100.363 33.3974 100.368 33.3974 100.371 33.3974C100.396 33.3974 100.419 33.3974 100.444 33.4002C100.45 33.4002 100.456 33.4002 100.461 33.4002C100.749 33.4284 101.042 33.4256 101.334 33.3974C102.484 33.276 103.517 32.7144 104.247 31.8141C104.974 30.9138 105.309 29.7848 105.188 28.6305C105.067 27.479 104.506 26.4432 103.608 25.7123C102.709 24.9841 101.582 24.6483 100.43 24.7696C99.805 24.8345 99.2162 25.0293 98.681 25.3454C98.6444 25.3679 98.605 25.3849 98.5656 25.4018C98.4473 25.4695 98.3093 25.5119 98.1628 25.5175C98.1487 25.5175 98.1346 25.5175 98.1205 25.5175C97.6388 25.5175 97.2389 25.1393 97.2192 24.6539L97.0642 21.2276L90.2928 20.666C89.8957 20.6321 89.5661 20.3414 89.4844 19.9519C89.1435 18.3404 88.6478 16.5087 88.2309 15.3883C87.6619 17.3893 87.5577 19.5738 87.5577 19.5992C87.538 20.0818 87.1408 20.4628 86.6592 20.4656L68.37 20.5729C68.2348 21.3659 68.1362 22.1787 68.0827 22.9859C67.6011 30.0332 68.4179 35.4746 70.5164 39.1605L70.5192 39.1464ZM134.657 56.0322C132.671 51.7762 128.508 50.4638 128.468 50.4525C128.237 50.3848 128.046 50.2239 127.93 50.0123C127.817 49.8006 127.792 49.5494 127.863 49.318C127.91 49.1599 128.995 45.4063 125.989 40.9837C122.961 36.5273 118.441 36.7305 118.252 36.7418C118.001 36.7587 117.759 36.6712 117.576 36.4991C117.393 36.3269 117.291 36.0899 117.291 35.8387C117.291 35.1811 117.277 34.515 117.252 33.8631C116.987 27.4226 116.176 19.2181 112.201 12.8764C110.331 9.89045 107.65 7.3024 104.453 5.3917C101.323 3.52334 97.7684 2.33797 94.1742 1.96543C86.9296 1.21469 80.175 3.36811 78.2765 4.04546C78.1807 4.07933 78.0793 4.09626 77.9779 4.09909C77.9272 4.09909 72.8515 4.16118 69.8742 7.84428C67.8292 10.3759 67.2264 14.0421 68.0799 18.7496L85.817 18.6452C85.924 17.5022 86.2029 15.4334 86.8873 13.7062C87.2732 12.7325 87.9436 12.6817 88.214 12.7043C89.1097 12.7805 89.7041 13.7626 90.4787 16.4579C90.7463 17.3921 90.9688 18.3094 91.1068 18.9049L98.0079 19.4778C98.4614 19.5145 98.8162 19.8842 98.836 20.3386L98.9655 23.2286C99.3768 23.0932 99.8021 23.0029 100.242 22.9577C101.872 22.7855 103.47 23.2625 104.745 24.2955C106.019 25.3284 106.816 26.7988 106.985 28.4301C107.157 30.0642 106.681 31.6645 105.65 32.943C104.619 34.2187 103.151 35.0174 101.52 35.1867C101.334 35.2065 101.146 35.2149 100.957 35.2178C99.1937 39.3807 97.5178 45.251 98.8783 50.6134C99.7205 53.9324 101.363 55.5157 101.374 55.5299C101.675 55.8093 101.751 56.2637 101.554 56.6277C101.385 56.941 97.5036 64.3637 105.371 69.012C108.576 70.9058 111.762 71.2275 114.835 69.9659C117.173 69.0063 118.587 67.4428 118.598 67.4287C118.762 67.2424 118.995 67.1323 119.243 67.1239C122.423 67.011 124.733 66.1135 126.111 64.4568C127.913 62.2893 127.525 59.4726 127.522 59.4444C127.449 58.9505 127.787 58.4905 128.279 58.4142C128.772 58.338 129.234 58.6767 129.31 59.1706C129.319 59.2243 129.395 59.752 129.364 60.5338C131.412 61.4115 133.223 62.2864 134.837 63.1783C135.389 61.5611 135.941 58.7896 134.654 56.0294L134.657 56.0322ZM101.656 120.917C110.802 131.492 119.635 138.943 125.894 141.353C132.645 143.955 139.952 143.761 145.938 140.82C151.458 138.108 155.498 133.273 157.32 127.202C159.157 121.081 158.067 109.622 154.475 97.2999C150.754 84.5262 145.242 73.8692 139.732 68.7947C137.262 66.5199 133.871 64.4737 129.11 62.3965C128.86 63.4182 128.389 64.5556 127.527 65.597C125.866 67.6093 123.229 68.7269 119.686 68.9189C119.114 69.4805 117.691 70.7392 115.607 71.6113C114.415 72.1109 112.892 72.5229 111.123 72.5229C109.168 72.5229 106.912 72.0206 104.464 70.5727C99.5711 67.6799 98.6107 63.7907 98.6642 61.039C98.7064 58.9561 99.3233 57.2232 99.6951 56.3568C99.5402 56.1705 99.3543 55.9278 99.1515 55.6343C97.3375 56.3314 94.1264 57.2853 90.1632 57.2853C90.0223 57.2853 89.8815 57.2853 89.7407 57.2797L90.5998 58.3465C90.9237 58.7501 91.073 59.2553 91.0195 59.769C90.966 60.2826 90.7153 60.7455 90.3125 61.07L86.9606 63.7851C87.2592 64.0222 87.5521 64.2733 87.8365 64.5386C90.7124 67.217 97.9064 77.0019 98.8275 78.2635L101.698 80.3012C102.044 80.0303 102.703 79.5448 103.526 79.0989C105.23 78.176 106.765 77.8712 108.081 78.1986C110.368 78.7659 117.911 84.5939 123.598 89.1801V79.0763C123.598 78.5768 124.004 78.1703 124.502 78.1703C125.001 78.1703 125.406 78.5768 125.406 79.0763V90.5715C125.406 90.5969 125.406 90.6195 125.404 90.6449C125.73 90.9102 126.046 91.1699 126.347 91.4182C134.409 98.0309 142.045 104.756 143.732 106.732C144.056 107.113 144.014 107.683 143.634 108.008C143.462 108.154 143.253 108.225 143.045 108.225C142.791 108.225 142.538 108.118 142.358 107.909C138.837 103.788 111.416 80.8911 107.647 79.9569C106.213 79.6013 104.337 80.6286 103.244 81.3991L103.861 81.8365C104.748 82.4659 105.12 83.5892 104.782 84.6278C103.813 87.6109 100.723 94.98 92.9603 98.9905C92.5997 99.1767 92.211 99.267 91.8251 99.267C91.1913 99.267 90.566 99.0215 90.0899 98.5558L89.4675 97.9434C89.1435 98.934 88.6647 100.656 88.6309 102.287C88.6084 103.506 93.0588 110.977 101.653 120.914L101.656 120.917ZM71.9501 69.949C74.2711 68.6169 77.4175 68.5068 79.9469 68.9668C80.437 69.0572 80.7637 69.5285 80.6736 70.0195C80.5834 70.5106 80.1131 70.838 79.6229 70.7477C76.5808 70.1945 72.5219 70.5332 71.0854 73.316C70.3727 74.6989 70.5192 76.1524 71.4121 77.1572C73.6261 74.428 77.9329 74.0667 81.2088 74.6622C81.6989 74.7525 82.0256 75.2239 81.9355 75.715C81.8453 76.206 81.3749 76.5334 80.8848 76.4431C77.8427 75.8899 73.781 76.2286 72.3473 79.0114C71.5557 80.5411 71.8403 82.178 73.0036 83.1715C75.3246 80.9531 79.2483 80.6822 82.2847 81.2354C82.7749 81.3257 83.1016 81.797 83.0115 82.2881C82.9214 82.7792 82.451 83.1066 81.9608 83.0162C78.9188 82.4631 74.857 82.8018 73.4233 85.5845C72.9529 86.4933 72.8628 87.4614 73.1641 88.3109C73.4712 89.1773 74.181 89.8744 75.2119 90.3288C76.4119 90.786 78.668 91.2715 79.6764 90.6421C79.8285 90.5461 80.0173 90.3909 80.1384 90.0692C78.8202 89.4454 77.4794 89.9732 77.423 89.9958C76.9639 90.1905 76.4316 89.9732 76.24 89.5104C76.0457 89.0503 76.2625 88.5197 76.7245 88.325C76.8315 88.2798 79.3666 87.244 81.6482 88.8584C81.6538 88.8612 81.6566 88.864 81.6623 88.8669C81.6679 88.8725 81.6764 88.8753 81.682 88.881C81.6876 88.8866 81.6933 88.8895 81.6989 88.8951C81.713 88.9064 81.7242 88.9149 81.7383 88.9261C81.7468 88.9346 81.7581 88.9431 81.7665 88.9515C81.7778 88.9628 81.7918 88.9741 81.8031 88.9854C81.8115 88.9939 81.82 89.0023 81.8257 89.0108C81.8369 89.0249 81.8482 89.039 81.8594 89.0531C81.8651 89.0616 81.8707 89.0673 81.8763 89.0757C81.8876 89.0927 81.8989 89.1068 81.9102 89.1237C81.9158 89.1293 81.9186 89.1378 81.9242 89.1435C81.9355 89.1604 81.9468 89.1802 81.9552 89.1999C81.958 89.2056 81.9609 89.214 81.9637 89.2197C81.9721 89.2394 81.9834 89.2592 81.989 89.2789C81.989 89.2846 81.9946 89.293 81.9974 89.2987C82.0059 89.3184 82.0115 89.3382 82.0172 89.358C82.0172 89.3664 82.0228 89.3777 82.0256 89.3862C82.0313 89.4031 82.0341 89.4229 82.0397 89.4398C82.0397 89.4426 82.0397 89.4483 82.0425 89.4511C82.0904 89.7051 83.2537 95.6573 88.9914 95.3356C89.2449 95.3215 89.4928 95.4146 89.6759 95.5952L91.3659 97.2604C91.5716 97.4636 91.8814 97.5116 92.1377 97.3789C99.3035 93.6789 102.168 86.8376 103.07 84.0661C103.16 83.7867 103.061 83.4819 102.822 83.3126L97.6642 79.6521C97.5854 79.5956 97.5149 79.5279 97.4586 79.4489C97.3797 79.3388 89.4928 68.5491 86.6085 65.8623C84.0283 63.4605 80.682 62.2921 76.6597 62.3881C70.6882 62.532 64.1618 63.946 63.038 66.7795C62.7675 67.4597 62.7337 67.9621 62.9337 68.2725C63.4773 69.1108 65.8152 69.2152 67.3644 69.2801C67.801 69.2999 68.2123 69.3168 68.5954 69.3478C69.4292 69.4128 71.2037 69.7825 71.9558 69.9434L71.9501 69.949ZM63.9055 80.129L68.9193 76.0677C68.694 74.9219 68.8658 73.6716 69.4798 72.4862C69.6798 72.1024 69.9136 71.7524 70.1756 71.4335C69.5052 71.3037 68.832 71.188 68.4546 71.1598C68.1025 71.1315 67.7053 71.1146 67.2827 71.0977C66.7278 71.0723 66.156 71.0497 65.5955 71.0017L60.1198 75.4355L63.9055 80.129ZM11.9759 121.594V142.826H61.9929V82.3728L57.2608 82.5393C57.2608 82.5393 57.2382 82.5393 57.2298 82.5393C56.9566 82.5393 56.6974 82.4151 56.5256 82.2006C56.3481 81.9776 56.2834 81.6841 56.3538 81.4075L56.7679 79.7847H11.9759V96.1766C13.0069 96.3319 13.8321 96.71 14.3983 97.3027C15.2377 98.1776 15.4997 99.3799 15.1194 100.605C14.9673 101.096 14.7194 101.559 14.4096 101.962C15.5729 102.572 16.2489 103.74 16.2123 105.16C16.1842 106.238 15.7616 107.251 15.1138 107.971C15.1504 108.005 15.187 108.039 15.2208 108.073C15.7448 108.606 16.3137 109.628 16.0574 111.454C15.894 112.625 15.3758 113.427 14.8068 113.966C14.9476 114.107 15.0743 114.268 15.187 114.448C15.97 115.693 15.9616 117.753 15.1644 119.046C14.4152 120.262 13.1984 121.016 11.9675 121.546C11.9675 121.563 11.9675 121.58 11.9675 121.597L11.9759 121.594Z" fill="black"/>
<path d="M98.6285 28.4666C100.451 27.5042 102.42 27.5127 102.502 27.5155C103 27.5211 103.4 27.9275 103.394 28.4271C103.392 28.9238 102.986 29.3246 102.49 29.3246H102.485C102.485 29.3246 100.879 29.3246 99.4707 30.0669C99.3355 30.1374 99.1918 30.1713 99.051 30.1713C98.7271 30.1713 98.4116 29.9963 98.2511 29.6887C98.0173 29.2456 98.1863 28.698 98.6285 28.4666Z" fill="black"/>
<path d="M78.9525 33.1121C81.6144 33.6738 83.065 31.9211 83.1326 31.8365C83.4396 31.447 84.0057 31.3764 84.3973 31.6841C84.7916 31.9917 84.8621 32.5618 84.555 32.9541C84.479 33.0501 82.896 35.037 80.0004 35.037C79.5581 35.037 79.0849 34.9918 78.5807 34.8845C78.0934 34.7801 77.7808 34.3003 77.8822 33.8121C77.9864 33.3238 78.4652 33.0105 78.9525 33.1121Z" fill="black"/>
<path d="M76.6779 29.6666C78.0553 28.4558 79.5792 29.1473 80.1932 29.6807C80.5707 30.0081 80.6157 30.5838 80.289 30.962C80.1087 31.168 79.858 31.2753 79.6045 31.2753C79.396 31.2753 79.1877 31.2019 79.0186 31.0552C78.8356 30.9056 78.3567 30.6008 77.8722 31.0269C77.4976 31.3571 76.9258 31.3204 76.5962 30.9423C76.2667 30.5669 76.3033 29.994 76.6779 29.6638V29.6666Z" fill="black"/>
<path d="M32.3119 64.779C29.6219 66.4893 25.9601 67.3162 22.0054 67.113C21.9885 67.113 21.9744 67.113 21.9575 67.113C21.7209 67.113 21.4928 67.2062 21.3238 67.3727C21.1435 67.5505 21.0449 67.796 21.0534 68.05C21.0815 68.8064 21.1154 69.6305 21.1464 70.3784L17.5324 66.5627C17.4198 66.4441 17.2789 66.3595 17.1212 66.3143C12.1046 64.8975 8.49064 61.9031 7.20902 58.0986C6.87383 57.1051 6.73024 56.027 6.78094 54.9009C6.93586 51.4577 8.89066 47.7944 11.7609 45.5676C14.7157 43.2731 19.2901 42.1978 23.9969 42.686C28.8051 43.1856 32.9259 45.1668 35.3033 48.1218C37.3792 50.7013 38.2496 53.8002 37.7482 56.8455C37.2243 60.0234 35.2441 62.9163 32.3119 64.779Z" fill="black"/>
<path d="M20.9253 61.1804C20.9 61.1804 20.8774 61.1804 20.8521 61.1804C20.3479 61.1578 19.8831 60.8953 19.6015 60.4776L15.3398 54.1557C14.8468 53.4247 15.0384 52.4284 15.7707 51.9345C16.5003 51.4406 17.4946 51.6325 17.9875 52.3663L21.0465 56.9074L26.7673 49.8996C27.325 49.2166 28.3306 49.115 29.015 49.6738C29.6967 50.2327 29.7981 51.2402 29.2404 51.926L22.1619 60.599C21.8577 60.9715 21.4042 61.186 20.9253 61.186V61.1804Z" fill="white"/>
<path d="M33.2854 66.3087C30.5109 68.0727 26.8576 69.0012 22.9029 68.9532C22.9761 70.8047 23.0634 72.6956 23.0662 72.7182C23.0831 73.0964 22.8662 73.4463 22.517 73.5931C22.4015 73.6411 22.2832 73.6665 22.162 73.6665C21.9198 73.6665 21.6804 73.5677 21.5057 73.3842L16.3962 67.988C10.9204 66.3765 6.95726 62.9925 5.50382 58.6772C5.09821 57.4693 4.92073 56.171 4.9827 54.8192C5.16015 50.8679 7.39099 46.674 10.6612 44.1367C14.0244 41.5261 18.9566 40.3407 24.1901 40.8855C29.4715 41.433 34.0374 43.657 36.7162 46.9844C39.1217 49.9733 40.1216 53.5802 39.5357 57.1419C38.9273 60.8278 36.6486 64.1694 33.2826 66.3087H33.2854ZM35.3106 48.1218C32.9333 45.1669 28.8124 43.1856 24.0042 42.6861C19.2974 42.1978 14.7259 43.2759 11.7683 45.5677C8.898 47.7944 6.94594 51.4578 6.7882 54.901C6.7375 56.0299 6.88116 57.1052 7.21636 58.0987C8.49798 61.9031 12.1119 64.8976 17.1285 66.3144C17.2863 66.3595 17.4271 66.4442 17.5398 66.5627L21.1536 70.3785C21.1226 69.6334 21.0889 68.8065 21.0607 68.0501C21.0523 67.7961 21.148 67.5506 21.3311 67.3727C21.5001 67.2062 21.7283 67.1131 21.9649 67.1131C21.9818 67.1131 21.9958 67.1131 22.0127 67.1131C25.9703 67.3163 29.6293 66.4894 32.3193 64.7791C35.2515 62.9163 37.2317 60.0235 37.7556 56.8456C38.257 53.8003 37.3894 50.7014 35.3106 48.1218Z" fill="black"/>
</svg>
