<svg width="144" height="113" viewBox="0 0 144 113" fill="none" xmlns="http://www.w3.org/2000/svg">
<g id="Frame 1000005948">
<path id="Vector" d="M19.96 34.1652C19.4146 33.05 18.645 32.1063 17.709 31.4107C18.645 30.7152 19.4169 29.7715 19.96 28.6562C20.5031 29.7715 21.275 30.7152 22.2109 31.4107C21.275 32.1063 20.5031 33.05 19.96 34.1652Z" fill="#6099FF"/>
<path id="Vector_2" d="M23.945 32.0774C22.4151 32.8054 21.2595 34.3032 20.7788 36.1813L20.6725 36.5963C20.5893 36.9209 20.2982 37.1481 19.9631 37.1481C19.628 37.1481 19.3368 36.9209 19.2536 36.5963L19.1473 36.1813C18.6666 34.3032 17.511 32.8054 15.9811 32.0774C15.7246 31.9545 15.5628 31.6972 15.5628 31.412C15.5628 31.1268 15.7269 30.8694 15.9811 30.7465C17.511 30.0185 18.6666 28.5207 19.1473 26.6426L19.2536 26.2276C19.3368 25.903 19.628 25.6758 19.9631 25.6758C20.2982 25.6758 20.5893 25.903 20.6725 26.2276L20.7788 26.6426C21.2595 28.5207 22.4151 30.0185 23.945 30.7465C24.2016 30.8694 24.3633 31.1268 24.3633 31.412C24.3633 31.6972 24.1992 31.9545 23.945 32.0774ZM19.9631 28.6598C19.4177 29.775 18.6481 30.7187 17.7121 31.4143C18.6481 32.1098 19.42 33.0535 19.9631 34.1687C20.5062 33.0535 21.2781 32.1098 22.214 31.4143C21.2781 30.7187 20.5062 29.775 19.9631 28.6598Z" fill="black"/>
<path id="Vector_3" d="M23.1385 14.4774H21.6132V16.0077C21.6132 16.4134 21.285 16.7427 20.8806 16.7427C20.4762 16.7427 20.148 16.4134 20.148 16.0077V14.4774H18.6227C18.2183 14.4774 17.8901 14.1482 17.8901 13.7424C17.8901 13.3367 18.2183 13.0074 18.6227 13.0074H20.148V11.4772C20.148 11.0714 20.4762 10.7422 20.8806 10.7422C21.285 10.7422 21.6132 11.0714 21.6132 11.4772V13.0074H23.1385C23.5429 13.0074 23.8711 13.3367 23.8711 13.7424C23.8711 14.1482 23.5429 14.4774 23.1385 14.4774Z" fill="black"/>
<path id="Vector_4" d="M124.825 23.5095L124.314 27.9056L121.374 24.6039C121.074 24.2654 120.612 24.11 120.166 24.2005L115.839 25.0723L118.06 21.2489C118.289 20.8571 118.291 20.3678 118.07 19.9714L115.906 16.1132L120.219 17.0523C120.66 17.1473 121.127 17.0013 121.432 16.6674L124.42 13.4121L124.864 17.8151C124.91 18.2672 125.192 18.6637 125.604 18.8538L129.613 20.6994L125.576 22.4824C125.162 22.6656 124.871 23.0597 124.82 23.5095H124.825Z" fill="#FFA241"/>
<path id="Vector_5" d="M130.589 21.8794L126.27 23.7876L125.724 28.4897C125.664 28.9998 125.327 29.4125 124.839 29.5655C124.71 29.6073 124.576 29.6281 124.446 29.6281C124.09 29.6281 123.746 29.4774 123.499 29.1969L120.356 25.6657L115.729 26.5978C115.227 26.6998 114.733 26.5027 114.435 26.0853C114.137 25.668 114.113 25.1347 114.37 24.6919L116.746 20.6019L114.432 16.4748C114.183 16.0273 114.215 15.4941 114.518 15.0814C114.821 14.6686 115.32 14.4808 115.819 14.5898L120.429 15.5938L123.626 12.1112C123.972 11.7333 124.488 11.6012 124.973 11.7635C125.458 11.9258 125.791 12.3431 125.842 12.8532L126.316 17.5646L130.605 19.5377C131.07 19.751 131.356 20.2031 131.352 20.7155C131.347 21.2279 131.056 21.6754 130.587 21.8818L130.589 21.8794ZM125.611 18.8537C125.199 18.6636 124.915 18.2671 124.871 17.815L124.428 13.412L121.439 16.6673C121.132 17.0011 120.668 17.1495 120.226 17.0521L115.914 16.1131L118.077 19.9712C118.299 20.3677 118.294 20.8569 118.068 21.2488L115.847 25.0721L120.173 24.2003C120.617 24.1122 121.079 24.2653 121.382 24.6038L124.321 27.9054L124.832 23.5094C124.885 23.0596 125.174 22.6654 125.588 22.4823L129.625 20.6993L125.615 18.8537H125.611Z" fill="black"/>
<path id="Vector_6" d="M102.031 23.3265L83.6284 26.9017C83.5105 26.9249 83.3973 26.8461 83.3741 26.7279L82.8865 24.196C82.7201 23.3358 81.939 22.7515 81.07 22.8349L77.9409 23.141L81.1763 19.8741C81.5646 19.4823 81.7379 18.9235 81.6385 18.381L79.8013 8.26266C79.7805 8.14673 79.8567 8.0308 79.9746 8.00993L98.389 4.43236C98.4029 4.43004 98.4168 4.42773 98.4307 4.42773C98.5323 4.42773 98.6248 4.49961 98.6433 4.60395L102.207 23.0668C102.23 23.1851 102.151 23.2987 102.034 23.3219L102.031 23.3265Z" fill="black"/>
<path id="Vector_7" d="M89.8737 20.6626C89.8012 20.6775 89.7296 20.6851 89.6549 20.6886C89.2629 20.6981 88.8895 20.5216 88.6469 20.2117L85.1929 15.783C84.7711 15.2424 84.8659 14.4585 85.4046 14.0355C85.9434 13.6124 86.7248 13.7075 87.1465 14.2481L89.5721 17.3591L93.3623 11.9822C93.7572 11.4207 94.5321 11.2876 95.0919 11.6838C95.6517 12.08 95.7844 12.8575 95.3895 13.419L90.6369 20.1603C90.4541 20.4204 90.1789 20.5976 89.8732 20.6604L89.8737 20.6626Z" fill="#FFA241"/>
<path id="Vector_8" d="M102.313 24.7715L83.9103 28.3468C83.8017 28.3676 83.6954 28.3769 83.5891 28.3769C82.7987 28.3769 82.0915 27.8158 81.9367 27.009L81.4491 24.4771C81.4283 24.3658 81.3266 24.2893 81.2133 24.3008L76.0574 24.8063C75.75 24.8364 75.4565 24.6695 75.3248 24.389C75.193 24.1084 75.2485 23.7745 75.4681 23.5543L80.1387 18.8383C80.1895 18.7873 80.2103 18.7154 80.1988 18.6458L78.3615 8.52755C78.1974 7.62098 78.796 6.74223 79.6973 6.56602L98.1117 2.98845C99.0223 2.80992 99.9074 3.41044 100.085 4.32628L103.649 22.7891C103.825 23.7027 103.228 24.593 102.316 24.7692L102.313 24.7715ZM102.207 23.0697L98.6433 4.60682C98.6225 4.50248 98.5324 4.43062 98.4307 4.43062C98.4168 4.43062 98.4029 4.43061 98.3891 4.43524L79.9746 8.01281C79.8591 8.036 79.7805 8.14962 79.8013 8.26555L81.6386 18.3838C81.7379 18.9264 81.5646 19.4852 81.1764 19.877L77.9409 23.1439L81.0701 22.8378C81.9413 22.752 82.7201 23.3386 82.8865 24.1988L83.3742 26.7307C83.3973 26.849 83.5128 26.9255 83.6284 26.9046L102.031 23.3294C102.149 23.3062 102.225 23.1926 102.205 23.0743L102.207 23.0697Z" fill="black"/>
<path id="Vector_9" d="M124.907 80.2128C124.997 81.5668 125.811 82.7423 126.98 83.2084C127.378 83.366 127.967 83.5005 128.665 83.6141C127.805 83.7579 127.061 83.9225 126.543 84.108C124.787 84.7363 123.756 86.197 123.916 87.827C124.001 88.6941 124.396 89.45 125.002 89.9972C124.094 90.8272 123.671 92.0259 123.876 93.3104C124.033 94.2889 124.526 95.1421 125.194 95.6939C124.914 96.7813 125.039 98.7916 127.276 99.8975C128.311 100.41 131.073 101.414 134.015 101.56V106.441C134.015 106.888 133.652 107.25 133.208 107.25H80.0103C80.8815 105.97 80.6597 104.727 80.2807 103.971C80.3823 103.767 80.4656 103.554 80.5256 103.341C80.8423 102.205 80.5141 101.293 80.1443 100.748C80.5187 99.7283 80.3477 98.9817 80.172 98.5713C79.8462 97.8085 79.1436 97.2937 78.2492 97.1593C76.8095 96.9436 74.9074 98.0496 72.8945 99.2228C72.4069 99.5057 71.947 99.7746 71.4964 100.02C70.4841 100.575 67.9281 100.331 65.6679 99.9045C67.17 99.3503 68.975 98.6756 69.7446 98.3441C70.3732 98.0728 71.8754 97.2891 72.2452 95.8562C72.3908 95.2928 72.4 94.4117 71.6304 93.4171C70.8747 92.4433 68.9612 92.0746 65.6055 92.2601C63.6203 92.3691 61.7922 92.645 61.2954 92.7238C59.264 92.3505 57.6 92.3575 56.2503 92.5708C55.735 91.4115 54.6188 90.6139 53.3523 90.5165C53.0103 90.4771 47.1101 89.7839 39.4467 88.7614V42.2715H134.02V75.1536C131.325 75.2209 128.429 75.7982 126.957 76.6213C125.577 77.3934 124.812 78.7358 124.912 80.2128H124.907Z" fill="white"/>
<path id="Vector_10" d="M39.1611 74.1384H114.696V59.9973H39.1611C38.7567 59.9973 38.4285 59.6681 38.4285 59.2623C38.4285 58.8566 38.7567 58.5273 39.1611 58.5273H134.353C134.758 58.5273 135.086 58.8566 135.086 59.2623C135.086 59.6681 134.758 59.9973 134.353 59.9973H116.161V74.1384H134.353C134.758 74.1384 135.086 74.4676 135.086 74.8733C135.086 75.2791 134.758 75.6083 134.353 75.6083H116.161V89.6752H125.41C125.814 89.6752 126.142 90.0044 126.142 90.4102C126.142 90.8159 125.814 91.1452 125.41 91.1452H116.161V107.985C116.161 108.391 115.833 108.72 115.428 108.72C115.024 108.72 114.696 108.391 114.696 107.985V91.1452H46.8685C46.4641 91.1452 46.1359 90.8159 46.1359 90.4102C46.1359 90.0044 46.4641 89.6752 46.8685 89.6752H114.696V75.6083H39.1611C38.7567 75.6083 38.4285 75.2791 38.4285 74.8733C38.4285 74.4676 38.7567 74.1384 39.1611 74.1384Z" fill="black"/>
<path id="Vector_11" d="M137.675 99.6511C134.012 100.943 129.057 99.1318 127.931 98.5753C126.589 97.9122 126.508 96.8665 126.575 96.317C127.076 96.368 129.163 96.4074 131.379 96.4074C133.596 96.4074 135.99 96.3657 136.993 96.2544C137.395 96.2104 137.686 95.8463 137.64 95.4429C137.596 95.0395 137.233 94.7473 136.831 94.7937C134.816 95.0186 127.316 94.9328 126.741 94.8563C126.087 94.7427 125.477 93.9776 125.334 93.0756C125.257 92.6073 125.22 91.4596 126.434 90.7663C126.575 90.8058 126.718 90.8382 126.866 90.8591C129.399 91.237 137.189 90.9379 137.52 90.924C137.924 90.9078 138.238 90.567 138.225 90.1612C138.208 89.7554 137.869 89.4424 137.464 89.454C137.386 89.4563 129.482 89.7624 127.083 89.403C126.011 89.243 125.458 88.4222 125.387 87.6803C125.352 87.3186 125.366 86.0921 127.048 85.4893C129.417 84.6406 137.647 84.2302 137.73 84.2279C138.125 84.2094 138.433 83.8778 138.428 83.4814C138.421 83.0849 138.102 82.7649 137.707 82.758C135.421 82.7185 129.138 82.4751 127.529 81.8375C126.882 81.5801 126.431 80.9054 126.38 80.1124C126.32 79.2036 126.794 78.399 127.679 77.9029C129.773 76.7297 135.576 76.1083 138.017 77.1053C139.496 77.7081 140.642 79.0274 141.423 81.0237C143.318 85.8718 142.509 93.5254 141.143 96.4584C140.416 98.0235 139.248 99.097 137.677 99.6511H137.675Z" fill="white"/>
<path id="Vector_12" d="M62.7395 7.67192C62.5453 7.61395 62.335 7.63945 62.1617 7.74379C61.9861 7.84581 61.8636 8.01738 61.8174 8.21678C60.916 12.2279 57.7361 15.0149 52.3652 16.4964C48.2446 17.6325 44.3319 17.5282 44.295 17.5282C44.0916 17.5213 43.8952 17.6001 43.7542 17.7438C43.6109 17.8876 43.5346 18.0847 43.5392 18.2887L43.5924 19.8769C43.2412 19.7935 42.8783 19.7494 42.5108 19.7448C42.49 19.7448 42.4669 19.7448 42.4461 19.7448C39.7098 19.7448 37.4658 21.9613 37.4288 24.7135C37.3942 27.4888 39.6151 29.775 42.3815 29.8121C42.43 29.8121 42.4785 29.8121 42.5293 29.8121L42.6148 35.3651H40.2599C40.2599 35.3651 40.2414 35.3651 40.2322 35.3651C33.5186 30.6769 30.0265 23.4012 31.1173 16.3527C31.6812 12.7079 33.396 9.57547 36.2132 7.04822C38.7369 4.78296 42.0948 3.08113 45.9243 2.12587C49.1851 1.31205 52.2242 1.2564 54.9559 1.95893C55.0483 1.98211 55.143 1.98907 55.2378 1.97516C55.2563 1.97284 57.1722 1.71547 59.5341 1.98211C61.6579 2.22324 64.5975 2.94896 66.5388 5.04728C68.2652 6.91374 68.9701 9.58706 68.6396 13.0186C66.3794 8.79875 62.9105 7.72293 62.7395 7.67424V7.67192Z" fill="black"/>
<path id="Vector_13" d="M63.7846 35.362H44.076L43.9789 28.9859C43.9766 28.768 43.8773 28.564 43.7086 28.4272C43.5399 28.2904 43.3203 28.2347 43.1077 28.2741C42.8743 28.3182 42.6339 28.3391 42.3959 28.3367C40.4384 28.3112 38.8646 26.6929 38.89 24.729C38.9154 22.7652 40.5262 21.1839 42.486 21.2117C43.0014 21.2187 43.4959 21.3323 43.9581 21.5526C43.9905 21.5688 44.0229 21.5804 44.0552 21.5897C44.1477 21.6314 44.247 21.6546 44.3556 21.6546C44.3649 21.6546 44.3718 21.6546 44.3811 21.6546C44.7855 21.6407 45.1021 21.3022 45.0906 20.8941L45.0282 18.9975C46.4171 18.9743 49.4677 18.8143 52.7194 17.9217C58.222 16.4123 61.7648 13.4653 63.0243 9.37305C64.2861 9.98979 66.9161 11.7241 68.2589 15.8767C68.4299 16.5143 68.5685 17.1704 68.6748 17.8266C69.3381 21.956 69.7749 26.716 67.963 30.7156C67.138 32.5357 65.7329 34.0984 63.7846 35.3597V35.362ZM44.2354 24.1146C42.6801 23.4677 41.0762 23.6231 41.0092 23.63C40.6071 23.6718 40.3136 24.0334 40.3552 24.4369C40.3968 24.8403 40.755 25.1325 41.1572 25.093C41.1803 25.093 42.4744 24.9748 43.6739 25.4733C43.7663 25.5104 43.8611 25.5289 43.9535 25.5289C44.2401 25.5289 44.5151 25.3574 44.6307 25.0745C44.7855 24.6989 44.6075 24.2699 44.2354 24.1123V24.1146ZM55.4302 27.1264C55.4949 27.196 56.7475 28.5037 58.8298 28.5037C59.322 28.5037 59.8605 28.4295 60.4406 28.2509C60.8265 28.1304 61.0438 27.72 60.9236 27.3305C60.8034 26.9433 60.392 26.7253 60.006 26.8459C57.8683 27.509 56.551 26.1735 56.4956 26.1179C56.2159 25.828 55.7514 25.8164 55.4602 26.0947C55.169 26.3729 55.1529 26.8343 55.4302 27.1287V27.1264ZM56.3685 20.9289C55.4071 20.2634 54.1707 20.0269 53.0614 20.2982C52.6685 20.3933 52.4258 20.7921 52.5229 21.1862C52.6176 21.5804 53.0152 21.8238 53.408 21.7265C54.1175 21.5549 54.9148 21.7079 55.5365 22.1392C55.6636 22.2273 55.8092 22.269 55.9525 22.269C56.1859 22.269 56.4147 22.1577 56.5557 21.9514C56.7845 21.6175 56.7012 21.1584 56.3685 20.9289ZM61.603 23.8572C60.3943 22.9762 59.2064 23.6509 58.7465 24.1331C58.4669 24.4253 58.4762 24.8913 58.7674 25.1742C58.9083 25.311 59.0932 25.3782 59.2758 25.3782C59.4583 25.3782 59.6571 25.304 59.8004 25.158C59.9414 25.0188 60.3111 24.736 60.741 25.049C61.0692 25.2878 61.5267 25.2159 61.7648 24.8867C62.0028 24.5574 61.9312 24.0984 61.603 23.8596V23.8572ZM65.3492 20.7457C65.2683 19.9852 64.5889 19.4334 63.8308 19.5122C63.0728 19.5934 62.5228 20.275 62.6014 21.0355C62.6823 21.796 63.3617 22.3478 64.1197 22.269C64.8778 22.1878 65.4278 21.5062 65.3492 20.7457Z" fill="white"/>
<path id="Vector_14" d="M22.165 87.739C36.3687 90.0158 53.0337 91.9611 53.2001 91.9797C53.2094 91.9797 53.221 91.9797 53.2325 91.982C53.8727 92.0284 54.4458 92.3831 54.7809 92.9164C52.1371 93.758 51.1549 95.3926 51.0925 95.5016C51.0856 95.5132 51.0786 95.5248 51.074 95.5364C50.0456 97.5605 49.1951 101.189 50.9862 106.979C51.5339 108.748 53.14 109.963 54.9843 110.002C55.0004 110.002 55.019 110.002 55.0352 110.002C54.6377 110.415 54.0853 110.663 53.4936 110.663C53.4798 110.663 53.4682 110.663 53.4544 110.663C53.4336 110.663 53.4128 110.663 53.3897 110.663C53.1216 110.681 26.5353 112.471 16.2603 110.83C10.0644 109.84 6.32281 108.133 4.12732 105.298C1.89715 102.418 1.1206 98.219 1.60823 91.6829C1.65446 91.3096 2.53497 84.1823 4.73278 75.9861C6.78962 68.3139 10.4504 58.1052 16.2026 53.0553C22.5972 47.442 34.7649 45.6544 37.9819 45.2695V88.5644C35.0908 88.1726 31.9939 87.739 28.8786 87.2799C28.8925 87.2451 28.9041 87.208 28.9133 87.1709L33.2928 67.3146C33.3806 66.9181 33.131 66.5263 32.7358 66.4382C32.3406 66.3501 31.9501 66.6005 31.8622 66.997L27.4828 86.8533C27.4666 86.9275 27.462 86.9994 27.4666 87.0712C25.7634 86.8162 24.0624 86.5542 22.3984 86.2876C21.9986 86.2249 21.622 86.4962 21.5596 86.8973C21.4948 87.2985 21.7675 87.6764 22.1673 87.739H22.165Z" fill="#6099FF"/>
<path id="Vector_15" d="M78.6809 106.589C78.5399 106.768 77.9367 107.329 75.7412 107.899C77.2966 107.03 78.4267 106.093 79.1523 105.393C79.1477 105.733 79.0345 106.146 78.6786 106.589H78.6809Z" fill="#6099FF"/>
<path id="Vector_16" d="M52.3864 106.542C51.6446 104.144 50.6601 99.6233 52.368 96.2289C52.5205 95.9854 54.582 92.9481 61.1569 94.1955C61.2424 94.2117 61.3279 94.2117 61.4134 94.1978C61.4342 94.1931 63.5026 93.8523 65.7027 93.7317C69.6431 93.5161 70.371 94.1885 70.4773 94.3253C70.8078 94.7519 70.9234 95.1345 70.8309 95.4939C70.6622 96.1477 69.8649 96.6995 69.1739 96.9963C67.815 97.5806 62.8878 99.3613 62.837 99.3798C62.5365 99.4888 62.3401 99.7809 62.3517 100.101C62.3633 100.421 62.5828 100.697 62.8925 100.78C63.5951 100.973 69.8233 102.621 72.206 101.316C72.6728 101.061 73.1628 100.776 73.6389 100.497C75.185 99.5978 77.1077 98.4779 78.0414 98.617C78.2656 98.6495 78.6677 98.7654 78.8341 99.1549C79.0375 99.6302 78.8434 100.351 78.2979 101.133C76.9298 103.094 73.3569 104.55 72.2962 104.949C71.106 105.397 68.4482 105.392 67.5261 105.352C67.124 105.332 66.7797 105.649 66.7612 106.055C66.7427 106.461 67.057 106.804 67.4614 106.822C67.6093 106.829 71.0944 106.971 72.8092 106.326C74.2097 105.8 77.5029 104.402 79.1946 102.371C79.1993 102.54 79.1808 102.73 79.123 102.943C79.0282 103.28 78.8364 103.611 78.566 103.901C77.6763 104.854 74.3992 107.931 68.6655 108.677C65.7189 108.663 59.4375 108.622 55.0164 108.529C53.8031 108.503 52.7469 107.704 52.3887 106.54L52.3864 106.542Z" fill="white"/>
<path id="Vector_17" d="M39.4467 37.6432C39.4467 37.1957 39.8095 36.834 40.2532 36.834H133.213C133.659 36.834 134.02 37.198 134.02 37.6432V40.8011H39.4467V37.6432Z" fill="black"/>
<path id="Vector_18" d="M48.87 27.5772C47.6035 26.5197 47.4313 24.6323 48.4854 23.3617C49.5395 22.0911 51.4207 21.9183 52.6873 22.9758C53.9538 24.0333 54.126 25.9207 53.0719 27.1913C52.0178 28.462 50.1366 28.6347 48.87 27.5772Z" fill="#FFD0D2"/>
<g id="Group 1000002292">
<path id="Vector_19" d="M50.7053 47.8508C50.8162 48.0432 50.8763 48.2264 50.8763 48.4397C50.8555 48.5417 50.8462 48.653 50.8347 48.755C50.763 48.9591 50.6637 49.1307 50.5111 49.2721C50.4302 49.344 50.3494 49.4042 50.2592 49.4553C50.1183 49.5457 49.9565 49.5874 49.7831 49.5967C49.0644 49.7196 48.8726 49.2118 48.2764 48.9057C47.4675 48.5 46.9706 49.2095 48.1862 49.606C48.5398 49.708 48.9142 49.8285 49.2493 50.0024C49.4319 50.0929 49.6237 50.2459 49.7947 50.3688C49.9657 50.5009 50.0975 50.6841 50.2408 50.8464C50.3216 50.9276 50.3725 51.0388 50.4326 51.1409C50.5134 51.3449 50.6036 51.5257 50.6452 51.739C50.696 51.9524 50.7353 52.175 50.7168 52.3999C50.7076 52.5622 50.6868 52.7152 50.6452 52.8659C50.6359 52.9262 50.6244 52.9772 50.6036 53.0282C50.5435 53.2206 50.4626 53.4247 50.3609 53.5962C50.3309 53.6565 50.28 53.7075 50.25 53.7493C50.1483 53.8722 50.0466 53.9834 49.9565 54.0947C49.8039 54.2478 49.6121 54.3799 49.4296 54.4796C49.247 54.6025 49.0251 54.6929 48.8033 54.7741C48.6808 54.8135 48.5514 54.8344 48.4289 54.8552C48.1955 54.8854 47.9528 54.9271 47.7217 54.9155C47.479 54.9062 47.2364 54.8738 47.003 54.8344C46.8504 54.8135 46.7095 54.7833 46.5685 54.7231C46.2033 54.6118 45.8405 54.4704 45.4962 54.2872C45.2928 54.1968 45.1518 54.053 45.0501 53.8814C45.0085 53.7794 44.96 53.6983 44.9184 53.587C44.8468 53.3829 44.8468 53.1696 44.9184 52.9679C44.9577 52.8775 45.0085 52.7847 45.0501 52.6827C45.1218 52.5598 45.2327 52.4393 45.3644 52.3674C45.4869 52.2445 45.6279 52.1842 45.7897 52.1541C45.9607 52.1031 46.134 52.0822 46.2958 52.1332C46.4575 52.1332 46.6101 52.1842 46.7719 52.2561C46.862 52.3071 46.9752 52.3674 47.0862 52.4091C47.3797 52.5111 47.9574 52.743 48.2186 52.4184C48.3087 52.2955 48.2278 52.1239 47.8442 51.9709C47.5599 51.8596 47.2271 51.7878 47.1463 51.7576C47.0145 51.7159 46.862 51.6764 46.7303 51.6254C46.4968 51.535 46.2657 51.4631 46.0716 51.3403C45.8682 51.229 45.688 51.0875 45.5262 50.9554C45.3644 50.8232 45.2327 50.6517 45.0917 50.4894C45.0709 50.4291 45.0409 50.3781 45.0201 50.3363C44.9392 50.1833 44.8791 50.0511 44.8167 49.9097C44.7751 49.7474 44.7566 49.5735 44.7358 49.4019C44.7266 49.3509 44.7266 49.279 44.7266 49.2095C44.7566 48.9753 44.7867 48.7434 44.8791 48.5301C44.96 48.3168 45.0617 48.0942 45.1819 47.9111C45.3043 47.7279 45.4661 47.5447 45.6371 47.394C45.7897 47.241 45.9907 47.0996 46.1941 46.9767C46.305 46.9164 46.4275 46.8538 46.5384 46.8051C46.7603 46.724 46.9845 46.6219 47.2063 46.5918C47.4398 46.5315 47.6824 46.5014 47.9158 46.5014C48.1585 46.4921 48.4011 46.5315 48.6346 46.5617C48.7755 46.5918 48.9073 46.6127 49.039 46.6521C49.2609 46.7425 49.485 46.8144 49.6861 46.9466C49.8779 47.0486 50.0813 47.19 50.2523 47.3314C50.4349 47.4937 50.5666 47.6676 50.7076 47.8485L50.7053 47.8508Z" fill="#6099FF"/>
<path id="Vector_20" d="M58.0912 51.9514C58.1421 52.1229 58.1328 52.3061 58.0704 52.48C58.0196 52.6724 57.9295 52.8649 57.837 53.048C57.7145 53.3332 57.5342 53.5651 57.3309 53.79C57.2708 53.8503 57.1899 53.943 57.1183 53.994C56.9657 54.1355 56.804 54.2584 56.6422 54.3604C56.5521 54.4114 56.4596 54.4508 56.3695 54.4833C56.1985 54.5853 55.9951 54.6664 55.8033 54.7174C55.7432 54.7267 55.7016 54.7383 55.6507 54.7592C55.4797 54.78 55.3272 54.7986 55.1747 54.8102C55.0637 54.8194 54.962 54.8194 54.8719 54.8102C54.5576 54.7893 54.2456 54.7592 53.9521 54.6479C53.7603 54.5667 53.5569 54.4763 53.3744 54.3836C53.2126 54.2723 53.0392 54.1494 52.8775 54.0172C52.8058 53.9569 52.725 53.8851 52.6556 53.8039C52.5539 53.681 52.4638 53.5512 52.3621 53.419C52.3321 53.3773 52.2905 53.3379 52.2604 53.2869C52.2004 53.1848 52.1379 53.0828 52.0987 52.9715C52.0085 52.7675 51.9161 52.5658 51.856 52.3618C51.7659 52.1183 51.7035 51.8841 51.6642 51.6407C51.6133 51.2952 51.5625 50.9312 51.5625 50.5857C51.5625 50.2194 51.6018 49.8646 51.6526 49.5099C51.6919 49.2873 51.7335 49.074 51.8144 48.87C51.8745 48.6659 51.9669 48.4735 52.0571 48.281C52.0871 48.1906 52.1379 48.1095 52.1888 48.0074C52.2188 47.9657 52.2489 47.917 52.2905 47.8753C52.3806 47.764 52.4731 47.6318 52.5747 47.5206C52.7065 47.3675 52.889 47.247 53.0601 47.1241C53.1317 47.0522 53.2311 47.0012 53.3235 46.9525C53.4252 46.9108 53.5153 46.8714 53.617 46.8111C53.7187 46.7809 53.8204 46.7392 53.9105 46.6998C54.0122 46.6696 54.1139 46.6395 54.2341 46.6279C54.3866 46.5978 54.5576 46.5676 54.7309 46.556C54.791 46.5467 54.8326 46.5467 54.8835 46.5352C54.9944 46.5352 55.1053 46.5352 55.207 46.5444C55.4196 46.5746 55.6531 46.6047 55.8449 46.6557C55.905 46.665 55.9558 46.6859 56.0274 46.6975C56.1592 46.7577 56.3002 46.8203 56.4434 46.9015C56.5451 46.9432 56.626 46.9919 56.7161 47.0545C56.968 47.2261 57.2223 47.4301 57.4141 47.6643C57.555 47.8359 57.6868 47.9982 57.7885 48.1813C57.8901 48.3645 57.9711 48.5662 58.0404 48.761C58.0912 48.9952 58.0912 49.2386 58.0404 49.4612C57.9988 49.5725 57.9502 49.6653 57.9086 49.765C57.7862 49.9783 57.6359 50.1313 57.4326 50.2426C57.0166 50.5162 56.4619 50.486 56.0459 50.2217C55.7524 50.0293 55.7732 49.8878 55.6115 49.6328C55.3272 49.1667 54.6501 48.9326 54.3057 49.7348C54.2757 49.8577 54.2456 49.9875 54.2248 50.1104C54.1948 50.3956 54.1948 50.69 54.2248 50.9845C54.2757 51.3392 54.3473 51.8586 54.7009 52.0603C54.9528 52.2226 55.2879 52.1925 55.5005 51.8378C55.5213 51.8285 55.5213 51.8076 55.5306 51.796C55.5906 51.5734 55.7016 51.3694 55.8634 51.2071C55.9535 51.1352 56.0459 51.0749 56.1268 51.0031C56.3394 50.8709 56.5613 50.8199 56.7947 50.8199C56.9172 50.8292 57.0374 50.85 57.1483 50.8616C57.3193 50.9034 57.4719 50.9938 57.5943 51.1051C57.7469 51.1955 57.8462 51.3184 57.9387 51.4714C58.0404 51.6245 58.0797 51.796 58.0912 51.9583V51.9514Z" fill="#6099FF"/>
<path id="Vector_21" d="M66.3701 47.4155C66.451 47.5685 66.4926 47.7308 66.481 47.914C66.451 48.2803 66.4094 48.656 66.3909 49.02C66.3008 50.3392 66.2684 52.1871 66.3008 53.5064C66.3008 53.7406 66.2499 53.9632 66.1298 54.1672C66.0581 54.2484 65.998 54.3388 65.9264 54.4315C65.7646 54.5846 65.5728 54.6959 65.3602 54.7654C65.2492 54.7747 65.1268 54.7956 65.0158 54.8048C64.8333 54.8141 64.6715 54.7747 64.519 54.6935C64.3572 54.6425 64.2162 54.5521 64.103 54.4292C63.9712 54.3063 63.8811 54.1765 63.8303 54.0026C63.7494 53.8496 63.7193 53.6873 63.7193 53.5041C63.7193 53.1378 63.7101 52.2242 63.7101 51.8602V51.851C63.5183 51.8602 63.3357 51.8811 63.1323 51.8927C62.5962 51.9344 62.0485 51.9437 61.503 51.9344C61.5331 52.3819 61.5631 53.0821 61.6255 53.5389C61.6255 53.773 61.5654 53.9864 61.443 54.1881C61.3829 54.2785 61.3112 54.3597 61.2511 54.4408C61.0801 54.6124 60.8975 54.726 60.6734 54.777C60.5624 54.7979 60.4515 54.8072 60.329 54.8373C60.158 54.8373 59.9847 54.7956 59.8322 54.7144C59.6796 54.6634 59.5387 54.573 59.4277 54.4408C59.296 54.3295 59.2059 54.1881 59.155 54.035C59.0741 53.882 59.0325 53.7104 59.0325 53.5365C58.9909 53.1517 58.9609 52.5001 58.9424 52.1153C58.8407 50.7241 58.8615 49.3237 59.0025 47.9418C59.0025 47.7076 59.0741 47.4943 59.1851 47.2926C59.2451 47.2022 59.3168 47.121 59.3884 47.0283C59.5502 46.866 59.7328 46.7547 59.9546 46.7037C60.0656 46.6828 60.188 46.662 60.299 46.6527C60.47 46.6434 60.6433 46.6828 60.7959 46.764C60.9576 46.815 61.0894 46.8961 61.2119 47.0283C61.3343 47.1396 61.4245 47.2926 61.4845 47.4456C61.5562 47.5987 61.607 47.761 61.5862 47.9441C61.547 48.329 61.5146 48.7162 61.4961 49.1127C61.4961 49.1846 61.4961 49.275 61.4869 49.3562C62.2564 49.3654 63.026 49.326 63.8048 49.2541C63.8349 48.8066 63.8649 48.3499 63.9065 47.914C63.9065 47.6798 63.9666 47.4572 64.0776 47.2532C64.1492 47.172 64.2185 47.0816 64.2902 46.9889C64.4427 46.8359 64.6345 46.7246 64.8471 46.655C64.9581 46.6457 65.0805 46.6341 65.1915 46.6133C65.374 46.6133 65.5358 46.6434 65.6884 46.7246C65.8594 46.7756 65.9911 46.866 66.1136 46.9889C66.2361 47.1118 66.317 47.2532 66.377 47.4155H66.3701Z" fill="#6099FF"/>
<path id="Vector_22" d="M72.6532 47.3727C72.7757 47.5861 72.8358 47.8087 72.8358 48.0336C72.8265 48.1564 72.8057 48.277 72.7941 48.3999C72.7433 48.5715 72.6717 48.7245 72.5607 48.8474C72.4706 48.9888 72.3481 49.1001 72.1956 49.1928C72.0431 49.2949 71.8813 49.3343 71.7195 49.3459C71.5369 49.3853 71.3867 49.376 71.2041 49.325C71.0123 49.274 70.7997 49.2438 70.5871 49.2137C70.3444 49.1928 70.1018 49.172 69.8476 49.1326C69.7967 49.1326 69.7251 49.1326 69.665 49.1233C69.6557 49.2763 69.6349 49.4177 69.6234 49.5592C70.1388 49.5082 70.6356 49.4687 71.1302 49.427C71.322 49.427 71.4953 49.478 71.6571 49.58C71.738 49.6311 71.8189 49.7029 71.879 49.7516C72.0107 49.8838 72.1124 50.0461 72.1517 50.2385C72.1609 50.3289 72.1933 50.431 72.2025 50.533C72.2025 50.686 72.1609 50.8274 72.1008 50.9503C72.0615 51.0825 71.9899 51.2146 71.879 51.3051C71.7773 51.4163 71.6664 51.4882 71.5346 51.5392C71.4029 51.6111 71.2827 51.6297 71.1302 51.6297C70.6541 51.6807 70.1688 51.7108 69.6835 51.7526C69.6927 51.8337 69.7043 51.9149 69.7135 51.9867C69.7135 52.0377 69.7228 52.0772 69.7343 52.1282C69.836 52.1282 69.9377 52.1189 70.0371 52.1189C70.2589 52.1096 70.4716 52.098 70.6957 52.0679C70.8367 52.047 70.98 52.0076 71.121 51.9867C71.3544 51.9264 71.5762 51.9264 71.7888 51.9867C71.8998 52.0377 72.0015 52.0771 72.1031 52.1189C72.3065 52.2418 72.4567 52.4041 72.5677 52.5965C72.607 52.7078 72.6485 52.8098 72.6994 52.9118C72.7502 53.095 72.7503 53.2666 72.7202 53.4405C72.711 53.6121 72.6694 53.786 72.5677 53.9274C72.4868 54.0897 72.3758 54.2126 72.2326 54.303C72.1101 54.4143 71.9599 54.4862 71.7865 54.5465C71.7056 54.5673 71.604 54.5766 71.5023 54.5975C71.0262 54.6786 70.5409 54.7389 70.0556 54.769H69.4685C69.2652 54.7598 69.0734 54.7273 68.8723 54.6971C68.7406 54.6763 68.6204 54.6369 68.4979 54.5743C68.417 54.5349 68.3269 54.4838 68.246 54.4421C68.2367 54.4328 68.2252 54.4212 68.2159 54.412C68.1143 54.3401 68.0126 54.2705 67.9225 54.1894C67.8924 54.1685 67.8716 54.15 67.8508 54.1082C67.7607 54.0062 67.6682 53.8949 67.5989 53.7744C67.4972 53.6213 67.4371 53.4498 67.377 53.2875C67.3562 53.2156 67.3262 53.1553 67.3054 53.0834C67.2638 52.9211 67.2453 52.7472 67.2153 52.5965C67.1737 52.2928 67.1344 51.9774 67.1136 51.683C67.0235 50.8808 67.0119 50.0785 67.0743 49.2972C67.0951 48.9934 67.1459 48.699 67.1852 48.3836C67.2153 48.2121 67.2661 48.0173 67.3262 47.855C67.377 47.7229 67.4279 47.5698 67.4972 47.4377C67.518 47.3959 67.5273 47.3774 67.5481 47.3472C67.629 47.236 67.7191 47.0945 67.8115 46.9925C67.8208 46.9832 67.8416 46.9716 67.8531 46.9716C67.9433 46.8905 68.0449 46.8001 68.1466 46.7375C68.2183 46.6957 68.2876 46.6563 68.3592 46.6354C68.4101 46.6146 68.4817 46.5752 68.5418 46.5636C68.5719 46.5427 68.5811 46.5427 68.6019 46.5334C68.7244 46.5126 68.8538 46.5033 68.9855 46.4917C69.0757 46.4824 69.1681 46.4824 69.249 46.4824C69.6326 46.4824 70.0394 46.5033 70.423 46.5427C70.9083 46.5937 71.3937 46.6656 71.8813 46.7769C72.1032 46.8372 72.2857 46.9484 72.4591 47.1107C72.5191 47.2012 72.5908 47.2939 72.6509 47.3751L72.6532 47.3727ZM69.6881 51.7479C69.6881 51.7896 69.6881 51.8082 69.6973 51.8383C69.6881 51.8082 69.6881 51.7873 69.6881 51.7479Z" fill="#6099FF"/>
<path id="Vector_23" d="M80.0562 49.9929C80.0978 50.2781 80.1071 50.5818 80.077 50.867C80.0562 51.1105 80.0262 51.3539 79.9962 51.5881C79.9754 51.7295 79.9361 51.8617 79.906 51.9938C79.876 52.1167 79.8251 52.2373 79.7835 52.3486C79.6934 52.5827 79.601 52.8053 79.4808 52.9978C79.3583 53.1902 79.2173 53.3734 79.0648 53.5357C78.9932 53.6261 78.9238 53.7072 78.8429 53.7698C78.7204 53.8719 78.591 53.9623 78.4593 54.0643C78.4085 54.0944 78.3692 54.1246 78.3183 54.1455C78.2282 54.2173 78.115 54.2776 78.0248 54.3286C77.7221 54.4608 77.4078 54.5721 77.0842 54.644C76.377 54.7761 74.616 55.0404 74.029 54.5025C73.9181 54.3796 73.8257 54.2591 73.7771 54.0968C73.6962 53.9437 73.6662 53.7815 73.6662 53.6192C73.6569 53.4777 73.6454 53.3154 73.6246 53.1717C73.5437 51.9219 73.5021 50.6838 73.5344 49.455C73.5437 49.3019 73.5437 49.1512 73.5552 48.9773C73.5552 48.8452 73.5552 48.7038 73.5645 48.5507C73.6061 48.2053 73.6546 47.9108 73.8372 47.6071C73.999 47.3335 74.2532 47.0993 74.5352 46.9579C74.7385 46.8558 74.9604 46.7654 75.173 46.7237C75.4457 46.6727 75.6999 46.6425 75.9518 46.6333C76.3678 46.6031 76.7722 46.6425 77.1767 46.7144C77.5418 46.7654 77.9047 46.9068 78.2282 47.0807C78.4501 47.1828 78.6326 47.3242 78.8244 47.4865C78.9146 47.5584 78.9955 47.6395 79.0763 47.73C79.319 48.0035 79.5409 48.2887 79.6842 48.6041C79.7743 48.8174 79.8667 49.0098 79.9268 49.244C79.9985 49.4874 80.0285 49.7518 80.0585 49.9952L80.0562 49.9929ZM77.5279 50.1552C77.4979 50.0022 77.4679 49.8607 77.4055 49.7077C77.3639 49.6266 77.3038 49.5454 77.2529 49.455C77.2113 49.4132 77.1628 49.3646 77.1212 49.3228C77.0496 49.2811 76.9895 49.2417 76.9178 49.2115C76.7953 49.1814 76.6659 49.1396 76.5342 49.1095C76.3932 49.0886 76.2407 49.0886 76.0882 49.1002C76.0789 49.2625 76.0789 49.4248 76.0789 49.5871C76.0581 50.4705 76.0789 51.384 76.1182 52.2674C76.5134 52.2674 76.9479 52.1561 77.2206 51.8315C77.2714 51.7596 77.3107 51.6785 77.3616 51.5973C77.4216 51.4142 77.484 51.2217 77.5141 51.0177C77.5441 50.7232 77.5441 50.438 77.5233 50.1552H77.5279Z" fill="#6099FF"/>
<path id="Vector_24" d="M88.023 49.8194C88.023 50.3063 88.053 50.7839 88.0322 51.2708C88.0114 51.6163 87.9721 51.9409 87.8912 52.2655C87.8311 52.5808 87.6879 52.8753 87.5376 53.1581C87.4868 53.23 87.4267 53.3204 87.3551 53.3923C87.2326 53.5639 87.1032 53.7077 86.9599 53.8491C86.8998 53.921 86.8073 53.9812 86.7265 54.0415C86.5739 54.1528 86.4029 54.2757 86.2296 54.3569C86.1487 54.4079 86.0586 54.4473 85.9661 54.4983C85.7743 54.5586 85.5709 54.6397 85.3699 54.6699C85.289 54.7093 85.1873 54.7209 85.0856 54.7301C84.8522 54.751 84.6396 54.7904 84.4269 54.7811C84.2143 54.7719 83.9925 54.7209 83.7683 54.6907C83.6666 54.6699 83.5649 54.6397 83.4656 54.6189C83.2529 54.5586 83.0704 54.4658 82.8786 54.3847C82.7769 54.3337 82.6752 54.2943 82.585 54.2224C82.414 54.1111 82.2522 53.9789 82.0882 53.856C81.998 53.7958 81.9264 53.7146 81.8547 53.6427C81.7138 53.5013 81.582 53.3274 81.4596 53.1442C81.3787 53.0724 81.3278 52.9727 81.2885 52.8591C81.1984 52.655 81.1175 52.4533 81.0667 52.24C81.0367 52.1287 81.0274 52.0174 81.0066 51.8737C80.9465 51.5398 80.9165 51.1827 80.8957 50.8373C80.8749 50.3388 80.8957 49.8333 80.9049 49.3255C80.9349 48.8178 80.965 48.31 80.9858 47.7929C80.995 47.5704 81.0667 47.3663 81.1776 47.1832C81.2493 47.102 81.3186 47.0209 81.3995 46.9397C81.5612 46.7867 81.7646 46.6963 81.9772 46.6452C82.0882 46.636 82.2106 46.6244 82.3216 46.6035C82.5042 46.6035 82.6544 46.6453 82.8185 46.7357C82.9895 46.7751 83.112 46.8586 83.2345 47C83.3454 47.0904 83.4263 47.2527 83.4864 47.3965C83.558 47.5379 83.5973 47.7118 83.5765 47.8625C83.5672 48.1268 83.5464 48.4004 83.5372 48.6647C83.5072 49.5064 83.4263 50.3805 83.5071 51.2337C83.5372 51.4169 83.5673 51.6093 83.6089 51.7809C83.6297 51.8319 83.6597 51.8713 83.6897 51.9038C83.7406 51.9641 83.8007 52.0151 83.8515 52.0661C83.9416 52.1264 84.0341 52.1774 84.115 52.2284C84.2051 52.2586 84.2975 52.2887 84.3992 52.3096C84.4709 52.3096 84.5517 52.3095 84.6326 52.3188C84.7043 52.2979 84.7852 52.2771 84.8453 52.2586C84.9261 52.2284 84.9978 52.1867 85.0671 52.1565C85.1272 52.1055 85.1688 52.0661 85.2196 52.0151C85.2612 51.9734 85.2913 51.9339 85.3213 51.8737C85.3514 51.7624 85.393 51.6696 85.4115 51.5583C85.4415 51.3543 85.4415 51.1526 85.4508 50.9393C85.4508 50.4315 85.43 49.9237 85.4207 49.4067C85.4115 48.8781 85.4115 48.361 85.3907 47.8138C85.3999 47.6005 85.4715 47.3872 85.5825 47.204C85.6634 47.1136 85.7235 47.0417 85.8043 46.9606C85.9661 46.8076 86.1579 46.7171 86.3705 46.6661C86.4815 46.6568 86.604 46.6453 86.7149 46.6244C86.8975 46.6244 87.0592 46.6754 87.2118 46.7473C87.3828 46.8075 87.5145 46.8887 87.637 47.0209C87.7595 47.1321 87.8404 47.2736 87.8889 47.4173C87.9605 47.5704 87.9998 47.7419 87.979 47.895C87.9883 48.0271 87.979 48.1477 87.9883 48.2799C87.9883 48.7876 88.0183 49.3047 88.0183 49.8124L88.023 49.8194Z" fill="#6099FF"/>
<path id="Vector_25" d="M93.4857 53.1506C93.525 53.3222 93.5158 53.4961 93.4557 53.6676C93.4256 53.8299 93.354 53.983 93.2338 54.1035C93.1437 54.245 93.0212 54.3563 92.8802 54.4281C92.6584 54.5302 92.4342 54.6322 92.2031 54.7017C92.1314 54.711 92.0713 54.7226 91.9997 54.7319C91.8379 54.762 91.6669 54.7829 91.4843 54.7921C91.4242 54.8014 91.3526 54.8014 91.281 54.7921C91.1192 54.7829 90.9574 54.762 90.7841 54.7319C90.5807 54.7017 90.3681 54.5997 90.1763 54.5093C90.1254 54.4884 90.0861 54.4583 90.0353 54.4281C89.9128 54.347 89.7834 54.2449 89.6702 54.1429C89.6286 54.1128 89.5985 54.0711 89.5592 54.0409C89.4575 53.9296 89.3674 53.7975 89.275 53.6746C89.164 53.5123 89.0924 53.3083 89.0231 53.1274C88.993 53.037 88.9514 52.9442 88.9422 52.8422C88.8197 52.3043 88.8197 51.7455 88.8197 51.1983C88.7989 50.1619 88.8104 48.9447 88.8289 47.9083C88.8289 47.6741 88.889 47.4608 89.0115 47.2591C89.0716 47.1686 89.1432 47.0759 89.2033 46.9947C89.3743 46.8324 89.5569 46.7304 89.7811 46.6609C89.892 46.6516 90.0029 46.64 90.1254 46.6191C90.2964 46.6191 90.4698 46.6493 90.6223 46.7304C90.7748 46.7814 90.9158 46.8719 91.0267 46.9947C91.1585 47.1176 91.2486 47.2591 91.311 47.4121C91.3826 47.5651 91.4219 47.7367 91.4219 47.9106C91.4011 48.2352 91.3919 48.5598 91.3919 48.8751C91.3826 49.4432 91.3826 50.2153 91.3919 50.774C91.3919 51.0592 91.3919 51.3328 91.4011 51.6064C91.4011 51.7896 91.4011 51.9612 91.4312 52.1351C91.4312 52.1652 91.4404 52.1953 91.4404 52.2162H91.4497C91.5097 52.1953 91.5906 52.1745 91.6623 52.1559C91.8333 52.0748 92.0274 52.033 92.2192 52.033C92.3302 52.0423 92.4411 52.0632 92.5636 52.0748C92.7762 52.1258 92.968 52.2371 93.1298 52.4086C93.1899 52.4898 93.2615 52.5802 93.3216 52.673C93.4233 52.8144 93.4834 52.9674 93.4834 53.1506H93.4857Z" fill="#6099FF"/>
<path id="Vector_26" d="M99.7899 47.3727C99.9124 47.5861 99.9725 47.8087 99.9725 48.0336C99.9632 48.1564 99.9424 48.277 99.9309 48.3999C99.88 48.5715 99.8084 48.7245 99.6975 48.8474C99.6073 48.9888 99.4848 49.1001 99.3323 49.1928C99.1798 49.2949 99.018 49.3343 98.8562 49.3459C98.6736 49.3853 98.5234 49.376 98.3408 49.325C98.149 49.274 97.9364 49.2438 97.7238 49.2137C97.4812 49.1928 97.2385 49.172 96.9843 49.1326C96.9334 49.1326 96.8618 49.1326 96.8017 49.1233C96.7925 49.2763 96.7717 49.4177 96.7601 49.5592C97.2755 49.5082 97.7724 49.4687 98.2669 49.427C98.4588 49.427 98.632 49.478 98.7938 49.58C98.8747 49.6311 98.9556 49.7029 99.0157 49.7516C99.1474 49.8838 99.2491 50.0461 99.2884 50.2385C99.2976 50.3289 99.33 50.431 99.3392 50.533C99.3392 50.686 99.2977 50.8274 99.2376 50.9503C99.1983 51.0825 99.1266 51.2146 99.0157 51.3051C98.914 51.4163 98.8031 51.4882 98.6714 51.5392C98.5396 51.6111 98.4195 51.6297 98.2669 51.6297C97.7909 51.6807 97.3055 51.7108 96.8202 51.7526C96.8295 51.8337 96.841 51.9149 96.8502 51.9867C96.8502 52.0377 96.8595 52.0772 96.871 52.1282C96.9727 52.1282 97.0744 52.1189 97.1738 52.1189C97.3956 52.1096 97.6083 52.098 97.8324 52.0679C97.9734 52.047 98.1167 52.0076 98.2577 51.9867C98.4911 51.9264 98.7129 51.9264 98.9255 51.9867C99.0365 52.0377 99.1382 52.0771 99.2399 52.1189C99.4432 52.2418 99.5935 52.4041 99.7044 52.5965C99.7437 52.7078 99.7852 52.8098 99.8361 52.9118C99.8869 53.095 99.887 53.2666 99.8569 53.4405C99.8477 53.6121 99.8061 53.786 99.7044 53.9274C99.6235 54.0897 99.5125 54.2126 99.3693 54.303C99.2468 54.4143 99.0966 54.4862 98.9232 54.5465C98.8423 54.5673 98.7407 54.5766 98.639 54.5975C98.1629 54.6786 97.6776 54.7389 97.1923 54.769H96.6052C96.4019 54.7598 96.2101 54.7273 96.009 54.6971C95.8773 54.6763 95.7571 54.6369 95.6346 54.5743C95.5537 54.5349 95.4636 54.4838 95.3827 54.4421C95.3734 54.4328 95.3619 54.4212 95.3527 54.412C95.251 54.3401 95.1493 54.2705 95.0592 54.1894C95.0291 54.1685 95.0083 54.15 94.9875 54.1082C94.8974 54.0062 94.805 53.8949 94.7356 53.7744C94.634 53.6213 94.5738 53.4498 94.5138 53.2875C94.493 53.2156 94.4629 53.1553 94.4421 53.0834C94.4005 52.9211 94.382 52.7472 94.352 52.5965C94.3127 52.2928 94.2711 51.9774 94.2503 51.683C94.1602 50.8808 94.1486 50.0785 94.211 49.2972C94.2318 48.9934 94.2827 48.699 94.322 48.3836C94.352 48.2121 94.4028 48.0173 94.4629 47.855C94.5138 47.7229 94.5646 47.5698 94.6339 47.4377C94.6547 47.3959 94.664 47.3774 94.6848 47.3472C94.7657 47.236 94.8558 47.0945 94.9482 46.9925C94.9575 46.9832 94.9783 46.9716 94.9875 46.9716C95.0776 46.8905 95.1793 46.8001 95.281 46.7375C95.3527 46.6957 95.422 46.6563 95.4937 46.6354C95.5445 46.6146 95.6161 46.5752 95.6762 46.5636C95.7062 46.5427 95.7155 46.5427 95.7363 46.5334C95.8588 46.5126 95.9882 46.5033 96.12 46.4917C96.2101 46.4824 96.3025 46.4824 96.3834 46.4824C96.767 46.4824 97.1738 46.5033 97.5574 46.5427C98.0427 46.5937 98.5281 46.6656 99.0157 46.7769C99.2376 46.8372 99.4201 46.9484 99.5935 47.1107C99.6536 47.2012 99.7252 47.2939 99.7853 47.3751L99.7899 47.3727ZM96.8248 51.7479C96.8248 51.7896 96.8248 51.8082 96.834 51.8383C96.8248 51.8082 96.8248 51.7873 96.8248 51.7479Z" fill="#6099FF"/>
</g>
<path id="Vector_27" d="M63.2683 65.386H44.7014C44.2969 65.386 43.9688 65.0568 43.9688 64.651C43.9688 64.2453 44.2969 63.916 44.7014 63.916H63.2683C63.6728 63.916 64.001 64.2453 64.001 64.651C64.001 65.0568 63.6728 65.386 63.2683 65.386Z" fill="black"/>
<path id="Vector_28" d="M54.7845 69.5344H44.7014C44.2969 69.5344 43.9688 69.2052 43.9688 68.7995C43.9688 68.3937 44.2969 68.0645 44.7014 68.0645H54.7845C55.1889 68.0645 55.5171 68.3937 55.5171 68.7995C55.5171 69.2052 55.1889 69.5344 54.7845 69.5344Z" fill="black"/>
<path id="Vector_29" d="M84.6669 95.9915H79.7443C79.3399 95.9915 79.0117 95.6622 79.0117 95.2565C79.0117 94.8507 79.3399 94.5215 79.7443 94.5215H84.6669C85.0713 94.5215 85.3995 94.8507 85.3995 95.2565C85.3995 95.6622 85.0713 95.9915 84.6669 95.9915Z" fill="black"/>
<path id="Vector_30" d="M95.7489 95.9915H89.0607C88.6563 95.9915 88.3281 95.6622 88.3281 95.2565C88.3281 94.8507 88.6563 94.5215 89.0607 94.5215H95.7489C96.1533 94.5215 96.4815 94.8507 96.4815 95.2565C96.4815 95.6622 96.1533 95.9915 95.7489 95.9915Z" fill="black"/>
<path id="Vector_31" d="M43.9531 25.5295C43.8584 25.5295 43.7636 25.5109 43.6735 25.4738C42.4741 24.9754 41.1822 25.0913 41.1568 25.0936C40.7547 25.133 40.3965 24.8409 40.3549 24.4375C40.3133 24.034 40.6067 23.6723 41.0088 23.6306C41.0759 23.6236 42.6797 23.4683 44.2351 24.1152C44.6095 24.2705 44.7875 24.7018 44.6303 25.0774C44.5124 25.3602 44.2397 25.5318 43.9531 25.5318V25.5295Z" fill="black"/>
<path id="Vector_32" d="M56.4959 26.1158C56.5514 26.1738 57.8687 27.507 60.0064 26.8438C60.3923 26.7233 60.8037 26.9412 60.9239 27.3284C61.0441 27.7156 60.8268 28.1283 60.4409 28.2489C59.8608 28.4297 59.3223 28.5016 58.8301 28.5016C56.7478 28.5016 55.4952 27.1939 55.4305 27.1244C55.1555 26.8299 55.1694 26.3685 55.4606 26.0903C55.7517 25.8121 56.2163 25.8237 56.4959 26.1135V26.1158Z" fill="black"/>
<path id="Vector_33" d="M60.7421 25.0492C60.3122 24.7362 59.9424 25.0191 59.8014 25.1582C59.6582 25.3043 59.4687 25.3785 59.2768 25.3785C59.085 25.3785 58.9117 25.3112 58.7684 25.1744C58.4749 24.8939 58.4656 24.4279 58.7476 24.1334C59.2075 23.6534 60.3931 22.9764 61.6041 23.8575C61.9322 24.0963 62.0039 24.5554 61.7658 24.8846C61.5278 25.2138 61.0702 25.2857 60.7421 25.0469V25.0492Z" fill="black"/>
<path id="Vector_34" d="M64.122 22.2686C63.364 22.3498 62.6846 21.7979 62.6037 21.0351C62.5228 20.2746 63.0728 19.593 63.8331 19.5118C64.5911 19.4307 65.2706 19.9825 65.3515 20.7453C65.4324 21.5058 64.8823 22.1875 64.122 22.2686Z" fill="black"/>
<path id="Vector_35" d="M138.161 101.041C137.308 101.342 136.402 101.498 135.489 101.553V106.441C135.489 107.697 134.47 108.722 133.215 108.722H78.3991C78.2951 108.722 78.198 108.701 78.1102 108.662C77.2782 109.019 76.2013 109.337 74.8817 109.61C73.1345 109.972 71.3782 110.164 70.5184 110.164C70.4283 110.164 70.3474 110.164 70.2758 110.157C70.1556 110.157 69.6032 110.155 68.7528 110.15C68.5656 110.174 68.3784 110.195 68.1866 110.213C68.1635 110.215 68.138 110.215 68.1149 110.215C68.004 110.215 67.8977 110.19 67.8007 110.143C65.0574 110.127 60.5416 110.095 56.7608 110.032C56.1761 111.303 54.8934 112.133 53.4883 112.133C53.4767 112.133 53.4652 112.133 53.4536 112.133C52.9521 112.168 46.4026 112.601 38.7392 112.84C35.3188 112.947 32.2081 113 29.4187 113C23.4978 113 19.0097 112.761 16.0262 112.284C9.43504 111.231 5.40688 109.355 2.96642 106.202C0.493591 103.009 -0.375351 98.4926 0.144623 91.5578C0.144623 91.5485 0.144638 91.5369 0.146942 91.5276C0.156189 91.4534 1.03668 84.1035 3.30844 75.6244C6.37752 64.1683 10.3895 56.2017 15.2334 51.9494C18.492 49.0883 23.4307 46.8323 29.9063 45.2464C33.5832 44.3445 36.6685 43.9364 37.9788 43.788V37.6461C37.9788 37.0177 38.233 36.4474 38.6444 36.0347C35.4991 33.6697 33.0101 30.688 31.4201 27.3608C29.6914 23.7462 29.0836 19.8626 29.6614 16.1296C30.2784 12.1394 32.1526 8.71481 35.2287 5.95338C37.928 3.53046 41.5032 1.7127 45.5637 0.699479C49.0094 -0.160715 52.2426 -0.22795 55.1777 0.500085C56.3332 0.363288 63.5853 -0.292878 67.6042 4.04287C70.0493 6.68142 70.7587 10.5882 69.7118 15.652C69.8759 16.2896 70.0146 16.9411 70.1209 17.595C70.7795 21.6873 71.2811 26.9458 69.2959 31.3279C68.6095 32.8443 67.5811 34.1937 66.2291 35.3646H133.21C134.463 35.3646 135.484 36.3871 135.484 37.6461V75.1723C136.672 75.2349 137.752 75.4158 138.563 75.7473C140.43 76.5078 141.849 78.1053 142.783 80.4911C144.846 85.7729 143.975 93.8485 142.466 97.0853C141.565 99.0213 140.116 100.352 138.158 101.043L138.161 101.041ZM78.681 106.589C79.0346 106.144 79.1502 105.734 79.1548 105.393C78.4268 106.095 77.2967 107.032 75.7437 107.899C77.9392 107.329 78.5401 106.765 78.6833 106.589H78.681ZM68.6627 108.678C74.3964 107.932 77.6734 104.855 78.5632 103.902C78.8336 103.612 79.0254 103.281 79.1201 102.944C79.1802 102.731 79.1987 102.541 79.1918 102.372C77.5001 104.403 74.2069 105.798 72.8064 106.327C71.0916 106.972 67.6065 106.83 67.4586 106.823C67.0541 106.805 66.7399 106.464 66.7584 106.056C66.7769 105.648 67.1212 105.332 67.5233 105.353C68.4454 105.393 71.1031 105.397 72.2933 104.95C73.3564 104.551 76.927 103.095 78.2951 101.133C78.8405 100.352 79.0369 99.631 78.8313 99.1557C78.6649 98.7662 78.2627 98.6526 78.0386 98.6178C77.1049 98.4787 75.1821 99.5986 73.6361 100.498C73.1623 100.774 72.67 101.059 72.2032 101.317C69.8205 102.622 63.5922 100.973 62.8897 100.781C62.58 100.698 62.3627 100.422 62.3489 100.102C62.3373 99.7818 62.5315 99.4896 62.8342 99.3807C62.8827 99.3621 67.8122 97.5814 69.1711 96.9971C69.8621 96.7004 70.6594 96.1485 70.8281 95.4947C70.9205 95.1353 70.805 94.7527 70.4745 94.3261C70.3682 94.1893 69.6402 93.5169 65.6999 93.7326C63.4975 93.8531 61.429 94.1963 61.4106 94.1986C61.3251 94.2125 61.2396 94.2125 61.1541 94.1963C54.5791 92.9489 52.5177 95.9885 52.3651 96.2297C50.655 99.6241 51.6417 104.148 52.3836 106.543C52.7441 107.707 53.8003 108.507 55.0113 108.532C59.4323 108.625 65.7138 108.667 68.6604 108.68L68.6627 108.678ZM21.5565 86.8951C21.6212 86.4939 21.9956 86.2204 22.3954 86.2853C24.0616 86.5519 25.7603 86.8139 27.4636 87.069C27.4589 86.9971 27.4635 86.9252 27.4797 86.851L31.8592 66.9947C31.947 66.5982 32.3376 66.3478 32.7328 66.4359C33.128 66.524 33.3775 66.9159 33.2897 67.3123L28.9103 87.1687C28.901 87.2058 28.8894 87.2429 28.8756 87.2776C31.9909 87.7367 35.0877 88.1703 37.9788 88.5621V45.2673C34.7619 45.6521 22.5942 47.4398 16.1995 53.0531C10.445 58.1029 6.78656 68.3116 4.72972 75.9838C2.53191 84.18 1.6514 91.3096 1.60518 91.6806C1.11523 98.2167 1.89409 102.416 4.12425 105.295C6.31975 108.131 10.0637 109.837 16.2573 110.827C26.5322 112.469 53.1185 110.679 53.3866 110.661C53.4074 110.661 53.4282 110.661 53.4513 110.661C53.4652 110.661 53.479 110.661 53.4906 110.661C54.0822 110.661 54.6369 110.412 55.0321 110C55.0159 110 54.9974 110 54.9812 110C53.137 109.96 51.5308 108.745 50.9831 106.976C49.1921 101.187 50.0425 97.5582 51.0709 95.5341C51.0779 95.5225 51.0825 95.5109 51.0894 95.4993C51.1518 95.3904 52.1363 93.7558 54.7779 92.9141C54.4428 92.3809 53.8696 92.0261 53.2295 91.9797C53.2179 91.9797 53.2086 91.9797 53.1971 91.9774C53.0307 91.9589 36.3657 90.0136 22.162 87.7367C21.7621 87.6718 21.4895 87.2962 21.5542 86.8951H21.5565ZM66.5365 5.0445C64.5952 2.94618 61.6556 2.22047 59.5317 1.97934C57.1698 1.7127 55.2539 1.96774 55.2354 1.97238C55.1407 1.98629 55.0459 1.97933 54.9535 1.95615C52.2195 1.25362 49.1805 1.31159 45.9219 2.12309C42.0902 3.07835 38.7322 4.78018 36.2109 7.04544C33.3937 9.57501 31.6789 12.7051 31.115 16.3499C30.0242 23.3984 33.5162 30.6741 40.2298 35.3623C40.239 35.3623 40.2483 35.3623 40.2575 35.3623H42.6125L42.527 29.8093C42.4784 29.8093 42.4276 29.8093 42.3791 29.8093C39.6128 29.7745 37.3895 27.4861 37.4265 24.7107C37.4611 21.9562 39.7052 19.742 42.4437 19.742C42.4645 19.742 42.4877 19.742 42.5085 19.742C42.8782 19.7466 43.2388 19.7907 43.5901 19.8742L43.5369 18.2859C43.53 18.0819 43.6086 17.8871 43.7518 17.7411C43.8951 17.5973 44.0915 17.5185 44.2926 17.5254C44.3319 17.5254 48.2422 17.6321 52.3628 16.4937C57.7337 15.0121 60.9137 12.2275 61.815 8.214C61.8589 8.0146 61.9837 7.84535 62.1593 7.74101C62.335 7.63899 62.543 7.61117 62.7371 7.66914C62.9081 7.72014 66.377 8.79364 68.6372 13.0135C68.9654 9.58196 68.2628 6.90632 66.5365 5.04218V5.0445ZM67.9647 30.7182C69.7766 26.7163 69.3421 21.9562 68.6765 17.8292C68.5702 17.173 68.4316 16.5168 68.2605 15.8792C66.9178 11.7266 64.2855 9.99235 63.026 9.37561C61.7665 13.4679 58.2237 16.4148 52.721 17.9242C49.4694 18.8169 46.4188 18.9769 45.0299 19L45.0923 20.8966C45.1061 21.3024 44.7872 21.6432 44.3828 21.6571C44.3735 21.6571 44.3666 21.6571 44.3573 21.6571C44.251 21.6571 44.1494 21.6339 44.0569 21.5922C44.0246 21.5829 43.9899 21.569 43.9598 21.5551C43.4976 21.3372 43.0031 21.2212 42.4877 21.2143C40.5279 21.1841 38.9171 22.7677 38.8917 24.7316C38.8663 26.6954 40.4401 28.3138 42.3975 28.3393C42.6379 28.3439 42.8783 28.3207 43.1094 28.2767C43.322 28.2373 43.5415 28.2929 43.7103 28.4297C43.879 28.5665 43.976 28.7705 43.9806 28.9885L44.0777 35.3646H63.7863C65.7322 34.1033 67.1397 32.5406 67.9647 30.7205V30.7182ZM134.021 37.6438C134.021 37.1963 133.659 36.8346 133.215 36.8346H40.2552C39.8092 36.8346 39.4486 37.1986 39.4486 37.6438V40.8017H134.021V37.6438ZM134.021 42.2716H39.4486V88.7615C47.1121 89.7863 53.0122 90.4773 53.3543 90.5167C54.623 90.6164 55.7392 91.414 56.2523 92.571C57.6019 92.3577 59.2659 92.3507 61.2973 92.724C61.7942 92.6451 63.6223 92.3716 65.6075 92.2603C68.9631 92.0748 70.8766 92.4434 71.6323 93.4172C72.4042 94.4119 72.3927 95.293 72.2471 95.8564C71.8797 97.2893 70.3751 98.073 69.7465 98.3442C68.977 98.6758 67.172 99.3505 65.6698 99.9047C67.93 100.331 70.4861 100.575 71.4983 100.021C71.949 99.7748 72.4088 99.5058 72.8965 99.223C74.9094 98.0521 76.8114 96.9438 78.2512 97.1594C79.1479 97.2939 79.8481 97.8087 80.174 98.5715C80.3496 98.9819 80.5207 99.7284 80.1463 100.749C80.516 101.291 80.8442 102.205 80.5276 103.341C80.4675 103.554 80.3866 103.767 80.2826 103.971C80.6616 104.725 80.8812 105.97 80.0122 107.25H133.21C133.656 107.25 134.017 106.886 134.017 106.441V101.56C131.075 101.416 128.313 100.41 127.278 99.8977C125.041 98.7917 124.916 96.7838 125.196 95.6941C124.528 95.1446 124.035 94.2914 123.878 93.3106C123.673 92.0261 124.098 90.8274 125.004 89.9973C124.398 89.4501 124.001 88.692 123.918 87.8271C123.758 86.1972 124.791 84.7365 126.545 84.1082C127.063 83.9227 127.805 83.758 128.667 83.6143C127.967 83.5007 127.38 83.3662 126.982 83.2085C125.813 82.7448 124.999 81.5693 124.909 80.2129C124.812 78.736 125.577 77.3935 126.954 76.6214C128.424 75.7983 131.322 75.2187 134.017 75.1538V42.2716H134.021ZM141.419 81.0244C140.638 79.0281 139.494 77.7112 138.013 77.106C135.572 76.1114 129.767 76.7327 127.675 77.9036C126.79 78.3998 126.316 79.2043 126.377 80.1132C126.43 80.9038 126.88 81.5809 127.525 81.8382C129.131 82.4759 135.417 82.7193 137.703 82.7587C138.098 82.7657 138.417 83.0856 138.424 83.4821C138.431 83.8786 138.121 84.2101 137.726 84.2287C137.643 84.2333 129.413 84.6414 127.044 85.49C125.362 86.0928 125.348 87.3194 125.383 87.6811C125.454 88.423 126.007 89.2438 127.079 89.4038C129.478 89.7608 137.382 89.4571 137.46 89.4548C137.867 89.4409 138.207 89.7562 138.221 90.162C138.237 90.5677 137.92 90.9109 137.516 90.9248C137.185 90.9387 129.395 91.2378 126.862 90.8599C126.714 90.8367 126.571 90.8042 126.43 90.7671C125.216 91.4604 125.256 92.6081 125.33 93.0764C125.475 93.9783 126.083 94.7435 126.737 94.8571C127.312 94.9336 134.812 95.0194 136.827 94.7945C137.232 94.7504 137.592 95.0402 137.636 95.4437C137.68 95.8471 137.391 96.2111 136.989 96.2552C135.986 96.3665 133.615 96.4082 131.375 96.4082C129.136 96.4082 127.072 96.3688 126.571 96.3178C126.504 96.8673 126.585 97.913 127.927 98.5761C129.053 99.1325 134.008 100.943 137.671 99.6519C139.242 99.0978 140.409 98.0243 141.137 96.4592C142.503 93.5262 143.312 85.8749 141.417 81.0244H141.419Z" fill="black"/>
<path id="Vector_36" d="M55.9503 22.2685C55.8071 22.2685 55.6614 22.2268 55.5343 22.1387C54.9104 21.7074 54.1154 21.5521 53.4059 21.726C53.0107 21.8211 52.6155 21.5799 52.5207 21.1858C52.426 20.7916 52.6663 20.3928 53.0592 20.2977C54.1685 20.0265 55.4049 20.263 56.3663 20.9284C56.6991 21.1579 56.7846 21.617 56.5535 21.9509C56.4102 22.1572 56.1814 22.2685 55.9503 22.2685Z" fill="black"/>
</g>
</svg>
