<svg width="157" height="144" viewBox="0 0 157 144" fill="none" xmlns="http://www.w3.org/2000/svg">
<g clip-path="url(#clip0_2045_209752)">
<path d="M66.3539 46.3845C66.9106 46.9466 67.6788 47.2203 68.6364 47.1999C69.7053 47.1766 70.5125 46.8475 71.0386 46.2214C71.5953 45.5604 71.7595 44.678 71.8013 44.0723L65.3379 44.2179C65.452 44.8469 65.722 45.7438 66.3539 46.3845Z" fill="#F9D0D2"/>
<path d="M47.3285 58.9212C45.9618 59.9813 45.0154 60.9365 44.6201 61.647C44.609 61.7053 44.5895 61.7606 44.5645 61.813C44.7036 62.3605 45.6974 64.2301 48.7425 68.1848C50.7884 70.8436 53.1266 73.5956 54.2818 74.7197C55.2226 74.1197 57.9115 71.1901 60.2747 68.3595C58.1648 67.1655 52.4391 63.7933 49.0543 60.5433C48.904 60.4006 48.8288 60.2055 48.8233 60.0104C48.8121 59.958 48.8066 59.9056 48.8066 59.8502V57.8438C48.3918 58.1262 47.8713 58.499 47.3285 58.9183V58.9212Z" fill="#6099FF"/>
<path d="M79.5065 29.2965C78.2372 23.5305 73.9728 20.8426 72.311 19.998C70.5546 24.9545 66.5797 28.4404 60.7649 30.1061C57.2521 31.1108 54.051 31.1836 52.6954 31.1574L52.4226 33.426C52.4226 33.426 52.4171 33.4522 52.4143 33.4638C52.4115 33.4871 52.4059 33.5104 52.4003 33.5308C52.3948 33.557 52.3864 33.5803 52.3753 33.6065C52.3669 33.6269 52.3614 33.6444 52.353 33.6619C52.3391 33.691 52.3252 33.7172 52.3085 33.7405C52.3029 33.7521 52.2974 33.7638 52.2918 33.7725C52.2918 33.7754 52.2862 33.7783 52.2834 33.7842C52.264 33.8104 52.2417 33.8366 52.2194 33.8599C52.2083 33.8715 52.1999 33.8803 52.1916 33.8919C52.1582 33.921 52.1248 33.9502 52.0858 33.9735C52.0802 33.9764 52.0775 33.9793 52.0719 33.9822C52.0357 34.0026 51.9995 34.023 51.9605 34.0375C51.9494 34.0433 51.9355 34.0433 51.9244 34.0492C51.8937 34.0579 51.8631 34.0696 51.8297 34.0754C51.813 34.0754 51.7963 34.0783 51.7796 34.0812C51.7574 34.0812 51.7323 34.087 51.71 34.087C51.7045 34.087 51.6989 34.087 51.6933 34.087C51.685 34.087 51.6766 34.087 51.6683 34.087C51.6516 34.087 51.6377 34.087 51.621 34.0841C51.5959 34.0812 51.5709 34.0754 51.5486 34.0696C51.5486 34.0696 51.5486 34.0696 51.5458 34.0696C51.4512 34.0463 51.3649 34.0026 51.2897 33.9472C50.7107 33.5075 50.0288 33.2221 49.3134 33.126C48.1777 32.9746 47.0532 33.2949 46.1457 34.0259C45.2383 34.7597 44.6593 35.8168 44.5146 37.005C44.214 39.4599 45.8785 41.711 48.2223 42.0255C48.6259 42.0809 49.0295 42.0751 49.4275 42.011C49.4331 42.011 49.4387 42.011 49.4442 42.011C49.4581 42.011 49.4693 42.0081 49.4832 42.0081C49.4943 42.0081 49.5082 42.0081 49.5194 42.0081C49.525 42.0081 49.5305 42.0081 49.5361 42.0081C49.5361 42.0081 49.5472 42.0081 49.5528 42.0081C49.5667 42.0081 49.5806 42.0081 49.5945 42.0081C49.6057 42.0081 49.614 42.0081 49.6252 42.011C49.6391 42.011 49.653 42.0139 49.6669 42.0168C49.678 42.0168 49.6864 42.0197 49.6975 42.0226C49.7114 42.0256 49.7226 42.0285 49.7365 42.0343C49.7476 42.0372 49.756 42.0401 49.7671 42.043C49.7783 42.0459 49.7894 42.0518 49.8033 42.0576C49.8144 42.0605 49.8228 42.0663 49.8339 42.0721C49.8451 42.078 49.8562 42.0838 49.8673 42.0896C49.8757 42.0954 49.8868 42.1013 49.8952 42.1042C49.9063 42.11 49.9174 42.1187 49.9286 42.1246C49.9369 42.1304 49.9453 42.1362 49.9536 42.142C49.9648 42.1508 49.9759 42.1595 49.987 42.1682C49.9954 42.1741 50.0009 42.1799 50.0093 42.1857C50.0204 42.1945 50.0316 42.2061 50.0399 42.2148C50.0455 42.2207 50.051 42.2265 50.0566 42.2323C50.0677 42.244 50.0761 42.2556 50.0872 42.2673C50.0928 42.2731 50.0984 42.2789 50.1039 42.2876C50.1123 42.2993 50.1206 42.3109 50.1318 42.3255C50.1373 42.3313 50.1401 42.3401 50.1457 42.3459C50.154 42.3575 50.1596 42.3721 50.1679 42.3837C50.1735 42.3925 50.1763 42.4012 50.1819 42.41C50.1874 42.4216 50.193 42.4333 50.1986 42.4478C50.2041 42.4595 50.2069 42.4682 50.2125 42.4798C50.2153 42.4915 50.2208 42.5031 50.2236 42.5148C50.2292 42.5264 50.232 42.541 50.2348 42.5526C50.2348 42.5643 50.2403 42.573 50.2431 42.5847C50.2459 42.5992 50.2487 42.6138 50.2515 42.6284C50.2515 42.6342 50.2515 42.6371 50.2542 42.6429C50.2542 42.6487 50.2542 42.6546 50.2542 42.6604C50.2542 42.675 50.257 42.6866 50.257 42.7012C50.257 42.7128 50.257 42.7274 50.257 42.739C50.257 42.7449 50.257 42.7507 50.257 42.7565L50.2487 59.6499C53.7003 62.8678 59.5986 66.2779 61.2826 67.2244C62.4378 66.0188 65.9785 62.2213 67.5372 59.4489C67.5289 59.4023 67.5233 59.3528 67.5233 59.3033V56.7057C66.087 57.0814 64.5087 57.3842 62.769 57.6288C62.7356 57.6347 62.705 57.6347 62.6744 57.6347C62.3181 57.6347 62.0119 57.3609 61.9618 56.9824C61.9089 56.5717 62.1873 56.1932 62.5798 56.1378C64.5338 55.8641 66.3542 55.5088 68.0271 55.0167C68.0271 55.0167 68.0299 55.0167 68.0327 55.0167C76.3694 52.5734 81.0012 46.8248 79.8182 31.734C79.7542 30.9186 79.6512 30.1032 79.5092 29.3053L79.5065 29.2965ZM51.145 38.1728C51.0141 38.4203 50.7692 38.5601 50.5159 38.5601C50.3962 38.5601 50.2765 38.531 50.1679 38.464C48.804 37.669 47.248 37.634 47.2313 37.634C46.8361 37.6282 46.5187 37.2846 46.5243 36.871C46.5299 36.4604 46.85 36.1284 47.2425 36.1284H47.2508C47.3287 36.1284 49.177 36.1634 50.8666 37.1477C51.2146 37.3486 51.337 37.8088 51.145 38.1699V38.1728ZM68.7509 40.188C69.2714 39.6492 70.6047 38.9066 71.9157 39.9579C72.2303 40.2113 72.2887 40.6831 72.0466 41.0121C71.8044 41.3412 71.3535 41.4024 71.0389 41.149C70.3987 40.6335 69.8253 41.1898 69.7641 41.2567C69.6249 41.4023 69.4412 41.4752 69.2575 41.4752C69.0738 41.4752 68.8873 41.3994 68.7453 41.2509C68.4669 40.9568 68.4697 40.4792 68.7509 40.188ZM61.8449 37.1477C61.7976 36.2158 62.4795 35.4208 63.3703 35.3713C64.261 35.3218 65.0209 36.0353 65.0682 36.9671C65.1156 37.899 64.4336 38.694 63.5429 38.7436C62.6521 38.7931 61.8922 38.0796 61.8449 37.1477ZM72.1273 47.2034C71.3229 48.1644 70.1593 48.6711 68.6674 48.7031C68.62 48.7031 68.5755 48.7031 68.5282 48.7031C67.231 48.7031 66.1594 48.2838 65.3438 47.4538C63.8463 45.9307 63.8156 43.5836 63.8156 43.4845C63.8156 43.0739 64.1274 42.7361 64.5199 42.7274L72.5003 42.5468C72.8733 42.5381 73.1878 42.8264 73.2296 43.2137C73.2407 43.3098 73.4717 45.59 72.1273 47.1975V47.2034ZM75.0528 38.4232C74.1621 38.4727 73.4022 37.7593 73.3548 36.8274C73.3075 35.8955 73.9895 35.1005 74.8802 35.051C75.771 35.0014 76.5308 35.7149 76.5782 36.6468C76.6255 37.5787 75.9435 38.3737 75.0528 38.4232Z" fill="white"/>
<path d="M15.9047 141.613L70.0195 142.481V110.66L22.563 111.178H22.5546C22.1621 111.178 21.8392 110.846 21.8365 110.433C21.8337 110.016 22.151 109.676 22.549 109.673L30.7271 109.583C30.7132 109.521 30.702 109.457 30.702 109.393V91.2797C30.702 90.8632 31.0249 90.5283 31.4202 90.5283C31.8154 90.5283 32.1383 90.8662 32.1383 91.2797V109.393C32.1383 109.454 32.13 109.513 32.1188 109.568L70.7321 109.146H70.7405C70.7655 109.146 70.7906 109.146 70.8128 109.149C70.8184 109.149 70.824 109.149 70.8295 109.149C70.8462 109.149 70.8657 109.154 70.8824 109.157C70.8908 109.157 70.8991 109.163 70.9075 109.163C70.9214 109.166 70.9353 109.169 70.952 109.175C70.9604 109.178 70.9715 109.181 70.9798 109.186C70.9938 109.192 71.0049 109.195 71.0188 109.201C71.0272 109.204 71.0383 109.21 71.0466 109.216C71.0578 109.221 71.0689 109.227 71.0828 109.233C71.0912 109.239 71.0995 109.245 71.1079 109.251C71.119 109.256 71.1301 109.265 71.1413 109.271C71.1496 109.277 71.158 109.283 71.1663 109.288C71.1775 109.297 71.1886 109.303 71.197 109.312C71.2053 109.318 71.2109 109.326 71.2192 109.332C71.2276 109.341 71.2387 109.35 71.2471 109.358C71.2554 109.367 71.261 109.373 71.2665 109.382C71.2749 109.39 71.2832 109.402 71.2916 109.411C71.2972 109.419 71.3027 109.428 71.3083 109.434C71.3166 109.446 71.325 109.454 71.3306 109.466C71.3361 109.475 71.3417 109.484 71.3473 109.492C71.3528 109.504 71.3612 109.516 71.3668 109.527C71.3723 109.536 71.3751 109.548 71.3807 109.556C71.3862 109.568 71.3918 109.58 71.3974 109.591C71.4029 109.603 71.4057 109.612 71.4085 109.623C71.4141 109.635 71.4169 109.647 71.4224 109.661C71.4252 109.673 71.428 109.684 71.4308 109.696C71.4336 109.708 71.4363 109.722 71.4391 109.734C71.4391 109.746 71.4419 109.757 71.4447 109.769C71.4447 109.783 71.4503 109.795 71.4503 109.81C71.4503 109.821 71.4503 109.833 71.4503 109.845C71.4503 109.856 71.4503 109.871 71.4503 109.882C71.4503 109.882 71.4503 109.885 71.4503 109.888C71.4503 109.888 71.4503 109.888 71.4503 109.891V114.123C73.5908 112.568 76.1266 111.012 79.0048 109.484C81.9887 107.899 89.4681 106.079 95.1577 106.079C95.1521 102.063 94.793 89.3198 94.7902 89.1917C94.7791 88.7752 95.0909 88.4287 95.4889 88.417C95.8842 88.4083 96.2182 88.7316 96.2293 89.148C96.2321 89.279 96.594 102.133 96.5995 106.123C97.9189 106.204 99.0964 106.408 100.034 106.769C101.476 107.32 102.423 108.479 102.565 109.865C102.695 111.164 102.094 112.419 100.995 113.144C99.873 113.884 97.7213 114.577 96.0929 115.037C99.5056 116.432 102.835 118.028 103.767 119.263C105.384 121.403 104.978 122.952 104.588 123.683C104.14 124.528 103.311 125.101 102.281 125.329C102.662 125.896 102.988 126.616 102.974 127.411L116.427 132.056C121.501 133.809 127.021 133.136 131.575 130.212C136.129 127.288 139.202 122.443 140.003 116.915L147.967 62.1465L116.226 57.7754L109.802 101.295C109.741 101.705 109.376 101.988 108.981 101.924C108.588 101.86 108.318 101.475 108.379 101.065L111.196 81.9724L108.307 77.578C103.01 69.5201 94.6371 64.3132 85.3429 63.2939L74.192 62.0708C74.2644 63.4075 73.9666 65.3994 73.3041 68.0262C72.7808 70.0996 71.7481 73.4748 71.1942 74.1242C71.0077 74.3455 70.7711 74.4445 70.4816 74.4445C70.0084 74.4445 69.3904 74.1795 68.6083 73.7631C67.7955 73.3292 66.7155 72.671 65.4016 71.8061C63.8401 70.7781 62.3035 69.6948 61.5242 69.1357C60.9173 69.8608 59.7399 71.2528 58.5291 72.5924C57.5019 73.7282 56.6446 74.6105 55.9877 75.2104C55.4839 75.6706 54.7824 76.3112 54.1561 76.3112C53.9557 76.3112 53.7609 76.2442 53.5855 76.087C52.422 75.0444 49.6774 71.8265 47.3392 68.76C44.6197 65.1955 43.5926 63.4017 43.2474 62.429L33.6888 64.9655C21.8086 68.1193 12.5812 77.8052 9.60558 90.2459L1.87569 122.568C0.781756 127.14 1.73094 131.904 4.48108 135.64C7.23122 139.374 11.3926 141.549 15.8992 141.61L15.9047 141.613Z" fill="#6099FF"/>
<path d="M36.8787 62.5763L43.4033 60.8435C44.5724 58.8225 47.9962 56.5772 48.8062 56.0618L48.8118 43.5599C48.7978 43.5599 48.7811 43.5599 48.7672 43.5599C48.5223 43.5599 48.2773 43.5425 48.0324 43.5104C44.9009 43.0911 42.6796 40.0828 43.0805 36.8067C43.4813 33.5305 46.3539 31.2037 49.4882 31.6259C50.056 31.7017 50.6099 31.8706 51.1277 32.1152L51.3476 30.2864C51.3949 29.8903 51.7317 29.602 52.1103 29.6311C52.1492 29.634 56.0963 29.8874 60.4191 28.6439C66.1031 27.0073 69.7273 23.6816 71.1942 18.7572C71.2527 18.562 71.3835 18.399 71.5588 18.3087C71.7342 18.2184 71.9374 18.2039 72.1211 18.2708C72.3689 18.3611 77.4099 20.2919 79.9234 25.9473C80.3298 21.2529 79.4196 17.601 77.2067 15.0675C73.0369 10.2945 65.5603 11.0341 65.4852 11.04C65.3822 11.0516 65.2792 11.04 65.179 11.0021C62.0364 9.88093 58.4679 9.65669 54.5709 10.3381C54.3454 10.3789 54.0977 10.4255 53.8333 10.4808C48.667 11.5671 44.3748 13.5939 41.0735 16.5061C37.48 19.6745 35.1613 23.833 34.1759 28.8652C33.9087 30.231 33.75 31.7075 33.7055 33.2509L33.416 43.426C33.4132 43.5629 33.3715 43.6968 33.3019 43.8104C33.2518 43.889 28.4251 51.8916 32.0409 58.374C33.0541 60.1912 34.6575 61.592 36.8036 62.5326C36.8286 62.5442 36.8565 62.5588 36.8787 62.5734V62.5763Z" fill="black"/>
<path d="M77.0711 51.2421C75.1198 53.5281 72.52 55.1619 68.957 56.2859V58.3856C70.3405 58.703 72.9792 59.4311 73.7753 60.5202L79.1504 61.1114C79.1671 61.0619 79.1921 61.0153 79.2199 60.9687C82.1928 56.2335 80.492 51.478 78.847 48.6328C78.332 49.588 77.7391 50.4558 77.0711 51.2421Z" fill="black"/>
<path d="M68.9259 59.9189C67.4228 62.7524 63.9545 66.5353 62.5293 68.0351C65.6441 70.2629 69.1291 72.5169 70.2453 72.8896C70.5876 72.1354 71.3253 70.0183 71.9488 67.5255C72.8729 63.827 72.8924 61.9225 72.628 61.4158C72.4053 61.0255 70.7407 60.3616 68.9259 59.916V59.9189Z" fill="#6099FF"/>
<path d="M148.404 4.79883H139.769V7.27998C139.769 7.69642 139.447 8.03131 139.051 8.03131H121.596V23.3143H148.404V4.79883Z" fill="black"/>
<path d="M84.8755 118.221C84.9841 118.239 84.9924 118.241 86.6876 118.905C90.0445 120.219 98.963 123.705 100.772 123.914C101.95 124.051 102.957 123.676 103.333 122.962C103.703 122.263 103.458 121.285 102.64 120.204C102.32 119.782 100.873 118.524 94.3256 115.955C90.6625 114.52 87.1831 113.372 87.1497 113.361C86.7711 113.235 86.5595 112.813 86.6792 112.417C86.7989 112.021 87.2025 111.8 87.5811 111.925C88.1879 112.123 90.7738 112.985 93.7216 114.109C94.2811 113.978 98.6318 112.93 100.23 111.878C100.861 111.462 101.209 110.754 101.137 110.029C101.053 109.214 100.474 108.544 99.5448 108.189C95.1662 106.514 83.7844 108.646 79.6619 110.833C75.7204 112.924 73.0649 114.75 71.5312 115.918C71.5062 115.935 71.4811 115.95 71.4561 115.964V139.215C78.6682 137.523 82.1643 132.304 82.2005 132.252C82.3703 131.993 82.6765 131.873 82.9688 131.949C83.7927 132.164 84.6083 132.389 85.3988 132.607C90.1113 133.906 94.1809 135.03 95.4808 132.919C95.7536 132.479 95.8343 132.086 95.7341 131.719C95.5504 131.052 94.7905 130.539 94.4648 130.368C89.9109 129.043 82.5095 126.66 82.0947 126.529C81.7162 126.407 81.5019 125.985 81.6188 125.589C81.7357 125.193 82.1393 124.969 82.5178 125.091C87.133 126.576 96.2908 129.459 97.9136 129.73C99.8843 130.059 100.987 129.439 101.493 127.712C101.755 126.826 100.873 125.801 100.397 125.373C98.3701 125.015 92.1071 122.627 86.1866 120.312C85.3988 120.003 84.7141 119.735 84.5804 119.689C84.2269 119.593 83.9959 119.229 84.0544 118.841C84.1184 118.431 84.4858 118.154 84.8783 118.218L84.8755 118.221Z" fill="white"/>
<path d="M119.498 48.9487C119.489 48.9807 118.738 52.286 119.712 56.5785C119.726 56.6338 119.731 56.6892 119.731 56.7445L142.793 59.9217C142.813 59.8955 142.829 59.8722 142.849 59.8489C147.224 55.1894 154.554 48.3604 154.904 48.0343C155.711 47.2072 155.784 45.8909 155.071 44.9707C154.331 44.0126 152.97 43.8495 152.04 44.6038L145.156 50.2009C144.842 50.4572 144.391 50.396 144.146 50.0699C143.901 49.7408 143.959 49.269 144.271 49.0127L151.155 43.4156C151.414 43.2059 151.695 43.037 151.987 42.9118C152.026 42.8448 152.073 42.7807 152.132 42.7254L153.195 41.7731C153.699 41.3188 153.997 40.6607 154.011 39.9647C154.025 39.2687 153.752 38.5989 153.265 38.1242C152.457 37.3408 151.222 37.2535 150.323 37.9204L148.449 39.3095L148.441 39.3153L140.502 45.1978C140.377 45.291 140.232 45.3376 140.087 45.3376C139.862 45.3376 139.639 45.227 139.5 45.0202C139.272 44.6824 139.347 44.2106 139.673 43.9718L147.609 38.0922L149.078 36.9885C149.571 36.6186 149.886 36.0449 149.941 35.413C149.997 34.7811 149.788 34.155 149.371 33.6977C148.655 32.9173 147.519 32.7979 146.671 33.4094L143.578 35.6431C143.533 35.6809 143.489 35.7188 143.442 35.7566L143.135 36.0013C143.071 36.0508 143.002 36.0857 142.929 36.1119L135.77 41.2839C135.645 41.3742 135.503 41.4179 135.361 41.4179C135.133 41.4179 134.907 41.3043 134.768 41.0917C134.543 40.751 134.623 40.2821 134.952 40.0462L142.679 34.4636C143.06 34.1142 143.3 33.6366 143.353 33.1037C143.411 32.5212 143.241 31.9534 142.877 31.5078C142.2 30.6866 141.053 30.5352 140.204 31.1496L126.34 41.7091C126.326 41.7207 126.309 41.7265 126.295 41.7382C126.281 41.7469 126.27 41.7557 126.256 41.7615C126.223 41.779 126.189 41.7964 126.156 41.8081C126.15 41.8081 126.145 41.8139 126.139 41.8139C126.097 41.8285 126.056 41.8372 126.014 41.843C126.003 41.843 125.994 41.843 125.983 41.843C125.961 41.843 125.939 41.8489 125.914 41.8489C125.903 41.8489 125.891 41.8489 125.88 41.8489C125.872 41.8489 125.864 41.8489 125.855 41.8489C125.816 41.8459 125.777 41.8401 125.738 41.8285C125.73 41.8285 125.724 41.8226 125.716 41.8226C125.677 41.811 125.641 41.7964 125.605 41.779C125.602 41.779 125.599 41.779 125.596 41.7761C125.557 41.7557 125.521 41.7324 125.485 41.7033C125.482 41.7033 125.479 41.7003 125.474 41.6974C125.438 41.6683 121.677 38.663 118.276 37.964C116.839 37.6699 115.448 38.2844 114.729 39.5308C113.894 40.981 114.187 42.8273 115.425 43.9165C117.109 45.3959 118.47 46.6626 119.42 48.3954C119.512 48.5643 119.539 48.7623 119.495 48.9516L119.498 48.9487ZM130.359 53.9896C134.999 50.297 141.621 51.325 141.902 51.3716C142.295 51.4357 142.562 51.8201 142.501 52.2307C142.44 52.6413 142.072 52.9209 141.68 52.8597C141.618 52.851 135.378 51.89 131.227 55.1894C131.097 55.2913 130.944 55.3438 130.793 55.3438C130.576 55.3438 130.362 55.2418 130.22 55.0467C129.98 54.7147 130.042 54.243 130.356 53.9925L130.359 53.9896Z" fill="white"/>
<path d="M84.5859 119.695C84.6168 119.704 84.6364 119.707 84.6476 119.71C84.628 119.707 84.6056 119.701 84.5859 119.695Z" fill="#FFD0D2"/>
<path d="M138.331 4.04525C138.331 3.62882 138.653 3.29392 139.049 3.29392H146.536V1.50586H123.068V6.52932H138.331V4.04817V4.04525Z" fill="white"/>
<path d="M98.5594 11.4092C96.3826 11.4092 94.6123 9.55712 94.6123 7.27982C94.6123 5.00252 96.3826 3.15039 98.5594 3.15039C100.736 3.15039 102.506 5.00252 102.506 7.27982C102.506 9.55712 100.736 11.4092 98.5594 11.4092ZM98.5594 4.65306C97.1759 4.65306 96.0514 5.82957 96.0514 7.27691C96.0514 8.72425 97.1759 9.90075 98.5594 9.90075C99.9428 9.90075 101.067 8.72425 101.067 7.27691C101.067 5.82957 99.9428 4.65306 98.5594 4.65306Z" fill="#6099FF"/>
<path d="M18.3651 53.1726H5.44667C5.04862 53.1726 4.72852 52.8348 4.72852 52.4213C4.72852 52.0077 5.05141 51.6699 5.44667 51.6699H18.3651C18.7631 51.6699 19.0832 52.0077 19.0832 52.4213C19.0832 52.8348 18.7603 53.1726 18.3651 53.1726Z" fill="#6099FF"/>
<path d="M14.6825 57.9109H5.44667C5.04862 57.9109 4.72852 57.5731 4.72852 57.1595C4.72852 56.746 5.05141 56.4082 5.44667 56.4082H14.6825C15.0805 56.4082 15.4006 56.746 15.4006 57.1595C15.4006 57.5731 15.0777 57.9109 14.6825 57.9109Z" fill="#6099FF"/>
<path d="M62.3702 40.617C62.5317 42.6235 61.1093 44.3883 59.1886 44.5601C57.2708 44.729 55.5839 43.2409 55.4197 41.2315C55.2583 39.225 56.6807 37.4603 58.6013 37.2885C60.5192 37.1196 62.206 38.6077 62.3702 40.617Z" fill="#FDCECA"/>
<path d="M65.0684 36.9635C65.0211 36.0316 64.2612 35.3182 63.3705 35.3677C62.4797 35.4172 61.7978 36.2122 61.8451 37.1441C61.8924 38.076 62.6523 38.7894 63.5431 38.7399C64.4338 38.6904 65.1158 37.8954 65.0684 36.9635Z" fill="black"/>
<path d="M74.8802 35.0493C73.9895 35.0988 73.3075 35.8938 73.3549 36.8257C73.4022 37.7576 74.1621 38.4711 75.0528 38.4216C75.9436 38.3721 76.6255 37.577 76.5782 36.6452C76.5309 35.7133 75.771 34.9998 74.8802 35.0493Z" fill="black"/>
<path d="M50.8658 37.1482C49.1762 36.1639 47.328 36.1289 47.25 36.1289H47.2417C46.8492 36.1289 46.5291 36.458 46.5235 36.8715C46.5179 37.285 46.8353 37.6287 47.2305 37.6345C47.2472 37.6345 48.8032 37.6723 50.1672 38.4645C50.2785 38.5285 50.3982 38.5606 50.5151 38.5606C50.7684 38.5606 51.0134 38.4208 51.1442 38.1732C51.3363 37.8092 51.2138 37.352 50.8658 37.1511V37.1482Z" fill="black"/>
<path d="M69.2573 41.4745C69.441 41.4745 69.6219 41.4017 69.7639 41.2561C69.8279 41.192 70.3985 40.6329 71.0388 41.1483C71.3533 41.4017 71.8042 41.3405 72.0464 41.0114C72.2886 40.6824 72.2301 40.2106 71.9156 39.9572C70.6073 38.903 69.274 39.6456 68.7507 40.1873C68.4696 40.4785 68.4668 40.9561 68.7451 41.2502C68.8871 41.3987 69.0708 41.4745 69.2573 41.4745Z" fill="black"/>
<path d="M72.5001 42.5488L64.5197 42.7294C64.1272 42.7381 63.8127 43.0759 63.8154 43.4865C63.8154 43.5856 63.8489 45.9327 65.3436 47.4558C66.1592 48.2858 67.2309 48.7051 68.528 48.7051C68.5725 48.7051 68.6198 48.7051 68.6672 48.7051C70.1619 48.6702 71.3254 48.1664 72.1271 47.2054C73.4715 45.5979 73.2405 43.3176 73.2294 43.2215C73.1876 42.8342 72.8731 42.5459 72.5001 42.5547V42.5488ZM71.0387 46.2181C70.5126 46.8443 69.7054 47.1733 68.6365 47.1966C67.679 47.217 66.9107 46.9433 66.354 46.3812C65.7222 45.7435 65.4522 44.8436 65.338 44.2146L71.8014 44.069C71.7597 44.6718 71.5954 45.5542 71.0387 46.2181Z" fill="black"/>
<path d="M15.8857 143.121L70.727 144.001C70.727 144.001 70.7353 144.001 70.7381 144.001C70.9274 144.001 71.1083 143.922 71.2419 143.785C71.3783 143.643 71.4562 143.45 71.4562 143.249V140.727C71.4729 140.727 71.4924 140.733 71.5091 140.733C71.5592 140.733 71.6121 140.727 71.665 140.716C78.3372 139.187 82.0365 134.912 83.0803 133.534C83.74 133.709 84.3941 133.89 85.0288 134.064C90.2813 135.515 94.8185 136.764 96.6863 133.738C97.3153 132.716 97.2624 131.845 97.1094 131.295C97.0899 131.222 97.0648 131.149 97.0398 131.079C97.307 131.144 97.5241 131.193 97.6828 131.219C98.0947 131.289 98.4761 131.321 98.8268 131.321C100.962 131.321 102.05 130.145 102.604 128.878L115.976 133.497C117.98 134.19 120.051 134.53 122.111 134.53C125.677 134.53 129.212 133.505 132.329 131.505C137.245 128.348 140.56 123.118 141.429 117.151L149.501 61.6218C149.529 61.4209 149.482 61.217 149.365 61.0569C149.248 60.8967 149.075 60.7889 148.883 60.7627L144.569 60.1687C149.042 55.5005 155.795 49.2161 155.867 49.1491C155.875 49.1433 155.881 49.1345 155.889 49.1287C157.245 47.7542 157.373 45.5613 156.184 44.0266C155.686 43.383 155.018 42.9549 154.297 42.7569C155.007 42.0347 155.422 41.0446 155.444 40.002C155.466 38.8779 155.026 37.7946 154.239 37.0287C153.429 36.2424 152.351 35.8901 151.302 35.9949C151.333 35.8493 151.355 35.7037 151.369 35.5552C151.464 34.4893 151.113 33.4322 150.403 32.6605C149.198 31.3442 147.283 31.1403 145.846 32.1771L144.797 32.9342C144.811 32.0518 144.519 31.2102 143.962 30.5317C142.801 29.1222 140.828 28.863 139.369 29.926C139.366 29.9289 139.361 29.9318 139.358 29.9347L125.911 40.1738C124.772 39.3206 121.607 37.119 118.548 36.4929C116.511 36.0764 114.526 36.9646 113.493 38.7585C112.288 40.8495 112.711 43.5053 114.495 45.0721C115.982 46.3796 117.198 47.5037 118.03 48.9045C117.855 49.848 117.443 52.7951 118.22 56.543L115.715 56.1965C115.328 56.1441 114.969 56.4236 114.91 56.8284L111.517 79.8169L109.493 76.7388C103.957 68.3198 95.2082 62.8769 85.4936 61.8111L80.7226 61.2869C82.145 58.7766 82.5988 56.0334 82.0671 53.1213C81.605 50.5935 80.4805 48.4531 79.5897 47.064C81.207 43.1646 81.7526 38.0567 81.246 31.6063C81.1819 30.7822 81.0761 29.958 80.937 29.1484C82.1395 22.5408 81.2404 17.462 78.2648 14.0548C73.9169 9.07499 66.6936 9.43609 65.4939 9.5322C62.1592 8.37316 58.4042 8.14601 54.3319 8.85949C54.0897 8.90026 53.8253 8.95268 53.547 9.01092C48.1413 10.1496 43.632 12.2842 40.1442 15.3594C36.2974 18.7521 33.8144 23.196 32.765 28.566C32.4811 30.0163 32.3141 31.5772 32.2668 33.208L31.9829 43.1821C31.6433 43.7703 30.605 45.6924 29.9063 48.2609C28.7985 52.3437 29.1047 56.1033 30.7971 59.1348C31.7156 60.7802 33.0378 62.1227 34.7386 63.1449L33.3412 63.5147C20.9489 66.8054 11.3207 76.9106 8.217 89.8871L0.487114 122.209C-0.715375 127.233 0.328452 132.463 3.34859 136.563C6.36873 140.663 10.9393 143.054 15.8857 143.118V143.121ZM84.0518 118.846C83.9933 119.23 84.2243 119.594 84.5779 119.693C84.7115 119.74 85.3962 120.008 86.184 120.316C92.1045 122.631 98.3675 125.019 100.394 125.378C100.867 125.806 101.75 126.831 101.491 127.716C100.984 129.443 99.879 130.063 97.911 129.734C96.2882 129.46 87.1304 126.58 82.5153 125.095C82.1367 124.973 81.7331 125.197 81.6162 125.593C81.4993 125.989 81.7136 126.411 82.0922 126.534C82.5041 126.668 89.9083 129.047 94.4622 130.372C94.7879 130.544 95.5478 131.056 95.7315 131.723C95.8317 132.09 95.751 132.483 95.4782 132.923C94.1783 135.031 90.1087 133.91 85.3962 132.611C84.6085 132.393 83.7929 132.169 82.9662 131.953C82.6739 131.877 82.3677 132 82.1979 132.256C82.1645 132.308 78.6656 137.527 71.4535 139.219V115.968C71.4785 115.954 71.5036 115.939 71.5286 115.922C73.0623 114.757 75.7178 112.928 79.6593 110.837C83.7818 108.65 95.1637 106.518 99.5422 108.193C100.472 108.548 101.051 109.218 101.134 110.033C101.207 110.756 100.862 111.463 100.227 111.883C98.6292 112.934 94.2785 113.982 93.719 114.113C90.7712 112.989 88.1825 112.127 87.5785 111.929C87.2 111.804 86.7963 112.025 86.6766 112.421C86.557 112.817 86.7685 113.24 87.1471 113.365C87.1805 113.377 90.6627 114.524 94.323 115.96C100.87 118.525 102.317 119.786 102.637 120.208C103.453 121.289 103.701 122.267 103.331 122.966C102.952 123.68 101.947 124.052 100.77 123.919C98.9604 123.709 90.0419 120.223 86.685 118.91C84.9898 118.246 84.9815 118.246 84.8729 118.225C84.4804 118.161 84.113 118.438 84.049 118.848L84.0518 118.846ZM84.6502 119.708C84.6502 119.708 84.6196 119.702 84.589 119.693C84.6085 119.699 84.6307 119.702 84.6502 119.708ZM115.428 43.9159C114.189 42.8268 113.897 40.9834 114.732 39.5303C115.45 38.2839 116.842 37.6694 118.278 37.9635C121.68 38.6624 125.437 41.6678 125.476 41.6969C125.479 41.6969 125.482 41.6998 125.488 41.7027C125.524 41.7289 125.56 41.7551 125.599 41.7755C125.602 41.7755 125.604 41.7755 125.607 41.7784C125.643 41.7959 125.68 41.8105 125.719 41.8221C125.727 41.8221 125.732 41.8279 125.741 41.8279C125.78 41.8367 125.819 41.8454 125.858 41.8483C125.866 41.8483 125.874 41.8483 125.883 41.8483C125.894 41.8483 125.905 41.8483 125.916 41.8483C125.938 41.8483 125.961 41.8454 125.986 41.8425C125.997 41.8425 126.005 41.8425 126.016 41.8425C126.058 41.8367 126.1 41.8279 126.142 41.8134C126.147 41.8134 126.153 41.8076 126.158 41.8076C126.192 41.7959 126.225 41.7784 126.259 41.761C126.272 41.7522 126.284 41.7435 126.298 41.7377C126.311 41.7289 126.328 41.7202 126.342 41.7085L140.207 31.1491C141.056 30.5317 142.205 30.6861 142.879 31.5073C143.244 31.9528 143.414 32.5178 143.355 33.1031C143.302 33.6361 143.063 34.1136 142.681 34.4631L134.954 40.0457C134.629 40.2816 134.545 40.7504 134.771 41.0912C134.91 41.3037 135.135 41.4173 135.364 41.4173C135.506 41.4173 135.647 41.3736 135.773 41.2834L142.932 36.1114C143.004 36.0852 143.074 36.0502 143.138 36.0007L143.444 35.7561C143.491 35.7182 143.536 35.6804 143.581 35.6425L146.673 33.4089C147.522 32.7944 148.658 32.9168 149.373 33.6972C149.793 34.1544 150.002 34.7805 149.944 35.4125C149.888 36.0444 149.574 36.6181 149.081 36.9879L147.611 38.0917L139.675 43.9713C139.352 44.2101 139.274 44.6818 139.503 45.0197C139.642 45.2264 139.865 45.3371 140.09 45.3371C140.235 45.3371 140.379 45.2934 140.505 45.1973L148.443 39.3148L148.452 39.3089L150.325 37.9198C151.224 37.253 152.463 37.3403 153.267 38.1237C153.754 38.5984 154.027 39.2682 154.013 39.9642C153.999 40.6602 153.702 41.3183 153.198 41.7726L152.134 42.7249C152.073 42.7802 152.029 42.8414 151.99 42.9113C151.697 43.0365 151.419 43.2025 151.157 43.4151L144.274 49.0122C143.959 49.2685 143.903 49.7402 144.148 50.0693C144.393 50.3984 144.844 50.4566 145.159 50.2004L152.042 44.6032C152.972 43.8461 154.333 44.0091 155.074 44.9701C155.786 45.8904 155.714 47.2038 154.907 48.0337C154.556 48.3599 147.227 55.1889 142.851 59.8483C142.829 59.8716 142.812 59.8978 142.796 59.9211L119.734 56.744C119.734 56.6886 119.728 56.6333 119.714 56.578C118.743 52.2884 119.495 48.9802 119.5 48.9481C119.545 48.7589 119.52 48.5608 119.425 48.3919C118.476 46.6592 117.112 45.3924 115.431 43.913L115.428 43.9159ZM79.2195 60.9695C79.1917 61.0161 79.1694 61.0627 79.1499 61.1122L73.7749 60.521C72.9761 59.4319 70.34 58.7038 68.9566 58.3864V56.2868C72.5196 55.1627 75.1194 53.526 77.0706 51.2429C77.7415 50.4566 78.3316 49.5888 78.8465 48.6336C80.4916 51.4788 82.1924 56.2343 79.2195 60.9695ZM71.9489 67.5306C71.3254 70.0205 70.5906 72.1376 70.2454 72.8947C69.1292 72.522 65.6442 70.268 62.5294 68.0402C63.9546 66.5404 67.4201 62.7576 68.926 59.924C70.7409 60.3696 72.4054 61.0336 72.6281 61.4238C72.8926 61.9305 72.8731 63.8321 71.9489 67.5335V67.5306ZM68.0297 55.0083C68.0297 55.0083 68.0269 55.0083 68.0241 55.0083C66.3512 55.4976 64.5308 55.8558 62.5768 56.1295C62.1843 56.1848 61.9059 56.5634 61.9588 56.974C62.0061 57.3526 62.3151 57.6263 62.6714 57.6263C62.702 57.6263 62.7354 57.6263 62.766 57.6205C64.503 57.3788 66.084 57.073 67.5203 56.6974V59.295C67.5203 59.3445 67.5259 59.3911 67.5342 59.4406C65.9782 62.213 62.4348 66.0104 61.2796 67.2161C59.5956 66.2696 53.6945 62.8595 50.2457 59.6416L50.254 42.7482C50.254 42.7482 50.254 42.7365 50.254 42.7307C50.254 42.7191 50.254 42.7045 50.254 42.6928C50.254 42.6783 50.254 42.6637 50.2512 42.6521C50.2512 42.6463 50.2512 42.6404 50.2512 42.6346C50.2512 42.6288 50.2512 42.6259 50.2485 42.62C50.2485 42.6055 50.2429 42.5909 50.2401 42.5764C50.2401 42.5647 50.2345 42.556 50.2318 42.5443C50.229 42.5298 50.2234 42.5181 50.2206 42.5065C50.2178 42.4948 50.2123 42.4832 50.2095 42.4715C50.2067 42.4599 50.2011 42.4511 50.1956 42.4395C50.19 42.4278 50.1844 42.4162 50.1789 42.4016C50.1733 42.3929 50.1705 42.3842 50.165 42.3754C50.1566 42.3638 50.151 42.3492 50.1427 42.3376C50.1371 42.3288 50.1343 42.323 50.1288 42.3172C50.1204 42.3055 50.1121 42.291 50.1009 42.2793C50.0954 42.2735 50.0898 42.2677 50.0842 42.2589C50.0759 42.2473 50.0647 42.2356 50.0536 42.224C50.048 42.2182 50.0425 42.2123 50.0369 42.2065C50.0258 42.1949 50.0146 42.1861 50.0063 42.1774C49.9979 42.1716 49.9924 42.1657 49.984 42.1599C49.9729 42.1512 49.9618 42.1424 49.9506 42.1337C49.9423 42.1279 49.9339 42.1221 49.9256 42.1162C49.9144 42.1104 49.9033 42.1017 49.8922 42.0959C49.8838 42.09 49.8727 42.0842 49.8643 42.0813C49.8532 42.0755 49.8421 42.0696 49.8309 42.0638C49.8198 42.058 49.8114 42.0551 49.8003 42.0493C49.7892 42.0434 49.778 42.0405 49.7641 42.0347C49.753 42.0318 49.7446 42.0289 49.7335 42.026C49.7196 42.0231 49.7085 42.0201 49.6945 42.0143C49.6834 42.0143 49.675 42.0114 49.6639 42.0085C49.65 42.0085 49.6361 42.0027 49.6222 42.0027C49.611 42.0027 49.6027 42.0027 49.5915 41.9998C49.5776 41.9998 49.5637 41.9998 49.5498 41.9998C49.5442 41.9998 49.5387 41.9998 49.5331 41.9998C49.5331 41.9998 49.522 41.9998 49.5164 41.9998C49.5053 41.9998 49.4913 41.9998 49.4802 41.9998C49.4663 41.9998 49.4524 41.9998 49.4412 42.0027C49.4357 42.0027 49.4301 42.0027 49.4245 42.0027C49.0265 42.0667 48.6229 42.0726 48.2193 42.0172C45.8727 41.7027 44.211 39.4516 44.5116 36.9967C44.6563 35.8085 45.2353 34.7485 46.1427 34.0175C47.0502 33.2837 48.1747 32.9663 49.3104 33.1177C50.0258 33.2138 50.7105 33.4963 51.2867 33.9389C51.3619 33.9972 51.4482 34.0379 51.5428 34.0612C51.5428 34.0612 51.5428 34.0612 51.5456 34.0612C51.5706 34.0671 51.5929 34.0729 51.618 34.0758C51.6347 34.0758 51.6486 34.0758 51.6653 34.0787C51.6736 34.0787 51.682 34.0787 51.6903 34.0787C51.6959 34.0787 51.7015 34.0787 51.707 34.0787C51.7321 34.0787 51.7544 34.0758 51.7766 34.0729C51.7933 34.0729 51.81 34.0729 51.8267 34.0671C51.8601 34.0612 51.8907 34.0525 51.9214 34.0408C51.9325 34.0379 51.9464 34.035 51.9576 34.0292C51.9965 34.0146 52.0327 33.9972 52.0689 33.9739C52.0745 33.9739 52.0772 33.968 52.0828 33.9651C52.119 33.9418 52.1552 33.9127 52.1886 33.8836C52.1997 33.8749 52.2081 33.8632 52.2164 33.8516C52.2387 33.8283 52.261 33.8021 52.2804 33.7758C52.2832 33.7729 52.286 33.77 52.2888 33.7642C52.2971 33.7525 52.2999 33.7438 52.3055 33.7322C52.3222 33.706 52.3361 33.6797 52.35 33.6535C52.3584 33.6361 52.3667 33.6157 52.3723 33.5982C52.3806 33.5749 52.389 33.5487 52.3974 33.5225C52.4029 33.4992 52.4085 33.4788 52.4113 33.4555C52.4113 33.4439 52.4168 33.4293 52.4196 33.4176L52.6924 31.1491C54.048 31.1724 57.2491 31.1025 60.7619 30.0978C66.5767 28.435 70.5516 24.9491 72.308 19.9897C73.9698 20.8342 78.2342 23.5222 79.5035 29.2882C79.6454 30.0861 79.7484 30.9016 79.8124 31.717C80.9954 46.8048 76.3636 52.5563 68.0269 54.9996L68.0297 55.0083ZM48.8233 60.0143C48.8289 60.2094 48.9068 60.4045 49.0543 60.5472C52.4391 63.7972 58.1621 67.1665 60.2748 68.3634C57.9115 71.1911 55.2226 74.1208 54.2818 74.7236C53.1266 73.5995 50.7885 70.8475 48.7426 68.1887C45.6974 64.234 44.7037 62.3644 44.5645 61.8169C44.5895 61.7645 44.609 61.7092 44.6201 61.6509C45.0154 60.9404 45.9646 59.9852 47.3285 58.9252C47.8685 58.5058 48.3918 58.1331 48.8066 57.8506V59.8571C48.8066 59.9124 48.8122 59.9648 48.8233 60.0172V60.0143ZM32.0413 58.3777C28.4255 51.8981 33.2549 43.8956 33.3023 43.814C33.3746 43.6975 33.4136 43.5665 33.4164 43.4296L33.7059 33.2546C33.7504 31.7111 33.9091 30.2347 34.1763 28.8689C35.1617 23.8367 37.4804 19.6781 41.0739 16.5097C44.3752 13.5976 48.6674 11.5707 53.8337 10.4845C54.0953 10.4291 54.3458 10.3825 54.5713 10.3418C58.4683 9.66033 62.0368 9.88457 65.1794 11.0057C65.2768 11.0407 65.3826 11.0523 65.4856 11.0436C65.5607 11.0349 73.0401 10.2952 77.207 15.0711C79.42 17.6047 80.3302 21.2594 79.9238 25.9509C77.4102 20.2955 72.3692 18.3647 72.1215 18.2745C71.9378 18.2075 71.7346 18.2191 71.5592 18.3123C71.3839 18.4026 71.2531 18.5657 71.1946 18.7608C69.7277 23.6852 66.1035 27.0109 60.4195 28.6475C56.0967 29.891 52.1496 29.6377 52.1106 29.6348C51.7321 29.6056 51.3953 29.8969 51.348 30.29L51.1281 32.1188C50.6103 31.8742 50.0564 31.7053 49.4886 31.6296C46.3543 31.2073 43.4817 33.5341 43.0808 36.8103C42.68 40.0865 44.9013 43.0947 48.0328 43.5141C48.2777 43.5461 48.5227 43.5636 48.7676 43.5636C48.7815 43.5636 48.7982 43.5636 48.8122 43.5636L48.8066 56.0654C47.9966 56.578 44.5728 58.8232 43.4037 60.8472L36.8791 62.5799C36.8541 62.5654 36.829 62.5508 36.804 62.5391C34.6578 61.5956 33.0545 60.1978 32.0413 58.3806V58.3777ZM1.88167 122.576L9.61156 90.2541C12.5872 77.8163 21.8146 68.1276 33.6947 64.9737L43.2534 62.4372C43.5986 63.4099 44.6257 65.2038 47.3452 68.7682C49.6834 71.8318 52.4252 75.0497 53.5915 76.0952C53.7696 76.2525 53.9617 76.3194 54.1621 76.3194C54.7884 76.3194 55.4899 75.6817 55.9937 75.2186C56.6506 74.6187 57.5051 73.7364 58.5351 72.6006C59.7459 71.261 60.9233 69.869 61.5301 69.1439C62.3123 69.703 63.8461 70.7864 65.4076 71.8143C66.7214 72.6793 67.8015 73.3374 68.6143 73.7713C69.3992 74.1907 70.0144 74.4528 70.4876 74.4528C70.7771 74.4528 71.0109 74.3537 71.2002 74.1324C71.7513 73.483 72.784 70.1078 73.3101 68.0344C73.9726 65.4076 74.2704 63.4157 74.198 62.079L85.3489 63.3021C94.6459 64.3243 103.016 69.5283 108.313 77.5862L111.202 81.9807L108.385 101.073C108.324 101.483 108.594 101.868 108.987 101.932C109.379 101.996 109.747 101.713 109.808 101.303L116.232 57.7836L147.973 62.1547L140.009 116.924C139.205 122.451 136.135 127.297 131.581 130.22C127.027 133.144 121.507 133.817 116.433 132.064L102.98 127.419C102.994 126.624 102.668 125.905 102.287 125.337C103.319 125.11 104.149 124.536 104.594 123.691C104.981 122.96 105.39 121.411 103.773 119.271C102.841 118.036 99.5088 116.44 96.0989 115.045C97.7273 114.588 99.879 113.892 101.001 113.152C102.1 112.427 102.704 111.169 102.571 109.873C102.429 108.487 101.485 107.328 100.04 106.778C99.1024 106.419 97.9249 106.216 96.6055 106.131C96.6027 102.141 96.2409 89.2872 96.2353 89.1562C96.2242 88.7398 95.8902 88.4194 95.4949 88.4252C95.0969 88.4369 94.7851 88.7834 94.7962 89.1999C94.799 89.328 95.1581 102.072 95.1637 106.087C89.4741 106.087 81.9947 107.91 79.0108 109.492C76.1326 111.018 73.5968 112.576 71.4562 114.131V109.899C71.4562 109.899 71.4562 109.899 71.4562 109.897C71.4562 109.897 71.4562 109.894 71.4562 109.891C71.4562 109.879 71.4562 109.864 71.4562 109.853C71.4562 109.841 71.4562 109.83 71.4562 109.818C71.4562 109.803 71.4535 109.792 71.4507 109.777C71.4507 109.765 71.4479 109.754 71.4451 109.742C71.4451 109.731 71.4395 109.716 71.4368 109.704C71.434 109.693 71.4312 109.681 71.4284 109.669C71.4256 109.658 71.4201 109.646 71.4145 109.632C71.4117 109.62 71.4061 109.611 71.4034 109.599C71.3978 109.588 71.3922 109.576 71.3867 109.565C71.3811 109.556 71.3783 109.544 71.3727 109.535C71.3672 109.524 71.3588 109.512 71.3532 109.5C71.3477 109.492 71.3421 109.483 71.3366 109.474C71.3282 109.463 71.3199 109.451 71.3143 109.442C71.3087 109.433 71.3032 109.425 71.2976 109.419C71.2892 109.407 71.2809 109.399 71.2725 109.39C71.267 109.381 71.2586 109.375 71.2531 109.367C71.2447 109.358 71.2336 109.349 71.2252 109.34C71.2169 109.334 71.2113 109.326 71.2029 109.32C71.1918 109.311 71.1835 109.302 71.1723 109.297C71.164 109.291 71.1556 109.285 71.1473 109.279C71.1361 109.27 71.125 109.265 71.1139 109.259C71.1055 109.253 71.0972 109.247 71.0888 109.241C71.0777 109.235 71.0666 109.23 71.0526 109.224C71.0443 109.218 71.0332 109.215 71.0248 109.209C71.0137 109.203 70.9997 109.201 70.9858 109.195C70.9775 109.192 70.9663 109.186 70.958 109.183C70.9441 109.177 70.9302 109.174 70.9135 109.171C70.9051 109.171 70.8968 109.166 70.8884 109.166C70.8717 109.163 70.8522 109.16 70.8355 109.157C70.8299 109.157 70.8244 109.157 70.8188 109.157C70.7938 109.157 70.7715 109.154 70.7464 109.154H70.7381L32.1248 109.576C32.1387 109.521 32.1443 109.463 32.1443 109.401V91.2879C32.1443 90.8715 31.8214 90.5366 31.4262 90.5366C31.0309 90.5366 30.708 90.8744 30.708 91.2879V109.401C30.708 109.468 30.7164 109.53 30.7331 109.591L22.555 109.681C22.157 109.687 21.8396 110.025 21.8424 110.441C21.8452 110.855 22.1681 111.187 22.5606 111.187H22.5689L70.0255 110.668V142.489L15.9107 141.621C11.4042 141.563 7.24276 139.388 4.49263 135.652C1.74249 131.918 0.793303 127.154 1.88723 122.579L1.88167 122.576Z" fill="black"/>
<path d="M130.795 55.3432C130.945 55.3432 131.098 55.2937 131.229 55.1889C135.377 51.8894 141.617 52.8504 141.681 52.8592C142.074 52.9233 142.441 52.6408 142.502 52.2302C142.564 51.8195 142.294 51.4351 141.904 51.3711C141.626 51.3245 135.004 50.2965 130.361 53.9891C130.043 54.2395 129.982 54.7113 130.224 55.0433C130.366 55.2384 130.581 55.3403 130.798 55.3403L130.795 55.3432Z" fill="black"/>
<path d="M120.878 24.8203H149.123C149.521 24.8203 149.841 24.4824 149.841 24.0689V4.04498C149.841 3.62854 149.518 3.29364 149.123 3.29364H147.976V0.751335C147.976 0.334897 147.653 0 147.258 0H122.351C121.953 0 121.633 0.337809 121.633 0.751335V6.52613H120.878C120.48 6.52613 120.16 6.86394 120.16 7.27746V24.066C120.16 24.4824 120.483 24.8173 120.878 24.8173V24.8203ZM123.069 1.50558H146.537V3.29364H139.049C138.651 3.29364 138.331 3.63145 138.331 4.04498V6.52613H123.069V1.50558ZM121.596 8.03171H139.052C139.45 8.03171 139.77 7.6939 139.77 7.28038V4.79922H148.405V23.3176H121.596V8.03171Z" fill="black"/>
</g>
<defs>
<clipPath id="clip0_2045_209752">
<rect width="157" height="144" fill="white"/>
</clipPath>
</defs>
</svg>
