<svg width="54" height="59" viewBox="0 0 54 59" fill="none" xmlns="http://www.w3.org/2000/svg">
<g clip-path="url(#clip0_1382_42303)">
<path d="M49.8307 45.5924C49.5256 45.5924 49.3222 45.4916 49.1188 45.2899C48.712 44.8865 48.8137 44.2813 49.2205 43.8779L51.5595 41.8608L49.3222 39.8437C48.9154 39.4403 48.9154 38.8352 49.2205 38.4318C49.6273 38.0283 50.2375 38.0283 50.6442 38.3309L53.7968 41.054C54.1019 41.3565 54.2036 41.76 54.1019 42.1634C54.0002 42.3651 53.7968 42.5668 53.5934 42.6677L50.6442 45.2899C50.3392 45.4916 50.0341 45.5924 49.8307 45.5924Z" fill="white"/>
<path d="M27.4576 45.3907H19.5254C18.305 45.3907 17.2881 44.3822 17.2881 43.1719V41.2557C17.2881 40.7514 17.6949 40.2471 18.305 40.2471C18.9152 40.2471 19.322 40.6505 19.322 41.2557V43.1719C19.322 43.2727 19.4237 43.3736 19.5254 43.3736H27.4576C27.5593 43.3736 27.661 43.2727 27.661 43.1719V37.3223C27.661 37.2215 27.5593 37.1206 27.4576 37.1206H19.5254C18.305 37.1206 17.2881 36.1121 17.2881 34.9018V29.0522C17.2881 27.842 18.305 26.8334 19.5254 26.8334H27.4576C28.6779 26.8334 29.6949 27.842 29.6949 29.0522V30.9685C29.6949 31.4728 29.2881 31.977 28.6779 31.977C28.0677 31.977 27.661 31.5736 27.661 30.9685V29.0522C27.661 28.9514 27.5593 28.8505 27.4576 28.8505H19.5254C19.4237 28.8505 19.322 28.9514 19.322 29.0522V34.9018C19.322 35.0027 19.4237 35.1035 19.5254 35.1035H27.4576C28.6779 35.1035 29.6949 36.1121 29.6949 37.3223V43.1719C29.6949 44.3822 28.6779 45.3907 27.4576 45.3907Z" fill="white"/>
<path d="M23.4916 47.1053C22.9831 47.1053 22.4746 46.7018 22.4746 46.0967V26.2283C22.4746 25.7241 22.8814 25.2198 23.4916 25.2198C24.1017 25.2198 24.5085 25.6232 24.5085 26.2283V46.0967C24.5085 46.7018 24 47.1053 23.4916 47.1053Z" fill="white"/>
<path d="M23.4915 59.0061C10.5763 59.0061 0 48.5172 0 35.7087C0 27.1361 4.67797 19.3702 12.2034 15.2352C12.3051 15.1343 12.5085 15.1343 12.7119 15.1343H34.1695C34.3729 15.1343 34.4746 15.1343 34.678 15.2352C39.7627 17.9583 43.6271 22.4967 45.5593 27.842C45.7627 28.3463 45.4576 28.9514 44.9492 29.1531C44.4407 29.3549 43.8305 29.0523 43.6271 28.548C41.8983 23.707 38.4407 19.6728 33.8644 17.1514H13.0169C6.20339 20.8831 2.0339 27.9429 2.0339 35.7087C2.0339 47.4078 11.6949 56.989 23.4915 56.989C31.4237 56.989 38.7458 52.6523 42.5085 45.6933C42.8136 45.189 43.4237 44.9873 43.8305 45.2899C44.339 45.5925 44.5424 46.1976 44.2373 46.601C40.1695 54.266 32.2373 59.0061 23.4915 59.0061Z" fill="white"/>
<path d="M34.2711 17.1514H12.7118C12.2033 17.1514 11.6948 16.748 11.6948 16.1428V10.2933C11.6948 9.789 12.1016 9.28473 12.7118 9.28473H34.1694C34.6779 9.28473 35.1863 9.68815 35.1863 10.2933V16.1428C35.288 16.6471 34.7796 17.1514 34.2711 17.1514ZM13.7287 15.1343H33.1525V11.3018H13.7287V15.1343Z" fill="white"/>
<path d="M34.2711 11.3018H12.7118C12.305 11.3018 11.8982 11.1001 11.7965 10.6967L8.74569 3.33431C8.44061 2.52747 8.5423 1.51892 9.15247 0.913796C9.76264 0.207813 10.5762 -0.0947512 11.4915 0.106958C13.4237 0.510377 16.4745 0.812941 19.7287 0.308668C22.2711 -0.0947512 24.8135 -0.0947512 27.3559 0.308668C30.6101 0.812941 33.6609 0.409522 35.5932 0.106958C36.5084 -0.0947512 37.322 0.207813 37.9321 0.913796C38.5423 1.61978 38.644 2.52747 38.3389 3.33431L35.2881 10.6967C34.983 11.1001 34.6779 11.3018 34.2711 11.3018ZM13.4237 9.28474H33.5593L36.4067 2.52747C36.5084 2.32576 36.4067 2.22491 36.305 2.12405C36.2033 2.12405 36.1016 2.0232 35.8982 2.0232C33.7626 2.42662 30.5084 2.83004 26.9491 2.32576C24.6101 1.92234 22.2711 1.92234 19.9321 2.32576C16.3728 2.93089 13.1186 2.52747 10.983 2.0232C10.7796 2.0232 10.6779 2.12405 10.5762 2.12405C10.4745 2.22491 10.4745 2.32576 10.4745 2.52747L13.4237 9.28474Z" fill="white"/>
<path d="M23.4918 52.2489C14.5426 52.2489 7.32227 45.0882 7.32227 36.213C7.32227 27.3377 14.5426 20.1771 23.4918 20.1771C28.5765 20.1771 33.2545 22.4967 36.3053 26.4301C36.6104 26.8335 36.6104 27.5395 36.1019 27.842C35.6951 28.1446 34.9833 28.1446 34.6782 27.6403C31.9324 24.2113 27.8646 22.1942 23.4918 22.1942C15.6613 22.1942 9.35616 28.548 9.35616 36.213C9.35616 43.8779 15.7629 50.2318 23.4918 50.2318C28.068 50.2318 32.1358 48.1138 34.8816 44.5839C35.1867 44.1805 35.8985 44.0796 36.3053 44.3822C36.7121 44.6848 36.8138 45.3907 36.5087 45.7942C33.4579 49.8283 28.5765 52.2489 23.4918 52.2489Z" fill="white"/>
<path d="M52.9832 42.7685H34.2713C33.7629 42.7685 33.2544 42.3651 33.2544 41.76C33.2544 41.1548 33.6612 40.7514 34.2713 40.7514H52.9832C53.4917 40.7514 54.0002 41.1548 54.0002 41.76C54.0002 42.3651 53.5934 42.7685 52.9832 42.7685Z" fill="white"/>
<path d="M52.9832 33.2882H34.2713C33.7629 33.2882 33.2544 32.8847 33.2544 32.2796C33.2544 31.7753 33.6612 31.2711 34.2713 31.2711H52.9832C53.4917 31.2711 54.0002 31.6745 54.0002 32.2796C54.0002 32.8847 53.5934 33.2882 52.9832 33.2882Z" fill="white"/>
<path d="M37.4239 36.1121C37.2205 36.1121 36.9155 36.0113 36.7121 35.8095L33.5595 33.0865C33.2544 32.7839 33.1527 32.3805 33.2544 31.9771C33.3561 31.7754 33.5595 31.5736 33.7629 31.4728L36.7121 28.8506C37.1188 28.4471 37.729 28.548 38.1358 28.9514C38.5426 29.3548 38.4409 29.96 38.0341 30.3634L35.6951 32.3805L37.9324 34.3976C38.3392 34.801 38.3392 35.4061 38.0341 35.8095C37.9324 36.0113 37.6273 36.1121 37.4239 36.1121Z" fill="white"/>
<path d="M43.932 59.0061H3.05064C2.54217 59.0061 2.03369 58.6027 2.03369 57.9976C2.03369 57.3924 2.44047 56.989 3.05064 56.989H43.932C44.4405 56.989 44.9489 57.3924 44.9489 57.9976C44.9489 58.6027 44.5422 59.0061 43.932 59.0061Z" fill="white"/>
</g>
<defs>
<clipPath id="clip0_1382_42303">
<rect width="54" height="59" fill="white" transform="translate(0 0.00610352)"/>
</clipPath>
</defs>
</svg>
