<svg width="58" height="57" viewBox="0 0 58 57" fill="none" xmlns="http://www.w3.org/2000/svg">
<g clip-path="url(#clip0_1382_42316)">
<path d="M7.36508 3.8385H1.29972C0.595705 3.8385 0 4.27032 0 4.86407V8.91236V43.6198C0 44.1595 0.54155 45.0771 0.920635 45.8328C1.89542 47.668 3.2493 50.205 3.41177 50.5288C3.57423 50.9067 3.95331 51.5544 4.3324 51.5544C4.76564 51.5544 5.14472 50.8527 5.30719 50.4749C5.46966 50.151 6.82353 47.6141 7.79832 45.7788C8.12325 45.2391 8.6648 44.3754 8.6648 43.8896V8.91236V4.86407C8.6648 4.27032 8.06909 3.8385 7.36508 3.8385ZM2.05789 42.8101V9.88396H6.60691V42.8101H2.05789ZM2.05789 5.88964H6.66107V7.8868H2.05789V5.88964ZM4.3324 47.884C3.95331 47.1283 3.35761 46.1027 2.59944 44.6453H6.06536C5.30719 46.1027 4.71148 47.1283 4.3324 47.884Z" fill="white"/>
<path d="M48.3061 23.8641H33.251C32.6553 23.8641 32.1138 23.3783 32.1138 22.7305C32.1138 22.1368 32.6012 21.597 33.251 21.597H48.3061C48.9018 21.597 49.4434 22.0828 49.4434 22.7305C49.4434 23.3783 48.956 23.8641 48.3061 23.8641Z" fill="white"/>
<path d="M48.198 28.776H35.3091C34.7134 28.776 34.1719 28.2902 34.1719 27.6425C34.1719 26.9947 34.6593 26.5089 35.3091 26.5089H48.198C48.7937 26.5089 49.3353 26.9947 49.3353 27.6425C49.3353 28.2902 48.7937 28.776 48.198 28.776Z" fill="white"/>
<path d="M48.3063 33.634H43.1075C42.5118 33.634 41.9702 33.1482 41.9702 32.5004C41.9702 31.9067 42.4576 31.3669 43.1075 31.3669H48.3063C48.9021 31.3669 49.4436 31.8527 49.4436 32.5004C49.4436 33.1482 48.9562 33.634 48.3063 33.634Z" fill="white"/>
<path d="M48.3063 41.7305H43.1075C42.5118 41.7305 41.9702 41.2448 41.9702 40.597C41.9702 40.0033 42.4576 39.4635 43.1075 39.4635H48.3063C48.9021 39.4635 49.4436 39.9493 49.4436 40.597C49.4436 41.2448 48.9562 41.7305 48.3063 41.7305Z" fill="white"/>
<path d="M54.2634 13.5004L41.0496 0.329967C40.833 0.114058 40.5622 0.00610352 40.2373 0.00610352H14.4053C13.8096 0.00610352 13.2681 0.491899 13.2681 1.13963V51.9862C13.2681 52.58 13.7555 53.1197 14.4053 53.1197H44.6238L42.2951 50.9067H15.5426V2.21917H39.1V14.3641C39.1 14.9578 39.5874 15.4976 40.2373 15.4976H52.4221V40.8669L54.6425 45.0232V14.526C54.6425 14.472 54.6425 14.418 54.6425 14.3641C54.6966 13.9862 54.5342 13.6624 54.2634 13.5004ZM41.3745 3.83849L50.8516 13.2845H41.3745V3.83849Z" fill="white"/>
<path d="M30.002 23.8641H26.4278C25.8321 23.8641 25.2905 23.3783 25.2905 22.7305C25.2905 22.1368 25.7779 21.597 26.4278 21.597H30.002C30.5977 21.597 31.1393 22.0828 31.1393 22.7305C31.0851 23.3783 30.5977 23.8641 30.002 23.8641Z" fill="white"/>
<path d="M23.2323 23.8641H21.2828C20.6871 23.8641 20.1455 23.3783 20.1455 22.7305C20.1455 22.1368 20.6329 21.597 21.2828 21.597H23.2323C23.828 21.597 24.3696 22.0828 24.3696 22.7305C24.3154 23.3783 23.828 23.8641 23.2323 23.8641Z" fill="white"/>
<path d="M31.8974 28.776H29.9478C29.3521 28.776 28.8105 28.2902 28.8105 27.6425C28.8105 27.0487 29.2979 26.5089 29.9478 26.5089H31.8974C32.4931 26.5089 33.0346 26.9947 33.0346 27.6425C33.0346 28.2902 32.5472 28.776 31.8974 28.776Z" fill="white"/>
<path d="M48.3066 37.6282H46.357C45.7613 37.6282 45.2197 37.1425 45.2197 36.4947C45.2197 35.847 45.7071 35.3612 46.357 35.3612H48.3066C48.9023 35.3612 49.4438 35.847 49.4438 36.4947C49.4438 37.1425 48.9023 37.6282 48.3066 37.6282Z" fill="white"/>
<path d="M42.9452 37.6282H40.9957C40.3999 37.6282 39.8584 37.1425 39.8584 36.4947C39.8584 35.847 40.3458 35.3612 40.9957 35.3612H42.9452C43.5409 35.3612 44.0825 35.847 44.0825 36.4947C44.0825 37.1425 43.5951 37.6282 42.9452 37.6282Z" fill="white"/>
<path d="M37.3127 37.6282H27.3482C26.7525 37.6282 26.2109 37.1425 26.2109 36.4947C26.2109 35.847 26.6983 35.3612 27.3482 35.3612H37.3127C37.9084 35.3612 38.45 35.847 38.45 36.4947C38.45 37.1425 37.9084 37.6282 37.3127 37.6282Z" fill="white"/>
<path d="M39.5874 33.634H25.128C24.5323 33.634 23.9907 33.1482 23.9907 32.5004C23.9907 31.9067 24.4781 31.3669 25.128 31.3669H39.6415C40.2372 31.3669 40.7788 31.8527 40.7788 32.5004C40.7246 33.1482 40.2372 33.634 39.5874 33.634Z" fill="white"/>
<path d="M54.6427 57.0061C54.4803 57.0061 54.2636 56.9521 54.1012 56.8981L51.0143 55.2788L47.9275 56.8981C47.5484 57.1141 47.1152 57.0601 46.7361 56.7902C46.4112 56.5203 46.1945 56.1425 46.3029 55.7106L46.8986 52.3101L44.4074 49.8811C44.0825 49.5572 43.9742 49.1254 44.1367 48.7476C44.245 48.3697 44.624 48.0459 45.0573 47.9919L48.5232 47.5061L50.0395 44.3754C50.202 43.9976 50.6353 43.7277 51.0685 43.7277C51.5017 43.7277 51.8808 43.9436 52.0974 44.3754L53.6138 47.5061L57.0797 47.9919C57.5129 48.0459 57.8379 48.3697 58.0003 48.7476C58.1086 49.1254 58.0003 49.6112 57.7296 49.8811L55.2384 52.3101L55.78 55.5487C55.8341 55.6567 55.8341 55.7646 55.8341 55.9266C55.78 56.5203 55.2926 57.0061 54.6427 57.0061ZM51.0685 52.9038C51.231 52.9038 51.4476 52.9578 51.61 53.0118L53.1805 53.8214L52.8556 52.0402C52.8015 51.6624 52.9098 51.2845 53.1805 51.0686L54.4803 49.8271L52.6931 49.5572C52.3141 49.5033 51.9891 49.2873 51.8267 48.9635L51.0143 47.3442L50.202 48.9635C50.0395 49.2873 49.7146 49.5033 49.3355 49.5572L47.6567 49.8271L48.9564 51.0686C49.2272 51.3385 49.3355 51.7163 49.2814 52.0402L48.9564 53.8214L50.5269 53.0118C50.6894 52.9578 50.8519 52.9038 51.0685 52.9038Z" fill="white"/>
</g>
<defs>
<clipPath id="clip0_1382_42316">
<rect width="58" height="57" fill="white" transform="translate(0 0.00610352)"/>
</clipPath>
</defs>
</svg>
