<svg width="125" height="124" viewBox="0 0 125 124" fill="none" xmlns="http://www.w3.org/2000/svg">
<g clip-path="url(#clip0_2418_109248)">
<path d="M31.8284 111.299L22.6916 94.8001C20.3948 90.6584 19.1551 86.0141 19.0825 81.2787C19.0099 76.5433 20.1066 71.8631 22.2753 67.6529L29.7907 52.929H54.0238L60.597 64.936C61.2317 66.0917 61.4151 67.4418 61.1115 68.7249C60.8079 70.008 60.039 71.1329 58.9537 71.8816C57.996 72.57 56.8465 72.9403 55.6671 72.9403C54.4877 72.9403 53.3381 72.57 52.3805 71.8816L48.7872 69.1866L45.9607 76.8992L57.661 97.4075L58.5812 112.394L31.8284 111.299Z" fill="white"/>
<path d="M32.1208 110.62L23.006 94.1209C20.8221 90.1798 19.6418 85.7618 19.5692 81.2566C19.4966 76.7515 20.5339 72.2977 22.5897 68.2883L29.7106 54.3751H52.1471L58.3259 65.6152C58.6431 66.1846 58.8091 66.8258 58.8079 67.4776C58.8056 68.1135 58.6513 68.7396 58.3578 69.3037C58.0643 69.8678 57.6402 70.3535 57.1208 70.7204C56.4199 71.2077 55.5862 71.4678 54.7325 71.4653C53.8441 71.4524 52.9807 71.1696 52.2566 70.6547L48.6633 67.9597C48.481 67.8359 48.2731 67.7549 48.0552 67.7224C47.8373 67.69 47.6148 67.707 47.4044 67.7723C47.1939 67.8375 47.0009 67.9493 46.8395 68.0993C46.6781 68.2493 46.5526 68.4337 46.4722 68.6389L43.6458 76.5267C43.5766 76.7163 43.5506 76.9188 43.5696 77.1197C43.5885 77.3206 43.652 77.5147 43.7553 77.688L55.3022 97.9114L56.2005 112.57C56.2209 112.962 56.3962 113.33 56.688 113.593C56.9797 113.856 57.364 113.992 57.7562 113.972C58.1484 113.952 58.5165 113.776 58.7795 113.485C59.0425 113.193 59.1788 112.809 59.1585 112.416L58.2382 97.4075C58.221 97.1934 58.1614 96.9849 58.063 96.794L46.5599 76.8992L48.488 71.4873L50.4819 72.9772C51.709 73.8936 53.201 74.3858 54.7325 74.3795C56.2054 74.3795 57.643 73.9283 58.8517 73.0867C59.7417 72.456 60.4683 71.622 60.9713 70.6541C61.4743 69.6862 61.7392 68.6122 61.7439 67.5214C61.7472 66.3942 61.4604 65.285 60.9113 64.3006L54.3381 52.2936C54.2107 52.0636 54.0231 51.8728 53.7953 51.7415C53.5675 51.6102 53.3083 51.5435 53.0454 51.5486H28.7904C28.5198 51.5462 28.2539 51.6186 28.0219 51.7578C27.7899 51.8969 27.6009 52.0975 27.4757 52.3374L19.9604 66.9956C17.6856 71.4133 16.5355 76.3239 16.612 81.2924C16.6884 86.2608 17.989 91.1337 20.3986 95.4794L29.5134 111.956C29.7067 112.291 30.0229 112.538 30.395 112.645C30.7671 112.751 31.1661 112.708 31.5073 112.526C31.8399 112.353 32.0908 112.056 32.2056 111.699C32.3205 111.342 32.29 110.954 32.1208 110.62Z" fill="#111111"/>
<path d="M11.1744 39.4541H1.46801C1.08244 39.4541 0.712325 39.6057 0.437641 39.8763C0.162957 40.1469 0.00575483 40.5147 0 40.9002C0.00285564 41.0901 0.0430945 41.2776 0.118419 41.452C0.193743 41.6263 0.302676 41.7841 0.438998 41.9164C0.57532 42.0486 0.736359 42.1527 0.912919 42.2227C1.08948 42.2927 1.2781 42.3273 1.46801 42.3244H11.1744C11.3643 42.3273 11.5529 42.2927 11.7295 42.2227C11.9061 42.1527 12.0671 42.0486 12.2034 41.9164C12.3397 41.7841 12.4487 41.6263 12.524 41.452C12.5993 41.2776 12.6396 41.0901 12.6424 40.9002C12.6367 40.5147 12.4795 40.1469 12.2048 39.8763C11.9301 39.6057 11.56 39.4541 11.1744 39.4541Z" fill="#111111"/>
<path d="M81.836 39.4541H72.1296C71.7441 39.4541 71.3739 39.6057 71.0993 39.8763C70.8246 40.1469 70.6674 40.5147 70.6616 40.9002C70.6645 41.0901 70.7047 41.2776 70.78 41.452C70.8554 41.6263 70.9643 41.7841 71.1006 41.9164C71.2369 42.0486 71.398 42.1527 71.5745 42.2227C71.7511 42.2927 71.9397 42.3273 72.1296 42.3244H81.836C82.0259 42.3273 82.2146 42.2927 82.3911 42.2227C82.5677 42.1527 82.7287 42.0486 82.865 41.9164C83.0014 41.7841 83.1103 41.6263 83.1856 41.452C83.2609 41.2776 83.3012 41.0901 83.304 40.9002C83.2983 40.5147 83.1411 40.1469 82.8664 39.8763C82.5917 39.6057 82.2216 39.4541 81.836 39.4541Z" fill="#111111"/>
<path d="M43.1201 11.1674V1.6582C43.1201 1.26886 42.9654 0.895461 42.6901 0.620156C42.4148 0.34485 42.0414 0.190186 41.6521 0.190186C41.2628 0.190186 40.8894 0.34485 40.6141 0.620156C40.3387 0.895461 40.1841 1.26886 40.1841 1.6582V11.1674C40.1841 11.5567 40.3387 11.9301 40.6141 12.2054C40.8894 12.4807 41.2628 12.6354 41.6521 12.6354C42.0414 12.6354 42.4148 12.4807 42.6901 12.2054C42.9654 11.9301 43.1201 11.5567 43.1201 11.1674Z" fill="#111111"/>
<path d="M43.1201 80.1419V70.6765C43.1201 70.2872 42.9654 69.9138 42.6901 69.6385C42.4148 69.3632 42.0414 69.2085 41.6521 69.2085C41.2628 69.2085 40.8894 69.3632 40.6141 69.6385C40.3387 69.9138 40.1841 70.2872 40.1841 70.6765V80.1419C40.1841 80.5312 40.3387 80.9046 40.6141 81.1799C40.8894 81.4552 41.2628 81.6099 41.6521 81.6099C42.0414 81.6099 42.4148 81.4552 42.6901 81.1799C42.9654 80.9046 43.1201 80.5312 43.1201 80.1419Z" fill="#111111"/>
<path d="M21.1439 18.8141L14.2859 12.2409C14.0076 11.9692 13.6341 11.8171 13.2452 11.8171C12.8562 11.8171 12.4827 11.9692 12.2044 12.2409C12.0658 12.372 11.9554 12.5299 11.88 12.7051C11.8045 12.8803 11.7656 13.069 11.7656 13.2597C11.7656 13.4505 11.8045 13.6392 11.88 13.8144C11.9554 13.9896 12.0658 14.1475 12.2044 14.2786L19.0405 20.8518C19.1817 21.0003 19.3517 21.1185 19.54 21.1993C19.7283 21.2801 19.9311 21.3218 20.136 21.3218C20.341 21.3218 20.5438 21.2801 20.7321 21.1993C20.9204 21.1185 21.0903 21.0003 21.2316 20.8518C21.3674 20.7191 21.4753 20.5606 21.549 20.3857C21.6227 20.2107 21.6606 20.0228 21.6606 19.8329C21.6606 19.6431 21.6227 19.4551 21.549 19.2802C21.4753 19.1052 21.3674 18.9467 21.2316 18.8141" fill="#111111"/>
<path d="M71.1 67.6311L64.242 60.9264C63.9586 60.6647 63.587 60.5193 63.2013 60.5193C62.8155 60.5193 62.4439 60.6647 62.1605 60.9264C62.0247 61.0591 61.9168 61.2176 61.8431 61.3925C61.7694 61.5675 61.7314 61.7554 61.7314 61.9453C61.7314 62.1351 61.7694 62.3231 61.8431 62.498C61.9168 62.673 62.0247 62.8315 62.1605 62.9641L69.0185 69.6688C69.1613 69.8145 69.3318 69.9303 69.5199 70.0094C69.708 70.0884 69.91 70.1291 70.1141 70.1291C70.3181 70.1291 70.5201 70.0884 70.7082 70.0094C70.8963 69.9303 71.0668 69.8145 71.2096 69.6688C71.3454 69.5361 71.4533 69.3777 71.527 69.2027C71.6007 69.0277 71.6387 68.8398 71.6387 68.6499C71.6387 68.4601 71.6007 68.2721 71.527 68.0972C71.4533 67.9222 71.3454 67.7637 71.2096 67.6311" fill="#111111"/>
<path d="M64.242 20.852L71.1 14.2788C71.2359 14.1461 71.3438 13.9877 71.4175 13.8127C71.4911 13.6377 71.5291 13.4498 71.5291 13.26C71.5291 13.0701 71.4911 12.8822 71.4175 12.7072C71.3438 12.5322 71.2359 12.3738 71.1 12.2411C70.9605 12.0897 70.7911 11.9689 70.6026 11.8863C70.414 11.8037 70.2104 11.761 70.0045 11.761C69.7986 11.761 69.595 11.8037 69.4064 11.8863C69.2179 11.9689 69.0485 12.0897 68.909 12.2411L62.1605 18.8143C62.0247 18.947 61.9168 19.1054 61.8431 19.2804C61.7694 19.4554 61.7314 19.6433 61.7314 19.8331C61.7314 20.023 61.7694 20.2109 61.8431 20.3859C61.9168 20.5609 62.0247 20.7193 62.1605 20.852C62.4388 21.1237 62.8123 21.2757 63.2013 21.2757C63.5902 21.2757 63.9637 21.1237 64.242 20.852Z" fill="#111111"/>
<path d="M14.2855 69.6687L21.1435 62.9641C21.2793 62.8314 21.3872 62.673 21.4609 62.498C21.5346 62.323 21.5726 62.1351 21.5726 61.9453C21.5726 61.7554 21.5346 61.5675 21.4609 61.3925C21.3872 61.2175 21.2793 61.0591 21.1435 60.9264C21.0007 60.7807 20.8302 60.6649 20.6421 60.5858C20.454 60.5068 20.252 60.4661 20.048 60.4661C19.8439 60.4661 19.6419 60.5068 19.4538 60.5858C19.2657 60.6649 19.0952 60.7807 18.9524 60.9264L12.204 67.6311C12.0682 67.7637 11.9602 67.9222 11.8865 68.0971C11.8129 68.2721 11.7749 68.4601 11.7749 68.6499C11.7749 68.8398 11.8129 69.0277 11.8865 69.2027C11.9602 69.3776 12.0682 69.5361 12.204 69.6687C12.4873 69.9305 12.8589 70.0759 13.2447 70.0759C13.6305 70.0759 14.0021 69.9305 14.2855 69.6687Z" fill="#111111"/>
<path d="M63.5409 40.9001C63.4716 35.1527 61.1262 29.6673 57.019 25.6464C52.9118 21.6254 47.3779 19.397 41.6303 19.4496C35.8828 19.397 30.3488 21.6254 26.2416 25.6464C22.1344 29.6673 19.7891 35.1527 19.7197 40.9001C19.7948 46.6437 22.1427 52.1235 26.2493 56.1397C30.3559 60.1559 35.8865 62.3814 41.6303 62.3287C47.3741 62.3814 52.9048 60.1559 57.0114 56.1397C61.118 52.1235 63.4658 46.6437 63.5409 40.9001Z" fill="#6099FF"/>
<path d="M63.5406 40.9001H65.0086C64.9335 34.7692 62.4302 28.9183 58.0477 24.6302C53.6652 20.3422 47.7611 17.967 41.63 18.0254C35.4951 17.9611 29.5854 20.3337 25.1982 24.6224C20.8109 28.9111 18.3046 34.7654 18.2295 40.9001C18.3104 47.031 20.8192 52.8797 25.2058 57.1637C29.5925 61.4476 35.4989 63.8172 41.63 63.7529C47.7687 63.8289 53.6864 61.4645 58.0825 57.1793C62.4787 52.8941 64.9935 47.0387 65.0744 40.9001H62.1383C62.1277 43.5301 61.5911 46.1315 60.5601 48.551C59.5291 50.9705 58.0245 53.1593 56.1348 54.9886C52.2546 58.7552 47.0596 60.862 41.6519 60.862C36.2442 60.862 31.0492 58.7552 27.169 54.9886C25.2774 53.1508 23.7737 50.9521 22.7468 48.5227C21.72 46.0934 21.1909 43.4828 21.1909 40.8453C21.1909 38.2079 21.72 35.5973 22.7468 33.1679C23.7737 30.7386 25.2774 28.5399 27.169 26.702C31.0572 22.9508 36.2492 20.8544 41.6519 20.8544C47.0547 20.8544 52.2467 22.9508 56.1348 26.702C58.0255 28.5443 59.5301 30.7449 60.5608 33.1751C61.5916 35.6053 62.1279 38.2165 62.1383 40.8563L63.5406 40.9001Z" fill="#111111"/>
<path d="M41.6301 26.1761C38.7329 26.2408 35.9192 27.159 33.5414 28.8157C31.1637 30.4724 29.3278 32.7939 28.2636 35.4894C27.1994 38.1849 26.9543 41.1345 27.559 43.9687C28.1637 46.8029 29.5913 49.3956 31.6629 51.422C33.7346 53.4484 36.3582 54.8185 39.205 55.3605C42.0519 55.9025 44.9953 55.5923 47.6667 54.4689C50.338 53.3455 52.6185 51.4587 54.2223 49.045C55.8261 46.6313 56.682 43.798 56.6827 40.9C56.6627 38.9444 56.2573 37.0119 55.4897 35.2132C54.7221 33.4144 53.6074 31.7846 52.2093 30.417C50.8112 29.0495 49.1572 27.971 47.3419 27.2433C45.5267 26.5156 43.5857 26.1529 41.6301 26.1761Z" fill="#EBECF4"/>
<path d="M34.0708 76.0227V61.4084C34.1714 59.6023 34.9597 57.9034 36.2738 56.6604C37.588 55.4175 39.3281 54.7249 41.137 54.7249C42.9458 54.7249 44.686 55.4175 46.0001 56.6604C47.3142 57.9034 48.1025 59.6023 48.2031 61.4084V76.0227C48.2031 76.0227 59.4871 87.6353 55.0393 103.017" fill="white"/>
<path d="M36.561 76.0226V61.4082C36.5679 60.6849 36.7209 59.9705 37.0108 59.3078C37.3007 58.6452 37.7216 58.0479 38.2481 57.552C39.3099 56.5278 40.7277 55.9555 42.2029 55.9555C43.6782 55.9555 45.096 56.5278 46.1578 57.552C46.6754 58.0524 47.0874 58.6515 47.3697 59.3138C47.6519 59.9761 47.7986 60.6883 47.8011 61.4082V76.0226C47.7985 76.2048 47.832 76.3858 47.8997 76.555C47.9674 76.7243 48.0679 76.8784 48.1955 77.0086C49.6694 78.6526 50.9487 80.4613 52.0079 82.3986C54.3495 86.4759 55.6091 91.0845 55.667 95.786C55.6626 98.1054 55.3381 100.413 54.7029 102.644C54.6499 102.827 54.6341 103.018 54.6563 103.207C54.6785 103.396 54.7384 103.579 54.8323 103.744C54.9263 103.91 55.0524 104.054 55.2033 104.17C55.3542 104.286 55.5268 104.371 55.7108 104.419C56.0855 104.521 56.4853 104.473 56.825 104.284C57.1647 104.096 57.4174 103.783 57.5294 103.411C58.252 100.934 58.6208 98.3665 58.6249 95.786C58.5537 90.5345 57.1354 85.3892 54.5057 80.8429C53.3427 78.7559 51.9461 76.808 50.3427 75.0366L49.2034 76.0226H50.6714V61.4082C50.5605 59.2196 49.6129 57.1573 48.0246 55.6474C46.4363 54.1376 44.3286 53.2957 42.1372 53.2957C39.9458 53.2957 37.8381 54.1376 36.2498 55.6474C34.6615 57.1573 33.714 59.2196 33.603 61.4082V76.0226C33.6471 76.3838 33.8218 76.7165 34.0943 76.9577C34.3667 77.199 34.7181 77.3322 35.082 77.3322C35.4459 77.3322 35.7972 77.199 36.0697 76.9577C36.3422 76.7165 36.5169 76.3838 36.561 76.0226Z" fill="#111111"/>
<path d="M25.9639 122.342V110.116H62.3136V122.342" fill="#6099FF"/>
<path d="M27.454 122.342V111.562H60.8458V122.342C60.8458 122.731 61.0005 123.104 61.2758 123.38C61.5511 123.655 61.9245 123.81 62.3138 123.81C62.7031 123.81 63.0765 123.655 63.3518 123.38C63.6271 123.104 63.7818 122.731 63.7818 122.342V110.116C63.7799 109.738 63.6305 109.376 63.3655 109.108C63.0796 108.842 62.7042 108.693 62.3138 108.691H25.9641C25.58 108.692 25.2111 108.841 24.9343 109.108C24.7961 109.237 24.6859 109.393 24.6106 109.566C24.5352 109.74 24.4962 109.927 24.4961 110.116V122.342C24.4961 122.533 24.5342 122.723 24.6082 122.9C24.6823 123.077 24.7908 123.238 24.9274 123.372C25.064 123.507 25.226 123.613 25.404 123.684C25.582 123.755 25.7724 123.791 25.9641 123.788C26.1569 123.791 26.3484 123.756 26.5276 123.685C26.7068 123.613 26.8703 123.508 27.0086 123.373C27.147 123.239 27.2575 123.079 27.3339 122.902C27.4104 122.725 27.4512 122.535 27.454 122.342Z" fill="#111111"/>
<path d="M123.532 54.7695H79.207V116.886H109.97L123.532 103.63V54.7695Z" fill="white"/>
<path d="M123.532 54.7694V53.3452H79.2069C78.8228 53.3461 78.4539 53.4952 78.1771 53.7615C78.039 53.8906 77.9288 54.0466 77.8534 54.22C77.778 54.3933 77.7391 54.5804 77.7389 54.7694V116.886C77.736 117.079 77.7735 117.27 77.849 117.447C77.9245 117.625 78.0362 117.784 78.1771 117.916C78.4539 118.182 78.8228 118.331 79.2069 118.332H109.882C110.266 118.334 110.636 118.184 110.912 117.916L124.496 104.769C124.762 104.493 124.912 104.124 124.912 103.74V54.7694C124.911 54.392 124.761 54.0303 124.496 53.7615C124.21 53.4957 123.835 53.3471 123.444 53.3452V54.7694H121.976V102.973L109.268 115.396H80.6969V56.2374H123.532V54.7694Z" fill="#111111"/>
<path d="M110.101 117.017L123.401 103.521L109.838 103.762L110.101 117.017Z" fill="#D6D9E6"/>
<path d="M110.101 117.017L111.152 118.025L124.474 104.507C124.672 104.301 124.804 104.042 124.855 103.761C124.906 103.48 124.872 103.191 124.759 102.929C124.638 102.667 124.443 102.446 124.198 102.294C123.952 102.142 123.667 102.065 123.379 102.074L109.816 102.337C109.623 102.334 109.432 102.37 109.254 102.443C109.076 102.516 108.914 102.625 108.779 102.762C108.644 102.899 108.538 103.062 108.467 103.242C108.397 103.421 108.364 103.613 108.37 103.805L108.633 116.952C108.632 117.242 108.722 117.525 108.891 117.762C109.06 117.998 109.3 118.174 109.575 118.266C109.841 118.374 110.133 118.401 110.414 118.342C110.695 118.284 110.952 118.143 111.152 117.938L110.101 116.93H111.569L111.328 105.12L119.873 104.945L109.049 115.9L110.101 116.886V117.017Z" fill="#111111"/>
<path d="M112.051 63.5117H90.7098C90.3262 63.5117 89.9584 63.6641 89.6872 63.9353C89.416 64.2065 89.2637 64.5743 89.2637 64.9578C89.2637 65.3413 89.416 65.7092 89.6872 65.9804C89.9584 66.2516 90.3262 66.4039 90.7098 66.4039H112.051C112.434 66.4039 112.802 66.2516 113.073 65.9804C113.344 65.7092 113.497 65.3413 113.497 64.9578C113.497 64.5743 113.344 64.2065 113.073 63.9353C112.802 63.6641 112.434 63.5117 112.051 63.5117Z" fill="#111111"/>
<path d="M112.051 74.7082H90.7097C90.5064 74.683 90.3 74.7014 90.1042 74.762C89.9085 74.8226 89.7279 74.9241 89.5744 75.0598C89.4208 75.1955 89.2979 75.3623 89.2137 75.5491C89.1295 75.7359 89.0859 75.9385 89.0859 76.1434C89.0859 76.3483 89.1295 76.5508 89.2137 76.7376C89.2979 76.9244 89.4208 77.0912 89.5744 77.2269C89.7279 77.3626 89.9085 77.4641 90.1042 77.5247C90.3 77.5854 90.5064 77.6037 90.7097 77.5785H112.051C112.254 77.6037 112.46 77.5854 112.656 77.5247C112.852 77.4641 113.032 77.3626 113.186 77.2269C113.34 77.0912 113.462 76.9244 113.547 76.7376C113.631 76.5508 113.674 76.3483 113.674 76.1434C113.674 75.9385 113.631 75.7359 113.547 75.5491C113.462 75.3623 113.34 75.1955 113.186 75.0598C113.032 74.9241 112.852 74.8226 112.656 74.762C112.46 74.7014 112.254 74.683 112.051 74.7082Z" fill="#111111"/>
<path d="M112.051 85.9265H90.7097C90.5064 85.9013 90.3 85.9196 90.1042 85.9803C89.9085 86.0409 89.7279 86.1424 89.5744 86.2781C89.4208 86.4138 89.2979 86.5806 89.2137 86.7674C89.1295 86.9542 89.0859 87.1567 89.0859 87.3616C89.0859 87.5665 89.1295 87.7691 89.2137 87.9559C89.2979 88.1427 89.4208 88.3095 89.5744 88.4452C89.7279 88.5809 89.9085 88.6824 90.1042 88.743C90.3 88.8036 90.5064 88.8219 90.7097 88.7968H112.051C112.254 88.8219 112.46 88.8036 112.656 88.743C112.852 88.6824 113.032 88.5809 113.186 88.4452C113.34 88.3095 113.462 88.1427 113.547 87.9559C113.631 87.7691 113.674 87.5665 113.674 87.3616C113.674 87.1567 113.631 86.9542 113.547 86.7674C113.462 86.5806 113.34 86.4138 113.186 86.2781C113.032 86.1424 112.852 86.0409 112.656 85.9803C112.46 85.9196 112.254 85.9013 112.051 85.9265Z" fill="#111111"/>
<path d="M57.2169 41.3858V41.2237C57.1808 41.1192 57.1808 41.0039 57.2169 40.8993L57.4394 40.6561H57.7855C57.9245 40.6282 58.0669 40.6282 58.2059 40.6561C58.4682 40.6364 58.7291 40.7124 58.9477 40.8723C59.0433 40.9262 59.1237 41.0075 59.1803 41.1074C59.2369 41.2074 59.2676 41.3223 59.2691 41.4399H57.1921L57.2169 41.3858ZM57.2169 39.4129C56.9127 39.5198 56.6281 39.6845 56.3762 39.8994C56.1435 40.0762 55.9493 40.3069 55.8075 40.575C55.6817 40.8235 55.6137 41.1019 55.6097 41.3858C55.585 41.7457 55.585 42.107 55.6097 42.4669C55.6237 42.7734 55.7088 43.071 55.8569 43.3317C55.9904 43.6137 56.1858 43.8552 56.4256 44.0344C56.6983 44.2315 56.9991 44.3777 57.3158 44.4668C57.6945 44.5788 58.0855 44.6334 58.4779 44.6289C58.8767 44.6299 59.2746 44.5846 59.6647 44.4938C59.9384 44.4057 60.2035 44.288 60.4559 44.1425C60.5246 44.0993 60.5842 44.041 60.6311 43.9712C60.6779 43.9014 60.7109 43.8216 60.7279 43.7371C60.7732 43.5972 60.7732 43.4446 60.7279 43.3047C60.6901 43.233 60.6362 43.173 60.5713 43.1305C60.5064 43.0879 60.4327 43.0642 60.357 43.0614C60.2024 43.0231 60.0419 43.0231 59.8872 43.0614L59.3433 43.2776C59.1058 43.3191 58.8637 43.3191 58.6262 43.2776C58.29 43.3009 57.9548 43.2163 57.6619 43.0344C57.5537 42.9598 57.4649 42.856 57.4043 42.7328C57.3436 42.6097 57.3131 42.4715 57.3158 42.3317H60.1839C60.332 42.3066 60.4745 42.2516 60.6043 42.1696C60.713 42.0814 60.8053 41.9713 60.8763 41.8453C60.9601 41.6606 61.0025 41.4568 60.9999 41.2507C61.0026 40.9536 60.9252 40.6622 60.7774 40.4129C60.6456 40.1377 60.4599 39.8978 60.2334 39.7102C59.9705 39.5289 59.6881 39.3836 59.3927 39.2778C59.0729 39.1672 58.7391 39.1125 58.4037 39.1156C58.0357 39.1108 57.6691 39.1654 57.3158 39.2778M51.2332 40.6021C51.4502 40.4638 51.6995 40.398 51.9503 40.4129C52.2118 40.4024 52.4701 40.4777 52.6921 40.6291C52.8638 40.7988 52.9773 41.0277 53.0135 41.2777C53.0258 41.4667 53.0258 41.6563 53.0135 41.8453C53.0135 42.0615 53.0135 42.2506 53.0135 42.4398C53.0051 42.5629 52.972 42.6825 52.9164 42.7899C52.8608 42.8974 52.7842 42.9901 52.6921 43.0614C52.4674 43.2034 52.2092 43.2692 51.9503 43.2506C51.693 43.2606 51.4402 43.1748 51.2332 43.0074C51.0524 42.8457 50.9369 42.6127 50.9118 42.3588V41.2507C50.9183 41.1234 50.9505 40.9992 51.0061 40.887C51.0617 40.7749 51.1392 40.6776 51.2332 40.6021ZM54.5465 40.0615C54.5716 39.9552 54.5716 39.8436 54.5465 39.7372C54.5081 39.6337 54.4382 39.5479 54.3487 39.494C54.2757 39.4243 54.192 39.3694 54.1014 39.3318H53.8047C53.5782 39.3265 53.358 39.4131 53.1866 39.5751C52.7884 39.3571 52.3457 39.2547 51.9008 39.2778C51.5804 39.2378 51.2569 39.2378 50.9365 39.2778C50.6479 39.3685 50.3729 39.5051 50.1206 39.6832C49.8754 39.8522 49.6717 40.0842 49.5272 40.3588C49.381 40.6614 49.2887 40.9916 49.2552 41.3318C49.2552 41.4939 49.2552 41.6831 49.2552 41.8453C49.2552 42.0074 49.2552 42.1696 49.2552 42.3588C49.2662 42.6998 49.3509 43.0332 49.5024 43.3317C49.647 43.6063 49.8507 43.8383 50.0959 44.0073C50.3482 44.1854 50.6231 44.322 50.9118 44.4127C51.2404 44.454 51.5722 44.454 51.9008 44.4127H52.4943C52.6766 44.3836 52.8479 44.2993 52.9888 44.1695V44.5208C52.9941 44.6567 52.9725 44.7922 52.9256 44.9181C52.8787 45.044 52.8074 45.1574 52.7168 45.2505C52.4463 45.4457 52.1255 45.5405 51.8019 45.5208C51.6132 45.549 51.4219 45.549 51.2332 45.5208L50.7635 45.4667H50.4915H50.2195H49.9722C49.8969 45.5193 49.8369 45.5943 49.7992 45.6829C49.7858 45.7543 49.7858 45.8278 49.7992 45.8991C49.7872 45.9797 49.7872 46.0618 49.7992 46.1424C49.7898 46.2231 49.7898 46.3049 49.7992 46.3856C49.853 46.4624 49.9202 46.5267 49.997 46.5748C50.223 46.7079 50.4641 46.8079 50.714 46.8721C51.0625 46.9617 51.4192 47.0071 51.7772 47.0072C52.1532 47.0102 52.5277 46.9556 52.8899 46.8451C53.208 46.7751 53.5105 46.6373 53.78 46.4397C54.0202 46.2496 54.2152 45.9994 54.3487 45.71C54.4834 45.3974 54.551 45.0554 54.5465 44.71V40.0615ZM46.387 42.7641C46.4159 42.8699 46.4159 42.9827 46.387 43.0885C46.3087 43.1923 46.2171 43.2833 46.115 43.3587C45.9941 43.4405 45.8597 43.4956 45.7194 43.5209C45.572 43.5466 45.4218 43.5466 45.2744 43.5209C45.0976 43.5288 44.9235 43.4717 44.7798 43.3587C44.7319 43.3168 44.6935 43.2632 44.6677 43.2022C44.642 43.1412 44.6296 43.0745 44.6315 43.0074C44.629 42.9268 44.646 42.8469 44.6807 42.7757C44.7154 42.7046 44.7667 42.6446 44.8293 42.602C45.0903 42.543 45.3595 42.543 45.6205 42.602H46.4859L46.387 42.7641ZM47.9942 41.548C47.9958 41.2666 47.9365 40.9887 47.8211 40.7372C47.7191 40.4647 47.5578 40.2235 47.3513 40.0345C47.0981 39.8282 46.8135 39.6727 46.5106 39.5751C46.1112 39.4366 45.6932 39.3727 45.2744 39.3859C44.9788 39.346 44.6798 39.346 44.3842 39.3859C44.1231 39.4218 43.8711 39.5137 43.6425 39.6562C43.5094 39.719 43.4032 39.835 43.3458 39.9805C43.309 40.0552 43.2897 40.1388 43.2897 40.2237C43.2897 40.3086 43.309 40.3922 43.3458 40.4669C43.3671 40.5576 43.4148 40.6382 43.4817 40.6967C43.5486 40.7552 43.631 40.7884 43.7166 40.7912C43.8799 40.8269 44.0479 40.8269 44.2112 40.7912H44.582H45.2002C45.5014 40.7635 45.8013 40.8599 46.0409 41.0615C46.1287 41.1227 46.2016 41.2064 46.2533 41.3053C46.305 41.4041 46.3339 41.5153 46.3376 41.629H45.5463C44.8474 41.5744 44.1477 41.7236 43.5188 42.0615C43.3024 42.1983 43.128 42.4024 43.018 42.6479C42.9079 42.8933 42.8671 43.1689 42.9007 43.4398C42.9065 43.6361 42.9486 43.8292 43.0243 44.0073C43.1157 44.1883 43.2325 44.3525 43.3705 44.4938C43.5674 44.6391 43.7844 44.7486 44.0133 44.8181C44.3335 44.9248 44.668 44.9705 45.0024 44.9532H45.3238H45.7194H46.115L46.4859 44.7641C46.5739 44.8652 46.6824 44.9423 46.8027 44.9892C46.9229 45.0362 47.0515 45.0516 47.1782 45.0343C47.379 45.0501 47.5788 44.9931 47.7469 44.8722C47.8206 44.8079 47.8793 44.7253 47.918 44.6313C47.9567 44.5373 47.9743 44.4346 47.9695 44.3316L47.9942 41.548ZM38.6973 41.548V41.3858C38.6722 41.2795 38.6722 41.1679 38.6973 41.0615C38.7681 40.9673 38.8515 40.8853 38.9446 40.8183H39.266C39.6663 40.7089 40.0895 40.7667 40.4529 40.9804C40.5422 41.0399 40.6163 41.1231 40.6682 41.2224C40.7201 41.3216 40.7481 41.4337 40.7496 41.548H38.6726H38.6973ZM38.6973 39.5751C38.3854 39.6817 38.0927 39.8462 37.8319 40.0615C37.6066 40.2394 37.4207 40.4703 37.288 40.7372C37.1544 40.9836 37.078 41.2619 37.0654 41.548V42.629C37.0795 42.9355 37.1646 43.2331 37.3127 43.4938C37.4632 43.771 37.6654 44.0104 37.9061 44.1965C38.1698 44.3937 38.4625 44.5399 38.7715 44.6289C39.1502 44.741 39.5413 44.7955 39.9336 44.7911C40.3325 44.7921 40.7303 44.7468 41.1204 44.656C41.3958 44.573 41.6614 44.4551 41.9117 44.3046C41.9865 44.2705 42.0513 44.2147 42.0993 44.1433C42.1472 44.0719 42.1764 43.9875 42.1837 43.8992C42.231 43.7597 42.231 43.6063 42.1837 43.4668C42.1459 43.3951 42.092 43.3352 42.0271 43.2926C41.9622 43.2501 41.8884 43.2263 41.8128 43.2236C41.6584 43.1823 41.4973 43.1823 41.343 43.2236L40.7743 43.4398C40.5368 43.4812 40.2948 43.4812 40.0572 43.4398C39.7292 43.4593 39.4029 43.3748 39.1177 43.1966C39.0094 43.122 38.9207 43.0181 38.86 42.895C38.7994 42.7719 38.7689 42.6337 38.7715 42.4939H41.6397C41.78 42.4686 41.9144 42.4135 42.0353 42.3317C42.1577 42.2528 42.2598 42.1412 42.332 42.0074C42.3741 41.8119 42.3741 41.6084 42.332 41.4128C42.3435 41.1183 42.2747 40.8267 42.1342 40.575C41.9927 40.2991 41.7988 40.0595 41.5655 39.8724C41.3141 39.6858 41.0393 39.5402 40.7496 39.4399C40.4147 39.3172 40.0642 39.2534 39.7111 39.2508C39.3512 39.2458 38.9927 39.3004 38.6479 39.4129M34.3703 43.7641C34.3421 43.8883 34.3421 44.0182 34.3703 44.1425C34.4052 44.2402 34.4654 44.3247 34.5434 44.3857C34.6253 44.4003 34.7088 44.4003 34.7907 44.3857H35.0874H35.4088C35.4907 44.4003 35.5742 44.4003 35.6561 44.3857C35.7347 44.3181 35.8017 44.2358 35.8539 44.1425C35.8812 44.0181 35.8812 43.8885 35.8539 43.7641V37.3589C35.8822 37.2439 35.8822 37.1227 35.8539 37.0076C35.802 36.9062 35.7352 36.8149 35.6561 36.7374C35.5742 36.7227 35.4907 36.7227 35.4088 36.7374H35.0874H34.7907C34.7088 36.7227 34.6253 36.7227 34.5434 36.7374C34.4645 36.8088 34.4047 36.9021 34.3703 37.0076C34.342 37.1227 34.342 37.2439 34.3703 37.3589V43.7641ZM31.6505 38.7373C31.8469 38.8839 32.0804 38.9595 32.3181 38.9535C32.5632 38.9565 32.8038 38.8814 33.0104 38.7373C33.0958 38.6512 33.164 38.5468 33.2106 38.4305C33.2573 38.3142 33.2813 38.1886 33.2813 38.0616C33.2813 37.9347 33.2573 37.8091 33.2106 37.6928C33.164 37.5765 33.0958 37.472 33.0104 37.386C32.8038 37.2419 32.5632 37.1668 32.3181 37.1698C32.0804 37.1638 31.8469 37.2394 31.6505 37.386C31.5651 37.472 31.4969 37.5765 31.4503 37.6928C31.4037 37.8091 31.3796 37.9347 31.3796 38.0616C31.3796 38.1886 31.4037 38.3142 31.4503 38.4305C31.4969 38.5468 31.5651 38.6512 31.6505 38.7373ZM31.6505 43.7641C31.6222 43.8883 31.6222 44.0182 31.6505 44.1425C31.694 44.2345 31.7526 44.317 31.8236 44.3857H32.0956H32.3923H32.689H32.961C33.0319 44.317 33.0906 44.2345 33.1341 44.1425C33.1623 44.0182 33.1623 43.8883 33.1341 43.7641V40.0615C33.1592 39.9552 33.1592 39.8436 33.1341 39.7372C33.0969 39.6409 33.0372 39.557 32.961 39.494C32.8789 39.4243 32.7871 39.3695 32.689 39.3318H32.0956C31.9975 39.3695 31.9057 39.4243 31.8236 39.494C31.7474 39.557 31.6877 39.6409 31.6505 39.7372C31.6254 39.8436 31.6254 39.9552 31.6505 40.0615V43.7641ZM28.6587 43.7641C28.6304 43.8792 28.6304 44.0004 28.6587 44.1154C28.7106 44.2168 28.7774 44.3081 28.8565 44.3857H29.1285H29.4252H29.7219H29.9939C30.0652 44.307 30.1238 44.2156 30.167 44.1154C30.1953 44.0004 30.1953 43.8792 30.167 43.7641V37.3589C30.1738 37.2479 30.1574 37.1365 30.1188 37.0335C30.0802 36.9304 30.0206 36.8384 29.9444 36.7644C29.7702 36.6336 29.5622 36.5673 29.351 36.5752C29.1213 36.5513 28.8901 36.5981 28.6834 36.7103C28.4887 36.8546 28.3209 37.038 28.1889 37.2508L26.5818 39.9534L25.024 37.2508C24.9477 37.1288 24.8651 37.0115 24.7768 36.8995L24.5295 36.6833H24.2081H23.8619C23.6507 36.6754 23.4427 36.7417 23.2685 36.8725C23.1847 36.9407 23.118 37.031 23.0748 37.1349C23.0316 37.2389 23.0131 37.3532 23.0213 37.4671V43.8181C22.9929 43.9332 22.9929 44.0544 23.0213 44.1695C23.0645 44.2697 23.123 44.3611 23.1943 44.4398H23.4663H23.7878C23.9908 44.4437 24.1898 44.3775 24.3564 44.2506C24.4441 44.1799 24.5131 44.0853 24.5565 43.9761C24.6 43.867 24.6162 43.7472 24.6037 43.629V39.4129L25.9142 41.6831C25.9393 41.7467 25.9765 41.8037 26.0234 41.8504C26.0703 41.897 26.1258 41.9321 26.1861 41.9534C26.2921 41.9782 26.4016 41.9782 26.5076 41.9534C26.6218 41.9788 26.7395 41.9788 26.8537 41.9534C26.9715 41.9025 27.0682 41.8064 27.1257 41.6831C27.3483 41.3588 27.5461 40.9804 27.7686 40.575L28.4362 39.467L28.6587 43.7641Z" fill="#111111"/>
</g>
<defs>
<clipPath id="clip0_2418_109248">
<rect width="125" height="123.576" fill="white" transform="translate(0 0.212158)"/>
</clipPath>
</defs>
</svg>
