<svg width="239" height="1208" viewBox="0 0 239 1208" fill="none" xmlns="http://www.w3.org/2000/svg">
<rect width="236" height="1208" transform="translate(2)" fill="white"/>
<path d="M119.5 128L239 247L1.04033e-05 247L119.5 128Z" fill="url(#paint0_linear_1406_8673)"/>
<path d="M193.5 309L233.5 309L233.5 805L196.114 805" stroke="#114493"/>
<path d="M186.845 309L195.595 314L195.595 304L186.845 309Z" fill="#114493"/>
<path d="M45.8447 805L5.84473 805L5.84477 309L43.2304 309" stroke="#114493"/>
<path d="M52.5 805L43.75 800L43.75 810L52.5 805Z" fill="#114493"/>
<rect width="14" height="152" transform="translate(0.0830078 492)" fill="white"/>
<path d="M5.7002 496.766C5.68457 498.617 6.85645 500.391 9.0752 501.109L8.16895 502.484C6.60645 501.953 5.48926 500.891 4.87207 499.531C4.24707 501.031 3.08301 502.203 1.43457 502.781L0.46582 501.406C2.78613 500.648 3.9502 498.758 3.9502 496.75L3.9502 495.141H5.7002V496.766ZM2.73145 508.109V503.625H4.5127V506.703H12.3408V508.109H2.73145ZM10.0439 504.641V494.266H11.7783V498.438H13.7471V499.906H11.7783V504.641H10.0439ZM9.02832 514.625V516H0.65332L0.65332 514.625H3.98145V513.203H5.71582L5.71582 514.625H9.02832ZM1.37207 519.125C1.37207 517.578 2.80176 516.547 4.84082 516.547C6.87988 516.547 8.28613 517.578 8.29395 519.125C8.28613 520.672 6.87988 521.703 4.84082 521.703C2.80176 521.703 1.37207 520.672 1.37207 519.125ZM2.37207 524.156V522.766H11.7783V527.391H10.0439V524.156H2.37207ZM3.05957 519.125C3.05176 519.922 3.77051 520.367 4.84082 520.359C5.91113 520.367 6.6377 519.922 6.6377 519.125C6.6377 518.328 5.91113 517.859 4.84082 517.859C3.77051 517.859 3.05176 518.328 3.05957 519.125ZM10.0439 522.109V513.266H11.7783V517.016H13.7471V518.438H11.7783V522.109H10.0439ZM8.55957 533.562V534.938H0.668945L0.668945 533.562H3.8252V532.156H5.55957V533.562H8.55957ZM1.40332 538C1.39551 536.477 2.73926 535.445 4.66895 535.438C6.59082 535.445 7.97363 536.477 7.98145 538C7.97363 539.531 6.59082 540.547 4.66895 540.547C2.73926 540.547 1.39551 539.531 1.40332 538ZM3.02832 538C3.02051 538.789 3.66895 539.281 4.66895 539.281C5.66895 539.281 6.35645 538.789 6.35645 538C6.35645 537.219 5.66895 536.75 4.66895 536.75C3.66895 536.75 3.02051 537.219 3.02832 538ZM3.05957 546.219V541.203H4.79395V542.391H10.7471V541.203H12.4658V546.219H3.05957ZM4.79395 544.859H10.7471V543.703H4.79395V544.859ZM8.6377 539.547V538.156H10.7314V536.781H8.65332L8.65332 535.375H10.7314V532.266H12.4658L12.4658 540.656H10.7314V539.547H8.6377ZM7.3877 552.109V556.359H2.93457V558.094C5.20801 558.094 6.49707 558.031 7.99707 557.75L8.16895 559.156C6.48145 559.445 5.02051 559.484 2.24707 559.484H1.21582L1.21582 555.062H5.65332V553.484H1.18457V552.109H7.3877ZM2.80957 562.031L2.80957 560.641H12.4658L12.4658 565.391H10.7314L10.7314 562.031H2.80957ZM8.23145 557.641V556.25H10.7314V554.672H8.23145V553.281H10.7314V551.281H12.4658V559.969H10.7314V557.641H8.23145ZM5.7002 574.281C5.69238 576.461 7.00488 578.945 9.23145 579.984L8.2627 581.359C6.66895 580.609 5.48926 579.094 4.85645 577.328C4.21582 579.266 2.98145 580.922 1.35645 581.703L0.34082 580.344C2.59082 579.273 3.95801 576.633 3.96582 574.281V573.094H0.887695L0.887695 571.656H8.65332V573.094H5.7002V574.281ZM9.96582 584.391V570.266H11.7002V575.766H13.8721V577.219H11.7002V584.391H9.96582ZM12.4814 589.281L12.4814 599.969H10.7314V598.734H7.96582V597.516H10.7314L10.7314 589.281H12.4814ZM0.575195 595.625C3.17676 595.609 6.68457 595.586 9.68457 595.203L9.77832 596.453C8.61426 596.648 7.41113 596.773 6.21582 596.859V599.578H4.48145V596.953C3.16113 597.008 1.90332 597.016 0.793945 597.016L0.575195 595.625ZM1.65332 592.297C1.65332 590.805 3.09082 589.789 5.18457 589.797C7.23926 589.789 8.68457 590.805 8.7002 592.297C8.68457 593.812 7.23926 594.773 5.18457 594.781C3.09082 594.773 1.65332 593.812 1.65332 592.297ZM2.4502 603.109V598.938H4.18457L4.18457 601.703H12.8096V603.109H2.4502ZM3.29395 592.297C3.29395 593.062 4.05176 593.508 5.18457 593.516C6.2627 593.508 7.03613 593.062 7.04395 592.297C7.03613 591.531 6.2627 591.07 5.18457 591.078C4.05176 591.07 3.29395 591.531 3.29395 592.297ZM6.99707 617.094C10.0674 617.102 12.0049 618.07 12.0127 619.75C12.0049 621.391 10.0674 622.375 6.99707 622.375C3.95801 622.375 1.99707 621.391 1.99707 619.75C1.99707 618.07 3.95801 617.102 6.99707 617.094ZM0.668945 616.078V614.672H5.6377V612.109H7.35645V614.672H13.4814V616.078H0.668945ZM2.1377 610.312V608.938H11.9189V610.109C11.9268 611.227 11.9268 612.414 11.5283 613.859L9.80957 613.703C10.1611 612.336 10.1846 611.336 10.1846 610.312H2.1377ZM3.74707 619.75C3.73145 620.578 4.95801 621.031 6.99707 621.031C9.04395 621.031 10.2783 620.578 10.2939 619.75C10.2783 618.891 9.04395 618.406 6.99707 618.406C4.95801 618.406 3.73145 618.891 3.74707 619.75ZM3.93457 635.312V636.938H10.2002V635.312H11.9189V641.219H2.23145L2.23145 635.312H3.93457ZM0.637695 634.266V632.875H9.90332C10.2002 631.383 10.2314 630.258 10.2314 629.266H2.23145V627.875H11.9658V628.969C11.9736 630.047 11.9736 631.219 11.6221 632.875H13.5439V634.266H0.637695ZM3.93457 639.812H10.2002V638.281H3.93457V639.812Z" fill="#114493"/>
<rect width="14" height="76" transform="translate(224.917 530)" fill="white"/>
<path d="M232.831 533.438C232.823 535.211 234.815 537.016 237.831 537.406L237.144 538.812C234.745 538.453 232.839 537.273 231.917 535.68C230.995 537.273 229.097 538.453 226.722 538.812L226.034 537.406C229.019 537.016 231.003 535.227 231.003 533.438V532.719H232.831V533.438ZM225.472 541.469V540.031H238.347V541.469H232.737V546.391H231.019V541.469H225.472ZM237.237 560.281V565.391H235.487V561.688H227.597V560.281H237.237ZM225.722 555.469C225.722 553.484 227.347 552.062 229.534 552.078C231.714 552.062 233.339 553.484 233.331 555.469C233.339 557.484 231.714 558.883 229.534 558.891C227.347 558.883 225.722 557.484 225.722 555.469ZM227.425 555.469C227.417 556.672 228.3 557.414 229.534 557.406C230.745 557.414 231.628 556.672 231.628 555.469C231.628 554.289 230.745 553.555 229.534 553.547C228.3 553.555 227.417 554.289 227.425 555.469ZM235.487 559.594V551.266H237.237V559.594H235.487ZM230.55 573.281C230.542 574.836 231.69 576.32 233.909 576.922L233.112 578.297C231.495 577.852 230.347 576.898 229.706 575.688C229.089 577.055 227.917 578.125 226.253 578.641L225.409 577.281C227.636 576.648 228.815 575.008 228.815 573.281V573.219H225.862V571.844H228.815V570.203H230.565V571.844H233.503V573.219H230.55V573.281ZM227.237 581.75C227.237 580.078 229.05 579.125 232.019 579.125C234.964 579.125 236.745 580.078 236.753 581.75C236.745 583.406 234.964 584.359 232.019 584.359C229.05 584.359 227.237 583.406 227.237 581.75ZM228.972 581.75C228.972 582.594 230.058 583.031 232.019 583.031C233.948 583.031 235.034 582.594 235.034 581.75C235.034 580.891 233.948 580.469 232.019 580.469C230.058 580.469 228.972 580.891 228.972 581.75ZM234.878 578.828V570.266H236.612V573.719H238.581V575.141H236.612V578.828H234.878ZM238.315 595.375V596.656H232.753V597.688H236.737V601H228.706V601.969H237.128V603.266H227.003V599.812H235.034V598.938H226.987V597.688H231.034V596.656H225.503V595.375H238.315ZM226.065 593.609C228.854 593.469 230.495 592.719 230.854 591.719H226.737V590.422H231.034V589.234H232.753V590.422H237.081V591.719H232.933C233.276 592.719 234.917 593.469 237.737 593.609L237.222 594.906C234.683 594.75 232.784 594.062 231.894 592.922C231.003 594.062 229.112 594.75 226.55 594.906L226.065 593.609Z" fill="#114493"/>
<path d="M119.5 986L239 867L-1.04033e-05 867L119.5 986Z" fill="url(#paint1_linear_1406_8673)"/>
<rect x="7" y="20" width="230" height="138" rx="5" fill="#F6F8FA"/>
<path d="M56.5742 73.6211V89.6172H54.4297V81.6016H53.0762V88.8789H50.9492V84.2998L49.6836 85.9785C48.1982 85.1963 47.2402 83.8691 46.6689 82.2432C46.1416 84.1152 45.2012 85.6445 43.6719 86.5586L42.2832 84.8359C44.7178 83.4648 45.5264 80.6348 45.5352 77.5762V77.0664H42.8281V75.2734H50.1582V77.0664H47.7148V77.5762C47.7148 80.3623 48.541 83.0166 50.9492 84.2646V73.8496H53.0762V79.7734H54.4297V73.6211H56.5742ZM71.6562 73.6211V83.1133H69.4238V79.334H66.9277V77.5234H69.4238V73.6211H71.6562ZM58.0684 81.3555C60.6875 80.4766 61.8828 78.3848 61.9355 76.3809H58.7188V74.5879H67.4023V76.3809H64.2207C64.2646 78.2441 65.4072 80.125 67.8945 80.9512L66.7871 82.709C65.0293 82.1377 63.8076 80.9775 63.1133 79.5449C62.4102 81.1709 61.127 82.4805 59.2285 83.1309L58.0684 81.3555ZM60.6875 86.5586C60.6875 84.6162 62.7793 83.4736 66.1895 83.4648C69.6084 83.4736 71.7002 84.6162 71.709 86.5586C71.7002 88.501 69.6084 89.6348 66.1895 89.6348C62.7793 89.6348 60.6875 88.501 60.6875 86.5586ZM62.9199 86.5586C62.9199 87.4727 64.0713 87.9297 66.1895 87.9297C68.3164 87.9297 69.4678 87.4727 69.4766 86.5586C69.4678 85.6357 68.3164 85.1787 66.1895 85.1875C64.0713 85.1787 62.9199 85.6357 62.9199 86.5586ZM79.9355 77.9805C79.9268 80.5645 81.2627 83.333 83.9434 84.4492L82.7305 86.207C80.8496 85.4072 79.5488 83.8164 78.8281 81.8828C78.1074 83.9834 76.7803 85.7412 74.8906 86.6113L73.6074 84.8359C76.2617 83.6494 77.6328 80.6875 77.6328 77.9805V76.9961H74.2402V75.168H83.2754V76.9961H79.9355V77.9805ZM84.8574 89.6172V73.6211H87.125V89.6172H84.8574ZM102.84 73.6387V85.7148H100.59V84.4492H97.5312V82.9199H100.59V73.6387H102.84ZM89.2344 80.7227C92.1611 80.7051 96.1162 80.6611 99.5 80.248L99.623 81.8477C98.3574 82.0586 97.0479 82.208 95.7559 82.3047V85.3457H93.5059V87.543H103.191V89.3359H91.2734V84.5547H93.5059V82.4365C92.0732 82.4893 90.7109 82.498 89.498 82.498L89.2344 80.7227ZM90.4121 77.0488C90.4121 75.3438 92.0557 74.1748 94.4375 74.1836C96.7578 74.1748 98.4189 75.3438 98.4277 77.0488C98.4189 78.7627 96.7578 79.8701 94.4375 79.8613C92.0557 79.8701 90.4121 78.7627 90.4121 77.0488ZM92.5391 77.0488C92.5303 77.8223 93.2949 78.2529 94.4375 78.2441C95.5098 78.2529 96.2832 77.8223 96.3008 77.0488C96.2832 76.2578 95.5098 75.8184 94.4375 75.8184C93.2949 75.8184 92.5303 76.2578 92.5391 77.0488ZM110.732 77.2422C110.724 80.1074 111.945 82.999 114.512 84.2383L113.158 86.0312C111.444 85.1787 110.284 83.5967 109.625 81.6719C108.922 83.7373 107.691 85.4336 105.881 86.3301L104.492 84.5195C107.208 83.2715 108.482 80.2129 108.482 77.2422V74.8516H110.732V77.2422ZM115.215 89.6172V73.6211H117.465V79.791H119.82V81.6895H117.465V89.6172H115.215ZM124.865 74.3066C126.904 74.2891 128.53 75.458 128.97 77.1719H131.65V73.6211H133.883V82.2168H131.65V78.9648H128.979C128.565 80.7227 126.922 81.918 124.865 81.918C122.404 81.918 120.594 80.3184 120.611 78.0859C120.594 75.8975 122.404 74.2891 124.865 74.3066ZM122.738 78.0859C122.729 79.2812 123.608 80.0371 124.865 80.0371C126.078 80.0371 126.948 79.2812 126.957 78.0859C126.948 76.8906 126.078 76.1611 124.865 76.1699C123.608 76.1611 122.729 76.8906 122.738 78.0859ZM123.213 89.4414V82.9199H125.428V84.4668H131.65V82.9199H133.883V89.4414H123.213ZM125.428 87.6309H131.65V86.1895H125.428V87.6309ZM152.727 73.6211V79.7559H154.994V81.6016H152.727V89.582H150.477V73.6211H152.727ZM139.93 85.0996C143.718 83.2012 145.757 80.6523 146.179 77.084H140.844V75.2559H148.455C148.438 80.0371 146.574 84.1768 141.195 86.8223L139.93 85.0996ZM169.145 73.6211V82.8672H166.912V79.1406H164.381V77.3125H166.912V73.6211H169.145ZM155.574 81.127C158.167 80.292 159.362 78.2529 159.424 76.2402H156.207V74.4297H164.891V76.2402H161.709C161.735 78.0684 162.887 79.9932 165.383 80.8281L164.275 82.6035C162.5 82.0234 161.278 80.8545 160.584 79.4131C159.881 81.0127 158.598 82.2871 156.717 82.8848L155.574 81.127ZM158.387 89.4414V83.5352H169.145V89.4414H158.387ZM160.637 87.6484H166.947V85.293H160.637V87.6484ZM185.844 82.8496V84.6074H179.586V89.6172H177.371V84.6074H171.201V82.8496H185.844ZM172.924 81.3027V74.2363H175.139V76.082H181.854V74.2363H184.104V81.3027H172.924ZM175.139 79.5098H181.854V77.8398H175.139V79.5098ZM191.188 74.7461C192.629 74.7461 193.824 75.5283 194.554 76.9082H198.061V73.6211H200.275V89.6523H198.061V83.6582H194.721C194.009 85.2402 192.734 86.1543 191.188 86.1543C188.762 86.1543 187.021 83.957 187.039 80.4414C187.021 76.9521 188.762 74.7461 191.188 74.7461ZM189.184 80.4414C189.175 82.8232 189.992 84.124 191.188 84.1152C192.392 84.124 193.191 82.8232 193.191 80.4414C193.191 78.0684 192.392 76.7676 191.188 76.7676C189.992 76.7676 189.175 78.0684 189.184 80.4414ZM195.178 78.7188C195.283 79.2461 195.336 79.8262 195.336 80.4414C195.336 80.9424 195.301 81.417 195.23 81.8652H198.061V78.7188H195.178Z" fill="#111111"/>
<line x1="27" y1="103.5" x2="217" y2="103.5" stroke="#114493" stroke-dasharray="3 3"/>
<path d="M104.844 119.621V129.113H102.611V125.334H100.115V123.523H102.611V119.621H104.844ZM91.2559 127.355C93.875 126.477 95.0703 124.385 95.123 122.381H91.9062V120.588H100.59V122.381H97.4082C97.4521 124.244 98.5947 126.125 101.082 126.951L99.9746 128.709C98.2168 128.138 96.9951 126.978 96.3008 125.545C95.5977 127.171 94.3145 128.48 92.416 129.131L91.2559 127.355ZM93.875 132.559C93.875 130.616 95.9668 129.474 99.377 129.465C102.796 129.474 104.888 130.616 104.896 132.559C104.888 134.501 102.796 135.635 99.377 135.635C95.9668 135.635 93.875 134.501 93.875 132.559ZM96.1074 132.559C96.1074 133.473 97.2588 133.93 99.377 133.93C101.504 133.93 102.655 133.473 102.664 132.559C102.655 131.636 101.504 131.179 99.377 131.188C97.2588 131.179 96.1074 131.636 96.1074 132.559ZM121.561 131.926V133.754H106.918V131.926H113.088V128.973H108.465V120.641H110.715V123.119H117.693V120.641H119.926V128.973H115.32V131.926H121.561ZM110.715 127.18H117.693V124.912H110.715V127.18ZM129.682 129.588C133.18 129.588 135.377 130.695 135.395 132.611C135.377 134.501 133.18 135.626 129.682 135.617C126.21 135.626 123.978 134.501 123.986 132.611C123.978 130.695 126.21 129.588 129.682 129.588ZM122.51 128.568V126.758H127.959V123.963H130.174V126.758H137.029V128.568H122.51ZM124.145 122.1V120.342H135.307V121.643C135.315 122.917 135.315 124.288 134.85 125.932L132.652 125.721C133.013 124.271 133.057 123.189 133.074 122.1H124.145ZM126.219 132.611C126.21 133.473 127.476 133.912 129.682 133.912C131.888 133.912 133.162 133.473 133.162 132.611C133.162 131.724 131.888 131.249 129.682 131.258C127.476 131.249 126.21 131.724 126.219 132.611ZM144.254 123.242C144.245 126.178 145.581 129.122 148.297 130.273L146.979 132.066C145.15 131.24 143.885 129.641 143.155 127.663C142.435 129.825 141.125 131.565 139.174 132.453L137.82 130.59C140.615 129.412 141.978 126.345 141.986 123.242V120.852H144.254V123.242ZM149.158 135.652V119.621H151.426V135.652H149.158Z" fill="#111111"/>
<path d="M36.9993 0L37 19.8H22L36.9993 0Z" fill="#244CB3"/>
<path d="M37 0H217V45C217 47.7614 214.761 50 212 50H42C39.2386 50 37 47.7614 37 45V0Z" fill="#3377FF"/>
<path d="M217.001 0L217 19.8H232L217.001 0Z" fill="#244CB3"/>
<path d="M88.4973 15.4258V34.9766H85.8977V25.1582H84.007V34.0312H81.4934V15.748H84.007V22.9668H85.8977V15.4258H88.4973ZM72.1477 30.5508V17.6816H79.4309V19.8945H74.8977V28.252C76.7883 28.2197 78.4641 28.1123 80.3547 27.7793L80.548 30.0137C78.1633 30.4648 76.0793 30.54 73.5012 30.5508H72.1477ZM101.984 17.166V19.3359H90.3827V17.166H94.83V15.3184H97.5585V17.166H101.984ZM91.328 23.5684C91.328 21.4199 93.3476 19.9697 96.1835 19.959C99.0302 19.9697 100.996 21.4199 100.996 23.5684C100.996 25.7168 99.0302 27.167 96.1835 27.1777C93.3476 27.167 91.328 25.7168 91.328 23.5684ZM92.7245 30.7012V28.5098H105.894V34.9766H103.144V30.7012H92.7245ZM94.0136 23.5684C94.0029 24.5674 94.873 25.083 96.1835 25.0723C97.5048 25.083 98.3964 24.5674 98.3964 23.5684C98.3964 22.5586 97.5048 22.0215 96.1835 22.0215C94.873 22.0215 94.0029 22.5586 94.0136 23.5684ZM103.144 27.6934V15.4258H105.894V20.4961H108.537V22.7305H105.894V27.6934H103.144ZM125.548 15.4473V29.498H122.798V15.4473H125.548ZM109.477 21.6133C109.477 18.7451 111.819 16.6826 114.827 16.6934C117.824 16.6826 120.166 18.7451 120.176 21.6133C120.166 24.5244 117.824 26.5762 114.827 26.5762C111.819 26.5762 109.477 24.5244 109.477 21.6133ZM112.163 21.6133C112.141 23.2461 113.291 24.1914 114.827 24.1914C116.309 24.1914 117.459 23.2461 117.469 21.6133C117.459 20.0234 116.309 19.0674 114.827 19.0781C113.291 19.0674 112.141 20.0234 112.163 21.6133ZM112.442 34.6328V28.0801H115.214V32.4414H126.063V34.6328H112.442ZM144.771 15.4258V30.0566H142.171V15.4258H144.771ZM127.734 25.4375C130.398 24.1592 131.472 21.6025 131.472 19.293V16.7363H134.136V19.293C134.125 21.5488 135.103 23.7939 137.617 24.9434L136.091 27.0488C134.523 26.3184 133.47 25.083 132.826 23.5898C132.138 25.2979 130.967 26.7158 129.238 27.5215L127.734 25.4375ZM131.515 34.6328V28.3379H134.265V32.4414H145.265V34.6328H131.515ZM135.833 22.1289V19.8945H138.218V15.7266H140.818V29.4766H138.218V22.1289H135.833ZM157.785 17.0371V19.2715H150.545V22.4941H156.969V24.6426H150.545V28.3379C153.542 28.3164 155.927 28.1982 158.666 27.7793L158.924 29.9922C155.852 30.4434 153.048 30.5293 149.514 30.5293H147.838V17.0371H157.785ZM160.428 34.9766V15.4258H163.199V34.9766H160.428ZM183.454 30.3789V32.6133H165.557V30.3789H183.454ZM167.448 27.1133V16.6719H170.198V19.916H178.727V16.6719H181.456V27.1133H167.448ZM170.198 24.9648H178.727V22.043H170.198V24.9648Z" fill="white"/>
<path fill-rule="evenodd" clip-rule="evenodd" d="M121.5 186.75L121.5 208L122.5 208L122.5 186.75L121.5 186.75Z" fill="#114493"/>
<path d="M122 178L117 186.75L127 186.75L122 178Z" fill="#114493"/>
<path d="M105.012 215.102H106.844L109.975 222.771H110.098L113.229 215.102H115.061V225H113.625V217.85H113.529L110.631 224.986H109.441L106.529 217.836H106.447V225H105.012V215.102ZM126.022 213.912V216.961H127.772V218.068H126.022V221.131H124.723V213.912H126.022ZM116.301 219.969C117.252 219.969 118.352 219.962 119.501 219.935V219.244C118.092 219.114 117.217 218.547 117.231 217.631C117.217 216.633 118.366 216.045 120.143 216.045C121.907 216.045 123.048 216.633 123.055 217.631C123.048 218.54 122.187 219.107 120.799 219.244V219.88C121.893 219.832 123.001 219.743 124.026 219.6L124.135 220.447C121.504 220.878 118.591 220.898 116.438 220.898L116.301 219.969ZM116.616 215.689V214.787H119.501V213.803H120.799V214.787H123.684V215.689H116.616ZM117.928 222.553V221.65H126.022V224.207H119.255V225.137H126.473V226.039H117.956V223.373H124.737V222.553H117.928ZM118.462 217.631C118.462 218.123 119.097 218.424 120.143 218.424C121.175 218.424 121.818 218.123 121.811 217.631C121.818 217.159 121.175 216.893 120.143 216.893C119.097 216.893 118.462 217.159 118.462 217.631ZM139.513 219.887V220.939H128.343V219.887H131.023V218.239C130.073 217.856 129.539 217.241 129.546 216.428C129.539 214.972 131.228 214.124 133.921 214.131C136.608 214.124 138.289 214.972 138.296 216.428C138.289 217.241 137.756 217.856 136.806 218.246V219.887H139.513ZM129.669 223.947C129.669 222.546 131.255 221.773 133.921 221.773C136.553 221.773 138.139 222.546 138.146 223.947C138.139 225.362 136.553 226.135 133.921 226.135C131.255 226.135 129.669 225.362 129.669 223.947ZM130.886 216.428C130.879 217.248 132.014 217.706 133.921 217.713C135.815 217.706 136.963 217.248 136.956 216.428C136.963 215.607 135.815 215.136 133.921 215.129C132.014 215.136 130.879 215.607 130.886 216.428ZM130.982 223.947C130.975 224.713 132.048 225.15 133.921 225.137C135.767 225.15 136.847 224.713 136.847 223.947C136.847 223.195 135.767 222.771 133.921 222.771C132.048 222.771 130.975 223.195 130.982 223.947ZM132.335 219.887H135.521V218.581C135.042 218.656 134.502 218.697 133.921 218.697C133.347 218.697 132.814 218.656 132.335 218.588V219.887Z" fill="#114493"/>
<rect x="53" y="244" width="138" height="138" rx="69" fill="white"/>
<rect x="53" y="244" width="138" height="138" rx="69" stroke="#819BC9" stroke-width="2"/>
<g clip-path="url(#clip0_1406_8673)">
<path d="M137.334 274.117H134.693L122.451 263.173C122.193 262.935 121.807 262.935 121.549 263.173L109.307 274.117H106.666C106.301 274.117 106 274.42 106 274.787V277.464C106 277.831 106.301 278.133 106.666 278.133H108.878V295.64H107.868C107.503 295.64 107.203 295.942 107.203 296.309C107.203 296.676 107.503 296.978 107.868 296.978H136.132C136.497 296.978 136.797 296.676 136.797 296.309C136.797 295.942 136.497 295.64 136.132 295.64H135.101V278.154H137.313C137.678 278.154 137.979 277.852 137.979 277.485V274.808C138 274.42 137.699 274.117 137.334 274.117ZM122 264.576L132.674 274.117H111.326L122 264.576ZM119.315 295.64V287.566H124.685V295.64H119.315ZM133.769 295.64H126.038V286.897C126.038 286.53 125.737 286.228 125.372 286.228H118.65C118.285 286.228 117.984 286.53 117.984 286.897V295.64H110.252V278.154H133.769V295.64ZM136.647 276.794H107.353V275.477H136.668V276.794H136.647Z" fill="#114493"/>
<path d="M122 267.188C120.346 267.188 119.015 268.526 119.015 270.189C119.015 271.851 120.346 273.189 122 273.189C123.654 273.189 124.985 271.851 124.985 270.189C124.985 268.526 123.654 267.188 122 267.188ZM122 271.829C121.098 271.829 120.368 271.095 120.368 270.189C120.368 269.282 121.098 268.548 122 268.548C122.902 268.548 123.632 269.282 123.632 270.189C123.632 271.095 122.902 271.829 122 271.829Z" fill="#114493"/>
<path d="M112.25 284.803H116.137C116.502 284.803 116.803 284.501 116.803 284.134V280.227C116.803 279.86 116.502 279.557 116.137 279.557H112.25C111.885 279.557 111.584 279.86 111.584 280.227V284.134C111.584 284.501 111.885 284.803 112.25 284.803ZM112.937 280.896H115.471V283.443H112.937V280.896Z" fill="#114493"/>
<path d="M120.046 284.803H123.933C124.298 284.803 124.599 284.501 124.599 284.134V280.227C124.599 279.86 124.298 279.558 123.933 279.558H120.046C119.681 279.558 119.38 279.86 119.38 280.227V284.134C119.38 284.501 119.681 284.803 120.046 284.803ZM120.733 280.896H123.267V283.443H120.733V280.896Z" fill="#114493"/>
<path d="M127.842 284.803H131.729C132.094 284.803 132.395 284.501 132.395 284.134V280.227C132.395 279.86 132.094 279.557 131.729 279.557H127.842C127.476 279.557 127.176 279.86 127.176 280.227V284.134C127.176 284.501 127.476 284.803 127.842 284.803ZM128.529 280.896H131.063V283.443H128.529V280.896Z" fill="#114493"/>
<path d="M112.25 294.388H116.137C116.502 294.388 116.803 294.086 116.803 293.719V289.812C116.803 289.445 116.502 289.142 116.137 289.142H112.25C111.885 289.142 111.584 289.445 111.584 289.812V293.719C111.584 294.086 111.885 294.388 112.25 294.388ZM112.937 290.481H115.471V293.028H112.937V290.481Z" fill="#114493"/>
<path d="M127.842 294.388H131.729C132.094 294.388 132.395 294.086 132.395 293.719V289.812C132.395 289.445 132.094 289.142 131.729 289.142H127.842C127.476 289.142 127.176 289.445 127.176 289.812V293.719C127.176 294.086 127.476 294.388 127.842 294.388ZM128.529 290.481H131.063V293.028H128.529V290.481Z" fill="#114493"/>
</g>
<line x1="77" y1="308.5" x2="167" y2="308.5" stroke="#114493"/>
<path d="M120.703 324.674V340.564H118.84V332.461H117.047V339.756H115.254V324.973H117.047V330.896H118.84V324.674H120.703ZM107.52 336.855V326.555H113.461V328.137H109.488V335.203C111.211 335.186 112.635 335.098 114.252 334.799L114.393 336.398C112.468 336.785 110.807 336.838 108.592 336.855H107.52ZM131.843 326.203V327.75H122.422V326.203H126.166V324.604H128.117V326.203H131.843ZM123.23 331.266C123.23 329.525 124.839 328.365 127.132 328.365C129.426 328.365 131.008 329.525 131.017 331.266C131.008 333.006 129.426 334.166 127.132 334.166C124.839 334.166 123.23 333.006 123.23 331.266ZM124.355 336.926V335.361H134.937V340.564H132.986V336.926H124.355ZM125.129 331.266C125.12 332.162 125.928 332.663 127.132 332.654C128.337 332.663 129.154 332.162 129.154 331.266C129.154 330.369 128.337 329.842 127.132 329.842C125.928 329.842 125.12 330.369 125.129 331.266ZM132.986 334.623V324.674H134.937V328.893H137.152V330.492H134.937V334.623H132.986Z" fill="#111111"/>
<path d="M100.312 355.898C100.312 353.472 100.962 351.455 102.186 349.732H103.525C102.575 351.004 101.823 353.602 101.816 355.898C101.823 358.195 102.575 360.786 103.525 362.064H102.186C100.962 360.342 100.312 358.325 100.312 355.898ZM109.839 356.609C112.491 356.609 114.166 357.45 114.173 358.879C114.166 360.301 112.491 361.142 109.839 361.135C107.214 361.142 105.532 360.301 105.532 358.879C105.532 357.45 107.214 356.609 109.839 356.609ZM104.329 355.598V354.545H108.799V352.248H110.071V354.545H115.471V355.598H104.329ZM105.628 350.553V349.514H114.077V350.539C114.084 351.517 114.084 352.528 113.735 353.793L112.464 353.656C112.792 352.405 112.792 351.503 112.792 350.553H105.628ZM106.831 358.879C106.817 359.672 107.986 360.13 109.839 360.137C111.712 360.13 112.874 359.672 112.887 358.879C112.874 358.072 111.712 357.601 109.839 357.594C107.986 357.601 106.817 358.072 106.831 358.879ZM118.982 355.898V357.43H124.765V355.898H126.036V361.012H117.697V355.898H118.982ZM116.275 354.9V353.848H124.471C124.765 352.446 124.779 351.407 124.779 350.512H117.683V349.445H126.064V350.375C126.071 351.305 126.071 352.364 125.749 353.848H127.486V354.9H116.275ZM118.982 359.945H124.765V358.441H118.982V359.945ZM132.5 352.521C132.493 354.456 133.771 356.616 135.631 357.498L134.892 358.51C133.518 357.854 132.425 356.473 131.871 354.873C131.31 356.616 130.162 358.127 128.767 358.824L128.002 357.799C129.861 356.903 131.208 354.593 131.215 352.521V351.223H128.453V350.143H135.166V351.223H132.5V352.521ZM136.478 361.162V348.912H137.777V353.766H139.746V354.859H137.777V361.162H136.478ZM143.434 355.898C143.434 358.325 142.785 360.342 141.561 362.064H140.221C141.171 360.793 141.923 358.195 141.93 355.898C141.923 353.602 141.171 351.011 140.221 349.732H141.561C142.785 351.455 143.434 353.472 143.434 355.898Z" fill="#111111"/>
<path fill-rule="evenodd" clip-rule="evenodd" d="M122.5 406.75V428H121.5V406.75H122.5Z" fill="#DA0000"/>
<path d="M122 398L127 406.75H117L122 398Z" fill="#DA0000"/>
<path d="M105.012 435.102H106.844L109.975 442.771H110.098L113.229 435.102H115.061V445H113.625V437.85H113.529L110.631 444.986H109.441L106.529 437.836H106.447V445H105.012V435.102ZM120.772 436.086C120.765 437.631 121.873 439.142 123.725 439.777L123.055 440.789C121.681 440.317 120.663 439.333 120.13 438.123C119.596 439.47 118.523 440.55 117.067 441.062L116.397 440.037C118.277 439.395 119.453 437.761 119.446 436.1V435.758H116.794V434.705H123.397V435.758H120.772V436.086ZM118.297 442.908V441.855H126.596V446.162H125.297V442.908H118.297ZM123.028 438.096V437.029H125.297V433.912H126.596V441.24H125.297V438.096H123.028ZM138.501 433.926V440.68H137.202V433.926H138.501ZM128.958 435.553V434.5H134.591V437.918H130.257V439.367C132.404 439.36 133.969 439.306 135.835 438.998L135.999 440.051C133.996 440.379 132.328 440.434 130.011 440.447H128.986V436.906H133.306V435.553H128.958ZM130.462 446.012V441.254H131.761V442.58H137.216V441.254H138.501V446.012H130.462ZM131.761 444.959H137.216V443.605H131.761V444.959Z" fill="#DA0000"/>
<rect x="27" y="463" width="190" height="190" rx="95" fill="#114493"/>
<rect x="30.5" y="466.5" width="183" height="183" rx="91.5" stroke="white" stroke-opacity="0.75" stroke-width="7"/>
<path d="M92.1015 538.777C92.0907 541.28 93.5087 543.708 96.6777 544.729L95.2382 546.877C93.1005 546.157 91.6181 544.761 90.7695 542.978C89.8993 544.933 88.3417 546.469 86.0859 547.242L84.5605 545.072C87.9013 544.041 89.33 541.42 89.3515 538.756V536.629H92.1015V538.777ZM87.6972 554.633V548.338H90.4902V552.441H101.125V554.633H87.6972ZM97.6445 549.756V535.426H100.394V541.076H103.037V543.396H100.394V549.756H97.6445ZM115.278 537.166V539.336H103.676V537.166H108.124V535.318H110.852V537.166H115.278ZM104.622 543.568C104.622 541.42 106.641 539.97 109.477 539.959C112.324 539.97 114.29 541.42 114.29 543.568C114.29 545.717 112.324 547.167 109.477 547.178C106.641 547.167 104.622 545.717 104.622 543.568ZM106.018 550.701V548.51H119.188V554.977H116.438V550.701H106.018ZM107.307 543.568C107.297 544.567 108.167 545.083 109.477 545.072C110.798 545.083 111.69 544.567 111.69 543.568C111.69 542.559 110.798 542.021 109.477 542.021C108.167 542.021 107.297 542.559 107.307 543.568ZM116.438 547.693V535.426H119.188V540.496H121.831V542.73H119.188V547.693H116.438ZM133.384 537.123V539.271H122.513V537.123H126.724V535.254H129.452V537.123H133.384ZM123.48 543.396C123.458 541.291 125.36 539.83 128.056 539.83C130.742 539.83 132.675 541.291 132.697 543.396C132.675 545.513 130.742 546.931 128.056 546.941C125.36 546.931 123.458 545.513 123.48 543.396ZM125.757 554.762V547.801H128.507V549.24H136.242V547.801H138.949V554.762H125.757ZM126.036 543.396C126.026 544.374 126.821 544.954 128.056 544.943C129.281 544.954 130.14 544.374 130.14 543.396C130.14 542.419 129.281 541.882 128.056 541.871C126.821 541.882 126.026 542.419 126.036 543.396ZM128.507 552.656H136.242V551.281H128.507V552.656ZM133.556 545.652V543.461H136.22V541.807H133.599V539.594H136.22V535.426H138.949V547.07H136.22V545.652H133.556ZM150.652 536.564V542.666H144.744V544.75C147.645 544.75 149.385 544.653 151.361 544.277L151.619 546.469C149.331 546.877 147.279 546.931 143.498 546.941H142.037V540.625H147.902V538.713H141.994V536.564H150.652ZM144.272 550.551V548.359H157.742V554.977H155.014V550.551H144.272ZM151.77 544.471V542.301H155.014V540.324H151.77V538.154H155.014V535.447H157.742V547.479H155.014V544.471H151.77ZM64.2788 563.273V576.207H54.8901V563.273H64.2788ZM57.5971 574.037H61.5503V565.422H57.5971V574.037ZM66.9428 580.977V561.426H69.6928V568.795H72.5718V571.072H69.6928V580.977H66.9428ZM78.6252 562.006C81.6008 561.995 83.8352 563.864 83.8459 566.475C83.8352 569.063 81.6008 570.911 78.6252 570.922C75.6066 570.911 73.3615 569.063 73.3615 566.475C73.3615 563.864 75.6066 561.995 78.6252 562.006ZM76.0256 566.475C76.0041 567.871 77.1105 568.698 78.6252 568.709C80.1076 568.698 81.1926 567.871 81.2033 566.475C81.1926 565.067 80.1076 564.24 78.6252 564.24C77.1213 564.24 76.0041 565.067 76.0256 566.475ZM76.3049 574.145V572.039H89.4318V577.346H79.0334V578.613H89.9689V580.762H76.3478V575.348H86.7033V574.145H76.3049ZM86.6818 571.223V561.426H89.4318V571.223H86.6818ZM108.247 561.426V581.02H105.518V561.426H108.247ZM92.8857 565.271V563.059H102.188V570.6H95.7431V574.188C98.7294 574.166 101.254 574.016 104.122 573.543L104.358 575.756C101.146 576.325 98.2353 576.443 94.6689 576.443H92.9071V568.43H99.3954V565.271H92.8857ZM118.232 566.754C118.221 569.912 119.854 573.296 123.131 574.66L121.648 576.809C119.349 575.831 117.759 573.887 116.879 571.523C115.998 574.091 114.376 576.239 112.066 577.303L110.498 575.133C113.742 573.683 115.418 570.062 115.418 566.754V565.551H111.271V563.316H122.314V565.551H118.232V566.754ZM124.248 580.977V561.426H127.019V580.977H124.248ZM150.534 561.963V564.004H147.978V566.582H150.405V568.623H135.989V566.582H138.396V564.004H135.86V561.963H150.534ZM134.292 571.803V569.654H152.124V571.803H134.292ZM136.355 574.896V572.92H149.954V577.754H139.062V578.828H150.47V580.848H136.376V575.885H147.247V574.896H136.355ZM141.146 566.582H145.228V564.004H141.146V566.582ZM169.887 561.447V574.574H167.287V568.387H165.59V572.963H163.033V561.791H165.59V566.174H167.287V561.447H169.887ZM153.859 564.971V562.779H161.314V568.73H156.523V570.653C158.661 570.621 160.262 570.503 162.109 570.148L162.346 572.297C160.1 572.748 158.178 572.802 155.234 572.812H153.881V566.754H158.672V564.971H153.859ZM155.428 578.764C159.606 578.237 161.722 576.121 161.722 574.059V573.715H164.472V574.059C164.462 576.121 166.567 578.237 170.789 578.764L169.693 580.891C166.578 580.45 164.301 579.129 163.108 577.303C161.894 579.129 159.617 580.45 156.523 580.891L155.428 578.764ZM189.711 570.9V573.07H171.879V570.9H179.399V569.332H173.577V567.141H175.983V564.154H173.448V561.963H188.122V564.154H185.565V567.141H187.993V569.332H182.149V570.9H189.711ZM173.942 580.762V574.402H187.584V580.762H173.942ZM176.649 578.57H184.899V576.551H176.649V578.57ZM178.733 567.141H182.815V564.154H178.733V567.141Z" fill="white"/>
<path d="M105.012 672.102H106.844L109.975 679.771H110.098L113.229 672.102H115.061V682H113.625V674.85H113.529L110.631 681.986H109.441L106.529 674.836H106.447V682H105.012V672.102ZM120.772 673.086C120.765 674.631 121.873 676.142 123.725 676.777L123.055 677.789C121.681 677.317 120.663 676.333 120.13 675.123C119.596 676.47 118.523 677.55 117.067 678.062L116.397 677.037C118.277 676.395 119.453 674.761 119.446 673.1V672.758H116.794V671.705H123.397V672.758H120.772V673.086ZM118.297 679.908V678.855H126.596V683.162H125.297V679.908H118.297ZM123.028 675.096V674.029H125.297V670.912H126.596V678.24H125.297V675.096H123.028ZM138.501 670.926V677.68H137.202V670.926H138.501ZM128.958 672.553V671.5H134.591V674.918H130.257V676.367C132.404 676.36 133.969 676.306 135.835 675.998L135.999 677.051C133.996 677.379 132.328 677.434 130.011 677.447H128.986V673.906H133.306V672.553H128.958ZM130.462 683.012V678.254H131.761V679.58H137.216V678.254H138.501V683.012H130.462ZM131.761 681.959H137.216V680.605H131.761V681.959Z" fill="#DA0000"/>
<path fill-rule="evenodd" clip-rule="evenodd" d="M121.5 709.25V688H122.5V709.25H121.5Z" fill="#DA0000"/>
<path d="M122 718L117 709.25H127L122 718Z" fill="#DA0000"/>
<rect x="53" y="734" width="138" height="138" rx="69" fill="white"/>
<rect x="53" y="734" width="138" height="138" rx="69" stroke="#819BC9" stroke-width="2"/>
<path d="M138.068 760.823H132.359V756.204C132.359 755.788 132.005 755.446 131.576 755.446H128.165V752.758C128.165 752.342 127.811 752 127.382 752H116.645C116.215 752 115.861 752.342 115.861 752.758V755.446H112.451C112.021 755.446 111.668 755.788 111.668 756.204V760.823H105.933C105.503 760.823 105.149 761.165 105.149 761.58V787.242C105.149 787.658 105.503 788 105.933 788H138.068C138.498 788 138.852 787.658 138.852 787.242V761.58C138.852 761.165 138.498 760.823 138.068 760.823ZM117.428 753.54H126.573V755.446H117.428V753.54ZM106.741 762.363H111.642V786.485H106.741V762.363ZM113.234 756.986H130.792V786.485H126.346V779.153C126.346 778.737 125.992 778.395 125.563 778.395H118.489C118.059 778.395 117.706 778.737 117.706 779.153V786.485H113.234V756.986ZM119.247 786.485V779.91H124.754V786.485H119.247ZM137.285 786.485H132.384V762.363H137.285V786.485Z" fill="#114493"/>
<path d="M116.19 763.878H120.157C120.586 763.878 120.94 763.536 120.94 763.12V759.283C120.94 758.868 120.586 758.525 120.157 758.525H116.19C115.761 758.525 115.407 758.868 115.407 759.283V763.12C115.407 763.536 115.761 763.878 116.19 763.878ZM116.999 760.041H119.374V762.338H116.999V760.041Z" fill="#114493"/>
<path d="M123.845 763.878H127.811C128.241 763.878 128.594 763.536 128.594 763.12V759.283C128.594 758.868 128.241 758.525 127.811 758.525H123.845C123.415 758.525 123.062 758.868 123.062 759.283V763.12C123.062 763.536 123.415 763.878 123.845 763.878ZM124.653 760.041H127.028V762.338H124.653V760.041Z" fill="#114493"/>
<path d="M116.19 770.477H120.157C120.586 770.477 120.94 770.134 120.94 769.719V765.882C120.94 765.466 120.586 765.124 120.157 765.124H116.19C115.761 765.124 115.407 765.466 115.407 765.882V769.719C115.407 770.134 115.761 770.477 116.19 770.477ZM116.999 766.664H119.374V768.961H116.999V766.664Z" fill="#114493"/>
<path d="M123.845 770.477H127.811C128.241 770.477 128.594 770.134 128.594 769.719V765.882C128.594 765.466 128.241 765.124 127.811 765.124H123.845C123.415 765.124 123.062 765.466 123.062 765.882V769.719C123.062 770.134 123.415 770.477 123.845 770.477ZM124.653 766.664H127.028V768.961H124.653V766.664Z" fill="#114493"/>
<path d="M120.157 777.1C120.586 777.1 120.94 776.758 120.94 776.342V772.505C120.94 772.09 120.586 771.747 120.157 771.747H116.19C115.761 771.747 115.407 772.09 115.407 772.505V776.342C115.407 776.758 115.761 777.1 116.19 777.1H120.157ZM116.999 773.263H119.374V775.56H116.999V773.263Z" fill="#114493"/>
<path d="M123.845 777.1H127.811C128.241 777.1 128.594 776.758 128.594 776.342V772.505C128.594 772.09 128.241 771.747 127.811 771.747H123.845C123.415 771.747 123.062 772.09 123.062 772.505V776.342C123.062 776.758 123.415 777.1 123.845 777.1ZM124.653 773.263H127.028V775.56H124.653V773.263Z" fill="#114493"/>
<path d="M109.974 764.513H108.383V766.053H109.974V764.513Z" fill="#114493"/>
<path d="M109.974 769.083H108.383V770.623H109.974V769.083Z" fill="#114493"/>
<path d="M109.974 773.654H108.383V775.193H109.974V773.654Z" fill="#114493"/>
<path d="M109.974 778.224H108.383V779.764H109.974V778.224Z" fill="#114493"/>
<path d="M109.974 782.794H108.383V784.334H109.974V782.794Z" fill="#114493"/>
<path d="M135.618 764.513H134.026V766.053H135.618V764.513Z" fill="#114493"/>
<path d="M135.618 769.083H134.026V770.623H135.618V769.083Z" fill="#114493"/>
<path d="M135.618 773.654H134.026V775.193H135.618V773.654Z" fill="#114493"/>
<path d="M135.618 778.224H134.026V779.764H135.618V778.224Z" fill="#114493"/>
<path d="M135.618 782.794H134.026V784.334H135.618V782.794Z" fill="#114493"/>
<line x1="77" y1="799.5" x2="167" y2="799.5" stroke="#114493"/>
<path d="M104.723 818.486C104.705 820.569 106.023 822.564 108.52 823.373L107.5 824.92C105.742 824.322 104.485 823.127 103.791 821.598C103.088 823.285 101.778 824.604 99.9238 825.254L98.834 823.707C101.444 822.854 102.754 820.728 102.754 818.469V816.658H104.723V818.486ZM101.383 831.248V826.203H103.387V829.666H112.193V831.248H101.383ZM109.609 827.346V815.674H111.561V820.367H113.775V822.02H111.561V827.346H109.609ZM118.816 816.377C120.873 816.368 122.49 817.555 122.885 819.295H125.759V815.674H127.711V824.199H125.759V820.877H122.903C122.525 822.661 120.89 823.865 118.816 823.865C116.382 823.865 114.615 822.301 114.615 820.104C114.615 817.933 116.382 816.368 118.816 816.377ZM116.478 820.104C116.478 821.378 117.445 822.222 118.816 822.213C120.152 822.222 121.11 821.378 121.119 820.104C121.11 818.829 120.152 818.003 118.816 818.012C117.445 818.003 116.478 818.829 116.478 820.104ZM117.234 831.371V824.938H119.168V826.625H125.759V824.938H127.711V831.371H117.234ZM119.168 829.789H125.759V828.137H119.168V829.789ZM134.632 820.525C134.632 822.986 135.643 825.465 137.867 826.66L136.777 828.102C135.3 827.319 134.298 825.922 133.727 824.252C133.164 826.054 132.162 827.601 130.677 828.471L129.535 826.994C131.785 825.693 132.778 823.039 132.786 820.525V820.033H130.079V818.451H132.786V816.236H134.632V818.451H137.286V820.033H134.632V820.525ZM136.302 823.391V821.773H138.376V815.973H140.222V830.791H138.376V823.391H136.302ZM141.593 831.564V815.674H143.456V831.564H141.593Z" fill="#111111"/>
<path d="M100.312 846.898C100.312 844.472 100.962 842.455 102.186 840.732H103.525C102.575 842.004 101.823 844.602 101.816 846.898C101.823 849.195 102.575 851.786 103.525 853.064H102.186C100.962 851.342 100.312 849.325 100.312 846.898ZM110.59 840.992C110.584 842.619 112.573 844.144 114.979 844.465L114.473 845.531C112.47 845.21 110.714 844.171 109.914 842.729C109.114 844.171 107.357 845.21 105.368 845.531L104.848 844.465C107.248 844.144 109.23 842.64 109.237 840.992V840.322H110.59V840.992ZM104.315 847.801V846.734H115.485V847.801H110.508V852.162H109.237V847.801H104.315ZM127.486 849.551V850.631H116.275V849.551H118.954V846.352C117.949 845.798 117.334 844.923 117.341 843.822C117.334 841.895 119.228 840.63 121.853 840.623C124.485 840.63 126.378 841.895 126.378 843.822C126.378 844.902 125.79 845.771 124.806 846.324V849.551H127.486ZM118.599 843.822C118.599 845.135 119.932 845.989 121.853 845.996C123.76 845.989 125.114 845.135 125.12 843.822C125.114 842.503 123.76 841.662 121.853 841.662C119.932 841.662 118.599 842.503 118.599 843.822ZM120.24 849.551H123.493V846.83C122.994 846.946 122.441 847.008 121.853 847.008C121.279 847.008 120.732 846.946 120.24 846.83V849.551ZM132.5 843.521C132.493 845.456 133.771 847.616 135.631 848.498L134.892 849.51C133.518 848.854 132.425 847.473 131.871 845.873C131.31 847.616 130.162 849.127 128.767 849.824L128.002 848.799C129.861 847.903 131.208 845.593 131.215 843.521V842.223H128.453V841.143H135.166V842.223H132.5V843.521ZM136.478 852.162V839.912H137.777V844.766H139.746V845.859H137.777V852.162H136.478ZM143.434 846.898C143.434 849.325 142.785 851.342 141.561 853.064H140.221C141.171 851.793 141.923 849.195 141.93 846.898C141.923 844.602 141.171 842.011 140.221 840.732H141.561C142.785 842.455 143.434 844.472 143.434 846.898Z" fill="#111111"/>
<path d="M105.012 892.102H106.844L109.975 899.771H110.098L113.229 892.102H115.061V902H113.625V894.85H113.529L110.631 901.986H109.441L106.529 894.836H106.447V902H105.012V892.102ZM126.022 890.912V893.961H127.772V895.068H126.022V898.131H124.723V890.912H126.022ZM116.301 896.969C117.252 896.969 118.352 896.962 119.501 896.935V896.244C118.092 896.114 117.217 895.547 117.231 894.631C117.217 893.633 118.366 893.045 120.143 893.045C121.907 893.045 123.048 893.633 123.055 894.631C123.048 895.54 122.187 896.107 120.799 896.244V896.88C121.893 896.832 123.001 896.743 124.026 896.6L124.135 897.447C121.504 897.878 118.591 897.898 116.438 897.898L116.301 896.969ZM116.616 892.689V891.787H119.501V890.803H120.799V891.787H123.684V892.689H116.616ZM117.928 899.553V898.65H126.022V901.207H119.255V902.137H126.473V903.039H117.956V900.373H124.737V899.553H117.928ZM118.462 894.631C118.462 895.123 119.097 895.424 120.143 895.424C121.175 895.424 121.818 895.123 121.811 894.631C121.818 894.159 121.175 893.893 120.143 893.893C119.097 893.893 118.462 894.159 118.462 894.631ZM139.513 896.887V897.939H128.343V896.887H131.023V895.239C130.073 894.856 129.539 894.241 129.546 893.428C129.539 891.972 131.228 891.124 133.921 891.131C136.608 891.124 138.289 891.972 138.296 893.428C138.289 894.241 137.756 894.856 136.806 895.246V896.887H139.513ZM129.669 900.947C129.669 899.546 131.255 898.773 133.921 898.773C136.553 898.773 138.139 899.546 138.146 900.947C138.139 902.362 136.553 903.135 133.921 903.135C131.255 903.135 129.669 902.362 129.669 900.947ZM130.886 893.428C130.879 894.248 132.014 894.706 133.921 894.713C135.815 894.706 136.963 894.248 136.956 893.428C136.963 892.607 135.815 892.136 133.921 892.129C132.014 892.136 130.879 892.607 130.886 893.428ZM130.982 900.947C130.975 901.713 132.048 902.15 133.921 902.137C135.767 902.15 136.847 901.713 136.847 900.947C136.847 900.195 135.767 899.771 133.921 899.771C132.048 899.771 130.975 900.195 130.982 900.947ZM132.335 896.887H135.521V895.581C135.042 895.656 134.502 895.697 133.921 895.697C133.347 895.697 132.814 895.656 132.335 895.588V896.887Z" fill="#114493"/>
<path fill-rule="evenodd" clip-rule="evenodd" d="M121.5 929.25V908H122.5V929.25H121.5Z" fill="#114493"/>
<path d="M122 938L117 929.25H127L122 938Z" fill="#114493"/>
<rect x="7" y="977.8" width="230" height="230" rx="5" fill="#FFFAF5"/>
<path d="M56.0996 1031.42V1040.91H53.8672V1037.13H51.3711V1035.32H53.8672V1031.42H56.0996ZM42.5117 1039.16C45.1309 1038.28 46.3262 1036.18 46.3789 1034.18H43.1621V1032.39H51.8457V1034.18H48.6641C48.708 1036.04 49.8506 1037.93 52.3379 1038.75L51.2305 1040.51C49.4727 1039.94 48.251 1038.78 47.5566 1037.34C46.8535 1038.97 45.5703 1040.28 43.6719 1040.93L42.5117 1039.16ZM45.1309 1044.36C45.1309 1042.42 47.2227 1041.27 50.6328 1041.26C54.0518 1041.27 56.1436 1042.42 56.1523 1044.36C56.1436 1046.3 54.0518 1047.43 50.6328 1047.43C47.2227 1047.43 45.1309 1046.3 45.1309 1044.36ZM47.3633 1044.36C47.3633 1045.27 48.5146 1045.73 50.6328 1045.73C52.7598 1045.73 53.9111 1045.27 53.9199 1044.36C53.9111 1043.44 52.7598 1042.98 50.6328 1042.99C48.5146 1042.98 47.3633 1043.44 47.3633 1044.36ZM72.7988 1040.65V1042.41H66.541V1047.42H64.3262V1042.41H58.1562V1040.65H72.7988ZM59.8789 1039.1V1032.04H62.0938V1033.88H68.8086V1032.04H71.0586V1039.1H59.8789ZM62.0938 1037.31H68.8086V1035.64H62.0938V1037.31ZM79.9355 1035.78C79.9268 1038.36 81.2627 1041.13 83.9434 1042.25L82.7305 1044.01C80.8496 1043.21 79.5488 1041.62 78.8281 1039.68C78.1074 1041.78 76.7803 1043.54 74.8906 1044.41L73.6074 1042.64C76.2617 1041.45 77.6328 1038.49 77.6328 1035.78V1034.8H74.2402V1032.97H83.2754V1034.8H79.9355V1035.78ZM84.8574 1047.42V1031.42H87.125V1047.42H84.8574ZM102.84 1031.44V1043.51H100.59V1042.25H97.5312V1040.72H100.59V1031.44H102.84ZM89.2344 1038.52C92.1611 1038.51 96.1162 1038.46 99.5 1038.05L99.623 1039.65C98.3574 1039.86 97.0479 1040.01 95.7559 1040.1V1043.15H93.5059V1045.34H103.191V1047.14H91.2734V1042.35H93.5059V1040.24C92.0732 1040.29 90.7109 1040.3 89.498 1040.3L89.2344 1038.52ZM90.4121 1034.85C90.4121 1033.14 92.0557 1031.97 94.4375 1031.98C96.7578 1031.97 98.4189 1033.14 98.4277 1034.85C98.4189 1036.56 96.7578 1037.67 94.4375 1037.66C92.0557 1037.67 90.4121 1036.56 90.4121 1034.85ZM92.5391 1034.85C92.5303 1035.62 93.2949 1036.05 94.4375 1036.04C95.5098 1036.05 96.2832 1035.62 96.3008 1034.85C96.2832 1034.06 95.5098 1033.62 94.4375 1033.62C93.2949 1033.62 92.5303 1034.06 92.5391 1034.85ZM110.732 1035.04C110.724 1037.91 111.945 1040.8 114.512 1042.04L113.158 1043.83C111.444 1042.98 110.284 1041.4 109.625 1039.47C108.922 1041.54 107.691 1043.23 105.881 1044.13L104.492 1042.32C107.208 1041.07 108.482 1038.01 108.482 1035.04V1032.65H110.732V1035.04ZM115.215 1047.42V1031.42H117.465V1037.59H119.82V1039.49H117.465V1047.42H115.215ZM124.865 1032.11C126.904 1032.09 128.53 1033.26 128.97 1034.97H131.65V1031.42H133.883V1040.02H131.65V1036.76H128.979C128.565 1038.52 126.922 1039.72 124.865 1039.72C122.404 1039.72 120.594 1038.12 120.611 1035.89C120.594 1033.7 122.404 1032.09 124.865 1032.11ZM122.738 1035.89C122.729 1037.08 123.608 1037.84 124.865 1037.84C126.078 1037.84 126.948 1037.08 126.957 1035.89C126.948 1034.69 126.078 1033.96 124.865 1033.97C123.608 1033.96 122.729 1034.69 122.738 1035.89ZM123.213 1047.24V1040.72H125.428V1042.27H131.65V1040.72H133.883V1047.24H123.213ZM125.428 1045.43H131.65V1043.99H125.428V1045.43ZM152.727 1031.42V1037.56H154.994V1039.4H152.727V1047.38H150.477V1031.42H152.727ZM139.93 1042.9C143.718 1041 145.757 1038.45 146.179 1034.88H140.844V1033.06H148.455C148.438 1037.84 146.574 1041.98 141.195 1044.62L139.93 1042.9ZM169.145 1031.42V1040.67H166.912V1036.94H164.381V1035.11H166.912V1031.42H169.145ZM155.574 1038.93C158.167 1038.09 159.362 1036.05 159.424 1034.04H156.207V1032.23H164.891V1034.04H161.709C161.735 1035.87 162.887 1037.79 165.383 1038.63L164.275 1040.4C162.5 1039.82 161.278 1038.65 160.584 1037.21C159.881 1038.81 158.598 1040.09 156.717 1040.68L155.574 1038.93ZM158.387 1047.24V1041.34H169.145V1047.24H158.387ZM160.637 1045.45H166.947V1043.09H160.637V1045.45ZM185.844 1040.65V1042.41H179.586V1047.42H177.371V1042.41H171.201V1040.65H185.844ZM172.924 1039.1V1032.04H175.139V1033.88H181.854V1032.04H184.104V1039.1H172.924ZM175.139 1037.31H181.854V1035.64H175.139V1037.31ZM191.188 1032.55C192.629 1032.55 193.824 1033.33 194.554 1034.71H198.061V1031.42H200.275V1047.45H198.061V1041.46H194.721C194.009 1043.04 192.734 1043.95 191.188 1043.95C188.762 1043.95 187.021 1041.76 187.039 1038.24C187.021 1034.75 188.762 1032.55 191.188 1032.55ZM189.184 1038.24C189.175 1040.62 189.992 1041.92 191.188 1041.92C192.392 1041.92 193.191 1040.62 193.191 1038.24C193.191 1035.87 192.392 1034.57 191.188 1034.57C189.992 1034.57 189.175 1035.87 189.184 1038.24ZM195.178 1036.52C195.283 1037.05 195.336 1037.63 195.336 1038.24C195.336 1038.74 195.301 1039.22 195.23 1039.67H198.061V1036.52H195.178Z" fill="#111111"/>
<line x1="27" y1="1061.3" x2="217" y2="1061.3" stroke="#D67100" stroke-dasharray="3 3"/>
<path d="M90.3945 1085.59V1087.39H75.8047V1085.59H90.3945ZM77.2637 1081.18C77.2637 1079.14 79.5752 1077.9 83.0996 1077.91C86.5977 1077.9 88.9092 1079.14 88.918 1081.18C88.9092 1083.23 86.5977 1084.49 83.0996 1084.49C79.5752 1084.49 77.2637 1083.23 77.2637 1081.18ZM77.5625 1093.14V1088.46H79.8125V1091.34H88.7422V1093.14H77.5625ZM79.6016 1081.18C79.584 1082.18 80.876 1082.68 83.0996 1082.68C85.3057 1082.68 86.5977 1082.18 86.5977 1081.18C86.5977 1080.22 85.3057 1079.69 83.0996 1079.67C80.876 1079.69 79.584 1080.22 79.6016 1081.18ZM105.107 1077.42V1087.46H102.98V1083.2H101.697V1086.93H99.6055V1077.72H101.697V1081.38H102.98V1077.42H105.107ZM91.2734 1080.81V1079.07H94.1035V1077.56H96.3359V1079.07H99.1309V1080.81H91.2734ZM91.7656 1084.14C91.7568 1082.46 93.2246 1081.34 95.2285 1081.34C97.2588 1081.34 98.7178 1082.46 98.7266 1084.14C98.7178 1085.8 97.2588 1086.9 95.2285 1086.91C93.2246 1086.9 91.7568 1085.8 91.7656 1084.14ZM93.7695 1084.14C93.7607 1084.87 94.3496 1085.32 95.2285 1085.31C96.0986 1085.32 96.6963 1084.87 96.7051 1084.14C96.6963 1083.39 96.0986 1082.95 95.2285 1082.96C94.3584 1082.95 93.7607 1083.39 93.7695 1084.14ZM94.1035 1090.52C94.0947 1088.66 96.1953 1087.61 99.6406 1087.6C103.095 1087.61 105.178 1088.66 105.195 1090.52C105.178 1092.36 103.095 1093.43 99.6406 1093.42C96.1953 1093.43 94.0947 1092.36 94.1035 1090.52ZM96.3535 1090.52C96.3359 1091.33 97.4697 1091.73 99.6406 1091.73C101.82 1091.73 102.928 1091.33 102.928 1090.52C102.928 1089.67 101.82 1089.28 99.6406 1089.29C97.4697 1089.28 96.3359 1089.67 96.3535 1090.52ZM119.82 1078.14V1079.43C119.829 1080.67 119.829 1082.05 119.442 1083.89H121.561V1085.7H106.918V1083.89H117.184C117.526 1082.3 117.57 1081.06 117.588 1079.93H108.711V1078.14H119.82ZM108.658 1093.24V1087.39H119.768V1093.24H108.658ZM110.855 1091.45H117.535V1089.15H110.855V1091.45ZM135.887 1077.42V1093.45H133.654V1077.42H135.887ZM123.318 1080.57V1078.76H130.93V1084.93H125.656V1087.86C128.1 1087.84 130.165 1087.72 132.512 1087.34L132.705 1089.15C130.077 1089.61 127.695 1089.71 124.777 1089.71H123.336V1083.15H128.645V1080.57H123.318ZM152.656 1086.37V1088.2H146.398V1093.43H144.184V1088.2H138.014V1086.37H152.656ZM139.49 1081.59C139.481 1079.36 141.854 1077.96 145.291 1077.95C148.728 1077.96 151.127 1079.36 151.127 1081.59C151.127 1083.76 148.728 1085.16 145.291 1085.16C141.854 1085.16 139.481 1083.76 139.49 1081.59ZM141.793 1081.59C141.784 1082.73 143.146 1083.37 145.291 1083.38C147.453 1083.37 148.807 1082.73 148.807 1081.59C148.807 1080.4 147.453 1079.75 145.291 1079.74C143.146 1079.75 141.784 1080.4 141.793 1081.59ZM167.422 1077.42V1093.42H165.295V1085.38H163.748V1092.64H161.691V1077.68H163.748V1083.59H165.295V1077.42H167.422ZM154.045 1089.8V1079.27H160.004V1081.08H156.295V1087.92C157.842 1087.89 159.213 1087.8 160.76 1087.53L160.918 1089.36C158.967 1089.73 157.262 1089.79 155.152 1089.8H154.045Z" fill="#111111"/>
<line x1="27" y1="1107.3" x2="217" y2="1107.3" stroke="#D67100" stroke-dasharray="3 3"/>
<path d="M89.6387 1123.42V1139.42H87.5117V1131.38H85.9648V1138.64H83.9082V1123.68H85.9648V1129.59H87.5117V1123.42H89.6387ZM76.2617 1135.8V1125.27H82.2207V1127.08H78.5117V1133.92C80.0586 1133.89 81.4297 1133.8 82.9766 1133.53L83.1348 1135.36C81.1836 1135.73 79.4785 1135.79 77.3691 1135.8H76.2617ZM100.854 1124.84V1126.62H91.3613V1124.84H95V1123.33H97.2324V1124.84H100.854ZM92.1348 1130.08C92.1348 1128.33 93.7871 1127.14 96.1074 1127.13C98.4365 1127.14 100.045 1128.33 100.045 1130.08C100.045 1131.84 98.4365 1133.03 96.1074 1133.04C93.7871 1133.03 92.1348 1131.84 92.1348 1130.08ZM93.2773 1135.92V1134.13H104.053V1139.42H101.803V1135.92H93.2773ZM94.332 1130.08C94.3232 1130.9 95.0352 1131.32 96.1074 1131.31C97.1885 1131.32 97.918 1130.9 97.918 1130.08C97.918 1129.26 97.1885 1128.82 96.1074 1128.82C95.0352 1128.82 94.3232 1129.26 94.332 1130.08ZM101.803 1133.46V1123.42H104.053V1127.57H106.215V1129.4H104.053V1133.46H101.803ZM112.824 1127.78C112.815 1130.22 114.116 1133.03 116.744 1134.25L115.496 1136.01C113.712 1135.19 112.446 1133.55 111.726 1131.64C111.014 1133.75 109.695 1135.54 107.85 1136.41L106.549 1134.64C109.212 1133.4 110.557 1130.43 110.574 1127.78V1126.8H107.182V1124.97H116.041V1126.8H112.824V1127.78ZM117.289 1139.42V1123.42H119.539V1129.52H121.895V1131.4H119.539V1139.42H117.289ZM128.381 1126.16C128.372 1128.21 129.532 1130.2 132.125 1131.03L130.947 1132.79C129.198 1132.2 127.985 1131.06 127.291 1129.6C126.579 1131.2 125.305 1132.46 123.459 1133.09L122.211 1131.31C124.944 1130.47 126.113 1128.33 126.131 1126.15V1124.41H128.381V1126.16ZM124.777 1139.14V1133.99H127.062V1137.34H135.764V1139.14H124.777ZM132.916 1135.15V1123.42H135.166V1128.04H137.328V1129.94H135.166V1135.15H132.916ZM150.828 1123.42V1127.2H152.867V1129.06H150.828V1132.84H148.578V1123.42H150.828ZM137.855 1131.12C139.024 1131.12 140.352 1131.12 141.74 1131.09V1130.39C139.991 1130.17 138.919 1129.45 138.928 1128.31C138.919 1127.01 140.457 1126.24 142.848 1126.25C145.221 1126.24 146.759 1127.01 146.768 1128.31C146.759 1129.44 145.695 1130.16 143.973 1130.38V1131.01C145.291 1130.94 146.601 1130.84 147.84 1130.68L147.998 1132.07C144.588 1132.64 140.879 1132.67 138.084 1132.67L137.855 1131.12ZM138.277 1125.92V1124.42H141.74V1123.28H143.973V1124.42H147.436V1125.92H138.277ZM139.982 1134.9V1133.41H150.828V1136.99H142.25V1137.82H151.355V1139.31H140V1135.64H148.578V1134.9H139.982ZM141.072 1128.31C141.063 1128.79 141.705 1129.04 142.848 1129.05C143.973 1129.04 144.614 1128.79 144.623 1128.31C144.614 1127.84 143.973 1127.64 142.848 1127.64C141.705 1127.64 141.063 1127.84 141.072 1128.31ZM168.178 1131V1132.79H153.588V1131H156.875V1129.08C155.706 1128.56 155.047 1127.77 155.047 1126.74C155.047 1124.81 157.323 1123.66 160.883 1123.65C164.416 1123.66 166.692 1124.81 166.701 1126.74C166.692 1127.79 166.016 1128.59 164.82 1129.1V1131H168.178ZM155.258 1136.5C155.258 1134.65 157.358 1133.63 160.865 1133.63C164.319 1133.63 166.42 1134.65 166.438 1136.5C166.42 1138.39 164.319 1139.4 160.865 1139.4C157.358 1139.4 155.258 1138.39 155.258 1136.5ZM157.385 1126.74C157.367 1127.62 158.624 1128.07 160.883 1128.06C163.115 1128.07 164.381 1127.62 164.381 1126.74C164.381 1125.85 163.115 1125.37 160.883 1125.37C158.624 1125.37 157.367 1125.85 157.385 1126.74ZM157.543 1136.5C157.534 1137.32 158.65 1137.73 160.865 1137.73C163.036 1137.73 164.179 1137.32 164.188 1136.5C164.179 1135.71 163.036 1135.33 160.865 1135.32C158.65 1135.33 157.534 1135.71 157.543 1136.5ZM159.143 1131H162.588V1129.65C162.061 1129.72 161.489 1129.75 160.883 1129.75C160.259 1129.75 159.679 1129.71 159.143 1129.65V1131Z" fill="#111111"/>
<line x1="27" y1="1153.3" x2="217" y2="1153.3" stroke="#D67100" stroke-dasharray="3 3"/>
<path d="M74.873 1178.37V1180.2H68.6152V1185.43H66.4004V1180.2H60.2305V1178.37H74.873ZM61.707 1173.59C61.6982 1171.36 64.0713 1169.96 67.5078 1169.95C70.9443 1169.96 73.3438 1171.36 73.3438 1173.59C73.3438 1175.76 70.9443 1177.16 67.5078 1177.16C64.0713 1177.16 61.6982 1175.76 61.707 1173.59ZM64.0098 1173.59C64.001 1174.73 65.3633 1175.37 67.5078 1175.38C69.6699 1175.37 71.0234 1174.73 71.0234 1173.59C71.0234 1172.4 69.6699 1171.75 67.5078 1171.74C65.3633 1171.75 64.001 1172.4 64.0098 1173.59ZM84.2949 1170.67C84.2861 1172.56 86.2197 1174.64 89.8848 1175.1L89.0059 1176.91C86.2109 1176.51 84.1631 1175.21 83.1172 1173.48C82.0625 1175.2 80.0234 1176.51 77.2637 1176.91L76.3672 1175.1C80.0059 1174.64 81.9307 1172.56 81.9395 1170.67V1169.9H84.2949V1170.67ZM75.8047 1179.95V1178.12H90.3945V1179.95H84.1719V1185.42H81.957V1179.95H75.8047ZM104.809 1169.42V1185.42H102.541V1169.42H104.809ZM91.4141 1180.88C95.5449 1178.93 97.3643 1176.4 97.7246 1172.85H92.2754V1171.09H100.01C100.001 1175.94 98.3047 1179.98 92.5918 1182.68L91.4141 1180.88ZM111.383 1170.11C113.422 1170.09 115.048 1171.26 115.487 1172.97H118.168V1169.42H120.4V1178.02H118.168V1174.76H115.496C115.083 1176.52 113.439 1177.72 111.383 1177.72C108.922 1177.72 107.111 1176.12 107.129 1173.89C107.111 1171.7 108.922 1170.09 111.383 1170.11ZM109.256 1173.89C109.247 1175.08 110.126 1175.84 111.383 1175.84C112.596 1175.84 113.466 1175.08 113.475 1173.89C113.466 1172.69 112.596 1171.96 111.383 1171.97C110.126 1171.96 109.247 1172.69 109.256 1173.89ZM109.73 1185.24V1178.72H111.945V1180.27H118.168V1178.72H120.4V1185.24H109.73ZM111.945 1183.43H118.168V1181.99H111.945V1183.43ZM135.869 1169.44V1180.93H133.619V1169.44H135.869ZM122.721 1174.48C122.721 1172.14 124.637 1170.45 127.098 1170.46C129.55 1170.45 131.466 1172.14 131.475 1174.48C131.466 1176.87 129.55 1178.54 127.098 1178.54C124.637 1178.54 122.721 1176.87 122.721 1174.48ZM124.918 1174.48C124.9 1175.82 125.841 1176.59 127.098 1176.59C128.311 1176.59 129.251 1175.82 129.26 1174.48C129.251 1173.18 128.311 1172.4 127.098 1172.41C125.841 1172.4 124.9 1173.18 124.918 1174.48ZM125.146 1185.14V1179.77H127.414V1183.34H136.291V1185.14H125.146ZM152.621 1176.79V1178.6H138.031V1176.79H152.621ZM138.682 1174.45C141.688 1174.18 143.331 1173.08 143.7 1171.95H139.367V1170.16H151.303V1171.95H146.935C147.295 1173.07 148.93 1174.18 152.006 1174.45L151.215 1176.21C148.191 1175.92 146.161 1174.77 145.309 1173.23C144.465 1174.77 142.452 1175.92 139.42 1176.21L138.682 1174.45ZM139.701 1182.46C139.701 1180.58 141.811 1179.49 145.309 1179.49C148.78 1179.49 150.863 1180.58 150.881 1182.46C150.863 1184.35 148.78 1185.43 145.309 1185.42C141.811 1185.43 139.701 1184.35 139.701 1182.46ZM141.986 1182.46C141.978 1183.29 143.094 1183.68 145.309 1183.68C147.479 1183.68 148.622 1183.29 148.631 1182.46C148.622 1181.63 147.479 1181.23 145.309 1181.23C143.094 1181.23 141.978 1181.63 141.986 1182.46ZM159.793 1173.78C159.784 1176.36 161.12 1179.13 163.801 1180.25L162.588 1182.01C160.707 1181.21 159.406 1179.62 158.686 1177.68C157.965 1179.78 156.638 1181.54 154.748 1182.41L153.465 1180.64C156.119 1179.45 157.49 1176.49 157.49 1173.78V1172.8H154.098V1170.97H163.133V1172.8H159.793V1173.78ZM164.715 1185.42V1169.42H166.982V1185.42H164.715ZM182.697 1169.44V1181.51H180.447V1180.25H177.389V1178.72H180.447V1169.44H182.697ZM169.092 1176.52C172.019 1176.51 175.974 1176.46 179.357 1176.05L179.48 1177.65C178.215 1177.86 176.905 1178.01 175.613 1178.1V1181.15H173.363V1183.34H183.049V1185.14H171.131V1180.35H173.363V1178.24C171.931 1178.29 170.568 1178.3 169.355 1178.3L169.092 1176.52ZM170.27 1172.85C170.27 1171.14 171.913 1169.97 174.295 1169.98C176.615 1169.97 178.276 1171.14 178.285 1172.85C178.276 1174.56 176.615 1175.67 174.295 1175.66C171.913 1175.67 170.27 1174.56 170.27 1172.85ZM172.396 1172.85C172.388 1173.62 173.152 1174.05 174.295 1174.04C175.367 1174.05 176.141 1173.62 176.158 1172.85C176.141 1172.06 175.367 1171.62 174.295 1171.62C173.152 1171.62 172.388 1172.06 172.396 1172.85Z" fill="#111111"/>
<path d="M36.9993 958L37 977.8H22L36.9993 958Z" fill="#C16800"/>
<path d="M37 958H217V1003C217 1005.76 214.761 1008 212 1008H42C39.2386 1008 37 1005.76 37 1003V958Z" fill="#FB9625"/>
<path d="M217.001 958L217 977.8H232L217.001 958Z" fill="#C16800"/>
<path d="M86.0246 973.426V992.977H83.2531V973.426H86.0246ZM69.6535 987.434C74.7023 985.049 76.926 981.955 77.3664 977.615H70.7062V975.467H80.1594C80.1486 981.396 78.0754 986.327 71.093 989.625L69.6535 987.434ZM93.8398 974.264C96.332 974.242 98.3193 975.671 98.8564 977.766H102.133V973.426H104.861V983.932H102.133V979.957H98.8671C98.3622 982.105 96.3534 983.566 93.8398 983.566C90.832 983.566 88.6191 981.611 88.6405 978.883C88.6191 976.208 90.832 974.242 93.8398 974.264ZM91.2402 978.883C91.2294 980.344 92.3036 981.268 93.8398 981.268C95.3222 981.268 96.3857 980.344 96.3964 978.883C96.3857 977.422 95.3222 976.53 93.8398 976.541C92.3036 976.53 91.2294 977.422 91.2402 978.883ZM91.8202 992.762V984.791H94.5273V986.682H102.133V984.791H104.861V992.762H91.8202ZM94.5273 990.549H102.133V988.787H94.5273V990.549ZM123.548 973.447V987.498H120.798V973.447H123.548ZM107.477 979.613C107.477 976.745 109.819 974.683 112.827 974.693C115.824 974.683 118.166 976.745 118.176 979.613C118.166 982.524 115.824 984.576 112.827 984.576C109.819 984.576 107.477 982.524 107.477 979.613ZM110.163 979.613C110.141 981.246 111.291 982.191 112.827 982.191C114.309 982.191 115.459 981.246 115.469 979.613C115.459 978.023 114.309 977.067 112.827 977.078C111.291 977.067 110.141 978.023 110.163 979.613ZM110.442 992.633V986.08H113.214V990.441H124.063V992.633H110.442ZM142.771 973.426V988.057H140.171V973.426H142.771ZM125.734 983.438C128.398 982.159 129.472 979.603 129.472 977.293V974.736H132.136V977.293C132.125 979.549 133.103 981.794 135.617 982.943L134.091 985.049C132.523 984.318 131.47 983.083 130.826 981.59C130.138 983.298 128.967 984.716 127.238 985.521L125.734 983.438ZM129.515 992.633V986.338H132.265V990.441H143.265V992.633H129.515ZM133.833 980.129V977.895H136.218V973.727H138.818V987.477H136.218V980.129H133.833ZM155.785 975.037V977.271H148.545V980.494H154.969V982.643H148.545V986.338C151.542 986.316 153.927 986.198 156.666 985.779L156.924 987.992C153.852 988.443 151.048 988.529 147.514 988.529H145.838V975.037H155.785ZM158.428 992.977V973.426H161.199V992.977H158.428ZM181.454 988.379V990.613H163.557V988.379H181.454ZM165.448 985.113V974.672H168.198V977.916H176.727V974.672H179.456V985.113H165.448ZM168.198 982.965H176.727V980.043H168.198V982.965Z" fill="white"/>
<defs>
<linearGradient id="paint0_linear_1406_8673" x1="119.5" y1="247" x2="119.5" y2="128" gradientUnits="userSpaceOnUse">
<stop stop-color="#A3C3E3" stop-opacity="0"/>
<stop offset="1" stop-color="#A3C3E3"/>
</linearGradient>
<linearGradient id="paint1_linear_1406_8673" x1="119.5" y1="867" x2="119.5" y2="986" gradientUnits="userSpaceOnUse">
<stop stop-color="#FFDAA3" stop-opacity="0"/>
<stop offset="1" stop-color="#FFDAA3"/>
</linearGradient>
<clipPath id="clip0_1406_8673">
<rect width="32" height="34" fill="white" transform="translate(106 263)"/>
</clipPath>
</defs>
</svg>
